<?xml version="1.0" encoding="utf-8"?>
<!-- Generator: Adobe Illustrator 28.3.0, SVG Export Plug-In . SVG Version: 6.00 Build 0)  -->
<svg version="1.1" id="Layer_1" xmlns="http://www.w3.org/2000/svg" xmlns:xlink="http://www.w3.org/1999/xlink" x="0px" y="0px"
	 viewBox="0 0 800 1400" style="enable-background:new 0 0 800 1400;" xml:space="preserve">
<style type="text/css">
	.st0{display:none;opacity:0.5;fill:url(#SVGID_1_);enable-background:new    ;}
	.st1{opacity:0.5;}
	.st2{opacity:0.65;fill:#FFFFFF;enable-background:new    ;}
	.st3{fill:#C45AC0;}
	.st4{opacity:0.6;}
	.st5{clip-path:url(#SVGID_00000071540347826749555070000017975770755833236358_);}
	.st6{fill:#8C3D93;}
	.st7{fill:#BE8EC3;}
	.st8{fill:#C17645;}
	.st9{fill:#B53179;}
	.st10{fill:#D2B2D4;}
	.st11{fill:#48337A;}
	.st12{fill:#B278B8;}
	.st13{fill:#E69264;}
	.st14{fill:#CB7B48;}
	.st15{fill:#9E54A6;}
	.st16{fill:#39256C;}
	.st17{fill:#A360AC;}
	.st18{fill:#4C397A;}
	.st19{fill:#692D6E;}
	.st20{fill:#8E3C92;}
	.st21{fill:#502356;}
	.st22{fill:#3F1B43;}
	.st23{fill:#BE3476;}
	.st24{fill:#461E4A;}
	.st25{fill:#BD2862;}
	.st26{fill:#3A193E;}
	.st27{fill:#BC2159;}
	.st28{fill:#201F20;}
	.st29{fill:#CA5483;}
	.st30{fill:#A553A6;}
	.st31{fill:#451D48;}
	.st32{fill:#2C132E;}
	.st33{clip-path:url(#SVGID_00000121962375998642247490000000620157237050134429_);}
	.st34{fill:#B5B4B3;}
	.st35{fill:#76A49B;}
	.st36{fill:#5E2963;}
	.st37{fill:#DEC6DF;}
	.st38{fill:#AC6FB3;}
	.st39{fill:#C599C9;}
	.st40{fill:#D5B5D7;}
	.st41{fill:#E9D8E9;}
	.st42{fill:#9647A0;}
	.st43{fill:#B47CBA;}
	.st44{fill:#C9A0CC;}
	.st45{opacity:0.58;fill:#968EFD;enable-background:new    ;}
	.st46{opacity:0.3;}
	.st47{fill:none;}
	.st48{fill:none;stroke:#F2F2F2;stroke-width:5;stroke-miterlimit:10;}
	.st49{fill:none;stroke:#F2F2F2;stroke-width:5;stroke-miterlimit:10;stroke-dasharray:11.8507,11.8507;}
</style>
<linearGradient id="SVGID_1_" gradientUnits="userSpaceOnUse" x1="501.5417" y1="-122.0086" x2="278.0823" y2="495.1668" gradientTransform="matrix(1.0947 -0.1793 -0.1793 3.0491 74.6402 -89.8489)">
	<stop  offset="0" style="stop-color:#B37CFF"/>
	<stop  offset="1" style="stop-color:#F895E7"/>
</linearGradient>
<path class="st0" d="M1028.89,213.25c21.41-154.74,24.74-271.12-10.7-378.9c-32.65-99.3-95.21-187.04-151.92-160.38
	c-46.08,21.67-91.49,78.47-132.35,153.36c-24.65,45.17-51.95,77.34-79.84,95.63c-30.81,20.22-69.33,38.22-98.5,27.75
	c-57.34-20.58-108.8-78.05-162.02-123.95c-108.89-93.89-238.63-135.25-356.12,23.62C-19.17-73.06-73.99,74.06-71.13,221.65
	c2.21,113.97,38.28,197.93,34.4,314.69c-4.38,131.88-55.56,239.07-97.07,338.74c-39.29,94.34-74.6,202.87-96.91,323.97
	c-22.3,121.1-30.66,255.85-16.27,366.44c18.74,143.98,74.24,230.24,135.71,246.34c61.46,16.11,128.05-29.99,190.53-99.08
	s122.13-160.85,182.96-243.24c20.58-27.87,44.46-55.51,63.01-36.54c20.9,21.37,24.44,89.54,31.88,144
	c16.67,122,62.22,197.48,113.13,222.89s106.95,6.48,161.8-22.96c61.09-32.78,124.46-81.59,176.82-186.41
	c52.36-104.82,90.58-278.35,77.72-420.88c-8.17-90.53-35.48-162.07-32.47-260.1c3.12-101.22,37-191.54,66.52-273.97
	C966,508.9,1007.48,367.99,1028.89,213.25z"/>
<g class="st1">
	<path class="st2" d="M210.69,793c-9.13-11.16-22.77-15.75-36.12-12.41c-14.56,3.64-22.78,17.55-36.33,23.12
		c-23.64,9.71-56.32-9.47-74.27,15.55c-21.96,30.6-38.92,7.65-38.92,28.42c0,20.77,151.69,5.47,226.54,6.56
		c10.81,0.16,57.76-0.63,37.55-23.08c-6.28-6.97-15.23-8.14-23.58-9.77c-10.88-2.13-36.76-3.29-44.65-11.76
		c-4.24-4.56-5.88-11.11-9.71-15.98C211.04,793.42,210.87,793.21,210.69,793z"/>
	<path class="st2" d="M730.13,148.84c-5.3-7.53-13.21-10.63-20.97-8.38c-8.45,2.46-13.22,11.85-21.09,15.6
		c-13.72,6.55-32.69-6.39-43.11,10.5c-12.74,20.66-22.59,5.16-22.59,19.18c0,14.02,88.05,3.69,131.49,4.43
		c6.28,0.11,33.53-0.43,21.8-15.58c-3.64-4.7-8.84-5.49-13.69-6.59c-6.32-1.44-21.34-2.22-25.91-7.94
		c-2.46-3.08-3.41-7.5-5.63-10.79C730.33,149.13,730.23,148.98,730.13,148.84z"/>
	<path class="st2" d="M631.97,167.07c-9.13-11.16-22.77-15.75-36.12-12.41c-14.56,3.64-22.78,17.55-36.33,23.12
		c-23.64,9.71-56.32-9.47-74.27,15.55c-21.96,30.6-38.92,7.65-38.92,28.42s151.69,5.47,226.54,6.56
		c10.81,0.16,57.76-0.63,37.55-23.08c-6.28-6.97-15.23-8.14-23.58-9.77c-10.88-2.13-36.76-3.29-44.65-11.76
		c-4.24-4.56-5.88-11.11-9.71-15.98C632.32,167.5,632.15,167.28,631.97,167.07z"/>
	<path class="st2" d="M244.97,74.55c-9.13-11.16-22.77-15.75-36.12-12.41c-14.56,3.64-22.78,17.55-36.33,23.12
		c-23.64,9.71-56.32-9.47-74.27,15.55c-21.96,30.6-38.92,7.65-38.92,28.42s151.69,5.47,226.54,6.56
		c10.81,0.16,57.76-0.63,37.55-23.08c-6.28-6.97-15.23-8.14-23.58-9.77c-10.88-2.13-36.76-3.29-44.65-11.76
		c-4.24-4.56-5.88-11.11-9.71-15.98C245.31,74.98,245.14,74.76,244.97,74.55z"/>
</g>
<path class="st3" d="M235.93,1217.91"/>
<g class="st4">
	<g>
		<g>
			<defs>
				
					<rect id="SVGID_00000013169819479579886350000000931404456223095956_" x="588.25" y="569.29" transform="matrix(5.289705e-03 -1 1 5.289705e-03 -65.2662 1433.0179)" width="198.84" height="360.06"/>
			</defs>
			<clipPath id="SVGID_00000047035844321916055210000012713955220256588723_">
				<use xlink:href="#SVGID_00000013169819479579886350000000931404456223095956_"  style="overflow:visible;"/>
			</clipPath>
			<g style="clip-path:url(#SVGID_00000047035844321916055210000012713955220256588723_);">
				<path class="st6" d="M867.85,732.97c0.02-6.3-5.06-11.43-11.35-11.49c-5.07-0.01-9.41,3.28-10.89,7.9
					c-0.66-0.12-1.35-0.16-2.01-0.16c-7.66-0.02-13.91,6.16-13.97,13.81c-0.02,7.66,6.16,13.91,13.81,13.97
					c7.29,0.03,13.27-5.53,13.87-12.69C863.19,743.84,867.84,738.98,867.85,732.97z M821.02,732.02c-0.01,5.6-1.79,10.79-4.74,15.05
					c1.5,2.93,2.35,6.24,2.32,9.73c-0.07,11.64-9.52,21.02-21.18,20.98c-1.93-0.01-3.83-0.3-5.61-0.8
					c-3.26,16.04-17.43,28.06-34.39,27.98c-7.7-0.03-14.77-2.55-20.52-6.81c-4.93,5.1-11.4,8.62-18.69,9.82
					c0.39,1.69,0.6,3.44,0.59,5.25c-0.05,12.23-10.01,22.11-22.27,22.01c-11.61-0.06-21.08-9.04-21.95-20.44
					c-1.44,0.14-2.9,0.19-4.39,0.19c-5.1-0.03-9.98-0.93-14.49-2.51c-3.6,13.21-15.74,22.92-30.11,22.85
					c-14.65-0.08-26.84-10.3-30.03-23.96c-5.65,10.98-17.11,18.47-30.33,18.41c-4.24-0.01-8.25-0.81-11.97-2.27
					c-1.64,10.68-10.86,18.8-21.98,18.76c-12.22-0.08-22.06-10.04-22.01-22.27c0.06-7.53,3.8-14.14,9.54-18.09
					c-2.41-1.97-3.96-5-3.93-8.37c0.03-5.93,4.85-10.69,10.78-10.66c2.47,0.01,4.73,0.86,6.56,2.28
					c2.56-12.62,12.09-22.71,24.4-26.02c-3.42-4.21-5.46-9.57-5.42-15.42c0.07-13.38,10.96-24.13,24.34-24.06
					c4.82,0.02,9.32,1.47,13.11,3.94c5.83-7.38,14.1-12.74,23.53-14.91c-0.03-0.84-0.07-1.67-0.06-2.53
					c0.15-32.52,26.68-58.77,59.2-58.62c26.26,0.14,48.41,17.47,55.89,41.3c13.59,5.08,23.2,18.22,23.15,33.58
					c-0.01,3.42-0.51,6.69-1.42,9.83c2.86-0.74,5.82-1.12,8.92-1.13c3.58,0.02,7.03,0.61,10.28,1.6c-0.29-1.61-0.45-3.27-0.42-4.99
					c0.07-14.74,12.09-26.63,26.83-26.56C809.2,705.25,821.09,717.28,821.02,732.02"/>
			</g>
		</g>
	</g>
	<path class="st7" d="M590.21,791.64c-0.06,11.2-9.19,20.21-20.34,20.12c-11.2-0.06-20.17-9.18-20.12-20.34
		c0.06-11.2,9.14-20.19,20.34-20.12C581.25,771.35,590.27,780.44,590.21,791.64"/>
	<path class="st7" d="M616.21,766.18c-0.07,13.38-10.97,24.17-24.3,24.07c-13.38-0.07-24.13-10.96-24.06-24.34
		c0.07-13.38,10.96-24.13,24.34-24.06C605.51,741.95,616.26,752.84,616.21,766.18"/>
	<path class="st7" d="M623.44,782.97c-0.02,6.3-5.15,11.38-11.49,11.35c-6.3-0.02-11.37-5.19-11.35-11.49
		c0.02-6.3,5.15-11.38,11.45-11.36C618.38,771.54,623.45,776.67,623.44,782.97"/>
	<path class="st7" d="M716.35,676.22c-0.1,18.52-15.2,33.48-33.72,33.37c-18.52-0.1-33.48-15.2-33.36-33.76
		c0.1-18.52,15.2-33.48,33.72-33.37C701.49,642.6,716.41,657.69,716.35,676.22"/>
	<path class="st7" d="M668.29,702.23c-0.05,10.08-8.26,18.23-18.34,18.17c-10.08-0.05-18.19-8.25-18.14-18.33
		s8.26-18.23,18.34-18.17C660.21,683.9,668.31,692.14,668.29,702.23"/>
	<path class="st7" d="M768.77,772.63c-0.07,12.59-10.35,22.79-22.94,22.72c-12.59-0.07-22.75-10.33-22.72-22.94
		c0.04-12.6,10.35-22.79,22.94-22.72C758.65,749.76,768.81,760.02,768.77,772.63"/>
	<path class="st7" d="M826.18,705.8c-0.04,8.56-7.01,15.47-15.61,15.42c-8.56-0.04-15.47-7.01-15.42-15.61
		c0.06-8.6,7.01-15.47,15.61-15.42C819.31,690.27,826.23,697.23,826.18,705.8"/>
	<path class="st7" d="M384.15,701.54c-0.09,15.23-12.48,27.5-27.72,27.45c-15.23-0.09-27.5-12.48-27.41-27.7
		c0.09-15.23,12.48-27.5,27.72-27.45C371.93,673.92,384.21,686.3,384.15,701.54"/>
	<path class="st6" d="M453.52,708.8c-0.09,15.23-12.48,27.5-27.72,27.45c-15.23-0.09-27.5-12.48-27.41-27.7
		c0.09-15.23,12.48-27.5,27.72-27.45C441.34,681.19,453.61,693.58,453.52,708.8"/>
	<path class="st7" d="M421.85,662.82c-0.1,22.73-18.66,41.08-41.34,40.95c-22.73-0.1-41.04-18.65-40.94-41.38
		c0.1-22.73,18.65-41.04,41.38-40.94C403.63,621.54,421.96,640.05,421.85,662.82"/>
	<path class="st7" d="M429.37,689.76c-0.06,8.6-7.06,15.5-15.62,15.46c-8.6-0.06-15.5-7.06-15.46-15.62
		c0.06-8.6,7.02-15.51,15.63-15.49C422.54,674.12,429.43,681.16,429.37,689.76"/>
	<path class="st7" d="M346.06,711.86c-0.06,8.6-7.06,15.5-15.63,15.49c-8.6-0.06-15.5-7.06-15.44-15.66
		c0.06-8.6,7.02-15.51,15.62-15.46C339.2,696.3,346.12,703.26,346.06,711.86"/>
	<path class="st7" d="M263.64,707.81c-0.09,15.23-12.48,27.5-27.72,27.45c-15.23-0.09-27.5-12.48-27.41-27.7
		c0.09-15.23,12.48-27.5,27.72-27.45C251.42,680.18,263.73,692.58,263.64,707.81"/>
	<path class="st7" d="M225.58,718.14c-0.06,8.6-7.06,15.5-15.63,15.49c-8.6-0.06-15.5-7.06-15.46-15.62
		c0.06-8.6,7.06-15.5,15.62-15.46C218.7,702.52,225.6,709.53,225.58,718.14"/>
	<path class="st8" d="M640.97,876.16l0.09-19.31l-156.54-0.81l-0.09,19.31l-115.03,404.17l382.31,2.03L640.97,876.16"/>
	<path class="st7" d="M462.24,953.29l-9.23,32.41l218.2,1.15l-8.88-32.51L462.24,953.29 M465.93,940.31l9.23-32.41l174.77,0.94
		l8.88,32.51L465.93,940.31"/>
	<path class="st9" d="M444.73,1117.17l21.32-94.86l22.48,0.11l-12.22,70.91L444.73,1117.17 M491.24,1006.83l-21.65-0.11l4.71-20.92
		l20.58,0.11L491.24,1006.83 M500.39,953.5l-18.86-0.08l2.91-12.97l18.16,0.07L500.39,953.5 M508.21,908.1l-16.46-0.1l7.31-32.62
		l14.74,0.07L508.21,908.1"/>
	<path class="st10" d="M494.83,985.91l-20.58-0.11l7.29-32.42l18.86,0.08L494.83,985.91 M502.64,940.54l-18.15-0.11l7.29-32.42
		l16.46,0.1L502.64,940.54"/>
	<path class="st11" d="M702.78,1266.02l-48.24-0.27l1.18-222.23c0.11-19.76-15.89-35.91-35.61-36.01l-26.71-0.16l-1.47-20.94
		l53.18,0.28L702.78,1266.02 M638.98,1265.69l-22.1-0.12l0.59-112.54l-10.28-19.08l-2.6-2.03l-2.47-1.91l-7.59-107.06l25.52,0.13
		c11.16,0.05,20.17,9.18,20.12,20.34L638.98,1265.69 M638.37,954.2l-48.74-0.25l-0.92-12.98l47,0.26L638.37,954.2 M628.98,908.71
		l-42.6-0.24l-2.32-32.66l38.15,0.21L628.98,908.71"/>
	<path class="st12" d="M645.07,986.7l-53.14-0.27l-2.29-32.48l48.77,0.26L645.07,986.7 M635.68,941.21l-47-0.26l-2.29-32.48
		l42.6,0.24L635.68,941.21"/>
	<path class="st9" d="M584.09,875.86l-70.27-0.36l0.09-19.31l70.27,0.36L584.09,875.86 M499.09,875.4l-14.65-0.08l0.09-19.31
		l14.65,0.08L499.09,875.4"/>
	<path class="st13" d="M513.83,875.46l-14.74-0.07l0.09-19.31l14.74,0.07L513.83,875.46"/>
	<path class="st14" d="M622.21,876.02l-38.15-0.21l0.09-19.31l38.15,0.21L622.21,876.02"/>
	<path class="st15" d="M747.56,1266.27L671.9,989.32L747.56,1266.27"/>
	<path class="st16" d="M747.56,1266.27l-44.78-0.25L645.1,986.75l26.13,0.15l-8.88-32.51l-23.96-0.11l-2.69-12.98l23.09,0.13
		l-8.88-32.51l-20.91-0.13l-6.77-32.69l18.73,0.08l30.9,113.12L747.56,1266.27"/>
	<path class="st17" d="M671.21,986.85l-26.13-0.15l-6.7-32.5l23.96,0.11L671.21,986.85 M658.81,941.36l-23.09-0.13l-6.7-32.5
		l20.95,0.1L658.81,941.36"/>
	<path class="st18" d="M640.97,876.16l-18.77-0.1l0.09-19.31l18.77,0.1L640.97,876.16"/>
	<path class="st19" d="M653.71,856.9l0.07-15.56l-181.82-0.94l-0.07,15.56L653.71,856.9"/>
	<path class="st20" d="M506.05,856.15l-17.12-0.09L489,840.5l17.12,0.09L506.05,856.15"/>
	<path class="st21" d="M631.93,856.8l-44.29-0.22l0.07-15.56l66.11,0.34l-21.78-0.1L631.93,856.8"/>
	<path class="st22" d="M653.71,856.9l-21.78-0.1l0.07-15.56l21.78,0.1L653.71,856.9"/>
	<path class="st23" d="M216.51,1181.04l-70.47-0.38l2.29-437.18l70.47,0.38L216.51,1181.04"/>
	<path class="st19" d="M218.64,773.54l-70.47-0.38l0.09-14.81l70.47,0.38L218.64,773.54"/>
	<path class="st19" d="M224.71,717.75l-82-0.42l0-4.49l82,0.42L224.71,717.75"/>
	<path class="st19" d="M218.94,717.73l-3.46-0.02l-0.15,26.13l3.46,0.02L218.94,717.73 M209.36,717.66l-3.46-0.02l-0.15,26.13
		l3.46,0.02L209.36,717.66 M199.81,717.6l-3.46-0.02l-0.15,26.13l3.46,0.02L199.81,717.6 M190.21,717.57l-3.46-0.02l-0.15,26.13
		l3.46,0.02L190.21,717.57 M180.67,717.52l-3.46-0.02l-0.15,26.13l3.46,0.02L180.67,717.52 M171.08,717.45l-3.46-0.02l-0.15,26.13
		l3.46,0.02L171.08,717.45 M161.48,717.42l-3.46-0.02l-0.15,26.13l3.46,0.02L161.48,717.42 M151.79,743.5l-3.46-0.02l0.15-26.13
		l3.46,0.02L151.79,743.5"/>
	<path class="st24" d="M218.92,722.3l-3.46-0.02l0.04-4.61l3.46,0.02L218.92,722.3"/>
	<path class="st24" d="M209.32,722.27l-3.46-0.02l0.04-4.61l3.46,0.02L209.32,722.27"/>
	<path class="st24" d="M199.77,722.21l-3.46-0.02l0.04-4.61l3.46,0.02L199.77,722.21"/>
	<path class="st24" d="M190.19,722.14l-3.46-0.02l0.04-4.61l3.46,0.02L190.19,722.14"/>
	<path class="st24" d="M180.63,722.12l-3.46-0.02l0.04-4.61l3.46,0.02L180.63,722.12"/>
	<path class="st24" d="M171.04,722.06l-3.46-0.02l0.04-4.61l3.46,0.02L171.04,722.06"/>
	<path class="st24" d="M161.49,722l-3.46-0.02l0.04-4.61l3.46,0.02L161.49,722"/>
	<path class="st24" d="M151.9,721.97l-3.46-0.02l0.04-4.61l3.46,0.02L151.9,721.97"/>
	<path class="st25" d="M206.52,928.38l-19.14-0.09l0.81-154.93l19.14,0.09L206.52,928.38 M207.43,758.63l-19.14-0.09l0.09-14.81
		l30.46,0.14l-11.32-0.06L207.43,758.63"/>
	<path class="st26" d="M207.32,773.48l-19.14-0.09l0.09-14.81l19.14,0.09L207.32,773.48"/>
	<path class="st27" d="M217.83,928.47l-11.32-0.06l0.81-154.93l11.32,0.06L217.83,928.47 M218.75,758.69l-11.32-0.06l0.09-14.81
		l11.32,0.06L218.75,758.69"/>
	<path class="st28" d="M218.64,773.54l-11.28-0.05l0.09-14.81l11.28,0.05L218.64,773.54"/>
	<path class="st29" d="M166.05,928.2l-11.32-0.06l0.81-154.93l11.32,0.06L166.05,928.2 M166.96,758.42l-11.32-0.06l0.09-14.81
		l11.32,0.06L166.96,758.42"/>
	<path class="st30" d="M166.86,773.27l-11.32-0.06l0.09-14.81l11.32,0.06L166.86,773.27"/>
	<path class="st23" d="M351.4,1181.74l-70.5-0.39l2.33-437.17l70.5,0.39L351.4,1181.74"/>
	<path class="st19" d="M353.53,774.24l-70.47-0.38l0.09-14.81l70.47,0.38L353.53,774.24"/>
	<path class="st19" d="M359.6,718.45l-82-0.42l0-4.49l82,0.42L359.6,718.45"/>
	<path class="st19" d="M353.83,718.43l-3.46-0.02l-0.15,26.13l3.46,0.02L353.83,718.43 M344.25,718.36l-3.46-0.02l-0.15,26.13
		l3.46,0.02L344.25,718.36 M334.69,718.34l-3.46-0.02l-0.15,26.13l3.46,0.02L334.69,718.34 M325.1,718.27l-3.46-0.02l-0.15,26.13
		l3.46,0.02L325.1,718.27 M315.56,718.22l-3.46-0.02l-0.15,26.13l3.46,0.02L315.56,718.22 M305.96,718.19l-3.46-0.02l-0.15,26.13
		l3.46,0.02L305.96,718.19 M296.41,718.13l-3.46-0.02l-0.15,26.13l3.46,0.02L296.41,718.13 M286.68,744.2l-3.46-0.02l0.15-26.13
		l3.46,0.02L286.68,744.2"/>
	<path class="st24" d="M353.8,723.03l-3.46-0.02l0.04-4.61l3.46,0.02L353.8,723.03"/>
	<path class="st24" d="M344.25,722.98l-3.46-0.02l0.04-4.61l3.46,0.02L344.25,722.98"/>
	<path class="st24" d="M334.66,722.91l-3.46-0.02l0.04-4.61l3.46,0.02L334.66,722.91"/>
	<path class="st24" d="M325.1,722.89l-3.46-0.02l0.04-4.61l3.46,0.02L325.1,722.89"/>
	<path class="st24" d="M315.52,722.82l-3.46-0.02l0.04-4.61l3.46,0.02L315.52,722.82"/>
	<path class="st24" d="M305.93,722.76l-3.46-0.02l0.04-4.61l3.46,0.02L305.93,722.76"/>
	<path class="st24" d="M296.37,722.74l-3.46-0.02l0.04-4.61l3.46,0.02L296.37,722.74"/>
	<path class="st24" d="M286.79,722.67l-3.46-0.02l0.04-4.61l3.46,0.02L286.79,722.67"/>
	<path class="st25" d="M341.4,929.12l-19.14-0.09l0.81-154.93l19.14,0.09L341.4,929.12 M342.32,759.33l-19.14-0.09l0.09-14.81
		l30.46,0.14l-11.32-0.06L342.32,759.33"/>
	<path class="st26" d="M342.25,774.19l-19.14-0.09l0.09-14.81l19.14,0.09L342.25,774.19"/>
	<path class="st27" d="M352.72,929.17l-11.32-0.06l0.81-154.93l11.32,0.06L352.72,929.17 M353.62,759.43l-11.32-0.06l0.09-14.81
		l11.32,0.06L353.62,759.43"/>
	<path class="st28" d="M353.53,774.24l-11.28-0.05l0.09-14.81l11.28,0.05L353.53,774.24"/>
	<path class="st29" d="M300.94,928.9l-11.32-0.06l0.81-154.93l11.32,0.06L300.94,928.9 M301.84,759.16l-11.32-0.06l0.09-14.81
		l11.32,0.06L301.84,759.16"/>
	<path class="st30" d="M301.75,773.97l-11.32-0.06l0.09-14.81l11.32,0.06L301.75,773.97"/>
	<path class="st19" d="M235.34,977.91l-3.61-5.09l29.14-20.59l-32.45-23.46l32.71-23.13l-32.45-23.46l32.7-23.09l-32.45-23.46
		l32.7-23.09l-32.45-23.46l36.27-25.63l3.61,5.09l-29.14,20.59l32.45,23.46l-32.7,23.09l32.45,23.46l-32.7,23.09l32.45,23.46
		l-32.71,23.13l32.45,23.46L235.34,977.91"/>
	<path class="st31" d="M233.88,988.55l31.74,0.16l1.17-221.12l-31.74-0.16L233.88,988.55 M271.87,995.02l-44.29-0.22l1.23-233.67
		l44.29,0.22L271.87,995.02"/>
	<path class="st32" d="M272.97,784.15l10.08,0.05l0.03-7.16l-10.08-0.05L272.97,784.15"/>
	<path class="st32" d="M272.42,888.04l10.08,0.05l0.03-7.16l-10.08-0.05L272.42,888.04"/>
	<path class="st32" d="M218.57,783.83l10.08,0.05l0.03-7.16l-10.08-0.05L218.57,783.83"/>
	<path class="st32" d="M218.05,887.73l10.08,0.05l0.03-7.16l-10.08-0.05L218.05,887.73"/>
	<g>
		<g>
			<defs>
				
					<rect id="SVGID_00000182495507288554256370000017908532784339915674_" x="387.22" y="885.63" transform="matrix(5.289705e-03 -1 1 5.289705e-03 -930.421 1706.7816)" width="10.97" height="870.88"/>
			</defs>
			<clipPath id="SVGID_00000011743661899952684690000003348372664378251431_">
				<use xlink:href="#SVGID_00000182495507288554256370000017908532784339915674_"  style="overflow:visible;"/>
			</clipPath>
			<g style="clip-path:url(#SVGID_00000011743661899952684690000003348372664378251431_);">
				<path class="st32" d="M827.04,1329l-869.62-4.58l0.06-10.37l869.62,4.58L827.04,1329"/>
			</g>
		</g>
	</g>
	<path class="st19" d="M53.63,1262.58l389.27,2.04l1.75-334.98L55.37,927.6L53.63,1262.58z"/>
	<path class="st34" d="M121.65,1201.53l-41.95-0.21l0.22-41.98l41.95,0.21L121.65,1201.53 M121.99,1134.44l-41.95-0.21l0.22-41.98
		l41.95,0.21L121.99,1134.44 M418.44,1026.89l-41.95-0.21l-0.22,41.98l41.95,0.21L418.44,1026.89 M344.47,1026.52l-41.95-0.21
		l-0.22,41.98l41.95,0.21L344.47,1026.52 M196.53,1025.73l-41.95-0.21l-0.22,41.98l41.95,0.21L196.53,1025.73 M122.35,1067.3
		l-41.95-0.21l0.22-41.98l41.95,0.21L122.35,1067.3 M418.78,959.8l-41.95-0.21l-0.22,41.98l41.95,0.21L418.78,959.8 M344.81,959.42
		l-41.95-0.21l-0.22,41.98l41.95,0.21L344.81,959.42 M270.85,959.01l-41.98-0.22l-0.22,41.98l41.98,0.22L270.85,959.01
		 M196.88,958.64l-41.95-0.21l-0.22,41.98l41.95,0.21L196.88,958.64 M122.7,1000.21L80.75,1000l0.22-41.98l41.95,0.21L122.7,1000.21
		"/>
	<path class="st24" d="M444.47,972.01l-25.72-0.15l0.05-12.11l25.72,0.15L444.47,972.01 M376.76,971.64l-32.03-0.16l0.05-12.11
		l32.03,0.16L376.76,971.64 M302.79,971.27l-32.03-0.16l0.05-12.11l32.03,0.16L302.79,971.27 M228.82,970.9l-32.03-0.16l0.05-12.11
		l32.03,0.16L228.82,970.9 M154.86,970.48l-32.03-0.16l0.05-12.11l32.03,0.16L154.86,970.48 M80.92,970.12l-25.72-0.15l0.05-12.11
		l25.72,0.15L80.92,970.12"/>
	<path class="st35" d="M418.7,971.89l-41.95-0.21l0.05-12.11l41.95,0.21L418.7,971.89 M344.77,971.49l-41.95-0.21l0.05-12.11
		l41.95,0.21L344.77,971.49 M270.8,971.12l-41.98-0.22l0.05-12.11l41.98,0.22L270.8,971.12 M196.84,970.7l-41.98-0.22l0.05-12.11
		l41.95,0.21L196.84,970.7 M122.87,970.33l-41.95-0.21l0.05-12.11l41.95,0.21L122.87,970.33"/>
	<path class="st24" d="M444.12,1039.11l-25.72-0.15l0.05-12.11l25.72,0.15L444.12,1039.11 M376.4,1038.78l-32.03-0.16l0.05-12.11
		l32.03,0.16L376.4,1038.78 M302.44,1038.37l-34.66-0.18c0.79-4.79,3.31-9.01,6.88-12.05l27.87,0.14L302.44,1038.37"/>
	<path class="st35" d="M418.35,1038.99l-41.95-0.21l0.05-12.11l41.95,0.21L418.35,1038.99 M344.39,1038.58l-41.95-0.21l0.05-12.11
		l41.95,0.21L344.39,1038.58"/>
	<path class="st24" d="M252.1,1038.12l-55.61-0.28l0.05-12.11l58.95,0.3C253.68,1029.78,252.49,1033.83,252.1,1038.12
		 M154.51,1037.58l-32.03-0.16l0.05-12.11l32.03,0.16L154.51,1037.58 M80.54,1037.2l-25.72-0.15l0.05-12.11l25.72,0.15L80.54,1037.2
		"/>
	<path class="st35" d="M196.49,1037.8l-41.95-0.21l0.05-12.11l41.95,0.21L196.49,1037.8 M122.52,1037.43l-41.95-0.21l0.05-12.11
		l41.95,0.21L122.52,1037.43"/>
	<path class="st24" d="M443.73,1106.23l-127.89-0.68l-15.8-12.18l143.74,0.75L443.73,1106.23 M202.89,1104.96l-80.72-0.41
		l0.05-12.11l96.56,0.52L202.89,1104.96 M80.19,1104.3l-25.72-0.15l0.05-12.11l25.72,0.15L80.19,1104.3"/>
	<path class="st35" d="M80.19,1104.3l41.95,0.21l0.05-12.11l-41.95-0.21L80.19,1104.3z"/>
	<path class="st24" d="M413.16,1173.17l-52.07-0.28l0.05-12.11l52.07,0.28L413.16,1173.17 M156.94,1171.81l-35.15-0.21l0.05-12.11
		l35.15,0.21L156.94,1171.81 M79.84,1171.4l-25.72-0.15l0.05-12.11l25.72,0.15L79.84,1171.4"/>
	<path class="st35" d="M79.84,1171.4l41.95,0.21l0.05-12.11l-41.95-0.21L79.84,1171.4z"/>
	<path class="st32" d="M508.3,1011.73l-0.36,69.85l15.56,0.07l0.36-69.85L508.3,1011.73"/>
	<path class="st32" d="M654.46,1281.65l-15.56-0.07l1.27-238.16c0.05-11.16-8.97-20.29-20.12-20.34l-332.22-1.73
		c-11.16-0.05-20.29,8.97-20.34,20.12l-0.19,36.47l-15.56-0.07l0.19-36.47c0.11-19.76,16.26-35.75,35.97-35.62l332.17,1.76
		c19.72,0.1,35.71,16.25,35.61,36.01L654.46,1281.65"/>
	<path class="st31" d="M777.16,1266.4l-743.54-3.92l-0.28,51.94l743.54,3.92L777.16,1266.4"/>
	<path class="st7" d="M156.17,1315.05l204.16,1.09l0.87-164.48l-204.16-1.09L156.17,1315.05z"/>
	<path class="st7" d="M350.95,1132.59l-61.63-47.5l-59.68-0.32l-62.1,46.85l-10.51,18.99l204.16,1.09L350.95,1132.59"/>
	<path class="st10" d="M289,1151.28l-94.43-0.49l6.77-19.01l1.68-2l82.28,0.43l0.75,2L289,1151.28 M179.17,1150.74l-22.1-0.12
		l10.51-18.99l2.62-1.97l19.43,0.09l-2.09,2L179.17,1150.74"/>
	<path class="st20" d="M348.35,1130.56l-32.47-25.04L348.35,1130.56 M300.07,1093.39l-10.75-8.3L300.07,1093.39"/>
	<path class="st36" d="M315.87,1105.57l-15.8-12.18L315.87,1105.57"/>
	<path class="st20" d="M170.16,1129.65l32.73-24.69L170.16,1129.65 M218.79,1092.93l10.85-8.17L218.79,1092.93"/>
	<path class="st36" d="M202.89,1104.96l15.93-11.98L202.89,1104.96"/>
	<path class="st37" d="M285.29,1130.25l-82.28-0.43l38.33-45l26.83,0.15L285.29,1130.25 M189.59,1129.74l-19.43-0.09l59.48-44.88
		l7.24,0.06L189.59,1129.74"/>
	<path class="st7" d="M229.64,1084.77l59.68,0.32l0.05-12.11l-59.68-0.32L229.64,1084.77z"/>
	<path class="st38" d="M288.09,1315.76l52.86,0.27l0.87-164.48l-52.86-0.27L288.09,1315.76z"/>
	<path class="st39" d="M341.8,1151.58l-52.86-0.27l-2.91-19.06l-0.75-2l46.1,0.24l2.11,2L341.8,1151.58"/>
	<path class="st40" d="M331.39,1130.48l-46.1-0.24l-17.09-45.26l15.44,0.07L331.39,1130.48"/>
	<path class="st38" d="M283.68,1085.07l-15.44-0.07l0.05-12.11l21.12,0.11l-5.68-0.04L283.68,1085.07"/>
	<path class="st10" d="M193.7,1315.28l-15.4-0.06l0.87-164.48l15.4,0.06L193.7,1315.28"/>
	<path class="st37" d="M194.57,1150.8l-15.4-0.06l8.36-18.98l2.09-2l13.45,0.09l-1.68,2L194.57,1150.8"/>
	<path class="st41" d="M203.01,1129.82l-13.45-0.09l47.29-44.92l4.49,0L203.01,1129.82"/>
	<path class="st10" d="M236.88,1084.82l4.49,0l0.05-12.11l-4.49,0L236.88,1084.82z"/>
	<path class="st42" d="M360.33,1316.14l-19.38-0.12l0.87-164.48l19.38,0.12L360.33,1316.14"/>
	<path class="st43" d="M361.2,1151.66l-19.38-0.12l-8.3-19.09l-2.11-2l16.92,0.07l2.6,2.03L361.2,1151.66"/>
	<path class="st44" d="M348.35,1130.56l-16.92-0.07l-47.75-45.43l5.68,0.04L348.35,1130.56"/>
	<path class="st42" d="M283.68,1085.07l5.68,0.04l0.05-12.11l-5.68-0.04L283.68,1085.07z"/>
	<path class="st19" d="M374.32,1299.53l-231.95-1.2l-0.09,16.71l231.95,1.2L374.32,1299.53"/>
	<path class="st7" d="M617.46,1153.03l-204.16-1.09l-0.87,164.48l204.16,1.09L617.46,1153.03"/>
	<path class="st7" d="M607.14,1133.94l-61.6-47.49l-59.68-0.32l-62.1,46.85l-10.47,19l204.16,1.09L607.14,1133.94"/>
	<path class="st10" d="M617.46,1153.03l-10.28-19.08l-2.6-2.03l2.6,2.03L617.46,1153.03 M545.23,1152.65l-94.43-0.49l6.8-19l1.68-2
		l82.28,0.43l0.75,2L545.23,1152.65 M435.41,1152.06l-22.1-0.12l10.47-19l2.63-2l19.43,0.09l-2.09,2L435.41,1152.06"/>
	<path class="st9" d="M602.11,1130.02l-56.55-43.61L602.11,1130.02"/>
	<path class="st14" d="M604.58,1131.93l-2.47-1.91L604.58,1131.93"/>
	<path class="st37" d="M604.58,1131.93l-58.98-45.5L604.58,1131.93 M541.52,1131.61l-82.28-0.43l38.33-45l26.83,0.15L541.52,1131.61
		"/>
	<path class="st9" d="M443.68,1117.92l1.06-0.79L443.68,1117.92 M476.3,1093.33l9.53-7.21L476.3,1093.33"/>
	<path class="st13" d="M444.73,1117.17l31.61-23.83L444.73,1117.17"/>
	<path class="st20" d="M426.4,1130.98l17.32-13.04L426.4,1130.98"/>
	<path class="st37" d="M445.82,1131.11l-19.43-0.09l59.48-44.88l7.24,0.06L445.82,1131.11"/>
	<path class="st7" d="M545.61,1074.31l-59.68-0.32l-0.06,12.14l59.68,0.32L545.61,1074.31"/>
	<path class="st38" d="M597.18,1317.39l-52.85-0.27l0.87-164.48l52.86,0.27L597.18,1317.39"/>
	<path class="st39" d="M598.08,1152.92l-52.86-0.27l-2.96-19.04l-0.75-2l46.1,0.24l2.11,2L598.08,1152.92"/>
	<path class="st40" d="M587.62,1131.85l-46.1-0.24l-17.09-45.26l15.44,0.07L587.62,1131.85"/>
	<path class="st38" d="M539.88,1086.38l-15.44-0.07l0.06-12.14l21.12,0.11l-5.68-0.04L539.88,1086.38"/>
	<path class="st10" d="M449.9,1316.59l-15.39-0.1l0.87-164.48l15.39,0.1L449.9,1316.59"/>
	<path class="st37" d="M450.8,1152.16l-15.39-0.1l8.33-18.99l2.09-2l13.45,0.09l-1.68,2L450.8,1152.16"/>
	<path class="st41" d="M459.24,1131.15l-13.42-0.08l47.25-44.93l4.49,0L459.24,1131.15"/>
	<path class="st10" d="M497.6,1086.19l-4.49,0l0.05-12.11l4.49,0L497.6,1086.19"/>
	<path class="st42" d="M616.6,1317.51l-19.38-0.12l0.87-164.48l19.38,0.12L616.6,1317.51"/>
	<path class="st43" d="M617.46,1153.03l-19.38-0.12l-8.3-19.09l-2.11-2l16.92,0.07l2.6,2.03L617.46,1153.03"/>
	<path class="st44" d="M604.58,1131.93l-16.92-0.07l-47.75-45.43l5.68,0.04L604.58,1131.93"/>
	<path class="st42" d="M545.56,1086.41l-5.68-0.04l0.06-12.14l5.68,0.04L545.56,1086.41"/>
	<path class="st19" d="M630.56,1300.85l-231.95-1.2l-0.09,16.71l231.95,1.2L630.56,1300.85"/>
</g>
<g>
	<rect x="3.37" y="1318" class="st45" width="800" height="84"/>
	<g class="st46">
		<line class="st47" x1="-2.13" y1="1359.33" x2="803.87" y2="1359.67"/>
		<g>
			<line class="st48" x1="-2.13" y1="1359.33" x2="3.87" y2="1359.33"/>
			<line class="st49" x1="15.72" y1="1359.34" x2="791.95" y2="1359.66"/>
			<line class="st48" x1="797.87" y1="1359.67" x2="803.87" y2="1359.67"/>
		</g>
	</g>
</g>
</svg>
