<?xml version="1.0" encoding="utf-8"?>
<!-- Generator: Adobe Illustrator 28.3.0, SVG Export Plug-In . SVG Version: 6.00 Build 0)  -->
<svg version="1.1" id="Layer_1" xmlns="http://www.w3.org/2000/svg" xmlns:xlink="http://www.w3.org/1999/xlink" x="0px" y="0px"
	 viewBox="0 0 800 1400" style="enable-background:new 0 0 800 1400;" xml:space="preserve">
<style type="text/css">
	.st0{display:none;opacity:0.5;fill:url(#SVGID_1_);enable-background:new    ;}
	.st1{opacity:0.5;}
	.st2{opacity:0.65;fill:#FFFFFF;enable-background:new    ;}
	.st3{opacity:0.6;}
	.st4{fill:#C45AC0;}
	.st5{fill:#DB7346;}
	.st6{fill:#51317D;}
	.st7{fill:#683B9A;}
	.st8{fill:#602C61;}
	.st9{fill:#42296C;}
	.st10{fill:#3E2765;}
	.st11{fill:#24235A;}
	.st12{fill:#332156;}
	.st13{fill:#352257;}
	.st14{clip-path:url(#SVGID_00000159471577430985738100000006831854840594043833_);}
	.st15{fill:#C68BBB;}
	.st16{clip-path:url(#SVGID_00000178171036224206130930000006699471258784104123_);}
	.st17{fill:#9DB0CE;}
	.st18{clip-path:url(#SVGID_00000168832818164526498780000017837430058946894776_);}
	.st19{fill:#4C3584;}
	.st20{opacity:0.58;fill:#968EFD;enable-background:new    ;}
	.st21{opacity:0.3;}
	.st22{fill:none;}
	.st23{fill:none;stroke:#F2F2F2;stroke-width:5;stroke-miterlimit:10;}
	.st24{fill:none;stroke:#F2F2F2;stroke-width:5;stroke-miterlimit:10;stroke-dasharray:11.8507,11.8507;}
</style>
<linearGradient id="SVGID_1_" gradientUnits="userSpaceOnUse" x1="501.5417" y1="-122.0086" x2="278.0823" y2="495.1668" gradientTransform="matrix(1.0947 -0.1793 -0.1793 3.0491 74.6402 -89.8489)">
	<stop  offset="0" style="stop-color:#B37CFF"/>
	<stop  offset="1" style="stop-color:#F895E7"/>
</linearGradient>
<path class="st0" d="M1028.89,213.25c21.41-154.74,24.74-271.12-10.7-378.9c-32.65-99.3-95.21-187.04-151.92-160.38
	c-46.08,21.67-91.49,78.47-132.35,153.36c-24.65,45.17-51.95,77.34-79.84,95.63c-30.81,20.22-69.33,38.22-98.5,27.75
	c-57.34-20.58-108.8-78.05-162.02-123.95c-108.89-93.89-238.63-135.25-356.12,23.62C-19.17-73.06-73.99,74.06-71.13,221.65
	c2.21,113.97,38.28,197.93,34.4,314.69c-4.38,131.88-55.56,239.07-97.07,338.74c-39.29,94.34-74.6,202.87-96.91,323.97
	c-22.3,121.1-30.66,255.85-16.27,366.44c18.74,143.98,74.24,230.24,135.71,246.34c61.46,16.11,128.05-29.99,190.53-99.08
	s122.13-160.85,182.96-243.24c20.58-27.87,44.46-55.51,63.01-36.54c20.9,21.37,24.44,89.54,31.88,144
	c16.67,122,62.22,197.48,113.13,222.89s106.95,6.48,161.8-22.96c61.09-32.78,124.46-81.59,176.82-186.41
	c52.36-104.82,90.58-278.35,77.72-420.88c-8.17-90.53-35.48-162.07-32.47-260.1c3.12-101.22,37-191.54,66.52-273.97
	C966,508.9,1007.48,367.99,1028.89,213.25z"/>
<g class="st1">
	<path class="st2" d="M210.69,793c-9.13-11.16-22.77-15.75-36.12-12.41c-14.56,3.64-22.78,17.55-36.33,23.12
		c-23.64,9.71-56.32-9.47-74.27,15.55c-21.96,30.6-38.92,7.65-38.92,28.42c0,20.77,151.69,5.47,226.54,6.56
		c10.81,0.16,57.76-0.63,37.55-23.08c-6.28-6.97-15.23-8.14-23.58-9.77c-10.88-2.13-36.76-3.29-44.65-11.76
		c-4.24-4.56-5.88-11.11-9.71-15.98C211.04,793.42,210.87,793.21,210.69,793z"/>
	<path class="st2" d="M730.13,148.84c-5.3-7.53-13.21-10.63-20.97-8.38c-8.45,2.46-13.22,11.85-21.09,15.6
		c-13.72,6.55-32.69-6.39-43.11,10.5c-12.74,20.66-22.59,5.16-22.59,19.18c0,14.02,88.05,3.69,131.49,4.43
		c6.28,0.11,33.53-0.43,21.8-15.58c-3.64-4.7-8.84-5.49-13.69-6.59c-6.32-1.44-21.34-2.22-25.91-7.94
		c-2.46-3.08-3.41-7.5-5.63-10.79C730.33,149.13,730.23,148.98,730.13,148.84z"/>
	<path class="st2" d="M631.97,167.07c-9.13-11.16-22.77-15.75-36.12-12.41c-14.56,3.64-22.78,17.55-36.33,23.12
		c-23.64,9.71-56.32-9.47-74.27,15.55c-21.96,30.6-38.92,7.65-38.92,28.42s151.69,5.47,226.54,6.56
		c10.81,0.16,57.76-0.63,37.55-23.08c-6.28-6.97-15.23-8.14-23.58-9.77c-10.88-2.13-36.76-3.29-44.65-11.76
		c-4.24-4.56-5.88-11.11-9.71-15.98C632.32,167.5,632.15,167.28,631.97,167.07z"/>
	<path class="st2" d="M244.97,74.55c-9.13-11.16-22.77-15.75-36.12-12.41c-14.56,3.64-22.78,17.55-36.33,23.12
		c-23.64,9.71-56.32-9.47-74.27,15.55c-21.96,30.6-38.92,7.65-38.92,28.42s151.69,5.47,226.54,6.56
		c10.81,0.16,57.76-0.63,37.55-23.08c-6.28-6.97-15.23-8.14-23.58-9.77c-10.88-2.13-36.76-3.29-44.65-11.76
		c-4.24-4.56-5.88-11.11-9.71-15.98C245.31,74.98,245.14,74.76,244.97,74.55z"/>
</g>
<g class="st3">
	<path class="st4" d="M115.08,1262.93"/>
	<path class="st5" d="M345.93,913.21l-36.95,0.15l5.11-150.59l22.24-0.11L345.93,913.21"/>
	<path class="st5" d="M313.24,795.8l25.07-0.11l-0.97-14.78l-23.6,0.08L313.24,795.8"/>
	<path class="st5" d="M340.69,833.02l-0.96-14.82l-27.22,0.13L312,833.17L340.69,833.02"/>
	<path class="st5" d="M343.09,870.32l-0.96-14.82l-30.88,0.15l-0.5,14.8L343.09,870.32"/>
	<path class="st5" d="M345.45,907.6l-0.96-14.82l-34.53,0.14l-0.5,14.8L345.45,907.6"/>
	<path class="st6" d="M399.73,1321.76l350.57-1.42l-1.02-260.46l-350.57,1.42L399.73,1321.76z"/>
	<path class="st7" d="M399.73,1321.76l-333.01,1.34l-1.66-411.72l333.01-1.34L399.73,1321.76"/>
	<path class="st8" d="M399.13,1165.35l227.17-0.9l-0.22-53.24l-227.17,0.9L399.13,1165.35z"/>
	<path class="st5" d="M201.63,910.83l-62.2,0.24l8.61-253.76l37.46-0.15L201.63,910.83"/>
	<path class="st5" d="M146.55,713.05l42.21-0.15l-1.57-24.95l-39.79,0.15L146.55,713.05"/>
	<path class="st5" d="M192.76,775.7l-1.57-24.95l-45.91,0.17l-0.85,24.95L192.76,775.7"/>
	<path class="st5" d="M196.76,838.5l-1.57-24.95l-52.05,0.23l-0.85,24.95L196.76,838.5"/>
	<path class="st5" d="M200.75,901.34l-1.57-24.95L141,876.64l-0.85,24.95L200.75,901.34"/>
	<path class="st7" d="M793.98,1320.16l-167.03,0.67l-1.27-314.12l167.03-0.67L793.98,1320.16"/>
	<path class="st5" d="M732.25,1005.76l-46.2,0.2l6.38-188.19l27.8-0.1L732.25,1005.76"/>
	<path class="st5" d="M691.41,859.02l31.33-0.13l-1.2-18.51l-29.49,0.1L691.41,859.02"/>
	<path class="st5" d="M725.69,905.47l-1.16-18.5l-34.07,0.12l-0.62,18.5L725.69,905.47"/>
	<path class="st5" d="M728.66,952.1l-1.15-18.54l-38.6,0.15l-0.64,18.55L728.66,952.1"/>
	<path class="st5" d="M731.63,998.73l-1.15-18.54l-43.14,0.19l-0.64,18.55L731.63,998.73"/>
	<path class="st9" d="M469.43,1321.48l72.76-0.28l-0.21-51.59l-72.76,0.28L469.43,1321.48z"/>
	<path class="st9" d="M399.64,1295.97l-333.01,1.34l-0.08-25.79l333.01-1.34L399.64,1295.97"/>
	<path class="st9" d="M793.84,1294.4l-167.03,0.67l-0.08-25.79l167.03-0.67L793.84,1294.4"/>
	<path class="st10" d="M617.34,1320.89l-29.78,0.13l-45.59-51.37l0.21,51.59l-0.21-51.59l-72.76,0.28l0.21,51.59l-69.66,0.29
		l-0.64-156.42l86.9-0.34L617.34,1320.89 M441.37,1111.91l-42.44,0.16l-0.22-50.77L441.37,1111.91"/>
	<path class="st11" d="M486.03,1165.01l-86.9,0.34l-0.22-53.24l42.44-0.16L486.03,1165.01"/>
	<path class="st12" d="M469.43,1321.48l72.76-0.28l-0.21-51.59l-72.76,0.28L469.43,1321.48z"/>
	<path class="st13" d="M587.57,1320.98l-45.37,0.18l-0.21-51.59L587.57,1320.98"/>
	<g>
		<g>
			<defs>
				
					<rect id="SVGID_00000069379042111625640640000010314164088485761198_" x="143.64" y="548.89" transform="matrix(1 -4.014495e-03 4.014495e-03 1 -2.3769 1.0224)" width="219.71" height="87.39"/>
			</defs>
			<clipPath id="SVGID_00000147188150039791986450000017121312683408857021_">
				<use xlink:href="#SVGID_00000069379042111625640640000010314164088485761198_"  style="overflow:visible;"/>
			</clipPath>
			<g style="clip-path:url(#SVGID_00000147188150039791986450000017121312683408857021_);">
				<path class="st15" d="M328.28,573.14c-6.49,0.03-12.51,1.14-17.58,3.08c-3.41-1.85-7.76-2.98-12.61-2.96
					c-0.69,0.03-1.39,0.06-2.08,0.08l0.03-0.08c-0.07-13.45-14.58-24.31-32.42-24.24c-7.91,0.03-15.21,2.19-20.79,5.83
					c-6.29-3.51-14.61-5.68-23.76-5.64c-19.48,0.08-35.23,9.98-35.16,22.15c0.01,1.65,0.35,3.27,0.93,4.85
					c-0.49-0.04-0.98-0.07-1.44-0.05c-16.88,0.09-30.5,10.02-30.45,22.13c0.03,5.72,3.07,10.91,8.05,14.77
					c-6.09,2.23-10.02,5.99-10.02,10.24c0.02,6.77,10.44,12.29,23.3,12.23c12.85-0.06,23.18-5.62,23.18-12.43
					c0.02-1.73-0.64-3.33-1.82-4.8c3.81-1.21,7.22-2.97,10.04-5.12c6.1,4.17,15.04,6.79,25.05,6.78c9.56-0.04,18.11-2.53,24.21-6.44
					c2.21,12.2,17.18,21.62,35.35,21.53c19.66-0.06,35.53-11.2,35.46-24.79l-0.01-0.1c0.9,0.04,1.85,0.06,2.76,0.07
					c17.8-0.09,32.22-8.44,32.18-18.64C360.6,581.31,346.07,573.05,328.28,573.14"/>
			</g>
		</g>
	</g>
	<g>
		<g>
			<defs>
				
					<rect id="SVGID_00000155137739027452564080000012613377307575080877_" x="693.62" y="754.14" transform="matrix(1 -4.014495e-03 4.014495e-03 1 -3.1217 3.0054)" width="106.89" height="49.93"/>
			</defs>
			<clipPath id="SVGID_00000054228751766390038770000014561021923912420755_">
				<use xlink:href="#SVGID_00000155137739027452564080000012613377307575080877_"  style="overflow:visible;"/>
			</clipPath>
			<g style="clip-path:url(#SVGID_00000054228751766390038770000014561021923912420755_);">
				<path class="st15" d="M784.34,769.79c-3.2,0.01-6.23,0.58-8.73,1.56c-1.68-0.92-3.89-1.52-6.32-1.51
					c-0.31-0.02-0.65,0.04-1.02,0.05l0.01-0.04c-0.04-6.73-7.26-12.12-16.16-12.12c-3.98,0.01-7.62,1.14-10.4,2.93
					c-3.11-1.79-7.26-2.85-11.83-2.82c-9.69,0.03-17.58,5-17.54,11.09c-0.02,0.82,0.16,1.61,0.43,2.39
					c-0.23,0.01-0.46,0.02-0.69,0.03c-8.41,0.03-15.23,4.97-15.18,11.01c0,2.83,1.54,5.43,4.04,7.41c-3.04,1.11-5.03,2.97-5,5.08
					c0.03,3.39,5.24,6.1,11.59,6.07c6.4-0.02,11.58-2.79,11.55-6.18c-0.01-0.87-0.32-1.67-0.89-2.37c1.9-0.6,3.6-1.51,5.02-2.56
					c3.05,2.09,7.52,3.4,12.46,3.37c4.81-0.03,9.09-1.3,12.07-3.26c1.08,6.09,8.61,10.77,17.62,10.72
					c9.83-0.03,17.74-5.59,17.72-12.35l0.01-0.04c0.49,0.04,0.9,0.04,1.36,0.03c8.88-0.05,16.1-4.2,16.09-9.32
					C800.47,773.86,793.24,769.79,784.34,769.79"/>
			</g>
		</g>
	</g>
	<path class="st15" d="M392.73,722.68c-2.79,0.02-5.43,0.5-7.65,1.35c-1.44-0.83-3.36-1.33-5.48-1.3c-0.31-0.02-0.64,0-0.93,0.04
		l0.01-0.04c-0.03-5.85-6.33-10.6-14.07-10.56c-3.47,0-6.65,0.98-9.07,2.54c-2.73-1.56-6.38-2.49-10.37-2.44
		c-8.46,0.02-15.33,4.34-15.3,9.65c0.03,0.69,0.14,1.42,0.41,2.06c-0.23,0.01-0.41-0.01-0.64,0c-7.33,0.05-13.27,4.34-13.28,9.63
		c-0.01,2.46,1.34,4.72,3.53,6.41c-2.63,0.98-4.39,2.6-4.37,4.48c0.01,2.93,4.56,5.31,10.18,5.3c5.58-0.03,10.09-2.45,10.08-5.38
		c-0.01-0.74-0.27-1.42-0.8-2.11c1.68-0.5,3.16-1.3,4.34-2.21c2.66,1.77,6.59,2.93,10.89,2.9c4.17-0.03,7.92-1.08,10.55-2.84
		c0.95,5.31,7.49,9.41,15.4,9.39c8.55-0.03,15.46-4.84,15.43-10.79l0.01-0.04c0.41,0.01,0.76,0.04,1.17,0.05
		c7.82-0.02,14.05-3.7,14.07-8.12C406.83,726.21,400.56,722.62,392.73,722.68"/>
	<path class="st5" d="M443.09,1096.35l-39.65,0.15l-0.01-8.59l39.65-0.15L443.09,1096.35"/>
	<path class="st9" d="M405.43,1094.51l35.71-0.13l-0.01-4.62l-35.71,0.13L405.43,1094.51z M445.13,1098.35l-43.63,0.16l-0.06-12.58
		l43.63-0.16L445.13,1098.35"/>
	<path class="st5" d="M500.04,1096.12l-39.65,0.15l-0.01-8.59l39.65-0.15L500.04,1096.12"/>
	<path class="st9" d="M462.28,1094.29l35.71-0.13l-0.01-4.62l-35.71,0.13L462.28,1094.29z M501.99,1098.09l-43.58,0.17l-0.06-12.58
		l43.58-0.17L501.99,1098.09"/>
	<path class="st5" d="M556.88,1095.91l-39.65,0.15l-0.01-8.59l39.65-0.15L556.88,1095.91"/>
	<path class="st9" d="M519.22,1094.06l35.71-0.13l-0.01-4.62l-35.71,0.13L519.22,1094.06z M558.89,1097.85l-43.63,0.16l-0.06-12.58
		l43.63-0.16L558.89,1097.85"/>
	<path class="st5" d="M613.82,1095.68l-39.65,0.15l-0.01-8.59l39.65-0.15L613.82,1095.68"/>
	<path class="st9" d="M576.08,1093.8l35.71-0.13l-0.01-4.62l-35.71,0.13L576.08,1093.8z M615.78,1097.65l-43.63,0.16l-0.06-12.58
		l43.63-0.16L615.78,1097.65"/>
	<path class="st9" d="M608.38,1191.57l-21.35,0.06l-0.09-19.72l21.35-0.06L608.38,1191.57"/>
	<path class="st9" d="M742.16,1320.38l-54.19,0.2l-0.07-16.69l54.19-0.2L742.16,1320.38"/>
	<path class="st17" d="M66.66,1322.4l-89.51,0.38l-0.18-50.76l89.51-0.38L66.66,1322.4"/>
	<path class="st9" d="M-7.19,1297.28c0.07,14.23-6.94,25.76-15.64,25.83c-8.69,0.03-15.77-11.44-15.82-25.7
		c-0.05-14.17,6.9-25.78,15.63-25.79C-14.34,1271.59-7.24,1283.1-7.19,1297.28"/>
	<g>
		<g>
			<defs>
				
					<rect id="SVGID_00000090261147723331131440000015981870337394684583_" x="-66.16" y="1292.56" transform="matrix(1 -4.014495e-03 4.014495e-03 1 -5.2945 -0.1287)" width="62.89" height="52.43"/>
			</defs>
			<clipPath id="SVGID_00000001645154591708567650000000173583310539827606_">
				<use xlink:href="#SVGID_00000090261147723331131440000015981870337394684583_"  style="overflow:visible;"/>
			</clipPath>
			<g style="clip-path:url(#SVGID_00000001645154591708567650000000173583310539827606_);">
				<path class="st19" d="M-7.32,1300.61c0,0-31.3-1.5-44.42,13.99c-14.37,16.96-11.71,30.33-11.71,30.33l27.57-0.09
					c0,0-3.61-15.85,10.13-20.2C-11.96,1320.25-9.95,1315.48-7.32,1300.61"/>
			</g>
		</g>
	</g>
	<path class="st9" d="M184.95,1010.46l19.08-0.09l-0.22-57.21l-19.08,0.09L184.95,1010.46"/>
	<path class="st9" d="M255.42,1010.19l19.08-0.09l-0.22-57.21l-19.08,0.09L255.42,1010.19"/>
	<path class="st9" d="M325.67,952.7l0.22,57.21l19.08-0.09l-0.22-57.21L325.67,952.7"/>
	<path class="st9" d="M114.77,1091.04l19.08-0.09l-0.24-57.17l-19.08,0.09L114.77,1091.04"/>
	<path class="st9" d="M185.25,1090.77l19.08-0.09l-0.24-57.17l-19.08,0.09L185.25,1090.77"/>
	<path class="st9" d="M255.74,1090.45l19.08-0.09l-0.24-57.17l-19.08,0.09L255.74,1090.45"/>
	<path class="st9" d="M326.22,1090.18l19.08-0.09l-0.24-57.17l-19.08,0.09L326.22,1090.18"/>
	<path class="st9" d="M115.07,1168.42l19.08-0.09l-0.24-57.17l-19.08,0.09L115.07,1168.42"/>
	<path class="st9" d="M185.54,1168.15l19.08-0.09l-0.24-57.17l-19.08,0.09L185.54,1168.15"/>
	<path class="st9" d="M256.03,1167.83l19.08-0.09l-0.24-57.17l-19.08,0.09L256.03,1167.83"/>
	<path class="st9" d="M326.55,1167.57l19.08-0.09l-0.24-57.17l-19.08,0.09L326.55,1167.57"/>
	<path class="st9" d="M115.41,1248.74l19.08-0.09l-0.24-57.17l-19.08,0.09L115.41,1248.74"/>
	<path class="st9" d="M185.89,1248.47l19.08-0.09l-0.24-57.17l-19.08,0.09L185.89,1248.47"/>
	<path class="st9" d="M256.37,1248.2l19.08-0.09l-0.24-57.17l-19.08,0.09L256.37,1248.2"/>
	<path class="st9" d="M326.86,1247.88l19.08-0.09l-0.24-57.17l-19.08,0.09L326.86,1247.88"/>
	<path class="st9" d="M114.46,1010.78l19.08-0.09l-0.22-57.21l-19.08,0.09L114.46,1010.78"/>
	<path class="st5" d="M124.77,968.53l0.03,8.41l6.59-0.04l-0.03-8.41L124.77,968.53"/>
	<path class="st5" d="M124.8,979.14l0.03,8.41l6.59-0.04l-0.03-8.41L124.8,979.14"/>
	<path class="st5" d="M131.45,989.76l-6.59,0.04l0.02,8.46l6.59-0.04L131.45,989.76"/>
	<path class="st5" d="M122.77,966.32l-0.05-10.8l-6.54,0.01l0.05,10.8L122.77,966.32"/>
	<path class="st5" d="M124.75,966.29l6.59-0.04l-0.05-10.8l-6.59,0.04L124.75,966.29"/>
	<path class="st5" d="M122.77,968.51l-6.54,0.01l0.03,8.41l6.54-0.01L122.77,968.51"/>
	<path class="st5" d="M122.89,1000.38l-6.54,0.01l0.05,8.37l6.54-0.01L122.89,1000.38"/>
	<path class="st5" d="M124.9,1000.37l0.05,8.37l6.59-0.04l-0.05-8.37L124.9,1000.37"/>
	<path class="st5" d="M122.86,987.58l-0.03-8.41l-6.54,0.01l0.03,8.41L122.86,987.58"/>
	<path class="st5" d="M122.86,989.78l-6.54,0.01l0.02,8.46l6.54-0.01L122.86,989.78"/>
	<path class="st5" d="M195.3,968.23l0.03,8.41l6.54-0.01l-0.03-8.41L195.3,968.23"/>
	<path class="st5" d="M195.32,978.88l0.03,8.41l6.54-0.01l-0.03-8.41L195.32,978.88"/>
	<path class="st5" d="M201.94,989.45l-6.54,0.01l0.02,8.46l6.54-0.01L201.94,989.45"/>
	<path class="st5" d="M193.3,966.02l-0.05-10.8l-6.59,0.04l0.05,10.8L193.3,966.02"/>
	<path class="st5" d="M195.28,965.99l6.54-0.01l-0.05-10.8l-6.54,0.01L195.28,965.99"/>
	<path class="st5" d="M193.29,968.25l-6.59,0.04l0.03,8.41l6.59-0.04L193.29,968.25"/>
	<path class="st5" d="M193.42,1000.08l-6.59,0.04l0.05,8.37l6.59-0.04L193.42,1000.08"/>
	<path class="st5" d="M195.42,1000.11l0.05,8.37l6.54-0.01l-0.05-8.37L195.42,1000.11"/>
	<path class="st5" d="M193.38,987.33l-0.03-8.41l-6.59,0.04l0.03,8.41L193.38,987.33"/>
	<path class="st5" d="M193.39,989.48l-6.59,0.04l0.02,8.46l6.59-0.04L193.39,989.48"/>
	<path class="st5" d="M265.78,967.96l0.03,8.41l6.54-0.01l-0.03-8.41L265.78,967.96"/>
	<path class="st5" d="M265.81,978.57l0.03,8.41l6.54-0.01l-0.03-8.41L265.81,978.57"/>
	<path class="st5" d="M272.42,989.17l-6.54,0.01l0.02,8.46l6.54-0.01L272.42,989.17"/>
	<path class="st5" d="M263.78,965.74l-0.05-10.8l-6.59,0.04l0.05,10.8L263.78,965.74"/>
	<path class="st5" d="M265.75,965.71l6.54-0.01l-0.05-10.8l-6.54,0.01L265.75,965.71"/>
	<path class="st5" d="M263.78,967.94l-6.59,0.04l0.03,8.41l6.59-0.04L263.78,967.94"/>
	<path class="st5" d="M263.9,999.81l-6.59,0.04l0.05,8.37l6.59-0.04L263.9,999.81"/>
	<path class="st5" d="M265.91,999.79l0.05,8.37l6.54-0.01l-0.05-8.37L265.91,999.79"/>
	<path class="st5" d="M263.87,987.01l-0.03-8.41l-6.59,0.04l0.03,8.41L263.87,987.01"/>
	<path class="st5" d="M263.87,989.2l-6.59,0.04l0.02,8.46l6.59-0.04L263.87,989.2"/>
	<path class="st5" d="M336.27,967.65l0.03,8.41l6.59-0.04l-0.03-8.41L336.27,967.65"/>
	<path class="st5" d="M336.33,978.31l0.03,8.41l6.59-0.04l-0.03-8.41L336.33,978.31"/>
	<path class="st5" d="M342.95,988.88l-6.59,0.04l0.02,8.46l6.59-0.04L342.95,988.88"/>
	<path class="st5" d="M334.27,965.43l-0.05-10.8l-6.54,0.01l0.05,10.8L334.27,965.43"/>
	<path class="st5" d="M336.27,965.45l6.59-0.04l-0.05-10.8l-6.59,0.04L336.27,965.45"/>
	<path class="st5" d="M334.25,967.66l-6.54,0.01l0.03,8.41l6.54-0.01L334.25,967.66"/>
	<path class="st5" d="M334.41,999.55l-6.54,0.01l0.05,8.37l6.54-0.01L334.41,999.55"/>
	<path class="st5" d="M336.39,999.52l0.05,8.37l6.59-0.04l-0.05-8.37L336.39,999.52"/>
	<path class="st5" d="M334.34,986.74l-0.03-8.41l-6.54,0.01l0.03,8.41L334.34,986.74"/>
	<path class="st5" d="M334.34,988.93l-6.54,0.01l0.02,8.46l6.54-0.01L334.34,988.93"/>
	<path class="st5" d="M125.71,1206.54l0.03,8.41l6.59-0.04l-0.03-8.41L125.71,1206.54"/>
	<path class="st5" d="M125.75,1217.15l0.02,8.46l6.59-0.04l-0.02-8.46L125.75,1217.15"/>
	<path class="st5" d="M132.41,1227.73l-6.59,0.04l0.04,8.51l6.59-0.04L132.41,1227.73"/>
	<path class="st5" d="M123.71,1204.32l-0.05-10.8l-6.54,0.01l0.05,10.8L123.71,1204.32"/>
	<path class="st5" d="M125.73,1204.31l6.59-0.04l-0.05-10.8l-6.59,0.04L125.73,1204.31"/>
	<path class="st5" d="M123.75,1206.53l-6.54,0.01l0.03,8.41l6.54-0.01L123.75,1206.53"/>
	<path class="st5" d="M123.87,1238.4l-6.54,0.01l0.02,8.32l6.54-0.01L123.87,1238.4"/>
	<path class="st5" d="M125.83,1238.41l0.02,8.32l6.59-0.04l-0.02-8.32L125.83,1238.41"/>
	<path class="st5" d="M123.8,1225.59l-0.02-8.46l-6.54,0.01l0.02,8.46L123.8,1225.59"/>
	<path class="st5" d="M123.82,1227.74l-6.54,0.01l0.04,8.51l6.54-0.01L123.82,1227.74"/>
	<path class="st5" d="M196.25,1206.24l0.03,8.41l6.54-0.01l-0.03-8.41L196.25,1206.24"/>
	<path class="st5" d="M196.28,1216.85l0.02,8.46l6.54-0.01l-0.02-8.46L196.28,1216.85"/>
	<path class="st5" d="M202.88,1227.46l-6.54,0.01l0.04,8.51l6.54-0.01L202.88,1227.46"/>
	<path class="st5" d="M194.25,1204.02l-0.05-10.8l-6.59,0.04l0.05,10.8L194.25,1204.02"/>
	<path class="st5" d="M196.25,1204.05l6.54-0.01l-0.05-10.8l-6.54,0.01L196.25,1204.05"/>
	<path class="st5" d="M194.27,1206.27l-6.59,0.04l0.03,8.41l6.59-0.04L194.27,1206.27"/>
	<path class="st5" d="M194.39,1238.15l-6.59,0.04l0.02,8.32l6.59-0.04L194.39,1238.15"/>
	<path class="st5" d="M196.36,1238.12l0.02,8.32l6.54-0.01l-0.02-8.32L196.36,1238.12"/>
	<path class="st5" d="M194.32,1225.33l-0.02-8.46l-6.59,0.04l0.02,8.46L194.32,1225.33"/>
	<path class="st5" d="M194.33,1227.48l-6.59,0.04l0.04,8.51l6.59-0.04L194.33,1227.48"/>
	<path class="st5" d="M266.72,1205.97l0.03,8.41l6.54-0.01l-0.03-8.41L266.72,1205.97"/>
	<path class="st5" d="M266.75,1216.57l0.02,8.46l6.54-0.01l-0.02-8.46L266.75,1216.57"/>
	<path class="st5" d="M273.37,1227.14l-6.54,0.01l0.04,8.51l6.54-0.01L273.37,1227.14"/>
	<path class="st5" d="M264.72,1203.75l-0.05-10.8l-6.59,0.04l0.05,10.8L264.72,1203.75"/>
	<path class="st5" d="M266.74,1203.73l6.54-0.01l-0.05-10.8l-6.54,0.01L266.74,1203.73"/>
	<path class="st5" d="M264.75,1206l-6.59,0.04l0.03,8.41l6.59-0.04L264.75,1206"/>
	<path class="st5" d="M264.88,1237.83l-6.59,0.04l0.02,8.32l6.59-0.04L264.88,1237.83"/>
	<path class="st5" d="M266.84,1237.84l0.02,8.32l6.54-0.01l-0.02-8.32L266.84,1237.84"/>
	<path class="st5" d="M264.8,1225.06l-0.02-8.46l-6.59,0.04l0.02,8.46L264.8,1225.06"/>
	<path class="st5" d="M264.81,1227.21l-6.59,0.04l0.04,8.51l6.59-0.04L264.81,1227.21"/>
	<path class="st5" d="M337.2,1205.69l0.03,8.41l6.59-0.04l-0.03-8.41L337.2,1205.69"/>
	<path class="st5" d="M337.27,1216.31l0.02,8.46l6.59-0.04l-0.02-8.46L337.27,1216.31"/>
	<path class="st5" d="M343.89,1226.88l-6.59,0.04l0.04,8.51l6.59-0.04L343.89,1226.88"/>
	<path class="st5" d="M335.2,1203.48l-0.05-10.8l-6.54,0.01l0.05,10.8L335.2,1203.48"/>
	<path class="st5" d="M337.21,1203.46l6.59-0.04l-0.05-10.8l-6.59,0.04L337.21,1203.46"/>
	<path class="st5" d="M335.24,1205.68l-6.54,0.01l0.03,8.41l6.54-0.01L335.24,1205.68"/>
	<path class="st5" d="M335.36,1237.56l-6.54,0.01l0.02,8.32l6.54-0.01L335.36,1237.56"/>
	<path class="st5" d="M337.37,1237.54l0.02,8.32l6.59-0.04l-0.02-8.32L337.37,1237.54"/>
	<path class="st5" d="M335.33,1224.76l-0.02-8.46l-6.54,0.01l0.02,8.46L335.33,1224.76"/>
	<path class="st5" d="M335.3,1226.9l-6.54,0.01l0.04,8.51l6.54-0.01L335.3,1226.9"/>
	<path class="st5" d="M125.41,1126.23l0.03,8.41l6.59-0.04l-0.03-8.41L125.41,1126.23"/>
	<path class="st5" d="M125.44,1136.84l0.02,8.46l6.59-0.04l-0.02-8.46L125.44,1136.84"/>
	<path class="st5" d="M132.06,1147.41l-6.59,0.04l0.04,8.51l6.59-0.04L132.06,1147.41"/>
	<path class="st5" d="M123.41,1124.02l-0.05-10.8l-6.54,0.01l0.05,10.8L123.41,1124.02"/>
	<path class="st5" d="M125.38,1123.99l6.59-0.04l-0.05-10.8l-6.59,0.04L125.38,1123.99"/>
	<path class="st5" d="M123.41,1126.21l-6.54,0.01l0.03,8.41l6.54-0.01L123.41,1126.21"/>
	<path class="st5" d="M123.53,1158.08l-6.54,0.01l0.05,8.37l6.54-0.01L123.53,1158.08"/>
	<path class="st5" d="M125.53,1158.11l0.05,8.37l6.59-0.04l-0.05-8.37L125.53,1158.11"/>
	<path class="st5" d="M123.5,1145.29l-0.02-8.46l-6.54,0.01l0.02,8.46L123.5,1145.29"/>
	<path class="st5" d="M123.51,1147.44l-6.54,0.01l0.04,8.51l6.54-0.01L123.51,1147.44"/>
	<path class="st5" d="M195.94,1125.93l0.03,8.41l6.54-0.01l-0.03-8.41L195.94,1125.93"/>
	<path class="st5" d="M195.97,1136.54l0.02,8.46l6.54-0.01l-0.02-8.46L195.97,1136.54"/>
	<path class="st5" d="M202.54,1147.13l-6.54,0.01l0.04,8.51l6.54-0.01L202.54,1147.13"/>
	<path class="st5" d="M193.94,1123.72l-0.05-10.8l-6.59,0.04l0.05,10.8L193.94,1123.72"/>
	<path class="st5" d="M195.9,1123.73l6.54-0.01l-0.05-10.8l-6.54,0.01L195.9,1123.73"/>
	<path class="st5" d="M193.93,1125.95l-6.59,0.04l0.03,8.41l6.59-0.04L193.93,1125.95"/>
	<path class="st5" d="M194.04,1157.82l-6.59,0.04l0.05,8.37l6.59-0.04L194.04,1157.82"/>
	<path class="st5" d="M196.06,1157.81l0.05,8.37l6.54-0.01l-0.05-8.37L196.06,1157.81"/>
	<path class="st5" d="M194.01,1145.03l-0.02-8.46l-6.59,0.04l0.02,8.46L194.01,1145.03"/>
	<path class="st5" d="M194.03,1147.18l-6.59,0.04l0.04,8.51l6.59-0.04L194.03,1147.18"/>
	<path class="st5" d="M266.42,1125.66l0.03,8.41l6.54-0.01l-0.03-8.41L266.42,1125.66"/>
	<path class="st5" d="M266.45,1136.27l0.02,8.46l6.54-0.01l-0.02-8.46L266.45,1136.27"/>
	<path class="st5" d="M273.07,1146.83l-6.54,0.01l0.04,8.51l6.54-0.01L273.07,1146.83"/>
	<path class="st5" d="M264.42,1123.44l-0.05-10.8l-6.59,0.04l0.05,10.8L264.42,1123.44"/>
	<path class="st5" d="M266.39,1123.41l6.54-0.01l-0.05-10.8l-6.54,0.01L266.39,1123.41"/>
	<path class="st5" d="M264.42,1125.64l-6.59,0.04l0.03,8.41l6.59-0.04L264.42,1125.64"/>
	<path class="st5" d="M264.53,1157.51l-6.59,0.04l0.05,8.37l6.59-0.04L264.53,1157.51"/>
	<path class="st5" d="M266.54,1157.53l0.05,8.37l6.54-0.01l-0.05-8.37L266.54,1157.53"/>
	<path class="st5" d="M264.49,1144.75l-0.02-8.46l-6.59,0.04l0.02,8.46L264.49,1144.75"/>
	<path class="st5" d="M264.52,1146.86l-6.59,0.04l0.04,8.51l6.59-0.04L264.52,1146.86"/>
	<path class="st5" d="M336.89,1125.39l0.03,8.41l6.59-0.04l-0.03-8.41L336.89,1125.39"/>
	<path class="st5" d="M336.92,1135.99l0.02,8.46l6.59-0.04l-0.02-8.46L336.92,1135.99"/>
	<path class="st5" d="M343.59,1146.58l-6.59,0.04l0.04,8.51l6.59-0.04L343.59,1146.58"/>
	<path class="st5" d="M334.89,1123.17l-0.05-10.8l-6.54,0.01l0.05,10.8L334.89,1123.17"/>
	<path class="st5" d="M336.87,1123.14l6.59-0.04l-0.05-10.8l-6.59,0.04L336.87,1123.14"/>
	<path class="st5" d="M334.89,1125.36l-6.54,0.01l0.03,8.41l6.54-0.01L334.89,1125.36"/>
	<path class="st5" d="M335.05,1157.25l-6.54,0.01l0.05,8.37l6.54-0.01L335.05,1157.25"/>
	<path class="st5" d="M337.03,1157.22l0.05,8.37l6.59-0.04l-0.05-8.37L337.03,1157.22"/>
	<path class="st5" d="M334.98,1144.44l-0.02-8.46l-6.54,0.01l0.02,8.46L334.98,1144.44"/>
	<path class="st5" d="M334.99,1146.59l-6.54,0.01l0.04,8.51l6.54-0.01L334.99,1146.59"/>
	<path class="st5" d="M125.08,1048.84l0.03,8.41l6.59-0.04l-0.03-8.41L125.08,1048.84"/>
	<path class="st5" d="M125.11,1059.45l0.02,8.46l6.59-0.04l-0.02-8.46L125.11,1059.45"/>
	<path class="st5" d="M131.77,1070.03l-6.59,0.04l0.04,8.51l6.59-0.04L131.77,1070.03"/>
	<path class="st5" d="M123.08,1046.62l-0.05-10.8l-6.54,0.01l0.05,10.8L123.08,1046.62"/>
	<path class="st5" d="M125.09,1046.61l6.59-0.04l-0.05-10.8l-6.59,0.04L125.09,1046.61"/>
	<path class="st5" d="M123.12,1048.83l-6.54,0.01l0.03,8.41l6.54-0.01L123.12,1048.83"/>
	<path class="st5" d="M123.23,1080.7l-6.54,0.01l0.05,8.37l6.54-0.01L123.23,1080.7"/>
	<path class="st5" d="M125.21,1080.67l0.05,8.37l6.59-0.04l-0.05-8.37L125.21,1080.67"/>
	<path class="st5" d="M123.16,1067.89l-0.02-8.46l-6.54,0.01l0.02,8.46L123.16,1067.89"/>
	<path class="st5" d="M123.18,1070.04l-6.54,0.01l0.04,8.51l6.54-0.01L123.18,1070.04"/>
	<path class="st5" d="M195.61,1048.54l0.03,8.41l6.54-0.01l-0.03-8.41L195.61,1048.54"/>
	<path class="st5" d="M195.64,1059.15l0.02,8.46l6.54-0.01l-0.02-8.46L195.64,1059.15"/>
	<path class="st5" d="M202.24,1069.75l-6.54,0.01l0.04,8.51l6.54-0.01L202.24,1069.75"/>
	<path class="st5" d="M193.61,1046.32l-0.05-10.8l-6.59,0.04l0.05,10.8L193.61,1046.32"/>
	<path class="st5" d="M195.62,1046.31l6.54-0.01l-0.05-10.8l-6.54,0.01L195.62,1046.31"/>
	<path class="st5" d="M193.63,1048.57l-6.59,0.04l0.03,8.41l6.59-0.04L193.63,1048.57"/>
	<path class="st5" d="M193.77,1080.4l-6.59,0.04l0.05,8.37l6.59-0.04L193.77,1080.4"/>
	<path class="st5" d="M195.73,1080.41l0.05,8.37l6.54-0.01l-0.05-8.37L195.73,1080.41"/>
	<path class="st5" d="M193.68,1067.63l-0.02-8.46l-6.59,0.04l0.02,8.46L193.68,1067.63"/>
	<path class="st5" d="M193.69,1069.78l-6.59,0.04l0.04,8.51l6.59-0.04L193.69,1069.78"/>
	<path class="st5" d="M266.08,1048.27l0.03,8.41l6.54-0.01l-0.03-8.41L266.08,1048.27"/>
	<path class="st5" d="M266.15,1058.89l0.02,8.46l6.54-0.01l-0.02-8.46L266.15,1058.89"/>
	<path class="st5" d="M272.74,1069.44l-6.54,0.01l0.04,8.51l6.54-0.01L272.74,1069.44"/>
	<path class="st5" d="M264.08,1046.05l-0.05-10.8l-6.59,0.04l0.05,10.8L264.08,1046.05"/>
	<path class="st5" d="M266.1,1046.03l6.54-0.01l-0.05-10.8l-6.54,0.01L266.1,1046.03"/>
	<path class="st5" d="M264.12,1048.26l-6.59,0.04l0.03,8.41l6.59-0.04L264.12,1048.26"/>
	<path class="st5" d="M264.24,1080.13l-6.59,0.04l0.05,8.37l6.59-0.04L264.24,1080.13"/>
	<path class="st5" d="M266.2,1080.14l0.05,8.37l6.54-0.01l-0.05-8.37L266.2,1080.14"/>
	<path class="st5" d="M264.21,1067.33l-0.02-8.46l-6.59,0.04l0.02,8.46L264.21,1067.33"/>
	<path class="st5" d="M264.18,1069.47l-6.59,0.04l0.04,8.51l6.59-0.04L264.18,1069.47"/>
	<path class="st5" d="M336.57,1047.95l0.03,8.41l6.59-0.04l-0.03-8.41L336.57,1047.95"/>
	<path class="st5" d="M336.65,1058.57l0.02,8.46l6.59-0.04l-0.02-8.46L336.65,1058.57"/>
	<path class="st5" d="M343.25,1069.18l-6.59,0.04l0.04,8.51l6.59-0.04L343.25,1069.18"/>
	<path class="st5" d="M334.57,1045.74l-0.05-10.8l-6.54,0.01l0.05,10.8L334.57,1045.74"/>
	<path class="st5" d="M336.57,1045.76l6.59-0.04l-0.05-10.8l-6.59,0.04L336.57,1045.76"/>
	<path class="st5" d="M334.6,1047.98l-6.54,0.01l0.03,8.41l6.54-0.01L334.6,1047.98"/>
	<path class="st5" d="M334.72,1079.86l-6.54,0.01l0.05,8.37l6.54-0.01L334.72,1079.86"/>
	<path class="st5" d="M336.73,1079.84l0.05,8.37l6.59-0.04l-0.05-8.37L336.73,1079.84"/>
	<path class="st5" d="M334.69,1067.06l-0.02-8.46l-6.54,0.01l0.02,8.46L334.69,1067.06"/>
	<path class="st5" d="M334.7,1069.21l-6.54,0.01l0.04,8.51l6.54-0.01L334.7,1069.21"/>
	<path class="st9" d="M652.01,1094.37l19.08-0.09l-0.24-57.17l-19.08,0.09L652.01,1094.37"/>
	<path class="st5" d="M662.35,1052.18l0.03,8.41l6.54-0.01l-0.03-8.41L662.35,1052.18"/>
	<path class="st5" d="M662.39,1062.79l0.02,8.46l6.54-0.01l-0.02-8.46L662.39,1062.79"/>
	<path class="st5" d="M669.01,1073.36l-6.54,0.01l0.04,8.51l6.54-0.01L669.01,1073.36"/>
	<path class="st5" d="M660.35,1049.97l-0.05-10.8l-6.59,0.04l0.05,10.8L660.35,1049.97"/>
	<path class="st5" d="M662.37,1049.95l6.54-0.01l-0.05-10.8l-6.54,0.01L662.37,1049.95"/>
	<path class="st5" d="M660.39,1052.17l-6.59,0.04l0.03,8.41l6.59-0.04L660.39,1052.17"/>
	<path class="st5" d="M660.49,1083.99l-6.59,0.04l0.05,8.37l6.59-0.04L660.49,1083.99"/>
	<path class="st5" d="M662.49,1084.02l0.05,8.37l6.54-0.01l-0.05-8.37L662.49,1084.02"/>
	<path class="st5" d="M660.44,1071.23l-0.02-8.46l-6.59,0.04l0.02,8.46L660.44,1071.23"/>
	<path class="st5" d="M660.46,1073.38l-6.59,0.04l0.04,8.51l6.59-0.04L660.46,1073.38"/>
	<path class="st9" d="M704.61,1095.43l19.08-0.09l-0.24-57.17l-19.08,0.09L704.61,1095.43"/>
	<path class="st5" d="M714.97,1053.2l0.03,8.41l6.54-0.01l-0.03-8.41L714.97,1053.2"/>
	<path class="st5" d="M715.04,1063.82l0.02,8.46l6.54-0.01l-0.02-8.46L715.04,1063.82"/>
	<path class="st5" d="M721.65,1074.43l-6.54,0.01l0.02,8.46l6.54-0.01L721.65,1074.43"/>
	<path class="st5" d="M712.97,1050.99l-0.05-10.8l-6.59,0.04l0.05,10.8L712.97,1050.99"/>
	<path class="st5" d="M714.99,1050.97l6.54-0.01l-0.05-10.8l-6.54,0.01L714.99,1050.97"/>
	<path class="st5" d="M713,1053.23l-6.59,0.04l0.03,8.41l6.59-0.04L713,1053.23"/>
	<path class="st5" d="M713.13,1085.07l-6.59,0.04l0.05,8.37l6.59-0.04L713.13,1085.07"/>
	<path class="st5" d="M715.13,1085.09l0.05,8.37l6.54-0.01l-0.05-8.37L715.13,1085.09"/>
	<path class="st5" d="M713.08,1072.31l-0.02-8.46l-6.59,0.04l0.02,8.46L713.08,1072.31"/>
	<path class="st5" d="M713.1,1074.46l-6.59,0.04l0.02,8.46l6.59-0.04L713.1,1074.46"/>
	<path class="st9" d="M753.32,1096.53l19.08-0.09l-0.22-57.21l-19.08,0.09L753.32,1096.53"/>
	<path class="st5" d="M763.68,1054.3l0.05,8.37l6.59-0.04l-0.05-8.37L763.68,1054.3"/>
	<path class="st5" d="M763.71,1064.91l0.03,8.41l6.59-0.04l-0.03-8.41L763.71,1064.91"/>
	<path class="st5" d="M770.37,1075.49l-6.59,0.04l0.02,8.46l6.59-0.04L770.37,1075.49"/>
	<path class="st5" d="M761.69,1052.05l-0.05-10.8l-6.54,0.01l0.05,10.8L761.69,1052.05"/>
	<path class="st5" d="M763.67,1052.01l6.59-0.04l-0.05-10.8l-6.59,0.04L763.67,1052.01"/>
	<path class="st5" d="M761.66,1054.32l-6.54,0.01l0.05,8.37l6.54-0.01L761.66,1054.32"/>
	<path class="st5" d="M761.79,1086.15l-6.54,0.01l0.05,8.37l6.54-0.01L761.79,1086.15"/>
	<path class="st5" d="M763.81,1086.14l0.05,8.37l6.59-0.04l-0.05-8.37L763.81,1086.14"/>
	<path class="st5" d="M761.76,1073.35l-0.03-8.41l-6.54,0.01l0.03,8.41L761.76,1073.35"/>
	<path class="st5" d="M761.76,1075.55l-6.54,0.01l0.02,8.46l6.54-0.01L761.76,1075.55"/>
	<path class="st9" d="M431.18,1215.9l-7.41,0.02l-0.1-25.61l7.41-0.02L431.18,1215.9"/>
	<path class="st9" d="M431.51,1295.76l-7.41,0.02l-0.1-25.61l7.41-0.02L431.51,1295.76"/>
	<path class="st9" d="M431.33,1254.13l-7.41,0.02l-0.1-25.61l7.41-0.02L431.33,1254.13"/>
	<path class="st5" d="M722.94,1180.3l-23.19,0.09l0.25,62.43l23.19-0.09L722.94,1180.3"/>
	<path class="st5" d="M687.3,1242.84l-0.25-62.43l-23.23,0.08l0.25,62.43L687.3,1242.84"/>
	<path class="st5" d="M758.85,1180.15l-23.19,0.09l0.25,62.43l23.19-0.09L758.85,1180.15"/>
	<path class="st5" d="M651.13,1180.6l-15.96,0.05l0.25,62.43l15.96-0.05L651.13,1180.6"/>
	<path class="st5" d="M771.51,1180.12l0.25,62.43l14.95-0.04l-0.25-62.43L771.51,1180.12"/>
</g>
<g>
	<rect x="3.37" y="1318" class="st20" width="800" height="84"/>
	<g class="st21">
		<line class="st22" x1="-2.13" y1="1359.33" x2="803.87" y2="1359.67"/>
		<g>
			<line class="st23" x1="-2.13" y1="1359.33" x2="3.87" y2="1359.33"/>
			<line class="st24" x1="15.72" y1="1359.34" x2="791.95" y2="1359.66"/>
			<line class="st23" x1="797.87" y1="1359.67" x2="803.87" y2="1359.67"/>
		</g>
	</g>
</g>
</svg>
