<?xml version="1.0" encoding="utf-8"?>
<!-- Generator: Adobe Illustrator 28.3.0, SVG Export Plug-In . SVG Version: 6.00 Build 0)  -->
<svg version="1.1" id="Layer_1" xmlns="http://www.w3.org/2000/svg" xmlns:xlink="http://www.w3.org/1999/xlink" x="0px" y="0px"
	 viewBox="0 0 800 1400" style="enable-background:new 0 0 800 1400;" xml:space="preserve">
<style type="text/css">
	.st0{opacity:0.5;}
	.st1{fill:#A62AAB;}
	.st2{fill:#7A3A90;}
	.st3{fill:#E89264;}
	.st4{opacity:0.1;fill:#7A3A90;}
	.st5{opacity:0.1;fill:#E89264;}
	.st6{opacity:0.1;}
	.st7{fill:#8765A2;}
	.st8{fill:#4E3584;}
	.st9{opacity:0.2;fill:#7A3A90;}
	.st10{fill:#C941A8;}
	.st11{opacity:0.1;fill:#A62AAB;}
	.st12{fill:#D45FC3;}
	.st13{fill:#9B928E;}
	.st14{fill:#B7B4B3;}
	.st15{fill:#9E9592;}
	.st16{opacity:0.5;fill:#E89264;}
	.st17{display:none;opacity:0.5;fill:url(#SVGID_1_);}
	.st18{opacity:0.58;fill:#968EFD;}
	.st19{opacity:0.3;}
	.st20{fill:#FCFCFC;}
	.st21{fill:none;stroke:#F2F2F2;stroke-width:5;stroke-miterlimit:10;}
	.st22{fill:none;stroke:#F2F2F2;stroke-width:5;stroke-miterlimit:10;stroke-dasharray:11.8507,11.8507;}
	.st23{opacity:0.65;fill:#FFFFFF;}
	.st24{opacity:0.5;fill:url(#SVGID_00000143619054330461084100000009542659466737735572_);enable-background:new    ;}
	.st25{fill:#C45AC0;}
</style>
<g class="st0">
	<g>
		<g>
			<path class="st1" d="M81.64,1056.43l-13.14,0.04l0.82-291.6c0.03-12.41,8.9-22.54,19.77-22.57l1.46,0
				c10.87-0.03,19.67,10.03,19.64,22.44l-0.55,194.37c-0.01,4.14,2.79,7.49,6.25,7.48c3.46-0.01,6.28-3.39,6.29-7.52l0.55-194.37
				c0.03-12.41,8.9-22.54,19.77-22.57l1.46,0c10.86-0.03,19.67,10.03,19.64,22.44l-0.52,184.76c-0.01,4.14,2.93,7.49,6.55,7.48
				l2.48-0.01c3.62-0.01,6.58-3.39,6.59-7.53l0.5-179.5c0.03-12.41,8.77-22.54,19.47-22.57c10.7-0.03,19.38,10.04,19.34,22.45
				l-0.51,182.71c-0.01,4.14,2.93,7.49,6.55,7.48l3.51-0.01c3.62-0.01,6.58-3.39,6.59-7.53l0.51-182.44
				c0.03-12.41,8.9-22.54,19.77-22.57l4.54-0.01c10.86-0.03,19.67,10.04,19.64,22.45l-0.51,182.44c-0.01,4.14,2.93,7.49,6.55,7.48
				l1.46,0c2.95-0.01,5.21-0.52,6.57-1.01l0.01-2.54l13.14-0.04l-0.02,5.51c-0.02,7.91-7.77,13.04-19.74,13.08l-1.46,0
				c-10.87,0.03-19.67-10.03-19.64-22.45l0.51-182.44c0.01-4.14-2.92-7.49-6.55-7.48l-4.54,0.01c-3.62,0.01-6.58,3.39-6.59,7.52
				l-0.51,182.44c-0.03,12.41-8.9,22.54-19.77,22.57l-3.51,0.01c-10.86,0.03-19.68-10.03-19.64-22.45l0.51-182.71
				c0.01-4.14-2.79-7.49-6.25-7.48c-3.46,0.01-6.28,3.39-6.29,7.52l-0.5,179.5c-0.03,12.41-8.9,22.54-19.77,22.57l-2.48,0.01
				c-10.87,0.03-19.68-10.03-19.64-22.45l0.52-184.76c0.01-4.14-2.93-7.49-6.55-7.48l-1.46,0c-3.62,0.01-6.58,3.39-6.59,7.52
				l-0.55,194.37c-0.03,12.41-8.77,22.54-19.47,22.57c-10.7,0.03-19.38-10.03-19.34-22.45l0.55-194.37
				c0.01-4.14-2.92-7.49-6.55-7.48l-1.46,0c-3.62,0.01-6.58,3.39-6.59,7.52L81.64,1056.43z"/>
		</g>
	</g>
	<polygon class="st2" points="103.04,1170.81 40.48,1171.01 50.52,829.63 96.94,829.48 	"/>
	<polygon class="st2" points="190.79,1170.53 128.23,1170.73 138.11,886.26 184.53,886.11 	"/>
	<path class="st2" d="M103.87,828.63c-0.01,2.3-1.64,4.17-3.65,4.17l-51.88,0.17c-2.01,0.01-3.64-1.85-3.63-4.15l0,0
		c0.01-2.3,1.64-4.16,3.66-4.17l51.88-0.17C102.25,824.47,103.87,826.33,103.87,828.63L103.87,828.63z"/>
	<path class="st2" d="M191.08,885.26c-0.01,2.3-1.64,4.17-3.65,4.17l-51.88,0.17c-2.01,0.01-3.63-1.85-3.63-4.15l0,0
		c0.01-2.3,1.64-4.16,3.65-4.17l51.88-0.17C189.47,881.11,191.09,882.96,191.08,885.26L191.08,885.26z"/>
	<polygon class="st3" points="96.83,844.72 48.78,844.88 48.79,841.58 96.84,841.43 	"/>
	<polygon class="st3" points="96.81,852.41 48.76,852.56 48.77,849.27 96.82,849.11 	"/>
	<polygon class="st4" points="73.15,1170.9 103.04,1170.81 96.94,829.48 74.1,829.55 	"/>
	<polygon class="st4" points="159.62,1170.63 190.79,1170.53 184.53,886.11 160.42,886.19 	"/>
	<path class="st4" d="M100.24,824.48l-26.12,0.08l-0.02,8.32l26.12-0.08c2.01-0.01,3.64-1.87,3.65-4.17
		C103.87,826.33,102.25,824.47,100.24,824.48z"/>
	<path class="st4" d="M187.46,881.11l-27.02,0.09l-0.02,8.32l27.02-0.09c2.01-0.01,3.65-1.87,3.65-4.17
		C191.09,882.96,189.47,881.11,187.46,881.11z"/>
	<polygon class="st5" points="74.07,841.5 74.06,844.79 96.83,844.72 96.84,841.43 	"/>
	<polygon class="st5" points="74.05,849.19 74.04,852.48 96.81,852.41 96.82,849.11 	"/>
	<polygon class="st3" points="186.04,900.97 137.99,901.13 138,897.83 186.05,897.68 	"/>
	<polygon class="st3" points="186.02,908.66 137.97,908.81 137.98,905.52 186.03,905.36 	"/>
	<g>
		<path class="st3" d="M791.38,1113.18c-0.05,17.83-12.74,32.32-28.35,32.37l0,0c-15.6,0.05-28.22-14.36-28.17-32.19l0.16-56.81
			c0.05-17.83,12.74-32.32,28.35-32.37l0,0c15.61-0.05,28.22,14.36,28.17,32.19L791.38,1113.18z"/>
		<g>
			<path class="st2" d="M718.13,1179.22l-0.78-5.08c29.38-6.09,27.73-63.99,27.71-64.58l4.52-0.23c0.02,0.63,0.5,15.72-2.98,31.88
				C741.87,1163.2,732.03,1176.34,718.13,1179.22z"/>
		</g>
		<g>
			<path class="st2" d="M809.3,1178.93c-13.88-2.79-23.66-15.87-28.26-37.84c-3.38-16.14-2.82-31.22-2.8-31.86l4.52,0.2
				c-0.02,0.59-1.97,58.51,27.35,64.4L809.3,1178.93z"/>
		</g>
		<polygon class="st2" points="794.07,1117.04 732.6,1117.24 732.63,1104.33 794.11,1104.13 		"/>
		<polygon class="st3" points="768.26,1028.03 759.22,1028.06 759.25,1019.02 768.29,1018.99 		"/>
		<polygon class="st1" points="792.26,1079.76 734.54,1079.94 734.55,1074.04 792.28,1073.85 		"/>
		<polygon class="st1" points="792.24,1086.91 734.52,1087.09 734.53,1082.66 792.26,1082.48 		"/>
	</g>
	<g class="st6">
		<path class="st3" d="M764.12,1024.19l-0.34,121.33c15.26-0.5,27.56-14.81,27.61-32.34l0.16-56.81
			C791.59,1038.82,779.38,1024.6,764.12,1024.19z"/>
		<g>
			<path class="st2" d="M809.3,1178.93c-13.88-2.79-23.66-15.87-28.26-37.84c-3.38-16.14-2.82-31.22-2.8-31.86l4.52,0.2
				c-0.02,0.59-1.97,58.51,27.35,64.4L809.3,1178.93z"/>
		</g>
		<polygon class="st2" points="763.89,1104.23 763.86,1117.14 794.07,1117.04 794.11,1104.13 		"/>
		<polygon class="st3" points="764.13,1019.01 764.11,1028.05 768.26,1028.03 768.29,1018.99 		"/>
		<polygon class="st1" points="763.98,1073.94 763.96,1079.85 792.26,1079.76 792.28,1073.85 		"/>
		<polygon class="st1" points="763.96,1082.57 763.94,1087 792.24,1086.91 792.26,1082.48 		"/>
	</g>
	<g>
		<polygon class="st3" points="677.92,1279.14 526.68,1279.63 527.19,1097.83 678.43,1097.35 		"/>
		<polygon class="st3" points="664.47,1147.2 539.13,1147.6 539.42,1044.08 664.76,1043.68 		"/>
		<polygon class="st3" points="577.37,1065.44 551.52,1065.53 551.74,987.4 577.59,987.32 		"/>
		<polygon class="st3" points="617.71,1084.85 591.86,1084.93 592.08,1006.81 617.93,1006.72 		"/>
		<polygon class="st7" points="572.43,1098.66 556.27,1098.72 556.35,1071.92 572.51,1071.87 		"/>
		<polygon class="st7" points="598.29,1098.58 582.13,1098.63 582.2,1071.83 598.36,1071.78 		"/>
		<polygon class="st7" points="624.14,1098.5 607.98,1098.55 608.06,1071.75 624.22,1071.7 		"/>
		<polygon class="st7" points="650,1098.42 633.84,1098.47 633.91,1071.67 650.07,1071.62 		"/>
		<polygon class="st3" points="662.84,1127.62 541.65,1128 541.67,1118.29 662.87,1117.9 		"/>
		<polygon class="st3" points="662.79,1144.27 541.6,1144.66 541.63,1134.94 662.82,1134.55 		"/>
		<polygon class="st3" points="662.75,1160.82 541.55,1161.21 541.58,1151.5 662.77,1151.11 		"/>
		<path class="st3" d="M579.12,987.38c0,1.23-0.84,2.24-1.86,2.24l-26.35,0.08c-1.02,0-1.85-0.99-1.84-2.23l0,0
			c0-1.23,0.84-2.24,1.86-2.24l26.35-0.08C578.3,985.14,579.13,986.14,579.12,987.38L579.12,987.38z"/>
		<path class="st3" d="M619.79,1006.19c0,1.24-0.84,2.24-1.86,2.24l-26.35,0.08c-1.02,0-1.85-0.99-1.84-2.23l0,0
			c0-1.23,0.83-2.24,1.86-2.24l26.35-0.08C618.96,1003.96,619.79,1004.95,619.79,1006.19L619.79,1006.19z"/>
	</g>
	<polygon class="st2" points="612.02,1323.05 612.43,1179.36 689.96,1147.95 689.46,1323.38 	"/>
	<polygon class="st2" points="685.6,1322.82 686,1179.12 763.53,1147.71 763.04,1323.15 	"/>
	<polygon class="st2" points="759.17,1322.58 759.57,1178.89 837.1,1147.48 836.61,1322.91 	"/>
	<g class="st6">
		<polygon class="st1" points="722.96,1164.15 722.51,1322.98 763.04,1323.15 763.53,1147.71 		"/>
		<polygon class="st1" points="759.17,1322.58 759.57,1178.89 837.1,1147.48 836.61,1322.91 		"/>
	</g>
	<polygon class="st2" points="871.44,1324.93 578.54,1325.87 578.76,1249.39 871.65,1248.45 	"/>
	<polygon class="st3" points="646.48,1212.55 631.94,1212.6 631.98,1197.89 646.52,1197.84 	"/>
	<polygon class="st1" points="595.9,1304.34 589.54,1304.36 589.65,1263.9 596.01,1263.88 	"/>
	<polygon class="st1" points="609.85,1304.3 603.48,1304.32 603.6,1263.85 609.96,1263.83 	"/>
	<polygon class="st1" points="623.8,1304.25 617.43,1304.27 617.54,1263.81 623.91,1263.79 	"/>
	<polygon class="st1" points="637.74,1304.21 631.38,1304.23 631.49,1263.76 637.86,1263.74 	"/>
	<polygon class="st1" points="651.69,1304.16 645.33,1304.18 645.44,1263.72 651.81,1263.7 	"/>
	<polygon class="st1" points="665.64,1304.12 659.28,1304.14 659.39,1263.67 665.75,1263.65 	"/>
	<polygon class="st1" points="679.59,1304.07 673.22,1304.09 673.34,1263.63 679.7,1263.61 	"/>
	<polygon class="st1" points="693.53,1304.03 687.17,1304.05 687.29,1263.58 693.65,1263.56 	"/>
	<polygon class="st1" points="707.48,1303.98 701.12,1304 701.23,1263.54 707.6,1263.52 	"/>
	<polygon class="st1" points="721.43,1303.94 715.07,1303.96 715.18,1263.49 721.54,1263.47 	"/>
	<polygon class="st1" points="735.38,1303.89 729.01,1303.91 729.13,1263.45 735.49,1263.43 	"/>
	<polygon class="st1" points="749.33,1303.85 742.96,1303.87 743.08,1263.41 749.44,1263.39 	"/>
	<polygon class="st1" points="763.28,1303.8 756.91,1303.82 757.03,1263.36 763.39,1263.34 	"/>
	<polygon class="st1" points="777.22,1303.76 770.86,1303.78 770.97,1263.32 777.34,1263.3 	"/>
	<polygon class="st1" points="791.17,1303.71 784.81,1303.74 784.92,1263.27 791.28,1263.25 	"/>
	<polygon class="st1" points="805.12,1303.67 798.76,1303.69 798.87,1263.23 805.23,1263.21 	"/>
	<polygon class="st1" points="819.07,1303.63 812.7,1303.65 812.82,1263.18 819.18,1263.16 	"/>
	<polygon class="st1" points="833.01,1303.58 826.65,1303.6 826.76,1263.14 833.13,1263.12 	"/>
	<polygon class="st1" points="846.96,1303.54 840.6,1303.56 840.71,1263.09 847.08,1263.07 	"/>
	<polygon class="st1" points="860.91,1303.49 854.55,1303.51 854.66,1263.05 861.03,1263.03 	"/>
	<polygon class="st3" points="669.42,1212.48 654.88,1212.52 654.92,1197.82 669.46,1197.77 	"/>
	<polygon class="st3" points="646.42,1235.39 631.87,1235.44 631.92,1220.73 646.46,1220.68 	"/>
	<polygon class="st3" points="669.35,1235.32 654.81,1235.36 654.85,1220.65 669.39,1220.61 	"/>
	<polygon class="st3" points="720.25,1212.32 705.71,1212.36 705.75,1197.65 720.29,1197.61 	"/>
	<polygon class="st3" points="743.19,1212.24 728.64,1212.29 728.69,1197.58 743.23,1197.53 	"/>
	<polygon class="st3" points="720.19,1235.15 705.64,1235.2 705.68,1220.49 720.23,1220.44 	"/>
	<polygon class="st3" points="743.12,1235.08 728.58,1235.13 728.62,1220.42 743.16,1220.37 	"/>
	<polygon class="st3" points="789.47,1212.09 774.93,1212.14 774.97,1197.43 789.51,1197.39 	"/>
	<polygon class="st3" points="812.41,1212.02 797.87,1212.07 797.91,1197.36 812.46,1197.31 	"/>
	<polygon class="st3" points="789.41,1234.93 774.87,1234.98 774.91,1220.27 789.45,1220.22 	"/>
	<polygon class="st3" points="812.35,1234.86 797.8,1234.9 797.85,1220.2 812.39,1220.15 	"/>
	<polygon class="st2" points="578.68,1319.15 284.16,1320.09 284.2,1306.29 578.71,1305.34 	"/>
	<path class="st8" d="M479.97,1320.1l-277.95,0.89c0,0,65.18-69.89,80.85-271.8c4.94-63.68,6.71-265.86,6.71-265.86l103.26-0.33
		c0,0-5.62,193.51-2.72,258.95C400.07,1266.19,479.97,1320.1,479.97,1320.1z"/>
	<polygon class="st2" points="398.38,793.46 282.08,793.83 282.15,769.68 398.45,769.3 	"/>
	<path class="st9" d="M343.54,783.15l-1.51,537.39l137.94-0.44c0,0-79.9-53.9-89.84-278.16c-2.9-65.43,2.72-258.95,2.72-258.95
		L343.54,783.15z"/>
	<polygon class="st9" points="343.58,769.48 343.51,793.64 398.38,793.46 398.45,769.3 	"/>
	<polygon class="st3" points="395.81,815.45 287.04,815.8 287.08,802.16 395.84,801.81 	"/>
	<polygon class="st3" points="395.74,839.48 286.97,839.83 287.01,826.19 395.78,825.84 	"/>
	<polygon class="st1" points="310.83,1101.46 19.49,1102.39 19.69,1030.21 311.03,1029.28 	"/>
	<polygon class="st10" points="331.27,1321.93 -2.19,1322.99 -1.49,1074.39 331.97,1073.32 	"/>
	<polygon class="st2" points="142.28,1126.06 19.42,1126.45 19.49,1102.39 142.34,1102 	"/>
	<polygon class="st2" points="293.21,1125.57 170.36,1125.97 170.42,1101.91 293.28,1101.51 	"/>
	<polygon class="st2" points="142.15,1170.16 19.3,1170.56 19.36,1146.49 142.22,1146.1 	"/>
	<polygon class="st2" points="293.09,1169.68 170.23,1170.07 170.3,1146.01 293.15,1145.62 	"/>
	<polygon class="st2" points="142.03,1214.27 19.17,1214.66 19.24,1190.6 142.1,1190.21 	"/>
	<polygon class="st2" points="292.96,1213.78 170.11,1214.18 170.18,1190.12 293.03,1189.72 	"/>
	<polygon class="st2" points="141.91,1258.37 19.05,1258.77 19.12,1234.71 141.97,1234.32 	"/>
	<polygon class="st2" points="292.84,1257.89 169.99,1258.28 170.05,1234.23 292.91,1233.83 	"/>
	<polygon class="st2" points="141.78,1302.48 18.92,1302.87 18.99,1278.82 141.85,1278.42 	"/>
	<polygon class="st2" points="292.72,1302 169.86,1302.39 169.93,1278.33 292.78,1277.94 	"/>
	<polygon class="st2" points="718.54,1324.78 615.68,1325.1 615.7,1317.36 718.56,1317.03 	"/>
	<path class="st1" d="M528.08,1041.53c-0.61-13.84-0.84-33.41-0.83-55.66l-103.47,0.33c-0.82,25.48-1.8,47.78-2.95,62.58
		c-15.67,201.91-80.85,271.8-80.85,271.8l277.95-0.89C617.92,1319.69,538.02,1265.79,528.08,1041.53z"/>
	<polygon class="st1" points="532.89,994.04 416.6,994.41 416.67,970.25 532.96,969.88 	"/>
	<polygon class="st3" points="530.32,1016.03 419.62,1016.38 419.66,1002.74 530.36,1002.39 	"/>
	<polygon class="st3" points="530.26,1040.06 419.55,1040.42 419.59,1026.78 530.29,1026.42 	"/>
	<path class="st11" d="M474.22,1320.15l143.7-0.46c0,0-79.9-53.9-89.84-278.16c-0.61-13.84-0.84-33.41-0.83-55.66l-52.09,0.17
		L474.22,1320.15z"/>
	<polygon class="st11" points="475.2,970.07 475.13,994.22 532.89,994.04 532.96,969.88 	"/>
	<polygon class="st5" points="475.11,1002.57 475.07,1016.21 530.32,1016.03 530.36,1002.39 	"/>
	<polygon class="st5" points="475.04,1026.6 475,1040.24 530.26,1040.06 530.29,1026.42 	"/>
	<g>
		<polygon class="st2" points="398.16,1325.8 398.34,1262.99 455.93,1233.24 455.67,1326.16 		"/>
		<polygon class="st2" points="452.8,1325.62 452.98,1262.81 510.57,1233.06 510.31,1325.99 		"/>
		<polygon class="st2" points="507.44,1325.45 507.61,1262.64 565.21,1232.89 564.95,1325.81 		"/>
		<polygon class="st12" points="643.31,1325.01 619.98,1125.53 577.61,1125.67 547.17,1325.85 		"/>
		<path class="st12" d="M625.03,1124.94c-0.01,2.87-2.05,5.19-4.55,5.2l-43.38,0.14c-2.51,0.01-4.53-2.31-4.53-5.17l0,0
			c0.01-2.86,2.05-5.19,4.56-5.2l43.38-0.14C623.01,1119.76,625.04,1122.08,625.03,1124.94L625.03,1124.94z"/>
		<path class="st3" d="M414.65,1303.61c-0.01,2.4-1.72,4.36-3.82,4.36l0,0c-2.1,0.01-3.8-1.94-3.79-4.34l0.07-23.38
			c0.01-2.4,1.72-4.36,3.82-4.36l0,0c2.1-0.01,3.8,1.94,3.79,4.34L414.65,1303.61z"/>
		<path class="st3" d="M428.27,1303.56c-0.01,2.4-1.72,4.36-3.82,4.36l0,0c-2.1,0.01-3.8-1.94-3.8-4.34l0.07-23.38
			c0.01-2.4,1.72-4.36,3.82-4.36l0,0c2.1-0.01,3.8,1.94,3.8,4.34L428.27,1303.56z"/>
		<path class="st3" d="M441.89,1303.52c-0.01,2.4-1.72,4.36-3.82,4.36l0,0c-2.1,0.01-3.8-1.94-3.79-4.34l0.07-23.38
			c0.01-2.4,1.72-4.36,3.82-4.36l0,0c2.1-0.01,3.8,1.94,3.79,4.34L441.89,1303.52z"/>
		<path class="st3" d="M469.13,1303.43c-0.01,2.4-1.72,4.36-3.82,4.36l0,0c-2.1,0.01-3.8-1.94-3.8-4.34l0.07-23.38
			c0.01-2.4,1.72-4.36,3.82-4.36l0,0c2.1-0.01,3.8,1.94,3.79,4.34L469.13,1303.43z"/>
		<path class="st3" d="M482.75,1303.39c-0.01,2.4-1.72,4.36-3.82,4.36l0,0c-2.1,0.01-3.8-1.94-3.79-4.34l0.07-23.38
			c0.01-2.4,1.72-4.36,3.82-4.36l0,0c2.1-0.01,3.8,1.94,3.8,4.34L482.75,1303.39z"/>
		<path class="st3" d="M496.36,1303.35c-0.01,2.4-1.72,4.36-3.82,4.36l0,0c-2.1,0.01-3.8-1.94-3.8-4.34l0.07-23.38
			c0.01-2.4,1.72-4.36,3.82-4.36l0,0c2.1-0.01,3.8,1.94,3.8,4.34L496.36,1303.35z"/>
		<path class="st3" d="M523.6,1303.26c-0.01,2.4-1.72,4.36-3.82,4.36l0,0c-2.1,0.01-3.8-1.94-3.8-4.34l0.07-23.38
			c0.01-2.4,1.72-4.36,3.82-4.36l0,0c2.1-0.01,3.8,1.94,3.8,4.34L523.6,1303.26z"/>
		<path class="st3" d="M537.22,1303.22c-0.01,2.4-1.72,4.36-3.82,4.36l0,0c-2.1,0.01-3.8-1.94-3.8-4.34l0.07-23.38
			c0.01-2.4,1.72-4.36,3.82-4.36l0,0c2.1-0.01,3.8,1.94,3.79,4.34L537.22,1303.22z"/>
		<path class="st3" d="M550.84,1303.17c-0.01,2.4-1.72,4.36-3.82,4.36l0,0c-2.1,0.01-3.8-1.94-3.79-4.34l0.07-23.38
			c0.01-2.4,1.72-4.36,3.82-4.36l0,0c2.1-0.01,3.8,1.94,3.8,4.34L550.84,1303.17z"/>
	</g>
	<g>
		<polygon class="st3" points="40.05,1118.68 31.29,1118.71 31.32,1108.7 40.08,1108.67 		"/>
		<polygon class="st3" points="58.3,1118.62 49.54,1118.65 49.57,1108.64 58.33,1108.61 		"/>
		<polygon class="st3" points="76.55,1118.56 67.79,1118.59 67.82,1108.58 76.58,1108.56 		"/>
		<polygon class="st3" points="94.8,1118.5 86.04,1118.53 86.07,1108.53 94.83,1108.5 		"/>
		<polygon class="st3" points="113.05,1118.45 104.29,1118.47 104.32,1108.47 113.08,1108.44 		"/>
		<polygon class="st3" points="131.31,1118.39 122.54,1118.41 122.57,1108.41 131.33,1108.38 		"/>
		<polygon class="st3" points="39.93,1162.88 31.17,1162.91 31.2,1152.9 39.96,1152.87 		"/>
		<polygon class="st3" points="58.18,1162.82 49.42,1162.85 49.45,1152.84 58.21,1152.81 		"/>
		<polygon class="st3" points="76.43,1162.76 67.67,1162.79 67.7,1152.78 76.46,1152.75 		"/>
		<polygon class="st3" points="94.68,1162.7 85.92,1162.73 85.95,1152.72 94.71,1152.7 		"/>
		<polygon class="st3" points="112.93,1162.64 104.17,1162.67 104.2,1152.67 112.96,1152.64 		"/>
		<polygon class="st3" points="131.18,1162.59 122.42,1162.61 122.45,1152.61 131.21,1152.58 		"/>
		<polygon class="st3" points="39.8,1207.08 31.04,1207.11 31.07,1197.1 39.83,1197.07 		"/>
		<polygon class="st3" points="58.05,1207.02 49.29,1207.05 49.32,1197.04 58.08,1197.01 		"/>
		<polygon class="st3" points="76.31,1206.96 67.54,1206.99 67.57,1196.98 76.33,1196.96 		"/>
		<polygon class="st3" points="94.56,1206.9 85.8,1206.93 85.82,1196.92 94.58,1196.9 		"/>
		<polygon class="st3" points="112.81,1206.84 104.05,1206.87 104.07,1196.87 112.83,1196.84 		"/>
		<polygon class="st3" points="131.06,1206.79 122.3,1206.81 122.32,1196.81 131.09,1196.78 		"/>
		<polygon class="st3" points="39.68,1251.28 30.92,1251.31 30.95,1241.3 39.71,1241.27 		"/>
		<polygon class="st3" points="57.93,1251.22 49.17,1251.25 49.2,1241.24 57.96,1241.21 		"/>
		<polygon class="st3" points="76.18,1251.16 67.42,1251.19 67.45,1241.18 76.21,1241.16 		"/>
		<polygon class="st3" points="94.43,1251.1 85.67,1251.13 85.7,1241.13 94.46,1241.1 		"/>
		<polygon class="st3" points="112.68,1251.05 103.92,1251.07 103.95,1241.07 112.71,1241.04 		"/>
		<polygon class="st3" points="130.93,1250.99 122.17,1251.02 122.2,1241.01 130.96,1240.98 		"/>
		<polygon class="st3" points="39.56,1295.48 30.8,1295.51 30.82,1285.5 39.58,1285.47 		"/>
		<polygon class="st3" points="57.81,1295.42 49.05,1295.45 49.07,1285.44 57.83,1285.42 		"/>
		<polygon class="st3" points="76.06,1295.36 67.3,1295.39 67.33,1285.39 76.09,1285.36 		"/>
		<polygon class="st3" points="94.31,1295.31 85.55,1295.33 85.58,1285.33 94.34,1285.3 		"/>
		<polygon class="st3" points="112.56,1295.25 103.8,1295.28 103.83,1285.27 112.59,1285.24 		"/>
		<polygon class="st3" points="130.81,1295.19 122.05,1295.22 122.08,1285.21 130.84,1285.18 		"/>
	</g>
	<g>
		<polygon class="st3" points="188.25,1118.2 179.49,1118.23 179.52,1108.23 188.28,1108.2 		"/>
		<polygon class="st3" points="206.5,1118.15 197.74,1118.17 197.77,1108.17 206.53,1108.14 		"/>
		<polygon class="st3" points="224.75,1118.09 215.99,1118.12 216.02,1108.11 224.78,1108.08 		"/>
		<polygon class="st3" points="243,1118.03 234.24,1118.06 234.27,1108.05 243.03,1108.02 		"/>
		<polygon class="st3" points="261.25,1117.97 252.49,1118 252.52,1107.99 261.28,1107.96 		"/>
		<polygon class="st3" points="279.5,1117.91 270.74,1117.94 270.77,1107.93 279.53,1107.91 		"/>
		<polygon class="st3" points="188.13,1162.4 179.37,1162.43 179.39,1152.42 188.15,1152.4 		"/>
		<polygon class="st3" points="206.38,1162.34 197.62,1162.37 197.64,1152.37 206.4,1152.34 		"/>
		<polygon class="st3" points="224.63,1162.29 215.87,1162.31 215.89,1152.31 224.65,1152.28 		"/>
		<polygon class="st3" points="242.88,1162.23 234.12,1162.26 234.15,1152.25 242.91,1152.22 		"/>
		<polygon class="st3" points="261.13,1162.17 252.37,1162.2 252.4,1152.19 261.16,1152.16 		"/>
		<polygon class="st3" points="279.38,1162.11 270.62,1162.14 270.65,1152.13 279.41,1152.1 		"/>
		<polygon class="st3" points="188,1206.6 179.24,1206.63 179.27,1196.63 188.03,1196.6 		"/>
		<polygon class="st3" points="206.25,1206.55 197.49,1206.57 197.52,1196.57 206.28,1196.54 		"/>
		<polygon class="st3" points="224.5,1206.49 215.74,1206.52 215.77,1196.51 224.53,1196.48 		"/>
		<polygon class="st3" points="242.75,1206.43 233.99,1206.46 234.02,1196.45 242.78,1196.42 		"/>
		<polygon class="st3" points="261,1206.37 252.24,1206.4 252.27,1196.39 261.03,1196.36 		"/>
		<polygon class="st3" points="279.25,1206.31 270.49,1206.34 270.52,1196.33 279.28,1196.31 		"/>
		<polygon class="st3" points="187.88,1250.81 179.12,1250.83 179.15,1240.83 187.91,1240.8 		"/>
		<polygon class="st3" points="206.13,1250.75 197.37,1250.78 197.4,1240.77 206.16,1240.74 		"/>
		<polygon class="st3" points="224.38,1250.69 215.62,1250.72 215.65,1240.71 224.41,1240.68 		"/>
		<polygon class="st3" points="242.63,1250.63 233.87,1250.66 233.9,1240.65 242.66,1240.62 		"/>
		<polygon class="st3" points="260.88,1250.57 252.12,1250.6 252.15,1240.59 260.91,1240.56 		"/>
		<polygon class="st3" points="279.13,1250.51 270.37,1250.54 270.4,1240.53 279.16,1240.51 		"/>
		<polygon class="st3" points="187.75,1295.01 178.99,1295.03 179.02,1285.03 187.78,1285 		"/>
		<polygon class="st3" points="206,1294.95 197.24,1294.98 197.27,1284.97 206.03,1284.94 		"/>
		<polygon class="st3" points="224.25,1294.89 215.49,1294.92 215.52,1284.91 224.28,1284.88 		"/>
		<polygon class="st3" points="242.51,1294.83 233.74,1294.86 233.77,1284.85 242.53,1284.82 		"/>
		<polygon class="st3" points="260.76,1294.77 252,1294.8 252.02,1284.79 260.78,1284.77 		"/>
		<polygon class="st3" points="279.01,1294.71 270.25,1294.74 270.27,1284.74 279.03,1284.71 		"/>
	</g>
	<path class="st7" d="M563.75,913.07l2.17-0.01l-0.06,22.29l19.51-0.06l0.06-22.29l31.98-0.1l-0.33,117.63l-9.22,0.03l-0.02,6.19
		l-6.5,0.02l-0.02,8.67l78.04-0.25l0.02-8.67l-8.67,0.03l0.02-6.19l-8.4,0.03l0.31-110.2l10.57-0.03l0.02-7.43l95.38-0.31
		l-0.18,62.81l-3.18,0.01l-0.01,5.18l3.3-0.01l0.69,8.12l0.53,0.3c1.04,0.6,4.04,2.8,4.1,4.98c0.03,1.21-0.85,2.44-2.62,3.66
		c-2.76,1.9-3.54,1.4-3.66,1.28c-0.76-0.72-0.34-4.26,0.52-7l-2.04-0.82c-0.39,1.24-2.22,7.54,0.14,9.74
		c0.55,0.51,1.19,0.71,1.86,0.71c1.69-0.01,3.54-1.27,4.28-1.78c2.51-1.72,3.75-3.7,3.68-5.88c-0.11-3.39-3.39-5.88-4.76-6.76
		l-0.55-6.55l4.18-0.01l0.01-5.18l-4.31,0.01l0.18-62.81l2.17-0.01l0.05-17.92l-142.26-31.3l-66.94,32.57L563.75,913.07z
		 M772.73,977.91l-2.14,0.01l0-0.23l2.14-0.01L772.73,977.91z M768.42,977.7l0,0.23l-1.01,0l0-0.23L768.42,977.7z M637.87,872.32
		l49.17,10.82l-46.49-6L637.87,872.32z M660.34,887.18l-0.05,16.28l-33.74-16.07l12.22-3L660.34,887.18z M653.75,997.79
		l-12.47,13.15l-15.43-16.26l0-0.56l27.91,0.38L653.75,997.79z M625.86,990.69l14.78-17.2l13.13,15.01l-0.01,3.54l-27.91-0.39
		L625.86,990.69z M642.16,971.71l11.69-13.61l-0.08,26.88L642.16,971.71z M640.64,969.97l-14.67-16.77l0.01-1.96l27.91-0.09
		l-0.01,3.43L640.64,969.97z M653.89,948.67l-27.91,0.09l0.01-1.86l14.17-15.79l13.74,14.4L653.89,948.67z M625.99,943.44
		l0.08-27.11l12.49,13.1L625.99,943.44z M627.24,914.19l25.08-0.08l-12.2,13.59L627.24,914.19z M653.98,915.71l-0.07,26.43
		l-12.19-12.78L653.98,915.71z M653.74,1001.16l-0.06,22.84l-10.8-11.39L653.74,1001.16z M653.66,1027.38l0,1.15l-25.95,0.08
		l13.56-14.3L653.66,1027.38z M625.76,1027.31l0.08-29.27l13.84,14.59L625.76,1027.31z M625.96,956.7l13.16,15.04l-13.24,15.41
		L625.96,956.7z M625.02,904.3l0.04-14.93l31.15,14.83L625.02,904.3z M599.48,886.45l30.33-14.76l3.57,6.44L599.48,886.45z
		 M766.46,904.99l-103.78,0.33l0-1.15l-0.22,0l0.05-16.72l103.96,13.41L766.46,904.99z M617.43,904.32l0,1.15l-47.16,0.15l0.01-4.42
		l48.27-11.84l-0.04,14.96L617.43,904.32z"/>
	<g>
		<path class="st13" d="M730.25,727.63c-8.79,0.03-15.94,8.19-15.97,18.23c0,0.87,0.07,1.72,0.17,2.56
			c-2.74-3.17-6.55-5.14-10.77-5.12c-1.18,0-2.32,0.18-3.42,0.47c-4.46-14.38-16.48-24.65-30.63-24.6
			c-13.12,0.04-24.45,8.94-29.66,21.73c-3.99-4.77-9.61-7.75-15.86-7.73c-10.18,0.03-18.75,7.98-21.27,18.72
			c-2.65-0.86-5.44-1.32-8.34-1.31c-9.62,0.03-18.2,5.18-23.78,13.18c-0.36-0.24-0.73-0.46-1.1-0.68
			c-2.64-14.99-14.22-26.23-28.14-26.18c-15.91,0.05-28.85,14.82-28.9,33c-0.01,2.76,0.29,5.44,0.84,7.99
			c-18.22,1.06-32.78,18.3-32.84,39.36c0,0.14,0.01,0.28,0.01,0.42c-12.18,3.42-21.24,15.98-21.29,30.91
			c-0.02,5.85,1.36,11.33,3.77,16.03c-4.36,6.86-6.95,15.29-6.97,24.39c-0.04,13.97,5.96,26.31,15.19,33.83
			c-0.02,0.44-0.06,0.88-0.06,1.33c-0.04,13.39,9.43,24.21,21.16,24.18c11.72-0.04,21.25-10.92,21.29-24.31
			c0-0.46-0.04-0.91-0.06-1.36c8.33-6.83,14.07-17.53,15.15-29.79c18.45-3.3,32.62-21.55,32.68-43.51
			c0.02-5.38-0.82-10.53-2.36-15.29c1.7,0.94,3.6,1.48,5.62,1.47c7.12-0.02,12.9-6.63,12.93-14.76c0-1.02-0.08-2.01-0.25-2.97
			c0.66-0.79,1.3-1.62,1.89-2.48c4.43,2.89,9.56,4.54,15.04,4.53c16.74-0.05,30.36-15.6,30.42-34.73c0-0.59-0.01-1.19-0.03-1.77
			c6.48-0.26,12.26-3.7,16.17-9.02c5.5,11.54,16.22,19.35,28.56,19.31c11.59-0.04,21.77-6.98,27.58-17.41
			c1.99,1.09,4.21,1.72,6.57,1.71c8.37-0.03,15.18-7.8,15.21-17.37c0-0.74-0.05-1.46-0.13-2.17c2.89,3.46,6.96,5.61,11.48,5.6
			c8.79-0.03,15.94-8.19,15.97-18.23C746.15,735.72,739.05,727.61,730.25,727.63z"/>
		
			<ellipse transform="matrix(0.0225 -0.9997 0.9997 0.0225 -9.3082 1499.2299)" class="st3" cx="762.01" cy="754.37" rx="6.06" ry="5.31"/>
	</g>
	<g>
		<path class="st14" d="M737.05,725.5c-8.79,0.03-15.94,8.19-15.97,18.23c0,0.87,0.07,1.72,0.17,2.56
			c-2.74-3.17-6.55-5.14-10.77-5.12c-1.18,0-2.32,0.18-3.42,0.47c-4.46-14.38-16.48-24.65-30.63-24.6
			c-13.12,0.04-24.45,8.94-29.66,21.73c-3.99-4.77-9.61-7.75-15.86-7.73c-10.18,0.03-18.75,7.98-21.27,18.72
			c-2.65-0.86-5.44-1.32-8.34-1.31c-9.62,0.03-18.2,5.18-23.78,13.18c-0.36-0.24-0.73-0.46-1.1-0.68
			c-2.64-14.99-14.22-26.23-28.14-26.18c-15.91,0.05-28.85,14.82-28.9,33c-0.01,2.76,0.29,5.44,0.84,7.99
			c-18.22,1.06-32.78,18.3-32.84,39.36c0,0.14,0.01,0.28,0.01,0.42c-12.18,3.42-21.24,15.98-21.29,30.91
			c-0.02,5.85,1.36,11.33,3.77,16.03c-4.36,6.86-6.95,15.29-6.97,24.39c-0.04,13.97,5.96,26.31,15.19,33.83
			c-0.02,0.44-0.06,0.88-0.06,1.33c-0.04,13.39,9.43,24.21,21.16,24.18c11.72-0.04,21.25-10.92,21.29-24.31
			c0-0.46-0.04-0.91-0.06-1.36c8.33-6.83,14.07-17.53,15.15-29.79c18.45-3.3,32.62-21.55,32.68-43.51
			c0.02-5.38-0.82-10.53-2.36-15.29c1.7,0.94,3.6,1.48,5.62,1.47c7.12-0.02,12.9-6.63,12.93-14.76c0-1.02-0.08-2.01-0.25-2.97
			c0.66-0.79,1.3-1.62,1.89-2.48c4.43,2.89,9.56,4.54,15.04,4.53c16.74-0.05,30.36-15.6,30.42-34.73c0-0.59-0.01-1.19-0.03-1.77
			c6.48-0.26,12.26-3.7,16.17-9.02c5.5,11.54,16.22,19.35,28.56,19.31c11.59-0.04,21.77-6.98,27.58-17.41
			c1.99,1.09,4.21,1.72,6.57,1.71c8.37-0.03,15.18-7.8,15.21-17.37c0-0.74-0.05-1.46-0.13-2.17c2.89,3.46,6.96,5.61,11.48,5.6
			c8.79-0.03,15.94-8.19,15.97-18.23S745.85,725.47,737.05,725.5z"/>
		
			<ellipse transform="matrix(0.0225 -0.9997 0.9997 0.0225 -0.5227 1503.938)" class="st15" cx="768.82" cy="752.24" rx="6.06" ry="5.31"/>
	</g>
	<polygon class="st16" points="159.49,1073.87 158.79,1322.48 331.27,1321.93 331.97,1073.32 	"/>
</g>
<linearGradient id="SVGID_1_" gradientUnits="userSpaceOnUse" x1="522.4084" y1="269.3873" x2="298.949" y2="886.5627" gradientTransform="matrix(1.0947 -0.1793 -0.1793 3.0491 121.9902 -1279.4989)">
	<stop  offset="0" style="stop-color:#B37CFF"/>
	<stop  offset="1" style="stop-color:#F895E7"/>
</linearGradient>
<path class="st17" d="M1028.89,213.25c21.41-154.74,24.74-271.12-10.7-378.9c-32.65-99.3-95.21-187.04-151.92-160.38
	c-46.08,21.67-91.49,78.47-132.35,153.36c-24.65,45.17-51.95,77.34-79.84,95.63c-30.81,20.22-69.33,38.22-98.5,27.75
	c-57.34-20.58-108.8-78.05-162.02-123.95c-108.89-93.89-238.63-135.25-356.12,23.62C-19.17-73.06-73.99,74.06-71.13,221.65
	c2.21,113.97,38.28,197.93,34.4,314.69c-4.38,131.88-55.56,239.07-97.07,338.74c-39.29,94.34-74.6,202.87-96.91,323.97
	c-22.3,121.1-30.66,255.85-16.27,366.44c18.74,143.98,74.24,230.24,135.71,246.34c61.46,16.11,128.05-29.99,190.53-99.08
	c62.48-69.09,122.13-160.85,182.96-243.24c20.58-27.87,44.46-55.51,63.01-36.54c20.9,21.37,24.44,89.54,31.88,144
	c16.67,122,62.22,197.48,113.13,222.89c50.91,25.41,106.95,6.48,161.8-22.96c61.09-32.78,124.46-81.59,176.82-186.41
	c52.36-104.82,90.58-278.35,77.72-420.88c-8.17-90.53-35.48-162.07-32.47-260.1c3.12-101.22,37-191.54,66.52-273.97
	C966,508.9,1007.48,367.99,1028.89,213.25z"/>
<g>
	<rect x="3.37" y="1318" class="st18" width="800" height="84"/>
	<g class="st19">
		<line class="st20" x1="-2.13" y1="1359.33" x2="803.87" y2="1359.67"/>
		<g>
			<line class="st21" x1="-2.13" y1="1359.33" x2="3.87" y2="1359.33"/>
			<line class="st22" x1="15.72" y1="1359.34" x2="791.95" y2="1359.66"/>
			<line class="st21" x1="797.87" y1="1359.67" x2="803.87" y2="1359.67"/>
		</g>
	</g>
</g>
<g class="st0">
	<path class="st23" d="M210.69,793c-9.13-11.16-22.77-15.75-36.12-12.41c-14.56,3.64-22.78,17.55-36.33,23.12
		c-23.64,9.71-56.32-9.47-74.27,15.55c-21.96,30.6-38.92,7.65-38.92,28.42c0,20.77,151.69,5.47,226.54,6.56
		c10.81,0.16,57.76-0.63,37.55-23.08c-6.28-6.97-15.23-8.14-23.58-9.77c-10.88-2.13-36.76-3.29-44.65-11.76
		c-4.24-4.56-5.88-11.11-9.71-15.98C211.04,793.42,210.87,793.21,210.69,793z"/>
	<path class="st23" d="M730.13,148.84c-5.3-7.53-13.21-10.63-20.97-8.38c-8.45,2.46-13.22,11.85-21.09,15.6
		c-13.72,6.55-32.69-6.39-43.11,10.5c-12.74,20.66-22.59,5.16-22.59,19.18c0,14.02,88.05,3.69,131.49,4.43
		c6.28,0.11,33.53-0.43,21.8-15.58c-3.64-4.7-8.84-5.49-13.69-6.59c-6.32-1.44-21.34-2.22-25.91-7.94
		c-2.46-3.08-3.41-7.5-5.63-10.79C730.33,149.13,730.23,148.98,730.13,148.84z"/>
	<path class="st23" d="M631.97,167.07c-9.13-11.16-22.77-15.75-36.12-12.41c-14.56,3.64-22.78,17.55-36.33,23.12
		c-23.64,9.71-56.32-9.47-74.27,15.55c-21.96,30.6-38.92,7.65-38.92,28.42c0,20.77,151.69,5.47,226.54,6.56
		c10.81,0.16,57.76-0.63,37.55-23.08c-6.28-6.97-15.23-8.14-23.58-9.77c-10.88-2.13-36.76-3.29-44.65-11.76
		c-4.24-4.56-5.88-11.11-9.71-15.98C632.32,167.5,632.15,167.28,631.97,167.07z"/>
	<path class="st23" d="M244.97,74.55c-9.13-11.16-22.77-15.75-36.12-12.41c-14.56,3.64-22.78,17.55-36.33,23.12
		c-23.64,9.71-56.32-9.47-74.27,15.55c-21.96,30.6-38.92,7.65-38.92,28.42c0,20.77,151.69,5.47,226.54,6.56
		c10.81,0.16,57.76-0.63,37.55-23.08c-6.28-6.97-15.23-8.14-23.58-9.77c-10.88-2.13-36.76-3.29-44.65-11.76
		c-4.24-4.56-5.88-11.11-9.71-15.98C245.31,74.98,245.14,74.76,244.97,74.55z"/>
</g>
<linearGradient id="SVGID_00000097465298327488404300000013404488366125548175_" gradientUnits="userSpaceOnUse" x1="676.2983" y1="1466.533" x2="269.8587" y2="343.9831" gradientTransform="matrix(1 0 0 -1 0 1402)">
	<stop  offset="0" style="stop-color:#63C3FF"/>
	<stop  offset="0.171" style="stop-color:#64BDFA"/>
	<stop  offset="0.4038" style="stop-color:#68ABEC"/>
	<stop  offset="0.6719" style="stop-color:#6D8FD6"/>
	<stop  offset="0.9646" style="stop-color:#7567B6"/>
	<stop  offset="1" style="stop-color:#7662B2"/>
</linearGradient>
<rect x="-12" y="-25" style="opacity:0.5;fill:url(#SVGID_00000097465298327488404300000013404488366125548175_);enable-background:new    ;" width="825.14" height="1444"/>
<path class="st25" d="M235.93,1217.91"/>
</svg>
