<?xml version="1.0" encoding="utf-8"?>
<!-- Generator: Adobe Illustrator 28.3.0, SVG Export Plug-In . SVG Version: 6.00 Build 0)  -->
<svg version="1.1" xmlns="http://www.w3.org/2000/svg" xmlns:xlink="http://www.w3.org/1999/xlink" x="0px" y="0px"
	 viewBox="0 0 323 306" style="enable-background:new 0 0 323 306;" xml:space="preserve">
<style type="text/css">
	.st0{fill:#FFFFFF;}
	.st1{display:none;}
	.st2{display:inline;fill:#20382B;stroke:#000000;stroke-miterlimit:10;}
	.st3{display:inline;fill:#FFE3CB;stroke:#000000;stroke-miterlimit:10;}
	.st4{display:inline;}
	.st5{fill:#FFB995;}
	.st6{display:inline;fill:#332C26;}
	.st7{display:inline;fill:#FFFFFF;}
	.st8{display:inline;fill:none;stroke:#000000;stroke-miterlimit:10;}
	.st9{display:inline;stroke:#000000;stroke-width:0.5;stroke-miterlimit:10;}
	.st10{display:inline;fill:none;stroke:#000000;stroke-width:0.75;stroke-miterlimit:10;}
	.st11{display:inline;fill:#332C26;stroke:#000000;stroke-miterlimit:10;}
	.st12{display:inline;fill:none;stroke:#FFB995;stroke-miterlimit:10;}
	.st13{display:inline;opacity:0.44;fill:#D8B8A3;}
	.st14{display:inline;fill:#FFB995;stroke:#000000;stroke-width:0.5;stroke-miterlimit:10;}
	.st15{display:inline;fill:none;stroke:#000000;stroke-width:2;stroke-miterlimit:10;}
	.st16{display:inline;fill:#305437;stroke:#000000;stroke-miterlimit:10;}
	.st17{fill:#305437;}
	.st18{display:inline;fill:#FFFFFF;stroke:#000000;stroke-miterlimit:10;}
	.st19{display:inline;fill:#305437;}
	.st20{display:inline;fill:#C87529;stroke:#000000;stroke-miterlimit:10;}
	.st21{display:inline;fill:#304D37;stroke:#000000;stroke-miterlimit:10;}
	.st22{fill:#20382B;}
	.st23{fill:none;stroke:#000000;stroke-miterlimit:10;}
	.st24{fill:#20382B;stroke:#000000;stroke-miterlimit:10;}
	.st25{fill:#FFE3CB;stroke:#000000;stroke-miterlimit:10;}
	.st26{fill:#332C26;stroke:#000000;stroke-miterlimit:10;}
	.st27{fill:#332C26;}
	.st28{fill:none;stroke:#FFB995;stroke-miterlimit:10;}
	.st29{fill:#FFB995;stroke:#FFB995;stroke-miterlimit:10;}
	.st30{fill:#FFB995;stroke:#000000;stroke-width:0.5;stroke-miterlimit:10;}
	.st31{fill:#577F5A;stroke:#000000;stroke-miterlimit:10;}
	.st32{fill:#577F5A;}
	.st33{fill:#FFFFFF;stroke:#000000;stroke-miterlimit:10;}
	.st34{fill:#20382B;stroke:#20382B;stroke-miterlimit:10;}
	.st35{fill:#BC6F22;}
	.st36{fill:#3C3B51;stroke:#000000;stroke-width:3;stroke-miterlimit:10;}
	.st37{fill:none;stroke:#000000;stroke-width:13;stroke-miterlimit:10;}
	.st38{fill:#576C9E;}
	.st39{fill:#C87529;stroke:#000000;stroke-miterlimit:10;}
	.st40{fill:#4C3A2C;stroke:#000000;stroke-miterlimit:10;}
	.st41{fill:#486D4A;}
	.st42{fill:#FFEC43;}
	.st43{stroke:#CE3838;stroke-miterlimit:10;}
	.st44{stroke:#000000;stroke-width:0.75;stroke-miterlimit:10;}
	.st45{fill:none;stroke:#000000;stroke-width:3;stroke-miterlimit:10;}
	.st46{fill:none;stroke:#F48E8E;stroke-width:30;stroke-miterlimit:10;}
</style>
<g id="Layer_1">
	<g>
		<path class="st0" d="M283.53,152.48c0,39.59-21.76,74.31-54.43,93.73c-7.62,4.53-15.84,8.23-24.51,10.96
			c-0.14,0.04-0.27,0.09-0.41,0.13c-11.15,3.47-23.06,5.35-35.42,5.35c-4.32,0-8.57-0.23-12.77-0.68
			c-9.77-1.04-19.17-3.25-28.04-6.49c-0.49-0.18-0.98-0.36-1.46-0.55c-2.71-1.03-5.37-2.16-7.97-3.37c-4.8-2.24-9.41-4.8-13.8-7.64
			c-30.6-19.79-50.73-53.36-50.73-91.43c0-60.84,51.38-110.16,114.77-110.16c0.19,0,0.38,0,0.56,0
			C232.45,42.61,283.53,91.82,283.53,152.48z"/>
		<g class="st1">
			<path class="st2" d="M148.55,186.37c14.66-0.42,29.31-0.85,43.97-1.27c-0.43,11.73-10.07,21.16-21.67,21.35
				C159.46,206.63,149.64,197.85,148.55,186.37z"/>
			<path class="st3" d="M190.29,171.71c0.84,7.5-1.91,4.14-2.55,28.68c-0.94,2.95-2.86,8.22-7.01,13.7
				c-3.19,4.21-5.94,7.84-9.56,7.97c-6.03,0.21-10.69-9.45-12.74-13.7c-4.31-8.92-1.91-20.39-3.5-33.77
				C161.63,166.22,176.81,164.1,190.29,171.71z"/>
			<g class="st4">
				<path class="st5" d="M155.72,174.42c3.82-2.05,11.61-5.51,21.77-5.13c5.36,0.2,9.79,1.41,12.96,2.58
					c-0.64,4.78-1.27,9.56-1.91,14.34c0,0-7.34,5.97-11.57,7.32c-5.49,1.74-10.49,1.56-14.84,1.34c-2.69-0.14-4.9-0.44-6.4-0.69
					V174.42z"/>
			</g>
			<path class="st6" d="M218.65,136.98c1.76-2.57,6.13-9.68,6.37-19.24c0.36-14.27-8.59-28.87-20.93-35.12
				c-14.7-7.44-38.38-6.17-31.96-6.5c6.05-0.32,8.8-15.2,8.28-15.61c-0.49-0.4-7.55,8.67-13.06,13.38
				c-30.27-9.88-60.62,6.68-60.54,5.74c0.08-0.99,29.3-1.37,47.32,3.15c0.06,0.01,0.1,0.02,0.16,0.04
				c-3.72-1.7-8.75-3.12-14.34-2.23c-11.82,1.88-21.74,13.43-24.53,28.99c0.44,8.57,2.77,24.81,14.97,36.64
				C154.82,169.91,202.66,160.3,218.65,136.98z"/>
			<path class="st3" d="M122.42,134.12c-3.31,1.46-3.21,8.11-3.19,8.92c0.35,13.75,17.69,21.81,18.8,22.3
				c3.84,1.72,7.84,3.52,9.56,1.91c3.32-3.1-4.05-16.87-12.74-25.81C131.86,138.37,126.13,132.48,122.42,134.12z"/>
			<path class="st3" d="M219.1,134.26c3.31,1.46,3.21,8.11,3.19,8.92c-0.35,13.75-17.69,21.81-18.8,22.3
				c-3.84,1.72-7.84,3.52-9.56,1.91c-3.32-3.1,4.05-16.87,12.74-25.81C209.67,138.51,215.39,132.62,219.1,134.26z"/>
			<path class="st3" d="M130.71,129.34c0.96,15.29,8.92,35.05,8.92,35.05s2.87,14.34,31.54,26.45c4.9-1.8,20.23-8.14,30.91-24.85
				c6.69-17.21,9.99-33.36,9.56-38.55c-2.87-18.05-17.28-41.47-39.19-42.06C149.44,84.75,133.14,109.71,130.71,129.34z"/>
			<path class="st7" d="M179.31,149.17c-0.75-1.31-0.68-2.61-0.61-3.67c0.03-0.48,0.21-3.56,2.15-5.39
				c3.69-3.48,14.49-3.18,18.44,1.71c1.78,2.2,2.45,5.67,0.31,8.33c-2.95,3.66-9.23,3.28-10.76,3.18
				C187.99,153.28,181.4,152.81,179.31,149.17z"/>
			<path class="st8" d="M200.8,150.68c0.12-0.78,0.86-6.26-3.19-9.92c-4.98-4.51-14.26-3.56-17.84,0.58
				c-0.92,1.07-1.37,2.24-1.59,3.21"/>
			<circle class="st9" cx="187.82" cy="145.19" r="3.9"/>
			<path class="st10" d="M198.41,151.16c-0.96,0.48-9.12,4.39-15.93,0.32c-1.68-1.01-2.92-2.28-3.82-3.5"/>
			<circle class="st7" cx="189.66" cy="144.03" r="1.52"/>
			<path class="st7" d="M159.41,148.72c0.75-1.31,0.68-2.61,0.61-3.67c-0.03-0.48-0.21-3.56-2.15-5.39
				c-3.69-3.48-14.49-3.18-18.44,1.71c-1.78,2.2-2.45,5.67-0.31,8.33c2.95,3.66,9.23,3.28,10.76,3.18
				C150.73,152.83,157.31,152.36,159.41,148.72z"/>
			<path class="st8" d="M137.92,150.23c-0.12-0.78-0.86-6.26,3.19-9.92c4.98-4.51,14.26-3.56,17.84,0.58
				c0.92,1.07,1.37,2.24,1.59,3.21"/>
			<circle class="st9" cx="150.9" cy="144.74" r="3.9"/>
			<circle class="st7" cx="152.88" cy="143.58" r="1.52"/>
			<path class="st10" d="M140.11,150.7c0.96,0.48,9.12,4.39,15.93,0.32c1.68-1.01,2.92-2.28,3.82-3.5"/>
			<path class="st11" d="M164.48,107.35c-2.23,21.03-9.24,30.59-9.24,30.59s17.84-9.24,14.34-12.43c0.56,0.47-4.46,14.34-10.2,17.52
				c1.51,1.97,9.14-0.26,14.02-4.14c13.81-10.99,8.19-37.32,7.33-41.1"/>
			<path class="st11" d="M174.36,102.89c4.46,9.19,19.78,21.69,32.05,32.04c2.2,1.85-0.45,7.72-4.01,13.53
				c1.04,0.98,3.89-0.5,4.49-0.82c4.7-2.45,7.83-8.04,7.93-15.12"/>
			<path class="st8" d="M130.71,145.23"/>
			<path class="st6" d="M215.14,130.61c5.33-4.52-2.44-34.56-24.21-45.88c-20.71-10.77-49.34-2.11-60.86,16.25
				c-6.63,10.57-8.72,26.01-3.5,29.31c9.19,5.82,39.83-26.73,43.49-23.1c1.59,1.58-3.54,8.34-1.43,10.36
				c2.23,2.14,8.26-5.16,15.77-3.98c7.42,1.17,7.71,9.26,18.8,14.66C206.22,129.69,212.58,132.79,215.14,130.61z"/>
			<g class="st4">
				<g>
					<path d="M165.59,107.35c0.27-1.25,0.41-2.54,0.4-3.82c-0.01-0.53-0.28-1.03-0.74-1.3c-0.44-0.26-1.08-0.3-1.51,0
						c-1.16,0.8-2.23,1.72-3.15,2.78c-0.26,0.3-0.44,0.65-0.44,1.06c0,0.37,0.16,0.81,0.44,1.06c0.29,0.26,0.66,0.46,1.06,0.44
						c0.38-0.02,0.8-0.14,1.06-0.44c0.65-0.75,1.37-1.43,2.16-2.04c-0.1,0.08-0.2,0.16-0.3,0.23c0.22-0.17,0.45-0.34,0.69-0.5
						c-0.75-0.43-1.5-0.86-2.26-1.3c0.01,0.75-0.04,1.5-0.14,2.24c0.02-0.13,0.04-0.27,0.05-0.4c-0.05,0.39-0.12,0.78-0.2,1.17
						c-0.08,0.39-0.06,0.8,0.15,1.16c0.18,0.31,0.54,0.61,0.9,0.69c0.38,0.09,0.82,0.07,1.16-0.15
						C165.22,108.04,165.51,107.73,165.59,107.35L165.59,107.35z"/>
				</g>
			</g>
			<g class="st4">
				<path d="M182.78,112.48c-0.24,0-0.27-2.34-0.99-6.96c-0.45-2.91-0.95-5.29-1.31-6.91c0.87,1.45,1.95,3.66,2.47,6.51
					C183.66,108.95,183.07,112.48,182.78,112.48z"/>
				<g>
					<path d="M183.18,111.04c-0.17-0.03,1.06,0.62,0.97,0.93c0.01-0.02-0.03-0.07-0.03-0.1c-0.01-0.1-0.03-0.21-0.06-0.31
						c-0.05-0.25,0.04,0.3,0.01,0.1c-0.01-0.08-0.02-0.17-0.03-0.25c-0.02-0.2-0.05-0.4-0.07-0.6c-0.14-1.27-0.29-2.53-0.46-3.79
						c-0.4-2.95-0.94-5.89-1.58-8.8c-0.91,0.39-1.83,0.77-2.74,1.16c1.24,2.09,2.1,4.39,2.43,6.81c0.18,1.31,0.21,2.65,0.13,3.96
						c-0.02,0.27-0.04,0.54-0.07,0.8c-0.03,0.27,0.03-0.18-0.01,0.06c-0.02,0.11-0.03,0.22-0.06,0.33c-0.03,0.14-0.07,0.27-0.1,0.41
						c-0.07,0.33,0.16-0.27,0.22-0.32c0.22-0.13,0.44-0.26,0.66-0.39c-0.01,0-0.01,0-0.02,0.01c-1.85,0.53-1.06,3.43,0.8,2.89
						c1.2-0.35,1.34-1.71,1.47-2.75c0.18-1.44,0.18-2.91,0.05-4.35c-0.3-3.18-1.28-6.22-2.91-8.97c-0.88-1.49-3.11-0.49-2.74,1.16
						c0.7,3.14,1.27,6.31,1.67,9.5c0.13,1.06,0.23,2.13,0.37,3.2c0.11,0.85,0.24,2.03,1.3,2.22c0.8,0.15,1.62-0.22,1.85-1.05
						C184.43,112.15,183.98,111.18,183.18,111.04z"/>
				</g>
			</g>
			<g class="st4">
				<g>
					<path d="M217.63,130.91c0-1.12,0-2.24,0-3.36c0-0.38-0.17-0.79-0.44-1.06c-0.26-0.26-0.69-0.46-1.06-0.44
						c-0.81,0.04-1.5,0.66-1.5,1.5c0,1.12,0,2.24,0,3.36c0,0.38,0.17,0.79,0.44,1.06c0.26,0.26,0.69,0.46,1.06,0.44
						C216.94,132.37,217.63,131.75,217.63,130.91L217.63,130.91z"/>
				</g>
			</g>
			<g class="st4">
				<g>
					<path d="M143.07,82.62c1.44-0.1,2.87-0.13,4.31-0.08c0.7,0.03,1.41,0.07,2.11,0.14c0.73,0.07,1.38,0.15,1.95,0.23
						c0.77,0.12,1.65-0.19,1.85-1.05c0.16-0.71-0.22-1.72-1.05-1.85c-3.04-0.46-6.1-0.62-9.17-0.4c-0.78,0.06-1.54,0.65-1.5,1.5
						C141.61,81.88,142.24,82.68,143.07,82.62L143.07,82.62z"/>
				</g>
			</g>
			<g class="st4">
				<g>
					<path d="M178.61,94.18c-0.12-0.25-0.27-0.49-0.44-0.72c-0.24-0.32-0.49-0.64-0.8-0.9c-0.62-0.54-1.29-0.93-2.06-1.19
						c-0.36-0.12-0.84-0.03-1.16,0.15c-0.31,0.18-0.61,0.54-0.69,0.9c-0.09,0.38-0.07,0.81,0.15,1.16c0.22,0.34,0.51,0.56,0.9,0.69
						c0.09,0.03,0.18,0.07,0.27,0.1c-0.12-0.05-0.24-0.1-0.36-0.15c0.34,0.14,0.65,0.33,0.94,0.55c-0.1-0.08-0.2-0.16-0.3-0.23
						c0.28,0.22,0.53,0.47,0.75,0.75c-0.08-0.1-0.16-0.2-0.23-0.3c0.17,0.22,0.32,0.46,0.44,0.72c0.16,0.32,0.56,0.6,0.9,0.69
						c0.36,0.1,0.84,0.05,1.16-0.15c0.32-0.21,0.6-0.51,0.69-0.9c0.02-0.13,0.04-0.27,0.05-0.4
						C178.81,94.67,178.74,94.42,178.61,94.18L178.61,94.18z"/>
				</g>
			</g>
			<g class="st4">
				<g>
					<path d="M203.03,95.12c2.58,4.56,4.88,9.27,6.85,14.12c0.3,0.75,1,1.28,1.85,1.05c0.71-0.2,1.35-1.09,1.05-1.85
						c-2.07-5.09-4.45-10.05-7.15-14.83C204.67,91.93,202.07,93.44,203.03,95.12L203.03,95.12z"/>
				</g>
			</g>
			<g class="st4">
				<g>
					<path d="M126.33,114.21c0.35-2.46,1.77-4.8,2.86-7c1.19-2.4,2.45-4.77,3.76-7.11c0.95-1.68-1.64-3.2-2.59-1.51
						c-1.36,2.42-2.66,4.87-3.88,7.36c-0.61,1.24-1.21,2.48-1.78,3.74c-0.55,1.2-1.07,2.41-1.26,3.73c-0.12,0.8,0.2,1.61,1.05,1.85
						C125.19,115.45,126.22,115.02,126.33,114.21L126.33,114.21z"/>
				</g>
			</g>
			<path class="st12" d="M123.06,138.58c-0.38,1.2-0.98,3.68-0.32,6.69c0.44,2.02,1.29,3.53,1.91,4.46"/>
			<path class="st12" d="M219,138.2c0.38,1.2,0.98,3.68,0.32,6.69c-0.44,2.02-1.29,3.53-1.91,4.46"/>
			<path class="st13" d="M201.92,165.18c-0.05,0-6.48,8.49-9.88,7.01c-2.16-0.94-0.67-4.87-3.5-7.01
				c-1.97-1.48-5.75-0.96-13.22,0.16c-2.43,0.36-2.07,0.4-3.82,0.64c-9.38,1.29-12.48-0.41-14.97,1.59
				c-2.9,2.32-0.19,7.09-2.23,8.28c-3.19,1.86-11.57-7.73-11.79-7.65c-0.16,0.06-0.35,0.12-0.38,0.28
				c-0.86,5.64,28.36,23.72,29.21,22.18c0,0,13.06-5.42,19.44-11.87C196.08,173.97,199.63,169,201.92,165.18z"/>
			<line class="st12" x1="173.08" y1="143.67" x2="168.94" y2="146.22"/>
			<line class="st12" x1="173.4" y1="145.27" x2="166.71" y2="149.41"/>
			<line class="st12" x1="175" y1="146.22" x2="166.39" y2="151.64"/>
			<line class="st12" x1="175.63" y1="148.13" x2="166.71" y2="153.55"/>
			<line class="st12" x1="176.59" y1="149.41" x2="167.35" y2="154.83"/>
			<path class="st14" d="M171.17,157.85c-0.05,1.27-0.11,2.55-0.16,3.82c-0.58-0.53-1.17-1.06-1.75-1.59"/>
			<g class="st4">
				<g>
					<path class="st5" d="M140.32,153.92c-0.19,0.26-0.39,0.52-0.58,0.78c-0.11,0.17-0.17,0.36-0.18,0.56
						c-0.04,0.2-0.04,0.4,0.03,0.6c0.05,0.2,0.14,0.37,0.27,0.51c0.11,0.16,0.25,0.29,0.42,0.39c0.12,0.05,0.24,0.1,0.36,0.15
						c0.27,0.07,0.53,0.07,0.8,0c0.12-0.05,0.24-0.1,0.36-0.15c0.23-0.13,0.4-0.31,0.54-0.54c0.19-0.26,0.39-0.52,0.58-0.78
						c0.11-0.17,0.17-0.36,0.18-0.56c0.04-0.2,0.04-0.4-0.03-0.6c-0.05-0.2-0.14-0.37-0.27-0.51c-0.11-0.16-0.25-0.29-0.42-0.39
						c-0.12-0.05-0.24-0.1-0.36-0.15c-0.27-0.07-0.53-0.07-0.8,0c-0.12,0.05-0.24,0.1-0.36,0.15
						C140.63,153.52,140.45,153.7,140.32,153.92L140.32,153.92z"/>
				</g>
			</g>
			<g class="st4">
				<g>
					<path class="st5" d="M141.58,154.8c-0.06,0.1-0.13,0.19-0.19,0.29c-0.11,0.17-0.17,0.36-0.18,0.56c-0.04,0.2-0.04,0.4,0.03,0.6
						c0.05,0.2,0.14,0.37,0.27,0.51c0.11,0.16,0.25,0.29,0.42,0.39c0.12,0.05,0.24,0.1,0.36,0.15c0.27,0.07,0.53,0.07,0.8,0
						c0.12-0.05,0.24-0.1,0.36-0.15c0.23-0.13,0.4-0.31,0.54-0.54c0.06-0.1,0.13-0.19,0.19-0.29c0.11-0.17,0.17-0.36,0.18-0.56
						c0.04-0.2,0.04-0.4-0.03-0.6c-0.05-0.2-0.14-0.37-0.27-0.51c-0.11-0.16-0.25-0.29-0.42-0.39c-0.12-0.05-0.24-0.1-0.36-0.15
						c-0.27-0.07-0.53-0.07-0.8,0c-0.12,0.05-0.24,0.1-0.36,0.15C141.89,154.39,141.71,154.57,141.58,154.8L141.58,154.8z"/>
				</g>
			</g>
			<g class="st4">
				<g>
					<path class="st5" d="M195.44,155.26c0,0.16,0,0.32,0,0.49c-0.01,0.21,0.04,0.4,0.13,0.58c0.06,0.19,0.16,0.35,0.31,0.48
						c0.14,0.15,0.3,0.25,0.48,0.31c0.18,0.09,0.37,0.14,0.58,0.13c0.13-0.02,0.27-0.04,0.4-0.05c0.25-0.07,0.47-0.2,0.66-0.39
						c0.08-0.1,0.16-0.2,0.23-0.3c0.14-0.23,0.2-0.49,0.2-0.76c0-0.16,0-0.32,0-0.49c0.01-0.21-0.04-0.4-0.13-0.58
						c-0.06-0.19-0.16-0.35-0.31-0.48c-0.14-0.15-0.3-0.25-0.48-0.31c-0.18-0.09-0.37-0.14-0.58-0.13c-0.13,0.02-0.27,0.04-0.4,0.05
						c-0.25,0.07-0.47,0.2-0.66,0.39c-0.08,0.1-0.16,0.2-0.23,0.3C195.51,154.74,195.44,154.99,195.44,155.26L195.44,155.26z"/>
				</g>
			</g>
			<g class="st4">
				<g>
					<path class="st5" d="M197.19,155.61c0,0,0.01,0.01,0.01,0.01c-0.08-0.1-0.16-0.2-0.23-0.3c0.08,0.1,0.14,0.21,0.19,0.33
						c-0.05-0.12-0.1-0.24-0.15-0.36c0.05,0.13,0.09,0.26,0.11,0.4c-0.02-0.13-0.04-0.27-0.05-0.4c0.01,0.12,0.02,0.24,0,0.36
						c-0.01,0.21,0.04,0.4,0.13,0.58c0.06,0.19,0.16,0.35,0.31,0.48c0.14,0.15,0.3,0.25,0.48,0.31c0.18,0.09,0.37,0.14,0.58,0.13
						c0.13-0.02,0.27-0.04,0.4-0.05c0.25-0.07,0.47-0.2,0.66-0.39c0.08-0.1,0.16-0.2,0.23-0.3c0.14-0.23,0.2-0.49,0.2-0.76
						c0.01-0.1,0.01-0.2,0-0.31c-0.02-0.18-0.04-0.36-0.07-0.53c-0.01-0.05-0.02-0.1-0.04-0.15c-0.01-0.05-0.03-0.09-0.05-0.14
						c-0.06-0.16-0.13-0.33-0.21-0.48c-0.1-0.2-0.26-0.38-0.4-0.55c-0.14-0.15-0.3-0.25-0.48-0.31c-0.18-0.09-0.37-0.14-0.58-0.13
						c-0.21-0.01-0.4,0.04-0.58,0.13c-0.19,0.06-0.35,0.16-0.48,0.31c-0.08,0.1-0.16,0.2-0.23,0.3c-0.14,0.23-0.2,0.49-0.2,0.76
						c0.02,0.13,0.04,0.27,0.05,0.4C196.87,155.2,197,155.42,197.19,155.61L197.19,155.61z"/>
				</g>
			</g>
			<path class="st11" d="M166.39,108.31c-4.08,2.85-29.95,26.76-32.18,36.32c-0.64,1.59,3.06,10,3.5,9.88
				c0.02-0.01,0.04-0.04,0.04-0.05c0.21-0.83-17.49-5.88-14.06-29.26"/>
			<path class="st15" d="M155.88,132.84c-7.59-0.24-14.6,1-20.71,4.46"/>
			<path class="st15" d="M182.02,132.84c7.59-0.24,14.6,1,20.71,4.46"/>
			<path class="st16" d="M231.39,229.38c-0.87-6.94-1.9-13.89-4.37-20.73c-10.09-1.91-20.18-3.82-30.27-5.74l9.79,34.11
				c1.04,6.24,2.23,12.48,3.49,18.72l26.44-0.49C234.31,246.88,232.51,238.26,231.39,229.38z"/>
			<path class="st16" d="M139.63,233.52l12.74-31.86c-10.09,1.91-20.18,3.82-30.27,5.74c-2.49,7.93-4.94,16.01-7.33,24.21
				c-2.56,8.77-4.97,17.45-7.27,26.03l25.61-0.47C135.29,249.29,137.46,241.4,139.63,233.52z"/>
			<g class="st4">
				<path class="st17" d="M209.34,244.83c0.04-6.9,0.46-16.9,2.61-29.15l-80.61,2.55c2.21,5.88,2.82,21.55,2.57,38.92l75.73-1.4
					C209.46,252.54,209.32,248.92,209.34,244.83z"/>
				<g>
					<path d="M209.23,244.83c0.16-9.51,0.74-20.29,2.73-29.03c-13.42,0.43-47.5,1.51-60.46,1.88c-6.72,0.19-13.44,0.4-20.15,0.68
						l0.12-0.18c1.1,3.11,1.56,6.37,1.99,9.61c1.24,9.39,0.87,19.87,0.58,29.36c0,0-0.13-0.13-0.13-0.13
						c-0.02,0.04,76.18-1.55,75.62-1.27C209.54,255.76,209.23,244.83,209.23,244.83L209.23,244.83z M209.46,244.83
						c0,0,0.29,10.91,0.29,10.91l0,0.11c0,0.05-75.8,1.38-75.84,1.42c0,0-0.13,0-0.13,0s0-0.13,0-0.13s-0.03-4.89-0.03-4.89
						c-0.23-7.56-0.51-16.88-0.98-24.4c-0.27-3.29-0.55-6.63-1.61-9.76c6.78-0.15,13.55-0.36,20.33-0.6
						c12.82-0.44,47.21-1.52,60.46-1.94c0,0,0.15,0,0.15,0s-0.03,0.14-0.03,0.14C210.39,225.32,209.5,235.07,209.46,244.83
						L209.46,244.83z"/>
				</g>
			</g>
			<path class="st18" d="M179.78,212.81c-5.73,1.91-11.92,2.12-18.48,0.96c0.03-1.19,2.55,9.24,9.56,12.11
				C180.73,220.46,180.15,210.88,179.78,212.81z"/>
			<path class="st19" d="M157.15,212.81c-1.14-3.39-5.21-4.96-8.28-4.46c-5.13,0.83-8.64,7.56-6.69,11.15
				c1.91,3.52,9.09,4.05,12.74,0.64C156.59,218.58,158.11,215.66,157.15,212.81z"/>
			<path class="st19" d="M203.5,209.43c-1.08-3.51-5.47-5.12-8.59-5.06c-7.02,0.13-13.21,8.83-11.47,12.74
				c1.81,4.06,12.99,4.89,17.83-0.35C201.55,216.46,204.61,213.04,203.5,209.43z"/>
			<path class="st16" d="M192.68,185.25c-7.18,8.35-14.16,15.77-20.39,19.44c2.18,5.36,4.35,10.73,6.53,16.09
				c3.11-3.11,7.27-6.72,12.61-10.13c4.57-2.92,8.89-4.97,12.56-6.43c-2.66-3.93-5.31-7.86-7.97-11.79
				C194.91,190.03,193.79,187.64,192.68,185.25z"/>
			<path class="st16" d="M148.48,186.59c7.18,8.35,14.16,15.77,20.39,19.44c-2.18,5.36-4.35,10.73-6.53,16.09
				c-4.18-3.3-8.38-6.68-12.61-10.13c-3.31-2.7-6.57-5.4-9.78-8.09c1.65-2.33,3.44-5.2,5.1-8.6
				C146.58,192.13,147.68,189.17,148.48,186.59z"/>
			<g class="st4">
				<g>
					<path d="M191.31,197.25c-1.03,0.84-2.16,1.53-3.36,2.11c-0.54,0.26-1.07,0.53-1.46,0.99c-0.42,0.49-0.63,1.11-0.88,1.69
						c-1.19,2.8-2.39,5.6-3.58,8.4c-0.37,0.88,0.92,1.64,1.3,0.76c1.16-2.72,2.32-5.45,3.48-8.17c0.23-0.54,0.42-1.25,0.81-1.7
						c0.37-0.43,1-0.62,1.49-0.87c1.17-0.59,2.25-1.32,3.27-2.15C193.12,197.7,192.05,196.65,191.31,197.25L191.31,197.25z"/>
				</g>
			</g>
			<g class="st4">
				<g>
					<path d="M146.78,197.96c0.22,0.01,0.44,0.02,0.65,0.03c0.11,0.01,0.22,0.02,0.33,0.03c0.03,0,0.06,0.01,0.09,0.01
						c-0.03,0-0.05-0.01-0.08-0.01c0.04-0.01,0.14,0.02,0.17,0.03c0.2,0.04,0.4,0.08,0.6,0.15c0.05,0.02,0.09,0.03,0.14,0.05
						c0.18,0.07-0.14-0.07,0.04,0.02c0.09,0.05,0.18,0.09,0.26,0.14c0.02,0.01,0.1,0.05,0.1,0.07c-0.08-0.06-0.09-0.08-0.05-0.04
						c0.02,0.02,0.04,0.03,0.06,0.05c0.06,0.06,0.12,0.11,0.18,0.18c0.03,0.03,0.07,0.09,0.1,0.12c-0.06-0.04-0.08-0.11-0.01-0.01
						c0.05,0.08,0.1,0.16,0.14,0.24c0.07,0.12-0.04-0.11-0.01-0.02c0.01,0.04,0.03,0.08,0.04,0.12c0.01,0.05,0.03,0.09,0.04,0.14
						c0.01,0.02,0.01,0.05,0.01,0.07c0.01,0.06,0.01,0.03-0.01-0.08c-0.02,0.01,0,0.21,0,0.24c-0.01,0.16,0.05-0.16,0-0.01
						c-0.01,0.05-0.03,0.09-0.04,0.14c-0.12,0.37,0.14,0.84,0.52,0.92c0.41,0.09,0.79-0.12,0.92-0.52c0.35-1.08-0.26-2.18-1.12-2.8
						c-0.87-0.64-2.03-0.7-3.07-0.74c-0.39-0.02-0.77,0.36-0.75,0.75C146.05,197.63,146.36,197.94,146.78,197.96L146.78,197.96z"/>
				</g>
			</g>
			<path class="st8" d="M189.33,196.56"/>
			<path class="st8" d="M189.33,193.7"/>
			<path class="st8" d="M190.61,193.38"/>
			<path class="st20" d="M225.02,199.11c-1.63-2.05-3.93-2.81-5.1-3.19c-0.63-0.21-5.73-1.79-10.51,0.96
				c-5.06,2.9-8.22,9.75-6.05,14.66c2.86,6.48,14.44,8.3,20.07,2.87C227.42,210.55,228.26,203.18,225.02,199.11z"/>
			<path class="st21" d="M227.73,206.33c-6.55-6.24-14.84-7.34-24.5-4.37c-0.38,0.94-0.77,1.87-1.15,2.81
				c8.13,0.24,16.4,0.97,25.27,3.75C227.47,207.78,227.6,207.05,227.73,206.33z"/>
			<path class="st21" d="M121.82,205.77c5.73-6.24,12.98-7.34,21.43-4.37c0.33,0.94,0.67,1.87,1,2.81
				c-7.11,0.24-14.34,0.97-22.1,3.75C122.04,207.23,121.93,206.5,121.82,205.77z"/>
			<g class="st4">
				<g>
					<path d="M164.97,178.3c4.79,0.46,10.08,0.51,14.09-2.55c0.76-0.58,0.01-1.88-0.76-1.3c-3.82,2.91-8.78,2.79-13.33,2.34
						C164.01,176.7,164.02,178.2,164.97,178.3L164.97,178.3z"/>
				</g>
			</g>
			<g class="st4">
				<g>
					<path class="st22" d="M129.48,219.36c-2.5,9.18-4.13,18.57-4.9,28.05c-0.16,1.92,2.84,1.91,3,0c0.75-9.22,2.37-18.33,4.8-27.25
						C132.88,218.29,129.99,217.5,129.48,219.36L129.48,219.36z"/>
				</g>
			</g>
			<g class="st4">
				<g>
					<path class="st22" d="M222.39,215.39c-2.56,2.84-5.07,5.72-7.53,8.64c-0.5,0.6-0.63,1.54,0,2.12c0.56,0.51,1.58,0.64,2.12,0
						c2.46-2.92,4.97-5.8,7.53-8.64c0.53-0.58,0.62-1.55,0-2.12C223.94,214.87,222.95,214.77,222.39,215.39L222.39,215.39z"/>
				</g>
			</g>
			<g class="st4">
				<g>
					<path class="st22" d="M133.81,207.25c3.29,0.88,6.6,1.66,9.93,2.35c0.77,0.16,1.66-0.22,1.85-1.05
						c0.17-0.75-0.23-1.68-1.05-1.85c-3.33-0.69-6.64-1.47-9.93-2.35c-0.76-0.2-1.66,0.25-1.85,1.05
						C132.58,206.19,133,207.03,133.81,207.25L133.81,207.25z"/>
				</g>
			</g>
		</g>
		<g>
			<path class="st23" d="M292.34,45.54L292.34,45.54L292.34,45.54z"/>
			<path class="st24" d="M145.5,186.5c16.67-0.33,33.33-0.67,50-1c-1.8,12.15-12.11,21.33-24.28,21.72
				C158.84,207.61,147.83,198.79,145.5,186.5z"/>
			<path class="st25" d="M171.56,223c3.8-0.13,6.7-3.79,10.06-8.05c4.37-5.53,6.39-10.86,7.38-13.84
				c0.67-24.79,3.56-21.39,2.68-28.98c-14.19-7.7-30.16-5.55-37.22,2.9c1.68,13.52-0.84,25.11,3.69,34.13
				C160.31,213.45,165.21,223.21,171.56,223z"/>
			<g>
				<path class="st5" d="M154.98,175.11c4.14-2.2,12.45-5.84,23.25-5.43c5.52,0.21,10.1,1.41,13.45,2.61
					c-0.66,4.83-1.32,9.66-1.98,14.49c0,0-7.62,6.04-12.01,7.39c-5.69,1.76-10.84,1.58-15.41,1.36c-2.79-0.14-5.08-0.45-6.65-0.7"/>
			</g>
			<path class="st26" d="M217.81,137.13c5.86-8.87,6.1-18.27,6.12-19.64c0.27-20.43-17.95-34.51-19.11-35.38
				c-2.95-2.21-8.63-5.98-19.18-8.81c0,0-1.07-0.29-2.24-0.57c-18.69-4.44-37.37-1.87-37.37-1.87
				c-19.18,2.65-33.85,10.67-33.48,11.86c0.4,1.3,18.67-6.25,41.8-0.46c0.06,0.02,0.12,0.03,0.16,0.04
				c-3.52-1.64-8.68-3.24-14.49-2.25c-11.57,1.96-21.19,13.43-23.61,28.75c-0.41,5.82-0.39,17.95,7.03,29.38
				c0,0,3.37,4.19,6.92,8.18C152.88,171.79,203.27,159.14,217.81,137.13z"/>
			<path class="st25" d="M122.29,134.14c-3.34,1.47-3.24,8.2-3.22,9.01c0.35,13.89,17.88,22.04,18.99,22.54
				c3.88,1.74,7.92,3.55,9.66,1.93c3.36-3.13-4.09-17.05-12.88-26.08C131.82,138.43,126.04,132.49,122.29,134.14z"/>
			<path class="st25" d="M219.98,134.28c3.34,1.47,3.24,8.2,3.22,9.01c-0.35,13.89-17.88,22.04-18.99,22.54
				c-3.88,1.74-7.92,3.55-9.66,1.93c-3.36-3.13,4.09-17.05,12.88-26.08C210.45,138.57,216.24,132.63,219.98,134.28z"/>
			<path class="st25" d="M130.66,129.31c0.97,15.45,9.01,35.41,9.01,35.41s2.9,14.49,31.87,26.72c4.95-1.82,20.44-8.22,31.23-25.11
				c6.76-17.39,10.09-33.7,9.66-38.96c-2.9-18.24-17.46-41.9-39.6-42.5C149.59,84.25,133.12,109.48,130.66,129.31z"/>
			<path class="st23" d="M130.66,145.37"/>
			<path class="st27" d="M215.98,130.6c5.39-4.57-2.47-34.92-24.47-46.36c-20.93-10.89-49.86-2.13-61.49,16.42
				c-6.51,10.37-9.01,25.67-3.54,29.62c1.76,1.27,3.62,0.09,15.16-4.41c18.24-7.12,23.13-8.07,27.33-8.46
				c6.19-0.58,11.06,0.05,13.29,0.4c4.42,0.7,8.89,2.07,14.13,4.36c6.06,3.66,11.94,11.5,17.57,9.6
				C214.19,131.69,215.19,131.27,215.98,130.6z"/>
			<path class="st28" d="M122.94,138.65c-0.38,1.21-0.99,3.72-0.32,6.76c0.45,2.04,1.3,3.57,1.93,4.51"/>
			<path class="st28" d="M219.88,138.27c0.38,1.21,0.99,3.72,0.32,6.76c-0.45,2.04-1.3,3.57-1.93,4.51"/>
			<line class="st29" x1="171.55" y1="144.12" x2="167.37" y2="146.69"/>
			<line class="st29" x1="172.84" y1="145.41" x2="166.08" y2="149.59"/>
			<line class="st29" x1="174.45" y1="146.69" x2="165.76" y2="152.17"/>
			<line class="st29" x1="175.09" y1="147.98" x2="166.08" y2="153.45"/>
			<line class="st29" x1="175.42" y1="149.91" x2="166.08" y2="155.39"/>
			<path class="st30" d="M171.55,158.12c-0.05,1.29-0.11,2.58-0.16,3.86c-0.59-0.54-1.18-1.07-1.77-1.61"/>
			<g>
				<g>
					<path class="st5" d="M139.1,156.09c-0.2,0.26-0.39,0.52-0.59,0.79c-0.11,0.17-0.17,0.36-0.18,0.56c-0.04,0.2-0.04,0.4,0.03,0.6
						c0.05,0.2,0.14,0.37,0.27,0.51c0.11,0.16,0.25,0.29,0.42,0.39c0.12,0.05,0.24,0.1,0.36,0.15c0.27,0.07,0.53,0.07,0.8,0
						c0.12-0.05,0.24-0.1,0.36-0.15c0.23-0.13,0.4-0.31,0.54-0.54c0.2-0.26,0.39-0.52,0.59-0.79c0.11-0.17,0.17-0.36,0.18-0.56
						c0.04-0.2,0.04-0.4-0.03-0.6c-0.05-0.2-0.14-0.37-0.27-0.51c-0.11-0.16-0.25-0.29-0.42-0.39c-0.12-0.05-0.24-0.1-0.36-0.15
						c-0.27-0.07-0.53-0.07-0.8,0c-0.12,0.05-0.24,0.1-0.36,0.15C139.41,155.69,139.23,155.87,139.1,156.09L139.1,156.09z"/>
				</g>
			</g>
			<g>
				<g>
					<path class="st5" d="M141.66,157.3c-0.07,0.1-0.13,0.2-0.2,0.3c-0.11,0.17-0.17,0.36-0.18,0.56c-0.04,0.2-0.04,0.4,0.03,0.6
						c0.05,0.2,0.14,0.37,0.27,0.51c0.11,0.16,0.25,0.29,0.42,0.39c0.12,0.05,0.24,0.1,0.36,0.15c0.27,0.07,0.53,0.07,0.8,0
						c0.12-0.05,0.24-0.1,0.36-0.15c0.23-0.13,0.4-0.31,0.54-0.54c0.07-0.1,0.13-0.2,0.2-0.3c0.11-0.17,0.17-0.36,0.18-0.56
						c0.04-0.2,0.04-0.4-0.03-0.6c-0.05-0.2-0.14-0.37-0.27-0.51c-0.11-0.16-0.25-0.29-0.42-0.39c-0.12-0.05-0.24-0.1-0.36-0.15
						c-0.27-0.07-0.53-0.07-0.8,0c-0.12,0.05-0.24,0.1-0.36,0.15C141.97,156.89,141.79,157.07,141.66,157.3L141.66,157.3z"/>
				</g>
			</g>
			<g>
				<g>
					<path class="st5" d="M196.73,157.76c0,0.16,0,0.33,0,0.49c-0.01,0.21,0.04,0.4,0.13,0.58c0.06,0.19,0.16,0.35,0.31,0.48
						c0.14,0.15,0.3,0.25,0.48,0.31c0.18,0.09,0.37,0.14,0.58,0.13c0.13-0.02,0.27-0.04,0.4-0.05c0.25-0.07,0.47-0.2,0.66-0.39
						c0.08-0.1,0.16-0.2,0.23-0.3c0.14-0.23,0.2-0.49,0.2-0.76c0-0.16,0-0.33,0-0.49c0.01-0.21-0.04-0.4-0.13-0.58
						c-0.06-0.19-0.16-0.35-0.31-0.48c-0.14-0.15-0.3-0.25-0.48-0.31c-0.18-0.09-0.37-0.14-0.58-0.13c-0.13,0.02-0.27,0.04-0.4,0.05
						c-0.25,0.07-0.47,0.2-0.66,0.39c-0.08,0.1-0.16,0.2-0.23,0.3C196.8,157.24,196.73,157.49,196.73,157.76L196.73,157.76z"/>
				</g>
			</g>
			<g>
				<g>
					<path class="st5" d="M199.78,157.77c0,0,0.01,0.01,0.01,0.01c-0.08-0.1-0.16-0.2-0.23-0.3c0.08,0.1,0.14,0.21,0.19,0.33
						c-0.05-0.12-0.1-0.24-0.15-0.36c0.05,0.13,0.09,0.27,0.11,0.4c-0.02-0.13-0.04-0.27-0.05-0.4c0.01,0.12,0.02,0.24,0,0.36
						c-0.01,0.21,0.04,0.4,0.13,0.58c0.06,0.19,0.16,0.35,0.31,0.48c0.14,0.15,0.3,0.25,0.48,0.31c0.18,0.09,0.37,0.14,0.58,0.13
						c0.13-0.02,0.27-0.04,0.4-0.05c0.25-0.07,0.47-0.2,0.66-0.39c0.08-0.1,0.16-0.2,0.23-0.3c0.14-0.23,0.2-0.49,0.2-0.76
						c0.01-0.1,0.01-0.21,0-0.31c-0.02-0.18-0.04-0.36-0.07-0.53c-0.01-0.05-0.02-0.1-0.04-0.15c-0.01-0.05-0.03-0.09-0.05-0.14
						c-0.06-0.16-0.13-0.33-0.21-0.48c-0.1-0.2-0.26-0.38-0.4-0.56c-0.14-0.15-0.3-0.25-0.48-0.31c-0.18-0.09-0.37-0.14-0.58-0.13
						c-0.21-0.01-0.4,0.04-0.58,0.13c-0.19,0.06-0.35,0.16-0.48,0.31c-0.08,0.1-0.16,0.2-0.23,0.3c-0.14,0.23-0.2,0.49-0.2,0.76
						c0.02,0.13,0.04,0.27,0.05,0.4C199.47,157.37,199.6,157.59,199.78,157.77L199.78,157.77z"/>
				</g>
			</g>
			<path class="st31" d="M234.93,230.4c-0.92-7.01-2-14.04-4.6-20.94c-10.62-1.93-21.24-3.86-31.86-5.8l10.3,34.47
				c0.97,5.59,2.06,11.19,3.22,16.78c9.59-0.85,18.74-2.8,26.19-6.74C236.85,242.36,235.72,236.44,234.93,230.4z"/>
			<path class="st31" d="M151.78,202.39c-10.62,1.93-21.24,3.86-31.86,5.8c-2.62,8.02-5.2,16.17-7.71,24.47
				c-1.75,5.76-3.43,11.48-5.06,17.17c8.78,0.07,17.64,0.55,26.5,1.22c1.57-5.48,3.14-10.97,4.72-16.45L151.78,202.39z"/>
			<g>
				<path class="st32" d="M121.17,218.81c-0.69,11.16-1.27,21.67-1.74,31.35c16.24,0.75,32.62,2.51,48.57,3.84
					c16.84,1.09,40.75,3.35,59.41-1.7c-0.22-12.35-0.81-24.39-1.71-36.07L121.17,218.81z"/>
				<g>
					<path d="M121.26,218.9c-0.02-0.09-1.58,31.82-1.82,31.15c13.02,0.6,27.48,1.97,40.54,3.14c13.49,1.15,27.03,2.19,40.58,2.18
						c9.01-0.14,18.12-0.8,26.78-3.34c0,0-0.21,0.28-0.21,0.28c-0.37-8.03-0.83-19.02-1.1-27.05c-0.1-3.01-0.25-6.01-0.46-9.02
						l0.14,0.13L121.26,218.9L121.26,218.9z M121.09,218.72c0.14,0.13,104.85-2.89,104.74-2.5c1.14,11.86,2.05,24.19,1.86,36.08
						c0,0,0,0.23,0,0.23l-0.21,0.05c-17.7,4.12-36.04,3.11-54.02,1.9c-7.88-0.45-19.05-1.6-27.01-2.28
						c-9.04-0.79-18.09-1.52-27.15-1.94C119.25,250.17,121.13,218.84,121.09,218.72L121.09,218.72z"/>
				</g>
			</g>
			<path class="st33" d="M170.83,226.86c11.09-5.47,10.43-15.16,10.02-13.2c-6.4,1.92-13.31,2.13-20.62,0.98
				C160.83,215.69,163.84,224.29,170.83,226.86z"/>
			<path class="st33" d="M160.1,214.62c0.04,0.01,0.08,0.01,0.12,0.02C160.14,214.51,160.1,214.49,160.1,214.62z"/>
			<path class="st32" d="M151.17,220.74c2.16-1.58,4.13-4.53,2.89-7.4c-1.47-3.43-6.75-5.01-10.74-4.51
				c-6.66,0.83-11.21,7.64-8.68,11.27C137.12,223.65,146.43,224.19,151.17,220.74z"/>
			<path class="st32" d="M209.27,217.32c0.36-0.3,4.33-3.76,2.89-7.4c-1.4-3.55-7.09-5.18-11.14-5.11
				c-9.11,0.14-17.13,8.92-14.87,12.88C188.49,221.79,202.99,222.62,209.27,217.32z"/>
			<path class="st31" d="M193.93,211.47c5.13-2.95,9.98-5.03,14.1-6.5c-2.98-3.97-5.96-7.94-8.94-11.91
				c-1.25-2.41-2.5-4.83-3.76-7.24c-8.06,8.44-15.9,15.93-22.89,19.64c2.44,5.42,4.89,10.84,7.33,16.26
				C183.26,218.57,187.94,214.91,193.93,211.47z"/>
			<path class="st31" d="M161.27,223.06c2.44-5.42,4.89-10.84,7.33-16.26c-6.99-3.71-14.84-11.2-22.89-19.64
				c-0.89,2.61-2.13,5.6-3.85,8.79c-1.86,3.44-3.87,6.34-5.72,8.69c3.6,2.72,7.26,5.44,10.98,8.18
				C151.86,216.31,156.58,219.73,161.27,223.06z"/>
			<g>
				<g>
					<path d="M194.01,197.82c-1.16,0.85-2.41,1.58-3.74,2.16c-0.6,0.26-1.2,0.49-1.69,0.94c-0.51,0.47-0.77,1.11-1.06,1.72
						c-1.36,2.87-2.72,5.75-4.08,8.62c-0.41,0.87,0.88,1.63,1.3,0.76c1.29-2.72,2.57-5.44,3.86-8.16c0.27-0.56,0.49-1.25,0.9-1.73
						c0.41-0.47,1.09-0.66,1.64-0.91c1.28-0.57,2.5-1.28,3.63-2.11C195.54,198.55,194.79,197.25,194.01,197.82L194.01,197.82z"/>
				</g>
			</g>
			<g>
				<g>
					<path d="M143.81,198.64c0.24,0.01,0.48,0.02,0.72,0.03c0.11,0.01,0.23,0.02,0.34,0.03c0.06,0.01,0.11,0.01,0.17,0.02
						c0.22,0.02-0.15-0.03,0.07,0.01c0.22,0.04,0.44,0.08,0.65,0.14c0.11,0.03,0.21,0.07,0.31,0.11c0.2,0.07-0.13-0.07,0.06,0.03
						c0.05,0.02,0.09,0.04,0.14,0.07c0.09,0.05,0.16,0.1,0.25,0.15c0.08,0.05-0.1-0.09,0.01,0.01c0.04,0.03,0.07,0.06,0.11,0.1
						c0.04,0.03,0.22,0.18,0.21,0.23c0-0.05-0.08-0.11,0,0.01c0.03,0.04,0.05,0.08,0.07,0.12c0.02,0.04,0.04,0.08,0.06,0.12
						c0.04,0.08-0.05-0.14,0-0.01c0.01,0.03,0.09,0.23,0.07,0.25c-0.01-0.11-0.02-0.13-0.01-0.07c0,0.03,0,0.05,0,0.08
						c0,0.02,0,0.03,0,0.05c-0.01,0.07,0,0.07,0,0c0.01-0.06,0.01-0.06,0-0.02c0,0.03-0.01,0.05-0.02,0.08
						c-0.01,0.05-0.03,0.1-0.05,0.15c-0.13,0.37,0.15,0.84,0.52,0.92c0.42,0.1,0.78-0.13,0.92-0.52c0.4-1.11-0.33-2.26-1.24-2.85
						c-0.99-0.63-2.24-0.68-3.37-0.73c-0.39-0.01-0.77,0.36-0.75,0.75C143.07,198.31,143.39,198.63,143.81,198.64L143.81,198.64z"/>
				</g>
			</g>
			<g>
				<path class="st22" d="M143.15,251.8c0.32,0.03,0.63,0.05,0.95,0.08l-5.67-18.26C139.98,239.8,141.55,245.87,143.15,251.8z"/>
				<g>
					<path class="st22" d="M143.23,251.71c0,0,0.88,0.02,0.88,0.02s-0.16,0.2-0.16,0.2c-2.12-6.02-4.07-12.09-5.99-18.17
						c0,0,0.93-0.26,0.93-0.26C140.51,239.57,141.91,245.51,143.23,251.71L143.23,251.71z M143.08,251.89
						c-1.84-5.91-3.58-12.1-5.12-18.16c0,0,0.93-0.26,0.93-0.26c1.89,6.18,3.74,12.36,5.42,18.6
						C144.19,252.05,143.23,251.92,143.08,251.89L143.08,251.89z"/>
				</g>
			</g>
			<line class="st34" x1="207.83" y1="232.33" x2="197.5" y2="255.5"/>
			<path class="st23" d="M190.67,197.24"/>
			<path class="st23" d="M189.9,194.34"/>
			<path class="st23" d="M191.19,194.02"/>
			<g>
				<path class="st22" d="M176.46,238.88c1.6,0.69,3.3,1.25,5.05,1.67L176.46,238.88z"/>
				<g>
					<path class="st22" d="M175.7,240.17c1.76,0.75,3.55,1.37,5.41,1.82c0.76,0.18,1.66-0.24,1.85-1.05
						c0.19-0.83-0.25-1.58-1.05-1.85c-1.47-0.49-2.95-0.97-4.42-1.46c-0.21-0.07-0.42-0.14-0.63-0.21
						c-0.75-0.25-1.67,0.29-1.85,1.05c-0.19,0.83,0.25,1.58,1.05,1.85c1.47,0.49,2.95,0.97,4.42,1.46c0.21,0.07,0.42,0.14,0.63,0.21
						c0.27-0.96,0.53-1.93,0.8-2.89c-1.67-0.4-3.3-0.93-4.88-1.6c0.12,0.05,0.24,0.1,0.36,0.15c-0.06-0.02-0.11-0.05-0.17-0.07
						c-0.39-0.17-0.73-0.27-1.16-0.15c-0.35,0.1-0.73,0.36-0.9,0.69c-0.18,0.35-0.28,0.77-0.15,1.16
						C175.12,239.62,175.35,240.02,175.7,240.17z"/>
				</g>
			</g>
			<g>
				<path d="M169.79,226.43c3.05,11.26,3.17,22.98,2.83,34.53c-0.17,3.86-0.38,7.71-0.74,11.55c0,0-0.76-0.02-0.76-0.02
					c-0.89-11.06-1.18-23.31-2.01-34.43c-0.17-3.82-0.29-7.65-0.08-11.54L169.79,226.43L169.79,226.43z"/>
			</g>
			<g>
				<path d="M181.19,238.85c1.39,0.22,3.5-0.5,3.4-2.17c-0.1-1.58-2.02-2.27-3.4-2.04C177.82,235.16,177.88,238.33,181.19,238.85
					L181.19,238.85z M181.19,240.62c-7.14,0.4-6.93-8.42,0-8.02C187.1,233.29,187,239.91,181.19,240.62L181.19,240.62z"/>
			</g>
			<g>
				<path d="M181.19,251.56c-1.63-0.32-4.14,0.93-3.2,2.87c0,0-0.49-0.36-0.49-0.36c2.43-0.02,4.86-0.24,7.29-0.25l-1.13,0.59
					C184.28,252.95,182.65,251.72,181.19,251.56L181.19,251.56z M181.19,249.81c2.21-0.21,4.88,0.94,5.2,3.43
					c0.18,1.22-0.41,2.27-1.08,3.15c0,0-0.66-0.08-0.66-0.08c-2.54-0.31-5.06-0.85-7.6-1.16
					C175.8,252.51,178.63,249.92,181.19,249.81L181.19,249.81z"/>
			</g>
			<g>
				<g>
					<path class="st22" d="M119.08,220.28c-2.8,9.24-4.63,18.73-5.5,28.34c-0.17,1.92,2.83,1.91,3,0
						c0.85-9.34,2.67-18.56,5.39-27.54C122.54,219.22,119.64,218.43,119.08,220.28L119.08,220.28z"/>
				</g>
			</g>
			<g>
				<g>
					<path class="st22" d="M130.26,210.02c3.46,0.89,6.95,1.68,10.45,2.37c0.79,0.16,1.62-0.23,1.85-1.05
						c0.2-0.74-0.25-1.69-1.05-1.85c-3.51-0.69-6.99-1.49-10.45-2.37c-0.78-0.2-1.63,0.26-1.85,1.05
						C129,208.95,129.47,209.82,130.26,210.02L130.26,210.02z"/>
				</g>
			</g>
			<path class="st31" d="M118.11,206.73c5.7-4.88,12.92-5.74,21.32-3.42c0.33,0.73,0.67,1.47,1,2.2
				c-7.07,0.19-14.27,0.76-21.99,2.93C118.33,207.88,118.22,207.3,118.11,206.73z"/>
			<path class="st23" d="M74,45.85L74,45.85L74,45.85z"/>
			<path class="st26" d="M167.91,116.21c-5.74,1.34-13.09,3.68-21,7.9c-5.71,3.05-10.38,6.36-14.04,9.36
				c-0.18,5.21,0.58,9.67,1.28,12.86c0.71,3.24,1.24,5.16,0.92,5.29c-0.46,0.19-2.72-3.49-10.71-20.58"/>
			<path class="st26" d="M175.47,113.96c14.39,7.49,29.94,12.33,35.04,19.19c0.37,10.42-3.05,17.81-2.21,18.15
				c0.57,0.23,3.15-4.13,10.71-20.58"/>
			<g>
				<g>
					<path d="M165.14,181.56c4.8-0.06,9.55-0.81,14.05-2.5c0.9-0.34,0.51-1.79-0.4-1.45c-4.38,1.65-8.98,2.38-13.65,2.45
						C164.17,180.07,164.17,181.57,165.14,181.56L165.14,181.56z"/>
				</g>
			</g>
			<path class="st26" d="M221.99,107.52c9.63-8.65,13.35-9.73,14.81-8.69c1.65,1.17,0.95,5.39-0.64,8.05
				c-2.64,4.41-8.92,6.51-15.78,4.83"/>
			<g>
				<g>
					<path d="M190.33,118.81c3.44,1.15,6.61,3.03,9.26,5.51c-0.03-0.03,0.02-0.81,0.02-0.73c0.01-0.59,0.01-1.18,0.01-1.77
						c0-0.59,0-1.18-0.01-1.77c0-0.13,0.06-0.66-0.02-0.73c-2.66-2.48-5.82-4.36-9.26-5.51c0,0-0.02,0.85-0.02,0.73
						c-0.01,0.59-0.01,1.18-0.01,1.77c0,0.59,0,1.18,0.01,1.77C190.31,118.16,190.28,118.8,190.33,118.81L190.33,118.81z"/>
				</g>
			</g>
			<g>
				<g>
					<path class="st35" d="M189.61,110.57c-0.36-3.56-1.09-7.07-2.18-10.48c0.05,0.15-0.02,0.63-0.02,0.73
						c-0.01,0.59-0.01,1.18-0.01,1.77c0,0.59,0,1.18,0.01,1.77c0,0.22-0.05,0.53,0.02,0.73c1.09,3.41,1.83,6.92,2.18,10.48
						c-0.08-0.81,0.03-1.69,0.03-2.5C189.64,112.25,189.7,111.39,189.61,110.57L189.61,110.57z"/>
				</g>
			</g>
			<g>
				<g>
					<path class="st35" d="M165.98,118.95c-0.78,0.91-1.64,1.88-2.84,2.18c-0.27,0.07-0.54,0.08-0.82,0.08c-0.16,0-0.31,0-0.46,0.05
						c-0.1,0.04-0.23,0.12-0.32,0.02c-0.09-0.11-0.1-0.34-0.14-0.47c-0.04-0.16-0.08-0.32-0.12-0.48c-0.09-0.35-0.18-0.7-0.27-1.05
						c0,1.67,0,3.33,0,5c0.75,0.47,1.66,0.59,2.51,0.34c0.22-0.06,0.43-0.14,0.65-0.16c0.21-0.02,0.42,0,0.64-0.01
						c0.19-0.01,0.38-0.03,0.54-0.12c0.26-0.15,0.25-0.37,0.25-0.65c0.03-1.33,0.02-2.66,0.01-3.99c0-0.32,0.11-0.83-0.22-1.02
						c-0.17-0.1-0.39-0.09-0.59-0.09c-0.27,0-0.55,0-0.82,0c-0.53,0.01-1.07,0.04-1.6,0.09c-0.24,0.02-0.48,0.04-0.72,0.07
						c-0.18,0.02-0.44,0.02-0.5,0.23c-0.01,0.05-0.01,0.11-0.02,0.15c-0.02,0.3-0.01,0.6-0.01,0.9c-0.01,0.93-0.01,1.85,0,2.78
						c0,0.54-0.04,1.09,0.1,1.62c0.16,0.56,0.35,1.12,0.57,1.66c0.01-0.07,0.01-0.14,0.01-0.22c0-0.17,0.01-0.34,0.01-0.52
						c0.01-0.59,0.01-1.18,0.01-1.77c0-0.59,0-1.18-0.01-1.77c0-0.13,0-0.26-0.01-0.39c0-0.11,0-0.23-0.01-0.34
						c-0.25-0.63-0.53-1.3-0.64-1.97c0,0.03,0,0.06,0.01,0.09c0-0.02,0-0.04,0-0.07c0,1.64,0,3.27-0.01,4.91
						c0.05-0.37,0.67-0.31,0.95-0.34c0.43-0.04,0.87-0.07,1.31-0.09c0.44-0.02,0.87-0.03,1.31-0.02c0.33,0,0.81-0.03,0.89,0.39
						c0-1.55-0.01-3.11-0.01-4.66c0,0.02,0,0.04,0,0.07c0-0.11,0.01-0.23,0.01-0.34c-0.1,0.4-0.59,0.43-0.93,0.43
						c-0.2,0-0.41-0.01-0.61,0.02c-0.21,0.04-0.41,0.11-0.62,0.17c-0.82,0.23-1.71,0.09-2.43-0.36c0.02,0.01-0.02,0.83-0.02,0.73
						c-0.01,0.59-0.01,1.18-0.01,1.77c0,0.59,0,1.18,0.01,1.77c0,0.23-0.04,0.51,0.02,0.73c0.09,0.33,0.17,0.67,0.26,1
						c0.04,0.17,0.09,0.35,0.13,0.52c0.03,0.12,0.05,0.34,0.12,0.45c0.09,0.12,0.18,0.06,0.3,0.02c0.15-0.05,0.29-0.06,0.45-0.06
						c0.29,0,0.58-0.01,0.86-0.08c1.21-0.3,2.06-1.28,2.84-2.18c0.06-0.07,0.02-0.75,0.02-0.73c0.01-0.59,0.01-1.18,0.01-1.77
						c0-0.59,0-1.18-0.01-1.77c0-0.13,0-0.26-0.01-0.39C165.99,119.17,165.99,119.06,165.98,118.95L165.98,118.95z"/>
				</g>
			</g>
			<g>
				<path d="M163.15,105.25c0.18-5.69,0.69-11.36,1.53-16.99"/>
				<g>
					<path d="M164.65,105.25c0.19-5.55,0.67-11.09,1.47-16.59c0.12-0.8-0.2-1.61-1.05-1.85c-0.71-0.19-1.73,0.24-1.85,1.05
						c-0.85,5.76-1.39,11.56-1.58,17.39C161.58,107.18,164.58,107.18,164.65,105.25L164.65,105.25z"/>
				</g>
			</g>
			<g>
				<path d="M173.4,77.7c1.36-0.32,2.79-0.34,4.15-0.03"/>
				<g>
					<path d="M173.8,79.14c0.3-0.07,0.61-0.13,0.91-0.17c-0.13,0.02-0.27,0.04-0.4,0.05c0.82-0.11,1.65-0.11,2.47,0
						c-0.13-0.02-0.27-0.04-0.4-0.05c0.26,0.04,0.51,0.08,0.76,0.14c0.39,0.09,0.8,0.06,1.16-0.15c0.31-0.18,0.61-0.54,0.69-0.9
						c0.17-0.76-0.23-1.67-1.05-1.85c-1.64-0.36-3.31-0.35-4.95,0.03c-0.76,0.18-1.29,1.09-1.05,1.85
						C172.21,78.89,172.98,79.34,173.8,79.14L173.8,79.14z"/>
				</g>
			</g>
			<g>
				<path d="M166.49,75.3c2.61-0.46,5.12-1.44,7.36-2.86"/>
				<g>
					<path d="M166.88,76.75c2.73-0.49,5.37-1.53,7.72-3.01c0.66-0.42,0.99-1.36,0.54-2.05c-0.43-0.66-1.34-0.99-2.05-0.54
						c-0.55,0.35-1.12,0.67-1.7,0.97c-0.31,0.16-0.62,0.31-0.94,0.45c-0.06,0.03-0.42,0.18-0.12,0.05
						c-0.16,0.07-0.32,0.13-0.48,0.19c-1.22,0.47-2.48,0.82-3.76,1.05c-0.77,0.14-1.28,1.12-1.05,1.85
						C165.31,76.53,166.05,76.9,166.88,76.75L166.88,76.75z"/>
				</g>
			</g>
			<g>
				<path d="M120.1,108.38c2.66,1.27,5.32,2.55,7.98,3.82"/>
				<g>
					<path d="M119.35,109.68c2.66,1.27,5.32,2.55,7.98,3.82c0.71,0.34,1.65,0.22,2.05-0.54c0.35-0.67,0.22-1.69-0.54-2.05
						c-2.66-1.27-5.32-2.55-7.98-3.82c-0.71-0.34-1.65-0.22-2.05,0.54C118.45,108.3,118.59,109.32,119.35,109.68L119.35,109.68z"/>
				</g>
			</g>
			<g>
				<g>
					<path class="st35" d="M176.7,100.24c0.75,0.31,1.51,0.62,2.26,0.93c0.2,0.06,0.4,0.07,0.6,0.03c0.2-0.01,0.39-0.07,0.56-0.18
						c0.31-0.18,0.61-0.54,0.69-0.9c0.09-0.38,0.07-0.81-0.15-1.16c-0.08-0.1-0.16-0.2-0.23-0.3c-0.19-0.19-0.41-0.31-0.66-0.39
						c-0.75-0.31-1.51-0.62-2.26-0.93c-0.2-0.06-0.4-0.07-0.6-0.03c-0.2,0.01-0.39,0.07-0.56,0.18c-0.31,0.18-0.61,0.54-0.69,0.9
						c-0.09,0.38-0.07,0.81,0.15,1.16c0.08,0.1,0.16,0.2,0.23,0.3C176.22,100.04,176.44,100.17,176.7,100.24L176.7,100.24z"/>
				</g>
			</g>
			<g>
				<g>
					<path class="st35" d="M163.79,123.27c3.27-1.03,6.44-2.34,9.49-3.89c0.7-0.36,0.96-1.4,0.54-2.05
						c-0.46-0.71-1.3-0.92-2.05-0.54c-2.89,1.47-5.65,2.61-8.78,3.59c-0.75,0.24-1.3,1.05-1.05,1.85
						C162.19,122.97,162.99,123.52,163.79,123.27L163.79,123.27z"/>
				</g>
			</g>
			<path class="st26" d="M183.84,113.63c-0.04,11.37-6.1,20.52-14.7,22.86c-1.35,0.37-9.56,0-9.56,0s-1.26-13.24,6.11-25.76"/>
			<path class="st36" d="M207.47,94.45L207.47,94.45c0-1.81-29.04-1.9-29.04-0.3c0,0-4.9,13.07-0.32,18.57
				c6.45,7.75,20.5,5.79,25.57,0.3C208.97,107.29,207.47,94.47,207.47,94.45z"/>
			<path class="st36" d="M132.71,94.93L132.71,94.93c0-1.81,29.04-1.9,29.04-0.3c0,0,4.9,13.07,0.32,18.57
				c-6.45,7.75-20.5,5.79-25.57,0.3C131.2,107.77,132.71,94.95,132.71,94.93z"/>
			<line class="st37" x1="163.36" y1="104.62" x2="176.08" y2="104.62"/>
			<g>
				<g>
					<path class="st38" d="M195.55,93.39c-5.98,4.08-12.22,7.78-18.66,11.08c-0.14,0.07-0.02,1.68-0.02,1.88
						c0,0.19,0.15,1.81,0.02,1.88c6.44-3.3,12.68-7,18.66-11.08c0.17-0.12,0.02-1.64,0.02-1.88
						C195.57,95.04,195.38,93.51,195.55,93.39L195.55,93.39z"/>
				</g>
			</g>
			<g>
				<g>
					<path class="st38" d="M206.49,98.88c-7.4,4.29-14.81,8.58-22.21,12.87c-0.16,0.09-0.02,1.66-0.02,1.88
						c0,0.2,0.17,1.79,0.02,1.88c7.4-4.29,14.81-8.58,22.21-12.87c0.16-0.09,0.02-1.66,0.02-1.88
						C206.51,100.55,206.35,98.97,206.49,98.88L206.49,98.88z"/>
				</g>
			</g>
			<g>
				<g>
					<path class="st38" d="M156.23,93.41c-7.61,3.86-15.21,7.72-22.82,11.58c-0.14,0.07-0.02,1.68-0.02,1.88
						c0,0.19,0.15,1.81,0.02,1.88c7.61-3.86,15.21-7.72,22.82-11.58c0.14-0.07,0.02-1.68,0.02-1.88
						C156.25,95.09,156.1,93.47,156.23,93.41L156.23,93.41z"/>
				</g>
			</g>
			<g>
				<g>
					<path class="st38" d="M163.02,100.81c-6.76,3.97-13.51,7.93-20.27,11.9c-0.16,0.09-0.02,1.66-0.02,1.88
						c0,0.21,0.17,1.79,0.02,1.88c6.76-3.97,13.51-7.93,20.27-11.9c0.16-0.09,0.02-1.66,0.02-1.88
						C163.04,102.48,162.87,100.9,163.02,100.81L163.02,100.81z"/>
				</g>
			</g>
			<g>
				<g>
					<path d="M134.77,109.95c-4.45,5.1-8.91,10.2-13.36,15.3c-0.06,0.07-0.02,0.75-0.02,0.73c-0.01,0.59-0.01,1.18-0.01,1.77
						c0,0.59,0,1.18,0.01,1.77c0,0.12,0.08,0.66,0.02,0.73c4.45-5.1,8.91-10.2,13.36-15.3c0.06-0.07,0.02-0.75,0.02-0.73
						c0.01-0.59,0.01-1.18,0.01-1.77c0-0.59,0-1.18-0.01-1.77C134.79,110.56,134.71,110.03,134.77,109.95L134.77,109.95z"/>
				</g>
			</g>
			<g>
				<g>
					<path d="M205.55,113.66c5.76,3.8,9.14,10.03,12.29,15.97c-0.05-0.09,0.02-0.72,0.02-0.73c0.01-0.59,0.01-1.18,0.01-1.77
						c0-0.59,0-1.18-0.01-1.77c0-0.18,0.07-0.57-0.02-0.73c-3.15-5.94-6.53-12.17-12.29-15.97c0.02,0.01-0.02,0.83-0.02,0.73
						c-0.01,0.59-0.01,1.18-0.01,1.77c0,0.59,0,1.18,0.01,1.77C205.54,113.04,205.48,113.62,205.55,113.66L205.55,113.66z"/>
				</g>
			</g>
			<path class="st39" d="M227.35,199.33c-1.65-2.07-3.97-2.83-5.15-3.22c-0.64-0.21-5.79-1.8-10.62,0.97
				c-5.12,2.93-8.3,9.85-6.12,14.81c2.89,6.55,14.6,8.39,20.28,2.9C229.78,210.88,230.62,203.44,227.35,199.33z"/>
			<path class="st31" d="M231.08,207.1c-6.9-6.31-15.62-7.41-25.78-4.42c-0.4,0.95-0.81,1.89-1.21,2.84
				c8.56,0.25,17.26,0.98,26.59,3.79C230.81,208.58,230.94,207.84,231.08,207.1z"/>
			<path class="st40" d="M208.59,148.87c-0.27-0.1-2.25,9.68-10.36,19.24c-4.21,4.96-8.72,8.25-12.17,10.38
				c-0.55-1.32-2.4-5.27-6.76-7.4c-3.1-1.52-5.93-1.38-7.73-1.29c-5.18,0.26-8.75,2.59-9.66,3.22c-3.38,2.33-5.13,5.23-5.92,6.75
				c-0.95-0.8-2.18-1.87-3.57-3.21c-12.85-12.38-16.28-25.17-17.23-24.79c-0.92,0.37,1.34,12.58,10.08,25.11
				c0.24,0.35,0.4,0.57,0.63,0.88c2.73,3.74,12.04,15.17,26.02,14.57c11.44-0.49,19-9.12,24.37-15.45
				C207.37,163.83,208.92,148.99,208.59,148.87z M165.56,186.44c-0.73-0.25-5.06-1.7-5.58-4.09c-0.8-3.69,5.43-8.97,11.59-9.66
				c1.26-0.14,4.89-0.54,8.05,1.93c0.94,0.73,3.99,2.99,3.49,6.07c-0.42,2.59-3.13,4.56-5.42,4.55c-2.49-0.01-3.17-2.34-5.15-1.93
				c-2.09,0.43-2.42,3.25-4.83,3.54C167.01,186.95,166.52,186.78,165.56,186.44z"/>
			<rect x="197" y="226.46" class="st41" width="26.72" height="10.62"/>
			<g>
				<path class="st42" d="M203.09,231.03c0,1.38-0.86,2.17-2.09,2.68l0.28,1.28c1.89-0.58,3.17-1.82,3.17-4.41v-1.38h-3.55v-1.19
					h-1.36v2.53h3.55V231.03z"/>
				<path class="st42" d="M208.35,230.71l0.67-1.23c0.07-0.14,0.21-0.4,0.21-0.66c0-0.46-0.39-0.85-0.89-0.85
					c-0.47,0-0.86,0.36-0.86,0.86c0,0.24,0.08,0.56,0.43,0.77l-0.45,1.1H208.35z"/>
				<path class="st42" d="M206.1,230.71l0.67-1.23c0.07-0.14,0.21-0.4,0.21-0.66c0-0.46-0.39-0.85-0.89-0.85
					c-0.47,0-0.86,0.36-0.86,0.86c0,0.24,0.08,0.56,0.43,0.77l-0.45,1.1H206.1z"/>
				<path class="st42" d="M213.88,230.72v4.15h1.36v-4.59c0-0.61-0.47-1.09-1.07-1.09h-3.94v1.34h3.48
					C213.81,230.54,213.88,230.62,213.88,230.72z"/>
				<rect x="210.23" y="231.77" class="st42" width="1.36" height="3.1"/>
				<path class="st42" d="M221.49,234.42c0-1.42-0.33-2.13-1.12-2.62c0.57-0.42,0.88-1.03,0.88-1.89v-0.71h-1.36v0.78
					c0,0.57-0.16,0.99-0.8,1.28l-0.71-0.26c-0.71-0.25-0.78-0.7-0.78-1.51v-0.3h-1.36v0.38c0,1.51,0.48,2.24,1.72,2.68l1.15,0.41
					c0.57,0.2,0.84,0.43,0.96,0.88h-3.86v1.34h5.3V234.42z"/>
			</g>
			<path class="st43" d="M121.5,206.99c0.97-0.11,1.93-0.21,2.9-0.32c-0.75-0.86-1.5-1.72-2.25-2.58c-0.64,0.43-1.29,0.86-1.93,1.29
				C120.64,205.91,121.07,206.45,121.5,206.99z"/>
			<path class="st43" d="M124.24,206.82c0.75-0.11,1.5-0.21,2.25-0.32c-0.64-1.07-1.29-2.15-1.93-3.22
				c-0.75,0.21-1.5,0.43-2.25,0.64C122.95,204.89,123.59,205.86,124.24,206.82z"/>
			<path class="st43" d="M126.81,206.5c0.75-0.11,1.5-0.21,2.25-0.32c-0.64-1.18-1.29-2.36-1.93-3.54c-0.75,0.21-1.5,0.43-2.25,0.64
				C125.53,204.36,126.17,205.43,126.81,206.5z"/>
			<path class="st43" d="M229.25,208.11c-0.97-0.11-1.93-0.21-2.9-0.32c0.75-0.86,1.5-1.72,2.25-2.58c0.64,0.43,1.29,0.86,1.93,1.29
				C230.11,207.03,229.68,207.57,229.25,208.11z"/>
			<path class="st43" d="M226.51,207.95c-0.75-0.11-1.5-0.21-2.25-0.32c0.64-1.07,1.29-2.15,1.93-3.22c0.75,0.21,1.5,0.43,2.25,0.64
				C227.8,206.01,227.16,206.98,226.51,207.95z"/>
			<path class="st43" d="M223.94,207.62c-0.75-0.11-1.5-0.21-2.25-0.32c0.64-1.18,1.29-2.36,1.93-3.54c0.75,0.21,1.5,0.43,2.25,0.64
				C225.23,205.48,224.58,206.55,223.94,207.62z"/>
			<g>
				<path class="st0" d="M181.37,148.74c-0.76-1.33-0.68-2.64-0.62-3.71c0.03-0.48,0.21-3.6,2.17-5.45
					c3.72-3.51,14.64-3.21,18.64,1.73c1.8,2.22,2.48,5.73,0.31,8.42c-2.98,3.7-9.33,3.31-10.87,3.22
					C190.14,152.9,183.49,152.42,181.37,148.74z"/>
				<path class="st23" d="M203.09,150.27c0.12-0.79,0.87-6.33-3.22-10.03c-5.04-4.55-14.41-3.6-18.03,0.59
					c-0.93,1.08-1.38,2.26-1.61,3.24"/>
				<circle class="st44" cx="189.97" cy="144.72" r="3.94"/>
				<circle class="st0" cx="191.83" cy="143.55" r="1.53"/>
				<path class="st0" d="M161.26,148.29c0.76-1.33,0.68-2.64,0.62-3.71c-0.03-0.48-0.21-3.6-2.17-5.45
					c-3.72-3.51-14.64-3.21-18.64,1.73c-1.8,2.22-2.48,5.73-0.31,8.42c2.98,3.7,9.33,3.31,10.87,3.22
					C152.49,152.45,159.14,151.97,161.26,148.29z"/>
				<circle class="st44" cx="152.66" cy="144.27" r="3.94"/>
				<circle class="st0" cx="154.66" cy="143.09" r="1.53"/>
				<path class="st23" d="M141.76,150.29c0.97,0.49,9.22,4.44,16.1,0.32c1.7-1.02,2.95-2.31,3.86-3.54"/>
				<path class="st45" d="M157.69,132.24c-7.67-0.24-14.75,1.01-20.93,4.51"/>
				<path class="st45" d="M184.11,132.24c7.67-0.24,14.75,1.01,20.93,4.51"/>
				<path class="st23" d="M139.3,149.38c-0.12-0.79-0.87-6.33,3.22-10.03c5.04-4.55,14.41-3.6,18.03,0.59
					c0.93,1.08,1.38,2.26,1.61,3.24"/>
				<path class="st23" d="M200.91,150.91c-0.97,0.49-9.22,4.44-16.1,0.32c-1.7-1.02-2.95-2.31-3.86-3.54"/>
			</g>
		</g>
		<path class="st46" d="M177.06,42.32c-4.19-0.45-8.45-0.68-12.77-0.68c-63.39,0-114.77,49.32-114.77,110.16
			c0,42.35,24.9,79.13,61.42,97.56c7.33,3.7,15.13,6.66,23.29,8.78c0.23,0.06,0.46,0.12,0.69,0.17c9.2,2.33,18.85,3.6,28.81,3.64
			c0.19,0,0.38,0,0.56,0c16.64,0,32.45-3.4,46.72-9.51c0.42-0.17,0.83-0.35,1.24-0.54c8.35-3.69,16.16-8.31,23.28-13.73
			c26.52-20.18,43.54-51.37,43.54-86.38C279.07,95.1,234.44,48.41,177.06,42.32z"/>
	</g>
</g>
<g id="Layer_2">
	<rect x="121" y="217" class="st32" width="14" height="4"/>
</g>
</svg>
