<?xml version="1.0" encoding="utf-8"?>
<!-- Generator: Adobe Illustrator 28.3.0, SVG Export Plug-In . SVG Version: 6.00 Build 0)  -->
<svg version="1.1" id="Layer_1" xmlns="http://www.w3.org/2000/svg" xmlns:xlink="http://www.w3.org/1999/xlink" x="0px" y="0px"
	 viewBox="0 0 323 306" style="enable-background:new 0 0 323 306;" xml:space="preserve">
<style type="text/css">
	.st0{fill:#FFFFFF;}
	.st1{fill:#20382B;stroke:#000000;stroke-miterlimit:10;}
	.st2{fill:#FFE3CB;stroke:#000000;stroke-miterlimit:10;}
	.st3{fill:#FFB995;}
	.st4{fill:#332C26;}
	.st5{fill:none;stroke:#000000;stroke-miterlimit:10;}
	.st6{stroke:#000000;stroke-width:0.5;stroke-miterlimit:10;}
	.st7{fill:none;stroke:#000000;stroke-width:0.75;stroke-miterlimit:10;}
	.st8{fill:#332C26;stroke:#000000;stroke-miterlimit:10;}
	.st9{fill:none;stroke:#FFB995;stroke-miterlimit:10;}
	.st10{opacity:0.44;fill:#D8B8A3;}
	.st11{fill:#FFB995;stroke:#000000;stroke-width:0.5;stroke-miterlimit:10;}
	.st12{fill:none;stroke:#000000;stroke-width:2;stroke-miterlimit:10;}
	.st13{fill:#305437;stroke:#000000;stroke-miterlimit:10;}
	.st14{fill:#305437;}
	.st15{fill:#FFFFFF;stroke:#000000;stroke-miterlimit:10;}
	.st16{fill:#C87529;stroke:#000000;stroke-miterlimit:10;}
	.st17{fill:#304D37;stroke:#000000;stroke-miterlimit:10;}
	.st18{fill:#20382B;}
	.st19{fill:none;stroke:#F48E8E;stroke-width:30;stroke-miterlimit:10;}
</style>
<g>
	<path class="st0" d="M283.53,152.48c0,39.59-21.76,74.31-54.43,93.73c-7.62,4.53-15.84,8.23-24.51,10.96
		c-0.14,0.04-0.27,0.09-0.41,0.13c-11.15,3.47-23.06,5.35-35.42,5.35c-4.32,0-8.57-0.23-12.77-0.68
		c-9.77-1.04-19.17-3.25-28.04-6.49c-0.49-0.18-0.98-0.36-1.46-0.55c-2.71-1.03-5.37-2.16-7.97-3.37c-4.8-2.24-9.41-4.8-13.8-7.64
		c-30.6-19.79-50.73-53.36-50.73-91.43c0-60.84,51.38-110.16,114.77-110.16c0.19,0,0.38,0,0.56,0
		C232.45,42.61,283.53,91.82,283.53,152.48z"/>
	<g>
		<path class="st1" d="M148.55,186.37c14.66-0.42,29.31-0.85,43.97-1.27c-0.43,11.73-10.07,21.16-21.67,21.35
			C159.46,206.63,149.64,197.85,148.55,186.37z"/>
		<path class="st2" d="M190.29,171.71c0.84,7.5-1.91,4.14-2.55,28.68c-0.94,2.95-2.86,8.22-7.01,13.7
			c-3.19,4.21-5.94,7.84-9.56,7.97c-6.03,0.21-10.69-9.45-12.74-13.7c-4.31-8.92-1.91-20.39-3.5-33.77
			C161.63,166.22,176.81,164.1,190.29,171.71z"/>
		<g>
			<path class="st3" d="M155.72,174.42c3.82-2.05,11.61-5.51,21.77-5.13c5.36,0.2,9.79,1.41,12.96,2.58
				c-0.64,4.78-1.27,9.56-1.91,14.34c0,0-7.34,5.97-11.57,7.32c-5.49,1.74-10.49,1.56-14.84,1.34c-2.69-0.14-4.9-0.44-6.4-0.69
				V174.42z"/>
		</g>
		<path class="st4" d="M218.65,136.98c1.76-2.57,6.13-9.68,6.37-19.24c0.36-14.27-8.59-28.87-20.93-35.12
			c-14.7-7.44-38.38-6.17-31.96-6.5c6.05-0.32,8.8-15.2,8.28-15.61c-0.49-0.4-7.55,8.67-13.06,13.38
			c-30.27-9.88-60.62,6.68-60.54,5.74c0.08-0.99,29.3-1.37,47.32,3.15c0.06,0.01,0.1,0.02,0.16,0.04c-3.72-1.7-8.75-3.12-14.34-2.23
			c-11.82,1.88-21.74,13.43-24.53,28.99c0.44,8.57,2.77,24.81,14.97,36.64C154.82,169.91,202.66,160.3,218.65,136.98z"/>
		<path class="st2" d="M122.42,134.12c-3.31,1.46-3.21,8.11-3.19,8.92c0.35,13.75,17.69,21.81,18.8,22.3
			c3.84,1.72,7.84,3.52,9.56,1.91c3.32-3.1-4.05-16.87-12.74-25.81C131.86,138.37,126.13,132.48,122.42,134.12z"/>
		<path class="st2" d="M219.1,134.26c3.31,1.46,3.21,8.11,3.19,8.92c-0.35,13.75-17.69,21.81-18.8,22.3
			c-3.84,1.72-7.84,3.52-9.56,1.91c-3.32-3.1,4.05-16.87,12.74-25.81C209.67,138.51,215.39,132.62,219.1,134.26z"/>
		<path class="st2" d="M130.71,129.34c0.96,15.29,8.92,35.05,8.92,35.05s2.87,14.34,31.54,26.45c4.9-1.8,20.23-8.14,30.91-24.85
			c6.69-17.21,9.99-33.36,9.56-38.55c-2.87-18.05-17.28-41.47-39.19-42.06C149.44,84.75,133.14,109.71,130.71,129.34z"/>
		<path class="st0" d="M179.31,149.17c-0.75-1.31-0.68-2.61-0.61-3.67c0.03-0.48,0.21-3.56,2.15-5.39
			c3.69-3.48,14.49-3.18,18.44,1.71c1.78,2.2,2.45,5.67,0.31,8.33c-2.95,3.66-9.23,3.28-10.76,3.18
			C187.99,153.28,181.4,152.81,179.31,149.17z"/>
		<path class="st5" d="M200.8,150.68c0.12-0.78,0.86-6.26-3.19-9.92c-4.98-4.51-14.26-3.56-17.84,0.58
			c-0.92,1.07-1.37,2.24-1.59,3.21"/>
		<circle class="st6" cx="187.82" cy="145.19" r="3.9"/>
		<path class="st7" d="M198.41,151.16c-0.96,0.48-9.12,4.39-15.93,0.32c-1.68-1.01-2.92-2.28-3.82-3.5"/>
		<circle class="st0" cx="189.66" cy="144.03" r="1.52"/>
		<path class="st0" d="M159.41,148.72c0.75-1.31,0.68-2.61,0.61-3.67c-0.03-0.48-0.21-3.56-2.15-5.39
			c-3.69-3.48-14.49-3.18-18.44,1.71c-1.78,2.2-2.45,5.67-0.31,8.33c2.95,3.66,9.23,3.28,10.76,3.18
			C150.73,152.83,157.31,152.36,159.41,148.72z"/>
		<path class="st5" d="M137.92,150.23c-0.12-0.78-0.86-6.26,3.19-9.92c4.98-4.51,14.26-3.56,17.84,0.58
			c0.92,1.07,1.37,2.24,1.59,3.21"/>
		<circle class="st6" cx="150.9" cy="144.74" r="3.9"/>
		<circle class="st0" cx="152.88" cy="143.58" r="1.52"/>
		<path class="st7" d="M140.11,150.7c0.96,0.48,9.12,4.39,15.93,0.32c1.68-1.01,2.92-2.28,3.82-3.5"/>
		<path class="st8" d="M164.48,107.35c-2.23,21.03-9.24,30.59-9.24,30.59s17.84-9.24,14.34-12.43c0.56,0.47-4.46,14.34-10.2,17.52
			c1.51,1.97,9.14-0.26,14.02-4.14c13.81-10.99,8.19-37.32,7.33-41.1"/>
		<path class="st8" d="M174.36,102.89c4.46,9.19,19.78,21.69,32.05,32.04c2.2,1.85-0.45,7.72-4.01,13.53
			c1.04,0.98,3.89-0.5,4.49-0.82c4.7-2.45,7.83-8.04,7.93-15.12"/>
		<path class="st5" d="M130.71,145.23"/>
		<path class="st4" d="M215.14,130.61c5.33-4.52-2.44-34.56-24.21-45.88c-20.71-10.77-49.34-2.11-60.86,16.25
			c-6.63,10.57-8.72,26.01-3.5,29.31c9.19,5.82,39.83-26.73,43.49-23.1c1.59,1.58-3.54,8.34-1.43,10.36
			c2.23,2.14,8.26-5.16,15.77-3.98c7.42,1.17,7.71,9.26,18.8,14.66C206.22,129.69,212.58,132.79,215.14,130.61z"/>
		<g>
			<g>
				<path d="M165.59,107.35c0.27-1.25,0.41-2.54,0.4-3.82c-0.01-0.53-0.28-1.03-0.74-1.3c-0.44-0.26-1.08-0.3-1.51,0
					c-1.16,0.8-2.23,1.72-3.15,2.78c-0.26,0.3-0.44,0.65-0.44,1.06c0,0.37,0.16,0.81,0.44,1.06c0.29,0.26,0.66,0.46,1.06,0.44
					c0.38-0.02,0.8-0.14,1.06-0.44c0.65-0.75,1.37-1.43,2.16-2.04c-0.1,0.08-0.2,0.16-0.3,0.23c0.22-0.17,0.45-0.34,0.69-0.5
					c-0.75-0.43-1.5-0.86-2.26-1.3c0.01,0.75-0.04,1.5-0.14,2.24c0.02-0.13,0.04-0.27,0.05-0.4c-0.05,0.39-0.12,0.78-0.2,1.17
					c-0.08,0.39-0.06,0.8,0.15,1.16c0.18,0.31,0.54,0.61,0.9,0.69c0.38,0.09,0.82,0.07,1.16-0.15
					C165.22,108.04,165.51,107.73,165.59,107.35L165.59,107.35z"/>
			</g>
		</g>
		<g>
			<path d="M182.78,112.48c-0.24,0-0.27-2.34-0.99-6.96c-0.45-2.91-0.95-5.29-1.31-6.91c0.87,1.45,1.95,3.66,2.47,6.51
				C183.66,108.95,183.07,112.48,182.78,112.48z"/>
			<g>
				<path d="M183.18,111.04c-0.17-0.03,1.06,0.62,0.97,0.93c0.01-0.02-0.03-0.07-0.03-0.1c-0.01-0.1-0.03-0.21-0.06-0.31
					c-0.05-0.25,0.04,0.3,0.01,0.1c-0.01-0.08-0.02-0.17-0.03-0.25c-0.02-0.2-0.05-0.4-0.07-0.6c-0.14-1.27-0.29-2.53-0.46-3.79
					c-0.4-2.95-0.94-5.89-1.58-8.8c-0.91,0.39-1.83,0.77-2.74,1.16c1.24,2.09,2.1,4.39,2.43,6.81c0.18,1.31,0.21,2.65,0.13,3.96
					c-0.02,0.27-0.04,0.54-0.07,0.8c-0.03,0.27,0.03-0.18-0.01,0.06c-0.02,0.11-0.03,0.22-0.06,0.33c-0.03,0.14-0.07,0.27-0.1,0.41
					c-0.07,0.33,0.16-0.27,0.22-0.32c0.22-0.13,0.44-0.26,0.66-0.39c-0.01,0-0.01,0-0.02,0.01c-1.85,0.53-1.06,3.43,0.8,2.89
					c1.2-0.35,1.34-1.71,1.47-2.75c0.18-1.44,0.18-2.91,0.05-4.35c-0.3-3.18-1.28-6.22-2.91-8.97c-0.88-1.49-3.11-0.49-2.74,1.16
					c0.7,3.14,1.27,6.31,1.67,9.5c0.13,1.06,0.23,2.13,0.37,3.2c0.11,0.85,0.24,2.03,1.3,2.22c0.8,0.15,1.62-0.22,1.85-1.05
					C184.43,112.15,183.98,111.18,183.18,111.04z"/>
			</g>
		</g>
		<g>
			<g>
				<path d="M217.63,130.91c0-1.12,0-2.24,0-3.36c0-0.38-0.17-0.79-0.44-1.06c-0.26-0.26-0.69-0.46-1.06-0.44
					c-0.81,0.04-1.5,0.66-1.5,1.5c0,1.12,0,2.24,0,3.36c0,0.38,0.17,0.79,0.44,1.06c0.26,0.26,0.69,0.46,1.06,0.44
					C216.94,132.37,217.63,131.75,217.63,130.91L217.63,130.91z"/>
			</g>
		</g>
		<g>
			<g>
				<path d="M143.07,82.62c1.44-0.1,2.87-0.13,4.31-0.08c0.7,0.03,1.41,0.07,2.11,0.14c0.73,0.07,1.38,0.15,1.95,0.23
					c0.77,0.12,1.65-0.19,1.85-1.05c0.16-0.71-0.22-1.72-1.05-1.85c-3.04-0.46-6.1-0.62-9.17-0.4c-0.78,0.06-1.54,0.65-1.5,1.5
					C141.61,81.88,142.24,82.68,143.07,82.62L143.07,82.62z"/>
			</g>
		</g>
		<g>
			<g>
				<path d="M178.61,94.18c-0.12-0.25-0.27-0.49-0.44-0.72c-0.24-0.32-0.49-0.64-0.8-0.9c-0.62-0.54-1.29-0.93-2.06-1.19
					c-0.36-0.12-0.84-0.03-1.16,0.15c-0.31,0.18-0.61,0.54-0.69,0.9c-0.09,0.38-0.07,0.81,0.15,1.16c0.22,0.34,0.51,0.56,0.9,0.69
					c0.09,0.03,0.18,0.07,0.27,0.1c-0.12-0.05-0.24-0.1-0.36-0.15c0.34,0.14,0.65,0.33,0.94,0.55c-0.1-0.08-0.2-0.16-0.3-0.23
					c0.28,0.22,0.53,0.47,0.75,0.75c-0.08-0.1-0.16-0.2-0.23-0.3c0.17,0.22,0.32,0.46,0.44,0.72c0.16,0.32,0.56,0.6,0.9,0.69
					c0.36,0.1,0.84,0.05,1.16-0.15c0.32-0.21,0.6-0.51,0.69-0.9c0.02-0.13,0.04-0.27,0.05-0.4
					C178.81,94.67,178.74,94.42,178.61,94.18L178.61,94.18z"/>
			</g>
		</g>
		<g>
			<g>
				<path d="M203.03,95.12c2.58,4.56,4.88,9.27,6.85,14.12c0.3,0.75,1,1.28,1.85,1.05c0.71-0.2,1.35-1.09,1.05-1.85
					c-2.07-5.09-4.45-10.05-7.15-14.83C204.67,91.93,202.07,93.44,203.03,95.12L203.03,95.12z"/>
			</g>
		</g>
		<g>
			<g>
				<path d="M126.33,114.21c0.35-2.46,1.77-4.8,2.86-7c1.19-2.4,2.45-4.77,3.76-7.11c0.95-1.68-1.64-3.2-2.59-1.51
					c-1.36,2.42-2.66,4.87-3.88,7.36c-0.61,1.24-1.21,2.48-1.78,3.74c-0.55,1.2-1.07,2.41-1.26,3.73c-0.12,0.8,0.2,1.61,1.05,1.85
					C125.19,115.45,126.22,115.02,126.33,114.21L126.33,114.21z"/>
			</g>
		</g>
		<path class="st9" d="M123.06,138.58c-0.38,1.2-0.98,3.68-0.32,6.69c0.44,2.02,1.29,3.53,1.91,4.46"/>
		<path class="st9" d="M219,138.2c0.38,1.2,0.98,3.68,0.32,6.69c-0.44,2.02-1.29,3.53-1.91,4.46"/>
		<path class="st10" d="M201.92,165.18c-0.05,0-6.48,8.49-9.88,7.01c-2.16-0.94-0.67-4.87-3.5-7.01c-1.97-1.48-5.75-0.96-13.22,0.16
			c-2.43,0.36-2.07,0.4-3.82,0.64c-9.38,1.29-12.48-0.41-14.97,1.59c-2.9,2.32-0.19,7.09-2.23,8.28
			c-3.19,1.86-11.57-7.73-11.79-7.65c-0.16,0.06-0.35,0.12-0.38,0.28c-0.86,5.64,28.36,23.72,29.21,22.18
			c0,0,13.06-5.42,19.44-11.87C196.08,173.97,199.63,169,201.92,165.18z"/>
		<line class="st9" x1="173.08" y1="143.67" x2="168.94" y2="146.22"/>
		<line class="st9" x1="173.4" y1="145.27" x2="166.71" y2="149.41"/>
		<line class="st9" x1="175" y1="146.22" x2="166.39" y2="151.64"/>
		<line class="st9" x1="175.63" y1="148.13" x2="166.71" y2="153.55"/>
		<line class="st9" x1="176.59" y1="149.41" x2="167.35" y2="154.83"/>
		<path class="st11" d="M171.17,157.85c-0.05,1.27-0.11,2.55-0.16,3.82c-0.58-0.53-1.17-1.06-1.75-1.59"/>
		<g>
			<g>
				<path class="st3" d="M140.32,153.92c-0.19,0.26-0.39,0.52-0.58,0.78c-0.11,0.17-0.17,0.36-0.18,0.56
					c-0.04,0.2-0.04,0.4,0.03,0.6c0.05,0.2,0.14,0.37,0.27,0.51c0.11,0.16,0.25,0.29,0.42,0.39c0.12,0.05,0.24,0.1,0.36,0.15
					c0.27,0.07,0.53,0.07,0.8,0c0.12-0.05,0.24-0.1,0.36-0.15c0.23-0.13,0.4-0.31,0.54-0.54c0.19-0.26,0.39-0.52,0.58-0.78
					c0.11-0.17,0.17-0.36,0.18-0.56c0.04-0.2,0.04-0.4-0.03-0.6c-0.05-0.2-0.14-0.37-0.27-0.51c-0.11-0.16-0.25-0.29-0.42-0.39
					c-0.12-0.05-0.24-0.1-0.36-0.15c-0.27-0.07-0.53-0.07-0.8,0c-0.12,0.05-0.24,0.1-0.36,0.15
					C140.63,153.52,140.45,153.7,140.32,153.92L140.32,153.92z"/>
			</g>
		</g>
		<g>
			<g>
				<path class="st3" d="M141.58,154.8c-0.06,0.1-0.13,0.19-0.19,0.29c-0.11,0.17-0.17,0.36-0.18,0.56c-0.04,0.2-0.04,0.4,0.03,0.6
					c0.05,0.2,0.14,0.37,0.27,0.51c0.11,0.16,0.25,0.29,0.42,0.39c0.12,0.05,0.24,0.1,0.36,0.15c0.27,0.07,0.53,0.07,0.8,0
					c0.12-0.05,0.24-0.1,0.36-0.15c0.23-0.13,0.4-0.31,0.54-0.54c0.06-0.1,0.13-0.19,0.19-0.29c0.11-0.17,0.17-0.36,0.18-0.56
					c0.04-0.2,0.04-0.4-0.03-0.6c-0.05-0.2-0.14-0.37-0.27-0.51c-0.11-0.16-0.25-0.29-0.42-0.39c-0.12-0.05-0.24-0.1-0.36-0.15
					c-0.27-0.07-0.53-0.07-0.8,0c-0.12,0.05-0.24,0.1-0.36,0.15C141.89,154.39,141.71,154.57,141.58,154.8L141.58,154.8z"/>
			</g>
		</g>
		<g>
			<g>
				<path class="st3" d="M195.44,155.26c0,0.16,0,0.32,0,0.49c-0.01,0.21,0.04,0.4,0.13,0.58c0.06,0.19,0.16,0.35,0.31,0.48
					c0.14,0.15,0.3,0.25,0.48,0.31c0.18,0.09,0.37,0.14,0.58,0.13c0.13-0.02,0.27-0.04,0.4-0.05c0.25-0.07,0.47-0.2,0.66-0.39
					c0.08-0.1,0.16-0.2,0.23-0.3c0.14-0.23,0.2-0.49,0.2-0.76c0-0.16,0-0.32,0-0.49c0.01-0.21-0.04-0.4-0.13-0.58
					c-0.06-0.19-0.16-0.35-0.31-0.48c-0.14-0.15-0.3-0.25-0.48-0.31c-0.18-0.09-0.37-0.14-0.58-0.13c-0.13,0.02-0.27,0.04-0.4,0.05
					c-0.25,0.07-0.47,0.2-0.66,0.39c-0.08,0.1-0.16,0.2-0.23,0.3C195.51,154.74,195.44,154.99,195.44,155.26L195.44,155.26z"/>
			</g>
		</g>
		<g>
			<g>
				<path class="st3" d="M197.19,155.61c0,0,0.01,0.01,0.01,0.01c-0.08-0.1-0.16-0.2-0.23-0.3c0.08,0.1,0.14,0.21,0.19,0.33
					c-0.05-0.12-0.1-0.24-0.15-0.36c0.05,0.13,0.09,0.26,0.11,0.4c-0.02-0.13-0.04-0.27-0.05-0.4c0.01,0.12,0.02,0.24,0,0.36
					c-0.01,0.21,0.04,0.4,0.13,0.58c0.06,0.19,0.16,0.35,0.31,0.48c0.14,0.15,0.3,0.25,0.48,0.31c0.18,0.09,0.37,0.14,0.58,0.13
					c0.13-0.02,0.27-0.04,0.4-0.05c0.25-0.07,0.47-0.2,0.66-0.39c0.08-0.1,0.16-0.2,0.23-0.3c0.14-0.23,0.2-0.49,0.2-0.76
					c0.01-0.1,0.01-0.2,0-0.31c-0.02-0.18-0.04-0.36-0.07-0.53c-0.01-0.05-0.02-0.1-0.04-0.15c-0.01-0.05-0.03-0.09-0.05-0.14
					c-0.06-0.16-0.13-0.33-0.21-0.48c-0.1-0.2-0.26-0.38-0.4-0.55c-0.14-0.15-0.3-0.25-0.48-0.31c-0.18-0.09-0.37-0.14-0.58-0.13
					c-0.21-0.01-0.4,0.04-0.58,0.13c-0.19,0.06-0.35,0.16-0.48,0.31c-0.08,0.1-0.16,0.2-0.23,0.3c-0.14,0.23-0.2,0.49-0.2,0.76
					c0.02,0.13,0.04,0.27,0.05,0.4C196.87,155.2,197,155.42,197.19,155.61L197.19,155.61z"/>
			</g>
		</g>
		<path class="st8" d="M166.39,108.31c-4.08,2.85-29.95,26.76-32.18,36.32c-0.64,1.59,3.06,10,3.5,9.88
			c0.02-0.01,0.04-0.04,0.04-0.05c0.21-0.83-17.49-5.88-14.06-29.26"/>
		<path class="st12" d="M155.88,132.84c-7.59-0.24-14.6,1-20.71,4.46"/>
		<path class="st12" d="M182.02,132.84c7.59-0.24,14.6,1,20.71,4.46"/>
		<path class="st13" d="M231.39,229.38c-0.87-6.94-1.9-13.89-4.37-20.73c-10.09-1.91-20.18-3.82-30.27-5.74l9.79,34.11
			c1.04,6.24,2.23,12.48,3.49,18.72l26.44-0.49C234.31,246.88,232.51,238.26,231.39,229.38z"/>
		<path class="st13" d="M139.63,233.52l12.74-31.86c-10.09,1.91-20.18,3.82-30.27,5.74c-2.49,7.93-4.94,16.01-7.33,24.21
			c-2.56,8.77-4.97,17.45-7.27,26.03l25.61-0.47C135.29,249.29,137.46,241.4,139.63,233.52z"/>
		<g>
			<path class="st14" d="M209.34,244.83c0.04-6.9,0.46-16.9,2.61-29.15l-80.61,2.55c2.21,5.88,2.82,21.55,2.57,38.92l75.73-1.4
				C209.46,252.54,209.32,248.92,209.34,244.83z"/>
			<g>
				<path d="M209.23,244.83c0.16-9.51,0.74-20.29,2.73-29.03c-13.42,0.43-47.5,1.51-60.46,1.88c-6.72,0.19-13.44,0.4-20.15,0.68
					c0,0,0.12-0.18,0.12-0.18c1.1,3.11,1.56,6.37,1.99,9.61c1.24,9.39,0.87,19.87,0.58,29.36c0,0-0.13-0.13-0.13-0.13
					c-0.02,0.04,76.18-1.55,75.62-1.27C209.54,255.76,209.23,244.83,209.23,244.83L209.23,244.83z M209.46,244.83l0.29,10.91
					c0,0,0,0.11,0,0.11c0,0.05-75.8,1.38-75.84,1.42c0,0-0.13,0-0.13,0l0-0.13c0,0-0.03-4.89-0.03-4.89
					c-0.23-7.56-0.51-16.88-0.98-24.4c-0.27-3.29-0.55-6.63-1.61-9.76c6.78-0.15,13.55-0.36,20.33-0.6
					c12.82-0.44,47.21-1.52,60.46-1.94c0,0,0.15,0,0.15,0s-0.03,0.14-0.03,0.14C210.39,225.32,209.5,235.07,209.46,244.83
					L209.46,244.83z"/>
			</g>
		</g>
		<path class="st15" d="M179.78,212.81c-5.73,1.91-11.92,2.12-18.48,0.96c0.03-1.19,2.55,9.24,9.56,12.11
			C180.73,220.46,180.15,210.88,179.78,212.81z"/>
		<path class="st14" d="M157.15,212.81c-1.14-3.39-5.21-4.96-8.28-4.46c-5.13,0.83-8.64,7.56-6.69,11.15
			c1.91,3.52,9.09,4.05,12.74,0.64C156.59,218.58,158.11,215.66,157.15,212.81z"/>
		<path class="st14" d="M203.5,209.43c-1.08-3.51-5.47-5.12-8.59-5.06c-7.02,0.13-13.21,8.83-11.47,12.74
			c1.81,4.06,12.99,4.89,17.83-0.35C201.55,216.46,204.61,213.04,203.5,209.43z"/>
		<path class="st13" d="M192.68,185.25c-7.18,8.35-14.16,15.77-20.39,19.44c2.18,5.36,4.35,10.73,6.53,16.09
			c3.11-3.11,7.27-6.72,12.61-10.13c4.57-2.92,8.89-4.97,12.56-6.43c-2.66-3.93-5.31-7.86-7.97-11.79
			C194.91,190.03,193.79,187.64,192.68,185.25z"/>
		<path class="st13" d="M148.48,186.59c7.18,8.35,14.16,15.77,20.39,19.44c-2.18,5.36-4.35,10.73-6.53,16.09
			c-4.18-3.3-8.38-6.68-12.61-10.13c-3.31-2.7-6.57-5.4-9.78-8.09c1.65-2.33,3.44-5.2,5.1-8.6
			C146.58,192.13,147.68,189.17,148.48,186.59z"/>
		<g>
			<g>
				<path d="M191.31,197.25c-1.03,0.84-2.16,1.53-3.36,2.11c-0.54,0.26-1.07,0.53-1.46,0.99c-0.42,0.49-0.63,1.11-0.88,1.69
					c-1.19,2.8-2.39,5.6-3.58,8.4c-0.37,0.88,0.92,1.64,1.3,0.76c1.16-2.72,2.32-5.45,3.48-8.17c0.23-0.54,0.42-1.25,0.81-1.7
					c0.37-0.43,1-0.62,1.49-0.87c1.17-0.59,2.25-1.32,3.27-2.15C193.12,197.7,192.05,196.65,191.31,197.25L191.31,197.25z"/>
			</g>
		</g>
		<g>
			<g>
				<path d="M146.78,197.96c0.22,0.01,0.44,0.02,0.65,0.03c0.11,0.01,0.22,0.02,0.33,0.03c0.03,0,0.06,0.01,0.09,0.01
					c-0.03,0-0.05-0.01-0.08-0.01c0.04-0.01,0.14,0.02,0.17,0.03c0.2,0.04,0.4,0.08,0.6,0.15c0.05,0.02,0.09,0.03,0.14,0.05
					c0.18,0.07-0.14-0.07,0.04,0.02c0.09,0.05,0.18,0.09,0.26,0.14c0.02,0.01,0.1,0.05,0.1,0.07c-0.08-0.06-0.09-0.08-0.05-0.04
					c0.02,0.02,0.04,0.03,0.06,0.05c0.06,0.06,0.12,0.11,0.18,0.18c0.03,0.03,0.07,0.09,0.1,0.12c-0.06-0.04-0.08-0.11-0.01-0.01
					c0.05,0.08,0.1,0.16,0.14,0.24c0.07,0.12-0.04-0.11-0.01-0.02c0.01,0.04,0.03,0.08,0.04,0.12c0.01,0.05,0.03,0.09,0.04,0.14
					c0.01,0.02,0.01,0.05,0.01,0.07c0.01,0.06,0.01,0.03-0.01-0.08c-0.02,0.01,0,0.21,0,0.24c-0.01,0.16,0.05-0.16,0-0.01
					c-0.01,0.05-0.03,0.09-0.04,0.14c-0.12,0.37,0.14,0.84,0.52,0.92c0.41,0.09,0.79-0.12,0.92-0.52c0.35-1.08-0.26-2.18-1.12-2.8
					c-0.87-0.64-2.03-0.7-3.07-0.74c-0.39-0.02-0.77,0.36-0.75,0.75C146.05,197.63,146.36,197.94,146.78,197.96L146.78,197.96z"/>
			</g>
		</g>
		<path class="st5" d="M189.33,196.56"/>
		<path class="st5" d="M189.33,193.7"/>
		<path class="st5" d="M190.61,193.38"/>
		<path class="st16" d="M225.02,199.11c-1.63-2.05-3.93-2.81-5.1-3.19c-0.63-0.21-5.73-1.79-10.51,0.96
			c-5.06,2.9-8.22,9.75-6.05,14.66c2.86,6.48,14.44,8.3,20.07,2.87C227.42,210.55,228.26,203.18,225.02,199.11z"/>
		<path class="st17" d="M227.73,206.33c-6.55-6.24-14.84-7.34-24.5-4.37c-0.38,0.94-0.77,1.87-1.15,2.81
			c8.13,0.24,16.4,0.97,25.27,3.75C227.47,207.78,227.6,207.05,227.73,206.33z"/>
		<path class="st17" d="M121.82,205.77c5.73-6.24,12.98-7.34,21.43-4.37c0.33,0.94,0.67,1.87,1,2.81
			c-7.11,0.24-14.34,0.97-22.1,3.75C122.04,207.23,121.93,206.5,121.82,205.77z"/>
		<g>
			<g>
				<path d="M164.97,178.3c4.79,0.46,10.08,0.51,14.09-2.55c0.76-0.58,0.01-1.88-0.76-1.3c-3.82,2.91-8.78,2.79-13.33,2.34
					C164.01,176.7,164.02,178.2,164.97,178.3L164.97,178.3z"/>
			</g>
		</g>
		<g>
			<g>
				<path class="st18" d="M129.48,219.36c-2.5,9.18-4.13,18.57-4.9,28.05c-0.16,1.92,2.84,1.91,3,0c0.75-9.22,2.37-18.33,4.8-27.25
					C132.88,218.29,129.99,217.5,129.48,219.36L129.48,219.36z"/>
			</g>
		</g>
		<g>
			<g>
				<path class="st18" d="M222.39,215.39c-2.56,2.84-5.07,5.72-7.53,8.64c-0.5,0.6-0.63,1.54,0,2.12c0.56,0.51,1.58,0.64,2.12,0
					c2.46-2.92,4.97-5.8,7.53-8.64c0.53-0.58,0.62-1.55,0-2.12C223.94,214.87,222.95,214.77,222.39,215.39L222.39,215.39z"/>
			</g>
		</g>
		<g>
			<g>
				<path class="st18" d="M133.81,207.25c3.29,0.88,6.6,1.66,9.93,2.35c0.77,0.16,1.66-0.22,1.85-1.05
					c0.17-0.75-0.23-1.68-1.05-1.85c-3.33-0.69-6.64-1.47-9.93-2.35c-0.76-0.2-1.66,0.25-1.85,1.05
					C132.58,206.19,133,207.03,133.81,207.25L133.81,207.25z"/>
			</g>
		</g>
	</g>
	<path class="st19" d="M177.06,42.32c-4.19-0.45-8.45-0.68-12.77-0.68c-63.39,0-114.77,49.32-114.77,110.16
		c0,42.35,24.9,79.13,61.42,97.56c7.33,3.7,15.13,6.66,23.29,8.78c0.23,0.06,0.46,0.12,0.69,0.17c9.2,2.33,18.85,3.6,28.81,3.64
		c0.19,0,0.38,0,0.56,0c16.64,0,32.45-3.4,46.72-9.51c0.42-0.17,0.83-0.35,1.24-0.54c8.35-3.69,16.16-8.31,23.28-13.73
		c26.52-20.18,43.54-51.37,43.54-86.38C279.07,95.1,234.44,48.41,177.06,42.32z"/>
</g>
</svg>
