<?xml version="1.0" encoding="utf-8"?>
<!-- Generator: Adobe Illustrator 28.3.0, SVG Export Plug-In . SVG Version: 6.00 Build 0)  -->
<svg version="1.1" id="Layer_1" xmlns="http://www.w3.org/2000/svg" xmlns:xlink="http://www.w3.org/1999/xlink" x="0px" y="0px"
	 viewBox="0 0 800 1400" style="enable-background:new 0 0 800 1400;" xml:space="preserve">
<style type="text/css">
	.st0{opacity:0.5;}
	.st1{opacity:0.65;fill:#FFFFFF;enable-background:new    ;}
	.st2{fill:#C45AC0;}
	.st3{fill:#A62AAB;}
	.st4{fill:#7A3A90;}
	.st5{fill:#E89264;}
	.st6{opacity:0.1;fill:#7A3A90;}
	.st7{opacity:0.1;fill:#E89264;}
	.st8{opacity:0.1;}
	.st9{fill:#8765A2;}
	.st10{fill:#4E3584;}
	.st11{opacity:0.2;fill:#7A3A90;}
	.st12{fill:#C941A8;}
	.st13{opacity:0.1;fill:#A62AAB;}
	.st14{fill:#D45FC3;}
	.st15{fill:#9B928E;}
	.st16{fill:#B7B4B3;}
	.st17{fill:#9E9592;}
	.st18{opacity:0.5;fill:#E89264;}
	.st19{opacity:0.58;fill:#968EFD;enable-background:new    ;}
	.st20{opacity:0.3;}
	.st21{fill:none;}
	.st22{fill:none;stroke:#F2F2F2;stroke-width:5;stroke-miterlimit:10;}
	.st23{fill:none;stroke:#F2F2F2;stroke-width:5;stroke-miterlimit:10;stroke-dasharray:11.8507,11.8507;}
</style>
<g class="st0">
	<path class="st1" d="M210.69,793c-9.13-11.16-22.77-15.75-36.12-12.41c-14.56,3.64-22.78,17.55-36.33,23.12
		c-23.64,9.71-56.32-9.47-74.27,15.55c-21.96,30.6-38.92,7.65-38.92,28.42c0,20.77,151.69,5.47,226.54,6.56
		c10.81,0.16,57.76-0.63,37.55-23.08c-6.28-6.97-15.23-8.14-23.58-9.77c-10.88-2.13-36.76-3.29-44.65-11.76
		c-4.24-4.56-5.88-11.11-9.71-15.98C211.04,793.42,210.87,793.21,210.69,793z"/>
	<path class="st1" d="M730.13,148.84c-5.3-7.53-13.21-10.63-20.97-8.38c-8.45,2.46-13.22,11.85-21.09,15.6
		c-13.72,6.55-32.69-6.39-43.11,10.5c-12.74,20.66-22.59,5.16-22.59,19.18c0,14.02,88.05,3.69,131.49,4.43
		c6.28,0.11,33.53-0.43,21.8-15.58c-3.64-4.7-8.84-5.49-13.69-6.59c-6.32-1.44-21.34-2.22-25.91-7.94
		c-2.46-3.08-3.41-7.5-5.63-10.79C730.33,149.13,730.23,148.98,730.13,148.84z"/>
	<path class="st1" d="M631.97,167.07c-9.13-11.16-22.77-15.75-36.12-12.41c-14.56,3.64-22.78,17.55-36.33,23.12
		c-23.64,9.71-56.32-9.47-74.27,15.55c-21.96,30.6-38.92,7.65-38.92,28.42s151.69,5.47,226.54,6.56
		c10.81,0.16,57.76-0.63,37.55-23.08c-6.28-6.97-15.23-8.14-23.58-9.77c-10.88-2.13-36.76-3.29-44.65-11.76
		c-4.24-4.56-5.88-11.11-9.71-15.98C632.32,167.5,632.15,167.28,631.97,167.07z"/>
	<path class="st1" d="M244.97,74.55c-9.13-11.16-22.77-15.75-36.12-12.41c-14.56,3.64-22.78,17.55-36.33,23.12
		c-23.64,9.71-56.32-9.47-74.27,15.55c-21.96,30.6-38.92,7.65-38.92,28.42s151.69,5.47,226.54,6.56
		c10.81,0.16,57.76-0.63,37.55-23.08c-6.28-6.97-15.23-8.14-23.58-9.77c-10.88-2.13-36.76-3.29-44.65-11.76
		c-4.24-4.56-5.88-11.11-9.71-15.98C245.31,74.98,245.14,74.76,244.97,74.55z"/>
</g>
<path class="st2" d="M235.93,1217.91"/>
<g class="st0">
	<path class="st1" d="M204.47,1029.38c-9.13-11.16-22.77-15.75-36.12-12.41c-14.56,3.64-22.78,17.55-36.33,23.12
		c-23.64,9.71-56.32-9.47-74.27,15.55c-21.96,30.6-38.92,7.65-38.92,28.42s151.69,5.47,226.54,6.56
		c10.81,0.16,57.76-0.63,37.55-23.08c-6.28-6.97-15.23-8.14-23.58-9.77c-10.88-2.13-36.76-3.29-44.65-11.76
		c-4.24-4.56-5.88-11.11-9.71-15.98C204.82,1029.8,204.64,1029.59,204.47,1029.38z"/>
	<path class="st1" d="M723.91,385.22c-5.3-7.53-13.21-10.63-20.97-8.38c-8.45,2.46-13.22,11.85-21.09,15.6
		c-13.72,6.55-32.69-6.39-43.11,10.5c-12.74,20.66-22.59,5.16-22.59,19.18s88.05,3.69,131.49,4.43c6.28,0.11,33.53-0.43,21.8-15.58
		c-3.64-4.7-8.84-5.49-13.69-6.59c-6.32-1.44-21.34-2.22-25.91-7.94c-2.46-3.08-3.41-7.5-5.63-10.79
		C724.11,385.51,724.01,385.36,723.91,385.22z"/>
	<path class="st1" d="M625.75,403.45c-9.13-11.16-22.77-15.75-36.12-12.41c-14.56,3.64-22.78,17.55-36.33,23.12
		c-23.64,9.71-56.32-9.47-74.27,15.55c-21.96,30.6-38.92,7.65-38.92,28.42c0,20.77,151.69,5.47,226.54,6.56
		c10.81,0.16,57.76-0.63,37.55-23.08c-6.28-6.97-15.23-8.14-23.58-9.77c-10.88-2.13-36.76-3.29-44.65-11.76
		c-4.24-4.56-5.88-11.11-9.71-15.98C626.1,403.88,625.92,403.66,625.75,403.45z"/>
	<path class="st1" d="M238.75,310.93c-9.13-11.16-22.77-15.75-36.12-12.41c-14.56,3.64-22.78,17.55-36.33,23.12
		c-23.64,9.71-56.32-9.47-74.27,15.55c-21.96,30.6-38.92,7.65-38.92,28.42c0,20.77,151.69,5.47,226.54,6.56
		c10.81,0.16,57.76-0.63,37.55-23.08c-6.28-6.97-15.23-8.14-23.58-9.77c-10.88-2.13-36.76-3.29-44.65-11.76
		c-4.24-4.56-5.88-11.11-9.71-15.98C239.09,311.36,238.92,311.14,238.75,310.93z"/>
</g>
<g class="st0">
	<g>
		<g>
			<path class="st3" d="M80.86,1053.73l-13.14,0.04l0.82-291.6c0.03-12.41,8.9-22.54,19.77-22.57l1.46,0
				c10.87-0.03,19.67,10.03,19.64,22.44l-0.55,194.37c-0.01,4.14,2.79,7.49,6.25,7.48c3.46-0.01,6.28-3.39,6.29-7.52l0.55-194.37
				c0.03-12.41,8.9-22.54,19.77-22.57l1.46,0c10.86-0.03,19.67,10.03,19.64,22.44l-0.52,184.76c-0.01,4.14,2.93,7.49,6.55,7.48
				l2.48-0.01c3.62-0.01,6.58-3.39,6.59-7.53l0.5-179.5c0.03-12.41,8.77-22.54,19.47-22.57c10.7-0.03,19.38,10.04,19.34,22.45
				l-0.51,182.71c-0.01,4.14,2.93,7.49,6.55,7.48l3.51-0.01c3.62-0.01,6.58-3.39,6.59-7.53l0.51-182.44
				c0.03-12.41,8.9-22.54,19.77-22.57l4.54-0.01c10.86-0.03,19.67,10.04,19.64,22.45l-0.51,182.44c-0.01,4.14,2.93,7.49,6.55,7.48
				l1.46,0c2.95-0.01,5.21-0.52,6.57-1.01l0.01-2.54l13.14-0.04l-0.02,5.51c-0.02,7.91-7.77,13.04-19.74,13.08l-1.46,0
				c-10.87,0.03-19.67-10.03-19.64-22.45l0.51-182.44c0.01-4.14-2.92-7.49-6.55-7.48l-4.54,0.01c-3.62,0.01-6.58,3.39-6.59,7.52
				l-0.51,182.44c-0.03,12.41-8.9,22.54-19.77,22.57l-3.51,0.01c-10.86,0.03-19.68-10.03-19.64-22.45l0.51-182.71
				c0.01-4.14-2.79-7.49-6.25-7.48c-3.46,0.01-6.28,3.39-6.29,7.52l-0.5,179.5c-0.03,12.41-8.9,22.54-19.77,22.57l-2.48,0.01
				c-10.87,0.03-19.68-10.03-19.64-22.45l0.52-184.76c0.01-4.14-2.93-7.49-6.55-7.48l-1.46,0c-3.62,0.01-6.58,3.39-6.59,7.52
				l-0.55,194.37c-0.03,12.41-8.77,22.54-19.47,22.57c-10.7,0.03-19.38-10.03-19.34-22.45l0.55-194.37
				c0.01-4.14-2.92-7.49-6.55-7.48l-1.46,0c-3.62,0.01-6.58,3.39-6.59,7.52L80.86,1053.73z"/>
		</g>
	</g>
	<polygon class="st4" points="102.26,1168.11 39.7,1168.31 49.73,826.93 96.15,826.78 	"/>
	<polygon class="st4" points="190.01,1167.83 127.45,1168.03 137.33,883.56 183.74,883.42 	"/>
	<path class="st4" d="M103.09,825.93c-0.01,2.3-1.64,4.17-3.65,4.17l-51.88,0.17c-2.01,0.01-3.64-1.85-3.63-4.15l0,0
		c0.01-2.3,1.64-4.16,3.66-4.17l51.88-0.17C101.47,821.78,103.09,823.63,103.09,825.93L103.09,825.93z"/>
	<path class="st4" d="M190.3,882.56c-0.01,2.3-1.64,4.17-3.65,4.17l-51.88,0.17c-2.01,0.01-3.63-1.85-3.63-4.15l0,0
		c0.01-2.3,1.64-4.16,3.65-4.17l51.88-0.17C188.69,878.41,190.31,880.27,190.3,882.56L190.3,882.56z"/>
	<polygon class="st5" points="96.05,842.03 48,842.18 48.01,838.89 96.06,838.73 	"/>
	<polygon class="st5" points="96.03,849.71 47.98,849.86 47.99,846.57 96.04,846.42 	"/>
	<polygon class="st6" points="72.36,1168.21 102.26,1168.11 96.15,826.78 73.32,826.86 	"/>
	<polygon class="st6" points="158.84,1167.93 190.01,1167.83 183.74,883.42 159.64,883.49 	"/>
	<path class="st6" d="M99.46,821.78l-26.12,0.08l-0.02,8.32l26.12-0.08c2.01-0.01,3.64-1.87,3.65-4.17
		C103.09,823.63,101.47,821.78,99.46,821.78z"/>
	<path class="st6" d="M186.68,878.42l-27.02,0.09l-0.02,8.32l27.02-0.09c2.01-0.01,3.65-1.87,3.65-4.17
		C190.31,880.27,188.69,878.41,186.68,878.42z"/>
	<polygon class="st7" points="73.29,838.81 73.28,842.1 96.05,842.03 96.06,838.73 	"/>
	<polygon class="st7" points="73.27,846.49 73.26,849.78 96.03,849.71 96.04,846.42 	"/>
	<polygon class="st5" points="185.26,898.28 137.21,898.43 137.22,895.14 185.27,894.98 	"/>
	<polygon class="st5" points="185.24,905.96 137.19,906.11 137.2,902.82 185.25,902.67 	"/>
	<g>
		<path class="st5" d="M790.6,1110.48c-0.05,17.82-12.74,32.32-28.35,32.37l0,0c-15.6,0.05-28.22-14.36-28.17-32.19l0.16-56.81
			c0.05-17.83,12.74-32.32,28.35-32.37l0,0c15.61-0.05,28.22,14.36,28.17,32.19L790.6,1110.48z"/>
		<g>
			<path class="st4" d="M717.35,1176.53l-0.78-5.08c29.38-6.09,27.73-63.99,27.71-64.58l4.52-0.23c0.02,0.63,0.5,15.72-2.98,31.88
				C741.09,1160.5,731.25,1173.65,717.35,1176.53z"/>
		</g>
		<g>
			<path class="st4" d="M808.52,1176.23c-13.88-2.79-23.66-15.87-28.26-37.84c-3.38-16.14-2.82-31.22-2.8-31.86l4.52,0.2
				c-0.02,0.59-1.97,58.51,27.35,64.4L808.52,1176.23z"/>
		</g>
		<polygon class="st4" points="793.29,1114.35 731.82,1114.54 731.85,1101.63 793.33,1101.43 		"/>
		<polygon class="st5" points="767.48,1025.34 758.44,1025.37 758.47,1016.33 767.51,1016.3 		"/>
		<polygon class="st3" points="791.48,1077.06 733.76,1077.25 733.77,1071.34 791.5,1071.16 		"/>
		<polygon class="st3" points="791.46,1084.21 733.74,1084.4 733.75,1079.97 791.47,1079.78 		"/>
	</g>
	<g class="st8">
		<path class="st5" d="M763.34,1021.5L763,1142.83c15.26-0.5,27.56-14.81,27.61-32.34l0.16-56.81
			C790.81,1036.13,778.6,1021.9,763.34,1021.5z"/>
		<g>
			<path class="st4" d="M808.52,1176.23c-13.88-2.79-23.66-15.87-28.26-37.84c-3.38-16.14-2.82-31.22-2.8-31.86l4.52,0.2
				c-0.02,0.59-1.97,58.51,27.35,64.4L808.52,1176.23z"/>
		</g>
		<polygon class="st4" points="763.11,1101.53 763.08,1114.44 793.29,1114.35 793.33,1101.43 		"/>
		<polygon class="st5" points="763.35,1016.31 763.33,1025.35 767.48,1025.34 767.51,1016.3 		"/>
		<polygon class="st3" points="763.2,1071.25 763.18,1077.15 791.48,1077.06 791.5,1071.16 		"/>
		<polygon class="st3" points="763.17,1079.87 763.16,1084.3 791.46,1084.21 791.47,1079.78 		"/>
	</g>
	<g>
		<polygon class="st5" points="677.14,1276.45 525.9,1276.93 526.41,1095.14 677.65,1094.65 		"/>
		<polygon class="st5" points="663.69,1144.5 538.35,1144.9 538.64,1041.39 663.98,1040.98 		"/>
		<polygon class="st5" points="576.59,1062.75 550.74,1062.83 550.96,984.71 576.81,984.63 		"/>
		<polygon class="st5" points="616.93,1082.15 591.08,1082.23 591.3,1004.11 617.15,1004.03 		"/>
		<polygon class="st9" points="571.65,1095.97 555.49,1096.02 555.57,1069.22 571.73,1069.17 		"/>
		<polygon class="st9" points="597.5,1095.89 581.35,1095.94 581.42,1069.14 597.58,1069.09 		"/>
		<polygon class="st9" points="623.36,1095.8 607.2,1095.86 607.27,1069.06 623.44,1069 		"/>
		<polygon class="st9" points="649.21,1095.72 633.06,1095.77 633.13,1068.97 649.29,1068.92 		"/>
		<polygon class="st5" points="662.06,1124.92 540.87,1125.31 540.89,1115.6 662.09,1115.21 		"/>
		<polygon class="st5" points="662.01,1141.57 540.82,1141.96 540.85,1132.25 662.04,1131.86 		"/>
		<polygon class="st5" points="661.97,1158.12 540.77,1158.51 540.8,1148.8 661.99,1148.41 		"/>
		<path class="st5" d="M578.34,984.68c0,1.23-0.84,2.24-1.86,2.24l-26.35,0.08c-1.02,0-1.85-0.99-1.84-2.23l0,0
			c0-1.23,0.84-2.24,1.86-2.24l26.35-0.08C577.52,982.45,578.35,983.45,578.34,984.68L578.34,984.68z"/>
		<path class="st5" d="M619.01,1003.49c0,1.24-0.84,2.24-1.86,2.24l-26.35,0.08c-1.02,0-1.85-0.99-1.84-2.23l0,0
			c0-1.23,0.83-2.24,1.86-2.24l26.35-0.08C618.18,1001.26,619.01,1002.26,619.01,1003.49L619.01,1003.49z"/>
	</g>
	<polygon class="st4" points="611.24,1320.36 611.65,1176.66 689.18,1145.25 688.68,1320.69 	"/>
	<polygon class="st4" points="684.82,1320.12 685.22,1176.43 762.75,1145.02 762.26,1320.45 	"/>
	<polygon class="st4" points="758.39,1319.89 758.79,1176.19 836.32,1144.78 835.83,1320.22 	"/>
	<g class="st8">
		<polygon class="st3" points="722.18,1161.45 721.73,1320.28 762.26,1320.45 762.75,1145.02 		"/>
		<polygon class="st3" points="758.39,1319.89 758.79,1176.19 836.32,1144.78 835.83,1320.22 		"/>
	</g>
	<polygon class="st4" points="870.66,1322.23 577.76,1323.17 577.98,1246.69 870.87,1245.76 	"/>
	<polygon class="st5" points="645.7,1209.86 631.16,1209.9 631.2,1195.2 645.74,1195.15 	"/>
	<polygon class="st3" points="595.12,1301.65 588.76,1301.67 588.87,1261.2 595.23,1261.18 	"/>
	<polygon class="st3" points="609.07,1301.6 602.7,1301.62 602.82,1261.16 609.18,1261.14 	"/>
	<polygon class="st3" points="623.01,1301.56 616.65,1301.58 616.76,1261.11 623.13,1261.09 	"/>
	<polygon class="st3" points="636.96,1301.51 630.6,1301.53 630.71,1261.07 637.08,1261.05 	"/>
	<polygon class="st3" points="650.91,1301.47 644.55,1301.49 644.66,1261.02 651.03,1261 	"/>
	<polygon class="st3" points="664.86,1301.42 658.5,1301.44 658.61,1260.98 664.97,1260.96 	"/>
	<polygon class="st3" points="678.81,1301.38 672.44,1301.4 672.56,1260.93 678.92,1260.91 	"/>
	<polygon class="st3" points="692.75,1301.33 686.39,1301.35 686.51,1260.89 692.87,1260.87 	"/>
	<polygon class="st3" points="706.7,1301.29 700.34,1301.31 700.45,1260.84 706.82,1260.82 	"/>
	<polygon class="st3" points="720.65,1301.24 714.29,1301.26 714.4,1260.8 720.76,1260.78 	"/>
	<polygon class="st3" points="734.6,1301.2 728.23,1301.22 728.35,1260.76 734.71,1260.73 	"/>
	<polygon class="st3" points="748.55,1301.15 742.18,1301.17 742.3,1260.71 748.66,1260.69 	"/>
	<polygon class="st3" points="762.5,1301.11 756.13,1301.13 756.24,1260.67 762.61,1260.65 	"/>
	<polygon class="st3" points="776.44,1301.06 770.08,1301.08 770.19,1260.62 776.56,1260.6 	"/>
	<polygon class="st3" points="790.39,1301.02 784.03,1301.04 784.14,1260.58 790.5,1260.56 	"/>
	<polygon class="st3" points="804.34,1300.97 797.98,1301 798.09,1260.53 804.45,1260.51 	"/>
	<polygon class="st3" points="818.29,1300.93 811.92,1300.95 812.04,1260.49 818.4,1260.47 	"/>
	<polygon class="st3" points="832.23,1300.89 825.87,1300.91 825.98,1260.44 832.35,1260.42 	"/>
	<polygon class="st3" points="846.18,1300.84 839.82,1300.86 839.93,1260.4 846.3,1260.38 	"/>
	<polygon class="st3" points="860.13,1300.8 853.77,1300.82 853.88,1260.35 860.24,1260.33 	"/>
	<polygon class="st5" points="668.64,1209.78 654.1,1209.83 654.14,1195.12 668.68,1195.08 	"/>
	<polygon class="st5" points="645.64,1232.69 631.09,1232.74 631.14,1218.03 645.68,1217.98 	"/>
	<polygon class="st5" points="668.57,1232.62 654.03,1232.67 654.07,1217.96 668.61,1217.91 	"/>
	<polygon class="st5" points="719.47,1209.62 704.93,1209.67 704.97,1194.96 719.51,1194.91 	"/>
	<polygon class="st5" points="742.41,1209.55 727.86,1209.59 727.91,1194.89 742.45,1194.84 	"/>
	<polygon class="st5" points="719.41,1232.46 704.86,1232.5 704.9,1217.8 719.45,1217.75 	"/>
	<polygon class="st5" points="742.34,1232.38 727.8,1232.43 727.84,1217.72 742.38,1217.68 	"/>
	<polygon class="st5" points="788.69,1209.4 774.15,1209.45 774.19,1194.74 788.73,1194.69 	"/>
	<polygon class="st5" points="811.63,1209.33 797.09,1209.37 797.13,1194.66 811.67,1194.62 	"/>
	<polygon class="st5" points="788.63,1232.24 774.08,1232.28 774.13,1217.57 788.67,1217.53 	"/>
	<polygon class="st5" points="811.57,1232.16 797.02,1232.21 797.07,1217.5 811.61,1217.45 	"/>
	<polygon class="st4" points="577.89,1316.45 283.38,1317.39 283.41,1303.59 577.93,1302.65 	"/>
	<path class="st10" d="M479.19,1317.4l-277.95,0.89c0,0,65.18-69.89,80.85-271.8c4.94-63.68,6.71-265.86,6.71-265.86l103.26-0.33
		c0,0-5.62,193.51-2.72,258.95C399.29,1263.5,479.19,1317.4,479.19,1317.4z"/>
	<polygon class="st4" points="397.6,790.77 281.3,791.14 281.37,766.98 397.67,766.61 	"/>
	<path class="st11" d="M342.76,780.45l-1.51,537.39l137.94-0.44c0,0-79.9-53.9-89.84-278.16c-2.9-65.43,2.72-258.95,2.72-258.95
		L342.76,780.45z"/>
	<polygon class="st11" points="342.8,766.78 342.73,790.94 397.6,790.77 397.67,766.61 	"/>
	<polygon class="st5" points="395.03,812.75 286.26,813.1 286.3,799.46 395.06,799.12 	"/>
	<polygon class="st5" points="394.96,836.79 286.19,837.13 286.23,823.49 395,823.14 	"/>
	<polygon class="st3" points="310.05,1098.76 18.71,1099.69 18.91,1027.52 310.25,1026.58 	"/>
	<polygon class="st12" points="330.49,1319.23 -2.97,1320.3 -2.27,1071.69 331.19,1070.62 	"/>
	<polygon class="st4" points="141.5,1123.36 18.64,1123.75 18.71,1099.69 141.56,1099.3 	"/>
	<polygon class="st4" points="292.43,1122.88 169.58,1123.27 169.64,1099.21 292.5,1098.82 	"/>
	<polygon class="st4" points="141.37,1167.47 18.52,1167.86 18.58,1143.8 141.44,1143.41 	"/>
	<polygon class="st4" points="292.31,1166.98 169.45,1167.38 169.52,1143.32 292.37,1142.92 	"/>
	<polygon class="st4" points="141.25,1211.57 18.39,1211.97 18.46,1187.91 141.32,1187.51 	"/>
	<polygon class="st4" points="292.18,1211.09 169.33,1211.48 169.4,1187.42 292.25,1187.03 	"/>
	<polygon class="st4" points="141.13,1255.68 18.27,1256.07 18.34,1232.02 141.19,1231.62 	"/>
	<polygon class="st4" points="292.06,1255.19 169.21,1255.59 169.27,1231.53 292.13,1231.14 	"/>
	<polygon class="st4" points="141,1299.79 18.14,1300.18 18.21,1276.12 141.07,1275.73 	"/>
	<polygon class="st4" points="291.93,1299.3 169.08,1299.7 169.15,1275.64 292,1275.25 	"/>
	<polygon class="st4" points="717.75,1322.08 614.9,1322.41 614.92,1314.66 717.78,1314.33 	"/>
	<path class="st3" d="M527.3,1038.83c-0.61-13.84-0.84-33.41-0.83-55.66l-103.47,0.33c-0.82,25.48-1.8,47.78-2.95,62.58
		c-15.67,201.91-80.85,271.8-80.85,271.8l277.95-0.89C617.14,1317,537.24,1263.09,527.3,1038.83z"/>
	<polygon class="st3" points="532.11,991.34 415.82,991.72 415.89,967.56 532.18,967.19 	"/>
	<polygon class="st5" points="529.54,1013.33 418.84,1013.69 418.88,1000.05 529.58,999.69 	"/>
	<polygon class="st5" points="529.48,1037.37 418.77,1037.72 418.81,1024.08 529.51,1023.73 	"/>
	<path class="st13" d="M473.44,1317.46l143.7-0.46c0,0-79.9-53.9-89.84-278.16c-0.61-13.84-0.84-33.41-0.83-55.66l-52.09,0.17
		L473.44,1317.46z"/>
	<polygon class="st13" points="474.42,967.37 474.35,991.53 532.11,991.34 532.18,967.19 	"/>
	<polygon class="st7" points="474.33,999.87 474.29,1013.51 529.54,1013.33 529.58,999.69 	"/>
	<polygon class="st7" points="474.26,1023.9 474.22,1037.54 529.48,1037.37 529.51,1023.73 	"/>
	<g>
		<polygon class="st4" points="397.38,1323.1 397.56,1260.29 455.15,1230.54 454.89,1323.47 		"/>
		<polygon class="st4" points="452.02,1322.93 452.2,1260.12 509.79,1230.37 509.53,1323.29 		"/>
		<polygon class="st4" points="506.66,1322.75 506.83,1259.94 564.43,1230.19 564.17,1323.12 		"/>
		<polygon class="st14" points="642.53,1322.32 619.2,1122.84 576.83,1122.97 546.39,1323.15 		"/>
		<path class="st14" d="M624.25,1122.25c-0.01,2.87-2.05,5.19-4.55,5.2l-43.38,0.14c-2.51,0.01-4.53-2.31-4.53-5.17l0,0
			c0.01-2.86,2.05-5.19,4.56-5.2l43.38-0.14C622.23,1117.07,624.26,1119.38,624.25,1122.25L624.25,1122.25z"/>
		<path class="st5" d="M413.87,1300.91c-0.01,2.4-1.72,4.36-3.82,4.36l0,0c-2.1,0.01-3.8-1.94-3.79-4.34l0.07-23.38
			c0.01-2.4,1.72-4.36,3.82-4.36l0,0c2.1-0.01,3.8,1.94,3.79,4.34L413.87,1300.91z"/>
		<path class="st5" d="M427.49,1300.87c-0.01,2.4-1.72,4.36-3.82,4.36l0,0c-2.1,0.01-3.8-1.94-3.8-4.34l0.07-23.38
			c0.01-2.4,1.72-4.36,3.82-4.36l0,0c2.1-0.01,3.8,1.94,3.8,4.34L427.49,1300.87z"/>
		<path class="st5" d="M441.11,1300.83c-0.01,2.4-1.72,4.36-3.82,4.36l0,0c-2.1,0.01-3.8-1.94-3.79-4.34l0.07-23.38
			c0.01-2.4,1.72-4.36,3.82-4.36l0,0c2.1-0.01,3.8,1.94,3.79,4.34L441.11,1300.83z"/>
		<path class="st5" d="M468.35,1300.74c-0.01,2.4-1.72,4.36-3.82,4.36l0,0c-2.1,0.01-3.8-1.94-3.8-4.34l0.07-23.38
			c0.01-2.4,1.72-4.36,3.82-4.36l0,0c2.1-0.01,3.8,1.94,3.79,4.34L468.35,1300.74z"/>
		<path class="st5" d="M481.96,1300.7c-0.01,2.4-1.72,4.36-3.82,4.36l0,0c-2.1,0.01-3.8-1.94-3.79-4.34l0.07-23.38
			c0.01-2.4,1.72-4.36,3.82-4.36l0,0c2.1-0.01,3.8,1.94,3.8,4.34L481.96,1300.7z"/>
		<path class="st5" d="M495.58,1300.65c-0.01,2.4-1.72,4.36-3.82,4.36l0,0c-2.1,0.01-3.8-1.94-3.8-4.34l0.07-23.38
			c0.01-2.4,1.72-4.36,3.82-4.36l0,0c2.1-0.01,3.8,1.94,3.8,4.34L495.58,1300.65z"/>
		<path class="st5" d="M522.82,1300.56c-0.01,2.4-1.72,4.36-3.82,4.36l0,0c-2.1,0.01-3.8-1.94-3.8-4.34l0.07-23.38
			c0.01-2.4,1.72-4.36,3.82-4.36l0,0c2.1-0.01,3.8,1.94,3.8,4.34L522.82,1300.56z"/>
		<path class="st5" d="M536.44,1300.52c-0.01,2.4-1.72,4.36-3.82,4.36l0,0c-2.1,0.01-3.8-1.94-3.8-4.34l0.07-23.38
			c0.01-2.4,1.72-4.36,3.82-4.36l0,0c2.1-0.01,3.8,1.94,3.79,4.34L536.44,1300.52z"/>
		<path class="st5" d="M550.06,1300.48c-0.01,2.4-1.72,4.36-3.82,4.36l0,0c-2.1,0.01-3.8-1.94-3.79-4.34l0.07-23.38
			c0.01-2.4,1.72-4.36,3.82-4.36l0,0c2.1-0.01,3.8,1.94,3.8,4.34L550.06,1300.48z"/>
	</g>
	<g>
		<polygon class="st5" points="39.27,1115.98 30.51,1116.01 30.54,1106.01 39.3,1105.98 		"/>
		<polygon class="st5" points="57.52,1115.93 48.76,1115.95 48.79,1105.95 57.55,1105.92 		"/>
		<polygon class="st5" points="75.77,1115.87 67.01,1115.9 67.04,1105.89 75.8,1105.86 		"/>
		<polygon class="st5" points="94.02,1115.81 85.26,1115.84 85.29,1105.83 94.05,1105.8 		"/>
		<polygon class="st5" points="112.27,1115.75 103.51,1115.78 103.54,1105.77 112.3,1105.74 		"/>
		<polygon class="st5" points="130.52,1115.69 121.76,1115.72 121.79,1105.71 130.55,1105.69 		"/>
		<polygon class="st5" points="39.15,1160.18 30.39,1160.21 30.42,1150.2 39.18,1150.18 		"/>
		<polygon class="st5" points="57.4,1160.12 48.64,1160.15 48.67,1150.15 57.43,1150.12 		"/>
		<polygon class="st5" points="75.65,1160.07 66.89,1160.09 66.92,1150.09 75.68,1150.06 		"/>
		<polygon class="st5" points="93.9,1160.01 85.14,1160.04 85.17,1150.03 93.93,1150 		"/>
		<polygon class="st5" points="112.15,1159.95 103.39,1159.98 103.42,1149.97 112.18,1149.94 		"/>
		<polygon class="st5" points="130.4,1159.89 121.64,1159.92 121.67,1149.91 130.43,1149.88 		"/>
		<polygon class="st5" points="39.02,1204.38 30.26,1204.41 30.29,1194.41 39.05,1194.38 		"/>
		<polygon class="st5" points="57.27,1204.33 48.51,1204.35 48.54,1194.35 57.3,1194.32 		"/>
		<polygon class="st5" points="75.52,1204.27 66.76,1204.29 66.79,1194.29 75.55,1194.26 		"/>
		<polygon class="st5" points="93.78,1204.21 85.02,1204.24 85.04,1194.23 93.8,1194.2 		"/>
		<polygon class="st5" points="112.03,1204.15 103.27,1204.18 103.29,1194.17 112.05,1194.14 		"/>
		<polygon class="st5" points="130.28,1204.09 121.52,1204.12 121.54,1194.11 130.3,1194.08 		"/>
		<polygon class="st5" points="38.9,1248.58 30.14,1248.61 30.17,1238.61 38.93,1238.58 		"/>
		<polygon class="st5" points="57.15,1248.53 48.39,1248.55 48.42,1238.55 57.18,1238.52 		"/>
		<polygon class="st5" points="75.4,1248.47 66.64,1248.5 66.67,1238.49 75.43,1238.46 		"/>
		<polygon class="st5" points="93.65,1248.41 84.89,1248.44 84.92,1238.43 93.68,1238.4 		"/>
		<polygon class="st5" points="111.9,1248.35 103.14,1248.38 103.17,1238.37 111.93,1238.34 		"/>
		<polygon class="st5" points="130.15,1248.29 121.39,1248.32 121.42,1238.31 130.18,1238.29 		"/>
		<polygon class="st5" points="38.78,1292.79 30.02,1292.81 30.04,1282.81 38.8,1282.78 		"/>
		<polygon class="st5" points="57.03,1292.73 48.27,1292.76 48.29,1282.75 57.05,1282.72 		"/>
		<polygon class="st5" points="75.28,1292.67 66.52,1292.7 66.54,1282.69 75.3,1282.66 		"/>
		<polygon class="st5" points="93.53,1292.61 84.77,1292.64 84.8,1282.63 93.56,1282.6 		"/>
		<polygon class="st5" points="111.78,1292.55 103.02,1292.58 103.05,1282.57 111.81,1282.55 		"/>
		<polygon class="st5" points="130.03,1292.49 121.27,1292.52 121.3,1282.52 130.06,1282.49 		"/>
	</g>
	<g>
		<polygon class="st5" points="187.47,1115.51 178.71,1115.54 178.74,1105.53 187.5,1105.5 		"/>
		<polygon class="st5" points="205.72,1115.45 196.96,1115.48 196.99,1105.47 205.75,1105.44 		"/>
		<polygon class="st5" points="223.97,1115.39 215.21,1115.42 215.24,1105.41 224,1105.39 		"/>
		<polygon class="st5" points="242.22,1115.33 233.46,1115.36 233.49,1105.36 242.25,1105.33 		"/>
		<polygon class="st5" points="260.47,1115.28 251.71,1115.3 251.74,1105.3 260.5,1105.27 		"/>
		<polygon class="st5" points="278.72,1115.22 269.96,1115.25 269.99,1105.24 278.75,1105.21 		"/>
		<polygon class="st5" points="187.35,1159.71 178.58,1159.74 178.61,1149.73 187.37,1149.7 		"/>
		<polygon class="st5" points="205.6,1159.65 196.84,1159.68 196.86,1149.67 205.62,1149.64 		"/>
		<polygon class="st5" points="223.85,1159.59 215.09,1159.62 215.11,1149.61 223.87,1149.58 		"/>
		<polygon class="st5" points="242.1,1159.53 233.34,1159.56 233.36,1149.55 242.12,1149.53 		"/>
		<polygon class="st5" points="260.35,1159.47 251.59,1159.5 251.62,1149.5 260.38,1149.47 		"/>
		<polygon class="st5" points="278.6,1159.42 269.84,1159.44 269.87,1149.44 278.63,1149.41 		"/>
		<polygon class="st5" points="187.22,1203.91 178.46,1203.94 178.49,1193.93 187.25,1193.9 		"/>
		<polygon class="st5" points="205.47,1203.85 196.71,1203.88 196.74,1193.87 205.5,1193.84 		"/>
		<polygon class="st5" points="223.72,1203.79 214.96,1203.82 214.99,1193.81 223.75,1193.79 		"/>
		<polygon class="st5" points="241.97,1203.73 233.21,1203.76 233.24,1193.76 242,1193.73 		"/>
		<polygon class="st5" points="260.22,1203.68 251.46,1203.7 251.49,1193.7 260.25,1193.67 		"/>
		<polygon class="st5" points="278.47,1203.62 269.71,1203.64 269.74,1193.64 278.5,1193.61 		"/>
		<polygon class="st5" points="187.1,1248.11 178.34,1248.14 178.36,1238.13 187.13,1238.1 		"/>
		<polygon class="st5" points="205.35,1248.05 196.59,1248.08 196.62,1238.07 205.38,1238.05 		"/>
		<polygon class="st5" points="223.6,1247.99 214.84,1248.02 214.87,1238.01 223.63,1237.99 		"/>
		<polygon class="st5" points="241.85,1247.94 233.09,1247.96 233.12,1237.96 241.88,1237.93 		"/>
		<polygon class="st5" points="260.1,1247.88 251.34,1247.9 251.37,1237.9 260.13,1237.87 		"/>
		<polygon class="st5" points="278.35,1247.82 269.59,1247.85 269.62,1237.84 278.38,1237.81 		"/>
		<polygon class="st5" points="186.97,1292.31 178.21,1292.34 178.24,1282.33 187,1282.3 		"/>
		<polygon class="st5" points="205.22,1292.25 196.46,1292.28 196.49,1282.27 205.25,1282.25 		"/>
		<polygon class="st5" points="223.47,1292.19 214.71,1292.22 214.74,1282.22 223.5,1282.19 		"/>
		<polygon class="st5" points="241.72,1292.14 232.96,1292.16 232.99,1282.16 241.75,1282.13 		"/>
		<polygon class="st5" points="259.98,1292.08 251.21,1292.11 251.24,1282.1 260,1282.07 		"/>
		<polygon class="st5" points="278.23,1292.02 269.47,1292.05 269.49,1282.04 278.25,1282.01 		"/>
	</g>
	<path class="st9" d="M562.97,910.37l2.17-0.01l-0.06,22.29l19.51-0.06l0.06-22.29l31.98-0.1l-0.33,117.63l-9.22,0.03l-0.02,6.19
		l-6.5,0.02l-0.02,8.67l78.04-0.25l0.02-8.67l-8.67,0.03l0.02-6.19l-8.4,0.03l0.31-110.2l10.57-0.03l0.02-7.43l95.38-0.31
		l-0.18,62.81l-3.18,0.01l-0.01,5.18l3.3-0.01l0.69,8.12l0.53,0.3c1.04,0.6,4.04,2.8,4.1,4.98c0.03,1.21-0.85,2.44-2.62,3.66
		c-2.76,1.9-3.54,1.4-3.66,1.28c-0.76-0.72-0.34-4.26,0.52-7l-2.04-0.82c-0.39,1.24-2.22,7.54,0.14,9.74
		c0.55,0.51,1.19,0.71,1.86,0.71c1.69-0.01,3.54-1.27,4.28-1.78c2.51-1.72,3.75-3.7,3.68-5.88c-0.11-3.39-3.39-5.88-4.76-6.76
		l-0.55-6.55l4.18-0.01l0.01-5.18l-4.31,0.01l0.18-62.81l2.17-0.01l0.05-17.92l-142.26-31.3l-66.94,32.57L562.97,910.37z
		 M771.95,975.22l-2.14,0.01l0-0.23l2.14-0.01L771.95,975.22z M767.64,975l0,0.23l-1.01,0l0-0.23L767.64,975z M637.09,869.63
		l49.17,10.82l-46.49-6L637.09,869.63z M659.56,884.48l-0.05,16.28l-33.74-16.07l12.22-3L659.56,884.48z M652.97,995.1l-12.47,13.15
		l-15.43-16.26l0-0.56l27.91,0.38L652.97,995.1z M625.08,987.99l14.78-17.2l13.13,15.01l-0.01,3.54l-27.91-0.39L625.08,987.99z
		 M641.38,969.02l11.69-13.61L653,982.29L641.38,969.02z M639.86,967.27l-14.67-16.77l0.01-1.96l27.91-0.09l-0.01,3.43
		L639.86,967.27z M653.1,945.98l-27.91,0.09l0.01-1.86l14.17-15.79l13.74,14.4L653.1,945.98z M625.21,940.75l0.08-27.11l12.49,13.1
		L625.21,940.75z M626.46,911.5l25.08-0.08l-12.2,13.59L626.46,911.5z M653.2,913.02l-0.07,26.43l-12.19-12.78L653.2,913.02z
		 M652.96,998.47l-0.06,22.84l-10.8-11.39L652.96,998.47z M652.88,1024.68l0,1.15l-25.95,0.08l13.56-14.3L652.88,1024.68z
		 M624.98,1024.61l0.08-29.27l13.84,14.59L624.98,1024.61z M625.18,954.01l13.16,15.04l-13.24,15.41L625.18,954.01z M624.24,901.6
		l0.04-14.93l31.15,14.83L624.24,901.6z M598.69,883.75l30.33-14.76l3.57,6.44L598.69,883.75z M765.68,902.29l-103.78,0.33l0-1.15
		l-0.22,0l0.05-16.72l103.96,13.41L765.68,902.29z M616.65,901.62l0,1.15l-47.16,0.15l0.01-4.42l48.27-11.84l-0.04,14.96
		L616.65,901.62z"/>
	<g>
		<path class="st15" d="M729.47,724.94c-8.79,0.03-15.94,8.19-15.97,18.23c0,0.87,0.07,1.72,0.17,2.56
			c-2.74-3.17-6.55-5.14-10.77-5.12c-1.18,0-2.32,0.18-3.42,0.47c-4.46-14.38-16.48-24.65-30.63-24.6
			c-13.12,0.04-24.45,8.94-29.66,21.73c-3.99-4.77-9.61-7.75-15.86-7.73c-10.18,0.03-18.75,7.98-21.27,18.72
			c-2.65-0.86-5.44-1.32-8.34-1.31c-9.62,0.03-18.2,5.18-23.78,13.18c-0.36-0.24-0.73-0.46-1.1-0.68
			c-2.64-14.99-14.22-26.23-28.14-26.18c-15.91,0.05-28.85,14.82-28.9,33c-0.01,2.76,0.29,5.44,0.84,7.99
			c-18.22,1.06-32.78,18.3-32.84,39.36c0,0.14,0.01,0.28,0.01,0.42c-12.18,3.42-21.24,15.98-21.29,30.91
			c-0.02,5.85,1.36,11.33,3.77,16.03c-4.36,6.86-6.95,15.29-6.97,24.39c-0.04,13.97,5.96,26.31,15.19,33.83
			c-0.02,0.44-0.06,0.88-0.06,1.33c-0.04,13.39,9.43,24.21,21.16,24.18c11.72-0.04,21.25-10.92,21.29-24.31
			c0-0.46-0.04-0.91-0.06-1.36c8.33-6.83,14.07-17.53,15.15-29.79c18.45-3.3,32.62-21.55,32.68-43.51
			c0.02-5.38-0.82-10.53-2.36-15.29c1.7,0.94,3.6,1.48,5.62,1.47c7.12-0.02,12.9-6.63,12.93-14.76c0-1.02-0.08-2.01-0.25-2.97
			c0.66-0.79,1.3-1.62,1.89-2.48c4.43,2.89,9.56,4.54,15.04,4.53c16.74-0.05,30.36-15.6,30.42-34.73c0-0.59-0.01-1.19-0.03-1.77
			c6.48-0.26,12.26-3.7,16.17-9.02c5.5,11.54,16.22,19.35,28.56,19.31c11.59-0.04,21.77-6.98,27.58-17.41
			c1.99,1.09,4.21,1.72,6.57,1.71c8.37-0.03,15.18-7.8,15.21-17.37c0-0.74-0.05-1.46-0.13-2.17c2.89,3.46,6.96,5.61,11.48,5.6
			c8.79-0.03,15.94-8.19,15.97-18.23C745.37,733.03,738.26,724.91,729.47,724.94z"/>
		
			<ellipse transform="matrix(0.0225 -0.9997 0.9997 0.0225 -7.3768 1495.8151)" class="st5" cx="761.23" cy="751.68" rx="6.06" ry="5.31"/>
	</g>
	<g>
		<path class="st16" d="M736.27,722.8c-8.79,0.03-15.94,8.19-15.97,18.23c0,0.87,0.07,1.72,0.17,2.56
			c-2.74-3.17-6.55-5.14-10.77-5.12c-1.18,0-2.32,0.18-3.42,0.47c-4.46-14.38-16.48-24.65-30.63-24.6
			c-13.12,0.04-24.45,8.94-29.66,21.73c-3.99-4.77-9.61-7.75-15.86-7.73c-10.18,0.03-18.75,7.98-21.27,18.72
			c-2.65-0.86-5.44-1.32-8.34-1.31c-9.62,0.03-18.2,5.18-23.78,13.18c-0.36-0.24-0.73-0.46-1.1-0.68
			c-2.64-14.99-14.22-26.23-28.14-26.18c-15.91,0.05-28.85,14.82-28.9,33c-0.01,2.76,0.29,5.44,0.84,7.99
			c-18.22,1.06-32.78,18.3-32.84,39.36c0,0.14,0.01,0.28,0.01,0.42c-12.18,3.42-21.24,15.98-21.29,30.91
			c-0.02,5.85,1.36,11.33,3.77,16.03c-4.36,6.86-6.95,15.29-6.97,24.39c-0.04,13.97,5.96,26.31,15.19,33.83
			c-0.02,0.44-0.06,0.88-0.06,1.33c-0.04,13.39,9.43,24.21,21.16,24.18c11.72-0.04,21.25-10.92,21.29-24.31
			c0-0.46-0.04-0.91-0.06-1.36c8.33-6.83,14.07-17.53,15.15-29.79c18.45-3.3,32.62-21.55,32.68-43.51
			c0.02-5.38-0.82-10.53-2.36-15.29c1.7,0.94,3.6,1.48,5.62,1.47c7.12-0.02,12.9-6.63,12.93-14.76c0-1.02-0.08-2.01-0.25-2.97
			c0.66-0.79,1.3-1.62,1.89-2.48c4.43,2.89,9.56,4.54,15.04,4.53c16.74-0.05,30.36-15.6,30.42-34.73c0-0.59-0.01-1.19-0.03-1.77
			c6.48-0.26,12.26-3.7,16.17-9.02c5.5,11.54,16.22,19.35,28.56,19.31c11.59-0.04,21.77-6.98,27.58-17.41
			c1.99,1.09,4.21,1.72,6.57,1.71c8.37-0.03,15.18-7.8,15.21-17.37c0-0.74-0.05-1.46-0.13-2.17c2.89,3.46,6.96,5.61,11.48,5.6
			c8.79-0.03,15.94-8.19,15.97-18.23S745.07,722.77,736.27,722.8z"/>
		
			<ellipse transform="matrix(0.0225 -0.9997 0.9997 0.0225 1.4087 1500.5233)" class="st17" cx="768.03" cy="749.54" rx="6.06" ry="5.31"/>
	</g>
	<polygon class="st18" points="158.71,1071.18 158.01,1319.78 330.49,1319.23 331.19,1070.62 	"/>
</g>
<g>
	<rect x="3.37" y="1318" class="st19" width="800" height="84"/>
	<g class="st20">
		<line class="st21" x1="-2.13" y1="1359.33" x2="803.87" y2="1359.67"/>
		<g>
			<line class="st22" x1="-2.13" y1="1359.33" x2="3.87" y2="1359.33"/>
			<line class="st23" x1="15.72" y1="1359.34" x2="791.95" y2="1359.66"/>
			<line class="st22" x1="797.87" y1="1359.67" x2="803.87" y2="1359.67"/>
		</g>
	</g>
</g>
</svg>
