<?xml version="1.0" encoding="utf-8"?>
<!-- Generator: Adobe Illustrator 28.3.0, SVG Export Plug-In . SVG Version: 6.00 Build 0)  -->
<svg version="1.1" id="Layer_1" xmlns="http://www.w3.org/2000/svg" xmlns:xlink="http://www.w3.org/1999/xlink" x="0px" y="0px"
	 viewBox="0 0 800 1400" style="enable-background:new 0 0 800 1400;" xml:space="preserve">
<style type="text/css">
	.st0{opacity:0.5;}
	.st1{fill:#DB7346;}
	.st2{fill:#51317D;}
	.st3{fill:#683B9A;}
	.st4{fill:#602C61;}
	.st5{fill:#42296C;}
	.st6{fill:#3E2765;}
	.st7{fill:#24235A;}
	.st8{fill:#332156;}
	.st9{fill:#352257;}
	.st10{clip-path:url(#SVGID_00000114785493115375865810000001103711065827027102_);}
	.st11{fill:#C68BBB;}
	.st12{clip-path:url(#SVGID_00000121979358826285597600000009334281306859793793_);}
	.st13{fill:#9DB0CE;}
	.st14{clip-path:url(#SVGID_00000003790548097578291340000017572562946797481606_);}
	.st15{fill:#4C3584;}
	.st16{opacity:0.58;fill:#968EFD;enable-background:new    ;}
	.st17{opacity:0.3;}
	.st18{fill:none;}
	.st19{fill:none;stroke:#F2F2F2;stroke-width:5;stroke-miterlimit:10;}
	.st20{fill:none;stroke:#F2F2F2;stroke-width:5;stroke-miterlimit:10;stroke-dasharray:11.8507,11.8507;}
	.st21{opacity:0.65;fill:#FFFFFF;enable-background:new    ;}
	.st22{fill:#C45AC0;}
</style>
<g class="st0">
	<path class="st1" d="M357.67,946.79l-33.46-0.09l5.53-136.31l20.13,0.03L357.67,946.79"/>
	<path class="st1" d="M328.78,840.3l22.69,0.05l-0.79-13.38l-21.36-0.07L328.78,840.3"/>
	<path class="st1" d="M353.41,874.17l-0.78-13.42l-24.64-0.05l-0.55,13.44L353.41,874.17"/>
	<path class="st1" d="M355.36,907.95l-0.78-13.42l-27.96-0.05l-0.54,13.4L355.36,907.95"/>
	<path class="st1" d="M357.27,941.71l-0.78-13.42l-31.26-0.08l-0.54,13.4L357.27,941.71"/>
	<path class="st2" d="M403.91,1316.99l317.39,0.83l0.64-235.81l-317.39-0.83L403.91,1316.99z"/>
	<path class="st3" d="M403.91,1316.99l-301.49-0.8l0.98-372.75l301.49,0.8L403.91,1316.99"/>
	<path class="st4" d="M404.31,1175.39l205.67,0.55l0.12-48.2l-205.67-0.55L404.31,1175.39z"/>
	<path class="st1" d="M227.04,943.77l-56.31-0.16l9.33-229.68l33.91,0.09L227.04,943.77"/>
	<path class="st1" d="M178.38,764.38l38.21,0.11l-1.27-22.59l-36.02-0.11L178.38,764.38"/>
	<path class="st1" d="M219.83,821.38l-1.27-22.59l-41.57-0.13l-0.92,22.59L219.83,821.38"/>
	<path class="st1" d="M223.07,878.26l-1.27-22.59l-47.13-0.11l-0.92,22.59L223.07,878.26"/>
	<path class="st1" d="M226.3,935.17l-1.27-22.59l-52.67-0.13l-0.92,22.59L226.3,935.17"/>
	<path class="st3" d="M760.85,1317.92l-151.22-0.4l0.74-284.39l151.22,0.4L760.85,1317.92"/>
	<path class="st1" d="M706.85,1032.91l-41.83-0.1l6.91-170.33l25.17,0.08L706.85,1032.91"/>
	<path class="st1" d="M670.77,899.82l28.37,0.07l-0.98-16.77l-26.7-0.09L670.77,899.82"/>
	<path class="st1" d="M701.52,942.08l-0.94-16.75l-30.84-0.1l-0.68,16.75L701.52,942.08"/>
	<path class="st1" d="M703.93,984.31L703,967.52l-34.95-0.09l-0.69,16.79L703.93,984.31"/>
	<path class="st1" d="M706.34,1026.55l-0.93-16.79l-39.05-0.09l-0.69,16.79L706.34,1026.55"/>
	<path class="st5" d="M467.01,1317.16l65.88,0.18l0.12-46.71l-65.88-0.18L467.01,1317.16z"/>
	<path class="st5" d="M403.99,1293.64l-301.49-0.8l0.08-23.35l301.49,0.8L403.99,1293.64"/>
	<path class="st5" d="M760.88,1294.6l-151.22-0.4l0.08-23.35l151.22,0.4L760.88,1294.6"/>
	<path class="st6" d="M600.92,1317.52l-26.96-0.06L533,1270.67l-0.12,46.71l0.12-46.71l-65.88-0.18L467,1317.2l-63.07-0.16
		l0.37-141.62l78.67,0.21L600.92,1317.52 M442.88,1127.26l-38.42-0.11l0.1-45.97L442.88,1127.26"/>
	<path class="st7" d="M482.99,1175.6l-78.67-0.21l0.12-48.2l38.42,0.11L482.99,1175.6"/>
	<path class="st8" d="M467.01,1317.16l65.88,0.18l0.12-46.71l-65.88-0.18L467.01,1317.16z"/>
	<path class="st9" d="M573.98,1317.42l-41.07-0.11l0.12-46.71L573.98,1317.42"/>
	<g>
		<g>
			<g>
				<defs>
					
						<rect id="SVGID_1_" x="236.37" y="556.51" transform="matrix(2.647626e-03 -1 1 2.647626e-03 -380.7775 930.1567)" width="79.11" height="198.92"/>
				</defs>
				<clipPath id="SVGID_00000173869250095066267840000001829563967669338030_">
					<use xlink:href="#SVGID_1_"  style="overflow:visible;"/>
				</clipPath>
				<g style="clip-path:url(#SVGID_00000173869250095066267840000001829563967669338030_);">
					<path class="st11" d="M343.74,638.81c-5.88-0.01-11.33,0.96-15.93,2.69c-3.08-1.69-7.01-2.74-11.39-2.76
						c-0.63,0.02-1.26,0.04-1.89,0.06l0.03-0.07c0.02-12.18-13.06-22.09-29.21-22.14c-7.16-0.02-13.78,1.89-18.86,5.15
						c-5.67-3.21-13.19-5.23-21.48-5.25c-17.64-0.04-31.96,8.82-31.97,19.84c0,1.49,0.29,2.97,0.81,4.4
						c-0.44-0.04-0.89-0.07-1.31-0.06c-15.29-0.02-27.67,8.88-27.7,19.85c-0.01,5.18,2.72,9.89,7.2,13.42
						c-5.52,1.98-9.11,5.36-9.14,9.21c-0.02,6.13,9.38,11.19,21.02,11.21c11.64,0.03,21.02-4.95,21.06-11.11
						c0.03-1.56-0.56-3.02-1.61-4.36c3.45-1.07,6.55-2.64,9.12-4.57c5.5,3.81,13.57,6.24,22.63,6.29
						c8.65,0.02,16.42-2.18,21.95-5.69c1.92,11.06,15.42,19.68,31.87,19.7c17.8,0.06,32.23-9.93,32.25-22.23l-0.01-0.09
						c0.81,0.05,1.67,0.07,2.5,0.08c16.11,0.03,29.22-7.45,29.25-16.68C372.95,646.4,359.85,638.84,343.74,638.81"/>
				</g>
			</g>
		</g>
	</g>
	<g>
		<g>
			<g>
				<defs>
					
						<rect id="SVGID_00000005946009885749519450000016260709040667913856_" x="699.04" y="779.42" transform="matrix(2.647626e-03 -1 1 2.647626e-03 -108.0747 1547.2544)" width="45.21" height="96.77"/>
				</defs>
				<clipPath id="SVGID_00000060748130456889498800000007610644598185676678_">
					<use xlink:href="#SVGID_00000005946009885749519450000016260709040667913856_"  style="overflow:visible;"/>
				</clipPath>
				<g style="clip-path:url(#SVGID_00000060748130456889498800000007610644598185676678_);">
					<path class="st11" d="M755.43,819.59c-2.9-0.01-5.65,0.48-7.91,1.36c-1.52-0.84-3.51-1.4-5.71-1.4
						c-0.28-0.02-0.59,0.03-0.93,0.04l0.01-0.04c0.01-6.09-6.5-11.01-14.56-11.07c-3.6-0.02-6.9,0.98-9.44,2.59
						c-2.81-1.64-6.55-2.62-10.7-2.63c-8.78-0.03-15.94,4.42-15.95,9.94c-0.02,0.74,0.14,1.46,0.38,2.17
						c-0.21,0.01-0.42,0.01-0.63,0.02c-7.62-0.02-13.82,4.4-13.81,9.88c-0.02,2.56,1.37,4.93,3.61,6.74
						c-2.76,0.99-4.57,2.66-4.55,4.57c0.01,3.07,4.7,5.56,10.46,5.57c5.79,0.02,10.5-2.46,10.5-5.53c0-0.79-0.28-1.51-0.8-2.15
						c1.73-0.54,3.26-1.35,4.56-2.29c2.75,1.91,6.79,3.12,11.26,3.12c4.35,0,8.24-1.12,10.95-2.88c0.94,5.52,7.73,9.8,15.89,9.81
						c8.9,0.03,16.09-4.95,16.11-11.08l0.01-0.04c0.44,0.04,0.81,0.05,1.23,0.03c8.04,0.01,14.61-3.71,14.62-8.34
						C770.02,823.38,763.5,819.65,755.43,819.59"/>
				</g>
			</g>
		</g>
	</g>
	<path class="st11" d="M401.19,774.58c-2.53,0-4.92,0.42-6.93,1.18c-1.3-0.76-3.04-1.22-4.95-1.21c-0.28-0.02-0.58,0-0.84,0.03
		l0.01-0.04c0.01-5.3-5.67-9.64-12.67-9.64c-3.14-0.02-6.03,0.84-8.23,2.24c-2.47-1.43-5.76-2.29-9.37-2.27
		c-7.65-0.04-13.91,3.84-13.91,8.64c0.02,0.63,0.12,1.29,0.36,1.87c-0.21,0.01-0.37-0.01-0.58,0c-6.63,0-12.04,3.85-12.08,8.64
		c-0.02,2.23,1.18,4.28,3.15,5.83c-2.39,0.88-3.99,2.33-3.99,4.03c-0.01,2.65,4.09,4.84,9.18,4.86c5.05,0.01,9.15-2.16,9.16-4.81
		c-0.01-0.67-0.24-1.29-0.72-1.92c1.53-0.44,2.87-1.16,3.95-1.97c2.4,1.61,5.95,2.69,9.84,2.69c3.77,0,7.17-0.93,9.57-2.5
		c0.83,4.82,6.72,8.57,13.88,8.59c7.74,0.03,14.03-4.29,14.03-9.68l0.01-0.04c0.37,0.01,0.69,0.04,1.06,0.05
		c7.08,0.03,12.74-3.26,12.79-7.27C413.93,777.87,408.28,774.58,401.19,774.58"/>
	<path class="st1" d="M444.53,1113.19l-35.9-0.1l0.04-7.78l35.9,0.1L444.53,1113.19"/>
	<path class="st5" d="M410.44,1111.29l32.33,0.1l0.02-4.18l-32.33-0.1L410.44,1111.29z M446.36,1115.01l-39.5-0.12l0.02-11.39
		l39.5,0.12L446.36,1115.01"/>
	<path class="st1" d="M496.08,1113.32l-35.9-0.1l0.04-7.78l35.9,0.1L496.08,1113.32"/>
	<path class="st5" d="M461.91,1111.44l32.33,0.1l0.02-4.18l-32.33-0.1L461.91,1111.44z M497.84,1115.12l-39.46-0.11l0.02-11.39
		l39.46,0.11L497.84,1115.12"/>
	<path class="st1" d="M547.55,1113.47l-35.9-0.1l0.04-7.78l35.9,0.1L547.55,1113.47"/>
	<path class="st5" d="M513.46,1111.57l32.33,0.1l0.02-4.18l-32.33-0.1L513.46,1111.57z M549.35,1115.24l-39.5-0.12l0.02-11.39
		l39.5,0.12L549.35,1115.24"/>
	<path class="st1" d="M599.1,1113.6l-35.9-0.1l0.04-7.78l35.9,0.1L599.1,1113.6"/>
	<path class="st5" d="M564.94,1111.68l32.33,0.1l0.02-4.18l-32.33-0.1L564.94,1111.68z M600.85,1115.4l-39.5-0.12l0.02-11.39
		l39.5,0.12L600.85,1115.4"/>
	<path class="st5" d="M593.59,1200.39l-19.33-0.08l0.04-17.85l19.33,0.08L593.59,1200.39"/>
	<path class="st5" d="M713.93,1317.81l-49.06-0.15l0.04-15.11l49.06,0.15L713.93,1317.81"/>
	<path class="st13" d="M102.46,1301.08l-81.04-0.2l0.14-45.96l81.04,0.2L102.46,1301.08"/>
	<path class="st5" d="M35.76,1277.89c-0.02,12.88-6.44,23.28-14.32,23.29c-7.86-0.03-14.21-10.45-14.17-23.37
		c0.04-12.83,6.4-23.3,14.3-23.25C29.44,1254.59,35.8,1265.05,35.76,1277.89"/>
	<g>
		<g>
			<g>
				<defs>
					
						<rect id="SVGID_00000044863465667792271700000005483853378351846031_" x="-13.02" y="1268.72" transform="matrix(2.647626e-03 -1 1 2.647626e-03 -1286.498 1304.4734)" width="47.47" height="56.94"/>
				</defs>
				<clipPath id="SVGID_00000016764280972926767430000005608199459547058580_">
					<use xlink:href="#SVGID_00000044863465667792271700000005483853378351846031_"  style="overflow:visible;"/>
				</clipPath>
				<g style="clip-path:url(#SVGID_00000016764280972926767430000005608199459547058580_);">
					<path class="st15" d="M35.62,1280.9c0,0-28.33-1.55-40.3,12.39c-13.11,15.27-10.79,27.39-10.79,27.39l24.96,0.08
						c0,0-3.17-14.37,9.29-18.23C31.31,1298.66,33.15,1294.35,35.62,1280.9"/>
				</g>
			</g>
		</g>
	</g>
	<path class="st5" d="M211.34,1033.87l17.27,0.04l0.14-51.8l-17.27-0.03L211.34,1033.87"/>
	<path class="st5" d="M275.14,1034.05l17.27,0.04l0.14-51.8l-17.27-0.03L275.14,1034.05"/>
	<path class="st5" d="M339.09,982.42l-0.14,51.8l17.27,0.04l0.14-51.8L339.09,982.42"/>
	<path class="st5" d="M147.33,1106.4l17.27,0.04l0.13-51.76l-17.27-0.04L147.33,1106.4"/>
	<path class="st5" d="M211.13,1106.57l17.27,0.04l0.13-51.76l-17.27-0.04L211.13,1106.57"/>
	<path class="st5" d="M274.95,1106.72l17.27,0.04l0.13-51.76l-17.27-0.04L274.95,1106.72"/>
	<path class="st5" d="M338.76,1106.89l17.27,0.03l0.13-51.76l-17.27-0.04L338.76,1106.89"/>
	<path class="st5" d="M147.12,1176.45l17.27,0.04l0.13-51.76l-17.27-0.04L147.12,1176.45"/>
	<path class="st5" d="M210.93,1176.63l17.27,0.03l0.13-51.76l-17.27-0.04L210.93,1176.63"/>
	<path class="st5" d="M274.75,1176.77l17.27,0.04l0.13-51.76l-17.27-0.04L274.75,1176.77"/>
	<path class="st5" d="M338.59,1176.96l17.27,0.04l0.13-51.76l-17.27-0.04L338.59,1176.96"/>
	<path class="st5" d="M146.95,1249.17l17.27,0.04l0.13-51.76l-17.27-0.04L146.95,1249.17"/>
	<path class="st5" d="M210.76,1249.35l17.27,0.03l0.13-51.76l-17.27-0.04L210.76,1249.35"/>
	<path class="st5" d="M274.56,1249.53l17.27,0.04l0.13-51.76l-17.27-0.03L274.56,1249.53"/>
	<path class="st5" d="M338.38,1249.67l17.27,0.03l0.13-51.76l-17.27-0.04L338.38,1249.67"/>
	<path class="st5" d="M147.52,1033.73l17.27,0.04l0.14-51.8l-17.27-0.03L147.52,1033.73"/>
	<path class="st1" d="M157.11,995.55l-0.02,7.62h5.97l0.02-7.62H157.11"/>
	<path class="st1" d="M157.08,1005.15l-0.02,7.62h5.97l0.02-7.62H157.08"/>
	<path class="st1" d="M163.03,1014.81h-5.97l-0.04,7.65h5.97L163.03,1014.81"/>
	<path class="st1" d="M155.32,993.53l0.02-9.78l-5.92-0.03l-0.02,9.78L155.32,993.53"/>
	<path class="st1" d="M157.1,993.51h5.97l0.02-9.78h-5.97L157.1,993.51"/>
	<path class="st1" d="M155.3,995.51l-5.92-0.03l-0.02,7.62l5.92,0.03L155.3,995.51"/>
	<path class="st1" d="M155.22,1024.37l-5.92-0.03l-0.01,7.58l5.92,0.03L155.22,1024.37"/>
	<path class="st1" d="M157.04,1024.37l-0.01,7.58H163l0.01-7.58H157.04"/>
	<path class="st1" d="M155.27,1012.78l0.02-7.62l-5.92-0.03l-0.02,7.62L155.27,1012.78"/>
	<path class="st1" d="M155.25,1014.77l-5.92-0.03l-0.04,7.65l5.92,0.03L155.25,1014.77"/>
	<path class="st1" d="M220.97,995.7l-0.02,7.62l5.92,0.03l0.02-7.62L220.97,995.7"/>
	<path class="st1" d="M220.92,1005.34l-0.02,7.62l5.92,0.03l0.02-7.62L220.92,1005.34"/>
	<path class="st1" d="M226.85,1014.95l-5.92-0.03l-0.04,7.65l5.92,0.03L226.85,1014.95"/>
	<path class="st1" d="M219.17,993.68l0.02-9.78h-5.97l-0.02,9.78H219.17"/>
	<path class="st1" d="M220.96,993.67l5.92,0.03l0.02-9.78l-5.92-0.03L220.96,993.67"/>
	<path class="st1" d="M219.14,995.7h-5.97l-0.02,7.62h5.97L219.14,995.7"/>
	<path class="st1" d="M219.07,1024.52h-5.97l-0.01,7.58h5.97L219.07,1024.52"/>
	<path class="st1" d="M220.88,1024.56l-0.01,7.58l5.92,0.03l0.01-7.58L220.88,1024.56"/>
	<path class="st1" d="M219.11,1012.97l0.02-7.62h-5.97l-0.02,7.62H219.11"/>
	<path class="st1" d="M219.11,1014.92h-5.97l-0.04,7.65h5.97L219.11,1014.92"/>
	<path class="st1" d="M284.77,995.88l-0.02,7.62l5.92,0.03l0.02-7.62L284.77,995.88"/>
	<path class="st1" d="M284.74,1005.48l-0.02,7.62l5.92,0.03l0.02-7.62L284.74,1005.48"/>
	<path class="st1" d="M290.66,1015.12l-5.92-0.03l-0.04,7.65l5.92,0.03L290.66,1015.12"/>
	<path class="st1" d="M282.98,993.86l0.02-9.78h-5.97l-0.02,9.78H282.98"/>
	<path class="st1" d="M284.77,993.84l5.92,0.03l0.02-9.78l-5.92-0.03L284.77,993.84"/>
	<path class="st1" d="M282.96,995.84h-5.97l-0.02,7.62h5.97L282.96,995.84"/>
	<path class="st1" d="M282.88,1024.7h-5.97l-0.01,7.58h5.97L282.88,1024.7"/>
	<path class="st1" d="M284.7,1024.7l-0.01,7.58l5.92,0.03l0.01-7.58L284.7,1024.7"/>
	<path class="st1" d="M282.93,1013.11l0.02-7.62h-5.97l-0.02,7.62H282.93"/>
	<path class="st1" d="M282.91,1015.1h-5.97l-0.04,7.65h5.97L282.91,1015.1"/>
	<path class="st1" d="M348.59,996.02l-0.02,7.62h5.97l0.02-7.62H348.59"/>
	<path class="st1" d="M348.58,1005.67l-0.02,7.62h5.97l0.02-7.62H348.58"/>
	<path class="st1" d="M354.51,1015.28h-5.97l-0.04,7.65h5.97L354.51,1015.28"/>
	<path class="st1" d="M346.8,994l0.02-9.78l-5.92-0.03l-0.02,9.78L346.8,994"/>
	<path class="st1" d="M348.61,994.03h5.97l0.02-9.78h-5.97L348.61,994.03"/>
	<path class="st1" d="M346.77,996.02l-5.92-0.03l-0.02,7.62l5.92,0.03L346.77,996.02"/>
	<path class="st1" d="M346.72,1024.89l-5.92-0.03l-0.01,7.58l5.92,0.03L346.72,1024.89"/>
	<path class="st1" d="M348.51,1024.88l-0.01,7.58h5.97l0.01-7.58H348.51"/>
	<path class="st1" d="M346.73,1013.29l0.02-7.62l-5.92-0.03l-0.02,7.62L346.73,1013.29"/>
	<path class="st1" d="M346.72,1015.28l-5.92-0.03l-0.04,7.65l5.92,0.03L346.72,1015.28"/>
	<path class="st1" d="M156.53,1211.03l-0.02,7.62h5.97l0.02-7.62H156.53"/>
	<path class="st1" d="M156.5,1220.63l-0.04,7.65h5.97l0.04-7.65H156.5"/>
	<path class="st1" d="M162.46,1230.25h-5.97l-0.01,7.7h5.97L162.46,1230.25"/>
	<path class="st1" d="M154.74,1209.01l0.02-9.78l-5.92-0.03l-0.02,9.78L154.74,1209.01"/>
	<path class="st1" d="M156.56,1209.01h5.97l0.02-9.78h-5.97L156.56,1209.01"/>
	<path class="st1" d="M154.76,1211.01l-5.92-0.03l-0.02,7.62l5.92,0.03L154.76,1211.01"/>
	<path class="st1" d="M154.67,1239.86l-5.92-0.03l-0.03,7.53l5.92,0.03L154.67,1239.86"/>
	<path class="st1" d="M156.45,1239.88l-0.03,7.53h5.97l0.03-7.53H156.45"/>
	<path class="st1" d="M154.69,1228.26l0.04-7.65l-5.92-0.03l-0.04,7.65L154.69,1228.26"/>
	<path class="st1" d="M154.69,1230.21l-5.92-0.03l-0.01,7.7l5.92,0.03L154.69,1230.21"/>
	<path class="st1" d="M220.39,1211.18l-0.02,7.62l5.92,0.03l0.02-7.62L220.39,1211.18"/>
	<path class="st1" d="M220.35,1220.78l-0.04,7.65l5.92,0.03l0.04-7.65L220.35,1220.78"/>
	<path class="st1" d="M226.27,1230.43l-5.92-0.03l-0.01,7.7l5.92,0.03L226.27,1230.43"/>
	<path class="st1" d="M218.59,1209.16l0.02-9.78h-5.97l-0.02,9.78H218.59"/>
	<path class="st1" d="M220.4,1209.2l5.92,0.03l0.02-9.78l-5.92-0.03L220.4,1209.2"/>
	<path class="st1" d="M218.6,1211.2h-5.97l-0.02,7.62h5.97L218.6,1211.2"/>
	<path class="st1" d="M218.52,1240.05h-5.97l-0.03,7.53h5.97L218.52,1240.05"/>
	<path class="st1" d="M220.3,1240.04l-0.03,7.53l5.92,0.03l0.03-7.53L220.3,1240.04"/>
	<path class="st1" d="M218.53,1228.45l0.04-7.65h-5.97l-0.04,7.65H218.53"/>
	<path class="st1" d="M218.53,1230.4h-5.97l-0.01,7.7h5.97L218.53,1230.4"/>
	<path class="st1" d="M284.19,1211.36l-0.02,7.62l5.92,0.03l0.02-7.62L284.19,1211.36"/>
	<path class="st1" d="M284.16,1220.96l-0.04,7.65l5.92,0.03l0.04-7.65L284.16,1220.96"/>
	<path class="st1" d="M290.09,1230.57l-5.92-0.03l-0.01,7.7l5.92,0.03L290.09,1230.57"/>
	<path class="st1" d="M282.4,1209.34l0.02-9.78h-5.97l-0.02,9.78H282.4"/>
	<path class="st1" d="M284.22,1209.34l5.92,0.03l0.02-9.78l-5.92-0.03L284.22,1209.34"/>
	<path class="st1" d="M282.41,1211.37h-5.97l-0.02,7.62h5.97L282.41,1211.37"/>
	<path class="st1" d="M282.33,1240.2h-5.97l-0.03,7.53h5.97L282.33,1240.2"/>
	<path class="st1" d="M284.11,1240.22l-0.03,7.53l5.92,0.03l0.03-7.53L284.11,1240.22"/>
	<path class="st1" d="M282.33,1228.63l0.04-7.65h-5.97l-0.04,7.65H282.33"/>
	<path class="st1" d="M282.33,1230.58h-5.97l-0.01,7.7h5.97L282.33,1230.58"/>
	<path class="st1" d="M348,1211.54l-0.02,7.62h5.97l0.02-7.62H348"/>
	<path class="st1" d="M348,1221.15l-0.04,7.65h5.97l0.04-7.65H348"/>
	<path class="st1" d="M353.93,1230.76h-5.97l-0.01,7.7h5.97L353.93,1230.76"/>
	<path class="st1" d="M346.2,1209.52l0.02-9.78l-5.92-0.03l-0.02,9.78L346.2,1209.52"/>
	<path class="st1" d="M348.03,1209.51H354l0.02-9.78h-5.97L348.03,1209.51"/>
	<path class="st1" d="M346.22,1211.52l-5.92-0.03l-0.02,7.62l5.92,0.03L346.22,1211.52"/>
	<path class="st1" d="M346.14,1240.37l-5.92-0.03l-0.03,7.53l5.92,0.03L346.14,1240.37"/>
	<path class="st1" d="M347.96,1240.37l-0.03,7.53h5.97l0.03-7.53H347.96"/>
	<path class="st1" d="M346.19,1228.79l0.04-7.65l-5.92-0.03l-0.04,7.65L346.19,1228.79"/>
	<path class="st1" d="M346.15,1230.72l-5.92-0.03l-0.01,7.7l5.92,0.03L346.15,1230.72"/>
	<path class="st1" d="M156.74,1138.32l-0.02,7.62h5.97l0.02-7.62H156.74"/>
	<path class="st1" d="M156.7,1147.92l-0.04,7.65h5.97l0.04-7.65H156.7"/>
	<path class="st1" d="M162.64,1157.53h-5.97l-0.01,7.7h5.97L162.64,1157.53"/>
	<path class="st1" d="M154.94,1136.3l0.02-9.78l-5.92-0.03l-0.02,9.78L154.94,1136.3"/>
	<path class="st1" d="M156.73,1136.29h5.97l0.02-9.78h-5.97L156.73,1136.29"/>
	<path class="st1" d="M154.93,1138.29l-5.92-0.03l-0.02,7.62l5.92,0.03L154.93,1138.29"/>
	<path class="st1" d="M154.84,1167.14l-5.92-0.03l-0.01,7.58l5.92,0.03L154.84,1167.14"/>
	<path class="st1" d="M156.66,1167.18l-0.01,7.58h5.97l0.01-7.58H156.66"/>
	<path class="st1" d="M154.89,1155.56l0.04-7.65l-5.92-0.03l-0.04,7.65L154.89,1155.56"/>
	<path class="st1" d="M154.89,1157.51l-5.92-0.03l-0.01,7.7l5.92,0.03L154.89,1157.51"/>
	<path class="st1" d="M220.6,1138.47l-0.02,7.62l5.92,0.03l0.02-7.62L220.6,1138.47"/>
	<path class="st1" d="M220.56,1148.08l-0.04,7.65l5.92,0.03l0.04-7.65L220.56,1148.08"/>
	<path class="st1" d="M226.44,1157.71l-5.92-0.03l-0.01,7.7l5.92,0.03L226.44,1157.71"/>
	<path class="st1" d="M218.8,1136.46l0.02-9.78h-5.97l-0.02,9.78H218.8"/>
	<path class="st1" d="M220.57,1136.48l5.92,0.03l0.02-9.78l-5.92-0.03L220.57,1136.48"/>
	<path class="st1" d="M218.77,1138.48h-5.97l-0.02,7.62h5.97L218.77,1138.48"/>
	<path class="st1" d="M218.69,1167.34h-5.97l-0.01,7.58h5.97L218.69,1167.34"/>
	<path class="st1" d="M220.51,1167.33l-0.01,7.58l5.92,0.03l0.01-7.58L220.51,1167.33"/>
	<path class="st1" d="M218.74,1155.75l0.04-7.65h-5.97l-0.04,7.65H218.74"/>
	<path class="st1" d="M218.74,1157.7h-5.97l-0.01,7.7h5.97L218.74,1157.7"/>
	<path class="st1" d="M284.4,1138.65l-0.02,7.62l5.92,0.03l0.02-7.62L284.4,1138.65"/>
	<path class="st1" d="M284.37,1148.26l-0.04,7.65l5.92,0.03l0.04-7.65L284.37,1148.26"/>
	<path class="st1" d="M290.3,1157.86l-5.92-0.03l-0.01,7.7l5.92,0.03L290.3,1157.86"/>
	<path class="st1" d="M282.6,1136.63l0.02-9.78h-5.97l-0.02,9.78H282.6"/>
	<path class="st1" d="M284.39,1136.62l5.92,0.03l0.02-9.78l-5.92-0.03L284.39,1136.62"/>
	<path class="st1" d="M282.59,1138.62h-5.97l-0.02,7.62h5.97L282.59,1138.62"/>
	<path class="st1" d="M282.51,1167.48h-5.97l-0.01,7.58h5.97L282.51,1167.48"/>
	<path class="st1" d="M284.32,1167.51l-0.01,7.58l5.92,0.03l0.01-7.58L284.32,1167.51"/>
	<path class="st1" d="M282.54,1155.93l0.04-7.65h-5.97l-0.04,7.65H282.54"/>
	<path class="st1" d="M282.55,1157.84h-5.97l-0.01,7.7h5.97L282.55,1157.84"/>
	<path class="st1" d="M348.21,1138.83l-0.02,7.62h5.97l0.02-7.62H348.21"/>
	<path class="st1" d="M348.17,1148.43l-0.04,7.65h5.97l0.04-7.65H348.17"/>
	<path class="st1" d="M354.14,1158.05h-5.97l-0.01,7.7h5.97L354.14,1158.05"/>
	<path class="st1" d="M346.41,1136.81l0.02-9.78l-5.92-0.03l-0.02,9.78L346.41,1136.81"/>
	<path class="st1" d="M348.2,1136.8h5.97l0.02-9.78h-5.97L348.2,1136.8"/>
	<path class="st1" d="M346.4,1138.8l-5.92-0.03l-0.02,7.62l5.92,0.03L346.4,1138.8"/>
	<path class="st1" d="M346.35,1167.67l-5.92-0.03l-0.01,7.58l5.92,0.03L346.35,1167.67"/>
	<path class="st1" d="M348.14,1167.65l-0.01,7.58h5.97l0.01-7.58H348.14"/>
	<path class="st1" d="M346.36,1156.07l0.04-7.65l-5.92-0.03l-0.04,7.65L346.36,1156.07"/>
	<path class="st1" d="M346.36,1158.01l-5.92-0.03l-0.01,7.7l5.92,0.03L346.36,1158.01"/>
	<path class="st1" d="M156.91,1068.25l-0.02,7.62h5.97l0.02-7.62H156.91"/>
	<path class="st1" d="M156.87,1077.85l-0.04,7.65h5.97l0.04-7.65H156.87"/>
	<path class="st1" d="M162.84,1087.48h-5.97l-0.01,7.7h5.97L162.84,1087.48"/>
	<path class="st1" d="M155.11,1066.23l0.02-9.78l-5.92-0.03l-0.02,9.78L155.11,1066.23"/>
	<path class="st1" d="M156.93,1066.23h5.97l0.02-9.78h-5.97L156.93,1066.23"/>
	<path class="st1" d="M155.13,1068.23l-5.92-0.03l-0.02,7.62l5.92,0.03L155.13,1068.23"/>
	<path class="st1" d="M155.05,1097.09l-5.92-0.03l-0.01,7.58l5.92,0.03L155.05,1097.09"/>
	<path class="st1" d="M156.83,1097.07l-0.01,7.58h5.97l0.01-7.58H156.83"/>
	<path class="st1" d="M155.06,1085.49l0.04-7.65l-5.92-0.03l-0.04,7.65L155.06,1085.49"/>
	<path class="st1" d="M155.06,1087.44l-5.92-0.03l-0.01,7.7l5.92,0.03L155.06,1087.44"/>
	<path class="st1" d="M220.76,1068.41l-0.02,7.62l5.92,0.03l0.02-7.62L220.76,1068.41"/>
	<path class="st1" d="M220.73,1078.01l-0.04,7.65l5.92,0.03l0.04-7.65L220.73,1078.01"/>
	<path class="st1" d="M226.64,1087.65l-5.92-0.03l-0.01,7.7l5.92,0.03L226.64,1087.65"/>
	<path class="st1" d="M218.96,1066.39l0.02-9.78h-5.97l-0.02,9.78H218.96"/>
	<path class="st1" d="M220.79,1066.39l5.92,0.03l0.02-9.78l-5.92-0.03L220.79,1066.39"/>
	<path class="st1" d="M218.97,1068.42H213l-0.02,7.62h5.97L218.97,1068.42"/>
	<path class="st1" d="M218.9,1097.24h-5.97l-0.01,7.58h5.97L218.9,1097.24"/>
	<path class="st1" d="M220.68,1097.26l-0.01,7.58l5.92,0.03l0.01-7.58L220.68,1097.26"/>
	<path class="st1" d="M218.9,1085.68l0.04-7.65h-5.97l-0.04,7.65H218.9"/>
	<path class="st1" d="M218.9,1087.63h-5.97l-0.01,7.7h5.97L218.9,1087.63"/>
	<path class="st1" d="M284.57,1068.58l-0.02,7.62l5.92,0.03l0.02-7.62L284.57,1068.58"/>
	<path class="st1" d="M284.57,1078.2l-0.04,7.65l5.92,0.03l0.04-7.65L284.57,1078.2"/>
	<path class="st1" d="M290.46,1087.79l-5.92-0.03l-0.01,7.7l5.92,0.03L290.46,1087.79"/>
	<path class="st1" d="M282.77,1066.57l0.02-9.78h-5.97l-0.02,9.78H282.77"/>
	<path class="st1" d="M284.59,1066.56l5.92,0.03l0.02-9.78l-5.92-0.03L284.59,1066.56"/>
	<path class="st1" d="M282.79,1068.56h-5.97l-0.02,7.62h5.97L282.79,1068.56"/>
	<path class="st1" d="M282.71,1097.42h-5.97l-0.01,7.58h5.97L282.71,1097.42"/>
	<path class="st1" d="M284.48,1097.44l-0.01,7.58l5.92,0.03l0.01-7.58L284.48,1097.44"/>
	<path class="st1" d="M282.76,1085.83l0.04-7.65h-5.97l-0.04,7.65H282.76"/>
	<path class="st1" d="M282.72,1087.77h-5.97l-0.01,7.7h5.97L282.72,1087.77"/>
	<path class="st1" d="M348.39,1068.72l-0.02,7.62h5.97l0.02-7.62H348.39"/>
	<path class="st1" d="M348.39,1078.34l-0.04,7.65h5.97l0.04-7.65H348.39"/>
	<path class="st1" d="M354.3,1087.98h-5.97l-0.01,7.7h5.97L354.3,1087.98"/>
	<path class="st1" d="M346.59,1066.71l0.02-9.78l-5.92-0.03l-0.02,9.78L346.59,1066.71"/>
	<path class="st1" d="M348.4,1066.74h5.97l0.02-9.78h-5.97L348.4,1066.74"/>
	<path class="st1" d="M346.6,1068.74l-5.92-0.03l-0.02,7.62l5.92,0.03L346.6,1068.74"/>
	<path class="st1" d="M346.51,1097.6l-5.92-0.03l-0.01,7.58l5.92,0.03L346.51,1097.6"/>
	<path class="st1" d="M348.34,1097.6l-0.01,7.58h5.97l0.01-7.58H348.34"/>
	<path class="st1" d="M346.56,1086.01l0.04-7.65l-5.92-0.03l-0.04,7.65L346.56,1086.01"/>
	<path class="st1" d="M346.56,1087.96l-5.92-0.03l-0.01,7.7l5.92,0.03L346.56,1087.96"/>
	<path class="st5" d="M633.68,1112.65l17.27,0.04l0.13-51.76l-17.27-0.04L633.68,1112.65"/>
	<path class="st1" d="M643.3,1074.52l-0.02,7.62l5.92,0.03l0.02-7.62L643.3,1074.52"/>
	<path class="st1" d="M643.26,1084.12l-0.04,7.65l5.92,0.03l0.04-7.65L643.26,1084.12"/>
	<path class="st1" d="M649.19,1093.73l-5.92-0.03l-0.01,7.7l5.92,0.03L649.19,1093.73"/>
	<path class="st1" d="M641.5,1072.5l0.02-9.78h-5.97l-0.02,9.78H641.5"/>
	<path class="st1" d="M643.33,1072.5l5.92,0.03l0.02-9.78l-5.92-0.03L643.33,1072.5"/>
	<path class="st1" d="M641.52,1074.5h-5.97l-0.02,7.62h5.97L641.52,1074.5"/>
	<path class="st1" d="M641.42,1103.31h-5.97l-0.01,7.58h5.97L641.42,1103.31"/>
	<path class="st1" d="M643.23,1103.34l-0.01,7.58l5.92,0.03l0.01-7.58L643.23,1103.34"/>
	<path class="st1" d="M641.45,1091.76l0.04-7.65h-5.97l-0.04,7.65H641.45"/>
	<path class="st1" d="M641.45,1093.7h-5.97l-0.01,7.7h5.97L641.45,1093.7"/>
	<path class="st5" d="M681.3,1113.93l17.27,0.03l0.13-51.76l-17.27-0.04L681.3,1113.93"/>
	<path class="st1" d="M690.93,1075.76l-0.02,7.62l5.92,0.03l0.02-7.62L690.93,1075.76"/>
	<path class="st1" d="M690.93,1085.38l-0.04,7.65l5.92,0.03l0.04-7.65L690.93,1085.38"/>
	<path class="st1" d="M696.84,1095.02l-5.92-0.03l-0.04,7.65l5.92,0.03L696.84,1095.02"/>
	<path class="st1" d="M689.13,1073.74l0.02-9.78h-5.97l-0.02,9.78H689.13"/>
	<path class="st1" d="M690.95,1073.74l5.92,0.03l0.02-9.78l-5.92-0.03L690.95,1073.74"/>
	<path class="st1" d="M689.14,1075.78h-5.97l-0.02,7.62h5.97L689.14,1075.78"/>
	<path class="st1" d="M689.07,1104.6h-5.97l-0.01,7.58h5.97L689.07,1104.6"/>
	<path class="st1" d="M690.88,1104.63l-0.01,7.58l5.92,0.03l0.01-7.58L690.88,1104.63"/>
	<path class="st1" d="M689.1,1093.05l0.04-7.65h-5.97l-0.04,7.65H689.1"/>
	<path class="st1" d="M689.1,1095h-5.97l-0.04,7.65h5.97L689.1,1095"/>
	<path class="st5" d="M725.39,1115.22l17.27,0.03l0.14-51.8l-17.27-0.04L725.39,1115.22"/>
	<path class="st1" d="M735.02,1077.05l-0.01,7.58h5.97l0.01-7.58H735.02"/>
	<path class="st1" d="M734.98,1086.65l-0.02,7.62h5.97l0.02-7.62H734.98"/>
	<path class="st1" d="M740.95,1096.27h-5.97l-0.04,7.65h5.97L740.95,1096.27"/>
	<path class="st1" d="M733.23,1074.99l0.02-9.78l-5.92-0.03l-0.02,9.78L733.23,1074.99"/>
	<path class="st1" d="M735.02,1074.98h5.97l0.02-9.78h-5.97L735.02,1074.98"/>
	<path class="st1" d="M733.19,1077.05l-5.92-0.03l-0.01,7.58l5.92,0.03L733.19,1077.05"/>
	<path class="st1" d="M733.12,1105.87l-5.92-0.03l-0.01,7.58l5.92,0.03L733.12,1105.87"/>
	<path class="st1" d="M734.94,1105.87l-0.01,7.58h5.97l0.01-7.58H734.94"/>
	<path class="st1" d="M733.17,1094.29l0.02-7.62l-5.92-0.03l-0.02,7.62L733.17,1094.29"/>
	<path class="st1" d="M733.16,1096.27l-5.92-0.03l-0.04,7.65l5.92,0.03L733.16,1096.27"/>
	<path class="st5" d="M433.02,1221.34l-6.71-0.02l0.06-23.19l6.71,0.02L433.02,1221.34"/>
	<path class="st5" d="M432.84,1293.64l-6.71-0.02l0.06-23.19l6.71,0.02L432.84,1293.64"/>
	<path class="st5" d="M432.93,1255.96l-6.71-0.02l0.06-23.19l6.71,0.02L432.93,1255.96"/>
	<path class="st1" d="M697.38,1190.87l-20.99-0.06l-0.15,56.52l20.99,0.06L697.38,1190.87"/>
	<path class="st1" d="M664.73,1247.28l0.15-56.52l-21.03-0.07l-0.15,56.52L664.73,1247.28"/>
	<path class="st1" d="M729.88,1190.95l-20.99-0.06l-0.15,56.52l20.99,0.06L729.88,1190.95"/>
	<path class="st1" d="M632.36,1190.71l-14.45-0.05l-0.15,56.52l14.45,0.05L632.36,1190.71"/>
	<path class="st1" d="M741.35,1191l-0.15,56.52l13.53,0.05l0.15-56.52L741.35,1191"/>
</g>
<g>
	<rect x="3.37" y="1318" class="st16" width="800" height="84"/>
	<g class="st17">
		<line class="st18" x1="-2.13" y1="1359.33" x2="803.87" y2="1359.67"/>
		<g>
			<line class="st19" x1="-2.13" y1="1359.33" x2="3.87" y2="1359.33"/>
			<line class="st20" x1="15.72" y1="1359.34" x2="791.95" y2="1359.66"/>
			<line class="st19" x1="797.87" y1="1359.67" x2="803.87" y2="1359.67"/>
		</g>
	</g>
</g>
<g class="st0">
	<path class="st21" d="M210.69,793c-9.13-11.16-22.77-15.75-36.12-12.41c-14.56,3.64-22.78,17.55-36.33,23.12
		c-23.64,9.71-56.32-9.47-74.27,15.55c-21.96,30.6-38.92,7.65-38.92,28.42c0,20.77,151.69,5.47,226.54,6.56
		c10.81,0.16,57.76-0.63,37.55-23.08c-6.28-6.97-15.23-8.14-23.58-9.77c-10.88-2.13-36.76-3.29-44.65-11.76
		c-4.24-4.56-5.88-11.11-9.71-15.98C211.04,793.42,210.87,793.21,210.69,793z"/>
	<path class="st21" d="M730.13,148.84c-5.3-7.53-13.21-10.63-20.97-8.38c-8.45,2.46-13.22,11.85-21.09,15.6
		c-13.72,6.55-32.69-6.39-43.11,10.5c-12.74,20.66-22.59,5.16-22.59,19.18c0,14.02,88.05,3.69,131.49,4.43
		c6.28,0.11,33.53-0.43,21.8-15.58c-3.64-4.7-8.84-5.49-13.69-6.59c-6.32-1.44-21.34-2.22-25.91-7.94
		c-2.46-3.08-3.41-7.5-5.63-10.79C730.33,149.13,730.23,148.98,730.13,148.84z"/>
	<path class="st21" d="M631.97,167.07c-9.13-11.16-22.77-15.75-36.12-12.41c-14.56,3.64-22.78,17.55-36.33,23.12
		c-23.64,9.71-56.32-9.47-74.27,15.55c-21.96,30.6-38.92,7.65-38.92,28.42s151.69,5.47,226.54,6.56
		c10.81,0.16,57.76-0.63,37.55-23.08c-6.28-6.97-15.23-8.14-23.58-9.77c-10.88-2.13-36.76-3.29-44.65-11.76
		c-4.24-4.56-5.88-11.11-9.71-15.98C632.32,167.5,632.15,167.28,631.97,167.07z"/>
	<path class="st21" d="M244.97,74.55c-9.13-11.16-22.77-15.75-36.12-12.41c-14.56,3.64-22.78,17.55-36.33,23.12
		c-23.64,9.71-56.32-9.47-74.27,15.55c-21.96,30.6-38.92,7.65-38.92,28.42s151.69,5.47,226.54,6.56
		c10.81,0.16,57.76-0.63,37.55-23.08c-6.28-6.97-15.23-8.14-23.58-9.77c-10.88-2.13-36.76-3.29-44.65-11.76
		c-4.24-4.56-5.88-11.11-9.71-15.98C245.31,74.98,245.14,74.76,244.97,74.55z"/>
</g>
<path class="st22" d="M235.93,1217.91"/>
<g class="st0">
	<path class="st21" d="M204.47,1029.38c-9.13-11.16-22.77-15.75-36.12-12.41c-14.56,3.64-22.78,17.55-36.33,23.12
		c-23.64,9.71-56.32-9.47-74.27,15.55c-21.96,30.6-38.92,7.65-38.92,28.42s151.69,5.47,226.54,6.56
		c10.81,0.16,57.76-0.63,37.55-23.08c-6.28-6.97-15.23-8.14-23.58-9.77c-10.88-2.13-36.76-3.29-44.65-11.76
		c-4.24-4.56-5.88-11.11-9.71-15.98C204.82,1029.8,204.64,1029.59,204.47,1029.38z"/>
	<path class="st21" d="M723.91,385.22c-5.3-7.53-13.21-10.63-20.97-8.38c-8.45,2.46-13.22,11.85-21.09,15.6
		c-13.72,6.55-32.69-6.39-43.11,10.5c-12.74,20.66-22.59,5.16-22.59,19.18s88.05,3.69,131.49,4.43c6.28,0.11,33.53-0.43,21.8-15.58
		c-3.64-4.7-8.84-5.49-13.69-6.59c-6.32-1.44-21.34-2.22-25.91-7.94c-2.46-3.08-3.41-7.5-5.63-10.79
		C724.11,385.51,724.01,385.36,723.91,385.22z"/>
	<path class="st21" d="M625.75,403.45c-9.13-11.16-22.77-15.75-36.12-12.41c-14.56,3.64-22.78,17.55-36.33,23.12
		c-23.64,9.71-56.32-9.47-74.27,15.55c-21.96,30.6-38.92,7.65-38.92,28.42c0,20.77,151.69,5.47,226.54,6.56
		c10.81,0.16,57.76-0.63,37.55-23.08c-6.28-6.97-15.23-8.14-23.58-9.77c-10.88-2.13-36.76-3.29-44.65-11.76
		c-4.24-4.56-5.88-11.11-9.71-15.98C626.1,403.88,625.92,403.66,625.75,403.45z"/>
	<path class="st21" d="M238.75,310.93c-9.13-11.16-22.77-15.75-36.12-12.41c-14.56,3.64-22.78,17.55-36.33,23.12
		c-23.64,9.71-56.32-9.47-74.27,15.55c-21.96,30.6-38.92,7.65-38.92,28.42c0,20.77,151.69,5.47,226.54,6.56
		c10.81,0.16,57.76-0.63,37.55-23.08c-6.28-6.97-15.23-8.14-23.58-9.77c-10.88-2.13-36.76-3.29-44.65-11.76
		c-4.24-4.56-5.88-11.11-9.71-15.98C239.09,311.36,238.92,311.14,238.75,310.93z"/>
</g>
</svg>
