<?xml version="1.0" encoding="utf-8"?>
<!-- Generator: Adobe Illustrator 28.3.0, SVG Export Plug-In . SVG Version: 6.00 Build 0)  -->
<svg version="1.1" id="Layer_1" xmlns="http://www.w3.org/2000/svg" xmlns:xlink="http://www.w3.org/1999/xlink" x="0px" y="0px"
	 viewBox="0 0 262.09 258.54" style="enable-background:new 0 0 262.09 258.54;" xml:space="preserve">
<style type="text/css">
	.st0{fill:#259306;stroke:#323031;stroke-width:4;stroke-miterlimit:10;}
</style>
<g id="Objects">
	<path class="st0" d="M249.46,83.87c-3.16-8.41-7.19-16.48-11.91-24.12c-1.51-2.44-5.54-3.46-7.13-0.55
		c-1.67,3.07-3.54,5.62-4.33,6.7c-0.01,0.01-0.01,0.02-0.02,0.03c-1.31,1.79-1.45,4.19-0.36,6.12
		c9.32,16.53,14.95,35.15,15.13,54.09c0.03,2.46-0.02,5.5-0.2,7.95c-0.15,2.53-0.45,5.4-0.87,7.9c-1.07,6.93-3.15,13.8-5.41,20.44
		c-0.54,1.4-1.29,3.56-1.89,4.92l-1.01,2.43c-0.38,0.79-1.29,2.83-1.67,3.6c-0.39,0.75-1.4,2.76-1.8,3.53
		c-1.23,2.24-2.63,4.73-3.99,6.87c-6.41,10.1-14.47,19.21-23.66,26.87c-9.21,7.65-19.64,13.92-30.74,18.41
		c-2.37,0.94-5.1,1.92-7.5,2.71c-0.79,0.25-3.09,0.91-3.81,1.14c-0.88,0.25-2.92,0.74-3.85,1c-39.78,9.61-84.39-6.07-109.57-38.29
		c-17.55-22.33-25.95-52.01-21.84-80.17c4.26-28.36,21.32-54.02,43.79-71.56c33.53-26.32,83.18-30.56,121.02-10.97
		c2.56,1.32,6.48,0.89,8.7-0.94c1.87-1.55,2.22-2.52,3.92-4.33c2.29-2.43,1.42-5.4-1.01-6.85c-1.31-0.78-2.65-1.55-3.67-2.06
		C150.3-4.58,91.09,1.61,52.43,35.39C29.41,55.24,12.39,82.78,7.76,113.13C0.08,162.14,25.59,213.7,69.17,237.35
		c22.34,12.48,48.43,18.35,73.97,15.81c2.79-0.24,6.42-0.78,9.18-1.27c3.98-0.7,8.14-1.65,12.02-2.77
		c15.76-4.45,30.62-12.11,43.61-22.06c11.34-8.73,21.38-19.28,29.36-31.17c3.14-4.63,6.02-9.67,8.52-14.67
		c0.98-2.04,2.33-4.95,3.18-7.05c0.7-1.59,1.62-4.14,2.25-5.78c0.31-0.96,1.16-3.47,1.44-4.4c0.38-1.45,0.89-3.03,1.23-4.47
		c1.2-4.92,2.14-10.17,2.72-15.2C259.33,123.92,256.78,103.08,249.46,83.87z"/>
	<path class="st0" d="M237.31,21.52c-2.19-3.65-6.93-4.83-10.58-2.64c-0.94,0.57-1.81,1.2-2.65,1.85
		c-3.88,2.89-7.94,7.55-11.21,11.06c-28.75,31.01-54.81,64.76-76.31,101.28c-2.14,3.56-4.36,7.46-6.15,11.2
		c-1.73,3.53-3.57,7.42-5.21,11.01c-11.31-20.7-29.1-43.42-50.22-52.71c-8.44-3.49-16.8,5.4-12.62,13.65
		c1.24,2.43,2.69,4.7,4.13,6.99c7.06,11.12,15.35,21.28,22.69,32.17c9.32,13.64,17.17,28.09,24.76,42.72
		c5.23,9.87,20.04,8.39,23.16-2.44c5.24-11.02,10.62-21.9,16.37-32.63c1.84-3.48,3.96-7.19,5.73-10.69
		c1.72-3.44,3.65-7.43,5.43-10.85c14.81-28.98,32.57-56.32,51.78-82.65c3.26-4.44,7.7-10.45,11.03-14.84
		c2.12-2.84,5.51-7.02,7.33-9.97c1.13-1.78,2.2-3.59,3.02-5.56C238.73,26.28,238.63,23.71,237.31,21.52z"/>
</g>
</svg>
