<?xml version="1.0" encoding="utf-8"?>
<!-- Generator: Adobe Illustrator 28.3.0, SVG Export Plug-In . SVG Version: 6.00 Build 0)  -->
<svg version="1.1" id="Layer_1" xmlns="http://www.w3.org/2000/svg" xmlns:xlink="http://www.w3.org/1999/xlink" x="0px" y="0px"
	 viewBox="0 0 444 297" style="enable-background:new 0 0 444 297;" xml:space="preserve">
<style type="text/css">
	.st0{display:none;fill:#426646;}
	.st1{opacity:0.65;fill:#FFFFFF;}
</style>
<path class="st0" d="M232.81,779.44c3.73,59.65,34.8,136.7,34.8,136.7s11.18,55.92,123.03,103.15
	c19.11-7.03,78.89-31.74,120.55-96.94c26.1-67.11,38.96-130.11,37.28-150.38c-11.21-70.41-67.41-161.74-152.86-164.05
	C305.85,605.51,242.29,702.88,232.81,779.44z"/>
<path class="st1" d="M266.53,109.24c-9.13-11.16-22.77-15.75-36.12-12.41c-14.56,3.64-22.78,17.55-36.33,23.12
	c-23.64,9.71-56.32-9.47-74.27,15.55c-21.96,30.6-38.92,7.65-38.92,28.42c0,20.77,151.69,5.47,226.54,6.56
	c10.81,0.16,57.76-0.63,37.55-23.08c-6.28-6.97-15.23-8.14-23.58-9.77c-10.88-2.13-36.76-3.29-44.65-11.76
	c-4.24-4.56-5.88-11.11-9.71-15.98C266.87,109.67,266.7,109.45,266.53,109.24z"/>
</svg>
