<svg width="2698" height="1733" xmlns="http://www.w3.org/2000/svg" xmlns:xlink="http://www.w3.org/1999/xlink" xml:space="preserve" overflow="hidden"><defs><clipPath id="clip0"><rect x="686" y="341" width="2698" height="1733"/></clipPath></defs><g clip-path="url(#clip0)" transform="translate(-686 -341)"><path d="M471.058 1733 2226.94 1733C2487.1 1733 2698 1521.99 2698 1261.69 2697.69 1133.21 2697.37 1004.74 2697.06 876.259L2697.61 876.586C2711.66 303.3 2344.47 7.63435 2301.7 0 2227.24 43.5947 2466.38 360.473 2037.45 418.784L1993.3 423.622 471.058 423.622C210.9 423.622 0 634.635 0 894.933L0 1261.69C0 1521.99 210.9 1733 471.058 1733Z" fill="#FFFFFF" fill-rule="evenodd" fill-opacity="0.6" transform="matrix(1 0 0 -1 686 2074)"/></g></svg>