<?xml version="1.0" encoding="utf-8"?>
<!-- Generator: Adobe Illustrator 28.3.0, SVG Export Plug-In . SVG Version: 6.00 Build 0)  -->
<svg version="1.1" id="Layer_1" xmlns="http://www.w3.org/2000/svg" xmlns:xlink="http://www.w3.org/1999/xlink" x="0px" y="0px"
	 viewBox="0 0 916 850" style="enable-background:new 0 0 916 850;" xml:space="preserve">
<style type="text/css">
	.st0{opacity:0.6;fill:#CCCCCC;}
	.st1{display:none;fill:#426646;}
	.st2{fill:none;stroke:#000000;stroke-miterlimit:10;}
	.st3{fill:#20382B;stroke:#000000;stroke-miterlimit:10;}
	.st4{fill:#FFE3CB;stroke:#000000;stroke-miterlimit:10;}
	.st5{fill:#FFB995;}
	.st6{fill:#332C26;stroke:#000000;stroke-miterlimit:10;}
	.st7{fill:#332C26;}
	.st8{fill:none;stroke:#FFB995;stroke-miterlimit:10;}
	.st9{fill:#FFB995;stroke:#000000;stroke-width:0.5;stroke-miterlimit:10;}
	.st10{fill:#577F5A;stroke:#000000;stroke-miterlimit:10;}
	.st11{fill:#577F5A;}
	.st12{fill:#FFFFFF;stroke:#000000;stroke-miterlimit:10;}
	.st13{fill:#20382B;}
	.st14{fill:none;stroke:#20382B;stroke-miterlimit:10;}
	.st15{fill:#BC6F22;}
	.st16{fill:#3C3B51;stroke:#000000;stroke-width:3;stroke-miterlimit:10;}
	.st17{fill:none;stroke:#000000;stroke-width:13;stroke-miterlimit:10;}
	.st18{fill:#576C9E;}
	.st19{fill:#C87529;stroke:#000000;stroke-miterlimit:10;}
	.st20{fill:#4C3A2C;stroke:#000000;stroke-miterlimit:10;}
	.st21{fill:#486D4A;}
	.st22{fill:#FFEC43;}
	.st23{stroke:#CE3838;stroke-miterlimit:10;}
	.st24{fill:#FFFFFF;}
	.st25{fill:none;stroke:#000000;stroke-width:4;stroke-miterlimit:10;}
	.st26{stroke:#000000;stroke-miterlimit:10;}
	.st27{fill:none;stroke:#000000;stroke-width:3;stroke-miterlimit:10;}
</style>
<path class="st0" d="M828,438c0,122.12-57.91,230.7-147.75,299.78c-3.23,2.49-6.51,4.93-9.82,7.31c-0.5,0.36-0.99,0.72-1.48,1.07
	c-0.39,0.28-0.78,0.55-1.17,0.82c-0.27,0.2-0.53,0.38-0.8,0.56c-0.42,0.31-0.85,0.61-1.29,0.91c-1.28,0.89-2.57,1.78-3.86,2.65
	c-2.25,1.53-4.53,3.04-6.83,4.51c-0.76,0.51-1.52,1-2.29,1.49c-2.34,1.49-4.69,2.95-7.06,4.38c-2.43,1.47-4.87,2.92-7.34,4.33
	c-6.49,3.75-13.11,7.3-19.85,10.65c-0.69,0.36-1.38,0.69-2.08,1.04c-3.79,1.87-7.62,3.67-11.48,5.4c-0.55,0.25-1.09,0.49-1.63,0.73
	c-0.34,0.15-0.67,0.3-1,0.45c-2.32,1.02-4.66,2.02-6.99,2.98c-2.3,0.97-4.6,1.9-6.91,2.82c-27.75,10.91-57.11,18.64-87.61,22.74
	c-1.35,0.18-2.69,0.35-4.04,0.51h-0.01c-2.59,0.33-5.19,0.62-7.8,0.89h-0.01c-1,0.1-1.97,0.2-2.97,0.29h-0.01
	c-0.09,0.01-0.18,0.02-0.27,0.02c-0.56,0.06-1.11,0.12-1.67,0.17c-3.85,0.33-7.73,0.63-11.62,0.85c-0.77,0.05-1.55,0.09-2.32,0.13
	C463.4,815.83,456.73,816,450,816c-11.67,0-23.2-0.53-34.6-1.56c-1.19-0.11-2.38-0.23-3.57-0.35c-0.64-0.06-1.28-0.13-1.92-0.2
	h-0.01c-1.42-0.15-2.83-0.3-4.24-0.48c-21.01-2.44-41.5-6.62-61.32-12.38c-3.28-0.95-6.55-1.95-9.79-3
	c-2.06-0.65-4.1-1.33-6.14-2.02c-0.21-0.07-0.42-0.14-0.63-0.21h-0.02c-1.45-0.49-2.89-1-4.32-1.51c-2.67-0.95-5.32-1.93-7.97-2.93
	c-4.14-1.59-8.26-3.23-12.33-4.95h-0.02c-1.2-0.51-2.4-1.02-3.6-1.54c-9.67-4.2-19.12-8.8-28.35-13.77
	c-2.84-1.53-5.66-3.09-8.44-4.69c-0.01-0.01-0.03-0.01-0.04-0.02c-0.23-0.12-0.43-0.24-0.64-0.36c-0.19-0.1-0.36-0.21-0.54-0.32
	c-3.72-2.14-7.4-4.35-11.04-6.61C143.31,692.38,72,573.51,72,438C72,229.24,241.24,60,450,60S828,229.24,828,438z"/>
<path class="st1" d="M443.81,882.44c3.73,59.65,34.8,136.7,34.8,136.7s11.18,55.92,123.03,103.15
	c19.11-7.03,78.89-31.74,120.55-96.94c26.1-67.11,38.96-130.11,37.28-150.38c-11.21-70.41-67.41-161.74-152.86-164.05
	C516.85,708.51,453.29,805.88,443.81,882.44z"/>
<path class="st2" d="M839.74,74.41L839.74,74.41L839.74,74.41z"/>
<path class="st3" d="M390.64,513.6c47.91-1.33,95.82-2.67,143.73-4c-1.4,36.83-32.91,66.41-70.82,67
	C426.31,577.18,394.18,549.62,390.64,513.6z"/>
<path class="st4" d="M527.08,467.6c2.74,23.55-6.25,13-8.33,90c-3.06,9.27-9.34,25.81-22.91,43c-10.44,13.22-19.43,24.6-31.25,25
	c-19.71,0.66-34.95-29.65-41.66-43c-14.08-28-6.25-64-11.46-106C433.39,450.36,483.01,443.7,527.08,467.6z"/>
<g>
	<path class="st5" d="M413.1,476.87c12.86-6.82,38.67-18.14,72.21-16.88c17.14,0.64,31.39,4.39,41.79,8.11c-2.06,15-4.11,30-6.17,45
		c0,0-23.66,18.75-37.31,22.96c-17.66,5.46-33.66,4.92-47.87,4.21c-8.66-0.43-15.79-1.39-20.65-2.18L413.1,476.87z"/>
</g>
<path class="st6" d="M608.24,358.91c18.2-27.54,18.94-56.75,19-61c0.83-63.46-55.75-107.19-59.36-109.9
	c-9.16-6.87-26.82-18.57-59.58-27.36c0,0-3.31-0.91-6.97-1.78c-58.04-13.81-116.09-5.79-116.09-5.79
	c-59.57,8.24-105.14,33.13-104,36.83c1.25,4.05,57.99-19.41,129.83-1.43c0.2,0.05,0.36,0.09,0.49,0.12c-10.92-5.08-26.96-10.06-45-7
	c-35.93,6.1-65.83,41.72-73.33,89.31c-1.28,18.09-1.2,55.74,21.84,91.27c0,0,10.47,13,21.48,25.42
	C406.57,466.55,563.08,427.26,608.24,358.91z"/>
<path class="st4" d="M311.57,349.6c-10.38,4.58-10.06,25.47-10,28c1.09,43.16,55.54,68.45,59,70c12.05,5.4,24.6,11.04,30,6
	c10.43-9.73-12.72-52.96-40-81C341.17,362.94,323.19,344.47,311.57,349.6z"/>
<path class="st4" d="M614.99,350.04c10.38,4.58,10.06,25.47,10,28c-1.09,43.16-55.54,68.45-59,70c-12.05,5.4-24.6,11.04-30,6
	c-10.43-9.73,12.72-52.96,40-81C585.38,363.38,603.36,344.91,614.99,350.04z"/>
<path class="st4" d="M337.57,334.6c3,48,28,110,28,110s9,45,99,83c15.38-5.65,63.48-25.54,97-78c21-54,31.35-104.69,30-121
	c-9.02-56.66-54.24-130.14-123-132C396.34,194.65,345.2,273,337.57,334.6z"/>
<path class="st2" d="M337.57,384.48"/>
<path class="st7" d="M602.57,338.6c16.73-14.19-7.66-108.46-76-144c-65.01-33.81-154.86-6.63-191,51c-20.21,32.23-27.97,79.73-11,92
	c5.46,3.95,11.23,0.28,47.1-13.71c56.67-22.11,71.85-25.07,84.9-26.29c19.23-1.8,34.34,0.14,41.3,1.25
	c13.72,2.19,27.61,6.44,43.88,13.56c18.83,11.38,37.07,35.73,54.57,29.82C597.02,341.98,600.1,340.69,602.57,338.6z"/>
<path class="st8" d="M313.57,363.6c-1.18,3.76-3.06,11.56-1,21c1.38,6.34,4.03,11.08,6,14"/>
<path class="st8" d="M614.67,362.43c1.18,3.76,3.06,11.56,1,21c-1.38,6.34-4.03,11.08-6,14"/>
<line class="st8" x1="464.57" y1="380.6" x2="451.57" y2="388.6"/>
<line class="st8" x1="468.57" y1="384.6" x2="447.57" y2="397.6"/>
<line class="st8" x1="473.57" y1="388.6" x2="446.57" y2="405.6"/>
<line class="st8" x1="475.57" y1="392.6" x2="447.57" y2="409.6"/>
<line class="st8" x1="476.57" y1="398.6" x2="447.57" y2="415.6"/>
<path class="st9" d="M464.57,424.1c-0.17,4-0.33,8-0.5,12c-1.83-1.67-3.67-3.33-5.5-5"/>
<g>
	<g>
		<path class="st5" d="M366.5,419.39c-0.61,0.82-1.22,1.63-1.83,2.45c-0.11,0.17-0.17,0.36-0.18,0.56c-0.04,0.2-0.04,0.4,0.03,0.6
			c0.1,0.35,0.36,0.73,0.69,0.9c0.35,0.18,0.77,0.28,1.16,0.15c0.12-0.05,0.24-0.1,0.36-0.15c0.23-0.13,0.4-0.31,0.54-0.54
			c0.61-0.82,1.22-1.63,1.83-2.45c0.11-0.17,0.17-0.36,0.18-0.56c0.04-0.2,0.04-0.4-0.03-0.6c-0.1-0.35-0.36-0.73-0.69-0.9
			c-0.35-0.18-0.77-0.28-1.16-0.15c-0.12,0.05-0.24,0.1-0.36,0.15C366.81,418.98,366.63,419.16,366.5,419.39L366.5,419.39z"/>
	</g>
</g>
<g>
	<g>
		<path class="st5" d="M374.45,423.12c-0.2,0.31-0.41,0.61-0.61,0.92c-0.11,0.17-0.17,0.36-0.18,0.56c-0.04,0.2-0.04,0.4,0.03,0.6
			c0.05,0.2,0.14,0.37,0.27,0.51c0.11,0.16,0.25,0.29,0.42,0.39c0.12,0.05,0.24,0.1,0.36,0.15c0.27,0.07,0.53,0.07,0.8,0
			c0.12-0.05,0.24-0.1,0.36-0.15c0.23-0.13,0.4-0.31,0.54-0.54c0.2-0.31,0.41-0.61,0.61-0.92c0.11-0.17,0.17-0.36,0.18-0.56
			c0.04-0.2,0.04-0.4-0.03-0.6c-0.05-0.2-0.14-0.37-0.27-0.51c-0.11-0.16-0.25-0.29-0.42-0.39c-0.12-0.05-0.24-0.1-0.36-0.15
			c-0.27-0.07-0.53-0.07-0.8,0c-0.12,0.05-0.24,0.1-0.36,0.15C374.76,422.72,374.58,422.9,374.45,423.12L374.45,423.12z"/>
	</g>
</g>
<g>
	<g>
		<path class="st5" d="M545.93,422.97c0,0.51,0,1.02,0,1.53c-0.01,0.21,0.04,0.4,0.13,0.58c0.06,0.19,0.16,0.35,0.31,0.48
			c0.14,0.15,0.3,0.25,0.48,0.31c0.18,0.09,0.37,0.14,0.58,0.13c0.13-0.02,0.27-0.04,0.4-0.05c0.25-0.07,0.47-0.2,0.66-0.39
			c0.27-0.29,0.44-0.65,0.44-1.06c0-0.51,0-1.02,0-1.53c0.01-0.21-0.04-0.4-0.13-0.58c-0.06-0.19-0.16-0.35-0.31-0.48
			c-0.14-0.15-0.3-0.25-0.48-0.31c-0.18-0.09-0.37-0.14-0.58-0.13c-0.13,0.02-0.27,0.04-0.4,0.05c-0.25,0.07-0.47,0.2-0.66,0.39
			C546.1,422.2,545.93,422.56,545.93,422.97L545.93,422.97z"/>
	</g>
</g>
<g>
	<g>
		<path class="st5" d="M554.49,420.78c0.01,0.01,0.02,0.03,0.04,0.04c-0.08-0.1-0.16-0.2-0.23-0.3c0.24,0.32,0.44,0.66,0.6,1.03
			c-0.05-0.12-0.1-0.24-0.15-0.36c0.17,0.4,0.28,0.82,0.34,1.26c-0.02-0.13-0.04-0.27-0.05-0.4c0.05,0.38,0.05,0.76,0.01,1.13
			c-0.04,0.36,0.2,0.82,0.44,1.06c0.26,0.26,0.69,0.46,1.06,0.44c0.39-0.02,0.79-0.14,1.06-0.44c0.08-0.1,0.16-0.2,0.23-0.3
			c0.14-0.23,0.2-0.49,0.2-0.76c0.08-0.75,0-1.53-0.21-2.25c-0.12-0.4-0.28-0.8-0.47-1.18c-0.2-0.4-0.47-0.74-0.74-1.09
			c-0.22-0.28-0.72-0.44-1.06-0.44c-0.37,0-0.81,0.16-1.06,0.44c-0.26,0.29-0.46,0.66-0.44,1.06c0.02,0.13,0.04,0.27,0.05,0.4
			C554.17,420.37,554.3,420.59,554.49,420.78L554.49,420.78z"/>
	</g>
</g>
<path class="st10" d="M680.25,737.78c-3.23,2.49-6.51,4.93-9.82,7.31c-0.5,0.36-0.99,0.72-1.48,1.07c-0.39,0.28-0.78,0.55-1.17,0.82
	c-0.27,0.2-0.53,0.38-0.8,0.56c-0.42,0.31-0.85,0.61-1.29,0.91c-1.28,0.89-2.57,1.78-3.86,2.65c-2.25,1.53-4.53,3.04-6.83,4.51
	c-0.76,0.51-1.52,1-2.29,1.49c-2.34,1.49-4.69,2.95-7.06,4.38c-2.43,1.47-4.87,2.92-7.34,4.33c-6.49,3.75-13.11,7.3-19.85,10.65
	c-0.69,0.36-1.38,0.69-2.08,1.04c-3.79,1.87-7.62,3.67-11.48,5.4c-0.55,0.25-1.09,0.49-1.63,0.73
	c-8.68-37.01-16.62-74.03-23.07-111.03l-0.97-3.23l-3.5-11.74l-2.93-9.79l-1.97-6.58l-1.46-4.89l-5.84-19.54v-0.01l-3.12-10.44
	l-7.84-26.26l-3.12-10.44l-1.24-4.14c6.15,1.12,12.29,2.24,18.44,3.36c0.95,0.17,1.89,0.34,2.84,0.51c1.98,0.36,3.95,0.72,5.93,1.08
	c3.15,0.57,6.3,1.15,9.45,1.72c19.28,3.51,38.56,7.01,57.84,10.52c1.48,0.27,2.96,0.54,4.44,0.81
	c8.08,21.46,11.44,43.28,14.29,65.06C665.45,679.29,672.17,708.98,680.25,737.78z"/>
<path class="st10" d="M403.14,561.6l-9.88,23.71l-3.85,9.25l-6.75,16.2l-6.07,14.57l-14.46,34.71l-0.05,0.13l-0.6,1.43
	c-12.68,44.23-25.36,88.46-38.04,132.69c-2.67-0.95-5.32-1.93-7.97-2.93c-4.14-1.59-8.26-3.23-12.33-4.95h-0.02
	c-1.2-0.51-2.4-1.02-3.6-1.54c-9.67-4.2-19.12-8.8-28.35-13.77c-2.84-1.53-5.66-3.09-8.44-4.69c-0.01-0.01-0.03-0.01-0.04-0.02
	c-0.23-0.12-0.43-0.24-0.64-0.36c-0.19-0.1-0.36-0.21-0.54-0.32c-3.72-2.14-7.4-4.35-11.04-6.61c9.24-34,19.15-68.51,29.77-103.5
	c7.82-25.77,15.81-51.1,23.95-76c12.48-2.27,24.96-4.54,37.44-6.81c0.01-0.01,0.02-0.01,0.03,0c4.95-0.9,9.91-1.81,14.86-2.71
	c3.34-0.61,6.67-1.21,10.01-1.82C378.73,566.04,390.94,563.82,403.14,561.6z"/>
<g>
	<path class="st11" d="M638.31,765.81c-6.49,3.75-13.11,7.3-19.85,10.65c-0.69,0.36-1.38,0.69-2.08,1.04
		c-3.79,1.87-7.62,3.67-11.48,5.4c-0.55,0.25-1.09,0.49-1.63,0.73c-0.34,0.15-0.67,0.3-1,0.45c-2.32,1.02-4.66,2.02-6.99,2.98
		c-2.3,0.97-4.6,1.9-6.91,2.82c-27.75,10.91-57.11,18.64-87.61,22.74c-1.35,0.18-2.69,0.35-4.04,0.51h-0.01
		c-2.59,0.33-5.19,0.62-7.8,0.89h-0.01c-1,0.1-1.97,0.2-2.97,0.29h-0.01c-0.09,0.01-0.18,0.02-0.27,0.02
		c-0.56,0.06-1.11,0.12-1.67,0.17c-3.85,0.33-7.73,0.63-11.62,0.85c-0.77,0.05-1.55,0.09-2.32,0.13C463.4,815.83,456.73,816,450,816
		c-11.67,0-23.2-0.53-34.6-1.56c-1.19-0.11-2.38-0.23-3.57-0.35c-0.64-0.06-1.28-0.13-1.92-0.2h-0.01c-1.42-0.15-2.83-0.3-4.24-0.48
		c-21.01-2.44-41.5-6.62-61.32-12.38c-3.28-0.95-6.55-1.95-9.79-3c-2.06-0.65-4.1-1.33-6.14-2.02c-0.21-0.07-0.42-0.14-0.63-0.21
		h-0.02c-1.45-0.49-2.89-1-4.32-1.51c-2.67-0.95-5.32-1.93-7.97-2.93c-4.14-1.59-8.26-3.23-12.33-4.95h-0.02
		c-1.2-0.51-2.4-1.02-3.6-1.54c1.65-47.64,4.47-106.3,8.56-172.27l33.66-0.83l40.92-1.01l19.97-0.49l8.06-0.2l23.42-0.58l4.8-0.11
		l1.13-0.03l44.04-1.09l5.72-0.14l1.62-0.04l15.55-0.38h0.01l2.25-0.06l51.18-1.26l23.6-0.58l1.22-0.03l41.45-1.02l6.06-0.15
		C636.73,656.24,638.78,710.04,638.31,765.81z"/>
	<g>
		<path d="M638.41,765.87c-49.34,28.54-105.5,45.58-162.21,49.32c-46.61,3.16-93.82-2.05-138.43-16.05
			c-11.22-3.32-23.93-8.22-34.7-12.62c0,0-3.6-1.54-3.6-1.54l-0.07-0.03c1.37-41.55,3.84-87.56,5.94-129.31
			c0.75-14.47,1.53-28.94,2.38-43.4c13.64-0.37,27.28-0.82,40.93-1.12c75.74-1.7,206.87-4.49,284.09-6.64c0,0,0.11,0,0.11,0
			s0.01,0.11,0.01,0.11C636.99,658.27,638.9,712.01,638.41,765.87L638.41,765.87z M638.21,765.75
			c0.41-53.71-1.44-107.57-5.59-161.14c0,0,0.12,0.11,0.12,0.11c-77.9,2.39-207.75,4.62-284.07,7.36
			c-13.53,0.37-27.06,0.59-40.59,0.89c0,0,0.37-0.35,0.37-0.35c0,0-2.73,43.03-2.73,43.03c-2.57,42.74-4.63,86.49-6.08,129.22
			c0,0-0.07-0.11-0.07-0.11l3.6,1.54c10.8,4.43,23.46,9.28,34.67,12.61c44.58,13.99,91.76,19.2,138.35,16.04
			C532.88,811.24,588.89,794.15,638.21,765.75L638.21,765.75z"/>
	</g>
</g>
<path class="st12" d="M493.43,596.6c-19.98,5.99-41.57,6.65-64.44,3c0.11-3.75,8.89,29,33.33,38
	C496.76,620.6,494.72,590.51,493.43,596.6z"/>
<path class="st11" d="M404.03,595.6c-4.58-10.65-20.97-15.55-33.36-14c-20.67,2.59-34.81,23.73-26.95,35
	c7.7,11.04,36.61,12.72,51.33,2C401.76,613.71,407.86,604.53,404.03,595.6z"/>
<path class="st11" d="M590.69,584.99c-4.35-11.02-22.02-16.07-34.6-15.89c-28.29,0.42-53.21,27.71-46.2,40
	c7.27,12.76,52.32,15.35,71.82-1.11C582.82,607.05,595.17,596.32,590.69,584.99z"/>
<path class="st10" d="M538.43,510.1c-25.03,26.22-49.39,49.49-71.11,61c7.59,16.83,15.18,33.67,22.78,50.5
	c10.84-9.75,25.36-21.1,43.98-31.8c15.94-9.16,31.01-15.61,43.79-20.2c-9.26-12.33-18.52-24.67-27.78-37
	C546.21,525.1,542.32,517.6,538.43,510.1z"/>
<path class="st10" d="M384.29,514.3c25.03,26.22,49.39,49.49,71.11,61c-7.59,16.83-15.18,33.67-22.78,50.5
	c-14.56-10.35-29.23-20.95-43.98-31.8c-11.54-8.49-22.91-16.95-34.09-25.4c5.77-7.31,12-16.31,17.78-27
	C377.68,531.68,381.52,522.4,384.29,514.3z"/>
<g>
	<g>
		<path d="M535.12,548.78c-3.58,2.65-7.44,4.89-11.53,6.67c-1.71,0.75-3.52,1.39-4.95,2.65c-1.6,1.41-2.37,3.55-3.26,5.43
			c-4.17,8.81-8.34,17.63-12.51,26.44c-0.41,0.87,0.88,1.63,1.3,0.76c4.03-8.52,8.06-17.03,12.08-25.55c0.9-1.9,1.65-4.23,3.16-5.75
			c1.43-1.44,3.53-2.07,5.35-2.87c3.93-1.75,7.65-3.93,11.11-6.49C536.65,549.51,535.9,548.21,535.12,548.78L535.12,548.78z"/>
	</g>
</g>
<g>
	<g>
		<path d="M378.38,548.38c2.83,0.11,5.9,0.17,8.45,1.56c1.96,1.07,3.76,3.31,2.91,5.64c-0.33,0.91,1.12,1.3,1.45,0.4
			c1.01-2.77-0.85-5.59-3.14-7.06c-2.82-1.81-6.43-1.92-9.67-2.04C377.42,546.84,377.42,548.34,378.38,548.38L378.38,548.38z"/>
	</g>
</g>
<g>
	<path class="st13" d="M409.9,813.89c-1.42-0.15-2.83-0.3-4.24-0.48c-15.56-46.47-29.85-98.61-43.58-153.24
		c-0.14-0.52-0.27-1.05-0.4-1.57l0.45,1.44L409.9,813.89z"/>
	<g>
		<path class="st13" d="M409.99,813.96c-1.45-0.13-2.95-0.26-4.43-0.43c0,0-0.03-0.08-0.03-0.08
			c-17.23-50.84-31.1-102.73-44.3-154.74c0,0,0.9-0.25,0.9-0.25C375.66,701.83,396.52,770.04,409.99,813.96L409.99,813.96z
			 M409.81,813.82c-13.81-43.92-35.13-111.59-48.57-155.08c0,0,0.9-0.25,0.9-0.25c9.76,39.03,20.03,77.95,31.62,116.49
			c3.84,12.85,7.84,25.66,12.04,38.39c0,0-0.11-0.09-0.11-0.09C407.05,813.43,408.41,813.62,409.81,813.82L409.81,813.82z"/>
	</g>
</g>
<line class="st14" x1="577.26" y1="654.6" x2="524.65" y2="758.6"/>
<path class="st2" d="M523.96,545.6"/>
<path class="st2" d="M521.57,536.6"/>
<path class="st2" d="M525.57,535.6"/>
<g>
	<path class="st13" d="M479.8,674.93c4.98,2.15,10.25,3.89,15.7,5.19"/>
	<g>
		<path class="st13" d="M479.05,676.22c5.2,2.23,10.56,4.02,16.05,5.34c1.88,0.45,2.68-2.44,0.8-2.89
			c-5.24-1.26-10.39-2.92-15.34-5.04c-0.74-0.32-1.61-0.22-2.05,0.54C478.14,674.8,478.3,675.9,479.05,676.22L479.05,676.22z"/>
	</g>
</g>
<path class="st14" d="M485.03,729.53c1.84,0.5,3.67,1,5.51,1.5"/>
<g>
	<path class="st13" d="M484.66,782.64c3.29,0.64,6.53,1.45,9.7,2.41"/>
	<g>
		<path class="st13" d="M484.26,784.09c3.27,0.64,6.51,1.45,9.7,2.41c0.75,0.23,1.67-0.27,1.85-1.05c0.18-0.81-0.24-1.6-1.05-1.85
			c-3.19-0.97-6.43-1.77-9.7-2.41c-0.77-0.15-1.66,0.22-1.85,1.05C483.04,782.98,483.44,783.92,484.26,784.09L484.26,784.09z"/>
	</g>
</g>
<g>
	<path d="M471.86,815.36c-2.47-29.84-3.85-59.69-6.17-89.53c-2.12-28.89-5.21-60.45-8.26-89.36c0,0,0.99-0.13,0.99-0.13
		c0.6,3.7,1.22,7.39,1.78,11.09c3.95,25.87,7.01,52.04,9.28,78.1c2.5,29.86,4.32,59.83,3.39,89.81
		C472.86,815.34,471.86,815.36,471.86,815.36L471.86,815.36z"/>
</g>
<g>
	<path d="M483.19,668.1c0.2,8.9,12.87,11.33,18.97,6.52c4.77-3.41,4.61-9.5-0.32-12.57C495.88,658.06,484.04,659.8,483.19,668.1
		L483.19,668.1z M481.41,668.1c0.23-10.43,14.52-13.77,21.88-8.16c5.9,4.07,5.83,12.08-0.32,15.85
		C495.79,680.57,482.24,677.91,481.41,668.1L481.41,668.1z"/>
</g>
<g>
	<path d="M483.18,721.1c0.24,8.85,12.89,11.36,19.01,6.55c4.81-3.41,4.68-9.59-0.3-12.68C495.9,710.95,484.02,712.77,483.18,721.1
		L483.18,721.1z M481.43,721.1c0.26-10.36,14.5-13.68,21.82-8.09c5.86,4.05,5.8,11.97-0.3,15.74
		C495.79,733.57,482.22,730.93,481.43,721.1L481.43,721.1z"/>
</g>
<g>
	<path d="M484.58,774.1c0.14,8.87,12.78,11.36,18.85,6.51c4.7-3.42,4.53-9.45-0.39-12.45C497.21,764.33,485.45,765.98,484.58,774.1
		L484.58,774.1z M482.59,774.1c0.17-10.59,14.62-14.03,22.07-8.27c5.91,4.14,5.83,12.21-0.39,15.98
		C497.05,786.54,483.46,783.94,482.59,774.1L482.59,774.1z"/>
</g>
<g>
	<g>
		<path class="st13" d="M550.92,758.59c12.82,0,25.63,0,38.45,0c1.93,0,1.93-3,0-3c-12.82,0-25.63,0-38.45,0
			C548.99,755.59,548.99,758.59,550.92,758.59L550.92,758.59z"/>
	</g>
</g>
<g>
	<g>
		<path class="st13" d="M304.64,618c-6.73,22.13-11.69,44.78-14.78,67.7c-0.87,6.48-1.6,12.97-2.18,19.48c-0.17,1.92,2.83,1.91,3,0
			c2.03-22.79,5.92-45.39,11.59-67.56c1.61-6.32,3.38-12.59,5.27-18.83C308.1,616.94,305.21,616.15,304.64,618L304.64,618z"/>
	</g>
</g>
<g>
	<g>
		<path class="st13" d="M663.68,706.96c-8.92,8.88-17.68,17.92-26.27,27.12c-1.32,1.41,0.8,3.54,2.12,2.12
			c8.59-9.2,17.35-18.24,26.27-27.12C667.17,707.72,665.05,705.59,663.68,706.96L663.68,706.96z"/>
	</g>
</g>
<g>
	<g>
		<path class="st13" d="M343.36,576.04c10.75,2.76,21.58,5.22,32.47,7.37c1.89,0.37,2.69-2.52,0.8-2.89
			c-10.89-2.16-21.72-4.61-32.47-7.37C342.29,572.67,341.49,575.56,343.36,576.04L343.36,576.04z"/>
	</g>
</g>
<path class="st10" d="M298.58,575.09c17.72-15.17,40.12-17.83,66.23-10.63c1.03,2.28,2.07,4.56,3.1,6.84
	c-21.98,0.59-44.33,2.36-68.3,9.11C299.27,578.63,298.92,576.86,298.58,575.09z"/>
<path class="st2" d="M161.56,75.37L161.56,75.37L161.56,75.37z"/>
<path class="st6" d="M453.24,293.91c-17.81,4.17-40.65,11.42-65.23,24.54c-17.75,9.47-32.24,19.77-43.62,29.08
	c-0.57,16.19,1.8,30.02,3.98,39.94c2.22,10.06,3.84,16.04,2.87,16.44c-1.42,0.59-8.46-10.85-33.27-63.93"/>
<path class="st6" d="M476.74,286.93c44.68,23.27,92.99,38.29,108.85,59.62c1.15,32.38-9.48,55.33-6.85,56.38
	c1.78,0.71,9.8-12.81,33.27-63.93"/>
<g>
	<g>
		<path d="M444.63,495.3c14.75-0.18,29.4-2.49,43.23-7.71c0.89-0.34,0.51-1.79-0.4-1.45c-13.72,5.17-28.21,7.47-42.83,7.65
			C443.67,493.81,443.67,495.31,444.63,495.3L444.63,495.3z"/>
	</g>
</g>
<path class="st6" d="M621.24,266.91c29.92-26.86,41.46-30.21,46-27c5.13,3.62,2.94,16.74-2,25c-8.21,13.71-27.71,20.23-49,15"/>
<g>
	<g>
		<path d="M522.89,296.73c10.7,3.58,20.53,9.42,28.78,17.11c-0.22-0.21,0.03-2.15,0.03-2.5c0-0.59,0-1.18-0.01-1.77
			c0-0.13,0.06-0.66-0.02-0.73c-8.25-7.69-18.08-13.54-28.78-17.11c0.09,0.03-0.02,2.29-0.02,2.5
			C522.87,294.45,522.72,296.67,522.89,296.73L522.89,296.73z"/>
	</g>
</g>
<g>
	<g>
		<path class="st15" d="M520.67,281.66c-1.1-11.06-3.37-21.96-6.78-32.54c0.21,0.65-0.02,1.81-0.02,2.5c0,0.74-0.21,1.78,0.02,2.5
			c3.4,10.58,5.68,21.48,6.78,32.54C520.5,285.02,520.83,283.32,520.67,281.66L520.67,281.66z"/>
	</g>
</g>
<g>
	<g>
		<path class="st15" d="M447.25,307.68c-2.43,2.81-5.08,5.83-8.83,6.77c-0.85,0.21-1.68,0.26-2.55,0.24
			c-0.48-0.01-0.95-0.01-1.41,0.15c-0.33,0.11-0.72,0.39-1,0.06c-0.28-0.33-0.32-1.06-0.43-1.47c-0.13-0.49-0.25-0.99-0.38-1.48
			c-0.28-1.09-0.56-2.17-0.84-3.26c0,1.67,0,3.33,0,5c2.34,1.46,5.16,1.84,7.8,1.04c0.67-0.2,1.33-0.44,2.03-0.51
			c0.66-0.07,1.32-0.01,1.98-0.02c1.1-0.03,2.41-0.38,2.45-1.68c0.04-1.38,0.02-2.76,0.01-4.13c-0.01-0.67-0.01-1.25-0.66-1.63
			c-0.54-0.32-1.22-0.29-1.83-0.29c-0.85-0.01-1.71-0.01-2.56,0.01c-1.66,0.04-3.31,0.12-4.96,0.27c-0.75,0.06-1.5,0.14-2.25,0.23
			c-0.56,0.06-1.34,0.07-1.56,0.7c-0.12,0.35-0.04,0.82-0.05,1.18c-0.01,0.93-0.01,1.85,0,2.78c0.01,0.86,0.04,1.58,0.27,2.41
			c0.49,1.75,1.08,3.46,1.76,5.15c-0.05-0.12,0.02-0.67,0.02-0.73c0.01-0.59,0.01-1.18,0.01-1.77c0-0.59,0-1.18-0.01-1.77
			c0-0.2,0.06-0.55-0.02-0.73c-0.41-1.02-0.79-2.05-1.13-3.09c-0.32-0.98-0.81-2.1-0.86-3.14c0,1.64,0,3.27-0.01,4.91
			c0.16-1.14,2.09-0.96,2.94-1.05c1.35-0.13,2.7-0.23,4.06-0.29c1.35-0.06,2.71-0.09,4.06-0.07c1.02,0.01,2.5-0.08,2.77,1.2
			c0-1.55-0.01-3.11-0.01-4.66c0,0.07,0,0.14,0,0.21c0-0.11,0.01-0.23,0.01-0.34c-0.32,1.26-1.84,1.35-2.9,1.34
			c-0.63,0-1.26-0.04-1.89,0.07c-0.65,0.11-1.28,0.35-1.91,0.53c-2.56,0.72-5.3,0.28-7.55-1.12c0.02,0.01-0.02,0.83-0.02,0.73
			c-0.01,0.59-0.01,1.18-0.01,1.77c0,0.77-0.17,1.74,0.02,2.5c0.27,1.04,0.53,2.08,0.8,3.11c0.14,0.54,0.28,1.09,0.42,1.63
			c0.1,0.38,0.14,1.06,0.37,1.39c0.27,0.39,0.57,0.2,0.94,0.07c0.47-0.16,0.91-0.2,1.4-0.2c0.91,0.01,1.79-0.02,2.68-0.24
			c3.75-0.93,6.41-3.96,8.83-6.77c0.06-0.07,0.02-0.75,0.02-0.73c0.01-0.59,0.01-1.18,0.01-1.77c0-0.59,0-1.18-0.01-1.77
			C447.27,308.29,447.19,307.75,447.25,307.68L447.25,307.68z"/>
	</g>
</g>
<g>
	<path d="M438.46,259.87c0.57-17.66,2.15-35.28,4.74-52.76"/>
	<g>
		<path d="M439.96,259.87c0.57-17.53,2.13-35.01,4.69-52.36c0.28-1.89-2.61-2.7-2.89-0.8c-2.6,17.62-4.21,35.36-4.79,53.16
			C436.9,261.8,439.9,261.8,439.96,259.87L439.96,259.87z"/>
	</g>
</g>
<g>
	<path d="M470.3,174.29c4.21-1.01,8.66-1.04,12.89-0.11"/>
	<g>
		<path d="M470.7,175.74c3.97-0.93,8.11-0.97,12.09-0.11c0.79,0.17,1.62-0.24,1.85-1.05c0.21-0.75-0.25-1.67-1.05-1.85
			c-4.52-0.98-9.18-0.95-13.69,0.11C468.03,173.28,468.82,176.18,470.7,175.74L470.7,175.74z"/>
	</g>
</g>
<g>
	<path d="M448.83,166.84c8.1-1.43,15.91-4.47,22.86-8.88"/>
	<g>
		<path d="M449.23,168.29c8.24-1.48,16.14-4.57,23.21-9.04c1.63-1.03,0.12-3.63-1.51-2.59c-6.88,4.34-14.49,7.29-22.5,8.73
			C446.53,165.74,447.34,168.63,449.23,168.29L449.23,168.29z"/>
	</g>
</g>
<path class="st2" d="M304.76,269.61c8.26,3.96,16.53,7.91,24.79,11.87"/>
<g>
	<g>
		<path class="st15" d="M481.38,241.26c2.34,0.96,4.68,1.92,7.01,2.89c0.73,0.3,1.68-0.32,1.85-1.05c0.2-0.87-0.27-1.52-1.05-1.85
			c-2.34-0.96-4.68-1.92-7.01-2.89c-0.73-0.3-1.68,0.32-1.85,1.05C480.14,240.29,480.6,240.94,481.38,241.26L481.38,241.26z"/>
	</g>
</g>
<g>
	<g>
		<path class="st15" d="M439.62,312.79c9.89-3.11,19.5-7.06,28.73-11.77c1.72-0.88,0.2-3.47-1.51-2.59
			c-9.01,4.6-18.37,8.43-28.02,11.47C436.99,310.47,437.77,313.37,439.62,312.79L439.62,312.79z"/>
	</g>
</g>
<path class="st6" d="M502.74,285.91c-0.12,35.31-18.95,63.75-45.67,71c-4.2,1.14-29.69,0-29.69,0s-3.93-41.13,18.98-80"/>
<path class="st16" d="M576.13,226.34L576.13,226.34c-0.01-5.61-90.2-5.9-90.19-0.93c0,0-15.22,40.59-0.98,57.69
	c20.04,24.07,63.67,17.99,79.41,0.93C580.8,266.22,576.12,226.37,576.13,226.34z"/>
<path class="st16" d="M343.91,227.83L343.91,227.83c0.01-5.61,90.2-5.9,90.19-0.93c0,0,15.22,40.59,0.98,57.69
	c-20.04,24.07-63.67,17.99-79.41,0.93C339.24,267.71,343.92,227.86,343.91,227.83z"/>
<line class="st17" x1="439.11" y1="257.91" x2="478.62" y2="257.91"/>
<g>
	<g>
		<path class="st18" d="M539.1,223.87c-14.45,9.88-29.39,19.03-44.75,27.43c-4.37,2.39-8.78,4.72-13.21,6.99
			c-0.08,0.04-0.04,1.64-0.04,1.46c-0.01,1.18-0.02,2.36-0.01,3.54c0,1.18,0,2.36,0.01,3.54c0,0.17,0.1,1.43,0.04,1.46
			c15.63-8,30.88-16.75,45.65-26.25c4.14-2.66,8.24-5.39,12.31-8.16c0.09-0.06,0.04-1.6,0.04-1.46c0.01-1.18,0.02-2.36,0.01-3.54
			c0-1.18,0-2.36-0.01-3.54C539.14,225.15,539.01,223.93,539.1,223.87L539.1,223.87z"/>
	</g>
</g>
<g>
	<g>
		<path class="st18" d="M573.1,238.41c-17.9,10.37-35.79,20.73-53.69,31.1c-5.1,2.96-10.21,5.91-15.31,8.87
			c-0.12,0.07-0.06,2.44-0.05,2.2c-0.02,1.77-0.02,3.54-0.02,5.3c0,1.77,0,3.54,0.02,5.3c0,0.26,0.17,2.13,0.05,2.2
			c17.9-10.37,35.79-20.73,53.69-31.1c5.1-2.96,10.21-5.91,15.31-8.87c0.12-0.07,0.06-2.44,0.05-2.2c0.02-1.77,0.02-3.54,0.02-5.3
			c0-1.77,0-3.54-0.02-5.3C573.15,240.34,572.99,238.47,573.1,238.41L573.1,238.41z"/>
	</g>
</g>
<g>
	<g>
		<path class="st18" d="M416.99,223.91c-18.43,9.35-36.85,18.7-55.28,28.05c-5.2,2.64-10.4,5.28-15.6,7.92
			c-0.08,0.04-0.04,1.64-0.04,1.46c-0.01,1.18-0.02,2.36-0.01,3.54c0,1.18,0,2.36,0.01,3.54c0,0.17,0.1,1.43,0.04,1.46
			c18.43-9.35,36.85-18.7,55.28-28.05c5.2-2.64,10.4-5.28,15.6-7.92c0.08-0.04,0.04-1.64,0.04-1.46c0.01-1.18,0.02-2.36,0.01-3.54
			c0-1.18,0-2.36-0.01-3.54C417.02,225.2,416.92,223.94,416.99,223.91L416.99,223.91z"/>
	</g>
</g>
<g>
	<g>
		<path class="st18" d="M438.06,244.41c-16.35,9.6-32.69,19.19-49.04,28.79c-4.64,2.72-9.28,5.45-13.92,8.17
			c-0.12,0.07-0.06,2.43-0.05,2.2c-0.02,1.77-0.02,3.54-0.02,5.3c0,1.77,0,3.54,0.02,5.3c0,0.26,0.17,2.13,0.05,2.2
			c16.35-9.6,32.69-19.19,49.04-28.79c4.64-2.72,9.28-5.45,13.92-8.17c0.12-0.07,0.06-2.43,0.05-2.2c0.02-1.77,0.02-3.54,0.02-5.3
			c0-1.77,0-3.54-0.02-5.3C438.11,246.34,437.94,244.47,438.06,244.41L438.06,244.41z"/>
	</g>
</g>
<g>
	<g>
		<path d="M350.33,279.75c-13.83,15.84-27.67,31.69-41.5,47.53c-0.28,0.32-0.02,2.06-0.02,2.5c0,0.59,0,1.18,0.01,1.77
			c0,0.12,0.08,0.66,0.02,0.73c13.83-15.84,27.67-31.69,41.5-47.53c0.28-0.32,0.02-2.06,0.02-2.5c0-0.59,0-1.18-0.01-1.77
			C350.35,280.35,350.27,279.82,350.33,279.75L350.33,279.75z"/>
	</g>
</g>
<g>
	<g>
		<path d="M570.18,280.74c13.86,9.08,23.4,23,31.44,37.19c2.32,4.1,4.54,8.25,6.75,12.41c-0.05-0.09,0.02-0.72,0.02-0.73
			c0.01-0.59,0.01-1.18,0.01-1.77c0-0.59,0-1.18-0.01-1.77c0-0.18,0.07-0.57-0.02-0.73c-7.68-14.47-15.61-29.29-27.41-40.88
			c-3.31-3.25-6.9-6.18-10.78-8.72c0.17,0.11-0.02,2.22-0.02,2.5C570.15,278.56,569.91,280.57,570.18,280.74L570.18,280.74z"/>
	</g>
</g>
<path class="st19" d="M637.88,552.08c-5.13-6.44-12.35-8.8-16-10c-1.98-0.65-17.98-5.61-33,3c-15.89,9.11-25.8,30.6-19,46
	c8.98,20.35,45.34,26.05,63,9C645.43,587.97,648.04,564.86,637.88,552.08z"/>
<path class="st10" d="M649.46,576.23c-21.42-19.59-48.52-23.03-80.09-13.73c-1.25,2.94-2.5,5.88-3.75,8.83
	c26.58,0.77,53.61,3.05,82.59,11.77C648.63,580.81,649.04,578.52,649.46,576.23z"/>
<path class="st20" d="M579.66,395.46c-0.02-0.05-0.04-0.08-0.06-0.09c-0.03-0.01-0.06,0.01-0.09,0.06
	c-1.15,1.5-7.66,30.92-32.1,59.69c-0.04,0.05-0.08,0.09-0.12,0.14c-6.52,7.65-13.26,14.02-19.71,19.3
	c-0.51,0.42-1.02,0.84-1.53,1.24c-5.9,4.72-11.53,8.53-16.45,11.57c-1.71-4.1-7.45-16.36-21-23c-6.59-3.22-12.79-4.05-17.84-4.15
	h-0.06c-2.3-0.04-4.36,0.06-6.1,0.15c-6.58,0.33-12.31,1.72-16.99,3.41c-0.01,0-0.02,0.01-0.03,0.01
	c-6.76,2.43-11.31,5.43-12.98,6.58c-10.5,7.24-15.94,16.23-18.38,20.98c-0.84-0.7-1.75-1.48-2.72-2.33
	c-0.29-0.25-0.58-0.5-0.88-0.77c-2.24-1.96-4.77-4.26-7.49-6.88c-9.1-8.76-16.67-17.59-22.98-25.99
	c-21.04-28-28.03-51.17-30.44-51.03c-0.04-0.01-0.08,0-0.11,0.02c-2.01,0.8,0.88,19.89,12.28,44.71
	c4.76,10.4,11.02,21.8,19.04,33.29c0.76,1.09,1.24,1.76,1.96,2.74c4.27,5.84,13.71,17.74,27.58,27.88c0.38,0.28,0.76,0.55,1.14,0.82
	c0.24,0.17,0.48,0.34,0.72,0.51c13.44,9.41,30.78,16.94,51.38,16.05c19.63-0.85,35.56-9.4,48.72-20.21l0.01-0.01h0.01
	c2.74-2.24,5.36-4.58,7.86-6.99c0.18-0.16,0.35-0.33,0.53-0.51c7.03-6.76,13.16-13.9,18.58-20.28
	c9.32-10.98,16.46-22.36,21.91-33.13v-0.01c9.81-19.38,14.11-36.78,15.66-46.28C579.69,398.66,579.83,395.97,579.66,395.46z
	 M464.6,469.37c3.92-0.43,15.2-1.69,25,6c2.91,2.28,12.38,9.28,10.84,18.85c-1.29,8.05-9.72,14.17-16.84,14.15
	c-7.72-0.02-9.85-7.26-16-6c-5.05,1.03-6.79,6.55-10.82,9.39c-1.16,0.82-2.51,1.41-4.18,1.61c-2.13,0.26-3.67-0.26-6.66-1.3
	c-0.01,0-0.01,0-0.02-0.01c-2.3-0.8-15.7-5.3-17.32-12.69C426.1,487.91,445.47,471.49,464.6,469.37z"/>
<rect x="543.6" y="636.37" class="st21" width="83" height="33"/>
<g>
	<path class="st22" d="M555.73,644.85v-3.69h-4.23v7.86h11.04v1.53c0,4.29-2.67,6.75-6.48,8.31l0.87,3.99
		c5.88-1.8,9.84-5.64,9.84-13.71v-4.29H555.73z"/>
	<path class="st22" d="M578.83,641.07c-1.47,0-2.67,1.11-2.67,2.67c0,0.75,0.24,1.74,1.35,2.4l-1.41,3.42h2.76l2.07-3.81
		c0.21-0.45,0.66-1.23,0.66-2.04C581.59,642.27,580.39,641.07,578.83,641.07z M571.84,641.07c-0.36,0-0.7,0.07-1.01,0.19
		c-0.97,0.37-1.66,1.3-1.66,2.48c0,0.75,0.24,1.74,1.35,2.4l-1.41,3.42h2.76l0.93-1.72l1.14-2.09c0.21-0.45,0.66-1.23,0.66-2.04
		C574.6,642.27,573.4,641.07,571.84,641.07z"/>
	<path class="st22" d="M584.71,652.86v9.63h4.23v-9.63H584.71z M596.95,644.85h-12.24v4.17h10.8c0.33,0,0.54,0.27,0.54,0.57v12.9
		h4.23v-14.25C600.28,646.35,598.81,644.85,596.95,644.85z"/>
	<path class="st22" d="M616.21,652.95c1.77-1.29,2.73-3.21,2.73-5.88v-2.22h-4.23v2.43c0,1.77-0.51,3.09-2.49,3.99l-2.22-0.81
		c-2.19-0.78-2.43-2.16-2.43-4.68v-0.93h-4.23v1.17c0,4.68,1.5,6.96,5.34,8.31l3.57,1.26c1.77,0.63,2.61,1.32,2.97,2.73h-12v4.17
		h16.47v-1.41C619.69,656.67,618.67,654.45,616.21,652.95z"/>
</g>
<path class="st23" d="M309.1,575.87c3-0.33,6-0.67,9-1c-2.33-2.67-4.67-5.33-7-8c-2,1.33-4,2.67-6,4
	C306.44,572.54,307.77,574.2,309.1,575.87z"/>
<path class="st23" d="M317.6,575.37c2.33-0.33,4.67-0.67,7-1c-2-3.33-4-6.67-6-10c-2.33,0.67-4.67,1.33-7,2
	C313.6,569.37,315.6,572.37,317.6,575.37z"/>
<path class="st23" d="M325.6,574.37c2.33-0.33,4.67-0.67,7-1c-2-3.67-4-7.33-6-11c-2.33,0.67-4.67,1.33-7,2
	C321.6,567.7,323.6,571.04,325.6,574.37z"/>
<path class="st23" d="M643.78,579.35c-3-0.33-6-0.67-9-1c2.33-2.67,4.67-5.33,7-8c2,1.33,4,2.67,6,4
	C646.45,576.02,645.11,577.69,643.78,579.35z"/>
<path class="st23" d="M635.28,578.85c-2.33-0.33-4.67-0.67-7-1c2-3.33,4-6.67,6-10c2.33,0.67,4.67,1.33,7,2
	C639.28,572.85,637.28,575.85,635.28,578.85z"/>
<path class="st23" d="M627.28,577.85c-2.33-0.33-4.67-0.67-7-1c2-3.67,4-7.33,6-11c2.33,0.67,4.67,1.33,7,2
	C631.28,571.19,629.28,574.52,627.28,577.85z"/>
<g>
	<path class="st24" d="M495.07,394.97c-2.37-4.12-2.13-8.19-1.93-11.53c0.09-1.51,0.66-11.17,6.75-16.91
		c11.57-10.91,45.46-9.98,57.88,5.38c5.58,6.9,7.7,17.8,0.96,26.14c-9.27,11.48-28.98,10.29-33.77,9.99
		C522.31,407.88,501.63,406.39,495.07,394.97z"/>
	<path class="st25" d="M562.52,399.72c0.37-2.46,2.7-19.66-10-31.15c-15.64-14.15-44.75-11.19-56,1.83c-2.9,3.36-4.3,7.02-5,10.08"
		/>
	<circle class="st26" cx="521.77" cy="382.47" r="12.25"/>
	<circle class="st24" cx="527.55" cy="378.83" r="4.76"/>
	<path class="st24" d="M432.59,393.55c2.37-4.12,2.13-8.19,1.93-11.53c-0.09-1.51-0.66-11.17-6.75-16.91
		c-11.57-10.91-45.46-9.98-57.88,5.38c-5.58,6.9-7.7,17.8-0.96,26.14c9.27,11.48,28.98,10.29,33.77,9.99
		C405.35,406.46,426.03,404.98,432.59,393.55z"/>
	<circle class="st26" cx="405.89" cy="381.05" r="12.25"/>
	<circle class="st24" cx="412.11" cy="377.42" r="4.76"/>
	<path class="st2" d="M372.02,399.78c3.03,1.51,28.63,13.79,50,1c5.27-3.15,9.16-7.16,12-11"/>
	<path class="st27" d="M421.52,343.72c-23.83-0.75-45.82,3.13-65,14"/>
	<path class="st27" d="M503.56,343.7c23.83-0.75,45.82,3.13,65,14"/>
	<path class="st25" d="M364.38,396.94c-0.37-2.46-2.7-19.66,10-31.15c15.64-14.15,44.75-11.19,56,1.83c2.9,3.36,4.3,7.02,5,10.08"/>
	<path class="st2" d="M555.76,401.7c-3.03,1.51-28.63,13.79-50,1c-5.27-3.15-9.16-7.16-12-11"/>
</g>
</svg>
