<?xml version="1.0" encoding="utf-8"?>
<!-- Generator: Adobe Illustrator 28.3.0, SVG Export Plug-In . SVG Version: 6.00 Build 0)  -->
<svg version="1.1" id="Layer_1" xmlns="http://www.w3.org/2000/svg" xmlns:xlink="http://www.w3.org/1999/xlink" x="0px" y="0px"
	 viewBox="0 0 916 850" style="enable-background:new 0 0 916 850;" xml:space="preserve">
<style type="text/css">
	.st0{opacity:0.6;fill:#CCCCCC;}
	.st1{display:none;fill:#426646;}
	.st2{fill:#E1B350;}
	.st3{fill:#C4C9D6;stroke:#000000;stroke-miterlimit:10;}
	.st4{fill:#3E505C;stroke:#000000;stroke-miterlimit:10;}
	.st5{fill:#B53A3E;stroke:#000000;stroke-miterlimit:10;}
	.st6{fill:#FFE3CB;stroke:#000000;stroke-miterlimit:10;}
	.st7{fill:#FFB995;}
	.st8{fill:#332C26;}
	.st9{fill:#332C26;stroke:#000000;stroke-miterlimit:10;}
	.st10{fill:none;stroke:#000000;stroke-miterlimit:10;}
	.st11{fill:none;stroke:#FFB995;stroke-miterlimit:10;}
	.st12{fill:#FFB995;stroke:#000000;stroke-width:0.5;stroke-miterlimit:10;}
	.st13{fill:#B53A3E;}
	.st14{fill:#841D33;}
	.st15{fill:none;stroke:#841D33;stroke-miterlimit:10;}
	.st16{fill:none;stroke:#000000;stroke-width:5;stroke-miterlimit:10;}
	.st17{stroke:#000000;stroke-width:5;stroke-miterlimit:10;}
	.st18{stroke:#000000;stroke-miterlimit:10;}
	.st19{fill:#FFFFFF;}
	.st20{fill:none;stroke:#000000;stroke-width:4;stroke-miterlimit:10;}
	.st21{fill:none;stroke:#000000;stroke-width:3;stroke-miterlimit:10;}
	.st22{fill:#FFFFFF;stroke:#000000;stroke-miterlimit:10;}
	.st23{font-family:'Liebling-Bold';}
	.st24{font-size:48px;}
	.st25{opacity:0.38;stroke:#000000;stroke-width:5;stroke-miterlimit:10;}
</style>
<path class="st0" d="M834,432c0,107.49-44.87,204.49-116.88,273.28c-0.3,0.3-0.6,0.59-0.9,0.86c-0.02,0.03-0.03,0.04-0.05,0.05
	c-1.41,1.34-2.83,2.67-4.26,3.98c-0.34,0.32-0.68,0.63-1.02,0.93c-0.04,0.04-0.08,0.08-0.12,0.11c-3.54,3.24-7.15,6.41-10.81,9.5
	c-1.57,1.33-3.16,2.65-4.75,3.95c-0.03,0.03-0.06,0.06-0.09,0.07v0.01c-2.39,1.96-4.82,3.89-7.26,5.78
	c-0.54,0.43-1.07,0.85-1.61,1.26c-0.16,0.13-0.33,0.25-0.49,0.37c-0.24,0.2-0.49,0.39-0.74,0.57c-0.94,0.73-1.89,1.44-2.85,2.16
	c-0.91,0.68-1.83,1.35-2.74,2.03c-0.65,0.47-1.3,0.95-1.95,1.41c-0.12,0.09-0.23,0.18-0.35,0.26c-0.23,0.17-0.47,0.34-0.7,0.51
	c-0.27,0.19-0.54,0.39-0.8,0.57c-0.23,0.18-0.45,0.34-0.68,0.5c-0.39,0.28-0.78,0.55-1.17,0.82c-0.11,0.08-0.23,0.17-0.34,0.25
	c-0.15,0.1-0.3,0.21-0.46,0.31c-0.42,0.31-0.85,0.61-1.29,0.91c-1.28,0.89-2.57,1.78-3.86,2.65c-0.17,0.12-0.35,0.24-0.52,0.35
	c-1.36,0.92-2.73,1.83-4.1,2.72c-0.1,0.06-0.2,0.13-0.3,0.19c-0.09,0.06-0.17,0.11-0.26,0.17c-0.07,0.04-0.13,0.09-0.2,0.13
	c-0.12,0.08-0.24,0.17-0.37,0.24c-0.28,0.2-0.57,0.38-0.85,0.56c-0.08,0.05-0.15,0.1-0.23,0.15c-0.36,0.24-0.71,0.47-1.07,0.7
	c-0.17,0.12-0.35,0.23-0.52,0.34c-0.02,0.01-0.03,0.02-0.05,0.03c-0.22,0.14-0.43,0.28-0.65,0.42c-0.02,0.01-0.05,0.03-0.07,0.04
	c-0.69,0.44-1.38,0.88-2.07,1.3c-0.64,0.41-1.27,0.81-1.91,1.2c-1,0.62-2,1.23-3.01,1.84c-0.2,0.12-0.41,0.25-0.61,0.37h-0.01
	c-0.75,0.45-1.5,0.9-2.25,1.34c-0.08,0.06-0.16,0.1-0.25,0.15c-1.4,0.84-2.8,1.66-4.22,2.47c-0.22,0.12-0.43,0.25-0.65,0.37
	c-4.44,2.56-8.94,5.02-13.51,7.38c-0.81,0.43-1.63,0.85-2.46,1.27c-0.82,0.42-1.65,0.83-2.47,1.24c-0.25,0.14-0.51,0.26-0.76,0.39
	c-0.08,0.04-0.17,0.09-0.25,0.12c-0.38,0.2-0.76,0.39-1.14,0.57h-0.01c-0.23,0.12-0.45,0.23-0.68,0.35
	c-0.32,0.16-0.63,0.31-0.95,0.47c-1.7,0.83-3.4,1.64-5.11,2.44l-2.04,0.96c-0.06,0.02-0.12,0.05-0.18,0.08
	c-0.16,0.07-0.32,0.15-0.49,0.22c-0.9,0.41-1.8,0.82-2.71,1.23c-0.55,0.25-1.09,0.49-1.63,0.73c-0.03,0.01-0.05,0.02-0.08,0.04
	c-0.31,0.13-0.62,0.27-0.92,0.41c-1.26,0.55-2.52,1.1-3.79,1.64c-0.79,0.33-1.57,0.66-2.36,0.99c-0.28,0.12-0.56,0.23-0.84,0.35
	c-0.05,0.02-0.11,0.05-0.16,0.06c-0.27,0.12-0.54,0.23-0.81,0.34c-0.29,0.13-0.58,0.25-0.87,0.36c-0.04,0.02-0.07,0.04-0.11,0.05
	c-0.14,0.06-0.29,0.12-0.43,0.17c-1.51,0.63-3.01,1.24-4.53,1.84c-1.76,0.69-3.52,1.37-5.3,2.04c-1.7,0.64-3.42,1.27-5.14,1.89
	c-3.59,1.29-7.21,2.53-10.85,3.71c-0.27,0.09-0.54,0.17-0.81,0.26c-1.98,0.64-3.98,1.27-5.98,1.88c-1.58,0.48-3.16,0.95-4.74,1.41
	l-3.15,0.9c-2.37,0.66-4.76,1.31-7.15,1.93c-2.03,0.53-4.07,1.04-6.11,1.53c-12.57,3.03-25.37,5.44-38.38,7.19
	c-1.35,0.18-2.69,0.35-4.04,0.51h-0.01c-2.59,0.33-5.19,0.62-7.8,0.89h-0.01c-1,0.1-1.97,0.2-2.97,0.29h-0.01
	c-0.09,0.01-0.18,0.02-0.27,0.02c-0.56,0.06-1.11,0.12-1.67,0.17c-1.39,0.12-2.79,0.23-4.19,0.34c-0.57,0.05-1.13,0.09-1.7,0.13
	c-1.91,0.15-3.82,0.27-5.73,0.38c-0.14,0.01-0.27,0.02-0.41,0.02c-0.64,0.04-1.28,0.08-1.91,0.11c-0.24,0.01-0.47,0.02-0.71,0.03
	c-2.1,0.11-4.2,0.2-6.31,0.26c-0.54,0.03-1.08,0.05-1.62,0.06c-0.63,0.02-1.27,0.04-1.9,0.05c-0.44,0.02-0.89,0.02-1.33,0.03
	c-0.36,0.01-0.73,0.01-1.09,0.02c-2.35,0.05-4.71,0.07-7.08,0.07c-0.52,0-1.03,0-1.55-0.01c-1.15,0-2.3-0.01-3.44-0.03
	c-2.92-0.03-5.83-0.11-8.73-0.21c-0.08,0-0.15-0.01-0.23-0.01c-1.1-0.04-2.2-0.08-3.3-0.13c-5.36-0.24-10.69-0.59-15.99-1.06
	c-0.45-0.03-0.91-0.07-1.36-0.11c-0.7-0.07-1.39-0.13-2.09-0.21c-0.14-0.01-0.28-0.02-0.42-0.04h-0.01c-0.35-0.03-0.7-0.06-1.05-0.1
	c-0.64-0.06-1.28-0.13-1.92-0.2h-0.01c-0.46-0.05-0.92-0.1-1.38-0.15c-0.96-0.1-1.91-0.21-2.86-0.33c-1.19-0.14-2.38-0.28-3.57-0.43
	c-0.16-0.02-0.32-0.04-0.48-0.06c-1.03-0.13-2.05-0.27-3.07-0.41c-0.09-0.01-0.19-0.02-0.28-0.04c-2.09-0.28-4.17-0.58-6.25-0.9
	c-0.01,0.01-0.02,0-0.03-0.01c-0.98-0.15-1.95-0.3-2.92-0.47c-0.04,0-0.07-0.01-0.11-0.02c-0.14-0.01-0.29-0.04-0.43-0.06
	c-1.02-0.16-2.04-0.33-3.05-0.51c-0.04,0-0.08-0.01-0.12-0.02c-0.54-0.09-1.07-0.18-1.61-0.28c-3.85-0.67-7.68-1.41-11.48-2.21
	c-2.2-0.46-4.39-0.94-6.57-1.43c-5.06-1.15-10.08-2.4-15.06-3.76c-2.1-0.57-4.2-1.16-6.29-1.77c-0.19-0.05-0.38-0.11-0.57-0.17
	c-0.79-0.22-1.58-0.46-2.36-0.7c-0.04-0.01-0.07-0.02-0.11-0.03c-0.54-0.16-1.08-0.32-1.62-0.49c-1.72-0.52-3.43-1.06-5.13-1.61
	c-1.02-0.32-2.04-0.65-3.06-0.98c-1.03-0.35-2.05-0.69-3.08-1.04c-0.21-0.07-0.42-0.14-0.63-0.21h-0.02
	c-0.05-0.02-0.11-0.04-0.16-0.05c-1.4-0.48-2.78-0.97-4.16-1.46h-0.01c-0.21-0.08-0.42-0.16-0.63-0.23
	c-0.15-0.05-0.29-0.11-0.44-0.16c-0.52-0.19-1.04-0.37-1.55-0.57c-0.06-0.02-0.12-0.04-0.18-0.07c-0.09-0.03-0.18-0.06-0.27-0.1
	c-0.53-0.19-1.06-0.38-1.58-0.57c-1.11-0.4-2.21-0.81-3.31-1.23c-0.02-0.01-0.03-0.01-0.05-0.02c-0.6-0.23-1.2-0.46-1.8-0.69
	c-1.02-0.4-2.04-0.8-3.05-1.21c-0.4-0.15-0.8-0.31-1.2-0.47c-2.09-0.84-4.17-1.69-6.23-2.56h-0.02c-0.06-0.03-0.13-0.05-0.19-0.08
	c-1.14-0.48-2.27-0.97-3.41-1.46c-1.71-0.74-3.42-1.5-5.12-2.27c-1.33-0.6-2.66-1.22-3.99-1.84c-2.64-1.23-5.27-2.49-7.88-3.79
	c-3.82-1.89-7.61-3.85-11.36-5.87c-0.41-0.22-0.83-0.45-1.24-0.68c-0.67-0.35-1.33-0.72-1.99-1.09c-1.75-0.95-3.49-1.93-5.21-2.92
	c-0.01-0.01-0.03-0.01-0.04-0.02c-0.23-0.12-0.43-0.24-0.64-0.36c-0.08-0.04-0.15-0.08-0.22-0.13c-0.11-0.06-0.21-0.12-0.32-0.19
	c-0.03-0.02-0.05-0.03-0.08-0.05c-0.46-0.26-0.93-0.54-1.39-0.81c-1.13-0.66-2.27-1.32-3.39-2c-2.07-1.23-4.13-2.48-6.18-3.75
	c-0.07-0.05-0.15-0.09-0.22-0.14c-0.21-0.13-0.41-0.26-0.62-0.39c-3.04-1.9-6.05-3.85-9.03-5.84c-0.37-0.24-0.73-0.49-1.1-0.73
	c-0.61-0.41-1.22-0.82-1.83-1.24c-2.64-1.79-5.25-3.61-7.83-5.47c-1.22-0.87-2.43-1.75-3.64-2.64c-1.96-1.45-3.91-2.91-5.85-4.4
	c-0.67-0.51-1.33-1.02-1.99-1.55c-12.9-10-25.14-20.83-36.61-32.41C119.9,629.97,78,535.87,78,432C78,223.24,247.24,54,456,54
	S834,223.24,834,432z"/>
<path class="st1" d="M443.81,882.44c3.73,59.65,34.8,136.7,34.8,136.7s11.18,55.92,123.03,103.15
	c19.11-7.03,78.89-31.74,120.55-96.94c26.1-67.11,38.96-130.11,37.28-150.38c-11.21-70.41-67.41-161.74-152.86-164.05
	C516.85,708.51,453.29,805.88,443.81,882.44z"/>
<g>
	<path class="st2" d="M465.66,800.29c-0.04,3.25-0.1,6.45-0.16,9.59c-0.44,0.02-0.89,0.02-1.33,0.03c-0.36,0.01-0.73,0.01-1.09,0.02
		c-2.35,0.05-4.71,0.07-7.08,0.07c-0.52,0-1.03,0-1.55-0.01c-1.15,0-2.3-0.01-3.44-0.03c-2.92-0.03-5.83-0.11-8.73-0.21
		c-0.08,0-0.15-0.01-0.23-0.01c-1.1-0.04-2.2-0.08-3.3-0.13c-5.36-0.24-10.69-0.59-15.99-1.06c-0.45-0.03-0.91-0.07-1.36-0.11
		c-0.7-0.07-1.39-0.13-2.09-0.21c-0.14-0.01-0.28-0.02-0.42-0.04h-0.01c-0.35-0.03-0.7-0.06-1.05-0.1c-0.64-0.06-1.28-0.13-1.92-0.2
		h-0.01c-0.46-0.05-0.92-0.1-1.38-0.15c-0.96-0.1-1.91-0.21-2.86-0.33c-1.19-0.14-2.38-0.28-3.57-0.43
		c-0.16-0.02-0.32-0.04-0.48-0.06c-1.03-0.13-2.05-0.27-3.07-0.41c-0.09-0.01-0.19-0.02-0.28-0.04c-2.09-0.28-4.17-0.58-6.25-0.9
		c-0.01,0.01-0.02,0-0.03-0.01c-0.98-0.15-1.95-0.3-2.92-0.47c-0.04,0-0.07-0.01-0.11-0.02c-0.14-0.01-0.29-0.04-0.43-0.06
		c-1.02-0.16-2.04-0.33-3.05-0.51c-0.04,0-0.08-0.01-0.12-0.02c-0.54-0.09-1.07-0.18-1.61-0.28c-3.85-0.67-7.68-1.41-11.48-2.21
		c-2.2-0.46-4.39-0.94-6.57-1.43c-5.06-1.15-10.08-2.4-15.06-3.76c-2.1-0.57-4.2-1.16-6.29-1.77c-0.19-0.05-0.38-0.11-0.57-0.17
		c-0.79-0.22-1.58-0.46-2.36-0.7c-0.04-0.01-0.07-0.02-0.11-0.03c-0.54-0.16-1.08-0.32-1.62-0.49c-1.72-0.52-3.43-1.06-5.13-1.61
		c-1.02-0.32-2.04-0.65-3.06-0.98c-1.03-0.35-2.05-0.69-3.08-1.04c-0.21-0.07-0.42-0.14-0.63-0.21h-0.02
		c-0.05-0.02-0.11-0.04-0.16-0.05c-1.4-0.48-2.78-0.97-4.16-1.46h-0.01c-0.21-0.08-0.42-0.16-0.63-0.23
		c-0.15-0.05-0.29-0.11-0.44-0.16c-0.52-0.19-1.04-0.37-1.55-0.57c-0.06-0.02-0.12-0.04-0.18-0.07c-0.09-0.03-0.18-0.06-0.27-0.1
		c-0.53-0.19-1.06-0.38-1.58-0.57c-1.11-0.4-2.21-0.81-3.31-1.23c-0.02-0.01-0.03-0.01-0.05-0.02c-0.6-0.23-1.2-0.46-1.8-0.69
		c-1.02-0.4-2.04-0.8-3.05-1.21c-0.4-0.15-0.8-0.31-1.2-0.47c-2.09-0.84-4.17-1.69-6.23-2.56h-0.02c-0.06-0.03-0.13-0.05-0.19-0.08
		c-1.14-0.48-2.27-0.97-3.41-1.46c-1.71-0.74-3.42-1.5-5.12-2.27c-1.33-0.6-2.66-1.22-3.99-1.84c-2.64-1.23-5.27-2.49-7.88-3.79
		c-3.82-1.89-7.61-3.85-11.36-5.87c-0.41-0.22-0.83-0.45-1.24-0.68c-0.67-0.35-1.33-0.72-1.99-1.09c-1.75-0.95-3.49-1.93-5.21-2.92
		c-0.01-0.01-0.03-0.01-0.04-0.02c-0.23-0.12-0.43-0.24-0.64-0.36c-0.08-0.04-0.15-0.08-0.22-0.13c-0.11-0.06-0.21-0.12-0.32-0.19
		c-0.03-0.02-0.05-0.03-0.08-0.05c-0.46-0.26-0.93-0.54-1.39-0.81c-1.13-0.66-2.27-1.32-3.39-2c-2.07-1.23-4.13-2.48-6.18-3.75
		c-0.07-0.05-0.15-0.09-0.22-0.14c-0.21-0.13-0.41-0.26-0.62-0.39c-3.04-1.9-6.05-3.85-9.03-5.84c-0.37-0.24-0.73-0.49-1.1-0.73
		c-0.61-0.41-1.22-0.82-1.83-1.24c-2.64-1.79-5.25-3.61-7.83-5.47c-1.22-0.87-2.43-1.75-3.64-2.64c-1.96-1.45-3.91-2.91-5.85-4.4
		c-0.67-0.51-1.33-1.02-1.99-1.55c0.29-11.18,0.71-22,1.35-32.41c4-65.88,16.26-115.7,54.82-139.96
		c12.25-7.71,36.37-18.63,66.13-18.04c0,0,2.23,0.04,6.07,0.44c6.05,0.63,16.08,2.14,27.71,5.73c0.3,0.09,0.6,0.19,0.9,0.28
		c10.15,3.21,21.45,8.02,32.32,15.21c0.61,0.41,1.22,0.82,1.83,1.24c1.62,1.11,3.23,2.28,4.82,3.51c2.65,2.04,5.14,4.18,7.5,6.44
		c8.52,8.12,15.2,17.64,20.42,28.79c1.35,2.88,2.61,5.88,3.76,8.99c3.12,8.31,5.59,17.45,7.52,27.47c0,0.02,0.01,0.04,0.01,0.06
		l0.15,0.75c3.22,17.01,4.95,36.58,5.79,59.09c0.48,12.7,0.68,26.35,0.7,41C466.2,757.94,465.96,778.23,465.66,800.29z"/>
</g>
<path class="st3" d="M371.69,800.56c-5.06-1.15-10.08-2.4-15.06-3.76c-2.1-0.57-4.2-1.16-6.29-1.77c-0.19-0.05-0.38-0.11-0.57-0.17
	c-0.79-0.22-1.58-0.46-2.36-0.7c-0.04-0.01-0.07-0.02-0.11-0.03c-0.54-0.16-1.08-0.32-1.62-0.49c-1.72-0.52-3.43-1.06-5.13-1.61
	c-1.02-0.32-2.04-0.65-3.06-0.98c-1.03-0.35-2.05-0.69-3.08-1.04c-0.21-0.07-0.42-0.14-0.63-0.21h-0.02
	c-0.05-0.02-0.11-0.04-0.16-0.05c-1.4-0.48-2.78-0.97-4.16-1.46h-0.01c-0.21-0.08-0.42-0.16-0.63-0.23
	c-0.15-0.05-0.29-0.11-0.44-0.16c-0.52-0.19-1.04-0.37-1.55-0.57c-0.06-0.02-0.12-0.04-0.18-0.07c-0.09-0.03-0.18-0.06-0.27-0.1
	c-0.53-0.19-1.06-0.38-1.58-0.57c-1.11-0.4-2.21-0.81-3.31-1.23c-0.02-0.01-0.03-0.01-0.05-0.02c-0.6-0.23-1.2-0.46-1.8-0.69
	c-1.02-0.4-2.04-0.8-3.05-1.21c-0.4-0.15-0.8-0.31-1.2-0.47c-2.09-0.84-4.17-1.69-6.23-2.56h-0.02c-0.06-0.03-0.13-0.05-0.19-0.08
	c-1.14-0.48-2.27-0.97-3.41-1.46c-1.71-0.74-3.42-1.5-5.12-2.27c-1.33-0.6-2.66-1.22-3.99-1.84c14.24-1.86,29.71-2.95,46.25-2.82
	c2.65,0.02,5.28,0.07,7.88,0.16c0.98,0.02,1.95,0.06,2.91,0.1c1.41,0.05,2.8,0.11,4.19,0.19c5.23,0.27,10.34,0.66,15.32,1.15
	c22.73,2.22,42.78,6.5,59.62,11.27c1.25,0.36,2.49,0.72,3.7,1.08c10.52,3.11,19.7,6.39,27.38,9.4c0.23,4.94,0.4,9.81,0.51,14.62
	c-0.36,0.01-0.73,0.01-1.09,0.02c-2.35,0.05-4.71,0.07-7.08,0.07c-0.52,0-1.03,0-1.55-0.01c-1.15,0-2.3-0.01-3.44-0.03
	c-2.92-0.03-5.83-0.11-8.73-0.21c-0.08,0-0.15-0.01-0.23-0.01c-1.1-0.04-2.2-0.08-3.3-0.13c-5.36-0.24-10.69-0.59-15.99-1.06
	c-0.45-0.03-0.91-0.07-1.36-0.11c-0.7-0.07-1.39-0.13-2.09-0.21c-0.14-0.01-0.28-0.02-0.42-0.04h-0.01c-0.35-0.03-0.7-0.06-1.05-0.1
	c-0.64-0.06-1.28-0.13-1.92-0.2h-0.01c-0.46-0.05-0.92-0.1-1.38-0.15c-0.96-0.1-1.91-0.21-2.86-0.33c-1.19-0.14-2.38-0.28-3.57-0.43
	c-0.16-0.02-0.32-0.04-0.48-0.06c-1.03-0.13-2.05-0.27-3.07-0.41c-0.09-0.01-0.19-0.02-0.28-0.04c-2.09-0.28-4.17-0.58-6.25-0.9
	c-0.01,0.01-0.02,0-0.03-0.01c-0.98-0.15-1.95-0.3-2.92-0.47c-0.04,0-0.07-0.01-0.11-0.02c-0.14-0.01-0.29-0.04-0.43-0.06
	c-1.02-0.16-2.04-0.33-3.05-0.51c-0.04,0-0.08-0.01-0.12-0.02c-0.54-0.09-1.07-0.18-1.61-0.28c-3.85-0.67-7.68-1.41-11.48-2.21
	C376.06,801.53,373.87,801.05,371.69,800.56z"/>
<path class="st4" d="M479.66,698.29v41H235.84c-1.22-0.87-2.43-1.75-3.64-2.64c-1.96-1.45-3.91-2.91-5.85-4.4
	c-0.67-0.51-1.33-1.02-1.99-1.55c-12.9-10-25.14-20.83-36.61-32.41H479.66z"/>
<path class="st5" d="M592.66,603.29c12.56-30.76,24.43-63.74,35.07-98.92c41.78-138.11,50.94-264.92,47.93-367.08
	c-44.08-14.16-109.19-29.68-189-30c-82.27-0.33-149.25,15.63-194,30c-6.55,68.58-7.71,167.65,20.21,281.71
	c18.07,73.83,43.7,135.03,67.79,182.29"/>
<path class="st6" d="M542.8,467.95c2.63,23.55-6,13-8,90c-2.94,9.27-8.97,25.81-22,43c-10.02,13.22-18.65,24.6-30,25
	c-18.93,0.66-33.56-29.65-40-43c-13.52-28-6-64-11-106C452.85,450.7,500.49,444.04,542.8,467.95z"/>
<g>
	<path class="st7" d="M434.3,476.45c11.99-6.42,36.45-17.3,68.33-16.11c16.83,0.63,30.72,4.43,40.67,8.11c-2,15-4,30-6,45
		c0,0-23.03,18.75-36.31,22.96c-17.24,5.47-32.91,4.91-46.59,4.21c-8.43-0.43-15.37-1.39-20.1-2.18V476.45z"/>
</g>
<path class="st8" d="M631.8,358.95c5.54-8.08,19.24-30.37,20-60.38c1.13-44.78-26.96-90.63-65.69-110.21
	c-40.81-20.64-103.7-19.91-103.71-20.19c0-0.19,1.61-0.08,3.39-0.22c15.26-1.18,28.81-19.65,26.35-23.16
	c-1.46-2.09-9.83-0.61-41.35,16.16c-124.97-3.61-166.47,11.64-169.65,15.84c-1.1,1.46,127.82,11.95,128.15,12.03
	c0,0,0.16,0.04,0.35,0.09c0.04,0.01,0.09,0.02,0.14,0.04c-11.66-5.32-27.47-9.8-45-7c-37.09,5.91-68.24,42.16-77,91
	c1.39,26.89,8.7,77.86,47,115C431.48,462.3,581.64,432.11,631.8,358.95z"/>
<path class="st6" d="M329.8,349.95c-10.38,4.58-10.06,25.47-10,28c1.09,43.16,55.54,68.45,59,70c12.05,5.4,24.6,11.04,30,6
	c10.43-9.73-12.72-52.96-40-81C359.41,363.29,341.43,344.82,329.8,349.95z"/>
<path class="st6" d="M633.23,350.38c10.38,4.58,10.06,25.47,10,28c-1.09,43.16-55.54,68.45-59,70c-12.05,5.4-24.6,11.04-30,6
	c-10.43-9.73,12.72-52.96,40-81C603.62,363.73,621.6,345.26,633.23,350.38z"/>
<path class="st6" d="M355.8,334.95c3,48,28,110,28,110s9,45,99,83c15.38-5.65,63.48-25.54,97-78c21-54,31.35-104.69,30-121
	c-9.02-56.66-54.24-130.14-123-132C414.58,195,363.43,273.35,355.8,334.95z"/>
<path class="st9" d="M461.8,265.95c-7,66-29,96-29,96s56-29,45-39c1.76,1.49-14,45-32,55c4.73,6.17,28.68-0.81,44-13
	c43.35-34.5,25.69-117.12,23-129"/>
<path class="st9" d="M492.8,251.95c14.01,28.85,62.09,68.06,100.58,100.55c6.89,5.82-1.42,24.24-12.58,42.45
	c3.27,3.09,12.2-1.57,14.1-2.56c14.74-7.68,24.59-25.25,24.9-47.44"/>
<path class="st10" d="M355.8,384.83"/>
<path class="st8" d="M620.8,338.95c16.73-14.19-7.66-108.46-76-144c-65.01-33.81-154.86-6.63-191,51c-20.8,33.16-27.38,81.62-11,92
	c28.84,18.27,125.02-83.91,136.5-72.5c4.98,4.95-11.12,26.16-4.5,32.5c7.01,6.71,25.92-16.2,49.5-12.5c23.3,3.66,24.19,29.06,59,46
	C592.8,336.07,612.75,345.77,620.8,338.95z"/>
<g>
	<g>
		<path d="M462.18,265.08c0.78-3.65,1.16-7.39,1.13-11.12c-0.01-1.07-1.29-1.96-2.26-1.3c-3.41,2.35-6.52,5.1-9.24,8.23
			c-0.53,0.61-0.6,1.52,0,2.12c0.54,0.54,1.59,0.61,2.12,0c2.55-2.93,5.44-5.55,8.63-7.76c-0.75-0.43-1.5-0.86-2.26-1.3
			c0.04,3.47-0.3,6.93-1.02,10.33c-0.17,0.79,0.23,1.62,1.05,1.85C461.09,266.33,462.01,265.88,462.18,265.08L462.18,265.08z"/>
	</g>
</g>
<g>
	<path d="M519.25,282.05c-0.74,0.01-0.84-7.33-3.11-21.84c-1.42-9.13-2.97-16.61-4.1-21.68c2.72,4.55,6.13,11.49,7.76,20.42
		C522,270.95,520.16,282.03,519.25,282.05z"/>
	<g>
		<path d="M519.25,280.55c0.38,0.04,1.05,0.54,1.12,0.59c0.02,0.01,0.09,0.37,0.07,0.15c-0.02-0.19-0.1-0.39-0.14-0.58
			c-0.16-0.76-0.17-1.05-0.26-1.76c-0.28-2.33-0.51-4.67-0.79-7.01c-0.92-7.81-2.12-15.58-3.59-23.3
			c-0.67-3.51-1.39-7.02-2.17-10.51c-0.91,0.39-1.83,0.77-2.74,1.16c4.15,6.98,6.96,14.7,8.04,22.76c0.58,4.34,0.71,8.76,0.39,13.12
			c-0.1,1.42-0.25,2.85-0.53,4.25c-0.1,0.47-0.21,0.94-0.35,1.4c-0.1,0.32-0.1,0.12-0.06,0.19c-0.02,0.05-0.05,0.1-0.08,0.14
			c0.16-0.27,0.39-0.44,0.7-0.54c-1.9,0.33-1.09,3.23,0.8,2.89c1.53-0.27,1.81-2.79,2.02-3.96c0.52-3.01,0.68-6.08,0.67-9.12
			c-0.03-7.98-1.44-15.95-4.42-23.36c-1.29-3.21-2.82-6.31-4.58-9.28c-0.89-1.49-3.11-0.49-2.74,1.16
			c1.69,7.58,3.12,15.21,4.29,22.89c0.93,6.14,1.48,12.32,2.32,18.47c0.19,1.35,0.34,3.1,2.04,3.27
			C521.17,283.73,521.15,280.73,519.25,280.55z"/>
	</g>
</g>
<g>
	<g>
		<path d="M625.4,339.89c0-3.52,0-7.03,0-10.55c0-0.81-0.69-1.5-1.5-1.5c-0.81,0-1.5,0.69-1.5,1.5c0,3.52,0,7.03,0,10.55
			c0,0.81,0.69,1.5,1.5,1.5C624.72,341.39,625.4,340.7,625.4,339.89L625.4,339.89z"/>
	</g>
</g>
<g>
	<g>
		<path d="M394.61,185.1c9.05-0.66,18.17-0.34,27.14,1.02c1.89,0.29,2.7-2.6,0.8-2.89c-9.25-1.4-18.6-1.81-27.94-1.13
			C392.7,182.24,392.68,185.24,394.61,185.1L394.61,185.1z"/>
	</g>
</g>
<g>
	<g>
		<path d="M503.37,226.24c-1.68-3.47-4.81-6.12-8.44-7.34c-0.74-0.25-1.67,0.29-1.85,1.05c-0.19,0.83,0.25,1.58,1.05,1.85
			c0.2,0.07,0.4,0.14,0.59,0.21c0.16,0.06,0.2,0.06,0.01,0c0.1,0.03,0.22,0.09,0.31,0.14c0.38,0.18,0.76,0.37,1.12,0.58
			c0.35,0.2,0.68,0.42,1.01,0.66c0.08,0.06,0.15,0.11,0.23,0.17c0.31,0.23-0.24-0.2,0.06,0.05c0.16,0.13,0.32,0.27,0.48,0.41
			c0.3,0.27,0.59,0.55,0.86,0.84c0.14,0.15,0.28,0.31,0.42,0.47c0.06,0.07,0.12,0.15,0.18,0.22c0.04,0.05,0.3,0.33,0.05,0.06
			c0.55,0.59,0.96,1.43,1.31,2.15c0.34,0.71,1.41,0.95,2.05,0.54C503.56,227.82,503.74,226.99,503.37,226.24L503.37,226.24z"/>
	</g>
</g>
<g>
	<g>
		<path d="M585.55,225.94c8.24,14.54,15.54,29.59,21.83,45.07c0.72,1.77,3.62,0.99,2.89-0.8c-6.38-15.72-13.76-31.02-22.13-45.79
			C587.19,222.75,584.6,224.26,585.55,225.94L585.55,225.94z"/>
	</g>
</g>
<g>
	<g>
		<path d="M338.97,286.61c0.55-4.03,2.17-7.72,3.86-11.38c1.77-3.84,3.6-7.66,5.48-11.45c3.72-7.51,7.64-14.92,11.75-22.23
			c0.95-1.68-1.64-3.2-2.59-1.51c-4.19,7.44-8.18,15-11.97,22.66c-1.87,3.79-3.7,7.61-5.47,11.46c-1.72,3.74-3.4,7.55-3.96,11.67
			c-0.11,0.81,0.2,1.6,1.05,1.85C337.83,287.86,338.87,287.41,338.97,286.61L338.97,286.61z"/>
	</g>
</g>
<path class="st11" d="M331.8,363.95c-1.18,3.76-3.06,11.56-1,21c1.38,6.34,4.03,11.08,6,14"/>
<path class="st11" d="M632.91,362.77c1.18,3.76,3.06,11.56,1,21c-1.38,6.34-4.03,11.08-6,14"/>
<line class="st11" x1="488.8" y1="379.95" x2="475.8" y2="387.95"/>
<line class="st11" x1="489.8" y1="384.95" x2="468.8" y2="397.95"/>
<line class="st11" x1="494.8" y1="387.95" x2="467.8" y2="404.95"/>
<line class="st11" x1="496.8" y1="393.95" x2="468.8" y2="410.95"/>
<line class="st11" x1="499.8" y1="397.95" x2="470.8" y2="414.95"/>
<path class="st12" d="M482.8,424.45c-0.17,4-0.33,8-0.5,12c-1.83-1.67-3.67-3.33-5.5-5"/>
<g>
	<g>
		<path class="st7" d="M388.73,413.74c-0.61,0.82-1.22,1.63-1.83,2.45c-0.11,0.17-0.17,0.36-0.18,0.56c-0.04,0.2-0.04,0.4,0.03,0.6
			c0.1,0.35,0.36,0.73,0.69,0.9c0.35,0.18,0.77,0.28,1.16,0.15c0.12-0.05,0.24-0.1,0.36-0.15c0.23-0.13,0.4-0.31,0.54-0.54
			c0.61-0.82,1.22-1.63,1.83-2.45c0.11-0.17,0.17-0.36,0.18-0.56c0.04-0.2,0.04-0.4-0.03-0.6c-0.1-0.35-0.36-0.73-0.69-0.9
			c-0.35-0.18-0.77-0.28-1.16-0.15c-0.12,0.05-0.24,0.1-0.36,0.15C389.05,413.33,388.87,413.51,388.73,413.74L388.73,413.74z"/>
	</g>
</g>
<g>
	<g>
		<path class="st7" d="M392.68,416.47c-0.2,0.31-0.41,0.61-0.61,0.92c-0.11,0.17-0.17,0.36-0.18,0.56c-0.04,0.2-0.04,0.4,0.03,0.6
			c0.05,0.2,0.14,0.37,0.27,0.51c0.11,0.16,0.25,0.29,0.42,0.39c0.12,0.05,0.24,0.1,0.36,0.15c0.27,0.07,0.53,0.07,0.8,0
			c0.12-0.05,0.24-0.1,0.36-0.15c0.23-0.13,0.4-0.31,0.54-0.54c0.2-0.31,0.41-0.61,0.61-0.92c0.11-0.17,0.17-0.36,0.18-0.56
			c0.04-0.2,0.04-0.4-0.03-0.6c-0.05-0.2-0.14-0.37-0.27-0.51c-0.11-0.16-0.25-0.29-0.42-0.39c-0.12-0.05-0.24-0.1-0.36-0.15
			c-0.27-0.07-0.53-0.07-0.8,0c-0.12,0.05-0.24,0.1-0.36,0.15C393,416.07,392.82,416.24,392.68,416.47L392.68,416.47z"/>
	</g>
</g>
<g>
	<g>
		<path class="st7" d="M562.17,416.32c0,0.51,0,1.02,0,1.53c-0.01,0.21,0.04,0.4,0.13,0.58c0.06,0.19,0.16,0.35,0.31,0.48
			c0.14,0.15,0.3,0.25,0.48,0.31c0.18,0.09,0.37,0.14,0.58,0.13c0.13-0.02,0.27-0.04,0.4-0.05c0.25-0.07,0.47-0.2,0.66-0.39
			c0.27-0.29,0.44-0.65,0.44-1.06c0-0.51,0-1.02,0-1.53c0.01-0.21-0.04-0.4-0.13-0.58c-0.06-0.19-0.16-0.35-0.31-0.48
			c-0.14-0.15-0.3-0.25-0.48-0.31c-0.18-0.09-0.37-0.14-0.58-0.13c-0.13,0.02-0.27,0.04-0.4,0.05c-0.25,0.07-0.47,0.2-0.66,0.39
			C562.34,415.55,562.17,415.91,562.17,416.32L562.17,416.32z"/>
	</g>
</g>
<g>
	<g>
		<path class="st7" d="M566.72,415.13c0.01,0.01,0.02,0.03,0.04,0.04c-0.08-0.1-0.16-0.2-0.23-0.3c0.24,0.32,0.44,0.66,0.6,1.03
			c-0.05-0.12-0.1-0.24-0.15-0.36c0.17,0.4,0.28,0.82,0.34,1.26c-0.02-0.13-0.04-0.27-0.05-0.4c0.05,0.38,0.05,0.76,0.01,1.13
			c-0.04,0.36,0.2,0.82,0.44,1.06c0.26,0.26,0.69,0.46,1.06,0.44c0.39-0.02,0.79-0.14,1.06-0.44c0.08-0.1,0.16-0.2,0.23-0.3
			c0.14-0.23,0.2-0.49,0.2-0.76c0.08-0.75,0-1.53-0.21-2.25c-0.12-0.4-0.28-0.8-0.47-1.18c-0.2-0.4-0.47-0.74-0.74-1.09
			c-0.22-0.28-0.72-0.44-1.06-0.44c-0.37,0-0.81,0.16-1.06,0.44c-0.26,0.29-0.46,0.66-0.44,1.06c0.02,0.13,0.04,0.27,0.05,0.4
			C566.41,414.72,566.54,414.94,566.72,415.13L566.72,415.13z"/>
	</g>
</g>
<path class="st9" d="M467.8,268.95c-12.82,8.94-94,84-101,114c-2,5,9.6,31.37,11,31c0.08-0.02,0.11-0.11,0.12-0.15
	c0.66-2.62-54.89-18.44-44.12-91.85"/>
<path class="st5" d="M671.8,648.95c3.52,27.99,9.2,55.16,16.06,81.57c-0.54,0.43-1.07,0.85-1.61,1.26
	c-0.16,0.13-0.33,0.25-0.49,0.37c-0.24,0.2-0.49,0.39-0.74,0.57c-0.94,0.73-1.89,1.44-2.85,2.16c-0.91,0.68-1.83,1.35-2.74,2.03
	c-0.65,0.47-1.3,0.95-1.95,1.41c-0.12,0.09-0.23,0.18-0.35,0.26c-0.23,0.17-0.47,0.34-0.7,0.51c-0.27,0.19-0.54,0.39-0.8,0.57
	c-0.23,0.18-0.45,0.34-0.68,0.5c-0.39,0.28-0.78,0.55-1.17,0.82c-0.11,0.08-0.23,0.17-0.34,0.25c-0.15,0.1-0.3,0.21-0.46,0.31
	c-0.42,0.31-0.85,0.61-1.29,0.91c-1.28,0.89-2.57,1.78-3.86,2.65c-0.17,0.12-0.35,0.24-0.52,0.35c-1.36,0.92-2.73,1.83-4.1,2.72
	c-0.1,0.06-0.2,0.13-0.3,0.19c-0.09,0.06-0.17,0.11-0.26,0.17c-0.07,0.04-0.13,0.09-0.2,0.13c-0.12,0.08-0.24,0.17-0.37,0.24
	c-0.28,0.2-0.57,0.38-0.85,0.56c-0.08,0.05-0.15,0.1-0.23,0.15c-0.36,0.24-0.71,0.47-1.07,0.7c-0.17,0.12-0.35,0.23-0.52,0.34
	c-0.02,0.01-0.03,0.02-0.05,0.03c-0.22,0.14-0.43,0.28-0.65,0.42c-0.02,0.01-0.05,0.03-0.07,0.04c-0.69,0.44-1.38,0.88-2.07,1.3
	c-0.64,0.41-1.27,0.81-1.91,1.2c-1,0.62-2,1.23-3.01,1.84c-0.2,0.12-0.41,0.25-0.61,0.37h-0.01c-0.75,0.45-1.5,0.9-2.25,1.34
	c-0.08,0.06-0.16,0.1-0.25,0.15c-1.4,0.84-2.8,1.66-4.22,2.47c-0.22,0.12-0.43,0.25-0.65,0.37c-4.44,2.56-8.94,5.02-13.51,7.38
	c-0.81,0.43-1.63,0.85-2.46,1.27c-0.82,0.42-1.65,0.83-2.47,1.24c-0.25,0.14-0.51,0.26-0.76,0.39c-0.08,0.04-0.17,0.09-0.25,0.12
	c-0.38,0.2-0.76,0.39-1.14,0.57h-0.01c-0.23,0.12-0.45,0.23-0.68,0.35c-0.32,0.16-0.63,0.31-0.95,0.47c-1.7,0.83-3.4,1.64-5.11,2.44
	c-0.86-3.87-1.72-7.74-2.58-11.6c-4.89-22.05-9.78-44.09-14.67-66.13c-1.76-7.91-3.51-15.82-5.27-23.73l-16.43-33.54l-9.47-19.34
	l-6.08-12.42l-2.29-4.67l-1.57-3.2l-0.49-1.01l-0.14-0.27l-2.41-4.94l-17.16-35.02l-1.1-2.25c12.93,2.94,25.87,5.88,38.81,8.82
	c0.08,0.02,0.16,0.04,0.24,0.06c1.45,0.33,2.9,0.66,4.36,0.99c0.78,0.18,1.57,0.35,2.36,0.53c0.04,0.01,0.08,0.02,0.12,0.03
	c0.15,0.03,0.3,0.07,0.45,0.1c0.2,0.05,0.41,0.1,0.62,0.14c0.37,0.09,0.74,0.17,1.12,0.26c0.93,0.21,1.86,0.42,2.79,0.63
	c0.44,0.1,0.88,0.2,1.32,0.3c0.3,0.07,0.61,0.14,0.92,0.21c1.11,0.26,2.23,0.51,3.35,0.76c0.26,0.06,0.53,0.12,0.8,0.19
	c0.06,0.01,0.13,0.03,0.2,0.04c0.93,0.21,1.87,0.43,2.81,0.64c0.74,0.17,1.48,0.34,2.23,0.51c0.22,0.05,0.44,0.1,0.66,0.15
	c0.06,0.01,0.12,0.02,0.18,0.04c0.27,0.06,0.54,0.12,0.82,0.18c0.32,0.08,0.64,0.15,0.97,0.22c1.05,0.24,2.1,0.48,3.16,0.72
	c1.43,0.33,2.86,0.65,4.3,0.98c3.68,0.84,7.37,1.67,11.06,2.51c12.59,2.87,25.19,5.73,37.78,8.59
	C665.84,605.35,669.07,627.17,671.8,648.95z"/>
<path class="st5" d="M435.66,557.29l-0.03,0.07v0.01l-1.74,3.5l-6.08,12.27l-13.64,27.52l-0.22,0.43l-0.25,0.51l-0.02,0.04
	l-1.06,2.15l-4.17,8.42l-4.53,9.13l-11.29,22.8l-8.83,17.81c-0.18,0.64-0.35,1.28-0.53,1.92c-3.16,11.47-6.31,22.95-9.47,34.42
	c-3.76,13.67-7.52,27.33-11.29,41c-1.44,5.24-2.88,10.48-4.32,15.72c-1.58,5.73-3.16,11.46-4.74,17.19
	c-1.11,4.07-2.23,8.14-3.36,12.21c-0.89,3.25-1.78,6.5-2.68,9.75c-0.04-0.01-0.07-0.02-0.11-0.03c-0.54-0.16-1.08-0.32-1.62-0.49
	c-1.72-0.52-3.43-1.06-5.13-1.61c-1.02-0.32-2.04-0.65-3.06-0.98c-1.03-0.35-2.05-0.69-3.08-1.04c-0.21-0.07-0.42-0.14-0.63-0.21
	h-0.02c-0.05-0.02-0.11-0.04-0.16-0.05c-1.4-0.48-2.78-0.97-4.16-1.46h-0.01c-0.21-0.08-0.42-0.16-0.63-0.23
	c-0.15-0.05-0.29-0.11-0.44-0.16c-0.52-0.19-1.04-0.37-1.55-0.57c-0.06-0.02-0.12-0.04-0.18-0.07c-0.09-0.03-0.18-0.06-0.27-0.1
	c-0.53-0.19-1.06-0.38-1.58-0.57c-1.11-0.4-2.21-0.81-3.31-1.23c-0.02-0.01-0.03-0.01-0.05-0.02c-0.6-0.23-1.2-0.46-1.8-0.69
	c-1.02-0.4-2.04-0.8-3.05-1.21c-0.4-0.15-0.8-0.31-1.2-0.47c-2.09-0.84-4.17-1.69-6.23-2.56h-0.02c-0.06-0.03-0.13-0.05-0.19-0.08
	c-1.14-0.48-2.27-0.97-3.41-1.46c-1.71-0.74-3.42-1.5-5.12-2.27c-1.33-0.6-2.66-1.22-3.99-1.84c-2.64-1.23-5.27-2.49-7.88-3.79
	c-3.82-1.89-7.61-3.85-11.36-5.87c-0.41-0.22-0.83-0.45-1.24-0.68c2.16-8.35,4.37-16.73,6.62-25.13c3.62-13.59,7.35-27.26,11.19-41
	c3.91-14.04,7.93-28.15,12.06-42.34c7.51-25.77,15.19-51.1,23-76c12.23-2.6,24.46-5.19,36.69-7.78c0.31-0.07,0.61-0.13,0.92-0.2
	c0.09-0.02,0.17-0.04,0.26-0.05c7.46-1.59,14.91-3.17,22.37-4.74c0.9-0.2,1.81-0.39,2.71-0.58c0.26-0.06,0.52-0.11,0.78-0.16
	c1.02-0.22,2.03-0.44,3.05-0.65c6.03-1.28,12.05-2.56,18.08-3.84c7.32-1.55,14.64-3.1,21.96-4.65
	C435.63,557.3,435.65,557.29,435.66,557.29z"/>
<g>
	<path class="st13" d="M613.74,762.81c0.31,4.55,0.52,8.72,0.54,12.56c-0.06,0.02-0.12,0.05-0.18,0.08
		c-0.16,0.07-0.32,0.15-0.49,0.22c-0.9,0.41-1.8,0.82-2.71,1.23c-0.55,0.25-1.09,0.49-1.63,0.73c-0.03,0.01-0.05,0.02-0.08,0.04
		c-0.31,0.13-0.62,0.27-0.92,0.41c-1.26,0.55-2.52,1.1-3.79,1.64c-0.79,0.33-1.57,0.66-2.36,0.99c-0.28,0.12-0.56,0.23-0.84,0.35
		c-0.05,0.02-0.11,0.05-0.16,0.06c-0.27,0.12-0.54,0.23-0.81,0.34c-0.29,0.13-0.58,0.25-0.87,0.36c-0.04,0.02-0.07,0.04-0.11,0.05
		c-0.14,0.06-0.29,0.12-0.43,0.17c-1.51,0.63-3.01,1.24-4.53,1.84c-1.76,0.69-3.52,1.37-5.3,2.04c-1.7,0.64-3.42,1.27-5.14,1.89
		c-3.59,1.29-7.21,2.53-10.85,3.71c-0.27,0.09-0.54,0.17-0.81,0.26c-1.98,0.64-3.98,1.27-5.98,1.88c-1.58,0.48-3.16,0.95-4.74,1.41
		l-3.15,0.9c-2.37,0.66-4.76,1.31-7.15,1.93c-2.03,0.53-4.07,1.04-6.11,1.53c-12.57,3.03-25.37,5.44-38.38,7.19
		c-1.35,0.18-2.69,0.35-4.04,0.51h-0.01c-2.59,0.33-5.19,0.62-7.8,0.89h-0.01c-1,0.1-1.97,0.2-2.97,0.29h-0.01
		c-0.09,0.01-0.18,0.02-0.27,0.02c-0.56,0.06-1.11,0.12-1.67,0.17c-1.39,0.12-2.79,0.23-4.19,0.34c-0.57,0.05-1.13,0.09-1.7,0.13
		c-1.91,0.15-3.82,0.27-5.73,0.38c-0.14,0.01-0.27,0.02-0.41,0.02c-0.64,0.04-1.28,0.08-1.91,0.11c-0.24,0.01-0.47,0.02-0.71,0.03
		c-2.1,0.11-4.2,0.2-6.31,0.26c-0.54,0.03-1.08,0.05-1.62,0.06c-0.63,0.02-1.27,0.04-1.9,0.05c-0.44,0.02-0.89,0.02-1.33,0.03
		c-0.36,0.01-0.73,0.01-1.09,0.02c-2.35,0.05-4.71,0.07-7.08,0.07c-0.52,0-1.03,0-1.55-0.01c-1.15,0-2.3-0.01-3.44-0.03
		c-2.92-0.03-5.83-0.11-8.73-0.21c-0.08,0-0.15-0.01-0.23-0.01c-1.1-0.04-2.2-0.08-3.3-0.13c-5.36-0.24-10.69-0.59-15.99-1.06
		c-0.45-0.03-0.91-0.07-1.36-0.11c-0.7-0.07-1.39-0.13-2.09-0.21c-0.14-0.01-0.28-0.02-0.42-0.04h-0.01
		c-0.35-0.03-0.7-0.06-1.05-0.1c-0.64-0.06-1.28-0.13-1.92-0.2h-0.01c-0.46-0.05-0.92-0.1-1.38-0.15c-0.96-0.1-1.91-0.21-2.86-0.33
		c-1.19-0.14-2.38-0.28-3.57-0.43c-0.16-0.02-0.32-0.04-0.48-0.06c-1.03-0.13-2.05-0.27-3.07-0.41c-0.09-0.01-0.19-0.02-0.28-0.04
		c-2.09-0.28-4.17-0.58-6.25-0.9c-0.01,0.01-0.02,0-0.03-0.01c-0.98-0.15-1.95-0.3-2.92-0.47c-0.04,0-0.07-0.01-0.11-0.02
		c-0.14-0.01-0.29-0.04-0.43-0.06c-1.02-0.16-2.04-0.33-3.05-0.51c-0.04,0-0.08-0.01-0.12-0.02c-0.54-0.09-1.07-0.18-1.61-0.28
		c-3.85-0.67-7.68-1.41-11.48-2.21c-2.2-0.46-4.39-0.94-6.57-1.43c-5.06-1.15-10.08-2.4-15.06-3.76c0.38-8.08,0.73-16.24,1.01-24.41
		c0.21-5.8,0.39-11.6,0.55-17.38c0.14-5.27,0.25-10.52,0.34-15.72c0.25-14.14,0.3-27.95,0.12-41c-0.18-13.73-0.62-26.62-1.37-38.15
		c-1.34-20.77-3.67-37.16-7.28-46.19l11.34-0.34l15.24-0.45l13.88-0.41l5.29-0.16l12.7-0.38l11.5-0.34l0.71-0.02l1.2-0.04h0.19
		l29.94-0.89l6.9-0.21l47.46-1.41l39.62-1.17l4.75-0.15l1-0.03l0.47-0.01l9.63-0.29l21.61-0.64l10.37-0.31l14.72-0.43l10.64-0.32
		c-7.18,38.43-8.6,69.82-8.72,91.49C610.28,725.59,612.65,746.61,613.74,762.81z"/>
	<g>
		<path d="M613.86,762.8c-0.01,0.07,0.55,12.57,0.54,12.64c-2.42,1.07-6.79,3.08-9.19,4.09c-34.79,14.99-72.45,24.76-110.29,28.61
			c-27.95,2.88-56.92,2.55-84.86-0.8c-10.84-1.27-20.93-3.06-31.84-5.23c-3.99-0.83-9.04-2.01-12.99-3.03c0,0-8.63-2.15-8.63-2.15
			s-0.09-0.02-0.09-0.02s0-0.1,0-0.1c0.79-13.54,1.21-32.52,1.66-45.87c0.5-37.84,1.5-77.01-3.42-114.59
			c-1.14-7.7-2.41-15.49-5.29-22.74c0,0,0.53-0.02,0.53-0.02s33.64-1.11,33.64-1.11c62.73-1.36,171.58-4.74,235.53-6.63
			c-4.34,25.48-7.73,52.14-8.36,78.34C609.8,710.43,611.74,736.64,613.86,762.8L613.86,762.8z M613.62,762.82
			c-2.12-26.16-4.06-52.39-3.06-78.66c0.91-25.99,3.51-53.16,8.6-78.09c-79.26,2.47-191.03,5.74-269.15,8.26
			c0,0,0.34-0.52,0.34-0.52c2.72,7.22,3.9,14.85,4.93,22.45c3.62,29.94,3.54,61.52,3.37,91.71c-0.06,21.69-0.78,47.47-1.99,68.71
			c4.14,1.06,11.07,2.75,15.09,3.77c6.43,1.43,13.28,2.77,19.74,3.93c32.34,5.56,66.88,6.98,100.15,3.83
			c40.31-3.71,80.6-14.23,117.58-30.69c0,0,5.02-2.26,5.02-2.26l-0.08,0.11C614.16,775.37,613.62,762.82,613.62,762.82
			L613.62,762.82z"/>
	</g>
</g>
<path class="st13" d="M420.8,613.95c-3.57-10.65-16.34-15.55-26-14c-16.11,2.59-27.13,23.73-21,35c6,11.04,28.53,12.72,40,2
	C419.04,632.05,423.8,622.88,420.8,613.95z"/>
<path class="st13" d="M608.27,605.33c-3.39-11.02-17.16-16.07-26.97-15.89c-22.05,0.42-41.46,27.71-36,40
	c5.67,12.76,40.77,15.35,55.97-1.11C602.14,627.39,611.76,616.66,608.27,605.33z"/>
<g>
	<path class="st14" d="M442.05,809.74c-1.1-0.04-2.2-0.08-3.3-0.13c-2.09-8.11-4.15-16.38-6.17-24.8
		c-3.56-14.74-7.03-29.94-10.45-45.52c-2.93-13.41-5.82-27.09-8.66-41c-2.59-12.61-5.14-25.41-7.67-38.34l9.28,38.34l9.92,41
		l11.28,46.6L442.05,809.74z"/>
	<g>
		<path class="st14" d="M442.14,809.81c-1.15-0.01-2.33-0.03-3.5-0.08c0,0-0.02-0.1-0.02-0.1c-4.63-17.84-9.4-37.79-13.51-55.87
			c-6.33-26.98-14.3-66.44-19.77-93.73c0,0,0.91-0.2,0.91-0.2C417.79,707.6,431.02,762.09,442.14,809.81L442.14,809.81z
			 M441.96,809.67c-11.71-46.81-25.27-102.7-36.61-149.61c0,0,0.91-0.2,0.91-0.2c5.41,27.38,13.24,66.72,19.5,93.77
			c4.06,18.11,8.63,38.05,13.12,55.95c0,0-0.12-0.1-0.12-0.1C439.82,809.52,440.87,809.59,441.96,809.67L441.96,809.67z"/>
	</g>
</g>
<line class="st15" x1="545.8" y1="673.95" x2="504.8" y2="777.95"/>
<path class="st10" d="M187.3,62.45L187.3,62.45L187.3,62.45z"/>
<path class="st10" d="M539.8,545.95"/>
<path class="st10" d="M539.8,536.95"/>
<path class="st10" d="M543.8,535.95"/>
<path class="st15" d="M516.28,799.43c9.99,0,19.97,0,29.96,0"/>
<g>
	<path class="st14" d="M348.49,636.74c-7.78,28.37-12.88,57.47-15.22,86.79"/>
	<g>
		<path class="st14" d="M347.05,636.34c-6.08,22.23-10.53,44.88-13.32,67.76c-0.79,6.46-1.44,12.94-1.96,19.43
			c-0.15,1.92,2.85,1.91,3,0c1.83-22.78,5.32-45.42,10.45-67.69c1.44-6.27,3.02-12.5,4.72-18.7
			C350.45,635.28,347.56,634.48,347.05,636.34L347.05,636.34z"/>
	</g>
</g>
<g>
	<path class="st14" d="M646.89,608.37c-8.04,8.9-15.93,17.94-23.65,27.12"/>
	<g>
		<path class="st14" d="M645.83,607.31c-8.04,8.9-15.93,17.94-23.65,27.12c-1.24,1.47,0.88,3.6,2.12,2.12
			c7.72-9.18,15.6-18.22,23.65-27.12C649.24,608,647.12,605.87,645.83,607.31L645.83,607.31z"/>
	</g>
</g>
<path class="st16" d="M657.66,175.29c-50.07,11.07-113.47,20.57-187,21c-64.93,0.38-121.74-6.4-168-15
	c-3.68,48.93-3.28,115.27,13.26,191.21c24.57,112.77,73.56,195.39,108,244c3.64,3.87,26.99,27.88,64,27
	c32.81-0.78,53.59-20.59,58-25c36.41-60.25,82.55-154.34,102.7-276.93C658.98,278.57,660.17,222.07,657.66,175.29z"/>
<path class="st13" d="M299.16,180.29c65.24,10.95,143.8,17.35,232,10.5c28.9-2.24,56.27-5.71,82-10c-3.67-12-7.33-24-11-36
	c-30.18-1.87-61.19-3.24-93-4c-73.97-1.77-144.13-0.09-210,4C299.16,156.62,299.16,168.46,299.16,180.29z"/>
<path class="st10" d="M652.66,149.29c-119.56,25.52-235.2,21.13-348-5"/>
<path class="st10" d="M647.66,170.29"/>
<path class="st17" d="M536.66,558.29c11.67,2.67,23.33,5.33,35,8c-11.67,19-23.33,38-35,57c-16.12,19.24-39.13,22.57-66,17
	c-16.03-0.62-30.02-9.73-43-23c-12.59-10.62-21.9-29.55-31-49c12.33-3,27-8,37-9c1.96,14.23,6.69,28.69,22,44
	c3.9,1.62,29.25,11.68,52-1c1.94-1.08,10.72-6.15,18.21-16.54C533.75,574.79,535.94,563.85,536.66,558.29z"/>
<g>
	<g>
		<path class="st13" d="M593.85,581.09c5.1-6.19,8.7-13.33,11.48-20.82c-0.98-0.13-1.96-0.27-2.95-0.4
			c0.55,4.93-0.84,9.91-4.06,13.72c0.84,0.49,1.67,0.97,2.51,1.46c0.34-2.2,0.69-4.39,1.03-6.59c-0.96,0-1.93,0-2.89,0
			c0.91,5.53,1.13,11.14,0.73,16.72c1,0,2,0,3,0c-0.34-3.64-0.68-7.27-1.02-10.91c-0.23-2.44-0.07-7.07-3.86-6.28
			c-1.38,0.29-2.42,1.27-3.42,2.19c-1.3,1.21-2.59,2.43-3.88,3.65c-2.69,2.55-5.37,5.12-8.03,7.71c0.84,0.49,1.67,0.97,2.51,1.46
			c1.14-3.12,2.28-6.23,3.43-9.35c0.57-1.56,1.14-3.12,1.71-4.67c0.29-0.78,0.57-1.56,0.86-2.34c0.15-0.4,0.63-0.91,0.02-0.94
			c-0.52-0.03-0.18,0.11-0.01,0.45c0.62,1.22,0.65,3.07,0.79,4.42c0.16,1.49,0.25,2.98,0.26,4.47c0.04,3.26-0.27,6.49-0.91,9.68
			c0.98,0.13,1.96,0.27,2.95,0.4c0.19-5.03,0.38-10.07,0.58-15.1c0.06-1.65-2.69-2.09-2.95-0.4c-0.53,3.45-1.45,6.85-2.81,10.06
			c-0.61,1.44,1.09,3.19,2.36,1.82c1.66-1.8,2.67-3.99,3.25-6.36c0.3-1.2,0.48-2.43,0.64-3.66c0.15-1.17,0.46-2.46,0.03-3.59
			c-0.74-1.93-3.03-2.22-4.77-1.59c-2.31,0.84-3.8,3.09-4.65,5.28c-0.42,1.1,0.83,2.12,1.85,1.85c3.7-1.01,7.23-2.57,10.47-4.62
			c0.74-0.47,0.89-1.29,0.54-2.05c-1.13-2.49-4.59-1.45-6.62-1.12c-3.18,0.51-6.35,1.01-9.53,1.52c0.39,0.91,0.77,1.83,1.16,2.74
			c1.87-1.39,3.74-2.77,5.61-4.16c1.26-0.93,0.59-3.31-1.16-2.74c-2.62,0.86-5.12,2.02-7.46,3.49c-1.39,0.88-0.52,3.27,1.16,2.74
			c1.53-0.48,3-1.09,4.42-1.83c1.57-0.81,0.44-3.08-1.16-2.74c-1.06,0.23-2.13,0.46-3.19,0.68c0.39,0.91,0.77,1.83,1.16,2.74
			c0.59-0.34,1.17-0.68,1.76-1.03c1.32-0.77,0.7-2.74-0.76-2.8c-1.9-0.07-3.77,0.2-5.57,0.83c-1.81,0.63-1.03,3.53,0.8,2.89
			c1.57-0.55,3.11-0.78,4.77-0.72c-0.25-0.93-0.5-1.86-0.76-2.8c-0.59,0.34-1.17,0.68-1.76,1.03c-1.51,0.88-0.48,3.09,1.16,2.74
			c1.06-0.23,2.13-0.46,3.19-0.68c-0.39-0.91-0.77-1.83-1.16-2.74c-1.2,0.62-2.42,1.12-3.71,1.53c0.39,0.91,0.77,1.83,1.16,2.74
			c2.12-1.34,4.36-2.41,6.74-3.19c-0.39-0.91-0.77-1.83-1.16-2.74c-1.87,1.39-3.74,2.77-5.61,4.16c-1.39,1.03-0.56,3.01,1.16,2.74
			c2.38-0.38,4.76-0.76,7.14-1.14c0.8-0.13,5.34-1.23,5.61-0.63c0.18-0.68,0.36-1.37,0.54-2.05c-3.04,1.93-6.29,3.37-9.76,4.32
			c0.62,0.62,1.23,1.23,1.85,1.85c0.47-1.22,1.41-2.74,2.69-3.24c0.29-0.11,0.87-0.3,1.16-0.08c-0.23-0.18-0.11,0.41-0.13,0.69
			c-0.03,0.38-0.09,0.77-0.14,1.15c-0.38,2.99-0.98,6.19-3.09,8.48c0.79,0.61,1.57,1.21,2.36,1.82c1.47-3.47,2.54-7.05,3.11-10.78
			c-0.98-0.13-1.96-0.27-2.95-0.4c-0.19,5.03-0.38,10.07-0.58,15.1c-0.06,1.66,2.61,2.07,2.95,0.4c0.8-3.99,1.16-8.06,0.96-12.13
			c-0.1-2.02-0.32-4.03-0.65-6.03c-0.26-1.55-0.61-3.24-2.03-4.17c-1.33-0.86-2.89-0.34-3.61,1.02c-0.94,1.79-1.47,3.93-2.16,5.83
			c-1.48,4.05-2.97,8.1-4.45,12.15c-0.54,1.47,1.5,2.44,2.51,1.46c2.08-2.03,4.17-4.04,6.28-6.05c2.09-1.99,4.13-4.11,6.34-5.98
			c0.33-0.28,0.67-0.54,1.08-0.69c0.38-0.14,0.02-0.13,0.06,0.03c0.07,0.27,0.06,0.58,0.09,0.85c0.14,1.45,0.27,2.91,0.41,4.36
			c0.28,2.99,0.56,5.98,0.84,8.97c0.18,1.91,2.86,1.95,3,0c0.42-5.86,0.12-11.72-0.84-17.52c-0.23-1.43-2.67-1.44-2.89,0
			c-0.34,2.2-0.69,4.39-1.03,6.59c-0.2,1.31,1.43,2.74,2.51,1.46c3.71-4.39,5.58-10.1,4.94-15.84c-0.19-1.68-2.34-2.04-2.95-0.4
			c-2.58,6.97-5.95,13.73-10.7,19.49C590.51,580.45,592.62,582.58,593.85,581.09L593.85,581.09z"/>
	</g>
</g>
<path class="st13" d="M371.66,578.29c-4.18-2.8-7.09-8.99-5-13c2.53-4.84,11.42-4.69,17-2c3.79,1.83,8.77,6.13,8,10
	C390.61,578.59,378.79,583.06,371.66,578.29z"/>
<g>
	<g>
		<path d="M598.27,594.1c-12.88,10.15-25.5,20.64-37.83,31.46c-3.51,3.08-6.99,6.18-10.45,9.31c-0.72,0.65,0.35,1.71,1.06,1.06
			c12.17-11,24.62-21.69,37.35-32.03c3.62-2.94,7.26-5.85,10.93-8.74C600.09,594.56,599.02,593.51,598.27,594.1L598.27,594.1z"/>
	</g>
</g>
<g>
	<g>
		<path d="M388.92,604.25c4.3,6.94,9.57,13.24,15.65,18.68c0.72,0.64,1.78-0.42,1.06-1.06c-5.99-5.36-11.18-11.54-15.42-18.38
			C389.71,602.68,388.41,603.43,388.92,604.25L388.92,604.25z"/>
	</g>
</g>
<path class="st18" d="M398.16,565.79c-0.13,0.74-0.26,1.48-0.38,2.22c-0.12,0.65-0.23,1.3-0.34,1.95c-0.21,1.21-0.42,2.42-0.63,3.63
	c-0.07,0.4-0.13,0.8-0.2,1.19c-1.47,8.6-2.88,17.17-4.24,25.71c-0.05,0.31-0.1,0.61-0.14,0.91c-0.28,1.77-0.56,3.54-0.83,5.3
	c-0.32,2.02-0.64,4.04-0.94,6.05c-1.57,10.21-3.05,20.37-4.45,30.49c-0.96,6.9-1.87,13.77-2.74,20.63
	c-1.47,11.53-2.82,23.01-4.05,34.42c-1.48,13.76-2.77,27.42-3.88,41c-0.93,11.48-1.73,22.9-2.38,34.25
	c-0.52,9.05-0.95,18.06-1.27,27.02c-5.06-1.15-10.08-2.4-15.06-3.76c-2.1-0.57-4.2-1.16-6.29-1.77c-0.19-0.05-0.38-0.11-0.57-0.17
	c0.1-3.48,0.2-6.96,0.32-10.45c0.14-4.1,0.28-8.2,0.45-12.31c0.41-10.91,0.91-21.85,1.48-32.81c0.71-13.63,1.52-27.3,2.45-41
	c0.85-12.69,1.79-25.4,2.81-38.15c1.24-15.47,2.6-30.98,4.06-46.53c1.3-13.79,2.69-27.6,4.15-41.44c0.06-0.6,0.12-1.19,0.19-1.79
	c0.15-1.53,0.32-3.06,0.48-4.59H398.16z"/>
<path class="st18" d="M627.69,768.83c-0.82,0.42-1.65,0.83-2.47,1.24c-0.25,0.14-0.51,0.26-0.76,0.39
	c-0.08,0.04-0.17,0.09-0.25,0.12c-0.38,0.2-0.76,0.39-1.14,0.57h-0.01c-0.23,0.12-0.45,0.23-0.68,0.35
	c-0.32,0.16-0.63,0.31-0.95,0.47c-1.7,0.83-3.4,1.64-5.11,2.44l-2.04,0.96c-0.06,0.02-0.12,0.05-0.18,0.08
	c-0.16,0.07-0.32,0.15-0.49,0.22c-0.9,0.41-1.8,0.82-2.71,1.23c-0.55,0.25-1.09,0.49-1.63,0.73c-0.03,0.01-0.05,0.02-0.08,0.04
	c-0.31,0.13-0.62,0.27-0.92,0.41c-1.26,0.55-2.52,1.1-3.79,1.64c-0.79,0.33-1.57,0.66-2.36,0.99c-0.28,0.12-0.56,0.23-0.84,0.35
	c-0.05,0.02-0.11,0.05-0.16,0.06c-0.13-28.15-0.85-56.3-2.05-84.44c-0.9-21.21-2.06-42.42-3.45-63.62
	c-0.57-8.79-1.18-17.58-1.82-26.36l-0.39-5.25c-0.06-0.8-0.12-1.6-0.18-2.4c-0.19-2.59-0.39-5.18-0.59-7.77
	c-0.33-4.24-0.67-8.48-1.01-12.72c-0.04-0.5-0.08-1-0.13-1.5c-0.04-0.64-0.1-1.29-0.15-1.93c-0.06-0.78-0.13-1.56-0.19-2.34h29
	c0.05,0.84,0.1,1.67,0.15,2.51c1.19,19.83,2.28,39.76,3.24,59.82c0,0,0.01,0,0,0.01C625.67,678.99,627.17,723.44,627.69,768.83z"/>
<g>
	<path class="st19" d="M512.83,397.72c-2.37-4.12-2.13-8.19-1.93-11.53c0.09-1.51,0.66-11.17,6.75-16.91
		c11.57-10.91,45.46-9.98,57.88,5.38c5.58,6.9,7.7,17.8,0.96,26.14c-9.27,11.48-28.98,10.29-33.77,9.99
		C540.07,410.63,519.4,409.15,512.83,397.72z"/>
	<path class="st20" d="M580.28,402.47c0.37-2.46,2.7-19.66-10-31.15c-15.64-14.15-44.75-11.19-56,1.83c-2.9,3.36-4.3,7.02-5,10.08"
		/>
	<circle class="st18" cx="539.53" cy="385.22" r="12.25"/>
	<circle class="st19" cx="545.31" cy="381.59" r="4.76"/>
	<path class="st19" d="M450.35,396.31c2.37-4.12,2.13-8.19,1.93-11.53c-0.09-1.51-0.66-11.17-6.75-16.91
		c-11.57-10.91-45.46-9.98-57.88,5.38c-5.58,6.9-7.7,17.8-0.96,26.14c9.27,11.48,28.98,10.29,33.77,9.99
		C423.11,409.22,443.79,407.74,450.35,396.31z"/>
	<circle class="st18" cx="423.65" cy="383.81" r="12.25"/>
	<circle class="st19" cx="429.87" cy="380.17" r="4.76"/>
	<path class="st10" d="M389.78,402.54c3.03,1.51,28.63,13.79,50,1c5.27-3.15,9.16-7.16,12-11"/>
	<path class="st21" d="M439.28,346.47c-23.83-0.75-45.82,3.13-65,14"/>
	<path class="st21" d="M521.32,346.46c23.83-0.75,45.82,3.13,65,14"/>
	<path class="st20" d="M382.14,399.7c-0.37-2.46-2.7-19.66,10-31.15c15.64-14.15,44.75-11.19,56,1.83c2.9,3.36,4.3,7.02,5,10.08"/>
	<path class="st10" d="M573.53,404.46c-3.03,1.51-28.63,13.79-50,1c-5.27-3.15-9.16-7.16-12-11"/>
</g>
<path class="st22" d="M525.68,471.76l-82.91,1.55c-7.95,1.53,11.95,29.49,48,25.19c25-2.98,40.45-23.45,36.61-26.32
	C526.87,471.8,525.68,471.76,525.68,471.76z"/>
<text transform="matrix(1 0 0 1 488.7747 697.3567)" class="st19 st23 st24"> תמר</text>
<text transform="matrix(1 0 0 1 451.3801 737.0066)" class="st19 st23 st24"> A ןוגימ</text>
<path class="st25" d="M302.76,181.66c-3.73,49.17-3.37,116.65,14,194c25.36,112.93,75.34,195.14,110,243c4,3.89,26.32,24.82,61,24
	c33.03-0.78,53.76-20.74,58-25c36.14-57.92,83.42-150.73,103.7-272.93c10.73-64.61,11.37-122.21,8.3-169.07
	C539.43,198.52,421.1,205.04,302.76,181.66z"/>
</svg>
