<?xml version="1.0" encoding="utf-8"?>
<!-- Generator: Adobe Illustrator 28.3.0, SVG Export Plug-In . SVG Version: 6.00 Build 0)  -->
<svg version="1.1" id="Layer_1" xmlns="http://www.w3.org/2000/svg" xmlns:xlink="http://www.w3.org/1999/xlink" x="0px" y="0px"
	 viewBox="0 0 916 850" style="enable-background:new 0 0 916 850;" xml:space="preserve">
<style type="text/css">
	.st0{opacity:0.6;fill:#CCCCCC;}
	.st1{display:none;fill:#426646;}
	.st2{fill:#FFE3CB;stroke:#000000;stroke-miterlimit:10;}
	.st3{fill:#FFB995;stroke:#FFB995;stroke-miterlimit:10;}
	.st4{fill:#FFB995;}
	.st5{fill:#332C26;}
	.st6{fill:#332C26;stroke:#000000;stroke-miterlimit:10;}
	.st7{fill:none;stroke:#000000;stroke-miterlimit:10;}
	.st8{fill:none;stroke:#FFB995;stroke-miterlimit:10;}
	.st9{fill:#323549;stroke:#25282D;stroke-width:2;stroke-miterlimit:10;}
	.st10{fill:#FFB995;stroke:#000000;stroke-width:0.5;stroke-miterlimit:10;}
	.st11{fill:#323549;}
	.st12{fill:#25282D;}
	.st13{fill:none;stroke:#25282D;stroke-width:5;stroke-miterlimit:10;}
	.st14{fill:#FFFFFF;}
	.st15{fill:none;stroke:#000000;stroke-width:4;stroke-miterlimit:10;}
	.st16{stroke:#000000;stroke-miterlimit:10;}
	.st17{fill:none;stroke:#000000;stroke-width:3;stroke-miterlimit:10;}
	.st18{fill:#FFFFFF;stroke:#000000;stroke-miterlimit:10;}
</style>
<path class="st0" d="M834,432c0,107.49-44.87,204.49-116.88,273.28c-0.3,0.3-0.6,0.59-0.9,0.86c-0.02,0.03-0.03,0.04-0.05,0.05
	c-1.41,1.34-2.83,2.67-4.26,3.98c-0.34,0.32-0.68,0.63-1.02,0.93c-0.04,0.04-0.08,0.08-0.12,0.11c-3.54,3.24-7.15,6.41-10.81,9.5
	c-1.57,1.33-3.16,2.65-4.75,3.95c-0.03,0.03-0.06,0.06-0.09,0.07v0.01c-2.92,2.39-5.88,4.74-8.87,7.04
	c-0.16,0.13-0.33,0.25-0.49,0.37c-0.24,0.2-0.49,0.39-0.74,0.57c-0.94,0.73-1.89,1.44-2.85,2.16c-0.91,0.68-1.83,1.35-2.74,2.03
	c-0.77,0.56-1.53,1.12-2.3,1.67c-0.23,0.17-0.47,0.34-0.7,0.51c-0.27,0.19-0.54,0.39-0.8,0.57c-0.23,0.18-0.45,0.34-0.68,0.5
	c-0.39,0.28-0.78,0.55-1.17,0.82c-0.11,0.08-0.23,0.17-0.34,0.25c-0.15,0.1-0.3,0.21-0.46,0.31c-0.42,0.31-0.85,0.61-1.29,0.91
	c-1.28,0.89-2.57,1.78-3.86,2.65c-1.53,1.04-3.07,2.07-4.62,3.07c-0.1,0.06-0.2,0.13-0.3,0.19c-0.09,0.06-0.17,0.11-0.26,0.17
	c-0.07,0.04-0.13,0.09-0.2,0.13c-0.48,0.33-0.97,0.64-1.45,0.95c-0.53,0.35-1.06,0.7-1.59,1.04c-0.02,0.01-0.03,0.02-0.05,0.03
	c-0.22,0.14-0.43,0.28-0.65,0.42c-0.02,0.01-0.05,0.03-0.07,0.04c-2.32,1.48-4.64,2.92-6.99,4.34c-0.2,0.12-0.41,0.25-0.61,0.37
	h-0.01c-0.75,0.45-1.5,0.9-2.25,1.34c-0.08,0.06-0.16,0.1-0.25,0.15c-1.4,0.84-2.8,1.66-4.22,2.47c-0.22,0.12-0.43,0.25-0.65,0.37
	c-4.44,2.56-8.94,5.02-13.51,7.38c-1.63,0.86-3.28,1.69-4.93,2.51c-0.25,0.14-0.51,0.26-0.76,0.39c-0.08,0.04-0.17,0.09-0.25,0.12
	c-0.38,0.2-0.76,0.39-1.14,0.57h-0.01c-0.23,0.12-0.45,0.23-0.68,0.35c-0.32,0.16-0.63,0.31-0.95,0.47
	c-2.43,1.19-4.87,2.34-7.33,3.48c-1.06,0.48-2.13,0.97-3.2,1.45c-0.55,0.25-1.09,0.49-1.63,0.73c-0.03,0.01-0.05,0.02-0.08,0.04
	c-0.31,0.13-0.62,0.27-0.92,0.41c-1.26,0.55-2.52,1.1-3.79,1.64c-1.07,0.45-2.13,0.9-3.2,1.34c-0.32,0.14-0.65,0.27-0.97,0.4
	c-0.29,0.13-0.58,0.25-0.87,0.36c-0.04,0.02-0.07,0.04-0.11,0.05c-1.65,0.68-3.3,1.35-4.96,2.01c-3.45,1.36-6.93,2.67-10.44,3.93
	c-3.59,1.29-7.21,2.53-10.85,3.71c-0.27,0.09-0.54,0.17-0.81,0.26c-1.98,0.64-3.98,1.27-5.98,1.88c-1.58,0.48-3.16,0.95-4.74,1.41
	l-3.15,0.9c-2.37,0.66-4.76,1.31-7.15,1.93c-14.51,3.76-29.36,6.68-44.49,8.72c-1.35,0.18-2.69,0.35-4.04,0.51h-0.01
	c-2.59,0.33-5.19,0.62-7.8,0.89h-0.01c-1,0.1-1.97,0.2-2.97,0.29h-0.01c-0.09,0.01-0.18,0.02-0.27,0.02
	c-0.56,0.06-1.11,0.12-1.67,0.17c-1.39,0.12-2.79,0.23-4.19,0.34c-0.57,0.05-1.13,0.09-1.7,0.13c-1.91,0.15-3.82,0.27-5.73,0.38
	c-0.14,0.01-0.27,0.02-0.41,0.02c-0.64,0.04-1.28,0.08-1.91,0.11c-2.87,0.15-5.75,0.27-8.64,0.35c-1.44,0.05-2.88,0.08-4.32,0.1
	c-2.35,0.05-4.71,0.07-7.08,0.07c-0.52,0-1.03,0-1.55-0.01c-1.15,0-2.3-0.01-3.44-0.03c-2.92-0.03-5.83-0.11-8.73-0.21
	c-7.01-0.25-13.97-0.69-20.88-1.31c-0.84-0.08-1.67-0.16-2.51-0.25h-0.01c-0.35-0.03-0.7-0.06-1.05-0.1
	c-0.64-0.06-1.28-0.13-1.92-0.2h-0.01c-0.46-0.05-0.92-0.1-1.38-0.15c-0.96-0.1-1.91-0.21-2.86-0.33c-1.19-0.14-2.38-0.28-3.57-0.43
	c-0.16-0.02-0.32-0.04-0.48-0.06c-1.03-0.13-2.05-0.27-3.07-0.41c-0.09-0.01-0.19-0.02-0.28-0.04c-2.09-0.28-4.17-0.58-6.25-0.9
	c-0.01,0.01-0.02,0-0.03-0.01c-0.98-0.15-1.95-0.3-2.92-0.47c-0.04,0-0.07-0.01-0.11-0.02c-0.14-0.01-0.29-0.04-0.43-0.06
	c-1.02-0.16-2.04-0.33-3.05-0.51c-0.04,0-0.08-0.01-0.12-0.02c-0.54-0.09-1.07-0.18-1.61-0.28c-3.85-0.67-7.68-1.41-11.48-2.21
	c-9.44-1.97-18.75-4.29-27.92-6.96c-1.56-0.45-3.11-0.91-4.66-1.39c-1.72-0.52-3.43-1.06-5.13-1.61c-2.06-0.65-4.1-1.33-6.14-2.02
	c-0.21-0.07-0.42-0.14-0.63-0.21h-0.02c-1.45-0.49-2.89-1-4.32-1.51h-0.01c-0.21-0.08-0.42-0.16-0.63-0.23
	c-0.15-0.05-0.29-0.11-0.44-0.16c-0.52-0.19-1.04-0.37-1.55-0.57c-0.06-0.02-0.12-0.04-0.18-0.07c-0.09-0.03-0.18-0.06-0.27-0.1
	c-1.64-0.58-3.26-1.18-4.89-1.8c-0.02-0.01-0.03-0.01-0.05-0.02c-0.6-0.23-1.2-0.46-1.8-0.69c-1.02-0.4-2.04-0.8-3.05-1.21
	c-0.4-0.15-0.8-0.31-1.2-0.47c-2.09-0.84-4.17-1.69-6.23-2.56h-0.02c-0.06-0.03-0.13-0.05-0.19-0.08c-1.14-0.48-2.27-0.97-3.41-1.46
	c-1.71-0.74-3.42-1.5-5.12-2.27c-3.99-1.81-7.95-3.68-11.87-5.63c-3.82-1.89-7.61-3.85-11.36-5.87c-2.84-1.53-5.66-3.09-8.44-4.69
	c-0.01-0.01-0.03-0.01-0.04-0.02c-0.23-0.12-0.43-0.24-0.64-0.36c-0.08-0.04-0.15-0.08-0.22-0.13c-0.11-0.06-0.21-0.12-0.32-0.19
	c-0.49-0.28-0.98-0.57-1.47-0.86c-1.13-0.66-2.27-1.32-3.39-2c-2.07-1.23-4.13-2.48-6.18-3.75c-0.07-0.05-0.15-0.09-0.22-0.14
	c-3.25-2.03-6.47-4.1-9.65-6.23c-0.37-0.24-0.73-0.49-1.1-0.73c-0.61-0.41-1.22-0.82-1.83-1.24c-3.88-2.63-7.7-5.33-11.47-8.11
	c-1.96-1.45-3.91-2.91-5.85-4.4C136.16,663.18,78,554.37,78,432C78,223.24,247.24,54,456,54S834,223.24,834,432z"/>
<path class="st1" d="M443.81,882.44c3.73,59.65,34.8,136.7,34.8,136.7s11.18,55.92,123.03,103.15
	c19.11-7.03,78.89-31.74,120.55-96.94c26.1-67.11,38.96-130.11,37.28-150.38c-11.21-70.41-67.41-161.74-152.86-164.05
	C516.85,708.51,453.29,805.88,443.81,882.44z"/>
<g>
	<path class="st2" d="M344.57,724.52c-3.34,11.49-6.68,22.97-10.02,34.46c-1.49,5.16-2.99,10.32-4.49,15.48
		c-1.23,4.23-2.46,8.47-3.7,12.7c-1.64-0.58-3.26-1.18-4.89-1.8c-0.02-0.01-0.03-0.01-0.05-0.02c-0.6-0.23-1.2-0.46-1.8-0.69
		c-1.02-0.4-2.04-0.8-3.05-1.21c-0.4-0.15-0.8-0.31-1.2-0.47c-2.09-0.84-4.17-1.69-6.23-2.56h-0.02c-0.06-0.03-0.13-0.05-0.19-0.08
		c-1.14-0.48-2.27-0.97-3.41-1.46c-1.71-0.74-3.42-1.5-5.12-2.27c-3.99-1.81-7.95-3.68-11.87-5.63c-3.82-1.89-7.61-3.85-11.36-5.87
		c-2.84-1.53-5.66-3.09-8.44-4.69c-0.01-0.01-0.03-0.01-0.04-0.02c-0.23-0.12-0.43-0.24-0.64-0.36c-0.08-0.04-0.15-0.08-0.22-0.13
		c3.73-16.24,7.44-32.49,11.16-48.73c1.19-5.22,2.39-10.43,3.58-15.65c9.56,4.47,19.12,8.94,28.67,13.41
		c7.12,3.33,14.23,6.65,21.34,9.98c3.02,1.41,6.04,2.83,9.06,4.24C342.62,723.61,343.59,724.06,344.57,724.52z"/>
	<path class="st2" d="M658.64,751.14c-2.32,1.48-4.64,2.92-6.99,4.34c-0.2,0.12-0.41,0.25-0.61,0.37h-0.01
		c-0.75,0.45-1.5,0.9-2.25,1.34c-0.08,0.06-0.16,0.1-0.25,0.15c-1.4,0.84-2.8,1.66-4.22,2.47c-0.22,0.12-0.43,0.25-0.65,0.37
		c-4.44,2.56-8.94,5.02-13.51,7.38c-1.63,0.86-3.28,1.69-4.93,2.51c-0.25,0.14-0.51,0.26-0.76,0.39c-0.08,0.04-0.17,0.09-0.25,0.12
		c-0.38,0.2-0.76,0.39-1.14,0.57h-0.01c-0.23,0.12-0.45,0.23-0.68,0.35c-0.32,0.16-0.63,0.31-0.95,0.47
		c-2.43,1.19-4.87,2.34-7.33,3.48c-1.06,0.48-2.13,0.97-3.2,1.45c-0.55,0.25-1.09,0.49-1.63,0.73c-0.03,0.01-0.05,0.02-0.08,0.04
		c-0.31,0.13-0.62,0.27-0.92,0.41c-1.26,0.55-2.52,1.1-3.79,1.64c-1.07,0.45-2.13,0.9-3.2,1.34c-0.32,0.14-0.65,0.27-0.97,0.4
		c-0.37-1.28-0.74-2.55-1.12-3.83c-0.73-2.52-1.46-5.04-2.19-7.56c-4.18-14.36-8.35-28.71-12.52-43.07
		c1.22-0.57,2.44-1.14,3.66-1.71c2.6-1.22,5.21-2.44,7.82-3.66c6.57-3.08,13.14-6.15,19.72-9.22l30-14.04
		c0.27-0.12,0.53-0.25,0.8-0.37c0.2,0.88,0.4,1.77,0.61,2.65C650.94,717.48,654.79,734.31,658.64,751.14z"/>
	<path class="st3" d="M319.62,784.65c-1.02-0.4-2.04-0.8-3.05-1.21c-0.4-0.15-0.8-0.31-1.2-0.47c-2.09-0.84-4.17-1.69-6.23-2.56
		h-0.02c-0.06-0.03-0.13-0.05-0.19-0.08c-1.14-0.48-2.27-0.97-3.41-1.46c-1.71-0.74-3.42-1.5-5.12-2.27
		c-3.99-1.81-7.95-3.68-11.87-5.63c-3.82-1.89-7.61-3.85-11.36-5.87c-2.84-1.53-5.66-3.09-8.44-4.69c-0.01-0.01-0.03-0.01-0.04-0.02
		c-0.23-0.12-0.43-0.24-0.64-0.36c-0.08-0.04-0.15-0.08-0.22-0.13c-0.11-0.06-0.21-0.12-0.32-0.19c-0.49-0.28-0.98-0.57-1.47-0.86
		c-1.13-0.66-2.27-1.32-3.39-2c5.8-24.02,11.24-39.19,16.34-45.68c1.91-2.44,3.77-3.65,5.58-3.65
		c10.53,0.01,24.36,12.76,31.09,38.79c0,0.01,0,0.01,0,0.02C318.39,756.9,319.95,769.66,319.62,784.65z"/>
	<path class="st3" d="M662.45,748.66c-0.48,0.33-0.97,0.64-1.45,0.95c-0.53,0.35-1.06,0.7-1.59,1.04c-0.02,0.01-0.03,0.02-0.05,0.03
		c-0.22,0.14-0.43,0.28-0.65,0.42c-0.02,0.01-0.05,0.03-0.07,0.04c-2.32,1.48-4.64,2.92-6.99,4.34c-0.2,0.12-0.41,0.25-0.61,0.37
		h-0.01c-0.75,0.45-1.5,0.9-2.25,1.34c-0.08,0.06-0.16,0.1-0.25,0.15c-1.4,0.84-2.8,1.66-4.22,2.47c-0.22,0.12-0.43,0.25-0.65,0.37
		c-4.44,2.56-8.94,5.02-13.51,7.38c-1.63,0.86-3.28,1.69-4.93,2.51c-0.25,0.14-0.51,0.26-0.76,0.39c-0.08,0.04-0.17,0.09-0.25,0.12
		c-0.38,0.2-0.76,0.39-1.14,0.57h-0.01c-0.23,0.12-0.45,0.23-0.68,0.35c-0.32,0.16-0.63,0.31-0.95,0.47
		c-2.43,1.19-4.87,2.34-7.33,3.48c-1.06,0.48-2.13,0.97-3.2,1.45c-0.55,0.25-1.09,0.49-1.63,0.73c-0.03,0.01-0.05,0.02-0.08,0.04
		c-0.31,0.13-0.62,0.27-0.92,0.41c-1.26,0.55-2.52,1.1-3.79,1.64c-2.11-30.69,3.3-53.05,11.2-67.31
		c7.03-12.75,16.05-19.03,23.44-19.04c2.12,0,4.31,1.66,6.56,5c0.48,0.69,0.94,1.45,1.41,2.28
		C651.91,709.15,657.03,725.11,662.45,748.66z"/>
	<path class="st2" d="M521.87,472.38c2.63,23.55-6,13-8,90c-2.94,9.27-8.97,25.81-22,43c-10.02,13.22-18.65,24.6-30,25
		c-18.93,0.66-33.56-29.65-40-43c-13.52-28-6-64-11-106C431.91,455.14,479.55,448.48,521.87,472.38z"/>
	<g>
		<path class="st4" d="M413.37,480.88c11.99-6.42,36.45-17.3,68.33-16.11c16.83,0.63,30.72,4.43,40.67,8.11c-2,15-4,30-6,45
			c0,0-23.03,18.75-36.31,22.96c-17.24,5.47-32.91,4.91-46.59,4.21c-8.43-0.43-15.37-1.39-20.1-2.18V480.88z"/>
	</g>
	<path class="st5" d="M610.87,363.38c5.54-8.08,19.24-30.37,20-60.38c1.13-44.78-26.96-90.63-65.69-110.21
		c-46.13-23.34-120.47-19.35-100.31-20.41c19-1,27.61-47.69,26-49c-1.54-1.25-23.69,27.21-41,42c-95-31-190.25,20.96-190,18
		c0.26-3.11,91.95-4.31,148.51,9.88c0.18,0.05,0.31,0.08,0.49,0.12c-11.66-5.32-27.47-9.8-45-7c-37.09,5.91-68.24,42.16-77,91
		c1.39,26.89,8.7,77.86,47,115C410.54,466.74,560.71,436.55,610.87,363.38z"/>
	<path class="st2" d="M308.87,354.38c-10.38,4.58-10.06,25.47-10,28c1.09,43.16,55.54,68.45,59,70c12.05,5.4,24.6,11.04,30,6
		c10.43-9.73-12.72-52.96-40-81C338.47,367.73,320.5,349.26,308.87,354.38z"/>
	<path class="st2" d="M612.29,354.82c10.38,4.58,10.06,25.47,10,28c-1.09,43.16-55.54,68.45-59,70c-12.05,5.4-24.6,11.04-30,6
		c-10.43-9.73,12.72-52.96,40-81C582.69,368.16,600.66,349.69,612.29,354.82z"/>
	<path class="st2" d="M334.87,339.38c3,48,28,110,28,110s9,45,99,83c15.38-5.65,63.48-25.54,97-78c21-54,31.35-104.69,30-121
		c-9.02-56.66-54.24-130.14-123-132C393.64,199.43,342.5,277.78,334.87,339.38z"/>
	<path class="st6" d="M440.87,270.38c-7,66-29,96-29,96s56-29,45-39c1.76,1.49-14,45-32,55c4.73,6.17,28.68-0.81,44-13
		c43.35-34.5,25.69-117.12,23-129"/>
	<path class="st6" d="M471.87,256.38c14.01,28.85,62.09,68.06,100.58,100.55c6.89,5.82-1.42,24.24-12.58,42.45
		c3.27,3.09,12.2-1.57,14.1-2.56c14.74-7.68,24.59-25.25,24.9-47.44"/>
	<path class="st7" d="M334.87,389.27"/>
	<path class="st5" d="M599.87,343.38c16.73-14.19-7.66-108.46-76-144c-65.01-33.81-154.86-6.63-191,51
		c-20.8,33.16-27.38,81.62-11,92c28.84,18.27,125.02-83.91,136.5-72.5c4.98,4.95-11.12,26.16-4.5,32.5
		c7.01,6.71,25.92-16.2,49.5-12.5c23.3,3.66,24.19,29.06,59,46C571.87,340.51,591.82,350.21,599.87,343.38z"/>
	<g>
		<g>
			<path d="M441.25,269.52c0.78-3.65,1.16-7.39,1.13-11.12c-0.01-1.07-1.29-1.96-2.26-1.3c-3.41,2.35-6.52,5.1-9.24,8.23
				c-0.53,0.61-0.6,1.52,0,2.12c0.54,0.54,1.59,0.61,2.12,0c2.55-2.93,5.44-5.55,8.63-7.76c-0.75-0.43-1.5-0.86-2.26-1.3
				c0.04,3.47-0.3,6.93-1.02,10.33c-0.17,0.79,0.23,1.62,1.05,1.85C440.15,270.77,441.08,270.32,441.25,269.52L441.25,269.52z"/>
		</g>
	</g>
	<g>
		<path d="M498.31,286.49c-0.74,0.01-0.84-7.33-3.11-21.84c-1.42-9.13-2.97-16.61-4.1-21.68c2.72,4.55,6.13,11.49,7.76,20.42
			C501.06,275.39,499.22,286.47,498.31,286.49z"/>
		<g>
			<path d="M498.31,284.99c0.38,0.04,1.05,0.54,1.12,0.59c0.02,0.01,0.09,0.37,0.07,0.15c-0.02-0.19-0.1-0.39-0.14-0.58
				c-0.16-0.76-0.17-1.05-0.26-1.76c-0.28-2.33-0.51-4.67-0.79-7.01c-0.92-7.81-2.12-15.58-3.59-23.3
				c-0.67-3.51-1.39-7.02-2.17-10.51c-0.91,0.39-1.83,0.77-2.74,1.16c4.15,6.98,6.96,14.7,8.04,22.76
				c0.58,4.34,0.71,8.76,0.39,13.12c-0.1,1.42-0.25,2.85-0.53,4.25c-0.1,0.47-0.21,0.94-0.35,1.4c-0.1,0.32-0.1,0.12-0.06,0.19
				c-0.02,0.05-0.05,0.1-0.08,0.14c0.16-0.27,0.39-0.44,0.7-0.54c-1.9,0.33-1.09,3.23,0.8,2.89c1.53-0.27,1.81-2.79,2.02-3.96
				c0.52-3.01,0.68-6.08,0.67-9.12c-0.03-7.98-1.44-15.95-4.42-23.36c-1.29-3.21-2.82-6.31-4.58-9.28
				c-0.89-1.49-3.11-0.49-2.74,1.16c1.69,7.58,3.12,15.21,4.29,22.89c0.93,6.14,1.48,12.32,2.32,18.47c0.19,1.35,0.34,3.1,2.04,3.27
				C500.23,288.17,500.22,285.17,498.31,284.99z"/>
		</g>
	</g>
	<g>
		<g>
			<path d="M604.47,344.32c0-3.52,0-7.03,0-10.55c0-0.81-0.69-1.5-1.5-1.5c-0.81,0-1.5,0.69-1.5,1.5c0,3.52,0,7.03,0,10.55
				c0,0.81,0.69,1.5,1.5,1.5C603.78,345.82,604.47,345.14,604.47,344.32L604.47,344.32z"/>
		</g>
	</g>
	<g>
		<g>
			<path d="M373.67,189.54c9.05-0.66,18.17-0.34,27.14,1.02c1.89,0.29,2.7-2.6,0.8-2.89c-9.25-1.4-18.6-1.81-27.94-1.13
				C371.76,186.68,371.74,189.68,373.67,189.54L373.67,189.54z"/>
		</g>
	</g>
	<g>
		<g>
			<path d="M482.44,230.67c-1.68-3.47-4.81-6.12-8.44-7.34c-0.74-0.25-1.67,0.29-1.85,1.05c-0.19,0.83,0.25,1.58,1.05,1.85
				c0.2,0.07,0.4,0.14,0.59,0.21c0.16,0.06,0.2,0.06,0.01,0c0.1,0.03,0.22,0.09,0.31,0.14c0.38,0.18,0.76,0.37,1.12,0.58
				c0.35,0.2,0.68,0.42,1.01,0.66c0.08,0.06,0.15,0.11,0.23,0.17c0.31,0.23-0.24-0.2,0.06,0.05c0.16,0.13,0.32,0.27,0.48,0.41
				c0.3,0.27,0.59,0.55,0.86,0.84c0.14,0.15,0.28,0.31,0.42,0.47c0.06,0.07,0.12,0.15,0.18,0.22c0.04,0.05,0.3,0.33,0.05,0.06
				c0.55,0.59,0.96,1.43,1.31,2.15c0.34,0.71,1.41,0.95,2.05,0.54C482.62,232.26,482.8,231.43,482.44,230.67L482.44,230.67z"/>
		</g>
	</g>
	<g>
		<g>
			<path d="M564.62,230.38c8.24,14.54,15.54,29.59,21.83,45.07c0.72,1.77,3.62,0.99,2.89-0.8c-6.38-15.72-13.76-31.02-22.13-45.79
				C566.25,227.19,563.66,228.7,564.62,230.38L564.62,230.38z"/>
		</g>
	</g>
	<g>
		<g>
			<path d="M318.04,291.05c0.55-4.03,2.17-7.72,3.86-11.38c1.77-3.84,3.6-7.66,5.48-11.45c3.72-7.51,7.64-14.92,11.75-22.23
				c0.95-1.68-1.64-3.2-2.59-1.51c-4.19,7.44-8.18,15-11.97,22.66c-1.87,3.79-3.7,7.61-5.47,11.46c-1.72,3.74-3.4,7.55-3.96,11.67
				c-0.11,0.81,0.2,1.6,1.05,1.85C316.89,292.3,317.93,291.85,318.04,291.05L318.04,291.05z"/>
		</g>
	</g>
	<path class="st8" d="M310.87,368.38c-1.18,3.76-3.06,11.56-1,21c1.38,6.34,4.03,11.08,6,14"/>
	<path class="st8" d="M611.97,367.21c1.18,3.76,3.06,11.56,1,21c-1.38,6.34-4.03,11.08-6,14"/>
	<path class="st9" d="M415.57,565.52c4.68,27.57,25.13,40.36,50,49c5.89-1.49,20-5.92,32-19c15.47-16.86,16.81-36.54,17-42
		c19.27,9.15,32.45,26.09,32,43c-0.74,27.7-37.73,44.35-41.72,46.06c-0.94,0.4-1.71,0.72-2.28,0.94c-35.3,14.17-107.4-0.38-116-37
		c-1.33-5.67-2.82-19.02,11-39C403.57,566.85,409.57,566.19,415.57,565.52z"/>
	<line class="st8" x1="467.87" y1="384.38" x2="454.87" y2="392.38"/>
	<line class="st8" x1="468.87" y1="389.38" x2="447.87" y2="402.38"/>
	<line class="st8" x1="473.87" y1="392.38" x2="446.87" y2="409.38"/>
	<line class="st8" x1="475.87" y1="398.38" x2="447.87" y2="415.38"/>
	<line class="st8" x1="478.87" y1="402.38" x2="449.87" y2="419.38"/>
	<path class="st10" d="M461.87,428.88c-0.17,4-0.33,8-0.5,12c-1.83-1.67-3.67-3.33-5.5-5"/>
	<g>
		<g>
			<path class="st4" d="M367.8,418.17c-0.61,0.82-1.22,1.63-1.83,2.45c-0.11,0.17-0.17,0.36-0.18,0.56c-0.04,0.2-0.04,0.4,0.03,0.6
				c0.1,0.35,0.36,0.73,0.69,0.9c0.35,0.18,0.77,0.28,1.16,0.15c0.12-0.05,0.24-0.1,0.36-0.15c0.23-0.13,0.4-0.31,0.54-0.54
				c0.61-0.82,1.22-1.63,1.83-2.45c0.11-0.17,0.17-0.36,0.18-0.56c0.04-0.2,0.04-0.4-0.03-0.6c-0.1-0.35-0.36-0.73-0.69-0.9
				c-0.35-0.18-0.77-0.28-1.16-0.15c-0.12,0.05-0.24,0.1-0.36,0.15C368.11,417.77,367.93,417.95,367.8,418.17L367.8,418.17z"/>
		</g>
	</g>
	<g>
		<g>
			<path class="st4" d="M371.75,420.91c-0.2,0.31-0.41,0.61-0.61,0.92c-0.11,0.17-0.17,0.36-0.18,0.56c-0.04,0.2-0.04,0.4,0.03,0.6
				c0.05,0.2,0.14,0.37,0.27,0.51c0.11,0.16,0.25,0.29,0.42,0.39c0.12,0.05,0.24,0.1,0.36,0.15c0.27,0.07,0.53,0.07,0.8,0
				c0.12-0.05,0.24-0.1,0.36-0.15c0.23-0.13,0.4-0.31,0.54-0.54c0.2-0.31,0.41-0.61,0.61-0.92c0.11-0.17,0.17-0.36,0.18-0.56
				c0.04-0.2,0.04-0.4-0.03-0.6c-0.05-0.2-0.14-0.37-0.27-0.51c-0.11-0.16-0.25-0.29-0.42-0.39c-0.12-0.05-0.24-0.1-0.36-0.15
				c-0.27-0.07-0.53-0.07-0.8,0c-0.12,0.05-0.24,0.1-0.36,0.15C372.06,420.5,371.88,420.68,371.75,420.91L371.75,420.91z"/>
		</g>
	</g>
	<g>
		<g>
			<path class="st4" d="M541.24,420.76c0,0.51,0,1.02,0,1.53c-0.01,0.21,0.04,0.4,0.13,0.58c0.06,0.19,0.16,0.35,0.31,0.48
				c0.14,0.15,0.3,0.25,0.48,0.31c0.18,0.09,0.37,0.14,0.58,0.13c0.13-0.02,0.27-0.04,0.4-0.05c0.25-0.07,0.47-0.2,0.66-0.39
				c0.27-0.29,0.44-0.65,0.44-1.06c0-0.51,0-1.02,0-1.53c0.01-0.21-0.04-0.4-0.13-0.58c-0.06-0.19-0.16-0.35-0.31-0.48
				c-0.14-0.15-0.3-0.25-0.48-0.31c-0.18-0.09-0.37-0.14-0.58-0.13c-0.13,0.02-0.27,0.04-0.4,0.05c-0.25,0.07-0.47,0.2-0.66,0.39
				C541.41,419.99,541.24,420.35,541.24,420.76L541.24,420.76z"/>
		</g>
	</g>
	<g>
		<g>
			<path class="st4" d="M545.79,419.57c0.01,0.01,0.02,0.03,0.04,0.04c-0.08-0.1-0.16-0.2-0.23-0.3c0.24,0.32,0.44,0.66,0.6,1.03
				c-0.05-0.12-0.1-0.24-0.15-0.36c0.17,0.4,0.28,0.82,0.34,1.26c-0.02-0.13-0.04-0.27-0.05-0.4c0.05,0.38,0.05,0.76,0.01,1.13
				c-0.04,0.36,0.2,0.82,0.44,1.06c0.26,0.26,0.69,0.46,1.06,0.44c0.39-0.02,0.79-0.14,1.06-0.44c0.08-0.1,0.16-0.2,0.23-0.3
				c0.14-0.23,0.2-0.49,0.2-0.76c0.08-0.75,0-1.53-0.21-2.25c-0.12-0.4-0.28-0.8-0.47-1.18c-0.2-0.4-0.47-0.74-0.74-1.09
				c-0.22-0.28-0.72-0.44-1.06-0.44c-0.37,0-0.81,0.16-1.06,0.44c-0.26,0.29-0.46,0.66-0.44,1.06c0.02,0.13,0.04,0.27,0.05,0.4
				C545.47,419.16,545.6,419.38,545.79,419.57L545.79,419.57z"/>
		</g>
	</g>
	<path class="st6" d="M446.87,273.38c-12.82,8.94-94,84-101,114c-2,5,9.6,31.37,11,31c0.08-0.02,0.11-0.11,0.12-0.15
		c0.66-2.62-54.89-18.44-44.12-91.85"/>
	<path class="st9" d="M682.17,734.88c-0.91,0.68-1.83,1.35-2.74,2.03c-0.77,0.56-1.53,1.12-2.3,1.67c-0.23,0.17-0.47,0.34-0.7,0.51
		c-0.27,0.19-0.54,0.39-0.8,0.57c-0.23,0.18-0.45,0.34-0.68,0.5c-0.39,0.28-0.78,0.55-1.17,0.82c-0.11,0.08-0.23,0.17-0.34,0.25
		c-0.15,0.1-0.3,0.21-0.46,0.31c-0.42,0.31-0.85,0.61-1.29,0.91c-1.28,0.89-2.57,1.78-3.86,2.65c-1.53,1.04-3.07,2.07-4.62,3.07
		c-0.1,0.06-0.2,0.13-0.3,0.19c-0.09,0.06-0.17,0.11-0.26,0.17c-0.07,0.04-0.13,0.09-0.2,0.13c-0.48,0.33-0.97,0.64-1.45,0.95
		c-0.53,0.35-1.06,0.7-1.59,1.04c-0.02,0.01-0.03,0.02-0.05,0.03c-0.22,0.14-0.43,0.28-0.65,0.42c-0.02,0.01-0.05,0.03-0.07,0.04
		c-2.32,1.48-4.64,2.92-6.99,4.34c-0.2,0.12-0.41,0.25-0.61,0.37h-0.01c-0.75,0.45-1.5,0.9-2.25,1.34c-0.08,0.06-0.16,0.1-0.25,0.15
		c-1.4,0.84-2.8,1.66-4.22,2.47c-0.22,0.12-0.43,0.25-0.65,0.37c-4.44,2.56-8.94,5.02-13.51,7.38c-1.63,0.86-3.28,1.69-4.93,2.51
		c-0.25,0.14-0.51,0.26-0.76,0.39c-0.08,0.04-0.17,0.09-0.25,0.12c-0.38,0.2-0.76,0.39-1.14,0.57h-0.01
		c-0.23,0.12-0.45,0.23-0.68,0.35c-0.32,0.16-0.63,0.31-0.95,0.47c-2.43,1.19-4.87,2.34-7.33,3.48c-1.06,0.48-2.13,0.97-3.2,1.45
		c-0.55,0.25-1.09,0.49-1.63,0.73c-0.03,0.01-0.05,0.02-0.08,0.04c-0.31,0.13-0.62,0.27-0.92,0.41c-1.26,0.55-2.52,1.1-3.79,1.64
		c-1.07,0.45-2.13,0.9-3.2,1.34c-0.32,0.14-0.65,0.27-0.97,0.4c-0.29,0.13-0.58,0.25-0.87,0.36c0.01,0.28,0.03,0.55,0.04,0.83
		l-0.15-0.78c-0.78-3.93-1.55-7.87-2.33-11.8c-2.95-14.93-5.9-29.85-8.86-44.78c-4.81-24.35-9.63-48.7-14.44-73.05l-20.78-34.69
		l-0.26-0.44l-7.41-12.36l-17.07-28.5l-13.61-22.73c38.05,5.57,76.09,11.15,114.13,16.72c7.05,24.83,14.7,50.18,23,76
		C661.53,676.82,671.72,706.37,682.17,734.88z"/>
	<path class="st9" d="M405.57,566.52l-0.06,0.12l-10.81,20.48l-8.67,16.43l-10.35,19.6l-1.63,3.1l-21.18,40.13
		c-3.74,18.92-7.49,37.85-11.23,56.77c-2.36,11.94-4.72,23.89-7.09,35.83c-1.64,8.3-3.28,16.6-4.92,24.9
		c-0.27,1.39-0.55,2.79-0.83,4.18c-0.15-0.05-0.29-0.11-0.44-0.16c-0.52-0.19-1.04-0.37-1.55-0.57c-0.06-0.02-0.12-0.04-0.18-0.07
		c-0.09-0.03-0.18-0.06-0.27-0.1c-1.64-0.58-3.26-1.18-4.89-1.8c-0.02-0.01-0.03-0.01-0.05-0.02c-0.6-0.23-1.2-0.46-1.8-0.69
		c-1.02-0.4-2.04-0.8-3.05-1.21c-0.4-0.15-0.8-0.31-1.2-0.47c-2.09-0.84-4.17-1.69-6.23-2.56h-0.02c-0.06-0.03-0.13-0.05-0.19-0.08
		c-1.14-0.48-2.27-0.97-3.41-1.46c-1.71-0.74-3.42-1.5-5.12-2.27c-3.99-1.81-7.95-3.68-11.87-5.63c-3.82-1.89-7.61-3.85-11.36-5.87
		c-2.84-1.53-5.66-3.09-8.44-4.69c-0.01-0.01-0.03-0.01-0.04-0.02c-0.23-0.12-0.43-0.24-0.64-0.36c-0.08-0.04-0.15-0.08-0.22-0.13
		c-0.11-0.06-0.21-0.12-0.32-0.19c-0.49-0.28-0.98-0.57-1.47-0.86c-1.13-0.66-2.27-1.32-3.39-2c-2.07-1.23-4.13-2.48-6.18-3.75
		c-0.07-0.05-0.15-0.09-0.22-0.14c-3.25-2.03-6.47-4.1-9.65-6.23c-0.37-0.24-0.73-0.49-1.1-0.73
		c10.06-27.57,19.88-56.12,29.37-85.62c8.3-25.82,15.94-51.17,23-76c33.15-5.49,66.3-11,99.45-16.49c2.07-0.35,4.15-0.69,6.22-1.03
		c0.02,0,0.04-0.01,0.06-0.01C404.26,566.73,404.91,566.63,405.57,566.52z"/>
	<path class="st11" d="M489.87,609.38c-17.99,5.99-37.41,6.65-58,3c0.1-3.75,8,29,30,38C492.87,633.38,491.03,603.3,489.87,609.38z"
		/>
	<path class="st11" d="M417.87,601.38c-3.57-10.65-16.34-15.55-26-14c-16.11,2.59-27.13,23.73-21,35c6,11.04,28.53,12.72,40,2
		C416.11,619.49,420.86,610.32,417.87,601.38z"/>
	<path class="st11" d="M563.33,590.77c-3.39-11.02-17.16-16.07-26.97-15.89c-22.05,0.42-41.46,27.71-36,40
		c5.67,12.76,40.77,15.35,55.97-1.11C557.2,612.83,566.82,602.1,563.33,590.77z"/>
	<g>
		<path class="st11" d="M599.48,782.65l-0.15-0.78c-1.65,0.68-3.3,1.35-4.96,2.01c-3.45,1.36-6.93,2.67-10.44,3.93
			c-3.59,1.29-7.21,2.53-10.85,3.71c-0.27,0.09-0.54,0.17-0.81,0.26c-1.98,0.64-3.98,1.27-5.98,1.88c-1.58,0.48-3.16,0.95-4.74,1.41
			l-3.15,0.9c-2.37,0.66-4.76,1.31-7.15,1.93c-14.51,3.76-29.36,6.68-44.49,8.72c-1.35,0.18-2.69,0.35-4.04,0.51h-0.01
			c-2.59,0.33-5.19,0.62-7.8,0.89h-0.01c-1,0.1-1.97,0.2-2.97,0.29h-0.01c-0.09,0.01-0.18,0.02-0.27,0.02
			c-0.56,0.06-1.11,0.12-1.67,0.17c-1.39,0.12-2.79,0.23-4.19,0.34c-0.57,0.05-1.13,0.09-1.7,0.13c-1.91,0.15-3.82,0.27-5.73,0.38
			c-0.14,0.01-0.27,0.02-0.41,0.02c-0.64,0.04-1.28,0.08-1.91,0.11c-2.87,0.15-5.75,0.27-8.64,0.35c-1.44,0.05-2.88,0.08-4.32,0.1
			c-2.35,0.05-4.71,0.07-7.08,0.07c-0.52,0-1.03,0-1.55-0.01c-1.15,0-2.3-0.01-3.44-0.03c-2.92-0.03-5.83-0.11-8.73-0.21
			c-7.01-0.25-13.97-0.69-20.88-1.31c-0.84-0.08-1.67-0.16-2.51-0.25h-0.01c-0.35-0.03-0.7-0.06-1.05-0.1
			c-0.64-0.06-1.28-0.13-1.92-0.2h-0.01c-0.46-0.05-0.92-0.1-1.38-0.15c-0.96-0.1-1.91-0.21-2.86-0.33
			c-1.19-0.14-2.38-0.28-3.57-0.43c-0.16-0.02-0.32-0.04-0.48-0.06c-1.03-0.13-2.05-0.27-3.07-0.41c-0.09-0.01-0.19-0.02-0.28-0.04
			c-2.09-0.28-4.17-0.58-6.25-0.9c-0.01,0.01-0.02,0-0.03-0.01c-0.98-0.15-1.95-0.3-2.92-0.47c-0.04,0-0.07-0.01-0.11-0.02
			c-0.14-0.01-0.29-0.04-0.43-0.06c-1.02-0.16-2.04-0.33-3.05-0.51c-0.04,0-0.08-0.01-0.12-0.02c-0.54-0.09-1.07-0.18-1.61-0.28
			c-3.85-0.67-7.68-1.41-11.48-2.21c-9.44-1.97-18.75-4.29-27.92-6.96c-1.56-0.45-3.11-0.91-4.66-1.39
			c-1.72-0.52-3.43-1.06-5.13-1.61c-2.06-0.65-4.1-1.33-6.14-2.02c-0.21-0.07-0.42-0.14-0.63-0.21h-0.02
			c-1.45-0.49-2.89-1-4.32-1.51h-0.01c0.07-1.47,0.13-2.94,0.2-4.41c0.14-3.14,0.28-6.28,0.43-9.42
			c0.84-18.52,1.68-37.03,2.52-55.55c1.43-31.51,2.86-63.02,4.29-94.53l34.55-1.09l4.26-0.14l19.62-0.62h0.01l17.81-0.56l22.88-0.72
			l7.02-0.23l37.15-1.17l8.33-0.26l15.19-0.49l34.57-1.09l13.76-0.43h0.01l0.89-0.03l36.95-1.17c2.03,35.08,4.06,70.17,6.09,105.25
			c1.07,18.67,2.15,37.33,3.23,56c0.08,1.4,0.17,2.79,0.25,4.19C599.45,782.1,599.47,782.37,599.48,782.65z"/>
		<path class="st12" d="M599.51,782.89c0,0-0.06-0.1-0.12-0.2c-0.07-0.11-0.13-0.22-0.13-0.22c-0.09-0.17-0.15-0.37-0.19-0.54
			c0,0,0.37,0.2,0.37,0.2c-15.19,7.05-30.95,12.91-47.04,17.6c-45.51,13.03-90.29,16.56-136.88,11.87c-0.01,0,0.44,0.02,0.39,0.02
			c-3.47-0.35-8.6-1.02-12.03-1.51c-0.94-0.17-4.41-0.64-6.4-1c0,0,3.05-0.99,3.05-0.99c-0.58,0.58-1.38,0.95-2.2,1.02
			c-1.46,0.06-2.05-0.39-2.72-0.91c0,0-0.14-0.13-0.14-0.13s1.98,1,1.98,1s-2.99-0.54-2.99-0.54s0.6,0.05,0.6,0.05
			c-0.32-0.01-0.65-0.05-0.96-0.13c0,0,0.6,0.1,0.6,0.1s-0.71-0.1-0.71-0.1c-8.39-1.49-21.58-4.5-32.34-7.77
			c-9.08-2.66-20.82-6.9-28.28-9.76c0,0-4.28-1.69-4.28-1.69s0.34,0.06,0.34,0.06c-0.01,0-1.11-0.04-1.12-0.04
			c0.81-10.56,2.01-21.12,2.25-31.72c0.4-20.45-0.02-41.14,1.16-61.54c0.46-6.82,2.05-13.6,2.56-20.41
			c0.89-10.25-0.22-20.55-0.04-30.8c0.21-7.36,0.55-14.72,1.03-22.06c30.82-0.43,65.64-0.68,96.44-1.54
			c53.14-1.78,107.44-5.77,160.61-7.55c1.37,21.64,2.52,43.29,3.58,64.95c1.59,31.95,3,66.84,3.68,98.84c0,0,0.05,2.61,0.05,2.61
			C599.66,780.87,599.84,782.1,599.51,782.89L599.51,782.89z M599.45,782.42c-0.07-0.23-0.23-0.37-0.26-0.47
			c-0.03-0.09-0.04-0.39-0.07-0.58l-0.13-1.3c-0.11-1.59-0.63-6.11-0.75-7.77c-3.41-37.34-6.22-76.83-8.58-114.2
			c-0.82-13.85-1.74-27.7-2.45-41.56c0,0,2.74,2.5,2.74,2.5c-41.53,1.23-85.07,1.07-126.57,1.81c-41.42,0.54-85.05,3.17-126.46,5.21
			c0,0,1.62-1.6,1.62-1.6c-0.18,6.84-0.5,13.66-0.93,20.49c-0.46,6.82-1.61,13.61-2.25,20.43c-0.32,3.41-0.54,6.82-0.58,10.24
			c-0.11,6.84,0.87,13.72,0.7,20.56c-0.57,17.09-2.24,34.12-3.63,51.16c-1.28,13.48-1.39,27.51-1.41,41c0,0-1.02-1.07-1.02-1.07
			s0.01,0,0.01,0s0.13-0.01,0.13-0.01c0,0,0.21,0.06,0.21,0.06s4.36,1.33,4.36,1.33l-0.38-0.06c0,0,0.02,0,0.02,0
			s0.15-0.01,0.15-0.01s0.23,0.07,0.23,0.07c20.65,6.27,47.71,11.13,64.36,13.38c0,0,1.98,1,1.98,1s-0.12-0.12-0.12-0.12
			c-0.72-0.81-2.78-1.29-4.07-0.48c-0.3,0.16-0.56,0.36-0.8,0.59c0,0,3.05-0.99,3.05-0.99c2.09,0.26,4.67,0.59,6.52,0.86
			c0.62,0.06,1.91,0.26,2.55,0.32c13.62,1.66,27.82,2.86,43.14,3.12c27.38,0.37,50.01-1.29,76.19-5.7
			c22.53-3.74,44.72-9.65,66.36-16.96c2.09-0.69,4.15-1.46,6.24-2.18c0,0,0.04,0.31,0.04,0.31
			C599.64,782.04,599.45,782.17,599.45,782.42L599.45,782.42z"/>
	</g>
	<path class="st7" d="M518.87,541.38"/>
	<g>
		<path class="st11" d="M568.57,667.52L558.4,795.97c-2.37,0.66-4.76,1.31-7.15,1.93C555.68,753.36,561.53,709.89,568.57,667.52z"/>
		<path class="st12" d="M568.69,666.53c-1.44,20.94-1.87,41.46-2.18,62.74c-0.38,22.13-1.45,44.96-2.99,67.1
			c0,0-0.24,3.57-0.24,3.57c-5.13,1.45-12.75,3.52-17.9,4.97c3.16-35.32,7.34-70.7,14.61-105.43c0.93-4.76,2.44-11.34,3.52-16.12
			c1.14-4.33,1.8-8.73,3.52-12.91C567.72,668.91,568.34,667.71,568.69,666.53L568.69,666.53z M568.45,668.51
			c-0.26,2.8,0.8,4.83,0.56,7.41c-0.62,8.21-1.32,16.42-2.12,24.6c-1.91,22.05-8.03,75.19-10.48,97.89c0,0-6.47-5.54-6.47-5.54
			s7.08-1.85,7.08-1.85l-3.74,4.54C556.7,753.03,564.84,711.22,568.45,668.51L568.45,668.51z"/>
	</g>
	<path class="st13" d="M394.95,805.07c-6.13-35.85-12.25-71.7-18.38-107.55"/>
	<g>
		<g>
			<path class="st12" d="M300.64,666.33c5.55,20.94,9.6,42.27,12.01,63.8c0.68,6.1,1.24,12.21,1.67,18.33c0.14,1.91,3.14,1.93,3,0
				c-1.54-21.79-4.67-43.47-9.38-64.81c-1.34-6.07-2.81-12.11-4.41-18.12C303.04,663.67,300.15,664.46,300.64,666.33L300.64,666.33z
				"/>
		</g>
	</g>
	<g>
		<g>
			<path class="st12" d="M624.15,584.31c-9.53,0.06-18.34,6.4-21.56,15.33c-0.66,1.82,2.24,2.6,2.89,0.8
				c2.76-7.67,10.55-13.08,18.67-13.13C626.08,587.3,626.08,584.3,624.15,584.31L624.15,584.31z"/>
		</g>
	</g>
	<g>
		<g>
			<path class="st12" d="M308.73,599.63c6.22,0.84,11.6,4.91,14.08,10.67c0.32,0.74,1.41,0.91,2.05,0.54
				c0.77-0.45,0.86-1.31,0.54-2.05c-2.74-6.37-9-11.12-15.88-12.05c-0.8-0.11-1.61,0.19-1.85,1.05
				C307.49,598.48,307.93,599.52,308.73,599.63L308.73,599.63z"/>
		</g>
	</g>
	<g>
		<path class="st14" d="M491.18,403.98c-2.37-4.12-2.13-8.19-1.93-11.53c0.09-1.51,0.66-11.17,6.75-16.91
			c11.57-10.91,45.46-9.98,57.88,5.38c5.58,6.9,7.7,17.8,0.96,26.14c-9.27,11.48-28.98,10.29-33.77,9.99
			C518.42,416.89,497.75,415.41,491.18,403.98z"/>
		<path class="st15" d="M558.63,408.73c0.37-2.46,2.7-19.66-10-31.15c-15.64-14.15-44.75-11.19-56,1.83c-2.9,3.36-4.3,7.02-5,10.08"
			/>
		<circle class="st16" cx="517.88" cy="391.48" r="12.25"/>
		<circle class="st14" cx="523.66" cy="387.85" r="4.76"/>
		<path class="st14" d="M428.7,402.57c2.37-4.12,2.13-8.19,1.93-11.53c-0.09-1.51-0.66-11.17-6.75-16.91
			c-11.57-10.91-45.46-9.98-57.88,5.38c-5.58,6.9-7.7,17.8-0.96,26.14c9.27,11.48,28.98,10.29,33.77,9.99
			C401.46,415.48,422.14,414,428.7,402.57z"/>
		<circle class="st16" cx="402" cy="390.07" r="12.25"/>
		<circle class="st14" cx="408.22" cy="386.43" r="4.76"/>
		<path class="st7" d="M368.13,408.8c3.03,1.51,28.63,13.79,50,1c5.27-3.15,9.16-7.16,12-11"/>
		<path class="st17" d="M417.63,352.73c-23.83-0.75-45.82,3.13-65,14"/>
		<path class="st17" d="M499.67,352.72c23.83-0.75,45.82,3.13,65,14"/>
		<path class="st15" d="M360.49,405.96c-0.37-2.46-2.7-19.66,10-31.15c15.64-14.15,44.75-11.19,56,1.83c2.9,3.36,4.3,7.02,5,10.08"
			/>
		<path class="st7" d="M551.88,410.72c-3.03,1.51-28.63,13.79-50,1c-5.27-3.15-9.16-7.16-12-11"/>
	</g>
	<path class="st18" d="M505.23,474.86l-82.91,1.55c-7.95,1.53,11.95,29.49,48,25.19c25-2.98,40.45-23.45,36.61-26.32
		C506.41,474.9,505.23,474.86,505.23,474.86z"/>
</g>
</svg>
