<?xml version="1.0" encoding="utf-8"?>
<!-- Generator: Adobe Illustrator 28.3.0, SVG Export Plug-In . SVG Version: 6.00 Build 0)  -->
<svg version="1.1" id="Layer_1" xmlns="http://www.w3.org/2000/svg" xmlns:xlink="http://www.w3.org/1999/xlink" x="0px" y="0px"
	 viewBox="0 0 916 850" style="enable-background:new 0 0 916 850;" xml:space="preserve">
<style type="text/css">
	.st0{opacity:0.6;fill:#CCCCCC;}
	.st1{display:none;fill:#426646;}
	.st2{fill:#C6C0D8;stroke:#000000;stroke-miterlimit:10;}
	.st3{fill:#FFE3CB;stroke:#000000;stroke-miterlimit:10;}
	.st4{fill:#FFB995;}
	.st5{fill:#332C26;stroke:#000000;stroke-miterlimit:10;}
	.st6{fill:none;stroke:#000000;stroke-miterlimit:10;}
	.st7{fill:#332C26;}
	.st8{fill:none;stroke:#FFB995;stroke-miterlimit:10;}
	.st9{fill:#FFB995;stroke:#000000;stroke-width:0.5;stroke-miterlimit:10;}
	.st10{fill:#FFB995;stroke:#FFB995;stroke-miterlimit:10;}
	.st11{fill:#EFF5F9;stroke:#25282D;stroke-width:2;stroke-miterlimit:10;}
	.st12{fill:#EFF5F9;stroke:#000000;stroke-miterlimit:10;}
	.st13{fill:#EFF5F9;}
	.st14{fill:#C6C0D8;}
	.st15{fill:none;stroke:#C6C0D8;stroke-miterlimit:10;}
	.st16{fill:#2D2A38;stroke:#000000;stroke-miterlimit:10;}
	.st17{fill:#45A3BF;}
	.st18{fill:#B3D9E8;stroke:#000000;stroke-miterlimit:10;}
	.st19{fill:#C6C0D8;stroke:#C6C0D8;stroke-miterlimit:10;}
	.st20{fill:#2D2A38;stroke:#000000;stroke-width:3;stroke-miterlimit:10;}
	.st21{fill:#EBFAFF;stroke:#DB3A3A;stroke-width:3;stroke-miterlimit:10;}
	.st22{fill:#DB3A3A;stroke:#DB3A3A;stroke-width:3;stroke-miterlimit:10;}
	.st23{fill:none;stroke:#DB3A3A;stroke-width:2;stroke-miterlimit:10;}
	.st24{fill:#EFF5F9;stroke:#000000;stroke-width:3;stroke-miterlimit:10;}
	.st25{fill:#EFF5F9;stroke:#DB3A3A;stroke-width:3;stroke-miterlimit:10;}
	.st26{fill:none;stroke:#DB3A3A;stroke-width:3;stroke-miterlimit:10;}
	.st27{fill:#FFFFFF;}
	.st28{fill:none;stroke:#000000;stroke-width:4;stroke-miterlimit:10;}
	.st29{stroke:#000000;stroke-miterlimit:10;}
	.st30{fill:none;stroke:#000000;stroke-width:3;stroke-miterlimit:10;}
	.st31{opacity:0.63;fill:#CEEAF4;stroke:#000000;stroke-miterlimit:10;}
	.st32{opacity:0.63;}
	.st33{fill:#FDFEFF;}
</style>
<path class="st0" d="M834,432c0,107.49-44.87,204.49-116.88,273.28c-0.3,0.3-0.6,0.59-0.9,0.86c-0.02,0.03-0.03,0.04-0.05,0.05
	c-1.41,1.34-2.83,2.67-4.26,3.98c-0.34,0.32-0.68,0.63-1.02,0.93c-0.04,0.04-0.08,0.08-0.12,0.11c-3.54,3.24-7.15,6.41-10.81,9.5
	c-1.57,1.33-3.16,2.65-4.75,3.95c-0.03,0.03-0.06,0.06-0.09,0.07v0.01c-2.92,2.39-5.88,4.74-8.87,7.04
	c-0.16,0.13-0.33,0.25-0.49,0.37c-0.24,0.2-0.49,0.39-0.74,0.57c-0.94,0.73-1.89,1.44-2.85,2.16c-0.91,0.68-1.83,1.35-2.74,2.03
	c-0.65,0.47-1.3,0.95-1.95,1.41c-0.12,0.09-0.23,0.18-0.35,0.26c-0.23,0.17-0.47,0.34-0.7,0.51c-0.27,0.19-0.54,0.39-0.8,0.57
	c-0.23,0.18-0.45,0.34-0.68,0.5c-0.39,0.28-0.78,0.55-1.17,0.82c-0.11,0.08-0.23,0.17-0.34,0.25c-0.15,0.1-0.3,0.21-0.46,0.31
	c-0.42,0.31-0.85,0.61-1.29,0.91c-1.28,0.89-2.57,1.78-3.86,2.65c-0.17,0.12-0.35,0.24-0.52,0.35c-1.36,0.92-2.73,1.83-4.1,2.72
	c-0.1,0.06-0.2,0.13-0.3,0.19c-0.09,0.06-0.17,0.11-0.26,0.17c-0.07,0.04-0.13,0.09-0.2,0.13c-0.12,0.08-0.24,0.17-0.37,0.24
	c-0.28,0.2-0.57,0.38-0.85,0.56c-0.08,0.05-0.15,0.1-0.23,0.15c-0.36,0.24-0.71,0.47-1.07,0.7c-0.17,0.12-0.35,0.23-0.52,0.34
	c-0.02,0.01-0.03,0.02-0.05,0.03c-0.22,0.14-0.43,0.28-0.65,0.42c-0.02,0.01-0.05,0.03-0.07,0.04c-0.69,0.44-1.38,0.88-2.07,1.3
	c-0.64,0.41-1.27,0.81-1.91,1.2c-1,0.62-2,1.23-3.01,1.84c-0.2,0.12-0.41,0.25-0.61,0.37h-0.01c-0.75,0.45-1.5,0.9-2.25,1.34
	c-0.08,0.06-0.16,0.1-0.25,0.15c-1.4,0.84-2.8,1.66-4.22,2.47c-0.22,0.12-0.43,0.25-0.65,0.37c-4.44,2.56-8.94,5.02-13.51,7.38
	c-1.63,0.86-3.28,1.69-4.93,2.51c-0.25,0.14-0.51,0.26-0.76,0.39c-0.08,0.04-0.17,0.09-0.25,0.12c-0.38,0.2-0.76,0.39-1.14,0.57
	h-0.01c-0.23,0.12-0.45,0.23-0.68,0.35c-0.32,0.16-0.63,0.31-0.95,0.47c-2.43,1.19-4.87,2.34-7.33,3.48
	c-0.16,0.07-0.32,0.15-0.49,0.22c-0.9,0.41-1.8,0.82-2.71,1.23c-0.55,0.25-1.09,0.49-1.63,0.73c-0.03,0.01-0.05,0.02-0.08,0.04
	c-0.31,0.13-0.62,0.27-0.92,0.41c-1.26,0.55-2.52,1.1-3.79,1.64c-0.79,0.33-1.57,0.66-2.36,0.99c-0.28,0.12-0.56,0.23-0.84,0.35
	c-0.32,0.14-0.65,0.27-0.97,0.4c-0.29,0.13-0.58,0.25-0.87,0.36c-0.04,0.02-0.07,0.04-0.11,0.05c-0.14,0.06-0.29,0.12-0.43,0.17
	c-1.51,0.63-3.01,1.24-4.53,1.84c-1.76,0.69-3.52,1.37-5.3,2.04c-1.7,0.64-3.42,1.27-5.14,1.89c-3.59,1.29-7.21,2.53-10.85,3.71
	c-0.27,0.09-0.54,0.17-0.81,0.26c-1.98,0.64-3.98,1.27-5.98,1.88c-1.58,0.48-3.16,0.95-4.74,1.41l-3.15,0.9
	c-2.37,0.66-4.76,1.31-7.15,1.93c-14.51,3.76-29.36,6.68-44.49,8.72c-1.35,0.18-2.69,0.35-4.04,0.51h-0.01
	c-2.59,0.33-5.19,0.62-7.8,0.89h-0.01c-1,0.1-1.97,0.2-2.97,0.29h-0.01c-0.09,0.01-0.18,0.02-0.27,0.02
	c-0.56,0.06-1.11,0.12-1.67,0.17c-1.39,0.12-2.79,0.23-4.19,0.34c-0.57,0.05-1.13,0.09-1.7,0.13c-1.91,0.15-3.82,0.27-5.73,0.38
	c-0.14,0.01-0.27,0.02-0.41,0.02c-0.64,0.04-1.28,0.08-1.91,0.11c-0.24,0.01-0.47,0.02-0.71,0.03c-2.1,0.11-4.2,0.2-6.31,0.26
	c-0.54,0.03-1.08,0.05-1.62,0.06c-1.44,0.05-2.88,0.08-4.32,0.1c-2.35,0.05-4.71,0.07-7.08,0.07c-0.52,0-1.03,0-1.55-0.01
	c-1.15,0-2.3-0.01-3.44-0.03c-2.92-0.03-5.83-0.11-8.73-0.21c-6.55-0.23-13.06-0.63-19.52-1.2c-0.45-0.03-0.91-0.07-1.36-0.11
	c-0.7-0.07-1.39-0.13-2.09-0.21c-0.14-0.01-0.28-0.02-0.42-0.04h-0.01c-0.35-0.03-0.7-0.06-1.05-0.1c-0.64-0.06-1.28-0.13-1.92-0.2
	h-0.01c-0.46-0.05-0.92-0.1-1.38-0.15c-0.96-0.1-1.91-0.21-2.86-0.33c-1.19-0.14-2.38-0.28-3.57-0.43
	c-0.16-0.02-0.32-0.04-0.48-0.06c-1.03-0.13-2.05-0.27-3.07-0.41c-0.09-0.01-0.19-0.02-0.28-0.04c-2.09-0.28-4.17-0.58-6.25-0.9
	c-0.01,0.01-0.02,0-0.03-0.01c-0.98-0.15-1.95-0.3-2.92-0.47c-0.04,0-0.07-0.01-0.11-0.02c-0.14-0.01-0.29-0.04-0.43-0.06
	c-1.02-0.16-2.04-0.33-3.05-0.51c-0.04,0-0.08-0.01-0.12-0.02c-0.54-0.09-1.07-0.18-1.61-0.28c-3.85-0.67-7.68-1.41-11.48-2.21
	c-9.44-1.97-18.75-4.29-27.92-6.96c-1.02-0.29-2.03-0.59-3.04-0.9c-0.54-0.16-1.08-0.32-1.62-0.49c-1.72-0.52-3.43-1.06-5.13-1.61
	c-1.02-0.32-2.04-0.65-3.06-0.98c-1.03-0.35-2.05-0.69-3.08-1.04c-0.21-0.07-0.42-0.14-0.63-0.21h-0.02
	c-0.05-0.02-0.11-0.04-0.16-0.05c-1.4-0.48-2.78-0.97-4.16-1.46h-0.01c-0.21-0.08-0.42-0.16-0.63-0.23
	c-0.15-0.05-0.29-0.11-0.44-0.16c-0.52-0.19-1.04-0.37-1.55-0.57c-0.06-0.02-0.12-0.04-0.18-0.07c-0.09-0.03-0.18-0.06-0.27-0.1
	c-0.53-0.19-1.06-0.38-1.58-0.57c-1.11-0.4-2.21-0.81-3.31-1.23c-0.02-0.01-0.03-0.01-0.05-0.02c-0.6-0.23-1.2-0.46-1.8-0.69
	c-1.02-0.4-2.04-0.8-3.05-1.21c-0.4-0.15-0.8-0.31-1.2-0.47c-2.09-0.84-4.17-1.69-6.23-2.56h-0.02c-0.06-0.03-0.13-0.05-0.19-0.08
	c-1.14-0.48-2.27-0.97-3.41-1.46c-1.71-0.74-3.42-1.5-5.12-2.27c-3.99-1.81-7.95-3.68-11.87-5.63c-3.82-1.89-7.61-3.85-11.36-5.87
	c-1.08-0.58-2.16-1.17-3.23-1.77c-1.75-0.95-3.49-1.93-5.21-2.92c-0.01-0.01-0.03-0.01-0.04-0.02c-0.23-0.12-0.43-0.24-0.64-0.36
	c-0.08-0.04-0.15-0.08-0.22-0.13c-0.11-0.06-0.21-0.12-0.32-0.19c-0.03-0.02-0.05-0.03-0.08-0.05c-0.46-0.26-0.93-0.54-1.39-0.81
	c-1.13-0.66-2.27-1.32-3.39-2c-2.07-1.23-4.13-2.48-6.18-3.75c-0.07-0.05-0.15-0.09-0.22-0.14c-0.21-0.13-0.41-0.26-0.62-0.39
	c-3.04-1.9-6.05-3.85-9.03-5.84c-0.37-0.24-0.73-0.49-1.1-0.73c-0.61-0.41-1.22-0.82-1.83-1.24c-3.88-2.63-7.7-5.33-11.47-8.11
	c-1.96-1.45-3.91-2.91-5.85-4.4C136.16,663.18,78,554.37,78,432C78,223.24,247.24,54,456,54S834,223.24,834,432z"/>
<path class="st1" d="M443.81,882.44c3.73,59.65,34.8,136.7,34.8,136.7s11.18,55.92,123.03,103.15
	c19.11-7.03,78.89-31.74,120.55-96.94c26.1-67.11,38.96-130.11,37.28-150.38c-11.21-70.41-67.41-161.74-152.86-164.05
	C516.85,708.51,453.29,805.88,443.81,882.44z"/>
<g>
	<path class="st2" d="M394.64,521.55c46-1.33,92-2.67,138-4c-1.34,36.83-31.59,66.41-68,67
		C428.88,585.13,398.04,557.58,394.64,521.55z"/>
	<path class="st3" d="M525.64,475.55c2.63,23.55-6,13-8,90c-2.94,9.27-8.97,25.81-22,43c-10.02,13.22-18.65,24.6-30,25
		c-18.93,0.66-33.56-29.65-40-43c-13.52-28-6-64-11-106C435.68,458.31,483.32,451.65,525.64,475.55z"/>
	<g>
		<path class="st4" d="M417.14,484.05c11.99-6.42,36.45-17.3,68.33-16.11c16.83,0.63,30.72,4.43,40.67,8.11c-2,15-4,30-6,45
			c0,0-23.03,18.75-36.31,22.96c-17.24,5.47-32.91,4.91-46.59,4.21c-8.43-0.43-15.37-1.39-20.1-2.18V484.05z"/>
	</g>
	<path class="st5" d="M614.64,366.55c5.54-8.08,19.24-30.37,20-60.38c1.13-44.78-26.96-90.63-65.69-110.21
		c-46.13-23.34-120.47-19.35-100.31-20.41c19-1,27.61-47.69,26-49c-1.54-1.25-23.69,27.21-41,42c-95-31-190.25,20.96-190,18
		c0.26-3.11,91.95-4.31,148.51,9.88c0.18,0.05,0.31,0.08,0.49,0.12c-11.66-5.32-27.47-9.8-45-7c-37.09,5.91-68.24,42.16-77,91
		c1.39,26.89,8.7,77.86,47,115C414.31,469.9,564.48,439.71,614.64,366.55z"/>
	<path class="st3" d="M312.64,357.55c-10.38,4.58-10.06,25.47-10,28c1.09,43.16,55.54,68.45,59,70c12.05,5.4,24.6,11.04,30,6
		c10.43-9.73-12.72-52.96-40-81C342.24,370.89,324.27,352.42,312.64,357.55z"/>
	<path class="st3" d="M616.06,357.99c10.38,4.58,10.06,25.47,10,28c-1.09,43.16-55.54,68.45-59,70c-12.05,5.4-24.6,11.04-30,6
		c-10.43-9.73,12.72-52.96,40-81C586.46,371.33,604.43,352.86,616.06,357.99z"/>
	<path class="st3" d="M338.64,342.55c3,48,28,110,28,110s9,45,99,83c15.38-5.65,63.48-25.54,97-78c21-54,31.35-104.69,30-121
		c-9.02-56.66-54.24-130.14-123-132C397.41,202.6,346.27,280.95,338.64,342.55z"/>
	<path class="st5" d="M444.64,273.55c-7,66-29,96-29,96s56-29,45-39c1.76,1.49-14,45-32,55c4.73,6.17,28.68-0.81,44-13
		c43.35-34.5,25.69-117.12,23-129"/>
	<path class="st5" d="M475.64,259.55c14.01,28.85,62.09,68.06,100.58,100.55c6.89,5.82-1.42,24.24-12.58,42.45
		c3.27,3.09,12.2-1.57,14.1-2.56c14.74-7.68,24.59-25.25,24.9-47.44"/>
	<path class="st6" d="M338.64,392.43"/>
	<path class="st7" d="M603.64,346.55c16.73-14.19-7.66-108.46-76-144c-65.01-33.81-154.86-6.63-191,51
		c-20.8,33.16-27.38,81.62-11,92c28.84,18.27,125.02-83.91,136.5-72.5c4.98,4.95-11.12,26.16-4.5,32.5
		c7.01,6.71,25.92-16.2,49.5-12.5c23.3,3.66,24.19,29.06,59,46C575.64,343.67,595.59,353.38,603.64,346.55z"/>
	<g>
		<g>
			<path d="M445.02,272.68c0.78-3.65,1.16-7.39,1.13-11.12c-0.01-1.07-1.29-1.96-2.26-1.3c-3.41,2.35-6.52,5.1-9.24,8.23
				c-0.53,0.61-0.6,1.52,0,2.12c0.54,0.54,1.59,0.61,2.12,0c2.55-2.93,5.44-5.55,8.63-7.76c-0.75-0.43-1.5-0.86-2.26-1.3
				c0.04,3.47-0.3,6.93-1.02,10.33c-0.17,0.79,0.23,1.62,1.05,1.85C443.92,273.94,444.85,273.48,445.02,272.68L445.02,272.68z"/>
		</g>
	</g>
	<g>
		<path d="M502.08,289.65c-0.74,0.01-0.84-7.33-3.11-21.84c-1.42-9.13-2.97-16.61-4.1-21.68c2.72,4.55,6.13,11.49,7.76,20.42
			C504.83,278.55,502.99,289.64,502.08,289.65z"/>
		<g>
			<path d="M502.08,288.15c0.38,0.04,1.05,0.54,1.12,0.59c0.02,0.01,0.09,0.37,0.07,0.15c-0.02-0.19-0.1-0.39-0.14-0.58
				c-0.16-0.76-0.17-1.05-0.26-1.76c-0.28-2.33-0.51-4.67-0.79-7.01c-0.92-7.81-2.12-15.58-3.59-23.3
				c-0.67-3.51-1.39-7.02-2.17-10.51c-0.91,0.39-1.83,0.77-2.74,1.16c4.15,6.98,6.96,14.7,8.04,22.76
				c0.58,4.34,0.71,8.76,0.39,13.12c-0.1,1.42-0.25,2.85-0.53,4.25c-0.1,0.47-0.21,0.94-0.35,1.4c-0.1,0.32-0.1,0.12-0.06,0.19
				c-0.02,0.05-0.05,0.1-0.08,0.14c0.16-0.27,0.39-0.44,0.7-0.54c-1.9,0.33-1.09,3.23,0.8,2.89c1.53-0.27,1.81-2.79,2.02-3.96
				c0.52-3.01,0.68-6.08,0.67-9.12c-0.03-7.98-1.44-15.95-4.42-23.36c-1.29-3.21-2.82-6.31-4.58-9.28
				c-0.89-1.49-3.11-0.49-2.74,1.16c1.69,7.58,3.12,15.21,4.29,22.89c0.93,6.14,1.48,12.32,2.32,18.47c0.19,1.35,0.34,3.1,2.04,3.27
				C504,291.34,503.99,288.34,502.08,288.15z"/>
		</g>
	</g>
	<g>
		<g>
			<path d="M608.24,347.49c0-3.52,0-7.03,0-10.55c0-0.81-0.69-1.5-1.5-1.5c-0.81,0-1.5,0.69-1.5,1.5c0,3.52,0,7.03,0,10.55
				c0,0.81,0.69,1.5,1.5,1.5C607.55,348.99,608.24,348.3,608.24,347.49L608.24,347.49z"/>
		</g>
	</g>
	<g>
		<g>
			<path d="M377.45,192.71c9.05-0.66,18.17-0.34,27.14,1.02c1.89,0.29,2.7-2.6,0.8-2.89c-9.25-1.4-18.6-1.81-27.94-1.13
				C375.53,189.84,375.52,192.85,377.45,192.71L377.45,192.71z"/>
		</g>
	</g>
	<g>
		<g>
			<path d="M486.21,233.84c-1.68-3.47-4.81-6.12-8.44-7.34c-0.74-0.25-1.67,0.29-1.85,1.05c-0.19,0.83,0.25,1.58,1.05,1.85
				c0.2,0.07,0.4,0.14,0.59,0.21c0.16,0.06,0.2,0.06,0.01,0c0.1,0.03,0.22,0.09,0.31,0.14c0.38,0.18,0.76,0.37,1.12,0.58
				c0.35,0.2,0.68,0.42,1.01,0.66c0.08,0.06,0.15,0.11,0.23,0.17c0.31,0.23-0.24-0.2,0.06,0.05c0.16,0.13,0.32,0.27,0.48,0.41
				c0.3,0.27,0.59,0.55,0.86,0.84c0.14,0.15,0.28,0.31,0.42,0.47c0.06,0.07,0.12,0.15,0.18,0.22c0.04,0.05,0.3,0.33,0.05,0.06
				c0.55,0.59,0.96,1.43,1.31,2.15c0.34,0.71,1.41,0.95,2.05,0.54C486.39,235.42,486.57,234.6,486.21,233.84L486.21,233.84z"/>
		</g>
	</g>
	<g>
		<g>
			<path d="M568.39,233.54c8.24,14.54,15.54,29.59,21.83,45.07c0.72,1.77,3.62,0.99,2.89-0.8c-6.38-15.72-13.76-31.02-22.13-45.79
				C570.03,230.35,567.43,231.86,568.39,233.54L568.39,233.54z"/>
		</g>
	</g>
	<g>
		<g>
			<path d="M321.81,294.21c0.55-4.03,2.17-7.72,3.86-11.38c1.77-3.84,3.6-7.66,5.48-11.45c3.72-7.51,7.64-14.92,11.75-22.23
				c0.95-1.68-1.64-3.2-2.59-1.51c-4.19,7.44-8.18,15-11.97,22.66c-1.87,3.79-3.7,7.61-5.47,11.46c-1.72,3.74-3.4,7.55-3.96,11.67
				c-0.11,0.81,0.2,1.6,1.05,1.85C320.66,295.46,321.7,295.02,321.81,294.21L321.81,294.21z"/>
		</g>
	</g>
	<path class="st8" d="M314.64,371.55c-1.18,3.76-3.06,11.56-1,21c1.38,6.34,4.03,11.08,6,14"/>
	<path class="st8" d="M615.74,370.38c1.18,3.76,3.06,11.56,1,21c-1.38,6.34-4.03,11.08-6,14"/>
	<line class="st8" x1="471.64" y1="387.55" x2="458.64" y2="395.55"/>
	<line class="st8" x1="472.64" y1="392.55" x2="451.64" y2="405.55"/>
	<line class="st8" x1="477.64" y1="395.55" x2="450.64" y2="412.55"/>
	<line class="st8" x1="479.64" y1="401.55" x2="451.64" y2="418.55"/>
	<line class="st8" x1="482.64" y1="405.55" x2="453.64" y2="422.55"/>
	<path class="st9" d="M465.64,432.05c-0.17,4-0.33,8-0.5,12c-1.83-1.67-3.67-3.33-5.5-5"/>
	<g>
		<g>
			<path class="st4" d="M371.57,421.34c-0.61,0.82-1.22,1.63-1.83,2.45c-0.11,0.17-0.17,0.36-0.18,0.56c-0.04,0.2-0.04,0.4,0.03,0.6
				c0.1,0.35,0.36,0.72,0.69,0.9c0.35,0.18,0.77,0.28,1.16,0.15c0.12-0.05,0.24-0.1,0.36-0.15c0.23-0.13,0.4-0.31,0.54-0.54
				c0.61-0.82,1.22-1.63,1.83-2.45c0.11-0.17,0.17-0.36,0.18-0.56c0.04-0.2,0.04-0.4-0.03-0.6c-0.1-0.35-0.36-0.73-0.69-0.9
				c-0.35-0.18-0.77-0.28-1.16-0.15c-0.12,0.05-0.24,0.1-0.36,0.15C371.88,420.93,371.7,421.11,371.57,421.34L371.57,421.34z"/>
		</g>
	</g>
	<g>
		<g>
			<path class="st4" d="M375.52,424.07c-0.2,0.31-0.41,0.61-0.61,0.92c-0.11,0.17-0.17,0.36-0.18,0.56c-0.04,0.2-0.04,0.4,0.03,0.6
				c0.05,0.2,0.14,0.37,0.27,0.51c0.11,0.16,0.25,0.29,0.42,0.39c0.12,0.05,0.24,0.1,0.36,0.15c0.27,0.07,0.53,0.07,0.8,0
				c0.12-0.05,0.24-0.1,0.36-0.15c0.23-0.13,0.4-0.31,0.54-0.54c0.2-0.31,0.41-0.61,0.61-0.92c0.11-0.17,0.17-0.36,0.18-0.56
				c0.04-0.2,0.04-0.4-0.03-0.6c-0.05-0.2-0.14-0.37-0.27-0.51c-0.11-0.16-0.25-0.29-0.42-0.39c-0.12-0.05-0.24-0.1-0.36-0.15
				c-0.27-0.07-0.53-0.07-0.8,0c-0.12,0.05-0.24,0.1-0.36,0.15C375.83,423.67,375.65,423.85,375.52,424.07L375.52,424.07z"/>
		</g>
	</g>
	<g>
		<g>
			<path class="st4" d="M545.01,423.92c0,0.51,0,1.02,0,1.53c-0.01,0.21,0.04,0.4,0.13,0.58c0.06,0.19,0.16,0.35,0.31,0.48
				c0.14,0.15,0.3,0.25,0.48,0.31c0.18,0.09,0.37,0.14,0.58,0.13c0.13-0.02,0.27-0.04,0.4-0.05c0.25-0.07,0.47-0.2,0.66-0.39
				c0.27-0.29,0.44-0.65,0.44-1.06c0-0.51,0-1.02,0-1.53c0.01-0.21-0.04-0.4-0.13-0.58c-0.06-0.19-0.16-0.35-0.31-0.48
				c-0.14-0.15-0.3-0.25-0.48-0.31c-0.18-0.09-0.37-0.14-0.58-0.13c-0.13,0.02-0.27,0.04-0.4,0.05c-0.25,0.07-0.47,0.2-0.66,0.39
				C545.18,423.15,545.01,423.51,545.01,423.92L545.01,423.92z"/>
		</g>
	</g>
	<g>
		<g>
			<path class="st4" d="M549.56,422.73c0.01,0.01,0.02,0.03,0.04,0.04c-0.08-0.1-0.16-0.2-0.23-0.3c0.24,0.32,0.44,0.66,0.6,1.03
				c-0.05-0.12-0.1-0.24-0.15-0.36c0.17,0.4,0.28,0.82,0.34,1.26c-0.02-0.13-0.04-0.27-0.05-0.4c0.05,0.38,0.05,0.76,0.01,1.13
				c-0.04,0.36,0.2,0.82,0.44,1.06c0.26,0.26,0.69,0.46,1.06,0.44c0.39-0.02,0.79-0.14,1.06-0.44c0.08-0.1,0.16-0.2,0.23-0.3
				c0.14-0.23,0.2-0.49,0.2-0.76c0.08-0.75,0-1.53-0.21-2.25c-0.12-0.4-0.28-0.8-0.47-1.18c-0.2-0.4-0.47-0.74-0.74-1.09
				c-0.22-0.28-0.72-0.44-1.06-0.44c-0.37,0-0.81,0.16-1.06,0.44c-0.26,0.29-0.46,0.66-0.44,1.06c0.02,0.13,0.04,0.27,0.05,0.4
				C549.24,422.32,549.37,422.54,549.56,422.73L549.56,422.73z"/>
		</g>
	</g>
	<path class="st5" d="M450.64,276.55c-12.82,8.94-94,84-101,114c-2,5,9.6,31.37,11,31c0.08-0.02,0.11-0.11,0.12-0.15
		c0.66-2.62-54.89-18.44-44.12-91.85"/>
	<path class="st3" d="M661.46,750.47c0,0.01,0,0.01,0,0.01c-0.83,2.09-1.66,3.94-2.43,5.54c-1.52-0.78-2.98-1.58-4.37-2.38
		c-1,0.62-2,1.23-3.01,1.84c-0.2,0.12-0.41,0.25-0.61,0.37h-0.01c-0.75,0.45-1.5,0.9-2.25,1.34c-0.08,0.06-0.16,0.1-0.25,0.15
		c-1.4,0.84-2.8,1.66-4.22,2.47c-0.22,0.12-0.43,0.25-0.65,0.37c-4.44,2.56-8.94,5.02-13.51,7.38c-1.63,0.86-3.28,1.69-4.93,2.51
		c-0.25,0.14-0.51,0.26-0.76,0.39c-0.08,0.04-0.17,0.09-0.25,0.12c-0.38,0.2-0.76,0.39-1.14,0.57h-0.01
		c-0.23,0.12-0.45,0.23-0.68,0.35c-0.32,0.16-0.63,0.31-0.95,0.47c-2.43,1.19-4.87,2.34-7.33,3.48c-0.16,0.07-0.32,0.15-0.49,0.22
		c-0.9,0.41-1.8,0.82-2.71,1.23c-0.55,0.25-1.09,0.49-1.63,0.73c-0.03,0.01-0.05,0.02-0.08,0.04c-0.31,0.13-0.62,0.27-0.92,0.41
		c-1.26,0.55-2.52,1.1-3.79,1.64c-0.79,0.33-1.57,0.66-2.36,0.99c-3.72-12.81-7.45-25.62-11.17-38.43c11.77-5.5,23.53-11,35.29-16.5
		c0.07-0.04,0.14-0.07,0.2-0.1c0.8-0.37,1.59-0.74,2.38-1.11c5.34-2.5,10.68-5,16.02-7.5c2.7-1.26,5.41-2.53,8.11-3.79
		c0.11,0.47,0.22,0.95,0.32,1.42c1.37,5.97,2.74,11.94,4.1,17.91c0.44,1.91,0.88,3.81,1.31,5.72c0.74,3.2,1.47,6.4,2.2,9.6
		c0.12,0.51,0.24,1.02,0.35,1.53C661.31,749.8,661.39,750.13,661.46,750.47z"/>
	<path class="st10" d="M665.32,738.49c0.66,2.2,1.32,4.52,1.99,6.96c-1.36,0.92-2.73,1.83-4.1,2.72c-0.1,0.06-0.2,0.13-0.3,0.19
		c-0.09,0.06-0.17,0.11-0.26,0.17c-0.07,0.04-0.13,0.09-0.2,0.13c-0.12,0.08-0.24,0.17-0.37,0.24c-0.21,0.54-0.41,1.06-0.62,1.57
		c0,0.01,0,0.01,0,0.01c-0.83,2.09-1.66,3.94-2.43,5.54c-1.52-0.78-2.98-1.58-4.37-2.38c-1,0.62-2,1.23-3.01,1.84
		c-0.2,0.12-0.41,0.25-0.61,0.37h-0.01c-0.75,0.45-1.5,0.9-2.25,1.34c-0.08,0.06-0.16,0.1-0.25,0.15c-1.4,0.84-2.8,1.66-4.22,2.47
		c-0.22,0.12-0.43,0.25-0.65,0.37c-4.44,2.56-8.94,5.02-13.51,7.38c-1.63,0.86-3.28,1.69-4.93,2.51c-0.25,0.14-0.51,0.26-0.76,0.39
		c-0.08,0.04-0.17,0.09-0.25,0.12c-0.38,0.2-0.76,0.39-1.14,0.57h-0.01c-0.23,0.12-0.45,0.23-0.68,0.35
		c-0.32,0.16-0.63,0.31-0.95,0.47c-2.43,1.19-4.87,2.34-7.33,3.48c-0.16,0.07-0.32,0.15-0.49,0.22
		c0.82-22.19,5.97-38.77,12.63-49.89c0.04-0.08,0.09-0.15,0.13-0.23c0.55-0.91,1.11-1.78,1.68-2.61c0,0,0,0,0-0.01
		c3.23-4.73,6.71-8.26,10.19-10.64c1.35-0.92,2.68-1.66,4.01-2.23h0.01c0.79-0.34,1.56-0.62,2.33-0.83c1.37-0.39,2.71-0.58,4-0.58
		c0.32,0,0.63,0.04,0.95,0.11c0.16,0.04,0.32,0.08,0.48,0.14c1.54,0.53,3.12,1.91,4.72,4.15c1.94,2.7,3.93,6.64,5.97,11.83
		c0,0,0.01,0,0,0.01c0.6,1.52,1.2,3.14,1.8,4.88v0.01c0.66,1.88,1.33,3.89,1.99,6.04C664.78,736.69,665.05,737.58,665.32,738.49z"/>
	<path class="st11" d="M677.48,738.32c-0.12,0.09-0.23,0.18-0.35,0.26c-0.23,0.17-0.47,0.34-0.7,0.51c-0.27,0.19-0.54,0.39-0.8,0.57
		c-0.23,0.18-0.45,0.34-0.68,0.5c-0.39,0.28-0.78,0.55-1.17,0.82c-0.11,0.08-0.23,0.17-0.34,0.25c-0.15,0.1-0.3,0.21-0.46,0.31
		c-0.42,0.31-0.85,0.61-1.29,0.91c-1.28,0.89-2.57,1.78-3.86,2.65c-0.17,0.12-0.35,0.24-0.52,0.35c-1.36,0.92-2.73,1.83-4.1,2.72
		c-0.1,0.06-0.2,0.13-0.3,0.19c-0.09,0.06-0.17,0.11-0.26,0.17c-0.07,0.04-0.13,0.09-0.2,0.13c-0.12,0.08-0.24,0.17-0.37,0.24
		c-0.21,0.54-0.41,1.06-0.62,1.57c0,0.01,0,0.01,0,0.01c-0.83,2.09-1.66,3.94-2.43,5.54c-1.52-0.78-2.98-1.58-4.37-2.38
		c-1,0.62-2,1.23-3.01,1.84c-0.2,0.12-0.41,0.25-0.61,0.37h-0.01c-0.75,0.45-1.5,0.9-2.25,1.34c-0.08,0.06-0.16,0.1-0.25,0.15
		c-1.4,0.84-2.8,1.66-4.22,2.47c-0.22,0.12-0.43,0.25-0.65,0.37c-4.44,2.56-8.94,5.02-13.51,7.38c-1.63,0.86-3.28,1.69-4.93,2.51
		c-0.25,0.14-0.51,0.26-0.76,0.39c-0.08,0.04-0.17,0.09-0.25,0.12c-0.38,0.2-0.76,0.39-1.14,0.57h-0.01
		c-0.23,0.12-0.45,0.23-0.68,0.35c-0.32,0.16-0.63,0.31-0.95,0.47c-2.43,1.19-4.87,2.34-7.33,3.48c-0.16,0.07-0.32,0.15-0.49,0.22
		c-0.9,0.41-1.8,0.82-2.71,1.23c-0.55,0.25-1.09,0.49-1.63,0.73c-0.03,0.01-0.05,0.02-0.08,0.04c-0.31,0.13-0.62,0.27-0.92,0.41
		c-1.26,0.55-2.52,1.1-3.79,1.64c-0.79,0.33-1.57,0.66-2.36,0.99c-0.28,0.12-0.56,0.23-0.84,0.35c-0.32,0.14-0.65,0.27-0.97,0.4
		c-0.29,0.13-0.58,0.25-0.87,0.36c-0.04,0.02-0.07,0.04-0.11,0.05c-0.14,0.06-0.29,0.12-0.43,0.17
		c-4.43-20.46-8.87-40.92-13.31-61.38c-1.48-6.84-2.96-13.66-4.45-20.5v-0.02c-1.19-5.49-2.38-10.96-3.57-16.45
		c0.01-0.01,0-0.01,0-0.01c-0.59-2.76-1.19-5.53-1.79-8.29c-0.4-1.84-0.8-3.68-1.2-5.52c-0.17-0.78-0.34-1.57-0.51-2.35
		l-27.54-41.94l-6.78-10.33l-11.21-17.06l-8.31-12.65l-4.6-7.01l-1.69-2.57l-1.64-2.5l-3.06-4.66c1.59,0.21,3.19,0.43,4.78,0.64
		c0.74,0.1,1.49,0.2,2.23,0.3c1.69,0.22,3.39,0.45,5.08,0.68c12.38,1.65,24.77,3.3,37.15,4.96c3.19,0.42,6.37,0.85,9.56,1.28
		c20.77,2.77,41.53,5.55,62.3,8.32c1.35,0.18,2.69,0.36,4.04,0.54c6.93,25.09,13.88,50.17,20.86,75.24
		c8.46,30.41,11.49,45.74,19.21,68.75C675.46,732.53,676.48,735.46,677.48,738.32z"/>
	<path class="st3" d="M347.39,742.31c-4.6,15.81-9.19,31.63-13.79,47.44c-1.4-0.48-2.78-0.97-4.16-1.46h-0.01
		c-0.21-0.08-0.42-0.16-0.63-0.23c-0.15-0.05-0.29-0.11-0.44-0.16c-0.52-0.19-1.04-0.37-1.55-0.57c-0.06-0.02-0.12-0.04-0.18-0.07
		c-0.09-0.03-0.18-0.06-0.27-0.1c-0.53-0.19-1.06-0.38-1.58-0.57c-1.11-0.4-2.21-0.81-3.31-1.23c-0.02-0.01-0.03-0.01-0.05-0.02
		c-0.6-0.23-1.2-0.46-1.8-0.69c-1.02-0.4-2.04-0.8-3.05-1.21c-0.4-0.15-0.8-0.31-1.2-0.47c-2.09-0.84-4.17-1.69-6.23-2.56h-0.02
		c-0.06-0.03-0.13-0.05-0.19-0.08c-1.14-0.48-2.27-0.97-3.41-1.46c-1.71-0.74-3.42-1.5-5.12-2.27c-3.99-1.81-7.95-3.68-11.87-5.63
		c-3.82-1.89-7.61-3.85-11.36-5.87c-1.08-0.58-2.16-1.17-3.23-1.77c3.82-16.67,7.64-33.35,11.45-50.02
		c8.9,4.17,17.81,8.33,26.71,12.5C323.87,731.31,335.63,736.81,347.39,742.31z"/>
	<path class="st10" d="M324.78,786.59c-1.11-0.4-2.21-0.81-3.31-1.23c-0.02-0.01-0.03-0.01-0.05-0.02c-0.6-0.23-1.2-0.46-1.8-0.69
		c-1.02-0.4-2.04-0.8-3.05-1.21c-0.4-0.15-0.8-0.31-1.2-0.47c-2.09-0.84-4.17-1.69-6.23-2.56h-0.02c-0.06-0.03-0.13-0.05-0.19-0.08
		c-1.14-0.48-2.27-0.97-3.41-1.46c-1.71-0.74-3.42-1.5-5.12-2.27c-3.99-1.81-7.95-3.68-11.87-5.63c-3.82-1.89-7.61-3.85-11.36-5.87
		c-1.08-0.58-2.16-1.17-3.23-1.77c-1.75-0.95-3.49-1.93-5.21-2.92c-0.01-0.01-0.03-0.01-0.04-0.02c-0.23-0.12-0.43-0.24-0.64-0.36
		c-0.08-0.04-0.15-0.08-0.22-0.13c-0.11-0.06-0.21-0.12-0.32-0.19c-0.03-0.02-0.05-0.03-0.08-0.05
		c8.13-34.12,15.57-50.98,22.32-50.98c7.01,0,15.49,5.67,22.35,17.13C319.82,738.68,325.5,758.87,324.78,786.59z"/>
	<path class="st11" d="M429.11,568.83l-2.99,4.56l-4.47,6.81l-9,13.7l-8.44,12.85l-8.58,13.06l-9.15,13.93l-22.21,33.82
		c-0.81,3.75-1.63,7.51-2.44,11.26l-0.21,0.96c-0.11,0.49-0.21,0.99-0.32,1.48c0,0.02-0.01,0.04-0.02,0.05
		c-0.01,0.02-0.01,0.05-0.01,0.07c-4.16,19.22-8.33,38.45-12.5,57.68c-3.76,17.33-7.52,34.66-11.28,51.99
		c-1.03-0.35-2.05-0.69-3.08-1.04c-0.21-0.07-0.42-0.14-0.63-0.21h-0.02c-0.05-0.02-0.11-0.04-0.16-0.05
		c-1.4-0.48-2.78-0.97-4.16-1.46h-0.01c-0.21-0.08-0.42-0.16-0.63-0.23c-0.15-0.05-0.29-0.11-0.44-0.16
		c-0.52-0.19-1.04-0.37-1.55-0.57c-0.06-0.02-0.12-0.04-0.18-0.07c-0.09-0.03-0.18-0.06-0.27-0.1c-0.53-0.19-1.06-0.38-1.58-0.57
		c-1.11-0.4-2.21-0.81-3.31-1.23c-0.02-0.01-0.03-0.01-0.05-0.02c-0.6-0.23-1.2-0.46-1.8-0.69c-1.02-0.4-2.04-0.8-3.05-1.21
		c-0.4-0.15-0.8-0.31-1.2-0.47c-2.09-0.84-4.17-1.69-6.23-2.56h-0.02c-0.06-0.03-0.13-0.05-0.19-0.08
		c-1.14-0.48-2.27-0.97-3.41-1.46c-1.71-0.74-3.42-1.5-5.12-2.27c-3.99-1.81-7.95-3.68-11.87-5.63c-3.82-1.89-7.61-3.85-11.36-5.87
		c-1.08-0.58-2.16-1.17-3.23-1.77c-1.75-0.95-3.49-1.93-5.21-2.92c-0.01-0.01-0.03-0.01-0.04-0.02c-0.23-0.12-0.43-0.24-0.64-0.36
		c-0.08-0.04-0.15-0.08-0.22-0.13c-0.11-0.06-0.21-0.12-0.32-0.19c-0.03-0.02-0.05-0.03-0.08-0.05c-0.46-0.26-0.93-0.54-1.39-0.81
		c-1.13-0.66-2.27-1.32-3.39-2c-2.07-1.23-4.13-2.48-6.18-3.75c-0.07-0.05-0.15-0.09-0.22-0.14c-0.21-0.13-0.41-0.26-0.62-0.39
		c2.7-7.03,5.49-14.73,8.27-23.03c7.72-23.01,10.74-38.33,19.21-68.75c6.97-25.06,13.92-50.14,20.85-75.23
		c0.9-0.12,1.79-0.24,2.69-0.36c20.5-2.74,41-5.48,61.5-8.22c1.16-0.16,2.31-0.31,3.47-0.46c15.88-2.13,31.77-4.25,47.65-6.38
		c0.65-0.08,1.3-0.17,1.95-0.25C423.85,569.53,426.48,569.18,429.11,568.83z"/>
	<path class="st12" d="M492.64,604.55c-17.99,5.99-37.41,6.65-58,3c0.1-3.75,8,29,30,38C495.64,628.55,493.8,598.47,492.64,604.55z"
		/>
	<g>
		<path class="st13" d="M589.05,783c0.01,0.98,0.01,1.96,0.02,2.92c-1.7,0.64-3.42,1.27-5.14,1.89c-3.59,1.29-7.21,2.53-10.85,3.71
			c-0.27,0.09-0.54,0.17-0.81,0.26c-1.98,0.64-3.98,1.27-5.98,1.88c-1.58,0.48-3.16,0.95-4.74,1.41l-3.15,0.9
			c-2.37,0.66-4.76,1.31-7.15,1.93c-14.51,3.76-29.36,6.68-44.49,8.72c-1.35,0.18-2.69,0.35-4.04,0.51h-0.01
			c-2.59,0.33-5.19,0.62-7.8,0.89h-0.01c-1,0.1-1.97,0.2-2.97,0.29h-0.01c-0.09,0.01-0.18,0.02-0.27,0.02
			c-0.56,0.06-1.11,0.12-1.67,0.17c-1.39,0.12-2.79,0.23-4.19,0.34c-0.57,0.05-1.13,0.09-1.7,0.13c-1.91,0.15-3.82,0.27-5.73,0.38
			c-0.14,0.01-0.27,0.02-0.41,0.02c-0.64,0.04-1.28,0.08-1.91,0.11c-0.24,0.01-0.47,0.02-0.71,0.03c-2.1,0.11-4.2,0.2-6.31,0.26
			c-0.54,0.03-1.08,0.05-1.62,0.06c-1.44,0.05-2.88,0.08-4.32,0.1c-2.35,0.05-4.71,0.07-7.08,0.07c-0.52,0-1.03,0-1.55-0.01
			c-1.15,0-2.3-0.01-3.44-0.03c-2.92-0.03-5.83-0.11-8.73-0.21c-6.55-0.23-13.06-0.63-19.52-1.2c-0.45-0.03-0.91-0.07-1.36-0.11
			c-0.7-0.07-1.39-0.13-2.09-0.21c-0.14-0.01-0.28-0.02-0.42-0.04h-0.01c-0.35-0.03-0.7-0.06-1.05-0.1
			c-0.64-0.06-1.28-0.13-1.92-0.2h-0.01c-0.46-0.05-0.92-0.1-1.38-0.15c-0.96-0.1-1.91-0.21-2.86-0.33
			c-1.19-0.14-2.38-0.28-3.57-0.43c-0.16-0.02-0.32-0.04-0.48-0.06c-1.03-0.13-2.05-0.27-3.07-0.41c-0.09-0.01-0.19-0.02-0.28-0.04
			c-2.09-0.28-4.17-0.58-6.25-0.9c-0.01,0.01-0.02,0-0.03-0.01c-0.98-0.15-1.95-0.3-2.92-0.47c-0.04,0-0.07-0.01-0.11-0.02
			c-0.14-0.01-0.29-0.04-0.43-0.06c-1.02-0.16-2.04-0.33-3.05-0.51c-0.04,0-0.08-0.01-0.12-0.02c-0.54-0.09-1.07-0.18-1.61-0.28
			c-3.85-0.67-7.68-1.41-11.48-2.21c-9.44-1.97-18.75-4.29-27.92-6.96c-1.02-0.29-2.03-0.59-3.04-0.9
			c0.74-18.41,1.26-37.07,1.47-55.07c0.61-52.66-1.4-99.58-8.13-117.51l32.43-1.03l22.56-0.71l23.83-0.75l1.18-0.04l19.07-0.6
			l2.05-0.07l2.43-0.07l20.52-0.65l0.55-0.02l19.29-0.61l4.67-0.15l1.32-0.04l13.04-0.41l0.36-0.01l35.81-1.14l22.3-0.7l31.59-1
			c-6.75,38.43-8.08,69.82-8.2,91.49c-0.03,5.47,0.03,10.67,0.15,15.62C586.29,748.34,588.97,768.13,589.05,783z"/>
		<g>
			<path d="M589.17,783l0.02,2.92l0,0.08l-0.08,0.03l-5.23,1.92c-2.65,0.92-7.9,2.69-10.54,3.61
				c-43.89,14.25-90.23,20.52-136.28,17.99c-6.52-0.48-14.76-0.75-21.16-1.54c-7.47-0.82-15.81-1.92-22.71-3.1
				c-15.34-2.69-31.19-6.01-46.01-10.78c0.19-8.02,1.27-46.98,1.45-54.12c0.32-25.2,0.19-50.62-1.48-75.76
				c-1.13-14.3-2.22-28.93-6.8-42.59c0,0-0.14-0.39-0.14-0.39c0,0,0.41-0.02,0.41-0.02c40.79-1.81,85.55-2.53,126.51-3.82
				c0.15,0,126.51-4,126.64-4.01c-1.22,7.03-2.32,14.07-3.3,21.14c-3.84,28.08-5.38,56.45-4.79,84.77
				C585.91,740.61,588.64,761.75,589.17,783L589.17,783z M588.93,783c-0.52-21.24-3.26-42.39-3.47-63.66
				c-0.59-28.34,0.95-56.72,4.79-84.81c0.97-7.02,2.06-14.02,3.27-21c0.78,0.32-126.55,4.05-126.38,4.14
				c-40.39,0.99-87.41,4.12-126.22,3.78c4.49,13.82,5.29,28.42,6.42,42.79c1.64,25.15,1.76,50.57,1.52,75.77
				c-0.13,6.89-1.25,46.35-1.44,54.13c14.46,4.11,30.48,8.05,45.81,10.54c11.05,1.8,23.15,3.45,34.75,4.08
				c52.68,4.09,106.07-3.19,155.82-21.02c0,0,5.23-1.92,5.23-1.92c0,0-0.08,0.11-0.08,0.11L588.93,783L588.93,783z"/>
		</g>
	</g>
	<path class="st13" d="M421.64,604.55c-3.57-10.65-16.34-15.55-26-14c-16.11,2.59-27.13,23.73-21,35c6,11.04,28.53,12.72,40,2
		C419.88,622.66,424.63,613.48,421.64,604.55z"/>
	<path class="st13" d="M567.11,593.94c-3.39-11.02-17.16-16.07-26.97-15.89c-22.05,0.42-41.46,27.71-36,40
		c5.67,12.76,40.77,15.35,55.97-1.11C560.97,616,570.59,605.27,567.11,593.94z"/>
	<path class="st12" d="M533.14,518.05c-22.53,26.22-44.45,49.49-64,61c6.83,16.83,13.67,33.67,20.5,50.5
		c9.75-9.75,22.82-21.1,39.59-31.8c14.35-9.16,27.91-15.61,39.41-20.2c-8.33-12.33-16.67-24.67-25-37
		C540.14,533.05,536.64,525.55,533.14,518.05z"/>
	<path class="st12" d="M394.41,522.25c22.53,26.22,44.45,49.49,64,61c-6.83,16.83-13.67,33.67-20.5,50.5
		c-13.11-10.35-26.31-20.95-39.59-31.8c-10.39-8.49-20.62-16.95-30.69-25.4c5.19-7.31,10.8-16.31,16-27
		C388.46,539.63,391.91,530.35,394.41,522.25z"/>
	<g>
		<path class="st14" d="M530.5,557.38c-3.28,2.71-6.9,5.02-10.75,6.85c-1.51,0.71-3.09,1.39-4.21,2.63
			c-0.82,0.92-1.32,2.07-1.8,3.21c-4.01,9.41-8.01,18.82-12.02,28.24"/>
		<g>
			<path class="st14" d="M529.44,556.32c-3.3,2.71-6.93,4.94-10.79,6.78c-1.63,0.78-3.26,1.59-4.43,3.02
				c-1.29,1.58-1.95,3.62-2.74,5.47c-3.68,8.65-7.37,17.31-11.05,25.96c-0.32,0.75-0.22,1.6,0.54,2.05
				c0.63,0.38,1.74,0.21,2.05-0.54c3.62-8.5,7.24-17,10.86-25.5c0.78-1.83,1.4-4.11,2.73-5.64c1.2-1.37,3.11-1.99,4.7-2.78
				c3.67-1.82,7.09-4.1,10.26-6.7C533.06,557.21,530.92,555.1,529.44,556.32L529.44,556.32z"/>
		</g>
	</g>
	<g>
		<path class="st14" d="M389.09,555.58c2.65,0.11,5.41,0.25,7.73,1.54s4.02,4.11,3.15,6.61"/>
		<g>
			<path class="st14" d="M389.09,557.08c2.51,0.1,5.16,0.17,7.31,1.53c0.37,0.24,0.69,0.5,1.09,0.93c0.23,0.25,0.27,0.3,0.41,0.5
				c0.16,0.24,0.3,0.49,0.44,0.74c0.02,0.05,0.05,0.09,0.07,0.14c-0.04-0.1-0.04-0.1,0,0c0.05,0.12,0.09,0.24,0.13,0.36
				c0.05,0.15,0.08,0.29,0.12,0.44c0,0.02,0.06,0.47,0.04,0.2c0.02,0.25,0.02,0.5,0,0.75c-0.02,0.39,0.08-0.18-0.04,0.2
				c-0.05,0.15-0.08,0.3-0.13,0.44c-0.25,0.77,0.29,1.64,1.05,1.85c0.81,0.22,1.59-0.28,1.85-1.05c0.98-3-0.71-6.08-3.11-7.84
				c-2.61-1.91-6.1-2.08-9.21-2.21c-0.81-0.03-1.5,0.71-1.5,1.5C387.59,556.42,388.28,557.04,389.09,557.08L389.09,557.08z"/>
		</g>
	</g>
	<g>
		<path class="st14" d="M422.76,808.55c-0.45-0.03-0.91-0.07-1.36-0.11c-0.7-0.07-1.39-0.13-2.09-0.21
			c-4.86-19.33-9.56-39.56-14.14-60.45c-3.34-15.24-6.62-30.83-9.85-46.7c-1.38-6.82-2.76-13.69-4.13-20.6
			c-0.65-3.25-1.29-6.5-1.93-9.77c-0.21-1.05-0.41-2.11-0.62-3.16l0.76,3.16l2.37,9.78l4.95,20.45l11.36,46.92L422.76,808.55z"/>
		<g>
			<path class="st14" d="M422.85,808.63c-1.08,0.07-2.57-0.22-3.65-0.27c0,0.02-8.37-35.1-8.38-35.11
				c-7.85-32.17-16.11-72.99-22.64-105.6c0,0,0.91-0.2,0.91-0.2C399.82,711.64,412.48,764.34,422.85,808.63L422.85,808.63z
				 M422.67,808.47c-11.35-45.61-23.53-95.28-34.48-140.81c0,0,0.91-0.2,0.91-0.2c6.44,32.69,14.59,73.41,22.3,105.65
				c-0.12-0.18,8.34,35.63,7.93,34.99C420.26,808.19,421.76,808.34,422.67,808.47L422.67,808.47z"/>
		</g>
	</g>
	<line class="st15" x1="556.64" y1="663.55" x2="515.64" y2="767.55"/>
	<path class="st6" d="M168.14,103.05L168.14,103.05L168.14,103.05z"/>
	<path class="st6" d="M522.64,553.55"/>
	<path class="st6" d="M522.64,544.55"/>
	<path class="st6" d="M526.64,543.55"/>
	<g>
		<path class="st14" d="M480.69,683.88c3.88,2.15,7.99,3.89,12.23,5.19"/>
		<g>
			<path class="st14" d="M479.93,685.17c4,2.2,8.23,3.99,12.59,5.34c1.85,0.57,2.64-2.32,0.8-2.89c-4.12-1.28-8.09-2.96-11.87-5.04
				C479.76,681.65,478.24,684.24,479.93,685.17L479.93,685.17z"/>
		</g>
	</g>
	<path class="st15" d="M484.76,738.48c1.43,0.5,2.86,1,4.29,1.5"/>
	<g>
		<path class="st14" d="M484.48,791.59c2.57,0.64,5.09,1.45,7.56,2.41"/>
		<g>
			<path class="st14" d="M484.08,793.04c2.57,0.65,5.09,1.45,7.56,2.41c0.73,0.28,1.68-0.31,1.85-1.05c0.2-0.86-0.26-1.54-1.05-1.85
				c-2.47-0.96-4.99-1.76-7.56-2.41c-0.76-0.19-1.66,0.25-1.85,1.05C482.85,791.97,483.26,792.83,484.08,793.04L484.08,793.04z"/>
		</g>
	</g>
	<path class="st16" d="M635.14,589.18c-20.57-19.59-46.59-23.03-76.9-13.73c-1.2,2.94-2.4,5.88-3.6,8.83
		c25.52,0.77,51.47,3.05,79.3,11.77C634.34,593.76,634.74,591.47,635.14,589.18z"/>
	<g>
		<path class="st14" d="M475.33,809.51c-2.1,0.11-4.2,0.2-6.31,0.26l-3.69-164.61l-0.26-11.6l-0.36-15.93l-0.18-7.97v-0.14
			c0,0.05,0.01,0.09,0.01,0.14c0.25,2.65,0.49,5.3,0.72,7.95c0.48,5.27,0.94,10.56,1.39,15.87c0.28,3.46,0.57,6.93,0.85,10.4
			C471.76,697.44,474.48,752.68,475.33,809.51z"/>
		<g>
			<path class="st14" d="M475.42,809.6c0,0-6.4,0.33-6.4,0.33c-0.93-16.31-0.94-33.58-1.48-50.21c-1.1-44.59-2.53-105.6-3.45-150.2
				c0,0,0.87,0,0.87,0s0.01,0.14,0.01,0.14c0,0,0-0.04,0-0.04C471.05,676,474.75,742.96,475.42,809.6L475.42,809.6z M475.24,809.42
				c-1.32-66.48-4.88-133.52-11.13-199.72c0,0,0-0.04,0-0.04l-0.01-0.14c0,0,0.87,0,0.87,0c1.5,63.79,3.12,136.62,4.21,200.25
				c0,0-0.16-0.16-0.16-0.16S475.24,809.42,475.24,809.42L475.24,809.42z"/>
		</g>
	</g>
	<g>
		<path class="st14" d="M483.53,677.05c-0.34,7.97,9.37,12.07,14.83,6.21c3.19-3.33,2.96-8.99-0.4-12.03
			C492.86,666.31,483.71,669.85,483.53,677.05L483.53,677.05z M481.75,677.05c-0.3-9.58,11.31-14.62,18.01-7.62
			c4,4.02,3.78,11.13-0.4,14.84C493.04,690.34,481.97,685.84,481.75,677.05L481.75,677.05z"/>
	</g>
	<g>
		<path class="st14" d="M483.51,730.05c-0.31,7.95,9.39,12.07,14.87,6.24c3.22-3.34,3.03-9.06-0.37-12.12
			C492.89,719.2,483.67,722.81,483.51,730.05L483.51,730.05z M481.76,730.05c-0.27-9.54,11.27-14.5,17.94-7.56
			c3.97,3.99,3.77,11.04-0.37,14.75C493.03,743.34,481.96,738.86,481.76,730.05L481.76,730.05z"/>
	</g>
	<g>
		<path class="st14" d="M484.63,783.05c-0.4,7.96,9.27,12.09,14.71,6.2c3.14-3.33,2.88-8.96-0.49-11.92
			C493.89,772.57,484.84,776.05,484.63,783.05L484.63,783.05z M482.64,783.05c-0.36-9.77,11.43-14.87,18.22-7.72
			c4,4.09,3.74,11.24-0.49,14.95C494.08,796.32,482.87,791.83,482.64,783.05L482.64,783.05z"/>
	</g>
	<path class="st15" d="M536.11,766.04c9.99,0,19.97,0,29.96,0"/>
	<g>
		<path class="st17" d="M622.72,595.97c-8.04,8.9-15.93,17.94-23.65,27.12"/>
		<g>
			<path class="st14" d="M621.66,594.91c-8.04,8.9-15.93,17.94-23.65,27.12c-1.24,1.47,0.88,3.6,2.12,2.12
				c7.72-9.18,15.6-18.22,23.65-27.12C625.07,595.6,622.96,593.47,621.66,594.91L621.66,594.91z"/>
		</g>
	</g>
	<g>
		<path class="st14" d="M349.63,582.55c10.32,2.76,20.71,5.22,31.17,7.37"/>
		<g>
			<path class="st14" d="M349.23,583.99c10.32,2.76,20.71,5.21,31.17,7.37c1.88,0.39,2.69-2.5,0.8-2.89
				c-10.46-2.16-20.86-4.62-31.17-7.37C348.16,580.6,347.36,583.5,349.23,583.99L349.23,583.99z"/>
		</g>
	</g>
	<path class="st16" d="M306.25,583.04c17.01-15.17,38.52-17.83,63.59-10.63c0.99,2.28,1.99,4.56,2.98,6.84
		c-21.1,0.59-42.56,2.36-65.57,9.11C306.91,586.58,306.58,584.81,306.25,583.04z"/>
	<path class="st6" d="M160.63,116.32L160.63,116.32L160.63,116.32z"/>
	<path class="st18" d="M460.53,609.52"/>
	<path class="st12" d="M428.95,681.38c0.8,19.32,1.61,38.64,2.41,57.96c-17.87,16.27-43.25,5.5-67.61-1.61
		c-2.85-19.4-3.19-38.7-2.41-57.96C383.87,680.31,406.41,680.84,428.95,681.38z"/>
	<path class="st19" d="M426.2,687.67c-7.75,16.66-10.3,33.54,2,51"/>
	<path class="st12" d="M428.53,679.52c-2.25-10.76-62.8-12.88-67,0c-2,6.13,8.83,15.49,17.84,19.21
		C402.6,708.34,430.17,687.37,428.53,679.52z"/>
	<path class="st12" d="M513.26,676.88c-0.8,19.32-1.61,38.64-2.41,57.96c17.87,16.27,43.25,5.5,67.61-1.61
		c2.85-19.4,3.19-38.7,2.41-57.96C558.33,675.8,535.8,676.34,513.26,676.88z"/>
	<path class="st19" d="M516,686.16c7.75,16.66,10.3,33.54-2,51"/>
	<path class="st20" d="M667.85,719.98c-0.2,6.86-1.19,13.08-2.53,18.51c-0.95,3.88-2.09,7.37-3.24,10.41
		c-0.21,0.54-0.41,1.06-0.62,1.57c0,0.01,0,0.01,0,0.01c-0.83,2.09-1.66,3.94-2.43,5.54c-1.52-0.78-2.98-1.58-4.37-2.38
		c-15.03-8.61-23.18-18.09-28.22-27.96c-0.03-0.05-0.05-0.09-0.07-0.13c-5.49-10.79-7.3-22.04-10.34-33.13
		c5.9-4.37,14.97-9.91,27.14-13.26c5.41-1.49,10.41-2.27,14.75-2.65C658.72,683.91,662.48,699.17,667.85,719.98z"/>
	<path class="st21" d="M657.53,678.52c-3.94,0.36-8.47,1.09-13.38,2.5c-11.04,3.16-19.28,8.39-24.62,12.5
		c5.54,20.98,6.56,42.56,39,60c3.18-6.9,7.57-18.74,8-34C661.67,699.89,658.26,685.5,657.53,678.52z"/>
	<path class="st22" d="M641.36,722.68c-0.34,0.13,2.87,17.93,10.57,18.92c4.54,0.58,8.17-4.98,8.53-5.56
		c4.51-7.1,0.48-16.18,0.03-16.15c-0.38,0.03,1.62,6.57-1.82,11.27c-1.84,2.51-5.34,4.64-8.57,3.9
		C643.97,733.65,641.63,722.57,641.36,722.68z"/>
	<polygon class="st23" points="653.83,707.57 641.68,711.81 645.31,700.76 	"/>
	<polygon class="st23" points="639.99,705.13 652.35,701.55 648.13,712.39 	"/>
	<g>
		<g>
			<path d="M568.18,286.4c13.86,9.08,23.4,23,31.44,37.19c2.32,4.1,4.54,8.25,6.75,12.41c-0.05-0.09,0.02-0.72,0.02-0.73
				c0.01-0.59,0.01-1.18,0.01-1.77c0-0.59,0-1.18-0.01-1.77c0-0.18,0.07-0.57-0.02-0.73c-7.68-14.47-15.61-29.29-27.41-40.88
				c-3.31-3.25-6.9-6.18-10.78-8.72c0.17,0.11-0.02,2.22-0.02,2.5C568.16,284.21,567.91,286.22,568.18,286.4L568.18,286.4z"/>
		</g>
	</g>
	<path class="st12" d="M513.67,675.02c2.25-10.76,62.8-12.88,67,0c2,6.13-8.83,15.49-17.84,19.21
		C539.6,703.84,512.03,682.87,513.67,675.02z"/>
	<circle class="st24" cx="550.24" cy="718.76" r="18.5"/>
	<circle class="st25" cx="550.24" cy="718.76" r="17.5"/>
	<polygon class="st23" points="563.27,720.64 541.57,726.55 549.25,707.73 	"/>
	<polygon class="st23" points="539.45,714.7 561.42,709.97 552.75,728.35 	"/>
	<ellipse class="st26" cx="646.74" cy="706.76" rx="10" ry="10.5"/>
	<g>
		<path class="st27" d="M494.01,406.79c-2.45-4.08-2.29-8.15-2.15-11.49c0.06-1.51,0.45-11.18,6.43-17.04
			c11.35-11.13,45.26-10.85,57.98,4.26c5.71,6.79,8.04,17.65,1.47,26.12c-9.05,11.66-28.78,10.84-33.57,10.64
			C521.5,419.17,500.8,418.08,494.01,406.79z"/>
		<path class="st28" d="M561.54,410.24c0.33-2.46,2.32-19.71-10.6-30.95c-15.91-13.84-44.96-10.32-55.95,2.91
			c-2.83,3.41-4.16,7.1-4.8,10.17"/>
		<circle class="st29" cx="520.47" cy="393.77" r="12.25"/>
		<circle class="st27" cx="526.17" cy="390.03" r="4.76"/>
		<path class="st27" d="M431.52,406.58c2.29-4.17,1.97-8.23,1.71-11.57c-0.12-1.5-0.88-11.15-7.08-16.78
			c-11.78-10.69-45.65-9.1-57.77,6.5c-5.45,7.01-7.35,17.94-0.46,26.15c9.49,11.3,29.17,9.73,33.95,9.34
			C404.53,420.01,425.17,418.13,431.52,406.58z"/>
		<circle class="st29" cx="404.58" cy="394.6" r="12.25"/>
		<circle class="st27" cx="410.73" cy="390.84" r="4.76"/>
		<path class="st6" d="M371.07,413.97c3.06,1.45,28.89,13.24,50.01,0.04c5.21-3.26,9.02-7.34,11.79-11.23"/>
		<path class="st30" d="M419.49,356.96c-23.84-0.29-45.75,4.02-64.72,15.25"/>
		<path class="st30" d="M501.51,355.37c23.82-1.21,45.87,2.25,65.26,12.74"/>
		<path class="st28" d="M363.38,411.28c-0.42-2.45-3.08-19.61,9.4-31.34c15.37-14.44,44.53-12.05,56.02,0.75
			c2.96,3.3,4.43,6.93,5.19,9.98"/>
		<path class="st6" d="M554.82,412.35c-3,1.57-28.36,14.34-49.97,1.96c-5.33-3.05-9.29-6.98-12.21-10.77"/>
	</g>
	<path class="st6" d="M568.74,397.26c-0.17,6.17-1.15,13.49-3.95,21.26c-0.54,1.5-1.12,2.94-1.72,4.31c0,0-41.83,13.54-79.82-2.56
		c-0.83-6.67-1.67-13.33-2.5-20c-11.33,0-22.67,0-34,0"/>
	<path class="st6" d="M356.24,397.26c0.17,6.17,1.15,13.49,3.95,21.26c0.54,1.5,1.12,2.94,1.72,4.31c0,0,41.83,13.54,79.82-2.56
		c0.83-6.67,1.67-13.33,2.5-20c11.33,0,22.67,0,34,0"/>
	<path class="st31" d="M568.98,396.77c-0.17,6.17-1.15,13.49-3.95,21.26c-0.54,1.5-1.12,2.94-1.72,4.31c0,0-41.83,13.54-79.82-2.56
		c-0.83-6.67-1.67-13.33-2.5-20c-11.33,0-22.67,0-34,0"/>
	<path class="st31" d="M355.98,396.77c0.17,6.17,1.15,13.49,3.95,21.26c0.54,1.5,1.12,2.94,1.72,4.31c0,0,41.83,13.54,79.82-2.56
		c0.83-6.67,1.67-13.33,2.5-20c11.33,0,22.67,0,34,0"/>
	<g class="st32">
		<g>
			<path class="st33" d="M558.24,396.76c-11.67,8.33-23.33,16.67-35,25c-0.09,0.07-0.04,1.6-0.04,1.46
				c-0.01,1.18-0.02,2.36-0.01,3.54c0,1.18,0,2.36,0.01,3.54c0,0.19,0.13,1.4,0.04,1.46c11.67-8.33,23.33-16.67,35-25
				c0.09-0.07,0.04-1.6,0.04-1.46c0.01-1.18,0.02-2.36,0.01-3.54c0-1.18,0-2.36-0.01-3.54
				C558.27,398.03,558.15,396.83,558.24,396.76L558.24,396.76z"/>
		</g>
	</g>
	<g class="st32">
		<g>
			<path class="st33" d="M521.74,396.76c-10,8.33-20,16.67-30,25c-0.25,0.21-0.03,2.15-0.03,2.5c0,0.35,0.28,2.29,0.03,2.5
				c10-8.33,20-16.67,30-25c0.25-0.21,0.03-2.15,0.03-2.5C521.77,398.91,521.49,396.97,521.74,396.76L521.74,396.76z"/>
		</g>
	</g>
	<g class="st32">
		<g>
			<path class="st33" d="M433.47,395.51c-11.67,8.33-23.33,16.67-35,25c-0.09,0.07-0.04,1.6-0.04,1.46
				c-0.01,1.18-0.02,2.36-0.01,3.54c0,1.18,0,2.36,0.01,3.54c0,0.19,0.13,1.4,0.04,1.46c11.67-8.33,23.33-16.67,35-25
				c0.09-0.07,0.04-1.6,0.04-1.46c0.01-1.18,0.02-2.36,0.01-3.54c0-1.18,0-2.36-0.01-3.54
				C433.51,396.78,433.38,395.58,433.47,395.51L433.47,395.51z"/>
		</g>
	</g>
	<g class="st32">
		<g>
			<path class="st33" d="M396.97,395.51c-10,8.33-20,16.67-30,25c-0.25,0.21-0.02,2.15-0.02,2.5c0,0.35,0.28,2.29,0.02,2.5
				c10-8.33,20-16.67,30-25c0.25-0.21,0.03-2.15,0.03-2.5C397,397.66,396.72,395.72,396.97,395.51L396.97,395.51z"/>
		</g>
	</g>
	<path class="st6" d="M432.48,481.77c19.83,8.65,39.66,9.66,59.5,0.5"/>
</g>
</svg>
