<?xml version="1.0" encoding="utf-8"?>
<!-- Generator: Adobe Illustrator 28.3.0, SVG Export Plug-In . SVG Version: 6.00 Build 0)  -->
<svg version="1.1" id="Layer_1" xmlns="http://www.w3.org/2000/svg" xmlns:xlink="http://www.w3.org/1999/xlink" x="0px" y="0px"
	 viewBox="0 0 916 850" style="enable-background:new 0 0 916 850;" xml:space="preserve">
<style type="text/css">
	.st0{opacity:0.6;fill:#CCCCCC;}
	.st1{display:none;fill:#426646;}
	.st2{fill:#45A3BF;stroke:#000000;stroke-miterlimit:10;}
	.st3{fill:#885841;stroke:#000000;stroke-miterlimit:10;}
	.st4{fill:#663D37;}
	.st5{fill:#211D1A;stroke:#000000;stroke-miterlimit:10;}
	.st6{fill:none;stroke:#000000;stroke-miterlimit:10;}
	.st7{fill:#211D1A;}
	.st8{fill:none;stroke:#663D37;stroke-miterlimit:10;}
	.st9{fill:#B3D9E8;stroke:#000000;stroke-miterlimit:10;}
	.st10{fill:#B3D9E8;}
	.st11{fill:#45A3BF;}
	.st12{fill:none;stroke:#45A3BF;stroke-miterlimit:10;}
	.st13{fill:#2D2A38;stroke:#000000;stroke-miterlimit:10;}
	.st14{fill:#45A3BF;stroke:#45A3BF;stroke-miterlimit:10;}
	.st15{fill:#2D2A38;stroke:#000000;stroke-width:3;stroke-miterlimit:10;}
	.st16{fill:#2D2A38;stroke:#DDF2F0;stroke-width:3;stroke-miterlimit:10;}
	.st17{fill:#FFFFFF;stroke:#FFFFFF;stroke-width:0.25;stroke-miterlimit:10;}
	.st18{fill:#FFFFFF;}
	.st19{fill:#2E3192;}
	.st20{fill:none;stroke:#2E3192;stroke-miterlimit:10;}
	.st21{fill:#3C3B51;stroke:#000000;stroke-width:3;stroke-miterlimit:10;}
	.st22{fill:#576C9E;}
	.st23{fill:none;stroke:#000000;stroke-width:13;stroke-miterlimit:10;}
	.st24{fill:#EFEFEF;}
	.st25{fill:none;stroke:#000000;stroke-width:4;stroke-miterlimit:10;}
	.st26{stroke:#000000;stroke-miterlimit:10;}
	.st27{fill:none;stroke:#000000;stroke-width:7;stroke-miterlimit:10;}
</style>
<path class="st0" d="M836,425c0,107.49-44.87,204.49-116.88,273.28c-0.3,0.3-0.6,0.59-0.9,0.86c-0.02,0.03-0.03,0.04-0.05,0.05
	c-1.41,1.34-2.83,2.67-4.26,3.98c-0.34,0.32-0.68,0.63-1.02,0.93c-0.04,0.04-0.08,0.08-0.12,0.11c-3.54,3.24-7.15,6.41-10.81,9.5
	c-1.57,1.33-3.16,2.65-4.75,3.95c-0.03,0.03-0.06,0.06-0.09,0.07v0.01c-2.92,2.39-5.88,4.74-8.87,7.04
	c-0.16,0.13-0.33,0.25-0.49,0.37c-0.24,0.2-0.49,0.39-0.74,0.57c-1.85,1.42-3.72,2.81-5.59,4.19c-0.77,0.56-1.53,1.12-2.3,1.67
	c-0.23,0.17-0.47,0.34-0.7,0.51c-0.27,0.19-0.54,0.39-0.8,0.57c-0.23,0.18-0.45,0.34-0.68,0.5c-0.39,0.28-0.78,0.55-1.17,0.82
	c-0.11,0.08-0.23,0.17-0.34,0.25c-0.15,0.1-0.3,0.21-0.46,0.31c-0.42,0.31-0.85,0.61-1.29,0.91c-1.28,0.89-2.57,1.78-3.86,2.65
	c-1.71,1.16-3.44,2.32-5.18,3.43c-0.55,0.37-1.1,0.73-1.65,1.08c-0.76,0.51-1.52,1-2.29,1.49c-2.34,1.49-4.69,2.95-7.06,4.38
	c-0.2,0.12-0.41,0.25-0.61,0.37h-0.01c-2.23,1.34-4.46,2.67-6.72,3.96c-4.65,2.69-9.37,5.27-14.16,7.75
	c-1.63,0.86-3.28,1.69-4.93,2.51c-0.25,0.14-0.51,0.26-0.76,0.39c-0.08,0.04-0.17,0.09-0.25,0.12c-0.38,0.2-0.76,0.39-1.14,0.57
	h-0.01c-0.23,0.12-0.45,0.23-0.68,0.35c-3.79,1.87-7.62,3.67-11.48,5.4c-0.55,0.25-1.09,0.49-1.63,0.73c-0.34,0.15-0.67,0.3-1,0.45
	c-2.32,1.02-4.66,2.02-6.99,2.98c-2.3,0.97-4.6,1.9-6.91,2.82c-27.75,10.91-57.11,18.64-87.61,22.74c-1.35,0.18-2.69,0.35-4.04,0.51
	h-0.01c-2.59,0.33-5.19,0.62-7.8,0.89h-0.01c-1,0.1-1.97,0.2-2.97,0.29h-0.01c-0.09,0.01-0.18,0.02-0.27,0.02
	c-0.56,0.06-1.11,0.12-1.67,0.17c-1.39,0.12-2.79,0.23-4.19,0.34c-2.47,0.2-4.95,0.37-7.43,0.51c-0.14,0.01-0.27,0.02-0.41,0.02
	c-0.64,0.04-1.28,0.08-1.91,0.11C471.4,802.83,464.73,803,458,803c-11.67,0-23.2-0.53-34.6-1.56c-0.84-0.08-1.67-0.16-2.51-0.25
	h-0.01c-0.35-0.03-0.7-0.06-1.05-0.1c-0.64-0.06-1.28-0.13-1.92-0.2h-0.01c-0.46-0.05-0.92-0.1-1.38-0.15
	c-0.96-0.1-1.91-0.21-2.86-0.33c-4.57-0.53-9.12-1.14-13.65-1.84c-0.01,0.01-0.02,0-0.03-0.01c-16.24-2.49-32.15-6.02-47.64-10.53
	c-3.28-0.95-6.55-1.95-9.79-3c-2.06-0.65-4.1-1.33-6.14-2.02c-0.21-0.07-0.42-0.14-0.63-0.21h-0.02c-1.45-0.49-2.89-1-4.32-1.51
	c-0.36-0.13-0.72-0.26-1.08-0.39c-2.31-0.83-4.6-1.68-6.89-2.54c-0.02-0.01-0.03-0.01-0.05-0.02c-2.02-0.77-4.04-1.57-6.05-2.37
	c-2.09-0.84-4.17-1.69-6.23-2.56h-0.02c-0.06-0.03-0.13-0.05-0.19-0.08c-1.14-0.48-2.27-0.97-3.41-1.46
	c-9.67-4.2-19.12-8.8-28.35-13.77c-2.84-1.53-5.66-3.09-8.44-4.69c-0.01-0.01-0.03-0.01-0.04-0.02c-0.23-0.12-0.43-0.24-0.64-0.36
	c-0.19-0.1-0.36-0.21-0.54-0.32c-3.72-2.14-7.4-4.35-11.04-6.61c-8.31-5.18-16.41-10.66-24.27-16.45c-1.96-1.45-3.91-2.91-5.85-4.4
	C138.16,656.18,80,547.37,80,425C80,216.24,249.24,47,458,47S836,216.24,836,425z"/>
<path class="st1" d="M443.81,882.44c3.73,59.65,34.8,136.7,34.8,136.7s11.18,55.92,123.03,103.15
	c19.11-7.03,78.89-31.74,120.55-96.94c26.1-67.11,38.96-130.11,37.28-150.38c-11.21-70.41-67.41-161.74-152.86-164.05
	C516.85,708.51,453.29,805.88,443.81,882.44z"/>
<g>
	<path class="st2" d="M381.26,520.26c56.83-1.33,113.66-2.67,170.49-4c-1.66,36.83-39.03,66.41-84.01,67
		C423.56,583.84,385.46,556.29,381.26,520.26z"/>
	<path class="st3" d="M538.1,474.26c3.25,23.55-7.41,13-9.88,90c-3.63,9.27-11.08,25.81-27.18,43c-12.38,13.22-23.05,24.6-37.06,25
		c-23.38,0.66-41.46-29.65-49.42-43c-16.7-28-7.41-64-13.59-106C426.97,457.02,485.82,450.36,538.1,474.26z"/>
	<g>
		<path class="st4" d="M404.2,473.76c14.97-6.42,45.47-17.3,85.26-16.11c20.99,0.63,40.33,5.4,52.74,9.08
			c-2.5,15-6.99,29.03-9.49,44.03c0,0-28.73,18.75-45.31,22.96c-21.51,5.47-41.06,4.91-58.13,4.21
			c-10.52-0.43-19.18-1.39-25.08-2.18V473.76z"/>
	</g>
	<path class="st5" d="M614.81,356.26c5.54-8.08,19.24-30.37,20-60.38c1.13-44.78-26.96-90.63-65.69-110.21
		c-46.13-23.34-120.47-19.35-100.31-20.41c19-1,27.61-47.69,26-49c-1.54-1.25-23.69,27.21-41,42c-95-31-190.25,20.96-190,18
		c0.26-3.11,91.95-4.31,148.51,9.88c0.18,0.05,0.31,0.08,0.49,0.12c-11.66-5.32-27.47-9.8-45-7c-37.09,5.91-68.24,42.16-77,91
		c1.39,26.89,8.7,77.86,47,115C414.48,459.62,564.65,429.43,614.81,356.26z"/>
	<path class="st3" d="M312.81,347.26c-10.38,4.58-10.06,25.47-10,28c1.09,43.16,55.54,68.45,59,70c12.05,5.4,24.6,11.04,30,6
		c10.43-9.73-12.72-52.96-40-81C342.41,360.6,324.43,342.13,312.81,347.26z"/>
	<path class="st3" d="M616.23,347.7c10.38,4.58,10.06,25.47,10,28c-1.09,43.16-55.54,68.45-59,70c-12.05,5.4-24.6,11.04-30,6
		c-10.43-9.73,12.72-52.96,40-81C586.62,361.04,604.6,342.57,616.23,347.7z"/>
	<path class="st3" d="M339.7,329.23c0.37,61.78,28.16,114.12,33,121c1.94,2.77,11.07,15.57,26,30c23.88,23.07,48.24,36.42,65,44
		c13.05-3.68,32.17-10.77,52-25c25.15-18.05,39.64-39.11,47.1-51.97c21-54,31.35-104.69,30-121c-4.07-49.3-45.42-130.12-123-132
		C401.64,192.61,339.24,252.52,339.7,329.23z"/>
	<path class="st5" d="M444.81,263.26c-7,66-29,96-29,96s56-29,45-39c1.76,1.49-14,45-32,55c4.73,6.17,28.68-0.81,44-13
		c43.35-34.5,25.69-117.12,23-129"/>
	<path class="st5" d="M475.81,249.26c14.01,28.85,62.09,68.06,100.58,100.55c6.89,5.82-1.42,24.24-12.58,42.45
		c3.27,3.09,12.2-1.57,14.1-2.56c14.74-7.68,24.59-25.25,24.9-47.44"/>
	<path class="st6" d="M338.81,382.14"/>
	<path class="st7" d="M603.81,336.26c16.73-14.19-7.66-108.46-76-144c-65.01-33.81-154.86-6.63-191,51
		c-20.8,33.16-27.38,81.62-11,92c28.84,18.27,125.02-83.91,136.5-72.5c4.98,4.95-11.12,26.16-4.5,32.5
		c7.01,6.71,25.92-16.2,49.5-12.5c23.3,3.66,24.19,29.06,59,46C575.8,333.38,595.75,343.09,603.81,336.26z"/>
	<g>
		<g>
			<path d="M445.19,262.4c0.78-3.65,1.16-7.39,1.13-11.12c-0.01-1.07-1.29-1.96-2.26-1.3c-3.41,2.35-6.52,5.1-9.24,8.23
				c-0.53,0.61-0.6,1.52,0,2.12c0.54,0.54,1.59,0.61,2.12,0c2.55-2.93,5.44-5.55,8.63-7.76c-0.75-0.43-1.5-0.86-2.26-1.3
				c0.04,3.47-0.3,6.93-1.02,10.33c-0.17,0.79,0.23,1.62,1.05,1.85C444.09,263.65,445.02,263.19,445.19,262.4L445.19,262.4z"/>
		</g>
	</g>
	<g>
		<path d="M502.25,279.36c-0.74,0.01-0.84-7.33-3.11-21.84c-1.42-9.13-2.97-16.61-4.1-21.68c2.72,4.55,6.13,11.49,7.76,20.42
			C505,268.26,503.16,279.35,502.25,279.36z"/>
		<g>
			<path d="M502.25,277.86c0.38,0.04,1.05,0.54,1.12,0.59c0.02,0.01,0.09,0.37,0.07,0.15c-0.02-0.19-0.1-0.39-0.14-0.58
				c-0.16-0.76-0.17-1.05-0.26-1.76c-0.28-2.33-0.51-4.67-0.79-7.01c-0.92-7.81-2.12-15.58-3.59-23.3
				c-0.67-3.51-1.39-7.02-2.17-10.51c-0.91,0.39-1.83,0.77-2.74,1.16c4.15,6.98,6.96,14.7,8.04,22.76
				c0.58,4.34,0.71,8.76,0.39,13.12c-0.1,1.42-0.25,2.85-0.53,4.25c-0.1,0.47-0.21,0.94-0.35,1.4c-0.1,0.32-0.1,0.12-0.06,0.19
				c-0.02,0.05-0.05,0.1-0.08,0.14c0.16-0.27,0.39-0.44,0.7-0.54c-1.9,0.33-1.09,3.23,0.8,2.89c1.53-0.27,1.81-2.79,2.02-3.96
				c0.52-3.01,0.68-6.08,0.67-9.12c-0.03-7.98-1.44-15.95-4.42-23.36c-1.29-3.21-2.82-6.31-4.58-9.28
				c-0.89-1.49-3.11-0.49-2.74,1.16c1.69,7.58,3.12,15.21,4.29,22.89c0.93,6.14,1.48,12.32,2.32,18.47c0.19,1.35,0.34,3.1,2.04,3.27
				C504.17,281.05,504.16,278.05,502.25,277.86z"/>
		</g>
	</g>
	<g>
		<g>
			<path d="M608.4,337.2c0-3.52,0-7.03,0-10.55c0-0.81-0.69-1.5-1.5-1.5c-0.81,0-1.5,0.69-1.5,1.5c0,3.52,0,7.03,0,10.55
				c0,0.81,0.69,1.5,1.5,1.5C607.72,338.7,608.4,338.01,608.4,337.2L608.4,337.2z"/>
		</g>
	</g>
	<g>
		<g>
			<path d="M377.61,182.42c9.05-0.66,18.17-0.34,27.14,1.02c1.89,0.29,2.7-2.6,0.8-2.89c-9.25-1.4-18.6-1.81-27.94-1.13
				C375.7,179.56,375.68,182.56,377.61,182.42L377.61,182.42z"/>
		</g>
	</g>
	<g>
		<g>
			<path d="M486.37,223.55c-1.68-3.47-4.81-6.12-8.44-7.34c-0.74-0.25-1.67,0.29-1.85,1.05c-0.19,0.83,0.25,1.58,1.05,1.85
				c0.2,0.07,0.4,0.14,0.59,0.21c0.16,0.06,0.2,0.06,0.01,0c0.1,0.03,0.22,0.09,0.31,0.14c0.38,0.18,0.76,0.37,1.12,0.58
				c0.35,0.2,0.68,0.42,1.01,0.66c0.08,0.06,0.15,0.11,0.23,0.17c0.31,0.23-0.24-0.2,0.06,0.05c0.16,0.13,0.32,0.27,0.48,0.41
				c0.3,0.27,0.59,0.55,0.86,0.84c0.14,0.15,0.28,0.31,0.42,0.47c0.06,0.07,0.12,0.15,0.18,0.22c0.04,0.05,0.3,0.33,0.05,0.06
				c0.55,0.59,0.96,1.43,1.31,2.15c0.34,0.71,1.41,0.95,2.05,0.54C486.56,225.14,486.74,224.31,486.37,223.55L486.37,223.55z"/>
		</g>
	</g>
	<g>
		<g>
			<path d="M568.55,223.26c8.24,14.54,15.54,29.59,21.83,45.07c0.72,1.77,3.62,0.99,2.89-0.8c-6.38-15.72-13.76-31.02-22.13-45.79
				C570.19,220.06,567.6,221.57,568.55,223.26L568.55,223.26z"/>
		</g>
	</g>
	<g>
		<g>
			<path d="M321.98,283.93c0.55-4.03,2.17-7.72,3.86-11.38c1.77-3.84,3.6-7.66,5.48-11.45c3.72-7.51,7.64-14.92,11.75-22.23
				c0.95-1.68-1.64-3.2-2.59-1.51c-4.19,7.44-8.18,15-11.97,22.66c-1.87,3.79-3.7,7.61-5.47,11.46c-1.72,3.74-3.4,7.55-3.96,11.67
				c-0.11,0.81,0.2,1.6,1.05,1.85C320.83,285.18,321.87,284.73,321.98,283.93L321.98,283.93z"/>
		</g>
	</g>
	<path class="st4" d="M314.81,361.26c-1.18,3.76-3.06,11.56-1,21c1.38,6.34,4.03,11.08,6,14L314.81,361.26z"/>
	<path class="st4" d="M615.91,360.09c1.18,3.76,3.06,11.56,1,21c-1.38,6.34-4.03,11.08-6,14L615.91,360.09z"/>
	<line class="st8" x1="467.7" y1="385.23" x2="458.02" y2="389.59"/>
	<line class="st8" x1="468.81" y1="388.26" x2="447.81" y2="401.26"/>
	<line class="st8" x1="479.81" y1="386.26" x2="452.81" y2="403.26"/>
	<line class="st8" x1="475.81" y1="394.26" x2="447.81" y2="411.26"/>
	<line class="st8" x1="482.81" y1="395.26" x2="453.81" y2="412.26"/>
	<path class="st4" d="M470.31,417.73c-0.35,8.33-0.69,16.67-1.04,25c-3.82-3.47-7.64-6.94-11.46-10.42L470.31,417.73z"/>
	<path class="st8" d="M373.03,411.81c-0.61,0.82-1.22,1.63-1.83,2.45"/>
	<path class="st8" d="M376.98,414.54c-0.2,0.31-0.41,0.61-0.61,0.92"/>
	<path class="st8" d="M546.68,413.63c0,0.51,0,1.02,0,1.53"/>
	<g>
		<path class="st4" d="M550.79,411.38c0.77,0.96,1.13,2.24,0.99,3.46"/>
		<g>
			<path class="st4" d="M549.73,412.45c0.01,0.01,0.02,0.03,0.04,0.04c-0.08-0.1-0.16-0.2-0.23-0.3c0.24,0.32,0.44,0.66,0.6,1.03
				c-0.05-0.12-0.1-0.24-0.15-0.36c0.17,0.4,0.28,0.82,0.34,1.26c-0.02-0.13-0.04-0.27-0.05-0.4c0.05,0.38,0.05,0.76,0.01,1.13
				c-0.04,0.36,0.2,0.82,0.44,1.06c0.26,0.26,0.69,0.46,1.06,0.44c0.39-0.02,0.79-0.14,1.06-0.44c0.08-0.1,0.16-0.2,0.23-0.3
				c0.14-0.23,0.2-0.49,0.2-0.76c0.08-0.75,0-1.53-0.21-2.25c-0.12-0.4-0.28-0.8-0.47-1.18c-0.2-0.4-0.47-0.74-0.74-1.09
				c-0.22-0.28-0.72-0.44-1.06-0.44c-0.37,0-0.81,0.16-1.06,0.44c-0.26,0.29-0.46,0.66-0.44,1.06c0.02,0.13,0.04,0.27,0.05,0.4
				C549.41,412.04,549.54,412.26,549.73,412.45L549.73,412.45z"/>
		</g>
	</g>
	<path class="st5" d="M450.81,266.26c-12.82,8.94-94,84-101,114c-2,5,9.6,31.37,11,31c0.08-0.02,0.11-0.11,0.12-0.15
		c0.66-2.62-54.89-18.44-44.12-91.85"/>
	<path class="st9" d="M712.77,704.21c-3.54,3.24-7.15,6.41-10.81,9.5c-1.57,1.33-3.16,2.65-4.75,3.95
		c-0.03,0.03-0.06,0.06-0.09,0.07v0.01c-2.92,2.39-5.88,4.74-8.87,7.04c-0.16,0.13-0.33,0.25-0.49,0.37
		c-0.24,0.2-0.49,0.39-0.74,0.57c-1.85,1.42-3.72,2.81-5.59,4.19c-0.77,0.56-1.53,1.12-2.3,1.67c-0.23,0.17-0.47,0.34-0.7,0.51
		c-0.27,0.19-0.54,0.39-0.8,0.57c-0.23,0.18-0.45,0.34-0.68,0.5c-0.39,0.28-0.78,0.55-1.17,0.82c-0.11,0.08-0.23,0.17-0.34,0.25
		c-1.19-1.21-2.29-2.42-3.31-3.65c-0.23,0.17-0.47,0.34-0.7,0.51c-0.5,0.36-0.99,0.72-1.48,1.07c-0.39,0.28-0.78,0.55-1.17,0.82
		c-0.27,0.2-0.53,0.38-0.8,0.56c-0.42,0.31-0.85,0.61-1.29,0.91c-1.28,0.89-2.57,1.78-3.86,2.65c-1.71,1.16-3.44,2.32-5.18,3.43
		c-0.24,0.51-0.49,1.02-0.74,1.51c-0.68,1.37-1.38,2.67-2.1,3.9c-0.17,0.31-0.35,0.61-0.52,0.9c-0.41,0.69-0.83,1.36-1.25,2.01
		c-0.43,0.67-0.87,1.31-1.32,1.93c-0.12,0.18-0.25,0.35-0.37,0.52c-0.25,0.34-0.5,0.67-0.75,0.99c-0.28,0.36-0.56,0.72-0.84,1.06
		c-1.7,2.08-3.47,3.86-5.29,5.34c-0.58,0.48-1.17,0.93-1.77,1.34c-0.31,0.21-0.62,0.42-0.93,0.62c-0.33,0.21-0.66,0.41-0.99,0.6
		c-0.29,0.17-0.59,0.34-0.88,0.49c-0.32,0.17-0.63,0.33-0.95,0.48c-0.32,0.15-0.64,0.3-0.96,0.43c-0.64,0.28-1.29,0.52-1.94,0.72
		c-0.28,0.09-0.56,0.18-0.85,0.26c-0.07,0.02-0.15,0.05-0.23,0.06c-0.29,0.08-0.59,0.16-0.89,0.22c-0.33,0.08-0.66,0.15-0.99,0.2
		c-0.34,0.06-0.67,0.12-1,0.16c-0.31,0.04-0.62,0.08-0.93,0.1c-0.37,0.04-0.74,0.07-1.12,0.08c-0.33,0.01-0.66,0.02-0.99,0.02
		c-0.87,0-1.75-0.04-2.64-0.14c-0.07-0.25-0.13-0.5-0.2-0.75c-0.35-1.34-0.71-2.68-1.06-4.02c-2.59-9.84-5.1-19.68-7.51-29.52v-0.01
		c-2.13-8.67-4.19-17.34-6.15-26.01c-0.01-0.01-0.01-0.02,0-0.03c-1.61-7.07-3.16-14.13-4.64-21.2c-0.25-1.18-0.5-2.35-0.74-3.53
		l-1.82-5.14l-2.12-5.97l-18.13-51.16l-1.27-3.6l-10.11-28.52v-0.01l-2.62-7.37l-1.87-5.28c7.6,1.17,15.2,2.33,22.8,3.5h0.01
		c1.57,0.24,3.14,0.48,4.72,0.72h0.01c15.08,2.32,30.15,4.63,45.24,6.94c0.02,0,0.04,0.01,0.05,0.01
		c8.58,1.32,17.17,2.64,25.75,3.95c0.03,0,0.06,0,0.09,0.01c6.23,0.96,12.47,1.91,18.7,2.87c0.21,0.46,0.41,0.93,0.61,1.39
		c9.13,21,13.02,42.35,16.33,63.66c1.04,6.72,2.24,13.39,3.57,20.01c1.55,7.68,3.28,15.31,5.17,22.87c0.15,0.6,0.3,1.2,0.45,1.8
		c0.02,0.06,0.04,0.12,0.05,0.18C712.07,701.49,712.42,702.85,712.77,704.21z"/>
	<path class="st9" d="M396.08,568.26L385.83,589l-4.34,8.79l-10.39,21.02l-5.86,11.86l-18.58,37.59c-0.7,2.06-1.4,4.12-2.1,6.18
		c-0.47,1.37-0.93,2.73-1.4,4.1c-0.58,1.71-1.16,3.41-1.74,5.12c-0.56,1.64-1.11,3.29-1.67,4.93
		c-5.04,14.81-10.08,29.62-15.11,44.43c-4.76,13.98-9.51,27.97-14.27,41.95c-2.09-0.84-4.17-1.69-6.23-2.56h-0.02
		c-1.2-0.51-2.4-1.02-3.6-1.54c-9.67-4.2-19.12-8.8-28.35-13.77c-2.84-1.53-5.66-3.09-8.44-4.69c-0.01-0.01-0.03-0.01-0.04-0.02
		c-0.23-0.12-0.43-0.24-0.64-0.36c-0.19-0.1-0.36-0.21-0.54-0.32c-3.72-2.14-7.4-4.35-11.04-6.61
		c-8.31-5.18-16.41-10.66-24.27-16.45c7.37-21.93,15.07-44.06,23.1-66.39c9.27-25.76,18.75-51.1,28.41-76
		c14.81-2.27,29.61-4.54,44.41-6.81c8.42-1.29,16.84-2.58,25.25-3.87c1.43-0.22,2.86-0.44,4.28-0.66
		C367.13,572.7,381.6,570.48,396.08,568.26z"/>
	<path class="st9" d="M502.33,603.26c-22.22,5.99-46.22,6.65-71.66,3c0.12-3.75,9.88,29,37.06,38
		C506.04,627.26,503.77,597.18,502.33,603.26z"/>
	<g>
		<path class="st10" d="M620.22,762.07c0.02,0.3,0.05,0.6,0.08,0.89c-0.36-0.11-0.73-0.24-1.09-0.38c-0.61,0.32-1.21,0.61-1.83,0.92
			c-3.79,1.87-7.62,3.67-11.48,5.4c-0.55,0.25-1.09,0.49-1.63,0.73c-0.34,0.15-0.67,0.3-1,0.45c-2.32,1.02-4.66,2.02-6.99,2.98
			c-2.3,0.97-4.6,1.9-6.91,2.82c-27.75,10.91-57.11,18.64-87.61,22.74c-1.35,0.18-2.69,0.35-4.04,0.51h-0.01
			c-2.59,0.33-5.19,0.62-7.8,0.89h-0.01c-1,0.1-1.97,0.2-2.97,0.29h-0.01c-0.09,0.01-0.18,0.02-0.27,0.02
			c-0.56,0.06-1.11,0.12-1.67,0.17c-1.39,0.12-2.79,0.23-4.19,0.34c-2.47,0.2-4.95,0.37-7.43,0.51c-0.14,0.01-0.27,0.02-0.41,0.02
			c-0.64,0.04-1.28,0.08-1.91,0.11C464.4,801.83,457.73,802,451,802c-11.67,0-23.2-0.53-34.6-1.56c-0.84-0.08-1.67-0.16-2.51-0.25
			h-0.01c-0.35-0.03-0.7-0.06-1.05-0.1c-0.64-0.06-1.28-0.13-1.92-0.2h-0.01c-0.46-0.05-0.92-0.1-1.38-0.15
			c-0.96-0.1-1.91-0.21-2.86-0.33c-21.01-2.44-41.5-6.62-61.32-12.38c-3.28-0.95-6.55-1.95-9.79-3c-2.06-0.65-4.1-1.33-6.14-2.02
			c-0.21-0.07-0.42-0.14-0.63-0.21h-0.02c-1.45-0.49-2.89-1-4.32-1.51c-0.36-0.13-0.72-0.26-1.08-0.39
			c0.67-15.79,1.12-31.61,1.28-46.88c0.55-50.71-2.04-95.37-10.1-112.76l40.07-1.03l16.49-0.42l40.82-1.04l1.46-0.04l21.2-0.54
			l2.37-0.06l5.53-0.14l25.35-0.65l0.69-0.02l23.81-0.61h0.01l0.65-0.02l6.75-0.17l16.1-0.41l0.46-0.01h0.01l66.46-1.71l5.31-0.13
			l39.03-1c-8.34,38.44-9.98,69.83-10.12,91.49c-0.06,9.55,0.21,18.28,0.65,26.28v0.01C618.32,742.33,619.38,752.9,620.22,762.07z"
			/>
		<g>
			<path d="M620.34,762.06l0.08,0.89c0,0,0.02,0.18,0.02,0.18s-0.17-0.06-0.17-0.06l-1.1-0.38c-1.98,1.1-4.76,2.32-7.09,3.44
				c-16.78,8.01-34.21,14.66-52.02,20.02c-29.77,8.92-60.63,14.25-91.57,15.52c-47.25,2.22-94.97-4.43-139.74-19.75
				c0.15,0.05-5.42-1.89-5.42-1.9c0,0-0.08-0.03-0.08-0.03c-0.03-0.08,1.14-40.15,1.12-40.23c0.61-26.75,0.31-53.59-2.06-80.25
				c-1.46-13.2-2.84-26.79-8.04-39.11c0,0-0.19-0.43-0.19-0.43s0.47-0.01,0.47-0.01c14.08-0.44,45.06-1.37,58.6-1.66
				c63.24-1.05,189.36-4.54,254.12-6.15C616.32,661.29,614.72,712.1,620.34,762.06L620.34,762.06z M620.1,762.08
				c-5.5-49.65-4.2-101.49,7.01-149.7c-54.24,1.45-182.03,4.47-234.42,6.25c-26.04,0.89-52.09,1.37-78.14,1.94
				c0,0,0.27-0.44,0.27-0.44c2.68,6.21,4.07,12.82,5.23,19.41c6.7,45.13,4.78,95.11,3.35,140.25
				c28.08,10.06,57.77,16.87,87.52,19.98c65.74,6.95,133.41-3.41,193.83-30.49c4.83-2.25,9.68-4.46,14.44-6.83
				c0,0,0.05,0.02,0.05,0.02s1.08,0.38,1.08,0.38l-0.15,0.13C620.18,762.97,620.1,762.08,620.1,762.08L620.1,762.08z"/>
		</g>
	</g>
	<path class="st10" d="M414.61,603.26c-4.41-10.65-20.19-15.55-32.12-14c-19.9,2.59-33.52,23.73-25.94,35
		c7.42,11.04,35.24,12.72,49.42,2C412.44,621.37,418.31,612.19,414.61,603.26z"/>
	<path class="st10" d="M594.33,592.65c-4.19-11.02-21.2-16.07-33.32-15.89c-27.24,0.42-51.23,27.71-44.48,40
		c7,12.76,50.37,15.35,69.15-1.11C586.76,614.71,598.64,603.98,594.33,592.65z"/>
	<path class="st9" d="M552.37,516.76c-27.83,26.22-54.92,49.49-79.07,61c8.44,16.83,16.88,33.67,25.33,50.5
		c12.05-9.75,28.2-21.1,48.91-31.8c17.73-9.16,34.48-15.61,48.69-20.2c-10.3-12.33-20.59-24.67-30.89-37
		C561.02,531.76,556.69,524.26,552.37,516.76z"/>
	<path class="st9" d="M380.98,520.96c27.83,26.22,54.92,49.49,79.07,61c-8.44,16.83-16.88,33.67-25.33,50.5
		c-16.19-10.35-32.5-20.95-48.91-31.8c-12.84-8.49-25.47-16.95-37.91-25.4c6.41-7.31,13.34-16.31,19.77-27
		C373.63,538.34,377.89,529.07,380.98,520.96z"/>
	<g>
		<path class="st11" d="M549.11,556.09c-4.05,2.71-8.52,5.02-13.28,6.85c-1.86,0.71-3.82,1.39-5.2,2.63
			c-1.02,0.92-1.63,2.07-2.23,3.21c-4.95,9.41-9.9,18.82-14.85,28.24"/>
		<g>
			<path class="st11" d="M548.36,554.8c-3.92,2.6-8.1,4.81-12.49,6.53c-1.95,0.76-4,1.41-5.68,2.69c-1.73,1.32-2.66,3.22-3.65,5.11
				c-4.76,9.04-9.51,18.09-14.27,27.13c-0.9,1.71,1.69,3.23,2.59,1.51c4.6-8.75,9.21-17.5,13.81-26.25
				c0.92-1.76,1.73-3.92,3.36-5.15c1.7-1.3,3.98-1.86,5.93-2.67c4.17-1.72,8.16-3.81,11.92-6.31
				C551.47,556.32,549.97,553.72,548.36,554.8L548.36,554.8z"/>
		</g>
	</g>
	<g>
		<path class="st11" d="M374.4,554.29c3.27,0.11,6.69,0.25,9.55,1.54s4.97,4.11,3.89,6.61"/>
		<g>
			<path class="st11" d="M374.4,555.79c2.95,0.1,6.15,0.12,8.89,1.38c1.06,0.48,2.1,1.21,2.74,2.19c0.31,0.48,0.51,0.86,0.6,1.45
				c0.05,0.33-0.04,0.76-0.23,1.24c-0.3,0.75,0.33,1.65,1.05,1.85c0.86,0.24,1.54-0.29,1.85-1.05c1.29-3.22-1.22-6.48-3.92-7.98
				c-3.3-1.83-7.28-1.95-10.96-2.07C372.47,552.73,372.48,555.73,374.4,555.79L374.4,555.79z"/>
		</g>
	</g>
	<g>
		<path class="st11" d="M413.88,800.19c-0.35-0.03-0.7-0.06-1.05-0.1c-0.64-0.06-1.28-0.13-1.92-0.2h-0.01
			c-0.46-0.05-0.92-0.1-1.38-0.15c-5.22-17.14-10.3-34.94-15.26-53.25c-4.13-15.24-8.18-30.83-12.16-46.7
			c-1.72-6.82-3.42-13.69-5.12-20.6c-0.79-3.24-1.58-6.5-2.37-9.76c-0.26-1.05-0.51-2.11-0.77-3.17l0.94,3.16l2.93,9.78l6.11,20.45
			l14.03,46.92L413.88,800.19z"/>
		<g>
			<path class="st11" d="M413.97,800.26c-1.4-0.01-3.09-0.27-4.47-0.39c-3.44-10.89-11.43-39.18-14.58-49.86
				c-7.04-25.95-15.23-57.59-21.54-83.64c0,0,0.9-0.24,0.9-0.24C386.86,708.12,401.75,758.18,413.97,800.26L413.97,800.26z
				 M413.79,800.12c-12.86-41.83-27.88-91.79-40.4-133.72c0,0,0.9-0.24,0.9-0.24c6.22,26.04,14.32,57.75,21.27,83.69
				c2.87,10.33,11.36,39.55,13.97,49.76C410.84,799.77,412.47,799.88,413.79,800.12L413.79,800.12z"/>
		</g>
	</g>
	<line class="st12" x1="581.4" y1="662.26" x2="530.75" y2="766.26"/>
	<path class="st6" d="M539.4,552.26"/>
	<path class="st6" d="M522.81,534.26"/>
	<path class="st6" d="M526.81,533.26"/>
	<g>
		<path class="st11" d="M487.57,682.59c4.8,2.15,9.87,3.89,15.11,5.19"/>
		<g>
			<path class="st11" d="M486.81,683.89c5,2.22,10.16,4.02,15.47,5.34c1.87,0.47,2.67-2.42,0.8-2.89c-5.05-1.26-10-2.92-14.75-5.04
				c-0.74-0.33-1.61-0.21-2.05,0.54C485.9,682.48,486.07,683.56,486.81,683.89L486.81,683.89z"/>
		</g>
	</g>
	<path class="st12" d="M492.6,737.2c1.77,0.5,3.53,1,5.3,1.5"/>
	<g>
		<path class="st11" d="M492.25,790.3c3.17,0.64,6.29,1.45,9.33,2.41"/>
		<g>
			<path class="st11" d="M491.85,791.75c3.15,0.64,6.27,1.45,9.33,2.41c0.75,0.24,1.67-0.28,1.85-1.05
				c0.19-0.82-0.25-1.59-1.05-1.85c-3.07-0.96-6.18-1.77-9.33-2.41c-0.77-0.16-1.66,0.22-1.85,1.05
				C490.63,790.65,491.03,791.58,491.85,791.75L491.85,791.75z"/>
		</g>
	</g>
	<path class="st13" d="M688.27,584.9c-25.41-19.59-57.56-23.03-95-13.73c-1.48,2.94-2.97,5.88-4.45,8.83
		c31.52,0.77,63.59,3.05,97.97,11.77C687.28,589.47,687.77,587.18,688.27,584.9z"/>
	<g>
		<path class="st11" d="M480.79,800.84c-2.47,0.2-4.95,0.37-7.43,0.51c-0.14,0.01-0.27,0.02-0.41,0.02l-4.35-157.5l-0.34-12.09
			l-0.43-15.44l-0.22-7.96v-0.15c0.01,0.05,0.01,0.1,0.02,0.15c0.3,2.64,0.6,5.29,0.89,7.94c0.56,4.99,1.09,10,1.61,15.03
			c0.39,3.74,0.77,7.48,1.14,11.24C476.3,693.82,479.6,746.6,480.79,800.84z"/>
		<g>
			<path class="st11" d="M480.88,800.93c-2.41,0.19-5.71,0.48-8.1,0.62c-0.54-16.15-1.07-32.3-1.52-48.45
				c-1.29-43.01-2.97-101.85-4.09-144.86c0,0,0.86-0.09,0.86-0.09s0.02,0.15,0.02,0.15c0,0,0.01,0.04,0.01,0.04
				C475.28,672.27,479.79,736.58,480.88,800.93L480.88,800.93z M480.7,800.75c-1.73-64.12-6.12-128.73-13.49-192.29
				c0,0-0.02-0.15-0.02-0.15l0.86-0.09c1.27,43.02,2.84,101.83,3.92,144.85c0.26,15.79,1.15,33.11,0.98,48.13
				C472.95,801.2,480.7,800.75,480.7,800.75L480.7,800.75z"/>
		</g>
	</g>
	<g>
		<path class="st11" d="M490.86,675.76c0.06,8.74,12.33,11.44,18.28,6.47c4.49-3.37,4.32-9.46-0.33-12.49
			C503.02,665.62,491.57,667.64,490.86,675.76L490.86,675.76z M489.09,675.76c0.1-10.26,14.03-13.9,21.23-8.08
			c5.56,4.04,5.49,11.93-0.33,15.71C502.97,688.37,489.77,685.39,489.09,675.76L489.09,675.76z"/>
	</g>
	<g>
		<path class="st11" d="M490.85,728.76c0.09,8.72,12.34,11.44,18.31,6.51c4.53-3.37,4.38-9.55-0.31-12.59
			C503.05,718.5,491.54,720.61,490.85,728.76L490.85,728.76z M489.1,728.76c0.12-10.24,14-13.78,21.17-8.01
			c5.52,4.03,5.47,11.82-0.31,15.6C502.98,741.37,489.75,738.4,489.1,728.76L489.1,728.76z"/>
	</g>
	<g>
		<path class="st11" d="M492.21,781.76c0.02,8.74,12.2,11.46,18.16,6.46c4.43-3.38,4.23-9.41-0.41-12.37
			C504.25,771.88,492.98,773.81,492.21,781.76L492.21,781.76z M490.22,781.76c0.06-10.46,14.1-14.15,21.42-8.19
			c5.57,4.11,5.49,12.05-0.41,15.83C504.19,794.34,490.95,791.42,490.22,781.76L490.22,781.76z"/>
	</g>
	<g>
		<g>
			<path class="st11" d="M556.04,766.25c12.34,0,24.68,0,37.02,0c1.93,0,1.93-3,0-3c-12.34,0-24.68,0-37.02,0
				C554.11,763.25,554.11,766.25,556.04,766.25L556.04,766.25z"/>
		</g>
	</g>
	<g>
		<g>
			<path class="st11" d="M311.48,624.66c-7.47,22.1-13.03,44.83-16.47,67.91c-0.96,6.41-1.75,12.83-2.39,19.28
				c-0.19,1.92,2.81,1.91,3,0c2.27-22.84,6.61-45.45,12.88-67.53c1.8-6.33,3.76-12.62,5.87-18.86
				C314.99,623.62,312.09,622.84,311.48,624.66L311.48,624.66z"/>
		</g>
	</g>
	<g>
		<path class="st11" d="M671.69,614.68c-9.94,8.9-19.68,17.94-29.21,27.12"/>
		<g>
			<path class="st11" d="M670.63,613.62c-9.9,8.87-19.64,17.9-29.21,27.12c-1.39,1.34,0.73,3.46,2.12,2.12
				c9.57-9.21,19.32-18.25,29.21-27.12C674.19,614.45,672.07,612.34,670.63,613.62L670.63,613.62z"/>
		</g>
	</g>
	<g>
		<path class="st11" d="M325.65,581.26c12.75,2.76,25.59,5.22,38.52,7.37"/>
		<g>
			<path class="st11" d="M325.25,582.71c12.78,2.76,25.62,5.22,38.52,7.37c1.89,0.32,2.7-2.58,0.8-2.89
				c-12.89-2.15-25.74-4.61-38.52-7.37C324.16,579.41,323.36,582.3,325.25,582.71L325.25,582.71z"/>
		</g>
	</g>
	<path class="st13" d="M272.05,581.75c21.01-15.17,47.59-17.83,78.56-10.63c1.23,2.28,2.45,4.56,3.68,6.84
		c-26.07,0.59-52.59,2.36-81.01,9.11C272.87,585.3,272.46,583.53,272.05,581.75z"/>
	<path class="st9" d="M462.67,608.23"/>
	<path class="st9" d="M423.64,680.09c0.99,19.32,1.99,38.64,2.98,57.96c-22.08,16.27-53.43,5.5-83.54-1.61
		c-3.52-19.4-3.95-38.7-2.98-57.96C367.95,679.02,395.8,679.56,423.64,680.09z"/>
	<path class="st14" d="M420.25,686.38c-9.58,16.66-12.72,33.54,2.47,51"/>
	<path class="st9" d="M423.13,678.23c-2.78-10.76-77.59-12.88-82.78,0c-2.47,6.13,10.91,15.49,22.05,19.21
		C391.09,707.06,425.16,686.08,423.13,678.23z"/>
	<path class="st9" d="M527.81,675.59c-0.99,19.32-1.99,38.64-2.98,57.96c22.08,16.27,53.43,5.5,83.54-1.61
		c3.52-19.4,3.95-38.7,2.98-57.96C583.5,674.52,555.65,675.05,527.81,675.59z"/>
	<path class="st14" d="M531.2,684.88c9.58,16.66,12.72,33.54-2.47,51"/>
	<path class="st15" d="M713.91,703.17c-0.34,0.32-0.68,0.63-1.02,0.93c-0.04,0.04-0.08,0.08-0.12,0.11
		c-3.54,3.24-7.15,6.41-10.81,9.5c-1.57,1.33-3.16,2.65-4.75,3.95c-0.03,0.03-0.06,0.06-0.09,0.07v0.01
		c-2.92,2.39-5.88,4.74-8.87,7.04c-0.16,0.13-0.33,0.25-0.49,0.37c-0.24,0.2-0.49,0.39-0.74,0.57c-1.85,1.42-3.72,2.81-5.59,4.19
		c-0.77,0.56-1.53,1.12-2.3,1.67c-0.23,0.17-0.47,0.34-0.7,0.51c-0.27,0.19-0.54,0.39-0.8,0.57c-0.23,0.18-0.45,0.34-0.68,0.5
		c-0.39,0.28-0.78,0.55-1.17,0.82c-0.11,0.08-0.23,0.17-0.34,0.25c-1.19-1.21-2.29-2.42-3.31-3.65c-2.9-3.49-5.18-7.05-7.05-10.64
		c-4.92-9.45-7.03-19.19-10.3-28.81c4.34-2.61,10.09-5.63,17.22-8.36c4.81-1.84,10.25-3.55,16.31-4.9
		c6.48-1.44,12.49-2.21,17.74-2.6c0.16-0.02,0.33-0.03,0.49-0.04c0.6,4.55,2.59,12.08,5.58,22.05
		C712.69,699.16,713.28,701.12,713.91,703.17z"/>
	<path class="st16" d="M712.89,704.1c-0.04,0.04-0.08,0.08-0.12,0.11c-3.54,3.24-7.15,6.41-10.81,9.5
		c-1.57,1.33-3.16,2.65-4.75,3.95c-0.03,0.03-0.06,0.06-0.09,0.07v0.01c-2.92,2.39-5.88,4.74-8.87,7.04
		c-0.16,0.13-0.33,0.25-0.49,0.37c-0.24,0.2-0.49,0.39-0.74,0.57c-1.85,1.42-3.72,2.81-5.59,4.19c-0.77,0.56-1.53,1.12-2.3,1.67
		c-0.23,0.17-0.47,0.34-0.7,0.51c-0.27,0.19-0.54,0.39-0.8,0.57c-5.37-5.75-8.75-11.73-11.24-17.79v-0.01
		c-3.08-7.47-4.82-15.09-7.28-22.63c3.29-2.04,7.47-4.38,12.53-6.59c5.08-2.22,11.04-4.33,17.88-5.91c6.06-1.4,11.67-2.14,16.53-2.5
		c0.59,4.59,2.61,12.36,5.62,22.71c0.02,0.06,0.04,0.12,0.05,0.18C712.1,701.4,712.49,702.73,712.89,704.1z"/>
	<path class="st17" d="M687.76,725.15c-0.24,0.2-0.49,0.39-0.74,0.57c-0.78-2.48-1.08-4.29-0.95-4.33
		C686.2,721.35,686.72,723.02,687.76,725.15z"/>
	<path class="st17" d="M697.21,717.66c-0.03,0.03-0.06,0.06-0.09,0.07c0-0.04,0.01-0.07,0.04-0.08
		C697.18,717.65,697.19,717.65,697.21,717.66z"/>
	<g>
		<g>
			<path class="st18" d="M702.42,685.64c-0.24-1.4-1.44-2.31-2.74-2.69c-1.56-0.46-3.08-0.01-4.34,0.97
				c-1.25,0.96-2.2,2.24-3.53,3.1c-1.37,0.89-2.94,1.43-4.52,1.79c-1.69,0.39-3.42,0.6-5.14,0.76c-1.72,0.16-3.59,0.12-5.21,0.8
				c-1.69,0.7-2.44,2.27-3.16,3.85c-0.83,1.81-1.44,3.7-1.88,5.64c-0.17,0.76-0.03,1.72-0.03,2.5c0,0.77,0.19,1.75,0.03,2.5
				c0.44-1.94,1.05-3.83,1.88-5.64c0.72-1.58,1.47-3.15,3.16-3.85c1.62-0.67,3.49-0.64,5.21-0.8c1.73-0.16,3.46-0.36,5.14-0.76
				c1.58-0.37,3.15-0.91,4.52-1.79c1.33-0.86,2.29-2.14,3.53-3.1c1.26-0.98,2.78-1.42,4.34-0.97c1.31,0.38,2.5,1.29,2.74,2.69
				C702.14,689.03,702.7,687.27,702.42,685.64L702.42,685.64z"/>
		</g>
	</g>
	<g>
		<g>
			<path class="st18" d="M706.05,694.73c-9.68,3.17-19.36,6.33-29.03,9.5c-0.09,0.03-0.06,2.5-0.05,2.2
				c-0.02,1.77-0.02,3.54-0.02,5.3c0,1.77,0,3.54,0.02,5.3c0,0.23,0.11,2.18,0.05,2.2c9.68-3.17,19.36-6.33,29.03-9.5
				c0.09-0.03,0.06-2.5,0.05-2.2c0.02-1.77,0.02-3.54,0.02-5.3c0-1.77,0-3.54-0.02-5.3C706.1,696.7,706,694.75,706.05,694.73
				L706.05,694.73z"/>
		</g>
	</g>
	<g>
		<g>
			<path class="st19" d="M706.05,693.98c-9.88,3-19.77,6-29.65,9c-0.25,0.08,0.21,2.44,0,2.5c9.88-3,19.77-6,29.65-9
				C706.3,696.41,705.84,694.05,706.05,693.98L706.05,693.98z"/>
		</g>
	</g>
	<g>
		<g>
			<path class="st19" d="M706.67,707.98c-10.09,3-20.18,6-30.27,9c-0.24,0.07,0.21,2.44,0,2.5c10.09-3,20.18-6,30.27-9
				C706.92,710.41,706.46,708.05,706.67,707.98L706.67,707.98z"/>
		</g>
	</g>
	<polygon class="st20" points="699.12,707 689.43,709.73 692.33,702.6 	"/>
	<polygon class="st20" points="688.09,705.42 697.94,703.11 694.58,710.1 	"/>
	<g>
		<g>
			<path d="M573.98,696.56c4.76,19.18,10.96,39.54,23.28,55.36c9.32,11.97,25.59,21.53,41.02,15.97
				c18.05-6.5,26.29-27.91,31.11-44.8c5.38-18.81,7.83-38.58,9.36-58.11c1.95-24.86,2.07-49.84,1.42-74.75
				c-0.17-6.42-10.17-6.45-10,0c1,37.82,0.83,76.56-6.52,113.81c-3.3,16.69-7.81,36.87-20.53,49.17c-10.91,10.55-26,5.83-35.43-4.36
				c-13.48-14.57-19.4-36.2-24.06-54.95C582.07,687.66,572.42,690.3,573.98,696.56L573.98,696.56z"/>
		</g>
	</g>
	<g>
		<g>
			<path d="M568.35,276.11c13.86,9.08,23.4,23,31.44,37.19c2.32,4.1,4.54,8.25,6.75,12.41c-0.05-0.09,0.02-0.72,0.02-0.73
				c0.01-0.59,0.01-1.18,0.01-1.77c0-0.59,0-1.18-0.01-1.77c0-0.18,0.07-0.57-0.02-0.73c-7.68-14.47-15.61-29.29-27.41-40.88
				c-3.31-3.25-6.9-6.18-10.78-8.72c0.17,0.11-0.03,2.22-0.03,2.5C568.32,273.93,568.08,275.93,568.35,276.11L568.35,276.11z"/>
		</g>
	</g>
	<g>
		<g>
			<path d="M348.5,275.11c-13.83,15.84-27.67,31.69-41.5,47.53c-0.28,0.32-0.02,2.06-0.02,2.5c0,0.59,0,1.18,0.01,1.77
				c0,0.12,0.08,0.66,0.02,0.73c13.83-15.84,27.67-31.69,41.5-47.53c0.28-0.32,0.02-2.06,0.02-2.5c0-0.59,0-1.18-0.01-1.77
				C348.52,275.72,348.44,275.19,348.5,275.11L348.5,275.11z"/>
		</g>
	</g>
	<path class="st21" d="M342.08,223.2L342.08,223.2c0.01-5.61,90.2-5.9,90.19-0.93c0,0,15.22,40.59,0.98,57.69
		c-20.04,24.07-63.67,17.99-79.41,0.93C337.41,263.08,342.09,223.23,342.08,223.2z"/>
	<path class="st21" d="M574.3,221.7L574.3,221.7c-0.01-5.61-90.2-5.9-90.19-0.93c0,0-15.22,40.59-0.98,57.69
		c20.04,24.07,63.67,17.99,79.41,0.93C578.97,261.58,574.29,221.74,574.3,221.7z"/>
	<g>
		<g>
			<path class="st22" d="M436.23,239.77c-17.74,9.84-35.48,19.69-53.22,29.53c-5.09,2.82-10.18,5.65-15.27,8.47
				c-0.12,0.07-0.06,2.44-0.05,2.2c-0.02,1.77-0.02,3.54-0.02,5.3c0,1.77,0,3.54,0.02,5.3c0,0.26,0.16,2.14,0.05,2.2
				c17.74-9.84,35.48-19.69,53.22-29.53c5.09-2.82,10.18-5.65,15.27-8.47c0.12-0.07,0.06-2.44,0.05-2.2
				c0.02-1.77,0.02-3.54,0.02-5.3c0-1.77,0-3.54-0.02-5.3C436.28,241.71,436.12,239.84,436.23,239.77L436.23,239.77z"/>
		</g>
	</g>
	<g>
		<g>
			<path class="st22" d="M415.16,219.27c-18.35,9.36-36.7,18.72-55.05,28.08c-5.18,2.64-10.36,5.28-15.54,7.92
				c-0.08,0.04-0.04,1.64-0.04,1.46c-0.01,1.18-0.02,2.36-0.01,3.54c0,1.18,0,2.36,0.01,3.54c0,0.17,0.1,1.43,0.04,1.46
				c18.35-9.36,36.7-18.72,55.05-28.08c5.18-2.64,10.36-5.28,15.54-7.92c0.08-0.04,0.04-1.64,0.04-1.46
				c0.01-1.18,0.02-2.36,0.01-3.54c0-1.18,0-2.36-0.01-3.54C415.19,220.57,415.09,219.31,415.16,219.27L415.16,219.27z"/>
		</g>
	</g>
	<g>
		<g>
			<path class="st22" d="M574.25,233.77c-19.43,10.91-38.85,21.81-58.28,32.72c-5.51,3.09-11.02,6.19-16.53,9.28
				c-0.12,0.07-0.06,2.44-0.05,2.2c-0.02,1.77-0.02,3.54-0.02,5.3c0,1.77,0,3.54,0.02,5.3c0,0.26,0.17,2.13,0.05,2.2
				c19.43-10.91,38.85-21.81,58.28-32.72c5.51-3.09,11.02-6.19,16.53-9.28c0.12-0.07,0.06-2.44,0.05-2.2
				c0.02-1.77,0.02-3.54,0.02-5.3c0-1.77,0-3.54-0.02-5.3C574.3,235.71,574.14,233.84,574.25,233.77L574.25,233.77z"/>
		</g>
	</g>
	<g>
		<g>
			<path class="st22" d="M537.79,216.21c-14.48,10.67-29.5,20.6-44.99,29.75c-4.46,2.63-8.96,5.2-13.49,7.7
				c-0.08,0.04-0.04,1.63-0.04,1.46c-0.01,1.18-0.02,2.36-0.01,3.54c0,1.18,0,2.36,0.01,3.54c0,0.17,0.11,1.42,0.04,1.46
				c15.77-8.71,31.1-18.2,45.91-28.46c4.23-2.93,8.42-5.93,12.57-8.99c0.09-0.07,0.04-1.59,0.04-1.46c0.01-1.18,0.02-2.36,0.01-3.54
				c0-1.18,0-2.36-0.01-3.54C537.82,217.48,537.69,216.28,537.79,216.21L537.79,216.21z"/>
		</g>
	</g>
	<line class="st23" x1="437.28" y1="253.27" x2="476.79" y2="253.27"/>
	<path class="st9" d="M528.32,673.73c2.78-10.76,77.59-12.88,82.78,0c2.47,6.13-10.91,15.49-22.05,19.21
		C560.36,702.55,526.29,681.58,528.32,673.73z"/>
	<g>
		<path class="st24" d="M494.51,397.35c-2.35-3.35-2.19-6.7-2.07-9.44c0.06-1.24,0.42-9.19,6.15-14c10.87-9.14,43.36-8.9,55.54,3.53
			c5.48,5.58,7.71,14.5,1.42,21.46c-8.66,9.58-27.56,8.9-32.15,8.73C520.85,407.53,501.01,406.63,494.51,397.35z"/>
		<path class="st25" d="M559.19,399.47c0.31-1.98,2.23-15.84-10.15-24.87c-15.24-11.12-43.07-8.3-53.6,2.34
			c-2.72,2.74-3.98,5.7-4.6,8.17"/>
		<ellipse class="st26" cx="519.84" cy="387.24" rx="11.74" ry="10.84"/>
		<ellipse class="st18" cx="525.31" cy="383.93" rx="4.56" ry="4.22"/>
		<path class="st24" d="M434.64,397.29c2.19-3.44,1.88-6.79,1.63-9.54c-0.11-1.24-0.85-9.2-6.79-13.84
			c-11.29-8.82-43.73-7.53-55.34,5.33c-5.22,5.78-7.04,14.79-0.43,21.56c9.1,9.33,27.95,8.03,32.53,7.72
			C408.79,408.35,428.57,406.81,434.64,397.29z"/>
		<ellipse class="st26" cx="408.82" cy="388.11" rx="11.74" ry="11.05"/>
		<ellipse class="st18" cx="414.71" cy="384.72" rx="4.56" ry="4.3"/>
		<path class="st6" d="M377.72,404.48c2.93,1.17,27.68,10.64,47.91,0.03c4.99-2.62,8.64-5.9,11.29-9.02"/>
		<path class="st27" d="M429.44,359.15c-22.76-2.05-43.93-0.26-62.68,7.29"/>
		<path class="st27" d="M496.35,359.21c22.57-3.73,43.85-3.54,63.2,2.59"/>
		<path class="st25" d="M369.35,400.31c-0.4-1.97-2.95-15.75,9-25.18c14.72-11.61,42.66-9.68,53.67,0.6
			c2.84,2.65,4.24,5.57,4.98,8.02"/>
		<path class="st6" d="M551.76,402.17c-2.87,1.26-27.17,11.52-47.87,1.58c-5.11-2.45-8.9-5.61-11.7-8.65"/>
	</g>
	<path class="st6" d="M498.7,485.23c-15.3,5.39-35.44,3.29-57-1"/>
</g>
</svg>
