<?xml version="1.0" encoding="utf-8"?>
<!-- Generator: Adobe Illustrator 28.3.0, SVG Export Plug-In . SVG Version: 6.00 Build 0)  -->
<svg version="1.1" id="Layer_1" xmlns="http://www.w3.org/2000/svg" xmlns:xlink="http://www.w3.org/1999/xlink" x="0px" y="0px"
	 viewBox="0 0 916 850" style="enable-background:new 0 0 916 850;" xml:space="preserve">
<style type="text/css">
	.st0{opacity:0.6;fill:#CCCCCC;}
	.st1{display:none;fill:#426646;}
	.st2{fill:#20382B;stroke:#000000;stroke-miterlimit:10;}
	.st3{fill:#FFE3CB;stroke:#000000;stroke-miterlimit:10;}
	.st4{fill:#FFB995;}
	.st5{fill:#332C26;}
	.st6{fill:#FFFFFF;}
	.st7{fill:none;stroke:#000000;stroke-width:4;stroke-miterlimit:10;}
	.st8{stroke:#000000;stroke-miterlimit:10;}
	.st9{fill:none;stroke:#000000;stroke-miterlimit:10;}
	.st10{fill:#332C26;stroke:#000000;stroke-miterlimit:10;}
	.st11{fill:none;stroke:#FFB995;stroke-miterlimit:10;}
	.st12{opacity:0.44;fill:#D8B8A3;}
	.st13{fill:#FFB995;stroke:#000000;stroke-width:0.5;stroke-miterlimit:10;}
	.st14{fill:none;stroke:#000000;stroke-width:3;stroke-miterlimit:10;}
	.st15{fill:#305437;stroke:#000000;stroke-miterlimit:10;}
	.st16{fill:#305437;}
	.st17{fill:#FFFFFF;stroke:#000000;stroke-miterlimit:10;}
	.st18{fill:#20382B;}
	.st19{fill:none;stroke:#20382B;stroke-miterlimit:10;}
	.st20{fill:#C87529;stroke:#000000;stroke-miterlimit:10;}
	.st21{fill:#304D37;stroke:#000000;stroke-miterlimit:10;}
	.st22{fill:#988F4C;}
	.st23{fill:#6C81B0;stroke:#FFFFFF;stroke-width:2;stroke-miterlimit:10;}
	.st24{fill:#6C81B0;stroke:#FFFFFF;stroke-width:3;stroke-miterlimit:10;}
</style>
<path class="st0" d="M828,438c0,126.51-62.15,238.5-157.57,307.09c-0.5,0.36-0.99,0.71-1.48,1.07c-0.39,0.27-0.77,0.55-1.17,0.82
	c-0.26,0.19-0.53,0.38-0.79,0.56c-0.43,0.3-0.85,0.61-1.29,0.9c-1.28,0.89-2.57,1.78-3.86,2.65c-2.26,1.53-4.53,3.04-6.83,4.51
	c-0.76,0.51-1.52,1-2.3,1.48c-2.34,1.49-4.68,2.96-7.06,4.39c-8.83,5.35-17.89,10.35-27.18,14.98c-0.69,0.36-1.38,0.69-2.08,1.04
	c-3.79,1.87-7.62,3.67-11.48,5.41c-0.87,0.4-1.76,0.78-2.63,1.18c-2.32,1.02-4.65,2.01-6.99,2.98c-2.3,0.97-4.59,1.9-6.91,2.81
	c-27.75,10.91-57.11,18.65-87.61,22.74c-1.34,0.18-2.68,0.36-4.03,0.52h-0.01c-2.59,0.33-5.19,0.62-7.8,0.88h-0.01
	c-1,0.1-1.97,0.2-2.97,0.29h-0.01c-0.09,0.01-0.18,0.02-0.27,0.02c-0.56,0.06-1.11,0.11-1.67,0.16c-4.62,0.41-9.27,0.74-13.94,0.99
	C463.4,815.83,456.73,816,450,816c-11.67,0-23.2-0.53-34.6-1.56c-1.19-0.1-2.38-0.22-3.57-0.35c-23.18-2.32-45.74-6.74-67.49-13.06
	c-3.28-0.96-6.55-1.95-9.8-3c-2.05-0.65-4.1-1.33-6.14-2.02c-0.21-0.07-0.42-0.14-0.63-0.21h-0.02c-4.14-1.41-8.21-2.9-12.29-4.44
	c-4.15-1.59-8.26-3.23-12.34-4.95h-0.02c-10.93-4.61-21.58-9.72-31.95-15.31c-2.85-1.52-5.66-3.09-8.44-4.68
	c-0.01-0.01-0.03-0.01-0.04-0.02c-0.22-0.12-0.43-0.24-0.64-0.37c-0.18-0.1-0.36-0.2-0.54-0.32C148.24,700.44,72,578.11,72,438
	C72,229.24,241.24,60,450,60S828,229.24,828,438z"/>
<path class="st1" d="M443.81,882.44c3.73,59.65,34.8,136.7,34.8,136.7s11.18,55.92,123.03,103.15
	c19.11-7.03,78.89-31.74,120.55-96.94c26.1-67.11,38.96-130.11,37.28-150.38c-11.21-70.41-67.41-161.74-152.86-164.05
	C516.85,708.51,453.29,805.88,443.81,882.44z"/>
<g>
	<path class="st2" d="M393.68,535.16c46-1.37,92-2.75,138-4.12c-1.34,37.96-31.59,68.45-68,69.06
		C427.92,600.7,397.08,572.3,393.68,535.16z"/>
	<path class="st3" d="M524.68,487.74c2.63,24.28-6,13.4-8,92.77c-2.94,9.55-8.97,26.61-22,44.32c-10.02,13.63-18.65,25.36-30,25.77
		c-18.93,0.68-33.56-30.57-40-44.32c-13.52-28.87-6-65.97-11-109.26C434.72,469.97,482.36,463.1,524.68,487.74z"/>
	<g>
		<path class="st4" d="M416.18,496.5c11.99-6.62,36.45-17.83,68.33-16.6c16.83,0.65,30.72,4.57,40.67,8.36c-2,15.46-4,30.92-6,46.39
			c0,0-23.03,19.32-36.31,23.67c-17.24,5.64-32.91,5.06-46.59,4.34c-8.43-0.44-15.37-1.43-20.1-2.24V496.5z"/>
	</g>
	<path class="st5" d="M613.68,375.39c5.54-8.33,19.24-31.3,20-62.23c1.13-46.16-26.96-93.42-65.69-113.61
		c-46.13-24.05-120.47-19.95-100.31-21.04c19-1.03,27.61-49.16,26-50.51c-1.54-1.29-23.69,28.05-41,43.29
		c-95-31.95-190.25,21.6-190,18.55c0.26-3.21,91.95-4.44,148.51,10.18c0.18,0.05,0.31,0.08,0.49,0.13
		c-11.66-5.49-27.47-10.1-45-7.22c-37.09,6.1-68.24,43.45-77,93.8c1.39,27.72,8.7,80.25,47,118.54
		C413.35,481.92,563.52,450.8,613.68,375.39z"/>
	<path class="st3" d="M311.68,366.11c-10.38,4.72-10.06,26.25-10,28.86c1.09,44.49,55.54,70.55,59,72.16
		c12.05,5.57,24.6,11.38,30,6.18c10.43-10.03-12.72-54.59-40-83.49C341.28,379.86,323.31,360.82,311.68,366.11z"/>
	<path class="st3" d="M615.1,366.56c10.38,4.72,10.06,26.25,10,28.86c-1.09,44.49-55.54,70.55-59,72.16
		c-12.05,5.57-24.6,11.38-30,6.18c-10.43-10.03,12.72-54.59,40-83.49C585.5,380.31,603.47,361.27,615.1,366.56z"/>
	<path class="st3" d="M337.68,350.65c3,49.48,28,113.39,28,113.39s9,46.39,99,85.56c15.38-5.83,63.48-26.32,97-80.4
		c21-55.66,31.35-107.92,30-124.73c-9.02-58.4-54.24-134.15-123-136.07C396.45,206.39,345.31,287.15,337.68,350.65z"/>
	<path class="st6" d="M490.23,414.81c-2.37-4.25-2.13-8.45-1.93-11.89c0.09-1.55,0.66-11.51,6.75-17.43
		c11.57-11.25,45.46-10.29,57.88,5.55c5.58,7.12,7.7,18.35,0.96,26.94c-9.27,11.84-28.98,10.6-33.77,10.3
		C517.47,428.12,496.79,426.59,490.23,414.81z"/>
	<path class="st7" d="M557.68,419.71c0.37-2.53,2.7-20.27-10-32.11c-15.64-14.58-44.75-11.53-56,1.89c-2.9,3.46-4.3,7.23-5,10.39"/>
	<ellipse class="st8" cx="516.93" cy="401.93" rx="12.25" ry="12.63"/>
	<path class="st9" d="M550.18,421.26c-3.03,1.56-28.63,14.22-50,1.03c-5.27-3.25-9.16-7.38-12-11.34"/>
	<ellipse class="st6" cx="522.71" cy="398.18" rx="4.76" ry="4.91"/>
	<path class="st6" d="M427.75,413.36c2.37-4.25,2.13-8.45,1.93-11.89c-0.09-1.55-0.66-11.51-6.75-17.43
		c-11.57-11.25-45.46-10.29-57.88,5.55c-5.58,7.12-7.7,18.35-0.96,26.94c9.27,11.84,28.98,10.6,33.77,10.3
		C400.51,426.66,421.18,425.13,427.75,413.36z"/>
	<path class="st7" d="M360.3,418.25c-0.37-2.53-2.7-20.27,10-32.11c15.64-14.58,44.75-11.53,56,1.89c2.9,3.46,4.3,7.23,5,10.39"/>
	<ellipse class="st8" cx="401.05" cy="400.47" rx="12.25" ry="12.63"/>
	<ellipse class="st6" cx="407.27" cy="396.72" rx="4.76" ry="4.91"/>
	<path class="st9" d="M367.17,419.78c3.03,1.56,28.63,14.22,50,1.03c5.27-3.25,9.16-7.38,12-11.34"/>
	<path class="st10" d="M443.68,279.52c-7,68.03-29,98.96-29,98.96s56-29.89,45-40.2c1.76,1.53-14,46.39-32,56.69
		c4.73,6.36,28.68-0.83,44-13.4c43.35-35.56,25.69-120.72,23-132.97"/>
	<path class="st10" d="M474.68,265.09c14.01,29.74,62.09,70.16,100.58,103.64c6.89,6-1.42,24.98-12.58,43.76
		c3.27,3.19,12.2-1.62,14.1-2.64c14.74-7.92,24.59-26.03,24.9-48.9"/>
	<path class="st9" d="M337.68,402.06"/>
	<path class="st5" d="M602.68,354.77c16.73-14.63-7.66-111.8-76-148.43c-65.01-34.85-154.86-6.83-191,52.57
		c-20.8,34.18-27.38,84.14-11,94.83c28.84,18.83,125.02-86.49,136.5-74.73c4.98,5.1-11.12,26.97-4.5,33.5
		c7.01,6.91,25.92-16.7,49.5-12.88c23.3,3.77,24.19,29.96,59,47.42C574.68,351.8,594.63,361.81,602.68,354.77z"/>
	<g>
		<g>
			<path d="M444.06,278.62c0.78-3.77,1.16-7.61,1.13-11.45c-0.01-1.06-1.3-1.98-2.26-1.3c-3.42,2.43-6.53,5.26-9.24,8.47
				c-0.52,0.62-0.61,1.51,0,2.12c0.54,0.54,1.6,0.62,2.12,0c2.54-3.01,5.42-5.72,8.63-8c-0.75-0.43-1.5-0.86-2.26-1.3
				c0.04,3.58-0.29,7.15-1.02,10.66c-0.16,0.79,0.23,1.62,1.05,1.85C442.96,279.87,443.89,279.41,444.06,278.62L444.06,278.62z"/>
		</g>
	</g>
	<g>
		<path d="M501.12,296.12c-0.74,0.01-0.84-7.56-3.11-22.52c-1.42-9.41-2.97-17.12-4.1-22.35c2.72,4.69,6.13,11.84,7.76,21.05
			C503.87,284.68,502.03,296.1,501.12,296.12z"/>
		<g>
			<path d="M501.12,294.62c0.36,0.04,1.06,0.55,1.12,0.59c0.05,0.03,0.09,0.39,0.06,0.12c-0.02-0.19-0.1-0.4-0.14-0.59
				c-0.15-0.77-0.15-0.94-0.25-1.77c-0.28-2.44-0.52-4.88-0.8-7.32c-0.92-8.04-2.12-16.05-3.59-24c-0.66-3.61-1.39-7.2-2.16-10.79
				c-0.91,0.39-1.83,0.77-2.74,1.16c4.2,7.28,7.02,15.33,8.06,23.68c0.56,4.47,0.69,9.01,0.35,13.5c-0.11,1.45-0.26,2.91-0.54,4.34
				c-0.09,0.46-0.21,0.92-0.34,1.37c-0.1,0.32-0.09,0.12-0.06,0.17c-0.02,0.05-0.05,0.09-0.08,0.14c0.16-0.27,0.39-0.45,0.71-0.54
				c-1.9,0.34-1.09,3.23,0.8,2.89c1.54-0.27,1.81-2.84,2.01-4.03c0.52-3.13,0.69-6.32,0.68-9.5c-0.04-8.18-1.45-16.36-4.42-24
				c-1.28-3.3-2.81-6.49-4.58-9.55c-0.87-1.51-3.09-0.48-2.74,1.16c1.67,7.73,3.09,15.51,4.25,23.32c0.94,6.32,1.5,12.68,2.32,19.01
				c0.19,1.42,0.26,3.46,2.08,3.64C503.04,297.81,503.03,294.81,501.12,294.62z"/>
		</g>
	</g>
	<g>
		<g>
			<path d="M607.28,355.74c0-3.62,0-7.25,0-10.87c0-0.81-0.69-1.5-1.5-1.5c-0.81,0-1.5,0.69-1.5,1.5c0,3.62,0,7.25,0,10.87
				c0,0.81,0.69,1.5,1.5,1.5C606.59,357.24,607.28,356.55,607.28,355.74L607.28,355.74z"/>
		</g>
	</g>
	<g>
		<g>
			<path d="M376.49,196.14c9.05-0.68,18.17-0.35,27.14,1.05c1.89,0.3,2.7-2.59,0.8-2.89c-9.25-1.45-18.6-1.86-27.94-1.16
				C374.57,193.28,374.56,196.29,376.49,196.14L376.49,196.14z"/>
		</g>
	</g>
	<g>
		<g>
			<path d="M485.25,238.61c-1.66-3.53-4.77-6.27-8.44-7.55c-0.74-0.26-1.67,0.29-1.85,1.05c-0.19,0.84,0.25,1.57,1.05,1.85
				c0.2,0.07,0.45,0.13,0.63,0.24c-0.16-0.09-0.16-0.07,0,0c0.09,0.04,0.17,0.08,0.26,0.12c0.37,0.18,0.74,0.37,1.1,0.58
				c0.36,0.21,0.7,0.44,1.04,0.69c0.06,0.04,0.12,0.09,0.18,0.14c-0.04-0.03-0.08-0.06-0.12-0.1c0.07,0.02,0.21,0.17,0.26,0.22
				c0.16,0.13,0.32,0.27,0.47,0.41c0.31,0.28,0.6,0.58,0.88,0.89c0.14,0.16,0.28,0.31,0.41,0.48c0.07,0.09,0.15,0.18,0.21,0.27
				c-0.12-0.16-0.09-0.12,0.01,0.02c0.51,0.7,0.95,1.44,1.31,2.22c0.33,0.71,1.41,0.95,2.05,0.54
				C485.44,240.19,485.6,239.37,485.25,238.61L485.25,238.61z"/>
		</g>
	</g>
	<g>
		<g>
			<path d="M567.43,238.26c8.25,15.01,15.55,30.53,21.83,46.47c0.7,1.78,3.6,1,2.89-0.8c-6.37-16.18-13.75-31.95-22.13-47.19
				C569.09,235.05,566.5,236.57,567.43,238.26L567.43,238.26z"/>
		</g>
	</g>
	<g>
		<g>
			<path d="M320.9,300.41c0.54-4.14,2.3-8,4-11.77c1.73-3.86,3.52-7.7,5.35-11.51c3.7-7.69,7.6-15.29,11.69-22.78
				c0.93-1.7-1.66-3.21-2.59-1.51c-4.24,7.77-8.28,15.65-12.1,23.64c-1.89,3.95-3.73,7.93-5.51,11.94c-1.72,3.88-3.27,7.76-3.83,12
				c-0.11,0.81,0.77,1.49,1.5,1.5C320.3,301.92,320.8,301.21,320.9,300.41L320.9,300.41z"/>
		</g>
	</g>
	<path class="st11" d="M313.68,380.54c-1.18,3.87-3.06,11.91-1,21.65c1.38,6.54,4.03,11.42,6,14.43"/>
	<path class="st11" d="M614.78,379.33c1.18,3.87,3.06,11.91,1,21.65c-1.38,6.54-4.03,11.42-6,14.43"/>
	<path class="st12" d="M561.18,466.61c-0.16-0.01-20.35,27.46-31,22.68c-6.78-3.04-2.09-15.77-11-22.68
		c-6.19-4.8-18.04-3.09-41.5,0.52c-7.61,1.17-6.5,1.28-12,2.06c-29.43,4.18-39.16-1.33-47,5.15c-9.09,7.51-0.58,22.93-7,26.8
		c-10,6.03-36.32-25.01-37-24.74c-0.51,0.2-1.11,0.39-1.19,0.92c-2.69,18.26,89,76.73,91.69,71.75c0,0,41-17.52,61-38.4
		C542.86,495.04,553.99,478.96,561.18,466.61z"/>
	<line class="st11" x1="470.68" y1="397.03" x2="457.68" y2="405.28"/>
	<line class="st11" x1="471.68" y1="402.19" x2="450.68" y2="415.59"/>
	<line class="st11" x1="476.68" y1="405.28" x2="449.68" y2="422.8"/>
	<line class="st11" x1="478.68" y1="411.46" x2="450.68" y2="428.99"/>
	<line class="st11" x1="481.68" y1="415.59" x2="452.68" y2="433.11"/>
	<path class="st13" d="M464.68,442.9c-0.17,4.12-0.33,8.25-0.5,12.37c-1.83-1.72-3.67-3.44-5.5-5.15"/>
	<g>
		<g>
			<path class="st4" d="M370.61,431.89c-0.61,0.84-1.22,1.68-1.83,2.52c-0.11,0.17-0.17,0.36-0.18,0.56c-0.04,0.2-0.04,0.4,0.03,0.6
				c0.1,0.35,0.36,0.73,0.69,0.9c0.35,0.18,0.77,0.28,1.16,0.15c0.12-0.05,0.24-0.1,0.36-0.15c0.23-0.13,0.4-0.31,0.54-0.54
				c0.61-0.84,1.22-1.68,1.83-2.52c0.11-0.17,0.17-0.36,0.18-0.56c0.04-0.2,0.04-0.4-0.03-0.6c-0.1-0.35-0.36-0.73-0.69-0.9
				c-0.35-0.18-0.77-0.28-1.16-0.15c-0.12,0.05-0.24,0.1-0.36,0.15C370.92,431.48,370.74,431.66,370.61,431.89L370.61,431.89z"/>
		</g>
	</g>
	<g>
		<g>
			<path class="st4" d="M374.56,434.7c-0.2,0.32-0.41,0.63-0.61,0.95c-0.11,0.17-0.17,0.36-0.18,0.56c-0.04,0.2-0.04,0.4,0.03,0.6
				c0.05,0.2,0.14,0.37,0.27,0.51c0.11,0.16,0.25,0.29,0.42,0.39c0.12,0.05,0.24,0.1,0.36,0.15c0.27,0.07,0.53,0.07,0.8,0
				c0.12-0.05,0.24-0.1,0.36-0.15c0.23-0.13,0.4-0.31,0.54-0.54c0.2-0.32,0.41-0.63,0.61-0.95c0.11-0.17,0.17-0.36,0.18-0.56
				c0.04-0.2,0.04-0.4-0.03-0.6c-0.05-0.2-0.14-0.37-0.27-0.51c-0.11-0.16-0.25-0.29-0.42-0.39c-0.12-0.05-0.24-0.1-0.36-0.15
				c-0.27-0.07-0.53-0.07-0.8,0c-0.12,0.05-0.24,0.1-0.36,0.15C374.87,434.3,374.69,434.48,374.56,434.7L374.56,434.7z"/>
		</g>
	</g>
	<g>
		<g>
			<path class="st4" d="M544.05,434.52c0,0.53,0,1.05,0,1.58c-0.01,0.21,0.04,0.4,0.13,0.58c0.06,0.19,0.16,0.35,0.31,0.48
				c0.14,0.15,0.3,0.25,0.48,0.31c0.18,0.09,0.37,0.14,0.58,0.13c0.13-0.02,0.27-0.04,0.4-0.05c0.25-0.07,0.47-0.2,0.66-0.39
				c0.27-0.29,0.44-0.65,0.44-1.06c0-0.53,0-1.05,0-1.58c0.01-0.21-0.04-0.4-0.13-0.58c-0.06-0.19-0.16-0.35-0.31-0.48
				c-0.14-0.15-0.3-0.25-0.48-0.31c-0.18-0.09-0.37-0.14-0.58-0.13c-0.13,0.02-0.27,0.04-0.4,0.05c-0.25,0.07-0.47,0.2-0.66,0.39
				C544.22,433.76,544.05,434.12,544.05,434.52L544.05,434.52z"/>
		</g>
	</g>
	<g>
		<g>
			<path class="st4" d="M548.36,432.96c0.25,0.32,0.45,0.68,0.61,1.05c-0.05-0.12-0.1-0.24-0.15-0.36c0.17,0.41,0.29,0.85,0.36,1.29
				c-0.02-0.13-0.04-0.27-0.05-0.4c0.05,0.41,0.06,0.82,0.01,1.23c-0.04,0.36,0.2,0.82,0.44,1.06c0.26,0.26,0.69,0.46,1.06,0.44
				c0.39-0.02,0.79-0.14,1.06-0.44c0.08-0.1,0.16-0.2,0.23-0.3c0.14-0.23,0.2-0.49,0.2-0.76c0.08-0.76,0-1.55-0.2-2.28
				c-0.2-0.73-0.53-1.44-0.99-2.04c-0.25-0.32-0.49-0.58-0.9-0.69c-0.36-0.1-0.84-0.05-1.16,0.15c-0.32,0.21-0.6,0.51-0.69,0.9
				C548.13,432.17,548.13,432.65,548.36,432.96L548.36,432.96z"/>
		</g>
	</g>
	<path class="st10" d="M449.68,282.61c-12.82,9.21-94,86.59-101,117.51c-2,5.15,9.6,32.34,11,31.95c0.08-0.02,0.11-0.12,0.12-0.16
		c0.66-2.7-54.89-19.01-44.12-94.68"/>
	<path class="st14" d="M416.68,361.98c-23.83-0.77-45.82,3.23-65,14.43"/>
	<path class="st14" d="M498.72,361.97c23.83-0.77,45.82,3.23,65,14.43"/>
	<path class="st15" d="M667.93,740c-4.25-19.43-7.78-39.25-10.25-59.5c-2.74-22.45-5.96-44.94-13.71-67.05
		c-2.25-0.45-4.49-0.88-6.74-1.32c-24.3-4.74-48.61-9.49-72.9-14.24c-1.88-0.37-3.76-0.73-5.63-1.1c-2.94-0.57-5.87-1.14-8.81-1.72
		c-0.01,0-0.01,0-0.01,0c-0.31-0.05-0.6-0.11-0.91-0.18l1.62,5.84l8.45,30.36l0.53,1.9l20.11,72.25c1.53,9.4,3.14,18.8,4.83,28.2
		c2.94,16.37,6.11,32.75,9.46,49.13c3.18-1.35,6.34-2.76,9.47-4.21l-2.59,6.23l13.16-7.49l36.09-20.52l7.8-4.45h0.02l6.56-3.73
		l1.99-1.13c-0.41-1.84-0.78-3.56-1.15-5.35C666.2,741.29,667.06,740.65,667.93,740z"/>
	<path class="st15" d="M263.22,774.74c-0.24,0.85-0.48,1.72-0.73,2.62C262.74,776.46,262.98,775.58,263.22,774.74z"/>
	<path class="st15" d="M405.68,584.64l-8.3,21.37v0.01l-3.51,9.06v0.01l-8.41,21.65l-4.74,12.23l-15.04,38.75
		c-5.94,22.25-11.89,44.52-17.83,66.77l-10.47,39.21c-2.02-0.66-4.03-1.35-6.04-2.05l1.84,4.49c-0.82-0.01-1.64-0.02-2.46-0.02
		h-0.02c-4.07-1.39-8.08-2.85-12.09-4.37c-4.08-1.56-8.13-3.18-12.14-4.87h-0.02c-10.76-4.54-21.24-9.57-31.44-15.07
		c-2.8-1.5-5.57-3.04-8.31-4.61c-0.01-0.01-0.03-0.01-0.04-0.02c-0.22-0.12-0.42-0.24-0.63-0.36c-0.18-0.1-0.35-0.2-0.53-0.31
		c0.01-0.06,0.03-0.12,0.04-0.17c0.04-0.16,0.48-1.94,1.09-4.38v-0.04c0.02-0.09,0.05-0.19,0.07-0.29c-0.23-0.13-0.45-0.26-0.67-0.4
		c6.85-26.28,14.06-52.85,21.65-79.7c7.47-26.46,15.13-52.49,22.92-78.07c0.03-0.09,0.05-0.18,0.08-0.27c5-0.98,10-1.95,15-2.93
		c0.04-0.01,0.09-0.02,0.13-0.03c9.05-1.77,18.11-3.53,27.16-5.3c0.02,0,0.03-0.01,0.04-0.01c4.69-0.91,9.36-1.82,14.05-2.74
		c4.02-0.78,8.04-1.57,12.06-2.36C387.97,588.09,396.83,586.37,405.68,584.64z"/>
	<g>
		<path class="st16" d="M491.07,816l-7.55-2.48C486.08,814.19,488.61,815.01,491.07,816z"/>
		<g>
			<path d="M491.18,816.04l-3.83-1.18c-1.34-0.28-2.52-1.12-3.92-1.07c0,0,0.17-0.57,0.17-0.57c0.36-0.05,0.7-0.05,1.02,0.07
				c0.31,0.13,0.56,0.47,0.86,0.61l1.89,0.64c0.62,0.22,2.22,0.78,2.82,0.99C490.48,815.65,490.96,815.82,491.18,816.04
				L491.18,816.04z M490.96,815.96c-0.33,0.02-0.56-0.12-0.85-0.24c-1.82-0.63-3.85-1.68-5.76-1.47c-0.33-0.05-0.62-0.22-0.9-0.44
				l0.17-0.57c1.07,0.86,2.42,0.86,3.63,1.42C487.24,814.65,490.96,815.96,490.96,815.96L490.96,815.96z"/>
		</g>
	</g>
	<g>
		<path class="st16" d="M584.48,724.3c-0.02,3.13,0,6.18,0.03,9.14c0.25,21.18,1.68,38.15,2.66,51.98
			c-27.31,11.07-56.2,18.92-86.22,23.07c-1.44,3.54-4.82,6.01-8.77,6.01c-3.19,0-6.01-1.62-7.74-4.1c-4.55,0.41-9.12,0.75-13.72,1
			c-6.53,0.35-13.1,0.53-19.72,0.53c-11.48,0-22.83-0.54-34.05-1.59c-1.17-0.1-2.34-0.23-3.51-0.35
			c-22.81-2.35-45.01-6.83-66.42-13.25c0.43-14.25,0.72-28.47,0.83-42.25c0.45-52.28-1.64-98.33-8.17-116.25l32.43-1.06l13.35-0.43
			l33.04-1.07l1.18-0.04l19.07-0.62l2.05-0.07l2.43-0.07l40.36-1.32l4.67-0.15l1.32-0.04l13.04-0.42l0.37-0.01l56.05-1.83l2.05-0.06
			l17.52-0.58l14.07-0.45c-0.31,1.78-0.6,3.56-0.88,5.32C585.81,672.5,584.59,702.97,584.48,724.3z"/>
		<g>
			<path d="M584.6,724.3c-0.14,20.41,1.13,40.78,2.69,61.12c-27.44,11.41-56.8,19.04-86.32,23.2c-0.18,0.99-1.79,3.16-2.98,4
				c-4.15,3.46-11.03,2.14-13.54-2.09c0,0-8.66,0.63-8.66,0.63c-20.21,1.3-40.56,1.18-60.73-0.88
				c-23.02-2.33-46.12-6.68-68.13-13.53c0,0,0.79-39.78,0.79-39.78c0.25-33.1-0.09-66.38-4.3-99.25c-0.98-6.74-2.11-13.5-4.36-19.91
				c0,0,0.6-0.01,0.6-0.01c35.25-0.87,90.85-2.54,126.51-3.79c0.15,0,126.51-4.13,126.64-4.13
				C587.5,661.05,584.73,692.67,584.6,724.3L584.6,724.3z M584.36,724.3c0.25-31.33,2.71-63.92,8.32-94.19
				c0,0-126.5,4.13-126.5,4.13c-20.84,0.69-74.69,2.41-94.87,3.16c0,0-31.62,1.29-31.62,1.29s0.4-0.6,0.4-0.6
				c2.19,6.34,3.34,12.92,4.3,19.49c3.4,26.35,3.48,52.97,3.59,79.49c0.14,13.42-0.62,45.83-0.88,59.68
				c21.73,6.28,45.06,11.12,67.97,13.29c20.15,2.06,40.49,2.18,60.69,0.88c0,0,8.66-0.63,8.66-0.63s0.07-0.01,0.07-0.01
				c2.82,4.35,9.31,5.48,13.34,2.15c1.32-1.03,2.36-2.42,3-3.97c0,0,0.03-0.06,0.03-0.06s0.07-0.01,0.07-0.01
				c29.39-3.94,59.03-12.19,86.12-22.94C585.5,765.09,584.22,744.71,584.36,724.3L584.36,724.3z"/>
		</g>
	</g>
	<path class="st17" d="M491.68,620.72c-17.99,6.17-37.41,6.85-58,3.09c0.1-3.86,8,29.89,30,39.17
		C494.68,645.45,492.84,614.44,491.68,620.72z"/>
	<path class="st16" d="M420.68,620.72c-3.57-10.98-16.34-16.03-26-14.43c-16.11,2.67-27.13,24.46-21,36.08
		c6,11.38,28.53,13.11,40,2.06C418.92,639.38,423.67,629.92,420.68,620.72z"/>
	<path class="st16" d="M566.15,609.78c-3.39-11.36-17.16-16.57-26.97-16.38c-22.05,0.43-41.46,28.56-36,41.23
		c5.67,13.15,40.77,15.82,55.97-1.15C560.01,632.51,569.63,621.46,566.15,609.78z"/>
	<path class="st15" d="M532.18,531.55c-22.53,27.03-44.45,51.01-64,62.88c6.83,17.35,13.67,34.7,20.5,52.06
		c9.75-10.05,22.82-21.75,39.59-32.78c14.35-9.44,27.91-16.1,39.41-20.82c-8.33-12.71-16.67-25.43-25-38.14
		C539.18,547.01,535.68,539.28,532.18,531.55z"/>
	<path class="st15" d="M393.45,535.88c22.53,27.03,44.45,51.01,64,62.88c-6.83,17.35-13.67,34.7-20.5,52.06
		c-13.11-10.67-26.31-21.6-39.59-32.78c-10.39-8.75-20.62-17.48-30.69-26.18c5.19-7.54,10.8-16.81,16-27.83
		C387.5,553.8,390.95,544.23,393.45,535.88z"/>
	<g>
		<g>
			<path d="M529.01,571.56c-3.34,2.83-7.01,5.18-10.94,7.11c-1.64,0.8-3.28,1.63-4.39,3.14c-1.19,1.6-1.82,3.65-2.57,5.47
				c-3.69,8.93-7.38,17.86-11.07,26.8c-0.37,0.89,1.08,1.28,1.45,0.4c3.56-8.62,7.12-17.25,10.69-25.87
				c0.84-2.04,1.49-4.51,2.95-6.21c1.25-1.45,3.18-2.14,4.85-2.99c3.62-1.86,7-4.15,10.1-6.78
				C530.81,572,529.75,570.94,529.01,571.56L529.01,571.56z"/>
		</g>
	</g>
	<g>
		<g>
			<path d="M388.13,570.99c2.62,0.11,5.49,0.22,7.75,1.73c1.81,1.21,3.1,3.54,2.41,5.72c-0.29,0.92,1.15,1.32,1.45,0.4
				c0.85-2.68-0.58-5.51-2.72-7.14c-2.51-1.91-5.86-2.08-8.88-2.21C387.17,569.45,387.17,570.95,388.13,570.99L388.13,570.99z"/>
		</g>
	</g>
	<g>
		<path class="st18" d="M416.95,810.34c-1.17-0.1-2.34-0.23-3.51-0.35c-9.02-38.93-17.52-80.88-25.76-124.33L416.95,810.34z"/>
		<g>
			<path class="st18" d="M417.04,810.42c-1.22-0.09-2.47-0.18-3.71-0.3c0,0-0.02-0.09-0.02-0.09
				c-9.79-41.19-18.1-82.71-26.09-124.28c0,0,0.91-0.19,0.91-0.19C396.37,720.38,408.92,775.14,417.04,810.42L417.04,810.42z
				 M416.86,810.26c-8.44-35.26-21.5-89.6-29.63-124.5c0,0,0.91-0.19,0.91-0.19c5.86,31.2,12,62.34,18.65,93.38
				c2.19,10.35,4.45,20.69,6.78,31.01c0,0-0.12-0.1-0.12-0.1C414.59,809.97,415.71,810.12,416.86,810.26L416.86,810.26z"/>
		</g>
	</g>
	<line class="st19" x1="555.68" y1="681.53" x2="514.68" y2="788.74"/>
	<path class="st9" d="M142.18,78L142.18,78L142.18,78z"/>
	<path class="st9" d="M521.68,568.14"/>
	<path class="st9" d="M521.68,558.87"/>
	<path class="st9" d="M525.68,557.84"/>
	<g>
		<path class="st18" d="M479.73,702.49c3.88,2.21,7.99,4.01,12.23,5.35"/>
		<g>
			<path class="st18" d="M478.97,703.78c3.99,2.26,8.22,4.11,12.59,5.5c1.84,0.59,2.63-2.31,0.8-2.89c-4.13-1.32-8.1-3.06-11.87-5.2
				C478.81,700.24,477.29,702.83,478.97,703.78L478.97,703.78z"/>
		</g>
	</g>
	<path class="st19" d="M483.8,758.77c1.43,0.51,2.86,1.03,4.29,1.54"/>
	<g>
		<path class="st18" d="M491.07,816l-7.55-2.48C486.08,814.19,488.61,815.01,491.07,816z"/>
		<g>
			<path class="st18" d="M491.47,814.55c-2.2-0.72-4.4-1.45-6.6-2.17c-0.32-0.1-0.63-0.21-0.95-0.31c-0.27,0.96-0.53,1.93-0.8,2.89
				c2.56,0.67,5.09,1.5,7.55,2.48c0.73,0.29,1.68-0.32,1.85-1.05C492.71,815.53,492.25,814.87,491.47,814.55
				c-2.46-0.99-4.99-1.81-7.55-2.48c-0.76-0.2-1.66,0.25-1.85,1.05c-0.19,0.83,0.25,1.58,1.05,1.85c2.2,0.72,4.4,1.45,6.6,2.17
				c0.32,0.1,0.63,0.21,0.95,0.31c0.75,0.25,1.67-0.28,1.85-1.05C492.7,815.57,492.27,814.82,491.47,814.55z"/>
		</g>
	</g>
	<path class="st20" d="M633.68,576.39c-5.13-6.64-12.35-9.08-16-10.31c-1.98-0.67-17.98-5.78-33,3.09
		c-15.89,9.39-25.8,31.54-19,47.42c8.98,20.97,45.34,26.86,63,9.28C641.23,613.38,643.84,589.56,633.68,576.39z"/>
	<path class="st21" d="M642.18,599.72c-20.57-20.2-46.59-23.73-76.9-14.15c-1.2,3.03-2.4,6.07-3.6,9.1
		c25.52,0.79,51.47,3.14,79.3,12.13C641.38,604.44,641.78,602.08,642.18,599.72z"/>
	<path class="st21" d="M309.78,597.94c17.99-20.2,40.74-23.73,67.25-14.15c1.05,3.03,2.1,6.07,3.15,9.1
		c-22.31,0.79-45.01,3.14-69.35,12.13C310.48,602.66,310.13,600.3,309.78,597.94z"/>
	<g>
		<g>
			<path d="M445.22,507.37c14.9,1.5,31.23,1.64,43.56-8.14c0.76-0.6-0.31-1.65-1.06-1.06c-11.97,9.49-28.09,9.15-42.5,7.7
				C444.26,505.77,444.26,507.27,445.22,507.37L445.22,507.37z"/>
		</g>
	</g>
	<g>
		<path d="M470.22,811.42c-4.41-43.75-6.6-94.14-10.04-138.08c0,0,0.99-0.11,0.99-0.11c4.89,34.14,8.05,69.03,9.76,103.48
			c0.48,11.54,0.69,23.1,0.28,34.67L470.22,811.42L470.22,811.42z"/>
	</g>
	<g>
		<path d="M482.57,695.45c-0.31,4.73,3.68,9.5,8.61,9.27c7.78-0.09,11.29-10.02,5.84-15.26
			C491.84,684.22,482.71,688.14,482.57,695.45L482.57,695.45z M480.79,695.45c-0.35-9.73,11.29-15.13,18.08-7.75
			c3.92,4.16,3.69,11.25-0.41,15.12C492.06,709.24,480.97,704.36,480.79,695.45L480.79,695.45z"/>
	</g>
	<g>
		<path d="M482.55,750.08c-0.29,4.74,3.7,9.46,8.62,9.28c7.83-0.06,11.39-10.06,5.9-15.33
			C491.87,738.73,482.67,742.74,482.55,750.08L482.55,750.08z M480.8,750.08c-0.32-9.7,11.26-15,18-7.69
			c3.89,4.14,3.69,11.16-0.38,15.03C492.05,763.88,480.95,759.01,480.8,750.08L480.8,750.08z"/>
	</g>
	<g>
		<path d="M502.68,804.71c-0.21,8.91-11.36,13.77-17.79,7.38c-6.84-6.48-2.38-18.71,7.29-18.75
			C498.16,793.16,503.06,798.96,502.68,804.71L502.68,804.71z M500.68,804.71c-0.2-7.13-9.16-10.96-14.25-5.89
			c-5.47,5.16-2.02,15.07,5.75,15.16C497.1,814.2,501.05,809.41,500.68,804.71L500.68,804.71z"/>
	</g>
	<g>
		<g>
			<path class="st18" d="M535.15,788.68c9.99,0,19.97,0,29.96,0c1.93,0,1.93-3,0-3c-9.99,0-19.97,0-29.96,0
				C533.22,785.68,533.22,788.68,535.15,788.68L535.15,788.68z"/>
		</g>
	</g>
	<g>
		<g>
			<path class="st18" d="M336.92,642.78c-6.07,22.87-10.51,46.15-13.29,69.64c-0.8,6.72-1.46,13.47-1.98,20.22
				c-0.15,1.93,2.85,1.92,3,0c1.83-23.49,5.32-46.84,10.46-69.83c1.44-6.44,3.01-12.85,4.71-19.23
				C340.31,641.71,337.42,640.92,336.92,642.78L336.92,642.78z"/>
		</g>
	</g>
	<g>
		<g>
			<path class="st18" d="M627.7,631.43c-8.05,9.18-15.93,18.5-23.65,27.95c-1.21,1.48,0.9,3.62,2.12,2.12
				c7.72-9.46,15.6-18.78,23.65-27.95C631.09,632.1,628.98,629.97,627.7,631.43L627.7,631.43z"/>
		</g>
	</g>
	<g>
		<g>
			<path class="st18" d="M348.27,599.48c10.31,2.84,20.71,5.37,31.17,7.6c1.88,0.4,2.69-2.49,0.8-2.89
				c-10.46-2.23-20.86-4.76-31.17-7.6C347.2,596.08,346.41,598.97,348.27,599.48L348.27,599.48z"/>
		</g>
	</g>
	<g>
		<path class="st22" d="M331.34,791.65l-24.23-59.09c-10.98-0.34-21.95-0.69-32.93-1.03c-0.75,3.91-1.47,7.09-2,9.27
			c-1.61,6.65-4.55,17.19-5.48,20.83c-0.02,0.1-0.05,0.2-0.07,0.29v0.04c-0.61,2.44-1.05,4.22-1.09,4.38
			c-0.01,0.05-0.03,0.11-0.04,0.17c0.18,0.11,0.35,0.21,0.53,0.31c0.21,0.12,0.41,0.24,0.63,0.36c0.01,0.01,0.03,0.01,0.04,0.02
			c2.74,1.57,5.51,3.11,8.31,4.61c10.2,5.5,20.68,10.53,31.44,15.07h0.02c4.01,1.69,8.06,3.31,12.14,4.87
			c4.01,1.52,8.02,2.98,12.09,4.37h0.02c0.82,0,1.64,0.01,2.46,0.02L331.34,791.65z"/>
		<path class="st23" d="M320.44,786.94l-13.97-0.06h-0.02c-10.76-4.54-21.24-9.57-31.44-15.07c-2.8-1.5-5.57-3.04-8.31-4.61
			c-0.01-0.01-0.03-0.01-0.04-0.02c0.06-0.28,0.13-0.56,0.2-0.84l44.6,0.21L320.44,786.94z"/>
		<path class="st24" d="M309.77,762.12l-41.84-0.2c1.65-6.77,3.29-13.56,4.93-20.33l27.93,0.13L309.77,762.12z"/>
	</g>
	<g>
		<path class="st22" d="M665.32,741.92c-0.61-2.95-1.25-6.13-2.14-10.39c-0.44-2.11-1.13-5.32-2-9.28
			c-11.54,0.16-23.08,0.32-34.62,0.48l-23.12,55.63l-2.59,6.23l13.16-7.49l36.09-20.52l7.8-4.45h0.02l6.56-3.73l1.99-1.13
			C666.06,745.43,665.69,743.71,665.32,741.92z"/>
		<path class="st23" d="M652.75,756.57c-0.75,0.5-1.5,0.98-2.26,1.46c-2.3,1.47-4.61,2.91-6.95,4.32
			c-8.69,5.27-17.61,10.19-26.75,14.74l-2.78,0.01l-1.14,0.01l8.98-20.39l28.25-0.14L652.75,756.57z"/>
		<path class="st24" d="M623.54,752.29l41.84-0.2c-1.65-6.77-3.29-13.55-4.93-20.33l-27.93,0.13L623.54,752.29z"/>
	</g>
</g>
</svg>
