<?xml version="1.0" encoding="utf-8"?>
<!-- Generator: Adobe Illustrator 28.3.0, SVG Export Plug-In . SVG Version: 6.00 Build 0)  -->
<svg version="1.1" id="Layer_1" xmlns="http://www.w3.org/2000/svg" xmlns:xlink="http://www.w3.org/1999/xlink" x="0px" y="0px"
	 viewBox="0 0 2063 1142" style="enable-background:new 0 0 2063 1142;" xml:space="preserve">
<style type="text/css">
	.st0{fill:#7C1C33;}
	.st1{fill:url(#SVGID_1_);}
	.st2{opacity:0.3;fill:#FFFFFF;}
</style>
<g>
	<path class="st0" d="M940.04,721.61L817.52,862.22c-31.83,49.23-79.58,86.08-135.28,104.4l-226.66,63.66L416.1,910.21l185.6-128.54
		C716.76,741.91,829.6,721.45,940.04,721.61z"/>
	<path class="st0" d="M842.31,435.73l-182.97-36.18c-55.31-19.44-115.62-19.35-170.87,0.28l-218.21,88.41l42.29,119.11L538,595.37
		C653.34,556.36,755.08,503.47,842.31,435.73z"/>
	<linearGradient id="SVGID_1_" gradientUnits="userSpaceOnUse" x1="538.1196" y1="494.3056" x2="1765.3776" y2="494.3056">
		<stop  offset="0" style="stop-color:#FDF53F"/>
		<stop  offset="1" style="stop-color:#D93C65"/>
	</linearGradient>
	<path class="st1" d="M1765.38,279.83c0,0-26.32,71.4-100.33,154.44c-66.29,75.05-170.92,159.51-329.01,210.06
		c-22.94,7.25-47.18,14.08-72.62,19.85l-22.59,3.97l-45.42,8.03L601.74,781.55l-30.72-93.42l-32.91-92.69l533.94-280.09l40.83-21.47
		l20.29-10.68c23.65-11.02,46.99-20.46,69.58-28.77c155.94-56.81,290.39-54.06,388.72-35.31
		C1700.85,239.49,1765.38,279.83,1765.38,279.83z"/>
	<path class="st0" d="M1271.7,448.6l64.35,195.73c-22.94,7.25-47.18,14.08-72.62,19.85l-62.88-191.27l-67.36-189.71
		c23.65-11.02,46.99-20.46,69.58-28.77L1271.7,448.6z"/>
	<polygon class="st0" points="1179.07,480.26 1240.84,668.14 1195.42,676.17 1135.86,495.03 1072.06,315.35 1112.9,293.88 	"/>
	<path class="st0" d="M1765.38,279.83c0,0-26.32,71.4-100.33,154.44l-35.51-108.01l-38.05-107.14
		C1700.85,239.49,1765.38,279.83,1765.38,279.83z"/>
	<polygon class="st0" points="887.87,562.91 894.81,584.01 372.15,776.56 352.93,718.07 	"/>
	<path class="st2" d="M620.32,750.49l570.32-101.25l66.75-11.74c22.41-5.1,45.45-11.38,70.33-19.22
		c127.88-40.88,234.48-108.88,316.9-202.21c44.26-49.65,70.59-94.98,83.97-121.5c-161.86,248.91-611.52,353.55-1116.85,429.8
		L620.32,750.49z"/>
</g>
</svg>
