<?xml version="1.0" encoding="utf-8"?>
<!-- Generator: Adobe Illustrator 28.3.0, SVG Export Plug-In . SVG Version: 6.00 Build 0)  -->
<svg version="1.1" id="Layer_1" xmlns="http://www.w3.org/2000/svg" xmlns:xlink="http://www.w3.org/1999/xlink" x="0px" y="0px"
	 viewBox="0 0 1107.8 740" style="enable-background:new 0 0 1107.8 740;" xml:space="preserve">
<style type="text/css">
	.st0{fill:#080D1D;}
	.st1{fill:#080D1D;stroke:#FFFFFF;stroke-miterlimit:10;}
	.st2{fill:none;stroke:#FFFFFF;stroke-miterlimit:10;}
</style>
<path class="st0" d="M262.1,228.7c-18.9-46.7-95.2-72.1-117.8-50.8c-13.3,12.6-0.8,34.6,15.2,104.6
	c29.8,130.3,15.8,191.8,57.9,212.2c3.9,1.9,21.4,10.4,33.5,3c26.7-16.2-14.5-84.4,1-185.8C259.1,265.1,271.9,253.1,262.1,228.7z"/>
<path class="st1" d="M249.9,513.1c0,0,54.8,28.4,67,28.4c3.5-2.9,4.1-8.2,3.8-12.8c0,0,0.1-4.8-1.8-9.5
	c-3.1-8.1-26.4-18.3-26.4-18.3c-15.7-6.8-21.8-7.4-26.4-14.2c-2.9-4.3-4.1-12.2-4.1-12.2"/>
<path class="st1" d="M137.2,185.1c1.5,44.1-21.4,194.8-28.4,195c0,0,41.2,95.1,56.9,144.2l144.2,38.6c1-4.1,1.2-7.8,1-11.2
	c-1.8-34.4-49.4-54.6-54.8-56.9"/>
<path class="st1" d="M262.1,253.1c8.1,58.9-2,123.9-2,123.9c2.5,31.9,5.1,63.6,16.2,83.3c-3.5,13.2-14.4,16.2-30.5,12.2
	c-13.8-11.2-22.7-45.2-30.5-85.3c0,0-39-19.9-39.5-19c0,0.1,0.2,0.3,0.9,0.8"/>
<path class="st2" d="M166.6,391.2c14.5,30.5,27,60.9,36.6,91.4"/>
<path class="st0" d="M831.7,235.5c18.9-46.7,95.2-72.1,117.8-50.8c13.3,12.6,0.8,34.6-15.2,104.6c-29.8,130.3-15.8,191.8-57.9,212.2
	c-3.9,1.9-21.4,10.4-33.5,3c-26.7-16.2,14.5-84.4-1-185.8C834.7,271.9,821.8,259.9,831.7,235.5z"/>
<path class="st1" d="M843.9,519.9c0,0-54.8,28.4-67,28.4c-3.5-2.9-4.1-8.2-3.8-12.8c0,0-0.1-4.8,1.8-9.5
	c3.1-8.1,26.4-18.3,26.4-18.3c15.7-6.8,21.8-7.4,26.4-14.2c2.9-4.3,4.1-12.2,4.1-12.2"/>
<path class="st1" d="M956.6,191.9c-1.5,44.1,21.4,194.8,28.4,195c0,0-41.2,95.1-56.9,144.2L784,569.6c-1-4.1-1.2-7.8-1-11.2
	c1.8-34.4,49.4-54.6,54.8-56.9"/>
<path class="st1" d="M831.7,259.9c-8.1,58.9,2,123.9,2,123.9c-2.5,31.9-5.1,63.6-16.2,83.3c3.5,13.2,14.4,16.2,30.5,12.2
	c13.8-11.2,22.7-45.2,30.5-85.3c0,0,39-19.9,39.5-19c0,0.1-0.2,0.3-0.9,0.8"/>
<path class="st1" d="M927.2,398c-14.5,30.5-27,60.9-36.6,91.4"/>
</svg>
