<?xml version="1.0" encoding="utf-8"?>
<!-- Generator: Adobe Illustrator 28.3.0, SVG Export Plug-In . SVG Version: 6.00 Build 0)  -->
<svg version="1.1" id="Layer_1" xmlns="http://www.w3.org/2000/svg" xmlns:xlink="http://www.w3.org/1999/xlink" x="0px" y="0px"
	 viewBox="0 0 818 820" style="enable-background:new 0 0 818 820;" xml:space="preserve">
<style type="text/css">
	.st0{display:none;fill:#426646;}
	.st1{fill:#426646;stroke:#000000;stroke-miterlimit:10;}
	.st2{fill:#FFE3CB;stroke:#000000;stroke-miterlimit:10;}
	.st3{fill:#FFB995;}
	.st4{fill:none;stroke:#000000;stroke-miterlimit:10;}
	.st5{fill:#332C26;}
	.st6{fill:none;stroke:#FFB995;stroke-miterlimit:10;}
	.st7{stroke:#000000;stroke-miterlimit:10;}
	.st8{fill:#FF3858;}
	.st9{fill:#FFFFFF;stroke:#000000;stroke-miterlimit:10;}
	.st10{fill:#FFB995;stroke:#FFB995;stroke-miterlimit:10;}
	.st11{fill:#FFB995;stroke:#000000;stroke-width:0.5;stroke-miterlimit:10;}
	.st12{fill:#8DA1A9;}
	.st13{fill:#304D37;stroke:#000000;stroke-miterlimit:10;}
	.st14{fill:#597590;}
	.st15{fill:#426646;}
	.st16{stroke:#000000;stroke-width:5;stroke-miterlimit:10;}
	.st17{fill:#5B7077;stroke:#000000;stroke-miterlimit:10;}
	.st18{fill:#20382B;stroke:#20382B;stroke-miterlimit:10;}
	.st19{fill:none;stroke:#20382B;stroke-width:3;stroke-miterlimit:10;}
	.st20{fill:#231F20;stroke:#000000;stroke-width:3;stroke-miterlimit:10;}
	.st21{fill:none;stroke:#000000;stroke-width:3;stroke-miterlimit:10;}
	.st22{fill:none;stroke:#000000;stroke-width:7;stroke-miterlimit:10;}
</style>
<path class="st0" d="M232.81,296.44c3.73,59.65,34.8,136.7,34.8,136.7s11.18,55.92,123.03,103.15
	c19.11-7.03,78.89-31.74,120.55-96.94c26.1-67.11,38.96-130.11,37.28-150.38c-11.21-70.41-67.41-161.74-152.86-164.05
	C305.85,122.51,242.29,219.88,232.81,296.44z"/>
<g>
	<path class="st1" d="M610.75,294.25c-2.36-31.38-8.23-56.75-12.83-73.32c-20.61-21.59-77.09-74.91-165.68-90.72
		c-118.58-21.16-207.85,40.38-227.52,54.68c-6.56,10.08-15.94,26.97-21,49.71c-4.69,21.07-3.7,38.27-2.33,53.44
		c9.46,104.82,44.13,191.75,55.58,219.2l0,0c16.34,40.07,32.68,80.14,49.02,120.21l247.35,2.49c18.39-49.4,31.71-91.61,40.92-122.94
		C614.22,371.03,612.56,318.26,610.75,294.25z M470.5,486.5c-34.99,0-64.45-28.16-73.29-66.49c-13.14,32.87-40.54,55.49-72.21,55.49
		c-44.46,0-80.5-44.55-80.5-99.5s36.04-99.5,80.5-99.5c38.18,0,70.15,32.85,78.42,76.93c12.79-28.52,6.08-107.93,61.08-102.93
		c41.8,3.8,82,95.52,82,145.5C546.5,445.98,512.47,486.5,470.5,486.5z"/>
	<path class="st2" d="M472.66,461.73c3.27,29.27-7.46,16.16-9.94,111.85c-3.66,11.52-11.14,32.08-27.34,53.44
		c-12.46,16.43-23.18,30.57-37.28,31.07c-23.52,0.83-41.71-36.85-49.71-53.44c-16.8-34.8-7.46-79.54-13.67-131.73
		C360.87,440.3,420.08,432.02,472.66,461.73z"/>
	<g>
		<path class="st3" d="M337.82,472.29c14.91-7.98,45.29-21.5,84.92-20.02c20.91,0.78,38.18,5.5,50.54,10.07
			c-2.49,18.64-4.97,37.28-7.46,55.92c0,0-28.62,23.3-45.13,28.54c-21.42,6.8-40.9,6.1-57.9,5.24c-10.48-0.53-19.1-1.73-24.98-2.71"
			/>
	</g>
	<path class="st4" d="M240.27,358.43"/>
	<path class="st5" d="M569.6,301.41c16.5-15.09-11.68-97.84-69.96-140.76c-76.35-56.22-209.51-47.86-261.86,25.18
		c-28.75,40.11-34.25,101.3-13.67,114.33c35.84,22.7,155.37-104.28,169.64-90.1c6.19,6.15-13.82,32.51-5.59,40.39
		c8.71,8.34,32.22-20.13,61.52-15.53c28.95,4.54,30.07,36.12,73.32,57.17C533.01,296.96,559.85,310.32,569.6,301.41z"/>
	<g>
		<g>
			<path d="M372.12,209.52c0.96-4.51,1.43-9.12,1.39-13.73c-0.01-1.07-1.29-1.96-2.26-1.3c-4.21,2.9-8.05,6.3-11.41,10.17
				c-0.53,0.61-0.6,1.52,0,2.12c0.54,0.54,1.59,0.61,2.12,0c3.18-3.67,6.8-6.94,10.8-9.7c-0.75-0.43-1.5-0.86-2.26-1.3
				c0.04,4.35-0.37,8.67-1.28,12.93c-0.17,0.79,0.23,1.62,1.05,1.85C371.02,210.77,371.95,210.31,372.12,209.52L372.12,209.52z"/>
		</g>
	</g>
	<g>
		<path d="M443.39,230.7c-0.92,0.01-1.04-9.11-3.86-27.15c-1.77-11.35-3.69-20.64-5.1-26.94c3.38,5.66,7.62,14.28,9.65,25.38
			C446.81,216.9,444.52,230.68,443.39,230.7z"/>
		<g>
			<path d="M443.39,229.2c0.69,0.05,0.78,0.26,1.11,0.6c-0.18-0.19,0.07,0.36,0.03,0.09c-0.03-0.22-0.13-0.46-0.18-0.68
				c-0.19-0.88-0.22-1.33-0.32-2.11c-0.35-2.9-0.64-5.81-0.98-8.71c-1.15-9.79-2.65-19.54-4.49-29.22
				c-0.82-4.33-1.72-8.65-2.68-12.96c-0.91,0.39-1.83,0.77-2.74,1.16c8.32,13.98,12.02,30.36,10.37,46.57
				c-0.14,1.42-0.33,2.83-0.65,4.22c-0.1,0.45-0.22,0.9-0.38,1.34c-0.03,0.08-0.07,0.28,0.02-0.03c-0.01,0.02-0.09,0.16-0.09,0.17
				c0,0-0.07,0.13-0.08,0.14c0.2-0.11,0.57-0.5,0.66-0.51c-1.9,0.28-1.09,3.17,0.8,2.89c1.75-0.26,2.07-3.57,2.28-4.85
				c0.62-3.75,0.82-7.58,0.79-11.38c-0.07-9.88-1.86-19.72-5.58-28.88c-1.57-3.87-3.42-7.6-5.55-11.18
				c-0.89-1.49-3.11-0.49-2.74,1.16c2.06,9.24,3.81,18.56,5.25,27.92c1.17,7.65,1.9,15.35,2.91,23.02c0.2,1.5,0.24,4.1,2.25,4.25
				C445.31,232.34,445.3,229.34,443.39,229.2z"/>
		</g>
	</g>
	<g>
		<g>
			<path d="M574.95,302.58c0-4.37,0-8.74,0-13.11c0-1.93-3-1.93-3,0c0,4.37,0,8.74,0,13.11
				C571.95,304.51,574.95,304.51,574.95,302.58L574.95,302.58z"/>
		</g>
	</g>
	<g>
		<g>
			<path d="M300.92,152.11c11.28-0.83,22.64-0.42,33.83,1.28c1.89,0.29,2.7-2.6,0.8-2.89c-11.46-1.74-23.06-2.23-34.62-1.39
				C299.01,149.25,298.99,152.25,300.92,152.11L300.92,152.11z"/>
		</g>
	</g>
	<g>
		<g>
			<path d="M423.35,161.52c-2.05-4.23-5.84-7.46-10.28-8.96c-0.74-0.25-1.67,0.29-1.85,1.05c-0.19,0.83,0.25,1.58,1.05,1.85
				c0.25,0.08,0.49,0.17,0.74,0.27c0.09,0.03,0.3,0.12,0.1,0.04c0.13,0.06,0.26,0.11,0.39,0.17c0.48,0.22,0.94,0.46,1.39,0.73
				c0.43,0.25,0.85,0.53,1.26,0.82c0.1,0.07,0.19,0.14,0.29,0.21c0.37,0.28-0.21-0.18,0.15,0.12c0.2,0.17,0.4,0.33,0.6,0.51
				c0.37,0.33,0.73,0.68,1.07,1.05c0.18,0.19,0.35,0.39,0.52,0.59c0.08,0.09,0.15,0.18,0.23,0.27c0.01,0.01,0.28,0.37,0.12,0.15
				c0.63,0.84,1.17,1.73,1.63,2.68c0.34,0.71,1.41,0.95,2.05,0.54C423.53,163.11,423.71,162.28,423.35,161.52L423.35,161.52z"/>
		</g>
	</g>
	<g>
		<g>
			<path d="M526.11,160.79c7.97,14.07,15.24,28.52,21.76,43.32c1.86,4.23,3.66,8.49,5.4,12.78c0.72,1.77,3.62,0.99,2.89-0.8
				c-6.16-15.17-13.06-30.04-20.72-44.52c-2.19-4.13-4.44-8.23-6.74-12.3C527.74,157.59,525.15,159.1,526.11,160.79L526.11,160.79z"
				/>
		</g>
	</g>
	<g>
		<g>
			<path d="M219.05,235.88c0.51-3.84,1.93-7.51,3.5-11.03c1.61-3.61,3.31-7.19,5.02-10.75c3.51-7.3,7.16-14.52,10.97-21.67
				c2.19-4.1,4.42-8.18,6.7-12.23c0.95-1.68-1.64-3.2-2.59-1.51c-8.18,14.54-15.91,29.41-22.69,44.66
				c-1.8,4.04-3.32,8.14-3.91,12.54c-0.11,0.81,0.77,1.49,1.5,1.5C218.45,237.38,218.95,236.68,219.05,235.88L219.05,235.88z"/>
		</g>
	</g>
	<path class="st6" d="M210.44,332.48c-1.47,4.67-3.8,14.36-1.24,26.1c1.72,7.88,5.01,13.77,7.46,17.4"/>
	<path class="st6" d="M584.64,331.02c1.47,4.67,3.8,14.36,1.24,26.1c-1.72,7.88-5.01,13.77-7.46,17.4"/>
	<path class="st7" d="M458.99,449.3c-8.34-0.78-102.82,7.92-114.33,14.91c-15.79,9.58,22.98,51.81,58.41,50.95
		C444.53,514.16,477.96,451.07,458.99,449.3z"/>
	<path class="st8" d="M460.24,471.67c-31.23-3.76-55.32-1.63-72.08,1.24c0,0-3.39,0.58-43.5,8.7l0,0c0,0,23.61,34.8,62.14,33.55
		C424.2,512.68,445.32,497.77,460.24,471.67z"/>
	<path class="st9" d="M355.84,469.18c27.06-4.83,76.34-5.63,95.69-12.43c3.31-1.16,4.68-6.58,2.49-7.46
		c-5.49-2.19-105.54,11.29-105.64,13.67C348.36,463.74,347.92,470.6,355.84,469.18z"/>
	<line class="st10" x1="405.55" y1="352.36" x2="389.4" y2="362.31"/>
	<line class="st10" x1="406.8" y1="358.58" x2="380.7" y2="374.73"/>
	<line class="st10" x1="419.23" y1="374.73" x2="383.18" y2="395.86"/>
	<path class="st11" d="M398.1,407.67c-0.21,4.97-0.41,9.94-0.62,14.91c-2.28-2.07-4.56-4.14-6.84-6.21"/>
	<path class="st12" d="M554.02,632.47c-4.21-13.69-21.33-19.98-33.51-19.74c-27.4,0.52-51.53,34.43-44.74,49.71
		c7.04,15.85,50.67,19.07,69.55-1.38C546.4,659.88,558.36,646.55,554.02,632.47z"/>
	<path class="st4" d="M468.94,558.66"/>
	<path class="st4" d="M468.94,547.48"/>
	<path class="st4" d="M473.91,546.24"/>
	<path class="st13" d="M519.89,537.54"/>
	<g>
		<path class="st14" d="M602.01,636.24c-10,11.06-19.79,22.29-29.39,33.7"/>
		<g>
			<path class="st14" d="M600.95,635.18c-9.99,11.06-19.79,22.29-29.39,33.7c-1.24,1.47,0.88,3.6,2.12,2.12
				c9.59-11.41,19.39-22.64,29.39-33.7C604.37,635.87,602.25,633.74,600.95,635.18L600.95,635.18z"/>
		</g>
	</g>
	<path class="st15" d="M227.47,412.93c3.64-22.98,13.89-64.37,47.23-97.91c67.49-67.89,202.12-75.94,259.74-5.58
		c32.2,39.31,30.32,90.85,27.34,115.92c13.66-17.59,56.24-77.03,53.1-161.24c-1.98-53.08-21.27-92.87-33.21-113.41
		c-34.63-14.44-85.8-30.7-149.13-33.55c-114.09-5.13-200.63,36.3-239.85,58.41c-6.74,26.66-14.89,73.57-4.97,130.49
		C196.11,354.29,214.18,390.71,227.47,412.93z"/>
	<path class="st16" d="M465.02,574c14.5,3.31,29,6.63,43.5,9.94c-14.5,23.61-29,47.23-43.5,70.84
		c-20.03,23.91-48.63,28.04-82.02,21.13c-19.93-0.77-37.31-12.09-53.44-28.58c-15.65-13.2-27.22-36.73-38.53-60.9
		c15.33-3.73,33.55-9.94,45.98-11.18c2.44,17.69,8.31,35.65,27.34,54.68c4.85,2.01,36.35,14.51,64.62-1.24
		c2.41-1.34,13.32-7.64,22.63-20.56C461.42,594.51,464.13,580.92,465.02,574z"/>
	<path class="st12" d="M259.97,598.86c-5.2-3.47-8.82-11.17-6.21-16.16c3.15-6.02,14.2-5.83,21.13-2.49
		c4.71,2.27,10.89,7.62,9.94,12.43C283.52,599.23,268.83,604.78,259.97,598.86z"/>
	<g>
		<path d="M542.25,619.17c-20.57,16.2-40.58,33.1-60,50.66"/>
	</g>
	<g>
		<path class="st14" d="M282.23,630.66c5.28,8.56,11.8,16.34,19.31,23.03"/>
		<g>
			<path class="st14" d="M280.93,631.41c5.36,8.66,11.95,16.54,19.54,23.33c1.43,1.28,3.56-0.83,2.12-2.12
				c-7.41-6.63-13.83-14.27-19.07-22.73C282.51,628.26,279.91,629.76,280.93,631.41L280.93,631.41z"/>
		</g>
	</g>
	<path class="st12" d="M512.52,594.5h37.28v-9.94c-10.77-1.24-21.54-2.49-32.31-3.73C515.84,585.39,514.18,589.94,512.52,594.5z"/>
	<path class="st15" d="M204.65,176.03c4.97-0.73,15.25,4.82,15.87,11.34c0.14,1.49-0.13,3.1-0.96,4.81
		c-49.67,102.56,54.44,291.22,60.9,292.05c0.3,0.04,3.22,0.39,3.2,0.71c-0.03,0.81-19.68,0.92-24.33,0.54
		c-37.87-3.14-76.4-121.61-72.08-237.37C187.62,238.19,190.17,178.15,204.65,176.03z"/>
	<path class="st15" d="M576.69,156.92c-8.57,0.12-15.87,26.94-26.1,24.86c-3.06-0.62-5.75-3.39-6.21-6.21
		c-0.88-5.28,5.72-12.1,17.4-16.16l0,0l0,0l4.97,6.21c6.33,7.84,14.69,20.21,20.23,37.07c3.33,10.13,4.8,19.33,5.42,26.78
		c1.7,14.13,0.76,24.26-0.47,44c-1.67,26.91-6.74,61.34-20.66,110.1c0,0-22.19,102.27-50.86,106.38c-0.36,0.05-3.21,0.42-3.2,0.71
		c0.04,1.08,33.7,0.47,36.76-0.71c45.47-17.43,54.36-136.64,55.35-154.42C614.69,239,591.77,156.71,576.69,156.92z"/>
	<path class="st15" d="M578.72,172.31c-10.42-3.16-20.25,5.19-28.58,9.94c-7.95,4.53,32.41,32.45,33.55,91.96
		c0.09,4.46,8.44,3.12,12.43,1.24C615.88,266.14,609.52,181.64,578.72,172.31z"/>
	<path class="st17" d="M455.07,538.3c-27.74,30.42-91.73,30.99-116.82,2.49c-40.36-45.85,21.44-165.21,63.38-164.05
		C441.71,377.86,499.06,490.05,455.07,538.3z"/>
	<path class="st15" d="M453.82,681.22c42.35-20.04,82.97-67.96,72.08-99.42c-20.25-58.49-221.53-68.76-248.55-11.18
		c-14.27,30.4,18.63,82.7,59.65,106.88C391.42,709.57,447.01,684.44,453.82,681.22z"/>
	<path class="st18" d="M309.66,548.24c-27.39-0.61-48.94-20.19-71.46-36.66"/>
	<path class="st18" d="M495.79,542.13c27.39-0.61,48.94-20.2,71.46-36.66"/>
	<path class="st18" d="M196.57,215.18c20.02,1.25,53.34,0.62,90.72-13.67c23.03-8.81,40.83-20.21,53.44-29.83"/>
	<path class="st18" d="M437.67,144.34c19.52-2.81,63.8-6.27,109.36,17.4c17.7,9.2,31.2,20.2,41.01,29.83"/>
	<path class="st19" d="M182.28,255.57c31.18-19.77,85.25-48.16,157.83-58.41c113.66-16.04,202.46,22.32,237.37,39.77"/>
	<path class="st1" d="M241.31,559.43c-22.1,15.51-39.65,36.85-52.2,64.62c25.25,19.62,105.56,76.86,223.7,79.16
		c116.89,2.27,198.72-50.64,224.94-69.22c-4.07-27.4-42.75-50.65-75.81-74.57"/>
	<path class="st18" d="M573.13,661.34c-1.89-16.66-70.79-32.32-124.28-11.18c-30.46,12.04-68.05,40.79-64.56,48.47
		c0.31,0.69,0.89,1.06,1.18,1.24C399.36,708.48,576.23,688.56,573.13,661.34z"/>
	<path class="st18" d="M548.28,568.13c-18.18,21.05-50.65,28.52-86.99,32.31c0,0,20.53,10.3,59.65,12.43"/>
	<path class="st18" d="M246.28,573.1c20.48,18.78,49.48,34.12,99.42,41.01"/>
	<path class="st20" d="M384.68,380c-5.53-45.24-24.36-83.24-49.71-88.24c-38.66-7.62-92.05,61.7-80.78,114.33
		c4.1,19.15,18.91,46.22,39.77,49.71c16.17,2.71,33.84-14.03,34.8-4.97c0.55,5.26-5.02,31.68-8.7,41.01
		c-6.71,17.03-58.63-10.56-79.54-43.5c-31.18-49.11-13.74-127.65,32.31-172.74c44.27-43.35,102.38-43.46,121.79-43.5
		c19.18-0.04,81.46-0.16,128.01,48.47c3.05,3.18,42.44,45.57,43.5,106.88c0.41,23.57-5.01,41.3-7.46,48.47
		c-4.43,12.99-12.98,37.03-36.04,53.44c-9.7,6.9-26.23,21.13-38.53,12.43c-12.58-8.9-14.93-55.45-18.64-55.92
		c-7.79-0.99,20.84,8.88,37.28-11.18c16.15-19.71,23-46.66,23.61-55.92c1.74-26.33-7.05-69.93-41.01-85.75
		c-3.65-1.7-20.9-9.71-39.77-3.73c-18,5.71-43.1,37.56-43.5,85.75"/>
	<g>
		<circle class="st12" cx="401.01" cy="517.8" r="75.81"/>
		<path d="M330.08,517.8c-2.09,46.8,39.03,83.92,85.56,73.56c33.89-7.25,58.13-39,55.79-73.56c-1.65-31.82-26.16-59.52-57.51-64.87
			C373.14,445.62,331.68,475.34,330.08,517.8L330.08,517.8z M320.32,517.8c-2.06-45.61,34.21-86.28,80.69-85.68
			c33.81-0.01,65.33,22.11,76.52,53.98c15.08,40.9-6.42,87.61-47.06,102.83C380.73,608.33,322.02,572.1,320.32,517.8L320.32,517.8z"
			/>
	</g>
	<circle class="st7" cx="401.63" cy="522.15" r="7.46"/>
	<line class="st4" x1="359.32" y1="478.59" x2="385.53" y2="504.81"/>
	<line class="st4" x1="381.12" y1="522.15" x2="337.63" y2="522.15"/>
	<line class="st4" x1="402.87" y1="501.64" x2="402.87" y2="466.84"/>
	<line class="st4" x1="402.87" y1="579.93" x2="402.87" y2="545.14"/>
	<line class="st4" x1="359.52" y1="566.17" x2="385.74" y2="539.95"/>
	<line class="st4" x1="419.17" y1="536.25" x2="445.39" y2="562.46"/>
	<line class="st4" x1="419.17" y1="506.54" x2="445.39" y2="480.32"/>
	<line class="st4" x1="466.87" y1="522.15" x2="423.38" y2="522.15"/>
	<path class="st21" d="M483.65,502.26c-19.36-71.03-55.04-126.84-82.02-125.52c-29.02,1.42-73.51,55.2-82.02,123.03
		c-17.02-2.23-41.58-8.47-60.9-27.34c-46.79-45.73-35.97-139.46,7.91-190.61c62.87-73.29,202.2-69.2,262.22,6.21
		c44.09,55.39,48.63,153.33,0.79,194.34C514.67,495.21,497.22,500.2,483.65,502.26z"/>
	<path class="st21" d="M479.92,518.42c-7.91-85.35-50.02-145.03-78.29-141.68c-32.03,3.8-79.37,59.16-79.54,139.19
		c-21.11-1.73-51.42-8.03-75.11-30.29c-55.25-51.91-44.75-162.73,9.69-223.71c70.08-78.5,215.35-77.06,283.35,3.73
		c56.2,66.78,56.62,184.2-0.99,230.7C520.3,511.47,498.27,516.81,479.92,518.42z"/>
	<path class="st22" d="M412.02,376.27c42.54,23.74,42.66,57.4,52.2,65.87c1.28,1.14,19.77,11.64,37,5.59
		c26.91-9.46,39.93-55.62,30.11-87.61c-13.86-45.19-98.22-147.34-128.66,9.55C401.96,373.33,406.63,373.26,412.02,376.27z"/>
	<path class="st22" d="M379.71,381.24c-11.43,11.59-19.4,21.93-26.1,31.07c-21.48,29.3-17.96,30.02-24.86,34.8
		c-11.7,8.1-29.26,11.24-42.85,5.97c-28.37-11-39.57-56.78-30.11-87.61c13.86-45.19,98.22-147.34,128.66,9.55
		c0.17,0.85-0.1,1.63-0.1,1.63C383.22,377.74,381.61,379.32,379.71,381.24z"/>
</g>
</svg>
