<?xml version="1.0" encoding="utf-8"?>
<!-- Generator: Adobe Illustrator 28.3.0, SVG Export Plug-In . SVG Version: 6.00 Build 0)  -->
<svg version="1.1" id="Layer_1" xmlns="http://www.w3.org/2000/svg" xmlns:xlink="http://www.w3.org/1999/xlink" x="0px" y="0px"
	 viewBox="0 0 818 820" style="enable-background:new 0 0 818 820;" xml:space="preserve">
<style type="text/css">
	.st0{display:none;fill:#426646;}
	.st1{fill:#426646;stroke:#000000;stroke-miterlimit:10;}
	.st2{fill:#FFE3CB;stroke:#000000;stroke-miterlimit:10;}
	.st3{fill:#FFB995;}
	.st4{fill:#332C26;}
	.st5{fill:#332C26;stroke:#000000;stroke-miterlimit:10;}
	.st6{fill:none;stroke:#000000;stroke-miterlimit:10;}
	.st7{fill:none;stroke:#FFB995;stroke-miterlimit:10;}
	.st8{stroke:#000000;stroke-miterlimit:10;}
	.st9{fill:#FF3858;}
	.st10{fill:#FFFFFF;stroke:#000000;stroke-miterlimit:10;}
	.st11{fill:#FFB995;stroke:#FFB995;stroke-miterlimit:10;}
	.st12{fill:#FFB995;stroke:#000000;stroke-width:0.5;stroke-miterlimit:10;}
	.st13{fill:#8DA1A9;}
	.st14{fill:#304D37;stroke:#000000;stroke-miterlimit:10;}
	.st15{fill:#597590;}
	.st16{fill:#426646;}
	.st17{stroke:#000000;stroke-width:5;stroke-miterlimit:10;}
	.st18{fill:#5B7077;stroke:#000000;stroke-miterlimit:10;}
	.st19{fill:#20382B;stroke:#20382B;stroke-miterlimit:10;}
	.st20{fill:none;stroke:#20382B;stroke-width:3;stroke-miterlimit:10;}
	.st21{fill:none;stroke:#000000;stroke-width:3;stroke-miterlimit:10;}
	.st22{fill:#FFFFFF;}
	.st23{fill:none;stroke:#000000;stroke-width:4;stroke-miterlimit:10;}
	.st24{opacity:0.5;fill:#231F20;stroke:#000000;stroke-width:3;stroke-miterlimit:10;}
	.st25{fill:none;stroke:#000000;stroke-width:7;stroke-miterlimit:10;}
	.st26{fill:#231F20;stroke:#000000;stroke-width:3;stroke-miterlimit:10;}
</style>
<path class="st0" d="M232.81,296.44c3.73,59.65,34.8,136.7,34.8,136.7s11.18,55.92,123.03,103.15
	c19.11-7.03,78.89-31.74,120.55-96.94c26.1-67.11,38.96-130.11,37.28-150.38c-11.21-70.41-67.41-161.74-152.86-164.05
	C305.85,122.51,242.29,219.88,232.81,296.44z"/>
<g>
	<path class="st1" d="M533.72,630.05c17.96-48.23,30.96-89.44,39.95-120.03c39.01-132.73,37.4-184.25,35.63-207.7
		c-2.31-30.63-8.03-55.41-12.53-71.59c-20.13-21.08-75.27-73.14-161.75-88.57c-115.77-20.66-202.92,39.42-222.13,53.39
		c-6.4,9.84-15.56,26.33-20.5,48.53c-4.58,20.57-3.62,37.36-2.28,52.17c9.24,102.33,43.08,187.2,54.26,214l0,0
		c15.95,39.12,31.9,78.24,47.86,117.36"/>
	<path class="st2" d="M474.49,465.83c3.19,28.57-7.28,15.77-9.71,109.2c-3.57,11.24-10.88,31.32-26.69,52.17
		c-12.16,16.04-22.63,29.85-36.4,30.33c-22.96,0.81-40.72-35.98-48.53-52.17c-16.4-33.98-7.28-77.65-13.35-128.61
		C365.35,444.91,423.15,436.83,474.49,465.83z"/>
	<g>
		<path class="st3" d="M342.84,476.15c14.55-7.79,44.22-20.99,82.91-19.54c20.42,0.76,37.27,5.37,49.34,9.84
			c-2.43,18.2-4.85,36.4-7.28,54.6c0,0-27.94,22.74-44.06,27.86c-20.92,6.64-39.93,5.96-56.52,5.11
			c-10.23-0.52-18.65-1.68-24.39-2.64"/>
	</g>
	<path class="st4" d="M582.47,333.58c7.63-11.13,28.4-38.99,24.27-73.25c-5.46-45.3-51.28-81.3-92.57-93.29
		c-50.85-14.76-107.42,3.25-110.41-8.49c-0.37-1.46,0.05-3.53,1.21-4.85c6.15-7.01,33.43,6.16,32.76,8.49
		c-0.37,1.29-9.65,0.42-43.68-7.28c-2.38-2.08-6.5-5.4-12.13-8.49c-63.56-34.83-170.65,41.86-168.65,46.11
		c2.03,4.32,126.06-47.17,127.4-43.68c0.26,0.68-3.64,4.85-3.64,4.85c-15.88,3.25-35.1,8.72-55.81,18.2
		c-35.51,16.25-60.63,37.5-76.44,53.39c-2.19,33-0.66,96.84,41.61,143.49C330.63,461.74,520.81,423.52,582.47,333.58z"/>
	<path class="st2" d="M216.05,322.66c-12.59,5.55-12.21,30.9-12.13,33.97c1.33,52.36,67.38,83.05,71.59,84.93
		c14.62,6.56,29.85,13.39,36.4,7.28c12.66-11.81-15.43-64.26-48.53-98.28C251.97,338.85,230.16,316.44,216.05,322.66z"/>
	<path class="st2" d="M584.2,323.19c12.59,5.55,12.21,30.9,12.13,33.97c-1.33,52.36-67.38,83.05-71.59,84.93
		c-14.62,6.56-29.85,13.39-36.4,7.28c-12.66-11.81,15.43-64.26,48.53-98.28C548.28,339.38,570.09,316.97,584.2,323.19z"/>
	<path class="st2" d="M247.6,304.46c3.64,58.24,33.97,133.46,33.97,133.46s10.92,54.6,120.12,100.71
		c18.66-6.86,77.02-30.99,117.69-94.64c25.48-65.52,38.03-127.02,36.4-146.81c-10.95-68.74-65.81-157.9-149.24-160.16
		C318.91,134.66,256.86,229.72,247.6,304.46z"/>
	<path class="st5" d="M376.21,220.74c-8.49,80.08-35.19,116.48-35.19,116.48s67.95-35.19,54.6-47.32
		c2.13,1.81-16.99,54.6-38.83,66.73c5.74,7.49,34.8-0.98,53.39-15.77c52.6-41.86,31.17-142.1,27.91-156.52"/>
	<path class="st5" d="M413.82,203.76c17,35.01,75.33,82.58,122.03,121.99c8.36,7.06-1.73,29.41-15.26,51.51
		c3.96,3.75,14.8-1.9,17.11-3.11c17.88-9.32,29.83-30.63,30.21-57.56"/>
	<path class="st6" d="M247.6,364.99"/>
	<path class="st4" d="M569.13,309.32c16.11-14.73-11.41-95.52-68.31-137.42c-74.54-54.89-204.55-46.73-255.65,24.59
		c-28.06,39.16-33.44,98.9-13.35,111.63c34.99,22.17,151.69-101.81,165.62-87.97c6.04,6-13.49,31.74-5.46,39.43
		c8.5,8.14,31.45-19.66,60.06-15.17c28.27,4.44,29.36,35.26,71.59,55.81C533.4,304.97,559.61,318.02,569.13,309.32z"/>
	<g>
		<g>
			<path d="M376.36,219.61c0.94-4.41,1.4-8.91,1.36-13.41c-0.01-1.07-1.29-1.96-2.26-1.3c-4.11,2.84-7.87,6.16-11.14,9.93
				c-0.53,0.61-0.6,1.52,0,2.12c0.54,0.54,1.59,0.61,2.12,0c3.11-3.58,6.63-6.77,10.54-9.46c-0.75-0.43-1.5-0.86-2.26-1.3
				c0.04,4.24-0.37,8.46-1.25,12.61c-0.17,0.79,0.23,1.62,1.05,1.85C375.26,220.86,376.19,220.41,376.36,219.61L376.36,219.61z"/>
		</g>
	</g>
	<g>
		<path d="M445.91,240.28c-0.9,0.01-1.02-8.89-3.77-26.5c-1.73-11.08-3.6-20.15-4.97-26.31c3.3,5.52,7.44,13.94,9.42,24.78
			C449.24,226.81,447.01,240.26,445.91,240.28z"/>
		<g>
			<path d="M445.91,238.78c0.59,0.05,0.86,0.31,1.11,0.6c-0.18-0.2,0.06,0.31,0.04,0.12c-0.02-0.24-0.14-0.49-0.19-0.73
				c-0.17-0.85-0.2-1.24-0.3-2.01c-0.34-2.83-0.63-5.66-0.96-8.49c-1.12-9.55-2.59-19.05-4.38-28.49
				c-0.81-4.24-1.68-8.47-2.62-12.69c-0.91,0.39-1.83,0.77-2.74,1.16c8.12,13.65,11.73,29.65,10.12,45.49
				c-0.14,1.37-0.32,2.73-0.63,4.07c-0.1,0.43-0.21,0.85-0.35,1.26c0.04-0.1-0.02,0.2-0.09,0.19c-0.01,0-0.05,0.09-0.06,0.1
				c0.2-0.11,0.51-0.48,0.66-0.51c-1.9,0.28-1.09,3.18,0.8,2.89c1.74-0.26,2.05-3.51,2.26-4.79c0.61-3.7,0.8-7.48,0.77-11.23
				c-0.09-9.6-1.84-19.16-5.45-28.06c-1.53-3.78-3.34-7.43-5.43-10.93c-0.89-1.49-3.11-0.49-2.74,1.16
				c2.01,9.03,3.72,18.13,5.13,27.28c1.14,7.46,1.85,14.96,2.83,22.45c0.2,1.49,0.24,4.03,2.23,4.18
				C447.83,241.93,447.82,238.93,445.91,238.78z"/>
		</g>
	</g>
	<g>
		<g>
			<path d="M574.39,310.46c0-4.27,0-8.53,0-12.8c0-1.93-3-1.93-3,0c0,4.27,0,8.53,0,12.8C571.39,312.39,574.39,312.39,574.39,310.46
				L574.39,310.46z"/>
		</g>
	</g>
	<g>
		<g>
			<path d="M306.82,163.59c11.01-0.81,22.1-0.41,33.02,1.25c1.89,0.29,2.7-2.6,0.8-2.89c-11.19-1.7-22.52-2.18-33.81-1.36
				C304.9,160.73,304.89,163.73,306.82,163.59L306.82,163.59z"/>
		</g>
	</g>
	<g>
		<g>
			<path d="M426.37,172.72c-2-4.13-5.72-7.3-10.05-8.76c-0.74-0.25-1.67,0.29-1.85,1.05c-0.19,0.83,0.25,1.58,1.05,1.85
				c0.24,0.08,0.48,0.17,0.72,0.26c0.09,0.04,0.29,0.12,0.09,0.03c0.13,0.05,0.26,0.11,0.38,0.17c0.46,0.21,0.92,0.45,1.36,0.71
				c0.42,0.25,0.83,0.51,1.23,0.8c0.09,0.07,0.19,0.14,0.28,0.21c0.36,0.27-0.22-0.18,0.14,0.11c0.2,0.16,0.39,0.33,0.58,0.5
				c0.36,0.32,0.71,0.66,1.05,1.02c0.17,0.19,0.34,0.38,0.51,0.57c0.08,0.09,0.15,0.18,0.22,0.27c0.01,0.01,0.28,0.37,0.11,0.14
				c0.62,0.82,1.15,1.69,1.59,2.61c0.34,0.71,1.41,0.95,2.05,0.54C426.56,174.31,426.74,173.48,426.37,172.72L426.37,172.72z"/>
		</g>
	</g>
	<g>
		<g>
			<path d="M526.63,172.04c10.01,17.66,18.88,35.96,26.51,54.76c0.72,1.77,3.62,0.99,2.89-0.8c-6-14.79-12.73-29.29-20.2-43.4
				c-2.15-4.06-4.36-8.08-6.62-12.08C528.27,168.85,525.68,170.36,526.63,172.04L526.63,172.04z"/>
		</g>
	</g>
	<g>
		<g>
			<path d="M226.92,245.33c0.65-4.88,2.78-9.42,4.82-13.84c2.1-4.54,4.26-9.06,6.48-13.54c4.51-9.11,9.27-18.11,14.26-26.97
				c0.95-1.68-1.64-3.2-2.59-1.51c-7.97,14.15-15.47,28.63-22.09,43.46c-1.79,4-3.3,8.04-3.88,12.4c-0.11,0.81,0.77,1.49,1.5,1.5
				C226.32,246.84,226.82,246.13,226.92,245.33L226.92,245.33z"/>
		</g>
	</g>
	<path class="st7" d="M218.48,339.65c-1.43,4.56-3.71,14.02-1.21,25.48c1.68,7.7,4.89,13.44,7.28,16.99"/>
	<path class="st7" d="M583.81,338.23c1.43,4.56,3.71,14.02,1.21,25.48c-1.68,7.7-4.89,13.44-7.28,16.99"/>
	<path class="st8" d="M461.14,453.7c-8.15-0.76-100.39,7.74-111.63,14.56c-15.41,9.36,22.43,50.58,57.03,49.75
		C447.03,517.03,479.66,455.42,461.14,453.7z"/>
	<path class="st9" d="M462.36,475.54c-30.49-3.67-54.01-1.6-70.37,1.21c0,0-3.31,0.57-42.47,8.49l0,0c0,0,23.05,33.97,60.67,32.76
		C427.17,515.58,447.8,501.02,462.36,475.54z"/>
	<path class="st10" d="M360.44,473.11c26.42-4.72,74.53-5.5,93.43-12.13c3.23-1.13,4.57-6.42,2.43-7.28
		c-5.36-2.14-103.04,11.03-103.13,13.35C353.13,467.79,352.7,474.49,360.44,473.11z"/>
	<line class="st11" x1="408.97" y1="359.06" x2="393.2" y2="368.77"/>
	<line class="st11" x1="410.18" y1="365.13" x2="384.7" y2="380.9"/>
	<line class="st11" x1="416.25" y1="368.77" x2="383.49" y2="389.39"/>
	<line class="st11" x1="418.68" y1="376.05" x2="384.7" y2="396.67"/>
	<line class="st11" x1="422.32" y1="380.9" x2="387.13" y2="401.53"/>
	<path class="st12" d="M401.69,413.05c-0.2,4.85-0.4,9.71-0.61,14.56c-2.22-2.02-4.45-4.04-6.67-6.07"/>
	<g>
		<g>
			<path class="st3" d="M287.83,400.22c-0.74,0.99-1.48,1.98-2.23,2.97c-0.22,0.29-0.24,0.82-0.15,1.16c0.1,0.35,0.36,0.73,0.69,0.9
				c0.35,0.18,0.77,0.28,1.16,0.15c0.12-0.05,0.24-0.1,0.36-0.15c0.23-0.13,0.4-0.31,0.54-0.54c0.74-0.99,1.48-1.98,2.23-2.97
				c0.22-0.29,0.24-0.82,0.15-1.16c-0.1-0.35-0.36-0.73-0.69-0.9c-0.35-0.18-0.77-0.28-1.16-0.15c-0.12,0.05-0.24,0.1-0.36,0.15
				C288.14,399.82,287.96,400,287.83,400.22L287.83,400.22z"/>
		</g>
	</g>
	<g>
		<g>
			<path class="st3" d="M292.62,403.54c-0.25,0.37-0.49,0.74-0.74,1.11c-0.11,0.17-0.17,0.36-0.18,0.56c-0.04,0.2-0.04,0.4,0.03,0.6
				c0.05,0.2,0.14,0.37,0.27,0.51c0.11,0.16,0.25,0.29,0.42,0.39c0.12,0.05,0.24,0.1,0.36,0.15c0.27,0.07,0.53,0.07,0.8,0
				c0.12-0.05,0.24-0.1,0.36-0.15c0.23-0.13,0.4-0.31,0.54-0.54c0.25-0.37,0.49-0.74,0.74-1.11c0.11-0.17,0.17-0.36,0.18-0.56
				c0.04-0.2,0.04-0.4-0.03-0.6c-0.05-0.2-0.14-0.37-0.27-0.51c-0.11-0.16-0.25-0.29-0.42-0.39c-0.12-0.05-0.24-0.1-0.36-0.15
				c-0.27-0.07-0.53-0.07-0.8,0c-0.12,0.05-0.24,0.1-0.36,0.15C292.93,403.13,292.76,403.31,292.62,403.54L292.62,403.54z"/>
		</g>
	</g>
	<g>
		<g>
			<path class="st3" d="M498.31,403.19c0,0.62,0,1.24,0,1.85c0,0.38,0.17,0.79,0.44,1.06c0.14,0.15,0.3,0.25,0.48,0.31
				c0.18,0.09,0.37,0.14,0.58,0.13c0.39-0.02,0.79-0.14,1.06-0.44c0.27-0.29,0.44-0.65,0.44-1.06c0-0.62,0-1.24,0-1.85
				c0-0.38-0.17-0.79-0.44-1.06c-0.14-0.15-0.3-0.25-0.48-0.31c-0.18-0.09-0.37-0.14-0.58-0.13c-0.39,0.02-0.79,0.14-1.06,0.44
				C498.48,402.43,498.31,402.79,498.31,403.19L498.31,403.19z"/>
		</g>
	</g>
	<g>
		<g>
			<path class="st3" d="M503.74,401.52c0.01,0.02,0.03,0.04,0.04,0.05c-0.08-0.1-0.16-0.2-0.23-0.3c0.3,0.38,0.54,0.8,0.73,1.24
				c-0.05-0.12-0.1-0.24-0.15-0.36c0.21,0.49,0.34,1,0.41,1.53c-0.02-0.13-0.04-0.27-0.05-0.4c0.06,0.46,0.06,0.92,0.01,1.37
				c-0.04,0.36,0.2,0.82,0.44,1.06c0.26,0.26,0.69,0.46,1.06,0.44c0.39-0.02,0.79-0.14,1.06-0.44c0.08-0.1,0.16-0.2,0.23-0.3
				c0.14-0.23,0.2-0.49,0.2-0.76c0.1-0.88,0-1.8-0.24-2.65c-0.28-0.98-0.77-1.82-1.39-2.61c-0.22-0.28-0.72-0.44-1.06-0.44
				c-0.37,0-0.81,0.16-1.06,0.44c-0.26,0.29-0.46,0.66-0.44,1.06c0.02,0.13,0.04,0.27,0.05,0.4
				C503.42,401.12,503.55,401.34,503.74,401.52L503.74,401.52z"/>
		</g>
	</g>
	<path class="st5" d="M383.49,224.38C367.93,235.23,269.44,326.3,260.95,362.7c-2.43,6.07,11.65,38.06,13.35,37.61
		c0.09-0.02,0.14-0.14,0.15-0.18c0.8-3.18-66.6-22.38-53.54-111.44"/>
	<path class="st13" d="M553.92,632.53c-4.11-13.37-20.82-19.5-32.72-19.28c-26.75,0.51-50.31,33.62-43.68,48.53
		c6.88,15.48,49.47,18.62,67.91-1.35C546.48,659.29,558.15,646.28,553.92,632.53z"/>
	<path class="st6" d="M470.85,560.47"/>
	<path class="st6" d="M470.85,549.55"/>
	<path class="st6" d="M475.7,548.34"/>
	<path class="st14" d="M520.6,539.85"/>
	<g>
		<path class="st15" d="M600.77,636.21c-9.76,10.79-19.33,21.76-28.69,32.9"/>
		<g>
			<path class="st15" d="M599.71,635.15c-9.76,10.8-19.32,21.77-28.69,32.9c-1.24,1.47,0.88,3.6,2.12,2.12
				c9.37-11.14,18.93-22.11,28.69-32.9C603.13,635.84,601.01,633.71,599.71,635.15L599.71,635.15z"/>
		</g>
	</g>
	<path class="st16" d="M235.11,418.2c3.55-22.44,13.56-62.85,46.11-95.59c65.89-66.29,197.33-74.14,253.58-5.45
		c31.43,38.38,29.6,88.7,26.69,113.17c13.33-17.17,54.9-75.21,51.84-157.42c-1.93-51.82-20.76-90.67-32.42-110.73
		c-33.81-14.09-83.77-29.98-145.6-32.76c-111.38-5.01-195.88,35.44-234.17,57.03c-6.58,26.03-14.54,71.82-4.85,127.4
		C204.49,360.94,222.13,396.5,235.11,418.2z"/>
	<path class="st17" d="M467.03,575.45c14.16,3.24,28.31,6.47,42.47,9.71c-14.16,23.05-28.31,46.11-42.47,69.16
		c-19.56,23.35-47.48,27.38-80.08,20.63c-19.45-0.75-36.42-11.8-52.17-27.91c-15.28-12.89-26.57-35.86-37.61-59.45
		c14.96-3.64,32.76-9.71,44.89-10.92c2.38,17.27,8.11,34.81,26.69,53.39c4.74,1.96,35.49,14.17,63.09-1.21
		c2.35-1.31,13.01-7.46,22.09-20.07C463.51,595.47,466.16,582.2,467.03,575.45z"/>
	<path class="st13" d="M266.83,599.72c-5.08-3.39-8.61-10.91-6.07-15.77c3.07-5.88,13.86-5.69,20.63-2.43
		c4.6,2.22,10.64,7.44,9.71,12.13C289.83,600.08,275.49,605.5,266.83,599.72z"/>
	<g>
		<path d="M542.43,619.54c-20.08,15.81-39.62,32.31-58.58,49.46"/>
	</g>
	<g>
		<path class="st15" d="M288.56,630.76c5.15,8.35,11.52,15.95,18.85,22.49"/>
		<g>
			<path class="st15" d="M287.27,631.51c5.24,8.46,11.67,16.15,19.08,22.79c1.43,1.28,3.56-0.83,2.12-2.12
				c-7.23-6.47-13.5-13.93-18.61-22.18C288.85,628.36,286.25,629.87,287.27,631.51L287.27,631.51z"/>
		</g>
	</g>
	<path class="st13" d="M513.4,595.46h36.4v-9.71c-10.52-1.21-21.03-2.43-31.55-3.64C516.64,586.56,515.02,591.01,513.4,595.46z"/>
	<path class="st16" d="M212.83,186.91c4.85-0.71,14.89,4.7,15.5,11.07c0.14,1.45-0.13,3.02-0.94,4.7
		c-48.5,100.13,53.15,284.32,59.45,285.13c0.29,0.04,3.14,0.38,3.13,0.69c-0.03,0.79-19.21,0.9-23.75,0.52
		c-36.97-3.07-74.58-118.73-70.37-231.74C196.2,247.59,198.69,188.98,212.83,186.91z"/>
	<path class="st16" d="M576.05,168.25c-8.37,0.12-15.5,26.3-25.48,24.27c-2.98-0.61-5.61-3.31-6.07-6.07
		c-0.86-5.16,5.58-11.81,16.99-15.77l0,0l0,0l4.85,6.07c6.18,7.65,14.34,19.73,19.75,36.2c3.25,9.89,4.69,18.88,5.29,26.14
		c1.66,13.79,0.74,23.69-0.46,42.96c-1.63,26.28-6.58,59.89-20.17,107.49c0,0-21.66,99.84-49.66,103.86
		c-0.36,0.05-3.14,0.41-3.13,0.69c0.04,1.06,32.9,0.46,35.89-0.69c44.39-17.02,53.07-133.41,54.04-150.76
		C613.15,248.39,590.77,168.04,576.05,168.25z"/>
	<path class="st16" d="M578.03,183.27c-10.17-3.08-19.77,5.07-27.91,9.71c-7.77,4.43,31.64,31.68,32.76,89.79
		c0.08,4.35,8.24,3.05,12.13,1.21C614.31,274.88,608.1,192.38,578.03,183.27z"/>
	<path class="st18" d="M457.31,540.59c-27.08,29.7-89.56,30.25-114.05,2.43c-39.4-44.76,20.93-161.3,61.88-160.16
		C444.27,383.95,500.26,493.49,457.31,540.59z"/>
	<path class="st16" d="M456.1,680.12c41.34-19.56,81.01-66.35,70.37-97.07c-19.77-57.1-216.28-67.13-242.66-10.92
		c-13.93,29.68,18.19,80.74,58.24,104.35C395.17,707.8,449.44,683.27,456.1,680.12z"/>
	<path class="st19" d="M315.35,550.3c-26.74-0.59-47.78-19.72-69.77-35.79"/>
	<path class="st19" d="M497.06,544.33c26.74-0.59,47.78-19.72,69.77-35.79"/>
	<path class="st19" d="M204.94,225.13c19.54,1.22,52.08,0.61,88.57-13.35c22.49-8.6,39.87-19.73,52.17-29.12"/>
	<path class="st19" d="M440.32,155.97c19.05-2.74,62.29-6.12,106.77,16.99c17.28,8.98,30.46,19.72,40.04,29.12"/>
	<path class="st20" d="M190.99,264.56c30.45-19.3,83.23-47.02,154.09-57.03c110.97-15.66,197.66,21.8,231.74,38.83"/>
	<path class="st1" d="M248.62,561.22c-21.58,15.14-38.72,35.97-50.96,63.09c24.66,19.16,103.06,75.04,218.4,77.28
		c114.12,2.22,194.01-49.44,219.61-67.58c-3.97-26.75-41.74-49.45-74.01-72.8"/>
	<path class="st19" d="M572.57,660.71c-1.85-16.27-69.11-31.55-121.33-10.92c-29.74,11.75-66.43,39.82-63.03,47.32
		c0.31,0.68,0.87,1.04,1.15,1.21C402.92,706.74,575.6,687.29,572.57,660.71z"/>
	<path class="st19" d="M548.31,569.71c-17.75,20.55-49.45,27.85-84.93,31.55c0,0,20.04,10.05,58.24,12.13"/>
	<path class="st19" d="M253.47,574.57c20,18.34,48.31,33.32,97.07,40.04"/>
	<g>
		<circle class="st13" cx="404.53" cy="520.57" r="74.01"/>
		<path d="M335.4,520.57c-2.09,45.68,37.99,81.93,83.41,71.8c33.06-7.09,56.68-38.08,54.35-71.8
			c-1.66-30.97-25.55-57.91-56.07-63.11C377.41,450.39,337,479.24,335.4,520.57L335.4,520.57z M325.64,520.57
			c-2.06-44.63,33.39-84.48,78.89-83.88c33.09-0.01,63.94,21.66,74.86,52.87c14.7,40-6.35,85.64-46.09,100.48
			C384.73,608.95,327.35,573.61,325.64,520.57L325.64,520.57z"/>
	</g>
	<circle class="st8" cx="405.14" cy="524.82" r="7.28"/>
	<line class="st6" x1="363.83" y1="482.3" x2="389.42" y2="507.89"/>
	<line class="st6" x1="385.12" y1="524.82" x2="342.65" y2="524.82"/>
	<line class="st6" x1="406.35" y1="504.8" x2="406.35" y2="470.83"/>
	<line class="st6" x1="406.35" y1="581.24" x2="406.35" y2="547.27"/>
	<line class="st6" x1="364.03" y1="567.8" x2="389.62" y2="542.2"/>
	<line class="st6" x1="422.27" y1="538.59" x2="447.86" y2="564.18"/>
	<line class="st6" x1="422.27" y1="509.58" x2="447.86" y2="483.99"/>
	<line class="st6" x1="468.84" y1="524.82" x2="426.37" y2="524.82"/>
	<path class="st21" d="M485.22,505.41c-18.9-69.35-53.73-123.84-80.08-122.55c-28.33,1.39-71.77,53.9-80.08,120.12
		c-16.62-2.18-40.6-8.27-59.45-26.69c-45.69-44.64-35.12-136.16,7.72-186.1c61.38-71.55,197.41-67.56,256.01,6.07
		c43.05,54.08,47.48,149.69,0.77,189.74C515.5,498.52,498.46,503.39,485.22,505.41z"/>
	<path class="st21" d="M481.58,521.18c-7.73-83.32-48.83-141.59-76.44-138.32c-31.27,3.71-77.49,57.76-77.65,135.89
		c-20.61-1.69-50.2-7.84-73.33-29.57c-53.94-50.68-43.69-158.87,9.46-218.41c68.42-76.64,210.25-75.23,276.64,3.64
		c54.87,65.19,55.28,179.84-0.97,225.23C521,514.4,499.49,519.61,481.58,521.18z"/>
	<g>
		<path class="st22" d="M436.01,383.88c-2.87-5-2.58-9.94-2.34-13.99c0.11-1.83,0.8-13.55,8.19-20.52
			c14.03-13.24,55.16-12.11,70.23,6.53c6.77,8.38,9.34,21.59,1.17,31.72c-11.25,13.93-35.16,12.48-40.97,12.13
			C469.06,399.54,443.97,397.74,436.01,383.88z"/>
		<path class="st23" d="M517.85,389.64c0.45-2.98,3.28-23.86-12.13-37.79c-18.98-17.16-54.3-13.58-67.95,2.22
			c-3.52,4.07-5.21,8.51-6.07,12.23"/>
		<circle class="st8" cx="468.4" cy="368.71" r="14.86"/>
		<circle class="st22" cx="475.41" cy="364.3" r="5.78"/>
		<path class="st22" d="M360.2,382.16c2.87-5,2.58-9.94,2.34-13.99c-0.11-1.83-0.8-13.55-8.19-20.52
			c-14.03-13.24-55.16-12.11-70.23,6.53c-6.77,8.38-9.34,21.59-1.17,31.72c11.25,13.93,35.16,12.48,40.97,12.13
			C327.15,397.82,352.23,396.02,360.2,382.16z"/>
		<circle class="st8" cx="327.8" cy="366.99" r="14.86"/>
		<circle class="st22" cx="335.35" cy="362.58" r="5.78"/>
		<path class="st6" d="M286.7,389.72c3.67,1.83,34.74,16.73,60.67,1.21c6.39-3.83,11.11-8.69,14.56-13.35"/>
		<path class="st21" d="M346.77,321.69c-28.92-0.91-55.59,3.8-78.87,16.99"/>
		<path class="st21" d="M446.31,321.68c28.92-0.91,55.59,3.8,78.87,16.99"/>
		<path class="st23" d="M277.44,386.27c-0.45-2.98-3.28-23.86,12.13-37.79c18.98-17.16,54.3-13.58,67.95,2.22
			c3.52,4.07,5.21,8.51,6.07,12.23"/>
		<path class="st6" d="M509.65,392.05c-3.67,1.83-34.74,16.73-60.67,1.21c-6.39-3.83-11.11-8.69-14.56-13.35"/>
	</g>
	<path class="st24" d="M484.51,505.04c-18.9-69.35-53.73-123.84-80.08-122.55c-28.33,1.39-71.77,53.9-80.08,120.12
		c-17.45-2.34-40.8-8.76-59.45-26.69c-44.71-43-37.11-127.84-1.28-174.81c57.6-75.51,203.62-73.39,263.29,2.43
		c40.13,50.99,47.14,142.86,2.49,182.09C520.41,493.53,506.41,501.85,484.51,505.04z"/>
	<path class="st25" d="M415.28,382.4c41.53,23.18,41.65,56.04,50.96,64.31c1.25,1.11,19.3,11.37,36.12,5.46
		c26.28-9.23,38.98-54.3,29.4-85.53c-13.54-44.12-95.9-143.85-125.61,9.33C405.46,379.53,410.02,379.46,415.28,382.4z"/>
	<path class="st25" d="M383.74,387.26c-11.15,11.32-18.94,21.41-25.48,30.33c-20.97,28.61-17.53,29.31-24.27,33.97
		c-11.42,7.91-28.57,10.97-41.83,5.83c-27.69-10.74-38.63-55.43-29.4-85.53c13.54-44.12,95.9-143.85,125.61,9.33
		c0.16,0.83-0.1,1.59-0.1,1.59C387.17,383.84,385.59,385.37,383.74,387.26z"/>
	<path class="st26" d="M388.59,386.04c-5.4-44.17-23.78-81.27-48.53-86.15c-37.74-7.44-89.86,60.23-78.87,111.63
		c4,18.7,18.46,45.12,38.83,48.53c15.79,2.64,33.04-13.7,33.97-4.85c0.54,5.13-4.9,30.93-8.49,40.04
		c-6.55,16.63-57.24-10.31-77.65-42.47c-30.44-47.95-13.42-124.62,31.55-168.65c43.22-42.32,99.95-42.43,118.91-42.47
		c18.73-0.04,79.53-0.15,124.97,47.32c2.98,3.11,41.43,44.49,42.47,104.35c0.4,23.01-4.89,40.32-7.28,47.32
		c-4.32,12.68-12.67,36.15-35.19,52.17c-9.47,6.74-25.61,20.62-37.61,12.13c-12.28-8.69-14.58-54.14-18.2-54.6
		c-7.6-0.97,20.34,8.67,36.4-10.92c15.77-19.24,22.45-45.56,23.05-54.6c1.7-25.7-6.89-68.27-40.04-83.72
		c-3.57-1.66-20.4-9.48-38.83-3.64c-17.57,5.57-42.08,36.67-42.47,83.72"/>
</g>
</svg>
