<?xml version="1.0" encoding="utf-8"?>
<!-- Generator: Adobe Illustrator 28.3.0, SVG Export Plug-In . SVG Version: 6.00 Build 0)  -->
<svg version="1.1" id="Layer_1" xmlns="http://www.w3.org/2000/svg" xmlns:xlink="http://www.w3.org/1999/xlink" x="0px" y="0px"
	 viewBox="0 0 875 1859" style="enable-background:new 0 0 875 1859;" xml:space="preserve">
<style type="text/css">
	.st0{fill:none;stroke:#000000;stroke-miterlimit:10;}
	.st1{fill:#20382B;stroke:#000000;stroke-miterlimit:10;}
	.st2{fill:#FFE3CB;stroke:#000000;stroke-miterlimit:10;}
	.st3{fill:#577F5A;}
	.st4{fill:#FFB995;}
	.st5{fill:#332C26;stroke:#000000;stroke-miterlimit:10;}
	.st6{fill:#332C26;}
	.st7{fill:none;stroke:#FFB995;stroke-miterlimit:10;}
	.st8{fill:#1E2722;stroke:#000000;stroke-miterlimit:10;}
	.st9{fill:#20382B;}
	.st10{fill:#FFB995;stroke:#FFB995;stroke-miterlimit:10;}
	.st11{fill:#FFB995;stroke:#000000;stroke-width:0.5;stroke-miterlimit:10;}
	.st12{fill:#FFE3CB;}
	.st13{fill:#577F5A;stroke:#000000;stroke-miterlimit:10;}
	.st14{fill:#FFFFFF;stroke:#000000;stroke-miterlimit:10;}
	.st15{fill:#20382B;stroke:#20382B;stroke-width:3;stroke-miterlimit:10;}
	.st16{fill:#20382B;stroke:#20382B;stroke-miterlimit:10;}
	.st17{fill:#BC6F22;}
	.st18{fill:#3C3B51;stroke:#000000;stroke-width:3;stroke-miterlimit:10;}
	.st19{fill:none;stroke:#000000;stroke-width:13;stroke-miterlimit:10;}
	.st20{fill:#576C9E;}
	.st21{fill:#C87529;stroke:#000000;stroke-miterlimit:10;}
	.st22{fill:#4C3A2C;stroke:#000000;stroke-miterlimit:10;}
	.st23{fill:#486D4A;}
	.st24{fill:#FFEC43;}
	.st25{stroke:#CE3838;stroke-miterlimit:10;}
	.st26{fill:#FFFFFF;}
	.st27{fill:none;stroke:#000000;stroke-width:4;stroke-miterlimit:10;}
	.st28{stroke:#000000;stroke-miterlimit:10;}
	.st29{fill:none;stroke:#000000;stroke-width:3;stroke-miterlimit:10;}
</style>
<path class="st0" d="M352.95,1278.65"/>
<path class="st0" d="M773.2,20.15L773.2,20.15L773.2,20.15z"/>
<path class="st1" d="M324.1,459.34c47.91-1.33,95.82-2.67,143.73-4c-1.4,36.83-32.91,66.41-70.82,67
	C359.77,522.92,327.65,495.37,324.1,459.34z"/>
<path class="st2" d="M460.54,413.34c2.74,23.55-6.25,13-8.33,90c-3.06,9.27-9.34,25.81-22.91,43c-10.44,13.22-19.43,24.6-31.25,25
	c-19.71,0.66-34.95-29.65-41.66-43c-14.08-28-6.25-64-11.46-106C366.85,396.1,416.47,389.44,460.54,413.34z"/>
<g>
	<path class="st3" d="M532.66,916.39c2.32-4.29,7.46-15.17,1.63-22.05c-4.02-4.74-11.49-5.52-14.17-5.8
		c-64.89-6.94-14.5-12.05-107.25-13.56c-47.87-0.78-98.23-0.96-140.24,18.47c-2.12,0.98-4.31,2.08-5.55,3.84
		c-1.06,1.49-1.3,3.28-1.51,5.02c-3.72,30.51-3.89,61.33-0.51,91.87c0.93,8.37,2.15,16.83,5.72,24.68
		c5.14,11.31,14.79,20.66,24.26,29.75c4.66,4.47,9.53,9.08,15.99,11.46c7.46,2.74,15.94,2.14,24.07,2.42
		c11.84,0.41,23.45,2.81,35.23,3.85c11.78,1.05,24.25,0.62,34.64-4.19c6.97-3.23,12.53-8.21,17.97-13.11
		c15.6-14.04,31.22-28.12,45.05-43.43c4.94-5.47,9.65-11.11,15.31-16.05c6.41-5.6,13.95-10.25,19.9-16.21
		c7.37-7.37,11.95-16.39,16.44-25.26c4.3-8.52,9.61-20.32,13.96-35.05"/>
	<g>
		<path d="M533.96,917.15c2.45-4.57,4.55-9.72,4.52-14.99c-0.04-6.38-3.95-11.02-9.74-13.27c-4.63-1.8-9.75-1.95-14.63-2.53
			c-4.44-0.52-8.87-1.11-13.28-1.82c-5.09-0.83-10.19-1.8-15.13-3.32c-2.76-0.85-5.42-1.96-8.15-2.87
			c-3.57-1.19-7.27-1.86-10.99-2.35c-7.51-0.99-15.1-1.36-22.65-1.69c-14.16-0.61-28.34-0.83-42.52-1
			c-15.42-0.18-30.86-0.15-46.26,0.72c-14.97,0.85-29.94,2.48-44.63,5.57c-7.28,1.53-14.48,3.43-21.53,5.78
			c-3.5,1.17-6.97,2.45-10.39,3.84c-3.28,1.34-6.82,2.62-9.8,4.54c-1.33,0.86-2.56,1.92-3.34,3.32c-0.89,1.61-1.14,3.4-1.36,5.2
			c-0.53,4.23-0.96,8.47-1.34,12.72c-0.76,8.48-1.24,16.99-1.46,25.5c-0.42,16.85,0.23,33.72,1.95,50.48
			c0.8,7.8,1.67,15.72,4.14,23.2c2.34,7.07,6.23,13.35,10.91,19.11c4.78,5.87,10.25,11.13,15.7,16.36c5.07,4.86,10.35,9.65,17.1,12
			c7.21,2.51,15.04,2.09,22.55,2.27c8.32,0.2,16.55,1.39,24.79,2.5c15.06,2.02,31.28,3.74,45.7-2.29
			c6.88-2.88,12.67-7.59,18.18-12.52c6.08-5.43,12.13-10.91,18.13-16.44c5.91-5.46,11.74-10.99,17.41-16.7
			c5.68-5.72,11.06-11.68,16.45-17.67c5.29-5.88,10.92-11.13,17.22-15.9c6.05-4.58,12.09-9.13,16.86-15.1
			c4.64-5.8,8.17-12.32,11.53-18.91c2.8-5.52,5.45-11.1,7.82-16.81c2.81-6.75,5.25-13.64,7.33-20.65c0.55-1.85-2.34-2.65-2.89-0.8
			c-3.87,13.02-9.09,25.48-15.26,37.57c-3.24,6.35-6.68,12.7-11.23,18.22c-4.8,5.82-10.85,10.22-16.81,14.77
			c-6.04,4.61-11.44,9.68-16.52,15.32c-5.22,5.79-10.41,11.58-15.9,17.13c-11.2,11.33-23.05,22-34.89,32.65
			c-5.43,4.89-11.01,9.74-17.74,12.76c-6.66,2.99-14.07,4.06-21.32,4.24c-15.93,0.39-31.51-3.74-47.38-4.29
			c-7.43-0.26-15.12,0.33-22.32-1.9c-6.8-2.11-12.01-7.04-17.02-11.86c-10.44-10.03-21.38-20.55-25.8-34.75
			c-2.32-7.47-3.13-15.31-3.89-23.06c-0.8-8.12-1.35-16.27-1.65-24.43c-0.61-16.66-0.17-33.36,1.31-49.96
			c0.36-4.07,0.79-8.13,1.28-12.19c0.2-1.62,0.36-3.43,1.37-4.79c1.03-1.38,2.7-2.2,4.21-2.93c6.51-3.14,13.35-5.66,20.25-7.82
			c13.9-4.35,28.28-7.02,42.74-8.64c29.74-3.32,59.86-2.63,89.73-1.93c10.64,0.25,21.29,0.54,31.9,1.34
			c5.21,0.39,9.98,0.81,14.99,1.92c6.08,1.35,11.73,4.07,17.8,5.51c6.87,1.62,13.89,2.6,20.89,3.48c8.67,1.09,24.23,0.7,24.58,12.83
			c0.14,4.86-1.84,9.63-4.1,13.84C530.45,917.33,533.04,918.85,533.96,917.15L533.96,917.15z"/>
	</g>
</g>
<g>
	<path class="st4" d="M346.57,422.61c12.86-6.82,38.67-18.14,72.21-16.88c17.14,0.64,31.39,4.39,41.79,8.11
		c-2.06,15-4.11,30-6.17,45c0,0-23.66,18.75-37.31,22.96c-17.66,5.46-33.66,4.92-47.87,4.21c-8.66-0.43-15.79-1.39-20.65-2.18"/>
</g>
<path class="st5" d="M541.7,304.65c18.2-27.54,18.94-56.75,19-61c0.83-63.46-55.75-107.19-59.36-109.9
	c-9.16-6.87-26.82-18.57-59.58-27.36c0,0-3.31-0.91-6.97-1.78c-58.04-13.81-116.09-5.79-116.09-5.79
	c-59.57,8.24-105.14,33.13-104,36.83c1.25,4.05,57.99-19.41,129.83-1.43c0.2,0.05,0.36,0.09,0.49,0.12c-10.92-5.08-26.96-10.06-45-7
	c-35.93,6.1-65.83,41.72-73.33,89.31c-1.28,18.09-1.2,55.74,21.84,91.27c0,0,10.47,13,21.48,25.42
	C340.04,412.29,496.54,373,541.7,304.65z"/>
<path class="st2" d="M245.03,295.34c-10.38,4.58-10.06,25.47-10,28c1.09,43.16,55.54,68.45,59,70c12.05,5.4,24.6,11.04,30,6
	c10.43-9.73-12.72-52.96-40-81C274.63,308.68,256.66,290.21,245.03,295.34z"/>
<path class="st2" d="M548.45,295.78c10.38,4.58,10.06,25.47,10,28c-1.09,43.16-55.54,68.45-59,70c-12.05,5.4-24.6,11.04-30,6
	c-10.43-9.73,12.72-52.96,40-81C518.85,309.12,536.82,290.65,548.45,295.78z"/>
<path class="st2" d="M271.03,280.34c3,48,28,110,28,110s9,45,99,83c15.38-5.65,63.48-25.54,97-78c21-54,31.35-104.69,30-121
	c-9.02-56.66-54.24-130.14-123-132C329.8,140.39,278.66,218.74,271.03,280.34z"/>
<path class="st0" d="M271.03,330.22"/>
<path class="st6" d="M536.03,284.34c16.73-14.19-7.66-108.46-76-144c-65.01-33.81-154.86-6.63-191,51
	c-20.21,32.23-27.97,79.73-11,92c5.46,3.95,11.23,0.28,47.1-13.71c56.67-22.11,71.85-25.07,84.9-26.29
	c19.23-1.8,34.34,0.14,41.3,1.25c13.72,2.19,27.61,6.44,43.88,13.56c18.83,11.38,37.07,35.73,54.57,29.82
	C530.48,287.73,533.57,286.43,536.03,284.34z"/>
<path class="st7" d="M247.03,309.34c-1.18,3.76-3.06,11.56-1,21c1.38,6.34,4.03,11.08,6,14"/>
<path class="st7" d="M548.13,308.17c1.18,3.76,3.06,11.56,1,21c-1.38,6.34-4.03,11.08-6,14"/>
<path class="st8" d="M337.96,1526.34c0,0-11.22,47.39-7.1,99c3.92,49.02,26.25,90.39,29.57,120c1.46,25.38,1.35,49.01-4.73,66
	c-9.57,5.12-37.79,18.74-76.31,16.43c-30.6-1.84-52.38-12.81-62.06-18.43c-1.84-6.42-4.09-16.11-4.73-28
	c-1.07-19.88,3.02-34.07,9.46-57c3.53-12.58,9.29-33.18,17.74-64c2.09-44.7,0.56-87.89-5.91-129
	C266.41,1537.32,301.46,1534.39,337.96,1526.34z"/>
<path class="st0" d="M343.87,1754.34c-30.92-29.43-102.9-20-114.72,1"/>
<path class="st0" d="M213.78,1792.34c48.48,18.4,96.98,18.89,145.47,1"/>
<path class="st8" d="M459.78,1526.34c1.75,21.25,3.08,43.26,3.88,66.01c0.66,18.83,0.92,37.17,0.85,54.99
	c-9.1,32.51-18.21,65.01-27.31,97.52c0,0-1.35,49.01,4.73,66c9.57,5.12,37.79,18.74,76.31,16.43c30.6-1.84,52.38-12.81,62.06-18.43
	c1.84-6.42,4.09-16.11,4.73-28c1.07-19.88-3.02-34.07-9.46-57c-3.53-12.58-9.29-33.18-17.74-64c-0.63-21.14-0.76-43.11-0.26-65.85
	c0.58-26.29,1.95-51.55,3.91-75.67c-7.64,4.51-24.43,13.14-48.29,15.28C487.84,1535.89,468.29,1529.59,459.78,1526.34z"/>
<path class="st0" d="M453.76,1753.86c30.92-29.43,102.9-20,114.72,1"/>
<path class="st0" d="M583.85,1791.86c-48.48,18.4-96.98,18.89-145.47,1"/>
<g>
	<path class="st9" d="M327.37,1667.51c2.79,16.03,6.37,31.95,10.72,47.73"/>
	<g>
		<path class="st9" d="M323.03,1668.71c2.8,16.07,6.39,32,10.72,47.73c0.63,2.27,3.22,3.89,5.54,3.14c2.32-0.75,3.81-3.1,3.14-5.54
			c-4.34-15.73-7.92-31.66-10.72-47.73c-0.41-2.32-3.38-3.84-5.54-3.14C323.67,1663.98,322.6,1666.22,323.03,1668.71L323.03,1668.71
			z"/>
	</g>
</g>
<g>
	<path class="st9" d="M547.45,1672.15c6.4,16.13,12.8,32.27,19.19,48.4"/>
	<g>
		<path class="st9" d="M543.12,1673.35c6.4,16.13,12.8,32.27,19.19,48.4c0.86,2.18,3.05,3.95,5.54,3.14
			c2.11-0.68,4.07-3.19,3.14-5.54c-6.4-16.13-12.8-32.27-19.19-48.4c-0.86-2.18-3.05-3.95-5.54-3.14
			C544.15,1668.5,542.19,1671.01,543.12,1673.35L543.12,1673.35z"/>
	</g>
</g>
<g>
	<g>
		<path class="st9" d="M296.11,1751.15c1.97,0.55,3.92,1.17,5.85,1.84c1.02,0.36,2.04,0.74,3.05,1.14c0.38,0.15,0.75,0.3,1.13,0.45
			c0.25,0.1,0.5,0.21,0.75,0.31c-0.45-0.19-0.44-0.18,0.04,0.02c3.66,1.64,7.21,3.44,10.63,5.52c2.01,1.22,5.04,0.51,6.16-1.61
			c1.16-2.19,0.54-4.85-1.61-6.16c-7.33-4.46-15.34-7.86-23.6-10.19c-2.26-0.64-5,0.78-5.54,3.14
			C292.42,1748.01,293.69,1750.47,296.11,1751.15L296.11,1751.15z"/>
	</g>
</g>
<g>
	<g>
		<path class="st9" d="M519.5,1754.29c1.38,0.01,2.75,0.07,4.13,0.17c0.65,0.05,1.3,0.11,1.95,0.18c-0.03,0,1.21,0.15,0.69,0.08
			c-0.54-0.07,0.59,0.09,0.69,0.11c2.7,0.42,5.36,1.03,7.97,1.83c1.22,0.37,2.43,0.79,3.63,1.24c0.33,0.13,0.66,0.26,0.99,0.39
			c0.27,0.11,0.88,0.38,0.29,0.12c0.58,0.25,1.15,0.51,1.72,0.79c2.44,1.16,4.77,2.52,7,4.04c1.95,1.34,5.08,0.43,6.16-1.61
			c1.21-2.29,0.46-4.73-1.61-6.16c-9.79-6.72-21.78-10.07-33.6-10.18c-2.35-0.02-4.61,2.09-4.5,4.5
			C515.11,1752.24,516.98,1754.26,519.5,1754.29L519.5,1754.29z"/>
	</g>
</g>
<line class="st10" x1="398.03" y1="326.34" x2="385.03" y2="334.34"/>
<line class="st10" x1="402.03" y1="330.34" x2="381.03" y2="343.34"/>
<line class="st10" x1="407.03" y1="334.34" x2="380.03" y2="351.34"/>
<line class="st10" x1="409.03" y1="338.34" x2="381.03" y2="355.34"/>
<line class="st10" x1="410.03" y1="344.34" x2="381.03" y2="361.34"/>
<path class="st11" d="M398.03,369.84c-0.17,4-0.33,8-0.5,12c-1.83-1.67-3.67-3.33-5.5-5"/>
<g>
	<g>
		<path class="st4" d="M299.96,365.13c-0.61,0.82-1.22,1.63-1.83,2.45c-0.11,0.17-0.17,0.36-0.18,0.56c-0.04,0.2-0.04,0.4,0.03,0.6
			c0.1,0.35,0.36,0.73,0.69,0.9c0.35,0.18,0.77,0.28,1.16,0.15c0.12-0.05,0.24-0.1,0.36-0.15c0.23-0.13,0.4-0.31,0.54-0.54
			c0.61-0.82,1.22-1.63,1.83-2.45c0.11-0.17,0.17-0.36,0.18-0.56c0.04-0.2,0.04-0.4-0.03-0.6c-0.1-0.35-0.36-0.73-0.69-0.9
			c-0.35-0.18-0.77-0.28-1.16-0.15c-0.12,0.05-0.24,0.1-0.36,0.15C300.27,364.73,300.09,364.9,299.96,365.13L299.96,365.13z"/>
	</g>
</g>
<g>
	<g>
		<path class="st4" d="M307.91,368.86c-0.2,0.31-0.41,0.61-0.61,0.92c-0.11,0.17-0.17,0.36-0.18,0.56c-0.04,0.2-0.04,0.4,0.03,0.6
			c0.05,0.2,0.14,0.37,0.27,0.51c0.11,0.16,0.25,0.29,0.42,0.39c0.12,0.05,0.24,0.1,0.36,0.15c0.27,0.07,0.53,0.07,0.8,0
			c0.12-0.05,0.24-0.1,0.36-0.15c0.23-0.13,0.4-0.31,0.54-0.54c0.2-0.31,0.41-0.61,0.61-0.92c0.11-0.17,0.17-0.36,0.18-0.56
			c0.04-0.2,0.04-0.4-0.03-0.6c-0.05-0.2-0.14-0.37-0.27-0.51c-0.11-0.16-0.25-0.29-0.42-0.39c-0.12-0.05-0.24-0.1-0.36-0.15
			c-0.27-0.07-0.53-0.07-0.8,0c-0.12,0.05-0.24,0.1-0.36,0.15C308.22,368.46,308.04,368.64,307.91,368.86L307.91,368.86z"/>
	</g>
</g>
<g>
	<g>
		<path class="st4" d="M479.4,368.71c0,0.51,0,1.02,0,1.53c-0.01,0.21,0.04,0.4,0.13,0.58c0.06,0.19,0.16,0.35,0.31,0.48
			c0.14,0.15,0.3,0.25,0.48,0.31c0.18,0.09,0.37,0.14,0.58,0.13c0.13-0.02,0.27-0.04,0.4-0.05c0.25-0.07,0.47-0.2,0.66-0.39
			c0.27-0.29,0.44-0.65,0.44-1.06c0-0.51,0-1.02,0-1.53c0.01-0.21-0.04-0.4-0.13-0.58c-0.06-0.19-0.16-0.35-0.31-0.48
			c-0.14-0.15-0.3-0.25-0.48-0.31c-0.18-0.09-0.37-0.14-0.58-0.13c-0.13,0.02-0.27,0.04-0.4,0.05c-0.25,0.07-0.47,0.2-0.66,0.39
			C479.57,367.95,479.4,368.31,479.4,368.71L479.4,368.71z"/>
	</g>
</g>
<g>
	<g>
		<path class="st4" d="M487.95,366.52c0.01,0.01,0.02,0.03,0.04,0.04c-0.08-0.1-0.16-0.2-0.23-0.3c0.24,0.32,0.44,0.66,0.6,1.03
			c-0.05-0.12-0.1-0.24-0.15-0.36c0.17,0.4,0.28,0.82,0.34,1.26c-0.02-0.13-0.04-0.27-0.05-0.4c0.05,0.38,0.05,0.76,0.01,1.13
			c-0.04,0.36,0.2,0.82,0.44,1.06c0.26,0.26,0.69,0.46,1.06,0.44c0.39-0.02,0.79-0.14,1.06-0.44c0.08-0.1,0.16-0.2,0.23-0.3
			c0.14-0.23,0.2-0.49,0.2-0.76c0.08-0.75,0-1.53-0.21-2.25c-0.12-0.4-0.28-0.8-0.47-1.18c-0.2-0.4-0.47-0.74-0.74-1.09
			c-0.22-0.28-0.72-0.44-1.06-0.44c-0.37,0-0.81,0.16-1.06,0.44c-0.26,0.29-0.46,0.66-0.44,1.06c0.02,0.13,0.04,0.27,0.05,0.4
			C487.64,366.12,487.76,366.34,487.95,366.52L487.95,366.52z"/>
	</g>
</g>
<path class="st12" d="M175.17,943.34c-9.71-22.98-48.83-35.47-60.41-25c-6.83,6.18-0.4,17.04,7.81,51.5
	c15.29,64.16,8.12,94.41,29.68,104.5c1.98,0.93,10.97,5.13,17.19,1.5c13.7-8-7.43-41.56,0.52-91.5
	C173.64,961.24,180.22,955.31,175.17,943.34z"/>
<path class="st2" d="M168.92,1083.34c0,0,28.12,14,34.37,14c1.78-1.44,2.1-4.02,1.94-6.32c0,0,0.04-2.36-0.9-4.68
	c-1.61-4-13.54-9-13.54-9c-8.04-3.34-11.16-3.63-13.54-7c-1.51-2.13-2.08-6-2.08-6"/>
<path class="st2" d="M111.11,921.84c0.76,21.69-10.97,95.94-14.58,96c0,0,21.13,46.84,29.16,71l73.95,19c0.48-2,0.61-3.84,0.52-5.5
	c-0.94-16.92-25.35-26.9-28.12-28"/>
<path class="st2" d="M175.17,955.34c4.17,29-1.04,61-1.04,61c1.28,15.69,2.61,31.33,8.33,41c-1.8,6.5-7.4,7.99-15.62,6
	c-7.06-5.51-11.66-22.27-15.62-42c0,0-20.01-9.78-20.23-9.37c-0.02,0.04,0.13,0.16,0.45,0.37"/>
<path class="st2" d="M126.21,1023.34c7.42,15,13.83,30,18.75,45"/>
<path class="st12" d="M619.91,955.69c9.71-22.98,48.83-35.47,60.41-25c6.83,6.18,0.4,17.04-7.81,51.5
	c-15.29,64.16-8.12,94.41-29.68,104.5c-1.98,0.93-10.97,5.13-17.19,1.5c-13.7-8,7.43-41.56-0.52-91.5
	C621.44,973.59,614.86,967.66,619.91,955.69z"/>
<path class="st2" d="M626.16,1095.69c0,0-28.12,14-34.37,14c-1.78-1.44-2.1-4.02-1.94-6.32c0,0-0.04-2.36,0.9-4.68
	c1.61-4,13.54-9,13.54-9c8.04-3.34,11.16-3.63,13.54-7c1.51-2.13,2.08-6,2.08-6"/>
<path class="st2" d="M683.97,934.19c-0.76,21.69,10.97,95.94,14.58,96c0,0-21.13,46.84-29.16,71l-73.95,19
	c-0.48-2-0.61-3.84-0.52-5.5c0.94-16.92,25.35-26.9,28.12-28"/>
<path class="st2" d="M619.91,967.69c-4.17,29,1.04,61,1.04,61c-1.28,15.69-2.61,31.33-8.33,41c1.8,6.5,7.4,7.99,15.62,6
	c7.06-5.51,11.66-22.27,15.62-42c0,0,20.01-9.78,20.23-9.37c0.02,0.04-0.13,0.16-0.45,0.37"/>
<path class="st2" d="M668.86,1035.69c-7.42,15-13.83,30-18.75,45"/>
<path class="st13" d="M481.67,511.29c32.98,6,65.96,12,98.95,18c8.07,21.46,11.43,43.27,14.28,65.05
	c14.45,110.47,64.03,208.21,85.41,297c12.1,29.33,20.1,58.66,18.75,88c-26.14,45.84-59.53,44.47-94.78,31
	c-26.38-130.27-67.82-261.25-90.61-392"/>
<path class="st13" d="M336.6,507.34c-32.98,6-65.96,12-98.95,18c-8.14,24.9-16.14,50.24-23.96,76
	c-18.35,60.47-34.58,119.53-48.95,177c-14.22,31.92-28.16,66.91-41.02,104.86c-8.69,25.65-16.13,50.42-22.51,74.14
	c3.55,6.84,15.52,27.7,41.66,39c15.85,6.85,30.33,7.34,38.54,7c37.84-132,75.68-264,113.53-396"/>
<g>
	<path class="st3" d="M241.55,558.34c-9.97,160.74-12.39,278.09-8.85,298.31c3.55,20.25,14.51,33.37,14.51,33.37
		c3.6,4.31,7.18,7.36,9.73,9.32c20.4,2.43,42.34,4.55,65.7,6.12c10.1,0.68,38.85,2.51,74.17,2.88c35.78,0.38,86.05-0.65,147.89-6.69
		c6-7,12-14,18-21c1.51-15.15,2.84-30.48,4-46c7.48-100.49,6.36-195.6-0.5-284.31"/>
	<path d="M241.67,558.35c-5.29,94.11-11.37,188.38-10.01,282.68c0.26,6.96,0.5,14,2.28,20.76c3.61,14.34,11.17,28.63,23.03,37.43
		c65.6,7.95,131.81,10.5,197.83,7.91c30.01-1.05,60-2.69,89.9-5.6c-0.27,0.28,17.95-21.02,17.92-20.96c5-53.85,8.7-110.78,9-165
		c0.6-55.12-1.31-110.26-5.52-165.22c0,0,0.24-0.02,0.24-0.02c4.22,54.97,6.13,110.11,5.53,165.24
		c-0.36,54.32-3.85,110.96-9.05,165.15c-0.08,0.04-17.97,21.07-18.08,21.04c-29.89,2.88-59.86,5.36-89.89,6.35
		c-66.05,1.98-132.26-1.01-197.89-8.66c-12.22-8.97-19.51-23.17-23.23-37.61c-1.78-6.78-2.02-13.84-2.29-20.81
		c-0.36-10.4-0.39-21.05-0.35-31.44C232.15,725.94,236,641.36,241.67,558.35L241.67,558.35z"/>
</g>
<path class="st14" d="M426.9,542.34c-19.98,5.99-41.57,6.65-64.44,3c0.11-3.75,8.89,29,33.33,38
	C430.23,566.34,428.18,536.26,426.9,542.34z"/>
<path class="st3" d="M337.49,541.34c-4.58-10.65-20.97-15.55-33.36-14c-20.67,2.59-34.81,23.73-26.95,35
	c7.7,11.04,36.61,12.72,51.33,2C335.23,559.45,341.33,550.27,337.49,541.34z"/>
<path class="st3" d="M524.16,530.73c-4.35-11.02-22.02-16.07-34.6-15.89c-28.29,0.42-53.21,27.71-46.2,40
	c7.27,12.76,52.32,15.35,71.82-1.11C516.29,552.79,528.63,542.06,524.16,530.73z"/>
<path class="st13" d="M471.89,455.84c-25.03,26.22-49.39,49.49-71.11,61c7.59,16.83,15.18,33.67,22.78,50.5
	c10.84-9.75,25.36-21.1,43.98-31.8c15.94-9.16,31.01-15.61,43.79-20.2c-9.26-12.33-18.52-24.67-27.78-37
	C479.67,470.84,475.78,463.34,471.89,455.84z"/>
<path class="st13" d="M317.76,460.04c25.03,26.22,49.39,49.49,71.11,61c-7.59,16.83-15.18,33.67-22.78,50.5
	c-14.56-10.35-29.23-20.95-43.98-31.8c-11.54-8.49-22.91-16.95-34.09-25.4c5.77-7.31,12-16.31,17.78-27
	C311.15,477.42,314.98,468.14,317.76,460.04z"/>
<path class="st13" d="M536.19,901.34c5.7,14.24,11.24,29.14,16.49,44.68c7.2,21.27,13.2,41.76,18.22,61.32c0,0-9.92,311-9.92,311
	c3.72,7.33,7.44,14.67,11.16,22c-3.87,12.85-6.13,17.99-7.44,19c-0.05,0.04-0.23,0.17-0.37,0.4c-0.87,1.48,1.9,4.08,5.32,6.6
	c-1.65,4-3.31,8-4.96,12c-9.94,17.28-7.4,45.13-2.48,75c7.88,19.76,13.42,45.32,2.48,61c-16.72,23.96-79.78,23.78-109.09,13
	c-3.73-2.3-22.31-30-22.31-30s14.83-34.03,17.36-36c0,0-2.48-56-11.16-72c-2.3-1.94-10.07-7.83-8.68-14c0.79-3.51,4.95-8.99,4.96-9
	c-11.44-7.08-11.35-16.03-11.16-25c3.72-11,7.44-22,11.16-33c-24.79-118-45.87-243-45.87-243c-21.9-0.67-43.8-1.33-65.7-2"/>
<path class="st13" d="M266,900.34c-11.23,35.33-22.46,70.67-33.7,106c-0.58,103.5,7.15,207.29,12.48,311
	c-2.5,8.67-4.99,17.33-7.49,26c4.58,7.67,9.15,15.33,13.73,23l-9.97,43.65l-3.75,37.35l-19.97,23l8.74,26l-8.74,17
	c0,0,7.77,12.56,11.23,15c24.26,17.09,110.66-1.09,115.46-2.13c5.19-10.29,10.39-20.58,15.58-30.87
	c-3.53-11.71-7.06-23.42-10.59-35.13c-0.9-13.01,0.75-23.24,2.34-30c5.76-24.51,4.72-43.09,12.68-64.95
	c3.98-10.94,8.28-19.6,11.19-25.05c-3.74-11-11.23-33-11.23-33c11.01-40.4,21.01-83.9,29.16-130.26
	c6.86-38.99,11.75-76.28,15.12-111.61c26.64-0.84,39.95-1.51,39.94-2c-0.02-0.74-30.8-1.08-92.35-1"/>
<path class="st0" d="M251.62,939.34c97.73,4.63,196.7,5.23,298.04-2"/>
<g>
	<path d="M365.16,908.34c-0.39,12-0.79,24-1.18,36c24.84-0.33,49.67-0.67,74.51-1c-0.39-11.67-0.79-23.33-1.18-35
		C413.26,908.34,389.21,908.34,365.16,908.34z"/>
	<g>
		<path d="M363.66,908.34c-0.39,12-0.79,24-1.18,36c-0.03,0.8,0.71,1.51,1.5,1.5c19.37-0.26,38.75-0.52,58.12-0.78
			c5.46-0.07,10.93-0.15,16.39-0.22c0.79-0.01,1.53-0.68,1.5-1.5c-0.39-11.67-0.79-23.33-1.18-35c-0.03-0.81-0.67-1.5-1.5-1.5
			c-18.74,0-37.48,0-56.22,0c-5.31,0-10.61,0-15.92,0c-1.93,0-1.93,3,0,3c18.74,0,37.48,0,56.22,0c5.31,0,10.61,0,15.92,0
			c-0.5-0.5-1-1-1.5-1.5c0.39,11.67,0.79,23.33,1.18,35c0.5-0.5,1-1,1.5-1.5c-19.37,0.26-38.75,0.52-58.12,0.78
			c-5.46,0.07-10.93,0.15-16.39,0.22c0.5,0.5,1,1,1.5,1.5c0.39-12,0.79-24,1.18-36C366.73,906.41,363.73,906.41,363.66,908.34z"/>
	</g>
</g>
<g>
	<g>
		<path d="M304.79,904.85c-0.87,12.83-1.74,25.66-2.61,38.49c-0.13,1.93,2.87,1.92,3,0c0.87-12.83,1.74-25.66,2.61-38.49
			C307.92,902.93,304.92,902.93,304.79,904.85L304.79,904.85z"/>
	</g>
</g>
<g>
	<g>
		<path d="M289.18,905.08c-0.21,12.23-0.42,24.46-0.63,36.69c-0.03,1.93,2.97,1.93,3,0c0.21-12.23,0.42-24.46,0.63-36.69
			C292.22,903.15,289.22,903.15,289.18,905.08L289.18,905.08z"/>
	</g>
</g>
<g>
	<g>
		<path d="M297.35,942.79c4.99,1.89,10.44,2.51,15.72,1.82c0.8-0.1,1.5-0.62,1.5-1.5c0-0.73-0.69-1.6-1.5-1.5
			c-5.06,0.65-10.15,0.09-14.92-1.72c-0.76-0.29-1.64,0.32-1.85,1.05C296.07,941.78,296.59,942.5,297.35,942.79L297.35,942.79z"/>
	</g>
</g>
<g>
	<g>
		<path d="M310.08,904.22c-0.8-0.66-1.69-1.32-2.62-1.79c-0.74-0.38-1.74-0.24-2.55-0.26c-0.89-0.02-1.78-0.04-2.66-0.06
			c-3.73-0.09-7.46-0.18-11.19-0.27c-1.93-0.05-1.93,2.95,0,3c5.21,0.12,10.42,0.25,15.63,0.37c-0.25-0.07-0.5-0.14-0.76-0.2
			c0.69,0.41,1.4,0.83,2.03,1.34c0.63,0.51,1.51,0.61,2.12,0C310.61,905.82,310.71,904.74,310.08,904.22L310.08,904.22z"/>
	</g>
</g>
<path class="st0" d="M297.75,941.34"/>
<g>
	<g>
		<path d="M467.74,908.34c0.79,11.67,1.58,23.33,2.37,35c0.13,1.92,3.13,1.93,3,0c-0.79-11.67-1.58-23.33-2.37-35
			C470.61,906.42,467.61,906.41,467.74,908.34L467.74,908.34z"/>
	</g>
</g>
<g>
	<g>
		<path d="M483.12,907.34c0.48,11.71,0.96,23.41,1.44,35.12c0.08,1.92,3.08,1.93,3,0c-0.48-11.71-0.96-23.41-1.44-35.12
			C486.04,905.42,483.04,905.41,483.12,907.34L483.12,907.34z"/>
	</g>
</g>
<g>
	<g>
		<path d="M485.8,940.84c-5.52,0.33-11.04,0.67-16.56,1c-1.92,0.12-1.93,3.12,0,3c5.52-0.33,11.04-0.67,16.56-1
			C487.72,943.72,487.73,940.72,485.8,940.84L485.8,940.84z"/>
	</g>
</g>
<g>
	<path class="st9" d="M418.92,947.96c-2.94,35.13-5.88,70.25-8.82,105.38"/>
	<g>
		<path class="st9" d="M417.42,947.96c-2.29,27.34-4.57,54.68-6.86,82.02c-0.65,7.79-1.3,15.57-1.95,23.36c-0.16,1.92,2.84,1.91,3,0
			c2.29-27.34,4.57-54.68,6.86-82.02c0.65-7.79,1.3-15.58,1.95-23.36C420.58,946.04,417.58,946.05,417.42,947.96L417.42,947.96z"/>
	</g>
</g>
<g>
	<path class="st9" d="M382.27,950.82c-4.13,35.51-8.25,71.01-12.38,106.52"/>
	<g>
		<path class="st9" d="M380.77,950.82c-3.22,27.75-6.45,55.49-9.67,83.24c-0.9,7.76-1.8,15.52-2.71,23.29c-0.22,1.91,2.78,1.9,3,0
			c3.22-27.75,6.45-55.49,9.67-83.24c0.9-7.76,1.8-15.52,2.71-23.29C383.99,948.9,380.99,948.92,380.77,950.82L380.77,950.82z"/>
	</g>
</g>
<g>
	<path class="st9" d="M292.16,957.6c-1.13,11.6-2.25,23.2-3.38,34.79c-0.15,1.56-0.31,3.16-1.08,4.59
		c-1.47,2.72-4.09,4.14-4.74,4.51c-4.13,2.39-19.91,15.24-44.35,35.85"/>
	<g>
		<path class="st9" d="M290.66,957.6c-0.92,9.44-1.83,18.89-2.75,28.33c-0.23,2.37-0.43,4.74-0.69,7.1
			c-0.23,2.07-0.89,3.79-2.4,5.26c-1.11,1.08-2.47,1.76-3.75,2.62c-2.87,1.93-5.58,4.1-8.28,6.24c-4.6,3.63-9.13,7.35-13.65,11.08
			c-7.23,5.97-14.42,12-21.59,18.04c-1.48,1.25,0.65,3.36,2.12,2.12c11.33-9.55,22.66-19.12,34.26-28.34
			c2.78-2.21,5.57-4.46,8.52-6.46c1.25-0.85,2.58-1.55,3.76-2.52c1.39-1.15,2.56-2.62,3.22-4.29c0.8-2,0.85-4.26,1.05-6.38
			c1.06-10.94,2.12-21.87,3.19-32.81C293.85,955.68,290.85,955.7,290.66,957.6L290.66,957.6z"/>
	</g>
</g>
<g>
	<path class="st9" d="M501.93,948.65c-0.06,8.17-0.11,16.34-0.17,24.51c-0.01,1.35,0.03,2.82,1.04,3.86
		c0.81,0.84,2.09,1.22,3.3,1.57c14.37,4.1,28.73,8.21,43.1,12.31"/>
	<g>
		<path class="st9" d="M500.43,948.65c-0.04,5.31-0.07,10.62-0.11,15.93c-0.02,2.61-0.04,5.23-0.05,7.84
			c-0.01,2.12,0.01,4.38,1.74,5.9c1.63,1.43,4.08,1.82,6.1,2.4c2.55,0.73,5.11,1.46,7.66,2.19c5.19,1.48,10.38,2.96,15.56,4.45
			c5.83,1.66,11.65,3.33,17.48,4.99c1.86,0.53,2.65-2.36,0.8-2.89c-9.74-2.78-19.47-5.56-29.21-8.35
			c-4.75-1.36-9.52-2.66-14.25-4.07c-0.83-0.25-1.85-0.5-2.39-1.23c-0.6-0.8-0.49-1.95-0.49-2.9c0.01-2.45,0.03-4.9,0.05-7.35
			c0.04-5.64,0.08-11.28,0.11-16.91C503.44,946.72,500.44,946.72,500.43,948.65L500.43,948.65z"/>
	</g>
</g>
<path class="st15" d="M252.81,1075.34c-2.91,55.32,3.4,127.32,18.92,216"/>
<path class="st15" d="M275.28,1360.34c-7.43,42.67-11.38,85.33-11.83,128"/>
<g>
	<path class="st9" d="M541.39,1082.34c-0.79,92.67-1.58,185.33-2.37,278"/>
	<path class="st9" d="M541.89,1082.34c3.25,46.18,3.44,92.77,2.9,139.03c-0.7,46.19-1.91,92.88-5.27,138.97c0,0-1-0.01-1-0.01
		c-3.56-69.38-3.69-139.11-1.67-208.53c0.39-10.1,0.97-24.75,1.55-34.74c0.67-11.58,1.38-23.16,2.49-34.73L541.89,1082.34
		L541.89,1082.34z"/>
</g>
<path class="st15" d="M546.12,1400.34c-4,36.31-8.22,69.93-13.01,97c-13.23,15.69-30.79,22.69-49.67,27"/>
<g>
	<g>
		<path d="M468.59,494.52c-3.58,2.65-7.44,4.89-11.53,6.67c-1.71,0.75-3.52,1.39-4.95,2.65c-1.6,1.41-2.37,3.55-3.26,5.43
			c-4.17,8.81-8.34,17.63-12.51,26.44c-0.41,0.87,0.88,1.63,1.3,0.76c4.03-8.52,8.06-17.03,12.08-25.55c0.9-1.9,1.65-4.23,3.16-5.75
			c1.43-1.44,3.53-2.07,5.35-2.87c3.93-1.75,7.65-3.93,11.11-6.49C470.11,495.25,469.37,493.95,468.59,494.52L468.59,494.52z"/>
	</g>
</g>
<g>
	<g>
		<path d="M311.85,494.12c2.83,0.11,5.9,0.17,8.45,1.56c1.96,1.07,3.76,3.31,2.91,5.64c-0.33,0.91,1.12,1.3,1.45,0.4
			c1.01-2.77-0.85-5.59-3.14-7.06c-2.82-1.81-6.43-1.92-9.67-2.04C310.88,492.58,310.88,494.08,311.85,494.12L311.85,494.12z"/>
	</g>
</g>
<g>
	<path d="M544.5,820.62c-3.33,11.71-10.3,21.6-18.13,30.69c-2.67,2.95-5.49,5.81-8.82,8.31l-0.82-0.57
		c3.69-11.52,10.21-21.67,18.01-30.77c2.66-2.96,5.5-5.8,8.94-8.23L544.5,820.62L544.5,820.62z"/>
</g>
<g>
	<path class="st9" d="M295.14,604.34c20.61,82.14,42.48,158.71,68.01,219"/>
	<path class="st9" d="M295.26,604.31c17.99,69.38,36.66,138.8,62.66,205.67c1.73,4.46,3.56,8.87,5.34,13.31l-0.22,0.09
		c-2.69-6.33-5.68-13.45-8.23-19.89c-11.37-28.94-21.17-58.49-30.04-88.28C314.16,678.63,303.51,641.05,295.26,604.31L295.26,604.31
		z"/>
</g>
<g>
	<path class="st9" d="M266.91,832.34c31.16,33.45,73.04,50.17,118.06,62"/>
	<path class="st9" d="M267,832.26c29.21,31.01,69.61,48.05,109.87,59.66c0,0,8.13,2.31,8.13,2.31l-0.06,0.23l-8.18-2.12
		C336.51,881.51,294.57,864.06,267,832.26L267,832.26z"/>
</g>
<line class="st16" x1="510.73" y1="600.34" x2="458.11" y2="704.34"/>
<path class="st0" d="M457.42,491.34"/>
<path class="st0" d="M455.03,482.34"/>
<path class="st0" d="M459.03,481.34"/>
<g>
	<path class="st9" d="M413.27,620.67c4.98,2.15,10.25,3.89,15.7,5.19"/>
	<g>
		<path class="st9" d="M412.51,621.97c5.2,2.23,10.56,4.02,16.05,5.34c1.88,0.45,2.68-2.44,0.8-2.89
			c-5.24-1.26-10.39-2.92-15.34-5.04c-0.74-0.32-1.61-0.22-2.05,0.54C411.6,620.55,411.76,621.65,412.51,621.97L412.51,621.97z"/>
	</g>
</g>
<g>
	<path class="st9" d="M418.49,675.27c1.84,0.5,3.67,1,5.51,1.5"/>
	<g>
		<path class="st9" d="M418.09,676.72c1.84,0.5,3.67,1,5.51,1.5c0.76,0.21,1.66-0.26,1.85-1.05c0.18-0.79-0.24-1.62-1.05-1.85
			c-1.84-0.5-3.67-1-5.51-1.5c-0.76-0.21-1.66,0.26-1.85,1.05C416.87,675.67,417.28,676.5,418.09,676.72L418.09,676.72z"/>
	</g>
</g>
<g>
	<path class="st9" d="M418.12,728.38c3.29,0.64,6.53,1.45,9.7,2.41"/>
	<g>
		<path class="st9" d="M417.73,729.83c3.27,0.64,6.51,1.45,9.7,2.41c0.75,0.23,1.67-0.27,1.85-1.05c0.18-0.81-0.24-1.6-1.05-1.85
			c-3.19-0.97-6.43-1.77-9.7-2.41c-0.77-0.15-1.66,0.22-1.85,1.05C416.51,728.73,416.9,729.67,417.73,729.83L417.73,729.83z"/>
	</g>
</g>
<g>
	<path class="st9" d="M421.3,781.38c2.81,1.18,5.82,2.08,8.92,2.65"/>
	<g>
		<path class="st9" d="M420.9,782.82c2.87,1.2,5.86,2.08,8.92,2.65c0.77,0.14,1.65-0.21,1.85-1.05c0.17-0.74-0.22-1.69-1.05-1.85
			c-3.06-0.57-6.05-1.45-8.92-2.65c-0.73-0.3-1.68,0.33-1.85,1.05C419.65,781.86,420.12,782.5,420.9,782.82L420.9,782.82z"/>
	</g>
</g>
<g>
	<path class="st9" d="M419.57,831.02c2.7,1.46,5.65,2.64,8.75,3.51"/>
	<g>
		<path class="st9" d="M418.81,832.32c2.89,1.55,5.95,2.77,9.1,3.66c0.75,0.21,1.67-0.26,1.85-1.05c0.18-0.8-0.24-1.62-1.05-1.85
			c-1.51-0.42-2.99-0.92-4.45-1.5c-0.17-0.07-0.35-0.14-0.52-0.21c-0.1-0.04-0.1-0.04-0.01,0c-0.1-0.04-0.2-0.08-0.29-0.13
			c-0.34-0.15-0.68-0.3-1.01-0.46c-0.71-0.33-1.41-0.69-2.11-1.06c-0.69-0.37-1.66-0.2-2.05,0.54
			C417.91,830.96,418.08,831.92,418.81,832.32L418.81,832.32z"/>
	</g>
</g>
<g>
	<path class="st9" d="M418.95,885.82c3.29,0.77,6.58,1.54,9.86,2.3"/>
	<g>
		<path class="st9" d="M418.55,887.26c3.29,0.77,6.58,1.54,9.86,2.3c0.76,0.18,1.66-0.24,1.85-1.05c0.17-0.77-0.23-1.65-1.05-1.85
			c-3.29-0.77-6.58-1.54-9.86-2.3c-0.76-0.18-1.66,0.24-1.85,1.05C417.32,886.18,417.73,887.07,418.55,887.26L418.55,887.26z"/>
	</g>
</g>
<g>
	<path d="M391.88,582.08c13.27,80.7,17.34,162.91,15.71,244.62c-0.29,13.03-0.7,27.87-1.61,40.87c-0.84,13.61-1.64,27.21-2.55,40.81
		l-1-0.06c0.41-13.62,0.94-27.22,1.43-40.83c1.31-33.66,1.01-68.35,0.27-102.06c-0.87-34.01-2.92-67.97-5.62-101.88
		c-2.2-27.13-4.8-54.22-7.62-81.32L391.88,582.08L391.88,582.08z"/>
</g>
<g>
	<path d="M416.65,613.84c0.2,8.9,12.87,11.33,18.97,6.52c4.77-3.41,4.61-9.5-0.32-12.57C429.35,603.8,417.51,605.55,416.65,613.84
		L416.65,613.84z M414.88,613.84c0.23-10.43,14.52-13.77,21.88-8.16c5.9,4.07,5.83,12.08-0.32,15.85
		C429.25,626.31,415.71,623.66,414.88,613.84L414.88,613.84z"/>
</g>
<g>
	<path d="M416.64,666.84c0.24,8.85,12.89,11.36,19.01,6.55c4.81-3.41,4.68-9.59-0.3-12.68
		C429.37,656.69,417.48,658.51,416.64,666.84L416.64,666.84z M414.89,666.84c0.26-10.36,14.5-13.68,21.82-8.09
		c5.86,4.05,5.8,11.97-0.3,15.74C429.25,679.31,415.69,676.67,414.89,666.84L414.89,666.84z"/>
</g>
<g>
	<path d="M418.05,719.84c0.14,8.87,12.78,11.36,18.85,6.51c4.7-3.42,4.53-9.45-0.39-12.45
		C430.68,710.07,418.91,711.72,418.05,719.84L418.05,719.84z M416.05,719.84c0.17-10.59,14.62-14.03,22.07-8.27
		c5.91,4.14,5.83,12.21-0.39,15.98C430.51,732.28,416.93,729.68,416.05,719.84L416.05,719.84z"/>
</g>
<g>
	<path d="M418.13,772.84c0.16,8.79,12.71,11.38,18.81,6.57c4.79-3.38,4.61-9.63-0.38-12.59
		C430.71,763.01,419.04,764.78,418.13,772.84L418.13,772.84z M415.97,772.84c0.16-10.66,14.67-13.97,22.1-8.19
		c5.83,4.17,5.75,12.02-0.38,15.83C430.48,785.26,416.81,782.78,415.97,772.84L415.97,772.84z"/>
</g>
<g>
	<path d="M417.98,823.84c0.15,8.91,12.83,11.34,18.91,6.49c4.71-3.42,4.54-9.42-0.36-12.45
		C430.62,813.96,418.87,815.62,417.98,823.84L417.98,823.84z M416.12,823.84c0.2-10.5,14.57-13.93,21.98-8.25
		c5.94,4.11,5.85,12.19-0.36,15.97C430.57,836.29,416.93,833.65,416.12,823.84L416.12,823.84z"/>
</g>
<g>
	<path d="M418.26,876.84c-0.24,5.4,5.88,9.2,10.98,9c2.75-0.05,5.52-0.86,7.67-2.48c4.66-3.35,4.43-9.52-0.5-12.32
		C430.73,867.41,419.21,869.05,418.26,876.84L418.26,876.84z M415.84,876.84c-0.11-8.87,10.65-13.25,18.11-10.58
		c8.72,2.55,12.21,12.95,3.77,18.27C430.5,889.21,416.7,886.78,415.84,876.84L415.84,876.84z"/>
</g>
<g>
	<g>
		<path class="st9" d="M529.22,799.6c-18.98,6.39-38.39,11.46-58.05,15.26c-1.03,0.2-1.27,1.4-0.9,2.2
			c3.76,8.19,5.81,17.07,5.89,26.09c0.02,1.93,3.02,1.93,3,0c-0.09-9.57-2.32-18.92-6.3-27.61c-0.3,0.73-0.6,1.47-0.9,2.2
			c19.66-3.8,39.07-8.88,58.05-15.26C531.83,801.88,531.05,798.98,529.22,799.6L529.22,799.6z"/>
	</g>
</g>
<g>
	<g>
		<path class="st9" d="M484.39,704.33c12.82,0,25.63,0,38.45,0c1.93,0,1.93-3,0-3c-12.82,0-25.63,0-38.45,0
			C482.46,701.33,482.45,704.33,484.39,704.33L484.39,704.33z"/>
	</g>
</g>
<g>
	<g>
		<path class="st9" d="M238.11,563.74c-6.73,22.13-11.69,44.78-14.78,67.7c-0.87,6.48-1.6,12.97-2.18,19.48
			c-0.17,1.92,2.83,1.91,3,0c2.03-22.79,5.92-45.39,11.59-67.56c1.61-6.32,3.38-12.59,5.27-18.83
			C241.57,562.68,238.67,561.89,238.11,563.74L238.11,563.74z"/>
	</g>
</g>
<g>
	<g>
		<path class="st9" d="M173.45,786.37c-0.04,2.8,0.84,5.42,1.72,8.04c0.95,2.83,1.9,5.65,2.85,8.48c1.87,5.58,3.74,11.15,5.61,16.73
			c0.61,1.82,3.51,1.04,2.89-0.8c-1.82-5.42-3.64-10.84-5.45-16.26c-0.9-2.67-1.79-5.34-2.69-8.01c-0.89-2.66-1.97-5.34-1.93-8.18
			C176.48,784.44,173.48,784.44,173.45,786.37L173.45,786.37z"/>
	</g>
</g>
<g>
	<g>
		<path class="st9" d="M661.02,901.1c-14.17,11.92-28.76,24.22-38.32,40.34c-1.02,1.71-3.25,4.51-1.84,6.53
			c0.65,0.93,1.68,1.14,2.74,1.26c1.61,0.18,3.23,0.31,4.85,0.46c1.92,0.18,1.91-2.82,0-3c-1.13-0.11-2.26-0.21-3.39-0.32
			c-0.27-0.03-1.35,0.03-1.57-0.16c-0.16-0.13-0.03,0.2,0.08-0.16c0.09-0.3,0.33-0.64,0.48-0.91c0.98-1.77,2.02-3.5,3.13-5.2
			c2.26-3.46,4.77-6.75,7.46-9.9c5.39-6.31,11.42-12.03,17.64-17.51c3.58-3.16,7.23-6.23,10.88-9.31
			C664.62,901.97,662.49,899.86,661.02,901.1L661.02,901.1z"/>
	</g>
</g>
<g>
	<g>
		<path class="st9" d="M597.14,652.7c-8.92,8.88-17.68,17.92-26.27,27.12c-1.32,1.41,0.8,3.54,2.12,2.12
			c8.59-9.2,17.35-18.24,26.27-27.12C600.63,653.46,598.51,651.34,597.14,652.7L597.14,652.7z"/>
	</g>
</g>
<g>
	<g>
		<path class="st9" d="M181.76,839.88c-0.11,3.25,0.08,6.49,0.53,9.71c0.44,3.11,1,6.42,2.22,9.33c0.53,1.27,1.36,2.35,2.63,2.94
			c1.37,0.64,2.93,0.74,4.41,0.9c3.38,0.37,6.79,0.46,10.18,0.3c1.92-0.09,1.93-3.09,0-3c-2.91,0.14-5.83,0.09-8.74-0.16
			c-1.37-0.12-2.9-0.15-4.22-0.61c-1.12-0.39-1.5-1.37-1.83-2.43c-1.7-5.49-2.39-11.26-2.2-17
			C184.83,837.95,181.83,837.95,181.76,839.88L181.76,839.88z"/>
	</g>
</g>
<g>
	<g>
		<path class="st9" d="M276.83,521.79c10.75,2.76,21.58,5.22,32.47,7.37c1.89,0.37,2.69-2.52,0.8-2.89
			c-10.89-2.16-21.72-4.61-32.47-7.37C275.75,518.41,274.96,521.31,276.83,521.79L276.83,521.79z"/>
	</g>
</g>
<path class="st13" d="M232.04,520.83c17.72-15.17,40.12-17.83,66.23-10.63c1.03,2.28,2.07,4.56,3.1,6.84
	c-21.98,0.59-44.33,2.36-68.3,9.11C232.73,524.38,232.39,522.6,232.04,520.83z"/>
<path class="st0" d="M95.03,21.11L95.03,21.11L95.03,21.11z"/>
<path class="st5" d="M386.7,239.65c-17.81,4.17-40.65,11.42-65.23,24.54c-17.75,9.47-32.24,19.77-43.62,29.08
	c-0.57,16.19,1.8,30.02,3.98,39.94c2.22,10.06,3.84,16.04,2.87,16.44c-1.42,0.59-8.46-10.85-33.27-63.93"/>
<path class="st5" d="M410.2,232.68c44.68,23.27,92.99,38.29,108.85,59.62c1.15,32.38-9.48,55.33-6.85,56.38
	c1.78,0.71,9.8-12.81,33.27-63.93"/>
<g>
	<g>
		<path d="M378.1,441.04c14.75-0.18,29.4-2.49,43.23-7.71c0.89-0.34,0.51-1.79-0.4-1.45c-13.72,5.17-28.21,7.47-42.83,7.65
			C377.13,439.56,377.13,441.06,378.1,441.04L378.1,441.04z"/>
	</g>
</g>
<path class="st5" d="M554.7,212.65c29.92-26.86,41.46-30.21,46-27c5.13,3.62,2.94,16.74-2,25c-8.21,13.71-27.71,20.23-49,15"/>
<g>
	<g>
		<path d="M456.36,242.47c10.7,3.58,20.53,9.42,28.78,17.11c-0.22-0.21,0.02-2.15,0.02-2.5c0-0.59,0-1.18-0.01-1.77
			c0-0.13,0.06-0.66-0.02-0.73c-8.25-7.69-18.08-13.54-28.78-17.11c0.09,0.03-0.02,2.29-0.02,2.5
			C456.33,240.19,456.18,242.41,456.36,242.47L456.36,242.47z"/>
	</g>
</g>
<g>
	<g>
		<path class="st17" d="M454.13,227.4c-1.1-11.06-3.37-21.96-6.78-32.54c0.21,0.65-0.02,1.81-0.02,2.5c0,0.74-0.21,1.78,0.02,2.5
			c3.4,10.58,5.68,21.48,6.78,32.54C453.97,230.76,454.29,229.06,454.13,227.4L454.13,227.4z"/>
	</g>
</g>
<g>
	<g>
		<path class="st17" d="M380.72,253.42c-2.43,2.81-5.08,5.83-8.83,6.77c-0.85,0.21-1.68,0.26-2.55,0.24
			c-0.48-0.01-0.95-0.01-1.41,0.15c-0.33,0.11-0.72,0.39-1,0.06c-0.28-0.33-0.32-1.06-0.43-1.47c-0.13-0.49-0.25-0.99-0.38-1.48
			c-0.28-1.09-0.56-2.17-0.84-3.26c0,1.67,0,3.33,0,5c2.34,1.46,5.16,1.84,7.8,1.04c0.67-0.2,1.33-0.44,2.03-0.51
			c0.66-0.07,1.32-0.01,1.98-0.02c1.1-0.03,2.41-0.38,2.45-1.68c0.04-1.38,0.02-2.76,0.01-4.13c-0.01-0.67-0.01-1.25-0.66-1.63
			c-0.54-0.32-1.22-0.29-1.83-0.29c-0.85-0.01-1.71-0.01-2.56,0.01c-1.66,0.04-3.31,0.12-4.96,0.27c-0.75,0.06-1.5,0.14-2.25,0.23
			c-0.56,0.06-1.34,0.07-1.56,0.7c-0.12,0.35-0.04,0.82-0.05,1.18c-0.01,0.93-0.01,1.85,0,2.78c0.01,0.86,0.04,1.58,0.27,2.41
			c0.49,1.75,1.08,3.46,1.76,5.15c-0.05-0.12,0.02-0.67,0.02-0.73c0.01-0.59,0.01-1.18,0.01-1.77c0-0.59,0-1.18-0.01-1.77
			c0-0.2,0.06-0.55-0.02-0.73c-0.41-1.02-0.79-2.05-1.13-3.09c-0.32-0.98-0.81-2.1-0.86-3.14c0,1.64,0,3.27-0.01,4.91
			c0.16-1.14,2.09-0.96,2.94-1.05c1.35-0.13,2.7-0.23,4.06-0.29c1.35-0.06,2.71-0.09,4.06-0.07c1.02,0.01,2.5-0.08,2.77,1.2
			c0-1.55-0.01-3.11-0.01-4.66c0,0.07,0,0.14,0,0.21c0-0.11,0.01-0.23,0.01-0.34c-0.32,1.26-1.84,1.35-2.9,1.34
			c-0.63,0-1.26-0.04-1.89,0.07c-0.65,0.11-1.28,0.35-1.91,0.53c-2.56,0.72-5.3,0.28-7.55-1.12c0.02,0.01-0.02,0.83-0.02,0.73
			c-0.01,0.59-0.01,1.18-0.01,1.77c0,0.77-0.17,1.74,0.02,2.5c0.27,1.04,0.53,2.08,0.8,3.11c0.14,0.54,0.28,1.09,0.42,1.63
			c0.1,0.38,0.14,1.06,0.37,1.39c0.27,0.39,0.57,0.2,0.94,0.07c0.47-0.16,0.91-0.2,1.4-0.2c0.91,0.01,1.79-0.02,2.68-0.24
			c3.75-0.93,6.41-3.96,8.83-6.77c0.06-0.07,0.02-0.75,0.02-0.73c0.01-0.59,0.01-1.18,0.01-1.77c0-0.59,0-1.18-0.01-1.77
			C380.73,254.03,380.65,253.5,380.72,253.42L380.72,253.42z"/>
	</g>
</g>
<g>
	<path d="M371.92,205.61c0.57-17.66,2.15-35.28,4.74-52.76"/>
	<g>
		<path d="M373.42,205.61c0.57-17.53,2.13-35.01,4.69-52.36c0.28-1.89-2.61-2.7-2.89-0.8c-2.6,17.62-4.21,35.36-4.79,53.16
			C370.36,207.54,373.36,207.54,373.42,205.61L373.42,205.61z"/>
	</g>
</g>
<g>
	<path d="M403.77,120.03c4.21-1.01,8.66-1.04,12.89-0.11"/>
	<g>
		<path d="M404.17,121.48c3.97-0.93,8.11-0.97,12.09-0.11c0.79,0.17,1.62-0.24,1.85-1.05c0.21-0.75-0.25-1.67-1.05-1.85
			c-4.52-0.98-9.18-0.95-13.69,0.11C401.49,119.03,402.29,121.92,404.17,121.48L404.17,121.48z"/>
	</g>
</g>
<g>
	<path d="M382.29,112.59c8.1-1.43,15.91-4.47,22.86-8.88"/>
	<g>
		<path d="M382.69,114.03c8.24-1.48,16.14-4.57,23.21-9.04c1.63-1.03,0.12-3.63-1.51-2.59c-6.88,4.34-14.49,7.29-22.5,8.73
			C380,111.48,380.8,114.37,382.69,114.03L382.69,114.03z"/>
	</g>
</g>
<g>
	<path d="M238.23,215.35c8.26,3.96,16.53,7.91,24.79,11.87"/>
	<g>
		<path d="M237.47,216.64c8.26,3.96,16.53,7.91,24.79,11.87c1.73,0.83,3.26-1.76,1.51-2.59c-8.26-3.96-16.53-7.91-24.79-11.87
			C237.25,213.22,235.73,215.81,237.47,216.64L237.47,216.64z"/>
	</g>
</g>
<g>
	<g>
		<path class="st17" d="M414.85,187c2.34,0.96,4.68,1.92,7.01,2.89c0.73,0.3,1.68-0.32,1.85-1.05c0.2-0.87-0.27-1.52-1.05-1.85
			c-2.34-0.96-4.68-1.92-7.01-2.89c-0.73-0.3-1.68,0.32-1.85,1.05C413.6,186.03,414.07,186.68,414.85,187L414.85,187z"/>
	</g>
</g>
<g>
	<g>
		<path class="st17" d="M373.08,258.53c9.89-3.11,19.5-7.06,28.73-11.77c1.72-0.88,0.2-3.47-1.51-2.59
			c-9.01,4.6-18.37,8.43-28.02,11.47C370.45,256.22,371.24,259.11,373.08,258.53L373.08,258.53z"/>
	</g>
</g>
<path class="st5" d="M436.2,231.65c-0.12,35.31-18.95,63.75-45.67,71c-4.2,1.14-29.69,0-29.69,0s-3.93-41.13,18.98-80"/>
<path class="st18" d="M509.59,172.08L509.59,172.08c-0.01-5.61-90.2-5.9-90.19-0.93c0,0-15.22,40.59-0.98,57.69
	c20.04,24.07,63.67,17.99,79.41,0.93C514.27,211.96,509.59,172.11,509.59,172.08z"/>
<path class="st18" d="M277.38,173.57L277.38,173.57c0.01-5.61,90.2-5.9,90.19-0.93c0,0,15.22,40.59,0.98,57.69
	c-20.04,24.07-63.67,17.99-79.41,0.93C272.7,213.45,277.38,173.61,277.38,173.57z"/>
<line class="st19" x1="372.58" y1="203.65" x2="412.09" y2="203.65"/>
<g>
	<g>
		<path class="st20" d="M472.57,169.61c-14.45,9.88-29.39,19.03-44.75,27.43c-4.37,2.39-8.78,4.72-13.21,6.99
			c-0.08,0.04-0.04,1.64-0.04,1.46c-0.01,1.18-0.02,2.36-0.01,3.54c0,1.18,0,2.36,0.01,3.54c0,0.17,0.1,1.43,0.04,1.46
			c15.63-8,30.88-16.75,45.65-26.25c4.14-2.66,8.24-5.39,12.31-8.16c0.09-0.06,0.04-1.6,0.04-1.46c0.01-1.18,0.02-2.36,0.01-3.54
			c0-1.18,0-2.36-0.01-3.54C472.6,170.89,472.48,169.67,472.57,169.61L472.57,169.61z"/>
	</g>
</g>
<g>
	<g>
		<path class="st20" d="M506.57,184.15c-17.9,10.37-35.79,20.73-53.69,31.1c-5.1,2.96-10.21,5.91-15.31,8.87
			c-0.12,0.07-0.06,2.44-0.05,2.2c-0.02,1.77-0.02,3.54-0.02,5.3c0,1.77,0,3.54,0.02,5.3c0,0.26,0.17,2.13,0.05,2.2
			c17.9-10.37,35.79-20.73,53.69-31.1c5.1-2.96,10.21-5.91,15.31-8.87c0.12-0.07,0.06-2.44,0.05-2.2c0.02-1.77,0.02-3.54,0.02-5.3
			c0-1.77,0-3.54-0.02-5.3C506.62,186.08,506.45,184.21,506.57,184.15L506.57,184.15z"/>
	</g>
</g>
<g>
	<g>
		<path class="st20" d="M350.45,169.65c-18.43,9.35-36.85,18.7-55.28,28.05c-5.2,2.64-10.4,5.28-15.6,7.92
			c-0.08,0.04-0.04,1.64-0.04,1.46c-0.01,1.18-0.02,2.36-0.01,3.54c0,1.18,0,2.36,0.01,3.54c0,0.17,0.1,1.43,0.04,1.46
			c18.43-9.35,36.85-18.7,55.28-28.05c5.2-2.64,10.4-5.28,15.6-7.92c0.08-0.04,0.04-1.64,0.04-1.46c0.01-1.18,0.02-2.36,0.01-3.54
			c0-1.18,0-2.36-0.01-3.54C350.49,170.94,350.39,169.68,350.45,169.65L350.45,169.65z"/>
	</g>
</g>
<g>
	<g>
		<path class="st20" d="M371.52,190.15c-16.35,9.6-32.69,19.19-49.04,28.79c-4.64,2.72-9.28,5.45-13.92,8.17
			c-0.12,0.07-0.06,2.43-0.05,2.2c-0.02,1.77-0.02,3.54-0.02,5.3c0,1.77,0,3.54,0.02,5.3c0,0.26,0.17,2.13,0.05,2.2
			c16.35-9.6,32.69-19.19,49.04-28.79c4.64-2.72,9.28-5.45,13.92-8.17c0.12-0.07,0.06-2.43,0.05-2.2c0.02-1.77,0.02-3.54,0.02-5.3
			c0-1.77,0-3.54-0.02-5.3C371.57,192.08,371.41,190.22,371.52,190.15L371.52,190.15z"/>
	</g>
</g>
<g>
	<g>
		<path d="M283.8,225.49c-13.83,15.84-27.67,31.69-41.5,47.53c-0.28,0.32-0.02,2.06-0.02,2.5c0,0.59,0,1.18,0.01,1.77
			c0,0.12,0.08,0.66,0.02,0.73c13.83-15.84,27.67-31.69,41.5-47.53c0.28-0.32,0.02-2.06,0.02-2.5c0-0.59,0-1.18-0.01-1.77
			C283.81,226.1,283.73,225.56,283.8,225.49L283.8,225.49z"/>
	</g>
</g>
<g>
	<g>
		<path d="M503.64,226.48c13.86,9.08,23.4,23,31.44,37.19c2.32,4.1,4.54,8.25,6.75,12.41c-0.05-0.09,0.02-0.72,0.02-0.73
			c0.01-0.59,0.01-1.18,0.01-1.77c0-0.59,0-1.18-0.01-1.77c0-0.18,0.07-0.57-0.02-0.73c-7.68-14.47-15.61-29.29-27.41-40.88
			c-3.31-3.25-6.9-6.18-10.78-8.72c0.17,0.11-0.03,2.22-0.03,2.5C503.62,224.3,503.38,226.31,503.64,226.48L503.64,226.48z"/>
	</g>
</g>
<path class="st21" d="M571.34,497.82c-5.13-6.44-12.35-8.8-16-10c-1.98-0.65-17.98-5.61-33,3c-15.89,9.11-25.8,30.6-19,46
	c8.98,20.35,45.34,26.05,63,9C578.89,533.71,581.5,510.6,571.34,497.82z"/>
<path class="st13" d="M582.92,521.97c-21.42-19.59-48.52-23.03-80.09-13.73c-1.25,2.94-2.5,5.88-3.75,8.83
	c26.58,0.77,53.61,3.05,82.59,11.77C582.09,526.55,582.51,524.26,582.92,521.97z"/>
<path class="st22" d="M513.07,341.11c-0.85-0.31-6.98,30.07-32.19,59.75c-13.08,15.4-27.08,25.64-37.81,32.25
	c-1.71-4.1-7.45-16.36-21-23c-9.61-4.71-18.43-4.28-24-4c-16.1,0.8-27.17,8.05-30,10c-10.5,7.24-15.95,16.23-18.38,20.98
	c-2.94-2.47-6.78-5.82-11.09-9.98c-39.91-38.46-50.57-78.18-53.53-77c-2.85,1.14,4.16,39.08,31.32,78c0.76,1.09,1.24,1.76,1.95,2.74
	c8.48,11.61,37.4,47.13,80.82,45.26c35.53-1.53,59.01-28.33,75.71-48C509.3,387.56,514.1,341.48,513.07,341.11z M379.41,457.81
	c-2.25-0.79-15.73-5.29-17.34-12.7c-2.5-11.46,16.87-27.88,36-30c3.91-0.43,15.2-1.69,25,6c2.91,2.28,12.38,9.28,10.84,18.85
	c-1.29,8.04-9.73,14.16-16.84,14.15c-7.72-0.02-9.85-7.26-16-6c-6.5,1.33-7.51,10.09-15,11
	C383.94,459.37,382.4,458.85,379.41,457.81z"/>
<rect x="477.07" y="582.11" class="st23" width="83" height="33"/>
<g>
	<path class="st24" d="M496,596.3v-1.53h-11.04v-7.86h4.23v3.69h11.04v4.29c0,8.07-3.96,11.91-9.84,13.71l-0.87-3.99
		C493.33,603.05,496,600.59,496,596.3z"/>
	<path class="st24" d="M502.63,589.49c0-1.56,1.2-2.67,2.67-2.67c1.56,0,2.76,1.2,2.76,2.64c0,0.81-0.45,1.59-0.66,2.04l-2.07,3.81
		h-2.76l1.41-3.42C502.87,591.23,502.63,590.24,502.63,589.49z M510.97,591.89c-1.11-0.66-1.35-1.65-1.35-2.4
		c0-1.56,1.2-2.67,2.67-2.67c1.56,0,2.76,1.2,2.76,2.64c0,0.81-0.45,1.59-0.66,2.04l-2.07,3.81h-2.76L510.97,591.89z"/>
	<path class="st24" d="M528.97,594.77h-10.8v-4.17h12.24c1.86,0,3.33,1.5,3.33,3.39v14.25h-4.23v-12.9
		C529.51,595.04,529.3,594.77,528.97,594.77z M518.17,598.61h4.23v9.63h-4.23V598.61z"/>
	<path class="st24" d="M536.68,604.07h12c-0.36-1.41-1.2-2.1-2.97-2.73l-3.57-1.26c-3.84-1.35-5.34-3.63-5.34-8.31v-1.17h4.23v0.93
		c0,2.52,0.24,3.9,2.43,4.68l2.22,0.81c1.98-0.9,2.49-2.22,2.49-3.99v-2.43h4.23v2.22c0,2.67-0.96,4.59-2.73,5.88
		c2.46,1.5,3.48,3.72,3.48,8.13v1.41h-16.47V604.07z"/>
</g>
<path class="st25" d="M242.57,521.61c3-0.33,6-0.67,9-1c-2.33-2.67-4.67-5.33-7-8c-2,1.33-4,2.67-6,4
	C239.9,518.28,241.23,519.94,242.57,521.61z"/>
<path class="st25" d="M251.07,521.11c2.33-0.33,4.67-0.67,7-1c-2-3.33-4-6.67-6-10c-2.33,0.67-4.67,1.33-7,2
	C247.07,515.11,249.07,518.11,251.07,521.11z"/>
<path class="st25" d="M259.07,520.11c2.33-0.33,4.67-0.67,7-1c-2-3.67-4-7.33-6-11c-2.33,0.67-4.67,1.33-7,2
	C255.07,513.44,257.07,516.78,259.07,520.11z"/>
<path class="st25" d="M577.25,525.09c-3-0.33-6-0.67-9-1c2.33-2.67,4.67-5.33,7-8c2,1.33,4,2.67,6,4
	C579.91,521.76,578.58,523.43,577.25,525.09z"/>
<path class="st25" d="M568.75,524.59c-2.33-0.33-4.67-0.67-7-1c2-3.33,4-6.67,6-10c2.33,0.67,4.67,1.33,7,2
	C572.75,518.59,570.75,521.59,568.75,524.59z"/>
<path class="st25" d="M560.75,523.59c-2.33-0.33-4.67-0.67-7-1c2-3.67,4-7.33,6-11c2.33,0.67,4.67,1.33,7,2
	C564.75,516.93,562.75,520.26,560.75,523.59z"/>
<g>
	<path class="st26" d="M428.53,340.71c-2.37-4.12-2.13-8.19-1.93-11.53c0.09-1.51,0.66-11.17,6.75-16.91
		c11.57-10.91,45.46-9.98,57.88,5.38c5.58,6.9,7.7,17.8,0.96,26.14c-9.27,11.48-28.98,10.29-33.77,9.99
		C455.78,353.62,435.1,352.13,428.53,340.71z"/>
	<path class="st27" d="M495.99,345.46c0.37-2.46,2.7-19.66-10-31.15c-15.64-14.15-44.75-11.19-56,1.83c-2.9,3.36-4.3,7.02-5,10.08"
		/>
	<circle class="st28" cx="455.24" cy="328.21" r="12.25"/>
	<circle class="st26" cx="461.01" cy="324.57" r="4.76"/>
	<path class="st26" d="M366.06,339.3c2.37-4.12,2.13-8.19,1.93-11.53c-0.09-1.51-0.66-11.17-6.75-16.91
		c-11.57-10.91-45.46-9.98-57.88,5.38c-5.58,6.9-7.7,17.8-0.96,26.14c9.27,11.48,28.98,10.29,33.77,9.99
		C338.81,352.2,359.49,350.72,366.06,339.3z"/>
	<circle class="st28" cx="339.35" cy="326.8" r="12.25"/>
	<circle class="st26" cx="345.58" cy="323.16" r="4.76"/>
	<path class="st0" d="M305.48,345.52c3.03,1.51,28.63,13.79,50,1c5.27-3.15,9.16-7.16,12-11"/>
	<path class="st29" d="M354.99,289.46c-23.83-0.75-45.82,3.13-65,14"/>
	<path class="st29" d="M437.03,289.45c23.83-0.75,45.82,3.13,65,14"/>
	<path class="st27" d="M297.84,342.68c-0.37-2.46-2.7-19.66,10-31.15c15.64-14.15,44.75-11.19,56,1.83c2.9,3.36,4.3,7.02,5,10.08"/>
	<path class="st0" d="M489.23,347.44c-3.03,1.51-28.63,13.79-50,1c-5.27-3.15-9.16-7.16-12-11"/>
</g>
</svg>
