<?xml version="1.0" encoding="utf-8"?>
<!-- Generator: Adobe Illustrator 28.3.0, SVG Export Plug-In . SVG Version: 6.00 Build 0)  -->
<svg version="1.1" id="Layer_1" xmlns="http://www.w3.org/2000/svg" xmlns:xlink="http://www.w3.org/1999/xlink" x="0px" y="0px"
	 viewBox="0 0 952.5 1859" style="enable-background:new 0 0 952.5 1859;" xml:space="preserve">
<style type="text/css">
	.st0{fill:none;stroke:#000000;stroke-miterlimit:10;}
	.st1{fill:#5B1A1A;stroke:#5B1A1A;stroke-miterlimit:10;}
	.st2{fill:#141123;stroke:#141123;stroke-miterlimit:10;}
	.st3{fill:#DA7A22;stroke:#000000;stroke-miterlimit:10;}
	.st4{fill:#FFE3CB;stroke:#000000;stroke-miterlimit:10;}
	.st5{fill:#2D2A38;}
	.st6{fill:#FFB995;}
	.st7{fill:#332C26;stroke:#000000;stroke-miterlimit:10;}
	.st8{opacity:0.44;fill:#D8B8A3;enable-background:new    ;}
	.st9{fill:#332C26;}
	.st10{fill:#964420;}
	.st11{fill:none;stroke:#FFB995;stroke-miterlimit:10;}
	.st12{fill:#1E2722;stroke:#000000;stroke-miterlimit:10;}
	.st13{fill:#20382B;}
	.st14{fill:#FFB995;stroke:#000000;stroke-width:0.5;stroke-miterlimit:10;}
	.st15{fill:#E0CA5C;}
	.st16{fill:#E0CA5C;stroke:#000000;stroke-miterlimit:10;}
	.st17{fill:#2D2A38;stroke:#000000;stroke-miterlimit:10;}
	.st18{fill:#A59E9B;stroke:#E5CC4E;stroke-width:8;stroke-miterlimit:10;}
	.st19{fill:#FFFFFF;stroke:#000000;stroke-miterlimit:10;}
	.st20{fill:#141123;}
	.st21{fill:none;stroke:#141123;stroke-miterlimit:10;}
	.st22{fill:#32303F;stroke:#000000;stroke-miterlimit:10;}
	.st23{fill:#9393A5;stroke:#9393A5;stroke-miterlimit:10;}
	.st24{stroke:#000000;stroke-miterlimit:10;}
	.st25{fill:#7A767A;stroke:#7A767A;stroke-miterlimit:10;}
	.st26{fill:none;stroke:#141123;stroke-width:24;stroke-miterlimit:10;}
	.st27{fill:none;stroke:#E5CC4E;stroke-width:4;stroke-miterlimit:10;}
	.st28{fill:#A59E9B;}
	.st29{fill:#FFFFFF;}
	.st30{fill:#2E3192;}
	.st31{fill:none;stroke:#2E3192;stroke-miterlimit:10;}
	.st32{fill:#B73030;stroke:#000000;stroke-miterlimit:10;}
	.st33{fill:#5B1A1A;}
	.st34{fill:none;stroke:#000000;stroke-width:10;stroke-miterlimit:10;}
	.st35{opacity:0.31;fill:#FFF3F3;stroke:#FFFFFF;stroke-miterlimit:10;enable-background:new    ;}
	.st36{fill:none;stroke:#FFFFFF;stroke-miterlimit:10;}
	.st37{opacity:0.51;fill:#FFFFFF;stroke:#FFFFFF;stroke-width:5;stroke-miterlimit:10;enable-background:new    ;}
	.st38{fill:#FFFFFF;stroke:#000000;stroke-width:2;stroke-miterlimit:10;}
	.st39{fill:#4F4345;}
	.st40{fill:#DDCD3C;}
	.st41{fill:#DDCD3C;stroke:#000000;stroke-width:3;stroke-miterlimit:10;}
	.st42{fill:none;stroke:#000000;stroke-width:4;stroke-miterlimit:10;}
	.st43{fill:none;stroke:#000000;stroke-width:3;stroke-miterlimit:10;}
</style>
<path class="st0" d="M328,1783.6c41,18.4,82,18.9,123,1"/>
<path class="st0" d="M640.9,1783.1c-41,18.4-82,18.9-123,1"/>
<path class="st1" d="M644.9,271.9c11.2-4.8,19.9-10.2,19.5-15.5c-2.7-34.9-396.2-47.1-401-13c-0.9,6.4,11.8,15,42.5,26.5"/>
<path class="st0" d="M441.9,1295.8"/>
<path class="st0" d="M854.4,37.3L854.4,37.3L854.4,37.3z"/>
<path class="st2" d="M553.7,507c5.6-10.7,4.7-24.6-2.2-35c-25.2-38.2-130-28.2-143.5,4c-6.6,15.6,9.7,33.5,12,36
	C452.6,547.9,536.3,540.2,553.7,507z"/>
<path class="st3" d="M341.9,539c0,23.7,4.7,54.7,25,80c57.6,71.7,210.3,59.9,245-7c5.8-11.2,13.2-33.5,2-71c-27.7-7-55.3-14-83-21
	c-28.5-1.2-61.5-0.8-98,3C398.7,526.6,341.9,539,341.9,539z"/>
<path class="st4" d="M539.3,430.5c2.6,23.5-6,13-8,90c-2.9,9.3-9,25.8-22,43c-10,13.2-18.6,24.6-30,25c-18.9,0.7-33.6-29.7-40-43
	c-13.5-28-6-64-11-106C449.3,413.2,497,406.6,539.3,430.5z"/>
<g>
	<path class="st5" d="M593.9,933.5c2.8-11.5,4.3-17.6,1.4-22c-1.8-2.7-5-4.9-12-5.8c-54.9-6.9-12.3-12-90.7-13.6
		c-40.5-0.8-83.1-1-118.6,18.5c-1.8,1-3.6,2.1-4.7,3.8c-0.9,1.5-1.1,3.3-1.3,5c-3.1,30.5-3.3,61.3-0.4,91.9
		c0.8,8.4,1.8,16.8,4.8,24.7c4.3,11.3,12.5,20.7,20.5,29.8c7.4,8.4,9.3,6,13.5,11.5c10.6,13.7,3.5,25.2,11.4,32.7
		c8.8,8.4,28.8,4.6,41-3c9.4-5.8,9.2-10.8,27.1-27.6c7.9-7.4,8-5.4,15.2-13.1c13.2-14,26.4-28.1,38.1-43.4c4.2-5.5,8.2-11.1,12.9-16
		c5.4-5.6,11.8-10.2,16.8-16.2c6.2-7.3,9.1-14.4,13.9-25.3c3.2-7.3,5.3-13.6,7-18.4C591.4,942.2,592.7,938.5,593.9,933.5z"/>
	<g>
		<path d="M595.3,933.9c0.9-3.5,1.8-7,2.4-10.5c0.5-2.5,0.8-5.1,0.5-7.6c-0.5-4.5-3.4-8-7.5-9.8c-3-1.3-6.1-1.7-9.3-2.1
			c-2.6-0.3-5.2-0.7-7.9-1.1c-3.8-0.6-7.5-1.3-11.3-2.1c-2.4-0.5-4.8-1.2-7.1-2c-0.8-0.3-1.7-0.6-2.5-0.9c-0.2-0.1-0.4-0.2-0.5-0.2
			c-0.1,0-0.2-0.1-0.2-0.1c-0.2-0.1,0.3,0.1,0,0c-0.3-0.1-0.7-0.3-1-0.4c-3-1.3-5.9-2.5-9.1-3.2c-6.6-1.4-13.5-1.8-20.2-2.2
			c-13.9-0.8-27.9-1-41.9-1.2c-15.2-0.2-30.4,0-45.5,1.6c-14.8,1.5-29.6,4.3-43.7,9.5c-3.5,1.3-6.9,2.7-10.2,4.2
			c-3.3,1.5-6.8,3-9.7,5.2c-1.4,1-2.5,2.2-3.1,3.8c-0.7,1.7-0.8,3.4-1,5.2c-0.4,4.3-0.8,8.5-1.1,12.8c-1.3,17.2-1.6,34.4-1,51.7
			c0.3,8.7,0.9,17.3,1.6,25.9c0.7,8,1.6,16.2,4.2,23.9c2.4,7.2,6.4,13.8,11,19.8c2.3,3,4.7,5.9,7.1,8.7c2.4,2.8,4.8,5.7,7.5,8.1
			c2.9,2.6,6.7,3.9,9.2,7c4.4,5.4,6,11.8,6.7,18.5c0.5,5.1,0.9,10.4,4.7,14.3c3.8,3.9,9.4,5.3,14.7,5.5c6.1,0.2,12.3-1,18.1-3
			c4.9-1.7,9.7-4.1,13.8-7.3c2.6-2.1,4.8-4.6,6.9-7.1c3.1-3.8,6.3-7.5,9.6-11c4.5-4.6,9.1-9.3,14.3-13c4.8-3.5,8.7-7.8,12.7-12.1
			c11.3-12,22.5-24.2,32.6-37.3c4.9-6.3,9.5-13,15.2-18.7c5.4-5.4,11.6-10,16.5-16c4-4.9,7-10.4,9.6-16.1c3.2-6.9,6.2-14,8.8-21.2
			C591.4,947,593.7,940.5,595.3,933.9c0.5-1.9-2.4-2.7-2.9-0.8c-1.7,6.7-3.9,13.2-6.2,19.7c-2.5,7-5.5,13.8-8.6,20.6
			c-2.6,5.6-5.6,11.1-9.6,15.9c-4.8,5.8-10.9,10.3-16.2,15.6c-5.5,5.5-9.9,11.9-14.7,18.1c-4.9,6.4-10.1,12.6-15.5,18.6
			c-5.4,6.1-10.9,12.1-16.5,18c-4,4.3-7.9,8.8-12.6,12.3c-9.1,6.6-16.9,15.1-24,23.7c-2.1,2.5-4.1,5.1-6.6,7.2
			c-3.5,3-7.8,5.2-12.1,6.9c-5.6,2.2-11.6,3.5-17.6,3.5c-4.9,0-10.4-1.1-13.9-4.8c-3.5-3.7-3.3-9.2-3.8-13.9
			c-0.7-6.8-2.8-13.1-7.2-18.5c-1.2-1.5-2.6-2.8-4.3-3.8c-1.6-1-3.2-1.8-4.6-3c-2.7-2.2-4.9-4.9-7.1-7.5c-2.4-2.8-4.8-5.6-7.1-8.5
			c-4.5-5.8-8.5-12.2-11-19.2c-2.6-7.6-3.5-15.6-4.2-23.5c-1.5-16.8-2.2-33.8-1.9-50.7c0.1-8.4,0.5-16.8,1.1-25.2
			c0.3-4.2,0.6-8.4,1.1-12.6c0.2-1.9,0.2-3.8,0.8-5.6c0.5-1.6,1.8-2.7,3.1-3.5c6.1-3.8,13.1-6.7,19.9-9c6.8-2.4,13.9-4.3,21-5.7
			c14.5-2.9,29.2-4.1,44-4.4c15.1-0.4,30.2-0.1,45.2,0.3c10,0.3,20.1,0.6,30.1,1.7c4,0.5,8.3,1.1,12.2,2.5c0.3,0.1,0.6,0.2,1,0.4
			c0.2,0.1,0.3,0.1,0.4,0.2c0.5,0.2-0.1-0.1,0.2,0.1c0.6,0.3,1.2,0.5,1.9,0.8c1.5,0.7,3.1,1.3,4.6,1.9c5.5,2,11.3,3,17,4
			c2.4,0.4,4.9,0.8,7.3,1.1c3.1,0.4,6.2,0.7,9.2,1.5c4,1.1,7.4,3.7,7.9,8c0.3,2.3-0.1,4.7-0.5,6.9c-0.6,3.4-1.5,6.8-2.3,10.2
			C592,935,594.9,935.8,595.3,933.9z"/>
	</g>
</g>
<g>
	<path class="st6" d="M430.8,439c12-6.4,36.5-17.3,68.3-16.1c16.8,0.6,30.7,4.4,40.7,8.1c-2,15-4,30-6,45c0,0-23,18.8-36.3,23
		c-17.2,5.5-32.9,4.9-46.6,4.2c-8.4-0.4-15.4-1.4-20.1-2.2"/>
</g>
<path class="st7" d="M628.3,321.5c5.5-8.1,19.2-30.4,20-60.4c1.1-44.8-27-90.6-65.7-110.2c-46.1-23.3-120.5-19.4-100.3-20.4
	c19-1,27.6-47.7,26-49c-1.5-1.2-23.7,27.2-41,42c-73.2,12.3-94,14.2-94.4,12.4c-0.3-1.6,13.3-9.3,24-5c9.8,4,13.5,16.5,28.9,20.5
	c0.2,0.1,0.4,0.1,0.5,0.1c-11.7-5.3-27.5-9.8-45-7c-37.1,5.9-68.2,42.2-77,91c1.4,26.9,8.7,77.9,47,115
	C427.9,424.9,578.1,394.7,628.3,321.5z"/>
<path class="st4" d="M326.3,312.5c-10.4,4.6-10.1,25.5-10,28c1.1,43.2,55.5,68.5,59,70c12.1,5.4,24.6,11,30,6
	c10.4-9.7-12.7-53-40-81C355.9,325.8,337.9,307.4,326.3,312.5z"/>
<path class="st4" d="M629.7,312.9c10.4,4.6,10.1,25.5,10,28c-1.1,43.2-55.5,68.5-59,70c-12,5.4-24.6,11-30,6
	c-10.4-9.7,12.7-53,40-81C600.1,326.3,618.1,307.8,629.7,312.9z"/>
<path class="st4" d="M352.3,297.5c3,48,28,110,28,110s9,45,99,83c15.4-5.6,63.5-25.5,97-78c21-54,31.3-104.7,30-121
	c-9-56.7-54.2-130.1-123-132C411,157.5,359.9,235.9,352.3,297.5z"/>
<path class="st8" d="M575.3,409.7c-0.2,0-20.3,26.6-31,22c-6.8-3-2.1-15.3-11-22c-6.2-4.6-18-3-41.5,0.5c-7.6,1.1-6.5,1.2-12,2
	c-29.4,4.1-39.2-1.3-47,5c-9.1,7.3-0.6,22.2-7,26c-10,5.9-36.3-24.3-37-24c-0.5,0.2-1.1,0.4-1.2,0.9c-2.7,17.7,89,74.4,91.7,69.6
	c0,0,41-17,61-37.2C557,437.2,568.1,421.7,575.3,409.7z"/>
<path class="st7" d="M458.3,228.5c-7,66-29,96-29,96s56-29,45-39c1.8,1.5-14,45-32,55c4.7,6.2,28.7-0.8,44-13
	c43.4-34.5,25.7-117.1,23-129"/>
<path class="st7" d="M489.3,214.5c14,28.9,62.1,68.1,100.6,100.6c6.9,5.8-1.4,24.2-12.6,42.5c3.3,3.1,12.2-1.6,14.1-2.6
	c14.7-7.7,24.6-25.2,24.9-47.4"/>
<path class="st0" d="M352.3,347.4"/>
<path class="st9" d="M617.3,301.5c16.7-14.2-7.7-108.5-76-144c-65-33.8-154.9-6.6-191,51c-20.8,33.2-27.4,81.6-11,92
	c28.8,18.3,125-83.9,136.5-72.5c5,4.9-11.1,26.2-4.5,32.5c7,6.7,25.9-16.2,49.5-12.5c23.3,3.7,24.2,29.1,59,46
	C589.3,298.6,609.2,308.3,617.3,301.5z"/>
<g>
	<g>
		<path class="st10" d="M458.6,227.6c0.8-3.6,1.2-7.4,1.1-11.1c0-1.1-1.3-2-2.3-1.3c-3.4,2.4-6.5,5.1-9.2,8.2
			c-0.5,0.6-0.6,1.5,0,2.1c0.5,0.5,1.6,0.6,2.1,0c2.5-2.9,5.4-5.6,8.6-7.8c-0.8-0.4-1.5-0.9-2.3-1.3c0,3.5-0.3,6.9-1,10.3
			c-0.2,0.8,0.2,1.6,1,1.9C457.5,228.9,458.5,228.4,458.6,227.6L458.6,227.6z"/>
	</g>
</g>
<g>
	<g>
		<path d="M515.7,243.1c0.4,0,1,0.5,1.1,0.6c0,0,0.1,0.4,0.1,0.1c0-0.2-0.1-0.4-0.1-0.6c-0.2-0.8-0.2-1.1-0.3-1.8
			c-0.3-2.3-0.5-4.7-0.8-7c-0.9-7.8-2.1-15.6-3.6-23.3c-0.7-3.5-1.4-7-2.2-10.5c-0.9,0.4-1.8,0.8-2.7,1.2c4.1,7,7,14.7,8,22.8
			c0.6,4.3,0.7,8.8,0.4,13.1c-0.1,1.4-0.2,2.9-0.5,4.2c-0.1,0.5-0.2,0.9-0.3,1.4c-0.1,0.3-0.1,0.1-0.1,0.2c0,0.1,0,0.1-0.1,0.1
			c0.2-0.3,0.4-0.4,0.7-0.5c-1.9,0.3-1.1,3.2,0.8,2.9c1.5-0.3,1.8-2.8,2-4c0.5-3,0.7-6.1,0.7-9.1c0-8-1.4-15.9-4.4-23.4
			c-1.3-3.2-2.8-6.3-4.6-9.3c-0.9-1.5-3.1-0.5-2.7,1.2c1.7,7.6,3.1,15.2,4.3,22.9c0.9,6.1,1.5,12.3,2.3,18.5c0.2,1.4,0.3,3.1,2,3.3
			C517.6,246.3,517.6,243.3,515.7,243.1z"/>
	</g>
</g>
<g>
	<g>
		<path d="M621.9,302.4c0-3.5,0-7,0-10.5c0-0.8-0.7-1.5-1.5-1.5s-1.5,0.7-1.5,1.5c0,3.5,0,7,0,10.5c0,0.8,0.7,1.5,1.5,1.5
			S621.9,303.2,621.9,302.4L621.9,302.4z"/>
	</g>
</g>
<g>
	<g>
		<path class="st10" d="M391.1,147.6c9-0.7,18.2-0.3,27.1,1c1.9,0.3,2.7-2.6,0.8-2.9c-9.2-1.4-18.6-1.8-27.9-1.1
			C389.2,144.8,389.1,147.8,391.1,147.6L391.1,147.6z"/>
	</g>
</g>
<g>
	<g>
		<path class="st10" d="M499.8,188.8c-1.7-3.5-4.8-6.1-8.4-7.3c-0.7-0.2-1.7,0.3-1.9,1.1c-0.2,0.8,0.2,1.6,1,1.9
			c0.2,0.1,0.4,0.1,0.6,0.2c0.2,0.1,0.2,0.1,0,0c0.1,0,0.2,0.1,0.3,0.1c0.4,0.2,0.8,0.4,1.1,0.6c0.4,0.2,0.7,0.4,1,0.7
			c0.1,0.1,0.1,0.1,0.2,0.2c0.3,0.2-0.2-0.2,0.1,0.1c0.2,0.1,0.3,0.3,0.5,0.4c0.3,0.3,0.6,0.6,0.9,0.8c0.1,0.1,0.3,0.3,0.4,0.5
			c0.1,0.1,0.1,0.1,0.2,0.2c0,0.1,0.3,0.3,0,0.1c0.5,0.6,1,1.4,1.3,2.1c0.3,0.7,1.4,0.9,2,0.5C500,190.4,500.2,189.5,499.8,188.8
			L499.8,188.8z"/>
	</g>
</g>
<g>
	<g>
		<path class="st10" d="M582,188.5c8.2,14.5,15.5,29.6,21.8,45.1c0.7,1.8,3.6,1,2.9-0.8c-6.4-15.7-13.8-31-22.1-45.8
			C583.7,185.3,581.1,186.8,582,188.5L582,188.5z"/>
	</g>
</g>
<g>
	<g>
		<path d="M335.4,249.2c0.5-4,2.2-7.7,3.9-11.4c1.8-3.8,3.6-7.7,5.5-11.4c3.7-7.5,7.6-14.9,11.8-22.2c0.9-1.7-1.6-3.2-2.6-1.5
			c-4.2,7.4-8.2,15-12,22.7c-1.9,3.8-3.7,7.6-5.5,11.5c-1.7,3.7-3.4,7.6-4,11.7c-0.1,0.8,0.2,1.6,1.1,1.9
			C334.3,250.4,335.3,250,335.4,249.2L335.4,249.2z"/>
	</g>
</g>
<path class="st11" d="M328.3,326.5c-1.2,3.8-3.1,11.6-1,21c1.4,6.3,4,11.1,6,14"/>
<path class="st11" d="M629.4,325.3c1.2,3.8,3.1,11.6,1,21c-1.4,6.3-4,11.1-6,14"/>
<path class="st12" d="M429.3,1543.5c0,0-9.5,47.4-6,99c3.3,49,22.2,90.4,25,120c1.2,25.4,1.1,49-4,66c-8.1,5.1-32,18.7-64.5,16.4
	c-25.9-1.8-44.3-12.8-52.5-18.4c-1.6-6.4-3.5-16.1-4-28c-0.9-19.9,2.5-34.1,8-57c3-12.6,7.9-33.2,15-64c1.8-44.7,0.5-87.9-5-129
	C368.8,1554.5,398.4,1551.6,429.3,1543.5z"/>
<path class="st0" d="M434.3,1771.5c-26.1-29.4-87-20-97,1"/>
<path class="st0" d="M324.3,1809.5c41,18.4,82,18.9,123,1"/>
<path class="st12" d="M532.3,1543.5c1.5,21.2,2.6,43.3,3.3,66c0.6,18.8,0.8,37.2,0.7,55c-7.7,32.5-15.4,65-23.1,97.5
	c0,0-1.1,49,4,66c8.1,5.1,32,18.7,64.5,16.4c25.9-1.8,44.3-12.8,52.5-18.4c1.6-6.4,3.5-16.1,4-28c0.9-19.9-2.5-34.1-8-57
	c-3-12.6-7.8-33.2-15-64c-0.5-21.1-0.6-43.1-0.2-65.8c0.5-26.3,1.6-51.6,3.3-75.7c-6.5,4.5-20.7,13.1-40.8,15.3
	C556,1553,539.5,1546.7,532.3,1543.5z"/>
<path class="st0" d="M527.2,1771c26.1-29.4,87-20,97,1"/>
<path class="st0" d="M637.2,1809c-41,18.4-82,18.9-123,1"/>
<g>
	<path class="st13" d="M420.3,1684.7c2.4,16,5.4,31.9,9.1,47.7"/>
	<g>
		<path class="st13" d="M416,1685.9c2.4,16,5.4,31.9,9.1,47.7c0.5,2.3,3.3,3.9,5.5,3.1c2.4-0.8,3.7-3.1,3.1-5.5
			c-3.7-15.8-6.7-31.7-9.1-47.7c-0.3-2.3-3.4-3.8-5.5-3.1C416.6,1681.2,415.6,1683.4,416,1685.9L416,1685.9z"/>
	</g>
</g>
<g>
	<path class="st13" d="M606.4,1689.3c5.4,16.1,10.8,32.3,16.2,48.4"/>
	<g>
		<path class="st13" d="M602.1,1690.5c5.4,16.1,10.8,32.3,16.2,48.4c0.8,2.2,3.1,3.9,5.5,3.1c2.2-0.7,3.9-3.2,3.1-5.5
			c-5.4-16.1-10.8-32.3-16.2-48.4c-0.8-2.2-3.1-3.9-5.5-3.1C603,1685.7,601.3,1688.1,602.1,1690.5L602.1,1690.5z"/>
	</g>
</g>
<g>
	<g>
		<path class="st13" d="M393.7,1768.3c0.9,0.3,1.7,0.6,2.6,0.9c0.4,0.2,0.9,0.3,1.3,0.5c0.2,0.1,1.6,0.7,0.5,0.2
			c1.6,0.6,3.1,1.4,4.6,2.2c3.1,1.6,6.1,3.5,9,5.5c1.9,1.4,5.1,0.4,6.2-1.6c1.2-2.3,0.4-4.7-1.6-6.2c-6.1-4.4-13-7.8-20.1-10.2
			c-2.2-0.7-5,0.9-5.5,3.1C390,1765.2,391.3,1767.5,393.7,1768.3L393.7,1768.3z"/>
	</g>
</g>
<g>
	<g>
		<path class="st13" d="M582.8,1771.4c1.1,0,2.2,0.1,3.4,0.2c0.3,0,0.6,0.1,0.8,0.1c0.4,0,0.5,0.1,0.1,0c0.6,0.1,1.1,0.2,1.7,0.3
			c2.3,0.4,4.5,1,6.7,1.8c0.5,0.2,1,0.4,1.6,0.6c0.7,0.2-0.6-0.3,0.1,0c0.3,0.1,0.5,0.2,0.8,0.3c1,0.5,2,1,3,1.5
			c1,0.6,1.9,1.1,2.9,1.8c0.5,0.3,0.9,0.6,1.4,1c0.1,0,0.7,0.5,0.4,0.3c-0.4-0.3,0.6,0.4,0.5,0.4c1.8,1.5,4.6,1.9,6.4,0
			c1.5-1.6,2-4.8,0-6.4c-8.4-6.8-18.8-10.8-29.7-10.9c-2.4,0-4.6,2.1-4.5,4.5C578.4,1769.4,580.2,1771.4,582.8,1771.4L582.8,1771.4z
			"/>
	</g>
</g>
<line class="st11" x1="485.3" y1="342.5" x2="472.3" y2="350.5"/>
<line class="st11" x1="486.3" y1="347.5" x2="465.3" y2="360.5"/>
<line class="st11" x1="491.3" y1="350.5" x2="464.3" y2="367.5"/>
<line class="st11" x1="493.3" y1="356.5" x2="465.3" y2="373.5"/>
<line class="st11" x1="496.3" y1="360.5" x2="467.3" y2="377.5"/>
<path class="st14" d="M479.3,387c-0.2,4-0.3,8-0.5,12c-1.8-1.7-3.7-3.3-5.5-5"/>
<g>
	<g>
		<path class="st6" d="M385.2,376.3c-0.6,0.8-1.2,1.6-1.8,2.5c-0.1,0.2-0.2,0.4-0.2,0.6c0,0.2,0,0.4,0,0.6c0.1,0.4,0.4,0.7,0.7,0.9
			c0.4,0.2,0.8,0.3,1.2,0.1c0.1,0,0.2-0.1,0.4-0.1c0.2-0.1,0.4-0.3,0.5-0.5c0.6-0.8,1.2-1.6,1.8-2.5c0.1-0.2,0.2-0.4,0.2-0.6
			c0-0.2,0-0.4,0-0.6c-0.1-0.4-0.4-0.7-0.7-0.9c-0.4-0.2-0.8-0.3-1.2-0.1c-0.1,0-0.2,0.1-0.4,0.1
			C385.5,375.9,385.3,376.1,385.2,376.3L385.2,376.3z"/>
	</g>
</g>
<g>
	<g>
		<path class="st6" d="M389.1,379c-0.2,0.3-0.4,0.6-0.6,0.9c-0.1,0.2-0.2,0.4-0.2,0.6c0,0.2,0,0.4,0,0.6c0,0.2,0.1,0.4,0.3,0.5
			c0.1,0.2,0.2,0.3,0.4,0.4c0.1,0,0.2,0.1,0.4,0.1c0.3,0.1,0.5,0.1,0.8,0c0.1,0,0.2-0.1,0.4-0.1c0.2-0.1,0.4-0.3,0.5-0.5
			c0.2-0.3,0.4-0.6,0.6-0.9c0.1-0.2,0.2-0.4,0.2-0.6c0-0.2,0-0.4,0-0.6c0-0.2-0.1-0.4-0.3-0.5c-0.1-0.2-0.2-0.3-0.4-0.4
			c-0.1,0-0.2-0.1-0.4-0.1c-0.3-0.1-0.5-0.1-0.8,0c-0.1,0-0.2,0.1-0.4,0.1C389.5,378.6,389.3,378.8,389.1,379L389.1,379z"/>
	</g>
</g>
<g>
	<g>
		<path class="st6" d="M558.6,378.9c0,0.5,0,1,0,1.5c0,0.2,0,0.4,0.1,0.6c0.1,0.2,0.2,0.4,0.3,0.5c0.1,0.1,0.3,0.2,0.5,0.3
			c0.2,0.1,0.4,0.1,0.6,0.1c0.1,0,0.3,0,0.4,0c0.2-0.1,0.5-0.2,0.7-0.4c0.3-0.3,0.4-0.6,0.4-1.1c0-0.5,0-1,0-1.5
			c0-0.2,0-0.4-0.1-0.6c-0.1-0.2-0.2-0.4-0.3-0.5c-0.1-0.1-0.3-0.2-0.5-0.3c-0.2-0.1-0.4-0.1-0.6-0.1c-0.1,0-0.3,0-0.4,0
			c-0.2,0.1-0.5,0.2-0.7,0.4C558.8,378.1,558.6,378.5,558.6,378.9L558.6,378.9z"/>
	</g>
</g>
<g>
	<g>
		<path class="st6" d="M563.2,377.7C563.2,377.7,563.2,377.7,563.2,377.7c0-0.1-0.1-0.2-0.2-0.3c0.2,0.3,0.4,0.7,0.6,1
			c0-0.1-0.1-0.2-0.2-0.4c0.2,0.4,0.3,0.8,0.3,1.3c0-0.1,0-0.3,0-0.4c0,0.4,0,0.8,0,1.1c0,0.4,0.2,0.8,0.4,1.1
			c0.3,0.3,0.7,0.5,1.1,0.4c0.4,0,0.8-0.1,1.1-0.4c0.1-0.1,0.2-0.2,0.2-0.3c0.1-0.2,0.2-0.5,0.2-0.8c0.1-0.8,0-1.5-0.2-2.2
			c-0.1-0.4-0.3-0.8-0.5-1.2c-0.2-0.4-0.5-0.7-0.7-1.1c-0.2-0.3-0.7-0.4-1.1-0.4c-0.4,0-0.8,0.2-1.1,0.4c-0.3,0.3-0.5,0.7-0.4,1.1
			c0,0.1,0,0.3,0,0.4C562.9,377.3,563,377.5,563.2,377.7L563.2,377.7z"/>
	</g>
</g>
<path class="st7" d="M464.3,231.5c-12.8,8.9-94,84-101,114c-2,5,9.6,31.4,11,31c0.1,0,0.1-0.1,0.1-0.1c0.7-2.6-54.9-18.4-44.1-91.9"
	/>
<path class="st15" d="M265.3,960.5c-9.3-23-46.9-35.5-58-25c-6.6,6.2-0.4,17,7.5,51.5c14.7,64.2,7.8,94.4,28.5,104.5
	c1.9,0.9,10.5,5.1,16.5,1.5c13.1-8-7.1-41.6,0.5-91.5C263.8,978.4,270.1,972.5,265.3,960.5z"/>
<path class="st16" d="M259.3,1100.5c0,0,27,14,33,14c1.7-1.4,2-4,1.9-6.3c0,0,0-2.4-0.9-4.7c-1.5-4-13-9-13-9
	c-7.7-3.3-10.7-3.6-13-7c-1.4-2.1-2-6-2-6"/>
<path class="st16" d="M203.8,939c0.7,21.7-10.5,95.9-14,96c0,0,20.3,46.8,28,71l71,19c0.5-2,0.6-3.8,0.5-5.5
	c-0.9-16.9-24.3-26.9-27-28"/>
<path class="st16" d="M265.3,972.5c4.1,1.4,2.9,17,1,41.4c-0.6,8.1-1.4,14.9-2,19.6c1.2,15.7,2.5,31.3,8,41
	c-1.4,5.4-11.3,11.6-14.2,8.8c-0.9-0.8-0.8-2.3-0.8-2.8c0.3-4.5-2.8-15.6-15-42c-9.3-4.7-19.3-9.7-19.4-9.4c0,0.1,0.3,0.3,0.4,0.4
	C227.6,1031.5,256.7,969.6,265.3,972.5z"/>
<path class="st4" d="M218.3,1040.5c7.1,15,13.3,30,18,45"/>
<path class="st15" d="M692.3,972.8c9.3-23,46.9-35.5,58-25c6.6,6.2,0.4,17-7.5,51.5c-14.7,64.2-7.8,94.4-28.5,104.5
	c-1.9,0.9-10.5,5.1-16.5,1.5c-13.2-8,7.1-41.6-0.5-91.5C693.7,990.7,687.4,984.8,692.3,972.8z"/>
<path class="st16" d="M698.3,1112.8c0,0-27,14-33,14c-1.7-1.4-2-4-1.9-6.3c0,0,0-2.4,0.9-4.7c1.5-4,13-9,13-9c7.7-3.3,10.7-3.6,13-7
	c1.5-2.1,2-6,2-6"/>
<path class="st16" d="M753.8,951.3c-0.7,21.7,10.5,95.9,14,96c0,0-20.3,46.8-28,71l-71,19c-0.5-2-0.6-3.8-0.5-5.5
	c0.9-16.9,24.3-26.9,27-28"/>
<path class="st16" d="M692.3,984.8c-4,29,1,61,1,61c-1.2,15.7-2.5,31.3-8,41c1.7,6.5,7.1,8,15,6c6.8-5.5,11.2-22.3,15-42
	c0,0,19.2-9.8,19.4-9.4c0,0-0.1,0.2-0.4,0.4"/>
<path class="st4" d="M739.3,1052.8c-7.1,15-13.3,30-18,45"/>
<path class="st17" d="M559.6,528.4c31.7,6,63.3,12,95,18c7.8,21.5,11,43.3,13.7,65c13.9,110.5,61.5,208.2,82,297
	c11.6,29.3,19.3,58.7,18,88c-25.1,45.8-57.2,44.5-91,31c-25.3-130.3-65.1-261.2-87-392"/>
<path class="st17" d="M420.3,524.5c-31.7,6-63.3,12-95,18c-7.8,24.9-15.5,50.2-23,76c-17.6,60.5-33.2,119.5-47,177
	c-13.6,31.9-27,66.9-39.4,104.9c-8.3,25.7-15.5,50.4-21.6,74.1c3.4,6.8,14.9,27.7,40,39c15.2,6.8,29.1,7.3,37,7
	c36.3-132,72.7-264,109-396"/>
<g>
	<g>
		<path d="M411.6,921.4c-0.6-0.6-1.4-1.3-2.1-1.8c-0.6-0.3-1.3-0.3-1.9-0.3c-0.8,0-1.5,0-2.2-0.1c-3-0.1-6-0.2-9-0.3
			c-1.9-0.1-1.9,2.9,0,3c4.1,0.1,8.3,0.2,12.4,0.4c-0.2-0.1-0.5-0.1-0.8-0.2c0,0,0.1,0.1,0.2,0.1c-0.2-0.3,0.2,0.2,0.3,0.2
			c0.4,0.3,0.8,0.6,1.1,1C410.8,924.9,412.9,922.8,411.6,921.4L411.6,921.4z"/>
	</g>
</g>
<g>
	<g>
		<path d="M394.5,959.8c4.5,2,9.3,2.7,14.1,1.9c0.8-0.1,1.2-1.1,1-1.8c-0.2-0.9-1-1.2-1.9-1c-2.1,0.3-4.4,0.3-6.5,0
			c-1-0.2-2-0.4-3-0.7c-0.8-0.3-1.7-0.6-2.3-0.9c-0.7-0.3-1.6-0.2-2,0.5C393.6,958.4,393.8,959.5,394.5,959.8L394.5,959.8z"/>
	</g>
</g>
<g>
	<g>
		<path d="M394.5,922.2c-0.2,12.2-0.3,24.5-0.5,36.7c0,1.9,3,1.9,3,0c0.2-12.2,0.3-24.5,0.5-36.7
			C397.5,920.3,394.5,920.3,394.5,922.2L394.5,922.2z"/>
	</g>
</g>
<g>
	<g>
		<path d="M406.8,922c-0.7,12.8-1.4,25.7-2.1,38.5c-0.1,1.9,2.9,1.9,3,0c0.7-12.8,1.4-25.7,2.1-38.5
			C409.9,920.1,406.9,920.1,406.8,922L406.8,922z"/>
	</g>
</g>
<g>
	<path d="M452.3,925.5c-0.3,12-0.7,24-1,36c21-0.3,42-0.7,63-1c-0.3-11.7-0.7-23.3-1-35C492.9,925.5,472.6,925.5,452.3,925.5z"/>
	<g>
		<path d="M450.8,925.5c-0.3,12-0.7,24-1,36c0,0.8,0.7,1.5,1.5,1.5c21-0.3,42-0.7,63-1c0.8,0,1.5-0.7,1.5-1.5
			c-0.3-11.7-0.7-23.3-1-35c0-0.8-0.7-1.5-1.5-1.5c-20.3,0-40.7,0-61,0c-1.9,0-1.9,3,0,3c20.3,0,40.7,0,61,0c-0.5-0.5-1-1-1.5-1.5
			c0.3,11.7,0.7,23.3,1,35c0.5-0.5,1-1,1.5-1.5c-21,0.3-42,0.7-63,1c0.5,0.5,1,1,1.5,1.5c0.3-12,0.7-24,1-36
			C453.8,923.6,450.8,923.6,450.8,925.5z"/>
	</g>
</g>
<path class="st18" d="M589.7,709.4c33.6-13.9,64.8-25.5,88.8-30.6c4.3,9.8,8.3,19.3,8.8,25.4c-30.3,7.4-59.8,17.7-88.8,30.6
	C594.5,725.2,590.9,716,589.7,709.4z"/>
<path class="st18" d="M376.2,696.7c-33.7-13.9-64.8-25.5-88.8-30.6c-4.3,9.8-8.3,19.3-8.8,25.4c30.3,7.4,59.8,17.7,88.8,30.6
	C371.5,712.5,375,703.3,376.2,696.7z"/>
<path class="st0" d="M356.3,956.5c82.6,4.6,166.3,5.2,252-2"/>
<path class="st17" d="M356.1,917.5c-9.6,42.7-19.3,85.3-28.9,128c-0.5,124.9,6.1,250.2,10.7,375.4c-2.1,10.5-4.3,20.9-6.4,31.4
	c3.9,9.2,7.9,18.5,11.8,27.8l-8.6,52.7l-3.2,45.1l-17.1,27.8l7.5,31.4l-7.5,20.5c0,0,6.7,15.2,9.6,18.1c20.8,20.6,94.9-1.3,99-2.6
	c4.5-12.4,8.9-24.8,13.4-37.3c-3-14.1-6-28.3-9.1-42.4c-0.8-15.7,0.6-28.1,2-36.2c4.9-29.6,4-52,10.9-78.4
	c3.4-13.2,7.1-23.7,9.6-30.2c-3.2-13.3-9.6-39.8-9.6-39.8c9.4-48.8,18-101.3,25-157.2c5.9-47.1,10.1-92.1,13-134.7
	c22.8-1,34.2-1.8,34.2-2.4c0-0.9-26.4-1.3-79.2-1.2"/>
<path class="st17" d="M605.9,918.5c5,17.3,9.8,35.5,14.4,54.4c6.3,25.9,11.6,50.9,16,74.7l-8.7,378.8c3.3,8.9,6.5,17.9,9.8,26.8
	c-3.4,15.7-5.4,21.9-6.5,23.1c0,0.1-0.2,0.2-0.3,0.5c-0.8,1.8,1.7,5,4.7,8c-1.5,4.9-2.9,9.7-4.3,14.6c-8.7,21.1-6.5,55-2.2,91.3
	c6.9,24.1,11.8,55.2,2.2,74.3c-14.6,29.2-69.9,29-95.5,15.8c-3.3-2.8-19.5-36.5-19.5-36.5s13-41.4,15.2-43.8c0,0-2.2-68.2-9.8-87.7
	c-2-2.4-8.8-9.5-7.6-17.1c0.7-4.3,4.3-10.9,4.3-11c-10-8.6-9.9-19.5-9.8-30.4c3.3-13.4,6.5-26.8,9.8-40.2
	c-21.7-143.7-40.2-295.9-40.2-295.9c-19.2-0.8-38.4-1.6-57.5-2.4"/>
<g>
	<g>
		<path d="M551.8,924.5c0.4,11.7,0.8,23.4,1.2,35.1c0.1,1.9,3.1,1.9,3,0c-0.4-11.7-0.8-23.4-1.2-35.1
			C554.7,922.6,551.7,922.6,551.8,924.5L551.8,924.5z"/>
	</g>
</g>
<g>
	<g>
		<path d="M538.8,925.5c0.7,11.7,1.3,23.3,2,35c0.1,1.9,3.1,1.9,3,0c-0.7-11.7-1.3-23.3-2-35C541.7,923.6,538.7,923.6,538.8,925.5
			L538.8,925.5z"/>
	</g>
</g>
<g>
	<g>
		<path d="M554.3,958c-4.7,0.3-9.3,0.7-14,1c-0.8,0.1-1.5,0.7-1.5,1.5c0,0.8,0.7,1.6,1.5,1.5c4.7-0.3,9.3-0.7,14-1
			c0.8-0.1,1.5-0.7,1.5-1.5C555.8,958.7,555.1,957.9,554.3,958L554.3,958z"/>
	</g>
</g>
<path class="st5" d="M402.9,525l-58,12c-5.8,26.2,4.5,52.3,25,65c24.9,15.4,62.5,9.5,72-11C450.5,572.5,437,540,402.9,525z"/>
<path class="st5" d="M557.3,526.1l58,12c8.4,26.9-3.4,54.7-25,65c-27.9,13.4-66.3-5-69.4-30.1C518.8,555.8,533.5,535.6,557.3,526.1z
	"/>
<g>
	<path class="st5" d="M328.1,580.9c-2.1,56.3-5.8,281.7-3.7,353c0.1,4.2,2.5,27,2.5,27s12.5,17.4,16,19.9
		c39.2,5.7,84.4,9.9,134.4,10.5c57.1,0.7,108.2-3.4,151.7-9.4c5.1-5.2,8.2-10.5,9.9-14.1c-0.5-59.2-0.6-118.4-0.5-177.6
		c8.4-72.9,16.7-145.8,1.8-218.7"/>
	<path d="M328.2,580.9c-3.1,110.8-4.7,221.7-4.1,332.5c0.1,7.8,0.1,16,0.6,23.7c0.6,7.8,1.5,16,2.2,23.6c2.5,3.5,5,6.9,7.6,10.3
		c2.6,3.3,5.3,7,8.3,9.6c71,10.5,143.1,12.9,214.7,8c23.7-1.5,48.1-3.8,71.3-6.8c4-4.1,7.4-8.8,9.9-14c0,0.3-0.5-177.6-0.5-177.6
		c6.2-54.5,12.5-109.4,8.9-164.3c-0.9-18.2-4.1-37-7-54.5c3.7,18,6,36.2,7.2,54.4c3.6,54.9-2.7,109.8-8.9,164.3
		c0-0.1,0.5,177.6,0.5,177.6c-2.5,5.2-5.9,10-9.9,14.2c-23.7,3.3-47.6,6-71.5,7.6c-71.6,4.6-143.8,1.3-214.8-8.8
		c-3.3-2.8-5.8-6.4-8.5-9.7c-2.6-3.4-5.2-6.8-7.7-10.3c-0.9-8.9-1.9-17.7-2.4-26.6c-0.1-6.8-0.4-14-0.4-20.8
		C323.4,802.8,324.4,691,328.2,580.9L328.2,580.9z"/>
</g>
<path class="st19" d="M506.3,564.5c-18,6-37.4,6.7-58,3c0.1-3.8,8,29,30,38C509.3,588.5,507.4,558.4,506.3,564.5z"/>
<path class="st0" d="M395.3,958.5"/>
<g>
	<path class="st20" d="M497.7,991.4c-2.5,26.4-5,52.8-7.5,79.1"/>
	<g>
		<path class="st20" d="M496.2,991.4c-1.9,20.6-3.9,41.1-5.8,61.7c-0.5,5.8-1.1,11.6-1.6,17.4c-0.2,1.9,2.8,1.9,3,0
			c1.9-20.6,3.9-41.1,5.8-61.7c0.5-5.8,1.1-11.6,1.6-17.4C499.4,989.5,496.4,989.5,496.2,991.4L496.2,991.4z"/>
	</g>
</g>
<g>
	<path class="st20" d="M466.7,992.4c-3.5,27.4-7,54.8-10.5,82.1"/>
	<g>
		<path class="st20" d="M465.2,992.4c-2.7,21.3-5.4,42.7-8.2,64.1c-0.8,6-1.5,12-2.3,18.1c-0.2,1.9,2.8,1.9,3,0
			c2.7-21.3,5.4-42.7,8.2-64.1c0.8-6,1.5-12,2.3-18.1C468.5,990.5,465.5,990.5,465.2,992.4L465.2,992.4z"/>
	</g>
</g>
<g>
	<path class="st20" d="M379.5,986.8c-0.9,11.6-1.9,23.2-2.9,34.8c-0.1,1.6-0.3,3.2-0.9,4.6c-1.2,2.7-3.5,4.1-4,4.5
		c-3.5,2.4-16.8,15.2-37.5,35.8"/>
	<g>
		<path class="st20" d="M378,986.8c-0.7,9-1.5,17.9-2.2,26.8c-0.2,2.2-0.4,4.5-0.6,6.7c-0.2,2-0.2,4-1.2,5.8
			c-0.9,1.6-2.2,2.6-3.7,3.7c-2.4,1.8-4.7,4-6.9,6c-3.9,3.7-7.8,7.4-11.6,11.1c-6.3,6.1-12.5,12.3-18.7,18.5
			c-1.4,1.4,0.8,3.5,2.1,2.1c9.8-9.7,19.5-19.5,29.6-28.9c2.3-2.2,4.7-4.4,7.2-6.4c-0.3,0.2,0.1-0.1,0.2-0.2
			c0.2-0.1,0.4-0.3,0.6-0.4c1.1-0.8,2-1.6,2.9-2.7c2.5-3.3,2.4-7.5,2.8-11.4c0.8-10.3,1.7-20.5,2.5-30.8
			C381.2,984.8,378.2,984.8,378,986.8L378,986.8z"/>
	</g>
</g>
<g>
	<path class="st20" d="M581.9,991.8c0,8.2-0.1,16.3-0.1,24.5c0,1.3,0,2.8,0.9,3.9c0.7,0.8,1.8,1.2,2.8,1.6
		c12.2,4.1,24.3,8.2,36.4,12.3"/>
	<g>
		<path class="st20" d="M580.4,991.8c0,4.8,0,9.6-0.1,14.5c0,2.5,0,4.9,0,7.3c0,1.9-0.3,4.2,0.4,6c0.7,1.9,2.2,2.8,4,3.4
			c2.3,0.8,4.7,1.6,7,2.4c4.6,1.6,9.3,3.1,14,4.7c5.3,1.8,10.6,3.6,15.9,5.4c1.8,0.6,2.6-2.3,0.8-2.9c-8.8-3-17.5-5.9-26.3-8.9
			c-2.1-0.7-4.3-1.4-6.4-2.2c-1.1-0.4-2.2-0.8-3.3-1.1c-0.8-0.3-1.8-0.5-2.4-1.1c-1.2-1.2-0.7-4-0.7-5.5c0-2.2,0-4.4,0-6.6
			c0-5.2,0.1-10.3,0.1-15.4C583.4,989.9,580.4,989.9,580.4,991.8L580.4,991.8z"/>
	</g>
</g>
<path class="st2" d="M348.3,1093.5c-2.5,55.3,2.9,127.3,16,216"/>
<path class="st2" d="M369.3,1377.5c-6.3,42.7-9.6,85.3-10,128"/>
<g>
	<path class="st20" d="M613.3,1099.5c-0.7,92.7-1.3,185.3-2,278"/>
	<path class="st20" d="M613.3,1099.5c0,90.3-0.9,187.6-2,278h-0.1C611.5,1287.2,611.7,1189.6,613.3,1099.5L613.3,1099.5z"/>
</g>
<path class="st2" d="M610.3,1507.5c-3.4,36.3-7,69.9-11,97c-11.2,15.7-26,22.7-42,27"/>
<g>
	<path class="st20" d="M402.3,622.5c16.1,82.1,33.1,158.7,53,219"/>
	<path class="st20" d="M402.4,622.5c14,69,28.5,138.1,48.8,205.5c1.4,4.5,2.8,9,4.2,13.5l-0.2,0.1c-12-35.6-21.5-72-30-108.7
		C417,696.4,408.5,658.9,402.4,622.5L402.4,622.5z"/>
</g>
<g>
	<path class="st20" d="M380.3,850.5c24.3,33.5,56.9,50.2,92,62"/>
	<path class="st20" d="M380.4,850.4c21.6,29.2,51.7,47.2,85.3,59.5l6.6,2.4l-0.1,0.2l-6.7-2.2c-24.4-8.4-48.1-20.5-66.9-38.5
		c-6.9-6.5-13-13.7-18.5-21.3C380.2,850.6,380.4,850.4,380.4,850.4L380.4,850.4z"/>
</g>
<line class="st21" x1="570.3" y1="618.5" x2="529.3" y2="722.5"/>
<path class="st0" d="M183.8,25L183.8,25L183.8,25z"/>
<path class="st0" d="M536.3,508.5"/>
<path class="st0" d="M536.3,499.5"/>
<path class="st0" d="M540.3,498.5"/>
<g>
	<path d="M477.8,600.2c10.9,81,13.8,163,12.5,244.6c-0.2,13-0.6,27.8-1.3,40.8c-0.7,13.6-1.3,27.2-2.1,40.8l-1,0
		c0.3-13.6,0.6-27.2,1-40.8c0.9-33.6,0.6-68.3,0-102c-0.7-34-2.3-68-4.4-101.9c-1.7-27.2-3.6-54.3-5.6-81.4
		C476.8,600.3,477.8,600.2,477.8,600.2L477.8,600.2z"/>
</g>
<g>
	<path class="st20" d="M549.7,721c10,0,20,0,30,0"/>
	<g>
		<path class="st20" d="M549.7,722.5c10,0,20,0,30,0c1.9,0,1.9-3,0-3c-10,0-20,0-30,0C547.8,719.5,547.8,722.5,549.7,722.5
			L549.7,722.5z"/>
	</g>
</g>
<g>
	<path class="st20" d="M265.1,803.5c-0.1,2.4,0.6,4.7,1.4,6.9c2.8,8.6,5.6,17.3,8.4,25.9"/>
	<g>
		<path class="st20" d="M263.6,803.5c0,2.8,0.8,5.4,1.6,8c0.9,2.8,1.8,5.7,2.7,8.5c1.8,5.6,3.6,11.2,5.4,16.7c0.6,1.8,3.5,1,2.9-0.8
			c-1.8-5.4-3.5-10.8-5.2-16.3c-0.9-2.7-1.7-5.3-2.6-8c-0.9-2.7-1.9-5.3-1.9-8.2C266.6,801.6,263.6,801.6,263.6,803.5L263.6,803.5z"
			/>
	</g>
</g>
<g>
	<g>
		<path class="st13" d="M731.7,918.2c-13.7,12-27.8,24.4-36.9,40.5c-1,1.8-3.2,4.6-1.6,6.6c0.7,0.9,1.7,1,2.8,1.1
			c1.5,0.2,3,0.3,4.4,0.4c1.9,0.2,1.9-2.8,0-3c-1.1-0.1-2.2-0.2-3.3-0.3c-0.4,0-1.2,0.1-1.5-0.2c0,0,0.3-0.6,0.5-0.9
			c1-1.8,2-3.6,3.1-5.3c2.1-3.4,4.5-6.7,7-9.8c5.2-6.3,11-12.1,17-17.6c3.5-3.2,7-6.3,10.5-9.4C735.3,919.1,733.2,917,731.7,918.2
			L731.7,918.2z"/>
	</g>
</g>
<g>
	<path class="st20" d="M643.3,570.9c-8,8.9-15.9,17.9-23.6,27.1"/>
	<g>
		<path class="st20" d="M642.3,569.8c-8,8.9-15.9,17.9-23.6,27.1c-1.2,1.5,0.9,3.6,2.1,2.1c7.7-9.2,15.6-18.2,23.6-27.1
			C645.7,570.5,643.6,568.4,642.3,569.8L642.3,569.8z"/>
	</g>
</g>
<g>
	<path class="st20" d="M273,857c-0.2,5.8,0.5,11.7,2.1,17.2c0.3,1.1,0.7,2.3,1.6,3c0.8,0.6,1.8,0.8,2.8,1c3.7,0.5,7.4,0.7,11.2,0.5"
		/>
	<g>
		<path class="st20" d="M271.5,857c-0.1,3.3,0.1,6.6,0.5,9.9c0.4,3,0.9,6.3,2.1,9.1c0.5,1.2,1.2,2.3,2.4,2.9c1.3,0.7,2.8,0.8,4.3,1
			c3.3,0.4,6.6,0.5,9.9,0.3c1.9-0.1,1.9-3.1,0-3c-2.9,0.1-5.8,0.1-8.7-0.2c-1.2-0.1-2.6-0.2-3.7-0.6c-1.1-0.4-1.4-1.4-1.7-2.4
			c-1.6-5.5-2.3-11.3-2.1-17C274.6,855.1,271.6,855.1,271.5,857L271.5,857z"/>
	</g>
</g>
<path class="st0" d="M176.3,38.3L176.3,38.3L176.3,38.3z"/>
<path class="st22" d="M414.2,647.1c0.8,19.3,1.6,38.6,2.4,58c-17.9,16.3-43.2,5.5-67.6-1.6c-2.9-19.4-3.2-38.7-2.4-58
	C369.1,646.1,391.7,646.6,414.2,647.1z"/>
<path class="st22" d="M418.7,635.5c-3.7-13.3-69.9-14.1-75.8,2.7c-3,8.4,8.9,21.2,20.5,25.9C389.9,674.8,421.5,645.8,418.7,635.5z"
	/>
<path class="st22" d="M558.3,643.7c-0.9,21.4-1.8,42.8-2.7,64.2c19.8,18,47.9,6.1,74.9-1.8c3.2-21.5,3.5-42.9,2.7-64.2
	C608.2,642.5,583.2,643.1,558.3,643.7z"/>
<path class="st22" d="M557.4,639.2c3.7-13.3,69.9-14.1,75.8,2.7c3,8.4-8.9,21.2-20.5,25.9C586.2,678.5,554.5,649.6,557.4,639.2z"/>
<path class="st23" d="M605.9,628.9c-6.3-0.4-19,0.3-19,0c0,0,3.3,31.7,11,45c4.7,0,9.3,0,14,0C605.2,659.8,604.7,644.5,605.9,628.9z
	"/>
<path class="st24" d="M561.9,655.9c7.8,16.7,10.3,33.5-2,51"/>
<path class="st2" d="M411.5,653.4c-7.8,16.7-10.3,33.5,2,51"/>
<g>
	<g>
		<path d="M461.1,456.6c14.1-3.6,28.4-6.2,42.8-7.6c1-0.1,1-1.6,0-1.5c-14.6,1.5-29,4.1-43.2,7.7
			C459.8,455.4,460.2,456.8,461.1,456.6L461.1,456.6z"/>
	</g>
</g>
<path class="st17" d="M479.8,608.9c13.4-8.1,29.1-19.1,45.2-33.8c18.3-16.6,31.9-33.3,41.8-47.2c0.7-9.3,0.4-23.5-6.3-38.5
	c-1.7-3.8-3.6-7.2-5.5-10.2c-8,13.7-21.3,32.4-42.1,49.7c-12.5,10.4-24.7,17.8-35,23C478.5,570.9,479.2,589.9,479.8,608.9z"/>
<path class="st17" d="M479.7,610.9c-11.6-6.1-28.6-16.8-44.9-34.6c-17.6-19.3-27-38.8-32-51.4c-2.5-22.8-0.6-39.8,1.6-44.5
	c1.4-3,3.1-5.7,3.1-5.7c1.6-2.5,3.2-4.6,4.7-6.3c5.5,14.8,12.1,26.5,17.6,34.8c2.4,3.6,9.8,14.5,21.9,26.7c9,9.1,17.8,16,25,21
	C477.8,570.9,478.7,590.9,479.7,610.9z"/>
<path class="st18" d="M478.3,768.4c-60.2,2.2-115.2,3-155.5,0c-1.4-10.6-2.5-20.9,0-26.9c51.4,2.8,103.2,2.8,155.5,0
	C479.4,752,480,761.8,478.3,768.4z"/>
<path class="st18" d="M492.3,770.8c55.9,1.7,106.9,2.3,144.3,0c0.1-3.6,0.5-7.5,1.4-11.8c0.8-3.6,1.8-7,2.9-10
	c-23.3,1.4-48.8,2.4-76.2,2.5c-25.9,0.1-50.2-0.5-72.5-1.7C491.3,758,490.8,765.7,492.3,770.8z"/>
<path class="st25" d="M430.9,743c-1,0-2,0-3,0c0.8,3.9,1.6,7.9,2.6,12c1.1,4.5,2.2,8.9,3.4,13c1,0,2,0,3,0c-0.7-3.3-1.5-6.6-2.3-10
	C433.4,752.9,432.2,747.9,430.9,743z"/>
<path class="st18" d="M482.3,954.1c-59.8,2.5-114.5,3.5-154.5,0c-1.4-12.4-2.5-24.3,0-31.3c51.1,3.3,102.6,3.2,154.5,0
	C483.4,935,484,946.4,482.3,954.1z"/>
<path class="st18" d="M490.3,954.2c57.5,2.5,110.1,3.4,148.6,0c1.4-12,2.4-23.6,0-30.3c-49.1,3.2-98.6,3.2-148.6,0
	C489.3,935.6,488.7,946.7,490.3,954.2z"/>
<path class="st26" d="M638.8,841.9c-106.5,28.6-210.2,20.5-313,0"/>
<path class="st27" d="M638.2,841.6c-106.5,28.6-210.2,20.5-313,0"/>
<rect x="461.3" y="847.4" class="st28" width="66" height="25"/>
<path class="st18" d="M762,961.6c-35,10.2-67.1,18.4-91.5,20.9c-3.2-10.2-6.2-20-6-26.2c30.9-4.1,61.4-11.2,91.5-20.9
	C759,945.4,761.5,954.9,762,961.6z"/>
<path class="st18" d="M200.5,952.8c29.9,11.2,57.5,20.3,78.7,23.6c3.8-10,7.3-19.6,7.7-25.8c-26.8-5.1-53.1-13-78.7-23.6
	C204.7,936.9,201.6,946.2,200.5,952.8z"/>
<path class="st18" d="M331.3,1675.4c12.8,2.3,30.1,4,50.3,1.9c14.9-1.5,27.6-4.7,37.7-7.9c3-9,6-18,9-27
	c-13.6,3.8-31.4,7.4-52.3,8.4c-20.8,1-38.8-0.9-52.7-3.4c-0.8,2.4-1.8,6.7-1,12C323.7,1668.4,329.5,1673.8,331.3,1675.4z"/>
<path class="st18" d="M615.3,1674.4c-8.2,3.6-21.7,8.3-39,9c-15.9,0.6-28.8-2.4-37-5c-5.1-9.2-10.3-18.4-15.5-27.6
	c-0.8-1.4-1.7-2.9-2.5-4.4c15.1,6.3,36.8,12.7,62,10c25.3-2.7,48-8,48-8S631.4,1657.3,615.3,1674.4z"/>
<g>
	<g>
		<path class="st29" d="M672.8,637.3c-7.8,3.2-15.7,6.3-23.5,9.5c-0.1,0-0.1,2.5,0,2.2c0,1.8,0,3.5,0,5.3c0,1.8,0,3.5,0,5.3
			c0,0.2,0.1,2.2,0,2.2c7.8-3.2,15.7-6.3,23.5-9.5c0.1,0,0.1-2.5,0-2.2c0-1.8,0-3.5,0-5.3c0-1.8,0-3.5,0-5.3
			C672.9,639.2,672.8,637.3,672.8,637.3L672.8,637.3z"/>
	</g>
</g>
<g>
	<g>
		<path class="st30" d="M672.8,636.5c-8,3-16,6-24,9c-0.3,0.1,0.3,2.4,0,2.5c8-3,16-6,24-9C673.1,638.9,672.6,636.6,672.8,636.5
			L672.8,636.5z"/>
	</g>
</g>
<g>
	<g>
		<path class="st30" d="M673.3,650.5c-8.2,3-16.3,6-24.5,9c-0.3,0.1,0.2,2.4,0,2.5c8.2-3,16.3-6,24.5-9
			C673.6,652.9,673.1,650.6,673.3,650.5L673.3,650.5z"/>
	</g>
</g>
<polygon class="st31" points="667.2,649.5 659.4,652.3 661.7,645.1 "/>
<polygon class="st31" points="658.3,648 666.3,645.7 663.5,652.6 "/>
<path class="st32" d="M298.8,229.9c-4.4-18.2,61.5-164.5,184-167c133.3-2.7,183.2,165.3,167,182C544,221.9,426,218.6,298.8,229.9z"
	/>
<g>
	<g>
		<path class="st33" d="M487.5,60.1c-23.1,13.7-42.3,32.8-60.3,52.7c-19.1,21.1-37.2,43.1-54.2,65.9c-9.6,12.9-18.9,26-27.8,39.3
			c-0.3,0.4,0,2,0,2.5c0,0.6,0,1.2,0,1.8c0,0.1,0.1,0.6,0,0.7c15.9-23.7,32.8-46.7,50.8-68.8c9-11.1,18.3-22.1,27.9-32.7
			c8.9-10,18-19.8,27.8-28.9c11-10.3,22.8-19.7,35.8-27.4c0.2-0.1,0-2.2,0-2.5C487.5,62.3,487.3,60.2,487.5,60.1L487.5,60.1z"/>
	</g>
</g>
<g>
	<g>
		<path class="st33" d="M512.7,71.5c23.3,5.7,39.7,26,52.4,45c14.3,21.4,25,44.9,34.4,68.7c5.3,13.5,10.1,27.1,15,40.8
			c-0.2-0.6,0-1.8,0-2.5c0-0.7,0.2-1.8,0-2.5c-8.6-24.2-17.2-48.5-28.2-71.7c-5.5-11.6-11.6-22.9-18.5-33.8
			c-6.6-10.3-13.8-20.3-22.4-29c-9.1-9.2-20-17-32.7-20.1C513,66.6,512.3,71.4,512.7,71.5L512.7,71.5z"/>
	</g>
</g>
<g>
	<g>
		<path class="st29" d="M459.9,214.3c-19.5-1.2-39.1-1.5-58.6-0.8c-19.5,0.6-39.1,2.2-58.4,4.7c-11,1.4-21.9,3.1-32.8,5.1
			c-0.3,0.1,0.3,4.9,0,5c19.2-3.5,38.6-6.1,58.1-7.8c19.5-1.7,39-2.5,58.6-2.3c11.1,0.1,22.2,0.5,33.2,1.1
			C459.8,219.3,460,214.3,459.9,214.3L459.9,214.3z"/>
	</g>
</g>
<path class="st34" d="M647.8,271.9c11.2-4.8,19.9-10.2,19.5-15.5c-2.7-34.9-396.2-47.1-401-13c-0.9,6.4,11.8,15,42.5,26.5"/>
<g>
	<g>
		<path class="st33" d="M490,65.5c0.9-1.6,0.7-3.9,2-5.2c0.8-0.8,1.9-0.8,3-0.8c1.5,0,2.9,0,4.4-0.1c1.4,0,2.8,0,4.2-0.1
			c1.2,0,2.4-0.1,3.5,0.3c1.9,0.6,3.6,2.8,3.8,4.8c0-1.6,0-3.3,0-4.9c0,1.6-2.1,1.2-3.2,1.2c-1.7,0-3.4-0.1-5.2-0.2
			c-3.4-0.3-6.9-0.7-10.2-1.3c0,1.7,0,3.3,0,5c0.5-2.1,3.4-1.8,5-1.7c2.9,0.1,5.9,0.2,8.8,0.3c0-1.7,0-3.3,0-5
			c-3.3,0-6.5-0.1-9.8-0.1c-0.8,0-1.6,0-2.4,0c-0.7,0-1.5-0.1-2.2,0.1c-1.5,0.4-1.1,2-1.1,3.2c0,1.3-0.4,3.3,0.5,4.4
			c0.9,1.1,2.5,1,3.8,0.9c3-0.1,6.2-0.2,9.1-1.1c1.3-0.4,2.5-1,3.1-2.2c0.3-0.7,0.5-1.3,1.3-1.5c0.7-0.2,1.4-0.1,2.1,0
			c-0.2,0,0.3-5,0-5c-0.7-0.1-1.4-0.2-2.1,0c-0.8,0.3-1,0.9-1.3,1.5c-0.6,1.3-1.9,1.9-3.2,2.3c-1.6,0.4-3.3,0.6-5,0.8
			c-1.7,0.2-3.4,0.3-5.1,0.3c-0.7,0-1.5-0.1-2.1-0.5c-0.2-0.2-0.4-0.4-0.6-0.6c-0.1-0.1-0.1-0.2-0.2-0.3c-0.5-1.5-0.5-0.2-0.1,3.8
			c0.4-0.6,0.7-0.9,1.5-1c0.9-0.1,1.7,0,2.6,0c3.8,0,7.6,0.1,11.4,0.2c0,0,0.1-5,0-5c-2.9-0.1-5.9-0.2-8.8-0.3c-1.6,0-4.5-0.3-5,1.7
			c-0.1,0.5-0.1,5,0,5c3.9,0.7,7.7,1.2,11.6,1.4c1.9,0.1,3.9,0.3,5.8,0.2c1.8-0.2,1.3-2.6,1.3-3.8c0-1.8,0.1-3.2-0.9-4.7
			c-0.9-1.4-1.9-2.5-3.5-2.8c-1.6-0.3-3.4-0.1-5.1-0.1c-2,0-4,0.1-5.9,0.1c-1.7,0-3.2,0.1-4,1.8c-0.6,1.4-0.6,2.9-1.4,4.2
			c-0.1,0.1,0,0.7,0,0.7c0,0.6,0,1.2,0,1.8s0,1.2,0,1.8C490,65,490.1,65.4,490,65.5L490,65.5z"/>
	</g>
</g>
<path class="st35" d="M296.8,220.9c15.7-13,87.3-69.5,192-63.4c94.8,5.6,155.6,59,172,74.4c-5.3-18.7-10.7-37.3-16-56
	c-4.6-7.3-58.6-90.3-160.5-94.4c-73.2-3-142.8,35.8-180.4,100.4C301.5,194.9,299.2,207.9,296.8,220.9z"/>
<path class="st36" d="M296.8,220.9c15.7-13,87.3-69.5,192-63.4c94.8,5.6,155.6,59,172,74.4c-5.3-18.7-10.7-37.3-16-56
	c-4.6-7.3-58.6-90.3-160.5-94.4c-73.2-3-142.8,35.8-180.4,100.4C301.4,194.9,299.1,207.9,296.8,220.9z"/>
<path class="st37" d="M374.8,172.9c10-3.3,20-6.7,30-10c12.3-25,24.7-50,37-75c-13.1,0.2-27.2,4.7-42,12
	C391.5,124.2,383.2,148.5,374.8,172.9z"/>
<path class="st37" d="M487.8,155.9c8.7,0.1,18.5,0.8,29.3,2.4c14.7,2.3,27.3,5.9,37.7,9.6c7-19.3,14-38.7,21-58
	c-19.1-9.5-40-17.3-64-22C503.8,110.5,495.8,133.2,487.8,155.9z"/>
<path class="st38" d="M656.9,242.2c6.7,1.6,20.6-9.8,18.6-24.6S657,195.4,651,198.8C641.8,203.9,646.7,239.7,656.9,242.2z"/>
<path class="st38" d="M289.3,229.3c-6.8,0.1-18.6-13-14.1-25.9c4.4-13,21.7-16.2,27-11.9C310.4,198,299.8,229.2,289.3,229.3z"/>
<g>
	<g>
		<path class="st39" d="M302.4,194.1c4.9-4.6,10.4-8.6,16.3-11.9c0,0,0-0.8,0-0.7c0-0.6,0-1.2,0-1.8c0-0.6,0-1.2,0-1.8
			c0-0.1-0.1-0.7,0-0.7c-5.9,3.3-11.4,7.3-16.3,11.9c0,0.1,0,0.8,0,0.7c0,0.6,0,1.2,0,1.8c0,0.6,0,1.2,0,1.8
			C302.4,193.5,302.5,194.1,302.4,194.1L302.4,194.1z"/>
	</g>
</g>
<g>
	<g>
		<path class="st39" d="M303.9,202.1c3-1,5.4-3.3,8-4.9c2.8-1.7,5.7-3.1,8.7-4.3c0.2-0.1,0-2.3,0-2.5c0-0.2-0.2-2.4,0-2.5
			c-3,1.2-5.9,2.6-8.7,4.3c-2.6,1.6-5.1,3.9-8,4.9c-0.1,0.1,0,2.3,0,2.5C303.9,199.8,304,202.1,303.9,202.1L303.9,202.1z"/>
	</g>
</g>
<g>
	<g>
		<path class="st39" d="M317.4,184.2c0.2,1.3,0.4,2.6,0.6,4c0-0.2,0-0.5,0-0.7c0-0.6,0-1.2,0-1.8c0-0.6,0-1.2,0-1.8
			c0-0.2,0-0.5,0-0.7c-0.2-1.3-0.4-2.6-0.6-4c0,0.2,0,0.5,0,0.7c0,0.6,0,1.2,0,1.8c0,0.6,0,1.2,0,1.8
			C317.4,183.7,317.3,183.9,317.4,184.2L317.4,184.2z"/>
	</g>
</g>
<g>
	<g>
		<path class="st39" d="M649.7,196c-1.9-5.9-4.4-11.5-7.5-16.8c0,0.1,0,0.7,0,0.7c0,0.6,0,1.2,0,1.8c0,0.6,0,1.2,0,1.8
			c0,0.2-0.1,0.6,0,0.7c3.1,5.3,5.6,10.9,7.5,16.8c0-0.1,0-0.6,0-0.7c0-0.6,0-1.2,0-1.8c0-0.6,0-1.2,0-1.8
			C649.8,196.5,649.8,196.2,649.7,196L649.7,196z"/>
	</g>
</g>
<g>
	<g>
		<path class="st39" d="M634.9,200.1c2.5,1.4,4.9,2.7,7.4,4.1c1.9,1.1,3.8,2.3,4.6,4.4c0-0.1,0-0.7,0-0.7c0-0.6,0-1.2,0-1.8
			c0-0.6,0-1.2,0-1.8c0-0.2,0.1-0.5,0-0.7c-0.8-2.1-2.7-3.4-4.6-4.4c-2.5-1.4-4.9-2.8-7.4-4.1c0,0,0,0.8,0,0.7c0,0.6,0,1.2,0,1.8
			c0,0.6,0,1.2,0,1.8C634.9,199.5,634.9,200.1,634.9,200.1L634.9,200.1z"/>
	</g>
</g>
<g>
	<g>
		<path class="st39" d="M635.9,199.8c3.1-4.5,5.5-9.4,7.2-14.6c0.1-0.2,0-0.6,0-0.7c0-0.6,0-1.2,0-1.8c0-0.6,0-1.2,0-1.8
			c0-0.2-0.1-0.6,0-0.7c-1.7,5.2-4.1,10.1-7.2,14.6c-0.1,0.1,0,0.7,0,0.7c0,0.6,0,1.2,0,1.8c0,0.6,0,1.2,0,1.8
			C635.8,199.2,635.9,199.7,635.9,199.8L635.9,199.8z"/>
	</g>
</g>
<g>
	<g>
		<path class="st40" d="M595.8,210.3c17.5,5.9,34,14.4,49,25c-0.1,0,0.1-2.5,0-2.2c0-1.8,0-3.5,0-5.3c0-1.8,0-3.5,0-5.3
			c0-0.3,0.2-2,0-2.2c-15-10.7-31.6-19.1-49-25c0,0-0.1,2.5,0,2.2c0,1.8,0,3.5,0,5.3c0,1.8,0,3.5,0,5.3
			C595.8,208.4,595.7,210.2,595.8,210.3L595.8,210.3z"/>
	</g>
</g>
<g>
	<g>
		<path class="st40" d="M309.9,225.1c15.4-8.3,32.1-14.2,49.3-17.5c4.9-0.9,9.8-1.6,14.8-2.1c0.2,0,0.1-6.9,0.1-7.5
			c0-0.6-0.1-7.5-0.1-7.5c-17.4,1.7-34.6,6.2-50.7,13.1c-4.6,2-9.1,4.2-13.4,6.5c-0.1,0.1-0.1,2.4-0.1,2.2c0,1.8,0,3.5,0,5.3
			c0,1.8,0,3.5,0,5.3C309.8,223.2,310,225.1,309.9,225.1L309.9,225.1z"/>
	</g>
</g>
<path class="st41" d="M369.4,408.8c11,13.2-62.8-25.3-76.5-79.7c-10.9-43.1,5.4-108.7,16.7-97.1
	C316.2,238.8,366.2,404.9,369.4,408.8z"/>
<path class="st41" d="M583.8,403.9c-11,11.9,62.8-22.9,76.5-72c10.8-38.9-5.4-98.2-16.7-87.7C637.1,250.3,587.1,400.4,583.8,403.9z"
	/>
<g>
	<g>
		<path d="M634.7,242.7c-6.7,29.2-14.2,58.2-22.7,86.8c-6.4,21.6-14.3,42.5-25.1,62.3c-10.4,19.2-23.1,37.1-38,53
			c-5.4,5.7-11,11.1-16.9,16.3c-2.3,2-4.6,3.9-6.9,5.7c-0.5,0.4-1,0.8-1.5,1.1c-0.7,0.5,0.3-0.2-0.3,0.2c-0.3,0.2-0.5,0.4-0.8,0.6
			c-0.9,0.7-1.8,1.3-2.7,2c-8.7,6.4-18.4,12.9-28.1,16.6c-2.9,1.1-5.7,2-8.8,2.5c-0.8,0.1,0.3,0-0.2,0c-0.3,0-0.5,0.1-0.8,0.1
			c-0.5,0-1,0.1-1.6,0.1c-0.4,0-0.9,0-1.3,0c-0.2,0-0.4,0-0.5,0c-0.2,0,0.8,0.1,0.1,0c-6.1-1.2-11.9-3-17.6-5.5
			c-6-2.7-11.8-5.9-17.4-9.4c-11.1-6.7-22.1-13.6-31.8-22.2c-15.3-13.4-27.8-29.8-37.5-47.7c-3.6-6.6-6.9-13.4-9.8-20.3
			c-0.1-0.3-0.3-0.6-0.4-1c-0.3-0.8,0,0.1-0.2-0.6c-0.3-0.7-0.6-1.4-0.9-2.1c-0.5-1.2-1-2.4-1.5-3.6c-0.8-2-1.6-4.1-2.5-6.1
			c-2.9-6.8-5.8-13-8.5-19.8c-3.6-9.2-6.9-18.5-9.8-28c-7.2-23.5-12.3-47.7-15-72.2c-0.8-6.9-1.4-13.8-1.8-20.7
			c-0.2-3.8-6.2-3.9-6,0c1.7,26.7,5.8,53.3,12.7,79.2c5.1,19.3,11.7,38.1,19.6,56.4c1.2,2.8,2.5,5.6,3.8,8.4c-0.4-1,0.1,0.3,0.3,0.6
			c0.2,0.5,0.4,0.9,0.6,1.4c0.4,1.1,0.9,2.2,1.3,3.3c2.5,6.2,5.2,12.4,8.1,18.5c8.4,17.4,19.2,33.8,32.5,48
			c8.2,8.7,17.3,16.5,27.3,23.1c11.5,7.7,23.3,15.4,36.1,20.8c5.6,2.4,11.4,4.4,17.4,5.3c2.4,0.4,4.6,0.3,7-0.1
			c7.6-1.1,14.9-4.8,21.5-8.6c13.8-7.8,26.5-17.9,38-28.8c14.6-13.9,27.4-29.6,38.2-46.6c12.6-19.6,22.6-40.9,30.1-63
			c4.3-12.7,8-25.7,11.5-38.7c4-14.6,7.9-29.3,11.5-44c1.8-7.3,3.5-14.6,5.2-21.8C641.3,240.6,635.5,238.9,634.7,242.7L634.7,242.7z
			"/>
	</g>
</g>
<g>
	<path class="st29" d="M506.7,360.2c-2.5-4.1-2.3-8.1-2.1-11.5c0.1-1.5,0.5-11.2,6.4-17c11.4-11.1,45.3-10.9,58,4.3
		c5.7,6.8,8,17.6,1.5,26.1c-9,11.7-28.8,10.8-33.6,10.6C534.2,372.5,513.5,371.5,506.7,360.2z"/>
	<path class="st42" d="M574.2,363.6c0.3-2.5,2.3-19.7-10.6-31c-15.9-13.8-45-10.3-56,2.9c-2.8,3.4-4.2,7.1-4.8,10.2"/>
	<circle class="st24" cx="533.2" cy="347.1" r="12.2"/>
	<circle class="st29" cx="538.9" cy="343.4" r="4.8"/>
	<path class="st29" d="M444.2,360c2.3-4.2,2-8.2,1.7-11.6c-0.1-1.5-0.9-11.1-7.1-16.8c-11.8-10.7-45.6-9.1-57.8,6.5
		c-5.5,7-7.4,17.9-0.5,26.1c9.5,11.3,29.2,9.7,34,9.3C417.2,373.4,437.9,371.5,444.2,360z"/>
	<circle class="st24" cx="417.3" cy="348" r="12.2"/>
	<circle class="st29" cx="423.4" cy="344.2" r="4.8"/>
	<path class="st0" d="M383.8,367.4c3.1,1.5,28.9,13.2,50,0c5.2-3.3,9-7.3,11.8-11.2"/>
	<path class="st43" d="M432.2,310.3c-23.8-0.3-45.8,4-64.7,15.2"/>
	<path class="st43" d="M514.2,308.8c23.8-1.2,45.9,2.2,65.3,12.7"/>
	<path class="st42" d="M376.1,364.7c-0.4-2.5-3.1-19.6,9.4-31.3c15.4-14.4,44.5-12,56,0.8c3,3.3,4.4,6.9,5.2,10"/>
	<path class="st0" d="M567.5,365.7c-3,1.6-28.4,14.3-50,2c-5.3-3-9.3-7-12.2-10.8"/>
</g>
</svg>
