<?xml version="1.0" encoding="utf-8"?>
<!-- Generator: Adobe Illustrator 28.3.0, SVG Export Plug-In . SVG Version: 6.00 Build 0)  -->
<svg version="1.1" id="Layer_1" xmlns="http://www.w3.org/2000/svg" xmlns:xlink="http://www.w3.org/1999/xlink" x="0px" y="0px"
	 viewBox="0 0 676 1859" style="enable-background:new 0 0 676 1859;" xml:space="preserve">
<style type="text/css">
	.st0{fill:none;stroke:#000000;stroke-miterlimit:10;}
	.st1{fill:#5B1A1A;stroke:#5B1A1A;stroke-miterlimit:10;}
	.st2{fill:#141123;stroke:#141123;stroke-miterlimit:10;}
	.st3{fill:#DA7A22;stroke:#000000;stroke-miterlimit:10;}
	.st4{fill:#FFE3CB;stroke:#000000;stroke-miterlimit:10;}
	.st5{fill:#2D2A38;}
	.st6{fill:#FFB995;}
	.st7{fill:#332C26;stroke:#000000;stroke-miterlimit:10;}
	.st8{opacity:0.44;fill:#D8B8A3;}
	.st9{fill:#332C26;}
	.st10{fill:#964420;}
	.st11{fill:none;stroke:#FFB995;stroke-miterlimit:10;}
	.st12{fill:#1E2722;stroke:#000000;stroke-miterlimit:10;}
	.st13{fill:#20382B;}
	.st14{fill:#FFB995;stroke:#FFB995;stroke-miterlimit:10;}
	.st15{fill:#FFB995;stroke:#000000;stroke-width:0.5;stroke-miterlimit:10;}
	.st16{fill:#E0CA5C;}
	.st17{fill:#E0CA5C;stroke:#000000;stroke-miterlimit:10;}
	.st18{fill:#2D2A38;stroke:#000000;stroke-miterlimit:10;}
	.st19{fill:#A59E9B;stroke:#E5CC4E;stroke-width:8;stroke-miterlimit:10;}
	.st20{fill:#FFFFFF;stroke:#000000;stroke-miterlimit:10;}
	.st21{fill:#141123;}
	.st22{fill:#32303F;stroke:#000000;stroke-miterlimit:10;}
	.st23{fill:#9393A5;stroke:#9393A5;stroke-miterlimit:10;}
	.st24{stroke:#000000;stroke-miterlimit:10;}
	.st25{fill:#7A767A;stroke:#7A767A;stroke-miterlimit:10;}
	.st26{fill:none;stroke:#141123;stroke-width:24;stroke-miterlimit:10;}
	.st27{fill:none;stroke:#E5CC4E;stroke-width:4;stroke-miterlimit:10;}
	.st28{fill:#A59E9B;}
	.st29{fill:#FFFFFF;}
	.st30{fill:#2E3192;}
	.st31{fill:none;stroke:#2E3192;stroke-miterlimit:10;}
	.st32{fill:#B73030;stroke:#000000;stroke-miterlimit:10;}
	.st33{fill:#5B1A1A;}
	.st34{fill:none;stroke:#000000;stroke-width:10;stroke-miterlimit:10;}
	.st35{opacity:0.31;fill:#FFF3F3;stroke:#FFFFFF;stroke-miterlimit:10;}
	.st36{fill:none;stroke:#FFFFFF;stroke-miterlimit:10;}
	.st37{opacity:0.51;fill:#FFFFFF;stroke:#FFFFFF;stroke-width:5;stroke-miterlimit:10;}
	.st38{fill:#FFFFFF;stroke:#000000;stroke-width:2;stroke-miterlimit:10;}
	.st39{fill:#4F4345;}
	.st40{fill:#DDCD3C;}
	.st41{fill:#DDCD3C;stroke:#000000;stroke-width:3;stroke-miterlimit:10;}
	.st42{fill:none;stroke:#000000;stroke-width:4;stroke-miterlimit:10;}
	.st43{fill:none;stroke:#000000;stroke-width:3;stroke-miterlimit:10;}
</style>
<path class="st0" d="M189.75,1783.6c40.99,18.4,81.99,18.89,123,1"/>
<path class="st0" d="M502.65,1783.12c-40.99,18.4-81.99,18.89-123,1"/>
<path class="st1" d="M506.65,271.91c11.18-4.77,19.91-10.17,19.5-15.5c-2.72-34.93-396.25-47.08-401-13
	c-0.89,6.39,11.81,15.03,42.5,26.5"/>
<path class="st0" d="M303.7,1295.8"/>
<path class="st0" d="M716.2,37.3L716.2,37.3L716.2,37.3z"/>
<path class="st2" d="M415.45,507.02c5.63-10.72,4.65-24.65-2.17-35c-25.15-38.17-129.98-28.17-143.48,4
	c-6.56,15.64,9.72,33.54,11.96,36C314.39,547.89,398.02,540.21,415.45,507.02z"/>
<path class="st3" d="M203.67,539.02c0.02,23.74,4.66,54.68,25,80c57.6,71.69,210.27,59.93,245-7c5.83-11.24,13.22-33.46,2-71
	c-27.67-7-55.33-14-83-21c-28.46-1.23-61.5-0.83-98,3C260.48,526.61,203.67,539.02,203.67,539.02z"/>
<path class="st4" d="M401.03,430.49c2.63,23.55-6,13-8,90c-2.94,9.27-8.97,25.81-22,43c-10.02,13.22-18.65,24.6-30,25
	c-18.93,0.66-33.56-29.65-40-43c-13.52-28-6-64-11-106C311.08,413.25,358.72,406.59,401.03,430.49z"/>
<g>
	<path class="st5" d="M455.65,933.54c2.85-11.55,4.33-17.56,1.38-22.05c-1.81-2.74-4.99-4.92-11.98-5.8
		c-54.87-6.94-12.26-12.05-90.68-13.56c-40.48-0.78-83.06-0.96-118.58,18.47c-1.79,0.98-3.64,2.08-4.69,3.84
		c-0.89,1.49-1.1,3.28-1.28,5.02c-3.14,30.51-3.29,61.33-0.43,91.87c0.78,8.37,1.82,16.83,4.83,24.68
		c4.34,11.31,12.51,20.66,20.51,29.75c7.42,8.43,9.31,6.03,13.52,11.46c10.6,13.65,3.46,25.17,11.35,32.67
		c8.81,8.37,28.84,4.56,41-3c9.35-5.82,9.23-10.85,27.08-27.59c7.9-7.41,8-5.44,15.19-13.11c13.19-14.04,26.4-28.12,38.09-43.43
		c4.17-5.47,8.16-11.11,12.94-16.05c5.42-5.6,11.8-10.25,16.83-16.21c6.18-7.32,9.12-14.37,13.9-25.26
		c3.19-7.28,5.34-13.59,6.97-18.39C453.19,942.2,454.43,938.51,455.65,933.54z"/>
	<g>
		<path d="M457.1,933.94c0.86-3.5,1.77-6.99,2.41-10.54c0.45-2.49,0.83-5.08,0.54-7.62c-0.52-4.53-3.38-7.99-7.53-9.76
			c-2.98-1.27-6.15-1.66-9.34-2.08c-2.62-0.34-5.25-0.72-7.86-1.13c-3.78-0.6-7.54-1.27-11.27-2.13c-2.4-0.55-4.78-1.19-7.1-1.99
			c-0.83-0.29-1.66-0.59-2.48-0.92c-0.18-0.07-0.37-0.15-0.55-0.22c-0.08-0.03-0.16-0.07-0.25-0.1c-0.23-0.1,0.3,0.13,0,0
			c-0.33-0.14-0.67-0.29-1-0.43c-2.97-1.3-5.91-2.48-9.09-3.18c-6.6-1.44-13.45-1.84-20.17-2.23c-13.93-0.8-27.9-1.04-41.85-1.19
			c-15.19-0.17-30.42,0.02-45.54,1.56c-14.84,1.51-29.63,4.31-43.66,9.48c-3.46,1.28-6.88,2.69-10.22,4.25
			c-3.28,1.52-6.82,3.05-9.73,5.22c-1.36,1.02-2.46,2.23-3.12,3.82c-0.68,1.65-0.84,3.44-1.02,5.2c-0.44,4.27-0.81,8.54-1.13,12.81
			c-1.28,17.19-1.61,34.44-0.99,51.67c0.31,8.65,0.86,17.3,1.65,25.92c0.74,8.04,1.62,16.18,4.19,23.87
			c2.42,7.23,6.39,13.78,10.99,19.82c2.27,2.98,4.67,5.87,7.12,8.7c2.4,2.77,4.75,5.66,7.52,8.07c2.94,2.56,6.71,3.95,9.2,7
			c4.39,5.37,6.03,11.76,6.66,18.52c0.48,5.12,0.93,10.41,4.72,14.28c3.8,3.88,9.4,5.27,14.66,5.48c6.12,0.24,12.34-1,18.09-3.02
			c4.93-1.73,9.72-4.07,13.84-7.32c2.61-2.06,4.77-4.55,6.88-7.1c3.11-3.76,6.26-7.47,9.64-10.99c4.45-4.64,9.07-9.26,14.29-13.04
			c4.79-3.47,8.68-7.75,12.71-12.05c11.28-12.04,22.45-24.21,32.56-37.26c4.91-6.34,9.47-12.99,15.18-18.65
			c5.43-5.39,11.61-10.01,16.46-15.97c3.98-4.9,6.98-10.38,9.6-16.11c3.19-6.94,6.21-13.96,8.79-21.15
			C453.21,947.01,455.46,940.55,457.1,933.94c0.47-1.87-2.43-2.67-2.89-0.8c-1.66,6.67-3.93,13.2-6.25,19.66
			c-2.51,7.01-5.46,13.85-8.58,20.61c-2.6,5.63-5.56,11.1-9.57,15.87c-4.83,5.75-10.89,10.26-16.17,15.56
			c-5.5,5.51-9.94,11.93-14.67,18.08c-4.93,6.4-10.14,12.59-15.48,18.64c-5.38,6.1-10.91,12.07-16.46,18.01
			c-4.01,4.29-7.87,8.79-12.65,12.26c-9.09,6.59-16.85,15.06-23.97,23.69c-2.08,2.52-4.14,5.07-6.62,7.21
			c-3.51,3.03-7.79,5.23-12.09,6.88c-5.6,2.15-11.62,3.54-17.64,3.5c-4.94-0.03-10.4-1.09-13.92-4.85
			c-3.45-3.7-3.31-9.16-3.82-13.87c-0.74-6.82-2.83-13.07-7.17-18.49c-1.21-1.51-2.64-2.77-4.29-3.79
			c-1.58-0.97-3.19-1.85-4.62-3.04c-2.66-2.21-4.88-4.89-7.14-7.49c-2.43-2.79-4.82-5.6-7.08-8.52c-4.52-5.85-8.55-12.2-10.96-19.22
			c-2.61-7.57-3.51-15.58-4.23-23.51c-1.54-16.83-2.17-33.75-1.89-50.65c0.14-8.41,0.51-16.82,1.1-25.21
			c0.3-4.19,0.65-8.39,1.06-12.57c0.18-1.86,0.22-3.84,0.82-5.63c0.54-1.6,1.75-2.66,3.14-3.53c6.14-3.83,13.12-6.65,19.92-9.05
			c6.85-2.41,13.88-4.29,21-5.73c14.47-2.93,29.24-4.06,43.97-4.44c15.08-0.39,30.18-0.08,45.25,0.35
			c10.04,0.28,20.13,0.57,30.12,1.68c3.99,0.45,8.28,1.08,12.25,2.54c0.32,0.12,0.64,0.24,0.96,0.37c0.15,0.06,0.3,0.12,0.44,0.18
			c0.45,0.18-0.13-0.06,0.23,0.09c0.62,0.27,1.24,0.54,1.86,0.81c1.53,0.67,3.06,1.32,4.63,1.87c5.49,1.95,11.28,3.04,17.01,3.99
			c2.44,0.4,4.89,0.77,7.34,1.11c3.07,0.42,6.2,0.66,9.19,1.51c3.97,1.13,7.36,3.66,7.85,8c0.26,2.3-0.1,4.66-0.52,6.92
			c-0.64,3.43-1.51,6.81-2.34,10.2C453.75,935.02,456.64,935.82,457.1,933.94z"/>
	</g>
</g>
<g>
	<path class="st6" d="M292.53,438.99c11.99-6.42,36.45-17.3,68.33-16.11c16.83,0.63,30.72,4.43,40.67,8.11c-2,15-4,30-6,45
		c0,0-23.03,18.75-36.31,22.96c-17.24,5.47-32.91,4.91-46.59,4.21c-8.43-0.43-15.37-1.39-20.1-2.18"/>
</g>
<path class="st7" d="M490.03,321.49c5.54-8.08,19.24-30.37,20-60.38c1.13-44.78-26.96-90.63-65.69-110.21
	c-46.13-23.34-120.47-19.35-100.31-20.41c19-1,27.61-47.69,26-49c-1.54-1.25-23.69,27.21-41,42
	c-73.17,12.33-94.04,14.23-94.42,12.38c-0.32-1.56,13.26-9.33,24-5c9.81,3.96,13.53,16.5,28.93,20.49c0.22,0.06,0.39,0.1,0.49,0.12
	c-11.66-5.32-27.47-9.8-45-7c-37.09,5.91-68.24,42.16-77,91c1.39,26.89,8.7,77.86,47,115C289.7,424.85,439.87,394.66,490.03,321.49z
	"/>
<path class="st4" d="M188.03,312.49c-10.38,4.58-10.06,25.47-10,28c1.09,43.16,55.54,68.45,59,70c12.05,5.4,24.6,11.04,30,6
	c10.43-9.73-12.72-52.96-40-81C217.63,325.84,199.66,307.37,188.03,312.49z"/>
<path class="st4" d="M491.45,312.93c10.38,4.58,10.06,25.47,10,28c-1.09,43.16-55.54,68.45-59,70c-12.05,5.4-24.6,11.04-30,6
	c-10.43-9.73,12.72-52.96,40-81C461.85,326.27,479.82,307.8,491.45,312.93z"/>
<path class="st4" d="M214.03,297.49c3,48,28,110,28,110s9,45,99,83c15.38-5.65,63.48-25.54,97-78c21-54,31.35-104.69,30-121
	c-9.02-56.66-54.24-130.14-123-132C272.8,157.54,221.66,235.89,214.03,297.49z"/>
<path class="st8" d="M437.06,409.67c-0.16-0.01-20.35,26.64-31,22c-6.78-2.95-2.09-15.3-11-22c-6.19-4.65-18.04-3-41.5,0.5
	c-7.61,1.14-6.5,1.24-12,2c-29.43,4.06-39.16-1.29-47,5c-9.09,7.29-0.58,22.25-7,26c-10,5.85-36.32-24.26-37-24
	c-0.51,0.19-1.11,0.38-1.19,0.89c-2.69,17.72,89,74.44,91.69,69.61c0,0,41-17,61-37.25C418.74,437.25,429.88,421.66,437.06,409.67z"
	/>
<path class="st7" d="M320.03,228.49c-7,66-29,96-29,96s56-29,45-39c1.76,1.49-14,45-32,55c4.73,6.17,28.68-0.81,44-13
	c43.35-34.5,25.69-117.12,23-129"/>
<path class="st7" d="M351.03,214.49c14.01,28.85,62.09,68.06,100.58,100.55c6.89,5.82-1.42,24.24-12.58,42.45
	c3.27,3.09,12.2-1.57,14.1-2.56c14.74-7.68,24.59-25.25,24.9-47.44"/>
<path class="st0" d="M214.03,347.38"/>
<path class="st9" d="M479.03,301.49c16.73-14.19-7.66-108.46-76-144c-65.01-33.81-154.86-6.63-191,51c-20.8,33.16-27.38,81.62-11,92
	c28.84,18.27,125.02-83.91,136.5-72.5c4.98,4.95-11.12,26.16-4.5,32.5c7.01,6.71,25.92-16.2,49.5-12.5c23.3,3.66,24.19,29.06,59,46
	C451.03,298.62,470.98,308.32,479.03,301.49z"/>
<g>
	<g>
		<path class="st10" d="M320.41,227.63c0.78-3.65,1.16-7.39,1.13-11.12c-0.01-1.07-1.29-1.96-2.26-1.3
			c-3.41,2.35-6.52,5.1-9.24,8.23c-0.53,0.61-0.6,1.52,0,2.12c0.54,0.54,1.59,0.61,2.12,0c2.55-2.93,5.44-5.55,8.63-7.76
			c-0.75-0.43-1.5-0.86-2.26-1.3c0.04,3.47-0.3,6.93-1.02,10.33c-0.17,0.79,0.23,1.62,1.05,1.85
			C319.31,228.88,320.24,228.42,320.41,227.63L320.41,227.63z"/>
	</g>
</g>
<g>
	<g>
		<path d="M377.47,243.09c0.38,0.04,1.05,0.54,1.12,0.59c0.02,0.01,0.09,0.37,0.07,0.15c-0.02-0.19-0.1-0.39-0.14-0.58
			c-0.16-0.76-0.17-1.05-0.26-1.76c-0.28-2.33-0.51-4.67-0.79-7.01c-0.92-7.81-2.12-15.58-3.59-23.3
			c-0.67-3.51-1.39-7.02-2.17-10.51c-0.91,0.39-1.83,0.77-2.74,1.16c4.15,6.98,6.96,14.7,8.04,22.76c0.58,4.34,0.71,8.76,0.39,13.12
			c-0.1,1.42-0.25,2.85-0.53,4.25c-0.1,0.47-0.21,0.94-0.35,1.4c-0.1,0.32-0.1,0.12-0.06,0.19c-0.02,0.05-0.05,0.1-0.08,0.14
			c0.16-0.27,0.39-0.44,0.7-0.54c-1.9,0.33-1.09,3.23,0.8,2.89c1.53-0.27,1.81-2.79,2.02-3.96c0.52-3.01,0.68-6.08,0.67-9.12
			c-0.03-7.98-1.44-15.95-4.42-23.36c-1.29-3.21-2.82-6.31-4.58-9.28c-0.89-1.49-3.11-0.49-2.74,1.16
			c1.69,7.58,3.12,15.21,4.29,22.89c0.93,6.14,1.48,12.32,2.32,18.47c0.19,1.35,0.34,3.1,2.04,3.27
			C379.39,246.28,379.38,243.28,377.47,243.09z"/>
	</g>
</g>
<g>
	<g>
		<path d="M483.63,302.43c0-3.52,0-7.03,0-10.55c0-0.81-0.69-1.5-1.5-1.5c-0.81,0-1.5,0.69-1.5,1.5c0,3.52,0,7.03,0,10.55
			c0,0.81,0.69,1.5,1.5,1.5C482.94,303.93,483.63,303.25,483.63,302.43L483.63,302.43z"/>
	</g>
</g>
<g>
	<g>
		<path class="st10" d="M252.84,147.65c9.05-0.66,18.17-0.34,27.14,1.02c1.89,0.29,2.7-2.6,0.8-2.89c-9.25-1.4-18.6-1.81-27.94-1.13
			C250.92,144.79,250.91,147.79,252.84,147.65L252.84,147.65z"/>
	</g>
</g>
<g>
	<g>
		<path class="st10" d="M361.6,188.78c-1.68-3.47-4.81-6.12-8.44-7.34c-0.74-0.25-1.67,0.29-1.85,1.05
			c-0.19,0.83,0.25,1.58,1.05,1.85c0.2,0.07,0.4,0.14,0.59,0.21c0.16,0.06,0.2,0.06,0.01,0c0.1,0.03,0.22,0.09,0.31,0.14
			c0.38,0.18,0.76,0.37,1.12,0.58c0.35,0.2,0.68,0.42,1.01,0.66c0.08,0.06,0.15,0.11,0.23,0.17c0.31,0.23-0.24-0.2,0.06,0.05
			c0.16,0.13,0.32,0.27,0.48,0.41c0.3,0.27,0.59,0.55,0.86,0.84c0.14,0.15,0.28,0.31,0.42,0.47c0.06,0.07,0.12,0.15,0.18,0.22
			c0.04,0.05,0.3,0.33,0.05,0.06c0.55,0.59,0.96,1.43,1.31,2.15c0.34,0.71,1.41,0.95,2.05,0.54
			C361.79,190.37,361.97,189.54,361.6,188.78L361.6,188.78z"/>
	</g>
</g>
<g>
	<g>
		<path class="st10" d="M443.78,188.49c8.24,14.54,15.54,29.59,21.83,45.07c0.72,1.77,3.62,0.99,2.89-0.8
			c-6.38-15.72-13.76-31.02-22.13-45.79C445.42,185.29,442.82,186.8,443.78,188.49L443.78,188.49z"/>
	</g>
</g>
<g>
	<g>
		<path d="M197.2,249.16c0.55-4.03,2.17-7.72,3.86-11.38c1.77-3.84,3.6-7.66,5.48-11.45c3.72-7.51,7.64-14.92,11.75-22.23
			c0.95-1.68-1.64-3.2-2.59-1.51c-4.19,7.44-8.18,15-11.97,22.66c-1.87,3.79-3.7,7.61-5.47,11.46c-1.72,3.74-3.4,7.55-3.96,11.67
			c-0.11,0.81,0.2,1.6,1.05,1.85C196.05,250.41,197.09,249.96,197.2,249.16L197.2,249.16z"/>
	</g>
</g>
<path class="st11" d="M190.03,326.49c-1.18,3.76-3.06,11.56-1,21c1.38,6.34,4.03,11.08,6,14"/>
<path class="st11" d="M491.13,325.32c1.18,3.76,3.06,11.56,1,21c-1.38,6.34-4.03,11.08-6,14"/>
<path class="st12" d="M291.03,1543.49c0,0-9.49,47.39-6,99c3.31,49.02,22.2,90.39,25,120c1.24,25.38,1.14,49.01-4,66
	c-8.09,5.12-31.96,18.74-64.52,16.43c-25.88-1.84-44.29-12.81-52.48-18.43c-1.56-6.42-3.46-16.11-4-28c-0.9-19.88,2.55-34.07,8-57
	c2.99-12.58,7.85-33.18,15-64c1.77-44.7,0.48-87.89-5-129C230.53,1554.47,260.17,1551.55,291.03,1543.49z"/>
<path class="st0" d="M296.03,1771.49c-26.14-29.43-87-20-97,1"/>
<path class="st0" d="M186.03,1809.49c40.99,18.4,81.99,18.89,123,1"/>
<path class="st12" d="M394.03,1543.49c1.48,21.25,2.61,43.26,3.28,66.01c0.56,18.83,0.78,37.17,0.72,54.99
	c-7.7,32.51-15.4,65.01-23.09,97.52c0,0-1.14,49.01,4,66c8.09,5.12,31.96,18.74,64.52,16.43c25.88-1.84,44.29-12.81,52.48-18.43
	c1.56-6.42,3.46-16.11,4-28c0.9-19.88-2.55-34.07-8-57c-2.99-12.58-7.85-33.18-15-64c-0.53-21.14-0.64-43.11-0.22-65.85
	c0.49-26.29,1.65-51.55,3.31-75.67c-6.46,4.51-20.66,13.14-40.83,15.28C417.76,1553.04,401.22,1546.74,394.03,1543.49z"/>
<path class="st0" d="M388.94,1771.01c26.14-29.43,87-20,97,1"/>
<path class="st0" d="M498.94,1809.01c-40.99,18.4-81.99,18.89-123,1"/>
<g>
	<path class="st13" d="M282.07,1684.67c2.36,16.03,5.38,31.95,9.07,47.73"/>
	<g>
		<path class="st13" d="M277.74,1685.86c2.36,16.03,5.39,31.95,9.07,47.73c0.53,2.29,3.29,3.87,5.54,3.14
			c2.4-0.78,3.72-3.08,3.14-5.54c-3.68-15.78-6.7-31.7-9.07-47.73c-0.34-2.34-3.42-3.83-5.54-3.14
			C278.33,1681.15,277.37,1683.36,277.74,1685.86L277.74,1685.86z"/>
	</g>
</g>
<g>
	<path class="st13" d="M468.16,1689.31c5.41,16.13,10.82,32.27,16.23,48.4"/>
	<g>
		<path class="st13" d="M463.82,1690.5c5.41,16.13,10.82,32.27,16.23,48.4c0.75,2.23,3.13,3.92,5.54,3.14
			c2.22-0.72,3.94-3.15,3.14-5.54c-5.41-16.13-10.82-32.27-16.23-48.4c-0.75-2.23-3.13-3.92-5.54-3.14
			C464.75,1685.68,463.02,1688.11,463.82,1690.5L463.82,1690.5z"/>
	</g>
</g>
<g>
	<g>
		<path class="st13" d="M255.46,1768.31c0.86,0.29,1.72,0.59,2.57,0.91c0.43,0.16,0.85,0.32,1.27,0.49c0.21,0.08,1.63,0.65,0.5,0.19
			c1.58,0.64,3.12,1.39,4.63,2.17c3.13,1.61,6.14,3.46,9,5.52c1.92,1.38,5.09,0.4,6.16-1.61c1.23-2.33,0.43-4.68-1.61-6.16
			c-6.13-4.41-12.95-7.8-20.12-10.19c-2.24-0.74-5.02,0.86-5.54,3.14C251.75,1765.25,253.07,1767.51,255.46,1768.31L255.46,1768.31z
			"/>
	</g>
</g>
<g>
	<g>
		<path class="st13" d="M444.53,1771.44c1.13,0.01,2.25,0.06,3.37,0.16c0.28,0.02,0.56,0.06,0.84,0.08c0.38,0.04,0.53,0.06,0.06,0
			c0.56,0.07,1.11,0.17,1.67,0.27c2.28,0.41,4.54,1.01,6.72,1.79c0.53,0.19,1.05,0.41,1.58,0.6c0.68,0.24-0.56-0.26,0.09,0.03
			c0.26,0.11,0.51,0.23,0.77,0.34c1.02,0.47,2.03,0.98,3.01,1.53c0.98,0.55,1.94,1.14,2.88,1.76c0.47,0.31,0.93,0.63,1.38,0.97
			c0.06,0.04,0.73,0.54,0.39,0.28c-0.37-0.29,0.56,0.45,0.54,0.43c1.83,1.48,4.6,1.92,6.36,0c1.51-1.64,1.95-4.78,0-6.36
			c-8.43-6.84-18.78-10.75-29.67-10.88c-2.35-0.03-4.61,2.09-4.5,4.5C440.14,1769.4,442,1771.41,444.53,1771.44L444.53,1771.44z"/>
	</g>
</g>
<line class="st14" x1="347.03" y1="342.49" x2="334.03" y2="350.49"/>
<line class="st14" x1="348.03" y1="347.49" x2="327.03" y2="360.49"/>
<line class="st14" x1="353.03" y1="350.49" x2="326.03" y2="367.49"/>
<line class="st14" x1="355.03" y1="356.49" x2="327.03" y2="373.49"/>
<line class="st14" x1="358.03" y1="360.49" x2="329.03" y2="377.49"/>
<path class="st15" d="M341.03,386.99c-0.17,4-0.33,8-0.5,12c-1.83-1.67-3.67-3.33-5.5-5"/>
<g>
	<g>
		<path class="st6" d="M246.96,376.28c-0.61,0.82-1.22,1.63-1.83,2.45c-0.11,0.17-0.17,0.36-0.18,0.56c-0.04,0.2-0.04,0.4,0.03,0.6
			c0.1,0.35,0.36,0.73,0.69,0.9c0.35,0.18,0.77,0.28,1.16,0.15c0.12-0.05,0.24-0.1,0.36-0.15c0.23-0.13,0.4-0.31,0.54-0.54
			c0.61-0.82,1.22-1.63,1.83-2.45c0.11-0.17,0.17-0.36,0.18-0.56c0.04-0.2,0.04-0.4-0.03-0.6c-0.1-0.35-0.36-0.72-0.69-0.9
			c-0.35-0.18-0.77-0.28-1.16-0.15c-0.12,0.05-0.24,0.1-0.36,0.15C247.27,375.88,247.09,376.06,246.96,376.28L246.96,376.28z"/>
	</g>
</g>
<g>
	<g>
		<path class="st6" d="M250.91,379.02c-0.2,0.31-0.41,0.61-0.61,0.92c-0.11,0.17-0.17,0.36-0.18,0.56c-0.04,0.2-0.04,0.4,0.03,0.6
			c0.05,0.2,0.14,0.37,0.27,0.51c0.11,0.16,0.25,0.29,0.42,0.39c0.12,0.05,0.24,0.1,0.36,0.15c0.27,0.07,0.53,0.07,0.8,0
			c0.12-0.05,0.24-0.1,0.36-0.15c0.23-0.13,0.4-0.31,0.54-0.54c0.2-0.31,0.41-0.61,0.61-0.92c0.11-0.17,0.17-0.36,0.18-0.56
			c0.04-0.2,0.04-0.4-0.03-0.6c-0.05-0.2-0.14-0.37-0.27-0.51c-0.11-0.16-0.25-0.29-0.42-0.39c-0.12-0.05-0.24-0.1-0.36-0.15
			c-0.27-0.07-0.53-0.07-0.8,0c-0.12,0.05-0.24,0.1-0.36,0.15C251.22,378.61,251.04,378.79,250.91,379.02L250.91,379.02z"/>
	</g>
</g>
<g>
	<g>
		<path class="st6" d="M420.4,378.87c0,0.51,0,1.02,0,1.53c-0.01,0.21,0.04,0.4,0.13,0.58c0.06,0.19,0.16,0.35,0.31,0.48
			c0.14,0.15,0.3,0.25,0.48,0.31c0.18,0.09,0.37,0.14,0.58,0.13c0.13-0.02,0.27-0.04,0.4-0.05c0.25-0.07,0.47-0.2,0.66-0.39
			c0.27-0.29,0.44-0.65,0.44-1.06c0-0.51,0-1.02,0-1.53c0.01-0.21-0.04-0.4-0.13-0.58c-0.06-0.19-0.16-0.35-0.31-0.48
			c-0.14-0.15-0.3-0.25-0.48-0.31c-0.18-0.09-0.37-0.14-0.58-0.13c-0.13,0.02-0.27,0.04-0.4,0.05c-0.25,0.07-0.47,0.2-0.66,0.39
			C420.57,378.1,420.4,378.46,420.4,378.87L420.4,378.87z"/>
	</g>
</g>
<g>
	<g>
		<path class="st6" d="M424.95,377.68c0.01,0.01,0.02,0.03,0.04,0.04c-0.08-0.1-0.16-0.2-0.23-0.3c0.24,0.32,0.44,0.66,0.6,1.03
			c-0.05-0.12-0.1-0.24-0.15-0.36c0.17,0.4,0.28,0.82,0.34,1.26c-0.02-0.13-0.04-0.27-0.05-0.4c0.05,0.38,0.05,0.76,0.01,1.13
			c-0.04,0.36,0.2,0.82,0.44,1.06c0.26,0.26,0.69,0.46,1.06,0.44c0.39-0.02,0.79-0.14,1.06-0.44c0.08-0.1,0.16-0.2,0.23-0.3
			c0.14-0.23,0.2-0.49,0.2-0.76c0.08-0.75,0-1.53-0.21-2.25c-0.12-0.4-0.28-0.8-0.47-1.18c-0.2-0.4-0.47-0.74-0.74-1.09
			c-0.22-0.28-0.72-0.44-1.06-0.44c-0.37,0-0.81,0.16-1.06,0.44c-0.26,0.29-0.46,0.66-0.44,1.06c0.02,0.13,0.04,0.27,0.05,0.4
			C424.64,377.27,424.76,377.49,424.95,377.68L424.95,377.68z"/>
	</g>
</g>
<path class="st7" d="M326.03,231.49c-12.82,8.94-94,84-101,114c-2,5,9.6,31.37,11,31c0.08-0.02,0.11-0.11,0.12-0.15
	c0.66-2.62-54.89-18.44-44.12-91.85"/>
<path class="st16" d="M127.03,960.49c-9.32-22.98-46.89-35.47-58-25c-6.56,6.18-0.38,17.04,7.5,51.5
	c14.68,64.16,7.8,94.41,28.5,104.5c1.9,0.93,10.53,5.13,16.5,1.5c13.15-8-7.14-41.56,0.5-91.5
	C125.56,978.4,131.89,972.46,127.03,960.49z"/>
<path class="st17" d="M121.03,1100.49c0,0,27,14,33,14c1.71-1.44,2.01-4.02,1.86-6.32c0,0,0.03-2.36-0.86-4.68c-1.55-4-13-9-13-9
	c-7.72-3.34-10.71-3.63-13-7c-1.45-2.13-2-6-2-6"/>
<path class="st17" d="M65.53,938.99c0.73,21.69-10.53,95.94-14,96c0,0,20.29,46.84,28,71l71,19c0.47-2,0.59-3.84,0.5-5.5
	c-0.9-16.92-24.34-26.9-27-28"/>
<path class="st17" d="M127.03,972.49c4.05,1.37,2.86,16.96,1,41.38c-0.62,8.12-1.39,14.87-2,19.63c1.23,15.69,2.5,31.33,8,41
	c-1.44,5.41-11.32,11.58-14.22,8.84c-0.85-0.8-0.81-2.35-0.78-2.84c0.26-4.51-2.83-15.62-15-42c-9.31-4.72-19.27-9.67-19.43-9.37
	c-0.03,0.06,0.27,0.3,0.43,0.37C89.33,1031.49,118.45,969.59,127.03,972.49z"/>
<path class="st4" d="M80.03,1040.49c7.12,15,13.28,30,18,45"/>
<path class="st16" d="M554.04,972.84c9.32-22.98,46.89-35.47,58-25c6.56,6.18,0.38,17.04-7.5,51.5
	c-14.68,64.16-7.8,94.41-28.5,104.5c-1.9,0.93-10.53,5.13-16.5,1.5c-13.15-8,7.14-41.56-0.5-91.5
	C555.51,990.74,549.19,984.81,554.04,972.84z"/>
<path class="st17" d="M560.04,1112.84c0,0-27,14-33,14c-1.71-1.44-2.01-4.02-1.86-6.32c0,0-0.03-2.36,0.86-4.68c1.55-4,13-9,13-9
	c7.72-3.34,10.71-3.63,13-7c1.45-2.13,2-6,2-6"/>
<path class="st17" d="M615.54,951.34c-0.73,21.69,10.53,95.94,14,96c0,0-20.29,46.84-28,71l-71,19c-0.47-2-0.59-3.84-0.5-5.5
	c0.9-16.92,24.34-26.9,27-28"/>
<path class="st17" d="M554.04,984.84c-4,29,1,61,1,61c-1.23,15.69-2.5,31.33-8,41c1.73,6.5,7.11,7.99,15,6
	c6.77-5.51,11.2-22.27,15-42c0,0,19.21-9.78,19.43-9.37c0.02,0.04-0.12,0.16-0.43,0.37"/>
<path class="st4" d="M601.04,1052.84c-7.12,15-13.28,30-18,45"/>
<path class="st18" d="M421.32,528.44c31.67,6,63.33,12,95,18c7.75,21.46,10.98,43.27,13.71,65.05c13.88,110.47,61.48,208.21,82,297
	c11.61,29.33,19.3,58.66,18,88c-25.1,45.84-57.16,44.47-91,31c-25.33-130.27-65.12-261.25-87-392"/>
<path class="st18" d="M282.03,524.49c-31.67,6-63.33,12-95,18c-7.82,24.9-15.49,50.24-23,76c-17.62,60.47-33.2,119.53-47,177
	c-13.65,31.92-27.04,66.91-39.39,104.86C69.3,926,62.16,950.77,56.03,974.49c3.41,6.84,14.9,27.7,40,39c15.21,6.85,29.12,7.34,37,7
	c36.33-132,72.67-264,109-396"/>
<g>
	<g>
		<path d="M273.32,921.38c-0.6-0.62-1.35-1.33-2.1-1.77c-0.57-0.33-1.29-0.26-1.93-0.27c-0.75-0.02-1.5-0.05-2.25-0.07
			c-3-0.09-6.01-0.18-9.01-0.27c-1.93-0.06-1.93,2.94,0,3c4.13,0.12,8.26,0.25,12.39,0.37c-0.25-0.07-0.5-0.14-0.76-0.2
			c0.05,0.04,0.14,0.08,0.18,0.14c-0.2-0.26,0.2,0.16,0.28,0.22c0.38,0.31,0.75,0.63,1.09,0.98
			C272.55,924.89,274.67,922.77,273.32,921.38L273.32,921.38z"/>
	</g>
</g>
<g>
	<g>
		<path d="M256.27,959.79c4.46,2,9.27,2.66,14.11,1.92c0.8-0.12,1.24-1.13,1.05-1.85c-0.24-0.86-1.04-1.17-1.85-1.05
			c-2.06,0.31-4.37,0.32-6.49-0.04c-1.02-0.17-2.03-0.41-3.02-0.72c-0.83-0.26-1.69-0.59-2.29-0.86c-0.74-0.33-1.61-0.21-2.05,0.54
			C255.36,958.38,255.53,959.46,256.27,959.79L256.27,959.79z"/>
	</g>
</g>
<g>
	<g>
		<path d="M256.23,922.23c-0.17,12.23-0.33,24.46-0.5,36.69c-0.03,1.93,2.97,1.93,3,0c0.17-12.23,0.33-24.46,0.5-36.69
			C259.26,920.3,256.26,920.3,256.23,922.23L256.23,922.23z"/>
	</g>
</g>
<g>
	<g>
		<path d="M268.6,922.01c-0.69,12.83-1.38,25.66-2.07,38.49c-0.1,1.93,2.9,1.92,3,0c0.69-12.83,1.38-25.66,2.07-38.49
			C271.7,920.08,268.7,920.08,268.6,922.01L268.6,922.01z"/>
	</g>
</g>
<g>
	<path d="M314.03,925.49c-0.33,12-0.67,24-1,36c21-0.33,42-0.67,63-1c-0.33-11.67-0.67-23.33-1-35
		C354.7,925.49,334.36,925.49,314.03,925.49z"/>
	<g>
		<path d="M312.53,925.49c-0.33,12-0.67,24-1,36c-0.02,0.8,0.71,1.51,1.5,1.5c21-0.33,42-0.67,63-1c0.79-0.01,1.52-0.68,1.5-1.5
			c-0.33-11.67-0.67-23.33-1-35c-0.02-0.81-0.67-1.5-1.5-1.5c-20.33,0-40.67,0-61,0c-1.93,0-1.93,3,0,3c20.33,0,40.67,0,61,0
			c-0.5-0.5-1-1-1.5-1.5c0.33,11.67,0.67,23.33,1,35c0.5-0.5,1-1,1.5-1.5c-21,0.33-42,0.67-63,1c0.5,0.5,1,1,1.5,1.5
			c0.33-12,0.67-24,1-36C315.58,923.56,312.58,923.56,312.53,925.49z"/>
	</g>
</g>
<path class="st19" d="M451.46,709.4c33.65-13.91,64.77-25.51,88.76-30.6c4.28,9.78,8.26,19.27,8.77,25.43
	c-30.26,7.42-59.84,17.67-88.76,30.6C456.23,725.16,452.69,716,451.46,709.4z"/>
<path class="st19" d="M237.98,696.69c-33.65-13.91-64.77-25.51-88.76-30.6c-4.28,9.78-8.26,19.27-8.77,25.43
	c30.26,7.42,59.84,17.67,88.76,30.6C233.22,712.45,236.76,703.29,237.98,696.69z"/>
<path class="st0" d="M218.03,956.49c82.63,4.63,166.31,5.23,252-2"/>
<path class="st18" d="M217.83,917.49c-9.63,42.65-19.26,85.3-28.89,127.96c-0.5,124.94,6.13,250.23,10.7,375.42
	c-2.14,10.46-4.28,20.92-6.42,31.39c3.92,9.25,7.85,18.51,11.77,27.76l-8.55,52.69l-3.22,45.08l-17.12,27.76l7.49,31.39l-7.49,20.52
	c0,0,6.66,15.17,9.63,18.11c20.8,20.63,94.86-1.32,98.97-2.57c4.45-12.42,8.91-24.84,13.36-37.27c-3.03-14.13-6.05-28.27-9.08-42.4
	c-0.77-15.7,0.64-28.05,2.01-36.21c4.94-29.58,4.05-52.01,10.87-78.4c3.41-13.21,7.1-23.66,9.59-30.24
	c-3.21-13.28-9.63-39.84-9.63-39.84c9.44-48.77,18.01-101.27,25-157.25c5.88-47.07,10.07-92.08,12.96-134.73
	c22.83-1.02,34.24-1.82,34.24-2.41c-0.01-0.9-26.41-1.3-79.17-1.21"/>
<path class="st18" d="M467.63,918.49c4.99,17.35,9.84,35.49,14.44,54.41c6.3,25.91,11.56,50.86,15.95,74.68
	c0,0-8.68,378.75-8.68,378.75c3.26,8.93,6.51,17.86,9.77,26.79c-3.39,15.65-5.37,21.91-6.51,23.14c-0.05,0.05-0.2,0.21-0.32,0.49
	c-0.76,1.8,1.66,4.97,4.66,8.04c-1.45,4.87-2.89,9.74-4.34,14.61c-8.7,21.05-6.48,54.96-2.17,91.34c6.9,24.06,11.75,55.2,2.17,74.29
	c-14.64,29.19-69.85,28.96-95.51,15.83c-3.27-2.81-19.54-36.54-19.54-36.54s12.99-41.44,15.2-43.84c0,0-2.17-68.2-9.77-87.69
	c-2.02-2.37-8.81-9.53-7.6-17.05c0.69-4.27,4.34-10.95,4.34-10.96c-10.01-8.62-9.94-19.52-9.77-30.45
	c3.26-13.4,6.51-26.79,9.77-40.19c-21.71-143.71-40.16-295.94-40.16-295.94c-19.18-0.81-38.35-1.62-57.53-2.44"/>
<g>
	<g>
		<path d="M413.53,924.49c0.41,11.71,0.81,23.41,1.22,35.12c0.07,1.93,3.07,1.93,3,0c-0.41-11.71-0.81-23.41-1.22-35.12
			C416.46,922.57,413.46,922.56,413.53,924.49L413.53,924.49z"/>
	</g>
</g>
<g>
	<g>
		<path d="M400.53,925.49c0.67,11.67,1.33,23.33,2,35c0.11,1.92,3.11,1.93,3,0c-0.67-11.67-1.33-23.33-2-35
			C403.42,923.57,400.42,923.56,400.53,925.49L400.53,925.49z"/>
	</g>
</g>
<g>
	<g>
		<path d="M416.03,957.99c-4.67,0.33-9.33,0.67-14,1c-0.81,0.06-1.5,0.65-1.5,1.5c0,0.77,0.69,1.56,1.5,1.5
			c4.67-0.33,9.33-0.67,14-1c0.81-0.06,1.5-0.65,1.5-1.5C417.53,958.73,416.84,957.94,416.03,957.99L416.03,957.99z"/>
	</g>
</g>
<path class="st5" d="M264.67,525.02l-58,12c-5.81,26.2,4.54,52.34,25,65c24.86,15.38,62.49,9.55,72-11
	C312.26,572.46,298.76,540.02,264.67,525.02z"/>
<path class="st5" d="M419.11,526.11l58,12c8.39,26.94-3.43,54.66-25,65c-27.88,13.36-66.33-5.05-69.44-30.08
	C380.52,555.75,395.22,535.63,419.11,526.11z"/>
<g>
	<path class="st5" d="M189.82,580.87c-2.13,56.33-5.76,281.67-3.7,352.96c0.12,4.22,2.47,26.97,2.47,26.97s12.46,17.37,16.03,19.93
		c39.21,5.7,84.37,9.93,134.44,10.55c57.14,0.71,108.22-3.43,151.7-9.38c5.13-5.24,8.15-10.55,9.87-14.07
		c-0.46-59.22-0.63-118.42-0.51-177.62c8.37-72.89,16.68-145.79,1.75-218.73"/>
	<path d="M189.94,580.88c-3.09,110.77-4.73,221.72-4.08,332.53c0.13,7.77,0.13,15.97,0.59,23.74c0.61,7.8,1.52,16.03,2.23,23.59
		c2.5,3.46,5.04,6.89,7.65,10.27c2.56,3.28,5.34,6.97,8.31,9.63c71.01,10.51,143.11,12.88,214.7,8.03
		c23.72-1.52,48.09-3.79,71.32-6.85c4.02-4.09,7.37-8.85,9.86-14.02c-0.03,0.26-0.51-177.62-0.53-177.57
		c6.25-54.5,12.55-109.39,8.93-164.3c-0.92-18.19-4.07-36.95-6.95-54.45c3.67,17.95,5.98,36.16,7.18,54.43
		c3.62,54.92-2.67,109.84-8.93,164.33c0-0.06,0.51,177.62,0.51,177.61c-2.48,5.21-5.86,10.02-9.88,14.17
		c-23.69,3.35-47.56,5.99-71.46,7.61c-71.64,4.62-143.75,1.33-214.79-8.78c-3.28-2.79-5.76-6.36-8.45-9.7
		c-2.61-3.4-5.21-6.83-7.68-10.33c-0.87-8.87-1.86-17.73-2.45-26.62c-0.11-6.78-0.38-14.03-0.4-20.79
		C185.21,802.76,186.18,691.01,189.94,580.88L189.94,580.88z"/>
</g>
<path class="st20" d="M368.03,564.49c-17.99,5.99-37.41,6.65-58,3c0.1-3.75,8,29,30,38C371.03,588.49,369.19,558.41,368.03,564.49z"
	/>
<path class="st0" d="M257.03,958.49"/>
<g>
	<path class="st21" d="M359.48,991.38c-2.48,26.37-4.97,52.75-7.45,79.12"/>
	<g>
		<path class="st21" d="M357.98,991.38c-1.94,20.57-3.88,41.13-5.81,61.7c-0.55,5.81-1.09,11.61-1.64,17.42
			c-0.18,1.92,2.82,1.91,3,0c1.94-20.57,3.88-41.13,5.81-61.7c0.55-5.81,1.09-11.61,1.64-17.42
			C361.17,989.45,358.16,989.47,357.98,991.38L357.98,991.38z"/>
	</g>
</g>
<g>
	<path class="st21" d="M328.5,992.38c-3.49,27.37-6.98,54.75-10.47,82.12"/>
	<g>
		<path class="st21" d="M327,992.38c-2.72,21.35-5.44,42.71-8.16,64.06c-0.77,6.02-1.53,12.04-2.3,18.06c-0.24,1.91,2.76,1.89,3,0
			c2.72-21.35,5.44-42.71,8.16-64.06c0.77-6.02,1.53-12.04,2.3-18.06C330.24,990.47,327.24,990.48,327,992.38L327,992.38z"/>
	</g>
</g>
<g>
	<path class="st21" d="M241.31,986.76c-0.95,11.6-1.9,23.2-2.86,34.79c-0.13,1.56-0.27,3.16-0.92,4.59
		c-1.24,2.72-3.46,4.14-4.01,4.51c-3.49,2.39-16.83,15.24-37.5,35.85"/>
	<g>
		<path class="st21" d="M239.81,986.76c-0.73,8.95-1.47,17.89-2.2,26.84c-0.18,2.24-0.37,4.47-0.55,6.71
			c-0.16,1.96-0.19,4.02-1.18,5.78c-0.9,1.61-2.25,2.6-3.68,3.68c-2.43,1.84-4.66,3.96-6.89,6.04c-3.92,3.65-7.76,7.37-11.59,11.11
			c-6.29,6.13-12.52,12.32-18.74,18.52c-1.37,1.36,0.75,3.49,2.12,2.12c9.75-9.72,19.5-19.48,29.55-28.89
			c2.33-2.18,4.66-4.42,7.18-6.39c-0.32,0.25,0.13-0.1,0.25-0.18c0.2-0.14,0.4-0.27,0.6-0.41c1.08-0.77,2.05-1.64,2.87-2.69
			c2.55-3.28,2.42-7.46,2.75-11.41c0.84-10.27,1.69-20.54,2.53-30.82C242.97,984.83,239.96,984.84,239.81,986.76L239.81,986.76z"/>
	</g>
</g>
<g>
	<path class="st21" d="M443.67,991.8c-0.05,8.17-0.09,16.34-0.14,24.51c-0.01,1.35,0.03,2.82,0.88,3.86
		c0.69,0.84,1.77,1.22,2.79,1.57c12.15,4.1,24.29,8.21,36.44,12.31"/>
	<g>
		<path class="st21" d="M442.17,991.8c-0.03,4.82-0.05,9.64-0.08,14.46c-0.01,2.45-0.03,4.9-0.04,7.35
			c-0.01,1.94-0.28,4.15,0.39,6.02c0.68,1.88,2.24,2.79,4.03,3.43c2.31,0.83,4.65,1.57,6.97,2.36c4.65,1.57,9.31,3.14,13.96,4.72
			c5.28,1.79,10.57,3.57,15.85,5.36c1.83,0.62,2.62-2.28,0.8-2.89c-8.76-2.96-17.51-5.92-26.26-8.87c-2.13-0.72-4.26-1.44-6.39-2.16
			c-1.1-0.37-2.21-0.75-3.31-1.12c-0.77-0.26-1.76-0.48-2.36-1.08c-1.21-1.2-0.68-3.99-0.67-5.52c0.01-2.21,0.03-4.41,0.04-6.62
			c0.03-5.15,0.06-10.3,0.09-15.44C445.18,989.87,442.18,989.87,442.17,991.8L442.17,991.8z"/>
	</g>
</g>
<path class="st2" d="M210.03,1093.49c-2.46,55.32,2.87,127.32,16,216"/>
<path class="st2" d="M231.03,1377.49c-6.28,42.67-9.62,85.33-10,128"/>
<g>
	<path class="st21" d="M475.03,1099.49c-0.67,92.67-1.33,185.33-2,278"/>
	<path class="st21" d="M475.08,1099.49c-0.03,90.33-0.87,187.61-2,278c0,0-0.11,0-0.11,0
		C473.26,1287.15,473.5,1189.55,475.08,1099.49L475.08,1099.49z"/>
</g>
<path class="st2" d="M472.03,1507.49c-3.38,36.31-6.95,69.93-11,97c-11.19,15.69-26.03,22.69-42,27"/>
<g>
	<path class="st21" d="M264.03,622.49c16.06,82.14,33.1,158.71,53,219"/>
	<path class="st21" d="M264.15,622.47c14.04,69,28.48,138.06,48.81,205.53c1.35,4.5,2.79,8.97,4.18,13.45l-0.22,0.07
		c-11.99-35.63-21.5-72.05-30.01-108.65C278.73,696.37,270.31,658.93,264.15,622.47L264.15,622.47z"/>
</g>
<g>
	<path class="st21" d="M242.03,850.49c24.28,33.45,56.92,50.17,92,62"/>
	<path class="st21" d="M242.13,850.42c21.57,29.21,51.72,47.18,85.32,59.54c0,0,6.63,2.41,6.63,2.41l-0.08,0.23
		c0,0-6.7-2.23-6.7-2.23c-24.43-8.38-48.1-20.51-66.89-38.47c-6.85-6.48-13.02-13.67-18.47-21.34
		C241.93,850.56,242.13,850.42,242.13,850.42L242.13,850.42z"/>
</g>
<line class="st2" x1="432.03" y1="618.49" x2="391.03" y2="722.49"/>
<path class="st0" d="M45.53,24.99L45.53,24.99L45.53,24.99z"/>
<path class="st0" d="M398.03,508.49"/>
<path class="st0" d="M398.03,499.49"/>
<path class="st0" d="M402.03,498.49"/>
<g>
	<path d="M339.53,600.25c10.88,80.96,13.81,163.01,12.45,244.64c-0.25,13.02-0.59,27.84-1.34,40.83c-0.69,13.6-1.34,27.2-2.11,40.79
		c0,0-1-0.05-1-0.05c0.27-13.61,0.65-27.21,0.99-40.81c0.94-33.62,0.65-68.34,0.05-102c-0.69-33.99-2.34-67.95-4.39-101.88
		c-1.68-27.15-3.62-54.28-5.64-81.43C338.53,600.35,339.53,600.25,339.53,600.25L339.53,600.25z"/>
</g>
<g>
	<path class="st21" d="M411.5,720.98c9.99,0,19.97,0,29.96,0"/>
	<g>
		<path class="st21" d="M411.5,722.48c9.99,0,19.97,0,29.96,0c1.93,0,1.93-3,0-3c-9.99,0-19.97,0-29.96,0
			C409.57,719.48,409.57,722.48,411.5,722.48L411.5,722.48z"/>
	</g>
</g>
<g>
	<path class="st21" d="M126.83,803.53c-0.09,2.37,0.64,4.68,1.37,6.93c2.78,8.64,5.56,17.28,8.35,25.92"/>
	<g>
		<path class="st21" d="M125.33,803.53c-0.04,2.79,0.81,5.41,1.65,8.04c0.91,2.83,1.82,5.65,2.73,8.48
			c1.8,5.58,3.59,11.15,5.39,16.73c0.59,1.83,3.49,1.05,2.89-0.8c-1.75-5.42-3.49-10.84-5.24-16.26c-0.86-2.67-1.72-5.34-2.58-8.01
			c-0.86-2.66-1.89-5.35-1.85-8.18C128.36,801.59,125.36,801.59,125.33,803.53L125.33,803.53z"/>
	</g>
</g>
<g>
	<g>
		<path class="st13" d="M593.47,918.25c-13.71,12.02-27.77,24.41-36.87,40.46c-0.99,1.75-3.15,4.58-1.58,6.56
			c0.7,0.88,1.74,1.02,2.79,1.13c1.47,0.15,2.95,0.29,4.42,0.43c1.92,0.19,1.91-2.81,0-3c-1.09-0.11-2.17-0.21-3.26-0.32
			c-0.36-0.04-1.22,0.06-1.5-0.16c0,0,0.31-0.56,0.5-0.9c0.95-1.81,1.98-3.58,3.06-5.32c2.14-3.41,4.5-6.67,7.05-9.79
			c5.17-6.32,10.99-12.08,16.99-17.6c3.46-3.18,6.99-6.28,10.52-9.37C597.05,919.1,594.92,916.98,593.47,918.25L593.47,918.25z"/>
	</g>
</g>
<g>
	<path class="st21" d="M505.11,570.91c-8.04,8.9-15.93,17.94-23.65,27.12"/>
	<g>
		<path class="st21" d="M504.05,569.85c-8.04,8.9-15.93,17.94-23.65,27.12c-1.24,1.47,0.88,3.6,2.12,2.12
			c7.72-9.18,15.6-18.22,23.65-27.12C507.46,570.55,505.35,568.42,504.05,569.85L504.05,569.85z"/>
	</g>
</g>
<g>
	<path class="st21" d="M134.8,857.03c-0.2,5.81,0.51,11.65,2.12,17.24c0.32,1.12,0.72,2.29,1.63,3.02c0.79,0.63,1.83,0.81,2.83,0.95
		c3.7,0.51,7.44,0.67,11.17,0.48"/>
	<g>
		<path class="st21" d="M133.3,857.03c-0.1,3.32,0.08,6.63,0.54,9.93c0.42,3.03,0.94,6.27,2.11,9.11c0.49,1.19,1.23,2.26,2.4,2.87
			c1.3,0.68,2.83,0.79,4.26,0.96c3.3,0.39,6.62,0.48,9.93,0.32c1.92-0.09,1.93-3.09,0-3c-2.9,0.14-5.81,0.09-8.7-0.19
			c-1.21-0.12-2.58-0.15-3.73-0.58c-1.07-0.4-1.41-1.41-1.71-2.43c-1.63-5.51-2.29-11.27-2.11-17
			C136.36,855.1,133.36,855.1,133.3,857.03L133.3,857.03z"/>
	</g>
</g>
<path class="st0" d="M38.03,38.26L38.03,38.26L38.03,38.26z"/>
<path class="st22" d="M275.99,647.13c0.8,19.32,1.61,38.64,2.41,57.96c-17.87,16.27-43.25,5.5-67.61-1.61
	c-2.85-19.4-3.19-38.7-2.41-57.96C230.91,646.06,253.45,646.59,275.99,647.13z"/>
<path class="st22" d="M280.42,635.5c-3.66-13.34-69.85-14.13-75.8,2.68c-2.96,8.36,8.93,21.16,20.51,25.86
	C251.63,674.79,283.25,645.82,280.42,635.5z"/>
<path class="st22" d="M420.03,643.7c-0.89,21.4-1.78,42.81-2.68,64.21c19.8,18.03,47.92,6.1,74.91-1.78
	c3.15-21.5,3.54-42.88,2.68-64.21C469.97,642.51,445,643.1,420.03,643.7z"/>
<path class="st22" d="M419.14,639.24c3.66-13.34,69.85-14.13,75.8,2.68c2.96,8.36-8.93,21.16-20.51,25.86
	C447.93,678.53,416.31,649.57,419.14,639.24z"/>
<path class="st23" d="M467.67,628.88c-6.33-0.41-18.99,0.35-19,0c0,0,3.29,31.73,11,45c4.67,0,9.33,0,14,0
	C466.95,659.83,466.44,644.53,467.67,628.88z"/>
<path class="st24" d="M423.67,655.88c7.75,16.66,10.3,33.54-2,51"/>
<path class="st2" d="M273.24,653.42c-7.75,16.66-10.3,33.54,2,51"/>
<g>
	<g>
		<path d="M322.91,456.57c14.07-3.6,28.39-6.17,42.83-7.65c0.95-0.1,0.96-1.6,0-1.5c-14.58,1.5-29.03,4.07-43.23,7.71
			C321.58,455.36,321.97,456.81,322.91,456.57L322.91,456.57z"/>
	</g>
</g>
<path class="st18" d="M341.61,608.88c13.41-8.12,29.11-19.09,45.22-33.75c18.29-16.64,31.91-33.29,41.78-47.25
	c0.73-9.26,0.4-23.51-6.33-38.55c-1.7-3.8-3.6-7.18-5.53-10.16c-8.03,13.66-21.27,32.36-42.14,49.71c-12.48,10.38-24.68,17.76-35,23
	C340.27,570.88,340.94,589.88,341.61,608.88z"/>
<path class="st18" d="M341.42,610.88c-11.59-6.1-28.57-16.79-44.86-34.59c-17.65-19.29-27.03-38.78-31.95-51.41
	c-2.52-22.76-0.63-39.75,1.62-44.51c1.4-2.97,3.12-5.67,3.12-5.67c1.58-2.49,3.22-4.58,4.74-6.32
	c5.45,14.83,12.08,26.47,17.62,34.83c2.41,3.64,9.82,14.52,21.9,26.67c9.04,9.09,17.78,15.96,25,21
	C339.55,570.88,340.48,590.88,341.42,610.88z"/>
<path class="st19" d="M340.08,768.42c-60.19,2.18-115.16,3.01-155.46,0c-1.43-10.64-2.54-20.91,0-26.9
	c51.38,2.85,103.21,2.8,155.46,0C341.13,751.96,341.73,761.78,340.08,768.42z"/>
<path class="st19" d="M354.06,770.85c55.87,1.7,106.91,2.34,144.32,0c0.08-3.57,0.48-7.55,1.38-11.84c0.76-3.63,1.78-6.97,2.91-9.99
	c-23.31,1.44-48.78,2.39-76.15,2.51c-25.93,0.11-50.17-0.53-72.47-1.65C353.09,758.02,352.53,765.68,354.06,770.85z"/>
<path class="st25" d="M292.67,743.02c-1,0-2,0-3,0c0.77,3.88,1.64,7.88,2.61,11.98c1.07,4.51,2.21,8.86,3.39,13.02c1,0,2,0,3,0
	c-0.73-3.3-1.49-6.63-2.29-9.99C295.18,752.94,293.94,747.93,292.67,743.02z"/>
<path class="st19" d="M344.09,954.1c-59.82,2.54-114.47,3.5-154.52,0c-1.42-12.37-2.52-24.32,0-31.28
	c51.07,3.31,102.58,3.25,154.52,0C345.13,934.96,345.73,946.38,344.09,954.1z"/>
<path class="st19" d="M352.09,954.17c57.52,2.46,110.06,3.39,148.57,0c1.36-12,2.43-23.59,0-30.35c-49.1,3.21-98.63,3.16-148.57,0
	C351.09,935.6,350.51,946.68,352.09,954.17z"/>
<path class="st26" d="M500.61,841.88c-106.51,28.62-210.23,20.51-313,0"/>
<path class="st27" d="M500.01,841.64c-106.51,28.62-210.23,20.51-313,0"/>
<rect x="323.11" y="847.38" class="st28" width="66" height="25"/>
<path class="st19" d="M623.81,961.63c-34.95,10.22-67.14,18.41-91.53,20.9c-3.21-10.18-6.15-20.04-5.99-26.22
	c30.88-4.13,61.39-11.15,91.53-20.9C620.77,945.44,623.31,954.93,623.81,961.63z"/>
<path class="st19" d="M62.25,952.8c29.85,11.22,57.46,20.35,78.72,23.58c3.77-9.97,7.28-19.64,7.72-25.76
	c-26.83-5.07-53.06-12.97-78.72-23.58C66.44,936.88,63.32,946.19,62.25,952.8z"/>
<path class="st19" d="M193.11,1675.38c12.75,2.28,30.07,3.99,50.34,1.93c14.86-1.51,27.57-4.66,37.66-7.93c3-9,6-18,9-27
	c-13.64,3.78-31.4,7.39-52.34,8.38c-20.84,0.98-38.77-0.92-52.66-3.38c-0.78,2.42-1.81,6.74-1,12
	C185.49,1668.36,191.28,1673.78,193.11,1675.38z"/>
<path class="st19" d="M477.11,1674.38c-8.16,3.58-21.69,8.31-39,9c-15.91,0.64-28.8-2.39-37-5c-5.13-9.19-10.3-18.4-15.51-27.61
	c-0.82-1.45-1.66-2.93-2.49-4.39c15.11,6.32,36.77,12.66,62,10c25.28-2.67,48-8,48-8S493.12,1657.3,477.11,1674.38z"/>
<g>
	<g>
		<path class="st29" d="M534.6,637.27c-7.83,3.17-15.67,6.33-23.5,9.5c-0.1,0.04-0.06,2.48-0.05,2.2c-0.02,1.77-0.02,3.54-0.02,5.3
			c0,1.77,0,3.54,0.02,5.3c0,0.24,0.13,2.17,0.05,2.2c7.83-3.17,15.67-6.33,23.5-9.5c0.1-0.04,0.06-2.48,0.05-2.2
			c0.02-1.77,0.02-3.54,0.02-5.3c0-1.77,0-3.54-0.02-5.3C534.65,639.23,534.52,637.3,534.6,637.27L534.6,637.27z"/>
	</g>
</g>
<g>
	<g>
		<path class="st30" d="M534.6,636.52c-8,3-16,6-24,9c-0.29,0.11,0.26,2.4,0,2.5c8-3,16-6,24-9
			C534.89,638.92,534.34,636.62,534.6,636.52L534.6,636.52z"/>
	</g>
</g>
<g>
	<g>
		<path class="st30" d="M535.1,650.52c-8.17,3-16.33,6-24.5,9c-0.29,0.1,0.25,2.41,0,2.5c8.17-3,16.33-6,24.5-9
			C535.38,652.92,534.84,650.62,535.1,650.52L535.1,650.52z"/>
	</g>
</g>
<polygon class="st31" points="528.98,649.54 521.15,652.27 523.49,645.14 "/>
<polygon class="st31" points="520.06,647.96 528.03,645.65 525.31,652.64 "/>
<path class="st32" d="M160.61,229.88c-4.4-18.24,61.52-164.51,184-167c133.26-2.71,183.25,165.27,167,182
	C405.77,221.9,287.72,218.59,160.61,229.88z"/>
<g>
	<g>
		<path class="st33" d="M349.23,60.1c-23.13,13.71-42.34,32.85-60.26,52.68c-19.08,21.11-37.16,43.13-54.19,65.92
			c-9.61,12.86-18.88,25.97-27.81,39.31c-0.29,0.43-0.02,1.98-0.02,2.5c0,0.59,0,1.18,0.01,1.77c0,0.15,0.09,0.63,0.02,0.73
			c15.87-23.7,32.82-46.67,50.81-68.81c9.04-11.13,18.34-22.05,27.89-32.74c8.91-9.98,18.04-19.79,27.81-28.95
			c10.98-10.29,22.79-19.73,35.75-27.41c0.21-0.13,0.03-2.22,0.03-2.5C349.25,62.33,349.03,60.22,349.23,60.1L349.23,60.1z"/>
	</g>
</g>
<g>
	<g>
		<path class="st33" d="M374.44,71.51c23.31,5.71,39.7,26,52.43,45.05c14.28,21.37,25.02,44.85,34.37,68.72
			c5.28,13.48,10.12,27.11,14.95,40.75c-0.22-0.63,0.02-1.83,0.02-2.5c0-0.72,0.22-1.81-0.02-2.5c-8.57-24.2-17.2-48.46-28.19-71.7
			c-5.49-11.6-11.57-22.94-18.5-33.75c-6.57-10.26-13.81-20.27-22.36-28.97c-9.08-9.23-19.97-16.99-32.7-20.11
			C374.79,66.6,374.02,71.41,374.44,71.51L374.44,71.51z"/>
	</g>
</g>
<g>
	<g>
		<path class="st29" d="M321.66,214.31c-19.52-1.18-39.09-1.46-58.63-0.81c-19.54,0.65-39.06,2.22-58.45,4.7
			c-10.99,1.41-21.94,3.11-32.84,5.09c-0.33,0.06,0.26,4.95,0,5c19.24-3.5,38.64-6.11,58.12-7.8c19.48-1.69,39.04-2.46,58.59-2.31
			c11.08,0.08,22.16,0.47,33.22,1.14C321.6,219.31,321.8,214.32,321.66,214.31L321.66,214.31z"/>
	</g>
</g>
<path class="st34" d="M509.61,271.88c11.18-4.77,19.91-10.17,19.5-15.5c-2.72-34.93-396.25-47.08-401-13
	c-0.89,6.39,11.81,15.03,42.5,26.5"/>
<g>
	<g>
		<path class="st33" d="M351.75,65.54c0.86-1.6,0.67-3.87,2-5.21c0.79-0.79,1.9-0.81,2.95-0.82c1.45-0.02,2.91-0.04,4.36-0.06
			c1.39-0.02,2.77-0.04,4.16-0.06c1.17-0.02,2.39-0.07,3.53,0.28c1.86,0.56,3.61,2.84,3.77,4.79c0-1.64,0-3.27-0.01-4.91
			c-0.05,1.64-2.14,1.24-3.25,1.22c-1.72-0.04-3.44-0.12-5.16-0.25c-3.43-0.26-6.85-0.7-10.24-1.3c0,1.67,0,3.33,0,5
			c0.47-2.08,3.36-1.79,4.96-1.74c2.94,0.09,5.87,0.18,8.81,0.28c0-1.67,0-3.33,0-5c-3.27-0.04-6.54-0.09-9.81-0.13
			c-0.78-0.01-1.57-0.02-2.35-0.03c-0.73-0.01-1.53-0.11-2.24,0.06c-1.47,0.36-1.15,2.02-1.15,3.19c0,1.28-0.4,3.32,0.49,4.43
			c0.88,1.1,2.52,0.98,3.78,0.92c3.03-0.14,6.18-0.24,9.12-1.07c1.28-0.36,2.51-0.97,3.11-2.23c0.32-0.68,0.53-1.28,1.29-1.54
			c0.66-0.22,1.41-0.1,2.08,0.01c-0.24-0.04,0.32-4.95,0-5c-0.67-0.12-1.42-0.24-2.08-0.01c-0.77,0.26-0.97,0.86-1.29,1.54
			c-0.61,1.3-1.92,1.91-3.24,2.27c-1.63,0.44-3.34,0.64-5.02,0.79c-1.69,0.15-3.43,0.31-5.13,0.28c-0.73-0.02-1.53-0.1-2.15-0.53
			c-0.25-0.17-0.44-0.38-0.6-0.64c-0.07-0.11-0.13-0.22-0.17-0.34c-0.48-1.52-0.5-0.25-0.08,3.81c0.41-0.63,0.73-0.88,1.51-0.96
			c0.85-0.08,1.73,0,2.58,0.02c3.79,0.05,7.59,0.1,11.38,0.15c0,0,0.08-5,0-5c-2.94-0.09-5.87-0.18-8.81-0.28
			c-1.6-0.05-4.49-0.34-4.96,1.74c-0.1,0.46-0.12,4.98,0,5c3.85,0.69,7.73,1.16,11.63,1.4c1.88,0.11,3.91,0.35,5.79,0.16
			c1.78-0.18,1.26-2.58,1.26-3.82c0-1.76,0.1-3.15-0.85-4.67c-0.87-1.39-1.87-2.45-3.54-2.77c-1.65-0.31-3.43-0.12-5.1-0.1
			c-1.98,0.03-3.96,0.06-5.94,0.09c-1.67,0.02-3.23,0.11-3.99,1.82c-0.6,1.36-0.64,2.89-1.35,4.21c-0.06,0.12-0.02,0.67-0.02,0.73
			c-0.01,0.59-0.01,1.18-0.01,1.77c0,0.59,0,1.18,0.01,1.77C351.73,64.97,351.82,65.41,351.75,65.54L351.75,65.54z"/>
	</g>
</g>
<path class="st35" d="M158.61,220.88c15.7-13.03,87.27-69.53,192-63.35c94.82,5.6,155.62,58.96,172,74.35
	c-5.33-18.67-10.67-37.33-16-56c-4.57-7.3-58.61-90.29-160.55-94.43c-73.2-2.97-142.77,35.85-180.45,100.43
	C163.27,194.88,160.94,207.88,158.61,220.88z"/>
<path class="st36" d="M158.52,220.91c15.7-13.03,87.27-69.53,192-63.35c94.82,5.6,155.62,58.96,172,74.35
	c-5.33-18.67-10.67-37.33-16-56c-4.57-7.3-58.61-90.29-160.55-94.43c-73.2-2.97-142.77,35.85-180.45,100.43
	C163.19,194.91,160.85,207.91,158.52,220.91z"/>
<path class="st37" d="M236.61,172.88c10-3.33,20-6.67,30-10c12.33-25,24.67-50,37-75c-13.13,0.21-27.24,4.68-42,12
	C253.27,124.21,244.94,148.54,236.61,172.88z"/>
<path class="st37" d="M349.61,155.88c8.68,0.11,18.55,0.78,29.31,2.45c14.67,2.28,27.34,5.87,37.69,9.55c7-19.33,14-38.67,21-58
	c-19.12-9.5-40.01-17.27-64-22C365.61,110.54,357.61,133.21,349.61,155.88z"/>
<path class="st38" d="M518.7,242.16c6.71,1.61,20.6-9.78,18.56-24.64c-2.04-14.86-18.49-22.09-24.52-18.73
	C503.52,203.94,508.43,239.69,518.7,242.16z"/>
<path class="st38" d="M151.11,229.33c-6.83,0.1-18.55-12.98-14.12-25.95c4.42-12.97,21.69-16.16,27.03-11.91
	C172.2,197.97,161.56,229.18,151.11,229.33z"/>
<g>
	<g>
		<path class="st39" d="M164.19,194.11c4.93-4.62,10.41-8.6,16.32-11.88c0.04-0.02,0.02-0.81,0.02-0.73
			c0.01-0.59,0.01-1.18,0.01-1.77c0-0.59,0-1.18-0.01-1.77c0-0.09-0.05-0.71-0.02-0.73c-5.91,3.27-11.39,7.26-16.32,11.88
			c-0.05,0.05-0.02,0.77-0.02,0.73c-0.01,0.59-0.01,1.18-0.01,1.77c0,0.59,0,1.18,0.01,1.77
			C164.17,193.49,164.25,194.05,164.19,194.11L164.19,194.11z"/>
	</g>
</g>
<g>
	<g>
		<path class="st39" d="M165.64,202.09c2.96-1,5.4-3.27,8.05-4.87c2.77-1.67,5.67-3.09,8.68-4.28c0.16-0.06,0.02-2.26,0.02-2.5
			c0-0.23-0.16-2.45-0.02-2.5c-3.01,1.18-5.91,2.61-8.68,4.28c-2.65,1.6-5.09,3.86-8.05,4.87c-0.14,0.05-0.02,2.28-0.02,2.5
			C165.62,199.8,165.76,202.05,165.64,202.09L165.64,202.09z"/>
	</g>
</g>
<g>
	<g>
		<path class="st39" d="M179.15,184.18c0.19,1.33,0.38,2.65,0.56,3.98c-0.03-0.21,0.02-0.54,0.02-0.73
			c0.01-0.59,0.01-1.18,0.01-1.77c0-0.59,0-1.18-0.01-1.77c0-0.24,0.02-0.49-0.02-0.73c-0.19-1.33-0.38-2.65-0.56-3.98
			c0.03,0.21-0.02,0.54-0.02,0.73c-0.01,0.59-0.01,1.18-0.01,1.77c0,0.59,0,1.18,0.01,1.77
			C179.13,183.69,179.11,183.94,179.15,184.18L179.15,184.18z"/>
	</g>
</g>
<g>
	<g>
		<path class="st39" d="M511.51,195.97c-1.87-5.85-4.38-11.47-7.48-16.77c0.05,0.08-0.02,0.73-0.02,0.73
			c-0.01,0.59-0.01,1.18-0.01,1.77c0,0.59,0,1.18,0.01,1.77c0,0.18-0.07,0.59,0.02,0.73c3.1,5.3,5.61,10.92,7.48,16.77
			c-0.05-0.15,0.02-0.63,0.02-0.73c0.01-0.59,0.01-1.18,0.01-1.77c0-0.59,0-1.18-0.01-1.77
			C511.52,196.48,511.57,196.18,511.51,195.97L511.51,195.97z"/>
	</g>
</g>
<g>
	<g>
		<path class="st39" d="M496.71,200.09c2.46,1.38,4.92,2.74,7.37,4.14c1.86,1.06,3.8,2.32,4.6,4.41c-0.05-0.13,0.02-0.66,0.02-0.73
			c0.01-0.59,0.01-1.18,0.01-1.77c0-0.59,0-1.18-0.01-1.77c0-0.21,0.06-0.54-0.02-0.73c-0.79-2.09-2.73-3.35-4.6-4.41
			c-2.45-1.4-4.91-2.76-7.37-4.14c0.01,0.01-0.02,0.84-0.02,0.73c-0.01,0.59-0.01,1.18-0.01,1.77c0,0.59,0,1.18,0.01,1.77
			C496.69,199.46,496.65,200.06,496.71,200.09L496.71,200.09z"/>
	</g>
</g>
<g>
	<g>
		<path class="st39" d="M497.62,199.78c3.07-4.51,5.47-9.44,7.15-14.63c0.06-0.18,0.02-0.58,0.02-0.73
			c0.01-0.59,0.01-1.18,0.01-1.77c0-0.59,0-1.18-0.01-1.77c0-0.2-0.08-0.55-0.02-0.73c-1.67,5.19-4.08,10.12-7.15,14.63
			c-0.06,0.09-0.02,0.71-0.02,0.73c-0.01,0.59-0.01,1.18-0.01,1.77c0,0.59,0,1.18,0.01,1.77
			C497.6,199.19,497.69,199.68,497.62,199.78L497.62,199.78z"/>
	</g>
</g>
<g>
	<g>
		<path class="st40" d="M457.6,210.3c17.46,5.91,34.01,14.36,49.04,25.03c-0.06-0.04,0.06-2.48,0.05-2.2
			c0.02-1.77,0.02-3.54,0.02-5.3c0-1.77,0-3.54-0.02-5.3c0-0.33,0.16-2.04-0.05-2.2c-15.03-10.67-31.58-19.12-49.04-25.03
			c0.01,0-0.06,2.54-0.05,2.2c-0.02,1.77-0.02,3.54-0.02,5.3c0,1.77,0,3.54,0.02,5.3C457.55,208.35,457.46,210.25,457.6,210.3
			L457.6,210.3z"/>
	</g>
</g>
<g>
	<g>
		<path class="st40" d="M171.65,225.13c15.42-8.32,32.09-14.25,49.31-17.51c4.9-0.93,9.83-1.63,14.79-2.12
			c0.2-0.02,0.08-6.92,0.07-7.5c0-0.55-0.12-7.5-0.07-7.5c-17.44,1.74-34.57,6.16-50.66,13.11c-4.57,1.97-9.06,4.16-13.44,6.52
			c-0.12,0.06-0.06,2.45-0.05,2.2c-0.02,1.77-0.02,3.54-0.02,5.3c0,1.77,0,3.54,0.02,5.3C171.6,223.19,171.75,225.07,171.65,225.13
			L171.65,225.13z"/>
	</g>
</g>
<path class="st41" d="M231.19,408.78c11.02,13.17-62.81-25.32-76.5-79.68c-10.85-43.08,5.44-108.69,16.66-97.09
	C177.92,238.81,227.96,404.91,231.19,408.78z"/>
<path class="st41" d="M445.61,403.88c-11.02,11.9,62.81-22.88,76.5-72c10.85-38.93-5.44-98.22-16.66-87.73
	C498.88,250.28,448.84,400.38,445.61,403.88z"/>
<g>
	<g>
		<path d="M496.44,242.71c-6.73,29.15-14.18,58.16-22.67,86.85c-6.39,21.59-14.32,42.47-25.09,62.28
			c-10.41,19.16-23.09,37.09-38.03,52.98c-5.37,5.71-11.01,11.15-16.94,16.27c-2.27,1.96-4.58,3.87-6.93,5.73
			c-0.48,0.38-0.97,0.76-1.45,1.14c-0.69,0.54,0.26-0.19-0.29,0.22c-0.26,0.2-0.52,0.4-0.79,0.6c-0.88,0.67-1.77,1.34-2.66,1.99
			c-8.66,6.37-18.4,12.88-28.13,16.64c-2.85,1.1-5.74,1.95-8.75,2.48c-0.84,0.15,0.34-0.02-0.17,0.02
			c-0.27,0.02-0.54,0.06-0.82,0.08c-0.52,0.04-1.05,0.07-1.57,0.07c-0.44,0-0.87-0.01-1.31-0.05c-0.17-0.01-0.35-0.05-0.52-0.05
			c-0.22-0.01,0.79,0.14,0.07,0c-6.06-1.23-11.92-2.99-17.58-5.51c-6.03-2.69-11.79-5.93-17.42-9.35
			c-11.06-6.71-22.07-13.65-31.82-22.19c-15.33-13.44-27.75-29.83-37.51-47.67c-3.61-6.6-6.86-13.4-9.83-20.32
			c-0.14-0.32-0.27-0.64-0.41-0.96c-0.33-0.79,0.02,0.06-0.24-0.56c-0.29-0.7-0.59-1.4-0.88-2.11c-0.5-1.2-0.98-2.41-1.47-3.61
			c-0.83-2.05-1.64-4.1-2.52-6.13c-2.9-6.76-5.81-13.03-8.48-19.79c-3.63-9.2-6.91-18.54-9.82-28
			c-7.24-23.52-12.28-47.73-15.03-72.18c-0.78-6.9-1.37-13.81-1.8-20.74c-0.24-3.84-6.24-3.86-6,0c1.67,26.72,5.83,53.3,12.67,79.19
			c5.08,19.26,11.66,38.11,19.63,56.37c1.23,2.82,2.53,5.6,3.76,8.41c-0.42-0.97,0.12,0.29,0.26,0.64c0.19,0.46,0.38,0.92,0.56,1.38
			c0.44,1.1,0.88,2.19,1.33,3.29c2.52,6.23,5.17,12.41,8.1,18.46c8.45,17.43,19.19,33.83,32.48,47.97
			c8.18,8.7,17.34,16.49,27.27,23.11c11.49,7.66,23.31,15.39,36.06,20.79c5.56,2.36,11.39,4.37,17.38,5.32
			c2.36,0.38,4.65,0.26,7.01-0.1c7.61-1.15,14.88-4.79,21.5-8.56c13.77-7.84,26.51-17.86,37.99-28.76
			c14.6-13.86,27.38-29.64,38.24-46.58c12.58-19.61,22.64-40.92,30.13-62.97c4.33-12.73,7.96-25.7,11.54-38.66
			c4.04-14.63,7.88-29.31,11.5-44.05c1.79-7.27,3.52-14.55,5.2-21.84C503.09,240.55,497.31,238.94,496.44,242.71L496.44,242.71z"/>
	</g>
</g>
<g>
	<path class="st29" d="M368.48,360.17c-2.45-4.08-2.29-8.15-2.15-11.49c0.06-1.51,0.45-11.18,6.43-17.04
		c11.35-11.13,45.26-10.85,57.98,4.26c5.71,6.79,8.04,17.65,1.47,26.12c-9.05,11.66-28.78,10.84-33.57,10.64
		C395.97,372.55,375.27,371.46,368.48,360.17z"/>
	<path class="st42" d="M436.01,363.61c0.33-2.46,2.32-19.71-10.6-30.95c-15.91-13.84-44.96-10.32-55.95,2.91
		c-2.83,3.41-4.16,7.1-4.8,10.17"/>
	<circle class="st24" cx="394.94" cy="347.15" r="12.25"/>
	<circle class="st29" cx="400.64" cy="343.4" r="4.76"/>
	<path class="st29" d="M305.99,359.96c2.29-4.17,1.97-8.23,1.71-11.57c-0.12-1.5-0.88-11.15-7.08-16.78
		c-11.78-10.69-45.65-9.1-57.77,6.5c-5.45,7.01-7.35,17.94-0.46,26.15c9.49,11.3,29.17,9.73,33.95,9.34
		C279,373.39,299.64,371.51,305.99,359.96z"/>
	<circle class="st24" cx="279.05" cy="347.97" r="12.25"/>
	<circle class="st29" cx="285.2" cy="344.22" r="4.76"/>
	<path class="st0" d="M245.54,367.35c3.06,1.45,28.89,13.24,50.01,0.04c5.21-3.26,9.02-7.34,11.79-11.23"/>
	<path class="st43" d="M293.96,310.34c-23.84-0.29-45.75,4.02-64.72,15.25"/>
	<path class="st43" d="M375.98,308.75c23.82-1.21,45.87,2.25,65.26,12.74"/>
	<path class="st42" d="M237.85,364.66c-0.42-2.45-3.08-19.61,9.4-31.34c15.37-14.44,44.53-12.05,56.02,0.75
		c2.96,3.3,4.43,6.93,5.19,9.98"/>
	<path class="st0" d="M429.3,365.73c-3,1.57-28.36,14.34-49.97,1.96c-5.33-3.05-9.29-6.98-12.21-10.77"/>
</g>
</svg>
