<?xml version="1.0" encoding="utf-8"?>
<!-- Generator: Adobe Illustrator 28.3.0, SVG Export Plug-In . SVG Version: 6.00 Build 0)  -->
<svg version="1.1" id="Layer_1" xmlns="http://www.w3.org/2000/svg" xmlns:xlink="http://www.w3.org/1999/xlink" x="0px" y="0px"
	 viewBox="0 0 875 1859" style="enable-background:new 0 0 875 1859;" xml:space="preserve">
<style type="text/css">
	.st0{fill:#FFE3CB;stroke:#000000;stroke-miterlimit:10;}
	.st1{fill:#FFB995;stroke:#FFB995;stroke-miterlimit:10;}
	.st2{fill:none;stroke:#000000;stroke-miterlimit:10;}
	.st3{fill:#2F3E68;}
	.st4{fill:#FFB995;}
	.st5{fill:#332C26;}
	.st6{fill:#332C26;stroke:#000000;stroke-miterlimit:10;}
	.st7{fill:none;stroke:#FFB995;stroke-miterlimit:10;}
	.st8{fill:#323549;stroke:#25282D;stroke-width:2;stroke-miterlimit:10;}
	.st9{fill:#1E2722;stroke:#000000;stroke-miterlimit:10;}
	.st10{fill:#FFB995;stroke:#000000;stroke-width:0.5;stroke-miterlimit:10;}
	.st11{fill:#FFE3CB;}
	.st12{fill:#323549;}
	.st13{fill:#2F3E68;stroke:#000000;stroke-miterlimit:10;}
	.st14{fill:#27335A;}
	.st15{fill:#27335A;stroke:#27335A;stroke-miterlimit:10;}
	.st16{fill:#25282D;}
	.st17{fill:#323549;stroke:#25282D;stroke-width:5;stroke-miterlimit:10;}
	.st18{fill:#FFFFFF;}
	.st19{fill:none;stroke:#000000;stroke-width:4;stroke-miterlimit:10;}
	.st20{stroke:#000000;stroke-miterlimit:10;}
	.st21{fill:none;stroke:#000000;stroke-width:3;stroke-miterlimit:10;}
	.st22{fill:#FFFFFF;stroke:#000000;stroke-miterlimit:10;}
</style>
<path class="st0" d="M294.54,634.67c-21.67,94.67-43.33,189.33-65,284c11.33,21.67,22.67,43.33,34,65c31-106.67,62-213.33,93-320
	C335.87,654,315.2,644.34,294.54,634.67z"/>
<path class="st0" d="M658.44,637.15c21.67,94.67,43.33,189.33,65,284c-11.33,21.67-22.67,43.33-34,65c-31-106.67-62-213.33-93-320
	C617.11,656.49,637.77,646.82,658.44,637.15z"/>
<path class="st1" d="M264.54,744.67c19.67,11.33,39.33,22.67,59,34c22.77-89.04-7.69-131.99-27-132
	C287.18,646.67,276.52,678.96,264.54,744.67z"/>
<path class="st1" d="M683.08,730.52c-19.67,11.33-39.33,22.67-59,34c-22.77-89.04,7.69-131.99,27-132
	C660.44,632.52,671.1,664.82,683.08,730.52z"/>
<path class="st2" d="M436.5,1276.84"/>
<path class="st0" d="M533.83,411.54c2.63,23.55-6,13-8,90c-2.94,9.27-8.97,25.81-22,43c-10.02,13.22-18.65,24.6-30,25
	c-18.93,0.66-33.56-29.65-40-43c-13.52-28-6-64-11-106C443.87,394.3,491.51,387.63,533.83,411.54z"/>
<g>
	<path class="st3" d="M588.45,914.59c1.96-4.29,6.31-15.17,1.38-22.05c-3.4-4.74-9.72-5.52-11.98-5.8
		c-54.87-6.94-12.26-12.05-90.68-13.56c-40.48-0.78-83.06-0.96-118.58,18.47c-1.8,0.98-3.64,2.08-4.69,3.84
		c-0.89,1.49-1.1,3.28-1.28,5.02c-3.14,30.51-3.29,61.33-0.43,91.87c0.78,8.37,1.82,16.83,4.83,24.68
		c4.34,11.31,12.51,20.66,20.51,29.75c3.94,4.47,8.06,9.08,13.52,11.46c6.31,2.74,13.48,2.14,20.35,2.42
		c10.01,0.41,19.83,2.81,29.79,3.85c9.96,1.05,20.5,0.62,29.29-4.19c5.89-3.23,10.6-8.21,15.19-13.11
		c13.19-14.04,26.4-28.12,38.09-43.43c4.17-5.47,8.16-11.11,12.94-16.05c5.42-5.6,11.8-10.25,16.83-16.21
		c6.23-7.37,10.11-16.39,13.9-25.26c3.64-8.52,8.12-20.32,11.8-35.05"/>
</g>
<g>
	<path class="st4" d="M425.33,420.04c11.99-6.42,36.45-17.3,68.33-16.11c16.83,0.63,30.72,4.43,40.67,8.11c-2,15-4,30-6,45
		c0,0-23.03,18.75-36.31,22.96c-17.24,5.47-32.91,4.91-46.59,4.21c-8.43-0.43-15.37-1.39-20.1-2.18"/>
</g>
<path class="st5" d="M622.83,302.54c5.54-8.08,19.24-30.37,20-60.38c1.13-44.78-26.96-90.63-65.69-110.21
	c-46.13-23.34-120.47-19.35-100.31-20.41c19-1,27.61-47.69,26-49c-1.54-1.25-23.69,27.21-41,42c-95-31-190.25,20.96-190,18
	c0.26-3.11,91.95-4.31,148.51,9.88c0.18,0.05,0.31,0.08,0.49,0.12c-11.66-5.32-27.47-9.8-45-7c-37.09,5.91-68.24,42.16-77,91
	c1.39,26.89,8.7,77.86,47,115C422.5,405.89,572.67,375.7,622.83,302.54z"/>
<path class="st0" d="M320.83,293.54c-10.38,4.58-10.06,25.47-10,28c1.09,43.16,55.54,68.45,59,70c12.05,5.4,24.6,11.04,30,6
	c10.43-9.73-12.72-52.96-40-81C350.43,306.88,332.46,288.41,320.83,293.54z"/>
<path class="st0" d="M624.25,293.98c10.38,4.58,10.06,25.47,10,28c-1.09,43.16-55.54,68.45-59,70c-12.05,5.4-24.6,11.04-30,6
	c-10.43-9.73,12.72-52.96,40-81C594.65,307.32,612.62,288.85,624.25,293.98z"/>
<path class="st0" d="M346.83,278.54c3,48,28,110,28,110s9,45,99,83c15.38-5.65,63.48-25.54,97-78c21-54,31.35-104.69,30-121
	c-9.02-56.66-54.24-130.14-123-132C405.6,138.59,354.46,216.94,346.83,278.54z"/>
<path class="st6" d="M452.83,209.54c-7,66-29,96-29,96s56-29,45-39c1.76,1.49-14,45-32,55c4.73,6.17,28.68-0.81,44-13
	c43.35-34.5,25.69-117.12,23-129"/>
<path class="st6" d="M483.83,195.54c14.01,28.85,62.09,68.06,100.58,100.55c6.89,5.82-1.42,24.24-12.58,42.45
	c3.27,3.09,12.2-1.57,14.1-2.56c14.74-7.68,24.59-25.25,24.9-47.44"/>
<path class="st2" d="M346.83,328.42"/>
<path class="st5" d="M611.83,282.54c16.73-14.19-7.66-108.46-76-144c-65.01-33.81-154.86-6.63-191,51c-20.8,33.16-27.38,81.62-11,92
	c28.84,18.27,125.02-83.91,136.5-72.5c4.98,4.95-11.12,26.16-4.5,32.5c7.01,6.71,25.92-16.2,49.5-12.5c23.3,3.66,24.19,29.06,59,46
	C583.83,279.66,603.78,289.37,611.83,282.54z"/>
<g>
	<g>
		<path d="M453.21,208.67c0.78-3.65,1.16-7.39,1.13-11.12c-0.01-1.07-1.29-1.96-2.26-1.3c-3.41,2.35-6.52,5.1-9.24,8.23
			c-0.53,0.61-0.6,1.52,0,2.12c0.54,0.54,1.59,0.61,2.12,0c2.55-2.93,5.44-5.55,8.63-7.76c-0.75-0.43-1.5-0.86-2.26-1.3
			c0.04,3.47-0.3,6.93-1.02,10.33c-0.17,0.79,0.23,1.62,1.05,1.85C452.11,209.92,453.04,209.47,453.21,208.67L453.21,208.67z"/>
	</g>
</g>
<g>
	<path d="M510.27,225.64c-0.74,0.01-0.84-7.33-3.11-21.84c-1.42-9.13-2.97-16.61-4.1-21.68c2.72,4.55,6.13,11.49,7.76,20.42
		C513.02,214.54,511.18,225.62,510.27,225.64z"/>
	<g>
		<path d="M510.27,224.14c0.38,0.04,1.05,0.54,1.12,0.59c0.02,0.01,0.09,0.37,0.07,0.15c-0.02-0.19-0.1-0.39-0.14-0.58
			c-0.16-0.76-0.17-1.05-0.26-1.76c-0.28-2.33-0.51-4.67-0.79-7.01c-0.92-7.81-2.12-15.58-3.59-23.3
			c-0.67-3.51-1.39-7.02-2.17-10.51c-0.91,0.39-1.83,0.77-2.74,1.16c4.15,6.98,6.96,14.7,8.04,22.76c0.58,4.34,0.71,8.76,0.39,13.12
			c-0.1,1.42-0.25,2.85-0.53,4.25c-0.1,0.47-0.21,0.94-0.35,1.4c-0.1,0.32-0.1,0.12-0.06,0.19c-0.02,0.05-0.05,0.1-0.08,0.14
			c0.16-0.27,0.39-0.44,0.7-0.54c-1.9,0.33-1.09,3.23,0.8,2.89c1.53-0.27,1.81-2.79,2.02-3.96c0.52-3.01,0.68-6.08,0.67-9.12
			c-0.03-7.98-1.44-15.95-4.42-23.36c-1.29-3.21-2.82-6.31-4.58-9.28c-0.89-1.49-3.11-0.49-2.74,1.16
			c1.69,7.58,3.12,15.21,4.29,22.89c0.93,6.14,1.48,12.32,2.32,18.47c0.19,1.35,0.34,3.1,2.04,3.27
			C512.19,227.33,512.18,224.32,510.27,224.14z"/>
	</g>
</g>
<g>
	<g>
		<path d="M616.43,283.48c0-3.52,0-7.03,0-10.55c0-0.81-0.69-1.5-1.5-1.5c-0.81,0-1.5,0.69-1.5,1.5c0,3.52,0,7.03,0,10.55
			c0,0.81,0.69,1.5,1.5,1.5C615.74,284.98,616.43,284.29,616.43,283.48L616.43,283.48z"/>
	</g>
</g>
<g>
	<g>
		<path d="M385.64,128.69c9.05-0.66,18.17-0.34,27.14,1.02c1.89,0.29,2.7-2.6,0.8-2.89c-9.25-1.4-18.6-1.81-27.94-1.13
			C383.72,125.83,383.71,128.83,385.64,128.69L385.64,128.69z"/>
	</g>
</g>
<g>
	<g>
		<path d="M494.4,169.83c-1.68-3.47-4.81-6.12-8.44-7.34c-0.74-0.25-1.67,0.29-1.85,1.05c-0.19,0.83,0.25,1.58,1.05,1.85
			c0.2,0.07,0.4,0.14,0.59,0.21c0.16,0.06,0.2,0.06,0.01,0c0.1,0.03,0.22,0.09,0.31,0.14c0.38,0.18,0.76,0.37,1.12,0.58
			c0.35,0.2,0.68,0.42,1.01,0.66c0.08,0.06,0.15,0.11,0.23,0.17c0.31,0.23-0.24-0.2,0.06,0.05c0.16,0.13,0.32,0.27,0.48,0.41
			c0.3,0.27,0.59,0.55,0.86,0.84c0.14,0.15,0.28,0.31,0.42,0.47c0.06,0.07,0.12,0.15,0.18,0.22c0.04,0.05,0.3,0.33,0.05,0.06
			c0.55,0.59,0.96,1.43,1.31,2.15c0.34,0.71,1.41,0.95,2.05,0.54C494.59,171.41,494.76,170.58,494.4,169.83L494.4,169.83z"/>
	</g>
</g>
<g>
	<g>
		<path d="M576.58,169.53c8.24,14.54,15.54,29.59,21.83,45.07c0.72,1.77,3.62,0.99,2.89-0.8c-6.38-15.72-13.76-31.02-22.13-45.79
			C578.22,166.34,575.62,167.85,576.58,169.53L576.58,169.53z"/>
	</g>
</g>
<g>
	<g>
		<path d="M330,230.2c0.55-4.03,2.17-7.72,3.86-11.38c1.77-3.84,3.6-7.66,5.48-11.45c3.72-7.51,7.64-14.92,11.75-22.23
			c0.95-1.68-1.64-3.2-2.59-1.51c-4.19,7.44-8.18,15-11.97,22.66c-1.87,3.79-3.7,7.61-5.47,11.46c-1.72,3.74-3.4,7.55-3.96,11.67
			c-0.11,0.81,0.2,1.6,1.05,1.85C328.85,231.45,329.89,231,330,230.2L330,230.2z"/>
	</g>
</g>
<path class="st7" d="M322.83,307.54c-1.18,3.76-3.06,11.56-1,21c1.38,6.34,4.03,11.08,6,14"/>
<path class="st7" d="M623.93,306.36c1.18,3.76,3.06,11.56,1,21c-1.38,6.34-4.03,11.08-6,14"/>
<path class="st8" d="M427.54,504.67c4.68,27.57,25.13,40.36,50,49c5.89-1.49,20-5.92,32-19c15.47-16.86,16.81-36.54,17-42
	c19.27,9.15,32.45,26.09,32,43c-0.74,27.7-37.73,44.35-41.72,46.06c-0.94,0.4-1.71,0.72-2.28,0.94c-35.3,14.17-107.4-0.38-116-37
	c-1.33-5.67-2.82-19.02,11-39C415.54,506,421.54,505.34,427.54,504.67z"/>
<path class="st9" d="M423.83,1524.54c0,0-9.49,47.39-6,99c3.31,49.02,22.2,90.39,25,120c1.24,25.38,1.14,49.01-4,66
	c-8.09,5.12-31.96,18.74-64.52,16.43c-25.88-1.84-44.29-12.81-52.48-18.43c-1.56-6.42-3.46-16.11-4-28c-0.9-19.88,2.55-34.07,8-57
	c2.99-12.58,7.85-33.18,15-64c1.77-44.7,0.48-87.89-5-129C363.33,1535.51,392.97,1532.59,423.83,1524.54z"/>
<path class="st2" d="M428.83,1752.54c-26.14-29.43-87-20-97,1"/>
<path class="st2" d="M318.83,1790.54c40.99,18.4,81.99,18.89,123,1"/>
<path class="st9" d="M529.83,1519.54c1.48,21.25,2.61,43.26,3.28,66.01c0.56,18.83,0.78,37.17,0.72,54.99
	c-7.7,32.51-15.4,65.01-23.09,97.52c0,0-1.14,49.01,4,66c8.09,5.12,31.96,18.74,64.52,16.43c25.88-1.84,44.29-12.81,52.48-18.43
	c1.56-6.42,3.46-16.11,4-28c0.9-19.88-2.55-34.07-8-57c-2.99-12.58-7.85-33.18-15-64c-0.53-21.14-0.64-43.11-0.22-65.85
	c0.49-26.29,1.65-51.55,3.31-75.67c-6.46,4.51-20.66,13.14-40.83,15.28C553.55,1529.09,537.02,1522.79,529.83,1519.54z"/>
<path class="st2" d="M521.73,1752.06c26.14-29.43,87-20,97,1"/>
<path class="st2" d="M631.73,1790.06c-40.99,18.4-81.99,18.89-123,1"/>
<line class="st1" x1="479.83" y1="323.54" x2="466.83" y2="331.54"/>
<line class="st1" x1="480.83" y1="328.54" x2="459.83" y2="341.54"/>
<line class="st1" x1="485.83" y1="331.54" x2="458.83" y2="348.54"/>
<line class="st1" x1="487.83" y1="337.54" x2="459.83" y2="354.54"/>
<line class="st1" x1="490.83" y1="341.54" x2="461.83" y2="358.54"/>
<path class="st10" d="M473.83,368.04c-0.17,4-0.33,8-0.5,12c-1.83-1.67-3.67-3.33-5.5-5"/>
<g>
	<g>
		<path class="st4" d="M379.76,357.33c-0.61,0.82-1.22,1.63-1.83,2.45c-0.11,0.17-0.17,0.36-0.18,0.56c-0.04,0.2-0.04,0.4,0.03,0.6
			c0.1,0.35,0.36,0.73,0.69,0.9c0.35,0.18,0.77,0.28,1.16,0.15c0.12-0.05,0.24-0.1,0.36-0.15c0.23-0.13,0.4-0.31,0.54-0.54
			c0.61-0.82,1.22-1.63,1.83-2.45c0.11-0.17,0.17-0.36,0.18-0.56c0.04-0.2,0.04-0.4-0.03-0.6c-0.1-0.35-0.36-0.73-0.69-0.9
			c-0.35-0.18-0.77-0.28-1.16-0.15c-0.12,0.05-0.24,0.1-0.36,0.15C380.07,356.92,379.89,357.1,379.76,357.33L379.76,357.33z"/>
	</g>
</g>
<g>
	<g>
		<path class="st4" d="M383.71,360.06c-0.2,0.31-0.41,0.61-0.61,0.92c-0.11,0.17-0.17,0.36-0.18,0.56c-0.04,0.2-0.04,0.4,0.03,0.6
			c0.05,0.2,0.14,0.37,0.27,0.51c0.11,0.16,0.25,0.29,0.42,0.39c0.12,0.05,0.24,0.1,0.36,0.15c0.27,0.07,0.53,0.07,0.8,0
			c0.12-0.05,0.24-0.1,0.36-0.15c0.23-0.13,0.4-0.31,0.54-0.54c0.2-0.31,0.41-0.61,0.61-0.92c0.11-0.17,0.17-0.36,0.18-0.56
			c0.04-0.2,0.04-0.4-0.03-0.6c-0.05-0.2-0.14-0.37-0.27-0.51c-0.11-0.16-0.25-0.29-0.42-0.39c-0.12-0.05-0.24-0.1-0.36-0.15
			c-0.27-0.07-0.53-0.07-0.8,0c-0.12,0.05-0.24,0.1-0.36,0.15C384.02,359.66,383.84,359.84,383.71,360.06L383.71,360.06z"/>
	</g>
</g>
<g>
	<g>
		<path class="st4" d="M553.2,359.91c0,0.51,0,1.02,0,1.53c-0.01,0.21,0.04,0.4,0.13,0.58c0.06,0.19,0.16,0.35,0.31,0.48
			c0.14,0.15,0.3,0.25,0.48,0.31c0.18,0.09,0.37,0.14,0.58,0.13c0.13-0.02,0.27-0.04,0.4-0.05c0.25-0.07,0.47-0.2,0.66-0.39
			c0.27-0.29,0.44-0.65,0.44-1.06c0-0.51,0-1.02,0-1.53c0.01-0.21-0.04-0.4-0.13-0.58c-0.06-0.19-0.16-0.35-0.31-0.48
			c-0.14-0.15-0.3-0.25-0.48-0.31c-0.18-0.09-0.37-0.14-0.58-0.13c-0.13,0.02-0.27,0.04-0.4,0.05c-0.25,0.07-0.47,0.2-0.66,0.39
			C553.37,359.14,553.2,359.5,553.2,359.91L553.2,359.91z"/>
	</g>
</g>
<g>
	<g>
		<path class="st4" d="M557.75,358.72c0.01,0.01,0.02,0.03,0.04,0.04c-0.08-0.1-0.16-0.2-0.23-0.3c0.24,0.32,0.44,0.66,0.6,1.03
			c-0.05-0.12-0.1-0.24-0.15-0.36c0.17,0.4,0.28,0.82,0.34,1.26c-0.02-0.13-0.04-0.27-0.05-0.4c0.05,0.38,0.05,0.76,0.01,1.13
			c-0.04,0.36,0.2,0.82,0.44,1.06c0.26,0.26,0.69,0.46,1.06,0.44c0.39-0.02,0.79-0.14,1.06-0.44c0.08-0.1,0.16-0.2,0.23-0.3
			c0.14-0.23,0.2-0.49,0.2-0.76c0.08-0.75,0-1.53-0.21-2.25c-0.12-0.4-0.28-0.8-0.47-1.18c-0.2-0.4-0.47-0.74-0.74-1.09
			c-0.22-0.28-0.72-0.44-1.06-0.44c-0.37,0-0.81,0.16-1.06,0.44c-0.26,0.29-0.46,0.66-0.44,1.06c0.02,0.13,0.04,0.27,0.05,0.4
			C557.43,358.31,557.56,358.53,557.75,358.72L557.75,358.72z"/>
	</g>
</g>
<path class="st6" d="M458.83,212.54c-12.82,8.94-94,84-101,114c-2,5,9.6,31.37,11,31c0.08-0.02,0.11-0.11,0.12-0.15
	c0.66-2.62-54.89-18.44-44.12-91.85"/>
<path class="st11" d="M264.83,954.54c-4.91-18.4-21.58-36.03-32.79-33.37c-14.34,3.4-16.47,39.18-17.71,59.87
	c-0.99,16.53-4.81,88.27,28.5,104.5c1.9,0.93,10.53,5.13,16.5,1.5c13.3-8.09-8.26-41.9,0.5-91.5
	C263.24,976.23,268.69,969,264.83,954.54z"/>
<path class="st0" d="M262.83,1082.54c0,0,27,14,33,14c1.71-1.44,2.01-4.02,1.86-6.32c0,0,0.03-2.36-0.86-4.68c-1.55-4-13-9-13-9
	c-7.72-3.34-10.71-3.63-13-7c-1.45-2.13-2-6-2-6"/>
<path class="st0" d="M229.54,918.67c-9.28,14.14-19.96,33.71-27.63,58.48c-4.55,14.68-7.13,28.21-8.57,39.89c0,0,20.29,46.84,28,71
	l71,19c0.47-2,0.59-3.84,0.5-5.5c-0.9-16.92-24.34-26.9-27-28"/>
<path class="st0" d="M268.83,954.54c4,29-1,61-1,61c1.23,15.69,2.5,31.33,8,41c-1.73,6.5-7.11,7.99-15,6
	c-6.77-5.51-11.2-22.27-15-42c0,0-19.21-9.78-19.43-9.37c-0.02,0.04,0.12,0.16,0.43,0.37"/>
<path class="st0" d="M221.83,1022.54c7.12,15,13.28,30,18,45"/>
<path class="st8" d="M526.54,492.67c38.04,5.58,76.08,11.15,114.12,16.73c7.05,24.82,14.7,50.17,23,76
	c15.04,46.81,30.95,91.2,47.29,133.13c-34.6,21.86-66.42,27.82-96,21c-9.76-49.38-19.53-98.76-29.29-148.13"/>
<path class="st8" d="M417.54,505.67c-35.9,5.96-71.8,11.91-107.71,17.87c-7.05,24.82-14.7,50.17-23,76
	c-15.04,46.81-30.95,91.2-47.29,133.13c34.6,21.86,66.42,27.82,96,21c9.76-49.38,19.53-98.76,29.29-148.13"/>
<path class="st12" d="M501.83,548.54c-17.99,5.99-37.41,6.65-58,3c0.1-3.75,8,29,30,38C504.83,572.54,502.99,542.45,501.83,548.54z"
	/>
<path class="st12" d="M429.83,540.54c-3.57-10.65-16.34-15.55-26-14c-16.11,2.59-27.13,23.73-21,35c6,11.04,28.53,12.72,40,2
	C428.07,558.64,432.82,549.47,429.83,540.54z"/>
<path class="st12" d="M575.3,529.92c-3.39-11.02-17.16-16.07-26.97-15.89c-22.05,0.42-41.46,27.71-36,40
	c5.67,12.76,40.77,15.35,55.97-1.11C569.16,551.98,578.78,541.26,575.3,529.92z"/>
<path class="st13" d="M592.83,899.54c4.6,14.24,9.07,29.14,13.31,44.68c5.8,21.27,10.65,41.76,14.69,61.32c0,0-8,311-8,311
	c-1.73,30.57-3.07,77.67,1,135c8.37,117.88,2.71,204.13,2.71,204.13s-36.39,18.21-92-2c-4.9-52.71-9.8-105.42-14.71-158.13l0,0
	c-3.43-62.29-6.86-124.58-10.29-186.87c-8.24-81.71-16.47-163.42-24.71-245.13l0,0c-17.67-0.67-35.33-1.33-53-2"/>
<path class="st13" d="M360.83,898.54c-9,35.33-18,70.67-27,106c-0.47,103.5,5.73,207.29,10,311
	c-5.29,164.13-12.29,334.13-12.29,334.13s40.52,20.89,100,1c4.74-153.15,14.75-311.83,31.17-475.53
	c3.77-37.56,7.81-74.76,12.12-111.61c21.34-0.84,32.01-1.51,32-2c-0.01-0.74-24.68-1.08-74-1"/>
<g>
	<path class="st14" d="M492.28,946.16c-2.48,35.13-4.97,70.25-7.45,105.38"/>
	<g>
		<path class="st14" d="M490.78,946.16c-1.93,27.34-3.87,54.68-5.8,82.02c-0.55,7.79-1.1,15.58-1.65,23.36c-0.14,1.93,2.86,1.92,3,0
			c1.93-27.34,3.87-54.68,5.8-82.02c0.55-7.79,1.1-15.58,1.65-23.36C493.92,944.23,490.92,944.24,490.78,946.16L490.78,946.16z"/>
	</g>
</g>
<g>
	<path class="st14" d="M461.29,949.02c-3.49,35.51-6.98,71.01-10.47,106.52"/>
	<g>
		<path class="st14" d="M459.79,949.02c-2.73,27.75-5.45,55.49-8.18,83.24c-0.76,7.76-1.53,15.52-2.29,23.29
			c-0.19,1.92,2.81,1.91,3,0c2.73-27.75,5.45-55.49,8.18-83.24c0.76-7.76,1.53-15.52,2.29-23.29
			C462.98,947.1,459.98,947.11,459.79,949.02L459.79,949.02z"/>
	</g>
</g>
<g>
	<path class="st14" d="M385.11,955.8c-0.95,11.6-1.9,23.2-2.86,34.79c-0.13,1.56-0.27,3.16-0.92,4.59
		c-1.24,2.72-3.46,4.14-4.01,4.51c-3.49,2.39-16.83,15.24-37.5,35.85"/>
	<g>
		<path class="st14" d="M383.61,955.8c-0.73,8.95-1.47,17.89-2.2,26.84c-0.18,2.24-0.37,4.47-0.55,6.71
			c-0.16,1.96-0.19,4.02-1.18,5.78c-0.9,1.61-2.25,2.6-3.68,3.68c-2.43,1.84-4.66,3.96-6.89,6.04c-3.92,3.65-7.76,7.37-11.59,11.11
			c-6.29,6.13-12.52,12.32-18.74,18.52c-1.37,1.36,0.75,3.49,2.12,2.12c9.75-9.72,19.5-19.48,29.55-28.89
			c2.33-2.18,4.66-4.42,7.18-6.39c-0.32,0.25,0.13-0.1,0.25-0.18c0.2-0.14,0.4-0.27,0.6-0.41c1.08-0.77,2.05-1.64,2.87-2.69
			c2.55-3.28,2.42-7.46,2.75-11.41c0.84-10.27,1.69-20.54,2.53-30.82C386.76,953.88,383.76,953.89,383.61,955.8L383.61,955.8z"/>
	</g>
</g>
<g>
	<path class="st14" d="M562.47,946.85c-0.05,8.17-0.09,16.34-0.14,24.51c-0.01,1.35,0.03,2.82,0.88,3.86
		c0.69,0.84,1.77,1.22,2.79,1.57c12.15,4.1,24.29,8.21,36.44,12.31"/>
	<g>
		<path class="st14" d="M560.97,946.85c-0.03,4.82-0.05,9.64-0.08,14.46c-0.01,2.45-0.03,4.9-0.04,7.35
			c-0.01,1.94-0.28,4.15,0.39,6.02c0.68,1.88,2.24,2.79,4.03,3.43c2.31,0.83,4.65,1.57,6.97,2.36c4.65,1.57,9.31,3.14,13.96,4.72
			c5.28,1.79,10.57,3.57,15.85,5.36c1.83,0.62,2.62-2.28,0.8-2.89c-8.76-2.96-17.51-5.92-26.27-8.87c-2.13-0.72-4.26-1.44-6.39-2.16
			c-1.1-0.37-2.21-0.75-3.31-1.12c-0.77-0.26-1.76-0.48-2.36-1.08c-1.21-1.2-0.68-3.99-0.67-5.52c0.01-2.21,0.03-4.41,0.04-6.62
			c0.03-5.15,0.06-10.3,0.09-15.44C563.98,944.92,560.98,944.91,560.97,946.85L560.97,946.85z"/>
	</g>
</g>
<path class="st15" d="M351.83,1073.54c-2.46,55.32,2.87,127.32,16,216"/>
<path class="st15" d="M370.83,1358.54c-6.28,42.67-9.62,85.33-10,128"/>
<g>
	<path class="st12" d="M348.83,563.54c-6.1,134.38-12.2,268.76-18.29,403.13c30.37,13.55,78.59,30.71,140,35
		c68.11,4.76,122.98-8.37,156-19c-8.24-142.38-16.47-284.76-24.71-427.13"/>
	<path class="st16" d="M349.07,563.55c-1.57,100.89-4.7,201.77-10.97,302.48c-2.52,33.2-5.34,68.07-7.47,100.46
		c26.43,10.25,53.54,18.68,81.18,24.92c9.15,2.38,18.21,5.34,27.59,6.69c10.82,1.96,26.67,1.79,37.76,2.25
		c50.01,2.85,102.21-2.9,149.16-17.66c-5.35-88.22-13.55-178.52-17.81-266.82c-2.8-53.42-5.4-106.83-6.9-160.31l0.47-0.03
		c4.68,53.3,8.25,106.65,11.63,160.04c3.38,51.34,6.03,108.52,8.11,160.24c1.25,35.63,3.28,71.73,4.8,107.08
		c-42.11,13.63-86.3,21.32-130.63,21.51c-6.34-0.11-12.69-0.18-19.01-0.69c-9.5-0.55-18.87-2.4-28.26-3.81
		c-12.47-2.33-25.19-2.83-37.68-4.94c-27.96-5.81-55.26-15.32-80.7-28.16c1.76-50.46,0.98-101.02,3.38-151.47
		C338,731.67,341.14,646.09,349.07,563.55L349.07,563.55z"/>
</g>
<g>
	<path class="st14" d="M595.83,1080.54c-0.67,92.67-1.33,185.33-2,278"/>
	<path class="st14" d="M595.88,1080.54c-0.03,90.33-0.87,187.61-2,278c0,0-0.11,0-0.11,0
		C594.06,1268.19,594.3,1170.6,595.88,1080.54L595.88,1080.54z"/>
</g>
<path class="st15" d="M599.83,1398.54c-3.38,36.31-6.95,69.93-11,97c-11.19,15.69-26.03,22.69-42,27"/>
<path class="st2" d="M530.83,480.54"/>
<path class="st11" d="M688.15,957.02c4.91-18.4,21.58-36.03,32.79-33.37c14.34,3.4,16.47,39.18,17.71,59.87
	c0.99,16.53,4.81,88.27-28.5,104.5c-1.9,0.93-10.53,5.13-16.5,1.5c-13.3-8.09,8.26-41.9-0.5-91.5
	C689.74,978.72,684.29,971.48,688.15,957.02z"/>
<path class="st0" d="M690.15,1085.02c0,0-27,14-33,14c-1.71-1.44-2.01-4.02-1.86-6.32c0,0-0.03-2.36,0.86-4.68c1.55-4,13-9,13-9
	c7.72-3.34,10.71-3.63,13-7c1.45-2.13,2-6,2-6"/>
<path class="st0" d="M723.44,921.15c9.28,14.14,19.96,33.71,27.63,58.48c4.55,14.68,7.13,28.21,8.57,39.89c0,0-20.29,46.84-28,71
	l-71,19c-0.47-2-0.59-3.84-0.5-5.5c0.9-16.92,24.34-26.9,27-28"/>
<path class="st0" d="M684.15,957.02c-4,29,1,61,1,61c-1.23,15.69-2.5,31.33-8,41c1.73,6.5,7.11,7.99,15,6
	c6.77-5.51,11.2-22.27,15-42c0,0,19.21-9.78,19.43-9.37c0.02,0.04-0.12,0.16-0.43,0.37"/>
<path class="st0" d="M731.15,1025.02c-7.12,15-13.28,30-18,45"/>
<g>
	<path class="st12" d="M580.54,606.67c-16.29,97.96-26.17,201.81-27,311c-0.08,10.05-0.08,20.05,0,30"/>
	<path class="st16" d="M581.52,606.83C575,663.42,568.91,720.19,564.83,777c-4.16,55.91-6.31,114.68-10.3,170.66c0,0-2,0.02-2,0.02
		c-0.6-7.13-1.06-14.28-1.48-21.42c-3.5-64.32,0.55-128.85,7.77-192.78c4.92-42.61,11.61-85.06,20.72-126.97
		C579.55,606.51,581.52,606.83,581.52,606.83L581.52,606.83z"/>
</g>
<path class="st17" d="M388.54,636.67c9,52.67,18,105.33,27,158"/>
<g>
	<g>
		<path class="st16" d="M312.6,605.48c5.55,20.94,9.6,42.27,12.01,63.8c0.68,6.1,1.24,12.21,1.67,18.33c0.14,1.91,3.14,1.93,3,0
			c-1.54-21.79-4.67-43.47-9.38-64.81c-1.34-6.07-2.81-12.11-4.41-18.12C315,602.82,312.11,603.61,312.6,605.48L312.6,605.48z"/>
	</g>
</g>
<g>
	<g>
		<path class="st16" d="M636.11,523.46c-9.53,0.06-18.34,6.4-21.56,15.33c-0.66,1.82,2.24,2.6,2.89,0.8
			c2.76-7.67,10.55-13.08,18.67-13.13C638.04,526.45,638.05,523.45,636.11,523.46L636.11,523.46z"/>
	</g>
</g>
<g>
	<g>
		<path class="st16" d="M320.7,538.78c6.22,0.84,11.6,4.91,14.08,10.67c0.32,0.74,1.41,0.91,2.05,0.54
			c0.77-0.45,0.86-1.31,0.54-2.05c-2.74-6.37-9-11.12-15.88-12.05c-0.8-0.11-1.61,0.19-1.85,1.05
			C319.46,537.63,319.89,538.67,320.7,538.78L320.7,538.78z"/>
	</g>
</g>
<g>
	<g>
		<path class="st16" d="M414.25,927.22c5.7,5.58,10.65,11.97,15.81,18.05c5.44,6.41,10.88,12.81,16.32,19.22
			c3.07,3.62,6.14,7.23,9.21,10.85c1.25,1.47,3.36-0.66,2.12-2.12c-10.83-12.75-21.66-25.5-32.49-38.25
			c-2.86-3.37-5.7-6.77-8.86-9.86C414.99,923.75,412.87,925.86,414.25,927.22L414.25,927.22z"/>
	</g>
</g>
<path class="st2" d="M108.07,21.95L108.07,21.95L108.07,21.95z"/>
<g>
	<path class="st18" d="M503.14,343.14c-2.37-4.12-2.13-8.19-1.93-11.53c0.09-1.51,0.66-11.17,6.75-16.91
		c11.57-10.91,45.46-9.98,57.88,5.38c5.58,6.9,7.7,17.8,0.96,26.14c-9.27,11.48-28.98,10.29-33.77,9.99
		C530.39,356.05,509.71,354.56,503.14,343.14z"/>
	<path class="st19" d="M570.6,347.89c0.37-2.46,2.7-19.66-10-31.15c-15.64-14.15-44.75-11.19-56,1.83c-2.9,3.36-4.3,7.02-5,10.08"/>
	<circle class="st20" cx="529.85" cy="330.64" r="12.25"/>
	<circle class="st18" cx="535.62" cy="327" r="4.76"/>
	<path class="st18" d="M440.67,341.72c2.37-4.12,2.13-8.19,1.93-11.53c-0.09-1.51-0.66-11.17-6.75-16.91
		c-11.57-10.91-45.46-9.98-57.88,5.38c-5.58,6.9-7.7,17.8-0.96,26.14c9.27,11.48,28.98,10.29,33.77,9.99
		C413.42,354.63,434.1,353.15,440.67,341.72z"/>
	<circle class="st20" cx="413.96" cy="329.22" r="12.25"/>
	<circle class="st18" cx="420.19" cy="325.59" r="4.76"/>
	<path class="st2" d="M380.09,347.95c3.03,1.51,28.63,13.79,50,1c5.27-3.15,9.16-7.16,12-11"/>
	<path class="st21" d="M429.6,291.89c-23.83-0.75-45.82,3.13-65,14"/>
	<path class="st21" d="M511.64,291.87c23.83-0.75,45.82,3.13,65,14"/>
	<path class="st19" d="M372.45,345.11c-0.37-2.46-2.7-19.66,10-31.15c15.64-14.15,44.75-11.19,56,1.83c2.9,3.36,4.3,7.02,5,10.08"/>
	<path class="st2" d="M563.84,349.87c-3.03,1.51-28.63,13.79-50,1c-5.27-3.15-9.16-7.16-12-11"/>
</g>
<path class="st22" d="M517.19,414.01l-82.91,1.55c-7.95,1.53,11.95,29.49,48,25.19c25-2.98,40.45-23.45,36.61-26.32
	C518.38,414.06,517.19,414.01,517.19,414.01z"/>
</svg>
