<?xml version="1.0" encoding="utf-8"?>
<!-- Generator: Adobe Illustrator 28.3.0, SVG Export Plug-In . SVG Version: 6.00 Build 0)  -->
<svg version="1.1" id="Layer_1" xmlns="http://www.w3.org/2000/svg" xmlns:xlink="http://www.w3.org/1999/xlink" x="0px" y="0px"
	 viewBox="0 0 676 1859" style="enable-background:new 0 0 676 1859;" xml:space="preserve">
<style type="text/css">
	.st0{fill:none;stroke:#000000;stroke-miterlimit:10;}
	.st1{fill:#C6C0D8;stroke:#000000;stroke-miterlimit:10;}
	.st2{fill:#FFE3CB;stroke:#000000;stroke-miterlimit:10;}
	.st3{fill:#2D2A38;}
	.st4{fill:#FFB995;}
	.st5{fill:#332C26;stroke:#000000;stroke-miterlimit:10;}
	.st6{fill:#332C26;}
	.st7{fill:none;stroke:#FFB995;stroke-miterlimit:10;}
	.st8{fill:#1E2722;stroke:#000000;stroke-miterlimit:10;}
	.st9{fill:#20382B;}
	.st10{fill:#FFB995;stroke:#FFB995;stroke-miterlimit:10;}
	.st11{fill:#FFB995;stroke:#000000;stroke-width:0.5;stroke-miterlimit:10;}
	.st12{fill:#EFF5F9;stroke:#25282D;stroke-width:2;stroke-miterlimit:10;}
	.st13{fill:#FFE3CB;}
	.st14{fill:#EFF5F9;stroke:#DB3A3A;stroke-width:7;stroke-miterlimit:10;}
	.st15{fill:#EFF5F9;stroke:#000000;stroke-miterlimit:10;}
	.st16{fill:#EFF5F9;}
	.st17{fill:#2D2A38;stroke:#000000;stroke-miterlimit:10;}
	.st18{fill:#141123;}
	.st19{fill:#141123;stroke:#141123;stroke-width:3;stroke-miterlimit:10;}
	.st20{fill:#C6C0D8;}
	.st21{fill:#C6C0D8;stroke:#C6C0D8;stroke-miterlimit:10;}
	.st22{fill:#45A3BF;}
	.st23{fill:#B3D9E8;stroke:#000000;stroke-miterlimit:10;}
	.st24{fill:#2D2A38;stroke:#000000;stroke-width:3;stroke-miterlimit:10;}
	.st25{fill:#EBFAFF;stroke:#DB3A3A;stroke-width:3;stroke-miterlimit:10;}
	.st26{fill:#DB3A3A;stroke:#DB3A3A;stroke-width:3;stroke-miterlimit:10;}
	.st27{fill:none;stroke:#DB3A3A;stroke-width:2;stroke-miterlimit:10;}
	.st28{fill:#EFF5F9;stroke:#000000;stroke-width:3;stroke-miterlimit:10;}
	.st29{fill:#EFF5F9;stroke:#DB3A3A;stroke-width:3;stroke-miterlimit:10;}
	.st30{fill:none;stroke:#DB3A3A;stroke-width:3;stroke-miterlimit:10;}
	.st31{fill:#FFFFFF;}
	.st32{fill:none;stroke:#000000;stroke-width:4;stroke-miterlimit:10;}
	.st33{stroke:#000000;stroke-miterlimit:10;}
	.st34{fill:none;stroke:#000000;stroke-width:3;stroke-miterlimit:10;}
	.st35{opacity:0.63;fill:#CEEAF4;stroke:#000000;stroke-miterlimit:10;}
	.st36{opacity:0.63;}
	.st37{fill:#FDFEFF;}
</style>
<path class="st0" d="M307.42,1269.91"/>
<path class="st1" d="M273.75,450.6c46-1.33,92-2.67,138-4c-1.34,36.83-31.59,66.41-68,67C307.99,514.18,277.15,486.63,273.75,450.6z
	"/>
<path class="st2" d="M404.75,404.6c2.63,23.55-6,13-8,90c-2.94,9.27-8.97,25.81-22,43c-10.02,13.22-18.65,24.6-30,25
	c-18.93,0.66-33.56-29.65-40-43c-13.52-28-6-64-11-106C314.79,387.36,362.43,380.7,404.75,404.6z"/>
<g>
	<path class="st3" d="M459.37,907.65c1.96-4.29,6.31-15.17,1.38-22.05c-3.4-4.74-9.72-5.52-11.98-5.8
		c-54.87-6.94-12.26-12.05-90.68-13.56c-40.48-0.78-83.06-0.96-118.58,18.47c-1.8,0.98-3.64,2.08-4.69,3.84
		c-0.89,1.49-1.1,3.28-1.28,5.02c-3.14,30.51-3.29,61.33-0.43,91.87c0.78,8.37,1.82,16.83,4.83,24.68
		c4.34,11.31,12.51,20.66,20.51,29.75c3.94,4.47,8.06,9.08,13.52,11.46c6.31,2.74,13.48,2.14,20.35,2.42
		c10.01,0.41,19.83,2.81,29.79,3.85c9.96,1.05,20.5,0.62,29.29-4.19c5.89-3.23,10.6-8.21,15.19-13.11
		c13.19-14.04,26.4-28.12,38.09-43.43c4.17-5.47,8.16-11.11,12.94-16.05c5.42-5.6,11.8-10.25,16.83-16.21
		c6.23-7.37,10.11-16.39,13.9-25.26c3.64-8.52,8.12-20.32,11.8-35.05"/>
	<g>
		<path d="M460.67,908.41c3.94-8.68,7.14-21.68-2.99-27.49c-3.89-2.23-8.32-2.52-12.66-3.11c-4.1-0.56-8.19-1.19-12.26-1.96
			c-4.58-0.87-9.17-1.91-13.54-3.56c-0.33-0.13-0.66-0.25-0.99-0.39c-0.14-0.06-0.28-0.11-0.43-0.17c-0.12-0.05-0.76-0.32-0.29-0.12
			c-0.58-0.25-1.16-0.5-1.75-0.76c-1.22-0.54-2.44-1.07-3.69-1.53c-3.54-1.3-7.27-1.92-11-2.4c-7.97-1.03-16.04-1.36-24.07-1.66
			c-13.33-0.5-26.68-0.77-40.02-0.77c-13.44,0-26.9,0.41-40.26,1.93c-13.19,1.51-26.3,4.08-38.84,8.51
			c-6.18,2.18-12.21,4.79-17.99,7.87c-2.68,1.43-5.54,2.96-6.81,5.88c-1.35,3.1-1.27,6.98-1.57,10.3
			c-2.76,30.22-2.8,60.94,0.57,91.11c0.8,7.14,1.98,14.32,4.65,21.03c2.48,6.22,6.04,11.89,10.1,17.19
			c4,5.24,8.35,10.24,12.79,15.11c4.45,4.88,9.49,9.18,16.09,10.68c6.7,1.52,13.68,0.79,20.48,1.38c7.41,0.64,14.71,2.15,22.08,3.14
			c13.3,1.78,27.41,1.47,38.53-6.98c5.36-4.08,9.84-9.2,14.43-14.1c5.08-5.42,10.14-10.85,15.09-16.38
			c4.85-5.41,9.6-10.9,14.16-16.55c4.53-5.6,8.69-11.48,13.22-17.07c4.41-5.43,9.54-9.99,14.69-14.68
			c5.01-4.56,9.41-9.51,12.89-15.36c3.45-5.8,6.1-12.04,8.72-18.25c2.13-5.03,4.1-10.13,5.88-15.29c2.19-6.34,4.09-12.78,5.72-19.29
			c0.47-1.87-2.42-2.67-2.89-0.8c-2.95,11.75-6.79,23.27-11.53,34.42c-2.56,6.01-5.14,12.06-8.49,17.69
			c-3.43,5.77-7.79,10.56-12.74,15.05c-5,4.53-9.95,8.96-14.22,14.21c-4.4,5.39-8.41,11.09-12.77,16.51
			c-9,11.2-18.73,21.79-28.55,32.28c-4.53,4.84-8.94,9.96-14.08,14.19c-5.06,4.16-10.95,6.68-17.39,7.72
			c-13.82,2.23-27.61-1.94-41.29-3.33c-6.72-0.68-13.64,0.07-20.28-1.23c-6.51-1.27-11.26-5.32-15.61-10.09
			c-8.69-9.54-17.93-19.75-22.51-32.02c-2.47-6.6-3.56-13.61-4.29-20.58c-0.77-7.32-1.31-14.66-1.7-22.01
			c-0.79-14.82-0.88-29.68-0.26-44.51c0.31-7.41,0.79-14.82,1.45-22.21c0.16-1.81,0.33-3.61,0.51-5.42c0.16-1.62,0.24-3.4,0.98-4.89
			c1.32-2.65,4.91-4,7.4-5.26c11.45-5.84,23.79-9.75,36.36-12.3c25.61-5.19,51.97-4.86,77.98-4.36c11.19,0.22,22.39,0.47,33.56,1.25
			c5.36,0.38,10.43,0.76,15.58,1.92c1.44,0.32,2.86,0.72,4.25,1.22c0.59,0.21,1.17,0.44,1.75,0.68c0.37,0.15-0.29-0.13,0.08,0.03
			c0.14,0.06,0.29,0.12,0.43,0.19c0.27,0.12,0.53,0.23,0.8,0.35c2.92,1.28,5.85,2.44,8.92,3.31c6.08,1.72,12.35,2.74,18.6,3.65
			c4.16,0.6,8.37,0.73,12.31,2.15c2.36,0.85,4.57,2.31,5.91,4.46c1.34,2.15,1.74,4.68,1.67,7.18c-0.13,4.42-1.62,8.78-3.43,12.77
			C457.28,908.64,459.87,910.16,460.67,908.41L460.67,908.41z"/>
	</g>
</g>
<g>
	<path class="st4" d="M296.25,413.1c11.99-6.42,36.45-17.3,68.33-16.11c16.83,0.63,30.72,4.43,40.67,8.11c-2,15-4,30-6,45
		c0,0-23.03,18.75-36.31,22.96c-17.24,5.47-32.91,4.91-46.59,4.21c-8.43-0.43-15.37-1.39-20.1-2.18"/>
</g>
<path class="st5" d="M493.75,295.6c5.54-8.08,19.24-30.37,20-60.38c1.13-44.78-26.96-90.63-65.69-110.21
	c-46.13-23.34-120.47-19.35-100.31-20.41c19-1,27.61-47.69,26-49c-1.54-1.25-23.69,27.21-41,42c-95-31-190.25,20.96-190,18
	c0.26-3.11,91.95-4.31,148.51,9.88c0.18,0.05,0.31,0.08,0.49,0.12c-11.66-5.32-27.47-9.8-45-7c-37.09,5.91-68.24,42.16-77,91
	c1.39,26.89,8.7,77.86,47,115C293.42,398.96,443.59,368.76,493.75,295.6z"/>
<path class="st2" d="M191.75,286.6c-10.38,4.58-10.06,25.47-10,28c1.09,43.16,55.54,68.45,59,70c12.05,5.4,24.6,11.04,30,6
	c10.43-9.73-12.72-52.96-40-81C221.35,299.94,203.38,281.47,191.75,286.6z"/>
<path class="st2" d="M495.17,287.04c10.38,4.58,10.06,25.47,10,28c-1.09,43.16-55.54,68.45-59,70c-12.05,5.4-24.6,11.04-30,6
	c-10.43-9.73,12.72-52.96,40-81C465.57,300.38,483.54,281.91,495.17,287.04z"/>
<path class="st2" d="M217.75,271.6c3,48,28,110,28,110s9,45,99,83c15.38-5.65,63.48-25.54,97-78c21-54,31.35-104.69,30-121
	c-9.02-56.66-54.24-130.14-123-132C276.52,131.65,225.38,210,217.75,271.6z"/>
<path class="st5" d="M323.75,202.6c-7,66-29,96-29,96s56-29,45-39c1.76,1.49-14,45-32,55c4.73,6.17,28.68-0.81,44-13
	c43.35-34.5,25.69-117.12,23-129"/>
<path class="st5" d="M354.75,188.6c14.01,28.85,62.09,68.06,100.58,100.55c6.89,5.82-1.42,24.24-12.58,42.45
	c3.27,3.09,12.2-1.57,14.1-2.56c14.74-7.68,24.59-25.25,24.9-47.44"/>
<path class="st0" d="M217.75,321.48"/>
<path class="st6" d="M482.75,275.6c16.73-14.19-7.66-108.46-76-144c-65.01-33.81-154.86-6.63-191,51c-20.8,33.16-27.38,81.62-11,92
	c28.84,18.27,125.02-83.91,136.5-72.5c4.98,4.95-11.12,26.16-4.5,32.5c7.01,6.71,25.92-16.2,49.5-12.5c23.3,3.66,24.19,29.06,59,46
	C454.75,272.72,474.7,282.43,482.75,275.6z"/>
<g>
	<g>
		<path d="M324.13,201.73c0.78-3.65,1.16-7.39,1.13-11.12c-0.01-1.07-1.29-1.96-2.26-1.3c-3.41,2.35-6.52,5.1-9.24,8.23
			c-0.53,0.61-0.6,1.52,0,2.12c0.54,0.54,1.59,0.61,2.12,0c2.55-2.93,5.44-5.55,8.63-7.76c-0.75-0.43-1.5-0.86-2.26-1.3
			c0.04,3.47-0.3,6.93-1.02,10.33c-0.17,0.79,0.23,1.62,1.05,1.85C323.03,202.99,323.96,202.53,324.13,201.73L324.13,201.73z"/>
	</g>
</g>
<g>
	<path d="M381.19,218.7c-0.74,0.01-0.84-7.33-3.11-21.84c-1.42-9.13-2.97-16.61-4.1-21.68c2.72,4.55,6.13,11.49,7.76,20.42
		C383.94,207.6,382.1,218.69,381.19,218.7z"/>
	<g>
		<path d="M381.19,217.2c0.38,0.04,1.05,0.54,1.12,0.59c0.02,0.01,0.09,0.37,0.07,0.15c-0.02-0.19-0.1-0.39-0.14-0.58
			c-0.16-0.76-0.17-1.05-0.26-1.76c-0.28-2.33-0.51-4.67-0.79-7.01c-0.92-7.81-2.12-15.58-3.59-23.3
			c-0.67-3.51-1.39-7.02-2.17-10.51c-0.91,0.39-1.83,0.77-2.74,1.16c4.15,6.98,6.96,14.7,8.04,22.76c0.58,4.34,0.71,8.76,0.39,13.12
			c-0.1,1.42-0.25,2.85-0.53,4.25c-0.1,0.47-0.21,0.94-0.35,1.4c-0.1,0.32-0.1,0.12-0.06,0.19c-0.02,0.05-0.05,0.1-0.08,0.14
			c0.16-0.27,0.39-0.44,0.7-0.54c-1.9,0.33-1.09,3.23,0.8,2.89c1.53-0.27,1.81-2.79,2.02-3.96c0.52-3.01,0.68-6.08,0.67-9.12
			c-0.03-7.98-1.44-15.95-4.42-23.36c-1.29-3.21-2.82-6.31-4.58-9.28c-0.89-1.49-3.11-0.49-2.74,1.16
			c1.69,7.58,3.12,15.21,4.29,22.89c0.93,6.14,1.48,12.32,2.32,18.47c0.19,1.35,0.34,3.1,2.04,3.27
			C383.11,220.39,383.1,217.39,381.19,217.2z"/>
	</g>
</g>
<g>
	<g>
		<path d="M487.35,276.54c0-3.52,0-7.03,0-10.55c0-0.81-0.69-1.5-1.5-1.5c-0.81,0-1.5,0.69-1.5,1.5c0,3.52,0,7.03,0,10.55
			c0,0.81,0.69,1.5,1.5,1.5C486.66,278.04,487.35,277.35,487.35,276.54L487.35,276.54z"/>
	</g>
</g>
<g>
	<g>
		<path d="M256.55,121.76c9.05-0.66,18.17-0.34,27.14,1.02c1.89,0.29,2.7-2.6,0.8-2.89c-9.25-1.4-18.6-1.81-27.94-1.13
			C254.64,118.89,254.62,121.9,256.55,121.76L256.55,121.76z"/>
	</g>
</g>
<g>
	<g>
		<path d="M365.31,162.89c-1.68-3.47-4.81-6.12-8.44-7.34c-0.74-0.25-1.67,0.29-1.85,1.05c-0.19,0.83,0.25,1.58,1.05,1.85
			c0.2,0.07,0.4,0.14,0.59,0.21c0.16,0.06,0.2,0.06,0.01,0c0.1,0.03,0.22,0.09,0.31,0.14c0.38,0.18,0.76,0.37,1.12,0.58
			c0.35,0.2,0.68,0.42,1.01,0.66c0.08,0.06,0.15,0.11,0.23,0.17c0.31,0.23-0.24-0.2,0.06,0.05c0.16,0.13,0.32,0.27,0.48,0.41
			c0.3,0.27,0.59,0.55,0.86,0.84c0.14,0.15,0.28,0.31,0.42,0.47c0.06,0.07,0.12,0.15,0.18,0.22c0.04,0.05,0.3,0.33,0.05,0.06
			c0.55,0.59,0.96,1.43,1.31,2.15c0.34,0.71,1.41,0.95,2.05,0.54C365.5,164.47,365.68,163.65,365.31,162.89L365.31,162.89z"/>
	</g>
</g>
<g>
	<g>
		<path d="M447.5,162.59c8.24,14.54,15.54,29.59,21.83,45.07c0.72,1.77,3.62,0.99,2.89-0.8c-6.38-15.72-13.76-31.02-22.13-45.79
			C449.13,159.4,446.54,160.91,447.5,162.59L447.5,162.59z"/>
	</g>
</g>
<g>
	<g>
		<path d="M200.92,223.26c0.55-4.03,2.17-7.72,3.86-11.38c1.77-3.84,3.6-7.66,5.48-11.45c3.72-7.51,7.64-14.92,11.75-22.23
			c0.95-1.68-1.64-3.2-2.59-1.51c-4.19,7.44-8.18,15-11.97,22.66c-1.87,3.79-3.7,7.61-5.47,11.46c-1.72,3.74-3.4,7.55-3.96,11.67
			c-0.11,0.81,0.2,1.6,1.05,1.85C199.77,224.51,200.81,224.07,200.92,223.26L200.92,223.26z"/>
	</g>
</g>
<path class="st7" d="M193.75,300.6c-1.18,3.76-3.06,11.56-1,21c1.38,6.34,4.03,11.08,6,14"/>
<path class="st7" d="M494.85,299.43c1.18,3.76,3.06,11.56,1,21c-1.38,6.34-4.03,11.08-6,14"/>
<path class="st8" d="M294.75,1517.6c0,0-9.49,47.39-6,99c3.31,49.02,22.2,90.39,25,120c1.24,25.38,1.14,49.01-4,66
	c-8.09,5.12-31.96,18.74-64.52,16.43c-25.88-1.84-44.29-12.81-52.48-18.43c-1.56-6.42-3.46-16.11-4-28c-0.9-19.88,2.55-34.07,8-57
	c2.99-12.58,7.85-33.18,15-64c1.77-44.7,0.48-87.89-5-129C234.25,1528.58,263.88,1525.65,294.75,1517.6z"/>
<path class="st0" d="M299.75,1745.6c-26.14-29.43-87-20-97,1"/>
<path class="st0" d="M189.75,1783.6c40.99,18.4,81.99,18.89,123,1"/>
<path class="st8" d="M397.75,1517.6c1.48,21.25,2.61,43.26,3.28,66.01c0.56,18.83,0.78,37.17,0.72,54.99
	c-7.7,32.51-15.4,65.01-23.09,97.52c0,0-1.14,49.01,4,66c8.09,5.12,31.96,18.74,64.52,16.43c25.88-1.84,44.29-12.81,52.48-18.43
	c1.56-6.42,3.46-16.11,4-28c0.9-19.88-2.55-34.07-8-57c-2.99-12.58-7.85-33.18-15-64c-0.53-21.14-0.64-43.11-0.22-65.85
	c0.49-26.29,1.65-51.55,3.31-75.67c-6.46,4.51-20.66,13.14-40.83,15.28C421.47,1527.15,404.94,1520.85,397.75,1517.6z"/>
<path class="st0" d="M392.65,1745.12c26.14-29.43,87-20,97,1"/>
<path class="st0" d="M502.65,1783.12c-40.99,18.4-81.99,18.89-123,1"/>
<g>
	<path class="st9" d="M285.79,1658.77c2.36,16.03,5.38,31.95,9.07,47.73"/>
	<g>
		<path class="st9" d="M281.45,1659.97c2.36,16.03,5.39,31.95,9.07,47.73c0.53,2.29,3.29,3.87,5.54,3.14
			c2.4-0.78,3.72-3.08,3.14-5.54c-3.68-15.78-6.7-31.7-9.07-47.73c-0.34-2.34-3.42-3.83-5.54-3.14
			C282.04,1655.26,281.08,1657.46,281.45,1659.97L281.45,1659.97z"/>
	</g>
</g>
<g>
	<path class="st9" d="M471.88,1663.41c5.41,16.13,10.82,32.27,16.23,48.4"/>
	<g>
		<path class="st9" d="M467.54,1664.61c5.41,16.13,10.82,32.27,16.23,48.4c0.75,2.23,3.13,3.92,5.54,3.14
			c2.22-0.72,3.94-3.15,3.14-5.54c-5.41-16.13-10.82-32.27-16.23-48.4c-0.75-2.23-3.13-3.92-5.54-3.14
			C468.47,1659.79,466.74,1662.22,467.54,1664.61L467.54,1664.61z"/>
	</g>
</g>
<g>
	<g>
		<path class="st9" d="M259.18,1742.41c0.86,0.29,1.72,0.59,2.57,0.91c0.43,0.16,0.85,0.32,1.27,0.49c0.21,0.08,1.63,0.65,0.5,0.19
			c1.58,0.64,3.12,1.39,4.63,2.17c3.13,1.61,6.14,3.46,9,5.52c1.92,1.38,5.09,0.4,6.16-1.61c1.23-2.33,0.43-4.68-1.61-6.16
			c-6.13-4.41-12.95-7.8-20.12-10.19c-2.24-0.74-5.02,0.86-5.54,3.14C255.47,1739.36,256.78,1741.61,259.18,1742.41L259.18,1742.41z
			"/>
	</g>
</g>
<g>
	<g>
		<path class="st9" d="M448.24,1745.55c1.13,0.01,2.25,0.06,3.37,0.16c0.28,0.02,0.56,0.06,0.84,0.08c0.38,0.04,0.53,0.06,0.06,0
			c0.56,0.07,1.11,0.17,1.67,0.27c2.28,0.41,4.54,1.01,6.72,1.79c0.53,0.19,1.05,0.41,1.58,0.6c0.68,0.24-0.56-0.26,0.09,0.03
			c0.26,0.11,0.51,0.23,0.77,0.34c1.02,0.47,2.03,0.98,3.01,1.53c0.98,0.55,1.94,1.14,2.88,1.76c0.47,0.31,0.93,0.63,1.38,0.97
			c0.06,0.04,0.73,0.54,0.39,0.28c-0.37-0.29,0.56,0.45,0.54,0.43c1.83,1.48,4.6,1.92,6.36,0c1.51-1.64,1.95-4.78,0-6.36
			c-8.43-6.84-18.78-10.75-29.67-10.88c-2.35-0.03-4.61,2.09-4.5,4.5C443.85,1743.51,445.72,1745.52,448.24,1745.55L448.24,1745.55z
			"/>
	</g>
</g>
<line class="st10" x1="350.75" y1="316.6" x2="337.75" y2="324.6"/>
<line class="st10" x1="351.75" y1="321.6" x2="330.75" y2="334.6"/>
<line class="st10" x1="356.75" y1="324.6" x2="329.75" y2="341.6"/>
<line class="st10" x1="358.75" y1="330.6" x2="330.75" y2="347.6"/>
<line class="st10" x1="361.75" y1="334.6" x2="332.75" y2="351.6"/>
<path class="st11" d="M344.75,361.1c-0.17,4-0.33,8-0.5,12c-1.83-1.67-3.67-3.33-5.5-5"/>
<g>
	<g>
		<path class="st4" d="M250.68,350.39c-0.61,0.82-1.22,1.63-1.83,2.45c-0.11,0.17-0.17,0.36-0.18,0.56c-0.04,0.2-0.04,0.4,0.03,0.6
			c0.1,0.35,0.36,0.73,0.69,0.9c0.35,0.18,0.77,0.28,1.16,0.15c0.12-0.05,0.24-0.1,0.36-0.15c0.23-0.13,0.4-0.31,0.54-0.54
			c0.61-0.82,1.22-1.63,1.83-2.45c0.11-0.17,0.17-0.36,0.18-0.56c0.04-0.2,0.04-0.4-0.03-0.6c-0.1-0.35-0.36-0.73-0.69-0.9
			c-0.35-0.18-0.77-0.28-1.16-0.15c-0.12,0.05-0.24,0.1-0.36,0.15C250.99,349.98,250.81,350.16,250.68,350.39L250.68,350.39z"/>
	</g>
</g>
<g>
	<g>
		<path class="st4" d="M254.63,353.12c-0.2,0.31-0.41,0.61-0.61,0.92c-0.11,0.17-0.17,0.36-0.18,0.56c-0.04,0.2-0.04,0.4,0.03,0.6
			c0.05,0.2,0.14,0.37,0.27,0.51c0.11,0.16,0.25,0.29,0.42,0.39c0.12,0.05,0.24,0.1,0.36,0.15c0.27,0.07,0.53,0.07,0.8,0
			c0.12-0.05,0.24-0.1,0.36-0.15c0.23-0.13,0.4-0.31,0.54-0.54c0.2-0.31,0.41-0.61,0.61-0.92c0.11-0.17,0.17-0.36,0.18-0.56
			c0.04-0.2,0.04-0.4-0.03-0.6c-0.05-0.2-0.14-0.37-0.27-0.51c-0.11-0.16-0.25-0.29-0.42-0.39c-0.12-0.05-0.24-0.1-0.36-0.15
			c-0.27-0.07-0.53-0.07-0.8,0c-0.12,0.05-0.24,0.1-0.36,0.15C254.94,352.72,254.76,352.9,254.63,353.12L254.63,353.12z"/>
	</g>
</g>
<g>
	<g>
		<path class="st4" d="M424.12,352.97c0,0.51,0,1.02,0,1.53c-0.01,0.21,0.04,0.4,0.13,0.58c0.06,0.19,0.16,0.35,0.31,0.48
			c0.14,0.15,0.3,0.25,0.48,0.31c0.18,0.09,0.37,0.14,0.58,0.13c0.13-0.02,0.27-0.04,0.4-0.05c0.25-0.07,0.47-0.2,0.66-0.39
			c0.27-0.29,0.44-0.65,0.44-1.06c0-0.51,0-1.02,0-1.53c0.01-0.21-0.04-0.4-0.13-0.58c-0.06-0.19-0.16-0.35-0.31-0.48
			c-0.14-0.15-0.3-0.25-0.48-0.31c-0.18-0.09-0.37-0.14-0.58-0.13c-0.13,0.02-0.27,0.04-0.4,0.05c-0.25,0.07-0.47,0.2-0.66,0.39
			C424.29,352.2,424.12,352.56,424.12,352.97L424.12,352.97z"/>
	</g>
</g>
<g>
	<g>
		<path class="st4" d="M428.67,351.78c0.01,0.01,0.02,0.03,0.04,0.04c-0.08-0.1-0.16-0.2-0.23-0.3c0.24,0.32,0.44,0.66,0.6,1.03
			c-0.05-0.12-0.1-0.24-0.15-0.36c0.17,0.4,0.28,0.82,0.34,1.26c-0.02-0.13-0.04-0.27-0.05-0.4c0.05,0.38,0.05,0.76,0.01,1.13
			c-0.04,0.36,0.2,0.82,0.44,1.06c0.26,0.26,0.69,0.46,1.06,0.44c0.39-0.02,0.79-0.14,1.06-0.44c0.08-0.1,0.16-0.2,0.23-0.3
			c0.14-0.23,0.2-0.49,0.2-0.76c0.08-0.75,0-1.53-0.21-2.25c-0.12-0.4-0.28-0.8-0.47-1.18c-0.2-0.4-0.47-0.74-0.74-1.09
			c-0.22-0.28-0.72-0.44-1.06-0.44c-0.37,0-0.81,0.16-1.06,0.44c-0.26,0.29-0.46,0.66-0.44,1.06c0.02,0.13,0.04,0.27,0.05,0.4
			C428.35,351.37,428.48,351.59,428.67,351.78L428.67,351.78z"/>
	</g>
</g>
<path class="st5" d="M329.75,205.6c-12.82,8.94-94,84-101,114c-2,5,9.6,31.37,11,31c0.08-0.02,0.11-0.11,0.12-0.15
	c0.66-2.62-54.89-18.44-44.12-91.85"/>
<path class="st2" d="M532.06,642.33c21.67,94.67,43.33,189.33,65,284c-11.33,21.67-22.67,43.33-34,65c-31-106.67-62-213.33-93-320
	C490.73,661.66,511.39,652,532.06,642.33z"/>
<path class="st10" d="M559.7,735.7c-19.67,11.33-39.33,22.67-59,34c-22.77-89.04,7.69-131.99,27-132
	C537.06,637.7,547.72,669.99,559.7,735.7z"/>
<path class="st12" d="M388.35,497.85c41.71,5.58,83.43,11.15,125.14,16.73c6.93,25.09,13.88,50.17,20.86,75.24
	c8.46,30.41,11.49,45.74,19.21,68.75c8.05,24.02,16.22,43.04,21.79,55.25c-3.37,5.3-15.49,22.87-39.48,31.15
	c-24.16,8.34-44.68,1.84-50.57-0.26c-10.71-49.38-21.41-98.76-32.12-148.13"/>
<path class="st13" d="M558.77,962.19c4.91-18.4,21.58-36.03,32.79-33.37c14.34,3.4,16.47,39.18,17.71,59.87
	c0.99,16.53,4.81,88.27-28.5,104.5c-1.9,0.93-10.53,5.13-16.5,1.5c-13.3-8.09,8.26-41.9-0.5-91.5
	C560.36,983.89,554.91,976.65,558.77,962.19z"/>
<path class="st2" d="M560.77,1090.19c0,0-27,14-33,14c-1.71-1.44-2.01-4.02-1.86-6.32c0,0-0.03-2.36,0.86-4.68c1.55-4,13-9,13-9
	c7.72-3.34,10.71-3.63,13-7c1.45-2.13,2-6,2-6"/>
<path class="st2" d="M594.06,926.33c9.28,14.14,19.96,33.71,27.63,58.48c4.55,14.68,7.13,28.21,8.57,39.89c0,0-20.29,46.84-28,71
	l-71,19c-0.47-2-0.59-3.84-0.5-5.5c0.9-16.92,24.34-26.9,27-28"/>
<path class="st2" d="M554.77,962.19c-4,29,1,61,1,61c-1.23,15.69-2.5,31.33-8,41c1.73,6.5,7.11,7.99,15,6
	c6.77-5.51,11.2-22.27,15-42c0,0,19.21-9.78,19.43-9.37c0.02,0.04-0.12,0.16-0.43,0.37"/>
<path class="st2" d="M601.77,1030.19c-7.12,15-13.28,30-18,45"/>
<path class="st14" d="M568.85,698.31c-19.31,21.17-51.69,29.72-87,30"/>
<path class="st2" d="M164.5,642.36c-21.67,94.67-43.33,189.33-65,284c11.33,21.67,22.67,43.33,34,65c31-106.67,62-213.33,93-320
	C205.83,661.69,185.17,652.03,164.5,642.36z"/>
<path class="st10" d="M136.86,735.73c19.67,11.33,39.33,22.67,59,34c22.77-89.04-7.69-131.99-27-132
	C159.5,637.73,148.84,670.03,136.86,735.73z"/>
<path class="st12" d="M308.21,497.88c-41.71,5.58-83.43,11.15-125.14,16.73c-6.93,25.09-13.88,50.17-20.86,75.24
	c-8.46,30.41-11.49,45.74-19.21,68.75c-8.05,24.02-16.22,43.04-21.79,55.25c3.37,5.3,15.49,22.87,39.48,31.15
	c24.16,8.34,44.68,1.84,50.57-0.26c10.71-49.38,21.41-98.76,32.12-148.13"/>
<path class="st13" d="M137.79,962.23c-4.91-18.4-21.58-36.03-32.79-33.37c-14.34,3.4-16.47,39.18-17.71,59.87
	c-0.99,16.53-4.81,88.27,28.5,104.5c1.9,0.93,10.53,5.13,16.5,1.5c13.3-8.09-8.26-41.9,0.5-91.5
	C136.2,983.92,141.65,976.69,137.79,962.23z"/>
<path class="st2" d="M135.79,1090.23c0,0,27,14,33,14c1.71-1.44,2.01-4.02,1.86-6.32c0,0,0.03-2.36-0.86-4.68c-1.55-4-13-9-13-9
	c-7.72-3.34-10.71-3.63-13-7c-1.45-2.13-2-6-2-6"/>
<path class="st2" d="M102.5,926.36c-9.28,14.14-19.96,33.71-27.63,58.48c-4.55,14.68-7.13,28.21-8.57,39.89c0,0,20.29,46.84,28,71
	l71,19c0.47-2,0.59-3.84,0.5-5.5c-0.9-16.92-24.34-26.9-27-28"/>
<path class="st2" d="M141.79,962.23c4,29-1,61-1,61c1.23,15.69,2.5,31.33,8,41c-1.73,6.5-7.11,7.99-15,6
	c-6.77-5.51-11.2-22.27-15-42c0,0-19.21-9.78-19.43-9.37c-0.02,0.04,0.12,0.16,0.43,0.37"/>
<path class="st2" d="M94.79,1030.23c7.12,15,13.28,30,18,45"/>
<path class="st14" d="M127.71,698.34c19.31,21.17,51.69,29.72,87,30"/>
<path class="st15" d="M371.75,533.6c-17.99,5.99-37.41,6.65-58,3c0.1-3.75,8,29,30,38C374.75,557.6,372.91,527.52,371.75,533.6z"/>
<g>
	<path class="st16" d="M219.75,550.6c15.48,41.26,6,236-3,301c-0.73,3.51,2,23,2,23s10.1,14.81,13,17c31.79,4.86,68.4,8.47,109,9
		c46.33,0.61,87.75-2.93,123-8c4.16-4.47,6.61-8.99,8-12c3.14,0.2-7.68-33.01-11-60c-1.38-11.19,7.49-18.13,8-22
		c1.47-11.2-0.31-36.69-0.58-86.55c-0.1-17.52-3.81-41.89-3.61-77.96c0.12-21.67,1.45-53.06,8.2-91.49"/>
	<path d="M219.86,550.56c3.35,9.59,4.44,19.9,5.57,29.94c5.57,70.94,1.7,142.32-2.88,213.22c-1.41,18.57-2.98,37.17-5.38,55.64
		c-0.13,1.29-0.56,3.67-0.4,5.03c0.29,6.76,1.22,13.49,2.1,20.2c4.02,5.5,7.94,11.99,12.93,16.95c18.98,2.87,38.49,5.15,57.77,6.64
		c58.03,4.49,116.5,1.91,174.15-5.74c2.81-3.21,6.08-7.63,7.95-11.96c0.42,0.08,0.48-0.53,0.51-0.96c-0.03-3.11-0.85-6.15-1.45-9.19
		c-2.32-10.43-4.94-20.8-7.03-31.28c-1.26-6.54-2.58-13.15-3.17-19.79c-0.27-4.04,0.97-8.06,2.91-11.56
		c1.52-3.18,4.32-5.78,5.2-9.23c0.42-3.53,0.51-7.1,0.55-10.65c0.12-7.27-0.39-24.57-0.51-32.05c-0.74-21.36,0.04-42.77-1.69-64.08
		c-4.46-49.69-3.19-99.94,5.64-149.1c0,0,0.23,0.04,0.23,0.04c-8.82,49.14-10.1,99.37-5.63,149.04c1.73,21.31,0.95,42.73,1.69,64.09
		c0.15,7.6,0.6,24.72,0.51,32.06c-0.04,3.56-0.13,7.13-0.55,10.68c-0.87,3.5-3.7,6.1-5.23,9.31c-1.92,3.48-3.14,7.44-2.88,11.44
		c0.59,6.63,1.91,13.23,3.17,19.76c2.09,10.48,4.7,20.85,7.02,31.28c0.61,3.06,1.43,6.12,1.46,9.25c-0.02,0.46-0.08,1.14-0.68,1.19
		c-1.58,3.87-4.72,8.74-7.97,12.05c-57.58,8.93-116.18,10.17-174.22,5.59c-19.36-1.53-38.67-3.75-57.86-6.69
		c-5.07-5.07-8.91-11.24-13.07-17.05c-0.88-6.72-1.81-13.44-2.1-20.22c-0.09-1.41,0.19-3.65,0.4-5.08
		c2.41-18.47,3.97-37.06,5.38-55.62c4.58-70.89,8.46-142.25,2.89-213.18c-1.11-10-2.23-20.34-5.55-29.88
		C219.64,550.64,219.86,550.56,219.86,550.56L219.86,550.56z"/>
</g>
<path class="st16" d="M300.75,533.6c-3.57-10.65-16.34-15.55-26-14c-16.11,2.59-27.13,23.73-21,35c6,11.04,28.53,12.72,40,2
	C298.98,551.71,303.74,542.53,300.75,533.6z"/>
<path class="st16" d="M446.21,522.99c-3.39-11.02-17.16-16.07-26.97-15.89c-22.05,0.42-41.46,27.71-36,40
	c5.67,12.76,40.77,15.35,55.97-1.11C440.08,545.05,449.7,534.32,446.21,522.99z"/>
<path class="st15" d="M412.25,447.1c-22.53,26.22-44.45,49.49-64,61c6.83,16.83,13.67,33.67,20.5,50.5
	c9.75-9.75,22.82-21.1,39.59-31.8c14.35-9.16,27.91-15.61,39.41-20.2c-8.33-12.33-16.67-24.67-25-37
	C419.25,462.1,415.75,454.6,412.25,447.1z"/>
<path class="st15" d="M273.52,451.3c22.53,26.22,44.45,49.49,64,61c-6.83,16.83-13.67,33.67-20.5,50.5
	c-13.11-10.35-26.31-20.95-39.59-31.8c-10.39-8.49-20.62-16.95-30.69-25.4c5.19-7.31,10.8-16.31,16-27
	C267.57,468.68,271.02,459.4,273.52,451.3z"/>
<path class="st17" d="M463.75,892.6c4.6,14.24,9.07,29.14,13.31,44.68c5.8,21.27,10.65,41.76,14.69,61.32c0,0-8,311-8,311
	c3,7.33,6,14.67,9,22c-3.13,12.85-4.95,17.99-6,19c-0.04,0.04-0.19,0.17-0.3,0.4c-0.7,1.48,1.53,4.08,4.3,6.6c-1.33,4-2.67,8-4,12
	c-8.02,17.28-5.97,45.13-2,75c6.35,19.76,10.82,45.32,2,61c-13.49,23.96-64.36,23.78-88,13c-3.01-2.3-18-30-18-30s11.96-34.03,14-36
	c0,0-2-56-9-72c-1.86-1.94-8.12-7.83-7-14c0.64-3.51,3.99-8.99,4-9c-9.23-7.08-9.16-16.03-9-25c3-11,6-22,9-33
	c-20-118-37-243-37-243c-17.67-0.67-35.33-1.33-53-2"/>
<path class="st17" d="M231.75,891.6c-9,35.33-18,70.67-27,106c-0.47,103.5,5.73,207.29,10,311c-2,8.67-4,17.33-6,26
	c3.67,7.67,7.33,15.33,11,23l-7.99,43.65l-3.01,37.35l-16,23l7,26l-7,17c0,0,6.23,12.56,9,15c19.44,17.09,88.67-1.09,92.51-2.13
	c4.16-10.29,8.32-20.58,12.49-30.87c-2.83-11.71-5.66-23.42-8.49-35.13c-0.72-13.01,0.6-23.24,1.88-30
	c4.62-24.51,3.78-43.09,10.16-64.95c3.19-10.94,6.64-19.6,8.97-25.05c-3-11-9-33-9-33c8.82-40.4,16.84-83.9,23.37-130.26
	c5.49-38.99,9.42-76.28,12.12-111.61c21.34-0.84,32.01-1.51,32-2c-0.01-0.74-24.68-1.08-74-1"/>
<path class="st0" d="M221.75,930.6c82.63,4.63,166.31,5.23,252-2"/>
<g>
	<path d="M317.75,899.6c-0.33,12-0.67,24-1,36c21-0.33,42-0.67,63-1c-0.33-11.67-0.67-23.33-1-35
		C358.41,899.6,338.08,899.6,317.75,899.6z"/>
	<g>
		<path d="M316.25,899.6c-0.33,12-0.67,24-1,36c-0.02,0.8,0.71,1.51,1.5,1.5c21-0.33,42-0.67,63-1c0.79-0.01,1.52-0.68,1.5-1.5
			c-0.33-11.67-0.67-23.33-1-35c-0.02-0.81-0.67-1.5-1.5-1.5c-20.33,0-40.67,0-61,0c-1.93,0-1.93,3,0,3c20.33,0,40.67,0,61,0
			c-0.5-0.5-1-1-1.5-1.5c0.33,11.67,0.67,23.33,1,35c0.5-0.5,1-1,1.5-1.5c-21,0.33-42,0.67-63,1c0.5,0.5,1,1,1.5,1.5
			c0.33-12,0.67-24,1-36C319.3,897.67,316.3,897.67,316.25,899.6z"/>
	</g>
</g>
<g>
	<g>
		<path d="M272.31,896.11c-0.69,12.83-1.38,25.66-2.07,38.49c-0.1,1.93,2.9,1.92,3,0c0.69-12.83,1.38-25.66,2.07-38.49
			C275.42,894.18,272.42,894.19,272.31,896.11L272.31,896.11z"/>
	</g>
</g>
<g>
	<g>
		<path d="M259.95,896.34c-0.17,12.23-0.33,24.46-0.5,36.69c-0.03,1.93,2.97,1.93,3,0c0.17-12.23,0.33-24.46,0.5-36.69
			C262.97,894.4,259.97,894.4,259.95,896.34L259.95,896.34z"/>
	</g>
</g>
<g>
	<g>
		<path d="M259.99,933.89c4.46,2,9.27,2.66,14.11,1.92c0.8-0.12,1.24-1.13,1.05-1.85c-0.24-0.86-1.04-1.17-1.85-1.05
			c-2.06,0.31-4.37,0.32-6.49-0.04c-1.02-0.17-2.03-0.41-3.02-0.72c-0.83-0.26-1.69-0.59-2.29-0.86c-0.74-0.33-1.61-0.21-2.05,0.54
			C259.08,932.48,259.25,933.56,259.99,933.89L259.99,933.89z"/>
	</g>
</g>
<g>
	<g>
		<path d="M277.04,895.48c-0.6-0.62-1.35-1.33-2.1-1.77c-0.57-0.33-1.29-0.26-1.93-0.27c-0.75-0.02-1.5-0.05-2.25-0.07
			c-3-0.09-6.01-0.18-9.01-0.27c-1.93-0.06-1.93,2.94,0,3c4.13,0.12,8.26,0.25,12.39,0.37c-0.25-0.07-0.5-0.14-0.76-0.2
			c0.05,0.04,0.14,0.08,0.18,0.14c-0.2-0.26,0.2,0.16,0.28,0.22c0.38,0.31,0.75,0.63,1.09,0.98
			C276.26,898.99,278.38,896.87,277.04,895.48L277.04,895.48z"/>
	</g>
</g>
<path class="st0" d="M260.75,932.6"/>
<g>
	<g>
		<path d="M404.25,899.6c0.67,11.67,1.33,23.33,2,35c0.11,1.92,3.11,1.93,3,0c-0.67-11.67-1.33-23.33-2-35
			C407.14,897.68,404.14,897.67,404.25,899.6L404.25,899.6z"/>
	</g>
</g>
<g>
	<g>
		<path d="M417.25,898.6c0.41,11.71,0.81,23.41,1.22,35.12c0.07,1.93,3.07,1.93,3,0c-0.41-11.71-0.81-23.41-1.22-35.12
			C420.18,896.67,417.18,896.66,417.25,898.6L417.25,898.6z"/>
	</g>
</g>
<g>
	<g>
		<path d="M419.75,932.1c-4.67,0.33-9.33,0.67-14,1c-0.81,0.06-1.5,0.65-1.5,1.5c0,0.77,0.69,1.56,1.5,1.5c4.67-0.33,9.33-0.67,14-1
			c0.81-0.06,1.5-0.65,1.5-1.5C421.25,932.83,420.56,932.04,419.75,932.1L419.75,932.1z"/>
	</g>
</g>
<g>
	<path class="st9" d="M363.2,939.22c-2.48,35.13-4.97,70.25-7.45,105.38"/>
	<g>
		<path class="st18" d="M361.7,939.22c-1.93,27.34-3.87,54.68-5.8,82.02c-0.55,7.79-1.1,15.58-1.65,23.36c-0.14,1.93,2.86,1.92,3,0
			c1.93-27.34,3.87-54.68,5.8-82.02c0.55-7.79,1.1-15.58,1.65-23.36C364.84,937.29,361.84,937.3,361.7,939.22L361.7,939.22z"/>
	</g>
</g>
<g>
	<path class="st9" d="M332.21,942.08c-3.49,35.51-6.98,71.01-10.47,106.52"/>
	<g>
		<path class="st18" d="M330.71,942.08c-2.73,27.75-5.45,55.49-8.18,83.24c-0.76,7.76-1.53,15.52-2.29,23.29
			c-0.19,1.92,2.81,1.91,3,0c2.73-27.75,5.45-55.49,8.18-83.24c0.76-7.76,1.53-15.52,2.29-23.29
			C333.9,940.16,330.9,940.17,330.71,942.08L330.71,942.08z"/>
	</g>
</g>
<g>
	<path class="st18" d="M256.02,948.86c-0.95,11.6-1.9,23.2-2.86,34.79c-0.13,1.56-0.27,3.16-0.92,4.59
		c-1.24,2.72-3.46,4.14-4.01,4.51c-3.49,2.39-16.83,15.24-37.5,35.85"/>
	<g>
		<path class="st18" d="M254.52,948.86c-0.73,8.95-1.47,17.89-2.2,26.84c-0.18,2.24-0.37,4.47-0.55,6.71
			c-0.16,1.96-0.19,4.02-1.18,5.78c-0.9,1.61-2.25,2.6-3.68,3.68c-2.43,1.84-4.66,3.96-6.89,6.04c-3.92,3.65-7.76,7.37-11.59,11.11
			c-6.29,6.13-12.52,12.32-18.74,18.52c-1.37,1.36,0.75,3.49,2.12,2.12c9.75-9.72,19.5-19.48,29.55-28.89
			c2.33-2.18,4.66-4.42,7.18-6.39c-0.32,0.25,0.13-0.1,0.25-0.18c0.2-0.14,0.4-0.27,0.6-0.41c1.08-0.77,2.05-1.64,2.87-2.69
			c2.55-3.28,2.42-7.46,2.75-11.41c0.84-10.27,1.69-20.54,2.53-30.82C257.68,946.94,254.68,946.95,254.52,948.86L254.52,948.86z"/>
	</g>
</g>
<g>
	<path class="st18" d="M433.38,939.91c-0.05,8.17-0.09,16.34-0.14,24.51c-0.01,1.35,0.03,2.82,0.88,3.86
		c0.69,0.84,1.77,1.22,2.79,1.57c12.15,4.1,24.29,8.21,36.44,12.31"/>
	<g>
		<path class="st18" d="M431.88,939.91c-0.03,4.82-0.05,9.64-0.08,14.46c-0.01,2.45-0.03,4.9-0.04,7.35
			c-0.01,1.94-0.28,4.15,0.39,6.02c0.68,1.88,2.24,2.79,4.03,3.43c2.31,0.83,4.65,1.57,6.97,2.36c4.65,1.57,9.31,3.14,13.96,4.72
			c5.28,1.79,10.57,3.57,15.85,5.36c1.83,0.62,2.62-2.28,0.8-2.89c-8.76-2.96-17.51-5.92-26.26-8.87c-2.13-0.72-4.26-1.44-6.39-2.16
			c-1.1-0.37-2.21-0.75-3.31-1.12c-0.77-0.26-1.76-0.48-2.36-1.08c-1.21-1.2-0.68-3.99-0.67-5.52c0.01-2.21,0.03-4.41,0.04-6.62
			c0.03-5.15,0.06-10.3,0.09-15.44C434.89,937.98,431.89,937.98,431.88,939.91L431.88,939.91z"/>
	</g>
</g>
<path class="st19" d="M222.75,1066.6c-2.46,55.32,2.87,127.32,16,216"/>
<path class="st19" d="M241.75,1351.6c-6.28,42.67-9.62,85.33-10,128"/>
<g>
	<path class="st18" d="M466.75,1073.6c-0.67,92.67-1.33,185.33-2,278"/>
	<path class="st18" d="M467.25,1073.6c3.31,46.18,3.56,92.77,3.09,139.03c-0.64,46.19-1.79,92.88-5.09,138.97c0,0-1-0.01-1-0.01
		c-3.65-69.38-3.87-139.1-1.95-208.52c0.38-10.1,0.94-24.75,1.51-34.74c0.65-11.58,1.35-23.16,2.44-34.73L467.25,1073.6
		L467.25,1073.6z"/>
</g>
<path class="st19" d="M470.75,1391.6c-3.38,36.31-6.95,69.93-11,97c-11.19,15.69-26.03,22.69-42,27"/>
<g>
	<path class="st20" d="M409.61,486.43c-3.28,2.71-6.9,5.02-10.75,6.85c-1.51,0.71-3.09,1.39-4.21,2.63
		c-0.82,0.92-1.32,2.07-1.8,3.21c-4.01,9.41-8.01,18.82-12.02,28.24"/>
	<g>
		<path class="st20" d="M408.55,485.37c-3.3,2.71-6.93,4.94-10.79,6.78c-1.63,0.78-3.26,1.59-4.43,3.02
			c-1.29,1.58-1.95,3.62-2.74,5.47c-3.68,8.65-7.37,17.31-11.05,25.96c-0.32,0.75-0.22,1.6,0.54,2.05c0.63,0.38,1.74,0.21,2.05-0.54
			c3.62-8.5,7.24-17,10.86-25.5c0.78-1.83,1.4-4.11,2.73-5.64c1.2-1.37,3.11-1.99,4.7-2.78c3.67-1.82,7.09-4.1,10.26-6.7
			C412.17,486.26,410.03,484.15,408.55,485.37L408.55,485.37z"/>
	</g>
</g>
<g>
	<path class="st20" d="M268.2,484.63c2.65,0.11,5.41,0.25,7.73,1.54s4.02,4.11,3.15,6.61"/>
	<g>
		<path class="st20" d="M268.2,486.13c2.51,0.1,5.16,0.17,7.31,1.53c0.37,0.24,0.69,0.5,1.09,0.93c0.23,0.25,0.27,0.3,0.41,0.5
			c0.16,0.24,0.3,0.49,0.44,0.74c0.02,0.05,0.05,0.09,0.07,0.14c-0.04-0.1-0.04-0.1,0,0c0.05,0.12,0.09,0.24,0.13,0.36
			c0.05,0.15,0.08,0.29,0.12,0.44c0,0.02,0.06,0.47,0.04,0.2c0.02,0.25,0.02,0.5,0,0.75c-0.02,0.39,0.08-0.18-0.04,0.2
			c-0.05,0.15-0.08,0.3-0.13,0.44c-0.25,0.77,0.29,1.64,1.05,1.85c0.81,0.22,1.59-0.28,1.85-1.05c0.98-3-0.71-6.08-3.11-7.84
			c-2.61-1.91-6.1-2.08-9.21-2.21c-0.81-0.03-1.5,0.71-1.5,1.5C266.7,485.47,267.39,486.09,268.2,486.13L268.2,486.13z"/>
	</g>
</g>
<g>
	<path d="M462.19,812.84c-1.65,11.3-7.11,21.24-13.52,30.45c-2.22,3-4.56,5.93-7.48,8.55l-0.88-0.47c2.36-13.31,10.8-30.01,21-39
		C461.31,812.36,462.19,812.84,462.19,812.84L462.19,812.84z"/>
</g>
<g>
	<path class="st20" d="M267.75,596.6c16.06,82.14,33.1,158.71,53,219"/>
	<path class="st20" d="M267.86,596.58c14.04,69,28.48,138.06,48.81,205.53c1.35,4.5,2.79,8.97,4.18,13.45l-0.22,0.07
		c-11.99-35.63-21.5-72.05-30.01-108.65C282.45,670.48,274.03,633.03,267.86,596.58L267.86,596.58z"/>
</g>
<g>
	<path class="st20" d="M245.75,824.6c24.28,33.45,56.92,50.17,92,62"/>
	<path class="st20" d="M245.84,824.53c21.57,29.21,51.72,47.18,85.32,59.54c0,0,6.62,2.41,6.62,2.41l-0.08,0.23l-6.7-2.23
		c-24.43-8.38-48.1-20.51-66.89-38.47c-6.85-6.48-13.02-13.67-18.47-21.34L245.84,824.53L245.84,824.53z"/>
</g>
<line class="st21" x1="435.75" y1="592.6" x2="394.75" y2="696.6"/>
<path class="st0" d="M47.25,32.1L47.25,32.1L47.25,32.1z"/>
<path class="st0" d="M401.75,482.6"/>
<path class="st0" d="M401.75,473.6"/>
<path class="st0" d="M405.75,472.6"/>
<g>
	<path class="st20" d="M359.8,612.93c3.88,2.15,7.99,3.89,12.23,5.19"/>
	<g>
		<path class="st20" d="M359.04,614.22c4,2.2,8.23,3.99,12.59,5.34c1.85,0.57,2.64-2.32,0.8-2.89c-4.12-1.28-8.09-2.96-11.87-5.04
			C358.86,610.7,357.35,613.29,359.04,614.22L359.04,614.22z"/>
	</g>
</g>
<g>
	<path class="st20" d="M363.87,667.53c1.43,0.5,2.86,1,4.29,1.5"/>
	<g>
		<path class="st20" d="M363.47,668.98c1.43,0.5,2.86,1,4.29,1.5c0.35,0.12,0.84,0.03,1.16-0.15c0.31-0.18,0.61-0.54,0.69-0.9
			c0.19-0.84-0.25-1.57-1.05-1.85c-1.43-0.5-2.86-1-4.29-1.5c-0.35-0.12-0.84-0.03-1.16,0.15c-0.31,0.18-0.61,0.54-0.69,0.9
			C362.23,667.97,362.68,668.7,363.47,668.98L363.47,668.98z"/>
	</g>
</g>
<g>
	<path class="st20" d="M363.58,720.64c2.57,0.64,5.09,1.45,7.56,2.41"/>
	<g>
		<path class="st20" d="M363.19,722.09c2.57,0.65,5.09,1.45,7.56,2.41c0.73,0.28,1.68-0.31,1.85-1.05c0.2-0.86-0.26-1.54-1.05-1.85
			c-2.47-0.96-4.99-1.76-7.56-2.41c-0.76-0.19-1.66,0.25-1.85,1.05C361.96,721.02,362.37,721.88,363.19,722.09L363.19,722.09z"/>
	</g>
</g>
<g>
	<path class="st22" d="M366.05,773.64c2.19,1.18,4.53,2.08,6.95,2.65"/>
	<g>
		<path class="st20" d="M365.3,774.93c2.3,1.24,4.77,2.19,7.31,2.8c0.76,0.18,1.66-0.24,1.85-1.05c0.18-0.77-0.23-1.65-1.05-1.85
			c-1.19-0.28-2.36-0.64-3.5-1.07c-0.28-0.1-0.55-0.21-0.82-0.33c0.33,0.14-0.17-0.07-0.22-0.1c-0.12-0.05-0.23-0.1-0.35-0.16
			c-0.58-0.26-1.14-0.55-1.7-0.85c-0.69-0.37-1.66-0.2-2.05,0.54C364.39,773.58,364.56,774.54,365.3,774.93L365.3,774.93z"/>
	</g>
</g>
<g>
	<path class="st20" d="M364.71,823.28c2.11,1.46,4.4,2.64,6.82,3.51"/>
	<g>
		<path class="st20" d="M363.95,824.58c2.22,1.53,4.64,2.74,7.17,3.66c0.74,0.27,1.67-0.3,1.85-1.05c0.19-0.84-0.26-1.56-1.05-1.85
			c-0.31-0.11-0.61-0.22-0.91-0.34c-0.15-0.06-0.3-0.12-0.45-0.18c0.34,0.16-0.14-0.06-0.2-0.09c-0.56-0.25-1.11-0.51-1.65-0.79
			c-1.12-0.58-2.2-1.23-3.24-1.95c-0.65-0.45-1.69-0.14-2.05,0.54C363.01,823.29,363.26,824.1,363.95,824.58L363.95,824.58z"/>
	</g>
</g>
<path class="st17" d="M514.25,518.23c-20.57-19.59-46.59-23.03-76.9-13.73c-1.2,2.94-2.4,5.88-3.6,8.83
	c25.52,0.77,51.47,3.05,79.3,11.77C513.45,522.81,513.85,520.52,514.25,518.23z"/>
<g>
	<path class="st20" d="M364.22,878.07c2.56,0.77,5.12,1.54,7.69,2.3"/>
	<g>
		<path class="st20" d="M363.82,879.52c2.56,0.77,5.12,1.54,7.69,2.3c0.75,0.23,1.67-0.27,1.85-1.05c0.18-0.81-0.24-1.6-1.05-1.85
			c-2.56-0.77-5.12-1.54-7.69-2.3c-0.75-0.23-1.67,0.27-1.85,1.05C362.59,878.48,363.02,879.28,363.82,879.52L363.82,879.52z"/>
	</g>
</g>
<g>
	<path class="st20" d="M343.64,538.57c9.06,97.5,13.11,200.84,10.1,309.38c-0.49,17.72-1.16,35.27-2,52.65"/>
	<path class="st20" d="M343.77,538.56c11.87,120.04,14.1,241.54,8.11,362.04c0,0-0.25-0.01-0.25-0.01
		C357.3,780.19,353.59,658.12,343.77,538.56L343.77,538.56z"/>
</g>
<g>
	<path class="st20" d="M362.63,606.1c-0.34,7.97,9.37,12.07,14.83,6.21c3.19-3.33,2.96-8.99-0.4-12.03
		C371.96,595.36,362.82,598.9,362.63,606.1L362.63,606.1z M360.86,606.1c-0.3-9.58,11.31-14.62,18.01-7.62
		c4,4.02,3.78,11.13-0.4,14.84C372.15,619.39,361.08,614.89,360.86,606.1L360.86,606.1z"/>
</g>
<g>
	<path class="st20" d="M362.62,659.1c-0.31,7.95,9.39,12.07,14.87,6.24c3.22-3.34,3.03-9.06-0.37-12.12
		C371.99,648.25,362.78,651.86,362.62,659.1L362.62,659.1z M360.87,659.1c-0.27-9.54,11.27-14.5,17.94-7.56
		c3.97,3.99,3.77,11.04-0.37,14.75C372.14,672.39,361.06,667.91,360.87,659.1L360.87,659.1z"/>
</g>
<g>
	<path class="st20" d="M363.74,712.1c-0.4,7.96,9.27,12.09,14.71,6.2c3.14-3.33,2.88-8.96-0.49-11.92
		C373,701.62,363.95,705.1,363.74,712.1L363.74,712.1z M361.75,712.1c-0.36-9.77,11.43-14.87,18.22-7.72
		c4,4.09,3.74,11.24-0.49,14.95C373.19,725.37,361.98,720.88,361.75,712.1L361.75,712.1z"/>
</g>
<g>
	<path class="st20" d="M363.83,765.1c-0.39,7.89,9.22,12.11,14.68,6.26c3.22-3.32,2.95-9.09-0.48-12.04
		C373.04,754.56,364.04,758.15,363.83,765.1L363.83,765.1z M361.66,765.1c-0.37-5.75,4.67-11.3,10.58-11.04
		c9.45,0.09,14.04,11.81,7.17,18.21C373.1,778.34,361.92,773.99,361.66,765.1L361.66,765.1z"/>
</g>
<g>
	<path class="st20" d="M363.67,816.1c-0.34,4.67,3.76,9.24,8.57,8.97c7.6-0.07,11.29-9.62,5.74-14.71
		C372.94,805.53,363.89,808.98,363.67,816.1L363.67,816.1z M361.82,816.1c-0.34-9.67,11.36-14.78,18.12-7.7
		c4.03,4.06,3.77,11.23-0.45,14.95C373.2,829.39,362.04,824.85,361.82,816.1L361.82,816.1z"/>
</g>
<g>
	<path class="st20" d="M363.96,869.1c-0.4,4.55,3.51,9.19,8.29,9c7.6-0.01,11.3-9.67,5.59-14.6
		C373.03,858.99,364.24,862.42,363.96,869.1L363.96,869.1z M361.53,869.1c-0.45-7.91,7.67-13.76,15.02-10.39
		c6.94,2.97,8.52,12.69,2.92,17.61C373.16,882.32,361.84,877.94,361.53,869.1L361.53,869.1z"/>
</g>
<g>
	<path class="st20" d="M450.47,793.31c-14.62,6.33-29.77,11.44-45.24,15.26c3.1,8.59,4.71,17.72,4.75,26.85"/>
	<g>
		<path class="st20" d="M449.71,792.01c-14.51,6.26-29.54,11.3-44.88,15.11c-0.74,0.18-1.32,1.09-1.05,1.85
			c3.04,8.5,4.63,17.42,4.7,26.45c0.01,1.93,3.01,1.93,3,0c-0.07-9.28-1.68-18.51-4.81-27.25c-0.35,0.62-0.7,1.23-1.05,1.85
			c15.6-3.87,30.84-9.05,45.6-15.41C452.99,793.84,451.47,791.25,449.71,792.01L449.71,792.01z"/>
	</g>
</g>
<g>
	<path class="st20" d="M415.22,695.09c9.99,0,19.97,0,29.96,0"/>
	<g>
		<path class="st20" d="M415.22,696.59c9.99,0,19.97,0,29.96,0c1.93,0,1.93-3,0-3c-9.99,0-19.97,0-29.96,0
			C413.29,693.59,413.29,696.59,415.22,696.59L415.22,696.59z"/>
	</g>
</g>
<g>
	<path class="st22" d="M501.83,525.02c-8.04,8.9-15.93,17.94-23.65,27.12"/>
	<g>
		<path class="st20" d="M500.77,523.96c-8.04,8.9-15.93,17.94-23.65,27.12c-1.24,1.47,0.88,3.6,2.12,2.12
			c7.72-9.18,15.6-18.22,23.65-27.12C504.18,524.65,502.07,522.52,500.77,523.96L500.77,523.96z"/>
	</g>
</g>
<g>
	<path class="st20" d="M228.74,511.6c10.32,2.76,20.71,5.22,31.17,7.37"/>
	<g>
		<path class="st20" d="M228.34,513.04c10.32,2.76,20.71,5.21,31.17,7.37c1.88,0.39,2.69-2.5,0.8-2.89
			c-10.46-2.16-20.86-4.62-31.17-7.37C227.27,509.65,226.47,512.55,228.34,513.04L228.34,513.04z"/>
	</g>
</g>
<path class="st17" d="M185.35,512.09c17.01-15.17,38.52-17.83,63.59-10.63c0.99,2.28,1.99,4.56,2.98,6.84
	c-21.1,0.59-42.56,2.36-65.57,9.11C186.02,515.63,185.69,513.86,185.35,512.09z"/>
<path class="st0" d="M39.74,45.37L39.74,45.37L39.74,45.37z"/>
<path class="st23" d="M339.64,538.57"/>
<path class="st15" d="M308.05,610.43c0.8,19.32,1.61,38.64,2.41,57.96c-17.87,16.27-43.25,5.5-67.61-1.61
	c-2.85-19.4-3.19-38.7-2.41-57.96C262.98,609.36,285.52,609.89,308.05,610.43z"/>
<path class="st21" d="M305.31,616.72c-7.75,16.66-10.3,33.54,2,51"/>
<path class="st15" d="M307.64,608.57c-2.25-10.76-62.8-12.88-67,0c-2,6.13,8.83,15.49,17.84,19.21
	C281.71,637.39,309.28,616.42,307.64,608.57z"/>
<path class="st15" d="M392.37,605.93c-0.8,19.32-1.61,38.64-2.41,57.96c17.87,16.27,43.25,5.5,67.61-1.61
	c2.85-19.4,3.19-38.7,2.41-57.96C437.44,604.85,414.9,605.39,392.37,605.93z"/>
<path class="st21" d="M395.11,615.21c7.75,16.66,10.3,33.54-2,51"/>
<path class="st24" d="M537.03,605.56c-4.34,0.38-9.34,1.16-14.75,2.65c-12.17,3.35-21.25,8.89-27.14,13.25
	c6.11,22.24,7.23,45.12,42.99,63.61c3.51-7.31,8.35-19.87,8.82-36.04C541.59,628.22,537.83,612.96,537.03,605.56z"/>
<path class="st25" d="M536.64,607.57c-3.94,0.36-8.47,1.09-13.38,2.5c-11.04,3.16-19.28,8.39-24.62,12.5
	c5.54,20.98,6.56,42.56,39,60c3.18-6.9,7.57-18.74,8-34C540.77,628.94,537.37,614.55,536.64,607.57z"/>
<path class="st26" d="M520.47,651.73c-0.34,0.13,2.87,17.93,10.57,18.92c4.54,0.58,8.17-4.98,8.53-5.56
	c4.51-7.1,0.48-16.18,0.03-16.15c-0.38,0.03,1.62,6.57-1.82,11.27c-1.84,2.51-5.34,4.64-8.57,3.9
	C523.08,662.7,520.73,651.62,520.47,651.73z"/>
<polygon class="st27" points="532.94,636.62 520.79,640.86 524.42,629.81 "/>
<polygon class="st27" points="519.1,634.18 531.46,630.6 527.24,641.44 "/>
<g>
	<g>
		<path d="M447.29,215.45c13.86,9.08,23.4,23,31.44,37.19c2.32,4.1,4.54,8.25,6.75,12.41c-0.05-0.09,0.02-0.72,0.02-0.73
			c0.01-0.59,0.01-1.18,0.01-1.77c0-0.59,0-1.18-0.01-1.77c0-0.18,0.07-0.57-0.02-0.73c-7.68-14.47-15.61-29.29-27.41-40.88
			c-3.31-3.25-6.9-6.18-10.78-8.72c0.17,0.11-0.02,2.22-0.02,2.5C447.26,213.27,447.02,215.27,447.29,215.45L447.29,215.45z"/>
	</g>
</g>
<path class="st15" d="M392.78,604.07c2.25-10.76,62.8-12.88,67,0c2,6.13-8.83,15.49-17.84,19.21
	C418.71,632.89,391.14,611.92,392.78,604.07z"/>
<circle class="st28" cx="429.35" cy="647.81" r="18.5"/>
<circle class="st29" cx="429.35" cy="647.81" r="17.5"/>
<polygon class="st27" points="442.37,649.69 420.68,655.6 428.36,636.78 "/>
<polygon class="st27" points="418.55,643.75 440.53,639.02 431.86,657.4 "/>
<ellipse class="st30" cx="525.85" cy="635.81" rx="10" ry="10.5"/>
<g>
	<path class="st31" d="M373.12,335.84c-2.45-4.08-2.29-8.15-2.15-11.49c0.06-1.51,0.45-11.18,6.43-17.04
		c11.35-11.13,45.26-10.85,57.98,4.26c5.71,6.79,8.04,17.65,1.47,26.12c-9.05,11.66-28.78,10.84-33.57,10.64
		C400.61,348.22,379.9,347.13,373.12,335.84z"/>
	<path class="st32" d="M440.65,339.29c0.33-2.46,2.32-19.71-10.6-30.95c-15.91-13.84-44.96-10.32-55.95,2.91
		c-2.83,3.41-4.16,7.1-4.8,10.17"/>
	<circle class="st33" cx="399.57" cy="322.82" r="12.25"/>
	<circle class="st31" cx="405.28" cy="319.08" r="4.76"/>
	<path class="st31" d="M310.63,335.63c2.29-4.17,1.97-8.23,1.71-11.57c-0.12-1.5-0.88-11.15-7.08-16.78
		c-11.78-10.69-45.65-9.1-57.77,6.5c-5.45,7.01-7.35,17.94-0.46,26.15c9.49,11.3,29.17,9.73,33.95,9.34
		C283.64,349.06,304.28,347.18,310.63,335.63z"/>
	<circle class="st33" cx="283.69" cy="323.65" r="12.25"/>
	<circle class="st31" cx="289.84" cy="319.89" r="4.76"/>
	<path class="st0" d="M250.18,343.02c3.06,1.45,28.89,13.24,50.01,0.04c5.21-3.26,9.02-7.34,11.79-11.23"/>
	<path class="st34" d="M298.6,286.01c-23.84-0.29-45.75,4.02-64.72,15.25"/>
	<path class="st34" d="M380.62,284.42c23.82-1.21,45.87,2.25,65.26,12.74"/>
	<path class="st32" d="M242.49,340.33c-0.42-2.45-3.08-19.61,9.4-31.34c15.37-14.44,44.53-12.05,56.02,0.75
		c2.96,3.3,4.43,6.93,5.19,9.98"/>
	<path class="st0" d="M433.93,341.4c-3,1.57-28.36,14.34-49.97,1.96c-5.33-3.05-9.29-6.98-12.21-10.77"/>
</g>
<path class="st0" d="M447.85,326.31c-0.17,6.17-1.15,13.49-3.95,21.26c-0.54,1.5-1.12,2.94-1.72,4.31c0,0-41.83,13.54-79.82-2.56
	c-0.83-6.67-1.67-13.33-2.5-20c-11.33,0-22.67,0-34,0"/>
<path class="st0" d="M235.35,326.31c0.17,6.17,1.15,13.49,3.95,21.26c0.54,1.5,1.12,2.94,1.72,4.31c0,0,41.83,13.54,79.82-2.56
	c0.83-6.67,1.67-13.33,2.5-20c11.33,0,22.67,0,34,0"/>
<path class="st35" d="M448.09,325.82c-0.17,6.17-1.15,13.49-3.95,21.26c-0.54,1.5-1.12,2.94-1.72,4.31c0,0-41.83,13.54-79.82-2.56
	c-0.83-6.67-1.67-13.33-2.5-20c-11.33,0-22.67,0-34,0"/>
<path class="st35" d="M235.09,325.82c0.17,6.17,1.15,13.49,3.95,21.26c0.54,1.5,1.12,2.94,1.72,4.31c0,0,41.83,13.54,79.82-2.56
	c0.83-6.67,1.67-13.33,2.5-20c11.33,0,22.67,0,34,0"/>
<g class="st36">
	<g>
		<path class="st37" d="M437.35,325.81c-11.67,8.33-23.33,16.67-35,25c-0.09,0.07-0.04,1.6-0.04,1.46
			c-0.01,1.18-0.02,2.36-0.01,3.54c0,1.18,0,2.36,0.01,3.54c0,0.19,0.13,1.4,0.04,1.46c11.67-8.33,23.33-16.67,35-25
			c0.09-0.07,0.04-1.6,0.04-1.46c0.01-1.18,0.02-2.36,0.01-3.54c0-1.18,0-2.36-0.01-3.54C437.38,327.08,437.25,325.88,437.35,325.81
			L437.35,325.81z"/>
	</g>
</g>
<g class="st36">
	<g>
		<path class="st37" d="M400.85,325.81c-10,8.33-20,16.67-30,25c-0.25,0.21-0.02,2.15-0.02,2.5c0,0.35,0.28,2.29,0.02,2.5
			c10-8.33,20-16.67,30-25c0.25-0.21,0.02-2.15,0.02-2.5C400.87,327.96,400.59,326.02,400.85,325.81L400.85,325.81z"/>
	</g>
</g>
<g class="st36">
	<g>
		<path class="st37" d="M312.58,324.56c-11.67,8.33-23.33,16.67-35,25c-0.09,0.07-0.04,1.6-0.04,1.46
			c-0.01,1.18-0.02,2.36-0.01,3.54c0,1.18,0,2.36,0.01,3.54c0,0.19,0.13,1.4,0.04,1.46c11.67-8.33,23.33-16.67,35-25
			c0.09-0.07,0.04-1.6,0.04-1.46c0.01-1.18,0.02-2.36,0.01-3.54c0-1.18,0-2.36-0.01-3.54C312.61,325.83,312.49,324.63,312.58,324.56
			L312.58,324.56z"/>
	</g>
</g>
<g class="st36">
	<g>
		<path class="st37" d="M276.08,324.56c-10,8.33-20,16.67-30,25c-0.25,0.21-0.02,2.15-0.02,2.5c0,0.35,0.28,2.29,0.02,2.5
			c10-8.33,20-16.67,30-25c0.25-0.21,0.03-2.15,0.03-2.5C276.11,326.71,275.83,324.77,276.08,324.56L276.08,324.56z"/>
	</g>
</g>
<path class="st0" d="M311.59,410.82c19.83,8.65,39.66,9.66,59.5,0.5"/>
</svg>
