<?xml version="1.0" encoding="utf-8"?>
<!-- Generator: Adobe Illustrator 28.3.0, SVG Export Plug-In . SVG Version: 6.00 Build 0)  -->
<svg version="1.1" id="Layer_1" xmlns="http://www.w3.org/2000/svg" xmlns:xlink="http://www.w3.org/1999/xlink" x="0px" y="0px"
	 viewBox="0 0 862.1 1859" style="enable-background:new 0 0 862.1 1859;" xml:space="preserve">
<style type="text/css">
	.st0{fill:none;stroke:#000000;stroke-miterlimit:10;}
	.st1{fill:#C6C0D8;stroke:#000000;stroke-miterlimit:10;}
	.st2{fill:#FFE3CB;stroke:#000000;stroke-miterlimit:10;}
	.st3{fill:#2D2A38;}
	.st4{fill:#FFB995;}
	.st5{fill:#332C26;stroke:#000000;stroke-miterlimit:10;}
	.st6{fill:#332C26;}
	.st7{fill:none;stroke:#FFB995;stroke-miterlimit:10;}
	.st8{fill:#1E2722;stroke:#000000;stroke-miterlimit:10;}
	.st9{fill:#20382B;}
	.st10{fill:#FFB995;stroke:#000000;stroke-width:0.5;stroke-miterlimit:10;}
	.st11{fill:#FFB995;stroke:#FFB995;stroke-miterlimit:10;}
	.st12{fill:#EFF5F9;stroke:#25282D;stroke-width:2;stroke-miterlimit:10;}
	.st13{fill:#FFE3CB;}
	.st14{fill:#EFF5F9;stroke:#DB3A3A;stroke-width:7;stroke-miterlimit:10;}
	.st15{fill:#EFF5F9;stroke:#000000;stroke-miterlimit:10;}
	.st16{fill:#EFF5F9;}
	.st17{fill:#2D2A38;stroke:#000000;stroke-miterlimit:10;}
	.st18{fill:#141123;}
	.st19{fill:#141123;stroke:#141123;stroke-width:3;stroke-miterlimit:10;}
	.st20{fill:#C6C0D8;}
	.st21{fill:none;stroke:#C6C0D8;stroke-miterlimit:10;}
	.st22{fill:#45A3BF;}
	.st23{fill:#B3D9E8;stroke:#000000;stroke-miterlimit:10;}
	.st24{fill:#C6C0D8;stroke:#C6C0D8;stroke-miterlimit:10;}
	.st25{fill:#2D2A38;stroke:#000000;stroke-width:3;stroke-miterlimit:10;}
	.st26{fill:#EBFAFF;stroke:#DB3A3A;stroke-width:3;stroke-miterlimit:10;}
	.st27{fill:#DB3A3A;stroke:#DB3A3A;stroke-width:3;stroke-miterlimit:10;}
	.st28{fill:none;stroke:#DB3A3A;stroke-width:2;stroke-miterlimit:10;}
	.st29{fill:#EFF5F9;stroke:#000000;stroke-width:3;stroke-miterlimit:10;}
	.st30{fill:#EFF5F9;stroke:#DB3A3A;stroke-width:3;stroke-miterlimit:10;}
	.st31{fill:none;stroke:#DB3A3A;stroke-width:3;stroke-miterlimit:10;}
	.st32{fill:#FFFFFF;}
	.st33{fill:none;stroke:#000000;stroke-width:4;stroke-miterlimit:10;}
	.st34{stroke:#000000;stroke-miterlimit:10;}
	.st35{fill:none;stroke:#000000;stroke-width:3;stroke-miterlimit:10;}
	.st36{opacity:0.63;fill:#CEEAF4;stroke:#000000;stroke-miterlimit:10;enable-background:new    ;}
	.st37{opacity:0.63;}
	.st38{fill:#FDFEFF;}
</style>
<path class="st0" d="M400.5,1269.9"/>
<path class="st1" d="M366.8,450.6c46-1.3,92-2.7,138-4c-1.3,36.8-31.6,66.4-68,67C401,514.2,370.2,486.6,366.8,450.6z"/>
<path class="st2" d="M497.8,404.6c2.6,23.5-6,13-8,90c-2.9,9.3-9,25.8-22,43c-10,13.2-18.6,24.6-30,25c-18.9,0.7-33.6-29.7-40-43
	c-13.5-28-6-64-11-106C407.8,387.4,455.5,380.7,497.8,404.6z"/>
<g>
	<path class="st3" d="M552.4,907.7c2-4.3,6.3-15.2,1.4-22c-3.4-4.7-9.7-5.5-12-5.8c-54.9-6.9-12.3-12-90.7-13.6
		c-40.5-0.8-83.1-1-118.6,18.5c-1.8,1-3.6,2.1-4.7,3.8c-0.9,1.5-1.1,3.3-1.3,5c-3.1,30.5-3.3,61.3-0.4,91.9
		c0.8,8.4,1.8,16.8,4.8,24.7c4.3,11.3,12.5,20.7,20.5,29.8c3.9,4.5,8.1,9.1,13.5,11.5c6.3,2.7,13.5,2.1,20.4,2.4
		c10,0.4,19.8,2.8,29.8,3.8c10,1.1,20.5,0.6,29.3-4.2c5.9-3.2,10.6-8.2,15.2-13.1c13.2-14,26.4-28.1,38.1-43.4
		c4.2-5.5,8.2-11.1,12.9-16c5.4-5.6,11.8-10.2,16.8-16.2c6.2-7.4,10.1-16.4,13.9-25.3c3.6-8.5,8.1-20.3,11.8-35"/>
	<g>
		<path d="M553.7,908.4c3.9-8.7,7.1-21.7-3-27.5c-3.9-2.2-8.3-2.5-12.7-3.1c-4.1-0.6-8.2-1.2-12.3-2c-4.6-0.9-9.2-1.9-13.5-3.6
			c-0.3-0.1-0.7-0.2-1-0.4c-0.1-0.1-0.3-0.1-0.4-0.2c-0.1,0-0.8-0.3-0.3-0.1c-0.6-0.2-1.2-0.5-1.8-0.8c-1.2-0.5-2.4-1.1-3.7-1.5
			c-3.5-1.3-7.3-1.9-11-2.4c-8-1-16-1.4-24.1-1.7c-13.3-0.5-26.7-0.8-40-0.8c-13.4,0-26.9,0.4-40.3,1.9c-13.2,1.5-26.3,4.1-38.8,8.5
			c-6.2,2.2-12.2,4.8-18,7.9c-2.7,1.4-5.5,3-6.8,5.9c-1.4,3.1-1.3,7-1.6,10.3c-2.8,30.2-2.8,60.9,0.6,91.1c0.8,7.1,2,14.3,4.6,21
			c2.5,6.2,6,11.9,10.1,17.2c4,5.2,8.4,10.2,12.8,15.1c4.5,4.9,9.5,9.2,16.1,10.7c6.7,1.5,13.7,0.8,20.5,1.4
			c7.4,0.6,14.7,2.2,22.1,3.1c13.3,1.8,27.4,1.5,38.5-7c5.4-4.1,9.8-9.2,14.4-14.1c5.1-5.4,10.1-10.8,15.1-16.4
			c4.9-5.4,9.6-10.9,14.2-16.5c4.5-5.6,8.7-11.5,13.2-17.1c4.4-5.4,9.5-10,14.7-14.7c5-4.6,9.4-9.5,12.9-15.4
			c3.5-5.8,6.1-12,8.7-18.2c2.1-5,4.1-10.1,5.9-15.3c2.2-6.3,4.1-12.8,5.7-19.3c0.5-1.9-2.4-2.7-2.9-0.8c-3,11.8-6.8,23.3-11.5,34.4
			c-2.6,6-5.1,12.1-8.5,17.7c-3.4,5.8-7.8,10.6-12.7,15c-5,4.5-10,9-14.2,14.2c-4.4,5.4-8.4,11.1-12.8,16.5
			c-9,11.2-18.7,21.8-28.5,32.3c-4.5,4.8-8.9,10-14.1,14.2c-5.1,4.2-11,6.7-17.4,7.7c-13.8,2.2-27.6-1.9-41.3-3.3
			c-6.7-0.7-13.6,0.1-20.3-1.2c-6.5-1.3-11.3-5.3-15.6-10.1c-8.7-9.5-17.9-19.8-22.5-32c-2.5-6.6-3.6-13.6-4.3-20.6
			c-0.8-7.3-1.3-14.7-1.7-22c-0.8-14.8-0.9-29.7-0.3-44.5c0.3-7.4,0.8-14.8,1.4-22.2c0.2-1.8,0.3-3.6,0.5-5.4c0.2-1.6,0.2-3.4,1-4.9
			c1.3-2.7,4.9-4,7.4-5.3c11.5-5.8,23.8-9.8,36.4-12.3c25.6-5.2,52-4.9,78-4.4c11.2,0.2,22.4,0.5,33.6,1.2
			c5.4,0.4,10.4,0.8,15.6,1.9c1.4,0.3,2.9,0.7,4.2,1.2c0.6,0.2,1.2,0.4,1.8,0.7c0.4,0.2-0.3-0.1,0.1,0c0.1,0.1,0.3,0.1,0.4,0.2
			c0.3,0.1,0.5,0.2,0.8,0.3c2.9,1.3,5.9,2.4,8.9,3.3c6.1,1.7,12.3,2.7,18.6,3.7c4.2,0.6,8.4,0.7,12.3,2.2c2.4,0.8,4.6,2.3,5.9,4.5
			c1.3,2.2,1.7,4.7,1.7,7.2c-0.1,4.4-1.6,8.8-3.4,12.8C550.3,908.6,552.9,910.2,553.7,908.4L553.7,908.4z"/>
	</g>
</g>
<g>
	<path class="st4" d="M389.3,413.1c12-6.4,36.5-17.3,68.3-16.1c16.8,0.6,30.7,4.4,40.7,8.1c-2,15-4,30-6,45c0,0-23,18.8-36.3,23
		c-17.2,5.5-32.9,4.9-46.6,4.2c-8.4-0.4-15.4-1.4-20.1-2.2"/>
</g>
<path class="st5" d="M586.8,295.6c5.5-8.1,19.2-30.4,20-60.4c1.1-44.8-27-90.6-65.7-110.2c-46.1-23.3-120.5-19.3-100.3-20.4
	c19-1,27.6-47.7,26-49c-1.5-1.2-23.7,27.2-41,42c-95-31-190.3,21-190,18c0.3-3.1,91.9-4.3,148.5,9.9c0.2,0.1,0.3,0.1,0.5,0.1
	c-11.7-5.3-27.5-9.8-45-7c-37.1,5.9-68.2,42.2-77,91c1.4,26.9,8.7,77.9,47,115C386.5,399,536.6,368.8,586.8,295.6z"/>
<path class="st2" d="M284.8,286.6c-10.4,4.6-10.1,25.5-10,28c1.1,43.2,55.5,68.4,59,70c12,5.4,24.6,11,30,6c10.4-9.7-12.7-53-40-81
	C314.4,299.9,296.4,281.5,284.8,286.6z"/>
<path class="st2" d="M588.2,287c10.4,4.6,10.1,25.5,10,28c-1.1,43.2-55.5,68.4-59,70c-12,5.4-24.6,11-30,6c-10.4-9.7,12.7-53,40-81
	C558.6,300.4,576.6,281.9,588.2,287z"/>
<path class="st2" d="M310.8,271.6c3,48,28,110,28,110s9,45,99,83c15.4-5.6,63.5-25.5,97-78c21-54,31.3-104.7,30-121
	c-9-56.7-54.2-130.1-123-132C369.6,131.6,318.4,210,310.8,271.6z"/>
<path class="st5" d="M416.8,202.6c-7,66-29,96-29,96s56-29,45-39c1.8,1.5-14,45-32,55c4.7,6.2,28.7-0.8,44-13
	c43.4-34.5,25.7-117.1,23-129"/>
<path class="st5" d="M447.8,188.6c14,28.9,62.1,68.1,100.6,100.6c6.9,5.8-1.4,24.2-12.6,42.5c3.3,3.1,12.2-1.6,14.1-2.6
	c14.7-7.7,24.6-25.2,24.9-47.4"/>
<path class="st0" d="M310.8,321.5"/>
<path class="st6" d="M575.8,275.6c16.7-14.2-7.7-108.5-76-144c-65-33.8-154.9-6.6-191,51c-20.8,33.2-27.4,81.6-11,92
	c28.8,18.3,125-83.9,136.5-72.5c5,4.9-11.1,26.2-4.5,32.5c7,6.7,25.9-16.2,49.5-12.5c23.3,3.7,24.2,29.1,59,46
	C547.8,272.7,567.8,282.4,575.8,275.6z"/>
<g>
	<g>
		<path d="M417.2,201.7c0.8-3.6,1.2-7.4,1.1-11.1c0-1.1-1.3-2-2.3-1.3c-3.4,2.4-6.5,5.1-9.2,8.2c-0.5,0.6-0.6,1.5,0,2.1
			c0.5,0.5,1.6,0.6,2.1,0c2.5-2.9,5.4-5.6,8.6-7.8c-0.8-0.4-1.5-0.9-2.3-1.3c0,3.5-0.3,6.9-1,10.3c-0.2,0.8,0.2,1.6,1,1.9
			C416.1,203,417,202.5,417.2,201.7L417.2,201.7z"/>
	</g>
</g>
<g>
	<path d="M474.2,218.7c-0.7,0-0.8-7.3-3.1-21.8c-1.4-9.1-3-16.6-4.1-21.7c2.7,4.6,6.1,11.5,7.8,20.4
		C477,207.6,475.2,218.7,474.2,218.7z"/>
	<g>
		<path d="M474.2,217.2c0.4,0,1,0.5,1.1,0.6c0,0,0.1,0.4,0.1,0.1c0-0.2-0.1-0.4-0.1-0.6c-0.2-0.8-0.2-1.1-0.3-1.8
			c-0.3-2.3-0.5-4.7-0.8-7c-0.9-7.8-2.1-15.6-3.6-23.3c-0.7-3.5-1.4-7-2.2-10.5c-0.9,0.4-1.8,0.8-2.7,1.2c4.1,7,7,14.7,8,22.8
			c0.6,4.3,0.7,8.8,0.4,13.1c-0.1,1.4-0.2,2.9-0.5,4.2c-0.1,0.5-0.2,0.9-0.4,1.4c-0.1,0.3-0.1,0.1-0.1,0.2c0,0.1,0,0.1-0.1,0.1
			c0.2-0.3,0.4-0.4,0.7-0.5c-1.9,0.3-1.1,3.2,0.8,2.9c1.5-0.3,1.8-2.8,2-4c0.5-3,0.7-6.1,0.7-9.1c0-8-1.4-15.9-4.4-23.4
			c-1.3-3.2-2.8-6.3-4.6-9.3c-0.9-1.5-3.1-0.5-2.7,1.2c1.7,7.6,3.1,15.2,4.3,22.9c0.9,6.1,1.5,12.3,2.3,18.5c0.2,1.4,0.3,3.1,2,3.3
			C476.2,220.4,476.2,217.4,474.2,217.2z"/>
	</g>
</g>
<g>
	<g>
		<path d="M580.4,276.5c0-3.5,0-7,0-10.5c0-0.8-0.7-1.5-1.5-1.5s-1.5,0.7-1.5,1.5c0,3.5,0,7,0,10.5c0,0.8,0.7,1.5,1.5,1.5
			S580.4,277.4,580.4,276.5L580.4,276.5z"/>
	</g>
</g>
<g>
	<g>
		<path d="M349.6,121.8c9-0.7,18.2-0.3,27.1,1c1.9,0.3,2.7-2.6,0.8-2.9c-9.2-1.4-18.6-1.8-27.9-1.1
			C347.7,118.9,347.7,121.9,349.6,121.8L349.6,121.8z"/>
	</g>
</g>
<g>
	<g>
		<path d="M458.4,162.9c-1.7-3.5-4.8-6.1-8.4-7.3c-0.7-0.2-1.7,0.3-1.9,1.1c-0.2,0.8,0.2,1.6,1,1.9c0.2,0.1,0.4,0.1,0.6,0.2
			c0.2,0.1,0.2,0.1,0,0c0.1,0,0.2,0.1,0.3,0.1c0.4,0.2,0.8,0.4,1.1,0.6c0.4,0.2,0.7,0.4,1,0.7c0.1,0.1,0.1,0.1,0.2,0.2
			c0.3,0.2-0.2-0.2,0.1,0.1c0.2,0.1,0.3,0.3,0.5,0.4c0.3,0.3,0.6,0.6,0.9,0.8c0.1,0.1,0.3,0.3,0.4,0.5c0.1,0.1,0.1,0.1,0.2,0.2
			c0,0.1,0.3,0.3,0,0.1c0.5,0.6,1,1.4,1.3,2.1c0.3,0.7,1.4,0.9,2,0.5C458.6,164.5,458.7,163.6,458.4,162.9L458.4,162.9z"/>
	</g>
</g>
<g>
	<g>
		<path d="M540.6,162.6c8.2,14.5,15.5,29.6,21.8,45.1c0.7,1.8,3.6,1,2.9-0.8c-6.4-15.7-13.8-31-22.1-45.8
			C542.2,159.4,539.6,160.9,540.6,162.6L540.6,162.6z"/>
	</g>
</g>
<g>
	<g>
		<path d="M294,223.3c0.6-4,2.2-7.7,3.9-11.4c1.8-3.8,3.6-7.7,5.5-11.4c3.7-7.5,7.6-14.9,11.8-22.2c1-1.7-1.6-3.2-2.6-1.5
			c-4.2,7.4-8.2,15-12,22.7c-1.9,3.8-3.7,7.6-5.5,11.5c-1.7,3.7-3.4,7.6-4,11.7c-0.1,0.8,0.2,1.6,1,1.9
			C292.8,224.5,293.9,224.1,294,223.3L294,223.3z"/>
	</g>
</g>
<path class="st7" d="M286.8,300.6c-1.2,3.8-3.1,11.6-1,21c1.4,6.3,4,11.1,6,14"/>
<path class="st7" d="M587.9,299.4c1.2,3.8,3.1,11.6,1,21c-1.4,6.3-4,11.1-6,14"/>
<path class="st8" d="M387.8,1517.6c0,0-9.5,47.4-6,99c3.3,49,22.2,90.4,25,120c1.2,25.4,1.1,49-4,66c-8.1,5.1-32,18.7-64.5,16.4
	c-25.9-1.8-44.3-12.8-52.5-18.4c-1.6-6.4-3.5-16.1-4-28c-0.9-19.9,2.6-34.1,8-57c3-12.6,7.9-33.2,15-64c1.8-44.7,0.5-87.9-5-129
	C327.3,1528.6,356.9,1525.7,387.8,1517.6z"/>
<path class="st0" d="M392.8,1745.6c-26.1-29.4-87-20-97,1"/>
<path class="st0" d="M282.8,1783.6c41,18.4,82,18.9,123,1"/>
<path class="st8" d="M490.8,1517.6c1.5,21.2,2.6,43.3,3.3,66c0.6,18.8,0.8,37.2,0.7,55c-7.7,32.5-15.4,65-23.1,97.5c0,0-1.1,49,4,66
	c8.1,5.1,32,18.7,64.5,16.4c25.9-1.8,44.3-12.8,52.5-18.4c1.6-6.4,3.5-16.1,4-28c0.9-19.9-2.5-34.1-8-57c-3-12.6-7.8-33.2-15-64
	c-0.5-21.1-0.6-43.1-0.2-65.8c0.5-26.3,1.6-51.6,3.3-75.7c-6.5,4.5-20.7,13.1-40.8,15.3C514.5,1527.2,498,1520.8,490.8,1517.6z"/>
<path class="st0" d="M485.7,1745.1c26.1-29.4,87-20,97,1"/>
<path class="st0" d="M595.7,1783.1c-41,18.4-82,18.9-123,1"/>
<g>
	<path class="st9" d="M378.8,1658.8c2.4,16,5.4,31.9,9.1,47.7"/>
	<g>
		<path class="st9" d="M374.5,1660c2.4,16,5.4,31.9,9.1,47.7c0.5,2.3,3.3,3.9,5.5,3.1c2.4-0.8,3.7-3.1,3.1-5.5
			c-3.7-15.8-6.7-31.7-9.1-47.7c-0.3-2.3-3.4-3.8-5.5-3.1C375.1,1655.3,374.1,1657.5,374.5,1660L374.5,1660z"/>
	</g>
</g>
<g>
	<path class="st9" d="M564.9,1663.4c5.4,16.1,10.8,32.3,16.2,48.4"/>
	<g>
		<path class="st9" d="M560.6,1664.6c5.4,16.1,10.8,32.3,16.2,48.4c0.8,2.2,3.1,3.9,5.5,3.1c2.2-0.7,3.9-3.2,3.1-5.5
			c-5.4-16.1-10.8-32.3-16.2-48.4c-0.8-2.2-3.1-3.9-5.5-3.1C561.5,1659.8,559.8,1662.2,560.6,1664.6L560.6,1664.6z"/>
	</g>
</g>
<g>
	<g>
		<path class="st9" d="M352.2,1742.4c0.9,0.3,1.7,0.6,2.6,0.9c0.4,0.2,0.9,0.3,1.3,0.5c0.2,0.1,1.6,0.7,0.5,0.2
			c1.6,0.6,3.1,1.4,4.6,2.2c3.1,1.6,6.1,3.5,9,5.5c1.9,1.4,5.1,0.4,6.2-1.6c1.2-2.3,0.4-4.7-1.6-6.2c-6.1-4.4-13-7.8-20.1-10.2
			c-2.2-0.7-5,0.9-5.5,3.1C348.5,1739.4,349.8,1741.6,352.2,1742.4L352.2,1742.4z"/>
	</g>
</g>
<g>
	<g>
		<path class="st9" d="M541.3,1745.6c1.1,0,2.2,0.1,3.4,0.2c0.3,0,0.6,0.1,0.8,0.1c0.4,0,0.5,0.1,0.1,0c0.6,0.1,1.1,0.2,1.7,0.3
			c2.3,0.4,4.5,1,6.7,1.8c0.5,0.2,1,0.4,1.6,0.6c0.7,0.2-0.6-0.3,0.1,0c0.3,0.1,0.5,0.2,0.8,0.3c1,0.5,2,1,3,1.5
			c1,0.6,1.9,1.1,2.9,1.8c0.5,0.3,0.9,0.6,1.4,1c0.1,0,0.7,0.5,0.4,0.3c-0.4-0.3,0.6,0.4,0.5,0.4c1.8,1.5,4.6,1.9,6.4,0
			c1.5-1.6,2-4.8,0-6.4c-8.4-6.8-18.8-10.8-29.7-10.9c-2.4,0-4.6,2.1-4.5,4.5C536.9,1743.5,538.8,1745.5,541.3,1745.6L541.3,1745.6z
			"/>
	</g>
</g>
<line class="st7" x1="443.8" y1="316.6" x2="430.8" y2="324.6"/>
<line class="st7" x1="444.8" y1="321.6" x2="423.8" y2="334.6"/>
<line class="st7" x1="449.8" y1="324.6" x2="422.8" y2="341.6"/>
<line class="st7" x1="451.8" y1="330.6" x2="423.8" y2="347.6"/>
<line class="st7" x1="454.8" y1="334.6" x2="425.8" y2="351.6"/>
<path class="st10" d="M437.8,361.1c-0.2,4-0.3,8-0.5,12c-1.8-1.7-3.7-3.3-5.5-5"/>
<g>
	<g>
		<path class="st4" d="M343.7,350.4c-0.6,0.8-1.2,1.6-1.8,2.5c-0.1,0.2-0.2,0.4-0.2,0.6c0,0.2,0,0.4,0,0.6c0.1,0.4,0.4,0.7,0.7,0.9
			c0.4,0.2,0.8,0.3,1.2,0.1c0.1,0,0.2-0.1,0.4-0.1c0.2-0.1,0.4-0.3,0.5-0.5c0.6-0.8,1.2-1.6,1.8-2.5c0.1-0.2,0.2-0.4,0.2-0.6
			c0-0.2,0-0.4,0-0.6c-0.1-0.4-0.4-0.7-0.7-0.9c-0.4-0.2-0.8-0.3-1.2-0.1c-0.1,0-0.2,0.1-0.4,0.1C344,350,343.9,350.2,343.7,350.4
			L343.7,350.4z"/>
	</g>
</g>
<g>
	<g>
		<path class="st4" d="M347.7,353.1c-0.2,0.3-0.4,0.6-0.6,0.9c-0.1,0.2-0.2,0.4-0.2,0.6c0,0.2,0,0.4,0,0.6c0.1,0.2,0.1,0.4,0.3,0.5
			c0.1,0.2,0.2,0.3,0.4,0.4c0.1,0,0.2,0.1,0.4,0.1c0.3,0.1,0.5,0.1,0.8,0c0.1,0,0.2-0.1,0.4-0.1c0.2-0.1,0.4-0.3,0.5-0.5
			c0.2-0.3,0.4-0.6,0.6-0.9c0.1-0.2,0.2-0.4,0.2-0.6c0-0.2,0-0.4,0-0.6c0-0.2-0.1-0.4-0.3-0.5c-0.1-0.2-0.2-0.3-0.4-0.4
			c-0.1,0-0.2-0.1-0.4-0.1c-0.3-0.1-0.5-0.1-0.8,0c-0.1,0-0.2,0.1-0.4,0.1C348,352.7,347.8,352.9,347.7,353.1L347.7,353.1z"/>
	</g>
</g>
<g>
	<g>
		<path class="st4" d="M517.2,353c0,0.5,0,1,0,1.5c0,0.2,0,0.4,0.1,0.6c0.1,0.2,0.2,0.4,0.3,0.5c0.1,0.1,0.3,0.2,0.5,0.3
			c0.2,0.1,0.4,0.1,0.6,0.1c0.1,0,0.3,0,0.4,0c0.2-0.1,0.5-0.2,0.7-0.4c0.3-0.3,0.4-0.6,0.4-1.1c0-0.5,0-1,0-1.5
			c0-0.2,0-0.4-0.1-0.6c-0.1-0.2-0.2-0.4-0.3-0.5c-0.1-0.1-0.3-0.2-0.5-0.3c-0.2-0.1-0.4-0.1-0.6-0.1c-0.1,0-0.3,0-0.4,0
			c-0.2,0.1-0.5,0.2-0.7,0.4C517.3,352.2,517.2,352.6,517.2,353L517.2,353z"/>
	</g>
</g>
<g>
	<g>
		<path class="st4" d="M521.7,351.8C521.7,351.8,521.7,351.8,521.7,351.8c0-0.1-0.1-0.2-0.2-0.3c0.2,0.3,0.4,0.7,0.6,1
			c0-0.1-0.1-0.2-0.2-0.4c0.2,0.4,0.3,0.8,0.3,1.3c0-0.1,0-0.3,0-0.4c0,0.4,0,0.8,0,1.1c0,0.4,0.2,0.8,0.4,1.1
			c0.3,0.3,0.7,0.5,1.1,0.4c0.4,0,0.8-0.1,1.1-0.4c0.1-0.1,0.2-0.2,0.2-0.3c0.1-0.2,0.2-0.5,0.2-0.8c0.1-0.8,0-1.5-0.2-2.2
			c-0.1-0.4-0.3-0.8-0.5-1.2c-0.2-0.4-0.5-0.7-0.7-1.1c-0.2-0.3-0.7-0.4-1.1-0.4c-0.4,0-0.8,0.2-1.1,0.4c-0.3,0.3-0.5,0.7-0.4,1.1
			c0,0.1,0,0.3,0,0.4C521.4,351.4,521.5,351.6,521.7,351.8L521.7,351.8z"/>
	</g>
</g>
<path class="st5" d="M422.8,205.6c-12.8,8.9-94,84-101,114c-2,5,9.6,31.4,11,31c0.1,0,0.1-0.1,0.1-0.1c0.7-2.6-54.9-18.4-44.1-91.9"
	/>
<path class="st2" d="M625.1,642.3c21.7,94.7,43.3,189.3,65,284c-11.3,21.7-22.7,43.3-34,65c-31-106.7-62-213.3-93-320
	C583.8,661.7,604.4,652,625.1,642.3z"/>
<path class="st11" d="M652.8,735.7c-19.7,11.3-39.3,22.7-59,34c-22.8-89,7.7-132,27-132C630.1,637.7,640.8,670,652.8,735.7z"/>
<path class="st12" d="M481.4,497.9c41.7,5.6,83.4,11.1,125.1,16.7c6.9,25.1,13.9,50.2,20.9,75.2c8.5,30.4,11.5,45.7,19.2,68.8
	c8,24,16.2,43,21.8,55.2c-3.4,5.3-15.5,22.9-39.5,31.2c-24.2,8.3-44.7,1.8-50.6-0.3c-10.7-49.4-21.4-98.8-32.1-148.1"/>
<path class="st13" d="M651.8,962.2c4.9-18.4,21.6-36,32.8-33.4c14.3,3.4,16.5,39.2,17.7,59.9c1,16.5,4.8,88.3-28.5,104.5
	c-1.9,0.9-10.5,5.1-16.5,1.5c-13.3-8.1,8.3-41.9-0.5-91.5C653.4,983.9,648,976.7,651.8,962.2z"/>
<path class="st2" d="M653.8,1090.2c0,0-27,14-33,14c-1.7-1.4-2-4-1.9-6.3c0,0,0-2.4,0.9-4.7c1.5-4,13-9,13-9c7.7-3.3,10.7-3.6,13-7
	c1.5-2.1,2-6,2-6"/>
<path class="st2" d="M687.1,926.3c9.3,14.1,20,33.7,27.6,58.5c4.5,14.7,7.1,28.2,8.6,39.9c0,0-20.3,46.8-28,71l-71,19
	c-0.5-2-0.6-3.8-0.5-5.5c0.9-16.9,24.3-26.9,27-28"/>
<path class="st2" d="M647.8,962.2c-4,29,1,61,1,61c-1.2,15.7-2.5,31.3-8,41c1.7,6.5,7.1,8,15,6c6.8-5.5,11.2-22.3,15-42
	c0,0,19.2-9.8,19.4-9.4c0,0-0.1,0.2-0.4,0.4"/>
<path class="st2" d="M694.8,1030.2c-7.1,15-13.3,30-18,45"/>
<path class="st14" d="M661.9,698.3c-19.3,21.2-51.7,29.7-87,30"/>
<path class="st2" d="M257.6,642.4c-21.7,94.7-43.3,189.3-65,284c11.3,21.7,22.7,43.3,34,65c31-106.7,62-213.3,93-320
	C298.9,661.7,278.2,652,257.6,642.4z"/>
<path class="st11" d="M229.9,735.7c19.7,11.3,39.3,22.7,59,34c22.8-89-7.7-132-27-132C252.6,637.7,241.9,670,229.9,735.7z"/>
<path class="st12" d="M401.3,497.9c-41.7,5.6-83.4,11.1-125.1,16.7c-6.9,25.1-13.9,50.2-20.9,75.2c-8.5,30.4-11.5,45.7-19.2,68.8
	c-8.1,24-16.2,43-21.8,55.2c3.4,5.3,15.5,22.9,39.5,31.2c24.2,8.3,44.7,1.8,50.6-0.3c10.7-49.4,21.4-98.8,32.1-148.1"/>
<path class="st13" d="M230.8,962.2c-4.9-18.4-21.6-36-32.8-33.4c-14.3,3.4-16.5,39.2-17.7,59.9c-1,16.5-4.8,88.3,28.5,104.5
	c1.9,0.9,10.5,5.1,16.5,1.5c13.3-8.1-8.3-41.9,0.5-91.5C229.3,983.9,234.7,976.7,230.8,962.2z"/>
<path class="st2" d="M228.8,1090.2c0,0,27,14,33,14c1.7-1.4,2-4,1.9-6.3c0,0,0-2.4-0.9-4.7c-1.5-4-13-9-13-9c-7.7-3.3-10.7-3.6-13-7
	c-1.4-2.1-2-6-2-6"/>
<path class="st2" d="M195.6,926.4c-9.3,14.1-20,33.7-27.6,58.5c-4.6,14.7-7.1,28.2-8.6,39.9c0,0,20.3,46.8,28,71l71,19
	c0.5-2,0.6-3.8,0.5-5.5c-0.9-16.9-24.3-26.9-27-28"/>
<path class="st2" d="M234.8,962.2c4,29-1,61-1,61c1.2,15.7,2.5,31.3,8,41c-1.7,6.5-7.1,8-15,6c-6.8-5.5-11.2-22.3-15-42
	c0,0-19.2-9.8-19.4-9.4c0,0,0.1,0.2,0.4,0.4"/>
<path class="st2" d="M187.8,1030.2c7.1,15,13.3,30,18,45"/>
<path class="st14" d="M220.8,698.3c19.3,21.2,51.7,29.7,87,30"/>
<path class="st15" d="M464.8,533.6c-18,6-37.4,6.7-58,3c0.1-3.8,8,29,30,38C467.8,557.6,466,527.5,464.8,533.6z"/>
<g>
	<path class="st16" d="M312.8,550.6c15.5,41.3,6,236-3,301c-0.7,3.5,2,23,2,23s10.1,14.8,13,17c31.8,4.9,68.4,8.5,109,9
		c46.3,0.6,87.8-2.9,123-8c4.2-4.5,6.6-9,8-12c3.1,0.2-7.7-33-11-60c-1.4-11.2,7.5-18.1,8-22c1.5-11.2-0.3-36.7-0.6-86.5
		c-0.1-17.5-3.8-41.9-3.6-78c0.1-21.7,1.5-53.1,8.2-91.5"/>
	<path d="M312.9,550.6c3.4,9.6,4.4,19.9,5.6,29.9c5.6,70.9,1.7,142.3-2.9,213.2c-1.4,18.6-3,37.2-5.4,55.6c-0.1,1.3-0.6,3.7-0.4,5
		c0.3,6.8,1.2,13.5,2.1,20.2c4,5.5,7.9,12,12.9,17c19,2.9,38.5,5.2,57.8,6.6c58,4.5,116.5,1.9,174.1-5.7c2.8-3.2,6.1-7.6,8-12
		c0.4,0.1,0.5-0.5,0.5-1c0-3.1-0.8-6.2-1.5-9.2c-2.3-10.4-4.9-20.8-7-31.3c-1.3-6.5-2.6-13.2-3.2-19.8c-0.3-4,1-8.1,2.9-11.6
		c1.5-3.2,4.3-5.8,5.2-9.2c0.4-3.5,0.5-7.1,0.5-10.7c0.1-7.3-0.4-24.6-0.5-32c-0.7-21.4,0-42.8-1.7-64.1
		c-4.5-49.7-3.2-99.9,5.6-149.1l0.2,0c-8.8,49.1-10.1,99.4-5.6,149c1.7,21.3,1,42.7,1.7,64.1c0.2,7.6,0.6,24.7,0.5,32.1
		c0,3.6-0.1,7.1-0.5,10.7c-0.9,3.5-3.7,6.1-5.2,9.3c-1.9,3.5-3.1,7.4-2.9,11.4c0.6,6.6,1.9,13.2,3.2,19.8c2.1,10.5,4.7,20.8,7,31.3
		c0.6,3.1,1.4,6.1,1.5,9.2c0,0.5-0.1,1.1-0.7,1.2c-1.6,3.9-4.7,8.7-8,12c-57.6,8.9-116.2,10.2-174.2,5.6
		c-19.4-1.5-38.7-3.8-57.9-6.7c-5.1-5.1-8.9-11.2-13.1-17c-0.9-6.7-1.8-13.4-2.1-20.2c-0.1-1.4,0.2-3.7,0.4-5.1
		c2.4-18.5,4-37.1,5.4-55.6c4.6-70.9,8.5-142.2,2.9-213.2c-1.1-10-2.2-20.3-5.5-29.9C312.7,550.6,312.9,550.6,312.9,550.6
		L312.9,550.6z"/>
</g>
<path class="st16" d="M393.8,533.6c-3.6-10.7-16.3-15.5-26-14c-16.1,2.6-27.1,23.7-21,35c6,11,28.5,12.7,40,2
	C392,551.7,396.8,542.5,393.8,533.6z"/>
<path class="st16" d="M539.3,523c-3.4-11-17.2-16.1-27-15.9c-22,0.4-41.5,27.7-36,40c5.7,12.8,40.8,15.3,56-1.1
	C533.1,545,542.8,534.3,539.3,523z"/>
<path class="st15" d="M505.3,447.1c-22.5,26.2-44.5,49.5-64,61c6.8,16.8,13.7,33.7,20.5,50.5c9.8-9.8,22.8-21.1,39.6-31.8
	c14.4-9.2,27.9-15.6,39.4-20.2c-8.3-12.3-16.7-24.7-25-37C512.3,462.1,508.8,454.6,505.3,447.1z"/>
<path class="st15" d="M366.6,451.3c22.5,26.2,44.5,49.5,64,61c-6.8,16.8-13.7,33.7-20.5,50.5c-13.1-10.3-26.3-21-39.6-31.8
	c-10.4-8.5-20.6-17-30.7-25.4c5.2-7.3,10.8-16.3,16-27C360.6,468.7,364.1,459.4,366.6,451.3z"/>
<path class="st17" d="M556.8,892.6c4.6,14.2,9.1,29.1,13.3,44.7c5.8,21.3,10.6,41.8,14.7,61.3l-8,311c3,7.3,6,14.7,9,22
	c-3.1,12.8-5,18-6,19c0,0-0.2,0.2-0.3,0.4c-0.7,1.5,1.5,4.1,4.3,6.6c-1.3,4-2.7,8-4,12c-8,17.3-6,45.1-2,75c6.3,19.8,10.8,45.3,2,61
	c-13.5,24-64.4,23.8-88,13c-3-2.3-18-30-18-30s12-34,14-36c0,0-2-56-9-72c-1.9-1.9-8.1-7.8-7-14c0.6-3.5,4-9,4-9
	c-9.2-7.1-9.2-16-9-25c3-11,6-22,9-33c-20-118-37-243-37-243c-17.7-0.7-35.3-1.3-53-2"/>
<path class="st17" d="M324.8,891.6c-9,35.3-18,70.7-27,106c-0.5,103.5,5.7,207.3,10,311c-2,8.7-4,17.3-6,26c3.7,7.7,7.3,15.3,11,23
	l-8,43.7l-3,37.3l-16,23l7,26l-7,17c0,0,6.2,12.6,9,15c19.4,17.1,88.7-1.1,92.5-2.1c4.2-10.3,8.3-20.6,12.5-30.9
	c-2.8-11.7-5.7-23.4-8.5-35.1c-0.7-13,0.6-23.2,1.9-30c4.6-24.5,3.8-43.1,10.2-64.9c3.2-10.9,6.6-19.6,9-25.1c-3-11-9-33-9-33
	c8.8-40.4,16.8-83.9,23.4-130.3c5.5-39,9.4-76.3,12.1-111.6c21.3-0.8,32-1.5,32-2c0-0.7-24.7-1.1-74-1"/>
<path class="st0" d="M314.8,930.6c82.6,4.6,166.3,5.2,252-2"/>
<g>
	<path d="M410.8,899.6c-0.3,12-0.7,24-1,36c21-0.3,42-0.7,63-1c-0.3-11.7-0.7-23.3-1-35C451.5,899.6,431.1,899.6,410.8,899.6z"/>
	<g>
		<path d="M409.3,899.6c-0.3,12-0.7,24-1,36c0,0.8,0.7,1.5,1.5,1.5c21-0.3,42-0.7,63-1c0.8,0,1.5-0.7,1.5-1.5
			c-0.3-11.7-0.7-23.3-1-35c0-0.8-0.7-1.5-1.5-1.5c-20.3,0-40.7,0-61,0c-1.9,0-1.9,3,0,3c20.3,0,40.7,0,61,0c-0.5-0.5-1-1-1.5-1.5
			c0.3,11.7,0.7,23.3,1,35c0.5-0.5,1-1,1.5-1.5c-21,0.3-42,0.7-63,1c0.5,0.5,1,1,1.5,1.5c0.3-12,0.7-24,1-36
			C412.4,897.7,409.4,897.7,409.3,899.6z"/>
	</g>
</g>
<g>
	<g>
		<path d="M365.4,896.1c-0.7,12.8-1.4,25.7-2.1,38.5c-0.1,1.9,2.9,1.9,3,0c0.7-12.8,1.4-25.7,2.1-38.5
			C368.5,894.2,365.5,894.2,365.4,896.1L365.4,896.1z"/>
	</g>
</g>
<g>
	<g>
		<path d="M353,896.3c-0.2,12.2-0.3,24.5-0.5,36.7c0,1.9,3,1.9,3,0c0.2-12.2,0.3-24.5,0.5-36.7C356,894.4,353,894.4,353,896.3
			L353,896.3z"/>
	</g>
</g>
<g>
	<g>
		<path d="M353,933.9c4.5,2,9.3,2.7,14.1,1.9c0.8-0.1,1.2-1.1,1-1.8c-0.2-0.9-1-1.2-1.9-1c-2.1,0.3-4.4,0.3-6.5,0
			c-1-0.2-2-0.4-3-0.7c-0.8-0.3-1.7-0.6-2.3-0.9c-0.7-0.3-1.6-0.2-2,0.5C352.1,932.5,352.3,933.6,353,933.9L353,933.9z"/>
	</g>
</g>
<g>
	<g>
		<path d="M370.1,895.5c-0.6-0.6-1.4-1.3-2.1-1.8c-0.6-0.3-1.3-0.3-1.9-0.3c-0.8,0-1.5,0-2.2-0.1c-3-0.1-6-0.2-9-0.3
			c-1.9-0.1-1.9,2.9,0,3c4.1,0.1,8.3,0.2,12.4,0.4c-0.2-0.1-0.5-0.1-0.8-0.2c0,0,0.1,0.1,0.2,0.1c-0.2-0.3,0.2,0.2,0.3,0.2
			c0.4,0.3,0.8,0.6,1.1,1C369.3,899,371.4,896.9,370.1,895.5L370.1,895.5z"/>
	</g>
</g>
<path class="st0" d="M353.8,932.6"/>
<g>
	<g>
		<path d="M497.3,899.6c0.7,11.7,1.3,23.3,2,35c0.1,1.9,3.1,1.9,3,0c-0.7-11.7-1.3-23.3-2-35C500.2,897.7,497.2,897.7,497.3,899.6
			L497.3,899.6z"/>
	</g>
</g>
<g>
	<g>
		<path d="M510.3,898.6c0.4,11.7,0.8,23.4,1.2,35.1c0.1,1.9,3.1,1.9,3,0c-0.4-11.7-0.8-23.4-1.2-35.1
			C513.2,896.7,510.2,896.7,510.3,898.6L510.3,898.6z"/>
	</g>
</g>
<g>
	<g>
		<path d="M512.8,932.1c-4.7,0.3-9.3,0.7-14,1c-0.8,0.1-1.5,0.7-1.5,1.5c0,0.8,0.7,1.6,1.5,1.5c4.7-0.3,9.3-0.7,14-1
			c0.8-0.1,1.5-0.7,1.5-1.5C514.3,932.8,513.6,932,512.8,932.1L512.8,932.1z"/>
	</g>
</g>
<g>
	<path class="st9" d="M456.3,939.2c-2.5,35.1-5,70.2-7.5,105.4"/>
	<g>
		<path class="st18" d="M454.8,939.2c-1.9,27.3-3.9,54.7-5.8,82c-0.5,7.8-1.1,15.6-1.6,23.4c-0.1,1.9,2.9,1.9,3,0
			c1.9-27.3,3.9-54.7,5.8-82c0.5-7.8,1.1-15.6,1.6-23.4C457.9,937.3,454.9,937.3,454.8,939.2L454.8,939.2z"/>
	</g>
</g>
<g>
	<path class="st9" d="M425.3,942.1c-3.5,35.5-7,71-10.5,106.5"/>
	<g>
		<path class="st18" d="M423.8,942.1c-2.7,27.8-5.5,55.5-8.2,83.2c-0.8,7.8-1.5,15.5-2.3,23.3c-0.2,1.9,2.8,1.9,3,0
			c2.7-27.8,5.5-55.5,8.2-83.2c0.8-7.8,1.5-15.5,2.3-23.3C427,940.2,424,940.2,423.8,942.1L423.8,942.1z"/>
	</g>
</g>
<g>
	<path class="st18" d="M349.1,948.9c-1,11.6-1.9,23.2-2.9,34.8c-0.1,1.6-0.3,3.2-0.9,4.6c-1.2,2.7-3.5,4.1-4,4.5
		c-3.5,2.4-16.8,15.2-37.5,35.8"/>
	<g>
		<path class="st18" d="M347.6,948.9c-0.7,9-1.5,17.9-2.2,26.8c-0.2,2.2-0.4,4.5-0.6,6.7c-0.2,2-0.2,4-1.2,5.8
			c-0.9,1.6-2.2,2.6-3.7,3.7c-2.4,1.8-4.7,4-6.9,6c-3.9,3.7-7.8,7.4-11.6,11.1c-6.3,6.1-12.5,12.3-18.7,18.5
			c-1.4,1.4,0.8,3.5,2.1,2.1c9.8-9.7,19.5-19.5,29.6-28.9c2.3-2.2,4.7-4.4,7.2-6.4c-0.3,0.2,0.1-0.1,0.2-0.2
			c0.2-0.1,0.4-0.3,0.6-0.4c1.1-0.8,2-1.6,2.9-2.7c2.5-3.3,2.4-7.5,2.8-11.4c0.8-10.3,1.7-20.5,2.5-30.8
			C350.7,946.9,347.7,947,347.6,948.9L347.6,948.9z"/>
	</g>
</g>
<g>
	<path class="st18" d="M526.4,939.9c0,8.2-0.1,16.3-0.1,24.5c0,1.3,0,2.8,0.9,3.9c0.7,0.8,1.8,1.2,2.8,1.6
		c12.2,4.1,24.3,8.2,36.4,12.3"/>
	<g>
		<path class="st18" d="M524.9,939.9c0,4.8,0,9.6-0.1,14.5c0,2.5,0,4.9,0,7.3c0,1.9-0.3,4.2,0.4,6c0.7,1.9,2.2,2.8,4,3.4
			c2.3,0.8,4.7,1.6,7,2.4c4.6,1.6,9.3,3.1,14,4.7c5.3,1.8,10.6,3.6,15.9,5.4c1.8,0.6,2.6-2.3,0.8-2.9c-8.8-3-17.5-5.9-26.3-8.9
			c-2.1-0.7-4.3-1.4-6.4-2.2c-1.1-0.4-2.2-0.8-3.3-1.1c-0.8-0.3-1.8-0.5-2.4-1.1c-1.2-1.2-0.7-4-0.7-5.5c0-2.2,0-4.4,0-6.6
			c0-5.2,0.1-10.3,0.1-15.4C527.9,938,524.9,938,524.9,939.9L524.9,939.9z"/>
	</g>
</g>
<path class="st19" d="M315.8,1066.6c-2.5,55.3,2.9,127.3,16,216"/>
<path class="st19" d="M334.8,1351.6c-6.3,42.7-9.6,85.3-10,128"/>
<g>
	<path class="st18" d="M559.8,1073.6c-0.7,92.7-1.3,185.3-2,278"/>
	<path class="st18" d="M560.3,1073.6c3.3,46.2,3.6,92.8,3.1,139c-0.6,46.2-1.8,92.9-5.1,139l-1,0c-3.7-69.4-3.9-139.1-2-208.5
		c0.4-10.1,0.9-24.8,1.5-34.7c0.6-11.6,1.3-23.2,2.4-34.7H560.3L560.3,1073.6z"/>
</g>
<path class="st19" d="M563.8,1391.6c-3.4,36.3-7,69.9-11,97c-11.2,15.7-26,22.7-42,27"/>
<g>
	<path class="st20" d="M502.7,486.4c-3.3,2.7-6.9,5-10.8,6.9c-1.5,0.7-3.1,1.4-4.2,2.6c-0.8,0.9-1.3,2.1-1.8,3.2
		c-4,9.4-8,18.8-12,28.2"/>
	<g>
		<path class="st20" d="M501.6,485.4c-3.3,2.7-6.9,4.9-10.8,6.8c-1.6,0.8-3.3,1.6-4.4,3c-1.3,1.6-2,3.6-2.7,5.5
			c-3.7,8.6-7.4,17.3-11,26c-0.3,0.8-0.2,1.6,0.5,2c0.6,0.4,1.7,0.2,2-0.5c3.6-8.5,7.2-17,10.9-25.5c0.8-1.8,1.4-4.1,2.7-5.6
			c1.2-1.4,3.1-2,4.7-2.8c3.7-1.8,7.1-4.1,10.3-6.7C505.2,486.3,503.1,484.1,501.6,485.4L501.6,485.4z"/>
	</g>
</g>
<g>
	<path class="st20" d="M361.3,484.6c2.6,0.1,5.4,0.2,7.7,1.5s4,4.1,3.1,6.6"/>
	<g>
		<path class="st20" d="M361.3,486.1c2.5,0.1,5.2,0.2,7.3,1.5c0.4,0.2,0.7,0.5,1.1,0.9c0.2,0.2,0.3,0.3,0.4,0.5
			c0.2,0.2,0.3,0.5,0.4,0.7c0,0,0,0.1,0.1,0.1c0-0.1,0-0.1,0,0c0,0.1,0.1,0.2,0.1,0.4c0,0.1,0.1,0.3,0.1,0.4c0,0,0.1,0.5,0,0.2
			c0,0.2,0,0.5,0,0.8c0,0.4,0.1-0.2,0,0.2c0,0.1-0.1,0.3-0.1,0.4c-0.2,0.8,0.3,1.6,1,1.9c0.8,0.2,1.6-0.3,1.9-1c1-3-0.7-6.1-3.1-7.8
			c-2.6-1.9-6.1-2.1-9.2-2.2c-0.8,0-1.5,0.7-1.5,1.5C359.8,485.5,360.4,486.1,361.3,486.1L361.3,486.1z"/>
	</g>
</g>
<g>
	<path d="M555.2,812.8c-1.7,11.3-7.1,21.2-13.5,30.5c-2.2,3-4.6,5.9-7.5,8.5l-0.9-0.5c2.4-13.3,10.8-30,21-39
		C554.4,812.4,555.2,812.8,555.2,812.8L555.2,812.8z"/>
</g>
<g>
	<path class="st20" d="M360.8,596.6c16.1,82.1,33.1,158.7,53,219"/>
	<path class="st20" d="M360.9,596.6c14,69,28.5,138.1,48.8,205.5c1.4,4.5,2.8,9,4.2,13.5l-0.2,0.1c-12-35.6-21.5-72-30-108.7
		C375.5,670.5,367.1,633,360.9,596.6L360.9,596.6z"/>
</g>
<g>
	<path class="st20" d="M338.8,824.6c24.3,33.5,56.9,50.2,92,62"/>
	<path class="st20" d="M338.9,824.5c21.6,29.2,51.7,47.2,85.3,59.5l6.6,2.4l-0.1,0.2l-6.7-2.2c-24.4-8.4-48.1-20.5-66.9-38.5
		c-6.9-6.5-13-13.7-18.5-21.3L338.9,824.5L338.9,824.5z"/>
</g>
<line class="st21" x1="528.8" y1="592.6" x2="487.8" y2="696.6"/>
<path class="st0" d="M140.3,32.1L140.3,32.1L140.3,32.1z"/>
<path class="st0" d="M494.8,482.6"/>
<path class="st0" d="M494.8,473.6"/>
<path class="st0" d="M498.8,472.6"/>
<g>
	<path class="st20" d="M452.9,612.9c3.9,2.2,8,3.9,12.2,5.2"/>
	<g>
		<path class="st20" d="M452.1,614.2c4,2.2,8.2,4,12.6,5.3c1.9,0.6,2.6-2.3,0.8-2.9c-4.1-1.3-8.1-3-11.9-5
			C451.9,610.7,450.4,613.3,452.1,614.2L452.1,614.2z"/>
	</g>
</g>
<g>
	<path class="st20" d="M456.9,667.5c1.4,0.5,2.9,1,4.3,1.5"/>
	<g>
		<path class="st20" d="M456.5,669c1.4,0.5,2.9,1,4.3,1.5c0.4,0.1,0.8,0,1.2-0.2c0.3-0.2,0.6-0.5,0.7-0.9c0.2-0.8-0.2-1.6-1-1.8
			c-1.4-0.5-2.9-1-4.3-1.5c-0.4-0.1-0.8,0-1.2,0.2c-0.3,0.2-0.6,0.5-0.7,0.9C455.3,668,455.7,668.7,456.5,669L456.5,669z"/>
	</g>
</g>
<g>
	<path class="st20" d="M456.6,720.6c2.6,0.6,5.1,1.5,7.6,2.4"/>
	<g>
		<path class="st20" d="M456.2,722.1c2.6,0.7,5.1,1.5,7.6,2.4c0.7,0.3,1.7-0.3,1.9-1c0.2-0.9-0.3-1.5-1-1.8c-2.5-1-5-1.8-7.6-2.4
			c-0.8-0.2-1.7,0.2-1.9,1C455,721,455.4,721.9,456.2,722.1L456.2,722.1z"/>
	</g>
</g>
<g>
	<path class="st22" d="M459.1,773.6c2.2,1.2,4.5,2.1,7,2.7"/>
	<g>
		<path class="st20" d="M458.4,774.9c2.3,1.2,4.8,2.2,7.3,2.8c0.8,0.2,1.7-0.2,1.9-1c0.2-0.8-0.2-1.7-1-1.8
			c-1.2-0.3-2.4-0.6-3.5-1.1c-0.3-0.1-0.5-0.2-0.8-0.3c0.3,0.1-0.2-0.1-0.2-0.1c-0.1,0-0.2-0.1-0.4-0.2c-0.6-0.3-1.1-0.5-1.7-0.8
			c-0.7-0.4-1.7-0.2-2,0.5C457.4,773.6,457.6,774.5,458.4,774.9L458.4,774.9z"/>
	</g>
</g>
<g>
	<path class="st20" d="M457.8,823.3c2.1,1.5,4.4,2.6,6.8,3.5"/>
	<g>
		<path class="st20" d="M457,824.6c2.2,1.5,4.6,2.7,7.2,3.7c0.7,0.3,1.7-0.3,1.9-1c0.2-0.8-0.3-1.6-1-1.8c-0.3-0.1-0.6-0.2-0.9-0.3
			c-0.1-0.1-0.3-0.1-0.5-0.2c0.3,0.2-0.1-0.1-0.2-0.1c-0.6-0.2-1.1-0.5-1.6-0.8c-1.1-0.6-2.2-1.2-3.2-2c-0.6-0.5-1.7-0.1-2,0.5
			C456.1,823.3,456.3,824.1,457,824.6L457,824.6z"/>
	</g>
</g>
<path class="st17" d="M607.3,518.2c-20.6-19.6-46.6-23-76.9-13.7c-1.2,2.9-2.4,5.9-3.6,8.8c25.5,0.8,51.5,3,79.3,11.8
	C606.5,522.8,606.9,520.5,607.3,518.2z"/>
<g>
	<path class="st20" d="M457.3,878.1c2.6,0.8,5.1,1.5,7.7,2.3"/>
	<g>
		<path class="st20" d="M456.9,879.5c2.6,0.8,5.1,1.5,7.7,2.3c0.8,0.2,1.7-0.3,1.9-1c0.2-0.8-0.2-1.6-1-1.8
			c-2.6-0.8-5.1-1.5-7.7-2.3c-0.8-0.2-1.7,0.3-1.9,1C455.6,878.5,456.1,879.3,456.9,879.5L456.9,879.5z"/>
	</g>
</g>
<g>
	<path class="st20" d="M436.7,538.6c9.1,97.5,13.1,200.8,10.1,309.4c-0.5,17.7-1.2,35.3-2,52.7"/>
	<path class="st20" d="M436.8,538.6c11.9,120,14.1,241.5,8.1,362l-0.2,0C450.4,780.2,446.6,658.1,436.8,538.6L436.8,538.6z"/>
</g>
<g>
	<path class="st20" d="M455.7,606.1c-0.3,8,9.4,12.1,14.8,6.2c3.2-3.3,3-9-0.4-12C465,595.4,455.9,598.9,455.7,606.1L455.7,606.1z
		 M453.9,606.1c-0.3-9.6,11.3-14.6,18-7.6c4,4,3.8,11.1-0.4,14.8C465.2,619.4,454.1,614.9,453.9,606.1L453.9,606.1z"/>
</g>
<g>
	<path class="st20" d="M455.7,659.1c-0.3,8,9.4,12.1,14.9,6.2c3.2-3.3,3-9.1-0.4-12.1C465,648.2,455.8,651.9,455.7,659.1
		L455.7,659.1z M453.9,659.1c-0.3-9.5,11.3-14.5,17.9-7.6c4,4,3.8,11-0.4,14.8C465.2,672.4,454.1,667.9,453.9,659.1L453.9,659.1z"/>
</g>
<g>
	<path class="st20" d="M456.8,712.1c-0.4,8,9.3,12.1,14.7,6.2c3.1-3.3,2.9-9-0.5-11.9C466.1,701.6,457,705.1,456.8,712.1
		L456.8,712.1z M454.8,712.1c-0.4-9.8,11.4-14.9,18.2-7.7c4,4.1,3.7,11.2-0.5,15C466.2,725.4,455,720.9,454.8,712.1L454.8,712.1z"/>
</g>
<g>
	<path class="st20" d="M456.9,765.1c-0.4,7.9,9.2,12.1,14.7,6.3c3.2-3.3,3-9.1-0.5-12C466.1,754.6,457.1,758.2,456.9,765.1
		L456.9,765.1z M454.7,765.1c-0.4-5.8,4.7-11.3,10.6-11c9.5,0.1,14,11.8,7.2,18.2C466.2,778.3,455,774,454.7,765.1L454.7,765.1z"/>
</g>
<g>
	<path class="st20" d="M456.7,816.1c-0.3,4.7,3.8,9.2,8.6,9c7.6-0.1,11.3-9.6,5.7-14.7C466,805.5,456.9,809,456.7,816.1L456.7,816.1
		z M454.9,816.1c-0.3-9.7,11.4-14.8,18.1-7.7c4,4.1,3.8,11.2-0.5,15C466.3,829.4,455.1,824.8,454.9,816.1L454.9,816.1z"/>
</g>
<g>
	<path class="st20" d="M457,869.1c-0.4,4.5,3.5,9.2,8.3,9c7.6,0,11.3-9.7,5.6-14.6C466.1,859,457.3,862.4,457,869.1L457,869.1z
		 M454.6,869.1c-0.5-7.9,7.7-13.8,15-10.4c6.9,3,8.5,12.7,2.9,17.6C466.2,882.3,454.9,877.9,454.6,869.1L454.6,869.1z"/>
</g>
<g>
	<path class="st20" d="M543.5,793.3c-14.6,6.3-29.8,11.4-45.2,15.3c3.1,8.6,4.7,17.7,4.8,26.8"/>
	<g>
		<path class="st20" d="M542.8,792c-14.5,6.3-29.5,11.3-44.9,15.1c-0.7,0.2-1.3,1.1-1,1.8c3,8.5,4.6,17.4,4.7,26.5c0,1.9,3,1.9,3,0
			c-0.1-9.3-1.7-18.5-4.8-27.2c-0.4,0.6-0.7,1.2-1,1.8c15.6-3.9,30.8-9,45.6-15.4C546,793.8,544.5,791.2,542.8,792L542.8,792z"/>
	</g>
</g>
<g>
	<path class="st20" d="M508.3,695.1c10,0,20,0,30,0"/>
	<g>
		<path class="st20" d="M508.3,696.6c10,0,20,0,30,0c1.9,0,1.9-3,0-3c-10,0-20,0-30,0C506.3,693.6,506.3,696.6,508.3,696.6
			L508.3,696.6z"/>
	</g>
</g>
<g>
	<path class="st22" d="M594.9,525c-8,8.9-15.9,17.9-23.6,27.1"/>
	<g>
		<path class="st20" d="M593.8,524c-8,8.9-15.9,17.9-23.6,27.1c-1.2,1.5,0.9,3.6,2.1,2.1c7.7-9.2,15.6-18.2,23.6-27.1
			C597.2,524.7,595.1,522.5,593.8,524L593.8,524z"/>
	</g>
</g>
<g>
	<path class="st20" d="M321.8,511.6c10.3,2.8,20.7,5.2,31.2,7.4"/>
	<g>
		<path class="st20" d="M321.4,513c10.3,2.8,20.7,5.2,31.2,7.4c1.9,0.4,2.7-2.5,0.8-2.9c-10.5-2.2-20.9-4.6-31.2-7.4
			C320.3,509.6,319.5,512.5,321.4,513L321.4,513z"/>
	</g>
</g>
<path class="st17" d="M278.4,512.1c17-15.2,38.5-17.8,63.6-10.6c1,2.3,2,4.6,3,6.8c-21.1,0.6-42.6,2.4-65.6,9.1
	C279.1,515.6,278.7,513.9,278.4,512.1z"/>
<path class="st0" d="M132.8,45.4L132.8,45.4L132.8,45.4z"/>
<path class="st23" d="M432.7,538.6"/>
<path class="st15" d="M401.1,610.4c0.8,19.3,1.6,38.6,2.4,58c-17.9,16.3-43.2,5.5-67.6-1.6c-2.9-19.4-3.2-38.7-2.4-58
	C356,609.4,378.6,609.9,401.1,610.4z"/>
<path class="st24" d="M398.4,616.7c-7.8,16.7-10.3,33.5,2,51"/>
<path class="st15" d="M400.7,608.6c-2.2-10.8-62.8-12.9-67,0c-2,6.1,8.8,15.5,17.8,19.2C374.8,637.4,402.3,616.4,400.7,608.6z"/>
<path class="st15" d="M485.4,605.9c-0.8,19.3-1.6,38.6-2.4,58c17.9,16.3,43.2,5.5,67.6-1.6c2.8-19.4,3.2-38.7,2.4-58
	C530.5,604.8,508,605.4,485.4,605.9z"/>
<path class="st24" d="M488.2,615.2c7.8,16.7,10.3,33.5-2,51"/>
<path class="st25" d="M630.1,605.6c-4.3,0.4-9.3,1.2-14.8,2.7c-12.2,3.3-21.2,8.9-27.1,13.2c6.1,22.2,7.2,45.1,43,63.6
	c3.5-7.3,8.3-19.9,8.8-36C634.6,628.2,630.9,613,630.1,605.6z"/>
<path class="st26" d="M629.7,607.6c-3.9,0.4-8.5,1.1-13.4,2.5c-11,3.2-19.3,8.4-24.6,12.5c5.5,21,6.6,42.6,39,60
	c3.2-6.9,7.6-18.7,8-34C633.8,628.9,630.4,614.5,629.7,607.6z"/>
<path class="st27" d="M613.5,651.7c-0.3,0.1,2.9,17.9,10.6,18.9c4.5,0.6,8.2-5,8.5-5.6c4.5-7.1,0.5-16.2,0-16.2
	c-0.4,0,1.6,6.6-1.8,11.3c-1.8,2.5-5.3,4.6-8.6,3.9C616.1,662.7,613.8,651.6,613.5,651.7z"/>
<polygon class="st28" points="626,636.6 613.8,640.9 617.5,629.8 "/>
<polygon class="st28" points="612.2,634.2 624.5,630.6 620.3,641.4 "/>
<g>
	<g>
		<path d="M540.3,215.4c13.9,9.1,23.4,23,31.4,37.2c2.3,4.1,4.5,8.3,6.8,12.4c0-0.1,0-0.7,0-0.7c0-0.6,0-1.2,0-1.8s0-1.2,0-1.8
			c0-0.2,0.1-0.6,0-0.7c-7.7-14.5-15.6-29.3-27.4-40.9c-3.3-3.2-6.9-6.2-10.8-8.7c0.2,0.1,0,2.2,0,2.5
			C540.3,213.3,540.1,215.3,540.3,215.4L540.3,215.4z"/>
	</g>
</g>
<path class="st15" d="M485.8,604.1c2.2-10.8,62.8-12.9,67,0c2,6.1-8.8,15.5-17.8,19.2C511.8,632.9,484.2,611.9,485.8,604.1z"/>
<circle class="st29" cx="522.4" cy="647.8" r="18.5"/>
<circle class="st30" cx="522.4" cy="647.8" r="17.5"/>
<polygon class="st28" points="535.4,649.7 513.7,655.6 521.4,636.8 "/>
<polygon class="st28" points="511.6,643.8 533.6,639 524.9,657.4 "/>
<ellipse class="st31" cx="618.9" cy="635.8" rx="10" ry="10.5"/>
<g>
	<path class="st32" d="M466.2,335.8c-2.5-4.1-2.3-8.1-2.1-11.5c0.1-1.5,0.5-11.2,6.4-17c11.4-11.1,45.3-10.9,58,4.3
		c5.7,6.8,8,17.6,1.5,26.1c-9,11.7-28.8,10.8-33.6,10.6C493.7,348.2,473,347.1,466.2,335.8z"/>
	<path class="st33" d="M533.7,339.3c0.3-2.5,2.3-19.7-10.6-31c-15.9-13.8-45-10.3-56,2.9c-2.8,3.4-4.2,7.1-4.8,10.2"/>
	<circle class="st34" cx="492.6" cy="322.8" r="12.2"/>
	<circle class="st32" cx="498.3" cy="319.1" r="4.8"/>
	<path class="st32" d="M403.7,335.6c2.3-4.2,2-8.2,1.7-11.6c-0.1-1.5-0.9-11.1-7.1-16.8c-11.8-10.7-45.6-9.1-57.8,6.5
		c-5.4,7-7.4,17.9-0.5,26.1c9.5,11.3,29.2,9.7,34,9.3C376.7,349.1,397.3,347.2,403.7,335.6z"/>
	<circle class="st34" cx="376.7" cy="323.6" r="12.2"/>
	<circle class="st32" cx="382.9" cy="319.9" r="4.8"/>
	<path class="st0" d="M343.2,343c3.1,1.5,28.9,13.2,50,0c5.2-3.3,9-7.3,11.8-11.2"/>
	<path class="st35" d="M391.7,286c-23.8-0.3-45.8,4-64.7,15.2"/>
	<path class="st35" d="M473.7,284.4c23.8-1.2,45.9,2.2,65.3,12.7"/>
	<path class="st33" d="M335.5,340.3c-0.4-2.5-3.1-19.6,9.4-31.3c15.4-14.4,44.5-12,56,0.8c3,3.3,4.4,6.9,5.2,10"/>
	<path class="st0" d="M527,341.4c-3,1.6-28.4,14.3-50,2c-5.3-3-9.3-7-12.2-10.8"/>
</g>
<path class="st0" d="M540.9,326.3c-0.2,6.2-1.1,13.5-4,21.3c-0.5,1.5-1.1,2.9-1.7,4.3c0,0-41.8,13.5-79.8-2.6
	c-0.8-6.7-1.7-13.3-2.5-20c-11.3,0-22.7,0-34,0"/>
<path class="st0" d="M328.4,326.3c0.2,6.2,1.1,13.5,3.9,21.3c0.5,1.5,1.1,2.9,1.7,4.3c0,0,41.8,13.5,79.8-2.6
	c0.8-6.7,1.7-13.3,2.5-20c11.3,0,22.7,0,34,0"/>
<path class="st36" d="M541.1,325.8c-0.2,6.2-1.1,13.5-4,21.3c-0.5,1.5-1.1,2.9-1.7,4.3c0,0-41.8,13.5-79.8-2.6
	c-0.8-6.7-1.7-13.3-2.5-20c-11.3,0-22.7,0-34,0"/>
<path class="st36" d="M328.1,325.8c0.2,6.2,1.1,13.5,3.9,21.3c0.5,1.5,1.1,2.9,1.7,4.3c0,0,41.8,13.5,79.8-2.6
	c0.8-6.7,1.7-13.3,2.5-20c11.3,0,22.7,0,34,0"/>
<g class="st37">
	<g>
		<path class="st38" d="M530.4,325.8c-11.7,8.3-23.3,16.7-35,25c-0.1,0.1,0,1.6,0,1.5c0,1.2,0,2.4,0,3.5c0,1.2,0,2.4,0,3.5
			c0,0.2,0.1,1.4,0,1.5c11.7-8.3,23.3-16.7,35-25c0.1-0.1,0-1.6,0-1.5c0-1.2,0-2.4,0-3.5c0-1.2,0-2.4,0-3.5
			C530.4,327.1,530.3,325.9,530.4,325.8L530.4,325.8z"/>
	</g>
</g>
<g class="st37">
	<g>
		<path class="st38" d="M493.9,325.8c-10,8.3-20,16.7-30,25c-0.2,0.2,0,2.1,0,2.5s0.3,2.3,0,2.5c10-8.3,20-16.7,30-25
			c0.2-0.2,0-2.1,0-2.5S493.6,326,493.9,325.8L493.9,325.8z"/>
	</g>
</g>
<g class="st37">
	<g>
		<path class="st38" d="M405.6,324.6c-11.7,8.3-23.3,16.7-35,25c-0.1,0.1,0,1.6,0,1.5c0,1.2,0,2.4,0,3.5c0,1.2,0,2.4,0,3.5
			c0,0.2,0.1,1.4,0,1.5c11.7-8.3,23.3-16.7,35-25c0.1-0.1,0-1.6,0-1.5c0-1.2,0-2.4,0-3.5c0-1.2,0-2.4,0-3.5
			C405.7,325.8,405.5,324.6,405.6,324.6L405.6,324.6z"/>
	</g>
</g>
<g class="st37">
	<g>
		<path class="st38" d="M369.1,324.6c-10,8.3-20,16.7-30,25c-0.2,0.2,0,2.1,0,2.5s0.3,2.3,0,2.5c10-8.3,20-16.7,30-25
			c0.2-0.2,0-2.1,0-2.5S368.9,324.8,369.1,324.6L369.1,324.6z"/>
	</g>
</g>
<path class="st0" d="M404.6,410.8c19.8,8.6,39.7,9.7,59.5,0.5"/>
</svg>
