<?xml version="1.0" encoding="utf-8"?>
<!-- Generator: Adobe Illustrator 28.3.0, SVG Export Plug-In . SVG Version: 6.00 Build 0)  -->
<svg version="1.1" id="Layer_1" xmlns="http://www.w3.org/2000/svg" xmlns:xlink="http://www.w3.org/1999/xlink" x="0px" y="0px"
	 viewBox="0 0 875 1859" style="enable-background:new 0 0 875 1859;" xml:space="preserve">
<style type="text/css">
	.st0{fill:none;stroke:#000000;stroke-miterlimit:10;}
	.st1{fill:#20382B;stroke:#000000;stroke-miterlimit:10;}
	.st2{fill:#FFE3CB;stroke:#000000;stroke-miterlimit:10;}
	.st3{fill:#426646;}
	.st4{fill:#FFB995;}
	.st5{fill:#E29E3B;stroke:#000000;stroke-miterlimit:10;}
	.st6{fill:#E29E3B;}
	.st7{fill:none;stroke:#FFB995;stroke-miterlimit:10;}
	.st8{fill:#1E2722;stroke:#000000;stroke-miterlimit:10;}
	.st9{fill:#20382B;}
	.st10{fill:#FFB995;stroke:#FFB995;stroke-miterlimit:10;}
	.st11{fill:#FFB995;stroke:#000000;stroke-width:0.5;stroke-miterlimit:10;}
	.st12{fill:#FFE3CB;}
	.st13{fill:#426646;stroke:#000000;stroke-miterlimit:10;}
	.st14{fill:#FFFFFF;stroke:#000000;stroke-miterlimit:10;}
	.st15{fill:#20382B;stroke:#20382B;stroke-width:3;stroke-miterlimit:10;}
	.st16{fill:#20382B;stroke:#20382B;stroke-miterlimit:10;}
	.st17{fill:#BC6F22;}
	.st18{fill:#3C3B51;stroke:#000000;stroke-width:3;stroke-miterlimit:10;}
	.st19{fill:none;stroke:#000000;stroke-width:13;stroke-miterlimit:10;}
	.st20{fill:#576C9E;}
	.st21{fill:#FFFFFF;}
	.st22{fill:none;stroke:#000000;stroke-width:4;stroke-miterlimit:10;}
	.st23{stroke:#000000;stroke-miterlimit:10;}
	.st24{fill:none;stroke:#000000;stroke-width:3;stroke-miterlimit:10;}
</style>
<path class="st0" d="M389.35,1278.17"/>
<path class="st1" d="M360.5,458.86c47.91-1.33,95.82-2.67,143.73-4c-1.4,36.83-32.91,66.41-70.82,67
	C396.17,522.44,364.05,494.88,360.5,458.86z"/>
<path class="st2" d="M496.94,412.86c2.74,23.55-6.25,13-8.33,90c-3.06,9.27-9.34,25.81-22.91,43c-10.44,13.22-19.43,24.6-31.25,25
	c-19.71,0.66-34.95-29.65-41.66-43c-14.08-28-6.25-64-11.46-106C403.25,395.62,452.87,388.96,496.94,412.86z"/>
<g>
	<path class="st3" d="M569.06,915.91c2.32-4.29,7.46-15.17,1.63-22.05c-4.02-4.74-11.49-5.52-14.17-5.8
		c-64.89-6.94-14.5-12.05-107.25-13.56c-47.87-0.78-98.23-0.96-140.24,18.47c-2.12,0.98-4.31,2.08-5.55,3.84
		c-1.06,1.49-1.3,3.28-1.51,5.02c-3.72,30.51-3.89,61.33-0.51,91.87c0.93,8.37,2.15,16.83,5.72,24.68
		c5.14,11.31,14.79,20.66,24.26,29.75c4.66,4.47,9.53,9.08,15.99,11.46c7.46,2.74,15.94,2.14,24.07,2.42
		c11.84,0.41,23.45,2.81,35.23,3.85c11.78,1.05,24.25,0.62,34.64-4.19c6.97-3.23,12.53-8.21,17.97-13.11
		c15.6-14.04,31.22-28.12,45.05-43.43c4.94-5.47,9.65-11.11,15.31-16.05c6.41-5.6,13.95-10.25,19.9-16.21
		c7.37-7.37,11.95-16.39,16.44-25.26c4.3-8.52,9.61-20.32,13.96-35.05"/>
</g>
<g>
	<path class="st4" d="M385.93,421.36c11.99-6.42,36.45-17.3,68.33-16.11c16.83,0.63,30.72,4.43,40.67,8.11c-2,15-4,30-6,45
		c0,0-23.03,18.75-36.31,22.96c-17.24,5.47-32.91,4.91-46.59,4.21c-8.43-0.43-15.37-1.39-20.1-2.18"/>
</g>
<path class="st5" d="M578.1,304.17c18.2-27.54,18.94-56.75,19-61c0.83-63.46-55.75-107.19-59.36-109.9
	c-9.16-6.87-26.82-18.57-59.58-27.36c0,0-3.31-0.91-6.97-1.78c-58.04-13.81-116.09-5.79-116.09-5.79
	c-59.57,8.24-105.14,33.13-104,36.83c1.25,4.05,57.99-19.41,129.83-1.43c0.2,0.05,0.36,0.09,0.49,0.12c-10.92-5.08-26.96-10.06-45-7
	c-35.93,6.1-65.83,41.72-73.33,89.31c-1.28,18.09-1.2,55.74,21.84,91.27c0,0,10.47,13,21.48,25.42
	C376.43,411.81,532.94,372.52,578.1,304.17z"/>
<path class="st2" d="M281.43,294.86c-10.38,4.58-10.06,25.47-10,28c1.09,43.16,55.54,68.45,59,70c12.05,5.4,24.6,11.04,30,6
	c10.43-9.73-12.72-52.96-40-81C311.03,308.2,293.06,289.73,281.43,294.86z"/>
<path class="st2" d="M584.85,295.3c10.38,4.58,10.06,25.47,10,28c-1.09,43.16-55.54,68.45-59,70c-12.05,5.4-24.6,11.04-30,6
	c-10.43-9.73,12.72-52.96,40-81C555.25,308.64,573.22,290.17,584.85,295.3z"/>
<path class="st2" d="M307.43,279.86c3,48,28,110,28,110s9,45,99,83c15.38-5.65,63.48-25.54,97-78c21-54,31.35-104.69,30-121
	c-9.02-56.66-54.24-130.14-123-132C366.2,139.91,315.06,218.26,307.43,279.86z"/>
<path class="st0" d="M307.43,329.74"/>
<path class="st6" d="M572.43,283.86c16.73-14.19-7.66-108.46-76-144c-65.01-33.81-154.86-6.63-191,51
	c-20.21,32.23-27.97,79.73-11,92c5.46,3.95,11.23,0.28,47.1-13.71c56.67-22.11,71.85-25.07,84.9-26.29
	c19.23-1.8,34.34,0.14,41.3,1.25c13.72,2.19,27.61,6.44,43.88,13.56c18.83,11.38,37.07,35.73,54.57,29.82
	C566.88,287.24,569.96,285.95,572.43,283.86z"/>
<path class="st7" d="M283.43,308.86c-1.18,3.76-3.06,11.56-1,21c1.38,6.34,4.03,11.08,6,14"/>
<path class="st7" d="M584.53,307.69c1.18,3.76,3.06,11.56,1,21c-1.38,6.34-4.03,11.08-6,14"/>
<path class="st8" d="M374.36,1525.86c0,0-11.22,47.39-7.1,99c3.92,49.02,26.25,90.39,29.57,120c1.46,25.38,1.35,49.01-4.73,66
	c-9.57,5.12-37.79,18.74-76.31,16.43c-30.6-1.84-52.38-12.81-62.06-18.43c-1.84-6.42-4.09-16.11-4.73-28
	c-1.07-19.88,3.02-34.07,9.46-57c3.53-12.58,9.29-33.18,17.74-64c2.09-44.7,0.56-87.89-5.91-129
	C302.81,1536.84,337.86,1533.91,374.36,1525.86z"/>
<path class="st0" d="M380.27,1753.86c-30.92-29.43-102.9-20-114.72,1"/>
<path class="st0" d="M250.17,1791.86c48.48,18.4,96.98,18.89,145.47,1"/>
<path class="st8" d="M496.18,1525.86c1.75,21.25,3.08,43.26,3.88,66.01c0.66,18.83,0.92,37.17,0.85,54.99
	c-9.1,32.51-18.21,65.01-27.31,97.52c0,0-1.35,49.01,4.73,66c9.57,5.12,37.79,18.74,76.31,16.43c30.6-1.84,52.38-12.81,62.06-18.43
	c1.84-6.42,4.09-16.11,4.73-28c1.07-19.88-3.02-34.07-9.46-57c-3.53-12.58-9.29-33.18-17.74-64c-0.63-21.14-0.76-43.11-0.26-65.85
	c0.58-26.29,1.95-51.55,3.91-75.67c-7.64,4.51-24.43,13.14-48.29,15.28C524.24,1535.41,504.68,1529.11,496.18,1525.86z"/>
<path class="st0" d="M490.15,1753.38c30.92-29.43,102.9-20,114.72,1"/>
<path class="st0" d="M620.25,1791.38c-48.48,18.4-96.98,18.89-145.47,1"/>
<g>
	<path class="st9" d="M363.77,1667.03c2.79,16.03,6.37,31.95,10.72,47.73"/>
	<g>
		<path class="st9" d="M359.43,1668.23c2.8,16.07,6.39,32,10.72,47.73c0.63,2.27,3.22,3.89,5.54,3.14c2.32-0.75,3.81-3.1,3.14-5.54
			c-4.34-15.73-7.92-31.66-10.72-47.73c-0.41-2.32-3.38-3.84-5.54-3.14C360.07,1663.5,358.99,1665.73,359.43,1668.23L359.43,1668.23
			z"/>
	</g>
</g>
<g>
	<path class="st9" d="M583.85,1671.67c6.4,16.13,12.8,32.27,19.19,48.4"/>
	<g>
		<path class="st9" d="M579.51,1672.87c6.4,16.13,12.8,32.27,19.19,48.4c0.86,2.18,3.05,3.95,5.54,3.14
			c2.11-0.68,4.07-3.19,3.14-5.54c-6.4-16.13-12.8-32.27-19.19-48.4c-0.86-2.18-3.05-3.95-5.54-3.14
			C580.54,1668.02,578.58,1670.52,579.51,1672.87L579.51,1672.87z"/>
	</g>
</g>
<g>
	<g>
		<path class="st9" d="M332.51,1750.67c1.97,0.55,3.92,1.17,5.85,1.84c1.02,0.36,2.04,0.74,3.05,1.14c0.38,0.15,0.75,0.3,1.13,0.45
			c0.25,0.1,0.5,0.21,0.75,0.31c-0.45-0.19-0.44-0.18,0.04,0.02c3.66,1.64,7.21,3.44,10.63,5.52c2.01,1.22,5.04,0.51,6.16-1.61
			c1.16-2.19,0.54-4.85-1.61-6.16c-7.33-4.46-15.34-7.86-23.6-10.19c-2.26-0.64-5,0.78-5.54,3.14
			C328.82,1747.53,330.08,1749.99,332.51,1750.67L332.51,1750.67z"/>
	</g>
</g>
<g>
	<g>
		<path class="st9" d="M555.9,1753.8c1.38,0.01,2.75,0.07,4.13,0.17c0.65,0.05,1.3,0.11,1.95,0.18c-0.03,0,1.21,0.15,0.69,0.08
			c-0.54-0.07,0.59,0.09,0.69,0.11c2.7,0.42,5.36,1.03,7.97,1.83c1.22,0.37,2.43,0.79,3.63,1.24c0.33,0.13,0.66,0.26,0.99,0.39
			c0.27,0.11,0.88,0.38,0.29,0.12c0.58,0.25,1.15,0.51,1.72,0.79c2.44,1.16,4.77,2.52,7,4.04c1.95,1.34,5.08,0.43,6.16-1.61
			c1.21-2.29,0.46-4.73-1.61-6.16c-9.79-6.72-21.78-10.07-33.6-10.18c-2.35-0.02-4.61,2.09-4.5,4.5
			C551.51,1751.76,553.38,1753.78,555.9,1753.8L555.9,1753.8z"/>
	</g>
</g>
<line class="st10" x1="440.43" y1="324.86" x2="427.43" y2="332.86"/>
<line class="st10" x1="441.43" y1="329.86" x2="420.43" y2="342.86"/>
<line class="st10" x1="446.43" y1="332.86" x2="419.43" y2="349.86"/>
<line class="st10" x1="448.43" y1="338.86" x2="420.43" y2="355.86"/>
<line class="st10" x1="451.43" y1="342.86" x2="422.43" y2="359.86"/>
<path class="st11" d="M434.43,369.36c-0.17,4-0.33,8-0.5,12c-1.83-1.67-3.67-3.33-5.5-5"/>
<g>
	<g>
		<path class="st4" d="M340.36,358.65c-0.61,0.82-1.22,1.63-1.83,2.45c-0.11,0.17-0.17,0.36-0.18,0.56c-0.04,0.2-0.04,0.4,0.03,0.6
			c0.1,0.35,0.36,0.73,0.69,0.9c0.35,0.18,0.77,0.28,1.16,0.15c0.12-0.05,0.24-0.1,0.36-0.15c0.23-0.13,0.4-0.31,0.54-0.54
			c0.61-0.82,1.22-1.63,1.83-2.45c0.11-0.17,0.17-0.36,0.18-0.56c0.04-0.2,0.04-0.4-0.03-0.6c-0.1-0.35-0.36-0.73-0.69-0.9
			c-0.35-0.18-0.77-0.28-1.16-0.15c-0.12,0.05-0.24,0.1-0.36,0.15C340.67,358.24,340.49,358.42,340.36,358.65L340.36,358.65z"/>
	</g>
</g>
<g>
	<g>
		<path class="st4" d="M344.31,361.38c-0.2,0.31-0.41,0.61-0.61,0.92c-0.11,0.17-0.17,0.36-0.18,0.56c-0.04,0.2-0.04,0.4,0.03,0.6
			c0.05,0.2,0.14,0.37,0.27,0.51c0.11,0.16,0.25,0.29,0.42,0.39c0.12,0.05,0.24,0.1,0.36,0.15c0.27,0.07,0.53,0.07,0.8,0
			c0.12-0.05,0.24-0.1,0.36-0.15c0.23-0.13,0.4-0.31,0.54-0.54c0.2-0.31,0.41-0.61,0.61-0.92c0.11-0.17,0.17-0.36,0.18-0.56
			c0.04-0.2,0.04-0.4-0.03-0.6c-0.05-0.2-0.14-0.37-0.27-0.51c-0.11-0.16-0.25-0.29-0.42-0.39c-0.12-0.05-0.24-0.1-0.36-0.15
			c-0.27-0.07-0.53-0.07-0.8,0c-0.12,0.05-0.24,0.1-0.36,0.15C344.62,360.98,344.44,361.16,344.31,361.38L344.31,361.38z"/>
	</g>
</g>
<g>
	<g>
		<path class="st4" d="M513.8,361.23c0,0.51,0,1.02,0,1.53c-0.01,0.21,0.04,0.4,0.13,0.58c0.06,0.19,0.16,0.35,0.31,0.48
			c0.14,0.15,0.3,0.25,0.48,0.31c0.18,0.09,0.37,0.14,0.58,0.13c0.13-0.02,0.27-0.04,0.4-0.05c0.25-0.07,0.47-0.2,0.66-0.39
			c0.27-0.29,0.44-0.65,0.44-1.06c0-0.51,0-1.02,0-1.53c0.01-0.21-0.04-0.4-0.13-0.58c-0.06-0.19-0.16-0.35-0.31-0.48
			c-0.14-0.15-0.3-0.25-0.48-0.31c-0.18-0.09-0.37-0.14-0.58-0.13c-0.13,0.02-0.27,0.04-0.4,0.05c-0.25,0.07-0.47,0.2-0.66,0.39
			C513.97,360.46,513.8,360.82,513.8,361.23L513.8,361.23z"/>
	</g>
</g>
<g>
	<g>
		<path class="st4" d="M518.35,360.04c0.01,0.01,0.02,0.03,0.04,0.04c-0.08-0.1-0.16-0.2-0.23-0.3c0.24,0.32,0.44,0.66,0.6,1.03
			c-0.05-0.12-0.1-0.24-0.15-0.36c0.17,0.4,0.28,0.82,0.34,1.26c-0.02-0.13-0.04-0.27-0.05-0.4c0.05,0.38,0.05,0.76,0.01,1.13
			c-0.04,0.36,0.2,0.82,0.44,1.06c0.26,0.26,0.69,0.46,1.06,0.44c0.39-0.02,0.79-0.14,1.06-0.44c0.08-0.1,0.16-0.2,0.23-0.3
			c0.14-0.23,0.2-0.49,0.2-0.76c0.08-0.75,0-1.53-0.21-2.25c-0.12-0.4-0.28-0.8-0.47-1.18c-0.2-0.4-0.47-0.74-0.74-1.09
			c-0.22-0.28-0.72-0.44-1.06-0.44c-0.37,0-0.81,0.16-1.06,0.44c-0.26,0.29-0.46,0.66-0.44,1.06c0.02,0.13,0.04,0.27,0.05,0.4
			C518.03,359.63,518.16,359.85,518.35,360.04L518.35,360.04z"/>
	</g>
</g>
<path class="st12" d="M211.56,942.86c-9.71-22.98-48.83-35.47-60.41-25c-6.83,6.18-0.4,17.04,7.81,51.5
	c15.29,64.16,8.12,94.41,29.68,104.5c1.98,0.93,10.97,5.13,17.19,1.5c13.7-8-7.43-41.56,0.52-91.5
	C210.03,960.76,216.62,954.83,211.56,942.86z"/>
<path class="st2" d="M205.31,1082.86c0,0,28.12,14,34.37,14c1.78-1.44,2.1-4.02,1.94-6.32c0,0,0.04-2.36-0.9-4.68
	c-1.61-4-13.54-9-13.54-9c-8.04-3.34-11.16-3.63-13.54-7c-1.51-2.13-2.08-6-2.08-6"/>
<path class="st2" d="M147.51,921.36c0.76,21.69-10.97,95.94-14.58,96c0,0,21.13,46.84,29.16,71l73.95,19c0.48-2,0.61-3.84,0.52-5.5
	c-0.94-16.92-25.35-26.9-28.12-28"/>
<path class="st2" d="M211.56,954.86c4.17,29-1.04,61-1.04,61c1.28,15.69,2.61,31.33,8.33,41c-1.8,6.5-7.4,7.99-15.62,6
	c-7.06-5.51-11.66-22.27-15.62-42c0,0-20.01-9.78-20.23-9.37c-0.02,0.04,0.13,0.16,0.45,0.37"/>
<path class="st2" d="M162.61,1022.86c7.42,15,13.83,30,18.75,45"/>
<path class="st12" d="M656.31,955.21c9.71-22.98,48.83-35.47,60.41-25c6.83,6.18,0.4,17.04-7.81,51.5
	c-15.29,64.16-8.12,94.41-29.68,104.5c-1.98,0.93-10.97,5.13-17.19,1.5c-13.7-8,7.43-41.56-0.52-91.5
	C657.84,973.11,651.25,967.18,656.31,955.21z"/>
<path class="st2" d="M662.56,1095.21c0,0-28.12,14-34.37,14c-1.78-1.44-2.1-4.02-1.94-6.32c0,0-0.04-2.36,0.9-4.68
	c1.61-4,13.54-9,13.54-9c8.04-3.34,11.16-3.63,13.54-7c1.51-2.13,2.08-6,2.08-6"/>
<path class="st2" d="M720.36,933.71c-0.76,21.69,10.97,95.94,14.58,96c0,0-21.13,46.84-29.16,71l-73.95,19
	c-0.48-2-0.61-3.84-0.52-5.5c0.94-16.92,25.35-26.9,28.12-28"/>
<path class="st2" d="M656.31,967.21c-4.17,29,1.04,61,1.04,61c-1.28,15.69-2.61,31.33-8.33,41c1.8,6.5,7.4,7.99,15.62,6
	c7.06-5.51,11.66-22.27,15.62-42c0,0,20.01-9.78,20.23-9.37c0.02,0.04-0.13,0.16-0.45,0.37"/>
<path class="st2" d="M705.26,1035.21c-7.42,15-13.83,30-18.75,45"/>
<path class="st13" d="M518.07,510.8c32.98,6,65.96,12,98.95,18c8.07,21.46,11.43,43.27,14.28,65.05
	c14.45,110.47,64.03,208.21,85.41,297c12.1,29.33,20.1,58.66,18.75,88c-26.14,45.84-59.53,44.47-94.78,31
	c-26.38-130.27-67.82-261.25-90.61-392"/>
<path class="st13" d="M373,506.86c-32.98,6-65.96,12-98.95,18c-8.14,24.9-16.14,50.24-23.96,76c-18.35,60.47-34.58,119.53-48.95,177
	c-14.22,31.92-28.16,66.91-41.02,104.86c-8.69,25.65-16.13,50.42-22.51,74.14c3.55,6.84,15.52,27.7,41.66,39
	c15.85,6.85,30.33,7.34,38.54,7c37.84-132,75.68-264,113.53-396"/>
<g>
	<path class="st3" d="M277.95,557.86c-9.97,160.74-12.39,278.09-8.85,298.31c3.55,20.25,14.51,33.37,14.51,33.37
		c3.6,4.31,7.18,7.36,9.73,9.32c20.4,2.43,42.34,4.55,65.7,6.12c10.1,0.68,38.85,2.51,74.17,2.88c35.78,0.38,86.05-0.65,147.89-6.69
		c6-7,12-14,18-21c1.51-15.15,2.84-30.48,4-46c7.48-100.49,6.36-195.6-0.5-284.31"/>
	<path d="M278.07,557.87c-5.29,94.11-11.37,188.38-10.01,282.68c0.26,6.96,0.5,14,2.28,20.76c3.61,14.34,11.17,28.63,23.03,37.43
		c65.6,7.95,131.81,10.5,197.83,7.91c30.01-1.05,60-2.69,89.9-5.6c-0.27,0.28,17.95-21.02,17.92-20.96c5-53.85,8.7-110.78,9-165
		c0.6-55.12-1.31-110.26-5.52-165.22c0,0,0.24-0.02,0.24-0.02c4.22,54.97,6.13,110.11,5.53,165.24
		c-0.36,54.32-3.85,110.96-9.05,165.15c-0.08,0.04-17.97,21.07-18.08,21.04c-29.89,2.88-59.86,5.36-89.89,6.35
		c-66.05,1.98-132.26-1.01-197.89-8.66c-12.22-8.97-19.51-23.17-23.23-37.61c-1.78-6.78-2.02-13.84-2.29-20.81
		c-0.36-10.4-0.39-21.05-0.35-31.44C268.55,725.46,272.39,640.88,278.07,557.87L278.07,557.87z"/>
</g>
<path class="st14" d="M463.29,541.86c-19.98,5.99-41.57,6.65-64.44,3c0.11-3.75,8.89,29,33.33,38
	C466.63,565.86,464.58,535.77,463.29,541.86z"/>
<path class="st3" d="M373.89,540.86c-4.58-10.65-20.97-15.55-33.36-14c-20.67,2.59-34.81,23.73-26.95,35
	c7.7,11.04,36.61,12.72,51.33,2C371.63,558.97,377.73,549.79,373.89,540.86z"/>
<path class="st3" d="M560.55,530.25c-4.35-11.02-22.02-16.07-34.6-15.89c-28.29,0.42-53.21,27.71-46.2,40
	c7.27,12.76,52.32,15.35,71.82-1.11C552.68,552.31,565.03,541.58,560.55,530.25z"/>
<path class="st13" d="M508.29,455.36c-25.03,26.22-49.39,49.49-71.11,61c7.59,16.83,15.18,33.67,22.78,50.5
	c10.84-9.75,25.36-21.1,43.98-31.8c15.94-9.16,31.01-15.61,43.79-20.2c-9.26-12.33-18.52-24.67-27.78-37
	C516.07,470.36,512.18,462.86,508.29,455.36z"/>
<path class="st13" d="M354.15,459.56c25.03,26.22,49.39,49.49,71.11,61c-7.59,16.83-15.18,33.67-22.78,50.5
	c-14.56-10.35-29.23-20.95-43.98-31.8c-11.54-8.49-22.91-16.95-34.09-25.4c5.77-7.31,12-16.31,17.78-27
	C347.55,476.94,351.38,467.66,354.15,459.56z"/>
<path class="st13" d="M572.58,900.86c5.7,14.24,11.24,29.14,16.49,44.68c7.2,21.27,13.2,41.76,18.22,61.32c0,0-9.92,311-9.92,311
	c3.72,7.33,7.44,14.67,11.16,22c-3.87,12.85-6.13,17.99-7.44,19c-0.05,0.04-0.23,0.17-0.37,0.4c-0.87,1.48,1.9,4.08,5.32,6.6
	c-1.65,4-3.31,8-4.96,12c-9.94,17.28-7.4,45.13-2.48,75c7.88,19.76,13.42,45.32,2.48,61c-16.72,23.96-79.78,23.78-109.09,13
	c-3.73-2.3-22.31-30-22.31-30s14.83-34.03,17.36-36c0,0-2.48-56-11.16-72c-2.3-1.94-10.07-7.83-8.68-14c0.79-3.51,4.95-8.99,4.96-9
	c-11.44-7.08-11.35-16.03-11.16-25c3.72-11,7.44-22,11.16-33c-24.79-118-45.87-243-45.87-243c-21.9-0.67-43.8-1.33-65.7-2"/>
<path class="st13" d="M302.39,899.86c-11.23,35.33-22.46,70.67-33.7,106c-0.58,103.5,7.15,207.29,12.48,311
	c-2.5,8.67-4.99,17.33-7.49,26c4.58,7.67,9.15,15.33,13.73,23l-9.97,43.65l-3.75,37.35l-19.97,23l8.74,26l-8.74,17
	c0,0,7.77,12.56,11.23,15c24.26,17.09,110.66-1.09,115.46-2.13c5.19-10.29,10.39-20.58,15.58-30.87
	c-3.53-11.71-7.06-23.42-10.59-35.13c-0.9-13.01,0.75-23.24,2.34-30c5.76-24.51,4.72-43.09,12.68-64.95
	c3.98-10.94,8.28-19.6,11.19-25.05c-3.74-11-11.23-33-11.23-33c11.01-40.4,21.01-83.9,29.16-130.26
	c6.86-38.99,11.75-76.28,15.12-111.61c26.64-0.84,39.95-1.51,39.94-2c-0.02-0.74-30.8-1.08-92.35-1"/>
<path class="st0" d="M288.02,938.86c97.73,4.63,196.7,5.23,298.04-2"/>
<g>
	<path d="M401.56,907.86c-0.39,12-0.79,24-1.18,36c24.84-0.33,49.67-0.67,74.51-1c-0.39-11.67-0.79-23.33-1.18-35
		C449.66,907.86,425.61,907.86,401.56,907.86z"/>
	<g>
		<path d="M400.06,907.86c-0.39,12-0.79,24-1.18,36c-0.03,0.8,0.71,1.51,1.5,1.5c19.37-0.26,38.75-0.52,58.12-0.78
			c5.46-0.07,10.93-0.15,16.39-0.22c0.79-0.01,1.53-0.68,1.5-1.5c-0.39-11.67-0.79-23.33-1.18-35c-0.03-0.81-0.67-1.5-1.5-1.5
			c-18.74,0-37.48,0-56.22,0c-5.31,0-10.61,0-15.92,0c-1.93,0-1.93,3,0,3c18.74,0,37.48,0,56.22,0c5.31,0,10.61,0,15.92,0
			c-0.5-0.5-1-1-1.5-1.5c0.39,11.67,0.79,23.33,1.18,35c0.5-0.5,1-1,1.5-1.5c-19.37,0.26-38.75,0.52-58.12,0.78
			c-5.46,0.07-10.93,0.15-16.39,0.22c0.5,0.5,1,1,1.5,1.5c0.39-12,0.79-24,1.18-36C403.12,905.93,400.12,905.93,400.06,907.86z"/>
	</g>
</g>
<g>
	<g>
		<path d="M341.18,904.37c-0.87,12.83-1.74,25.66-2.61,38.49c-0.13,1.93,2.87,1.92,3,0c0.87-12.83,1.74-25.66,2.61-38.49
			C344.31,902.44,341.31,902.45,341.18,904.37L341.18,904.37z"/>
	</g>
</g>
<g>
	<g>
		<path d="M325.58,904.6c-0.21,12.23-0.42,24.46-0.63,36.69c-0.03,1.93,2.97,1.93,3,0c0.21-12.23,0.42-24.46,0.63-36.69
			C328.61,902.66,325.61,902.66,325.58,904.6L325.58,904.6z"/>
	</g>
</g>
<g>
	<g>
		<path d="M333.75,942.3c4.99,1.89,10.44,2.51,15.72,1.82c0.8-0.1,1.5-0.62,1.5-1.5c0-0.73-0.69-1.6-1.5-1.5
			c-5.06,0.65-10.15,0.09-14.92-1.72c-0.76-0.29-1.64,0.32-1.85,1.05C332.47,941.3,332.99,942.02,333.75,942.3L333.75,942.3z"/>
	</g>
</g>
<g>
	<g>
		<path d="M346.48,903.74c-0.8-0.66-1.69-1.32-2.62-1.79c-0.74-0.38-1.74-0.24-2.55-0.26c-0.89-0.02-1.78-0.04-2.66-0.06
			c-3.73-0.09-7.46-0.18-11.19-0.27c-1.93-0.05-1.93,2.95,0,3c5.21,0.12,10.42,0.25,15.63,0.37c-0.25-0.07-0.5-0.14-0.76-0.2
			c0.69,0.41,1.4,0.83,2.03,1.34c0.63,0.51,1.51,0.61,2.12,0C347.01,905.34,347.11,904.26,346.48,903.74L346.48,903.74z"/>
	</g>
</g>
<path class="st0" d="M334.15,940.86"/>
<g>
	<g>
		<path d="M504.14,907.86c0.79,11.67,1.58,23.33,2.37,35c0.13,1.92,3.13,1.93,3,0c-0.79-11.67-1.58-23.33-2.37-35
			C507.01,905.94,504.01,905.93,504.14,907.86L504.14,907.86z"/>
	</g>
</g>
<g>
	<g>
		<path d="M519.51,906.86c0.48,11.71,0.96,23.41,1.44,35.12c0.08,1.92,3.08,1.93,3,0c-0.48-11.71-0.96-23.41-1.44-35.12
			C522.43,904.93,519.43,904.92,519.51,906.86L519.51,906.86z"/>
	</g>
</g>
<g>
	<g>
		<path d="M522.2,940.36c-5.52,0.33-11.04,0.67-16.56,1c-1.92,0.12-1.93,3.12,0,3c5.52-0.33,11.04-0.67,16.56-1
			C524.11,943.24,524.13,940.24,522.2,940.36L522.2,940.36z"/>
	</g>
</g>
<g>
	<path class="st9" d="M455.32,947.48c-2.94,35.13-5.88,70.25-8.82,105.38"/>
	<g>
		<path class="st9" d="M453.82,947.48c-2.29,27.34-4.57,54.68-6.86,82.02c-0.65,7.79-1.3,15.57-1.95,23.36c-0.16,1.92,2.84,1.91,3,0
			c2.29-27.34,4.57-54.68,6.86-82.02c0.65-7.79,1.3-15.58,1.95-23.36C456.98,945.55,453.98,945.57,453.82,947.48L453.82,947.48z"/>
	</g>
</g>
<g>
	<path class="st9" d="M418.67,950.34c-4.13,35.51-8.25,71.01-12.38,106.52"/>
	<g>
		<path class="st9" d="M417.17,950.34c-3.22,27.75-6.45,55.49-9.67,83.24c-0.9,7.76-1.8,15.52-2.71,23.29c-0.22,1.91,2.78,1.9,3,0
			c3.22-27.75,6.45-55.49,9.67-83.24c0.9-7.76,1.8-15.52,2.71-23.29C420.39,948.42,417.39,948.44,417.17,950.34L417.17,950.34z"/>
	</g>
</g>
<g>
	<path class="st9" d="M328.56,957.12c-1.13,11.6-2.25,23.2-3.38,34.79c-0.15,1.56-0.31,3.16-1.08,4.59
		c-1.47,2.72-4.09,4.14-4.74,4.51c-4.13,2.39-19.91,15.24-44.35,35.85"/>
	<g>
		<path class="st9" d="M327.06,957.12c-0.92,9.44-1.83,18.89-2.75,28.33c-0.23,2.37-0.43,4.74-0.69,7.1
			c-0.23,2.07-0.89,3.79-2.4,5.26c-1.11,1.08-2.47,1.76-3.75,2.62c-2.87,1.93-5.58,4.1-8.28,6.24c-4.6,3.63-9.13,7.35-13.65,11.08
			c-7.23,5.97-14.42,12-21.59,18.04c-1.48,1.25,0.65,3.36,2.12,2.12c11.33-9.55,22.66-19.12,34.26-28.34
			c2.78-2.21,5.57-4.46,8.52-6.46c1.25-0.85,2.58-1.55,3.76-2.52c1.39-1.15,2.56-2.62,3.22-4.29c0.8-2,0.85-4.26,1.05-6.38
			c1.06-10.94,2.12-21.87,3.19-32.81C330.25,955.2,327.25,955.21,327.06,957.12L327.06,957.12z"/>
	</g>
</g>
<g>
	<path class="st9" d="M538.32,948.17c-0.06,8.17-0.11,16.34-0.17,24.51c-0.01,1.35,0.03,2.82,1.04,3.86
		c0.81,0.84,2.09,1.22,3.3,1.57c14.37,4.1,28.73,8.21,43.1,12.31"/>
	<g>
		<path class="st9" d="M536.82,948.17c-0.04,5.31-0.07,10.62-0.11,15.93c-0.02,2.61-0.04,5.23-0.05,7.84
			c-0.01,2.12,0.01,4.38,1.74,5.9c1.63,1.43,4.08,1.82,6.1,2.4c2.55,0.73,5.11,1.46,7.66,2.19c5.19,1.48,10.38,2.96,15.56,4.45
			c5.83,1.66,11.65,3.33,17.48,4.99c1.86,0.53,2.65-2.36,0.8-2.89c-9.74-2.78-19.47-5.56-29.21-8.35
			c-4.75-1.36-9.52-2.66-14.25-4.07c-0.83-0.25-1.85-0.5-2.39-1.23c-0.6-0.8-0.49-1.95-0.49-2.9c0.01-2.45,0.03-4.9,0.05-7.35
			c0.04-5.64,0.08-11.28,0.11-16.91C539.84,946.24,536.84,946.24,536.82,948.17L536.82,948.17z"/>
	</g>
</g>
<path class="st15" d="M289.2,1074.86c-2.91,55.32,3.4,127.32,18.92,216"/>
<path class="st15" d="M311.68,1359.86c-7.43,42.67-11.38,85.33-11.83,128"/>
<g>
	<path class="st9" d="M577.78,1081.86c-0.79,92.67-1.58,185.33-2.37,278"/>
	<path class="st9" d="M578.28,1081.86c3.25,46.18,3.44,92.77,2.9,139.03c-0.7,46.19-1.91,92.88-5.27,138.97c0,0-1-0.01-1-0.01
		c-3.56-69.38-3.69-139.11-1.67-208.53c0.39-10.1,0.97-24.75,1.55-34.74c0.67-11.58,1.38-23.16,2.49-34.73L578.28,1081.86
		L578.28,1081.86z"/>
</g>
<path class="st15" d="M582.51,1399.86c-4,36.31-8.22,69.93-13.01,97c-13.23,15.69-30.79,22.69-49.67,27"/>
<g>
	<g>
		<path d="M504.99,494.04c-3.58,2.65-7.44,4.89-11.53,6.67c-1.71,0.75-3.52,1.39-4.95,2.65c-1.6,1.41-2.37,3.55-3.26,5.43
			c-4.17,8.81-8.34,17.63-12.51,26.44c-0.41,0.87,0.88,1.63,1.3,0.76c4.03-8.52,8.06-17.03,12.08-25.55c0.9-1.9,1.65-4.23,3.16-5.75
			c1.43-1.44,3.53-2.07,5.35-2.87c3.93-1.75,7.65-3.93,11.11-6.49C506.51,494.77,505.76,493.47,504.99,494.04L504.99,494.04z"/>
	</g>
</g>
<g>
	<g>
		<path d="M348.25,493.64c2.83,0.11,5.9,0.17,8.45,1.56c1.96,1.07,3.76,3.31,2.91,5.64c-0.33,0.91,1.12,1.3,1.45,0.4
			c1.01-2.77-0.85-5.59-3.14-7.06c-2.82-1.81-6.43-1.92-9.67-2.04C347.28,492.1,347.28,493.6,348.25,493.64L348.25,493.64z"/>
	</g>
</g>
<g>
	<path d="M580.9,820.14c-3.33,11.71-10.3,21.6-18.13,30.69c-2.67,2.95-5.49,5.81-8.82,8.31l-0.82-0.57
		c3.69-11.52,10.21-21.67,18.01-30.77c2.66-2.96,5.5-5.8,8.94-8.23L580.9,820.14L580.9,820.14z"/>
</g>
<g>
	<path class="st9" d="M331.54,603.86c20.61,82.14,42.48,158.71,68.01,219"/>
	<path class="st9" d="M331.66,603.83c17.99,69.38,36.66,138.8,62.66,205.67c1.73,4.46,3.56,8.87,5.34,13.31l-0.22,0.09
		c-2.69-6.33-5.68-13.45-8.23-19.89c-11.37-28.94-21.17-58.49-30.04-88.28C350.56,678.15,339.9,640.57,331.66,603.83L331.66,603.83z
		"/>
</g>
<g>
	<path class="st9" d="M303.31,831.86c31.16,33.45,73.04,50.17,118.06,62"/>
	<path class="st9" d="M303.4,831.78c29.21,31.01,69.61,48.05,109.87,59.66c0,0,8.13,2.31,8.13,2.31l-0.06,0.23l-8.18-2.12
		C372.91,881.03,330.97,863.58,303.4,831.78L303.4,831.78z"/>
</g>
<line class="st16" x1="547.12" y1="599.86" x2="494.51" y2="703.86"/>
<path class="st0" d="M493.82,490.86"/>
<path class="st0" d="M491.43,481.86"/>
<path class="st0" d="M495.43,480.86"/>
<g>
	<path class="st9" d="M449.67,620.19c4.98,2.15,10.25,3.89,15.7,5.19"/>
	<g>
		<path class="st9" d="M448.91,621.48c5.2,2.23,10.56,4.02,16.05,5.34c1.88,0.45,2.68-2.44,0.8-2.89
			c-5.24-1.26-10.39-2.92-15.34-5.04c-0.74-0.32-1.61-0.22-2.05,0.54C448,620.06,448.16,621.16,448.91,621.48L448.91,621.48z"/>
	</g>
</g>
<g>
	<path class="st9" d="M454.89,674.79c1.84,0.5,3.67,1,5.51,1.5"/>
	<g>
		<path class="st9" d="M454.49,676.24c1.84,0.5,3.67,1,5.51,1.5c0.76,0.21,1.66-0.26,1.85-1.05c0.18-0.79-0.24-1.62-1.05-1.85
			c-1.84-0.5-3.67-1-5.51-1.5c-0.76-0.21-1.66,0.26-1.85,1.05C453.26,675.18,453.68,676.02,454.49,676.24L454.49,676.24z"/>
	</g>
</g>
<g>
	<path class="st9" d="M454.52,727.9c3.29,0.64,6.53,1.45,9.7,2.41"/>
	<g>
		<path class="st9" d="M454.12,729.35c3.27,0.64,6.51,1.45,9.7,2.41c0.75,0.23,1.67-0.27,1.85-1.05c0.18-0.81-0.24-1.6-1.05-1.85
			c-3.19-0.97-6.43-1.77-9.7-2.41c-0.77-0.15-1.66,0.22-1.85,1.05C452.91,728.24,453.3,729.18,454.12,729.35L454.12,729.35z"/>
	</g>
</g>
<g>
	<path class="st9" d="M457.69,780.9c2.81,1.18,5.82,2.08,8.92,2.65"/>
	<g>
		<path class="st9" d="M457.29,782.34c2.87,1.2,5.86,2.08,8.92,2.65c0.77,0.14,1.65-0.21,1.85-1.05c0.17-0.74-0.22-1.69-1.05-1.85
			c-3.06-0.57-6.05-1.45-8.92-2.65c-0.73-0.3-1.68,0.33-1.85,1.05C456.05,781.38,456.52,782.02,457.29,782.34L457.29,782.34z"/>
	</g>
</g>
<g>
	<path class="st9" d="M455.97,830.54c2.7,1.46,5.65,2.64,8.75,3.51"/>
	<g>
		<path class="st9" d="M455.21,831.84c2.89,1.55,5.95,2.77,9.1,3.66c0.75,0.21,1.67-0.26,1.85-1.05c0.18-0.8-0.24-1.62-1.05-1.85
			c-1.51-0.42-2.99-0.92-4.45-1.5c-0.17-0.07-0.35-0.14-0.52-0.21c-0.1-0.04-0.1-0.04-0.01,0c-0.1-0.04-0.2-0.08-0.29-0.13
			c-0.34-0.15-0.68-0.3-1.01-0.46c-0.71-0.33-1.41-0.69-2.11-1.06c-0.69-0.37-1.66-0.2-2.05,0.54
			C454.3,830.48,454.47,831.44,455.21,831.84L455.21,831.84z"/>
	</g>
</g>
<path class="st13" d="M619.32,521.49c-21.42-19.59-48.52-23.03-80.09-13.73c-1.25,2.94-2.5,5.88-3.75,8.83
	c26.58,0.77,53.61,3.05,82.59,11.77C618.49,526.07,618.91,523.78,619.32,521.49z"/>
<g>
	<path class="st9" d="M455.34,885.33c3.29,0.77,6.58,1.54,9.86,2.3"/>
	<g>
		<path class="st9" d="M454.94,886.78c3.29,0.77,6.58,1.54,9.86,2.3c0.76,0.18,1.66-0.24,1.85-1.05c0.17-0.77-0.23-1.65-1.05-1.85
			c-3.29-0.77-6.58-1.54-9.86-2.3c-0.76-0.18-1.66,0.24-1.85,1.05C453.72,885.7,454.13,886.59,454.94,886.78L454.94,886.78z"/>
	</g>
</g>
<g>
	<path d="M428.28,581.6c13.27,80.7,17.34,162.91,15.71,244.62c-0.29,13.03-0.7,27.87-1.61,40.87c-0.84,13.61-1.64,27.21-2.55,40.81
		l-1-0.06c0.41-13.62,0.94-27.22,1.43-40.83c1.31-33.66,1.01-68.35,0.27-102.06c-0.87-34.01-2.92-67.97-5.62-101.88
		c-2.2-27.13-4.8-54.22-7.62-81.32L428.28,581.6L428.28,581.6z"/>
</g>
<g>
	<path d="M453.05,613.36c0.2,8.9,12.87,11.33,18.97,6.52c4.77-3.42,4.61-9.5-0.32-12.57C465.75,603.32,453.91,605.06,453.05,613.36
		L453.05,613.36z M451.28,613.36c0.23-10.43,14.52-13.77,21.88-8.16c5.9,4.07,5.83,12.08-0.32,15.85
		C465.65,625.83,452.11,623.17,451.28,613.36L451.28,613.36z"/>
</g>
<g>
	<path d="M453.04,666.36c0.24,8.85,12.89,11.36,19.01,6.55c4.81-3.41,4.68-9.59-0.3-12.68
		C465.77,656.21,453.88,658.03,453.04,666.36L453.04,666.36z M451.29,666.36c0.26-10.36,14.5-13.68,21.82-8.09
		c5.86,4.05,5.8,11.97-0.3,15.74C465.65,678.83,452.08,676.19,451.29,666.36L451.29,666.36z"/>
</g>
<g>
	<path d="M454.44,719.36c0.14,8.87,12.78,11.36,18.85,6.51c4.7-3.42,4.53-9.45-0.39-12.45
		C467.07,709.59,455.31,711.24,454.44,719.36L454.44,719.36z M452.45,719.36c0.17-10.59,14.62-14.03,22.07-8.27
		c5.91,4.14,5.83,12.21-0.39,15.98C466.91,731.8,453.32,729.2,452.45,719.36L452.45,719.36z"/>
</g>
<g>
	<path d="M454.53,772.36c0.16,8.79,12.71,11.38,18.81,6.57c4.79-3.38,4.61-9.63-0.38-12.59
		C467.11,762.53,455.44,764.3,454.53,772.36L454.53,772.36z M452.36,772.36c0.16-10.66,14.67-13.97,22.1-8.19
		c5.83,4.17,5.75,12.02-0.38,15.83C466.88,784.78,453.21,782.3,452.36,772.36L452.36,772.36z"/>
</g>
<g>
	<path d="M454.37,823.36c0.15,8.91,12.84,11.34,18.91,6.49c4.71-3.42,4.54-9.42-0.36-12.45
		C467.01,813.48,455.26,815.13,454.37,823.36L454.37,823.36z M452.52,823.36c0.2-10.5,14.57-13.93,21.98-8.25
		c5.94,4.11,5.85,12.19-0.36,15.97C466.97,835.8,453.33,833.16,452.52,823.36L452.52,823.36z"/>
</g>
<g>
	<path d="M454.66,876.36c-0.24,5.4,5.88,9.2,10.98,9c2.75-0.05,5.52-0.86,7.67-2.48c4.66-3.35,4.43-9.52-0.5-12.32
		C467.13,866.93,455.61,868.57,454.66,876.36L454.66,876.36z M452.23,876.36c-0.11-8.87,10.65-13.25,18.11-10.58
		c8.72,2.55,12.21,12.95,3.78,18.27C466.9,888.72,453.1,886.3,452.23,876.36L452.23,876.36z"/>
</g>
<g>
	<g>
		<path class="st9" d="M565.61,799.12c-18.98,6.39-38.39,11.46-58.05,15.26c-1.03,0.2-1.27,1.4-0.9,2.2
			c3.76,8.19,5.81,17.07,5.89,26.09c0.02,1.93,3.02,1.93,3,0c-0.09-9.57-2.32-18.92-6.3-27.61c-0.3,0.73-0.6,1.47-0.9,2.2
			c19.66-3.8,39.07-8.88,58.05-15.26C568.23,801.4,567.45,798.5,565.61,799.12L565.61,799.12z"/>
	</g>
</g>
<g>
	<g>
		<path class="st9" d="M520.78,703.85c12.82,0,25.63,0,38.45,0c1.93,0,1.93-3,0-3c-12.82,0-25.63,0-38.45,0
			C518.85,700.85,518.85,703.85,520.78,703.85L520.78,703.85z"/>
	</g>
</g>
<g>
	<g>
		<path class="st9" d="M274.51,563.26c-6.73,22.13-11.69,44.78-14.78,67.7c-0.87,6.48-1.6,12.97-2.18,19.48
			c-0.17,1.92,2.83,1.91,3,0c2.03-22.79,5.92-45.39,11.59-67.56c1.61-6.32,3.38-12.59,5.27-18.83
			C277.96,562.2,275.07,561.41,274.51,563.26L274.51,563.26z"/>
	</g>
</g>
<g>
	<g>
		<path class="st9" d="M209.85,785.89c-0.04,2.8,0.84,5.42,1.72,8.04c0.95,2.83,1.9,5.65,2.85,8.48c1.87,5.58,3.74,11.15,5.61,16.73
			c0.61,1.82,3.51,1.04,2.89-0.8c-1.82-5.42-3.64-10.84-5.45-16.26c-0.9-2.67-1.79-5.34-2.69-8.01c-0.89-2.66-1.97-5.34-1.93-8.18
			C212.88,783.96,209.88,783.96,209.85,785.89L209.85,785.89z"/>
	</g>
</g>
<g>
	<g>
		<path class="st9" d="M697.42,900.62c-14.17,11.92-28.76,24.22-38.32,40.34c-1.02,1.71-3.25,4.51-1.84,6.53
			c0.65,0.93,1.68,1.14,2.74,1.26c1.61,0.18,3.23,0.31,4.85,0.46c1.92,0.18,1.91-2.82,0-3c-1.13-0.11-2.26-0.21-3.39-0.32
			c-0.27-0.03-1.35,0.03-1.57-0.16c-0.16-0.13-0.03,0.2,0.08-0.16c0.09-0.3,0.33-0.64,0.48-0.91c0.98-1.77,2.02-3.5,3.13-5.2
			c2.26-3.46,4.77-6.75,7.46-9.9c5.39-6.31,11.42-12.03,17.64-17.51c3.58-3.16,7.23-6.23,10.88-9.31
			C701.02,901.49,698.89,899.38,697.42,900.62L697.42,900.62z"/>
	</g>
</g>
<g>
	<g>
		<path class="st9" d="M633.54,652.22c-8.92,8.88-17.68,17.92-26.27,27.12c-1.32,1.41,0.8,3.54,2.12,2.12
			c8.59-9.2,17.35-18.24,26.27-27.12C637.03,652.98,634.91,650.85,633.54,652.22L633.54,652.22z"/>
	</g>
</g>
<g>
	<g>
		<path class="st9" d="M218.16,839.39c-0.11,3.25,0.08,6.49,0.53,9.71c0.44,3.11,1,6.42,2.22,9.33c0.53,1.27,1.36,2.35,2.63,2.94
			c1.37,0.64,2.93,0.74,4.41,0.9c3.38,0.37,6.79,0.46,10.18,0.3c1.92-0.09,1.93-3.09,0-3c-2.91,0.14-5.83,0.09-8.74-0.16
			c-1.37-0.12-2.9-0.15-4.22-0.61c-1.12-0.39-1.5-1.37-1.83-2.43c-1.7-5.49-2.39-11.26-2.2-17
			C221.22,837.46,218.22,837.47,218.16,839.39L218.16,839.39z"/>
	</g>
</g>
<g>
	<g>
		<path class="st9" d="M313.22,521.3c10.75,2.76,21.58,5.22,32.47,7.37c1.89,0.37,2.69-2.52,0.8-2.89
			c-10.89-2.16-21.72-4.61-32.47-7.37C312.15,517.93,311.35,520.82,313.22,521.3L313.22,521.3z"/>
	</g>
</g>
<path class="st13" d="M268.44,520.35c17.72-15.17,40.12-17.83,66.23-10.63c1.03,2.28,2.07,4.56,3.1,6.84
	c-21.98,0.59-44.33,2.36-68.3,9.11C269.13,523.89,268.78,522.12,268.44,520.35z"/>
<path class="st0" d="M131.42,20.63L131.42,20.63L131.42,20.63z"/>
<path class="st5" d="M423.1,239.17c-17.81,4.17-40.65,11.42-65.23,24.54c-17.75,9.47-32.24,19.77-43.62,29.08
	c-0.57,16.19,1.8,30.02,3.98,39.94c2.22,10.06,3.84,16.04,2.87,16.44c-1.42,0.59-8.46-10.85-33.27-63.93"/>
<path class="st5" d="M446.6,232.19c44.68,23.27,92.99,38.29,108.85,59.62c1.15,32.38-9.48,55.33-6.85,56.38
	c1.78,0.71,9.8-12.81,33.27-63.93"/>
<g>
	<g>
		<path d="M421.7,439.54c14.07-3.6,28.39-6.17,42.83-7.65c0.95-0.1,0.96-1.6,0-1.5c-14.58,1.5-29.03,4.07-43.23,7.71
			C420.36,438.33,420.76,439.78,421.7,439.54L421.7,439.54z"/>
	</g>
</g>
<path class="st5" d="M591.1,212.17c29.92-26.86,41.46-30.21,46-27c5.13,3.62,2.94,16.74-2,25c-8.21,13.71-27.71,20.23-49,15"/>
<g>
	<g>
		<path class="st17" d="M492.75,241.99c10.7,3.58,20.53,9.42,28.78,17.11c-0.22-0.21,0.03-2.15,0.03-2.5c0-0.59,0-1.18-0.01-1.77
			c0-0.13,0.06-0.66-0.02-0.73c-8.25-7.69-18.08-13.54-28.78-17.11c0.09,0.03-0.02,2.29-0.02,2.5
			C492.73,239.71,492.58,241.93,492.75,241.99L492.75,241.99z"/>
	</g>
</g>
<g>
	<g>
		<path class="st17" d="M490.53,226.92c-1.1-11.06-3.37-21.96-6.78-32.54c0.21,0.65-0.02,1.81-0.02,2.5c0,0.74-0.21,1.78,0.02,2.5
			c3.4,10.58,5.68,21.48,6.78,32.54C490.36,230.28,490.69,228.58,490.53,226.92L490.53,226.92z"/>
	</g>
</g>
<g>
	<g>
		<path class="st17" d="M417.12,252.94c-2.43,2.81-5.08,5.83-8.83,6.77c-0.85,0.21-1.68,0.26-2.55,0.24
			c-0.48-0.01-0.95-0.01-1.41,0.15c-0.33,0.11-0.72,0.39-1,0.06c-0.28-0.33-0.32-1.06-0.43-1.47c-0.13-0.49-0.25-0.99-0.38-1.48
			c-0.28-1.09-0.56-2.17-0.84-3.26c0,1.67,0,3.33,0,5c2.34,1.46,5.16,1.84,7.8,1.04c0.67-0.2,1.33-0.44,2.03-0.51
			c0.66-0.07,1.32-0.01,1.98-0.02c1.1-0.03,2.41-0.38,2.45-1.68c0.04-1.38,0.02-2.76,0.01-4.13c-0.01-0.67-0.01-1.25-0.66-1.63
			c-0.54-0.32-1.22-0.29-1.83-0.29c-0.85-0.01-1.71-0.01-2.56,0.01c-1.66,0.04-3.31,0.12-4.96,0.27c-0.75,0.06-1.5,0.14-2.25,0.23
			c-0.56,0.06-1.34,0.07-1.56,0.7c-0.12,0.35-0.04,0.82-0.05,1.18c-0.01,0.93-0.01,1.85,0,2.78c0.01,0.86,0.04,1.58,0.27,2.41
			c0.49,1.75,1.08,3.46,1.76,5.15c-0.05-0.12,0.02-0.67,0.02-0.73c0.01-0.59,0.01-1.18,0.01-1.77c0-0.59,0-1.18-0.01-1.77
			c0-0.2,0.06-0.55-0.02-0.73c-0.41-1.02-0.79-2.05-1.13-3.09c-0.32-0.98-0.81-2.1-0.86-3.14c0,1.64,0,3.27-0.01,4.91
			c0.16-1.14,2.09-0.96,2.94-1.05c1.35-0.13,2.7-0.23,4.06-0.29s2.71-0.09,4.06-0.07c1.02,0.01,2.5-0.08,2.77,1.2
			c0-1.55-0.01-3.11-0.01-4.66c0,0.07,0,0.14,0,0.21c0-0.11,0.01-0.23,0.01-0.34c-0.32,1.26-1.84,1.35-2.9,1.34
			c-0.63,0-1.26-0.04-1.89,0.07c-0.65,0.11-1.28,0.35-1.91,0.53c-2.56,0.72-5.3,0.28-7.55-1.12c0.02,0.01-0.02,0.83-0.02,0.73
			c-0.01,0.59-0.01,1.18-0.01,1.77c0,0.77-0.17,1.74,0.02,2.5c0.27,1.04,0.53,2.08,0.8,3.11c0.14,0.54,0.28,1.09,0.42,1.63
			c0.1,0.38,0.14,1.06,0.37,1.39c0.27,0.39,0.57,0.2,0.94,0.07c0.47-0.16,0.91-0.2,1.4-0.2c0.91,0.01,1.79-0.02,2.68-0.24
			c3.75-0.93,6.41-3.96,8.83-6.77c0.06-0.07,0.02-0.75,0.02-0.73c0.01-0.59,0.01-1.18,0.01-1.77c0-0.59,0-1.18-0.01-1.77
			C417.13,253.55,417.05,253.01,417.12,252.94L417.12,252.94z"/>
	</g>
</g>
<g>
	<g>
		<path class="st17" d="M409.82,205.13c0.57-17.53,2.13-35.01,4.69-52.36c0.28-1.89-2.61-2.7-2.89-0.8
			c-2.6,17.62-4.21,35.36-4.79,53.16C406.76,207.06,409.76,207.06,409.82,205.13L409.82,205.13z"/>
	</g>
</g>
<g>
	<g>
		<path class="st17" d="M440.57,121c3.97-0.93,8.11-0.97,12.09-0.11c0.79,0.17,1.62-0.24,1.85-1.05c0.21-0.75-0.25-1.67-1.05-1.85
			c-4.52-0.98-9.18-0.95-13.69,0.11C437.89,118.54,438.68,121.44,440.57,121L440.57,121z"/>
	</g>
</g>
<g>
	<g>
		<path class="st17" d="M419.09,113.55c8.24-1.48,16.14-4.57,23.21-9.04c1.63-1.03,0.12-3.63-1.51-2.59
			c-6.88,4.34-14.49,7.29-22.5,8.73C416.4,111,417.2,113.89,419.09,113.55L419.09,113.55z"/>
	</g>
</g>
<g>
	<g>
		<path class="st17" d="M273.87,216.16c8.26,3.96,16.53,7.91,24.79,11.87c1.73,0.83,3.26-1.76,1.51-2.59
			c-8.26-3.96-16.53-7.91-24.79-11.87C273.65,212.74,272.12,215.33,273.87,216.16L273.87,216.16z"/>
	</g>
</g>
<g>
	<g>
		<path class="st17" d="M451.25,186.52c2.34,0.96,4.68,1.92,7.01,2.89c0.73,0.3,1.68-0.32,1.85-1.05c0.2-0.87-0.27-1.52-1.05-1.85
			c-2.34-0.96-4.68-1.92-7.01-2.89c-0.73-0.3-1.68,0.32-1.85,1.05C450,185.55,450.47,186.2,451.25,186.52L451.25,186.52z"/>
	</g>
</g>
<g>
	<g>
		<path class="st17" d="M409.48,258.05c9.89-3.11,19.5-7.06,28.73-11.77c1.72-0.88,0.2-3.47-1.51-2.59
			c-9.01,4.6-18.37,8.43-28.02,11.47C406.85,255.73,407.63,258.63,409.48,258.05L409.48,258.05z"/>
	</g>
</g>
<path class="st5" d="M472.6,231.17c-0.12,35.31-18.95,63.75-45.67,71c-4.2,1.14-29.69,0-29.69,0s-3.93-41.13,18.98-80"/>
<path class="st5" d="M432.71,393.82c4.01-7.9,51.18-1.56,53.31,7.15c1.27,5.19-12.74,14.26-28.5,12.1
	C441.84,410.94,430.33,398.52,432.71,393.82z"/>
<path class="st5" d="M435.04,394.69c-3.83-7.99-51.14-2.71-53.45,5.95c-1.38,5.16,12.41,14.54,28.22,12.74
	C425.54,411.6,437.32,399.44,435.04,394.69z"/>
<g>
	<g>
		<path class="st6" d="M431.98,400.2c2.45,0.27,4.92,0.08,7.3-0.57c0.03-0.01,0.02-0.84,0.02-0.73c0.01-0.59,0.01-1.18,0.01-1.77
			c0-0.59,0-1.18-0.01-1.77c0-0.1,0.05-0.69-0.02-0.73c-1.8-1.05-3.8-1.72-5.87-1.96c0,1.67,0,3.33,0,5
			c0.57-0.07,1.14-0.14,1.71-0.21c0.07-0.01,0.03-2.31,0.03-2.5c0-0.18,0-2.5-0.03-2.5c-1.05,0.01-2.09,0.01-3.14,0.02
			c-0.05,0-0.03,5,0,5c1.05-0.01,2.09-0.01,3.14-0.02c0-1.67,0-3.33,0-5c-0.57,0.07-1.14,0.14-1.71,0.21c-0.08,0.01-0.06,4.99,0,5
			c2.07,0.24,4.07,0.9,5.87,1.96c0-1.67,0-3.33,0-5c-2.38,0.65-4.85,0.84-7.3,0.57c0.01,0-0.03,2.31-0.02,2.5
			C431.96,397.89,431.9,400.19,431.98,400.2L431.98,400.2z"/>
	</g>
</g>
<path class="st18" d="M545.99,171.6L545.99,171.6c-0.01-5.61-90.2-5.9-90.19-0.93c0,0-15.22,40.59-0.98,57.69
	c20.04,24.07,63.67,17.99,79.41,0.93C550.66,211.48,545.99,171.63,545.99,171.6z"/>
<path class="st18" d="M313.77,173.09L313.77,173.09c0.01-5.61,90.2-5.9,90.19-0.93c0,0,15.22,40.59,0.98,57.69
	c-20.04,24.07-63.67,17.99-79.41,0.93C309.1,212.97,313.78,173.12,313.77,173.09z"/>
<line class="st19" x1="408.98" y1="203.17" x2="448.49" y2="203.17"/>
<g>
	<g>
		<path class="st20" d="M509.48,166.1c-14.48,10.67-29.5,20.6-44.99,29.75c-4.46,2.63-8.96,5.2-13.49,7.7
			c-0.08,0.04-0.04,1.63-0.04,1.46c-0.01,1.18-0.02,2.36-0.01,3.54c0,1.18,0,2.36,0.01,3.54c0,0.17,0.11,1.42,0.04,1.46
			c15.77-8.71,31.1-18.2,45.91-28.46c4.23-2.93,8.42-5.93,12.57-8.99c0.09-0.07,0.04-1.59,0.04-1.46c0.01-1.18,0.02-2.36,0.01-3.54
			c0-1.18,0-2.36-0.01-3.54C509.51,167.37,509.38,166.17,509.48,166.1L509.48,166.1z"/>
	</g>
</g>
<g>
	<g>
		<path class="st20" d="M545.94,183.67c-19.43,10.91-38.85,21.81-58.28,32.72c-5.51,3.09-11.02,6.19-16.53,9.28
			c-0.12,0.07-0.06,2.44-0.05,2.2c-0.02,1.77-0.02,3.54-0.02,5.3c0,1.77,0,3.54,0.02,5.3c0,0.26,0.17,2.13,0.05,2.2
			c19.43-10.91,38.85-21.81,58.28-32.72c5.51-3.09,11.02-6.19,16.53-9.28c0.12-0.07,0.06-2.44,0.05-2.2
			c0.02-1.77,0.02-3.54,0.02-5.3c0-1.77,0-3.54-0.02-5.3C545.99,185.6,545.83,183.73,545.94,183.67L545.94,183.67z"/>
	</g>
</g>
<g>
	<g>
		<path class="st20" d="M386.85,169.17c-18.35,9.36-36.7,18.72-55.05,28.08c-5.18,2.64-10.36,5.28-15.54,7.92
			c-0.08,0.04-0.04,1.64-0.04,1.46c-0.01,1.18-0.02,2.36-0.01,3.54c0,1.18,0,2.36,0.01,3.54c0,0.17,0.1,1.43,0.04,1.46
			c18.35-9.36,36.7-18.72,55.05-28.08c5.18-2.64,10.36-5.28,15.54-7.92c0.08-0.04,0.04-1.64,0.04-1.46
			c0.01-1.18,0.02-2.36,0.01-3.54c0-1.18,0-2.36-0.01-3.54C386.88,170.46,386.78,169.2,386.85,169.17L386.85,169.17z"/>
	</g>
</g>
<g>
	<g>
		<path class="st20" d="M407.92,189.67c-17.74,9.84-35.48,19.69-53.22,29.53c-5.09,2.82-10.18,5.65-15.27,8.47
			c-0.12,0.07-0.06,2.44-0.05,2.2c-0.02,1.77-0.02,3.54-0.02,5.3c0,1.77,0,3.54,0.02,5.3c0,0.26,0.16,2.14,0.05,2.2
			c17.74-9.84,35.48-19.69,53.22-29.53c5.09-2.82,10.18-5.65,15.27-8.47c0.12-0.07,0.06-2.44,0.05-2.2c0.02-1.77,0.02-3.54,0.02-5.3
			c0-1.77,0-3.54-0.02-5.3C407.97,191.6,407.81,189.73,407.92,189.67L407.92,189.67z"/>
	</g>
</g>
<g>
	<g>
		<path d="M320.2,225.01c-13.83,15.84-27.67,31.69-41.5,47.53c-0.28,0.32-0.02,2.06-0.02,2.5c0,0.59,0,1.18,0.01,1.77
			c0,0.12,0.08,0.66,0.02,0.73c13.83-15.84,27.67-31.69,41.5-47.53c0.28-0.32,0.03-2.06,0.03-2.5c0-0.59,0-1.18-0.01-1.77
			C320.21,225.61,320.13,225.08,320.2,225.01L320.2,225.01z"/>
	</g>
</g>
<g>
	<g>
		<path d="M540.04,226c13.86,9.08,23.4,23,31.44,37.19c2.32,4.1,4.54,8.25,6.75,12.41c-0.05-0.09,0.02-0.72,0.02-0.73
			c0.01-0.59,0.01-1.18,0.01-1.77c0-0.59,0-1.18-0.01-1.77c0-0.18,0.07-0.57-0.02-0.73c-7.68-14.47-15.61-29.29-27.41-40.88
			c-3.31-3.25-6.9-6.18-10.78-8.72c0.17,0.11-0.03,2.22-0.03,2.5C540.02,223.82,539.77,225.83,540.04,226L540.04,226z"/>
	</g>
</g>
<g>
	<path class="st21" d="M462.94,342.07c-2.37-4.12-2.13-8.19-1.93-11.53c0.09-1.51,0.66-11.17,6.75-16.91
		c11.57-10.91,45.46-9.98,57.88,5.38c5.58,6.9,7.7,17.8,0.96,26.14c-9.27,11.48-28.98,10.29-33.77,9.99
		C490.19,354.98,469.51,353.5,462.94,342.07z"/>
	<path class="st22" d="M530.4,346.82c0.37-2.46,2.7-19.66-10-31.15c-15.64-14.15-44.75-11.19-56,1.83c-2.9,3.36-4.3,7.02-5,10.08"/>
	<circle class="st23" cx="489.65" cy="329.57" r="12.25"/>
	<circle class="st21" cx="495.42" cy="325.93" r="4.76"/>
	<path class="st21" d="M400.47,340.66c2.37-4.12,2.13-8.19,1.93-11.53c-0.09-1.51-0.66-11.17-6.75-16.91
		c-11.57-10.91-45.46-9.98-57.88,5.38c-5.58,6.9-7.7,17.8-0.96,26.14c9.27,11.48,28.98,10.29,33.77,9.99
		C373.22,353.57,393.9,352.08,400.47,340.66z"/>
	<circle class="st23" cx="373.77" cy="328.16" r="12.25"/>
	<circle class="st21" cx="379.99" cy="324.52" r="4.76"/>
	<path class="st0" d="M339.89,346.89c3.03,1.51,28.63,13.79,50,1c5.27-3.15,9.16-7.16,12-11"/>
	<path class="st24" d="M389.4,290.82c-23.83-0.75-45.82,3.13-65,14"/>
	<path class="st24" d="M471.44,290.81c23.83-0.75,45.82,3.13,65,14"/>
	<path class="st22" d="M332.26,344.04c-0.37-2.46-2.7-19.66,10-31.15c15.64-14.15,44.75-11.19,56,1.83c2.9,3.36,4.3,7.02,5,10.08"/>
	<path class="st0" d="M523.64,348.81c-3.03,1.51-28.63,13.79-50,1c-5.27-3.15-9.16-7.16-12-11"/>
</g>
</svg>
