<?xml version="1.0" encoding="utf-8"?>
<!-- Generator: Adobe Illustrator 28.3.0, SVG Export Plug-In . SVG Version: 6.00 Build 0)  -->
<svg version="1.1" id="Layer_1" xmlns="http://www.w3.org/2000/svg" xmlns:xlink="http://www.w3.org/1999/xlink" x="0px" y="0px"
	 viewBox="0 0 875 1859" style="enable-background:new 0 0 875 1859;" xml:space="preserve">
<style type="text/css">
	.st0{fill:#B5631A;stroke:#000000;stroke-width:2;stroke-miterlimit:10;}
	.st1{fill:#964420;}
	.st2{fill:none;stroke:#000000;stroke-miterlimit:10;}
	.st3{fill:#C15823;stroke:#000000;stroke-miterlimit:10;}
	.st4{fill:#DA7A22;stroke:#000000;stroke-miterlimit:10;}
	.st5{fill:#FFE3CB;stroke:#000000;stroke-miterlimit:10;}
	.st6{fill:#426646;}
	.st7{fill:#FFB995;}
	.st8{fill:#B5631A;stroke:#000000;stroke-miterlimit:10;}
	.st9{fill:#B5631A;}
	.st10{fill:none;stroke:#FFB995;stroke-miterlimit:10;}
	.st11{fill:#1E2722;stroke:#000000;stroke-miterlimit:10;}
	.st12{fill:#20382B;}
	.st13{fill:#FFB995;stroke:#FFB995;stroke-miterlimit:10;}
	.st14{fill:#FFB995;stroke:#000000;stroke-width:0.5;stroke-miterlimit:10;}
	.st15{fill:#FFE3CB;}
	.st16{fill:#426646;stroke:#000000;stroke-miterlimit:10;}
	.st17{fill:#DA7A22;}
	.st18{fill:#FFFFFF;stroke:#000000;stroke-miterlimit:10;}
	.st19{fill:#20382B;stroke:#20382B;stroke-width:3;stroke-miterlimit:10;}
	.st20{fill:#C15823;}
	.st21{fill:#C15823;stroke:#C15823;stroke-miterlimit:10;}
	.st22{stroke:#000000;stroke-miterlimit:10;}
	.st23{fill:#FFFFFF;}
	.st24{fill:none;stroke:#000000;stroke-width:4;stroke-miterlimit:10;}
	.st25{fill:none;stroke:#000000;stroke-width:3;stroke-miterlimit:10;}
	.st26{fill:#A59E9B;stroke:#A59E9B;stroke-miterlimit:10;}
	.st27{fill:#7A767A;stroke:#7A767A;stroke-miterlimit:10;}
</style>
<path class="st0" d="M492.11,240.53c41.59-4.92,85.15,62.88,87,77.81c12.48,100.55-4.66,205.15,6.5,247.37
	c6.76,0.72,17,0.88,28.56-2.68c23.94-7.37,36.59-25.48,40.44-31.51c-10.04,85.76-38.7,111.59-57,121c-8.91,4.58-14.77,4.96-69,24.62
	c-38.95,14.12-39.5,15.22-43.5,14.89c-64.14-5.26-110-302.69-33.5-419.51C469.39,245.37,485.01,241.37,492.11,240.53z"/>
<g>
	<g>
		<path class="st1" d="M558.65,481.39c-3.7,16.5-4.41,33.48-4.67,50.33c-0.26,17.51,0,35.06-1.61,52.51
			c-0.91,9.84-2.44,19.63-4.96,29.19c-0.49,1.87,2.4,2.67,2.89,0.8c4.47-17.01,5.82-34.62,6.28-52.14
			c0.45-17.34,0.03-34.71,1.17-52.02c0.62-9.37,1.73-18.7,3.78-27.87C561.96,480.31,559.07,479.51,558.65,481.39L558.65,481.39z"/>
	</g>
</g>
<g>
	<g>
		<path class="st1" d="M524.68,409.39c-2.83,18.53-2.87,37.35-0.13,55.89c0.28,1.9,3.17,1.09,2.89-0.8
			c-2.65-17.97-2.61-36.34,0.13-54.29C527.86,408.3,524.97,407.49,524.68,409.39L524.68,409.39z"/>
	</g>
</g>
<g>
	<g>
		<path class="st1" d="M567.07,374.72c-5.04,8.56-7.7,18.37-7.67,28.31c0.01,1.93,3.01,1.93,3,0c-0.03-9.42,2.47-18.68,7.26-26.79
			C570.64,374.57,568.05,373.06,567.07,374.72L567.07,374.72z"/>
	</g>
</g>
<g>
	<g>
		<path class="st1" d="M500.61,461.34c-2.15,5.05-3.12,10.5-2.68,15.98c0.07,0.81,0.64,1.5,1.5,1.5c0.76,0,1.57-0.69,1.5-1.5
			c-0.4-4.92,0.32-9.92,2.27-14.47c0.32-0.74,0.22-1.61-0.54-2.05C502.04,460.43,500.93,460.59,500.61,461.34L500.61,461.34z"/>
	</g>
</g>
<g>
	<g>
		<path class="st1" d="M571.91,452.46c4.26-8.98,6.11-18.96,5.19-28.86c-0.18-1.91-3.18-1.92-3,0c0.87,9.37-0.74,18.84-4.78,27.35
			C568.5,452.68,571.08,454.21,571.91,452.46L571.91,452.46z"/>
	</g>
</g>
<g>
	<g>
		<path d="M337.98,350.63c-1.38,0-2.75,0-4.13,0c-0.78,0-1.54,0.69-1.5,1.5c0.04,0.81,0.66,1.5,1.5,1.5c1.38,0,2.75,0,4.13,0
			c0.78,0,1.54-0.69,1.5-1.5C339.44,351.31,338.82,350.63,337.98,350.63L337.98,350.63z"/>
	</g>
</g>
<path class="st2" d="M403.14,1284.8"/>
<path class="st3" d="M506.11,517.02c5.18-10.72,4.28-24.65-2-35c-23.14-38.17-119.58-28.17-132,4c-6.04,15.64,8.94,33.54,11,36
	C413.13,557.89,490.07,550.21,506.11,517.02z"/>
<path class="st4" d="M303.11,528.02c0.02,23.74,4.66,54.68,25,80c57.6,71.69,210.27,59.93,245-7c5.83-11.24,13.22-33.46,2-71
	c-27.67-7-55.33-14-83-21c-28.46-1.23-61.5-0.83-98,3C359.92,515.61,303.11,528.02,303.11,528.02z"/>
<path class="st5" d="M500.47,419.49c2.63,23.55-6,13-8,90c-2.94,9.27-8.97,25.81-22,43c-10.02,13.22-18.65,24.6-30,25
	c-18.93,0.66-33.56-29.65-40-43c-13.52-28-6-64-11-106C410.51,402.25,458.15,395.59,500.47,419.49z"/>
<g>
	<path class="st6" d="M555.09,922.54c1.96-4.29,6.31-15.17,1.38-22.05c-3.4-4.74-9.72-5.52-11.98-5.8
		c-54.87-6.94-12.26-12.05-90.68-13.56c-40.48-0.78-83.06-0.96-118.58,18.47c-1.8,0.98-3.64,2.08-4.69,3.84
		c-0.89,1.49-1.1,3.28-1.28,5.02c-3.14,30.51-3.29,61.33-0.43,91.87c0.78,8.37,1.82,16.83,4.83,24.68
		c4.34,11.31,12.51,20.66,20.51,29.75c3.94,4.47,8.06,9.08,13.52,11.46c6.31,2.74,13.48,2.14,20.35,2.42
		c10.01,0.41,19.83,2.81,29.79,3.85c9.96,1.05,20.5,0.62,29.29-4.19c5.89-3.23,10.6-8.21,15.19-13.11
		c13.19-14.04,26.4-28.12,38.09-43.43c4.17-5.47,8.16-11.11,12.94-16.05c5.42-5.6,11.8-10.25,16.83-16.21
		c6.23-7.37,10.11-16.39,13.9-25.26c3.64-8.52,8.12-20.32,11.8-35.05"/>
</g>
<g>
	<path class="st7" d="M391.97,427.99c11.99-6.42,36.45-17.3,68.33-16.11c16.83,0.63,30.72,4.43,40.67,8.11c-2,15-4,30-6,45
		c0,0-23.03,18.75-36.31,22.96c-17.24,5.47-32.91,4.91-46.59,4.21c-8.43-0.43-15.37-1.39-20.1-2.18"/>
</g>
<path class="st8" d="M589.47,310.49c12.71-24.5,10.4-50.84,9.64-59.47c-4.24-48.3-37.48-87.79-72-107
	c-38.4-21.37-87.34-22.64-87.03-24.31c0.06-0.31,1.72-0.13,3.39-0.22c19-1,27.61-47.69,26-49c-1.54-1.25-23.69,27.21-41,42
	c-115.5,5.3-140.39,8.53-140.36,10.53c0.04,2.5,39.06,2.33,98.87,17.35c0.16,0.04,0.34,0.09,0.49,0.12
	c-23.75-7.04-41.07-3.14-49.36-0.47c-38.48,12.36-65.62,56.78-66,111c6.64,49.67,28.23,76.33,40.36,88.47
	C387.32,414.44,550.43,385.76,589.47,310.49z"/>
<path class="st5" d="M287.47,301.49c-10.38,4.58-10.06,25.47-10,28c1.09,43.16,55.54,68.45,59,70c12.05,5.4,24.6,11.04,30,6
	c10.43-9.73-12.72-52.96-40-81C317.07,314.84,299.1,296.37,287.47,301.49z"/>
<path class="st5" d="M590.89,301.93c10.38,4.58,10.06,25.47,10,28c-1.09,43.16-55.54,68.45-59,70c-12.05,5.4-24.6,11.04-30,6
	c-10.43-9.73,12.72-52.96,40-81C561.29,315.27,579.26,296.8,590.89,301.93z"/>
<path class="st5" d="M313.47,286.49c3,48,28,110,28,110c1.94,1.77,13.05,60.21,99,83c15.98-4.59,76.39-12.59,97-78
	c21-54,31.35-104.69,30-121c-9.02-56.66-54.24-130.14-123-132C372.24,146.54,321.1,224.89,313.47,286.49z"/>
<path class="st8" d="M419.47,217.49c-7,66-29,96-29,96s56-29,45-39c1.76,1.49-14,45-32,55c4.73,6.17,28.68-0.81,44-13
	c43.35-34.5,25.69-117.12,23-129"/>
<path class="st8" d="M450.47,213.49c14.01,28.85,62.09,68.06,100.58,100.55c6.89,5.82-1.42,24.24-12.58,42.45
	c3.27,3.09,12.2-1.57,14.1-2.56c21.77-11.35,24.72-44.72,24.9-47.44c2.11-32.78-29.62-68.25-78.36-89.47"/>
<path class="st2" d="M313.47,336.38"/>
<path class="st9" d="M578.47,290.49c16.73-14.19-7.66-108.46-76-144c-65.01-33.81-154.86-6.63-191,51c-20.8,33.16-27.38,81.62-11,92
	c28.84,18.27,125.02-83.91,136.5-72.5c4.98,4.95-11.12,26.16-4.5,32.5c7.01,6.71,25.92-16.2,49.5-12.5c23.3,3.66,24.19,29.06,59,46
	C550.47,287.62,570.42,297.32,578.47,290.49z"/>
<g>
	<g>
		<path class="st1" d="M419.85,216.63c0.78-3.65,1.16-7.39,1.13-11.12c-0.01-1.07-1.29-1.96-2.26-1.3c-3.41,2.35-6.52,5.1-9.24,8.23
			c-0.53,0.61-0.6,1.52,0,2.12c0.54,0.54,1.59,0.61,2.12,0c2.55-2.93,5.44-5.55,8.63-7.76c-0.75-0.43-1.5-0.86-2.26-1.3
			c0.04,3.47-0.3,6.93-1.02,10.33c-0.17,0.79,0.23,1.62,1.05,1.85C418.75,217.88,419.68,217.42,419.85,216.63L419.85,216.63z"/>
	</g>
</g>
<g>
	<path d="M476.91,233.59c-0.74,0.01-0.84-7.33-3.11-21.84c-1.42-9.13-2.97-16.61-4.1-21.68c2.72,4.55,6.13,11.49,7.76,20.42
		C479.66,222.5,477.82,233.58,476.91,233.59z"/>
	<g>
		<path class="st1" d="M476.91,232.09c0.38,0.04,1.05,0.54,1.12,0.59c0.02,0.01,0.09,0.37,0.07,0.15c-0.02-0.19-0.1-0.39-0.14-0.58
			c-0.16-0.76-0.17-1.05-0.26-1.76c-0.28-2.33-0.51-4.67-0.79-7.01c-0.92-7.81-2.12-15.58-3.59-23.3
			c-0.67-3.51-1.39-7.02-2.17-10.51c-0.91,0.39-1.83,0.77-2.74,1.16c4.15,6.98,6.96,14.7,8.04,22.76c0.58,4.34,0.71,8.76,0.39,13.12
			c-0.1,1.42-0.25,2.85-0.53,4.25c-0.1,0.47-0.21,0.94-0.35,1.4c-0.1,0.32-0.1,0.12-0.06,0.19c-0.02,0.05-0.05,0.1-0.08,0.14
			c0.16-0.27,0.39-0.44,0.7-0.54c-1.9,0.33-1.09,3.23,0.8,2.89c1.53-0.27,1.81-2.79,2.02-3.96c0.52-3.01,0.68-6.08,0.67-9.12
			c-0.03-7.98-1.44-15.95-4.42-23.36c-1.29-3.21-2.82-6.31-4.58-9.28c-0.89-1.49-3.11-0.49-2.74,1.16
			c1.69,7.58,3.12,15.21,4.29,22.89c0.93,6.14,1.48,12.32,2.32,18.47c0.19,1.35,0.34,3.1,2.04,3.27
			C478.83,235.28,478.82,232.28,476.91,232.09z"/>
	</g>
</g>
<g>
	<g>
		<path class="st1" d="M583.07,291.43c0-3.52,0-7.03,0-10.55c0-0.81-0.69-1.5-1.5-1.5c-0.81,0-1.5,0.69-1.5,1.5
			c0,3.52,0,7.03,0,10.55c0,0.81,0.69,1.5,1.5,1.5C582.38,292.93,583.07,292.25,583.07,291.43L583.07,291.43z"/>
	</g>
</g>
<g>
	<g>
		<path class="st1" d="M352.27,136.65c9.05-0.66,18.17-0.34,27.14,1.02c1.89,0.29,2.7-2.6,0.8-2.89c-9.25-1.4-18.6-1.81-27.94-1.13
			C350.36,133.79,350.34,136.79,352.27,136.65L352.27,136.65z"/>
	</g>
</g>
<g>
	<g>
		<path class="st1" d="M461.04,177.78c-1.68-3.47-4.81-6.12-8.44-7.34c-0.74-0.25-1.67,0.29-1.85,1.05
			c-0.19,0.83,0.25,1.58,1.05,1.85c0.2,0.07,0.4,0.14,0.59,0.21c0.16,0.06,0.2,0.06,0.01,0c0.1,0.03,0.22,0.09,0.31,0.14
			c0.38,0.18,0.76,0.37,1.12,0.58c0.35,0.2,0.68,0.42,1.01,0.66c0.08,0.06,0.15,0.11,0.23,0.17c0.31,0.23-0.24-0.2,0.06,0.05
			c0.16,0.13,0.32,0.27,0.48,0.41c0.3,0.27,0.59,0.55,0.86,0.84c0.14,0.15,0.28,0.31,0.42,0.47c0.06,0.07,0.12,0.15,0.18,0.22
			c0.04,0.05,0.3,0.33,0.05,0.06c0.55,0.59,0.96,1.43,1.31,2.15c0.34,0.71,1.41,0.95,2.05,0.54
			C461.22,179.37,461.4,178.54,461.04,177.78L461.04,177.78z"/>
	</g>
</g>
<g>
	<g>
		<path class="st1" d="M543.22,177.49c8.24,14.54,15.54,29.59,21.83,45.07c0.72,1.77,3.62,0.99,2.89-0.8
			c-6.38-15.72-13.76-31.02-22.13-45.79C544.85,174.29,542.26,175.8,543.22,177.49L543.22,177.49z"/>
	</g>
</g>
<g>
	<g>
		<path class="st1" d="M296.64,238.16c0.55-4.03,2.17-7.72,3.86-11.38c1.77-3.84,3.6-7.66,5.48-11.45
			c3.72-7.51,7.64-14.92,11.75-22.23c0.95-1.68-1.64-3.2-2.59-1.51c-4.19,7.44-8.18,15-11.97,22.66c-1.87,3.79-3.7,7.61-5.47,11.46
			c-1.72,3.74-3.4,7.55-3.96,11.67c-0.11,0.81,0.2,1.6,1.05,1.85C295.49,239.41,296.53,238.96,296.64,238.16L296.64,238.16z"/>
	</g>
</g>
<path class="st10" d="M289.47,315.49c-1.18,3.76-3.06,11.56-1,21c1.38,6.34,4.03,11.08,6,14"/>
<path class="st10" d="M590.57,314.32c1.18,3.76,3.06,11.56,1,21c-1.38,6.34-4.03,11.08-6,14"/>
<path class="st11" d="M390.47,1532.49c0,0-9.49,47.39-6,99c3.31,49.02,22.2,90.39,25,120c1.24,25.38,1.14,49.01-4,66
	c-8.09,5.12-31.96,18.74-64.52,16.43c-25.88-1.84-44.29-12.81-52.48-18.43c-1.56-6.42-3.46-16.11-4-28c-0.9-19.88,2.55-34.07,8-57
	c2.99-12.58,7.85-33.18,15-64c1.77-44.7,0.48-87.89-5-129C329.97,1543.47,359.6,1540.55,390.47,1532.49z"/>
<path class="st2" d="M395.47,1760.49c-26.14-29.43-87-20-97,1"/>
<path class="st2" d="M285.47,1798.49c40.99,18.4,81.99,18.89,123,1"/>
<path class="st11" d="M493.47,1532.49c1.48,21.25,2.61,43.26,3.28,66.01c0.56,18.83,0.78,37.17,0.72,54.99
	c-7.7,32.51-15.4,65.01-23.09,97.52c0,0-1.14,49.01,4,66c8.09,5.12,31.96,18.74,64.52,16.43c25.88-1.84,44.29-12.81,52.48-18.43
	c1.56-6.42,3.46-16.11,4-28c0.9-19.88-2.55-34.07-8-57c-2.99-12.58-7.85-33.18-15-64c-0.53-21.14-0.64-43.11-0.22-65.85
	c0.49-26.29,1.65-51.55,3.31-75.67c-6.46,4.51-20.66,13.14-40.83,15.28C517.19,1542.04,500.66,1535.74,493.47,1532.49z"/>
<path class="st2" d="M488.37,1760.01c26.14-29.43,87-20,97,1"/>
<path class="st2" d="M598.37,1798.01c-40.99,18.4-81.99,18.89-123,1"/>
<g>
	<path class="st12" d="M381.51,1673.67c2.36,16.03,5.38,31.95,9.07,47.73"/>
	<g>
		<path class="st12" d="M377.17,1674.86c2.36,16.03,5.39,31.95,9.07,47.73c0.53,2.29,3.29,3.87,5.54,3.14
			c2.4-0.78,3.72-3.08,3.14-5.54c-3.68-15.78-6.7-31.7-9.07-47.73c-0.34-2.34-3.42-3.83-5.54-3.14
			C377.76,1670.15,376.8,1672.36,377.17,1674.86L377.17,1674.86z"/>
	</g>
</g>
<g>
	<path class="st12" d="M567.6,1678.31c5.41,16.13,10.82,32.27,16.23,48.4"/>
	<g>
		<path class="st12" d="M563.26,1679.5c5.41,16.13,10.82,32.27,16.23,48.4c0.75,2.23,3.13,3.92,5.54,3.14
			c2.22-0.72,3.94-3.15,3.14-5.54c-5.41-16.13-10.82-32.27-16.23-48.4c-0.75-2.23-3.13-3.92-5.54-3.14
			C564.19,1674.68,562.46,1677.11,563.26,1679.5L563.26,1679.5z"/>
	</g>
</g>
<g>
	<g>
		<path class="st12" d="M354.9,1757.31c0.86,0.29,1.72,0.59,2.57,0.91c0.43,0.16,0.85,0.32,1.27,0.49c0.21,0.08,1.63,0.65,0.5,0.19
			c1.58,0.64,3.12,1.39,4.63,2.17c3.13,1.61,6.14,3.46,9,5.52c1.92,1.38,5.09,0.4,6.16-1.61c1.23-2.33,0.43-4.68-1.61-6.16
			c-6.13-4.41-12.95-7.8-20.12-10.19c-2.23-0.74-5.02,0.86-5.54,3.14C351.19,1754.25,352.5,1756.51,354.9,1757.31L354.9,1757.31z"/>
	</g>
</g>
<g>
	<g>
		<path class="st12" d="M543.96,1760.44c1.13,0.01,2.25,0.06,3.37,0.16c0.28,0.02,0.56,0.06,0.84,0.08c0.38,0.04,0.53,0.06,0.06,0
			c0.56,0.07,1.11,0.17,1.67,0.27c2.28,0.41,4.54,1.01,6.72,1.79c0.53,0.19,1.05,0.41,1.58,0.6c0.68,0.24-0.56-0.26,0.09,0.03
			c0.26,0.11,0.52,0.23,0.77,0.34c1.02,0.47,2.03,0.98,3.01,1.53c0.98,0.55,1.94,1.14,2.88,1.76c0.47,0.31,0.93,0.63,1.38,0.97
			c0.06,0.04,0.73,0.54,0.39,0.28c-0.37-0.29,0.56,0.45,0.54,0.43c1.83,1.48,4.6,1.92,6.36,0c1.51-1.64,1.95-4.78,0-6.36
			c-8.43-6.84-18.78-10.75-29.67-10.88c-2.35-0.03-4.61,2.09-4.5,4.5C539.57,1758.4,541.44,1760.41,543.96,1760.44L543.96,1760.44z"
			/>
	</g>
</g>
<line class="st13" x1="446.47" y1="331.49" x2="433.47" y2="339.49"/>
<line class="st13" x1="447.47" y1="336.49" x2="426.47" y2="349.49"/>
<line class="st13" x1="452.47" y1="339.49" x2="425.47" y2="356.49"/>
<line class="st13" x1="454.47" y1="345.49" x2="426.47" y2="362.49"/>
<line class="st13" x1="457.47" y1="349.49" x2="428.47" y2="366.49"/>
<path class="st14" d="M440.47,375.99c-0.17,4-0.33,8-0.5,12c-1.83-1.67-3.67-3.33-5.5-5"/>
<g>
	<g>
		<path class="st7" d="M346.4,365.28c-0.61,0.82-1.22,1.63-1.83,2.45c-0.11,0.17-0.17,0.36-0.18,0.56c-0.04,0.2-0.04,0.4,0.03,0.6
			c0.1,0.35,0.36,0.73,0.69,0.9c0.35,0.18,0.77,0.28,1.16,0.15c0.12-0.05,0.24-0.1,0.36-0.15c0.23-0.13,0.4-0.31,0.54-0.54
			c0.61-0.82,1.22-1.63,1.83-2.45c0.11-0.17,0.17-0.36,0.18-0.56c0.04-0.2,0.04-0.4-0.03-0.6c-0.1-0.35-0.36-0.72-0.69-0.9
			c-0.35-0.18-0.77-0.28-1.16-0.15c-0.12,0.05-0.24,0.1-0.36,0.15C346.71,364.88,346.53,365.06,346.4,365.28L346.4,365.28z"/>
	</g>
</g>
<g>
	<g>
		<path class="st7" d="M350.35,368.02c-0.2,0.31-0.41,0.61-0.61,0.92c-0.11,0.17-0.17,0.36-0.18,0.56c-0.04,0.2-0.04,0.4,0.03,0.6
			c0.05,0.2,0.14,0.37,0.27,0.51c0.11,0.16,0.25,0.29,0.42,0.39c0.12,0.05,0.24,0.1,0.36,0.15c0.27,0.07,0.53,0.07,0.8,0
			c0.12-0.05,0.24-0.1,0.36-0.15c0.23-0.13,0.4-0.31,0.54-0.54c0.2-0.31,0.41-0.61,0.61-0.92c0.11-0.17,0.17-0.36,0.18-0.56
			c0.04-0.2,0.04-0.4-0.03-0.6c-0.05-0.2-0.14-0.37-0.27-0.51c-0.11-0.16-0.25-0.29-0.42-0.39c-0.12-0.05-0.24-0.1-0.36-0.15
			c-0.27-0.07-0.53-0.07-0.8,0c-0.12,0.05-0.24,0.1-0.36,0.15C350.66,367.61,350.48,367.79,350.35,368.02L350.35,368.02z"/>
	</g>
</g>
<g>
	<g>
		<path class="st7" d="M519.84,372.87c0,0.51,0,1.02,0,1.53c-0.01,0.21,0.04,0.4,0.13,0.58c0.06,0.19,0.16,0.35,0.31,0.48
			c0.14,0.15,0.3,0.25,0.48,0.31c0.18,0.09,0.37,0.14,0.58,0.13c0.13-0.02,0.27-0.04,0.4-0.05c0.25-0.07,0.47-0.2,0.66-0.39
			c0.27-0.29,0.44-0.65,0.44-1.06c0-0.51,0-1.02,0-1.53c0.01-0.21-0.04-0.4-0.13-0.58c-0.06-0.19-0.16-0.35-0.31-0.48
			c-0.14-0.15-0.3-0.25-0.48-0.31c-0.18-0.09-0.37-0.14-0.58-0.13c-0.13,0.02-0.27,0.04-0.4,0.05c-0.25,0.07-0.47,0.2-0.66,0.39
			C520.01,372.1,519.84,372.46,519.84,372.87L519.84,372.87z"/>
	</g>
</g>
<g>
	<g>
		<path class="st7" d="M523.39,371.68c0.01,0.01,0.02,0.03,0.04,0.04c-0.08-0.1-0.16-0.2-0.23-0.3c0.24,0.32,0.44,0.66,0.6,1.03
			c-0.05-0.12-0.1-0.24-0.15-0.36c0.17,0.4,0.28,0.82,0.34,1.26c-0.02-0.13-0.04-0.27-0.05-0.4c0.05,0.38,0.05,0.76,0.01,1.13
			c-0.04,0.36,0.2,0.82,0.44,1.06c0.26,0.26,0.69,0.46,1.06,0.44c0.39-0.02,0.79-0.14,1.06-0.44c0.08-0.1,0.16-0.2,0.23-0.3
			c0.14-0.23,0.2-0.49,0.2-0.76c0.08-0.75,0-1.53-0.21-2.25c-0.12-0.4-0.28-0.8-0.47-1.18c-0.2-0.4-0.47-0.74-0.74-1.09
			c-0.22-0.28-0.72-0.44-1.06-0.44c-0.37,0-0.81,0.16-1.06,0.44c-0.26,0.29-0.46,0.66-0.44,1.06c0.02,0.13,0.04,0.27,0.05,0.4
			C523.07,371.27,523.2,371.49,523.39,371.68L523.39,371.68z"/>
	</g>
</g>
<path class="st8" d="M425.47,220.49c-8.4,16.41-20.38,36.17-37.36,56.53c-22.31,26.73-45.51,45.22-63.64,57.47c-2,5,9.6,31.37,11,31
	c0.08-0.02,0.11-0.11,0.12-0.15c0.4-1.58-19.71-7.98-33.32-28.97c-7.35-11.33-16.32-28.33-10.8-62.88"/>
<path class="st15" d="M226.47,949.49c-9.32-22.98-46.89-35.47-58-25c-6.56,6.18-0.38,17.04,7.5,51.5
	c14.68,64.16,7.8,94.41,28.5,104.5c1.9,0.93,10.53,5.13,16.5,1.5c13.15-8-7.14-41.56,0.5-91.5
	C225,967.4,231.32,961.46,226.47,949.49z"/>
<path class="st5" d="M220.47,1089.49c0,0,27,14,33,14c1.71-1.44,2.01-4.02,1.86-6.32c0,0,0.03-2.36-0.86-4.68c-1.55-4-13-9-13-9
	c-7.72-3.34-10.71-3.63-13-7c-1.45-2.13-2-6-2-6"/>
<path class="st5" d="M164.97,927.99c0.73,21.69-10.53,95.94-14,96c0,0,20.29,46.84,28,71l71,19c0.47-2,0.59-3.84,0.5-5.5
	c-0.9-16.92-24.34-26.9-27-28"/>
<path class="st5" d="M226.47,961.49c4,29-1,61-1,61c1.23,15.69,2.5,31.33,8,41c-1.73,6.5-7.11,7.99-15,6
	c-6.77-5.51-11.2-22.27-15-42c0,0-19.21-9.78-19.43-9.37c-0.02,0.04,0.12,0.16,0.43,0.37"/>
<path class="st5" d="M179.47,1029.49c7.12,15,13.28,30,18,45"/>
<path class="st15" d="M653.48,961.84c9.32-22.98,46.89-35.47,58-25c6.56,6.18,0.38,17.04-7.5,51.5
	c-14.68,64.16-7.8,94.41-28.5,104.5c-1.9,0.93-10.53,5.13-16.5,1.5c-13.15-8,7.14-41.56-0.5-91.5
	C654.95,979.74,648.62,973.81,653.48,961.84z"/>
<path class="st5" d="M659.48,1101.84c0,0-27,14-33,14c-1.71-1.44-2.01-4.02-1.86-6.32c0,0-0.03-2.36,0.86-4.68c1.55-4,13-9,13-9
	c7.72-3.34,10.71-3.63,13-7c1.45-2.13,2-6,2-6"/>
<path class="st5" d="M714.98,940.34c-0.73,21.69,10.53,95.94,14,96c0,0-20.29,46.84-28,71l-71,19c-0.47-2-0.59-3.84-0.5-5.5
	c0.9-16.92,24.34-26.9,27-28"/>
<path class="st5" d="M653.48,973.84c-4,29,1,61,1,61c-1.23,15.69-2.5,31.33-8,41c1.73,6.5,7.11,7.99,15,6
	c6.77-5.51,11.2-22.27,15-42c0,0,19.21-9.78,19.43-9.37c0.02,0.04-0.12,0.16-0.43,0.37"/>
<path class="st5" d="M700.48,1041.84c-7.12,15-13.28,30-18,45"/>
<path class="st16" d="M520.75,517.44c31.67,6,63.33,12,95,18c7.75,21.46,10.98,43.27,13.71,65.05c13.88,110.47,61.48,208.21,82,297
	c11.61,29.33,19.3,58.66,18,88c-25.1,45.84-57.16,44.47-91,31c-25.33-130.27-65.12-261.25-87-392"/>
<path class="st16" d="M381.47,513.49c-31.67,6-63.33,12-95,18c-7.82,24.9-15.49,50.24-23,76c-17.62,60.47-33.2,119.53-47,177
	c-13.65,31.92-27.04,66.91-39.39,104.86c-8.34,25.65-15.49,50.42-21.61,74.14c3.41,6.84,14.9,27.7,40,39c15.21,6.85,29.12,7.34,37,7
	c36.33-132,72.67-264,109-396"/>
<g>
	<g>
		<path d="M372.76,910.38c-0.6-0.62-1.35-1.33-2.1-1.77c-0.57-0.33-1.29-0.26-1.93-0.27c-0.75-0.02-1.5-0.05-2.25-0.07
			c-3-0.09-6.01-0.18-9.01-0.27c-1.93-0.06-1.93,2.94,0,3c4.13,0.12,8.26,0.25,12.39,0.37c-0.25-0.07-0.5-0.14-0.76-0.2
			c0.05,0.04,0.14,0.08,0.18,0.14c-0.2-0.26,0.2,0.16,0.28,0.22c0.38,0.31,0.75,0.63,1.09,0.98
			C371.98,913.89,374.1,911.77,372.76,910.38L372.76,910.38z"/>
	</g>
</g>
<g>
	<g>
		<path d="M355.71,948.79c4.46,2,9.27,2.66,14.11,1.92c0.8-0.12,1.24-1.13,1.05-1.85c-0.24-0.86-1.04-1.17-1.85-1.05
			c-2.06,0.31-4.37,0.32-6.49-0.04c-1.02-0.17-2.03-0.41-3.02-0.72c-0.83-0.26-1.69-0.59-2.29-0.86c-0.74-0.33-1.61-0.21-2.05,0.54
			C354.8,947.38,354.97,948.46,355.71,948.79L355.71,948.79z"/>
	</g>
</g>
<g>
	<g>
		<path d="M355.67,911.23c-0.17,12.23-0.33,24.46-0.5,36.69c-0.03,1.93,2.97,1.93,3,0c0.17-12.23,0.33-24.46,0.5-36.69
			C358.69,909.3,355.69,909.3,355.67,911.23L355.67,911.23z"/>
	</g>
</g>
<g>
	<g>
		<path d="M368.03,911.01c-0.69,12.83-1.38,25.66-2.07,38.49c-0.1,1.93,2.9,1.92,3,0c0.69-12.83,1.38-25.66,2.07-38.49
			C371.14,909.08,368.14,909.08,368.03,911.01L368.03,911.01z"/>
	</g>
</g>
<g>
	<path d="M413.47,914.49c-0.33,12-0.67,24-1,36c21-0.33,42-0.67,63-1c-0.33-11.67-0.67-23.33-1-35
		C454.13,914.49,433.8,914.49,413.47,914.49z"/>
	<g>
		<path d="M411.97,914.49c-0.33,12-0.67,24-1,36c-0.02,0.8,0.71,1.51,1.5,1.5c21-0.33,42-0.67,63-1c0.79-0.01,1.52-0.68,1.5-1.5
			c-0.33-11.67-0.67-23.33-1-35c-0.02-0.81-0.67-1.5-1.5-1.5c-20.33,0-40.67,0-61,0c-1.93,0-1.93,3,0,3c20.33,0,40.67,0,61,0
			c-0.5-0.5-1-1-1.5-1.5c0.33,11.67,0.67,23.33,1,35c0.5-0.5,1-1,1.5-1.5c-21,0.33-42,0.67-63,1c0.5,0.5,1,1,1.5,1.5
			c0.33-12,0.67-24,1-36C415.02,912.56,412.02,912.56,411.97,914.49z"/>
	</g>
</g>
<path class="st2" d="M317.47,945.49c82.63,4.63,166.31,5.23,252-2"/>
<path class="st16" d="M327.47,906.49c-21.61,43.64-38.83,88.29-27.36,139.53c0.93,40.23,2.12,80.86,3.58,121.89
	c1.87,52.54,4.14,104.41,6.78,155.58c-2,8.67-4,17.33-6,26c3.67,7.67,7.33,15.33,11,23l-7.99,43.65l-3.01,37.35l-16,23l7,26l-7,17
	c0,0,6.23,12.56,9,15c19.44,17.09,88.67-1.09,92.51-2.13c4.16-10.29,8.32-20.58,12.49-30.87c-2.83-11.71-5.66-23.42-8.49-35.13
	c-0.72-13.01,0.6-23.24,1.88-30c4.62-24.51,3.78-43.09,10.16-64.95c3.19-10.94,6.64-19.6,8.97-25.05c-3-11-9-33-9-33
	c8.82-40.4,16.84-83.9,23.37-130.26c5.49-38.99,9.42-76.28,12.12-111.61c21.34-0.84,32.01-1.51,32-2c-0.01-0.74-24.68-1.08-74-1"/>
<path class="st16" d="M559.47,907.49c4.04,5.41,7.96,11.24,11.64,17.53c27.93,47.66,29.08,98.02,26,131
	c-5.66,35.06-10.41,72.8-13.64,112.97c-4.51,56.08-5.36,108.18-4,155.5c3,7.33,6,14.67,9,22c-3.13,12.85-4.95,17.99-6,19
	c-0.04,0.04-0.19,0.17-0.3,0.4c-0.7,1.48,1.53,4.08,4.3,6.6c-1.33,4-2.67,8-4,12c-8.02,17.28-5.97,45.13-2,75
	c6.35,19.76,10.82,45.32,2,61c-13.49,23.96-64.36,23.78-88,13c-3.01-2.3-18-30-18-30s11.96-34.03,14-36c0,0-2-56-9-72
	c-1.86-1.94-8.12-7.83-7-14c0.64-3.51,3.99-8.99,4-9c-9.23-7.08-9.16-16.03-9-25c3-11,6-22,9-33c-20-118-37-243-37-243
	c-17.67-0.67-35.33-1.33-53-2"/>
<g>
	<g>
		<path d="M512.97,913.49c0.41,11.71,0.81,23.41,1.22,35.12c0.07,1.93,3.07,1.93,3,0c-0.41-11.71-0.81-23.41-1.22-35.12
			C515.9,911.57,512.9,911.56,512.97,913.49L512.97,913.49z"/>
	</g>
</g>
<g>
	<g>
		<path d="M499.97,914.49c0.67,11.67,1.33,23.33,2,35c0.11,1.92,3.11,1.93,3,0c-0.67-11.67-1.33-23.33-2-35
			C502.86,912.57,499.86,912.56,499.97,914.49L499.97,914.49z"/>
	</g>
</g>
<g>
	<g>
		<path d="M515.47,946.99c-4.67,0.33-9.33,0.67-14,1c-0.81,0.06-1.5,0.65-1.5,1.5c0,0.77,0.69,1.56,1.5,1.5
			c4.67-0.33,9.33-0.67,14-1c0.81-0.06,1.5-0.65,1.5-1.5C516.97,947.73,516.28,946.94,515.47,946.99L515.47,946.99z"/>
	</g>
</g>
<path class="st4" d="M364.11,514.02l-58,12c-5.81,26.2,4.54,52.34,25,65c24.86,15.38,62.49,9.55,72-11
	C411.69,561.46,398.2,529.02,364.11,514.02z"/>
<path class="st4" d="M518.55,515.11l58,12c8.39,26.94-3.43,54.66-25,65c-27.88,13.36-66.33-5.05-69.44-30.08
	C479.96,544.75,494.65,524.63,518.55,515.11z"/>
<g>
	<path class="st17" d="M327.11,567.02c-41.15,48.43-58.26,101.93-39,137c3.22,5.87,7.94,12.09,15,18
		c14.08,53.43,14.52,109.76,2.37,168.6c-1.69,8.19,1.34,16.6,2.12,24.8c0,0,10.7,15.97,13.77,18.33
		c33.67,5.24,72.45,9.13,115.44,9.7c49.07,0.66,92.94-3.15,130.27-8.62c4.41-4.82,9.31-9.48,8.47-12.94
		c-11.45-47.15-27.65-98.6-2.44-163.86c1.3-15.49,2.99-30.5,5-45c4.55-3.76,10.95-9.92,16-19c24.45-43.92-12.01-102.92-17-111
		c-8.54-13.83-17.81-24.05-25-31"/>
	<path d="M327.2,567.1c-26.27,31.21-52.79,75.88-45.57,118.14c1.32,7.12,3.82,14.03,7.48,20.28c3.67,6.28,8.6,11.77,14.12,16.47
		c8.23,31.49,11.85,64.15,10.89,96.67c-0.54,20.33-2.77,40.6-6.33,60.62c0,0-2.3,11.98-2.3,11.98c-1.41,8.11,1.47,16.11,2.22,24.14
		c4.19,5.89,8.58,13.03,13.67,18.24c40.61,6.32,81.7,9.68,122.8,9.6c41.1-0.03,82.15-3.06,122.87-8.63c0.7-0.98,2.67-2.81,3.77-4.12
		c2.31-2.7,5.69-5.93,4.29-9.79c-2.24-9.24-4.59-18.55-6.76-27.79c-7.04-29.61-11.3-60.4-6.86-90.74c2.08-15.07,6.1-30.1,11.5-44.18
		c1.26-15.06,2.93-30.08,5.01-45.05c8.84-7.21,15.8-16.66,19.87-27.33c3.98-10.68,5.12-22.28,4.14-33.6
		c-3.68-36.62-23.77-74.4-49.98-99.92c0,0,0.16-0.17,0.16-0.17c26.86,25.86,49.05,68.13,50.35,105.77
		c0.38,13.29-2.53,26.81-9.44,38.27c-3.93,6.52-9.06,12.3-14.92,17.14c-1.94,14.52-3.74,30-4.96,44.92
		c-21.28,54.54-13.74,102.3,0.78,157.06c0,0,1.38,5.55,1.38,5.55c0.11,0.47,0.25,0.91,0.33,1.4c0.34,3.48-2.62,6.22-4.64,8.7
		c0,0-3.86,4.23-3.86,4.23l-0.05,0.05c-60.99,9.57-123.11,10.89-184.6,5.99c-20.5-1.66-40.96-4.03-61.28-7.19
		c-5.38-5.47-9.4-12.12-13.82-18.36c-0.39-4.05-1.29-8.03-1.93-12.06c-0.64-4.01-1.02-8.13-0.3-12.17l2.3-11.98
		c6.4-35.99,8.46-72.9,4.33-109.28c-1.78-16.05-4.88-32.48-8.84-47.85c-15.97-12.94-23.64-32.79-22.89-53.1
		C281.29,632.11,303.55,593.88,327.2,567.1L327.2,567.1z"/>
</g>
<path class="st18" d="M467.47,553.49c-17.99,5.99-37.41,6.65-58,3c0.1-3.75,8,29,30,38C470.47,577.49,468.63,547.41,467.47,553.49z"
	/>
<path class="st2" d="M356.47,947.49"/>
<g>
	<path class="st12" d="M458.92,954.11c-2.48,35.13-4.97,70.25-7.45,105.38"/>
	<g>
		<path class="st12" d="M457.42,954.11c-1.93,27.34-3.87,54.68-5.8,82.02c-0.55,7.79-1.1,15.57-1.65,23.36c-0.14,1.93,2.86,1.92,3,0
			c1.93-27.34,3.87-54.68,5.8-82.02c0.55-7.79,1.1-15.58,1.65-23.36C460.56,952.19,457.56,952.2,457.42,954.11L457.42,954.11z"/>
	</g>
</g>
<g>
	<path class="st12" d="M427.93,956.97c-3.49,35.51-6.98,71.01-10.47,106.52"/>
	<g>
		<path class="st12" d="M426.43,956.97c-2.73,27.75-5.45,55.49-8.18,83.24c-0.76,7.76-1.53,15.52-2.29,23.29
			c-0.19,1.92,2.81,1.91,3,0c2.73-27.75,5.45-55.49,8.18-83.24c0.76-7.76,1.53-15.52,2.29-23.29
			C429.62,955.05,426.62,955.06,426.43,956.97L426.43,956.97z"/>
	</g>
</g>
<g>
	<path class="st12" d="M351.74,963.76c-0.95,11.6-1.9,23.2-2.86,34.79c-0.13,1.56-0.27,3.16-0.92,4.59
		c-1.24,2.72-3.46,4.14-4.01,4.51c-3.49,2.39-16.83,15.24-37.5,35.85"/>
	<g>
		<path class="st12" d="M350.24,963.76c-0.73,8.95-1.47,17.89-2.2,26.84c-0.18,2.24-0.37,4.47-0.55,6.71
			c-0.16,1.96-0.19,4.02-1.18,5.78c-0.9,1.61-2.25,2.6-3.68,3.68c-2.43,1.84-4.66,3.96-6.89,6.04c-3.92,3.65-7.76,7.37-11.59,11.11
			c-6.29,6.13-12.52,12.32-18.74,18.52c-1.37,1.36,0.75,3.49,2.12,2.12c9.75-9.72,19.5-19.48,29.55-28.89
			c2.33-2.18,4.66-4.42,7.18-6.39c-0.32,0.25,0.13-0.1,0.25-0.18c0.2-0.14,0.4-0.27,0.6-0.41c1.08-0.77,2.05-1.64,2.87-2.69
			c2.55-3.28,2.42-7.46,2.75-11.41c0.84-10.27,1.69-20.54,2.53-30.82C353.4,961.83,350.4,961.84,350.24,963.76L350.24,963.76z"/>
	</g>
</g>
<g>
	<path class="st12" d="M529.1,954.8c-0.05,8.17-0.09,16.34-0.14,24.51c-0.01,1.35,0.03,2.82,0.88,3.86
		c0.69,0.84,1.77,1.22,2.79,1.57c12.15,4.1,24.29,8.21,36.44,12.31"/>
	<g>
		<path class="st12" d="M527.6,954.8c-0.03,4.82-0.05,9.64-0.08,14.46c-0.01,2.45-0.03,4.9-0.04,7.35
			c-0.01,1.94-0.28,4.15,0.39,6.02c0.68,1.88,2.24,2.79,4.03,3.43c2.31,0.83,4.65,1.57,6.97,2.36c4.65,1.57,9.31,3.14,13.96,4.72
			c5.28,1.79,10.57,3.57,15.85,5.36c1.83,0.62,2.62-2.28,0.8-2.89c-8.76-2.96-17.51-5.92-26.26-8.87c-2.13-0.72-4.26-1.44-6.39-2.16
			c-1.1-0.37-2.21-0.75-3.31-1.12c-0.77-0.26-1.76-0.48-2.36-1.08c-1.21-1.2-0.68-3.99-0.67-5.52c0.01-2.21,0.03-4.41,0.04-6.62
			c0.03-5.15,0.06-10.3,0.09-15.44C530.61,952.87,527.61,952.87,527.6,954.8L527.6,954.8z"/>
	</g>
</g>
<path class="st19" d="M318.47,1081.49c-2.46,55.32,2.87,127.32,16,216"/>
<path class="st19" d="M337.47,1366.49c-6.28,42.67-9.62,85.33-10,128"/>
<g>
	<path class="st12" d="M562.47,1088.49c-0.67,92.67-1.33,185.33-2,278"/>
	<path class="st12" d="M562.97,1088.5c3.31,46.18,3.56,92.77,3.09,139.03c-0.64,46.19-1.79,92.88-5.09,138.97c0,0-1-0.01-1-0.01
		c-3.65-69.38-3.87-139.1-1.95-208.52c0.38-10.1,0.94-24.75,1.51-34.74c0.65-11.58,1.35-23.16,2.44-34.73L562.97,1088.5
		L562.97,1088.5z"/>
</g>
<path class="st19" d="M566.47,1406.49c-3.38,36.31-6.95,69.93-11,97c-11.19,15.69-26.03,22.69-42,27"/>
<g>
	<path class="st20" d="M363.47,611.49c16.06,82.14,33.1,158.71,53,219"/>
	<path class="st20" d="M363.58,611.47c14.04,69,28.48,138.06,48.81,205.53c1.35,4.5,2.79,8.97,4.18,13.45l-0.22,0.07
		c-11.99-35.63-21.5-72.05-30.01-108.65C378.17,685.37,369.75,647.93,363.58,611.47L363.58,611.47z"/>
</g>
<g>
	<path class="st20" d="M341.47,839.49c24.28,33.45,56.92,50.17,92,62"/>
	<path class="st20" d="M341.57,839.42c21.57,29.21,51.72,47.18,85.32,59.54c0,0,6.63,2.41,6.63,2.41l-0.08,0.23l-6.7-2.23
		c-24.43-8.38-48.1-20.51-66.89-38.47c-6.85-6.48-13.02-13.67-18.47-21.34L341.57,839.42L341.57,839.42z"/>
</g>
<line class="st21" x1="531.47" y1="607.49" x2="490.47" y2="711.49"/>
<path class="st2" d="M144.97,13.99L144.97,13.99L144.97,13.99z"/>
<path class="st2" d="M497.47,497.49"/>
<path class="st2" d="M497.47,488.49"/>
<path class="st2" d="M501.47,487.49"/>
<g>
	<path d="M438.96,589.25c10.88,80.97,13.81,163.01,12.45,244.64c-0.25,13.02-0.59,27.84-1.34,40.83c-0.69,13.6-1.34,27.2-2.11,40.79
		l-1-0.05c0.27-13.61,0.65-27.21,0.99-40.81c0.93-33.62,0.65-68.34,0.05-102c-0.69-33.99-2.34-67.95-4.39-101.88
		c-1.68-27.15-3.62-54.28-5.64-81.43L438.96,589.25L438.96,589.25z"/>
</g>
<g>
	<g>
		<path class="st20" d="M545.43,806.91c-14.51,6.26-29.54,11.3-44.88,15.11c-0.74,0.18-1.32,1.09-1.05,1.85
			c3.04,8.5,4.63,17.42,4.7,26.45c0.01,1.93,3.01,1.93,3,0c-0.07-9.28-1.68-18.51-4.81-27.25c-0.35,0.62-0.7,1.23-1.05,1.85
			c15.6-3.87,30.84-9.05,45.6-15.41C548.71,808.73,547.19,806.15,545.43,806.91L545.43,806.91z"/>
	</g>
</g>
<g>
	<path class="st20" d="M510.94,709.98c9.99,0,19.97,0,29.96,0"/>
	<g>
		<path class="st20" d="M510.94,711.48c9.99,0,19.97,0,29.96,0c1.93,0,1.93-3,0-3c-9.99,0-19.97,0-29.96,0
			C509.01,708.48,509.01,711.48,510.94,711.48L510.94,711.48z"/>
	</g>
</g>
<g>
	<g>
		<path class="st12" d="M224.76,792.53c-0.04,2.79,0.81,5.41,1.65,8.04c0.91,2.83,1.82,5.65,2.73,8.48
			c1.8,5.58,3.59,11.15,5.39,16.73c0.59,1.83,3.49,1.05,2.89-0.8c-1.75-5.42-3.49-10.84-5.24-16.26c-0.86-2.67-1.72-5.34-2.58-8.01
			c-0.86-2.66-1.89-5.35-1.85-8.18C227.79,790.59,224.79,790.59,224.76,792.53L224.76,792.53z"/>
	</g>
</g>
<g>
	<g>
		<path class="st12" d="M692.91,907.25c-13.71,12.02-27.77,24.41-36.87,40.46c-0.99,1.75-3.15,4.58-1.58,6.56
			c0.7,0.88,1.74,1.02,2.79,1.13c1.47,0.15,2.95,0.29,4.42,0.43c1.92,0.19,1.91-2.81,0-3c-1.09-0.11-2.17-0.21-3.26-0.32
			c-0.36-0.04-1.22,0.06-1.5-0.16c0,0,0.31-0.56,0.5-0.9c0.95-1.81,1.98-3.58,3.06-5.32c2.14-3.41,4.5-6.67,7.05-9.79
			c5.17-6.32,10.99-12.08,16.99-17.6c3.46-3.18,6.99-6.28,10.52-9.37C696.48,908.1,694.35,905.98,692.91,907.25L692.91,907.25z"/>
	</g>
</g>
<g>
	<g>
		<path class="st12" d="M615.49,550.85c-8.04,8.9-15.93,17.94-23.65,27.12c-1.24,1.47,0.88,3.6,2.12,2.12
			c7.72-9.18,15.6-18.22,23.65-27.12C618.9,551.55,616.79,549.42,615.49,550.85L615.49,550.85z"/>
	</g>
</g>
<g>
	<g>
		<path class="st12" d="M232.74,846.03c-0.1,3.32,0.08,6.63,0.54,9.93c0.42,3.03,0.94,6.27,2.11,9.11c0.49,1.19,1.23,2.26,2.4,2.87
			c1.3,0.68,2.83,0.79,4.26,0.96c3.3,0.39,6.62,0.48,9.93,0.32c1.92-0.09,1.93-3.09,0-3c-2.9,0.14-5.81,0.09-8.7-0.19
			c-1.21-0.12-2.58-0.15-3.73-0.58c-1.07-0.4-1.41-1.41-1.71-2.43c-1.63-5.51-2.29-11.27-2.11-17
			C235.8,844.1,232.8,844.1,232.74,846.03L232.74,846.03z"/>
	</g>
</g>
<path class="st2" d="M137.46,27.26L137.46,27.26L137.46,27.26z"/>
<path class="st4" d="M395.43,634.13c0.8,19.32,1.61,38.64,2.41,57.96c-17.87,16.27-43.25,5.5-67.61-1.61
	c-2.85-19.4-3.19-38.7-2.41-57.96C350.35,633.06,372.89,633.59,395.43,634.13z"/>
<path class="st4" d="M399.86,622.5c-3.66-13.34-69.85-14.13-75.8,2.68c-2.96,8.36,8.93,21.16,20.51,25.86
	C371.06,661.79,402.69,632.82,399.86,622.5z"/>
<path class="st4" d="M492.46,629.84c-0.89,21.4-1.78,42.81-2.68,64.21c19.8,18.03,47.92,6.1,74.91-1.78
	c3.15-21.5,3.54-42.88,2.68-64.21C542.41,628.65,517.44,629.25,492.46,629.84z"/>
<path class="st4" d="M491.57,625.38c3.66-13.34,69.85-14.13,75.8,2.68c2.96,8.36-8.93,21.16-20.51,25.86
	C520.37,664.68,488.74,635.71,491.57,625.38z"/>
<path class="st4" d="M383.93,813.14c0.95,22.9,1.91,45.8,2.86,68.7c-21.18,19.29-51.26,6.52-80.14-1.91
	c-3.38-23-3.79-45.87-2.86-68.7C330.5,811.86,357.22,812.5,383.93,813.14z"/>
<path class="st4" d="M393.18,798.35c-4.33-15.81-82.79-16.75-89.85,3.17c-3.51,9.9,10.59,25.09,24.31,30.66
	C359.06,844.92,396.54,810.59,393.18,798.35z"/>
<path class="st4" d="M490.15,812.96c-0.95,22.9-1.91,45.8-2.86,68.7c21.18,19.29,51.26,6.52,80.14-1.91
	c3.38-23,3.79-45.87,2.86-68.7C543.58,811.69,516.87,812.33,490.15,812.96z"/>
<path class="st4" d="M484.9,799.18c4.33-15.81,82.79-16.75,89.85,3.17c3.51,9.9-10.59,25.09-24.31,30.66
	C519.03,845.75,481.55,811.42,484.9,799.18z"/>
<path class="st22" d="M540.11,615.02c-6.33-0.41-18.99,0.35-19,0c0,0,3.29,31.73,11,45c4.67,0,9.33,0,14,0
	C539.39,645.97,538.88,630.67,540.11,615.02z"/>
<path class="st22" d="M496.11,642.02c7.75,16.66,10.3,33.54-2,51"/>
<path class="st21" d="M494.85,818.42c10.41,20.62,13.84,41.5-2.69,63.11"/>
<path class="st21" d="M392.68,640.42c-7.75,16.66-10.3,33.54,2,51"/>
<path class="st21" d="M379.8,820.36c-10.41,20.62-13.84,41.5,2.69,63.11"/>
<g>
	<path class="st23" d="M468.59,355.5c-2.37-4.59-2.13-9.12-1.93-12.84c0.09-1.68,0.66-12.43,6.75-18.83
		c11.57-12.15,45.46-11.11,57.88,5.99c5.58,7.68,7.7,19.81,0.96,29.1c-9.27,12.78-28.98,11.45-33.77,11.12
		C495.83,369.87,475.15,368.22,468.59,355.5z"/>
	<path class="st24" d="M536.04,360.79c0.37-2.73,2.7-21.89-10-34.67c-15.64-15.75-44.75-12.45-56,2.04c-2.9,3.74-4.3,7.81-5,11.22"
		/>
	<ellipse class="st22" cx="495.29" cy="341.59" rx="12.25" ry="13.64"/>
	<ellipse class="st23" cx="501.07" cy="337.54" rx="4.76" ry="5.3"/>
	<path class="st23" d="M406.11,353.93c2.37-4.59,2.13-9.12,1.93-12.84c-0.09-1.68-0.66-12.43-6.75-18.83
		c-11.57-12.15-45.46-11.11-57.88,5.99c-5.58,7.68-7.7,19.81-0.96,29.1c9.27,12.78,28.98,11.45,33.77,11.12
		C378.87,368.29,399.54,366.64,406.11,353.93z"/>
	<ellipse class="st22" cx="379.41" cy="340.01" rx="12.25" ry="13.64"/>
	<ellipse class="st23" cx="385.63" cy="335.96" rx="4.76" ry="5.3"/>
	<path class="st2" d="M345.53,360.86c3.03,1.68,28.63,15.35,50,1.11c5.27-3.51,9.16-7.97,12-12.24"/>
	<path class="st25" d="M395.04,298.45c-23.83-0.83-45.82,3.49-65,15.58"/>
	<path class="st25" d="M477.08,298.44c23.83-0.83,45.82,3.49,65,15.58"/>
	<path class="st24" d="M337.9,357.69c-0.37-2.73-2.7-21.89,10-34.67c15.64-15.75,44.75-12.45,56,2.04c2.9,3.74,4.3,7.81,5,11.22"/>
	<path class="st2" d="M529.28,363c-3.03,1.68-28.63,15.35-50,1.11c-5.27-3.51-9.16-7.97-12-12.24"/>
</g>
<path class="st2" d="M561.11,247.02"/>
<g>
	<g>
		<path d="M337.85,341.21c-9.54-0.66-19.12-0.68-28.66-0.06c-1.92,0.12-1.93,3.13,0,3c9.55-0.62,19.12-0.6,28.66,0.06
			C339.78,344.34,339.77,341.34,337.85,341.21L337.85,341.21z"/>
	</g>
</g>
<g>
	<g>
		<path d="M534.82,346.08c12.13-1.58,24.27-3.06,36.42-4.46c1.9-0.22,1.92-3.22,0-3c-12.15,1.4-24.29,2.88-36.42,4.46
			c-0.81,0.11-1.49,0.61-1.5,1.5C533.31,345.31,534.01,346.19,534.82,346.08L534.82,346.08z"/>
	</g>
</g>
<g>
	<g>
		<path d="M338.17,353.76c-5.32-0.76-10.66-1.31-16.02-1.63c-1.93-0.11-1.92,2.89,0,3c5.09,0.3,10.17,0.8,15.22,1.52
			c0.8,0.11,1.61-0.2,1.85-1.05C339.41,354.9,338.97,353.87,338.17,353.76L338.17,353.76z"/>
	</g>
</g>
<g>
	<g>
		<path d="M536.77,358.99c5.38-1.7,10.91-2.94,16.51-3.64c0.8-0.1,1.5-0.62,1.5-1.5c0-0.73-0.69-1.6-1.5-1.5
			c-5.88,0.73-11.66,1.96-17.31,3.74C534.13,356.68,534.92,359.58,536.77,358.99L536.77,358.99z"/>
	</g>
</g>
<path class="st18" d="M483.02,424.52l-82.91,1.55c-7.95,1.53,11.95,29.49,48,25.19c25-2.98,40.45-23.45,36.61-26.32
	C484.2,424.56,483.02,424.52,483.02,424.52z"/>
<g>
	<g>
		<path class="st20" d="M419.93,640.39c18.86-5.48,38.31-8.72,57.93-9.62c1.92-0.09,1.93-3.09,0-3
			c-19.88,0.92-39.62,4.18-58.73,9.73C417.28,638.03,418.07,640.93,419.93,640.39L419.93,640.39z"/>
	</g>
</g>
<g>
	<g>
		<path class="st20" d="M420.48,658.87c9.21,0.93,18.56-1.01,27.66-2.27c9.41-1.3,18.82-2.6,28.23-3.9
			c0.81-0.11,1.23-1.14,1.05-1.85c-0.23-0.87-1.05-1.16-1.85-1.05c-9.24,1.28-18.49,2.55-27.73,3.83c-9,1.24-18.24,3.15-27.35,2.23
			C418.56,655.68,418.58,658.68,420.48,658.87L420.48,658.87z"/>
	</g>
</g>
<path class="st4" d="M440.11,593.02c11.11-5.84,25.18-14.71,39.36-27.97c19.27-18.02,30.89-36.82,37.64-50.03
	c-0.6-5.71-2.14-13.35-6.08-21.53c-1.56-3.23-3.25-6.05-4.92-8.47c-19.41,43.84-41.89,75.6-67,97
	C439.44,585.69,439.77,589.35,440.11,593.02z"/>
<path class="st4" d="M438.24,593.97c-10.05-4.69-24.92-13.16-39.13-27.95c-19.19-19.96-27.43-41.29-31-53
	c-0.74-4.89-1.66-15.74,4-27c2.14-4.26,4.71-7.56,7-10c5.82,18.12,14.82,40.36,29,64c10.32,17.21,21.18,31.46,31.13,42.95
	C438.91,586.64,438.58,590.31,438.24,593.97z"/>
<path class="st26" d="M505.11,866.33c25.17,1.61,48.15,2.21,65,0c0.6-7.83,1.06-15.4,0-19.81c-21.48,2.1-43.15,2.06-65,0
	C504.67,854.21,504.42,861.44,505.11,866.33z"/>
<path class="st26" d="M370.29,867.23c-25.17,1.61-48.15,2.21-65,0c-0.6-7.83-1.06-15.4,0-19.81c21.48,2.1,43.15,2.06,65,0
	C370.73,855.12,370.98,862.35,370.29,867.23z"/>
<path class="st26" d="M417.88,755.92c-42.54,2.06-81.4,2.84-109.89,0c-1.01-10.04-1.79-19.74,0-25.39
	c36.32,2.69,72.95,2.64,109.89,0C418.62,740.38,419.05,749.65,417.88,755.92z"/>
<path class="st26" d="M463.95,752.46c42.54,2.06,81.4,2.84,109.89,0c0.06-4.32,0.36-9.14,1.05-14.34c0.58-4.39,1.36-8.44,2.22-12.1
	c-17.75,1.74-37.14,2.9-57.98,3.04c-19.75,0.14-38.2-0.65-55.18-2C463.21,736.93,462.79,746.19,463.95,752.46z"/>
<path class="st27" d="M392.11,732.02c-1,0-2,0-3,0c0.77,3.88,1.64,7.88,2.61,11.98c1.07,4.51,2.21,8.86,3.39,13.02c1,0,2,0,3,0
	c-0.73-3.3-1.49-6.63-2.29-9.99C394.61,741.94,393.38,736.93,392.11,732.02z"/>
</svg>
