<?xml version="1.0" encoding="utf-8"?>
<!-- Generator: Adobe Illustrator 28.3.0, SVG Export Plug-In . SVG Version: 6.00 Build 0)  -->
<svg version="1.1" id="Layer_1" xmlns="http://www.w3.org/2000/svg" xmlns:xlink="http://www.w3.org/1999/xlink" x="0px" y="0px"
	 viewBox="0 0 875 1859" style="enable-background:new 0 0 875 1859;" xml:space="preserve">
<style type="text/css">
	.st0{fill:none;stroke:#000000;stroke-miterlimit:10;}
	.st1{fill:#45A3BF;stroke:#000000;stroke-miterlimit:10;}
	.st2{fill:#885841;stroke:#000000;stroke-miterlimit:10;}
	.st3{fill:#2D2A38;}
	.st4{fill:#663D37;}
	.st5{fill:#211D1A;stroke:#000000;stroke-miterlimit:10;}
	.st6{fill:#211D1A;}
	.st7{fill:#1E2722;stroke:#000000;stroke-miterlimit:10;}
	.st8{fill:#20382B;}
	.st9{fill:#663D37;stroke:#663D37;stroke-miterlimit:10;}
	.st10{fill:#885841;stroke:#885841;stroke-miterlimit:10;}
	.st11{fill:#FFE3CB;}
	.st12{fill:#885841;}
	.st13{fill:#B3D9E8;stroke:#000000;stroke-miterlimit:10;}
	.st14{fill:#B3D9E8;}
	.st15{fill:#2D2A38;stroke:#000000;stroke-miterlimit:10;}
	.st16{fill:#141123;}
	.st17{fill:#141123;stroke:#141123;stroke-width:3;stroke-miterlimit:10;}
	.st18{fill:#45A3BF;}
	.st19{fill:#20382B;stroke:#45A3BF;stroke-miterlimit:10;}
	.st20{fill:#45A3BF;stroke:#45A3BF;stroke-miterlimit:10;}
	.st21{fill:#2D2A38;stroke:#000000;stroke-width:3;stroke-miterlimit:10;}
	.st22{fill:#2D2A38;stroke:#DDF2F0;stroke-width:3;stroke-miterlimit:10;}
	.st23{fill:#FFFFFF;stroke:#FFFFFF;stroke-width:0.25;stroke-miterlimit:10;}
	.st24{fill:#FFFFFF;}
	.st25{fill:#2E3192;}
	.st26{fill:none;stroke:#2E3192;stroke-miterlimit:10;}
	.st27{fill:#3C3B51;stroke:#000000;stroke-width:3;stroke-miterlimit:10;}
	.st28{fill:#576C9E;}
	.st29{fill:none;stroke:#000000;stroke-width:13;stroke-miterlimit:10;}
	.st30{fill:#EFEFEF;}
	.st31{fill:none;stroke:#000000;stroke-width:4;stroke-miterlimit:10;}
	.st32{stroke:#000000;stroke-miterlimit:10;}
	.st33{fill:none;stroke:#000000;stroke-width:7;stroke-miterlimit:10;}
</style>
<path class="st0" d="M378.32,1289.3"/>
<path class="st0" d="M796.44,21.8L796.44,21.8L796.44,21.8z"/>
<path class="st1" d="M336.72,469.99c56.83-1.33,113.66-2.67,170.49-4c-1.66,36.83-39.03,66.41-84.01,67
	C379.03,533.57,340.93,506.02,336.72,469.99z"/>
<path class="st2" d="M493.57,423.99c3.25,23.55-7.41,13-9.88,90c-3.64,9.27-11.08,25.81-27.18,43c-12.38,13.22-23.05,24.6-37.06,25
	c-23.38,0.66-41.46-29.65-49.42-43c-16.7-28-7.41-64-13.59-106C382.43,406.75,441.29,400.09,493.57,423.99z"/>
<g>
	<path class="st3" d="M566.05,927.04c2.42-4.29,7.8-15.17,1.7-22.05c-4.2-4.74-12.01-5.52-14.8-5.8
		c-67.79-6.94-15.15-12.05-112.03-13.56c-50.01-0.78-102.61-0.96-146.5,18.47c-2.22,0.98-4.5,2.08-5.8,3.84
		c-1.1,1.49-1.36,3.28-1.58,5.02c-3.88,30.51-4.06,61.33-0.53,91.87c0.97,8.37,2.25,16.83,5.97,24.68
		c5.37,11.31,15.45,20.66,25.34,29.75c4.86,4.47,9.95,9.08,16.7,11.46c7.79,2.74,16.65,2.14,25.14,2.42
		c12.37,0.41,24.5,2.81,36.81,3.85c12.31,1.05,25.33,0.62,36.18-4.19c7.28-3.23,13.09-8.21,18.77-13.11
		c16.29-14.04,32.62-28.12,47.06-43.43c5.16-5.47,10.09-11.11,15.99-16.05c6.69-5.6,14.57-10.25,20.79-16.21
		c7.7-7.37,12.49-16.39,17.17-25.26c4.49-8.52,10.03-20.32,14.58-35.05"/>
	<g>
		<path d="M567.35,927.8c2.61-4.66,4.91-10.04,4.7-15.49c-0.26-6.51-4.69-10.9-10.6-12.95c-4.82-1.68-10.09-1.82-15.12-2.39
			c-4.52-0.52-9.04-1.09-13.54-1.79c-5.32-0.82-10.64-1.79-15.8-3.32c-2.82-0.83-5.55-1.92-8.34-2.82
			c-3.63-1.17-7.37-1.84-11.15-2.34c-7.55-0.99-15.17-1.37-22.77-1.69c-14.35-0.62-28.71-0.84-43.07-1.02
			c-15.91-0.2-31.83-0.23-47.73,0.52c-30.69,1.44-61.95,5.7-90.25,18.28c-3.05,1.36-6.11,3-7.33,6.32
			c-0.64,1.74-0.76,3.66-0.99,5.49c-0.27,2.21-0.52,4.41-0.76,6.62c-0.91,8.65-1.52,17.32-1.84,26.01
			c-0.64,17.55-0.06,35.15,1.73,52.62c0.82,7.99,1.66,16.13,4.12,23.81c2.32,7.25,6.26,13.66,11.1,19.48
			c4.95,5.96,10.65,11.25,16.34,16.48c5.44,5,11.01,10.02,18.1,12.52c7.5,2.64,15.67,2.26,23.5,2.42c8.5,0.17,16.91,1.28,25.33,2.37
			c15.47,2.01,31.98,3.91,47.01-1.48c7.26-2.6,13.46-7.05,19.31-11.98c6.29-5.29,12.48-10.71,18.64-16.14
			c12.48-10.98,24.49-22.37,35.82-34.54c5.58-5.99,11.39-11.51,18.01-16.34c6.32-4.61,12.8-9.06,17.99-14.99
			c4.92-5.63,8.72-12.1,12.23-18.67c3.03-5.67,5.92-11.4,8.5-17.29c3.06-7,5.74-14.16,8-21.46c0.57-1.85-2.32-2.64-2.89-0.8
			c-4.15,13.39-9.8,26.11-16.42,38.44c-3.48,6.48-7.23,12.89-12.19,18.38c-5.17,5.72-11.58,9.98-17.74,14.53
			c-6.32,4.67-11.9,9.96-17.25,15.7c-5.49,5.88-11.04,11.67-16.84,17.25c-11.77,11.3-24.14,21.98-36.54,32.58
			c-5.62,4.81-11.55,9.43-18.53,12.1c-7.05,2.69-14.64,3.62-22.14,3.7c-16.37,0.17-32.42-3.85-48.76-4.33
			c-7.76-0.23-15.79,0.33-23.29-2.03c-6.99-2.21-12.43-7.2-17.71-12.06c-11.03-10.15-22.53-20.83-26.97-35.62
			c-2.31-7.68-3.1-15.75-3.88-23.7c-0.83-8.47-1.38-16.96-1.64-25.46c-0.52-17,0.1-34.04,1.85-50.95c0.21-2.03,0.44-4.05,0.68-6.07
			c0.23-1.89,0.28-4.01,1.02-5.79c1.33-3.2,5.77-4.48,8.68-5.7c6.81-2.85,13.82-5.24,20.93-7.24c14.55-4.09,29.52-6.54,44.55-8
			c30.82-3.01,61.97-2.29,92.89-1.55c10.57,0.25,21.15,0.55,31.69,1.34c5.26,0.39,10.11,0.82,15.18,1.91
			c6.26,1.36,12.12,4.04,18.37,5.46c6.97,1.58,14.07,2.54,21.16,3.4c4.83,0.59,9.8,0.78,14.57,1.78
			c5.63,1.18,11.38,4.21,11.79,10.62c0.33,5.05-1.85,10.03-4.27,14.35C563.81,927.97,566.4,929.49,567.35,927.8L567.35,927.8z"/>
	</g>
</g>
<g>
	<path class="st4" d="M359.67,423.49c14.97-6.42,45.47-17.3,85.26-16.11c20.99,0.63,40.33,5.4,52.74,9.08
		c-2.5,15-6.99,29.03-9.49,44.03c0,0-28.73,18.75-45.31,22.96c-21.51,5.47-41.06,4.91-58.13,4.21c-10.52-0.43-19.18-1.39-25.08-2.18
		"/>
</g>
<path class="st5" d="M570.27,305.99c5.54-8.08,19.24-30.37,20-60.38c1.13-44.78-26.96-90.63-65.69-110.21
	c-46.13-23.34-120.47-19.35-100.31-20.41c19-1,27.61-47.69,26-49c-1.54-1.25-23.69,27.21-41,42c-95-31-190.25,20.96-190,18
	c0.26-3.11,91.95-4.31,148.51,9.88c0.18,0.05,0.31,0.08,0.49,0.12c-11.66-5.32-27.47-9.8-45-7c-37.09,5.91-68.24,42.16-77,91
	c1.39,26.89,8.7,77.86,47,115C369.94,409.35,520.11,379.16,570.27,305.99z"/>
<path class="st2" d="M268.27,296.99c-10.38,4.58-10.06,25.47-10,28c1.09,43.16,55.54,68.45,59,70c12.05,5.4,24.6,11.04,30,6
	c10.43-9.73-12.72-52.96-40-81C297.87,310.34,279.9,291.87,268.27,296.99z"/>
<path class="st2" d="M571.69,297.43c10.38,4.58,10.06,25.47,10,28c-1.09,43.16-55.54,68.45-59,70c-12.05,5.4-24.6,11.04-30,6
	c-10.43-9.73,12.72-52.96,40-81C542.09,310.77,560.06,292.3,571.69,297.43z"/>
<path class="st2" d="M295.17,278.97c0.37,61.78,28.16,114.12,33,121c1.94,2.77,11.07,15.57,26,30c23.88,23.07,48.24,36.42,65,44
	c13.05-3.68,32.17-10.77,52-25c25.15-18.05,39.64-39.11,47.11-51.97c21-54,31.35-104.69,30-121c-4.07-49.3-45.42-130.12-123-132
	C357.11,142.35,294.7,202.25,295.17,278.97z"/>
<path class="st5" d="M400.27,212.99c-7,66-29,96-29,96s56-29,45-39c1.76,1.49-14,45-32,55c4.73,6.17,28.68-0.81,44-13
	c43.35-34.5,25.69-117.12,23-129"/>
<path class="st5" d="M431.27,198.99c14.01,28.85,62.09,68.06,100.58,100.55c6.89,5.82-1.42,24.24-12.58,42.45
	c3.27,3.09,12.2-1.57,14.1-2.56c14.74-7.68,24.59-25.25,24.9-47.44"/>
<path class="st0" d="M294.27,331.88"/>
<path class="st6" d="M559.27,285.99c16.73-14.19-7.66-108.46-76-144c-65.01-33.81-154.86-6.63-191,51c-20.8,33.16-27.38,81.62-11,92
	c28.84,18.27,125.02-83.91,136.5-72.5c4.98,4.95-11.12,26.16-4.5,32.5c7.01,6.71,25.92-16.2,49.5-12.5c23.3,3.66,24.19,29.06,59,46
	C531.27,283.12,551.22,292.82,559.27,285.99z"/>
<g>
	<g>
		<path d="M400.65,212.13c0.78-3.65,1.16-7.39,1.13-11.12c-0.01-1.07-1.29-1.96-2.26-1.3c-3.41,2.35-6.52,5.1-9.24,8.23
			c-0.53,0.61-0.6,1.52,0,2.12c0.54,0.54,1.59,0.61,2.12,0c2.55-2.93,5.44-5.55,8.63-7.76c-0.75-0.43-1.5-0.86-2.26-1.3
			c0.04,3.47-0.3,6.93-1.02,10.33c-0.17,0.79,0.23,1.62,1.05,1.85C399.55,213.38,400.48,212.92,400.65,212.13L400.65,212.13z"/>
	</g>
</g>
<g>
	<path d="M457.71,229.09c-0.74,0.01-0.84-7.33-3.11-21.84c-1.42-9.13-2.97-16.61-4.1-21.68c2.72,4.55,6.13,11.49,7.76,20.42
		C460.46,218,458.62,229.08,457.71,229.09z"/>
	<g>
		<path d="M457.71,227.59c0.38,0.04,1.05,0.54,1.12,0.59c0.02,0.01,0.09,0.37,0.07,0.15c-0.02-0.19-0.1-0.39-0.14-0.58
			c-0.16-0.76-0.17-1.05-0.26-1.76c-0.28-2.33-0.51-4.67-0.79-7.01c-0.92-7.81-2.12-15.58-3.59-23.3
			c-0.67-3.51-1.39-7.02-2.17-10.51c-0.91,0.39-1.83,0.77-2.74,1.16c4.15,6.98,6.96,14.7,8.04,22.76c0.58,4.34,0.71,8.76,0.39,13.12
			c-0.1,1.42-0.25,2.85-0.53,4.25c-0.1,0.47-0.21,0.94-0.35,1.4c-0.1,0.32-0.1,0.12-0.06,0.19c-0.02,0.05-0.05,0.1-0.08,0.14
			c0.16-0.27,0.39-0.44,0.7-0.54c-1.9,0.33-1.09,3.23,0.8,2.89c1.53-0.27,1.81-2.79,2.02-3.96c0.52-3.01,0.68-6.08,0.67-9.12
			c-0.03-7.98-1.44-15.95-4.42-23.36c-1.29-3.21-2.82-6.31-4.58-9.28c-0.89-1.49-3.11-0.49-2.74,1.16
			c1.69,7.58,3.12,15.21,4.29,22.89c0.93,6.14,1.48,12.32,2.32,18.47c0.19,1.35,0.34,3.1,2.04,3.27
			C459.63,230.78,459.62,227.78,457.71,227.59z"/>
	</g>
</g>
<g>
	<g>
		<path d="M563.87,286.93c0-3.52,0-7.03,0-10.55c0-0.81-0.69-1.5-1.5-1.5c-0.81,0-1.5,0.69-1.5,1.5c0,3.52,0,7.03,0,10.55
			c0,0.81,0.69,1.5,1.5,1.5C563.18,288.43,563.87,287.75,563.87,286.93L563.87,286.93z"/>
	</g>
</g>
<g>
	<g>
		<path d="M333.08,132.15c9.05-0.66,18.17-0.34,27.14,1.02c1.89,0.29,2.7-2.6,0.8-2.89c-9.25-1.4-18.6-1.81-27.94-1.13
			C331.16,129.29,331.15,132.29,333.08,132.15L333.08,132.15z"/>
	</g>
</g>
<g>
	<g>
		<path d="M441.84,173.28c-1.68-3.47-4.81-6.12-8.44-7.34c-0.74-0.25-1.67,0.29-1.85,1.05c-0.19,0.83,0.25,1.58,1.05,1.85
			c0.2,0.07,0.4,0.14,0.59,0.21c0.16,0.06,0.2,0.06,0.01,0c0.1,0.03,0.22,0.09,0.31,0.14c0.38,0.18,0.76,0.37,1.12,0.58
			c0.35,0.2,0.68,0.42,1.01,0.66c0.08,0.06,0.15,0.11,0.23,0.17c0.31,0.23-0.24-0.2,0.06,0.05c0.16,0.13,0.32,0.27,0.48,0.41
			c0.3,0.27,0.59,0.55,0.86,0.84c0.14,0.15,0.28,0.31,0.42,0.47c0.06,0.07,0.12,0.15,0.18,0.22c0.04,0.05,0.3,0.33,0.05,0.06
			c0.55,0.59,0.96,1.43,1.31,2.15c0.34,0.71,1.41,0.95,2.05,0.54C442.03,174.87,442.21,174.04,441.84,173.28L441.84,173.28z"/>
	</g>
</g>
<g>
	<g>
		<path d="M524.02,172.99c8.24,14.54,15.54,29.59,21.83,45.07c0.72,1.77,3.62,0.99,2.89-0.8c-6.38-15.72-13.76-31.02-22.13-45.79
			C525.66,169.79,523.07,171.3,524.02,172.99L524.02,172.99z"/>
	</g>
</g>
<g>
	<g>
		<path d="M277.44,233.66c0.55-4.03,2.17-7.72,3.86-11.38c1.77-3.84,3.6-7.66,5.48-11.45c3.72-7.51,7.64-14.92,11.75-22.23
			c0.95-1.68-1.64-3.2-2.59-1.51c-4.19,7.44-8.18,15-11.97,22.66c-1.87,3.79-3.7,7.61-5.47,11.46c-1.72,3.74-3.4,7.55-3.96,11.67
			c-0.11,0.81,0.2,1.6,1.05,1.85C276.29,234.91,277.33,234.46,277.44,233.66L277.44,233.66z"/>
	</g>
</g>
<path class="st4" d="M270.27,310.99c-1.18,3.76-3.06,11.56-1,21c1.38,6.34,4.03,11.08,6,14"/>
<path class="st4" d="M571.37,309.82c1.18,3.76,3.06,11.56,1,21c-1.38,6.34-4.03,11.08-6,14"/>
<path class="st7" d="M362.67,1536.99c0,0-11.72,47.39-7.41,99c4.09,49.02,27.43,90.39,30.89,120c1.53,25.38,1.41,49.01-4.94,66
	c-10,5.12-39.48,18.74-79.72,16.43c-31.97-1.84-54.72-12.81-64.83-18.43c-1.92-6.42-4.28-16.11-4.94-28
	c-1.11-19.88,3.15-34.07,9.88-57c3.69-12.58,9.7-33.18,18.53-64c2.18-44.7,0.59-87.89-6.18-129
	C287.92,1547.97,324.54,1545.05,362.67,1536.99z"/>
<path class="st0" d="M368.84,1764.99c-32.3-29.43-107.49-20-119.84,1"/>
<path class="st0" d="M232.94,1802.99c50.65,18.4,101.3,18.89,151.96,1"/>
<path class="st7" d="M489.92,1536.99c1.83,21.25,3.22,43.26,4.06,66.01c0.69,18.83,0.97,37.17,0.89,54.99
	c-9.51,32.51-19.02,65.01-28.53,97.52c0,0-1.41,49.01,4.94,66c10,5.12,39.48,18.74,79.72,16.43c31.97-1.84,54.72-12.81,64.83-18.43
	c1.92-6.42,4.28-16.11,4.94-28c1.11-19.88-3.15-34.07-9.88-57c-3.69-12.58-9.7-33.18-18.53-64c-0.66-21.14-0.79-43.11-0.27-65.85
	c0.6-26.29,2.03-51.55,4.09-75.67c-7.98,4.51-25.52,13.14-50.45,15.28C519.23,1546.54,498.8,1540.24,489.92,1536.99z"/>
<path class="st0" d="M483.63,1764.51c32.3-29.43,107.49-20,119.84,1"/>
<path class="st0" d="M619.53,1802.51c-50.65,18.4-101.3,18.89-151.96,1"/>
<g>
	<path class="st8" d="M351.6,1678.17c2.91,16.03,6.65,31.95,11.2,47.73"/>
	<g>
		<path class="st8" d="M347.26,1679.36c2.93,16.09,6.68,32.02,11.2,47.73c0.65,2.26,3.2,3.9,5.54,3.14c2.3-0.74,3.84-3.11,3.14-5.54
			c-4.52-15.71-8.27-31.64-11.2-47.73c-0.42-2.32-3.37-3.85-5.54-3.14C347.92,1674.63,346.81,1676.87,347.26,1679.36L347.26,1679.36
			z"/>
	</g>
</g>
<g>
	<path class="st8" d="M581.51,1682.81c6.68,16.13,13.37,32.27,20.05,48.4"/>
	<g>
		<path class="st8" d="M577.17,1684c6.68,16.13,13.37,32.27,20.05,48.4c0.9,2.17,3.02,3.96,5.54,3.14c2.08-0.67,4.11-3.21,3.14-5.54
			c-6.68-16.13-13.37-32.27-20.05-48.4c-0.9-2.17-3.02-3.96-5.54-3.14C578.22,1679.14,576.2,1681.67,577.17,1684L577.17,1684z"/>
	</g>
</g>
<g>
	<g>
		<path class="st8" d="M319,1761.81c4.09,1.1,8.11,2.44,12.03,4.06c0.2,0.08,0.39,0.16,0.59,0.24c-0.42-0.18-0.39-0.16,0.1,0.05
			c0.52,0.23,1.03,0.46,1.55,0.69c0.9,0.41,1.79,0.83,2.67,1.27c1.87,0.93,3.71,1.92,5.52,2.97c2.04,1.18,5.02,0.54,6.16-1.61
			c1.14-2.15,0.56-4.89-1.61-6.16c-7.69-4.47-16.02-7.87-24.6-10.19c-2.27-0.61-4.99,0.76-5.54,3.14
			C315.32,1758.64,316.57,1761.15,319,1761.81L319,1761.81z"/>
	</g>
</g>
<g>
	<g>
		<path class="st8" d="M552.3,1764.94c1.48,0.01,2.95,0.07,4.43,0.18c0.66,0.05,1.32,0.11,1.98,0.18c0.37,0.04,0.73,0.08,1.1,0.13
			c-0.66-0.08,0.04,0.01,0.33,0.05c2.81,0.42,5.6,1.03,8.33,1.83c1.31,0.38,2.62,0.81,3.9,1.28c0.67,0.25,1.33,0.52,2,0.77
			c0.73,0.28-0.94-0.42,0.3,0.13c0.26,0.12,0.52,0.23,0.78,0.35c2.54,1.16,4.98,2.51,7.31,4.04c1.97,1.3,5.06,0.46,6.16-1.61
			c1.19-2.25,0.49-4.77-1.61-6.16c-10.29-6.76-22.74-10.07-35-10.18c-2.35-0.02-4.61,2.08-4.5,4.5
			C547.91,1762.9,549.78,1764.92,552.3,1764.94L552.3,1764.94z"/>
	</g>
</g>
<line class="st9" x1="423.17" y1="334.97" x2="413.49" y2="339.32"/>
<line class="st9" x1="424.27" y1="337.99" x2="403.27" y2="350.99"/>
<line class="st9" x1="435.27" y1="335.99" x2="408.27" y2="352.99"/>
<line class="st9" x1="431.27" y1="343.99" x2="403.27" y2="360.99"/>
<line class="st9" x1="438.27" y1="344.99" x2="409.27" y2="361.99"/>
<path class="st4" d="M425.77,367.47c-0.35,8.33-0.69,16.67-1.04,25c-3.82-3.47-7.64-6.94-11.46-10.42"/>
<g>
	<path class="st4" d="M328.5,361.54c-0.61,0.82-1.22,1.63-1.83,2.45"/>
	<g>
		<path class="st4" d="M327.2,360.78c-0.61,0.82-1.22,1.63-1.83,2.45c-0.11,0.17-0.17,0.36-0.18,0.56c-0.04,0.2-0.04,0.4,0.03,0.6
			c0.1,0.35,0.36,0.73,0.69,0.9c0.35,0.18,0.77,0.28,1.16,0.15c0.12-0.05,0.24-0.1,0.36-0.15c0.23-0.13,0.4-0.31,0.54-0.54
			c0.61-0.82,1.22-1.63,1.83-2.45c0.11-0.17,0.17-0.36,0.18-0.56c0.04-0.2,0.04-0.4-0.03-0.6c-0.1-0.35-0.36-0.72-0.69-0.9
			c-0.35-0.18-0.77-0.28-1.16-0.15c-0.12,0.05-0.24,0.1-0.36,0.15C327.51,360.38,327.33,360.56,327.2,360.78L327.2,360.78z"/>
	</g>
</g>
<g>
	<path class="st4" d="M332.45,364.27c-0.2,0.31-0.41,0.61-0.61,0.92"/>
	<g>
		<path class="st4" d="M331.15,363.52c-0.2,0.31-0.41,0.61-0.61,0.92c-0.11,0.17-0.17,0.36-0.18,0.56c-0.04,0.2-0.04,0.4,0.03,0.6
			c0.05,0.2,0.14,0.37,0.27,0.51c0.11,0.16,0.25,0.29,0.42,0.39c0.12,0.05,0.24,0.1,0.36,0.15c0.27,0.07,0.53,0.07,0.8,0
			c0.12-0.05,0.24-0.1,0.36-0.15c0.23-0.13,0.4-0.31,0.54-0.54c0.2-0.31,0.41-0.61,0.61-0.92c0.11-0.17,0.17-0.36,0.18-0.56
			c0.04-0.2,0.04-0.4-0.03-0.6c-0.05-0.2-0.14-0.37-0.27-0.51c-0.11-0.16-0.25-0.29-0.42-0.39c-0.12-0.05-0.24-0.1-0.36-0.15
			c-0.27-0.07-0.53-0.07-0.8,0c-0.12,0.05-0.24,0.1-0.36,0.15C331.46,363.11,331.28,363.29,331.15,363.52L331.15,363.52z"/>
	</g>
</g>
<g>
	<path class="st4" d="M502.14,363.37c0,0.51,0,1.02,0,1.53"/>
	<g>
		<path class="st4" d="M500.64,363.37c0,0.51,0,1.02,0,1.53c-0.01,0.21,0.04,0.4,0.13,0.58c0.06,0.19,0.16,0.35,0.31,0.48
			c0.14,0.15,0.3,0.25,0.48,0.31c0.18,0.09,0.37,0.14,0.58,0.13c0.13-0.02,0.27-0.04,0.4-0.05c0.25-0.07,0.47-0.2,0.66-0.39
			c0.27-0.29,0.44-0.65,0.44-1.06c0-0.51,0-1.02,0-1.53c0.01-0.21-0.04-0.4-0.13-0.58c-0.06-0.19-0.16-0.35-0.31-0.48
			c-0.14-0.15-0.3-0.25-0.48-0.31c-0.18-0.09-0.37-0.14-0.58-0.13c-0.13,0.02-0.27,0.04-0.4,0.05c-0.25,0.07-0.47,0.2-0.66,0.39
			C500.81,362.6,500.64,362.96,500.64,363.37L500.64,363.37z"/>
	</g>
</g>
<g>
	<path class="st4" d="M506.25,361.12c0.77,0.96,1.13,2.24,0.99,3.46"/>
	<g>
		<path class="st4" d="M505.19,362.18c0.01,0.01,0.02,0.03,0.04,0.04c-0.08-0.1-0.16-0.2-0.23-0.3c0.24,0.32,0.44,0.66,0.6,1.03
			c-0.05-0.12-0.1-0.24-0.15-0.36c0.17,0.4,0.28,0.82,0.34,1.26c-0.02-0.13-0.04-0.27-0.05-0.4c0.05,0.38,0.05,0.76,0.01,1.13
			c-0.04,0.36,0.2,0.82,0.44,1.06c0.26,0.26,0.69,0.46,1.06,0.44c0.39-0.02,0.79-0.14,1.06-0.44c0.08-0.1,0.16-0.2,0.23-0.3
			c0.14-0.23,0.2-0.49,0.2-0.76c0.08-0.75,0-1.53-0.21-2.25c-0.12-0.4-0.28-0.8-0.47-1.18c-0.2-0.4-0.47-0.74-0.74-1.09
			c-0.22-0.28-0.72-0.44-1.06-0.44c-0.37,0-0.81,0.16-1.06,0.44c-0.26,0.29-0.46,0.66-0.44,1.06c0.02,0.13,0.04,0.27,0.05,0.4
			C504.88,361.77,505.01,361.99,505.19,362.18L505.19,362.18z"/>
	</g>
</g>
<path class="st5" d="M406.27,215.99c-12.82,8.94-94,84-101,114c-2,5,9.6,31.37,11,31c0.08-0.02,0.11-0.11,0.12-0.15
	c0.66-2.62-54.89-18.44-44.12-91.85"/>
<path class="st10" d="M158.8,952.99c-9.63-22.98-48.46-35.47-59.94-25c-6.78,6.18-0.4,17.04,7.75,51.5
	c15.17,64.16,8.06,94.41,29.45,104.5c1.97,0.93,10.88,5.13,17.05,1.5c13.6-8-7.38-41.56,0.52-91.5
	C157.28,970.9,163.82,964.96,158.8,952.99z"/>
<path class="st2" d="M152.6,1092.99c0,0,27.9,14,34.11,14c1.77-1.44,2.08-4.02,1.93-6.32c0,0,0.04-2.36-0.89-4.68
	c-1.6-4-13.44-9-13.44-9c-7.98-3.34-11.07-3.63-13.44-7c-1.5-2.13-2.07-6-2.07-6"/>
<path class="st2" d="M95.24,931.49c0.75,21.69-10.89,95.94-14.47,96c0,0,20.97,46.84,28.94,71l73.38,19c0.48-2,0.61-3.84,0.52-5.5
	c-0.93-16.92-25.15-26.9-27.9-28"/>
<path class="st2" d="M158.8,964.99c4.13,29-1.03,61-1.03,61c1.27,15.69,2.59,31.33,8.27,41c-1.79,6.5-7.34,7.99-15.5,6
	c-7-5.51-11.57-22.27-15.5-42c0,0-19.86-9.78-20.08-9.37c-0.02,0.04,0.13,0.16,0.44,0.37"/>
<path class="st0" d="M110.23,1032.99c7.36,15,13.73,30,18.6,45"/>
<path class="st11" d="M701.38,967.34c9.32-22.98,46.89-35.47,58.01-25c6.56,6.18,0.38,17.04-7.5,51.5
	c-14.68,64.16-7.8,94.41-28.5,104.5c-1.9,0.93-10.53,5.13-16.5,1.5c-13.16-8,7.14-41.56-0.5-91.5
	C702.84,985.24,696.52,979.31,701.38,967.34z"/>
<path class="st2" d="M711.14,1107.34c0,0-31.13,14-38.05,14c-1.97-1.44-2.32-4.02-2.15-6.32c0,0-0.04-2.36,0.99-4.68
	c1.78-4,14.99-9,14.99-9c8.9-3.34,12.35-3.63,14.99-7c1.67-2.13,2.31-6,2.31-6"/>
<path class="st2" d="M755.84,941.84c-0.67,21.69,9.65,95.94,12.83,96c0,0-18.59,46.84-25.66,71l-65.07,19
	c-0.43-2-0.54-3.84-0.46-5.5c0.83-16.92,22.3-26.9,24.74-28"/>
<path class="st2" d="M695.82,979.34c-4.61,29,1.15,61,1.15,61c-1.42,15.69-2.89,31.33-9.22,41c1.99,6.5,8.19,7.99,17.29,6
	c7.81-5.51,12.91-22.27,17.29-42c0,0,22.15-9.78,22.4-9.37c0.02,0.04-0.14,0.16-0.49,0.37"/>
<path class="st12" d="M750.01,1047.34c-8.21,15-15.31,30-20.75,45"/>
<path class="st13" d="M523.63,521.94c39.12,6,78.25,12,117.37,18c9.58,21.46,13.56,43.27,16.94,65.05
	c17.14,110.47,75.95,208.21,101.31,297c14.35,29.33,23.84,58.66,22.24,88c-31.01,45.84-70.62,44.47-112.43,31
	c-31.29-130.27-80.45-261.25-107.49-392"/>
<path class="st13" d="M351.55,517.99c-39.12,6-78.25,12-117.37,18c-9.66,24.9-19.14,50.24-28.42,76
	c-21.77,60.47-41.02,119.53-58.07,177c-16.86,31.92-33.41,66.91-48.66,104.86c-10.31,25.65-19.13,50.42-26.7,74.14
	c4.21,6.84,18.41,27.7,49.42,39c18.8,6.85,35.97,7.34,45.71,7c44.89-132,89.78-264,134.67-396"/>
<path class="st13" d="M457.8,552.99c-22.22,5.99-46.22,6.65-71.66,3c0.12-3.75,9.88,29,37.06,38
	C461.5,576.99,459.23,546.91,457.8,552.99z"/>
<g>
	<path class="st14" d="M270.01,569.99c19.13,41.26,7.41,236-3.71,301c-0.9,3.51,2.47,23,2.47,23s12.48,14.81,16.06,17
		c39.27,4.86,84.51,8.47,134.67,9c57.24,0.61,108.41-2.93,151.96-8c5.14-4.47,8.17-8.99,9.88-12c3.88,0.2-9.49-33.01-13.59-60
		c-1.7-11.19,9.25-18.13,9.88-22c1.82-11.2-0.39-36.69-0.72-86.55c-0.12-17.52-4.7-41.89-4.46-77.96
		c0.14-21.67,1.79-53.06,10.13-91.49"/>
	<path d="M270.11,569.94c4.96,11.65,6.23,24.47,7.66,36.94c3.47,37.69,2.77,75.64,1.54,113.42c-1.43,37.8-3.91,75.58-7.91,113.2
		c-1.37,12.54-2.89,25.06-4.98,37.5c-0.45,3.8,0.33,7.71,0.72,11.5c0.51,3.83,1.1,7.65,1.75,11.46c2.4,2.67,5.07,5.97,7.68,8.76
		c2.55,2.8,5.4,5.98,8.28,8.15c47.52,5.85,95.39,9.02,143.27,8.9c47.87-0.12,95.74-2.73,143.32-7.94c3.47-3.14,7.37-7.45,9.8-11.9
		c0,0,0.04-0.07,0.04-0.07l0.07,0.01c0.39,0.04,0.53-0.47,0.56-0.88c0.04-0.43,0.01-0.88-0.04-1.32
		c-0.93-6.19-3.01-12.16-4.65-18.19c-3.81-13.77-8.24-27.6-9.75-41.84c-0.03-3.64,1.38-7.14,3.35-10.12
		c1.88-3.05,4.63-5.52,6.39-8.61c1.01-3.37,0.81-7.1,0.99-10.61c-0.01-25.08-1.37-50.14-1.38-75.22
		c-0.1-14.33-2.16-28.57-3.14-42.86c-3.37-42.88-0.37-86.23,8.79-128.26c0,0,0.23,0.05,0.23,0.05
		c-10.91,49.05-12.48,99.75-6.91,149.6c0.64,7.13,1.26,14.29,1.26,21.46c0.12,21.5,0.85,42.98,1.34,64.47
		c0.07,6.71,0.3,13.48-0.6,20.14c-0.37,2.27-2.28,3.91-3.58,5.66c-1.14,1.38-2.24,2.79-3.21,4.29c-1.96,2.96-3.34,6.41-3.31,9.99
		c-0.02,1.78,0.38,3.54,0.66,5.31c0.92,5.29,2.09,10.54,3.39,15.75c2.58,10.43,5.78,20.7,8.63,31.07c0.5,2.2,3.07,10.23,0.96,10.35
		c-2.14,4.08-5.98,8.82-9.86,12.04c-59.43,7.39-119.44,9.65-179.27,7.37c-35.9-1.26-71.74-4-107.39-8.41
		c-3.21-2.29-5.72-5.38-8.42-8.22c-2.62-2.92-5.25-5.86-7.74-8.87c-1.08-6.68-2.22-13.37-2.6-20.13c-0.05-0.95-0.05-1.99,0.13-2.91
		c2.09-12.43,3.61-24.96,4.98-37.49c4-37.62,6.49-75.39,7.91-113.19c1.23-37.78,1.93-75.71-1.54-113.39
		c-0.97-9.4-2.17-18.8-4.56-27.96c-0.8-3.04-1.77-6.05-3.08-8.91L270.11,569.94L270.11,569.94z"/>
</g>
<path class="st14" d="M370.08,552.99c-4.41-10.65-20.19-15.55-32.12-14c-19.9,2.59-33.52,23.73-25.94,35
	c7.42,11.04,35.24,12.72,49.42,2C367.9,571.1,373.77,561.92,370.08,552.99z"/>
<path class="st14" d="M549.8,542.38c-4.19-11.02-21.2-16.07-33.32-15.89c-27.24,0.42-51.23,27.71-44.48,40
	c7,12.76,50.37,15.35,69.15-1.11C542.22,564.44,554.11,553.71,549.8,542.38z"/>
<path class="st13" d="M507.83,466.49c-27.83,26.22-54.92,49.49-79.07,61c8.44,16.83,16.88,33.67,25.33,50.5
	c12.05-9.75,28.2-21.1,48.91-31.8c17.73-9.16,34.48-15.61,48.69-20.2c-10.3-12.33-20.59-24.67-30.89-37
	C516.48,481.49,512.16,473.99,507.83,466.49z"/>
<path class="st13" d="M336.44,470.69c27.83,26.22,54.92,49.49,79.07,61c-8.44,16.83-16.88,33.67-25.33,50.5
	c-16.19-10.35-32.5-20.95-48.91-31.8c-12.84-8.49-25.47-16.95-37.91-25.4c6.41-7.31,13.34-16.31,19.77-27
	C329.09,488.07,333.35,478.8,336.44,470.69z"/>
<path class="st15" d="M571.46,911.99c5.68,14.24,11.2,29.14,16.44,44.68c7.17,21.27,13.16,41.76,18.16,61.32c0,0-9.88,311-9.88,311
	c3.71,7.33,7.41,14.67,11.12,22c-3.86,12.85-6.11,17.99-7.41,19c-0.05,0.04-0.23,0.17-0.37,0.4c-0.87,1.48,1.89,4.08,5.31,6.6
	c-1.65,4-3.29,8-4.94,12c-9.9,17.28-7.38,45.13-2.47,75c7.85,19.76,13.37,45.32,2.47,61c-16.66,23.96-79.51,23.78-108.72,13
	c-3.72-2.3-22.24-30-22.24-30s14.78-34.03,17.3-36c0,0-2.47-56-11.12-72c-2.3-1.94-10.03-7.83-8.65-14c0.79-3.51,4.93-8.99,4.94-9
	c-11.4-7.08-11.31-16.03-11.12-25c3.71-11,7.41-22,11.12-33c-24.71-118-45.71-243-45.71-243c-21.83-0.67-43.65-1.33-65.48-2"/>
<path class="st15" d="M284.83,910.99c-11.12,35.33-22.24,70.67-33.36,106c-0.58,103.5,7.08,207.29,12.35,311
	c-2.47,8.67-4.94,17.33-7.41,26c4.53,7.67,9.06,15.33,13.59,23l-9.87,43.65l-3.72,37.35l-19.77,23l8.65,26l-8.65,17
	c0,0,7.69,12.56,11.12,15c24.02,17.09,109.55-1.09,114.3-2.13c5.14-10.29,10.29-20.58,15.43-30.87
	c-3.5-11.71-6.99-23.42-10.49-35.13c-0.89-13.01,0.74-23.24,2.32-30c5.7-24.51,4.67-43.09,12.55-64.95
	c3.94-10.94,8.2-19.6,11.08-25.05c-3.71-11-11.12-33-11.12-33c10.9-40.4,20.8-83.9,28.87-130.26
	c6.79-38.99,11.63-76.28,14.97-111.61c26.37-0.84,39.55-1.51,39.53-2c-0.02-0.74-30.49-1.08-91.42-1"/>
<path class="st0" d="M272.48,949.99c102.09,4.63,205.47,5.23,311.34-2"/>
<g>
	<path d="M391.08,918.99c-0.41,12-0.82,24-1.24,36c25.94-0.33,51.89-0.67,77.83-1c-0.41-11.67-0.82-23.33-1.24-35
		C441.32,918.99,416.2,918.99,391.08,918.99z"/>
	<g>
		<path d="M389.58,918.99c-0.41,12-0.82,24-1.24,36c-0.03,0.8,0.71,1.51,1.5,1.5c20.21-0.26,40.41-0.52,60.62-0.78
			c5.74-0.07,11.48-0.15,17.21-0.22c0.79-0.01,1.53-0.68,1.5-1.5c-0.41-11.67-0.82-23.33-1.24-35c-0.03-0.81-0.66-1.5-1.5-1.5
			c-19.55,0-39.1,0-58.64,0c-5.57,0-11.15,0-16.72,0c-1.93,0-1.93,3,0,3c19.55,0,39.1,0,58.64,0c5.57,0,11.15,0,16.72,0
			c-0.5-0.5-1-1-1.5-1.5c0.41,11.67,0.82,23.33,1.24,35c0.5-0.5,1-1,1.5-1.5c-20.21,0.26-40.41,0.52-60.62,0.78
			c-5.74,0.07-11.48,0.15-17.21,0.22c0.5,0.5,1,1,1.5,1.5c0.41-12,0.82-24,1.24-36C392.65,917.06,389.65,917.07,389.58,918.99z"/>
	</g>
</g>
<g>
	<g>
		<path d="M335.3,915.51c-0.85,12.83-1.7,25.66-2.55,38.49c-0.13,1.93,2.87,1.92,3,0c0.85-12.83,1.7-25.66,2.55-38.49
			C338.43,913.58,335.43,913.59,335.3,915.51L335.3,915.51z"/>
	</g>
</g>
<g>
	<g>
		<path d="M320.02,915.73c-0.21,12.23-0.41,24.46-0.62,36.69c-0.03,1.93,2.97,1.93,3,0c0.21-12.23,0.41-24.46,0.62-36.69
			C323.06,913.8,320.06,913.8,320.02,915.73L320.02,915.73z"/>
	</g>
</g>
<g>
	<g>
		<path d="M320.26,953.44c5.22,1.89,10.9,2.5,16.41,1.82c0.8-0.1,1.5-0.62,1.5-1.5c0-0.73-0.69-1.6-1.5-1.5
			c-5.28,0.65-10.6,0.1-15.61-1.72c-0.76-0.28-1.64,0.31-1.85,1.05C318.98,952.43,319.5,953.16,320.26,953.44L320.26,953.44z"/>
	</g>
</g>
<g>
	<g>
		<path d="M340.54,914.88c-0.78-0.65-1.66-1.32-2.57-1.79c-0.72-0.38-1.72-0.24-2.51-0.26c-0.87-0.02-1.74-0.04-2.61-0.06
			c-3.65-0.09-7.3-0.18-10.96-0.27c-1.93-0.05-1.93,2.95,0,3c5.1,0.12,10.2,0.25,15.3,0.37c-0.25-0.07-0.5-0.14-0.76-0.2
			c0.68,0.41,1.37,0.83,1.98,1.34c0.62,0.52,1.51,0.61,2.12,0C341.07,916.47,341.16,915.4,340.54,914.88L340.54,914.88z"/>
	</g>
</g>
<path class="st0" d="M320.66,951.99"/>
<g>
	<g>
		<path d="M498.3,918.99c0.82,11.67,1.65,23.33,2.47,35c0.14,1.91,3.14,1.93,3,0c-0.82-11.67-1.65-23.33-2.47-35
			C501.17,917.08,498.17,917.06,498.3,918.99L498.3,918.99z"/>
	</g>
</g>
<g>
	<g>
		<path d="M514.36,917.99c0.5,11.71,1,23.41,1.51,35.12c0.08,1.92,3.08,1.93,3,0c-0.5-11.71-1-23.41-1.51-35.12
			C517.28,916.07,514.28,916.06,514.36,917.99L514.36,917.99z"/>
	</g>
</g>
<g>
	<g>
		<path d="M517.1,951.49c-5.77,0.33-11.53,0.67-17.3,1c-1.92,0.11-1.93,3.11,0,3c5.77-0.33,11.53-0.67,17.3-1
			C519.02,954.38,519.03,951.38,517.1,951.49L517.1,951.49z"/>
	</g>
</g>
<g>
	<path class="st8" d="M447.24,958.61c-3.07,35.13-6.14,70.25-9.21,105.38"/>
	<g>
		<path class="st16" d="M445.74,958.61c-2.39,27.34-4.78,54.68-7.17,82.02c-0.68,7.79-1.36,15.57-2.04,23.36
			c-0.17,1.92,2.83,1.91,3,0c2.39-27.34,4.78-54.68,7.17-82.02c0.68-7.79,1.36-15.58,2.04-23.36
			C448.91,956.69,445.91,956.7,445.74,958.61L445.74,958.61z"/>
	</g>
</g>
<g>
	<path class="st8" d="M408.95,961.47c-4.31,35.51-8.62,71.01-12.93,106.52"/>
	<g>
		<path class="st16" d="M407.45,961.47c-3.37,27.75-6.74,55.49-10.1,83.24c-0.94,7.76-1.88,15.52-2.83,23.29
			c-0.23,1.91,2.77,1.9,3,0c3.37-27.75,6.74-55.49,10.1-83.24c0.94-7.76,1.88-15.52,2.83-23.29
			C410.69,959.56,407.68,959.58,407.45,961.47L407.45,961.47z"/>
	</g>
</g>
<g>
	<path class="st16" d="M314.83,968.26c-1.18,11.6-2.35,23.2-3.53,34.79c-0.16,1.56-0.33,3.16-1.13,4.59
		c-1.54,2.72-4.28,4.14-4.95,4.51c-4.31,2.39-20.79,15.24-46.33,35.85"/>
	<g>
		<path class="st16" d="M313.33,968.26c-0.98,9.69-1.97,19.38-2.95,29.08c-0.24,2.33-0.36,4.71-0.73,7.03
			c-0.32,1.99-1.22,3.53-2.73,4.85c-1.12,0.97-2.46,1.6-3.7,2.4c-2.97,1.92-5.79,4.09-8.6,6.22c-4.81,3.64-9.55,7.37-14.29,11.11
			c-7.54,5.95-15.02,11.97-22.5,18c-1.5,1.21,0.63,3.32,2.12,2.12c11.77-9.5,23.54-19.02,35.58-28.18c2.95-2.25,5.91-4.52,9.01-6.55
			c1.18-0.77,2.46-1.4,3.59-2.25c1.44-1.09,2.74-2.43,3.54-4.07c0.98-1.99,1.06-4.27,1.28-6.44c1.13-11.1,2.25-22.2,3.38-33.3
			C316.52,966.34,313.52,966.35,313.33,968.26L313.33,968.26z"/>
	</g>
</g>
<g>
	<path class="st16" d="M533.95,959.3c-0.06,8.17-0.12,16.34-0.17,24.51c-0.01,1.35,0.03,2.82,1.09,3.86
		c0.85,0.84,2.18,1.22,3.45,1.57c15.01,4.1,30.01,8.21,45.02,12.31"/>
	<g>
		<path class="st16" d="M532.45,959.3c-0.04,5.39-0.08,10.79-0.11,16.18c-0.02,2.78-0.06,5.56-0.06,8.33c0,2.06,0.34,4.09,2.1,5.4
			c1.91,1.41,4.65,1.78,6.89,2.4c2.63,0.72,5.27,1.44,7.9,2.16c5.27,1.44,10.54,2.88,15.8,4.32c5.99,1.64,11.97,3.27,17.96,4.91
			c1.86,0.51,2.66-2.38,0.8-2.89c-9.98-2.73-19.96-5.46-29.93-8.19c-4.95-1.35-9.9-2.7-14.85-4.06c-0.91-0.25-2.01-0.45-2.77-1.03
			c-0.85-0.65-0.9-1.66-0.91-2.65c-0.03-2.49,0.03-4.99,0.05-7.48c0.04-5.8,0.08-11.6,0.12-17.4
			C535.46,957.37,532.46,957.37,532.45,959.3L532.45,959.3z"/>
	</g>
</g>
<path class="st17" d="M273.71,1085.99c-3.04,55.32,3.55,127.32,19.77,216"/>
<path class="st17" d="M297.19,1370.99c-7.76,42.67-11.88,85.33-12.35,128"/>
<g>
	<path class="st16" d="M575.17,1092.99c-0.82,92.67-1.65,185.33-2.47,278"/>
	<path class="st16" d="M575.67,1093c3.23,46.18,3.4,92.78,2.85,139.04c-0.71,46.19-1.95,92.88-5.32,138.96c0,0-1-0.01-1-0.01
		c-3.53-69.38-3.63-139.11-1.6-208.53c0.39-10.1,0.98-24.75,1.56-34.74c0.67-11.58,1.38-23.16,2.5-34.73L575.67,1093L575.67,1093z"
		/>
</g>
<path class="st17" d="M580.11,1410.99c-4.17,36.31-8.59,69.93-13.59,97c-13.82,15.69-32.16,22.69-51.89,27"/>
<g>
	<path class="st18" d="M504.58,505.82c-4.05,2.71-8.52,5.02-13.28,6.85c-1.86,0.71-3.82,1.39-5.2,2.63
		c-1.02,0.92-1.63,2.07-2.23,3.21c-4.95,9.41-9.9,18.82-14.85,28.24"/>
	<g>
		<path class="st18" d="M503.82,504.53c-3.92,2.6-8.1,4.81-12.49,6.53c-1.95,0.76-4,1.41-5.68,2.69c-1.73,1.32-2.66,3.22-3.65,5.11
			c-4.76,9.04-9.51,18.09-14.27,27.13c-0.9,1.71,1.69,3.23,2.59,1.51c4.6-8.75,9.21-17.5,13.81-26.25c0.92-1.76,1.73-3.92,3.36-5.15
			c1.7-1.3,3.98-1.86,5.93-2.67c4.17-1.72,8.16-3.81,11.92-6.31C506.94,506.06,505.44,503.46,503.82,504.53L503.82,504.53z"/>
	</g>
</g>
<g>
	<path class="st18" d="M329.87,504.02c3.27,0.11,6.69,0.25,9.55,1.54s4.97,4.11,3.89,6.61"/>
	<g>
		<path class="st18" d="M329.87,505.52c2.95,0.1,6.15,0.12,8.89,1.38c1.06,0.48,2.1,1.21,2.74,2.19c0.31,0.48,0.51,0.86,0.6,1.45
			c0.05,0.33-0.04,0.76-0.23,1.24c-0.3,0.75,0.33,1.65,1.05,1.85c0.86,0.24,1.54-0.29,1.85-1.05c1.29-3.22-1.22-6.48-3.92-7.98
			c-3.3-1.83-7.28-1.95-10.96-2.07C327.94,502.46,327.94,505.46,329.87,505.52L329.87,505.52z"/>
	</g>
</g>
<g>
	<path d="M569.41,832.27c-3.05,11.65-9.77,21.55-17.35,30.65c-2.6,2.96-5.34,5.82-8.59,8.35l-0.83-0.55
		c3.4-11.46,9.67-21.62,17.23-30.73c2.58-2.97,5.34-5.82,8.71-8.27L569.41,832.27L569.41,832.27z"/>
</g>
<g>
	<path class="st18" d="M329.31,615.99c19.84,82.14,40.89,158.71,65.48,219"/>
	<path class="st18" d="M329.42,615.97c17.32,69.31,35.27,138.66,60.33,205.65c1.67,4.46,3.44,8.89,5.15,13.34l-0.22,0.09
		c-2.6-6.34-5.49-13.48-7.94-19.93C362.71,750.64,344.57,682.59,329.42,615.97L329.42,615.97z"/>
</g>
<g>
	<path class="st18" d="M302.13,843.99c30,33.45,70.32,50.17,113.66,62"/>
	<path class="st18" d="M302.22,843.91c27.78,30.68,66.72,48,105.73,59.64c0,0,7.87,2.32,7.87,2.32l-0.06,0.23l-7.93-2.13
		C368.81,893.12,328.34,875.36,302.22,843.91L302.22,843.91z"/>
</g>
<line class="st19" x1="536.87" y1="611.99" x2="486.21" y2="715.99"/>
<path class="st0" d="M125.77,9.49L125.77,9.49L125.77,9.49z"/>
<path class="st0" d="M494.86,501.99"/>
<path class="st0" d="M478.27,483.99"/>
<path class="st0" d="M482.27,482.99"/>
<g>
	<path class="st18" d="M443.04,632.32c4.8,2.15,9.87,3.89,15.11,5.19"/>
	<g>
		<path class="st18" d="M442.28,633.62c5,2.22,10.16,4.02,15.47,5.34c1.87,0.47,2.67-2.42,0.8-2.89c-5.05-1.26-10-2.92-14.75-5.04
			c-0.74-0.33-1.61-0.21-2.05,0.54C441.37,632.21,441.53,633.29,442.28,633.62L442.28,633.62z"/>
	</g>
</g>
<g>
	<path class="st18" d="M448.07,686.93c1.77,0.5,3.53,1,5.3,1.5"/>
	<g>
		<path class="st18" d="M447.67,688.37c1.77,0.5,3.53,1,5.3,1.5c0.75,0.21,1.67-0.26,1.85-1.05c0.18-0.8-0.24-1.62-1.05-1.85
			c-1.77-0.5-3.53-1-5.3-1.5c-0.75-0.21-1.67,0.26-1.85,1.05C446.44,687.33,446.86,688.15,447.67,688.37L447.67,688.37z"/>
	</g>
</g>
<g>
	<path class="st18" d="M447.71,740.04c3.17,0.64,6.29,1.45,9.33,2.41"/>
	<g>
		<path class="st18" d="M447.31,741.48c3.15,0.64,6.27,1.45,9.33,2.41c0.75,0.24,1.67-0.28,1.85-1.05c0.19-0.82-0.25-1.59-1.05-1.85
			c-3.07-0.96-6.18-1.77-9.33-2.41c-0.77-0.16-1.66,0.22-1.85,1.05C446.1,740.39,446.49,741.31,447.31,741.48L447.31,741.48z"/>
	</g>
</g>
<g>
	<path class="st18" d="M450.76,793.03c2.7,1.18,5.6,2.08,8.59,2.65"/>
	<g>
		<path class="st18" d="M450.01,794.33c2.88,1.25,5.86,2.2,8.95,2.8c0.77,0.15,1.66-0.22,1.85-1.05c0.17-0.74-0.22-1.69-1.05-1.85
			c-1.46-0.28-2.9-0.64-4.33-1.07c-0.7-0.22-1.4-0.45-2.09-0.7c-0.34-0.13-0.68-0.26-1.02-0.39c-0.14-0.06-0.29-0.12-0.43-0.18
			c-0.17-0.07-0.19-0.08-0.07-0.03c-0.1-0.04-0.19-0.08-0.29-0.12c-0.72-0.31-1.64-0.24-2.05,0.54
			C449.13,792.92,449.24,793.99,450.01,794.33L450.01,794.33z"/>
	</g>
</g>
<g>
	<path class="st18" d="M449.1,842.68c2.6,1.46,5.44,2.64,8.42,3.51"/>
	<g>
		<path class="st18" d="M448.35,843.97c2.77,1.55,5.73,2.77,8.78,3.66c0.75,0.22,1.67-0.27,1.85-1.05c0.18-0.8-0.24-1.61-1.05-1.85
			c-1.45-0.42-2.88-0.92-4.28-1.5c-0.1-0.04-0.09-0.04,0.01,0c-0.09-0.04-0.19-0.08-0.28-0.12c-0.19-0.08-0.37-0.16-0.56-0.25
			c-0.32-0.15-0.64-0.3-0.96-0.45c-0.67-0.33-1.34-0.68-1.99-1.04c-0.69-0.38-1.67-0.19-2.05,0.54
			C447.44,842.63,447.62,843.56,448.35,843.97L448.35,843.97z"/>
	</g>
</g>
<path class="st15" d="M643.73,534.63c-25.41-19.59-57.56-23.03-95-13.73c-1.48,2.94-2.97,5.88-4.45,8.83
	c31.52,0.77,63.59,3.05,97.97,11.77C642.74,539.21,643.24,536.92,643.73,534.63z"/>
<g>
	<path class="st18" d="M448.5,897.47c3.17,0.77,6.33,1.54,9.5,2.3"/>
	<g>
		<path class="st18" d="M448.1,898.92c3.17,0.77,6.33,1.54,9.5,2.3c0.76,0.18,1.66-0.24,1.85-1.05c0.18-0.77-0.23-1.65-1.05-1.85
			c-3.17-0.77-6.33-1.54-9.5-2.3c-0.76-0.18-1.66,0.24-1.85,1.05C446.88,897.84,447.29,898.72,448.1,898.92L448.1,898.92z"/>
	</g>
</g>
<g>
	<path class="st18" d="M423.07,557.97c11.2,97.5,16.2,200.84,12.48,309.38c-0.61,17.72-1.43,35.27-2.47,52.65"/>
	<path class="st18" d="M423.2,557.95C437.7,677.78,440.55,799.5,433.21,920c0,0-0.25-0.02-0.25-0.02
		C440,799.57,435.64,677.35,423.2,557.95L423.2,557.95z"/>
</g>
<g>
	<path class="st18" d="M446.33,625.49c0.06,8.74,12.33,11.44,18.28,6.47c4.49-3.37,4.32-9.46-0.33-12.49
		C458.49,615.35,447.03,617.37,446.33,625.49L446.33,625.49z M444.55,625.49c0.1-10.26,14.03-13.9,21.23-8.08
		c5.56,4.04,5.49,11.93-0.33,15.71C458.44,638.1,445.24,635.12,444.55,625.49L444.55,625.49z"/>
</g>
<g>
	<path class="st18" d="M446.32,678.49c0.09,8.72,12.34,11.44,18.31,6.51c4.53-3.37,4.38-9.55-0.31-12.59
		C458.51,668.23,447,670.34,446.32,678.49L446.32,678.49z M444.57,678.49c0.12-10.24,14-13.78,21.17-8.01
		c5.52,4.03,5.47,11.82-0.31,15.6C458.44,691.1,445.21,688.14,444.57,678.49L444.57,678.49z"/>
</g>
<g>
	<path class="st18" d="M447.67,731.49c0.02,8.74,12.2,11.46,18.16,6.46c4.43-3.38,4.23-9.41-0.41-12.37
		C459.72,721.61,448.45,723.54,447.67,731.49L447.67,731.49z M445.68,731.49c0.06-10.46,14.1-14.15,21.42-8.19
		c5.57,4.11,5.49,12.05-0.41,15.83C459.65,744.07,446.41,741.15,445.68,731.49L445.68,731.49z"/>
</g>
<g>
	<path class="st18" d="M447.76,784.49c0.04,8.64,12.16,11.49,18.12,6.53c4.51-3.33,4.32-9.59-0.4-12.51
		C459.75,774.55,448.57,776.6,447.76,784.49L447.76,784.49z M445.59,784.49c-0.19-6.67,6.67-11.29,12.82-11.04
		c10.38-0.12,17.96,11.54,8.23,18.61C459.62,797.05,446.29,794.24,445.59,784.49L445.59,784.49z"/>
</g>
<g>
	<path class="st18" d="M447.6,835.49c0.04,8.77,12.26,11.44,18.22,6.44c4.43-3.37,4.24-9.38-0.37-12.37
		C459.71,825.51,448.34,827.44,447.6,835.49L447.6,835.49z M445.75,835.49c0.06-10.33,14.08-14.06,21.33-8.17
		c5.6,4.08,5.51,12.04-0.37,15.82C459.67,848.09,446.47,845.11,445.75,835.49L445.75,835.49z"/>
</g>
<g>
	<path class="st18" d="M447.89,888.49c0,8.7,11.95,11.51,17.95,6.47c4.39-3.35,4.15-9.43-0.52-12.24
		C459.71,878.96,448.81,880.83,447.89,888.49L447.89,888.49z M445.46,888.49c-0.18-8.75,10.16-13.31,17.58-10.56
		c8.44,2.63,11.59,12.89,3.64,18.18C459.6,901.01,446.25,898.24,445.46,888.49L445.46,888.49z"/>
</g>
<g>
	<g>
		<path class="st18" d="M554.65,811.25c-18.25,6.38-36.94,11.46-55.89,15.26c-1.04,0.21-1.26,1.39-0.9,2.2
			c3.63,8.22,5.59,17.1,5.67,26.09c0.02,1.93,3.02,1.93,3,0c-0.08-9.55-2.22-18.88-6.08-27.61c-0.3,0.73-0.6,1.47-0.9,2.2
			c18.95-3.81,37.64-8.89,55.89-15.26C557.26,813.51,556.48,810.62,554.65,811.25L554.65,811.25z"/>
	</g>
</g>
<g>
	<g>
		<path class="st18" d="M511.51,715.98c12.34,0,24.68,0,37.02,0c1.93,0,1.93-3,0-3c-12.34,0-24.68,0-37.02,0
			C509.58,712.98,509.57,715.98,511.51,715.98L511.51,715.98z"/>
	</g>
</g>
<g>
	<g>
		<path class="st18" d="M266.94,574.39c-7.47,22.1-13.03,44.83-16.47,67.91c-0.96,6.41-1.75,12.83-2.39,19.28
			c-0.19,1.92,2.81,1.91,3,0c2.27-22.84,6.61-45.45,12.88-67.53c1.8-6.33,3.76-12.62,5.87-18.86
			C270.45,573.36,267.56,572.57,266.94,574.39L266.94,574.39z"/>
	</g>
</g>
<g>
	<path class="st18" d="M159.8,797.03c-0.11,2.37,0.8,4.68,1.69,6.93c3.44,8.64,6.87,17.28,10.31,25.92"/>
	<g>
		<path class="st18" d="M158.3,797.03c-0.06,2.75,0.93,5.28,1.93,7.79c1.14,2.85,2.27,5.71,3.41,8.56
			c2.24,5.63,4.48,11.26,6.72,16.89c0.71,1.77,3.61,1,2.89-0.8c-2.18-5.48-4.36-10.95-6.54-16.43c-1.07-2.7-2.15-5.4-3.22-8.1
			c-1.01-2.54-2.25-5.13-2.19-7.92C161.34,795.09,158.34,795.09,158.3,797.03L158.3,797.03z"/>
	</g>
</g>
<g>
	<path class="st18" d="M737.63,912.81c-17.9,12.7-36.22,25.83-47.14,42.95c-0.42,0.66-0.81,1.52-0.23,2.1
		c0.4,0.39,1.09,0.47,1.71,0.52c1.92,0.15,3.83,0.31,5.75,0.46"/>
	<g>
		<path class="st18" d="M736.87,911.52c-16.51,11.71-33.82,23.72-45.65,40.47c-1.18,1.67-3.84,4.5-2.26,6.63
			c0.88,1.18,2.38,1.21,3.72,1.32c1.68,0.13,3.36,0.27,5.03,0.4c1.92,0.15,1.91-2.85,0-3c-1.28-0.1-2.56-0.2-3.83-0.31
			c-0.64-0.05-1.28-0.07-1.92-0.15c-0.12-0.01-0.62-0.13-0.68-0.11c0.06,0.11,0.13,0.21,0.19,0.32c0.04-0.09,0.08-0.18,0.12-0.27
			c0.69-0.65,1.2-1.86,1.74-2.65c0.65-0.95,1.33-1.88,2.02-2.79c2.7-3.57,5.71-6.91,8.88-10.07c6.54-6.54,13.78-12.34,21.19-17.85
			c4.27-3.17,8.61-6.26,12.95-9.34C739.95,913,738.45,910.4,736.87,911.52L736.87,911.52z"/>
	</g>
</g>
<g>
	<path class="st18" d="M627.16,564.41c-9.94,8.9-19.68,17.94-29.21,27.12"/>
	<g>
		<path class="st18" d="M626.1,563.35c-9.9,8.87-19.64,17.9-29.21,27.12c-1.39,1.34,0.73,3.46,2.12,2.12
			c9.57-9.21,19.32-18.25,29.21-27.12C629.66,564.18,627.53,562.07,626.1,563.35L626.1,563.35z"/>
	</g>
</g>
<g>
	<path class="st18" d="M169.65,850.53c-0.25,5.81,0.63,11.65,2.62,17.24c0.4,1.12,0.89,2.29,2.01,3.02c0.97,0.63,2.26,0.81,3.5,0.95
		c4.57,0.51,9.19,0.67,13.8,0.48"/>
	<g>
		<path class="st18" d="M168.15,850.53c-0.14,3.52,0.12,7.04,0.76,10.51c0.32,1.75,0.74,3.47,1.26,5.17
			c0.42,1.37,0.83,2.89,1.61,4.1c1.86,2.89,5.48,2.92,8.56,3.18c3.73,0.31,7.48,0.38,11.22,0.23c1.92-0.08,1.93-3.08,0-3
			c-3.31,0.13-6.62,0.1-9.93-0.13c-1.52-0.1-3.07-0.19-4.58-0.44c-1.33-0.22-2.36-0.62-2.98-1.88c-1.26-2.55-1.86-5.65-2.35-8.43
			c-0.54-3.07-0.7-6.2-0.58-9.31C171.23,848.6,168.23,848.6,168.15,850.53L168.15,850.53z"/>
	</g>
</g>
<g>
	<path class="st18" d="M281.11,530.99c12.75,2.76,25.59,5.22,38.52,7.37"/>
	<g>
		<path class="st18" d="M280.71,532.44c12.78,2.76,25.62,5.22,38.52,7.37c1.89,0.32,2.7-2.58,0.8-2.89
			c-12.89-2.15-25.74-4.61-38.52-7.37C279.63,529.14,278.83,532.03,280.71,532.44L280.71,532.44z"/>
	</g>
</g>
<path class="st15" d="M227.52,531.48c21.01-15.17,47.59-17.83,78.56-10.63c1.23,2.28,2.45,4.56,3.68,6.84
	c-26.07,0.59-52.59,2.36-81.01,9.11C228.33,535.03,227.92,533.26,227.52,531.48z"/>
<path class="st0" d="M118.27,22.76L118.27,22.76L118.27,22.76z"/>
<path class="st13" d="M418.13,557.97"/>
<path class="st0" d="M740.58,1047.39c-7.36,15-13.73,30-18.6,45"/>
<path class="st13" d="M379.11,629.83c0.99,19.32,1.99,38.64,2.98,57.96c-22.08,16.27-53.43,5.5-83.54-1.61
	c-3.52-19.4-3.95-38.7-2.98-57.96C323.42,628.75,351.26,629.29,379.11,629.83z"/>
<path class="st20" d="M375.71,636.11c-9.58,16.66-12.72,33.54,2.47,51"/>
<path class="st13" d="M378.6,627.97c-2.78-10.76-77.59-12.88-82.78,0c-2.47,6.13,10.91,15.49,22.05,19.21
	C346.56,656.79,380.62,635.81,378.6,627.97z"/>
<path class="st13" d="M483.27,625.32c-0.99,19.32-1.99,38.64-2.98,57.96c22.08,16.27,53.43,5.5,83.54-1.61
	c3.52-19.4,3.95-38.7,2.98-57.96C538.96,624.25,511.12,624.79,483.27,625.32z"/>
<path class="st20" d="M486.66,634.61c9.58,16.66,12.72,33.54-2.47,51"/>
<path class="st21" d="M662,624.96c-5.37,0.38-11.54,1.16-18.22,2.65c-15.04,3.35-26.25,8.89-33.53,13.25
	c7.55,22.24,8.93,45.12,53.12,63.61c4.34-7.31,10.31-19.87,10.9-36.04C667.63,647.62,662.99,632.36,662,624.96z"/>
<path class="st22" d="M661.52,626.97c-4.87,0.36-10.47,1.09-16.53,2.5c-13.64,3.16-23.81,8.39-30.42,12.5
	c6.85,20.98,8.1,42.56,48.18,60c3.93-6.9,9.35-18.74,9.88-34C666.62,648.34,662.41,633.95,661.52,626.97z"/>
<path class="st23" d="M641.54,671.12c-0.42,0.13,3.54,17.93,13.06,18.92c5.61,0.58,10.09-4.98,10.54-5.56
	c5.57-7.1,0.59-16.18,0.04-16.15c-0.47,0.03,2,6.57-2.25,11.27c-2.27,2.51-6.59,4.64-10.59,3.9
	C644.76,682.1,641.87,671.01,641.54,671.12z"/>
<path class="st23" d="M653.1,671.84c0.36-2.3-0.74-4.4-0.47-4.46c0.39-0.09,1.39,4.8,3.87,5.12c2.49,0.31,5.46-4.11,5.68-3.99
	c0.22,0.12-3.92,3.77-2.69,6.02c0.96,1.76,4.78,1.89,4.69,2.37c-0.09,0.46-3.56-0.4-6.56,0.91c-3.44,1.5-4.38,5.03-5.03,4.84
	c-0.67-0.19,0.93-3.7-0.47-4.46c-1.34-0.72-4.51,1.57-4.86,1.24C646.82,679.01,652.41,676.21,653.1,671.84z"/>
<g>
	<g>
		<path class="st24" d="M657.89,635.37c-0.24-1.4-1.44-2.31-2.74-2.69c-1.56-0.46-3.08-0.01-4.34,0.97c-1.25,0.96-2.2,2.24-3.53,3.1
			c-1.37,0.89-2.94,1.43-4.52,1.79c-1.69,0.39-3.42,0.6-5.14,0.76c-1.72,0.16-3.59,0.12-5.21,0.8c-1.69,0.7-2.44,2.27-3.16,3.85
			c-0.83,1.81-1.44,3.7-1.88,5.64c-0.17,0.76-0.03,1.72-0.03,2.5c0,0.77,0.19,1.75,0.03,2.5c0.44-1.94,1.05-3.83,1.88-5.64
			c0.72-1.58,1.47-3.15,3.16-3.85c1.62-0.67,3.49-0.64,5.21-0.8c1.73-0.16,3.46-0.36,5.14-0.76c1.58-0.37,3.15-0.91,4.52-1.79
			c1.33-0.86,2.29-2.14,3.53-3.1c1.26-0.98,2.78-1.42,4.34-0.97c1.31,0.38,2.5,1.29,2.74,2.69
			C657.61,638.76,658.17,637,657.89,635.37L657.89,635.37z"/>
	</g>
</g>
<g>
	<g>
		<path class="st24" d="M661.52,644.47c-9.68,3.17-19.36,6.33-29.03,9.5c-0.09,0.03-0.06,2.5-0.05,2.2
			c-0.02,1.77-0.02,3.54-0.02,5.3c0,1.77,0,3.54,0.02,5.3c0,0.23,0.11,2.18,0.05,2.2c9.68-3.17,19.36-6.33,29.03-9.5
			c0.09-0.03,0.06-2.5,0.05-2.2c0.02-1.77,0.02-3.54,0.02-5.3c0-1.77,0-3.54-0.02-5.3C661.57,646.43,661.47,644.48,661.52,644.47
			L661.52,644.47z"/>
	</g>
</g>
<g>
	<g>
		<path class="st25" d="M661.52,643.72c-9.88,3-19.77,6-29.65,9c-0.25,0.08,0.21,2.44,0,2.5c9.88-3,19.77-6,29.65-9
			C661.77,646.14,661.3,643.78,661.52,643.72L661.52,643.72z"/>
	</g>
</g>
<g>
	<g>
		<path class="st25" d="M662.14,657.72c-10.09,3-20.18,6-30.27,9c-0.24,0.07,0.21,2.44,0,2.5c10.09-3,20.18-6,30.27-9
			C662.38,660.14,661.93,657.78,662.14,657.72L662.14,657.72z"/>
	</g>
</g>
<polygon class="st26" points="654.58,656.73 644.9,659.46 647.79,652.33 "/>
<polygon class="st26" points="643.55,655.15 653.4,652.84 650.04,659.84 "/>
<g>
	<g>
		<path d="M529.44,646.3c5.32,21.49,12.69,47.91,30.35,62.95c8.2,6.98,19.4,11.51,30.24,9.41c11.22-2.18,19.41-11.36,24.82-20.87
			c9.15-16.1,13.19-35.03,15.96-53.14c5.3-34.56,5.74-69.78,4.82-104.67c-0.17-6.42-10.17-6.45-10,0
			c0.79,29.88,0.53,59.93-2.83,89.66c-2.09,18.53-5.24,37.74-12.59,55c-2.31,5.44-5.37,11.2-9.01,15.5
			c-1.32,1.56-3.82,4.01-4.7,4.69c-0.82,0.64-1.7,1.21-2.6,1.74c-0.58,0.34-2.84,1.44-2.3,1.22c-0.89,0.36-1.81,0.65-2.74,0.89
			c-0.84,0.22-2.64,0.48-2.12,0.43c-1.95,0.19-4.65,0.01-5.35-0.12c-4.86-0.88-8.04-2.38-12.23-5.1
			c-5.78-3.76-10.62-10.56-14.22-16.87c-7.65-13.42-12.17-28.46-15.86-43.37C537.54,637.39,527.89,640.04,529.44,646.3L529.44,646.3
			z"/>
	</g>
</g>
<g>
	<g>
		<path d="M523.81,225.84c13.86,9.08,23.4,23,31.44,37.19c2.32,4.1,4.54,8.25,6.75,12.41c-0.05-0.09,0.02-0.72,0.02-0.73
			c0.01-0.59,0.01-1.18,0.01-1.77c0-0.59,0-1.18-0.01-1.77c0-0.18,0.07-0.57-0.02-0.73c-7.68-14.47-15.61-29.29-27.41-40.88
			c-3.31-3.25-6.9-6.18-10.78-8.72c0.17,0.11-0.03,2.22-0.03,2.5C523.79,223.66,523.55,225.67,523.81,225.84L523.81,225.84z"/>
	</g>
</g>
<g>
	<g>
		<path d="M303.97,224.85c-13.83,15.84-27.67,31.69-41.5,47.53c-0.28,0.32-0.02,2.06-0.02,2.5c0,0.59,0,1.18,0.01,1.77
			c0,0.12,0.08,0.66,0.02,0.73c13.83-15.84,27.67-31.69,41.5-47.53c0.28-0.32,0.02-2.06,0.02-2.5c0-0.59,0-1.18-0.01-1.77
			C303.98,225.45,303.9,224.92,303.97,224.85L303.97,224.85z"/>
	</g>
</g>
<path class="st27" d="M297.55,172.93L297.55,172.93c0.01-5.61,90.2-5.9,90.19-0.93c0,0,15.22,40.59,0.98,57.69
	c-20.04,24.07-63.67,17.99-79.41,0.93C292.87,212.81,297.55,172.97,297.55,172.93z"/>
<path class="st27" d="M529.76,171.44L529.76,171.44c-0.01-5.61-90.2-5.9-90.19-0.93c0,0-15.22,40.59-0.98,57.69
	c20.04,24.07,63.67,17.99,79.41,0.93C534.44,211.32,529.76,171.47,529.76,171.44z"/>
<g>
	<g>
		<path class="st28" d="M391.69,189.51c-17.74,9.84-35.48,19.69-53.22,29.53c-5.09,2.82-10.18,5.65-15.27,8.47
			c-0.12,0.07-0.06,2.44-0.05,2.2c-0.02,1.77-0.02,3.54-0.02,5.3c0,1.77,0,3.54,0.02,5.3c0,0.26,0.16,2.14,0.05,2.2
			c17.74-9.84,35.48-19.69,53.22-29.53c5.09-2.82,10.18-5.65,15.27-8.47c0.12-0.07,0.06-2.44,0.05-2.2c0.02-1.77,0.02-3.54,0.02-5.3
			c0-1.77,0-3.54-0.02-5.3C391.74,191.44,391.58,189.57,391.69,189.51L391.69,189.51z"/>
	</g>
</g>
<g>
	<g>
		<path class="st28" d="M370.62,169.01c-18.35,9.36-36.7,18.72-55.05,28.08c-5.18,2.64-10.36,5.28-15.54,7.92
			c-0.08,0.04-0.04,1.64-0.04,1.46c-0.01,1.18-0.02,2.36-0.01,3.54c0,1.18,0,2.36,0.01,3.54c0,0.17,0.1,1.43,0.04,1.46
			c18.35-9.36,36.7-18.72,55.05-28.08c5.18-2.64,10.36-5.28,15.54-7.92c0.08-0.04,0.04-1.64,0.04-1.46
			c0.01-1.18,0.02-2.36,0.01-3.54c0-1.18,0-2.36-0.01-3.54C370.66,170.3,370.56,169.04,370.62,169.01L370.62,169.01z"/>
	</g>
</g>
<g>
	<g>
		<path class="st28" d="M529.72,183.51c-19.43,10.91-38.85,21.81-58.28,32.72c-5.51,3.09-11.02,6.19-16.53,9.28
			c-0.12,0.07-0.06,2.44-0.05,2.2c-0.02,1.77-0.02,3.54-0.02,5.3c0,1.77,0,3.54,0.02,5.3c0,0.26,0.17,2.13,0.05,2.2
			c19.43-10.91,38.85-21.81,58.28-32.72c5.51-3.09,11.02-6.19,16.53-9.28c0.12-0.07,0.06-2.44,0.05-2.2
			c0.02-1.77,0.02-3.54,0.02-5.3c0-1.77,0-3.54-0.02-5.3C529.77,185.44,529.6,183.57,529.72,183.51L529.72,183.51z"/>
	</g>
</g>
<g>
	<g>
		<path class="st28" d="M493.25,165.94c-14.48,10.67-29.5,20.6-44.99,29.75c-4.46,2.63-8.96,5.2-13.49,7.7
			c-0.08,0.04-0.04,1.63-0.04,1.46c-0.01,1.18-0.02,2.36-0.01,3.54c0,1.18,0,2.36,0.01,3.54c0,0.17,0.11,1.42,0.04,1.46
			c15.77-8.71,31.1-18.2,45.91-28.46c4.23-2.93,8.42-5.93,12.57-8.99c0.09-0.07,0.04-1.59,0.04-1.46c0.01-1.18,0.02-2.36,0.01-3.54
			c0-1.18,0-2.36-0.01-3.54C493.29,167.21,493.16,166.01,493.25,165.94L493.25,165.94z"/>
	</g>
</g>
<line class="st29" x1="392.75" y1="203.01" x2="432.26" y2="203.01"/>
<path class="st13" d="M483.78,623.46c2.78-10.76,77.59-12.88,82.78,0c2.47,6.13-10.91,15.49-22.05,19.21
	C515.82,652.28,481.76,631.31,483.78,623.46z"/>
<g>
	<path class="st30" d="M449.97,347.08c-2.35-3.35-2.19-6.7-2.07-9.44c0.06-1.24,0.42-9.19,6.15-14c10.87-9.14,43.36-8.9,55.54,3.53
		c5.48,5.58,7.71,14.5,1.42,21.46c-8.66,9.58-27.56,8.9-32.15,8.73C476.31,357.26,456.48,356.37,449.97,347.08z"/>
	<path class="st31" d="M514.66,349.2c0.31-1.98,2.23-15.84-10.15-24.87c-15.24-11.12-43.07-8.3-53.6,2.34
		c-2.72,2.74-3.98,5.7-4.6,8.17"/>
	<ellipse class="st32" cx="475.31" cy="336.98" rx="11.74" ry="10.84"/>
	<ellipse class="st24" cx="480.77" cy="333.66" rx="4.56" ry="4.22"/>
	<path class="st30" d="M390.11,347.02c2.19-3.44,1.88-6.79,1.63-9.54c-0.11-1.24-0.85-9.2-6.79-13.84
		c-11.29-8.82-43.73-7.53-55.34,5.33c-5.22,5.78-7.04,14.79-0.43,21.56c9.1,9.33,27.95,8.03,32.53,7.72
		C364.26,358.08,384.03,356.54,390.11,347.02z"/>
	<ellipse class="st32" cx="364.28" cy="337.84" rx="11.74" ry="11.05"/>
	<ellipse class="st24" cx="370.18" cy="334.45" rx="4.56" ry="4.3"/>
	<path class="st0" d="M333.18,354.21c2.93,1.17,27.68,10.64,47.91,0.03c4.99-2.62,8.64-5.9,11.29-9.02"/>
	<path class="st33" d="M384.9,308.88c-22.76-2.05-43.93-0.26-62.68,7.29"/>
	<path class="st33" d="M451.81,308.94c22.57-3.73,43.85-3.54,63.2,2.59"/>
	<path class="st31" d="M324.82,350.04c-0.4-1.97-2.95-15.75,9-25.18c14.72-11.61,42.66-9.68,53.67,0.6
		c2.84,2.65,4.24,5.57,4.98,8.02"/>
	<path class="st0" d="M507.22,351.9c-2.87,1.26-27.17,11.52-47.87,1.58c-5.11-2.45-8.9-5.61-11.7-8.65"/>
</g>
<path class="st0" d="M454.17,434.97c-15.3,5.39-35.44,3.29-57-1"/>
</svg>
