<?xml version="1.0" encoding="utf-8"?>
<!-- Generator: Adobe Illustrator 28.3.0, SVG Export Plug-In . SVG Version: 6.00 Build 0)  -->
<svg version="1.1" id="Layer_1" xmlns="http://www.w3.org/2000/svg" xmlns:xlink="http://www.w3.org/1999/xlink" x="0px" y="0px"
	 viewBox="0 0 875 1859" style="enable-background:new 0 0 875 1859;" xml:space="preserve">
<style type="text/css">
	.st0{fill:#E1B350;}
	.st1{stroke:#000000;stroke-miterlimit:10;}
	.st2{fill:#F0FCFB;stroke:#000000;stroke-miterlimit:10;}
	.st3{fill:none;stroke:#000000;stroke-miterlimit:10;}
	.st4{fill:#C4C9D6;stroke:#000000;stroke-miterlimit:10;}
	.st5{fill:#3E505C;stroke:#000000;stroke-miterlimit:10;}
	.st6{fill:#8C9099;stroke:#000000;stroke-miterlimit:10;}
	.st7{fill:none;stroke:#000000;stroke-width:9;stroke-miterlimit:10;}
	.st8{fill:#FBB03B;stroke:#000000;stroke-miterlimit:10;}
	.st9{fill:#FFE3CB;stroke:#000000;stroke-miterlimit:10;}
	.st10{fill:#FBB03B;}
	.st11{fill:#FFB995;}
	.st12{fill:#332C26;}
	.st13{fill:#332C26;stroke:#000000;stroke-miterlimit:10;}
	.st14{fill:none;stroke:#FFB995;stroke-miterlimit:10;}
	.st15{fill:#080D1D;stroke:#FFFFFF;stroke-miterlimit:10;}
	.st16{fill:none;stroke:#FFFFFF;stroke-miterlimit:10;}
	.st17{fill:#FFFFFF;}
	.st18{fill:#322B13;}
	.st19{fill:#FFB995;stroke:#000000;stroke-width:0.5;stroke-miterlimit:10;}
	.st20{fill:#080D1D;}
	.st21{fill:#EE781F;}
	.st22{fill:#EE781F;stroke:#EE781F;stroke-miterlimit:10;}
	.st23{fill:none;stroke:#EE781F;stroke-miterlimit:10;}
	.st24{fill:none;stroke:#000000;stroke-width:5;stroke-miterlimit:10;}
	.st25{stroke:#000000;stroke-width:5;stroke-miterlimit:10;}
	.st26{fill:#FFFFFF;stroke:#000000;stroke-miterlimit:10;}
	.st27{fill:none;stroke:#000000;stroke-width:3;stroke-miterlimit:10;}
	.st28{fill:#242B2D;stroke:#000000;stroke-miterlimit:10;}
	.st29{fill:#272C2D;}
	.st30{fill:none;stroke:#000000;stroke-width:4;stroke-miterlimit:10;}
	.st31{opacity:0.22;enable-background:new    ;}
	.st32{stroke:#000000;stroke-width:13;stroke-miterlimit:10;}
	.st33{fill:#FBB03B;stroke:#000000;stroke-width:2;stroke-miterlimit:10;}
	.st34{enable-background:new    ;}
</style>
<g>
	<path class="st0" d="M192.1,713c-0.4,153.8,31.6,186.9,42.9,197.1c6.1,5.5,34.9,31.5,77.1,31.8c43.8,0.3,73.8-27.3,79.9-32.9
		c15.3-14.1,40.1-44.5,42.1-194.1c1.7-129,1.7-197.3-45.4-233.6c-33.2-25.6-73.6-26.4-73.6-26.4c-29.8-0.6-53.9,10.3-66.1,18
		C192.7,508.5,192.5,598.3,192.1,713z"/>
</g>
<path class="st1" d="M195.4,820.8c2.5,13.9,7.2,32.3,16.8,52.3c7.3,15.3,15.6,27.6,22.9,37c10.7,8.1,35.8,24.8,71.7,27.8
	c10.8,0.9,39.3,3.2,66.3-11.8c53.1-29.6,54.9-101.4,54.9-105.8C356.2,808.7,278,810.3,195.4,820.8z M356.1,927h-82
	c-7.6-8.1-20.6-24.1-28-48c-8.6-27.5-5.3-50.9-3-62c18.9-1.6,38.7-2.8,59.5-3.3c29.2-0.7,56.8-0.2,82.5,1.3
	C389,851.2,391.6,887.5,356.1,927z"/>
<path class="st2" d="M355.1,927h-82c-7.6-8.1-20.6-24.1-28-48c-8.6-27.5-5.3-50.9-3-62c18.9-1.6,38.7-2.8,59.5-3.3
	c29.2-0.7,56.8-0.2,82.5,1.3C388,851.2,390.6,887.5,355.1,927z"/>
<path class="st3" d="M355.1,927h-82c-7.6-8.1-20.6-24.1-28-48c-8.6-27.5-5.3-50.9-3-62c18.9-1.6,38.7-2.8,59.5-3.3
	c29.2-0.7,56.8-0.2,82.5,1.3C388,851.2,390.6,887.5,355.1,927z"/>
<path class="st4" d="M427,820.2c-71.8-11.5-150.1-9.9-232.6,0.5c-5.6-37-1.4-75.4-4.3-112.7c25.7-9.6,67.9-21.8,121-21.3
	c53.3,0.4,95.4,13.3,121,23.3C434,752,432.1,789.1,427,820.2z"/>
<rect x="113.1" y="613" class="st5" width="335" height="41"/>
<path class="st4" d="M301.1,1002h33c3-34,10-59,21-75c-27.3,0-54.7,0-82,0C282.5,952,307.1,973,301.1,1002z"/>
<path class="st6" d="M294.1,991h51c-3.7-9.5-2.7-21.8,0-35c-18.3,0-36.7,0-55,0C295.6,967.7,299.5,979.4,294.1,991z"/>
<ellipse class="st5" cx="318.1" cy="1002" rx="45" ry="13"/>
<path class="st3" d="M355.1,927h-82c-7.6-8.1-20.6-24.1-28-48c-8.6-27.5-5.3-50.9-3-62c18.9-1.6,38.7-2.8,59.5-3.3
	c29.2-0.7,56.8-0.2,82.5,1.3C388,851.2,390.6,887.5,355.1,927z"/>
<polyline class="st7" points="294.1,893 292.1,835 333.1,887 336.1,827 "/>
<path class="st3" d="M428,1235.9"/>
<path class="st8" d="M551.9,498.9c9.8-19.4,19.2-40,28-62c42.5-106.1,55.5-206.2,57-287c-34.8-11.9-83.3-24.2-142-26
	c-93-2.8-166.2,22-208,40c1.7,42.5,7.8,95.7,24,155c21.3,77.9,52.6,139.1,79,182"/>
<path class="st9" d="M525.3,370.6c2.6,23.5-6,13-8,90c-2.9,9.3-9,25.8-22,43c-10,13.2-18.6,24.6-30,25c-18.9,0.7-33.6-29.6-40-43
	c-13.5-28-6-64-11-106C435.3,353.4,483,346.7,525.3,370.6z"/>
<g>
	<path class="st10" d="M579.9,873.6c2-4.3,6.3-15.2,1.4-22c-3.4-4.7-9.7-5.5-12-5.8c-54.9-6.9-12.3-12-90.7-13.6
		c-40.5-0.8-83.1-1-118.6,18.5c-1.8,1-3.6,2.1-4.7,3.8c-0.9,1.5-1.1,3.3-1.3,5c-3.1,30.5-3.3,61.3-0.4,91.9
		c0.8,8.4,1.8,16.8,4.8,24.7c4.3,11.3,12.5,20.7,20.5,29.8c3.9,4.5,8.1,9.1,13.5,11.5c6.3,2.7,13.5,2.1,20.4,2.4
		c10,0.4,19.8,2.8,29.8,3.8c10,1,20.5,0.6,29.3-4.2c5.9-3.2,10.6-8.2,15.2-13.1c13.2-14,26.4-28.1,38.1-43.4
		c4.2-5.5,8.2-11.1,12.9-16c5.4-5.6,11.8-10.2,16.8-16.2c6.2-7.4,10.1-16.4,13.9-25.3c3.6-8.5,8.1-20.3,11.8-35"/>
</g>
<g>
	<path class="st11" d="M416.8,379.1c12-6.4,36.5-17.3,68.3-16.1c16.8,0.6,30.7,4.4,40.7,8.1c-2,15-4,30-6,45c0,0-23,18.8-36.3,23
		c-17.2,5.5-32.9,4.9-46.6,4.2c-8.4-0.4-15.4-1.4-20.1-2.2"/>
</g>
<path class="st12" d="M614.3,261.6c5.5-8.1,19.2-30.4,20-60.4c1.2-47.3-29.8-89.6-65.7-110.2C522.3,64.5,466,72.7,465.4,76.4
	c-0.1,0.6,1.2,1.5,2,2c5.1,3.4,13.1,0.9,13,0c0-0.6-3.8-1.1-20-1c-87.5,15.5-109.2,20.6-109,22c0.1,0.8,7.4,0.6,13,0
	c11.7-1.3,47.1-8.1,47.4-8c0.2,0,0.4,0.1,0.4,0.1c0,0,0.1,0,0.1,0c-11.7-5.3-27.5-9.8-45-7c-37.1,5.9-68.2,42.2-77,91
	c1.4,26.9,8.7,77.9,47,115C414,365,564.1,334.8,614.3,261.6z"/>
<path class="st9" d="M321.3,252.6c-9.2,4.6-9,25.5-8.9,28c1,43.2,49.4,68.4,52.5,70c10.7,5.4,21.9,11,26.7,6
	c9.3-9.7-11.3-53-35.6-81C347.6,265.9,331.6,247.5,321.3,252.6z"/>
<path class="st9" d="M597.6,253c8.1,4.6,7.8,25.5,7.8,28c-0.8,43.2-43.2,68.4-45.9,70c-9.4,5.4-19.1,11-23.3,6
	c-8.1-9.7,9.9-53,31.1-81C574.6,266.4,588.5,247.9,597.6,253z"/>
<path class="st9" d="M338.3,237.6c3,48,28,110,28,110s9,45,99,83c15.4-5.6,63.5-25.5,97-78c21-54,31.3-104.7,30-121
	c-9-56.7-54.2-130.1-123-132C397.1,97.6,345.9,176,338.3,237.6z"/>
<path class="st13" d="M444.3,168.6c-7,66-29,96-29,96s56-29,45-39c1.8,1.5-14,45-32,55c4.7,6.2,28.7-0.8,44-13
	c43.4-34.5,25.7-117.1,23-129"/>
<path class="st13" d="M475.3,154.6c14,28.9,62.1,68.1,100.6,100.6c6.9,5.8-1.4,24.2-12.6,42.4c3.3,3.1,12.2-1.6,14.1-2.6
	c14.7-7.7,24.6-25.2,24.9-47.4"/>
<path class="st3" d="M338.3,287.5"/>
<path class="st12" d="M603.3,241.6c16.7-14.2-7.7-108.5-76-144c-65-33.8-154.9-6.6-191,51c-20.8,33.2-27.4,81.6-11,92
	c28.8,18.3,125-83.9,136.5-72.5c5,4.9-11.1,26.2-4.5,32.5c7,6.7,25.9-16.2,49.5-12.5c23.3,3.7,24.2,29.1,59,46
	C575.3,238.7,595.2,248.4,603.3,241.6z"/>
<g>
	<g>
		<path d="M444.7,167.7c0.8-3.6,1.2-7.4,1.1-11.1c0-1.1-1.3-2-2.3-1.3c-3.4,2.4-6.5,5.1-9.2,8.2c-0.5,0.6-0.6,1.5,0,2.1
			c0.5,0.5,1.6,0.6,2.1,0c2.5-2.9,5.4-5.6,8.6-7.8c-0.8-0.4-1.5-0.9-2.3-1.3c0,3.5-0.3,6.9-1,10.3c-0.2,0.8,0.2,1.6,1,1.9
			C443.6,169,444.5,168.5,444.7,167.7L444.7,167.7z"/>
	</g>
</g>
<g>
	<path d="M501.7,184.7c-0.7,0-0.8-7.3-3.1-21.8c-1.4-9.1-3-16.6-4.1-21.7c2.7,4.6,6.1,11.5,7.8,20.4
		C504.5,173.6,502.6,184.7,501.7,184.7z"/>
	<g>
		<path d="M501.7,183.2c0.4,0,1,0.5,1.1,0.6c0,0,0.1,0.4,0.1,0.1c0-0.2-0.1-0.4-0.1-0.6c-0.2-0.8-0.2-1.1-0.3-1.8
			c-0.3-2.3-0.5-4.7-0.8-7c-0.9-7.8-2.1-15.6-3.6-23.3c-0.7-3.5-1.4-7-2.2-10.5c-0.9,0.4-1.8,0.8-2.7,1.2c4.1,7,7,14.7,8,22.8
			c0.6,4.3,0.7,8.8,0.4,13.1c-0.1,1.4-0.2,2.9-0.5,4.2c-0.1,0.5-0.2,0.9-0.4,1.4c-0.1,0.3-0.1,0.1-0.1,0.2c0,0.1,0,0.1-0.1,0.1
			c0.2-0.3,0.4-0.4,0.7-0.5c-1.9,0.3-1.1,3.2,0.8,2.9c1.5-0.3,1.8-2.8,2-4c0.5-3,0.7-6.1,0.7-9.1c0-8-1.4-15.9-4.4-23.4
			c-1.3-3.2-2.8-6.3-4.6-9.3c-0.9-1.5-3.1-0.5-2.7,1.2c1.7,7.6,3.1,15.2,4.3,22.9c0.9,6.1,1.5,12.3,2.3,18.5c0.2,1.4,0.3,3.1,2,3.3
			C503.6,186.4,503.6,183.4,501.7,183.2z"/>
	</g>
</g>
<g>
	<g>
		<path d="M607.9,242.5c0-3.5,0-7,0-10.6c0-0.8-0.7-1.5-1.5-1.5s-1.5,0.7-1.5,1.5c0,3.5,0,7,0,10.6c0,0.8,0.7,1.5,1.5,1.5
			S607.9,243.3,607.9,242.5L607.9,242.5z"/>
	</g>
</g>
<g>
	<g>
		<path d="M377.1,87.8c9-0.7,18.2-0.3,27.1,1c1.9,0.3,2.7-2.6,0.8-2.9c-9.2-1.4-18.6-1.8-27.9-1.1C375.2,84.9,375.2,87.9,377.1,87.8
			L377.1,87.8z"/>
	</g>
</g>
<g>
	<g>
		<path d="M485.9,128.9c-1.7-3.5-4.8-6.1-8.4-7.3c-0.7-0.2-1.7,0.3-1.9,1.1c-0.2,0.8,0.2,1.6,1,1.8c0.2,0.1,0.4,0.1,0.6,0.2
			c0.2,0.1,0.2,0.1,0,0c0.1,0,0.2,0.1,0.3,0.1c0.4,0.2,0.8,0.4,1.1,0.6c0.4,0.2,0.7,0.4,1,0.7c0.1,0.1,0.1,0.1,0.2,0.2
			c0.3,0.2-0.2-0.2,0.1,0.1c0.2,0.1,0.3,0.3,0.5,0.4c0.3,0.3,0.6,0.6,0.9,0.8c0.1,0.2,0.3,0.3,0.4,0.5c0.1,0.1,0.1,0.1,0.2,0.2
			c0,0.1,0.3,0.3,0,0.1c0.5,0.6,1,1.4,1.3,2.1c0.3,0.7,1.4,0.9,2,0.5C486,130.5,486.2,129.6,485.9,128.9L485.9,128.9z"/>
	</g>
</g>
<g>
	<g>
		<path d="M568,128.6c8.2,14.5,15.5,29.6,21.8,45.1c0.7,1.8,3.6,1,2.9-0.8c-6.4-15.7-13.8-31-22.1-45.8
			C569.7,125.4,567.1,126.9,568,128.6L568,128.6z"/>
	</g>
</g>
<g>
	<g>
		<path d="M321.5,189.3c0.5-4,2.2-7.7,3.9-11.4c1.8-3.8,3.6-7.7,5.5-11.4c3.7-7.5,7.6-14.9,11.8-22.2c1-1.7-1.6-3.2-2.6-1.5
			c-4.2,7.4-8.2,15-12,22.7c-1.9,3.8-3.7,7.6-5.5,11.5c-1.7,3.7-3.4,7.6-4,11.7c-0.1,0.8,0.2,1.6,1,1.9
			C320.3,190.5,321.4,190.1,321.5,189.3L321.5,189.3z"/>
	</g>
</g>
<path class="st14" d="M314.3,266.6c-1.2,3.8-3.1,11.6-1,21c1.4,6.3,4,11.1,6,14"/>
<path class="st15" d="M415.3,1483.6c0,0-9.5,47.4-6,99c3.3,49,22.2,90.4,25,120c1.2,25.4,1.1,49-4,66c-8.1,5.1-32,18.7-64.5,16.4
	c-25.9-1.8-44.3-12.8-52.5-18.4c-1.6-6.4-3.5-16.1-4-28c-0.9-19.9,2.5-34.1,8-57c3-12.6,7.9-33.2,15-64c1.8-44.7,0.5-87.9-5-129
	C354.8,1494.6,384.4,1491.6,415.3,1483.6z"/>
<path class="st16" d="M420.3,1711.6c-26.1-29.4-87-20-97,1"/>
<path class="st16" d="M310.3,1749.6c41,18.4,82,18.9,123,1"/>
<path class="st15" d="M518.3,1483.6c1.5,21.2,2.6,43.3,3.3,66c0.6,18.8,0.8,37.2,0.7,55c-7.7,32.5-15.4,65-23.1,97.5
	c0,0-1.1,49,4,66c8.1,5.1,32,18.7,64.5,16.4c25.9-1.8,44.3-12.8,52.5-18.4c1.6-6.4,3.5-16.1,4-28c0.9-19.9-2.5-34.1-8-57
	c-3-12.6-7.8-33.2-15-64c-0.5-21.1-0.6-43.1-0.2-65.8c0.5-26.3,1.7-51.6,3.3-75.7c-6.5,4.5-20.7,13.1-40.8,15.3
	C542,1493.1,525.5,1486.8,518.3,1483.6z"/>
<path class="st16" d="M513.2,1711.1c26.1-29.4,87-20,97,1"/>
<path class="st16" d="M623.2,1749.1c-41,18.4-82,18.9-123,1"/>
<g>
	<path class="st17" d="M406.3,1624.8c2.4,16,5.4,31.9,9.1,47.7"/>
	<g>
		<path class="st18" d="M402,1626c2.4,16,5.4,31.9,9.1,47.7c0.5,2.3,3.3,3.9,5.5,3.1c2.4-0.8,3.7-3.1,3.1-5.5
			c-3.7-15.8-6.7-31.7-9.1-47.7c-0.4-2.3-3.4-3.8-5.5-3.1C402.6,1621.2,401.6,1623.5,402,1626L402,1626z"/>
	</g>
</g>
<g>
	<path class="st17" d="M592.4,1629.4c5.4,16.1,10.8,32.3,16.2,48.4"/>
	<g>
		<path class="st18" d="M588.1,1630.6c5.4,16.1,10.8,32.3,16.2,48.4c0.8,2.2,3.1,3.9,5.5,3.1c2.2-0.7,3.9-3.2,3.1-5.5
			c-5.4-16.1-10.8-32.3-16.2-48.4c-0.8-2.2-3.1-3.9-5.5-3.1C589,1625.8,587.3,1628.2,588.1,1630.6L588.1,1630.6z"/>
	</g>
</g>
<g>
	<path class="st17" d="M380.9,1704.1c6.8,2.2,13.2,5.5,19,9.7"/>
	<g>
		<path class="st18" d="M379.7,1708.4c0.9,0.3,1.7,0.6,2.6,0.9c0.4,0.2,0.9,0.3,1.3,0.5c0.2,0.1,1.6,0.7,0.5,0.2
			c1.6,0.6,3.1,1.4,4.6,2.2c3.1,1.6,6.1,3.5,9,5.5c1.9,1.4,5.1,0.4,6.2-1.6c1.2-2.3,0.4-4.7-1.6-6.2c-6.1-4.4-13-7.8-20.1-10.2
			c-2.2-0.7-5,0.9-5.5,3.1C376,1705.3,377.3,1707.6,379.7,1708.4L379.7,1708.4z"/>
	</g>
</g>
<g>
	<path class="st17" d="M568.8,1707c9.6,0.1,19.1,3.5,26.5,9.6"/>
	<g>
		<path class="st18" d="M568.8,1711.5c1.1,0,2.2,0.1,3.4,0.2c0.3,0,0.6,0.1,0.8,0.1c0.4,0,0.5,0.1,0.1,0c0.6,0.1,1.1,0.2,1.7,0.3
			c2.3,0.4,4.5,1,6.7,1.8c0.5,0.2,1,0.4,1.6,0.6c0.7,0.2-0.6-0.3,0.1,0c0.3,0.1,0.5,0.2,0.8,0.3c1,0.5,2,1,3,1.5s1.9,1.1,2.9,1.8
			c0.5,0.3,0.9,0.6,1.4,1c0.1,0,0.7,0.5,0.4,0.3c-0.4-0.3,0.6,0.4,0.5,0.4c1.8,1.5,4.6,1.9,6.4,0c1.5-1.6,2-4.8,0-6.4
			c-8.4-6.8-18.8-10.8-29.7-10.9c-2.3,0-4.6,2.1-4.5,4.5C564.4,1709.5,566.3,1711.5,568.8,1711.5L568.8,1711.5z"/>
	</g>
</g>
<line class="st14" x1="471.3" y1="282.6" x2="458.3" y2="290.6"/>
<line class="st14" x1="472.3" y1="287.6" x2="451.3" y2="300.6"/>
<line class="st14" x1="477.3" y1="290.6" x2="450.3" y2="307.6"/>
<line class="st14" x1="479.3" y1="296.6" x2="451.3" y2="313.6"/>
<line class="st14" x1="482.3" y1="300.6" x2="453.3" y2="317.6"/>
<path class="st19" d="M465.3,327.1c-0.2,4-0.3,8-0.5,12c-1.8-1.7-3.7-3.3-5.5-5"/>
<g>
	<g>
		<path class="st11" d="M371.2,316.4c-0.6,0.8-1.2,1.6-1.8,2.5c-0.1,0.2-0.2,0.4-0.2,0.6c0,0.2,0,0.4,0,0.6c0.1,0.4,0.4,0.7,0.7,0.9
			c0.4,0.2,0.8,0.3,1.2,0.1c0.1,0,0.2-0.1,0.4-0.1c0.2-0.1,0.4-0.3,0.5-0.5c0.6-0.8,1.2-1.6,1.8-2.5c0.1-0.2,0.2-0.4,0.2-0.6
			c0-0.2,0-0.4,0-0.6c-0.1-0.4-0.4-0.7-0.7-0.9c-0.4-0.2-0.8-0.3-1.2-0.1c-0.1,0-0.2,0.1-0.4,0.1C371.5,316,371.4,316.2,371.2,316.4
			L371.2,316.4z"/>
	</g>
</g>
<g>
	<g>
		<path class="st11" d="M375.2,319.1c-0.2,0.3-0.4,0.6-0.6,0.9c-0.1,0.2-0.2,0.4-0.2,0.6c0,0.2,0,0.4,0,0.6c0,0.2,0.1,0.4,0.3,0.5
			c0.1,0.2,0.2,0.3,0.4,0.4c0.1,0,0.2,0.1,0.4,0.1c0.3,0.1,0.5,0.1,0.8,0c0.1,0,0.2-0.1,0.4-0.1c0.2-0.1,0.4-0.3,0.5-0.5
			c0.2-0.3,0.4-0.6,0.6-0.9c0.1-0.2,0.2-0.4,0.2-0.6c0-0.2,0-0.4,0-0.6c0-0.2-0.1-0.4-0.3-0.5c-0.1-0.2-0.2-0.3-0.4-0.4
			c-0.1,0-0.2-0.1-0.4-0.1c-0.3-0.1-0.5-0.1-0.8,0c-0.1,0-0.2,0.1-0.4,0.1C375.5,318.7,375.3,318.9,375.2,319.1L375.2,319.1z"/>
	</g>
</g>
<g>
	<g>
		<path class="st11" d="M544.7,319c0,0.5,0,1,0,1.5c0,0.2,0,0.4,0.1,0.6c0.1,0.2,0.2,0.4,0.3,0.5c0.1,0.1,0.3,0.2,0.5,0.3
			c0.2,0.1,0.4,0.1,0.6,0.1c0.1,0,0.3,0,0.4,0c0.2-0.1,0.5-0.2,0.7-0.4c0.3-0.3,0.4-0.6,0.4-1.1c0-0.5,0-1,0-1.5
			c0-0.2,0-0.4-0.1-0.6c-0.1-0.2-0.2-0.4-0.3-0.5c-0.1-0.1-0.3-0.2-0.5-0.3c-0.2-0.1-0.4-0.1-0.6-0.1c-0.1,0-0.3,0-0.4,0
			c-0.2,0.1-0.5,0.2-0.7,0.4C544.8,318.2,544.7,318.6,544.7,319L544.7,319z"/>
	</g>
</g>
<g>
	<g>
		<path class="st11" d="M549.2,317.8C549.2,317.8,549.2,317.8,549.2,317.8c0-0.1-0.1-0.2-0.2-0.3c0.2,0.3,0.4,0.7,0.6,1
			c0-0.1-0.1-0.2-0.2-0.4c0.2,0.4,0.3,0.8,0.3,1.3c0-0.1,0-0.3,0-0.4c0,0.4,0,0.8,0,1.1c0,0.4,0.2,0.8,0.4,1.1
			c0.3,0.3,0.7,0.5,1.1,0.4c0.4,0,0.8-0.1,1.1-0.4c0.1-0.1,0.2-0.2,0.2-0.3c0.1-0.2,0.2-0.5,0.2-0.8c0.1-0.8,0-1.5-0.2-2.2
			c-0.1-0.4-0.3-0.8-0.5-1.2c-0.2-0.4-0.5-0.7-0.7-1.1c-0.2-0.3-0.7-0.4-1.1-0.4c-0.4,0-0.8,0.2-1.1,0.4c-0.3,0.3-0.5,0.7-0.4,1.1
			c0,0.1,0,0.3,0,0.4C548.9,317.4,549,317.6,549.2,317.8L549.2,317.8z"/>
	</g>
</g>
<path class="st13" d="M450.3,171.6c-12.8,8.9-94,84-101,114c-2,5,9.6,31.4,11,31c0.1,0,0.1-0.1,0.1-0.1c0.7-2.6-54.9-18.4-44.1-91.9
	"/>
<path class="st20" d="M251.3,900.6c-9.3-23-46.9-35.5-58-25c-6.6,6.2-0.4,17,7.5,51.5c14.7,64.2,7.8,94.4,28.5,104.5
	c1.9,0.9,10.5,5.1,16.5,1.5c13.2-8-7.1-41.6,0.5-91.5C249.8,918.5,256.1,912.6,251.3,900.6z"/>
<path class="st15" d="M245.3,1040.6c0,0,27,14,33,14c1.7-1.4,2-4,1.9-6.3c0,0,0-2.4-0.9-4.7c-1.5-4-13-9-13-9
	c-7.7-3.3-10.7-3.6-13-7c-1.4-2.1-2-6-2-6"/>
<path class="st15" d="M189.8,879.1c0.7,21.7-10.5,95.9-14,96c0,0,20.3,46.8,28,71l71,19c0.5-2,0.6-3.8,0.5-5.5
	c-0.9-16.9-24.3-26.9-27-28"/>
<path class="st15" d="M251.3,912.6c4,29-1,61-1,61c1.2,15.7,2.5,31.3,8,41c-1.7,6.5-7.1,8-15,6c-6.8-5.5-11.2-22.3-15-42
	c0,0-19.2-9.8-19.4-9.4c0,0,0.1,0.2,0.4,0.4"/>
<path class="st16" d="M204.3,980.6c7.1,15,13.3,30,18,45"/>
<path class="st20" d="M678.3,912.9c9.3-23,46.9-35.5,58-25c6.6,6.2,0.4,17-7.5,51.5c-14.7,64.2-7.8,94.4-28.5,104.5
	c-1.9,0.9-10.5,5.1-16.5,1.5c-13.2-8,7.1-41.6-0.5-91.5C679.8,930.8,673.5,924.9,678.3,912.9z"/>
<path class="st15" d="M684.3,1052.9c0,0-27,14-33,14c-1.7-1.4-2-4-1.9-6.3c0,0,0-2.4,0.9-4.7c1.5-4,13-9,13-9c7.7-3.3,10.7-3.6,13-7
	c1.5-2.1,2-6,2-6"/>
<path class="st15" d="M739.8,891.4c-0.7,21.7,10.5,95.9,14,96c0,0-20.3,46.8-28,71l-71,19c-0.5-2-0.6-3.8-0.5-5.5
	c0.9-16.9,24.3-26.9,27-28"/>
<path class="st15" d="M678.3,924.9c-4,29,1,61,1,61c-1.2,15.7-2.5,31.3-8,41c1.7,6.5,7.1,8,15,6c6.8-5.5,11.2-22.3,15-42
	c0,0,19.2-9.8,19.4-9.4c0,0-0.1,0.2-0.4,0.4"/>
<path class="st15" d="M725.3,992.9c-7.1,15-13.3,30-18,45"/>
<path class="st8" d="M519.1,458.9c40.5,9.2,81,18.4,121.4,27.6c7.8,21.5,11,43.3,13.7,65.1c13.9,110.5,61.5,208.2,82,297
	c11.6,29.3,19.3,58.7,18,88c-25.1,45.8-57.2,44.5-91,31c-29-130.7-58-261.3-87-392"/>
<path class="st8" d="M418.1,459.9c-35.6,7.5-71.2,15.1-106.9,22.7c-7.8,24.9-15.5,50.2-23,76c-17.6,60.5-33.2,119.5-47,177
	c-13.6,31.9-27,66.9-39.4,104.9c-8.3,25.7-15.5,50.4-21.6,74.1c3.4,6.8,14.9,27.7,40,39c15.2,6.8,29.1,7.3,37,7
	c36.3-132,72.7-264,109-396"/>
<g>
	<path class="st10" d="M335.5,516.6c16.3,41.3,6.3,236-3.1,301c-0.8,3.5,2.1,23,2.1,23s10.6,14.8,13.7,17c33.4,4.9,71.9,8.5,114.6,9
		c48.7,0.6,92.2-2.9,129.3-8c4.4-4.5,7-9,8.4-12c3.3,0.2-8.1-33-11.6-60c-1.5-11.2,7.9-18.1,8.4-22c1.5-11.2-0.3-36.7-0.6-86.5
		c-0.1-17.5-4-41.9-3.8-78c0.1-21.7,1.5-53.1,8.6-91.5"/>
	<path d="M335.6,516.5c4.3,11.9,5.3,24.6,6.5,37.1c5,75.4,0.7,151.2-5.4,226.4c-1.2,12.5-2.5,25.1-4.2,37.5
		c-0.4,3.8,0.3,7.7,0.6,11.5c0.4,3.8,1,7.9,1.5,11.4c2.1,3,4.3,5.9,6.5,8.8c2.2,2.8,4.5,6,7.1,8.2c40.3,5.8,81.1,9,121.9,8.9
		c40.6-0.1,82-2.9,121.8-7.9c3.5-3.5,6.2-7.8,8.5-12c0.3,0,0.4-0.5,0.5-0.9c-0.4-6.7-2.6-13.1-4-19.6c-1.7-6.9-3.4-13.9-4.9-20.8
		c-1.1-5.2-2.1-10.5-2.9-15.8c-1.1-5.3-0.3-10.9,2.5-15.5c1.6-3.2,4.4-5.7,5.5-9.1c0.9-7.1,0.6-14.2,0.5-21.3
		c-0.5-20.7-1-43.6-1.1-64.2c0-7.1-0.6-14.2-1.1-21.4c-4.7-49.7-3.4-100.1,5.9-149.2l0.2,0c-9.3,49.1-10.6,99.5-5.9,149.2
		c1.8,21.3,1,42.8,1.8,64.2c0.2,7.6,0.6,24.7,0.5,32.1c0,3.6-0.1,7.1-0.6,10.7c-0.2,0.9-0.7,1.7-1.1,2.5c-1.4,2.2-3.1,4.4-4.4,6.7
		c-2.8,4.6-3.6,10.1-2.5,15.4c0.8,5.3,1.8,10.5,2.9,15.8c2.2,10.5,4.9,20.8,7.4,31.2c0.6,3.3,1.8,6.6,1.4,9.9
		c-0.1,0.2-0.3,0.5-0.6,0.5l0.1-0.1c-2.1,4.4-5,8.5-8.4,12.1c-40.4,6-81.3,8.6-122.1,8.2c-40.8-0.4-81.5-3.4-121.9-9.2
		c-2.8-2.4-4.9-5.4-7.2-8.3c-2.2-2.9-4.5-5.8-6.6-8.8c-0.9-6.7-1.9-13.4-2.2-20.1c0-1,0-2,0.1-2.9c1.8-12.5,3.1-25,4.2-37.5
		c6.1-75.2,10.4-151,5.4-226.3c-1.2-12.5-2.2-25.2-6.5-37.1C335.3,516.6,335.6,516.5,335.6,516.5L335.6,516.5z"/>
</g>
<path class="st10" d="M403.3,516.6c-3.6-10.6-16.3-15.5-26-14c-16.1,2.6-27.1,23.7-21,35c6,11,28.5,12.7,40,2
	C401.5,534.7,406.3,525.5,403.3,516.6z"/>
<path class="st10" d="M590.8,508c-3.4-11-17.2-16.1-27-15.9c-22,0.4-41.5,27.7-36,40c5.7,12.8,40.8,15.3,56-1.1
	C584.6,530,594.2,519.3,590.8,508z"/>
<path class="st8" d="M584.3,858.6c4.6,14.2,9.1,29.1,13.3,44.7c5.8,21.3,10.7,41.8,14.7,61.3l-8,311c3,7.3,6,14.7,9,22
	c-3.1,12.8-5,18-6,19c0,0-0.2,0.2-0.3,0.4c-0.7,1.5,1.5,4.1,4.3,6.6c-1.3,4-2.7,8-4,12c-8,17.3-6,45.1-2,75c6.3,19.8,10.8,45.3,2,61
	c-13.5,24-64.4,23.8-88,13c-3-2.3-18-30-18-30s12-34,14-36c0,0-2-56-9-72c-1.9-1.9-8.1-7.8-7-14c0.6-3.5,4-9,4-9
	c-9.2-7.1-9.2-16-9-25c3-11,6-22,9-33c-20-118-37-243-37-243c-17.7-0.7-35.3-1.3-53-2"/>
<path class="st8" d="M352.3,857.6c-9,35.3-18,70.7-27,106c-0.5,103.5,5.7,207.3,10,311c-2,8.7-4,17.3-6,26c3.7,7.7,7.3,15.3,11,23
	l-8,43.7l-3,37.3l-16,23l7,26l-7,17c0,0,6.2,12.6,9,15c19.4,17.1,88.7-1.1,92.5-2.1c4.2-10.3,8.3-20.6,12.5-30.9
	c-2.8-11.7-5.7-23.4-8.5-35.1c-0.7-13,0.6-23.2,1.9-30c4.6-24.5,3.8-43.1,10.2-64.9c3.2-10.9,6.6-19.6,9-25.1c-3-11-9-33-9-33
	c8.8-40.4,16.8-83.9,23.4-130.3c5.5-39,9.4-76.3,12.1-111.6c21.3-0.8,32-1.5,32-2c0-0.7-24.7-1.1-74-1"/>
<g>
	<path class="st21" d="M376.6,914.8c-1,11.6-1.9,23.2-2.9,34.8c-0.1,1.6-0.3,3.2-0.9,4.6c-1.2,2.7-3.5,4.1-4,4.5
		c-3.5,2.4-16.8,15.2-37.5,35.8"/>
	<g>
		<path class="st21" d="M375.1,914.8c-0.7,9-1.5,17.9-2.2,26.8c-0.2,2.2-0.4,4.5-0.5,6.7c-0.2,2-0.2,4-1.2,5.8
			c-0.9,1.6-2.2,2.6-3.7,3.7c-2.4,1.8-4.7,4-6.9,6c-3.9,3.7-7.8,7.4-11.6,11.1c-6.3,6.1-12.5,12.3-18.7,18.5
			c-1.4,1.4,0.8,3.5,2.1,2.1c9.8-9.7,19.5-19.5,29.5-28.9c2.3-2.2,4.7-4.4,7.2-6.4c-0.3,0.2,0.1-0.1,0.2-0.2
			c0.2-0.1,0.4-0.3,0.6-0.4c1.1-0.8,2-1.6,2.9-2.7c2.5-3.3,2.4-7.5,2.8-11.4c0.8-10.3,1.7-20.5,2.5-30.8
			C378.2,912.9,375.2,912.9,375.1,914.8L375.1,914.8z"/>
	</g>
</g>
<g>
	<path class="st21" d="M553.9,905.9c0,8.2-0.1,16.3-0.1,24.5c0,1.3,0,2.8,0.9,3.9c0.7,0.8,1.8,1.2,2.8,1.6
		c12.2,4.1,24.3,8.2,36.4,12.3"/>
	<g>
		<path class="st21" d="M552.4,905.9c0,4.8,0,9.6-0.1,14.5c0,2.5,0,4.9,0,7.3c0,1.9-0.3,4.2,0.4,6c0.7,1.9,2.2,2.8,4,3.4
			c2.3,0.8,4.7,1.6,7,2.4c4.7,1.6,9.3,3.1,14,4.7c5.3,1.8,10.6,3.6,15.8,5.4c1.8,0.6,2.6-2.3,0.8-2.9c-8.8-3-17.5-5.9-26.3-8.9
			c-2.1-0.7-4.3-1.4-6.4-2.2c-1.1-0.4-2.2-0.8-3.3-1.1c-0.8-0.3-1.8-0.5-2.4-1.1c-1.2-1.2-0.7-4-0.7-5.5c0-2.2,0-4.4,0-6.6
			c0-5.2,0.1-10.3,0.1-15.4C555.4,904,552.4,904,552.4,905.9L552.4,905.9z"/>
	</g>
</g>
<path class="st22" d="M343.3,1032.6c-2.5,55.3,2.9,127.3,16,216"/>
<path class="st22" d="M362.3,1317.6c-6.3,42.7-9.6,85.3-10,128"/>
<g>
	<path class="st21" d="M587.3,1039.6c-0.7,92.7-1.3,185.3-2,278"/>
	<path class="st21" d="M587.3,1039.6c0,90.3-0.9,187.6-2,278h-0.1C585.5,1227.2,585.8,1129.7,587.3,1039.6L587.3,1039.6z"/>
</g>
<path class="st22" d="M591.3,1357.6c-3.4,36.3-7,69.9-11,97c-11.2,15.7-26,22.7-42,27"/>
<g>
	<path d="M582.7,778.8c-1.7,11.3-7.1,21.2-13.5,30.5c-2.2,3-4.6,5.9-7.5,8.5l-0.9-0.5c2.4-13.3,10.8-30,21-39
		C581.8,778.3,582.7,778.8,582.7,778.8L582.7,778.8z"/>
</g>
<g>
	<path class="st21" d="M388.3,562.6c16.1,82.1,33.1,158.7,53,219"/>
	<path class="st21" d="M388.4,562.6c14,69,28.5,138.1,48.8,205.5c1.4,4.5,2.8,9,4.2,13.5l-0.2,0.1c-12-35.6-21.5-72-30-108.7
		C403,636.5,394.6,599,388.4,562.6L388.4,562.6z"/>
</g>
<g>
	<path class="st21" d="M366.3,790.6c24.3,33.5,56.9,50.2,92,62"/>
	<path class="st21" d="M366.4,790.5c21.6,29.2,51.7,47.2,85.3,59.5l6.6,2.4l-0.1,0.2l-6.7-2.2c-24.4-8.4-48.1-20.5-66.9-38.5
		c-6.9-6.5-13-13.7-18.5-21.3L366.4,790.5L366.4,790.5z"/>
</g>
<line class="st23" x1="528.3" y1="576.6" x2="487.3" y2="680.6"/>
<path class="st3" d="M522.3,448.6"/>
<path class="st3" d="M522.3,439.6"/>
<path class="st3" d="M526.3,438.6"/>
<g>
	<path class="st21" d="M571,759.3c-14.6,6.3-29.8,11.4-45.2,15.3c3.1,8.6,4.7,17.7,4.8,26.8"/>
	<g>
		<path class="st21" d="M570.2,758c-14.5,6.3-29.5,11.3-44.9,15.1c-0.7,0.2-1.3,1.1-1,1.8c3,8.5,4.6,17.4,4.7,26.5c0,1.9,3,1.9,3,0
			c-0.1-9.3-1.7-18.5-4.8-27.2c-0.3,0.6-0.7,1.2-1,1.8c15.6-3.9,30.8-9,45.6-15.4C573.5,759.8,572,757.2,570.2,758L570.2,758z"/>
	</g>
</g>
<g>
	<path class="st21" d="M498.8,702.1c10,0,20,0,30,0"/>
	<g>
		<path class="st21" d="M498.8,703.6c10,0,20,0,30,0c1.9,0,1.9-3,0-3c-10,0-20,0-30,0C496.8,700.6,496.8,703.6,498.8,703.6
			L498.8,703.6z"/>
	</g>
</g>
<g>
	<path class="st21" d="M334,536.4c-7.8,28.4-12.9,57.5-15.2,86.8"/>
	<g>
		<path class="st21" d="M332.5,536c-6.1,22.2-10.5,44.9-13.3,67.8c-0.8,6.5-1.4,12.9-2,19.4c-0.1,1.9,2.9,1.9,3,0
			c1.8-22.8,5.3-45.4,10.5-67.7c1.4-6.3,3-12.5,4.7-18.7C335.9,534.9,333,534.1,332.5,536L332.5,536z"/>
	</g>
</g>
<g>
	<path class="st21" d="M251.1,743.6c-0.1,2.4,0.6,4.7,1.4,6.9c2.8,8.6,5.6,17.3,8.4,25.9"/>
	<g>
		<path class="st21" d="M249.6,743.6c0,2.8,0.8,5.4,1.6,8c0.9,2.8,1.8,5.7,2.7,8.5c1.8,5.6,3.6,11.2,5.4,16.7c0.6,1.8,3.5,1,2.9-0.8
			c-1.8-5.4-3.5-10.8-5.2-16.3c-0.9-2.7-1.7-5.3-2.6-8c-0.9-2.7-1.9-5.3-1.9-8.2C252.6,741.7,249.6,741.7,249.6,743.6L249.6,743.6z"
			/>
	</g>
</g>
<g>
	<path class="st21" d="M718.8,859.4c-14.5,12.7-29.3,25.8-38.2,43c-0.3,0.7-0.7,1.5-0.2,2.1c0.3,0.4,0.9,0.5,1.4,0.5
		c1.5,0.2,3.1,0.3,4.7,0.5"/>
	<g>
		<path class="st21" d="M717.7,858.3c-13.7,12-27.8,24.4-36.9,40.5c-1,1.8-3.2,4.6-1.6,6.6c0.7,0.9,1.7,1,2.8,1.1
			c1.5,0.2,3,0.3,4.4,0.4c1.9,0.2,1.9-2.8,0-3c-1.1-0.1-2.2-0.2-3.3-0.3c-0.4,0-1.2,0.1-1.5-0.2c0,0,0.3-0.6,0.5-0.9
			c1-1.8,2-3.6,3.1-5.3c2.1-3.4,4.5-6.7,7-9.8c5.2-6.3,11-12.1,17-17.6c3.5-3.2,7-6.3,10.5-9.4C721.3,859.2,719.2,857.1,717.7,858.3
			L717.7,858.3z"/>
	</g>
</g>
<g>
	<path class="st21" d="M629.4,511c-8,8.9-15.9,17.9-23.7,27.1"/>
	<g>
		<path class="st21" d="M628.3,510c-8,8.9-15.9,17.9-23.7,27.1c-1.2,1.5,0.9,3.6,2.1,2.1c7.7-9.2,15.6-18.2,23.7-27.1
			C631.7,510.6,629.6,508.5,628.3,510L628.3,510z"/>
	</g>
</g>
<g>
	<path class="st21" d="M259.1,797.1c-0.2,5.8,0.5,11.7,2.1,17.2c0.3,1.1,0.7,2.3,1.6,3c0.8,0.6,1.8,0.8,2.8,1
		c3.7,0.5,7.4,0.7,11.2,0.5"/>
	<g>
		<path class="st21" d="M257.6,797.1c-0.1,3.3,0.1,6.6,0.5,9.9c0.4,3,0.9,6.3,2.1,9.1c0.5,1.2,1.2,2.3,2.4,2.9
			c1.3,0.7,2.8,0.8,4.3,1c3.3,0.4,6.6,0.5,9.9,0.3c1.9-0.1,1.9-3.1,0-3c-2.9,0.1-5.8,0.1-8.7-0.2c-1.2-0.1-2.6-0.2-3.7-0.6
			c-1.1-0.4-1.4-1.4-1.7-2.4c-1.6-5.5-2.3-11.3-2.1-17C260.6,795.2,257.6,795.2,257.6,797.1L257.6,797.1z"/>
	</g>
</g>
<path class="st24" d="M623.9,153c-50.9-5.9-110.1-9.7-176-8.3c-55,1.2-105,5.8-149,11.9c-2.5,24.2-2.6,54.2,4,87.7
	c17.4,88.5,70.9,148,99.5,175.5c3.6,2.8,27,20.2,64,19.5c32.8-0.6,53.6-14.9,58-18.1c21-21.4,44-50,62.5-86.5
	c23.3-46.1,29.7-85.3,33-106.9C624.5,197.9,624.7,172.2,623.9,153z"/>
<path class="st10" d="M282.4,154.4c14.9,145.9,50.6,192.2,47,180c-6-20.2-27.5-104.7,12-148c36.8-40.4,118.1-56.6,179-37
	c17.1,5.5,45.6,14.6,65,41c35.7,48.6,14.9,119.6,18,118c10.1-5.2,40.4-30.1,28-160l0,0c-2.4-12.3-8-29.9-22-45
	c-9.3-10-20-16.4-26-20c0,0-11-6.6-23-11.1c-24.7-9.4-55.9-7.7-85-6.8c-71.2,2.1-85.1-2.1-110.7,9.1c-17,7.4-31.7,18.4-32.3,18.9
	c-13.8,10.4-23.5,21.2-30,29.6C295.7,133.5,289,144,282.4,154.4z"/>
<path class="st3" d="M630.1,72.9"/>
<path class="st25" d="M519.1,460.9c11.7,2.7,23.3,5.3,35,8c-11.7,19-23.3,38-35,57c-16.1,19.2-39.1,22.6-66,17c-16-0.6-30-9.7-43-23
	c-12.6-10.6-21.9-29.5-31-49c12.3-3,27-8,37-9c2,14.2,6.7,28.7,22,44c3.9,1.6,29.2,11.7,52-1c1.9-1.1,10.7-6.1,18.2-16.5
	C516.2,477.4,518.4,466.5,519.1,460.9z"/>
<rect x="374.1" y="842.9" class="st10" width="200" height="35"/>
<path class="st10" d="M354.1,480.9c-4.2-2.8-7.1-9-5-13c2.5-4.8,11.4-4.7,17-2c3.8,1.8,8.8,6.1,8,10
	C373.1,481.2,361.3,485.7,354.1,480.9z"/>
<g>
	<path d="M581.3,497.3c-16.5,13-32.7,26.6-48.3,40.8"/>
</g>
<g>
	<path class="st10" d="M372,506.5c4.2,6.9,9.5,13.1,15.5,18.5"/>
</g>
<path class="st10" d="M557.4,477.4h30v-8c-8.7-1-17.3-2-26-3C560,470.1,558.7,473.8,557.4,477.4z"/>
<path class="st26" d="M508.2,375.3l-82.9,1.5c-8,1.5,12,29.5,48,25.2c25-3,40.5-23.5,36.6-26.3C509.4,375.3,508.2,375.3,508.2,375.3
	z"/>
<path class="st10" d="M354.4,628.4h219v-140c0.1-2.2,0.5-18.2-12-29c-2.5-2.1-10.4-8.9-20-8c-15.7,1.5-16.3,21.4-39,35
	c-5.4,3.2-17.6,9.4-33,9c-14.5-0.4-25.1-6.5-36-13c-25-14.8-27.1-26.9-39-28c-8.9-0.8-22,4.7-40,34
	C354.4,535.1,354.4,581.8,354.4,628.4z"/>
<path class="st27" d="M345.4,350.4c3.7,9.3,39.3,97.1,82,129c6.9,5.1,19.7,14.7,38,16c0,0,17.4,1.2,37-9c29.3-15.2,60.3-67.3,79-140
	"/>
<path class="st28" d="M506.9,434.9c-22.3,24.5-73.8,24.9-94,2c-32.5-36.9,17.2-132.9,51-132C496.1,305.8,542.3,396.1,506.9,434.9z"
	/>
<g>
	<g>
		<path d="M508.7,452.7c7.5,15.2,20.2,26.8,32.1,38.5c2.9,2.8,5.7,5.6,8.4,8.6c1.3,1.4,2.6,2.9,3.8,4.3c0.6,0.7,1.2,1.5,1.8,2.2
			c1.2,1.5,0.1,0.1-0.1-0.2c0.4,0.6,0.9,1.1,1.3,1.7c2.5,3.5,4.7,7.1,6.7,10.9c1,1.8,1.8,3.7,2.7,5.5c0.2,0.4,0.8,1.9,0-0.1
			c0.2,0.4,0.3,0.8,0.5,1.2c0.5,1.2,1,2.5,1.4,3.7c1.4,4,2.6,8.2,3.6,12.3c0.5,2,0.9,4,1.3,6.1c0.2,1,0.4,2,0.5,3.1
			c0.1,0.6,0.2,1.2,0.3,1.8c-0.2-0.9-0.2-1.3,0-0.1c1,9,1.3,18,0.7,27c-0.1,2.4-0.3,4.7-0.6,7.1c-0.1,1.2-0.2,2.4-0.4,3.5
			c-0.1,0.7-0.2,1.3-0.2,2c-0.1,0.8-0.2,1.3,0,0.2c-0.7,5-1.6,10-2.6,15c-2,9.8-4.5,19.5-7.2,29.2c-5.4,19.2-11.7,38.1-14.8,57.8
			c-3.3,20.8-4.1,41.7-3.8,62.7c0.3,19.5,0.3,39.3,2.8,58.6c1.3,9.9,3.1,19.8,6.6,29.2c3.5,9.3,8.2,17.9,13.8,26.2
			c5.1,7.6,10.5,14.9,15.3,22.7c2.4,4,4.7,8.1,6.8,12.2c1,1.9,1.9,3.9,2.8,5.9c0.5,1,0.9,2,1.3,3c0.2,0.4,0.4,0.8,0.6,1.3
			c1.2,2.7-0.4-1.1,0.2,0.5c3.3,8.6,6.3,17.2,8.5,26.2c1.1,4.4,2,8.8,2.7,13.2c0.2,1.1,0.3,2.2,0.5,3.2c0.3,2.1,0.1,0.4,0,0
			c0.1,0.6,0.2,1.2,0.2,1.8c0.3,2.3,0.5,4.6,0.7,7c0.4,4.5,0.5,9,0.6,13.5c0,5.5,4.8,10.8,10.5,10.5c5.7-0.2,10.5-4.6,10.5-10.5
			c-0.3-38.3-12.2-75.8-33.7-107.4c-5.2-7.7-10.8-15.1-15.4-23.2c-1.1-1.9-2.1-3.8-3.1-5.8c-0.6-1.1-1.1-2.3-1.6-3.4
			c0-0.1-0.6-1.6-0.2-0.5c0.5,1.2-0.5-1.2-0.5-1.4c-1.7-4.5-3-9-4.1-13.7c-0.5-2.2-0.9-4.4-1.3-6.5c-0.2-1.1-0.4-2.2-0.5-3.3
			c-0.1-0.5-0.1-1-0.2-1.4c0.3,2.1,0-0.1-0.1-0.5c-0.6-4.8-1-9.6-1.2-14.4c-0.6-9.8-0.8-19.5-1.1-29.3c-0.6-20.4-0.7-40.8,1.5-61.1
			c0.2-1.4,0.3-2.7,0.5-4.1c0-0.1,0.2-1.8,0.1-0.7c-0.2,1.2,0.1-0.9,0.2-1.2c0.4-2.6,0.8-5.1,1.2-7.7c0.9-5,2-10,3.2-15
			c2.4-9.7,5.3-19.3,8.1-29c11.1-37.9,20.4-77.9,10.8-117.2c-4.4-18-13-34.4-25.4-48.2c-5.5-6.1-11.4-11.7-17.3-17.4
			c-3-2.9-5.9-5.8-8.7-8.9c-1.3-1.4-2.6-2.8-3.8-4.3c-0.6-0.7-1.2-1.5-1.8-2.2c1.6,1.9-0.4-0.6-0.8-1.1c-2.4-3.3-4.5-6.8-6.3-10.5
			c-2.4-5-9.8-6.7-14.4-3.8C507.4,441.6,506.1,447.5,508.7,452.7L508.7,452.7z"/>
	</g>
</g>
<g>
	<circle class="st29" cx="463.4" cy="418.4" r="61"/>
	<path d="M407.2,418.4c-2,32.2,23,61.3,56.1,60.4c23.6-0.1,45.7-16,52.9-38.5c14.5-45.1-28.6-85.7-72.6-69.5
		C423.7,377.8,408.1,396.8,407.2,418.4L407.2,418.4z M397.5,418.4c-2-37.4,27.5-71.5,65.9-70.9c38.1,0.2,69.1,32.8,66.4,70.9
		c-1.4,25.5-18.8,48.8-42.6,57.5C447.1,491.2,399.1,462.2,397.5,418.4L397.5,418.4z"/>
</g>
<circle class="st1" cx="463.9" cy="421.9" r="6"/>
<line class="st3" x1="429.8" y1="386.9" x2="450.9" y2="408"/>
<line class="st3" x1="447.4" y1="421.9" x2="412.4" y2="421.9"/>
<line class="st3" x1="464.9" y1="405.4" x2="464.9" y2="377.4"/>
<line class="st3" x1="464.9" y1="468.4" x2="464.9" y2="440.4"/>
<line class="st3" x1="430" y1="457.4" x2="451.1" y2="436.3"/>
<line class="st3" x1="478" y1="433.3" x2="499.1" y2="454.4"/>
<line class="st3" x1="478" y1="409.4" x2="499.1" y2="388.3"/>
<line class="st3" x1="516.4" y1="421.9" x2="481.4" y2="421.9"/>
<path class="st24" d="M589.9,196.9c-51.1-79.3-218.3-71.2-262,8c-44.9,81.3,54.7,211.6,70,207c3.9-1.2,0.9-10.7,6-31
	c7.9-31.7,32-76.5,58-76c29.6,0.6,51.5,59.7,55,69c9.6,25.8,6.9,37.8,12,39C546.8,417,642.7,279,589.9,196.9z"/>
<g>
	<path class="st17" d="M491.6,302.7c-2.4-4.1-2.1-8.2-1.9-11.5c0.1-1.5,0.7-11.2,6.8-16.9c11.6-10.9,45.5-10,57.9,5.4
		c5.6,6.9,7.7,17.8,1,26.1c-9.3,11.5-29,10.3-33.8,10C518.8,315.6,498.1,314.1,491.6,302.7z"/>
	<path class="st30" d="M559,307.4c0.4-2.5,2.7-19.7-10-31.1c-15.6-14.1-44.8-11.2-56,1.8c-2.9,3.4-4.3,7-5,10.1"/>
	<circle class="st1" cx="518.3" cy="290.2" r="12.2"/>
	<circle class="st17" cx="524" cy="286.5" r="4.8"/>
	<path class="st17" d="M429.1,301.3c2.4-4.1,2.1-8.2,1.9-11.5c-0.1-1.5-0.7-11.2-6.8-16.9c-11.6-10.9-45.5-10-57.9,5.4
		c-5.6,6.9-7.7,17.8-1,26.1c9.3,11.5,29,10.3,33.8,10C401.8,314.2,422.5,312.7,429.1,301.3z"/>
	<circle class="st1" cx="402.4" cy="288.8" r="12.2"/>
	<circle class="st17" cx="408.6" cy="285.1" r="4.8"/>
	<path class="st3" d="M368.5,307.5c3,1.5,28.6,13.8,50,1c5.3-3.1,9.2-7.2,12-11"/>
	<path class="st27" d="M418,251.4c-23.8-0.8-45.8,3.1-65,14"/>
	<path class="st27" d="M500,251.4c23.8-0.8,45.8,3.1,65,14"/>
	<path class="st30" d="M360.9,304.7c-0.4-2.5-2.7-19.7,10-31.1c15.6-14.1,44.8-11.2,56,1.8c2.9,3.4,4.3,7,5,10.1"/>
	<path class="st3" d="M552.3,309.4c-3,1.5-28.6,13.8-50,1c-5.3-3.1-9.2-7.2-12-11"/>
</g>
<path class="st31" d="M590.6,195.8c-50-77.7-214.4-75.8-261.9,7.9c-48.8,85.8,50.9,212.5,68.7,207.7c8.5-2.3-0.3-34.8,24-73
	c7.7-12.1,21.8-34.2,40-34c29.9,0.3,51.9,60.5,55,69c9.6,26.2,7,37.8,12,39C546.5,416.6,643.6,278.2,590.6,195.8z"/>
<path class="st32" d="M284.9,149.9c115.7-0.3,231.3-0.7,347-1"/>
<path class="st33" d="M314,192.4c51.6-1,103.2-2,154.8-3c48.1-1,96.2-2,144.3-3c5.4-12.5,10.8-25,16.2-37.5
	c-48.6-7-104.3-11.8-165.8-11.4c-61.5,0.4-117.1,5.8-165.6,13.4C303.3,164.8,308.7,178.6,314,192.4z"/>
<path class="st1" d="M360.9,892.9c-9.3-2-18.7-4-28-6c-9.6-133.7-2.1-272.7,13-414h32C351.8,622.6,340.9,765.1,360.9,892.9z"/>
<path class="st1" d="M570.9,882.9c10.7-2.7,21.3-5.3,32-8c8.4-140.7,4.6-269.7-3-395h-29C581.9,614.3,586.3,748.6,570.9,882.9z"/>
<g class="st34">
	<path class="st17" d="M474.3,579.7l0.8-3.4c0.8,0.3,1.7,0.4,2.6,0.4c1.1,0,1.8-0.2,2.2-0.7s0.6-1.3,0.6-2.6v-14.3
		c-1.3,0-3,0.1-4.9,0.4l-0.4-3.7c3.6-0.5,7.2-0.7,10.9-0.7c3.7,0,6.6,0.3,8.6,0.9s3.5,1.8,4.6,3.4s1.6,4.1,1.6,7.3v13.4h-4.5V568
		c0-2.4-0.2-4.2-0.6-5.3s-1.2-2-2.4-2.7s-3.3-1.1-6.1-1.1l-2.2,0V574c0,1.6-0.1,2.8-0.4,3.6s-0.9,1.5-1.8,2s-2.3,0.8-4.1,0.8
		C477.2,580.5,475.7,580.2,474.3,579.7z"/>
	<path class="st17" d="M509.9,565.8l-3.8-10.4h4.4l1.8,5.5c0.7-1.6,1.9-3,3.4-4.1s3.2-1.7,5-1.7c1.9,0,3.6,0.5,4.9,1.5
		s2.4,2.4,3,4.3s0.9,4.7,0.9,8.5v10.9h-12.8v-3.8h8.3v-7.3c0-2.8-0.1-4.8-0.3-6s-0.6-2.3-1.4-3.1s-1.7-1.2-2.8-1.2
		c-1.8,0-3.2,0.9-4.5,2.7s-2.3,4.9-3.1,9.4l-1.8,9.2h-4.5l2-9.7C508.9,569.7,509.3,568.1,509.9,565.8z"/>
	<path class="st17" d="M534,555.7c2.4-0.3,4.6-0.5,6.6-0.5c5,0,8.5,1,10.5,2.9s3,4.9,3,8.8v13.4h-4.5V568c0-2.3-0.2-4-0.7-5.1
		s-1.4-2.1-2.8-2.8s-3.3-1.1-5.8-1.1c-1.7,0-3.7,0.2-6,0.5L534,555.7z"/>
</g>
<g class="st34">
	<path class="st17" d="M439.4,619.9v-34.4h12.9c2.6,0,4.7,0.3,6.3,1s2.8,1.8,3.7,3.2s1.3,3,1.3,4.5c0,1.5-0.4,2.9-1.2,4.1
		s-2,2.3-3.6,3.1c2.1,0.6,3.7,1.6,4.8,3.1s1.7,3.2,1.7,5.2c0,1.6-0.3,3.1-1,4.5s-1.5,2.4-2.5,3.2s-2.3,1.3-3.8,1.7s-3.4,0.6-5.5,0.6
		H439.4z M444,600h7.4c2,0,3.5-0.1,4.3-0.4c1.2-0.3,2-0.9,2.6-1.7s0.9-1.8,0.9-3c0-1.1-0.3-2.1-0.8-3s-1.3-1.5-2.3-1.8
		s-2.8-0.5-5.2-0.5H444V600z M444,615.9h8.6c1.5,0,2.5-0.1,3.1-0.2c1-0.2,1.9-0.5,2.6-0.9s1.3-1.1,1.7-1.9s0.7-1.8,0.7-2.9
		c0-1.3-0.3-2.4-1-3.3s-1.6-1.6-2.7-2s-2.8-0.6-5-0.6H444V615.9z"/>
</g>
<g class="st34">
	<path class="st17" d="M489.5,595.1v34.4h-4.6v-34.4H489.5z"/>
	<path class="st17" d="M501.3,595.1v24.9h-4.6v-24.9H501.3z"/>
	<path class="st17" d="M520.1,603.9v7.6l2.3,8.4H518l-1.7-6.1c-1.9,0-3.5,1.2-4.8,3.5l-1.4,2.6h-4.6l2-3.8c1.2-2.3,2.5-3.8,4.1-4.5
		s2.9-1.1,4-1.1V604c0-1.3-0.1-2.4-0.3-3.1s-0.6-1.3-1.3-1.7s-1.6-0.6-2.7-0.6c-1,0-1.8,0.1-2.6,0.2l-0.3-3.6c1-0.3,2.3-0.5,3.8-0.5
		c2.1,0,3.8,0.4,4.9,1.2s1.9,1.8,2.3,2.9S520.1,601.7,520.1,603.9z"/>
	<path class="st17" d="M532.3,595.1v12.9h-4.6v-12.9H532.3z"/>
	<path class="st17" d="M541.7,605.4l-3.8-10.4h4.4l1.8,5.5c0.7-1.6,1.9-3,3.4-4.1s3.2-1.7,5-1.7c1.9,0,3.6,0.5,4.9,1.5
		s2.4,2.4,3,4.3s0.9,4.7,0.9,8.5v10.9h-12.8v-3.8h8.3v-7.3c0-2.8-0.1-4.8-0.3-6s-0.6-2.3-1.4-3.1s-1.7-1.2-2.8-1.2
		c-1.8,0-3.2,0.9-4.5,2.7s-2.3,4.9-3.1,9.4l-1.8,9.2h-4.5l2-9.7C540.7,609.3,541.1,607.7,541.7,605.4z"/>
</g>
</svg>
