<?xml version="1.0" encoding="utf-8"?>
<!-- Generator: Adobe Illustrator 28.3.0, SVG Export Plug-In . SVG Version: 6.00 Build 0)  -->
<svg version="1.1" id="Layer_1" xmlns="http://www.w3.org/2000/svg" xmlns:xlink="http://www.w3.org/1999/xlink" x="0px" y="0px"
	 viewBox="0 0 936.5 1778.5" style="enable-background:new 0 0 936.5 1778.5;" xml:space="preserve">
<style type="text/css">
	.st0{fill:#E1B350;}
	.st1{stroke:#000000;stroke-miterlimit:10;}
	.st2{fill:#F0FCFB;stroke:#000000;stroke-miterlimit:10;}
	.st3{fill:none;stroke:#000000;stroke-miterlimit:10;}
	.st4{fill:#C4C9D6;stroke:#000000;stroke-miterlimit:10;}
	.st5{fill:#3E505C;stroke:#000000;stroke-miterlimit:10;}
	.st6{fill:#8C9099;stroke:#000000;stroke-miterlimit:10;}
	.st7{fill:none;stroke:#000000;stroke-width:9;stroke-miterlimit:10;}
	.st8{fill:#B53A3E;stroke:#000000;stroke-miterlimit:10;}
	.st9{fill:#FFE3CB;stroke:#000000;stroke-miterlimit:10;}
	.st10{fill:#B53A3E;}
	.st11{fill:#FFB995;}
	.st12{fill:#332C26;}
	.st13{fill:#332C26;stroke:#000000;stroke-miterlimit:10;}
	.st14{fill:none;stroke:#FFB995;stroke-miterlimit:10;}
	.st15{fill:#080D1D;stroke:#FFFFFF;stroke-miterlimit:10;}
	.st16{fill:none;stroke:#FFFFFF;stroke-miterlimit:10;}
	.st17{fill:#FFFFFF;}
	.st18{fill:#503039;}
	.st19{fill:#FFB995;stroke:#000000;stroke-width:0.5;stroke-miterlimit:10;}
	.st20{fill:#080D1D;}
	.st21{fill:#841D33;}
	.st22{fill:#841D33;stroke:#841D33;stroke-miterlimit:10;}
	.st23{fill:none;stroke:#841D33;stroke-miterlimit:10;}
	.st24{fill:none;stroke:#000000;stroke-width:5;stroke-miterlimit:10;}
	.st25{stroke:#000000;stroke-width:5;stroke-miterlimit:10;}
	.st26{fill:none;stroke:#000000;stroke-width:4;stroke-miterlimit:10;}
	.st27{fill:none;stroke:#000000;stroke-width:3;stroke-miterlimit:10;}
	.st28{fill:#FFFFFF;stroke:#000000;stroke-miterlimit:10;}
	.st29{enable-background:new    ;}
	.st30{opacity:0.38;stroke:#000000;stroke-width:5;stroke-miterlimit:10;enable-background:new    ;}
</style>
<g>
	<path class="st0" d="M231.6,693.8c-0.4,153.8,31.6,186.9,42.9,197.1c6.1,5.5,34.9,31.5,77.1,31.8c43.8,0.3,73.8-27.3,79.9-32.9
		c15.3-14.1,40.1-44.5,42.1-194.1c1.7-129,1.7-197.3-45.4-233.6c-33.2-25.6-73.6-26.4-73.6-26.4c-29.8-0.6-53.9,10.3-66.1,18
		C232.2,489.2,232,579,231.6,693.8z"/>
</g>
<path class="st1" d="M234.9,801.5c2.5,13.9,7.2,32.3,16.8,52.3c7.3,15.3,15.6,27.6,22.9,37c10.7,8.1,35.8,24.8,71.7,27.8
	c10.8,0.9,39.3,3.2,66.3-11.8c53.1-29.6,54.9-101.4,54.9-105.8C395.7,789.4,317.5,791.1,234.9,801.5z M395.6,907.8h-82
	c-7.6-8.1-20.6-24.1-28-48c-8.6-27.5-5.3-50.9-3-62c18.9-1.6,38.7-2.8,59.5-3.3c29.2-0.7,56.8-0.2,82.5,1.3
	C428.5,832,431.1,868.2,395.6,907.8z"/>
<path class="st2" d="M394.6,907.8h-82c-7.6-8.1-20.6-24.1-28-48c-8.6-27.5-5.3-50.9-3-62c18.9-1.6,38.7-2.8,59.5-3.3
	c29.2-0.7,56.8-0.2,82.5,1.3C427.5,832,430.1,868.2,394.6,907.8z"/>
<path class="st3" d="M394.6,907.8h-82c-7.6-8.1-20.6-24.1-28-48c-8.6-27.5-5.3-50.9-3-62c18.9-1.6,38.7-2.8,59.5-3.3
	c29.2-0.7,56.8-0.2,82.5,1.3C427.5,832,430.1,868.2,394.6,907.8z"/>
<path class="st4" d="M466.5,801c-71.8-11.5-150.1-9.9-232.6,0.5c-5.6-37-1.4-75.4-4.3-112.7c25.7-9.6,67.9-21.8,121-21.3
	c53.3,0.4,95.4,13.3,121,23.3C473.5,732.7,471.6,769.8,466.5,801z"/>
<rect x="152.6" y="593.8" class="st5" width="335" height="41"/>
<path class="st4" d="M340.6,982.8h33c3-34,10-59,21-75c-27.3,0-54.7,0-82,0C321.9,932.8,346.6,953.8,340.6,982.8z"/>
<path class="st6" d="M333.6,971.8h51c-3.7-9.5-2.7-21.8,0-35c-18.3,0-36.7,0-55,0C335.1,948.5,339,960.1,333.6,971.8z"/>
<ellipse class="st5" cx="357.6" cy="982.8" rx="45" ry="13"/>
<path class="st3" d="M394.6,907.8h-82c-7.6-8.1-20.6-24.1-28-48c-8.6-27.5-5.3-50.9-3-62c18.9-1.6,38.7-2.8,59.5-3.3
	c29.2-0.7,56.8-0.2,82.5,1.3C427.5,832,430.1,868.2,394.6,907.8z"/>
<polyline class="st7" points="333.6,873.8 331.6,815.8 372.6,867.8 375.6,807.8 "/>
<path class="st3" d="M453.4,1228.8"/>
<path class="st8" d="M600.6,498.8c12.6-30.8,24.4-63.7,35.1-98.9c41.8-138.1,50.9-264.9,47.9-367.1c-44.1-14.2-109.2-29.7-189-30
	c-82.3-0.3-149.2,15.6-194,30c-6.6,68.6-7.7,167.6,20.2,281.7c18.1,73.8,43.7,135,67.8,182.3"/>
<path class="st9" d="M550.8,363.4c2.6,23.5-6,13-8,90c-2.9,9.3-9,25.8-22,43c-10,13.2-18.6,24.6-30,25c-18.9,0.7-33.6-29.6-40-43
	c-13.5-28-6-64-11-106C460.8,346.2,508.4,339.5,550.8,363.4z"/>
<g>
	<path class="st10" d="M605.4,866.5c2-4.3,6.3-15.2,1.4-22c-3.4-4.7-9.7-5.5-12-5.8c-54.9-6.9-12.3-12-90.7-13.6
		c-40.5-0.8-83.1-1-118.6,18.5c-1.8,1-3.6,2.1-4.7,3.8c-0.9,1.5-1.1,3.3-1.3,5c-3.1,30.5-3.3,61.3-0.4,91.9
		c0.8,8.4,1.8,16.8,4.8,24.7c4.3,11.3,12.5,20.7,20.5,29.8c3.9,4.5,8.1,9.1,13.5,11.5c6.3,2.7,13.5,2.1,20.4,2.4
		c10,0.4,19.8,2.8,29.8,3.8s20.5,0.6,29.3-4.2c5.9-3.2,10.6-8.2,15.2-13.1c13.2-14,26.4-28.1,38.1-43.4c4.2-5.5,8.2-11.1,12.9-16
		c5.4-5.6,11.8-10.2,16.8-16.2c6.2-7.4,10.1-16.4,13.9-25.3c3.6-8.5,8.1-20.3,11.8-35"/>
	<g>
		<path d="M606.7,867.2c3.9-8.7,7.1-21.7-3-27.5c-3.9-2.2-8.3-2.5-12.7-3.1c-4.1-0.6-8.2-1.2-12.3-2c-4.6-0.9-9.2-1.9-13.5-3.6
			c-0.3-0.1-0.7-0.2-1-0.4c-0.1-0.1-0.3-0.1-0.4-0.2c-0.1,0-0.8-0.3-0.3-0.1c-0.6-0.2-1.2-0.5-1.8-0.8c-1.2-0.5-2.4-1.1-3.7-1.5
			c-3.5-1.3-7.3-1.9-11-2.4c-8-1-16-1.4-24.1-1.7c-13.3-0.5-26.7-0.8-40-0.8c-13.4,0-26.9,0.4-40.3,1.9c-13.2,1.5-26.3,4.1-38.8,8.5
			c-6.2,2.2-12.2,4.8-18,7.9c-2.7,1.4-5.5,3-6.8,5.9c-1.4,3.1-1.3,7-1.6,10.3c-2.8,30.2-2.8,60.9,0.6,91.1c0.8,7.1,2,14.3,4.6,21
			c2.5,6.2,6,11.9,10.1,17.2c4,5.2,8.4,10.2,12.8,15.1c4.5,4.9,9.5,9.2,16.1,10.7c6.7,1.5,13.7,0.8,20.5,1.4
			c7.4,0.6,14.7,2.2,22.1,3.1c13.3,1.8,27.4,1.5,38.5-7c5.4-4.1,9.8-9.2,14.4-14.1c5.1-5.4,10.1-10.8,15.1-16.4
			c4.9-5.4,9.6-10.9,14.2-16.5c4.5-5.6,8.7-11.5,13.2-17.1c4.4-5.4,9.5-10,14.7-14.7c5-4.6,9.4-9.5,12.9-15.4
			c3.5-5.8,6.1-12,8.7-18.2c2.1-5,4.1-10.1,5.9-15.3c2.2-6.3,4.1-12.8,5.7-19.3c0.5-1.9-2.4-2.7-2.9-0.8c-3,11.8-6.8,23.3-11.5,34.4
			c-2.6,6-5.1,12.1-8.5,17.7c-3.4,5.8-7.8,10.6-12.7,15c-5,4.5-10,9-14.2,14.2c-4.4,5.4-8.4,11.1-12.8,16.5
			c-9,11.2-18.7,21.8-28.5,32.3c-4.5,4.8-8.9,10-14.1,14.2c-5.1,4.2-11,6.7-17.4,7.7c-13.8,2.2-27.6-1.9-41.3-3.3
			c-6.7-0.7-13.6,0.1-20.3-1.2c-6.5-1.3-11.3-5.3-15.6-10.1c-8.7-9.5-17.9-19.8-22.5-32c-2.5-6.6-3.6-13.6-4.3-20.6
			c-0.8-7.3-1.3-14.7-1.7-22c-0.8-14.8-0.9-29.7-0.3-44.5c0.3-7.4,0.8-14.8,1.4-22.2c0.2-1.8,0.3-3.6,0.5-5.4c0.2-1.6,0.2-3.4,1-4.9
			c1.3-2.7,4.9-4,7.4-5.3c11.5-5.8,23.8-9.8,36.4-12.3c25.6-5.2,52-4.9,78-4.4c11.2,0.2,22.4,0.5,33.6,1.2
			c5.4,0.4,10.4,0.8,15.6,1.9c1.4,0.3,2.9,0.7,4.2,1.2c0.6,0.2,1.2,0.4,1.8,0.7c0.4,0.2-0.3-0.1,0.1,0c0.1,0.1,0.3,0.1,0.4,0.2
			c0.3,0.1,0.5,0.2,0.8,0.3c2.9,1.3,5.9,2.4,8.9,3.3c6.1,1.7,12.3,2.7,18.6,3.7c4.2,0.6,8.4,0.7,12.3,2.2c2.4,0.8,4.6,2.3,5.9,4.5
			c1.3,2.2,1.7,4.7,1.7,7.2c-0.1,4.4-1.6,8.8-3.4,12.8C603.3,867.5,605.9,869,606.7,867.2L606.7,867.2z"/>
	</g>
</g>
<g>
	<path class="st11" d="M442.3,371.9c12-6.4,36.5-17.3,68.3-16.1c16.8,0.6,30.7,4.4,40.7,8.1c-2,15-4,30-6,45c0,0-23,18.8-36.3,23
		c-17.2,5.5-32.9,4.9-46.6,4.2c-8.4-0.4-15.4-1.4-20.1-2.2"/>
</g>
<path class="st12" d="M639.8,254.4c5.5-8.1,19.2-30.4,20-60.4c1.1-44.8-27-90.6-65.7-110.2C553.3,63.2,490.4,64,490.4,63.7
	c0-0.2,1.6-0.1,3.4-0.2c15.3-1.2,28.8-19.6,26.4-23.2c-1.5-2.1-9.8-0.6-41.4,16.2c-125-3.6-166.5,11.6-169.6,15.8
	c-1.1,1.5,127.8,11.9,128.1,12c0,0,0.2,0,0.4,0.1h0.1c-11.7-5.3-27.5-9.8-45-7c-37.1,5.9-68.2,42.2-77,91c1.4,26.9,8.7,77.9,47,115
	C439.4,357.8,589.6,327.6,639.8,254.4z"/>
<path class="st9" d="M337.8,245.4c-10.4,4.6-10.1,25.5-10,28c1.1,43.2,55.5,68.5,59,70c12,5.4,24.6,11,30,6c10.4-9.7-12.7-53-40-81
	C367.4,258.8,349.4,240.3,337.8,245.4z"/>
<path class="st9" d="M641.2,245.9c10.4,4.6,10.1,25.5,10,28c-1.1,43.2-55.5,68.5-59,70c-12,5.4-24.6,11-30,6
	c-10.4-9.7,12.7-53,40-81C611.6,259.2,629.6,240.8,641.2,245.9z"/>
<path class="st9" d="M363.8,230.4c3,48,28,110,28,110s9,45,99,83c15.4-5.6,63.5-25.5,97-78c21-54,31.3-104.7,30-121
	c-9-56.7-54.2-130.1-123-132C422.5,90.5,371.4,168.8,363.8,230.4z"/>
<path class="st13" d="M469.8,161.4c-7,66-29,96-29,96s56-29,45-39c1.8,1.5-14,45-32,55c4.7,6.2,28.7-0.8,44-13
	c43.3-34.5,25.7-117.1,23-129"/>
<path class="st13" d="M500.8,147.4c14,28.9,62.1,68.1,100.6,100.6c6.9,5.8-1.4,24.2-12.6,42.4c3.3,3.1,12.2-1.6,14.1-2.6
	c14.7-7.7,24.6-25.2,24.9-47.4"/>
<path class="st3" d="M363.8,280.3"/>
<path class="st12" d="M628.8,234.4c16.7-14.2-7.7-108.5-76-144c-65-33.8-154.9-6.6-191,51c-20.8,33.2-27.4,81.6-11,92
	c28.8,18.3,125-83.9,136.5-72.5c5,4.9-11.1,26.2-4.5,32.5c7,6.7,25.9-16.2,49.5-12.5c23.3,3.7,24.2,29.1,59,46
	C600.8,231.6,620.7,241.3,628.8,234.4z"/>
<g>
	<g>
		<path d="M470.1,160.6c0.8-3.6,1.2-7.4,1.1-11.1c0-1.1-1.3-2-2.3-1.3c-3.4,2.4-6.5,5.1-9.2,8.2c-0.5,0.6-0.6,1.5,0,2.1
			c0.5,0.5,1.6,0.6,2.1,0c2.5-2.9,5.4-5.6,8.6-7.8c-0.8-0.4-1.5-0.9-2.3-1.3c0,3.5-0.3,6.9-1,10.3c-0.2,0.8,0.2,1.6,1,1.9
			C469,161.8,470,161.4,470.1,160.6L470.1,160.6z"/>
	</g>
</g>
<g>
	<path d="M527.2,177.5c-0.7,0-0.8-7.3-3.1-21.8c-1.4-9.1-3-16.6-4.1-21.7c2.7,4.6,6.1,11.5,7.8,20.4
		C530,166.4,528.1,177.5,527.2,177.5z"/>
	<g>
		<path d="M527.2,176c0.4,0,1,0.5,1.1,0.6c0,0,0.1,0.4,0.1,0.1c0-0.2-0.1-0.4-0.1-0.6c-0.2-0.8-0.2-1.1-0.3-1.8
			c-0.3-2.3-0.5-4.7-0.8-7c-0.9-7.8-2.1-15.6-3.6-23.3c-0.7-3.5-1.4-7-2.2-10.5c-0.9,0.4-1.8,0.8-2.7,1.2c4.2,7,7,14.7,8,22.8
			c0.6,4.3,0.7,8.8,0.4,13.1c-0.1,1.4-0.2,2.9-0.5,4.2c-0.1,0.5-0.2,0.9-0.3,1.4c-0.1,0.3-0.1,0.1-0.1,0.2c0,0.1,0,0.1-0.1,0.1
			c0.2-0.3,0.4-0.4,0.7-0.5c-1.9,0.3-1.1,3.2,0.8,2.9c1.5-0.3,1.8-2.8,2-4c0.5-3,0.7-6.1,0.7-9.1c0-8-1.4-15.9-4.4-23.4
			c-1.3-3.2-2.8-6.3-4.6-9.3c-0.9-1.5-3.1-0.5-2.7,1.2c1.7,7.6,3.1,15.2,4.3,22.9c0.9,6.1,1.5,12.3,2.3,18.5c0.2,1.4,0.3,3.1,2,3.3
			C529.1,179.2,529.1,176.2,527.2,176z"/>
	</g>
</g>
<g>
	<g>
		<path d="M633.4,235.4c0-3.5,0-7,0-10.6c0-0.8-0.7-1.5-1.5-1.5s-1.5,0.7-1.5,1.5c0,3.5,0,7,0,10.6c0,0.8,0.7,1.5,1.5,1.5
			S633.4,236.2,633.4,235.4L633.4,235.4z"/>
	</g>
</g>
<g>
	<g>
		<path d="M402.6,80.6c9.1-0.7,18.2-0.3,27.1,1c1.9,0.3,2.7-2.6,0.8-2.9c-9.2-1.4-18.6-1.8-27.9-1.1
			C400.7,77.7,400.6,80.7,402.6,80.6L402.6,80.6z"/>
	</g>
</g>
<g>
	<g>
		<path d="M511.3,121.7c-1.7-3.5-4.8-6.1-8.4-7.3c-0.7-0.2-1.7,0.3-1.9,1.1c-0.2,0.8,0.2,1.6,1,1.8c0.2,0.1,0.4,0.1,0.6,0.2
			s0.2,0.1,0,0c0.1,0,0.2,0.1,0.3,0.1c0.4,0.2,0.8,0.4,1.1,0.6c0.4,0.2,0.7,0.4,1,0.7c0.1,0.1,0.1,0.1,0.2,0.2
			c0.3,0.2-0.2-0.2,0.1,0.1c0.2,0.1,0.3,0.3,0.5,0.4c0.3,0.3,0.6,0.6,0.9,0.8c0.1,0.2,0.3,0.3,0.4,0.5c0.1,0.1,0.1,0.2,0.2,0.2
			c0,0.1,0.3,0.3,0,0.1c0.5,0.6,1,1.4,1.3,2.2c0.3,0.7,1.4,0.9,2,0.5C511.5,123.3,511.7,122.5,511.3,121.7L511.3,121.7z"/>
	</g>
</g>
<g>
	<g>
		<path d="M593.5,121.4c8.2,14.5,15.5,29.6,21.8,45.1c0.7,1.8,3.6,1,2.9-0.8c-6.4-15.7-13.8-31-22.1-45.8
			C595.1,118.2,592.6,119.8,593.5,121.4L593.5,121.4z"/>
	</g>
</g>
<g>
	<g>
		<path d="M346.9,182.1c0.6-4,2.2-7.7,3.9-11.4c1.8-3.8,3.6-7.7,5.5-11.4c3.7-7.5,7.6-14.9,11.8-22.2c1-1.7-1.6-3.2-2.6-1.5
			c-4.2,7.4-8.2,15-12,22.7c-1.9,3.8-3.7,7.6-5.5,11.5c-1.7,3.7-3.4,7.6-4,11.7c-0.1,0.8,0.2,1.6,1,1.9
			C345.8,183.4,346.8,182.9,346.9,182.1L346.9,182.1z"/>
	</g>
</g>
<path class="st14" d="M339.8,259.4c-1.2,3.8-3.1,11.6-1,21c1.4,6.3,4,11.1,6,14"/>
<path class="st14" d="M640.9,258.3c1.2,3.8,3.1,11.6,1,21c-1.4,6.3-4,11.1-6,14"/>
<path class="st15" d="M440.8,1476.4c0,0-9.5,47.4-6,99c3.3,49,22.2,90.4,25,120c1.2,25.4,1.1,49-4,66c-8.1,5.1-32,18.7-64.5,16.4
	c-25.9-1.8-44.3-12.8-52.5-18.4c-1.6-6.4-3.5-16.1-4-28c-0.9-19.9,2.6-34.1,8-57c3-12.6,7.9-33.2,15-64c1.8-44.7,0.5-87.9-5-129
	C380.3,1487.4,409.9,1484.5,440.8,1476.4z"/>
<path class="st16" d="M445.8,1704.4c-26.1-29.4-87-20-97,1"/>
<path class="st16" d="M335.8,1742.4c41,18.4,82,18.9,123,1"/>
<path class="st15" d="M543.8,1476.4c1.5,21.2,2.6,43.3,3.3,66c0.6,18.8,0.8,37.2,0.7,55c-7.7,32.5-15.4,65-23.1,97.5
	c0,0-1.1,49,4,66c8.1,5.1,32,18.7,64.5,16.4c25.9-1.8,44.3-12.8,52.5-18.4c1.6-6.4,3.5-16.1,4-28c0.9-19.9-2.5-34.1-8-57
	c-3-12.6-7.8-33.2-15-64c-0.5-21.1-0.6-43.1-0.2-65.8c0.5-26.3,1.6-51.6,3.3-75.7c-6.5,4.5-20.7,13.1-40.8,15.3
	C567.5,1486,551,1479.7,543.8,1476.4z"/>
<path class="st16" d="M538.7,1704c26.1-29.4,87-20,97,1"/>
<path class="st16" d="M648.7,1742c-41,18.4-82,18.9-123,1"/>
<g>
	<path class="st17" d="M431.8,1617.6c2.4,16,5.4,31.9,9.1,47.7"/>
	<g>
		<path class="st18" d="M427.5,1618.8c2.4,16,5.4,31.9,9.1,47.7c0.5,2.3,3.3,3.9,5.5,3.1c2.4-0.8,3.7-3.1,3.1-5.5
			c-3.7-15.8-6.7-31.7-9.1-47.7c-0.4-2.3-3.4-3.8-5.5-3.1C428.1,1614.1,427.1,1616.3,427.5,1618.8L427.5,1618.8z"/>
	</g>
</g>
<g>
	<path class="st17" d="M617.9,1622.2c5.4,16.1,10.8,32.3,16.2,48.4"/>
	<g>
		<path class="st18" d="M613.6,1623.4c5.4,16.1,10.8,32.3,16.2,48.4c0.8,2.2,3.1,3.9,5.5,3.1c2.2-0.7,3.9-3.2,3.1-5.5
			c-5.4-16.1-10.8-32.3-16.2-48.4c-0.8-2.2-3.1-3.9-5.5-3.1C614.5,1618.6,612.8,1621.1,613.6,1623.4L613.6,1623.4z"/>
	</g>
</g>
<g>
	<path class="st17" d="M406.4,1696.9c6.8,2.2,13.2,5.5,19,9.7"/>
	<g>
		<path class="st18" d="M405.2,1701.3c0.9,0.3,1.7,0.6,2.6,0.9c0.4,0.2,0.9,0.3,1.3,0.5c0.2,0.1,1.6,0.7,0.5,0.2
			c1.6,0.6,3.1,1.4,4.6,2.2c3.1,1.6,6.1,3.5,9,5.5c1.9,1.4,5.1,0.4,6.2-1.6c1.2-2.3,0.4-4.7-1.6-6.2c-6.1-4.4-13-7.8-20.1-10.2
			c-2.2-0.7-5,0.9-5.5,3.1C401.5,1698.2,402.8,1700.5,405.2,1701.3L405.2,1701.3z"/>
	</g>
</g>
<g>
	<path class="st17" d="M594.3,1699.9c9.6,0.1,19.1,3.5,26.5,9.6"/>
	<g>
		<path class="st18" d="M594.3,1704.4c1.1,0,2.2,0.1,3.4,0.2c0.3,0,0.6,0.1,0.8,0.1c0.4,0,0.5,0.1,0.1,0c0.6,0.1,1.1,0.2,1.7,0.3
			c2.3,0.4,4.5,1,6.7,1.8c0.5,0.2,1,0.4,1.6,0.6c0.7,0.2-0.6-0.3,0.1,0c0.3,0.1,0.5,0.2,0.8,0.3c1,0.5,2,1,3,1.5
			c1,0.6,1.9,1.1,2.9,1.8c0.5,0.3,0.9,0.6,1.4,1c0.1,0,0.7,0.5,0.4,0.3c-0.4-0.3,0.6,0.4,0.5,0.4c1.8,1.5,4.6,1.9,6.4,0
			c1.5-1.6,2-4.8,0-6.4c-8.4-6.8-18.8-10.8-29.7-10.9c-2.4,0-4.6,2.1-4.5,4.5C589.9,1702.3,591.7,1704.4,594.3,1704.4L594.3,1704.4z
			"/>
	</g>
</g>
<line class="st14" x1="496.8" y1="275.4" x2="483.8" y2="283.4"/>
<line class="st14" x1="497.8" y1="280.4" x2="476.8" y2="293.4"/>
<line class="st14" x1="502.8" y1="283.4" x2="475.8" y2="300.4"/>
<line class="st14" x1="504.8" y1="289.4" x2="476.8" y2="306.4"/>
<line class="st14" x1="507.8" y1="293.4" x2="478.8" y2="310.4"/>
<path class="st19" d="M490.8,319.9c-0.2,4-0.3,8-0.5,12c-1.8-1.7-3.7-3.3-5.5-5"/>
<g>
	<g>
		<path class="st11" d="M396.7,309.2c-0.6,0.8-1.2,1.6-1.8,2.5c-0.1,0.2-0.2,0.4-0.2,0.6s0,0.4,0,0.6c0.1,0.4,0.4,0.7,0.7,0.9
			c0.4,0.2,0.8,0.3,1.2,0.1c0.1,0,0.2-0.1,0.4-0.1c0.2-0.1,0.4-0.3,0.5-0.5c0.6-0.8,1.2-1.6,1.8-2.5c0.1-0.2,0.2-0.4,0.2-0.6
			s0-0.4,0-0.6c-0.1-0.4-0.4-0.7-0.7-0.9c-0.4-0.2-0.8-0.3-1.2-0.1c-0.1,0-0.2,0.1-0.4,0.1C397,308.8,396.8,309,396.7,309.2
			L396.7,309.2z"/>
	</g>
</g>
<g>
	<g>
		<path class="st11" d="M400.6,312c-0.2,0.3-0.4,0.6-0.6,0.9c-0.1,0.2-0.2,0.4-0.2,0.6s0,0.4,0,0.6c0.1,0.2,0.1,0.4,0.3,0.5
			c0.1,0.2,0.2,0.3,0.4,0.4c0.1,0,0.2,0.1,0.4,0.1c0.3,0.1,0.5,0.1,0.8,0c0.1,0,0.2-0.1,0.4-0.1c0.2-0.1,0.4-0.3,0.5-0.5
			c0.2-0.3,0.4-0.6,0.6-0.9c0.1-0.2,0.2-0.4,0.2-0.6s0-0.4,0-0.6c-0.1-0.2-0.1-0.4-0.3-0.5c-0.1-0.2-0.2-0.3-0.4-0.4
			c-0.1,0-0.2-0.1-0.4-0.1c-0.3-0.1-0.5-0.1-0.8,0c-0.1,0-0.2,0.1-0.4,0.1C401,311.6,400.8,311.7,400.6,312L400.6,312z"/>
	</g>
</g>
<g>
	<g>
		<path class="st11" d="M570.1,311.8c0,0.5,0,1,0,1.5c0,0.2,0,0.4,0.1,0.6s0.2,0.4,0.3,0.5s0.3,0.2,0.5,0.3c0.2,0.1,0.4,0.1,0.6,0.1
			c0.1,0,0.3,0,0.4,0c0.2-0.1,0.5-0.2,0.7-0.4c0.3-0.3,0.4-0.6,0.4-1.1s0-1,0-1.5c0-0.2,0-0.4-0.1-0.6s-0.2-0.4-0.3-0.5
			s-0.3-0.2-0.5-0.3c-0.2-0.1-0.4-0.1-0.6-0.1c-0.1,0-0.3,0-0.4,0c-0.2,0.1-0.5,0.2-0.7,0.4C570.3,311,570.1,311.4,570.1,311.8
			L570.1,311.8z"/>
	</g>
</g>
<g>
	<g>
		<path class="st11" d="M574.7,310.6C574.7,310.6,574.7,310.7,574.7,310.6s-0.1-0.2-0.2-0.3c0.2,0.3,0.4,0.7,0.6,1
			c0-0.1-0.1-0.2-0.2-0.4c0.2,0.4,0.3,0.8,0.3,1.3c0-0.1,0-0.3,0-0.4c0,0.4,0,0.8,0,1.1c0,0.4,0.2,0.8,0.4,1.1
			c0.3,0.3,0.7,0.5,1.1,0.4c0.4,0,0.8-0.1,1.1-0.4c0.1-0.1,0.2-0.2,0.2-0.3c0.1-0.2,0.2-0.5,0.2-0.8c0.1-0.8,0-1.5-0.2-2.2
			c-0.1-0.4-0.3-0.8-0.5-1.2c-0.2-0.4-0.5-0.7-0.7-1.1c-0.2-0.3-0.7-0.4-1.1-0.4c-0.4,0-0.8,0.2-1.1,0.4c-0.3,0.3-0.5,0.7-0.4,1.1
			c0,0.1,0,0.3,0,0.4C574.4,310.2,574.5,310.4,574.7,310.6L574.7,310.6z"/>
	</g>
</g>
<path class="st13" d="M475.8,164.4c-12.8,8.9-94,84-101,114c-2,5,9.6,31.4,11,31c0.1,0,0.1-0.1,0.1-0.1c0.7-2.6-54.9-18.4-44.1-91.9
	"/>
<path class="st20" d="M276.8,893.4c-9.3-23-46.9-35.5-58-25c-6.6,6.2-0.4,17,7.5,51.5c14.7,64.2,7.8,94.4,28.5,104.5
	c1.9,0.9,10.5,5.1,16.5,1.5c13.1-8-7.1-41.6,0.5-91.5C275.3,911.3,281.6,905.4,276.8,893.4z"/>
<path class="st15" d="M270.8,1033.4c0,0,27,14,33,14c1.7-1.4,2-4,1.9-6.3c0,0,0-2.4-0.9-4.7c-1.6-4-13-9-13-9
	c-7.7-3.3-10.7-3.6-13-7c-1.5-2.1-2-6-2-6"/>
<path class="st15" d="M215.3,871.9c0.7,21.7-10.5,95.9-14,96c0,0,20.3,46.8,28,71l71,19c0.5-2,0.6-3.8,0.5-5.5
	c-0.9-16.9-24.3-26.9-27-28"/>
<path class="st15" d="M276.8,905.4c4,29-1,61-1,61c1.2,15.7,2.5,31.3,8,41c-1.7,6.5-7.1,8-15,6c-6.8-5.5-11.2-22.3-15-42
	c0,0-19.2-9.8-19.4-9.4c0,0,0.1,0.2,0.4,0.4"/>
<path class="st16" d="M229.8,973.4c7.1,15,13.3,30,18,45"/>
<path class="st20" d="M703.8,905.8c9.3-23,46.9-35.5,58-25c6.6,6.2,0.4,17-7.5,51.5c-14.7,64.2-7.8,94.4-28.5,104.5
	c-1.9,0.9-10.5,5.1-16.5,1.5c-13.2-8,7.1-41.6-0.5-91.5C705.2,923.7,698.9,917.8,703.8,905.8z"/>
<path class="st15" d="M709.8,1045.8c0,0-27,14-33,14c-1.7-1.4-2-4-1.9-6.3c0,0,0-2.4,0.9-4.7c1.5-4,13-9,13-9c7.7-3.3,10.7-3.6,13-7
	c1.5-2.1,2-6,2-6"/>
<path class="st15" d="M765.3,884.3c-0.7,21.7,10.5,95.9,14,96c0,0-20.3,46.8-28,71l-71,19c-0.5-2-0.6-3.8-0.5-5.5
	c0.9-16.9,24.3-26.9,27-28"/>
<path class="st15" d="M703.8,917.8c-4,29,1,61,1,61c-1.2,15.7-2.5,31.3-8,41c1.7,6.5,7.1,8,15,6c6.8-5.5,11.2-22.3,15-42
	c0,0,19.2-9.8,19.4-9.4c0,0-0.1,0.2-0.4,0.4"/>
<path class="st15" d="M750.8,985.8c-7.1,15-13.3,30-18,45"/>
<path class="st8" d="M544.6,451.8c40.5,9.2,81,18.4,121.4,27.6c7.8,21.5,11,43.3,13.7,65c13.9,110.5,61.5,208.2,82,297
	c11.6,29.3,19.3,58.7,18,88c-25.1,45.8-57.2,44.5-91,31c-29-130.7-58-261.3-87-392"/>
<path class="st8" d="M443.6,452.8c-35.6,7.5-71.2,15.1-106.9,22.7c-7.8,24.9-15.5,50.2-23,76c-17.6,60.5-33.2,119.5-47,177
	c-13.7,31.9-27,66.9-39.4,104.9c-8.3,25.7-15.5,50.4-21.6,74.1c3.4,6.8,14.9,27.7,40,39c15.2,6.8,29.1,7.3,37,7
	c36.3-132,72.7-264,109-396"/>
<g>
	<path class="st10" d="M358,509.4c16.5,41.3,6.4,236-3.2,301c-0.8,3.5,2.1,23,2.1,23s10.8,14.8,13.8,17c33.8,4.9,72.8,8.5,116,9
		c49.3,0.6,93.4-2.9,130.9-8c4.4-4.5,7-9,8.5-12c3.3,0.2-8.2-33-11.7-60c-1.5-11.2,8-18.1,8.5-22c1.6-11.2-0.3-36.7-0.6-86.5
		c-0.1-17.5-4-41.9-3.8-78c0.1-21.7,1.5-53.1,8.7-91.5"/>
	<path d="M358.1,509.4c4.3,11.9,5.4,24.6,6.6,37.1c5,75.4,0.7,151.2-5.5,226.4c-1.2,12.5-2.5,25.1-4.3,37.5
		c-0.4,3.8,0.3,7.7,0.6,11.5c0.4,3.8,1,7.9,1.5,11.4c2.2,3,4.4,5.9,6.6,8.8c2.2,2.8,4.7,6,7.1,8.2c40.8,5.8,82.1,9,123.4,8.9
		c41.1-0.1,82.9-2.9,123.3-7.9c3.5-3.5,6.3-7.8,8.6-12c0.3,0,0.4-0.5,0.5-0.9c-0.4-6.7-2.6-13.1-4.1-19.6
		c-1.7-6.9-3.4-13.9-4.9-20.8c-1.1-5.2-2.1-10.5-2.9-15.8c-1.2-5.3-0.3-10.9,2.5-15.5c1.6-3.1,4.4-5.7,5.6-9
		c0.5-3.5,0.6-7.1,0.6-10.7c0.2-7.3-0.4-24.6-0.5-32.1c-0.8-21.4,0-42.8-1.8-64.2c-4.8-49.7-3.4-100.1,6-149.2h0.2
		c-9.4,49.1-10.7,99.5-6,149.2c1.8,21.3,1,42.8,1.8,64.2c0.2,7.6,0.6,24.7,0.5,32.1c0,3.6-0.1,7.1-0.6,10.7
		c-0.2,0.9-0.7,1.7-1.1,2.5c-1.5,2.2-3.1,4.3-4.4,6.7c-2.9,4.6-3.6,10.1-2.5,15.4c0.8,5.3,1.8,10.5,2.9,15.8
		c2.2,10.5,5,20.8,7.5,31.2c0.6,3.3,1.8,6.6,1.4,9.9c-0.1,0.2-0.3,0.5-0.6,0.5l0.1-0.1c-2.2,4.4-5,8.5-8.5,12.1
		c-40.9,6-82.2,8.6-123.6,8.2c-41.3-0.4-82.5-3.4-123.4-9.2c-2.9-2.4-5-5.4-7.3-8.3c-2.2-2.9-4.5-5.8-6.6-8.8
		c-0.9-6.7-1.9-13.4-2.2-20.1c0-1,0-2,0.1-2.9c1.8-12.5,3.1-25,4.3-37.5c6.2-75.2,10.5-151,5.5-226.4c-1.2-12.5-2.3-25.2-6.6-37
		C357.8,509.5,358.1,509.4,358.1,509.4L358.1,509.4z"/>
</g>
<path class="st10" d="M428.8,509.4c-3.6-10.6-16.3-15.5-26-14c-16.1,2.6-27.1,23.7-21,35c6,11,28.5,12.7,40,2
	C427,527.5,431.8,518.4,428.8,509.4z"/>
<path class="st10" d="M616.2,500.8c-3.4-11-17.2-16.1-27-15.9c-22,0.4-41.5,27.7-36,40c5.7,12.8,40.8,15.3,56-1.1
	C610.1,522.9,619.7,512.2,616.2,500.8z"/>
<path class="st8" d="M609.8,851.4c4.6,14.2,9.1,29.1,13.3,44.7c5.8,21.3,10.6,41.8,14.7,61.3l-8,311c3,7.3,6,14.7,9,22
	c-3.1,12.8-5,18-6,19c0,0-0.2,0.2-0.3,0.4c-0.7,1.5,1.5,4.1,4.3,6.6c-1.3,4-2.7,8-4,12c-8,17.3-6,45.1-2,75c6.3,19.8,10.8,45.3,2,61
	c-13.5,24-64.4,23.8-88,13c-3-2.3-18-30-18-30s12-34,14-36c0,0-2-56-9-72c-1.9-1.9-8.1-7.8-7-14c0.6-3.5,4-9,4-9
	c-9.2-7.1-9.2-16-9-25c3-11,6-22,9-33c-20-118-37-243-37-243c-17.7-0.7-35.3-1.3-53-2"/>
<path class="st8" d="M377.8,850.4c-9,35.3-18,70.7-27,106c-0.5,103.5,5.7,207.3,10,311c-2,8.7-4,17.3-6,26c3.7,7.7,7.3,15.3,11,23
	l-8,43.7l-3,37.3l-16,23l7,26l-7,17c0,0,6.2,12.6,9,15c19.4,17.1,88.7-1.1,92.5-2.1c4.2-10.3,8.3-20.6,12.5-30.9
	c-2.8-11.7-5.7-23.4-8.5-35.1c-0.7-13,0.6-23.2,1.9-30c4.6-24.5,3.8-43.1,10.2-64.9c3.2-10.9,6.6-19.6,9-25.1c-3-11-9-33-9-33
	c8.8-40.4,16.8-83.9,23.4-130.3c5.5-39,9.4-76.3,12.1-111.6c21.3-0.8,32-1.5,32-2c0-0.7-24.7-1.1-74-1"/>
<g>
	<path class="st21" d="M402,907.7c-0.9,11.6-1.9,23.2-2.9,34.8c-0.1,1.6-0.3,3.2-0.9,4.6c-1.2,2.7-3.5,4.1-4,4.5
		c-3.5,2.4-16.8,15.2-37.5,35.8"/>
	<g>
		<path class="st21" d="M400.5,907.7c-0.7,9-1.5,17.9-2.2,26.8c-0.2,2.2-0.4,4.5-0.6,6.7c-0.2,2-0.2,4-1.2,5.8
			c-0.9,1.6-2.2,2.6-3.7,3.7c-2.4,1.8-4.7,4-6.9,6c-3.9,3.7-7.8,7.4-11.6,11.1c-6.3,6.1-12.5,12.3-18.7,18.5
			c-1.4,1.4,0.8,3.5,2.1,2.1c9.8-9.7,19.5-19.5,29.6-28.9c2.3-2.2,4.7-4.4,7.2-6.4c-0.3,0.2,0.1-0.1,0.2-0.2
			c0.2-0.1,0.4-0.3,0.6-0.4c1.1-0.8,2-1.6,2.9-2.7c2.5-3.3,2.4-7.5,2.8-11.4c0.8-10.3,1.7-20.5,2.5-30.8
			C403.7,905.8,400.7,905.8,400.5,907.7L400.5,907.7z"/>
	</g>
</g>
<g>
	<path class="st21" d="M579.4,898.8c0,8.2-0.1,16.3-0.1,24.5c0,1.3,0,2.8,0.9,3.9c0.7,0.8,1.8,1.2,2.8,1.6
		c12.2,4.1,24.3,8.2,36.4,12.3"/>
	<g>
		<path class="st21" d="M577.9,898.8c0,4.8,0,9.6-0.1,14.5c0,2.5,0,4.9,0,7.3c0,1.9-0.3,4.2,0.4,6c0.7,1.9,2.2,2.8,4,3.4
			c2.3,0.8,4.7,1.6,7,2.4c4.6,1.6,9.3,3.1,14,4.7c5.3,1.8,10.6,3.6,15.9,5.4c1.8,0.6,2.6-2.3,0.8-2.9c-8.8-3-17.5-5.9-26.3-8.9
			c-2.1-0.7-4.3-1.4-6.4-2.2c-1.1-0.4-2.2-0.8-3.3-1.1c-0.8-0.3-1.8-0.5-2.4-1.1c-1.2-1.2-0.7-4-0.7-5.5c0-2.2,0-4.4,0-6.6
			c0-5.2,0.1-10.3,0.1-15.4C580.9,896.8,577.9,896.8,577.9,898.8L577.9,898.8z"/>
	</g>
</g>
<path class="st22" d="M368.8,1025.4c-2.5,55.3,2.9,127.3,16,216"/>
<path class="st22" d="M387.8,1310.4c-6.3,42.7-9.6,85.3-10,128"/>
<g>
	<path class="st21" d="M612.8,1032.4c-0.7,92.7-1.3,185.3-2,278"/>
	<path class="st21" d="M612.8,1032.4c0,90.3-0.9,187.6-2,278h-0.1C611,1220.1,611.2,1122.5,612.8,1032.4L612.8,1032.4z"/>
</g>
<path class="st22" d="M616.8,1350.4c-3.4,36.3-7,69.9-11,97c-11.2,15.7-26,22.7-42,27"/>
<g>
	<path d="M608.2,771.7c-1.7,11.3-7.1,21.2-13.5,30.5c-2.2,3-4.6,5.9-7.5,8.5l-0.9-0.5c2.4-13.3,10.8-30,21-39L608.2,771.7
		L608.2,771.7z"/>
</g>
<g>
	<path class="st21" d="M413.8,555.4c16.1,82.1,33.1,158.7,53,219"/>
	<path class="st21" d="M413.9,555.4c14,69,28.5,138.1,48.8,205.5c1.4,4.5,2.8,9,4.2,13.5l-0.2,0.1c-12-35.6-21.5-72-30-108.7
		C428.5,629.3,420,591.9,413.9,555.4L413.9,555.4z"/>
</g>
<g>
	<path class="st21" d="M391.8,783.4c24.3,33.5,56.9,50.2,92,62"/>
	<path class="st21" d="M391.9,783.4c21.6,29.2,51.7,47.2,85.3,59.5l6.6,2.4l-0.1,0.2l-6.7-2.2c-24.4-8.4-48.1-20.5-66.9-38.5
		c-6.9-6.5-13-13.7-18.5-21.3L391.9,783.4L391.9,783.4z"/>
</g>
<line class="st23" x1="553.8" y1="569.4" x2="512.8" y2="673.4"/>
<path class="st3" d="M195.3-42.1L195.3-42.1L195.3-42.1z"/>
<path class="st3" d="M547.8,441.4"/>
<path class="st3" d="M547.8,432.4"/>
<path class="st3" d="M551.8,431.4"/>
<g>
	<path class="st21" d="M596.5,752.2c-14.6,6.3-29.8,11.4-45.2,15.3c3.1,8.6,4.7,17.7,4.8,26.8"/>
	<g>
		<path class="st21" d="M595.7,750.9c-14.5,6.3-29.5,11.3-44.9,15.1c-0.7,0.2-1.3,1.1-1,1.8c3,8.5,4.6,17.4,4.7,26.5
			c0,1.9,3,1.9,3,0c-0.1-9.3-1.7-18.5-4.8-27.2c-0.3,0.6-0.7,1.2-1,1.8c15.6-3.9,30.8-9,45.6-15.4
			C599,752.7,597.5,750.1,595.7,750.9L595.7,750.9z"/>
	</g>
</g>
<g>
	<path class="st21" d="M524.2,694.9c10,0,20,0,30,0"/>
	<g>
		<path class="st21" d="M524.2,696.4c10,0,20,0,30,0c1.9,0,1.9-3,0-3c-10,0-20,0-30,0C522.3,693.4,522.3,696.4,524.2,696.4
			L524.2,696.4z"/>
	</g>
</g>
<g>
	<path class="st21" d="M356.5,532.2c-7.8,28.4-12.9,57.5-15.2,86.8"/>
	<g>
		<path class="st21" d="M355,531.8c-6.1,22.2-10.5,44.9-13.3,67.8c-0.8,6.5-1.4,12.9-2,19.4c-0.1,1.9,2.9,1.9,3,0
			c1.8-22.8,5.3-45.4,10.5-67.7c1.4-6.3,3-12.5,4.7-18.7C358.4,530.8,355.5,530,355,531.8L355,531.8z"/>
	</g>
</g>
<g>
	<path class="st21" d="M276.6,736.5c-0.1,2.4,0.6,4.7,1.4,6.9c2.8,8.6,5.6,17.3,8.4,25.9"/>
	<g>
		<path class="st21" d="M275.1,736.5c0,2.8,0.8,5.4,1.6,8c0.9,2.8,1.8,5.7,2.7,8.5c1.8,5.6,3.6,11.2,5.4,16.7c0.6,1.8,3.5,1,2.9-0.8
			c-1.8-5.4-3.5-10.8-5.2-16.3c-0.9-2.7-1.7-5.3-2.6-8s-1.9-5.3-1.8-8.2C278.1,734.5,275.1,734.5,275.1,736.5L275.1,736.5z"/>
	</g>
</g>
<g>
	<path class="st21" d="M744.3,852.3c-14.5,12.7-29.3,25.8-38.2,43c-0.3,0.7-0.7,1.5-0.2,2.1c0.3,0.4,0.9,0.5,1.4,0.5
		c1.5,0.2,3.1,0.3,4.7,0.5"/>
	<g>
		<path class="st21" d="M743.2,851.2c-13.7,12-27.8,24.4-36.9,40.5c-1,1.8-3.2,4.6-1.6,6.6c0.7,0.9,1.7,1,2.8,1.1
			c1.5,0.2,3,0.3,4.4,0.4c1.9,0.2,1.9-2.8,0-3c-1.1-0.1-2.2-0.2-3.3-0.3c-0.4,0-1.2,0.1-1.5-0.2c0,0,0.3-0.6,0.5-0.9
			c1-1.8,2-3.6,3.1-5.3c2.1-3.4,4.5-6.7,7-9.8c5.2-6.3,11-12.1,17-17.6c3.5-3.2,7-6.3,10.5-9.4C746.8,852,744.6,849.9,743.2,851.2
			L743.2,851.2z"/>
	</g>
</g>
<g>
	<path class="st21" d="M654.8,503.9c-8,8.9-15.9,17.9-23.6,27.1"/>
	<g>
		<path class="st21" d="M653.8,502.8c-8,8.9-15.9,17.9-23.6,27.1c-1.2,1.5,0.9,3.6,2.1,2.1c7.7-9.2,15.6-18.2,23.6-27.1
			C657.2,503.5,655.1,501.4,653.8,502.8L653.8,502.8z"/>
	</g>
</g>
<g>
	<path class="st21" d="M284.5,790c-0.2,5.8,0.5,11.7,2.1,17.2c0.3,1.1,0.7,2.3,1.6,3c0.8,0.6,1.8,0.8,2.8,1
		c3.7,0.5,7.4,0.7,11.2,0.5"/>
	<g>
		<path class="st21" d="M283,790c-0.1,3.3,0.1,6.6,0.5,9.9c0.4,3,0.9,6.3,2.1,9.1c0.5,1.2,1.2,2.3,2.4,2.9c1.3,0.7,2.8,0.8,4.3,1
			c3.3,0.4,6.6,0.5,9.9,0.3c1.9-0.1,1.9-3.1,0-3c-2.9,0.1-5.8,0.1-8.7-0.2c-1.2-0.1-2.6-0.2-3.7-0.6c-1.1-0.4-1.4-1.4-1.7-2.4
			c-1.6-5.5-2.3-11.3-2.1-17C286.1,788,283.1,788,283,790L283,790z"/>
	</g>
</g>
<path class="st24" d="M665.6,70.8c-50.1,11.1-113.5,20.6-187,21c-64.9,0.4-121.7-6.4-168-15c-3.7,48.9-3.3,115.3,13.3,191.2
	c24.6,112.8,73.6,195.4,108,244c3.6,3.9,27,27.9,64,27c32.8-0.8,53.6-20.6,58-25c36.4-60.2,82.5-154.3,102.7-276.9
	C666.9,174.1,668.1,117.6,665.6,70.8z"/>
<path class="st10" d="M307.1,75.8c65.2,10.9,143.8,17.3,232,10.5c28.9-2.2,56.3-5.7,82-10c-3.7-12-7.3-24-11-36
	c-30.2-1.9-61.2-3.2-93-4c-74-1.8-144.1-0.1-210,4C307.1,52.1,307.1,64,307.1,75.8z"/>
<path class="st3" d="M660.6,44.8c-119.6,25.5-235.2,21.1-348-5"/>
<path class="st3" d="M655.6,65.8"/>
<path class="st25" d="M544.6,453.8c11.7,2.7,23.3,5.3,35,8c-11.7,19-23.3,38-35,57c-16.1,19.2-39.1,22.6-66,17c-16-0.6-30-9.7-43-23
	c-12.6-10.6-21.9-29.5-31-49c12.3-3,27-8,37-9c2,14.2,6.7,28.7,22,44c3.9,1.6,29.2,11.7,52-1c1.9-1.1,10.7-6.1,18.2-16.5
	C541.7,470.3,543.9,459.4,544.6,453.8z"/>
<rect x="399.6" y="835.8" class="st10" width="200" height="35"/>
<g>
	<g>
		<path class="st10" d="M601.8,476.6c5.1-6.2,8.7-13.3,11.5-20.8c-1-0.1-2-0.3-3-0.4c0.5,4.9-0.8,9.9-4.1,13.7
			c0.8,0.5,1.7,1,2.5,1.5c0.3-2.2,0.7-4.4,1-6.6c-1,0-1.9,0-2.9,0c0.9,5.5,1.1,11.1,0.7,16.7c1,0,2,0,3,0c-0.3-3.6-0.7-7.3-1-10.9
			c-0.2-2.4-0.1-7.1-3.9-6.3c-1.4,0.3-2.4,1.3-3.4,2.2c-1.3,1.2-2.6,2.4-3.9,3.6c-2.7,2.5-5.4,5.1-8,7.7c0.8,0.5,1.7,1,2.5,1.5
			c1.1-3.1,2.3-6.2,3.4-9.4c0.6-1.6,1.1-3.1,1.7-4.7c0.3-0.8,0.6-1.6,0.9-2.3c0.1-0.4,0.6-0.9,0-0.9c-0.5,0-0.2,0.1,0,0.5
			c0.6,1.2,0.7,3.1,0.8,4.4c0.2,1.5,0.2,3,0.3,4.5c0,3.3-0.3,6.5-0.9,9.7c1,0.1,2,0.3,3,0.4c0.2-5,0.4-10.1,0.6-15.1
			c0.1-1.6-2.7-2.1-3-0.4c-0.5,3.5-1.5,6.9-2.8,10.1c-0.6,1.4,1.1,3.2,2.4,1.8c1.7-1.8,2.7-4,3.2-6.4c0.3-1.2,0.5-2.4,0.6-3.7
			c0.1-1.2,0.5-2.5,0-3.6c-0.7-1.9-3-2.2-4.8-1.6c-2.3,0.8-3.8,3.1-4.7,5.3c-0.4,1.1,0.8,2.1,1.9,1.9c3.7-1,7.2-2.6,10.5-4.6
			c0.7-0.5,0.9-1.3,0.5-2c-1.1-2.5-4.6-1.5-6.6-1.1c-3.2,0.5-6.4,1-9.5,1.5c0.4,0.9,0.8,1.8,1.2,2.7c1.9-1.4,3.7-2.8,5.6-4.2
			c1.3-0.9,0.6-3.3-1.2-2.7c-2.6,0.9-5.1,2-7.5,3.5c-1.4,0.9-0.5,3.3,1.2,2.7c1.5-0.5,3-1.1,4.4-1.8c1.6-0.8,0.4-3.1-1.2-2.7
			c-1.1,0.2-2.1,0.5-3.2,0.7c0.4,0.9,0.8,1.8,1.2,2.7c0.6-0.3,1.2-0.7,1.8-1c1.3-0.8,0.7-2.7-0.8-2.8c-1.9-0.1-3.8,0.2-5.6,0.8
			c-1.8,0.6-1,3.5,0.8,2.9c1.6-0.5,3.1-0.8,4.8-0.7c-0.2-0.9-0.5-1.9-0.8-2.8c-0.6,0.3-1.2,0.7-1.8,1c-1.5,0.9-0.5,3.1,1.2,2.7
			c1.1-0.2,2.1-0.5,3.2-0.7c-0.4-0.9-0.8-1.8-1.2-2.7c-1.2,0.6-2.4,1.1-3.7,1.5c0.4,0.9,0.8,1.8,1.2,2.7c2.1-1.3,4.4-2.4,6.7-3.2
			c-0.4-0.9-0.8-1.8-1.2-2.7c-1.9,1.4-3.7,2.8-5.6,4.2c-1.4,1-0.6,3,1.2,2.7c2.4-0.4,4.8-0.8,7.1-1.1c0.8-0.1,5.3-1.2,5.6-0.6
			c0.2-0.7,0.4-1.4,0.5-2c-3,1.9-6.3,3.4-9.8,4.3c0.6,0.6,1.2,1.2,1.8,1.9c0.5-1.2,1.4-2.7,2.7-3.2c0.3-0.1,0.9-0.3,1.2-0.1
			c-0.2-0.2-0.1,0.4-0.1,0.7c0,0.4-0.1,0.8-0.1,1.1c-0.4,3-1,6.2-3.1,8.5c0.8,0.6,1.6,1.2,2.4,1.8c1.5-3.5,2.5-7,3.1-10.8
			c-1-0.1-2-0.3-3-0.4c-0.2,5-0.4,10.1-0.6,15.1c-0.1,1.7,2.6,2.1,3,0.4c0.8-4,1.2-8.1,1-12.1c-0.1-2-0.3-4-0.6-6
			c-0.3-1.5-0.6-3.2-2-4.2c-1.3-0.9-2.9-0.3-3.6,1c-0.9,1.8-1.5,3.9-2.2,5.8c-1.5,4-3,8.1-4.5,12.1c-0.5,1.5,1.5,2.4,2.5,1.5
			c2.1-2,4.2-4,6.3-6s4.1-4.1,6.3-6c0.3-0.3,0.7-0.5,1.1-0.7c0.4-0.1,0-0.1,0.1,0c0.1,0.3,0.1,0.6,0.1,0.9c0.1,1.5,0.3,2.9,0.4,4.4
			c0.3,3,0.6,6,0.8,9c0.2,1.9,2.9,2,3,0c0.4-5.9,0.1-11.7-0.8-17.5c-0.2-1.4-2.7-1.4-2.9,0c-0.3,2.2-0.7,4.4-1,6.6
			c-0.2,1.3,1.4,2.7,2.5,1.5c3.7-4.4,5.6-10.1,4.9-15.8c-0.2-1.7-2.3-2-3-0.4c-2.6,7-6,13.7-10.7,19.5
			C598.5,475.9,600.6,478.1,601.8,476.6L601.8,476.6z"/>
	</g>
</g>
<path class="st10" d="M379.6,473.8c-4.2-2.8-7.1-9-5-13c2.5-4.8,11.4-4.7,17-2c3.8,1.8,8.8,6.1,8,10
	C398.6,474.1,386.7,478.5,379.6,473.8z"/>
<g>
	<g>
		<path d="M606.2,489.6c-12.9,10.1-25.5,20.6-37.8,31.5c-3.5,3.1-7,6.2-10.5,9.3c-0.7,0.7,0.3,1.7,1.1,1.1
			c12.2-11,24.6-21.7,37.3-32c3.6-2.9,7.3-5.9,10.9-8.7C608,490.1,607,489,606.2,489.6L606.2,489.6z"/>
	</g>
</g>
<g>
	<g>
		<path d="M396.9,499.8c4.3,6.9,9.6,13.2,15.7,18.7c0.7,0.6,1.8-0.4,1.1-1.1c-6-5.4-11.2-11.5-15.4-18.4
			C397.7,498.2,396.4,498.9,396.9,499.8L396.9,499.8z"/>
	</g>
</g>
<path class="st1" d="M389.1,881.3c-9.3-2-18.7-4-28-6c-9.6-133.7-2.1-272.7,13-414h32C380,611,369.2,753.5,389.1,881.3z"/>
<path class="st1" d="M599.1,871.3c10.7-2.7,21.3-5.3,32-8c8.4-140.7,4.6-269.7-3-395h-29C610.2,602.6,614.5,737,599.1,871.3z"/>
<g>
	<path class="st17" d="M520.8,293.2c-2.4-4.1-2.1-8.2-1.9-11.5c0.1-1.5,0.7-11.2,6.8-16.9c11.6-10.9,45.5-10,57.9,5.4
		c5.6,6.9,7.7,17.8,1,26.1c-9.3,11.5-29,10.3-33.8,10C548,306.1,527.4,304.6,520.8,293.2z"/>
	<path class="st26" d="M588.2,298c0.4-2.5,2.7-19.7-10-31.1c-15.6-14.1-44.8-11.2-56,1.8c-2.9,3.4-4.3,7-5,10.1"/>
	<circle class="st1" cx="547.5" cy="280.7" r="12.2"/>
	<circle class="st17" cx="553.3" cy="277.1" r="4.8"/>
	<path class="st17" d="M458.3,291.8c2.4-4.1,2.1-8.2,1.9-11.5c-0.1-1.5-0.7-11.2-6.8-16.9c-11.6-10.9-45.5-10-57.9,5.4
		c-5.6,6.9-7.7,17.8-1,26.1c9.3,11.5,29,10.3,33.8,10C431.1,304.7,451.7,303.2,458.3,291.8z"/>
	<circle class="st1" cx="431.6" cy="279.3" r="12.2"/>
	<circle class="st17" cx="437.8" cy="275.7" r="4.8"/>
	<path class="st3" d="M397.7,298c3,1.5,28.6,13.8,50,1c5.3-3.1,9.2-7.2,12-11"/>
	<path class="st27" d="M447.2,242c-23.8-0.8-45.8,3.1-65,14"/>
	<path class="st27" d="M529.3,242c23.8-0.8,45.8,3.1,65,14"/>
	<path class="st26" d="M390.1,295.2c-0.4-2.5-2.7-19.7,10-31.1c15.6-14.1,44.8-11.2,56,1.8c2.9,3.4,4.3,7,5,10.1"/>
	<path class="st3" d="M581.5,300c-3,1.5-28.6,13.8-50,1c-5.3-3.1-9.2-7.2-12-11"/>
</g>
<path class="st28" d="M533.6,367.3l-82.9,1.5c-8,1.5,12,29.5,48,25.2c25-3,40.4-23.5,36.6-26.3C534.8,367.3,533.6,367.3,533.6,367.3
	z"/>
<g class="st29">
	<path class="st17" d="M511,592.3l0.8-3.4c0.8,0.3,1.7,0.4,2.6,0.4c1.1,0,1.8-0.2,2.2-0.7s0.6-1.3,0.6-2.6v-14.3
		c-1.3,0-3,0.1-4.9,0.4l-0.4-3.7c3.6-0.5,7.2-0.7,10.9-0.7s6.6,0.3,8.6,0.9s3.5,1.8,4.6,3.4s1.6,4.1,1.6,7.3v13.4H533v-12.2
		c0-2.4-0.2-4.2-0.6-5.3s-1.2-2-2.4-2.7s-3.3-1.1-6.1-1.1h-2.2v15.1c0,1.6-0.1,2.8-0.4,3.6s-0.9,1.5-1.8,2s-2.3,0.8-4.1,0.8
		C513.9,593,512.5,592.8,511,592.3z"/>
	<path class="st17" d="M546.6,578.4l-3.8-10.4h4.4l1.8,5.5c0.7-1.6,1.9-3,3.4-4.1s3.2-1.7,5-1.7c1.9,0,3.6,0.5,4.9,1.5
		s2.4,2.4,3,4.3s0.9,4.7,0.9,8.5v10.9h-12.8v-3.8h8.3v-7.3c0-2.8-0.1-4.8-0.3-6s-0.6-2.3-1.4-3.1s-1.7-1.2-2.8-1.2
		c-1.8,0-3.2,0.9-4.5,2.7s-2.3,4.9-3.1,9.4l-1.8,9.2h-4.5l2-9.7C545.7,582.2,546.1,580.6,546.6,578.4z"/>
	<path class="st17" d="M570.7,568.2c2.4-0.3,4.6-0.5,6.6-0.5c5,0,8.5,1,10.5,2.9s3,4.9,3,8.8v13.4h-4.5v-12.2c0-2.3-0.2-4-0.7-5.1
		s-1.4-2.1-2.8-2.8s-3.3-1.1-5.8-1.1c-1.7,0-3.7,0.2-6,0.5L570.7,568.2z"/>
</g>
<g class="st29">
	<path class="st17" d="M472.6,632.5l13.2-34.4h4.9l14.1,34.4h-5.2l-4-10.4h-14.4l-3.8,10.4H472.6z M482.5,618.4h11.6l-3.6-9.5
		c-1.1-2.9-1.9-5.3-2.4-7.1c-0.4,2.2-1.1,4.4-1.9,6.6L482.5,618.4z"/>
</g>
<g class="st29">
	<path class="st17" d="M520.9,607.6V642h-4.6v-34.4H520.9z"/>
	<path class="st17" d="M532.8,607.6v24.9h-4.6v-24.9H532.8z"/>
	<path class="st17" d="M551.5,616.4v7.6l2.3,8.4h-4.4l-1.7-6.1c-1.9,0-3.5,1.2-4.8,3.5l-1.4,2.6H537l2-3.8c1.2-2.3,2.5-3.8,4.1-4.5
		s2.9-1.1,4-1.1v-6.5c0-1.3-0.1-2.4-0.3-3.1s-0.6-1.3-1.3-1.7s-1.6-0.6-2.7-0.6c-1,0-1.8,0.1-2.6,0.2l-0.3-3.6
		c1-0.3,2.3-0.5,3.8-0.5c2.1,0,3.8,0.4,4.9,1.2s1.9,1.8,2.3,2.9S551.5,614.3,551.5,616.4z"/>
	<path class="st17" d="M563.8,607.6v12.9h-4.6v-12.9H563.8z"/>
	<path class="st17" d="M573.1,618l-3.8-10.4h4.4l1.8,5.5c0.7-1.6,1.9-3,3.4-4.1s3.2-1.7,5-1.7c1.9,0,3.6,0.5,4.9,1.5s2.4,2.4,3,4.3
		s0.9,4.7,0.9,8.5v10.9H580v-3.8h8.3v-7.3c0-2.8-0.1-4.8-0.3-6s-0.6-2.3-1.4-3.1s-1.7-1.2-2.8-1.2c-1.8,0-3.2,0.9-4.5,2.7
		s-2.3,4.9-3.1,9.4l-1.8,9.2H570l2-9.7C572.1,621.9,572.5,620.3,573.1,618z"/>
</g>
<path class="st30" d="M310.7,77.2c-3.7,49.2-3.4,116.6,14,194c25.4,112.9,75.3,195.1,110,243c4,3.9,26.3,24.8,61,24
	c33-0.8,53.8-20.7,58-25c36.1-57.9,83.4-150.7,103.7-272.9c10.7-64.6,11.4-122.2,8.3-169.1C547.4,94,429.1,100.5,310.7,77.2z"/>
</svg>
