<?xml version="1.0" encoding="utf-8"?>
<!-- Generator: Adobe Illustrator 28.3.0, SVG Export Plug-In . SVG Version: 6.00 Build 0)  -->
<svg version="1.1" id="Layer_1" xmlns="http://www.w3.org/2000/svg" xmlns:xlink="http://www.w3.org/1999/xlink" x="0px" y="0px"
	 viewBox="0 0 875 1859" style="enable-background:new 0 0 875 1859;" xml:space="preserve">
<style type="text/css">
	.st0{fill:none;stroke:#000000;stroke-miterlimit:10;}
	.st1{fill:#8DA1A9;stroke:#000000;stroke-miterlimit:10;}
	.st2{fill:#FFE3CB;stroke:#000000;stroke-miterlimit:10;}
	.st3{fill:#8DA1A9;}
	.st4{fill:#FFB995;}
	.st5{fill:#332C26;}
	.st6{fill:#332C26;stroke:#000000;stroke-miterlimit:10;}
	.st7{fill:none;stroke:#FFB995;stroke-miterlimit:10;}
	.st8{stroke:#000000;stroke-miterlimit:10;}
	.st9{fill:#FF3858;}
	.st10{fill:#FFFFFF;stroke:#000000;stroke-miterlimit:10;}
	.st11{fill:#080D1D;stroke:#FFFFFF;stroke-miterlimit:10;}
	.st12{fill:none;stroke:#FFFFFF;stroke-miterlimit:10;}
	.st13{fill:#10495B;}
	.st14{fill:#322B13;}
	.st15{fill:#FFFFFF;}
	.st16{fill:#FFB995;stroke:#000000;stroke-width:0.5;stroke-miterlimit:10;}
	.st17{fill:#080D1D;}
	.st18{fill:#597590;}
	.st19{fill:#597590;stroke:#597590;stroke-miterlimit:10;}
	.st20{fill:none;stroke:#597590;stroke-miterlimit:10;}
	.st21{fill:#304D37;stroke:#000000;stroke-miterlimit:10;}
	.st22{stroke:#000000;stroke-width:5;stroke-miterlimit:10;}
	.st23{fill:#5B7077;stroke:#000000;stroke-miterlimit:10;}
	.st24{fill:none;stroke:#597590;stroke-width:3;stroke-miterlimit:10;}
	.st25{stroke:#000000;stroke-width:7;stroke-miterlimit:10;}
	.st26{fill:none;stroke:#000000;stroke-width:3;stroke-miterlimit:10;}
	.st27{enable-background:new    ;}
	.st28{fill:none;stroke:#000000;stroke-width:4;stroke-miterlimit:10;}
	.st29{opacity:0.5;fill:#231F20;stroke:#000000;stroke-width:3;stroke-miterlimit:10;enable-background:new    ;}
</style>
<path class="st0" d="M396.8,1242.6"/>
<path class="st1" d="M544,512.7c9.3-24.2,21.7-58,35.1-98.9C651.5,191.7,626.2,141.1,612,121c-9.6-13.6-20.8-22.8-30-29
	c-34.5-13-93.1-30-167-28c-69.9,1.9-124.7,20.1-158,34c-3.6,4-19.6,11.8-18.9,27.3c1.1,23.6-10.9,79.9,51.9,288.7
	c6.9,22.9,23,55.9,42,96.7"/>
<path class="st2" d="M494.1,377.3c2.6,23.5-6,13-8,90c-2.9,9.3-9,25.8-22,43c-10,13.2-18.6,24.6-30,25c-18.9,0.7-33.6-29.6-40-43
	c-13.5-28-6-64-11-106C404.1,360.1,451.8,353.4,494.1,377.3z"/>
<g>
	<path class="st3" d="M548.7,880.4c2-4.3,6.3-15.2,1.4-22c-3.4-4.7-9.7-5.5-12-5.8c-54.9-6.9-12.3-12-90.7-13.6
		c-40.5-0.8-83.1-1-118.6,18.5c-1.8,1-3.6,2.1-4.7,3.8c-0.9,1.5-1.1,3.3-1.3,5c-3.1,30.5-3.3,61.3-0.4,91.9
		c0.8,8.4,1.8,16.8,4.8,24.7c4.3,11.3,12.5,20.7,20.5,29.8c3.9,4.5,8.1,9.1,13.5,11.5c6.3,2.7,13.5,2.1,20.4,2.4
		c10,0.4,19.8,2.8,29.8,3.8c10,1.1,20.5,0.6,29.3-4.2c5.9-3.2,10.6-8.2,15.2-13.1c13.2-14,26.4-28.1,38.1-43.4
		c4.2-5.5,8.2-11.1,12.9-16c5.4-5.6,11.8-10.2,16.8-16.2c6.2-7.4,10.1-16.4,13.9-25.3c3.6-8.5,8.1-20.3,11.8-35"/>
</g>
<g>
	<path class="st4" d="M385.6,385.8c12-6.4,36.5-17.3,68.3-16.1c16.8,0.6,30.7,4.4,40.7,8.1c-2,15-4,30-6,45c0,0-23,18.8-36.3,23
		c-17.2,5.5-32.9,4.9-46.6,4.2c-8.4-0.4-15.4-1.4-20.1-2.2"/>
</g>
<path class="st5" d="M583.1,268.3c5.5-8.1,19.2-30.4,20-60.4c1.1-44.8-27-90.6-65.7-110.2c-40.8-20.6-103.7-19.9-103.7-20.2
	c0-0.2,1.5-0.2,3.4-0.2c13-0.3,26.4-2.7,26.3-3.9c0-1-9.8-2.1-41.3-3.1c-135,32.9-165.4,39.2-165.7,38.1
	c-0.6-2.1,123.9-10.3,124.2-10.2c0,0,0.2,0,0.4,0.1h0.1c-11.7-5.3-27.5-9.8-45-7c-37.1,5.9-68.2,42.2-77,91
	c1.4,26.9,8.7,77.9,47,115C382.8,371.7,532.9,341.5,583.1,268.3z"/>
<path class="st2" d="M281.1,259.3c-10.4,4.6-10.1,25.5-10,28c1.1,43.2,55.5,68.4,59,70c12,5.4,24.6,11,30,6c10.4-9.7-12.7-53-40-81
	C310.7,272.7,292.7,254.2,281.1,259.3z"/>
<path class="st2" d="M584.5,259.8c10.4,4.6,10.1,25.5,10,28c-1.1,43.2-55.5,68.4-59,70c-12,5.4-24.6,11-30,6
	c-10.4-9.7,12.7-53,40-81C554.9,273.1,572.9,254.6,584.5,259.8z"/>
<path class="st2" d="M307.1,244.3c3,48,28,110,28,110s9,45,99,83c15.4-5.6,63.5-25.5,97-78c21-54,31.3-104.7,30-121
	c-9-56.7-54.2-130.1-123-132C365.9,104.4,314.7,182.7,307.1,244.3z"/>
<path class="st6" d="M413.1,175.3c-7,66-29,96-29,96s56-29,45-39c1.8,1.5-14,45-32,55c4.7,6.2,28.7-0.8,44-13
	c43.4-34.5,25.7-117.1,23-129"/>
<path class="st6" d="M444.1,161.3c14,28.9,62.1,68.1,100.6,100.6c6.9,5.8-1.4,24.2-12.6,42.5c3.3,3.1,12.2-1.6,14.1-2.6
	c14.7-7.7,24.6-25.2,24.9-47.4"/>
<path class="st0" d="M307.1,294.2"/>
<path class="st5" d="M572.1,248.3c16.7-14.2-7.7-108.5-76-144c-65-33.8-154.9-6.6-191,51c-20.8,33.2-27.4,81.6-11,92
	c28.8,18.3,125-83.9,136.5-72.5c5,4.9-11.1,26.2-4.5,32.5c7,6.7,25.9-16.2,49.5-12.5c23.3,3.7,24.2,29.1,59,46
	C544.1,245.4,564,255.2,572.1,248.3z"/>
<g>
	<g>
		<path d="M413.5,174.5c0.8-3.6,1.2-7.4,1.1-11.1c0-1.1-1.3-2-2.3-1.3c-3.4,2.4-6.5,5.1-9.2,8.2c-0.5,0.6-0.6,1.5,0,2.1
			c0.5,0.5,1.6,0.6,2.1,0c2.5-2.9,5.4-5.6,8.6-7.8c-0.8-0.4-1.5-0.9-2.3-1.3c0,3.5-0.3,6.9-1,10.3c-0.2,0.8,0.2,1.6,1,1.9
			C412.4,175.7,413.3,175.3,413.5,174.5L413.5,174.5z"/>
	</g>
</g>
<g>
	<path d="M470.5,191.4c-0.7,0-0.8-7.3-3.1-21.8c-1.4-9.1-3-16.6-4.1-21.7c2.7,4.6,6.1,11.5,7.8,20.4
		C473.3,180.3,471.5,191.4,470.5,191.4z"/>
	<g>
		<path d="M470.5,189.9c0.4,0,1,0.5,1.1,0.6c0,0,0.1,0.4,0.1,0.1c0-0.2-0.1-0.4-0.1-0.6c-0.2-0.8-0.2-1.1-0.3-1.8
			c-0.3-2.3-0.5-4.7-0.8-7c-0.9-7.8-2.1-15.6-3.6-23.3c-0.7-3.5-1.4-7-2.2-10.5c-0.9,0.4-1.8,0.8-2.7,1.2c4.1,7,7,14.7,8,22.8
			c0.6,4.3,0.7,8.8,0.4,13.1c-0.1,1.4-0.2,2.9-0.5,4.2c-0.1,0.5-0.2,0.9-0.4,1.4c-0.1,0.3-0.1,0.1-0.1,0.2c0,0.1,0,0.1-0.1,0.1
			c0.2-0.3,0.4-0.4,0.7-0.5c-1.9,0.3-1.1,3.2,0.8,2.9c1.5-0.3,1.8-2.8,2-4c0.5-3,0.7-6.1,0.7-9.1c0-8-1.4-15.9-4.4-23.4
			c-1.3-3.2-2.8-6.3-4.6-9.3c-0.9-1.5-3.1-0.5-2.7,1.2c1.7,7.6,3.1,15.2,4.3,22.9c0.9,6.1,1.5,12.3,2.3,18.5c0.2,1.4,0.3,3.1,2,3.3
			C472.5,193.1,472.4,190.1,470.5,189.9z"/>
	</g>
</g>
<g>
	<g>
		<path d="M576.7,249.3c0-3.5,0-7,0-10.6c0-0.8-0.7-1.5-1.5-1.5s-1.5,0.7-1.5,1.5c0,3.5,0,7,0,10.6c0,0.8,0.7,1.5,1.5,1.5
			S576.7,250.1,576.7,249.3L576.7,249.3z"/>
	</g>
</g>
<g>
	<g>
		<path d="M345.9,94.5c9-0.7,18.2-0.3,27.1,1c1.9,0.3,2.7-2.6,0.8-2.9c-9.2-1.4-18.6-1.8-27.9-1.1C344,91.6,344,94.6,345.9,94.5
			L345.9,94.5z"/>
	</g>
</g>
<g>
	<g>
		<path d="M454.7,135.6c-1.7-3.5-4.8-6.1-8.4-7.3c-0.7-0.2-1.7,0.3-1.9,1.1c-0.2,0.8,0.2,1.6,1,1.9c0.2,0.1,0.4,0.1,0.6,0.2
			c0.2,0.1,0.2,0.1,0,0c0.1,0,0.2,0.1,0.3,0.1c0.4,0.2,0.8,0.4,1.1,0.6c0.4,0.2,0.7,0.4,1,0.7c0.1,0.1,0.1,0.1,0.2,0.2
			c0.3,0.2-0.2-0.2,0.1,0.1c0.2,0.1,0.3,0.3,0.5,0.4c0.3,0.3,0.6,0.6,0.9,0.8c0.1,0.1,0.3,0.3,0.4,0.5c0.1,0.1,0.1,0.1,0.2,0.2
			c0,0.1,0.3,0.3,0,0.1c0.5,0.6,1,1.4,1.3,2.1c0.3,0.7,1.4,0.9,2,0.5C454.9,137.2,455,136.4,454.7,135.6L454.7,135.6z"/>
	</g>
</g>
<g>
	<g>
		<path d="M536.8,135.3c8.2,14.5,15.5,29.6,21.8,45.1c0.7,1.8,3.6,1,2.9-0.8c-6.4-15.7-13.8-31-22.1-45.8
			C538.5,132.1,535.9,133.6,536.8,135.3L536.8,135.3z"/>
	</g>
</g>
<g>
	<g>
		<path d="M290.3,196c0.5-4,2.2-7.7,3.9-11.4c1.8-3.8,3.6-7.7,5.5-11.4c3.7-7.5,7.6-14.9,11.8-22.2c1-1.7-1.6-3.2-2.6-1.5
			c-4.2,7.4-8.2,15-12,22.7c-1.9,3.8-3.7,7.6-5.5,11.5c-1.7,3.7-3.4,7.6-4,11.7c-0.1,0.8,0.2,1.6,1,1.9
			C289.1,197.2,290.1,196.8,290.3,196L290.3,196z"/>
	</g>
</g>
<path class="st7" d="M283.1,273.3c-1.2,3.8-3.1,11.6-1,21c1.4,6.3,4,11.1,6,14"/>
<path class="st7" d="M584.2,272.2c1.2,3.8,3.1,11.6,1,21c-1.4,6.3-4,11.1-6,14"/>
<path class="st8" d="M483.1,367.3c-6.7-0.6-82.7,6.4-92,12c-12.7,7.7,18.5,41.7,47,41C471.5,419.5,498.4,368.8,483.1,367.3z"/>
<path class="st9" d="M484.1,385.3c-25.1-3-44.5-1.3-58,1c0,0-2.7,0.5-35,7l0,0c0,0,19,28,50,27C455.1,418.3,472.1,406.3,484.1,385.3
	z"/>
<path class="st10" d="M400.1,383.3c21.8-3.9,61.4-4.5,77-10c2.7-0.9,3.8-5.3,2-6c-4.4-1.8-84.9,9.1-85,11
	C394.1,379,393.7,384.5,400.1,383.3z"/>
<path class="st11" d="M384.1,1490.3c0,0-9.5,47.4-6,99c3.3,49,22.2,90.4,25,120c1.2,25.4,1.1,49-4,66c-8.1,5.1-32,18.7-64.5,16.4
	c-25.9-1.8-44.3-12.8-52.5-18.4c-1.6-6.4-3.5-16.1-4-28c-0.9-19.9,2.5-34.1,8-57c3-12.6,7.9-33.2,15-64c1.8-44.7,0.5-87.9-5-129
	C323.6,1501.3,353.2,1498.4,384.1,1490.3z"/>
<path class="st12" d="M389.1,1718.3c-26.1-29.4-87-20-97,1"/>
<path class="st12" d="M279.1,1756.3c41,18.4,82,18.9,123,1"/>
<path class="st11" d="M487.1,1490.3c1.5,21.2,2.6,43.3,3.3,66c0.6,18.8,0.8,37.2,0.7,55c-7.7,32.5-15.4,65-23.1,97.5
	c0,0-1.1,49,4,66c8.1,5.1,32,18.7,64.5,16.4c25.9-1.8,44.3-12.8,52.5-18.4c1.6-6.4,3.5-16.1,4-28c0.9-19.9-2.5-34.1-8-57
	c-3-12.6-7.8-33.2-15-64c-0.5-21.1-0.6-43.1-0.2-65.8c0.5-26.3,1.7-51.6,3.3-75.7c-6.5,4.5-20.7,13.1-40.8,15.3
	C510.8,1499.9,494.3,1493.6,487.1,1490.3z"/>
<path class="st12" d="M482,1717.8c26.1-29.4,87-20,97,1"/>
<path class="st12" d="M592,1755.8c-41,18.4-82,18.9-123,1"/>
<g>
	<path class="st13" d="M375.1,1631.5c2.4,16,5.4,31.9,9.1,47.7"/>
	<g>
		<path class="st14" d="M370.8,1632.7c2.4,16,5.4,31.9,9.1,47.7c0.5,2.3,3.3,3.9,5.5,3.1c2.4-0.8,3.7-3.1,3.1-5.5
			c-3.7-15.8-6.7-31.7-9.1-47.7c-0.4-2.3-3.4-3.8-5.5-3.1C371.4,1628,370.4,1630.2,370.8,1632.7L370.8,1632.7z"/>
	</g>
</g>
<g>
	<path class="st15" d="M561.2,1636.2c5.4,16.1,10.8,32.3,16.2,48.4"/>
	<g>
		<path class="st14" d="M556.9,1637.3c5.4,16.1,10.8,32.3,16.2,48.4c0.8,2.2,3.1,3.9,5.5,3.1c2.2-0.7,3.9-3.2,3.1-5.5
			c-5.4-16.1-10.8-32.3-16.2-48.4c-0.8-2.2-3.1-3.9-5.5-3.1C557.8,1632.5,556.1,1634.9,556.9,1637.3L556.9,1637.3z"/>
	</g>
</g>
<g>
	<path class="st15" d="M349.7,1710.8c6.8,2.2,13.2,5.5,19,9.7"/>
	<g>
		<path class="st14" d="M348.5,1715.2c0.9,0.3,1.7,0.6,2.6,0.9c0.4,0.2,0.9,0.3,1.3,0.5c0.2,0.1,1.6,0.7,0.5,0.2
			c1.6,0.6,3.1,1.4,4.6,2.2c3.1,1.6,6.1,3.5,9,5.5c1.9,1.4,5.1,0.4,6.2-1.6c1.2-2.3,0.4-4.7-1.6-6.2c-6.1-4.4-13-7.8-20.1-10.2
			c-2.2-0.7-5,0.9-5.5,3.1C344.8,1712.1,346.1,1714.3,348.5,1715.2L348.5,1715.2z"/>
	</g>
</g>
<g>
	<path class="st15" d="M537.6,1713.8c9.6,0.1,19.1,3.5,26.5,9.6"/>
	<g>
		<path class="st14" d="M537.6,1718.3c1.1,0,2.2,0.1,3.4,0.2c0.3,0,0.6,0.1,0.8,0.1c0.4,0,0.5,0.1,0.1,0c0.6,0.1,1.1,0.2,1.7,0.3
			c2.3,0.4,4.5,1,6.7,1.8c0.5,0.2,1,0.4,1.6,0.6c0.7,0.2-0.6-0.3,0.1,0c0.3,0.1,0.5,0.2,0.8,0.3c1,0.5,2,1,3,1.5s1.9,1.1,2.9,1.8
			c0.5,0.3,0.9,0.6,1.4,1c0.1,0,0.7,0.5,0.4,0.3c-0.4-0.3,0.6,0.4,0.5,0.4c1.8,1.5,4.6,1.9,6.4,0c1.5-1.6,2-4.8,0-6.4
			c-8.4-6.8-18.8-10.8-29.7-10.9c-2.3,0-4.6,2.1-4.5,4.5C533.2,1716.2,535.1,1718.2,537.6,1718.3L537.6,1718.3z"/>
	</g>
</g>
<line class="st7" x1="440.1" y1="289.3" x2="427.1" y2="297.3"/>
<line class="st7" x1="441.1" y1="294.3" x2="420.1" y2="307.3"/>
<line class="st7" x1="446.1" y1="297.3" x2="419.1" y2="314.3"/>
<line class="st7" x1="448.1" y1="303.3" x2="420.1" y2="320.3"/>
<line class="st7" x1="451.1" y1="307.3" x2="422.1" y2="324.3"/>
<path class="st16" d="M434.1,333.8c-0.2,4-0.3,8-0.5,12c-1.8-1.7-3.7-3.3-5.5-5"/>
<g>
	<g>
		<path class="st4" d="M340,323.1c-0.6,0.8-1.2,1.6-1.8,2.5c-0.1,0.2-0.2,0.4-0.2,0.6s0,0.4,0,0.6c0.1,0.4,0.4,0.7,0.7,0.9
			c0.4,0.2,0.8,0.3,1.2,0.1c0.1,0,0.2-0.1,0.4-0.1c0.2-0.1,0.4-0.3,0.5-0.5c0.6-0.8,1.2-1.6,1.8-2.5c0.1-0.2,0.2-0.4,0.2-0.6
			s0-0.4,0-0.6c-0.1-0.4-0.4-0.7-0.7-0.9c-0.4-0.2-0.8-0.3-1.2-0.1c-0.1,0-0.2,0.1-0.4,0.1C340.3,322.7,340.2,322.9,340,323.1
			L340,323.1z"/>
	</g>
</g>
<g>
	<g>
		<path class="st4" d="M344,325.9c-0.2,0.3-0.4,0.6-0.6,0.9c-0.1,0.2-0.2,0.4-0.2,0.6s0,0.4,0,0.6s0.1,0.4,0.3,0.5
			c0.1,0.2,0.2,0.3,0.4,0.4c0.1,0,0.2,0.1,0.4,0.1c0.3,0.1,0.5,0.1,0.8,0c0.1,0,0.2-0.1,0.4-0.1c0.2-0.1,0.4-0.3,0.5-0.5
			c0.2-0.3,0.4-0.6,0.6-0.9c0.1-0.2,0.2-0.4,0.2-0.6s0-0.4,0-0.6s-0.1-0.4-0.3-0.5c-0.1-0.2-0.2-0.3-0.4-0.4c-0.1,0-0.2-0.1-0.4-0.1
			c-0.3-0.1-0.5-0.1-0.8,0c-0.1,0-0.2,0.1-0.4,0.1C344.3,325.5,344.1,325.6,344,325.9L344,325.9z"/>
	</g>
</g>
<g>
	<g>
		<path class="st4" d="M513.5,325.7c0,0.5,0,1,0,1.5c0,0.2,0,0.4,0.1,0.6s0.2,0.4,0.3,0.5s0.3,0.2,0.5,0.3c0.2,0.1,0.4,0.1,0.6,0.1
			c0.1,0,0.3,0,0.4,0c0.2-0.1,0.5-0.2,0.7-0.4c0.3-0.3,0.4-0.6,0.4-1.1s0-1,0-1.5c0-0.2,0-0.4-0.1-0.6s-0.2-0.4-0.3-0.5
			s-0.3-0.2-0.5-0.3c-0.2-0.1-0.4-0.1-0.6-0.1c-0.1,0-0.3,0-0.4,0c-0.2,0.1-0.5,0.2-0.7,0.4C513.6,324.9,513.5,325.3,513.5,325.7
			L513.5,325.7z"/>
	</g>
</g>
<g>
	<g>
		<path class="st4" d="M518,324.5L518,324.5c0-0.1-0.1-0.2-0.2-0.3c0.2,0.3,0.4,0.7,0.6,1c0-0.1-0.1-0.2-0.2-0.4
			c0.2,0.4,0.3,0.8,0.3,1.3c0-0.1,0-0.3,0-0.4c0,0.4,0,0.8,0,1.1c0,0.4,0.2,0.8,0.4,1.1c0.3,0.3,0.7,0.5,1.1,0.4
			c0.4,0,0.8-0.1,1.1-0.4c0.1-0.1,0.2-0.2,0.2-0.3c0.1-0.2,0.2-0.5,0.2-0.8c0.1-0.8,0-1.5-0.2-2.2c-0.1-0.4-0.3-0.8-0.5-1.2
			c-0.2-0.4-0.5-0.7-0.7-1.1c-0.2-0.3-0.7-0.4-1.1-0.4c-0.4,0-0.8,0.2-1.1,0.4c-0.3,0.3-0.5,0.7-0.4,1.1c0,0.1,0,0.3,0,0.4
			C517.7,324.1,517.8,324.3,518,324.5L518,324.5z"/>
	</g>
</g>
<path class="st6" d="M419.1,178.3c-12.8,8.9-94,84-101,114c-2,5,9.6,31.4,11,31c0.1,0,0.1-0.1,0.1-0.1c0.7-2.6-54.9-18.4-44.1-91.9"
	/>
<path class="st17" d="M220.1,907.3c-9.3-23-46.9-35.5-58-25c-6.6,6.2-0.4,17,7.5,51.5c14.7,64.2,7.8,94.4,28.5,104.5
	c1.9,0.9,10.5,5.1,16.5,1.5c13.1-8-7.1-41.6,0.5-91.5C218.6,925.2,224.9,919.3,220.1,907.3z"/>
<path class="st11" d="M214.1,1047.3c0,0,27,14,33,14c1.7-1.4,2-4,1.9-6.3c0,0,0-2.4-0.9-4.7c-1.6-4-13-9-13-9
	c-7.7-3.3-10.7-3.6-13-7c-1.4-2.1-2-6-2-6"/>
<path class="st11" d="M158.6,885.8c0.7,21.7-10.5,95.9-14,96c0,0,20.3,46.8,28,71l71,19c0.5-2,0.6-3.8,0.5-5.5
	c-0.9-16.9-24.3-26.9-27-28"/>
<path class="st11" d="M220.1,919.3c4,29-1,61-1,61c1.2,15.7,2.5,31.3,8,41c-1.7,6.5-7.1,8-15,6c-6.8-5.5-11.2-22.3-15-42
	c0,0-19.2-9.8-19.4-9.4c0,0,0.1,0.2,0.4,0.4"/>
<path class="st12" d="M173.1,987.3c7.1,15,13.3,30,18,45"/>
<path class="st17" d="M647.1,919.7c9.3-23,46.9-35.5,58-25c6.6,6.2,0.4,17-7.5,51.5c-14.7,64.2-7.8,94.4-28.5,104.5
	c-1.9,0.9-10.5,5.1-16.5,1.5c-13.2-8,7.1-41.6-0.5-91.5C648.6,937.6,642.2,931.7,647.1,919.7z"/>
<path class="st11" d="M653.1,1059.7c0,0-27,14-33,14c-1.7-1.4-2-4-1.9-6.3c0,0,0-2.4,0.9-4.7c1.5-4,13-9,13-9c7.7-3.3,10.7-3.6,13-7
	c1.5-2.1,2-6,2-6"/>
<path class="st11" d="M708.6,898.2c-0.7,21.7,10.5,95.9,14,96c0,0-20.3,46.8-28,71l-71,19c-0.5-2-0.6-3.8-0.5-5.5
	c0.9-16.9,24.3-26.9,27-28"/>
<path class="st11" d="M647.1,931.7c-4,29,1,61,1,61c-1.2,15.7-2.5,31.3-8,41c1.7,6.5,7.1,8,15,6c6.8-5.5,11.2-22.3,15-42
	c0,0,19.2-9.8,19.4-9.4c0,0-0.1,0.2-0.4,0.4"/>
<path class="st11" d="M694.1,999.7c-7.1,15-13.3,30-18,45"/>
<path class="st1" d="M488,465.7c40.5,9.2,81,18.4,121.4,27.6c7.8,21.5,11,43.3,13.7,65.1c13.9,110.5,61.5,208.2,82,297
	c11.6,29.3,19.3,58.7,18,88c-25.1,45.8-57.2,44.5-91,31c-29-130.7-58-261.3-87-392"/>
<path class="st1" d="M387,466.7c-35.6,7.5-71.2,15.1-106.9,22.7c-7.8,24.9-15.5,50.2-23,76c-17.6,60.5-33.2,119.5-47,177
	c-13.6,31.9-27,66.9-39.4,104.9c-8.3,25.7-15.5,50.4-21.6,74.1c3.4,6.8,14.9,27.7,40,39c15.2,6.8,29.1,7.3,37,7
	c36.3-132,72.7-264,109-396"/>
<g>
	<path class="st3" d="M304.2,523.3c16.3,41.3,6.3,236-3.1,301c-0.8,3.5,2.1,23,2.1,23s10.6,14.8,13.7,17c33.4,4.9,71.9,8.5,114.6,9
		c48.7,0.6,92.2-2.9,129.3-8c4.4-4.5,7-9,8.4-12c3.3,0.2-8.1-33-11.6-60c-1.5-11.2,7.9-18.1,8.4-22c1.5-11.2-0.3-36.7-0.6-86.5
		c-0.1-17.5-4-41.9-3.8-78c0.1-21.7,1.5-53.1,8.6-91.5"/>
	<path d="M304.4,523.3c4.3,11.9,5.3,24.6,6.5,37.1c5,75.4,0.7,151.2-5.4,226.4c-1.2,12.5-2.5,25.1-4.2,37.5
		c-0.4,3.8,0.3,7.7,0.6,11.5c0.4,3.8,1,7.9,1.5,11.4c2.1,3,4.3,5.9,6.5,8.8c2.2,2.8,4.5,6,7.1,8.2c40.3,5.8,81.1,9,121.9,8.9
		c40.6-0.1,82-2.9,121.8-7.9c3.5-3.5,6.2-7.8,8.5-12c0.3,0,0.4-0.5,0.5-0.9c-0.4-6.7-2.6-13.1-4-19.6c-1.7-6.9-3.4-13.9-4.9-20.8
		c-1.1-5.2-2.1-10.5-2.9-15.8c-1.1-5.3-0.3-10.9,2.5-15.5c1.6-3.2,4.4-5.7,5.5-9.1c0.9-7.1,0.6-14.2,0.5-21.3
		c-0.5-20.7-1-43.6-1.1-64.2c0-7.1-0.6-14.2-1.1-21.4c-4.7-49.7-3.4-100.1,5.9-149.2h0.2c-9.3,49.1-10.6,99.5-5.9,149.2
		c1.8,21.3,1,42.8,1.8,64.2c0.2,7.6,0.6,24.7,0.5,32.1c0,3.6-0.1,7.1-0.6,10.7c-0.2,0.9-0.7,1.7-1.1,2.5c-1.4,2.2-3.1,4.4-4.4,6.7
		c-2.8,4.6-3.6,10.1-2.5,15.4c0.8,5.3,1.8,10.5,2.9,15.8c2.2,10.5,4.9,20.8,7.4,31.2c0.6,3.3,1.8,6.6,1.4,9.9
		c-0.1,0.2-0.3,0.5-0.6,0.5l0.1-0.1c-2.1,4.4-5,8.5-8.4,12.1c-40.4,6-81.3,8.6-122.1,8.2c-40.8-0.4-81.5-3.4-121.9-9.2
		c-2.8-2.4-4.9-5.4-7.2-8.3c-2.2-2.9-4.5-5.8-6.6-8.8c-0.9-6.7-1.9-13.4-2.2-20.1c0-1,0-2,0.1-2.9c1.8-12.5,3.1-25,4.2-37.5
		c6.1-75.2,10.4-151,5.4-226.3c-1.2-12.5-2.2-25.2-6.5-37.1C304.1,523.4,304.4,523.3,304.4,523.3L304.4,523.3z"/>
</g>
<path class="st3" d="M372.1,523.3c-3.6-10.7-16.3-15.5-26-14c-16.1,2.6-27.1,23.7-21,35c6,11,28.5,12.7,40,2
	C370.3,541.4,375.1,532.3,372.1,523.3z"/>
<path class="st3" d="M559.6,514.7c-3.4-11-17.2-16.1-27-15.9c-22,0.4-41.5,27.7-36,40c5.7,12.8,40.8,15.3,56-1.1
	C553.4,536.8,563,526,559.6,514.7z"/>
<path class="st1" d="M553.1,865.3c4.6,14.2,9.1,29.1,13.3,44.7c5.8,21.3,10.7,41.8,14.7,61.3c-2.6,33.6-1.8,88.2-4,155.5
	c-8.2,255.9,26.7,395.8,13.8,448.1c-4.7,18.9-44.4,24.7-107,8c-4-152.1-15.8-311.2-37.8-476.4c-3.5-26-7.1-51.7-11-77.2
	c-17.7-0.7-35.3-1.3-53-2"/>
<path class="st1" d="M321.1,864.3c-9,35.3-18,70.7-27,106c2.2,33.8,1,88.4,3.2,155.4c8.9,269.8-25.4,413.2-7.4,457.2
	c12.9,12.6,42.2,20.5,99,2c2.4-41.9,4.8-83.7,7.2-125.6c6.9-103.9,15.8-210.1,26.9-318.4c3.8-37.5,7.9-74.7,12.1-111.6
	c21.3-0.8,32-1.5,32-2c0-0.7-24.7-1.1-74-1"/>
<g>
	<path class="st18" d="M345.4,921.6c-1,11.6-1.9,23.2-2.9,34.8c-0.1,1.6-0.3,3.2-0.9,4.6c-1.2,2.7-3.5,4.1-4,4.5
		c-3.5,2.4-16.8,15.2-37.5,35.8"/>
	<g>
		<path class="st18" d="M343.9,921.6c-0.7,9-1.5,17.9-2.2,26.8c-0.2,2.2-0.4,4.5-0.5,6.7c-0.2,2-0.2,4-1.2,5.8
			c-0.9,1.6-2.2,2.6-3.7,3.7c-2.4,1.8-4.7,4-6.9,6c-3.9,3.7-7.8,7.4-11.6,11.1c-6.3,6.1-12.5,12.3-18.7,18.5
			c-1.4,1.4,0.8,3.5,2.1,2.1c9.8-9.7,19.5-19.5,29.5-28.9c2.3-2.2,4.7-4.4,7.2-6.4c-0.3,0.2,0.1-0.1,0.2-0.2
			c0.2-0.1,0.4-0.3,0.6-0.4c1.1-0.8,2-1.6,2.9-2.7c2.5-3.3,2.4-7.5,2.8-11.4c0.8-10.3,1.7-20.5,2.5-30.8
			C347,919.7,344,919.7,343.9,921.6L343.9,921.6z"/>
	</g>
</g>
<g>
	<path class="st18" d="M522.7,912.6c0,8.2-0.1,16.3-0.1,24.5c0,1.3,0,2.8,0.9,3.9c0.7,0.8,1.8,1.2,2.8,1.6
		c12.2,4.1,24.3,8.2,36.4,12.3"/>
	<g>
		<path class="st18" d="M521.2,912.6c0,4.8,0,9.6-0.1,14.5c0,2.5,0,4.9,0,7.3c0,1.9-0.3,4.2,0.4,6c0.7,1.9,2.2,2.8,4,3.4
			c2.3,0.8,4.7,1.6,7,2.4c4.7,1.6,9.3,3.1,14,4.7c5.3,1.8,10.6,3.6,15.8,5.4c1.8,0.6,2.6-2.3,0.8-2.9c-8.8-3-17.5-5.9-26.3-8.9
			c-2.1-0.7-4.3-1.4-6.4-2.2c-1.1-0.4-2.2-0.8-3.3-1.1c-0.8-0.3-1.8-0.5-2.4-1.1c-1.2-1.2-0.7-4-0.7-5.5c0-2.2,0-4.4,0-6.6
			c0-5.2,0.1-10.3,0.1-15.4C524.2,910.7,521.2,910.7,521.2,912.6L521.2,912.6z"/>
	</g>
</g>
<path class="st19" d="M312.1,1039.3c-2.5,55.3,2.9,127.3,16,216"/>
<path class="st19" d="M331.1,1324.3c-6.3,42.7-9.6,85.3-10,128"/>
<g>
	<path class="st18" d="M556.1,1046.3c-0.7,92.7-1.3,185.3-2,278"/>
	<path class="st18" d="M556.2,1046.3c0,90.3-0.9,187.6-2,278H554C554.3,1234,554.6,1136.4,556.2,1046.3L556.2,1046.3z"/>
</g>
<path class="st19" d="M560.1,1364.3c-3.4,36.3-7,69.9-11,97c-11.2,15.7-26,22.7-42,27"/>
<g>
	<path d="M551.5,785.6c-1.7,11.3-7.1,21.2-13.5,30.5c-2.2,3-4.6,5.9-7.5,8.5l-0.9-0.5c2.4-13.3,10.8-30,21-39
		C550.7,785.1,551.5,785.6,551.5,785.6L551.5,785.6z"/>
</g>
<g>
	<path class="st18" d="M357.1,569.3c16.1,82.1,33.1,158.7,53,219"/>
	<path class="st18" d="M357.2,569.3c14,69,28.5,138.1,48.8,205.5c1.4,4.5,2.8,9,4.2,13.5l-0.2,0.1c-12-35.6-21.5-72-30-108.7
		C371.8,643.2,363.4,605.8,357.2,569.3L357.2,569.3z"/>
</g>
<g>
	<path class="st18" d="M335.1,797.3c24.3,33.5,56.9,50.2,92,62"/>
	<path class="st18" d="M335.2,797.3c21.6,29.2,51.7,47.2,85.3,59.5l6.6,2.4l-0.1,0.2l-6.7-2.2c-24.4-8.4-48.1-20.5-66.9-38.5
		c-6.9-6.5-13-13.7-18.5-21.3L335.2,797.3L335.2,797.3z"/>
</g>
<line class="st20" x1="497.1" y1="583.3" x2="456.1" y2="687.3"/>
<path class="st0" d="M491.1,455.3"/>
<path class="st0" d="M491.1,446.3"/>
<path class="st0" d="M495.1,445.3"/>
<path class="st21" d="M532.1,438.3"/>
<g>
	<path class="st18" d="M539.8,766c-14.6,6.3-29.8,11.4-45.2,15.3c3.1,8.6,4.7,17.7,4.8,26.8"/>
	<g>
		<path class="st18" d="M539.1,764.8c-14.5,6.3-29.5,11.3-44.9,15.1c-0.7,0.2-1.3,1.1-1,1.8c3,8.5,4.6,17.4,4.7,26.5
			c0,1.9,3,1.9,3,0c-0.1-9.3-1.7-18.5-4.8-27.2c-0.4,0.6-0.7,1.2-1,1.8c15.6-3.9,30.8-9,45.6-15.4
			C542.3,766.6,540.8,764,539.1,764.8L539.1,764.8z"/>
	</g>
</g>
<g>
	<path class="st18" d="M467.6,708.8c10,0,20,0,30,0"/>
	<g>
		<path class="st18" d="M467.6,710.3c10,0,20,0,30,0c1.9,0,1.9-3,0-3c-10,0-20,0-30,0C465.6,707.3,465.6,710.3,467.6,710.3
			L467.6,710.3z"/>
	</g>
</g>
<g>
	<path class="st18" d="M302.8,543.1c-7.8,28.4-12.9,57.5-15.2,86.8"/>
	<g>
		<path class="st18" d="M301.3,542.7c-6.1,22.2-10.5,44.9-13.3,67.8c-0.8,6.5-1.4,12.9-2,19.4c-0.1,1.9,2.9,1.9,3,0
			c1.8-22.8,5.3-45.4,10.5-67.7c1.4-6.3,3-12.5,4.7-18.7C304.7,541.7,301.9,540.9,301.3,542.7L301.3,542.7z"/>
	</g>
</g>
<g>
	<path class="st18" d="M219.9,750.4c-0.1,2.4,0.6,4.7,1.4,6.9c2.8,8.6,5.6,17.3,8.4,25.9"/>
	<g>
		<path class="st18" d="M218.4,750.4c0,2.8,0.8,5.4,1.6,8c0.9,2.8,1.8,5.7,2.7,8.5c1.8,5.6,3.6,11.2,5.4,16.7c0.6,1.8,3.5,1,2.9-0.8
			c-1.8-5.4-3.5-10.8-5.2-16.3c-0.9-2.7-1.7-5.3-2.6-8c-0.9-2.7-1.9-5.3-1.9-8.2C221.4,748.4,218.4,748.4,218.4,750.4L218.4,750.4z"
			/>
	</g>
</g>
<g>
	<path class="st18" d="M687.6,866.2c-14.5,12.7-29.3,25.8-38.2,43c-0.3,0.7-0.7,1.5-0.2,2.1c0.3,0.4,0.9,0.5,1.4,0.5
		c1.5,0.2,3.1,0.3,4.7,0.5"/>
	<g>
		<path class="st18" d="M686.5,865.1c-13.7,12-27.8,24.4-36.9,40.5c-1,1.8-3.2,4.6-1.6,6.6c0.7,0.9,1.7,1,2.8,1.1
			c1.5,0.2,3,0.3,4.4,0.4c1.9,0.2,1.9-2.8,0-3c-1.1-0.1-2.2-0.2-3.3-0.3c-0.4,0-1.2,0.1-1.5-0.2c0,0,0.3-0.6,0.5-0.9
			c1-1.8,2-3.6,3.1-5.3c2.1-3.4,4.5-6.7,7-9.8c5.2-6.3,11-12.1,17-17.6c3.5-3.2,7-6.3,10.5-9.4C690.1,865.9,688,863.8,686.5,865.1
			L686.5,865.1z"/>
	</g>
</g>
<g>
	<path class="st18" d="M598.2,517.8c-8,8.9-15.9,17.9-23.7,27.1"/>
	<g>
		<path class="st18" d="M597.1,516.7c-8,8.9-15.9,17.9-23.7,27.1c-1.2,1.5,0.9,3.6,2.1,2.1c7.7-9.2,15.6-18.2,23.7-27.1
			C600.5,517.4,598.4,515.3,597.1,516.7L597.1,516.7z"/>
	</g>
</g>
<g>
	<path class="st18" d="M227.9,803.9c-0.2,5.8,0.5,11.7,2.1,17.2c0.3,1.1,0.7,2.3,1.6,3c0.8,0.6,1.8,0.8,2.8,1
		c3.7,0.5,7.4,0.7,11.2,0.5"/>
	<g>
		<path class="st18" d="M226.4,803.9c-0.1,3.3,0.1,6.6,0.5,9.9c0.4,3,0.9,6.3,2.1,9.1c0.5,1.2,1.2,2.3,2.4,2.9
			c1.3,0.7,2.8,0.8,4.3,1c3.3,0.4,6.6,0.5,9.9,0.3c1.9-0.1,1.9-3.1,0-3c-2.9,0.1-5.8,0.1-8.7-0.2c-1.2-0.1-2.6-0.2-3.7-0.6
			c-1.1-0.4-1.4-1.4-1.7-2.4c-1.6-5.5-2.3-11.3-2.1-17C229.4,801.9,226.4,801.9,226.4,803.9L226.4,803.9z"/>
	</g>
</g>
<path class="st3" d="M291.4,320.5c-0.7-11.8-2.6-64.2,35-105c43.5-47.2,120.4-57.9,177-23c45,27.7,70.5,80,67,135
	c10.5-21.1,31.7-71.1,25.1-136c-4.8-47.4-22.5-82.6-34.1-102c-26.1-10.6-61-21.3-103-25c-94.5-8.3-168.4,23.9-203,42
	c-1.7,28.8-1.3,65.5,5.6,107.4C268.2,257.2,280.2,293.2,291.4,320.5z"/>
<path class="st22" d="M488,467.7c11.7,2.7,23.3,5.3,35,8c-11.7,19-23.3,38-35,57c-16.1,19.2-39.1,22.6-66,17c-16-0.6-30-9.7-43-23
	c-12.6-10.6-21.9-29.5-31-49c12.3-3,27-8,37-9c2,14.2,6.7,28.7,22,44c3.9,1.6,29.2,11.7,52-1c1.9-1.1,10.7-6.1,18.2-16.5
	C485,484.2,487.2,473.2,488,467.7z"/>
<rect x="343" y="849.7" class="st3" width="200" height="35"/>
<path class="st3" d="M323,487.7c-4.2-2.8-7.1-9-5-13c2.5-4.8,11.4-4.7,17-2c3.8,1.8,8.8,6.1,8,10C341.9,488,330.1,492.4,323,487.7z"
	/>
<g>
	<path d="M550.1,504c-16.5,13-32.7,26.6-48.3,40.8"/>
</g>
<g>
	<path class="st18" d="M340.9,513.3c4.2,6.9,9.5,13.2,15.5,18.5"/>
	<g>
		<path class="st18" d="M339.6,514c4.3,7,9.6,13.3,15.8,18.8c1.4,1.3,3.6-0.8,2.1-2.1c-6-5.3-11.1-11.4-15.3-18.2
			C341.1,510.9,338.5,512.4,339.6,514L339.6,514z"/>
	</g>
</g>
<path class="st3" d="M526.2,484.2h30v-8c-8.7-1-17.3-2-26-3C528.8,476.8,527.5,480.5,526.2,484.2z"/>
<path class="st3" d="M268.4,147.4c4-0.6,12.3,3.9,12.8,9.1c0.1,1.2-0.1,2.5-0.8,3.9c-40,82.5,43.8,234.3,49,235
	c0.2,0,2.6,0.3,2.6,0.6c0,0.6-15.8,0.7-19.6,0.4c-30.5-2.5-61.5-97.9-58-191C254.7,197.5,256.8,149.1,268.4,147.4z"/>
<path class="st3" d="M586.4,117.4c-11.2-2.9-28.1,11.9-28,12c0,0.1,2.8-0.7,5-3c0,0,1.3-1.3,4.3-7.6l0,0l0,0c0.3,0.8-7,6.4-9.3,5.5
	c-3.5-1.4,30.6,2.8,32,66c0.6,26.5,1.3,59.8-17,124c0,0-17.8,82.3-40.9,85.6c-0.3,0-2.6,0.3-2.6,0.6c0,0.9,27.1,0.4,29.6-0.6
	c30.4-11.7,40-80.3,44.5-124.2C609.3,225.4,612.2,124.2,586.4,117.4z"/>
<path class="st3" d="M586.4,122.4c-8.4-2.5-16.3,4.2-23,8c-6.4,3.6,26.1,26.1,27,74c0.1,3.6,6.8,2.5,10,1
	C616.3,197.9,611.2,130,586.4,122.4z"/>
<path class="st23" d="M479.9,439c-22.3,24.5-73.8,24.9-94,2c-32.5-36.9,17.2-132.9,51-132C469.2,309.9,515.3,400.1,479.9,439z"/>
<path class="st3" d="M478.9,554c34.1-16.1,66.8-54.7,58-80c-16.3-47.1-178.2-55.3-200-9c-11.5,24.5,15,66.5,48,86
	C428.7,576.8,473.5,556.5,478.9,554z"/>
<path class="st19" d="M351.9,442c-22-0.5-39.4-16.2-57.5-29.5"/>
<path class="st19" d="M512.7,442c22-0.5,39.4-16.2,57.5-29.5"/>
<path class="st19" d="M249.9,113.9c16.1,1,42.9,0.5,73-11c18.5-7.1,32.9-16.3,43-24"/>
<path class="st19" d="M479.9,85.9c15.7-2.3,51.3-5.1,88,14c14.2,7.4,25.1,16.3,33,24"/>
<path class="st24" d="M272.4,161.4c25.1-15.9,68.6-38.8,127-47c91.5-12.9,162.9,18,191,32"/>
<path class="st25" d="M609.9,961c-11.7-5.9-28.5,4.9-29,7c-4.8,21.7-2,80.5-1,92c1,11.6,22.2-0.6,23-1
	C633,1043.5,632.4,972.2,609.9,961z"/>
<path class="st1" d="M307.9,456c-17.8,12.5-31.9,29.6-42,52c20.3,15.8,84.9,61.8,180,63.7c94.1,1.8,159.9-40.8,181-55.7
	c-3.3-22-34.4-40.8-61-60"/>
<path class="st19" d="M574.9,538c-1.5-13.4-57-26-100-9c-24.5,9.7-54.8,32.8-52,39c0.2,0.6,0.7,0.9,1,1
	C435.1,575.9,577.4,559.8,574.9,538z"/>
<path class="st19" d="M554.9,463c-14.6,16.9-40.8,23-70,26c0,0,16.5,8.3,48,10"/>
<path class="st19" d="M311.9,467c16.5,15.1,39.8,27.5,80,33"/>
<g>
	<g>
		<path d="M481.8,456.8c7.5,15.2,20.2,26.8,32.1,38.5c2.9,2.8,5.7,5.6,8.4,8.6c1.3,1.4,2.6,2.9,3.8,4.3c0.6,0.7,1.2,1.5,1.8,2.2
			c1.2,1.5,0.1,0.1-0.1-0.2c0.4,0.6,0.9,1.1,1.3,1.7c2.5,3.5,4.7,7.1,6.7,10.9c1,1.8,1.8,3.7,2.7,5.5c0.2,0.4,0.8,1.9,0-0.1
			c0.2,0.4,0.3,0.8,0.5,1.2c0.5,1.2,1,2.5,1.4,3.7c1.4,4,2.6,8.2,3.6,12.3c0.5,2,0.9,4,1.3,6.1c0.2,1,0.4,2,0.5,3.1
			c0.1,0.6,0.2,1.2,0.3,1.8c-0.2-0.9-0.2-1.3,0-0.1c1,9,1.3,18,0.7,27c-0.1,2.4-0.3,4.7-0.6,7.1c-0.1,1.2-0.2,2.4-0.4,3.5
			c-0.1,0.7-0.2,1.3-0.2,2c-0.1,0.8-0.2,1.3,0,0.2c-0.7,5-1.6,10-2.6,15c-2,9.8-4.5,19.5-7.2,29.2c-5.4,19.2-11.7,38.1-14.8,57.8
			c-3.3,20.8-4.1,41.7-3.8,62.7c0.3,19.5,0.3,39.3,2.8,58.6c1.3,9.9,3.1,19.8,6.6,29.2c3.5,9.3,8.2,17.9,13.8,26.2
			c5.1,7.6,10.5,14.9,15.3,22.7c2.4,4,4.7,8.1,6.8,12.2c1,1.9,1.9,3.9,2.8,5.9c0.5,1,0.9,2,1.3,3c0.2,0.4,0.4,0.8,0.6,1.3
			c1.2,2.7-0.4-1.1,0.2,0.5c3.3,8.6,6.3,17.2,8.5,26.2c1.1,4.4,2,8.8,2.7,13.2c0.2,1.1,0.3,2.2,0.5,3.2c0.3,2.1,0.1,0.4,0,0
			c0.1,0.6,0.2,1.2,0.2,1.8c0.3,2.3,0.5,4.6,0.7,7c0.4,4.5,0.5,9,0.6,13.5c0,5.5,4.8,10.8,10.5,10.5c5.7-0.2,10.5-4.6,10.5-10.5
			c-0.3-38.3-12.2-75.8-33.7-107.4c-5.2-7.7-10.8-15.1-15.4-23.2c-1.1-1.9-2.1-3.8-3.1-5.8c-0.6-1.1-1.1-2.3-1.6-3.4
			c0-0.1-0.6-1.6-0.2-0.5c0.5,1.2-0.5-1.2-0.5-1.4c-1.7-4.5-3-9-4.1-13.7c-0.5-2.2-0.9-4.4-1.3-6.5c-0.2-1.1-0.4-2.2-0.5-3.3
			c-0.1-0.5-0.1-1-0.2-1.4c0.3,2.1,0-0.1-0.1-0.5c-0.6-4.8-1-9.6-1.2-14.4c-0.6-9.8-0.8-19.5-1.1-29.3c-0.6-20.4-0.7-40.8,1.5-61.1
			c0.2-1.4,0.3-2.7,0.5-4.1c0-0.1,0.2-1.8,0.1-0.7c-0.2,1.2,0.1-0.9,0.2-1.2c0.4-2.6,0.8-5.1,1.2-7.7c0.9-5,2-10,3.2-15
			c2.4-9.7,5.3-19.3,8.1-29c11.1-37.9,20.4-77.9,10.8-117.2c-4.4-18-13-34.4-25.4-48.2c-5.5-6.1-11.4-11.7-17.3-17.4
			c-3-2.9-5.9-5.8-8.7-8.9c-1.3-1.4-2.6-2.8-3.8-4.3c-0.6-0.7-1.2-1.5-1.8-2.2c1.6,1.9-0.4-0.6-0.8-1.1c-2.4-3.3-4.5-6.8-6.3-10.5
			c-2.4-5-9.8-6.7-14.4-3.8C480.5,445.7,479.2,451.5,481.8,456.8L481.8,456.8z"/>
	</g>
</g>
<g>
	<circle class="st3" cx="436.4" cy="422.5" r="61"/>
	<path d="M380.3,422.5c-2,32.2,23,61.3,56.1,60.4c23.6-0.1,45.7-16,52.9-38.5c14.5-45.1-28.6-85.7-72.6-69.5
		C396.8,381.8,381.2,400.8,380.3,422.5L380.3,422.5z M370.5,422.5c-2-37.4,27.5-71.5,65.9-70.9c38.1,0.2,69.1,32.8,66.4,70.9
		c-1.4,25.5-18.8,48.8-42.6,57.5C420.2,495.3,372.2,466.2,370.5,422.5L370.5,422.5z"/>
</g>
<circle class="st8" cx="436.9" cy="426" r="6"/>
<line class="st0" x1="402.9" y1="390.9" x2="424" y2="412"/>
<line class="st0" x1="420.4" y1="426" x2="385.4" y2="426"/>
<line class="st0" x1="437.9" y1="409.5" x2="437.9" y2="381.5"/>
<line class="st0" x1="437.9" y1="472.5" x2="437.9" y2="444.5"/>
<line class="st0" x1="403" y1="461.4" x2="424.1" y2="440.3"/>
<line class="st0" x1="451" y1="437.3" x2="472.1" y2="458.4"/>
<line class="st0" x1="451" y1="413.4" x2="472.1" y2="392.3"/>
<line class="st0" x1="489.4" y1="426" x2="454.4" y2="426"/>
<path class="st26" d="M502.9,410c-15.6-57.2-44.3-102.1-66-101c-23.4,1.1-59.1,44.4-66,99c-14.3-2.1-33.4-7.5-49-22
	c-41.7-38.7-38-122.6,4-170c50.7-57.2,152.5-55.9,205-1c48.6,50.9,50.7,143.5,9,179C528.4,403.8,514.8,408.1,502.9,410z"/>
<path class="st26" d="M499.9,423c-6.4-68.7-40.2-116.7-63-114c-25.8,3.1-63.9,47.6-64,112c-18.8-1.8-41.9-7.7-60.4-24.4
	c-49.3-44.3-46.8-146.6,8.4-202.6c60.6-61.4,172.5-54.9,228,9c52,59.9,48.4,163.2-1.4,202.2C532.4,417,514.9,421.5,499.9,423z"/>
<g class="st27">
	<path class="st15" d="M438.9,606.6l0.8-3.4c0.8,0.3,1.7,0.4,2.6,0.4c1.1,0,1.8-0.2,2.2-0.7s0.6-1.3,0.6-2.6V586
		c-1.3,0-3,0.1-4.9,0.4l-0.4-3.7c3.6-0.5,7.2-0.7,10.9-0.7c3.7,0,6.6,0.3,8.6,0.9s3.5,1.8,4.6,3.4s1.6,4.1,1.6,7.3V607H461v-12
		c0-2.4-0.2-4.2-0.6-5.3s-1.2-2-2.4-2.7s-3.3-1.1-6.1-1.1h-2.2V601c0,1.6-0.1,2.8-0.4,3.6s-0.9,1.5-1.8,2s-2.3,0.8-4.1,0.8
		C441.8,607.4,440.4,607.2,438.9,606.6z"/>
	<path class="st15" d="M474.5,592.7l-3.8-10.4h4.4l1.8,5.5c0.7-1.6,1.9-3,3.4-4.1s3.2-1.7,5-1.7c1.9,0,3.6,0.5,4.9,1.5
		s2.4,2.4,3,4.3s0.9,4.7,0.9,8.5v10.9h-12.8v-3.8h8.3v-7.3c0-2.8-0.1-4.8-0.3-6s-0.6-2.3-1.4-3.1s-1.7-1.2-2.8-1.2
		c-1.8,0-3.2,0.9-4.5,2.7s-2.3,4.9-3.1,9.4l-1.8,9.2h-4.5l2-9.7C473.6,596.6,474,595,474.5,592.7z"/>
	<path class="st15" d="M498.6,582.6c2.4-0.3,4.6-0.5,6.6-0.5c5,0,8.5,1,10.5,2.9s3,4.9,3,8.8v13.4h-4.5V595c0-2.3-0.2-4-0.7-5.1
		s-1.4-2.1-2.8-2.8s-3.3-1.1-5.8-1.1c-1.7,0-3.7,0.2-6,0.5L498.6,582.6z"/>
</g>
<g class="st27">
	<path class="st15" d="M428.8,634.8l4.5,1.1c-1,3.7-2.7,6.6-5.1,8.5s-5.5,2.9-9.1,2.9c-3.7,0-6.7-0.8-9-2.3s-4.1-3.7-5.3-6.6
		s-1.8-5.9-1.8-9.2c0-3.6,0.7-6.7,2.1-9.4s3.3-4.7,5.8-6.1s5.3-2.1,8.3-2.1c3.4,0,6.3,0.9,8.7,2.6s4,4.2,4.9,7.4l-4.5,1.1
		c-0.8-2.5-2-4.3-3.5-5.5s-3.4-1.7-5.7-1.7c-2.6,0-4.8,0.6-6.6,1.9s-3,3-3.7,5.1s-1.1,4.3-1.1,6.6c0,2.9,0.4,5.5,1.3,7.7
		s2.2,3.8,4,4.9s3.7,1.6,5.8,1.6c2.5,0,4.7-0.7,6.5-2.2S428.2,637.7,428.8,634.8z"/>
</g>
<g class="st27">
	<path class="st15" d="M456.8,622v34.4h-4.6V622H456.8z"/>
	<path class="st15" d="M468.6,622v24.9H464V622H468.6z"/>
	<path class="st15" d="M487.4,630.8v7.6l2.3,8.4h-4.4l-1.7-6.1c-1.9,0-3.5,1.2-4.8,3.5l-1.4,2.6h-4.6l2-3.8c1.2-2.3,2.5-3.8,4.1-4.5
		s2.9-1.1,4-1.1v-6.5c0-1.3-0.1-2.4-0.3-3.1s-0.6-1.3-1.3-1.7s-1.6-0.6-2.7-0.6c-1,0-1.8,0.1-2.6,0.2l-0.3-3.6
		c1-0.3,2.3-0.5,3.8-0.5c2.1,0,3.8,0.4,4.9,1.2s1.9,1.8,2.3,2.9S487.4,628.7,487.4,630.8z"/>
	<path class="st15" d="M499.6,622v12.9H495V622H499.6z"/>
	<path class="st15" d="M508.9,632.4l-3.8-10.4h4.4l1.8,5.5c0.7-1.6,1.9-3,3.4-4.1s3.2-1.7,5-1.7c1.9,0,3.6,0.5,4.9,1.5
		s2.4,2.4,3,4.3s0.9,4.7,0.9,8.5v10.9h-12.8v-3.8h8.3v-7.3c0-2.8-0.1-4.8-0.3-6s-0.6-2.3-1.4-3.1s-1.7-1.2-2.8-1.2
		c-1.8,0-3.2,0.9-4.5,2.7s-2.3,4.9-3.1,9.4l-1.8,9.2h-4.5l2-9.7C508,636.3,508.4,634.7,508.9,632.4z"/>
</g>
<g>
	<path class="st15" d="M462.4,309.8c-2.4-4.1-2.1-8.2-1.9-11.5c0.1-1.5,0.7-11.2,6.8-16.9c11.6-10.9,45.5-10,57.9,5.4
		c5.6,6.9,7.7,17.8,1,26.1c-9.3,11.5-29,10.3-33.8,10C489.6,322.7,468.9,321.2,462.4,309.8z"/>
	<path class="st28" d="M529.8,314.5c0.4-2.5,2.7-19.7-10-31.1c-15.6-14.1-44.8-11.2-56,1.8c-2.9,3.4-4.3,7-5,10.1"/>
	<circle class="st8" cx="489.1" cy="297.3" r="12.2"/>
	<circle class="st15" cx="494.9" cy="293.6" r="4.8"/>
	<path class="st15" d="M399.9,308.4c2.4-4.1,2.1-8.2,1.9-11.5c-0.1-1.5-0.7-11.2-6.8-16.9c-11.6-10.9-45.5-10-57.9,5.4
		c-5.6,6.9-7.7,17.8-1,26.1c9.3,11.5,29,10.3,33.8,10C372.6,321.3,393.3,319.8,399.9,308.4z"/>
	<circle class="st8" cx="373.2" cy="295.9" r="12.2"/>
	<circle class="st15" cx="379.4" cy="292.2" r="4.8"/>
	<path class="st0" d="M339.3,314.6c3,1.5,28.6,13.8,50,1c5.3-3.1,9.2-7.2,12-11"/>
	<path class="st26" d="M388.8,258.5c-23.8-0.8-45.8,3.1-65,14"/>
	<path class="st26" d="M470.9,258.5c23.8-0.8,45.8,3.1,65,14"/>
	<path class="st28" d="M331.7,311.8c-0.4-2.5-2.7-19.7,10-31.1c15.6-14.1,44.8-11.2,56,1.8c2.9,3.4,4.3,7,5,10.1"/>
	<path class="st0" d="M523.1,316.5c-3,1.5-28.6,13.8-50,1c-5.3-3.1-9.2-7.2-12-11"/>
</g>
<path class="st29" d="M502.4,409.6c-15.6-57.2-44.3-102.1-66-101c-23.4,1.1-59.1,44.4-66,99c-13.8-2.1-33.1-7.4-49-22
	c-41.6-38.2-38.4-119.6,0.2-166.3c49.3-59.7,155.1-61.2,209-5c48.5,50.6,50.7,143.7,8.8,179.4C527.9,403.4,514.4,407.8,502.4,409.6z
	"/>
</svg>
