<?xml version="1.0" encoding="utf-8"?>
<!-- Generator: Adobe Illustrator 28.3.0, SVG Export Plug-In . SVG Version: 6.00 Build 0)  -->
<svg version="1.1" id="Layer_1" xmlns="http://www.w3.org/2000/svg" xmlns:xlink="http://www.w3.org/1999/xlink" x="0px" y="0px"
	 viewBox="0 0 875 1859" style="enable-background:new 0 0 875 1859;" xml:space="preserve">
<style type="text/css">
	.st0{fill:#20382B;stroke:#000000;stroke-miterlimit:10;}
	.st1{fill:#FFE3CB;stroke:#000000;stroke-miterlimit:10;}
	.st2{fill:#305437;}
	.st3{fill:#FFB995;}
	.st4{fill:#332C26;}
	.st5{fill:#FFFFFF;}
	.st6{fill:none;stroke:#000000;stroke-width:4;stroke-miterlimit:10;}
	.st7{stroke:#000000;stroke-miterlimit:10;}
	.st8{fill:none;stroke:#000000;stroke-miterlimit:10;}
	.st9{fill:#332C26;stroke:#000000;stroke-miterlimit:10;}
	.st10{fill:none;stroke:#FFB995;stroke-miterlimit:10;}
	.st11{opacity:0.44;fill:#D8B8A3;}
	.st12{fill:#1E2722;stroke:#000000;stroke-miterlimit:10;}
	.st13{fill:#20382B;}
	.st14{fill:#FFB995;stroke:#FFB995;stroke-miterlimit:10;}
	.st15{fill:#FFB995;stroke:#000000;stroke-width:0.5;stroke-miterlimit:10;}
	.st16{fill:#FFE3CB;}
	.st17{fill:none;stroke:#000000;stroke-width:3;stroke-miterlimit:10;}
	.st18{fill:#305437;stroke:#000000;stroke-miterlimit:10;}
	.st19{fill:#FFFFFF;stroke:#000000;stroke-miterlimit:10;}
	.st20{fill:#20382B;stroke:#20382B;stroke-width:3;stroke-miterlimit:10;}
	.st21{fill:#20382B;stroke:#20382B;stroke-miterlimit:10;}
	.st22{fill:#C87529;stroke:#000000;stroke-miterlimit:10;}
	.st23{fill:#304D37;stroke:#000000;stroke-miterlimit:10;}
	.st24{fill:#988F4C;}
	.st25{fill:#6C81B0;stroke:#FFFFFF;stroke-width:2;stroke-miterlimit:10;}
	.st26{fill:#6C81B0;stroke:#FFFFFF;stroke-width:3;stroke-miterlimit:10;}
	.st27{fill:none;stroke:#000000;stroke-width:2;stroke-miterlimit:10;}
</style>
<path class="st0" d="M379.21,461.49c46-1.33,92-2.67,138-4c-1.34,36.83-31.59,66.41-68,67
	C413.46,525.07,382.62,497.52,379.21,461.49z"/>
<path class="st1" d="M510.21,415.49c2.63,23.55-6,13-8,90c-2.94,9.27-8.97,25.81-22,43c-10.02,13.22-18.65,24.6-30,25
	c-18.93,0.66-33.56-29.65-40-43c-13.52-28-6-64-11-106C420.26,398.25,467.9,391.59,510.21,415.49z"/>
<g>
	<path class="st2" d="M564.84,918.54c1.96-4.29,6.31-15.17,1.38-22.05c-3.4-4.74-9.72-5.52-11.98-5.8
		c-54.87-6.94-12.26-12.05-90.68-13.56c-40.48-0.78-83.06-0.96-118.58,18.47c-1.8,0.98-3.64,2.08-4.69,3.84
		c-0.89,1.49-1.1,3.28-1.28,5.02c-3.14,30.51-3.29,61.33-0.43,91.87c0.78,8.37,1.82,16.83,4.83,24.68
		c4.34,11.31,12.51,20.66,20.51,29.75c3.94,4.47,8.06,9.08,13.52,11.46c6.31,2.74,13.48,2.14,20.35,2.42
		c10.01,0.41,19.83,2.81,29.79,3.85c9.96,1.05,20.5,0.62,29.29-4.19c5.89-3.23,10.6-8.21,15.19-13.11
		c13.19-14.04,26.4-28.12,38.09-43.43c4.17-5.47,8.16-11.11,12.94-16.05c5.42-5.6,11.8-10.25,16.83-16.21
		c6.23-7.37,10.11-16.39,13.9-25.26c3.64-8.52,8.12-20.32,11.8-35.05"/>
	<g>
		<path d="M566.13,919.3c3.94-8.68,7.14-21.68-2.99-27.49c-3.89-2.23-8.32-2.52-12.66-3.11c-4.1-0.56-8.19-1.19-12.26-1.96
			c-4.58-0.87-9.17-1.91-13.54-3.56c-0.33-0.13-0.66-0.25-0.99-0.39c-0.14-0.06-0.28-0.11-0.43-0.17c-0.12-0.05-0.76-0.32-0.29-0.12
			c-0.58-0.25-1.16-0.5-1.75-0.76c-1.22-0.54-2.44-1.07-3.69-1.53c-3.54-1.3-7.27-1.92-11-2.4c-7.97-1.03-16.04-1.36-24.07-1.66
			c-13.33-0.5-26.68-0.77-40.02-0.77c-13.44,0-26.9,0.41-40.26,1.93c-13.19,1.51-26.3,4.08-38.84,8.51
			c-6.18,2.18-12.21,4.79-17.99,7.87c-2.68,1.43-5.54,2.96-6.81,5.88c-1.35,3.1-1.27,6.98-1.57,10.3
			c-2.76,30.22-2.8,60.94,0.57,91.11c0.8,7.14,1.98,14.32,4.65,21.03c2.48,6.22,6.04,11.89,10.1,17.19
			c4,5.24,8.35,10.24,12.79,15.11c4.45,4.88,9.49,9.18,16.09,10.68c6.7,1.52,13.68,0.79,20.48,1.38c7.41,0.64,14.71,2.15,22.08,3.14
			c13.3,1.78,27.41,1.47,38.53-6.98c5.36-4.08,9.84-9.2,14.43-14.1c5.08-5.42,10.14-10.85,15.09-16.38
			c4.85-5.41,9.6-10.9,14.16-16.55c4.53-5.6,8.69-11.48,13.22-17.07c4.41-5.43,9.54-9.99,14.69-14.68
			c5.01-4.56,9.41-9.51,12.89-15.36c3.45-5.8,6.1-12.04,8.72-18.25c2.13-5.03,4.1-10.13,5.88-15.29c2.19-6.34,4.09-12.78,5.72-19.29
			c0.47-1.87-2.42-2.67-2.89-0.8c-2.95,11.75-6.79,23.27-11.53,34.42c-2.56,6.01-5.14,12.06-8.49,17.69
			c-3.43,5.77-7.79,10.56-12.74,15.05c-5,4.53-9.95,8.96-14.22,14.21c-4.4,5.39-8.41,11.09-12.77,16.51
			c-9,11.2-18.73,21.79-28.55,32.28c-4.53,4.84-8.94,9.96-14.08,14.19c-5.06,4.16-10.95,6.68-17.39,7.72
			c-13.82,2.23-27.61-1.94-41.29-3.33c-6.72-0.68-13.64,0.07-20.28-1.23c-6.51-1.27-11.26-5.32-15.61-10.09
			c-8.69-9.54-17.93-19.75-22.51-32.02c-2.47-6.6-3.56-13.6-4.29-20.58c-0.77-7.32-1.31-14.66-1.7-22.01
			c-0.79-14.82-0.88-29.68-0.26-44.51c0.31-7.41,0.79-14.82,1.45-22.21c0.16-1.81,0.33-3.61,0.51-5.42c0.16-1.62,0.24-3.4,0.98-4.89
			c1.32-2.65,4.91-4,7.4-5.26c11.45-5.84,23.79-9.75,36.36-12.3c25.61-5.19,51.97-4.86,77.98-4.36c11.19,0.22,22.39,0.47,33.56,1.25
			c5.36,0.38,10.43,0.76,15.58,1.92c1.44,0.32,2.86,0.72,4.25,1.22c0.59,0.21,1.17,0.44,1.75,0.68c0.37,0.15-0.29-0.13,0.08,0.03
			c0.14,0.06,0.29,0.12,0.43,0.19c0.27,0.12,0.53,0.23,0.8,0.35c2.92,1.28,5.85,2.44,8.92,3.31c6.08,1.72,12.35,2.74,18.6,3.65
			c4.16,0.6,8.37,0.73,12.31,2.15c2.36,0.85,4.57,2.31,5.91,4.46c1.34,2.15,1.74,4.68,1.67,7.18c-0.13,4.42-1.62,8.78-3.43,12.77
			C562.75,919.53,565.34,921.06,566.13,919.3L566.13,919.3z"/>
	</g>
</g>
<g>
	<path class="st3" d="M401.71,423.99c11.99-6.42,36.45-17.3,68.33-16.11c16.83,0.63,30.72,4.43,40.67,8.11c-2,15-4,30-6,45
		c0,0-23.03,18.75-36.31,22.96c-17.24,5.47-32.91,4.91-46.59,4.21c-8.43-0.43-15.37-1.39-20.1-2.18"/>
</g>
<path class="st4" d="M599.21,306.49c5.54-8.08,19.24-30.37,20-60.38c1.13-44.78-26.96-90.63-65.69-110.21
	c-46.13-23.34-120.47-19.35-100.31-20.41c19-1,27.61-47.69,26-49c-1.54-1.25-23.69,27.21-41,42c-95-31-190.25,20.96-190,18
	c0.26-3.11,91.95-4.31,148.51,9.88c0.18,0.05,0.31,0.08,0.49,0.12c-11.66-5.32-27.47-9.8-45-7c-37.09,5.91-68.24,42.16-77,91
	c1.39,26.89,8.7,77.86,47,115C398.89,409.85,549.05,379.66,599.21,306.49z"/>
<path class="st1" d="M297.21,297.49c-10.38,4.58-10.06,25.47-10,28c1.09,43.16,55.54,68.45,59,70c12.05,5.4,24.6,11.04,30,6
	c10.43-9.73-12.72-52.96-40-81C326.82,310.84,308.84,292.37,297.21,297.49z"/>
<path class="st1" d="M600.64,297.93c10.38,4.58,10.06,25.47,10,28c-1.09,43.16-55.54,68.45-59,70c-12.05,5.4-24.6,11.04-30,6
	c-10.43-9.73,12.72-52.96,40-81C571.03,311.27,589.01,292.8,600.64,297.93z"/>
<path class="st1" d="M323.21,282.49c3,48,28,110,28,110s9,45,99,83c15.38-5.65,63.48-25.54,97-78c21-54,31.35-104.69,30-121
	c-9.02-56.66-54.24-130.14-123-132C381.99,142.54,330.84,220.89,323.21,282.49z"/>
<path class="st5" d="M475.76,344.74c-2.37-4.12-2.13-8.19-1.93-11.53c0.09-1.51,0.66-11.17,6.75-16.91
	c11.57-10.91,45.46-9.98,57.88,5.38c5.58,6.9,7.7,17.8,0.96,26.14c-9.27,11.48-28.98,10.29-33.77,9.99
	C503.01,357.65,482.33,356.17,475.76,344.74z"/>
<path class="st6" d="M543.21,349.49c0.37-2.46,2.7-19.66-10-31.15c-15.64-14.15-44.75-11.19-56,1.83c-2.9,3.36-4.3,7.02-5,10.08"/>
<circle class="st7" cx="502.46" cy="332.24" r="12.25"/>
<path class="st8" d="M535.71,350.99c-3.03,1.51-28.63,13.79-50,1c-5.27-3.15-9.16-7.16-12-11"/>
<circle class="st5" cx="508.24" cy="328.61" r="4.76"/>
<path class="st5" d="M413.29,343.33c2.37-4.12,2.13-8.19,1.93-11.53c-0.09-1.51-0.66-11.17-6.75-16.91
	c-11.57-10.91-45.46-9.98-57.88,5.38c-5.58,6.9-7.7,17.8-0.96,26.14c9.27,11.48,28.98,10.29,33.77,9.99
	C386.04,356.24,406.72,354.76,413.29,343.33z"/>
<path class="st6" d="M345.83,348.08c-0.37-2.46-2.7-19.66,10-31.15c15.64-14.15,44.75-11.19,56,1.83c2.9,3.36,4.3,7.02,5,10.08"/>
<circle class="st7" cx="386.58" cy="330.83" r="12.25"/>
<circle class="st5" cx="392.81" cy="327.19" r="4.76"/>
<path class="st8" d="M352.71,349.56c3.03,1.51,28.63,13.79,50,1c5.27-3.15,9.16-7.16,12-11"/>
<path class="st9" d="M429.21,213.49c-7,66-29,96-29,96s56-29,45-39c1.76,1.49-14,45-32,55c4.73,6.17,28.68-0.81,44-13
	c43.35-34.5,25.69-117.12,23-129"/>
<path class="st9" d="M460.21,199.49c14.01,28.85,62.09,68.06,100.58,100.55c6.89,5.82-1.42,24.24-12.58,42.45
	c3.27,3.09,12.2-1.57,14.1-2.56c14.74-7.68,24.59-25.25,24.9-47.44"/>
<path class="st8" d="M323.21,332.38"/>
<path class="st4" d="M588.21,286.49c16.73-14.19-7.66-108.46-76-144c-65.01-33.81-154.86-6.63-191,51c-20.8,33.16-27.38,81.62-11,92
	c28.84,18.27,125.02-83.91,136.5-72.5c4.98,4.95-11.12,26.16-4.5,32.5c7.01,6.71,25.92-16.2,49.5-12.5c23.3,3.66,24.19,29.06,59,46
	C560.21,283.62,580.16,293.32,588.21,286.49z"/>
<g>
	<g>
		<path d="M429.59,212.63c0.78-3.65,1.16-7.39,1.13-11.12c-0.01-1.07-1.29-1.96-2.26-1.3c-3.41,2.35-6.52,5.1-9.24,8.23
			c-0.53,0.61-0.6,1.52,0,2.12c0.54,0.54,1.59,0.61,2.12,0c2.55-2.93,5.44-5.55,8.63-7.76c-0.75-0.43-1.5-0.86-2.26-1.3
			c0.04,3.47-0.3,6.93-1.02,10.33c-0.17,0.79,0.23,1.62,1.05,1.85C428.5,213.88,429.43,213.42,429.59,212.63L429.59,212.63z"/>
	</g>
</g>
<g>
	<path d="M486.66,229.59c-0.74,0.01-0.84-7.33-3.11-21.84c-1.42-9.13-2.97-16.61-4.1-21.68c2.72,4.55,6.13,11.49,7.76,20.42
		C489.41,218.5,487.57,229.58,486.66,229.59z"/>
	<g>
		<path d="M486.66,228.09c0.38,0.04,1.05,0.54,1.12,0.59c0.02,0.01,0.09,0.37,0.07,0.15c-0.02-0.19-0.1-0.39-0.14-0.58
			c-0.16-0.76-0.17-1.05-0.26-1.76c-0.28-2.33-0.51-4.67-0.79-7.01c-0.92-7.81-2.12-15.58-3.59-23.3
			c-0.67-3.51-1.39-7.02-2.17-10.51c-0.91,0.39-1.83,0.77-2.74,1.16c4.15,6.98,6.96,14.7,8.04,22.76c0.58,4.34,0.71,8.76,0.39,13.12
			c-0.1,1.42-0.25,2.85-0.53,4.25c-0.1,0.47-0.21,0.94-0.35,1.4c-0.1,0.32-0.1,0.12-0.06,0.19c-0.02,0.05-0.05,0.1-0.08,0.14
			c0.16-0.27,0.39-0.44,0.7-0.54c-1.9,0.33-1.09,3.23,0.8,2.89c1.53-0.27,1.81-2.79,2.02-3.96c0.52-3.01,0.68-6.08,0.67-9.12
			c-0.03-7.98-1.44-15.95-4.42-23.36c-1.29-3.21-2.82-6.31-4.58-9.28c-0.89-1.49-3.11-0.49-2.74,1.16
			c1.69,7.58,3.12,15.21,4.29,22.89c0.93,6.14,1.48,12.32,2.32,18.47c0.19,1.35,0.34,3.1,2.04,3.27
			C488.58,231.28,488.57,228.28,486.66,228.09z"/>
	</g>
</g>
<g>
	<g>
		<path d="M592.81,287.43c0-3.52,0-7.03,0-10.55c0-0.81-0.69-1.5-1.5-1.5c-0.81,0-1.5,0.69-1.5,1.5c0,3.52,0,7.03,0,10.55
			c0,0.81,0.69,1.5,1.5,1.5C592.13,288.93,592.81,288.25,592.81,287.43L592.81,287.43z"/>
	</g>
</g>
<g>
	<g>
		<path d="M362.02,132.65c9.05-0.66,18.17-0.34,27.14,1.02c1.89,0.29,2.7-2.6,0.8-2.89c-9.25-1.4-18.6-1.81-27.94-1.13
			C360.11,129.79,360.09,132.79,362.02,132.65L362.02,132.65z"/>
	</g>
</g>
<g>
	<g>
		<path d="M470.78,173.78c-1.68-3.47-4.81-6.12-8.44-7.34c-0.74-0.25-1.67,0.29-1.85,1.05c-0.19,0.83,0.25,1.58,1.05,1.85
			c0.2,0.07,0.4,0.14,0.59,0.21c0.16,0.06,0.2,0.06,0.01,0c0.1,0.03,0.22,0.09,0.31,0.14c0.38,0.18,0.76,0.37,1.12,0.58
			c0.35,0.2,0.68,0.42,1.01,0.66c0.08,0.06,0.15,0.11,0.23,0.17c0.31,0.23-0.24-0.2,0.06,0.05c0.16,0.13,0.32,0.27,0.48,0.41
			c0.3,0.27,0.59,0.55,0.86,0.84c0.14,0.15,0.28,0.31,0.42,0.47c0.06,0.07,0.12,0.15,0.18,0.22c0.04,0.05,0.3,0.33,0.05,0.06
			c0.55,0.59,0.96,1.43,1.31,2.15c0.34,0.71,1.41,0.95,2.05,0.54C470.97,175.37,471.15,174.54,470.78,173.78L470.78,173.78z"/>
	</g>
</g>
<g>
	<g>
		<path d="M552.96,173.49c8.24,14.54,15.54,29.59,21.83,45.07c0.72,1.77,3.62,0.99,2.89-0.8c-6.38-15.72-13.76-31.02-22.13-45.79
			C554.6,170.29,552.01,171.8,552.96,173.49L552.96,173.49z"/>
	</g>
</g>
<g>
	<g>
		<path d="M306.39,234.16c0.55-4.03,2.17-7.72,3.86-11.38c1.77-3.84,3.6-7.66,5.48-11.45c3.72-7.51,7.64-14.92,11.75-22.23
			c0.95-1.68-1.64-3.2-2.59-1.51c-4.19,7.44-8.18,15-11.97,22.66c-1.87,3.79-3.7,7.61-5.47,11.46c-1.72,3.74-3.4,7.55-3.96,11.67
			c-0.11,0.81,0.2,1.6,1.05,1.85C305.24,235.41,306.28,234.96,306.39,234.16L306.39,234.16z"/>
	</g>
</g>
<path class="st10" d="M299.21,311.49c-1.18,3.76-3.06,11.56-1,21c1.38,6.34,4.03,11.08,6,14"/>
<path class="st10" d="M600.32,310.32c1.18,3.76,3.06,11.56,1,21c-1.38,6.34-4.03,11.08-6,14"/>
<path class="st11" d="M546.71,394.99c-0.16-0.01-20.35,26.64-31,22c-6.78-2.95-2.09-15.3-11-22c-6.19-4.65-18.04-3-41.5,0.5
	c-7.61,1.14-6.5,1.24-12,2c-29.43,4.06-39.16-1.29-47,5c-9.09,7.29-0.58,22.25-7,26c-10,5.85-36.32-24.26-37-24
	c-0.51,0.19-1.11,0.38-1.19,0.89c-2.69,17.72,89,74.44,91.69,69.61c0,0,41-17,61-37.25C528.39,422.57,539.53,406.98,546.71,394.99z"
	/>
<path class="st12" d="M400.21,1528.49c0,0-9.49,47.39-6,99c3.31,49.02,22.2,90.39,25,120c1.24,25.38,1.14,49.01-4,66
	c-8.09,5.12-31.96,18.74-64.52,16.43c-25.88-1.84-44.29-12.81-52.48-18.43c-1.56-6.42-3.46-16.11-4-28c-0.9-19.88,2.55-34.07,8-57
	c2.99-12.58,7.85-33.18,15-64c1.77-44.7,0.48-87.89-5-129C339.72,1539.47,369.35,1536.55,400.21,1528.49z"/>
<path class="st8" d="M405.21,1756.49c-26.14-29.43-87-20-97,1"/>
<path class="st8" d="M295.21,1794.49c40.99,18.4,81.99,18.89,123,1"/>
<path class="st12" d="M503.21,1528.49c1.48,21.25,2.61,43.26,3.28,66.01c0.56,18.83,0.78,37.17,0.72,54.99
	c-7.7,32.51-15.4,65.01-23.09,97.52c0,0-1.14,49.01,4,66c8.09,5.12,31.96,18.74,64.52,16.43c25.88-1.84,44.29-12.81,52.48-18.43
	c1.56-6.42,3.46-16.11,4-28c0.9-19.88-2.55-34.07-8-57c-2.99-12.58-7.85-33.18-15-64c-0.53-21.14-0.64-43.11-0.22-65.85
	c0.49-26.29,1.65-51.55,3.31-75.67c-6.46,4.51-20.66,13.14-40.83,15.28C526.94,1538.04,510.41,1531.74,503.21,1528.49z"/>
<path class="st8" d="M498.12,1756.01c26.14-29.43,87-20,97,1"/>
<path class="st8" d="M608.12,1794.01c-40.99,18.4-81.99,18.89-123,1"/>
<g>
	<path class="st13" d="M391.26,1669.67c2.36,16.03,5.38,31.95,9.07,47.73"/>
	<g>
		<path class="st13" d="M386.92,1670.86c2.36,16.03,5.39,31.95,9.07,47.73c0.53,2.29,3.29,3.87,5.54,3.14
			c2.4-0.78,3.72-3.08,3.14-5.54c-3.68-15.78-6.7-31.7-9.07-47.73c-0.34-2.34-3.42-3.83-5.54-3.14
			C387.51,1666.15,386.55,1668.36,386.92,1670.86L386.92,1670.86z"/>
	</g>
</g>
<g>
	<path class="st13" d="M577.35,1674.31c5.41,16.13,10.82,32.27,16.23,48.4"/>
	<g>
		<path class="st13" d="M573.01,1675.5c5.41,16.13,10.82,32.27,16.23,48.4c0.75,2.23,3.13,3.92,5.54,3.14
			c2.22-0.72,3.94-3.15,3.14-5.54c-5.41-16.13-10.82-32.27-16.23-48.4c-0.75-2.23-3.13-3.92-5.54-3.14
			C573.93,1670.68,572.21,1673.11,573.01,1675.5L573.01,1675.5z"/>
	</g>
</g>
<g>
	<g>
		<path class="st13" d="M364.64,1753.31c0.86,0.29,1.72,0.59,2.57,0.91c0.43,0.16,0.85,0.32,1.27,0.49c0.21,0.08,1.63,0.65,0.5,0.19
			c1.58,0.64,3.12,1.39,4.63,2.17c3.13,1.61,6.14,3.46,9,5.52c1.92,1.38,5.09,0.4,6.16-1.61c1.23-2.33,0.43-4.68-1.61-6.16
			c-6.13-4.41-12.95-7.8-20.12-10.19c-2.24-0.74-5.02,0.86-5.54,3.14C360.94,1750.25,362.25,1752.51,364.64,1753.31L364.64,1753.31z
			"/>
	</g>
</g>
<g>
	<g>
		<path class="st13" d="M553.71,1756.44c1.13,0.01,2.25,0.06,3.37,0.16c0.28,0.02,0.56,0.06,0.84,0.08c0.38,0.04,0.53,0.06,0.06,0
			c0.56,0.07,1.11,0.17,1.67,0.27c2.28,0.41,4.54,1.01,6.72,1.79c0.53,0.19,1.05,0.41,1.58,0.6c0.68,0.24-0.56-0.26,0.09,0.03
			c0.26,0.11,0.51,0.23,0.77,0.34c1.02,0.47,2.03,0.98,3.01,1.53c0.98,0.55,1.94,1.14,2.88,1.76c0.47,0.31,0.93,0.63,1.38,0.97
			c0.06,0.04,0.73,0.54,0.39,0.28c-0.37-0.29,0.56,0.45,0.54,0.43c1.83,1.48,4.6,1.92,6.36,0c1.51-1.64,1.95-4.78,0-6.36
			c-8.43-6.84-18.78-10.75-29.67-10.88c-2.35-0.03-4.61,2.09-4.5,4.5C549.32,1754.4,551.19,1756.41,553.71,1756.44L553.71,1756.44z"
			/>
	</g>
</g>
<line class="st14" x1="456.21" y1="327.49" x2="443.21" y2="335.49"/>
<line class="st14" x1="457.21" y1="332.49" x2="436.21" y2="345.49"/>
<line class="st14" x1="462.21" y1="335.49" x2="435.21" y2="352.49"/>
<line class="st14" x1="464.21" y1="341.49" x2="436.21" y2="358.49"/>
<line class="st14" x1="467.21" y1="345.49" x2="438.21" y2="362.49"/>
<path class="st15" d="M450.21,371.99c-0.17,4-0.33,8-0.5,12c-1.83-1.67-3.67-3.33-5.5-5"/>
<g>
	<g>
		<path class="st3" d="M356.14,361.28c-0.61,0.82-1.22,1.63-1.83,2.45c-0.11,0.17-0.17,0.36-0.18,0.56c-0.04,0.2-0.04,0.4,0.03,0.6
			c0.1,0.35,0.36,0.73,0.69,0.9c0.35,0.18,0.77,0.28,1.16,0.15c0.12-0.05,0.24-0.1,0.36-0.15c0.23-0.13,0.4-0.31,0.54-0.54
			c0.61-0.82,1.22-1.63,1.83-2.45c0.11-0.17,0.17-0.36,0.18-0.56c0.04-0.2,0.04-0.4-0.03-0.6c-0.1-0.35-0.36-0.72-0.69-0.9
			c-0.35-0.18-0.77-0.28-1.16-0.15c-0.12,0.05-0.24,0.1-0.36,0.15C356.46,360.88,356.28,361.06,356.14,361.28L356.14,361.28z"/>
	</g>
</g>
<g>
	<g>
		<path class="st3" d="M360.09,364.02c-0.2,0.31-0.41,0.61-0.61,0.92c-0.11,0.17-0.17,0.36-0.18,0.56c-0.04,0.2-0.04,0.4,0.03,0.6
			c0.05,0.2,0.14,0.37,0.27,0.51c0.11,0.16,0.25,0.29,0.42,0.39c0.12,0.05,0.24,0.1,0.36,0.15c0.27,0.07,0.53,0.07,0.8,0
			c0.12-0.05,0.24-0.1,0.36-0.15c0.23-0.13,0.4-0.31,0.54-0.54c0.2-0.31,0.41-0.61,0.61-0.92c0.11-0.17,0.17-0.36,0.18-0.56
			c0.04-0.2,0.04-0.4-0.03-0.6c-0.05-0.2-0.14-0.37-0.27-0.51c-0.11-0.16-0.25-0.29-0.42-0.39c-0.12-0.05-0.24-0.1-0.36-0.15
			c-0.27-0.07-0.53-0.07-0.8,0c-0.12,0.05-0.24,0.1-0.36,0.15C360.41,363.61,360.23,363.79,360.09,364.02L360.09,364.02z"/>
	</g>
</g>
<g>
	<g>
		<path class="st3" d="M529.58,363.87c0,0.51,0,1.02,0,1.53c-0.01,0.21,0.04,0.4,0.13,0.58c0.06,0.19,0.16,0.35,0.31,0.48
			c0.14,0.15,0.3,0.25,0.48,0.31c0.18,0.09,0.37,0.14,0.58,0.13c0.13-0.02,0.27-0.04,0.4-0.05c0.25-0.07,0.47-0.2,0.66-0.39
			c0.27-0.29,0.44-0.65,0.44-1.06c0-0.51,0-1.02,0-1.53c0.01-0.21-0.04-0.4-0.13-0.58c-0.06-0.19-0.16-0.35-0.31-0.48
			c-0.14-0.15-0.3-0.25-0.48-0.31c-0.18-0.09-0.37-0.14-0.58-0.13c-0.13,0.02-0.27,0.04-0.4,0.05c-0.25,0.07-0.47,0.2-0.66,0.39
			C529.75,363.1,529.58,363.46,529.58,363.87L529.58,363.87z"/>
	</g>
</g>
<g>
	<g>
		<path class="st3" d="M534.14,362.68c0.01,0.01,0.02,0.03,0.04,0.04c-0.08-0.1-0.16-0.2-0.23-0.3c0.24,0.32,0.44,0.66,0.6,1.03
			c-0.05-0.12-0.1-0.24-0.15-0.36c0.17,0.4,0.28,0.82,0.34,1.26c-0.02-0.13-0.04-0.27-0.05-0.4c0.05,0.38,0.05,0.76,0.01,1.13
			c-0.04,0.36,0.2,0.82,0.44,1.06c0.26,0.26,0.69,0.46,1.06,0.44c0.39-0.02,0.79-0.14,1.06-0.44c0.08-0.1,0.16-0.2,0.23-0.3
			c0.14-0.23,0.2-0.49,0.2-0.76c0.08-0.75,0-1.53-0.21-2.25c-0.12-0.4-0.28-0.8-0.47-1.18c-0.2-0.4-0.47-0.74-0.74-1.09
			c-0.22-0.28-0.72-0.44-1.06-0.44c-0.37,0-0.81,0.16-1.06,0.44c-0.26,0.29-0.46,0.66-0.44,1.06c0.02,0.13,0.04,0.27,0.05,0.4
			C533.82,362.27,533.95,362.49,534.14,362.68L534.14,362.68z"/>
	</g>
</g>
<path class="st9" d="M435.21,216.49c-12.82,8.94-94,84-101,114c-2,5,9.6,31.37,11,31c0.08-0.02,0.11-0.11,0.12-0.15
	c0.66-2.62-54.89-18.44-44.12-91.85"/>
<path class="st16" d="M236.21,945.49c-9.32-22.98-46.89-35.47-58-25c-6.56,6.18-0.38,17.04,7.5,51.5
	c14.68,64.16,7.8,94.41,28.5,104.5c1.9,0.93,10.53,5.13,16.5,1.5c13.15-8-7.14-41.56,0.5-91.5
	C234.75,963.4,241.07,957.46,236.21,945.49z"/>
<path class="st1" d="M230.21,1085.49c0,0,27,14,33,14c1.71-1.44,2.01-4.02,1.86-6.32c0,0,0.03-2.36-0.86-4.68c-1.55-4-13-9-13-9
	c-7.72-3.34-10.71-3.63-13-7c-1.45-2.13-2-6-2-6"/>
<path class="st1" d="M174.71,923.99c0.73,21.69-10.53,95.94-14,96c0,0,20.29,46.84,28,71l71,19c0.47-2,0.59-3.84,0.5-5.5
	c-0.9-16.92-24.34-26.9-27-28"/>
<path class="st1" d="M236.21,957.49c4,29-1,61-1,61c1.23,15.69,2.5,31.33,8,41c-1.73,6.5-7.11,7.99-15,6
	c-6.77-5.51-11.2-22.27-15-42c0,0-19.21-9.78-19.43-9.37c-0.02,0.04,0.12,0.16,0.43,0.37"/>
<path class="st1" d="M189.21,1025.49c7.12,15,13.28,30,18,45"/>
<path class="st16" d="M663.23,957.84c9.32-22.98,46.89-35.47,58-25c6.56,6.18,0.38,17.04-7.5,51.5
	c-14.68,64.16-7.8,94.41-28.5,104.5c-1.9,0.93-10.53,5.13-16.5,1.5c-13.15-8,7.14-41.56-0.5-91.5
	C664.7,975.74,658.37,969.81,663.23,957.84z"/>
<path class="st1" d="M669.23,1097.84c0,0-27,14-33,14c-1.71-1.44-2.01-4.02-1.86-6.32c0,0-0.03-2.36,0.86-4.68c1.55-4,13-9,13-9
	c7.72-3.34,10.71-3.63,13-7c1.45-2.13,2-6,2-6"/>
<path class="st1" d="M724.73,936.34c-0.73,21.69,10.53,95.94,14,96c0,0-20.29,46.84-28,71l-71,19c-0.47-2-0.59-3.84-0.5-5.5
	c0.9-16.92,24.34-26.9,27-28"/>
<path class="st1" d="M663.23,969.84c-4,29,1,61,1,61c-1.23,15.69-2.5,31.33-8,41c1.73,6.5,7.11,7.99,15,6
	c6.77-5.51,11.2-22.27,15-42c0,0,19.21-9.78,19.43-9.37c0.02,0.04-0.12,0.16-0.43,0.37"/>
<path class="st1" d="M710.23,1037.84c-7.12,15-13.28,30-18,45"/>
<path class="st17" d="M402.21,293.49c-23.83-0.75-45.82,3.13-65,14"/>
<path class="st17" d="M484.25,293.48c23.83-0.75,45.82,3.13,65,14"/>
<path class="st18" d="M530.5,513.44c31.67,6,63.33,12,95,18c7.75,21.46,10.98,43.27,13.71,65.05c13.88,110.47,61.48,208.21,82,297
	c11.61,29.33,19.3,58.66,18,88c-25.1,45.84-57.16,44.47-91,31c-25.33-130.27-65.12-261.25-87-392"/>
<path class="st18" d="M391.21,509.49c-31.67,6-63.33,12-95,18c-7.82,24.9-15.49,50.24-23,76c-17.62,60.47-33.2,119.53-47,177
	c-13.65,31.92-27.04,66.91-39.39,104.86c-8.34,25.65-15.49,50.42-21.61,74.14c3.41,6.84,14.9,27.7,40,39c15.21,6.85,29.12,7.34,37,7
	c36.33-132,72.67-264,109-396"/>
<g>
	<path class="st2" d="M325.21,561.49c15.48,41.26,6,236-3,301c-0.73,3.51,2,23,2,23s10.1,14.81,13,17c31.79,4.86,68.4,8.47,109,9
		c46.33,0.61,87.75-2.93,123-8c4.16-4.47,6.61-8.99,8-12c3.14,0.2-7.68-33.01-11-60c-1.38-11.19,7.49-18.13,8-22
		c1.47-11.2-0.31-36.69-0.58-86.55c-0.1-17.52-3.81-41.89-3.61-77.96c0.12-21.67,1.45-53.06,8.2-91.49"/>
	<path d="M325.33,561.45c3.35,9.59,4.44,19.9,5.57,29.94c5.57,70.94,1.7,142.32-2.88,213.22c-1.41,18.57-2.98,37.17-5.38,55.64
		c-0.13,1.29-0.56,3.67-0.4,5.03c0.29,6.76,1.22,13.49,2.1,20.2c4.02,5.5,7.94,11.99,12.93,16.95c18.98,2.87,38.49,5.15,57.77,6.64
		c58.03,4.49,116.5,1.91,174.15-5.74c2.81-3.21,6.09-7.63,7.95-11.96c0.42,0.08,0.48-0.53,0.51-0.96c-0.03-3.11-0.85-6.15-1.45-9.19
		c-2.32-10.43-4.94-20.8-7.03-31.28c-1.26-6.54-2.58-13.15-3.17-19.79c-0.27-4.04,0.97-8.06,2.91-11.56
		c1.53-3.18,4.32-5.78,5.2-9.23c0.42-3.53,0.51-7.1,0.55-10.65c0.12-7.27-0.39-24.57-0.51-32.05c-0.74-21.36,0.04-42.77-1.69-64.08
		c-4.46-49.69-3.19-99.94,5.64-149.1c0,0,0.23,0.04,0.23,0.04c-8.82,49.14-10.1,99.37-5.63,149.04c1.73,21.31,0.95,42.73,1.69,64.09
		c0.15,7.6,0.6,24.72,0.51,32.06c-0.04,3.56-0.13,7.13-0.55,10.68c-0.87,3.5-3.7,6.1-5.23,9.31c-1.92,3.48-3.14,7.44-2.88,11.44
		c0.59,6.63,1.91,13.23,3.17,19.76c2.09,10.48,4.7,20.85,7.02,31.28c0.61,3.06,1.43,6.12,1.46,9.25c-0.03,0.46-0.08,1.14-0.68,1.19
		c-1.58,3.87-4.72,8.74-7.97,12.05c-57.58,8.93-116.18,10.17-174.22,5.59c-19.36-1.53-38.67-3.75-57.86-6.69
		c-5.07-5.07-8.91-11.24-13.07-17.05c-0.88-6.72-1.81-13.44-2.1-20.22c-0.09-1.41,0.19-3.65,0.4-5.08
		c2.41-18.47,3.97-37.06,5.38-55.62c4.58-70.89,8.46-142.25,2.89-213.18c-1.11-10-2.23-20.34-5.56-29.88
		C325.1,561.54,325.33,561.45,325.33,561.45L325.33,561.45z"/>
</g>
<path class="st19" d="M477.21,544.49c-17.99,5.99-37.41,6.65-58,3c0.1-3.75,8,29,30,38C480.21,568.49,478.38,538.41,477.21,544.49z"
	/>
<path class="st2" d="M406.21,544.49c-3.57-10.65-16.34-15.55-26-14c-16.11,2.59-27.13,23.73-21,35c6,11.04,28.53,12.72,40,2
	C404.45,562.6,409.21,553.42,406.21,544.49z"/>
<path class="st2" d="M551.68,533.88c-3.39-11.02-17.16-16.07-26.97-15.89c-22.05,0.42-41.46,27.71-36,40
	c5.67,12.76,40.77,15.35,55.97-1.11C545.55,555.94,555.17,545.21,551.68,533.88z"/>
<path class="st18" d="M517.71,457.99c-22.53,26.22-44.45,49.49-64,61c6.83,16.83,13.67,33.67,20.5,50.5
	c9.75-9.75,22.82-21.1,39.59-31.8c14.35-9.16,27.91-15.61,39.41-20.2c-8.33-12.33-16.67-24.67-25-37
	C524.71,472.99,521.21,465.49,517.71,457.99z"/>
<path class="st18" d="M378.99,462.19c22.53,26.22,44.45,49.49,64,61c-6.83,16.83-13.67,33.67-20.5,50.5
	c-13.11-10.35-26.31-20.95-39.59-31.8c-10.39-8.49-20.62-16.95-30.69-25.4c5.19-7.31,10.8-16.31,16-27
	C373.04,479.57,376.49,470.3,378.99,462.19z"/>
<path class="st18" d="M569.21,903.49c4.6,14.24,9.07,29.14,13.31,44.68c5.8,21.27,10.65,41.76,14.69,61.32c0,0-8,311-8,311
	c3,7.33,6,14.67,9,22c-3.13,12.85-4.95,17.99-6,19c-0.04,0.04-0.19,0.17-0.3,0.4c-0.7,1.48,1.53,4.08,4.3,6.6c-1.33,4-2.67,8-4,12
	c-8.02,17.28-5.97,45.13-2,75c6.35,19.76,10.82,45.32,2,61c-13.49,23.96-64.36,23.78-88,13c-3.01-2.3-18-30-18-30s11.96-34.03,14-36
	c0,0-2-56-9-72c-1.86-1.94-8.12-7.83-7-14c0.64-3.51,3.99-8.99,4-9c-9.23-7.08-9.16-16.03-9-25c3-11,6-22,9-33
	c-20-118-37-243-37-243c-17.67-0.67-35.33-1.33-53-2"/>
<path class="st18" d="M337.21,902.49c-9,35.33-18,70.67-27,106c-0.47,103.5,5.73,207.29,10,311c-2,8.67-4,17.33-6,26
	c3.67,7.67,7.33,15.33,11,23l-7.99,43.65l-3.01,37.35l-16,23l7,26l-7,17c0,0,6.23,12.56,9,15c19.44,17.09,88.67-1.09,92.51-2.13
	c4.16-10.29,8.32-20.58,12.49-30.87c-2.83-11.71-5.66-23.42-8.49-35.13c-0.72-13.01,0.6-23.24,1.88-30
	c4.62-24.51,3.78-43.09,10.16-64.95c3.19-10.94,6.64-19.6,8.97-25.05c-3-11-9-33-9-33c8.82-40.4,16.84-83.9,23.37-130.26
	c5.49-38.99,9.42-76.28,12.12-111.61c21.34-0.84,32.01-1.51,32-2c-0.01-0.74-24.68-1.08-74-1"/>
<path class="st8" d="M327.21,941.49c82.63,4.63,166.31,5.23,252-2"/>
<g>
	<path d="M423.21,910.49c-0.33,12-0.67,24-1,36c21-0.33,42-0.67,63-1c-0.33-11.67-0.67-23.33-1-35
		C463.88,910.49,443.55,910.49,423.21,910.49z"/>
	<g>
		<path d="M421.71,910.49c-0.33,12-0.67,24-1,36c-0.02,0.8,0.71,1.51,1.5,1.5c21-0.33,42-0.67,63-1c0.79-0.01,1.52-0.68,1.5-1.5
			c-0.33-11.67-0.67-23.33-1-35c-0.02-0.81-0.67-1.5-1.5-1.5c-20.33,0-40.67,0-61,0c-1.93,0-1.93,3,0,3c20.33,0,40.67,0,61,0
			c-0.5-0.5-1-1-1.5-1.5c0.33,11.67,0.67,23.33,1,35c0.5-0.5,1-1,1.5-1.5c-21,0.33-42,0.67-63,1c0.5,0.5,1,1,1.5,1.5
			c0.33-12,0.67-24,1-36C424.77,908.56,421.77,908.56,421.71,910.49z"/>
	</g>
</g>
<g>
	<g>
		<path d="M377.78,907.01c-0.69,12.83-1.38,25.66-2.07,38.49c-0.1,1.93,2.9,1.92,3,0c0.69-12.83,1.38-25.66,2.07-38.49
			C380.88,905.08,377.88,905.08,377.78,907.01L377.78,907.01z"/>
	</g>
</g>
<g>
	<g>
		<path d="M365.41,907.23c-0.17,12.23-0.33,24.46-0.5,36.69c-0.03,1.93,2.97,1.93,3,0c0.17-12.23,0.33-24.46,0.5-36.69
			C368.44,905.3,365.44,905.3,365.41,907.23L365.41,907.23z"/>
	</g>
</g>
<g>
	<g>
		<path d="M365.46,944.79c4.46,2,9.27,2.66,14.11,1.92c0.8-0.12,1.24-1.13,1.05-1.85c-0.24-0.86-1.04-1.17-1.85-1.05
			c-2.06,0.31-4.37,0.32-6.49-0.04c-1.02-0.17-2.03-0.41-3.02-0.72c-0.83-0.26-1.69-0.59-2.29-0.86c-0.74-0.33-1.61-0.21-2.05,0.54
			C364.54,943.38,364.71,944.46,365.46,944.79L365.46,944.79z"/>
	</g>
</g>
<g>
	<g>
		<path d="M382.51,906.38c-0.6-0.62-1.35-1.33-2.1-1.77c-0.57-0.33-1.29-0.26-1.93-0.27c-0.75-0.02-1.5-0.05-2.25-0.07
			c-3-0.09-6.01-0.18-9.01-0.27c-1.93-0.06-1.93,2.94,0,3c4.13,0.12,8.26,0.25,12.39,0.37c-0.25-0.07-0.5-0.14-0.76-0.2
			c0.05,0.04,0.14,0.08,0.18,0.14c-0.2-0.26,0.2,0.16,0.28,0.22c0.38,0.31,0.75,0.63,1.09,0.98
			C381.73,909.89,383.85,907.77,382.51,906.38L382.51,906.38z"/>
	</g>
</g>
<path class="st8" d="M366.21,943.49"/>
<g>
	<g>
		<path d="M509.71,910.49c0.67,11.67,1.33,23.33,2,35c0.11,1.92,3.11,1.93,3,0c-0.67-11.67-1.33-23.33-2-35
			C512.6,908.57,509.6,908.56,509.71,910.49L509.71,910.49z"/>
	</g>
</g>
<g>
	<g>
		<path d="M522.71,909.49c0.41,11.71,0.81,23.41,1.22,35.12c0.07,1.93,3.07,1.93,3,0c-0.41-11.71-0.81-23.41-1.22-35.12
			C525.65,907.57,522.65,907.56,522.71,909.49L522.71,909.49z"/>
	</g>
</g>
<g>
	<g>
		<path d="M525.21,942.99c-4.67,0.33-9.33,0.67-14,1c-0.81,0.06-1.5,0.65-1.5,1.5c0,0.77,0.69,1.56,1.5,1.5
			c4.67-0.33,9.33-0.67,14-1c0.81-0.06,1.5-0.65,1.5-1.5C526.71,943.73,526.03,942.94,525.21,942.99L525.21,942.99z"/>
	</g>
</g>
<g>
	<path class="st13" d="M468.67,950.11c-2.48,35.13-4.97,70.25-7.45,105.38"/>
	<g>
		<path class="st13" d="M467.17,950.11c-1.93,27.34-3.87,54.68-5.8,82.02c-0.55,7.79-1.1,15.57-1.65,23.36c-0.14,1.93,2.86,1.92,3,0
			c1.93-27.34,3.87-54.68,5.8-82.02c0.55-7.79,1.1-15.58,1.65-23.36C470.31,948.19,467.3,948.2,467.17,950.11L467.17,950.11z"/>
	</g>
</g>
<g>
	<path class="st13" d="M437.68,952.97c-3.49,35.51-6.98,71.01-10.47,106.52"/>
	<g>
		<path class="st13" d="M436.18,952.97c-2.73,27.75-5.45,55.49-8.18,83.24c-0.76,7.76-1.53,15.52-2.29,23.29
			c-0.19,1.92,2.81,1.91,3,0c2.73-27.75,5.45-55.49,8.18-83.24c0.76-7.76,1.53-15.52,2.29-23.29
			C439.37,951.05,436.37,951.06,436.18,952.97L436.18,952.97z"/>
	</g>
</g>
<g>
	<path class="st13" d="M361.49,959.76c-0.95,11.6-1.9,23.2-2.86,34.79c-0.13,1.56-0.27,3.16-0.92,4.59
		c-1.24,2.72-3.46,4.14-4.01,4.51c-3.49,2.39-16.83,15.24-37.5,35.85"/>
	<g>
		<path class="st13" d="M359.99,959.76c-0.73,8.95-1.47,17.89-2.2,26.84c-0.18,2.24-0.37,4.47-0.55,6.71
			c-0.16,1.96-0.19,4.02-1.18,5.78c-0.9,1.61-2.25,2.6-3.68,3.68c-2.43,1.84-4.66,3.96-6.89,6.04c-3.92,3.65-7.76,7.37-11.59,11.11
			c-6.29,6.13-12.52,12.32-18.74,18.52c-1.37,1.36,0.75,3.49,2.12,2.12c9.75-9.72,19.5-19.48,29.55-28.89
			c2.33-2.18,4.66-4.42,7.18-6.39c-0.32,0.25,0.13-0.1,0.25-0.18c0.2-0.14,0.4-0.27,0.6-0.41c1.08-0.77,2.05-1.64,2.87-2.69
			c2.55-3.28,2.42-7.46,2.75-11.41c0.84-10.27,1.69-20.54,2.53-30.82C363.15,957.83,360.15,957.84,359.99,959.76L359.99,959.76z"/>
	</g>
</g>
<g>
	<path class="st13" d="M538.85,950.8c-0.05,8.17-0.09,16.34-0.14,24.51c-0.01,1.35,0.03,2.82,0.88,3.86
		c0.69,0.84,1.77,1.22,2.79,1.57c12.15,4.1,24.29,8.21,36.44,12.31"/>
	<g>
		<path class="st13" d="M537.35,950.8c-0.03,4.82-0.05,9.64-0.08,14.46c-0.01,2.45-0.03,4.9-0.04,7.35
			c-0.01,1.94-0.28,4.15,0.39,6.02c0.68,1.88,2.24,2.79,4.03,3.43c2.31,0.83,4.65,1.57,6.97,2.36c4.65,1.57,9.31,3.14,13.96,4.72
			c5.28,1.79,10.57,3.57,15.85,5.36c1.83,0.62,2.62-2.28,0.8-2.89c-8.76-2.96-17.51-5.92-26.26-8.87c-2.13-0.72-4.26-1.44-6.39-2.16
			c-1.1-0.37-2.21-0.75-3.31-1.12c-0.77-0.26-1.76-0.48-2.36-1.08c-1.21-1.2-0.68-3.99-0.67-5.52c0.01-2.21,0.03-4.41,0.04-6.62
			c0.03-5.15,0.06-10.3,0.09-15.44C540.36,948.87,537.36,948.87,537.35,950.8L537.35,950.8z"/>
	</g>
</g>
<path class="st20" d="M328.21,1077.49c-2.46,55.32,2.87,127.32,16,216"/>
<path class="st20" d="M347.21,1362.49c-6.28,42.67-9.62,85.33-10,128"/>
<g>
	<path class="st13" d="M572.21,1084.49c-0.67,92.67-1.33,185.33-2,278"/>
	<path class="st13" d="M572.71,1084.5c3.31,46.18,3.56,92.77,3.09,139.03c-0.64,46.19-1.79,92.88-5.09,138.97c0,0-1-0.01-1-0.01
		c-3.65-69.38-3.87-139.1-1.95-208.52c0.38-10.1,0.94-24.75,1.51-34.74c0.65-11.58,1.35-23.16,2.44-34.73L572.71,1084.5
		L572.71,1084.5z"/>
</g>
<path class="st20" d="M576.21,1402.49c-3.38,36.31-6.95,69.93-11,97c-11.19,15.69-26.03,22.69-42,27"/>
<g>
	<g>
		<path d="M514.55,496.79c-3.35,2.75-7.03,5.03-10.94,6.89c-1.57,0.75-3.16,1.52-4.27,2.9c-1.23,1.53-1.87,3.53-2.63,5.32
			c-3.68,8.65-7.37,17.31-11.05,25.96c-0.37,0.88,0.92,1.64,1.3,0.76c3.62-8.5,7.24-17,10.86-25.5c0.81-1.9,1.45-4.22,2.85-5.79
			c1.26-1.42,3.19-2.08,4.85-2.9c3.62-1.8,6.99-4.02,10.1-6.58C516.36,497.24,515.29,496.19,514.55,496.79L514.55,496.79z"/>
	</g>
</g>
<g>
	<g>
		<path d="M373.67,496.27c2.59,0.11,5.43,0.2,7.69,1.64c1.81,1.15,3.17,3.4,2.47,5.56c-0.3,0.92,1.15,1.31,1.45,0.4
			c0.87-2.67-0.63-5.42-2.77-6.99c-2.5-1.84-5.85-1.98-8.84-2.11C372.7,494.73,372.71,496.23,373.67,496.27L373.67,496.27z"/>
	</g>
</g>
<g>
	<path d="M567.65,823.73c-1.65,11.3-7.11,21.24-13.52,30.45c-2.22,3-4.56,5.93-7.48,8.55l-0.88-0.47c2.37-13.32,10.8-30.01,21-39
		C566.77,823.26,567.65,823.73,567.65,823.73L567.65,823.73z"/>
</g>
<g>
	<path class="st13" d="M373.21,607.49c16.06,82.14,33.1,158.71,53,219"/>
	<path class="st13" d="M373.33,607.47c14.04,69,28.48,138.06,48.81,205.53c1.35,4.5,2.79,8.97,4.18,13.45l-0.22,0.07
		c-11.99-35.63-21.5-72.05-30.01-108.65C387.92,681.37,379.5,643.93,373.33,607.47L373.33,607.47z"/>
</g>
<g>
	<path class="st13" d="M351.21,835.49c24.28,33.45,56.92,50.17,92,62"/>
	<path class="st13" d="M351.31,835.42c21.57,29.21,51.72,47.18,85.32,59.54c0,0,6.63,2.41,6.63,2.41l-0.08,0.23l-6.7-2.23
		c-24.43-8.38-48.1-20.51-66.89-38.47c-6.85-6.48-13.02-13.67-18.47-21.34L351.31,835.42L351.31,835.42z"/>
</g>
<line class="st21" x1="541.21" y1="603.49" x2="500.21" y2="707.49"/>
<path class="st8" d="M127.71,17.99L127.71,17.99L127.71,17.99z"/>
<path class="st8" d="M507.21,493.49"/>
<path class="st8" d="M507.21,484.49"/>
<path class="st8" d="M511.21,483.49"/>
<g>
	<path class="st13" d="M465.27,623.82c3.88,2.15,7.99,3.89,12.23,5.19"/>
	<g>
		<path class="st13" d="M464.51,625.12c4,2.2,8.23,3.99,12.59,5.34c1.85,0.57,2.64-2.32,0.8-2.89c-4.12-1.28-8.09-2.96-11.87-5.04
			C464.33,621.6,462.82,624.19,464.51,625.12L464.51,625.12z"/>
	</g>
</g>
<g>
	<path class="st13" d="M469.34,678.43c1.43,0.5,2.86,1,4.29,1.5"/>
	<g>
		<path class="st13" d="M468.94,679.87c1.43,0.5,2.86,1,4.29,1.5c0.35,0.12,0.84,0.03,1.16-0.15c0.31-0.18,0.61-0.54,0.69-0.9
			c0.19-0.84-0.25-1.57-1.05-1.85c-1.43-0.5-2.86-1-4.29-1.5c-0.35-0.12-0.84-0.03-1.16,0.15c-0.31,0.18-0.61,0.54-0.69,0.9
			C467.7,678.87,468.15,679.6,468.94,679.87L468.94,679.87z"/>
	</g>
</g>
<g>
	<path class="st13" d="M469.05,731.54c2.57,0.64,5.09,1.45,7.56,2.41"/>
	<g>
		<path class="st13" d="M468.65,732.98c2.57,0.65,5.09,1.45,7.56,2.41c0.73,0.28,1.68-0.31,1.85-1.05c0.2-0.86-0.26-1.54-1.05-1.85
			c-2.47-0.96-4.99-1.76-7.56-2.41c-0.76-0.19-1.66,0.25-1.85,1.05C467.43,731.92,467.84,732.78,468.65,732.98L468.65,732.98z"/>
	</g>
</g>
<g>
	<path class="st13" d="M471.52,784.53c2.19,1.18,4.53,2.08,6.95,2.65"/>
	<g>
		<path class="st13" d="M470.77,785.83c2.3,1.24,4.77,2.19,7.31,2.8c0.76,0.18,1.66-0.24,1.85-1.05c0.18-0.77-0.23-1.65-1.05-1.85
			c-1.19-0.28-2.36-0.64-3.5-1.07c-0.28-0.1-0.55-0.21-0.82-0.33c0.33,0.14-0.17-0.07-0.22-0.1c-0.12-0.05-0.23-0.1-0.35-0.16
			c-0.58-0.26-1.14-0.55-1.7-0.85c-0.69-0.37-1.66-0.2-2.05,0.54C469.86,784.47,470.03,785.43,470.77,785.83L470.77,785.83z"/>
	</g>
</g>
<g>
	<path class="st13" d="M470.18,834.18c2.11,1.46,4.4,2.64,6.82,3.51"/>
	<g>
		<path class="st13" d="M469.42,835.47c2.22,1.53,4.64,2.74,7.17,3.66c0.74,0.27,1.67-0.3,1.85-1.05c0.19-0.84-0.26-1.56-1.05-1.85
			c-0.31-0.11-0.61-0.22-0.91-0.34c-0.15-0.06-0.3-0.12-0.45-0.18c0.34,0.16-0.14-0.06-0.2-0.09c-0.56-0.25-1.11-0.51-1.65-0.79
			c-1.12-0.58-2.2-1.23-3.24-1.95c-0.65-0.45-1.69-0.14-2.05,0.54C468.48,834.18,468.73,834.99,469.42,835.47L469.42,835.47z"/>
	</g>
</g>
<path class="st22" d="M619.21,501.49c-5.13-6.44-12.35-8.8-16-10c-1.98-0.65-17.98-5.61-33,3c-15.89,9.11-25.8,30.6-19,46
	c8.98,20.35,45.34,26.05,63,9C626.76,537.38,629.38,514.27,619.21,501.49z"/>
<path class="st23" d="M627.71,524.13c-20.57-19.59-46.59-23.03-76.9-13.73c-1.2,2.94-2.4,5.88-3.6,8.83
	c25.52,0.77,51.47,3.05,79.3,11.77C626.91,528.71,627.31,526.42,627.71,524.13z"/>
<path class="st23" d="M295.31,522.4c17.99-19.59,40.74-23.03,67.25-13.73c1.05,2.94,2.1,5.88,3.15,8.83
	c-22.31,0.77-45.01,3.05-69.35,11.77C296.02,526.98,295.66,524.69,295.31,522.4z"/>
<g>
	<g>
		<path d="M430.75,434.55c14.72,1.44,31.09,1.7,43.41-7.78c0.75-0.58,0.01-1.88-0.76-1.3c-12.12,9.33-28.17,8.99-42.65,7.58
			C429.79,432.96,429.8,434.46,430.75,434.55L430.75,434.55z"/>
	</g>
</g>
<g>
	<path class="st13" d="M469.69,888.97c2.56,0.77,5.12,1.54,7.69,2.3"/>
	<g>
		<path class="st13" d="M469.29,890.42c2.56,0.77,5.12,1.54,7.69,2.3c0.75,0.23,1.67-0.27,1.85-1.05c0.18-0.81-0.24-1.6-1.05-1.85
			c-2.56-0.77-5.12-1.54-7.69-2.3c-0.75-0.23-1.67,0.27-1.85,1.05C468.06,889.38,468.49,890.17,469.29,890.42L469.29,890.42z"/>
	</g>
</g>
<g>
	<path d="M446.71,595.44c10.88,78.4,13.81,157.91,12.45,237c-0.25,12.61-0.59,26.97-1.34,39.56c-0.69,13.18-1.34,26.35-2.11,39.52
		l-1-0.05c0.27-13.19,0.65-26.36,0.99-39.54c0.94-32.57,0.65-66.21,0.05-98.81c-0.69-32.93-2.34-65.83-4.39-98.7
		c-1.68-26.29-3.62-52.57-5.64-78.87L446.71,595.44L446.71,595.44z"/>
</g>
<g>
	<path d="M468.1,616.99c-0.34,7.97,9.37,12.07,14.83,6.21c3.19-3.33,2.96-8.99-0.4-12.03C477.43,606.26,468.29,609.79,468.1,616.99
		L468.1,616.99z M466.33,616.99c-0.3-9.58,11.31-14.61,18.01-7.62c4,4.02,3.78,11.13-0.4,14.84
		C477.62,630.28,466.55,625.78,466.33,616.99L466.33,616.99z"/>
</g>
<g>
	<path d="M468.09,669.99c-0.31,7.95,9.39,12.07,14.87,6.24c3.22-3.34,3.02-9.06-0.37-12.12
		C477.46,659.14,468.25,662.76,468.09,669.99L468.09,669.99z M466.34,669.99c-0.27-9.54,11.27-14.5,17.94-7.56
		c3.97,3.99,3.77,11.04-0.37,14.75C477.6,683.28,466.53,678.8,466.34,669.99L466.34,669.99z"/>
</g>
<g>
	<path d="M469.21,722.99c-0.4,7.96,9.27,12.09,14.71,6.2c3.14-3.33,2.88-8.96-0.49-11.92C478.47,712.52,469.42,716,469.21,722.99
		L469.21,722.99z M467.22,722.99c-0.36-9.77,11.43-14.87,18.22-7.72c4,4.09,3.74,11.24-0.49,14.95
		C478.66,736.26,467.45,731.77,467.22,722.99L467.22,722.99z"/>
</g>
<g>
	<path d="M469.3,775.99c-0.39,7.89,9.22,12.11,14.68,6.26c3.22-3.32,2.95-9.09-0.48-12.04C478.51,765.46,469.51,769.05,469.3,775.99
		L469.3,775.99z M467.13,775.99c-0.37-5.75,4.67-11.3,10.58-11.04c9.45,0.09,14.04,11.81,7.17,18.21
		C478.56,789.23,467.39,784.88,467.13,775.99L467.13,775.99z"/>
</g>
<g>
	<path d="M469.14,826.99c-0.34,4.67,3.75,9.24,8.57,8.97c7.6-0.07,11.29-9.62,5.74-14.71C478.41,816.42,469.36,819.87,469.14,826.99
		L469.14,826.99z M467.29,826.99c-0.34-9.67,11.36-14.78,18.12-7.7c4.03,4.06,3.77,11.23-0.45,14.95
		C478.67,840.28,467.51,835.75,467.29,826.99L467.29,826.99z"/>
</g>
<g>
	<path d="M469.43,879.99c-0.4,4.55,3.51,9.19,8.29,9c7.6-0.01,11.3-9.67,5.59-14.6C478.5,869.89,469.71,873.31,469.43,879.99
		L469.43,879.99z M467,879.99c-0.45-7.91,7.67-13.76,15.02-10.39c6.94,2.97,8.52,12.69,2.92,17.61
		C478.62,893.21,467.31,888.84,467,879.99L467,879.99z"/>
</g>
<g>
	<g>
		<path class="st13" d="M555.18,802.91c-14.51,6.26-29.54,11.3-44.88,15.11c-0.74,0.18-1.32,1.09-1.05,1.85
			c3.04,8.5,4.63,17.42,4.7,26.45c0.01,1.93,3.01,1.93,3,0c-0.07-9.28-1.68-18.51-4.81-27.25c-0.35,0.62-0.7,1.23-1.05,1.85
			c15.6-3.87,30.84-9.05,45.6-15.41C558.46,804.73,556.93,802.15,555.18,802.91L555.18,802.91z"/>
	</g>
</g>
<g>
	<g>
		<path class="st13" d="M520.69,707.48c9.99,0,19.97,0,29.96,0c1.93,0,1.93-3,0-3c-9.99,0-19.97,0-29.96,0
			C518.76,704.48,518.76,707.48,520.69,707.48L520.69,707.48z"/>
	</g>
</g>
<g>
	<g>
		<path class="st13" d="M322.46,565.89c-6.08,22.23-10.53,44.88-13.32,67.76c-0.79,6.46-1.44,12.94-1.96,19.43
			c-0.15,1.92,2.85,1.91,3,0c1.83-22.78,5.32-45.42,10.45-67.69c1.44-6.27,3.02-12.5,4.72-18.7
			C325.86,564.82,322.97,564.03,322.46,565.89L322.46,565.89z"/>
	</g>
</g>
<g>
	<g>
		<path class="st13" d="M234.51,788.53c-0.04,2.79,0.81,5.41,1.65,8.04c0.91,2.83,1.82,5.65,2.73,8.48
			c1.8,5.58,3.59,11.15,5.39,16.73c0.59,1.83,3.49,1.05,2.89-0.8c-1.75-5.42-3.49-10.84-5.24-16.26c-0.86-2.67-1.72-5.34-2.58-8.01
			c-0.86-2.66-1.89-5.35-1.85-8.18C237.54,786.59,234.54,786.59,234.51,788.53L234.51,788.53z"/>
	</g>
</g>
<g>
	<g>
		<path class="st13" d="M702.65,903.25c-13.71,12.02-27.77,24.41-36.87,40.46c-0.99,1.75-3.15,4.58-1.58,6.56
			c0.7,0.88,1.74,1.02,2.79,1.13c1.47,0.15,2.95,0.29,4.42,0.43c1.92,0.19,1.91-2.81,0-3c-1.09-0.11-2.17-0.21-3.26-0.32
			c-0.36-0.04-1.22,0.06-1.5-0.16c0,0,0.31-0.56,0.5-0.9c0.95-1.81,1.98-3.58,3.06-5.32c2.14-3.41,4.5-6.67,7.05-9.79
			c5.17-6.32,10.99-12.08,16.99-17.6c3.46-3.18,6.99-6.28,10.52-9.37C706.23,904.1,704.1,901.98,702.65,903.25L702.65,903.25z"/>
	</g>
</g>
<g>
	<g>
		<path class="st13" d="M613.24,554.85c-8.04,8.9-15.93,17.94-23.65,27.12c-1.24,1.47,0.88,3.6,2.12,2.12
			c7.72-9.18,15.6-18.22,23.65-27.12C616.65,555.55,614.53,553.42,613.24,554.85L613.24,554.85z"/>
	</g>
</g>
<g>
	<g>
		<path class="st13" d="M242.49,842.03c-0.1,3.32,0.08,6.63,0.54,9.93c0.42,3.03,0.94,6.27,2.11,9.11c0.49,1.19,1.23,2.26,2.4,2.87
			c1.3,0.68,2.83,0.79,4.26,0.96c3.3,0.39,6.62,0.48,9.93,0.32c1.92-0.09,1.93-3.09,0-3c-2.9,0.14-5.81,0.09-8.7-0.19
			c-1.21-0.12-2.58-0.15-3.73-0.58c-1.07-0.4-1.41-1.41-1.71-2.43c-1.63-5.51-2.29-11.27-2.11-17
			C245.55,840.1,242.55,840.1,242.49,842.03L242.49,842.03z"/>
	</g>
</g>
<g>
	<g>
		<path class="st13" d="M333.81,523.94c10.32,2.76,20.71,5.21,31.17,7.37c1.88,0.39,2.69-2.5,0.8-2.89
			c-10.46-2.16-20.86-4.62-31.17-7.37C332.74,520.55,331.94,523.44,333.81,523.94L333.81,523.94z"/>
	</g>
</g>
<g>
	<path class="st24" d="M292.65,652.99c-10.98-0.33-21.96-0.67-32.93-1c-0.74,3.8-1.47,6.88-2,9c-1.66,6.64-4.72,17.27-5.55,20.49
		c0,0-0.01,0.03-0.01,0.03c-0.61,2.37-1.05,4.1-1.08,4.25c-0.76,3-3.51,11.84-5.36,19.23c-0.51,2.01-1.24,5.12-2,9
		c25,0.23,50,0.45,75,0.68L292.65,652.99z"/>
	<path class="st25" d="M305.97,705.75l-58.51-0.26c1.64-6.58,3.29-13.15,4.93-19.73l44.6,0.21L305.97,705.75z"/>
	<path class="st26" d="M295.3,681.67l-41.84-0.19c1.65-6.57,3.29-13.15,4.93-19.72l27.93,0.13L295.3,681.67z"/>
</g>
<path class="st27" d="M235.17,747.67c-0.66,2.61-1.31,5.21-1.96,7.82"/>
<g>
	<path class="st24" d="M585.66,705.14h76.05c-0.79-3.06-1.57-6.12-2.37-9.18c-1.7-6.58-3.4-13.15-5.1-19.73
		c-1.1-4.27-1.09-4.23-1.11-4.28c-1.82-7.26-2.54-11.23-4.43-19.96c-0.44-2.04-1.12-5.16-2-9c-11.54,0.16-23.08,0.31-34.62,0.47
		L585.66,705.14z"/>
	<path class="st25" d="M598.4,696.22l58.51-0.26c-1.64-6.58-3.29-13.15-4.93-19.73l-44.6,0.21L598.4,696.22z"/>
	<path class="st26" d="M609.07,672.14l41.84-0.19c-1.65-6.57-3.29-13.15-4.93-19.72l-27.93,0.13L609.07,672.14z"/>
</g>
</svg>
