<?xml version="1.0" encoding="utf-8"?>
<!-- Generator: Adobe Illustrator 28.3.0, SVG Export Plug-In . SVG Version: 6.00 Build 0)  -->
<svg version="1.1" id="Layer_1" xmlns="http://www.w3.org/2000/svg" xmlns:xlink="http://www.w3.org/1999/xlink" x="0px" y="0px"
	 viewBox="0 0 617 305" style="enable-background:new 0 0 617 305;" xml:space="preserve">
<style type="text/css">
	.st0{fill:#FFFFFF;}
	.st1{fill:#20382B;stroke:#000000;stroke-miterlimit:10;}
	.st2{fill:#FFE3CB;stroke:#000000;stroke-miterlimit:10;}
	.st3{fill:#FFB995;}
	.st4{fill:#332C26;}
	.st5{stroke:#000000;stroke-width:0.5;stroke-miterlimit:10;}
	.st6{fill:#332C26;stroke:#000000;stroke-miterlimit:10;}
	.st7{fill:none;stroke:#000000;stroke-miterlimit:10;}
	.st8{fill:none;stroke:#FFB995;stroke-miterlimit:10;}
	.st9{opacity:0.44;fill:#D8B8A3;}
	.st10{fill:#FFB995;stroke:#000000;stroke-width:0.5;stroke-miterlimit:10;}
	.st11{fill:none;stroke:#000000;stroke-width:2;stroke-miterlimit:10;}
	.st12{fill:#305437;stroke:#000000;stroke-miterlimit:10;}
	.st13{fill:#305437;}
	.st14{fill:#FFFFFF;stroke:#000000;stroke-miterlimit:10;}
	.st15{fill:#C87529;stroke:#000000;stroke-miterlimit:10;}
	.st16{fill:#304D37;stroke:#000000;stroke-miterlimit:10;}
	.st17{fill:#20382B;}
	.st18{fill:none;stroke:#F48E8E;stroke-width:30;stroke-miterlimit:10;}
	.st19{stroke:#000000;stroke-width:0.75;stroke-miterlimit:10;}
	.st20{display:none;fill:none;stroke:#000000;stroke-width:3;stroke-miterlimit:10;}
	.st21{display:none;fill:#722E2E;stroke:#000000;stroke-miterlimit:10;}
	.st22{display:none;fill:#FFFFFF;stroke:#000000;stroke-miterlimit:10;}
	.st23{fill:#FFE3CB;}
	.st24{display:none;fill:#FFFFFF;}
	.st25{fill:none;stroke:#000000;stroke-width:3;stroke-miterlimit:10;}
</style>
<g>
	<path class="st0" d="M577.53,152.48c0,39.59-21.76,74.31-54.43,93.73c-7.62,4.53-15.84,8.23-24.51,10.96
		c-0.14,0.04-0.27,0.09-0.41,0.13c-11.15,3.47-23.06,5.35-35.42,5.35c-4.32,0-8.57-0.23-12.77-0.68
		c-9.77-1.04-19.17-3.25-28.04-6.49c-0.49-0.18-0.98-0.36-1.46-0.55c-2.71-1.03-5.37-2.16-7.97-3.37c-4.8-2.24-9.41-4.8-13.8-7.64
		c-30.6-19.79-50.73-53.36-50.73-91.43c0-60.84,51.38-110.16,114.77-110.16c0.19,0,0.38,0,0.56,0
		C526.45,42.61,577.53,91.82,577.53,152.48z"/>
	<g>
		<path class="st1" d="M442.55,186.37c14.66-0.42,29.31-0.85,43.97-1.27c-0.43,11.73-10.07,21.16-21.67,21.35
			C453.46,206.63,443.64,197.85,442.55,186.37z"/>
		<path class="st2" d="M484.29,171.71c0.84,7.5-1.91,4.14-2.55,28.68c-0.94,2.95-2.86,8.22-7.01,13.7
			c-3.19,4.21-5.94,7.84-9.56,7.97c-6.03,0.21-10.69-9.45-12.74-13.7c-4.31-8.92-1.91-20.39-3.5-33.77
			C455.63,166.22,470.81,164.1,484.29,171.71z"/>
		<g>
			<path class="st3" d="M449.72,174.42c3.82-2.05,11.61-5.51,21.77-5.13c5.36,0.2,9.79,1.41,12.96,2.58
				c-0.64,4.78-1.27,9.56-1.91,14.34c0,0-7.34,5.97-11.57,7.32c-5.49,1.74-10.49,1.56-14.84,1.34c-2.69-0.14-4.9-0.44-6.4-0.69
				V174.42z"/>
		</g>
		<path class="st4" d="M512.65,136.98c1.77-2.57,6.13-9.68,6.37-19.24c0.36-14.27-8.59-28.87-20.93-35.12
			c-14.7-7.44-38.38-6.17-31.96-6.5c6.05-0.32,8.8-15.2,8.28-15.61c-0.49-0.4-7.55,8.67-13.06,13.38
			c-30.27-9.88-60.62,6.68-60.54,5.74c0.08-0.99,29.3-1.37,47.32,3.15c0.06,0.01,0.1,0.02,0.16,0.04c-3.72-1.7-8.75-3.12-14.34-2.23
			c-11.82,1.88-21.74,13.43-24.53,28.99c0.44,8.57,2.77,24.81,14.97,36.64C448.82,169.91,496.66,160.3,512.65,136.98z"/>
		<path class="st2" d="M416.42,134.12c-3.31,1.46-3.21,8.11-3.19,8.92c0.35,13.75,17.69,21.81,18.8,22.3
			c3.84,1.72,7.84,3.52,9.56,1.91c3.32-3.1-4.05-16.87-12.74-25.81C425.86,138.37,420.13,132.48,416.42,134.12z"/>
		<path class="st2" d="M513.1,134.26c3.31,1.46,3.21,8.11,3.19,8.92c-0.35,13.75-17.69,21.81-18.8,22.3
			c-3.84,1.72-7.84,3.52-9.56,1.91c-3.32-3.1,4.05-16.87,12.74-25.81C503.67,138.51,509.39,132.62,513.1,134.26z"/>
		<path class="st2" d="M424.71,129.34c0.96,15.29,8.92,35.05,8.92,35.05s2.87,14.34,31.54,26.45c4.9-1.8,20.23-8.14,30.91-24.85
			c6.69-17.21,9.99-33.36,9.56-38.55c-2.87-18.05-17.28-41.47-39.19-42.06C443.44,84.75,427.14,109.71,424.71,129.34z"/>
		<circle class="st5" cx="481.82" cy="145.19" r="3.9"/>
		<circle class="st0" cx="483.66" cy="144.03" r="1.52"/>
		<circle class="st5" cx="444.9" cy="144.74" r="3.9"/>
		<circle class="st0" cx="446.88" cy="143.58" r="1.52"/>
		<path class="st6" d="M458.48,107.35c-2.23,21.03-9.24,30.59-9.24,30.59s17.84-9.24,14.34-12.43c0.56,0.47-4.46,14.34-10.2,17.52
			c1.51,1.97,9.14-0.26,14.02-4.14c13.81-10.99,8.19-37.32,7.33-41.1"/>
		<path class="st6" d="M468.36,102.89c4.46,9.19,19.78,21.69,32.05,32.04c2.2,1.85-0.45,7.72-4.01,13.53
			c1.04,0.98,3.89-0.5,4.49-0.82c4.7-2.45,7.83-8.04,7.93-15.12"/>
		<path class="st7" d="M424.71,145.23"/>
		<path class="st4" d="M509.14,130.61c5.33-4.52-2.44-34.56-24.21-45.88c-20.71-10.77-49.34-2.11-60.86,16.25
			c-6.63,10.57-8.72,26.01-3.5,29.31c9.19,5.82,39.83-26.73,43.49-23.1c1.59,1.58-3.54,8.34-1.43,10.36
			c2.23,2.14,8.26-5.16,15.77-3.98c7.42,1.17,7.71,9.26,18.8,14.66C500.22,129.69,506.58,132.79,509.14,130.61z"/>
		<g>
			<g>
				<path d="M459.59,107.35c0.27-1.25,0.41-2.54,0.4-3.82c-0.01-0.53-0.28-1.03-0.74-1.3c-0.44-0.26-1.08-0.3-1.51,0
					c-1.16,0.8-2.23,1.72-3.15,2.78c-0.26,0.3-0.44,0.65-0.44,1.06c0,0.37,0.16,0.81,0.44,1.06c0.29,0.26,0.66,0.46,1.06,0.44
					c0.38-0.02,0.8-0.14,1.06-0.44c0.65-0.75,1.37-1.43,2.16-2.04c-0.1,0.08-0.2,0.16-0.3,0.23c0.22-0.17,0.45-0.34,0.69-0.5
					c-0.75-0.43-1.5-0.86-2.26-1.3c0.01,0.75-0.04,1.5-0.14,2.24c0.02-0.13,0.04-0.27,0.05-0.4c-0.05,0.39-0.12,0.78-0.2,1.17
					c-0.08,0.39-0.06,0.8,0.15,1.16c0.18,0.31,0.54,0.61,0.9,0.69c0.38,0.09,0.82,0.07,1.16-0.15
					C459.22,108.04,459.51,107.73,459.59,107.35L459.59,107.35z"/>
			</g>
		</g>
		<g>
			<path d="M476.78,112.48c-0.24,0-0.27-2.34-0.99-6.96c-0.45-2.91-0.95-5.29-1.31-6.91c0.87,1.45,1.95,3.66,2.47,6.51
				C477.66,108.95,477.07,112.48,476.78,112.48z"/>
			<g>
				<path d="M477.18,111.04c-0.17-0.03,1.06,0.62,0.97,0.93c0.01-0.02-0.03-0.07-0.03-0.1c-0.01-0.1-0.03-0.21-0.06-0.31
					c-0.05-0.25,0.04,0.3,0.01,0.1c-0.01-0.08-0.02-0.17-0.03-0.25c-0.02-0.2-0.05-0.4-0.07-0.6c-0.14-1.27-0.29-2.53-0.46-3.79
					c-0.4-2.95-0.94-5.89-1.58-8.8c-0.91,0.39-1.83,0.77-2.74,1.16c1.24,2.09,2.1,4.39,2.43,6.81c0.18,1.31,0.21,2.65,0.13,3.96
					c-0.02,0.27-0.04,0.54-0.07,0.8c-0.03,0.27,0.03-0.18-0.01,0.06c-0.02,0.11-0.03,0.22-0.06,0.33c-0.03,0.14-0.07,0.27-0.1,0.41
					c-0.07,0.33,0.16-0.27,0.22-0.32c0.22-0.13,0.44-0.26,0.66-0.39c-0.01,0-0.01,0-0.02,0.01c-1.85,0.53-1.06,3.43,0.8,2.89
					c1.2-0.35,1.34-1.71,1.47-2.75c0.18-1.44,0.18-2.91,0.05-4.35c-0.3-3.18-1.28-6.22-2.91-8.97c-0.88-1.49-3.11-0.49-2.74,1.16
					c0.7,3.14,1.27,6.31,1.67,9.5c0.13,1.06,0.23,2.13,0.37,3.2c0.11,0.85,0.24,2.03,1.3,2.22c0.8,0.15,1.62-0.22,1.85-1.05
					C478.43,112.15,477.98,111.18,477.18,111.04z"/>
			</g>
		</g>
		<g>
			<g>
				<path d="M511.63,130.91c0-1.12,0-2.24,0-3.36c0-0.38-0.17-0.79-0.44-1.06c-0.26-0.26-0.69-0.46-1.06-0.44
					c-0.81,0.04-1.5,0.66-1.5,1.5c0,1.12,0,2.24,0,3.36c0,0.38,0.17,0.79,0.44,1.06c0.26,0.26,0.69,0.46,1.06,0.44
					C510.94,132.37,511.63,131.75,511.63,130.91L511.63,130.91z"/>
			</g>
		</g>
		<g>
			<g>
				<path d="M437.07,82.62c1.44-0.1,2.87-0.13,4.31-0.08c0.7,0.03,1.41,0.07,2.11,0.14c0.73,0.07,1.38,0.15,1.95,0.23
					c0.77,0.12,1.65-0.19,1.85-1.05c0.16-0.71-0.22-1.72-1.05-1.85c-3.04-0.46-6.1-0.62-9.17-0.4c-0.78,0.06-1.54,0.65-1.5,1.5
					C435.61,81.88,436.24,82.68,437.07,82.62L437.07,82.62z"/>
			</g>
		</g>
		<g>
			<g>
				<path d="M472.61,94.18c-0.12-0.25-0.27-0.49-0.44-0.72c-0.24-0.32-0.49-0.64-0.8-0.9c-0.62-0.54-1.29-0.93-2.06-1.19
					c-0.36-0.12-0.84-0.03-1.16,0.15c-0.31,0.18-0.61,0.54-0.69,0.9c-0.09,0.38-0.07,0.81,0.15,1.16c0.22,0.34,0.51,0.56,0.9,0.69
					c0.09,0.03,0.18,0.07,0.27,0.1c-0.12-0.05-0.24-0.1-0.36-0.15c0.34,0.14,0.65,0.33,0.94,0.55c-0.1-0.08-0.2-0.16-0.3-0.23
					c0.28,0.22,0.53,0.47,0.75,0.75c-0.08-0.1-0.16-0.2-0.23-0.3c0.17,0.22,0.32,0.46,0.44,0.72c0.16,0.32,0.56,0.6,0.9,0.69
					c0.36,0.1,0.84,0.05,1.16-0.15c0.32-0.21,0.6-0.51,0.69-0.9c0.02-0.13,0.04-0.27,0.05-0.4
					C472.81,94.67,472.74,94.42,472.61,94.18L472.61,94.18z"/>
			</g>
		</g>
		<g>
			<g>
				<path d="M497.03,95.12c2.58,4.56,4.88,9.27,6.85,14.12c0.3,0.75,1,1.28,1.85,1.05c0.71-0.2,1.35-1.09,1.05-1.85
					c-2.07-5.09-4.45-10.05-7.15-14.83C498.67,91.93,496.07,93.44,497.03,95.12L497.03,95.12z"/>
			</g>
		</g>
		<g>
			<g>
				<path d="M420.33,114.21c0.35-2.46,1.77-4.8,2.86-7c1.19-2.4,2.45-4.77,3.76-7.11c0.95-1.68-1.64-3.2-2.59-1.51
					c-1.36,2.42-2.66,4.87-3.88,7.36c-0.61,1.24-1.21,2.48-1.78,3.74c-0.55,1.2-1.07,2.41-1.26,3.73c-0.12,0.8,0.2,1.61,1.05,1.85
					C419.19,115.45,420.22,115.02,420.33,114.21L420.33,114.21z"/>
			</g>
		</g>
		<path class="st8" d="M417.06,138.58c-0.38,1.2-0.98,3.68-0.32,6.69c0.44,2.02,1.29,3.53,1.91,4.46"/>
		<path class="st8" d="M513,138.2c0.38,1.2,0.98,3.68,0.32,6.69c-0.44,2.02-1.29,3.53-1.91,4.46"/>
		<path class="st9" d="M495.92,165.18c-0.05,0-6.48,8.49-9.88,7.01c-2.16-0.94-0.67-4.87-3.5-7.01c-1.97-1.48-5.75-0.96-13.22,0.16
			c-2.43,0.36-2.07,0.4-3.82,0.64c-9.38,1.29-12.48-0.41-14.97,1.59c-2.9,2.32-0.19,7.09-2.23,8.28
			c-3.19,1.86-11.57-7.73-11.79-7.65c-0.16,0.06-0.35,0.12-0.38,0.28c-0.86,5.64,28.36,23.72,29.21,22.18
			c0,0,13.06-5.42,19.44-11.87C490.08,173.97,493.63,169,495.92,165.18z"/>
		<line class="st8" x1="467.08" y1="143.67" x2="462.94" y2="146.22"/>
		<line class="st8" x1="467.4" y1="145.27" x2="460.71" y2="149.41"/>
		<line class="st8" x1="469" y1="146.22" x2="460.39" y2="151.64"/>
		<line class="st8" x1="469.63" y1="148.13" x2="460.71" y2="153.55"/>
		<line class="st8" x1="470.59" y1="149.41" x2="461.35" y2="154.83"/>
		<path class="st10" d="M465.17,157.85c-0.05,1.27-0.11,2.55-0.16,3.82c-0.58-0.53-1.17-1.06-1.75-1.59"/>
		<g>
			<g>
				<path class="st3" d="M434.32,153.92c-0.19,0.26-0.39,0.52-0.58,0.78c-0.11,0.17-0.17,0.36-0.18,0.56
					c-0.04,0.2-0.04,0.4,0.03,0.6c0.05,0.2,0.14,0.37,0.27,0.51c0.11,0.16,0.25,0.29,0.42,0.39c0.12,0.05,0.24,0.1,0.36,0.15
					c0.27,0.07,0.53,0.07,0.8,0c0.12-0.05,0.24-0.1,0.36-0.15c0.23-0.13,0.4-0.31,0.54-0.54c0.19-0.26,0.39-0.52,0.58-0.78
					c0.11-0.17,0.17-0.36,0.18-0.56c0.04-0.2,0.04-0.4-0.03-0.6c-0.05-0.2-0.14-0.37-0.27-0.51c-0.11-0.16-0.25-0.29-0.42-0.39
					c-0.12-0.05-0.24-0.1-0.36-0.15c-0.27-0.07-0.53-0.07-0.8,0c-0.12,0.05-0.24,0.1-0.36,0.15
					C434.63,153.52,434.45,153.7,434.32,153.92L434.32,153.92z"/>
			</g>
		</g>
		<g>
			<g>
				<path class="st3" d="M435.58,154.8c-0.06,0.1-0.13,0.19-0.19,0.29c-0.11,0.17-0.17,0.36-0.18,0.56c-0.04,0.2-0.04,0.4,0.03,0.6
					c0.05,0.2,0.14,0.37,0.27,0.51c0.11,0.16,0.25,0.29,0.42,0.39c0.12,0.05,0.24,0.1,0.36,0.15c0.27,0.07,0.53,0.07,0.8,0
					c0.12-0.05,0.24-0.1,0.36-0.15c0.23-0.13,0.4-0.31,0.54-0.54c0.06-0.1,0.13-0.19,0.19-0.29c0.11-0.17,0.17-0.36,0.18-0.56
					c0.04-0.2,0.04-0.4-0.03-0.6c-0.05-0.2-0.14-0.37-0.27-0.51c-0.11-0.16-0.25-0.29-0.42-0.39c-0.12-0.05-0.24-0.1-0.36-0.15
					c-0.27-0.07-0.53-0.07-0.8,0c-0.12,0.05-0.24,0.1-0.36,0.15C435.89,154.39,435.71,154.57,435.58,154.8L435.58,154.8z"/>
			</g>
		</g>
		<g>
			<g>
				<path class="st3" d="M489.44,155.26c0,0.16,0,0.32,0,0.49c-0.01,0.21,0.04,0.4,0.13,0.58c0.06,0.19,0.16,0.35,0.31,0.48
					c0.14,0.15,0.3,0.25,0.48,0.31c0.18,0.09,0.37,0.14,0.58,0.13c0.13-0.02,0.27-0.04,0.4-0.05c0.25-0.07,0.47-0.2,0.66-0.39
					c0.08-0.1,0.16-0.2,0.23-0.3c0.14-0.23,0.2-0.49,0.2-0.76c0-0.16,0-0.32,0-0.49c0.01-0.21-0.04-0.4-0.13-0.58
					c-0.06-0.19-0.16-0.35-0.31-0.48c-0.14-0.15-0.3-0.25-0.48-0.31c-0.18-0.09-0.37-0.14-0.58-0.13c-0.13,0.02-0.27,0.04-0.4,0.05
					c-0.25,0.07-0.47,0.2-0.66,0.39c-0.08,0.1-0.16,0.2-0.23,0.3C489.51,154.74,489.44,154.99,489.44,155.26L489.44,155.26z"/>
			</g>
		</g>
		<g>
			<g>
				<path class="st3" d="M491.19,155.61c0,0,0.01,0.01,0.01,0.01c-0.08-0.1-0.16-0.2-0.23-0.3c0.08,0.1,0.14,0.21,0.19,0.33
					c-0.05-0.12-0.1-0.24-0.15-0.36c0.05,0.13,0.09,0.26,0.11,0.4c-0.02-0.13-0.04-0.27-0.05-0.4c0.01,0.12,0.02,0.24,0,0.36
					c-0.01,0.21,0.04,0.4,0.13,0.58c0.06,0.19,0.16,0.35,0.31,0.48c0.14,0.15,0.3,0.25,0.48,0.31c0.18,0.09,0.37,0.14,0.58,0.13
					c0.13-0.02,0.27-0.04,0.4-0.05c0.25-0.07,0.47-0.2,0.66-0.39c0.08-0.1,0.16-0.2,0.23-0.3c0.14-0.23,0.2-0.49,0.2-0.76
					c0.01-0.1,0.01-0.2,0-0.31c-0.02-0.18-0.04-0.36-0.07-0.53c-0.01-0.05-0.02-0.1-0.04-0.15c-0.01-0.05-0.03-0.09-0.05-0.14
					c-0.06-0.16-0.13-0.33-0.21-0.48c-0.1-0.2-0.26-0.38-0.4-0.55c-0.14-0.15-0.3-0.25-0.48-0.31c-0.18-0.09-0.37-0.14-0.58-0.13
					c-0.21-0.01-0.4,0.04-0.58,0.13c-0.19,0.06-0.35,0.16-0.48,0.31c-0.08,0.1-0.16,0.2-0.23,0.3c-0.14,0.23-0.2,0.49-0.2,0.76
					c0.02,0.13,0.04,0.27,0.05,0.4C490.87,155.2,491,155.42,491.19,155.61L491.19,155.61z"/>
			</g>
		</g>
		<path class="st6" d="M460.39,108.31c-4.08,2.85-29.95,26.76-32.18,36.32c-0.64,1.59,3.06,10,3.5,9.88
			c0.02-0.01,0.04-0.04,0.04-0.05c0.21-0.83-17.49-5.88-14.06-29.26"/>
		<path class="st11" d="M449.88,132.84c-7.59-0.24-14.6,1-20.71,4.46"/>
		<path class="st11" d="M476.02,132.84c7.59-0.24,14.6,1,20.71,4.46"/>
		<path class="st12" d="M525.39,229.38c-0.87-6.94-1.9-13.89-4.37-20.73c-10.09-1.91-20.18-3.82-30.27-5.74l9.79,34.11
			c1.04,6.24,2.23,12.48,3.49,18.72l26.44-0.49C528.31,246.88,526.51,238.26,525.39,229.38z"/>
		<path class="st12" d="M433.63,233.52l12.74-31.86c-10.09,1.91-20.18,3.82-30.27,5.74c-2.49,7.93-4.94,16.01-7.33,24.21
			c-2.56,8.77-4.97,17.45-7.27,26.03l25.61-0.47C429.29,249.29,431.46,241.4,433.63,233.52z"/>
		<g>
			<path class="st13" d="M503.34,244.83c0.04-6.9,0.46-16.9,2.61-29.15l-80.61,2.55c2.21,5.88,2.82,21.55,2.57,38.92l75.73-1.4
				C503.46,252.54,503.32,248.92,503.34,244.83z"/>
			<g>
				<path d="M503.23,244.83c0.16-9.51,0.74-20.29,2.73-29.03c-13.42,0.43-47.5,1.51-60.46,1.88c-6.72,0.19-13.44,0.4-20.15,0.68
					l0.12-0.18c1.1,3.11,1.56,6.37,1.99,9.61c1.24,9.39,0.87,19.87,0.58,29.36c0,0-0.13-0.13-0.13-0.13
					c-0.02,0.04,76.18-1.55,75.62-1.27C503.54,255.76,503.23,244.83,503.23,244.83L503.23,244.83z M503.46,244.83l0.29,10.91l0,0.11
					c0,0.05-75.8,1.38-75.84,1.42c0,0-0.13,0-0.13,0l0-0.13l-0.03-4.89c-0.23-7.56-0.51-16.88-0.98-24.4
					c-0.27-3.29-0.55-6.63-1.61-9.76c6.78-0.15,13.55-0.36,20.33-0.6c12.82-0.44,47.21-1.52,60.46-1.94c0,0,0.15,0,0.15,0
					l-0.03,0.14C504.39,225.32,503.5,235.07,503.46,244.83L503.46,244.83z"/>
			</g>
		</g>
		<path class="st14" d="M473.78,212.81c-5.73,1.91-11.92,2.12-18.48,0.96c0.03-1.19,2.55,9.24,9.56,12.11
			C474.73,220.46,474.15,210.88,473.78,212.81z"/>
		<path class="st13" d="M451.15,212.81c-1.14-3.39-5.21-4.96-8.28-4.46c-5.13,0.83-8.64,7.56-6.69,11.15
			c1.91,3.52,9.09,4.05,12.74,0.64C450.59,218.58,452.11,215.66,451.15,212.81z"/>
		<path class="st13" d="M497.5,209.43c-1.08-3.51-5.47-5.12-8.59-5.06c-7.02,0.13-13.21,8.83-11.47,12.74
			c1.81,4.06,12.99,4.89,17.83-0.35C495.55,216.46,498.61,213.04,497.5,209.43z"/>
		<path class="st12" d="M486.68,185.25c-7.18,8.35-14.16,15.77-20.39,19.44c2.18,5.36,4.35,10.73,6.53,16.09
			c3.11-3.11,7.27-6.72,12.61-10.13c4.57-2.92,8.89-4.97,12.56-6.43c-2.66-3.93-5.31-7.86-7.97-11.79
			C488.91,190.03,487.79,187.64,486.68,185.25z"/>
		<path class="st12" d="M442.48,186.59c7.18,8.35,14.16,15.77,20.39,19.44c-2.18,5.36-4.35,10.73-6.53,16.09
			c-4.18-3.3-8.38-6.68-12.61-10.13c-3.31-2.7-6.57-5.4-9.78-8.09c1.65-2.33,3.44-5.2,5.1-8.6
			C440.58,192.13,441.68,189.17,442.48,186.59z"/>
		<g>
			<g>
				<path d="M485.31,197.25c-1.03,0.84-2.16,1.53-3.36,2.11c-0.54,0.26-1.07,0.53-1.46,0.99c-0.42,0.49-0.63,1.11-0.88,1.69
					c-1.19,2.8-2.39,5.6-3.58,8.4c-0.37,0.88,0.92,1.64,1.3,0.76c1.16-2.72,2.32-5.45,3.48-8.17c0.23-0.54,0.42-1.25,0.81-1.7
					c0.37-0.43,1-0.62,1.49-0.87c1.17-0.59,2.25-1.32,3.27-2.15C487.12,197.7,486.05,196.65,485.31,197.25L485.31,197.25z"/>
			</g>
		</g>
		<g>
			<g>
				<path d="M440.78,197.96c0.22,0.01,0.43,0.02,0.65,0.03c0.11,0.01,0.22,0.02,0.33,0.03c0.03,0,0.06,0.01,0.09,0.01
					c-0.03,0-0.05-0.01-0.08-0.01c0.04-0.01,0.14,0.02,0.17,0.03c0.2,0.04,0.4,0.08,0.6,0.15c0.05,0.02,0.09,0.03,0.14,0.05
					c0.18,0.07-0.14-0.07,0.04,0.02c0.09,0.05,0.18,0.09,0.26,0.14c0.02,0.01,0.1,0.05,0.1,0.07c-0.08-0.06-0.09-0.08-0.05-0.04
					c0.02,0.02,0.04,0.03,0.06,0.05c0.06,0.06,0.12,0.11,0.18,0.18c0.03,0.03,0.07,0.09,0.1,0.12c-0.06-0.04-0.08-0.11-0.01-0.01
					c0.05,0.08,0.1,0.16,0.14,0.24c0.07,0.12-0.04-0.11-0.01-0.02c0.01,0.04,0.03,0.08,0.04,0.12c0.01,0.05,0.03,0.09,0.04,0.14
					c0.01,0.02,0.01,0.05,0.01,0.07c0.01,0.06,0.01,0.03-0.01-0.08c-0.02,0.01,0,0.21,0,0.24c-0.01,0.16,0.05-0.16,0-0.01
					c-0.01,0.05-0.03,0.09-0.04,0.14c-0.12,0.37,0.14,0.84,0.52,0.92c0.41,0.09,0.79-0.12,0.92-0.52c0.35-1.08-0.26-2.18-1.12-2.8
					c-0.87-0.64-2.03-0.7-3.07-0.74c-0.39-0.02-0.77,0.36-0.75,0.75C440.05,197.63,440.36,197.94,440.78,197.96L440.78,197.96z"/>
			</g>
		</g>
		<path class="st7" d="M483.33,196.56"/>
		<path class="st7" d="M483.33,193.7"/>
		<path class="st7" d="M484.61,193.38"/>
		<path class="st15" d="M519.02,199.11c-1.63-2.05-3.93-2.81-5.1-3.19c-0.63-0.21-5.73-1.79-10.51,0.96
			c-5.06,2.9-8.22,9.75-6.05,14.66c2.86,6.48,14.44,8.3,20.07,2.87C521.42,210.55,522.26,203.18,519.02,199.11z"/>
		<path class="st16" d="M521.73,206.33c-6.55-6.24-14.84-7.34-24.5-4.37c-0.38,0.94-0.77,1.87-1.15,2.81
			c8.13,0.24,16.4,0.97,25.27,3.75C521.47,207.78,521.6,207.05,521.73,206.33z"/>
		<path class="st16" d="M415.82,205.77c5.73-6.24,12.98-7.34,21.43-4.37c0.33,0.94,0.67,1.87,1,2.81
			c-7.11,0.24-14.34,0.97-22.1,3.75C416.04,207.23,415.93,206.5,415.82,205.77z"/>
		<g>
			<g>
				<path class="st17" d="M423.48,219.36c-2.5,9.18-4.13,18.57-4.9,28.05c-0.16,1.92,2.84,1.91,3,0c0.75-9.22,2.37-18.33,4.8-27.25
					C426.88,218.29,423.99,217.5,423.48,219.36L423.48,219.36z"/>
			</g>
		</g>
		<g>
			<g>
				<path class="st17" d="M516.39,215.39c-2.56,2.84-5.07,5.72-7.53,8.64c-0.5,0.6-0.63,1.54,0,2.12c0.56,0.51,1.58,0.64,2.12,0
					c2.46-2.92,4.97-5.8,7.53-8.64c0.53-0.58,0.62-1.55,0-2.12C517.94,214.87,516.95,214.77,516.39,215.39L516.39,215.39z"/>
			</g>
		</g>
		<g>
			<g>
				<path class="st17" d="M427.81,207.25c3.29,0.88,6.6,1.66,9.93,2.35c0.77,0.16,1.66-0.22,1.85-1.05
					c0.17-0.75-0.23-1.68-1.05-1.85c-3.33-0.69-6.64-1.47-9.93-2.35c-0.76-0.2-1.66,0.25-1.85,1.05
					C426.58,206.19,427,207.03,427.81,207.25L427.81,207.25z"/>
			</g>
		</g>
	</g>
	<path class="st18" d="M471.06,42.32c-4.19-0.45-8.45-0.68-12.77-0.68c-63.39,0-114.77,49.32-114.77,110.16
		c0,42.35,24.9,79.13,61.42,97.56c7.33,3.7,15.13,6.66,23.29,8.78c0.23,0.06,0.46,0.12,0.69,0.17c9.2,2.33,18.85,3.6,28.81,3.64
		c0.19,0,0.38,0,0.56,0c16.64,0,32.45-3.4,46.72-9.51c0.42-0.17,0.83-0.35,1.24-0.54c8.35-3.69,16.16-8.31,23.28-13.73
		c26.52-20.18,43.54-51.37,43.54-86.38C573.07,95.1,528.44,48.41,471.06,42.32z"/>
</g>
<g>
	<path class="st0" d="M474,148c-0.93-1.29-0.88-2.56-0.88-2.56s0.01-0.09,0.01-0.19c0.06-0.84,0.37-3.57,2.16-5.26
		c3.72-3.51,14.64-3.21,18.64,1.73c1.9,2.35,2.15,6.59,0.31,8.42c-1.03,1.02-2.09,0.71-8.87,0.27
		C482.75,150.24,475.29,149.79,474,148z"/>
	<path class="st7" d="M495.46,150.68c0.12-0.79,0.87-6.33-3.22-10.03c-5.04-4.55-14.41-3.6-18.03,0.59
		c-0.93,1.08-1.38,2.26-1.61,3.24"/>
	<circle class="st19" cx="482.34" cy="145.13" r="3.94"/>
	<circle class="st0" cx="484.2" cy="143.96" r="1.53"/>
	<path class="st0" d="M453,148c0.15-0.16,1.31-1.4,1.25-3.01c0-0.09-0.01-0.15-0.01-0.19c-0.06-0.84-0.37-3.57-2.16-5.26
		c-3.72-3.51-14.64-3.21-18.64,1.73c-1.78,2.2-2.15,6.42-0.31,8.42c2.12,2.31,5.18,0.57,16.24-0.28
		C450.1,149.35,451.85,149.23,453,148z"/>
	<circle class="st19" cx="445.03" cy="144.68" r="3.94"/>
	<circle class="st0" cx="447.03" cy="143.5" r="1.53"/>
	<path class="st7" d="M434.12,151.71c4.38-1.19,9.31-2.2,14.74-2.79c1.79-0.2,3.53-0.33,5.22-0.42"/>
	<path class="st20" d="M450.06,132.66c-7.67-0.24-14.75,1.01-20.93,4.51"/>
	<path class="st20" d="M476.47,132.65c7.67-0.24,14.75,1.01,20.93,4.51"/>
	<path class="st7" d="M431.66,149.79c-0.12-0.79-0.87-6.33,3.22-10.03c5.04-4.55,14.41-3.6,18.03,0.59
		c0.93,1.08,1.38,2.26,1.61,3.24"/>
	<path class="st7" d="M493.28,152.32c-2.96-0.93-6.45-1.81-10.41-2.41c-3.51-0.54-6.72-0.76-9.55-0.81"/>
	<path class="st14" d="M478.3,174.52c-3.52-0.06-7.12-0.06-10.8-0.02c-4.5,0.05-8.88,0.19-13.13,0.38c0.06,0.27,0.16,0.65,0.34,1.09
		c1.83,4.45,8.42,5.6,12.47,5.44c6.6-0.25,10.87-4.1,11.13-5.44C478.45,175.21,478.3,174.52,478.3,174.52z"/>
	<path class="st21" d="M476.87,177.91c-0.25-2.16-13.01-2.01-14-2c-2.13,0.03-10.72,0.13-11,2c-0.2,1.32,3.75,3.2,7,4
		C467.57,184.05,477.09,179.83,476.87,177.91z"/>
	<path class="st22" d="M452.87,173.91c-0.06,0.49,5.55,2.18,12,2c5.34-0.15,10.06-1.55,10-2c-0.04-0.34-2.82-0.04-10,0
		C456.08,173.96,452.91,173.54,452.87,173.91z"/>
</g>
<g>
	<path class="st23" d="M423,219c-0.04-0.57-0.1-1.14-0.2-1.7c-0.21-1.19-0.61-2.32-1.14-3.41c-0.36-0.73-0.75-1.45-1.23-2.11
		c-0.68-0.92-1.49-1.73-2.37-2.46c-1.02-0.84-2.07-1.62-3.14-2.38c-0.74-0.53-1.43-1.12-2.05-1.78c-0.94-1.02-1.78-2.12-2.63-3.22
		c-0.34-0.45-0.6-0.95-0.83-1.46c-0.84-1.92-1.36-3.92-1.61-6c-0.2-1.6-0.48-3.18-0.77-4.76c-0.34-1.8-0.93-3.52-1.72-5.18
		c-0.32-0.67-0.67-1.33-1.15-1.91c-0.4-0.49-0.89-0.82-1.53-0.94c-0.17-0.03-0.34-0.04-0.51-0.06c-0.65-0.1-1.22,0.08-1.75,0.46
		c-0.63,0.44-1.01,1.06-1.28,1.75c-0.88,2.24-1.4,4.55-1.31,6.97c0.04,0.95,0.13,1.89,0.31,2.82c0.34,1.76,0.82,3.49,1.34,5.21
		c0.14,0.48,0.26,0.96,0.47,1.42c0.19,0.41,0.36,0.82,0.54,1.23c0.68,1.64,1.23,3.32,1.81,5c0.11,0.31,0.24,0.61,0.4,0.89
		c0.2,0.35,0.39,0.71,0.59,1.07c0.47,0.84,0.88,1.7,1.43,2.49c0.02,0.03,0.04,0.07,0.06,0.1c0.03,0.06,0.06,0.12-0.01,0.16
		c-0.05,0.03-0.1,0.01-0.14-0.02c-0.09-0.07-0.18-0.13-0.27-0.2c-0.24-0.22-0.47-0.45-0.67-0.71c-0.1-0.13-0.21-0.26-0.32-0.38
		c0.07,0.51,0.17,1,0.27,1.48c0.15,0.66,0.18,1.33,0.15,2.01c-0.01,0.17-0.04,0.35-0.08,0.51c-0.05,0.16-0.16,0.19-0.27,0.06
		c-0.08-0.09-0.14-0.2-0.19-0.31c-0.25-0.52-0.48-1.06-0.65-1.61c-0.19-0.64-0.38-1.29-0.57-1.93c-0.07-0.25-0.08-0.26-0.32-0.17
		c-0.78,0.28-1.56,0.53-2.31,0.88c-0.94,0.44-1.91,0.75-2.91,1.01c-2.06,0.54-4.15,0.81-6.26,1.08c-1.19,0.15-2.33,0.48-3.41,1.02
		c-0.91,0.46-1.63,1.14-2.2,1.98c-0.78,1.15-0.95,2.43-0.8,3.77c0.14,1.2,0.41,2.37,0.85,3.49c0.19,0.49,0.43,0.95,0.73,1.37
		c0.17,0.24,0.32,0.5,0.46,0.76c0.06,0.1,0.16,0.23,0.06,0.34c-0.1,0.11-0.23,0.03-0.34-0.01c-0.17-0.07-0.34-0.16-0.54-0.26
		c0.03,0.32,0.05,0.6,0.06,0.88c0.01,0.74-0.12,1.46-0.15,2.19c-0.03,0.69-0.07,1.38,0.03,2.07c0.07,0.51,0.16,1.01,0.43,1.46
		c0.35,0.59,0.71,1.17,1.09,1.73c0.26,0.39,0.58,0.73,0.95,1.03c0.28,0.23,0.56,0.47,0.82,0.73c0.06,0.07,0.13,0.13,0.17,0.21
		c0.04,0.09,0.01,0.16-0.08,0.2c-0.11,0.04-0.22,0.05-0.33,0.04c-0.23-0.02-0.47-0.04-0.69-0.13c-0.06-0.02-0.13-0.07-0.2,0.01
		c0.03,0.22,0.08,0.44,0.1,0.66c0.12,0.94,0.21,1.88,0.36,2.82c0.21,1.33,0.8,2.42,1.81,3.3c0.3,0.26,0.57,0.56,0.83,0.86
		c0.08,0.09,0.2,0.18,0.14,0.32c-0.06,0.14-0.21,0.08-0.33,0.09c-0.22,0.02-0.43-0.08-0.67-0.1c-0.02,0.2,0.05,0.36,0.07,0.53
		c0.05,0.49,0.08,0.97,0.15,1.46c0.17,1.24,0.76,2.26,1.66,3.12c0.19,0.18,0.39,0.33,0.63,0.43c0.62,0.27,1.27,0.46,1.93,0.55
		c1.3,0.18,2.6,0.38,3.89,0.61c0.87,0.16,1.72,0.4,2.58,0.61c1.03,0.25,2.08,0.38,3.13,0.52c1.3,0.17,2.44-0.18,3.45-0.99
		c0.58-0.46,1-1.07,1.39-1.69c0.6-0.95,1.16-1.92,1.94-2.74c0.22-0.23,0.41-0.49,0.47-0.81c0.12-0.65-0.03-1.25-0.34-1.82
		c-0.06-0.12-0.15-0.23-0.3-0.23c-0.17,0-0.19,0.16-0.24,0.28c-0.21,0.5-0.51,0.95-0.82,1.39c-0.37,0.53-0.84,0.97-1.24,1.47
		c0.11-0.02,0.17-0.1,0.25-0.17c0.38-0.3,0.79-0.58,1.23-0.8c0.05-0.02,0.09-0.05,0.14-0.07c0.07-0.03,0.15-0.09,0.23-0.02
		c0.09,0.09,0.01,0.17-0.03,0.25c-0.22,0.38-0.47,0.74-0.77,1.06c-0.82,0.88-1.63,1.76-2.53,2.55c-0.14,0.12-0.28,0.24-0.44,0.32
		c-0.12,0.06-0.25,0.09-0.37-0.01c-0.11-0.1-0.08-0.22-0.04-0.34c0.16-0.41,0.41-0.77,0.68-1.11c0.29-0.37,0.63-0.69,0.96-1.02
		c0.03-0.03,0.05-0.06,0.07-0.1c0,0,0,0,0,0c-0.53,0.27-1.04,0.56-1.42,1.03c-0.15,0.19-0.34,0.35-0.51,0.52
		c-0.07,0.06-0.14,0.12-0.21,0.18c-0.08,0.05-0.17,0.08-0.26,0.01c-0.1-0.08-0.09-0.18-0.04-0.28c0.07-0.16,0.18-0.29,0.29-0.43
		c0.04-0.05,0.12-0.09,0.07-0.18c-0.13,0-0.26,0-0.39,0c-1.04-0.04-2.06-0.25-3.06-0.54c-2.04-0.6-4.1-1.14-6.14-1.76
		c-0.91-0.28-1.85-0.48-2.78-0.72c-0.12-0.03-0.31-0.03-0.28-0.21c0.02-0.14,0.2-0.11,0.31-0.12c0.83-0.04,1.65,0,2.47,0.12
		c1.31,0.18,2.61,0.46,3.9,0.72c0.82,0.16,1.62,0.39,2.43,0.62c0.85,0.25,1.69,0.54,2.57,0.69c0.39,0.07,0.78,0.14,1.18,0.05
		c0.63-0.14,1.18-0.45,1.64-0.9c0.23-0.23,0.43-0.48,0.69-0.69c0.19-0.16,0.34-0.35,0.47-0.56c0.3-0.45,0.55-0.93,0.76-1.43
		c0.3-0.71,0.7-1.36,1.11-2c0.46-0.72,1.04-1.36,1.58-2.02c0.26-0.32,0.51-0.63,0.72-0.98c0.29-0.48,0.35-0.98,0.16-1.52
		c-0.14-0.41-0.38-0.74-0.67-1.04c-0.34-0.35-0.76-0.5-1.22-0.57c-0.18-0.03-0.31,0.03-0.42,0.18c-0.16,0.25-0.35,0.48-0.5,0.73
		c-0.24,0.39-0.39,0.82-0.5,1.26c0.07,0.03,0.1,0.01,0.14,0c0.07-0.02,0.14-0.07,0.19,0.01c0.05,0.07,0,0.14-0.04,0.19
		c-0.09,0.13-0.19,0.26-0.29,0.4c-0.63,0.84-1.34,1.61-2.04,2.4c-0.4,0.45-0.79,0.9-1.23,1.32c-0.12,0.11-0.24,0.22-0.38,0.3
		c-0.1,0.06-0.21,0.08-0.31,0c-0.1-0.08-0.1-0.19-0.07-0.31c0.02-0.08,0.06-0.15,0.1-0.22c0.13-0.23,0.27-0.46,0.43-0.67
		c0.04-0.05,0.11-0.1,0.05-0.19c-0.26,0.09-0.52,0.18-0.78,0.26c-0.56,0.17-1.12,0.31-1.71,0.26c-0.6-0.05-1.2-0.09-1.79-0.21
		c-1.02-0.21-2.02-0.5-3.02-0.78c-1.31-0.36-2.57-0.87-3.85-1.31c-1.27-0.44-2.55-0.85-3.88-1.09c-0.18-0.03-0.36-0.08-0.53-0.15
		c-0.06-0.02-0.11-0.05-0.17-0.08c-0.06-0.04-0.13-0.08-0.11-0.16c0.01-0.09,0.09-0.1,0.17-0.1c0.08,0,0.16-0.01,0.24,0
		c0.24,0.02,0.49,0.06,0.73,0.06c1.22,0.01,2.41,0.21,3.6,0.47c1.47,0.32,2.92,0.75,4.39,1.09c1.29,0.3,2.56,0.69,3.86,0.93
		c1.11,0.2,2.12,0.03,3.08-0.55c0.67-0.4,1.26-0.9,1.8-1.45c0.21-0.21,0.39-0.45,0.51-0.72c0.3-0.67,0.68-1.3,1.02-1.95
		c0.73-1.38,1.53-2.71,2.37-4.03c0.14-0.22,0.27-0.46,0.36-0.71c0.07-0.21,0.09-0.41,0.04-0.63c-0.08-0.33-0.18-0.65-0.26-0.97
		c-0.26-1.02-0.9-1.71-1.83-2.16c-0.31-0.15-0.36-0.15-0.57,0.11c-0.5,0.6-0.99,1.22-1.46,1.84c-0.06,0.08-0.14,0.15-0.14,0.27
		c0.1-0.01,0.16-0.06,0.23-0.1c0.24-0.14,0.48-0.26,0.74-0.37c0.09-0.04,0.21-0.12,0.28-0.02c0.07,0.1-0.06,0.18-0.13,0.25
		c-0.4,0.38-0.8,0.76-1.21,1.12c-0.8,0.7-1.53,1.46-2.25,2.24c-0.25,0.28-0.52,0.54-0.79,0.81c-0.11,0.11-0.23,0.2-0.38,0.25
		c-0.26,0.08-0.41-0.04-0.37-0.32c0.01-0.04,0.02-0.08-0.03-0.11c-1.46,0.37-2.12,0.31-3.17,0.14c-1.56-0.26-3.07-0.73-4.53-1.35
		c-2.05-0.87-4.1-1.77-6.24-2.41c-0.39-0.12-0.76-0.29-1.13-0.47c-0.08-0.04-0.16-0.09-0.24-0.14c-0.05-0.03-0.09-0.08-0.07-0.15
		c0.02-0.06,0.08-0.06,0.13-0.07c0.37-0.06,0.75-0.06,1.13-0.02c0.72,0.08,1.42,0.28,2.12,0.46c0.89,0.22,1.78,0.44,2.63,0.8
		c1.71,0.72,3.46,1.34,5.24,1.86c1.05,0.31,2.12,0.5,3.22,0.46c0.35-0.01,0.68-0.09,1.01-0.22c0.76-0.32,1.3-0.86,1.75-1.52
		c0.17-0.25,0.33-0.49,0.52-0.71c0.23-0.26,0.43-0.55,0.58-0.86c0.17-0.34,0.39-0.65,0.6-0.95c0.85-1.19,1.88-2.22,2.88-3.29
		c0.31-0.33,0.64-0.63,0.91-0.99c0.43-0.57,0.82-1.17,0.92-1.91c0.07-0.56-0.05-1.09-0.45-1.5c-0.43-0.44-0.95-0.73-1.56-0.84
		c-0.71-0.12-1.42-0.11-2.13,0.02c-0.96,0.17-1.82,0.58-2.63,1.1c-1.01,0.64-1.81,1.51-2.61,2.38c-0.09,0.09-0.1,0.19-0.04,0.3
		c0.05,0.1,0.09,0.21,0.11,0.31c0.06,0.31-0.09,0.47-0.4,0.46c-0.19-0.01-0.36-0.07-0.51-0.18c-0.19-0.13-0.37-0.26-0.54-0.4
		c-0.84-0.68-1.69-1.36-2.64-1.88c-1.68-0.92-3.42-1.73-5.2-2.44c-0.71-0.28-1.45-0.48-2.22-0.5c-0.15,0-0.3-0.04-0.45-0.08
		c-0.11-0.03-0.23-0.08-0.21-0.22c0.02-0.13,0.15-0.13,0.25-0.13c0.91-0.02,1.81-0.05,2.72-0.04c0.75,0,1.5,0.1,2.25,0.2
		c0.73,0.1,1.45,0.2,2.15,0.43c0.37,0.12,0.73,0.27,1.07,0.45c0.14,0.07,0.17,0.05,0.19-0.11c0-0.04,0-0.08,0-0.12
		c-0.04-1.17-0.12-2.34-0.39-3.48c-0.01-0.06-0.03-0.12-0.03-0.18c0-0.04,0.01-0.09,0.03-0.11c0.05-0.04,0.1-0.01,0.13,0.03
		c0.14,0.15,0.25,0.32,0.34,0.5c0.27,0.52,0.46,1.07,0.66,1.61c0.25,0.66,0.45,1.33,0.73,1.98c0.09,0.22,0.21,0.42,0.41,0.56
		c0.57,0.41,1.19,0.66,1.9,0.65c0.23,0,0.41-0.08,0.54-0.28c0.27-0.41,0.56-0.8,0.82-1.22c0.53-0.85,1.1-1.67,1.67-2.48
		c0.07-0.09,0.13-0.27,0.26-0.2c0.14,0.07,0.04,0.22,0.01,0.33c-0.14,0.47-0.29,0.93-0.45,1.39c-0.09,0.26-0.02,0.5,0.05,0.75
		c0.03,0.1,0.1,0.12,0.19,0.09c0.05-0.02,0.1-0.03,0.14-0.05c1.1-0.44,2.23-0.63,3.41-0.47c0.84,0.11,1.6,0.39,2.27,0.91
		c0.52,0.4,0.83,0.9,0.94,1.55c0.17,1,0.1,1.95-0.4,2.84c-0.24,0.42-0.52,0.8-0.85,1.15c-0.36,0.37-0.73,0.74-1.09,1.11
		c-0.1,0.11-0.21,0.21-0.26,0.35c0.09,0.08,0.18,0.09,0.27,0.12c0.78,0.25,1.38,0.72,1.85,1.39c0.36,0.51,0.54,1.09,0.7,1.68
		c0.23,0.83,0.17,1.63-0.27,2.39c-0.12,0.21-0.11,0.22,0.1,0.32c0.62,0.28,1.18,0.65,1.75,1c0.06,0.04,0.12,0.08,0.17,0.13
		c0.09,0.09,0.06,0.18-0.07,0.19c-0.16,0.02-0.32,0.01-0.49-0.02c-0.52-0.1-1.03-0.24-1.52-0.44c-0.13-0.05-0.27-0.1-0.4-0.16
		c-0.13-0.05-0.19,0.02-0.24,0.12c-0.05,0.11,0.04,0.14,0.11,0.18c0.16,0.09,0.32,0.18,0.49,0.26c1.01,0.46,1.96,1.04,3.01,1.42
		c0.07,0.02,0.15,0.04,0.14,0.13c0,0.09-0.09,0.11-0.15,0.13c-0.23,0.07-0.46,0.09-0.7,0.06c-0.47-0.05-0.92-0.15-1.37-0.31
		c-0.28-0.1-0.57-0.21-0.91-0.33c0.13,0.19,0.27,0.25,0.42,0.31c0.79,0.33,1.58,0.65,2.37,0.98c0.08,0.03,0.17,0.07,0.24,0.13
		c0.09,0.07,0.08,0.17-0.02,0.22c-0.09,0.04-0.2,0.06-0.3,0.06c-0.51,0.01-1.02,0.04-1.53-0.04c-0.16-0.03-0.32-0.04-0.48-0.06
		c-0.14-0.01-0.17,0.03-0.11,0.16c0.1,0.2,0.18,0.41,0.27,0.62c0.35,0.83,0.24,1.61-0.19,2.38c-0.31,0.56-0.72,1.04-1.15,1.5
		c-0.63,0.69-1.2,1.41-1.68,2.21c-0.15,0.24-0.14,0.27,0.11,0.38c0.5,0.23,0.79,0.63,0.87,1.17c0.06,0.35,0.09,0.71,0.13,1.06
		c0.08,0.85-0.16,1.59-0.73,2.22c-0.23,0.25-0.43,0.51-0.63,0.78c-0.03,0.04-0.09,0.09-0.03,0.18c0.48-0.09,0.97-0.18,1.44-0.35
		c0.75-0.27,1.4-0.7,2.04-1.16c0.61-0.43,1.19-0.89,1.73-1.4c0.45-0.42,0.84-0.92,1.22-1.4c0.81-1.02,1.47-2.13,2.08-3.27
		c0.51-0.96,1.02-1.93,1.37-2.97c0.42-1.22,0.66-2.48,0.87-3.75c0.01-0.06,0.04-0.14-0.04-0.21c-0.08,0.06-0.13,0.15-0.18,0.23
		c-0.23,0.33-0.46,0.67-0.7,1c-0.38,0.51-0.8,0.98-1.29,1.38c-0.13,0.11-0.27,0.22-0.43,0.29c-0.05,0.02-0.1,0.03-0.15,0
		c-0.06-0.04-0.05-0.11-0.03-0.17c0.01-0.04,0.03-0.07,0.05-0.11c0.47-0.88,0.93-1.76,1.48-2.6c0.64-0.98,1.22-2,1.72-3.06
		c0.57-1.21,0.98-2.48,1.25-3.79c0.36-1.76,0.64-3.53,0.6-5.33C423.14,220.6,423.06,219.8,423,219z M407.97,200.48
		c-0.03,0.05-0.08,0.09-0.12,0.14c-0.49,0.51-1.1,0.84-1.78,1.02c-0.62,0.17-1.26,0.21-1.94,0.25c-1.38-0.08-2.64-0.54-3.67-1.56
		c-0.15-0.15-0.29-0.32-0.38-0.51c-0.05-0.09-0.09-0.19-0.09-0.29c0-0.21,0.15-0.32,0.34-0.25c0.06,0.02,0.11,0.05,0.16,0.08
		c1.61,0.87,3.32,1.25,5.15,1.09c0.63-0.05,1.26-0.1,1.88-0.21c0.11-0.02,0.22-0.02,0.33-0.02
		C408.03,200.23,408.08,200.32,407.97,200.48z"/>
	<path class="st3" d="M402,222.28c2.08,3.29,2.67,6.63,2,10c2.67-3.33,5.33-6.67,8-10c0.68-3.27-1.81-3.93-5-4
		C405.33,219.61,403.67,220.95,402,222.28z"/>
	<path class="st3" d="M409,222.28c0.62-0.61,2.47,3.71,7,9c1.4,1.63-4.61,6.73-5,9C410.37,243.97,405.99,225.25,409,222.28z"/>
	<path class="st3" d="M405,231.28c-2.48,0.67,2.62,4.65,2,7c-0.05,0.18-0.04,0.29,0.02,0.34c0.43,0.34,5.28-3.77,4.98-8.34
		c-0.08-1.16-0.56-3.56-2-4c-0.11-0.03-0.67-0.47-1,0C407.89,227.87,406.29,230.93,405,231.28z"/>
	<path class="st3" d="M405,240.28c-0.58,0.05-1.06-0.33-1,0c0.1,0.56,0.89,2.63,1,7c0.07,2.73,1.64,3.25,1,4
		c-1.05,1.23,5.27-2.92,5-6c-0.13-1.47-1.07-1.65-1-3c0.12-2.3,2.93-2.85,3-5c0.04-1.13-1.06-3.36-1.75-3.19
		c-0.13,0.03-0.22,0.15-0.25,0.19C409.35,236.74,407.1,240.11,405,240.28z"/>
	<path class="st3" d="M421,233.28c-0.34,0.79-3.31,4-4,4c-1.32-0.01,1.93,2.33,3,2C421.86,238.7,421.54,232.03,421,233.28z"/>
	<path class="st3" d="M410,200.28c-7.2,1.79-9.9,0.19-10.28-0.55c-0.01-0.03-0.29-0.3-0.72-0.45c-0.15-0.05-0.23-0.08-0.25-0.06
		c-0.21,0.22,3.53,6.77,7.25,6.06C408.78,204.75,409.95,200.47,410,200.28z"/>
	<path class="st3" d="M390,215.28c5.63-0.91,19.47-2.81,21,1c0.2,0.5,0.26,1.29,0,2c-1.18,3.2-8.25,3.02-9,3
		c-4.88-0.12-8.7-2.31-11-4"/>
	<path class="st24" d="M407.06,246.98c0.18-0.09,0.29-0.25,0.42-0.39C407.36,246.73,407.24,246.89,407.06,246.98z"/>
	<g>
		<path d="M424.21,217.75c-0.16-1.43-0.6-2.76-1.26-4.03c-0.55-1.07-1.27-2.04-1.94-3.04c-0.86-1.27-1.96-2.33-3.17-3.29
			c-0.79-0.63-1.65-1.16-2.47-1.74c-0.55-0.39-1.1-0.78-1.57-1.27c-0.67-0.69-1.31-1.4-1.92-2.14c-0.63-0.77-1.17-1.59-1.58-2.5
			c-0.7-1.58-1.07-3.24-1.32-4.94c-0.18-1.2-0.36-2.4-0.62-3.58c-0.35-1.58-0.7-3.16-1.05-4.74c-0.27-1.2-0.62-2.37-1.19-3.46
			c-0.32-0.62-0.71-1.19-1.21-1.68c-0.7-0.68-1.55-0.99-2.51-1.06c-0.82-0.06-1.59,0.1-2.25,0.61c-0.58,0.45-1.1,0.97-1.5,1.59
			c-0.42,0.64-0.72,1.34-0.99,2.06c-0.58,1.57-1.05,3.17-1.19,4.85c-0.1,1.17-0.08,2.34,0.11,3.5c0.22,1.36,0.56,2.69,1,4
			c0.57,1.71,1.15,3.42,1.97,5.03c0.15,0.3,0.27,0.61,0.36,0.94c0.35,1.25,0.69,2.49,1.04,3.74c0.16,0.56,0.32,1.11,0.48,1.67
			c0.05,0.19,0.05,0.19-0.14,0.25c-0.17,0.05-0.33,0.11-0.49,0.18c-0.5,0.21-0.99,0.44-1.48,0.65c-0.8,0.33-1.58,0.71-2.41,0.96
			c-1.06,0.31-2.12,0.56-3.21,0.76c-1.12,0.21-2.25,0.37-3.38,0.49c-1.16,0.12-2.27,0.37-3.34,0.82c-0.91,0.39-1.73,0.91-2.38,1.67
			c-0.4,0.46-0.71,0.97-1.01,1.49c-0.7,1.16-1.03,2.43-1.03,3.78c0,0.84,0.16,1.66,0.35,2.47c0.17,0.75,0.46,1.46,0.84,2.12
			c0.12,0.2,0.19,0.41,0.2,0.63c0.03,0.64,0.02,1.28-0.08,1.92c-0.11,0.7-0.24,1.4-0.31,2.11c-0.1,0.96-0.04,1.89,0.27,2.8
			c0.43,1.24,1.05,2.36,1.92,3.35c0.11,0.13,0.18,0.26,0.24,0.42c0.15,0.47,0.14,0.95,0.1,1.42c-0.06,0.71-0.08,1.43,0.08,2.13
			c0.16,0.7,0.32,1.39,0.52,2.07c0.21,0.72,0.59,1.34,1.11,1.87c0.1,0.1,0.19,0.21,0.24,0.35c0.09,0.28,0.17,0.56,0.22,0.86
			c0.08,0.48,0.04,0.96,0.04,1.43c0,0.82,0.2,1.59,0.57,2.32c0.29,0.58,0.71,1.07,1.1,1.58c0.55,0.72,1.27,1.16,2.16,1.31
			c0.4,0.07,0.81,0.12,1.2,0.23c0.38,0.11,0.77,0.19,1.17,0.21c0.3,0.01,0.61,0.02,0.91,0.07c0.73,0.13,1.46,0.29,2.19,0.44
			c0.83,0.17,1.64,0.39,2.47,0.58c1.05,0.23,2.12,0.43,3.17,0.64c0.37,0.07,0.74,0.1,1.12,0.06c1.25-0.13,2.34-0.6,3.27-1.44
			c0.14-0.13,0.3-0.25,0.42-0.4c0.36-0.43,0.72-0.86,1.01-1.34c0.08-0.14,0.19-0.2,0.35-0.19c0.4,0,0.79-0.01,1.19-0.06
			c1.01-0.13,1.98-0.4,2.84-0.96c0.36-0.23,0.71-0.48,1.05-0.73c1.81-1.3,3.29-2.91,4.47-4.8c0.62-0.99,1.17-2.03,1.67-3.09
			c0.81-1.7,1.25-3.51,1.45-5.37c0.08-0.75,0.11-1.5,0.13-2.26c0.01-0.43,0.01-0.88,0.21-1.29c0.63-1.3,1.08-2.66,1.35-4.08
			c0.37-1.9,0.65-3.81,0.63-5.92C424.39,219.88,424.33,218.81,424.21,217.75z M422.56,226.74c-0.27,1.31-0.68,2.58-1.25,3.79
			c-0.5,1.06-1.08,2.08-1.72,3.06c-0.54,0.84-1.01,1.72-1.48,2.6c-0.02,0.04-0.04,0.07-0.05,0.11c-0.02,0.06-0.03,0.12,0.03,0.17
			c0.04,0.03,0.1,0.03,0.15,0c0.16-0.07,0.3-0.18,0.43-0.29c0.49-0.4,0.91-0.88,1.29-1.38c0.24-0.33,0.47-0.67,0.7-1
			c0.06-0.08,0.1-0.17,0.18-0.23c0.08,0.07,0.05,0.14,0.04,0.21c-0.21,1.27-0.45,2.53-0.87,3.75c-0.36,1.04-0.86,2-1.37,2.97
			c-0.61,1.14-1.28,2.25-2.08,3.27c-0.39,0.49-0.77,0.98-1.22,1.4c-0.54,0.51-1.13,0.97-1.73,1.4c-0.64,0.46-1.29,0.89-2.04,1.16
			c-0.47,0.17-0.96,0.26-1.44,0.35c-0.06-0.09-0.01-0.13,0.03-0.18c0.2-0.27,0.41-0.53,0.63-0.78c0.57-0.63,0.82-1.37,0.73-2.22
			c-0.04-0.35-0.07-0.71-0.13-1.06c-0.09-0.54-0.37-0.94-0.87-1.17c-0.25-0.11-0.25-0.14-0.11-0.38c0.48-0.8,1.06-1.52,1.68-2.21
			c0.43-0.47,0.84-0.95,1.15-1.5c0.43-0.77,0.53-1.55,0.19-2.38c-0.09-0.21-0.17-0.41-0.27-0.62c-0.06-0.13-0.03-0.17,0.11-0.16
			c0.16,0.02,0.32,0.03,0.48,0.06c0.51,0.08,1.02,0.05,1.53,0.04c0.1,0,0.2-0.02,0.3-0.06c0.11-0.05,0.12-0.15,0.02-0.22
			c-0.07-0.05-0.16-0.09-0.24-0.13c-0.79-0.33-1.58-0.65-2.37-0.98c-0.15-0.06-0.29-0.13-0.42-0.31c0.34,0.12,0.62,0.23,0.91,0.33
			c0.44,0.16,0.9,0.26,1.37,0.31c0.24,0.03,0.47,0,0.7-0.06c0.07-0.02,0.15-0.04,0.15-0.13c0.01-0.09-0.08-0.11-0.14-0.13
			c-1.04-0.39-2-0.96-3.01-1.42c-0.17-0.08-0.32-0.17-0.49-0.26c-0.07-0.04-0.16-0.07-0.11-0.18c0.05-0.1,0.11-0.17,0.24-0.12
			c0.13,0.05,0.27,0.1,0.4,0.16c0.49,0.2,1,0.34,1.52,0.44c0.16,0.03,0.32,0.04,0.49,0.02c0.12-0.02,0.15-0.11,0.07-0.19
			c-0.05-0.05-0.11-0.09-0.17-0.13c-0.57-0.35-1.13-0.72-1.75-1c-0.21-0.1-0.22-0.11-0.1-0.32c0.44-0.76,0.5-1.56,0.27-2.39
			c-0.16-0.59-0.34-1.17-0.7-1.68c-0.46-0.67-1.07-1.14-1.85-1.39c-0.09-0.03-0.18-0.04-0.27-0.12c0.05-0.14,0.16-0.25,0.26-0.35
			c0.36-0.37,0.73-0.74,1.09-1.11c0.33-0.35,0.62-0.73,0.85-1.15c0.51-0.9,0.58-1.85,0.4-2.84c-0.11-0.65-0.42-1.15-0.94-1.55
			c-0.67-0.52-1.43-0.8-2.27-0.91c-1.18-0.16-2.31,0.04-3.41,0.47c-0.05,0.02-0.1,0.04-0.14,0.05c-0.09,0.03-0.16,0.01-0.19-0.09
			c-0.07-0.24-0.14-0.48-0.05-0.75c0.16-0.46,0.31-0.93,0.45-1.39c0.03-0.11,0.13-0.26-0.01-0.33c-0.13-0.06-0.2,0.11-0.26,0.2
			c-0.57,0.82-1.14,1.64-1.67,2.48c-0.26,0.41-0.55,0.81-0.82,1.22c-0.13,0.2-0.31,0.28-0.54,0.28c-0.71,0-1.33-0.24-1.9-0.65
			c-0.2-0.14-0.31-0.34-0.41-0.56c-0.28-0.65-0.48-1.32-0.73-1.98c-0.2-0.54-0.4-1.09-0.66-1.61c-0.09-0.18-0.2-0.36-0.34-0.5
			c-0.04-0.04-0.09-0.07-0.13-0.03c-0.03,0.02-0.04,0.07-0.03,0.11c0,0.06,0.02,0.12,0.03,0.18c0.28,1.14,0.35,2.31,0.39,3.48
			c0,0.04,0,0.08,0,0.12c-0.01,0.16-0.04,0.19-0.19,0.11c-0.34-0.18-0.7-0.33-1.07-0.45c-0.7-0.22-1.43-0.32-2.15-0.43
			c-0.75-0.11-1.49-0.2-2.25-0.2c-0.91,0-1.81,0.03-2.72,0.04c-0.1,0-0.23,0-0.25,0.13c-0.02,0.14,0.1,0.19,0.21,0.22
			c0.15,0.04,0.3,0.07,0.45,0.08c0.77,0.02,1.51,0.22,2.22,0.5c1.78,0.71,3.52,1.52,5.2,2.44c0.95,0.52,1.79,1.2,2.64,1.88
			c0.17,0.14,0.36,0.27,0.54,0.4c0.15,0.1,0.32,0.17,0.51,0.18c0.31,0.01,0.46-0.15,0.4-0.46c-0.02-0.11-0.06-0.22-0.11-0.31
			c-0.06-0.12-0.04-0.21,0.04-0.3c0.8-0.87,1.6-1.74,2.61-2.38c0.82-0.52,1.67-0.93,2.63-1.1c0.71-0.13,1.42-0.14,2.13-0.02
			c0.61,0.11,1.14,0.4,1.56,0.84c0.4,0.41,0.52,0.94,0.45,1.5c-0.09,0.73-0.48,1.33-0.92,1.91c-0.27,0.36-0.6,0.66-0.91,0.99
			c-1,1.06-2.03,2.09-2.88,3.29c-0.22,0.31-0.43,0.62-0.6,0.95c-0.16,0.31-0.35,0.59-0.58,0.86c-0.2,0.22-0.36,0.47-0.52,0.71
			c-0.45,0.66-0.99,1.21-1.75,1.52c-0.33,0.14-0.66,0.21-1.01,0.22c-1.1,0.04-2.17-0.15-3.22-0.46c-1.78-0.52-3.53-1.14-5.24-1.86
			c-0.85-0.36-1.74-0.57-2.63-0.8c-0.7-0.18-1.4-0.37-2.12-0.46c-0.38-0.04-0.75-0.04-1.13,0.02c-0.05,0.01-0.1,0.01-0.13,0.07
			c-0.03,0.07,0.02,0.12,0.07,0.15c0.08,0.05,0.16,0.1,0.24,0.14c0.37,0.18,0.74,0.35,1.13,0.47c2.14,0.64,4.19,1.54,6.24,2.41
			c1.46,0.62,2.97,1.09,4.53,1.35c1.05,0.18,1.71,0.24,3.17-0.14c0.05,0.03,0.03,0.07,0.03,0.11c-0.04,0.28,0.1,0.4,0.37,0.32
			c0.15-0.05,0.27-0.14,0.38-0.25c0.26-0.27,0.53-0.53,0.79-0.81c0.71-0.79,1.45-1.54,2.25-2.24c0.41-0.36,0.81-0.75,1.21-1.12
			c0.07-0.07,0.19-0.15,0.13-0.25c-0.07-0.1-0.19-0.01-0.28,0.02c-0.25,0.1-0.5,0.23-0.74,0.37c-0.07,0.04-0.13,0.09-0.23,0.1
			c0-0.12,0.08-0.2,0.14-0.27c0.47-0.63,0.96-1.24,1.46-1.84c0.21-0.26,0.26-0.26,0.57-0.11c0.93,0.45,1.57,1.14,1.83,2.16
			c0.08,0.33,0.19,0.65,0.26,0.97c0.05,0.22,0.03,0.42-0.04,0.63c-0.09,0.25-0.21,0.48-0.36,0.71c-0.84,1.32-1.64,2.65-2.37,4.03
			c-0.34,0.65-0.72,1.27-1.02,1.95c-0.12,0.27-0.3,0.51-0.51,0.72c-0.54,0.55-1.13,1.05-1.8,1.45c-0.96,0.58-1.97,0.75-3.08,0.55
			c-1.31-0.24-2.57-0.63-3.86-0.93c-1.47-0.34-2.92-0.77-4.39-1.09c-1.19-0.26-2.38-0.46-3.6-0.47c-0.24,0-0.49-0.04-0.73-0.06
			c-0.08-0.01-0.16,0-0.24,0c-0.07,0-0.15,0.01-0.17,0.1c-0.01,0.08,0.05,0.13,0.11,0.16c0.05,0.03,0.11,0.05,0.17,0.08
			c0.17,0.07,0.35,0.11,0.53,0.15c1.33,0.24,2.61,0.65,3.88,1.09c1.28,0.44,2.54,0.95,3.85,1.31c1,0.28,2,0.57,3.02,0.78
			c0.59,0.12,1.19,0.16,1.79,0.21c0.59,0.05,1.15-0.09,1.71-0.26c0.26-0.08,0.52-0.17,0.78-0.26c0.07,0.09-0.01,0.14-0.05,0.19
			c-0.16,0.21-0.3,0.44-0.43,0.67c-0.04,0.07-0.07,0.15-0.1,0.22c-0.03,0.11-0.03,0.23,0.07,0.31c0.1,0.08,0.21,0.05,0.31,0
			c0.14-0.08,0.26-0.19,0.38-0.3c0.44-0.42,0.83-0.87,1.23-1.32c0.7-0.78,1.41-1.55,2.04-2.4c0.1-0.13,0.2-0.26,0.29-0.4
			c0.04-0.06,0.09-0.12,0.04-0.19c-0.06-0.08-0.13-0.03-0.19-0.01c-0.04,0.01-0.07,0.04-0.14,0c0.11-0.44,0.25-0.87,0.5-1.26
			c0.16-0.25,0.34-0.48,0.5-0.73c0.1-0.16,0.24-0.21,0.42-0.18c0.46,0.07,0.88,0.22,1.22,0.57c0.29,0.31,0.53,0.64,0.67,1.04
			c0.19,0.54,0.12,1.04-0.16,1.52c-0.21,0.35-0.47,0.67-0.72,0.98c-0.54,0.66-1.12,1.3-1.58,2.02c-0.41,0.64-0.82,1.29-1.11,2
			c-0.21,0.5-0.47,0.97-0.76,1.43c-0.13,0.21-0.28,0.4-0.47,0.56c-0.25,0.21-0.46,0.46-0.69,0.69c-0.46,0.45-1,0.76-1.64,0.9
			c-0.4,0.09-0.79,0.01-1.18-0.05c-0.88-0.15-1.71-0.44-2.57-0.69c-0.8-0.23-1.61-0.45-2.43-0.62c-1.3-0.26-2.59-0.54-3.9-0.72
			c-0.82-0.11-1.64-0.15-2.47-0.12c-0.12,0.01-0.29-0.02-0.31,0.12c-0.03,0.18,0.16,0.18,0.28,0.21c0.93,0.24,1.86,0.44,2.78,0.72
			c2.04,0.62,4.1,1.16,6.14,1.76c1,0.29,2.02,0.5,3.06,0.54c0.13,0.01,0.26,0,0.39,0c0.04,0.09-0.03,0.13-0.07,0.18
			c-0.1,0.14-0.22,0.27-0.29,0.43c-0.04,0.1-0.05,0.2,0.04,0.28c0.09,0.07,0.18,0.04,0.26-0.01c0.08-0.05,0.15-0.11,0.21-0.18
			c0.17-0.17,0.36-0.33,0.51-0.52c0.39-0.47,0.9-0.75,1.42-1.03c0,0,0,0,0,0c-0.02,0.03-0.04,0.07-0.07,0.1
			c-0.33,0.33-0.67,0.65-0.96,1.02c-0.27,0.34-0.53,0.7-0.68,1.11c-0.04,0.12-0.08,0.24,0.04,0.34c0.12,0.1,0.25,0.07,0.37,0.01
			c0.16-0.08,0.31-0.2,0.44-0.32c0.91-0.79,1.72-1.68,2.53-2.55c0.3-0.32,0.55-0.68,0.77-1.06c0.04-0.07,0.12-0.16,0.03-0.25
			c-0.07-0.07-0.15-0.01-0.23,0.02c-0.05,0.02-0.09,0.04-0.14,0.07c-0.44,0.22-0.84,0.49-1.23,0.8c-0.08,0.06-0.15,0.14-0.25,0.17
			c0.39-0.51,0.86-0.95,1.24-1.47c0.31-0.44,0.61-0.89,0.82-1.39c0.05-0.11,0.08-0.28,0.24-0.28c0.15,0,0.24,0.12,0.3,0.23
			c0.31,0.57,0.46,1.18,0.34,1.82c-0.06,0.32-0.25,0.58-0.47,0.81c-0.78,0.82-1.34,1.79-1.94,2.74c-0.39,0.62-0.81,1.23-1.39,1.69
			c-1.01,0.81-2.15,1.16-3.45,0.99c-1.05-0.14-2.1-0.27-3.13-0.52c-0.86-0.21-1.71-0.45-2.58-0.61c-1.29-0.24-2.59-0.43-3.89-0.61
			c-0.66-0.09-1.31-0.28-1.93-0.55c-0.23-0.1-0.44-0.26-0.63-0.43c-0.89-0.86-1.49-1.88-1.66-3.12c-0.07-0.48-0.1-0.97-0.15-1.46
			c-0.02-0.17-0.09-0.33-0.07-0.53c0.23,0.02,0.44,0.12,0.67,0.1c0.12-0.01,0.27,0.04,0.33-0.09c0.06-0.13-0.06-0.23-0.14-0.32
			c-0.26-0.3-0.53-0.59-0.83-0.86c-1.01-0.88-1.61-1.97-1.81-3.3c-0.14-0.94-0.24-1.88-0.36-2.82c-0.03-0.22-0.07-0.44-0.1-0.66
			c0.07-0.08,0.14-0.03,0.2-0.01c0.22,0.08,0.46,0.1,0.69,0.13c0.11,0.01,0.23,0,0.33-0.04c0.09-0.04,0.12-0.11,0.08-0.2
			c-0.04-0.09-0.11-0.15-0.17-0.21c-0.26-0.26-0.54-0.5-0.82-0.73c-0.37-0.3-0.68-0.64-0.95-1.03c-0.38-0.57-0.74-1.15-1.09-1.73
			c-0.27-0.45-0.36-0.95-0.43-1.46c-0.1-0.69-0.06-1.38-0.03-2.07c0.03-0.73,0.16-1.46,0.15-2.19c0-0.28-0.03-0.57-0.06-0.88
			c0.2,0.1,0.37,0.18,0.54,0.26c0.11,0.05,0.24,0.12,0.34,0.01c0.1-0.11,0-0.23-0.06-0.34c-0.14-0.26-0.29-0.52-0.46-0.76
			c-0.31-0.42-0.54-0.88-0.73-1.37c-0.44-1.13-0.71-2.3-0.85-3.49c-0.15-1.34,0.02-2.63,0.8-3.77c0.57-0.84,1.29-1.52,2.2-1.98
			c1.07-0.54,2.21-0.87,3.41-1.02c2.1-0.26,4.2-0.54,6.26-1.08c1-0.26,1.97-0.57,2.91-1.01c0.75-0.35,1.54-0.6,2.31-0.88
			c0.23-0.08,0.24-0.08,0.32,0.17c0.19,0.64,0.38,1.29,0.57,1.93c0.17,0.56,0.39,1.09,0.65,1.61c0.05,0.11,0.11,0.22,0.19,0.31
			c0.11,0.13,0.22,0.11,0.27-0.06c0.05-0.17,0.08-0.34,0.08-0.51c0.04-0.67,0-1.34-0.15-2.01c-0.11-0.49-0.21-0.97-0.27-1.48
			c0.11,0.13,0.21,0.25,0.32,0.38c0.2,0.25,0.43,0.49,0.67,0.71c0.08,0.07,0.18,0.14,0.27,0.2c0.04,0.03,0.1,0.05,0.14,0.02
			c0.06-0.05,0.04-0.11,0.01-0.16c-0.02-0.04-0.04-0.07-0.06-0.1c-0.55-0.79-0.96-1.66-1.43-2.49c-0.2-0.36-0.39-0.71-0.59-1.07
			c-0.16-0.28-0.29-0.58-0.4-0.89c-0.58-1.68-1.13-3.36-1.81-5c-0.17-0.41-0.35-0.83-0.54-1.23c-0.21-0.46-0.33-0.94-0.47-1.42
			c-0.52-1.72-0.99-3.45-1.34-5.21c-0.18-0.93-0.27-1.87-0.31-2.82c-0.09-2.43,0.44-4.73,1.31-6.97c0.27-0.69,0.65-1.31,1.28-1.75
			c0.53-0.38,1.1-0.55,1.75-0.46c0.17,0.03,0.34,0.03,0.51,0.06c0.63,0.11,1.13,0.45,1.53,0.94c0.48,0.58,0.83,1.23,1.15,1.91
			c0.78,1.66,1.38,3.37,1.72,5.18c0.3,1.58,0.58,3.17,0.77,4.76c0.26,2.08,0.77,4.08,1.61,6c0.23,0.51,0.48,1.01,0.83,1.46
			c0.84,1.1,1.69,2.2,2.63,3.22c0.62,0.67,1.31,1.26,2.05,1.78c1.07,0.77,2.13,1.55,3.14,2.38c0.88,0.73,1.69,1.53,2.37,2.46
			c0.48,0.66,0.87,1.38,1.23,2.11c0.53,1.08,0.93,2.21,1.14,3.41c0.1,0.56,0.16,1.13,0.2,1.7c0.06,0.8,0.14,1.6,0.16,2.41
			C423.2,223.21,422.92,224.98,422.56,226.74z M407.48,246.59c-0.13,0.14-0.24,0.3-0.42,0.39
			C407.24,246.89,407.36,246.73,407.48,246.59z"/>
		<path d="M407.85,200.22c-0.11-0.01-0.23,0-0.33,0.02c-0.62,0.11-1.25,0.16-1.88,0.21c-1.82,0.16-3.54-0.22-5.15-1.09
			c-0.05-0.03-0.11-0.06-0.16-0.08c-0.2-0.07-0.35,0.04-0.34,0.25c0,0.1,0.05,0.2,0.09,0.29c0.1,0.19,0.23,0.36,0.38,0.51
			c1.03,1.02,2.29,1.48,3.67,1.56c0.68-0.04,1.32-0.08,1.94-0.25c0.68-0.18,1.28-0.51,1.78-1.02c0.04-0.04,0.09-0.09,0.12-0.14
			C408.08,200.32,408.03,200.23,407.85,200.22z"/>
		<path d="M403,196.8C403,196.82,403,196.83,403,196.8L403,196.8z"/>
		<path d="M403,196.8C403,196.8,403,196.8,403,196.8c0-0.01,0-0.01,0-0.01C403,196.79,403,196.8,403,196.8z"/>
	</g>
	<path class="st23" d="M394.54,191.28"/>
	<path class="st3" d="M397,218.05c1.9,0.61,3.78,3.34,5,2.23c0.33-0.3,2.21-0.81,4-2c0.66-0.44,1.28-1.62,1-2.46
		c-0.74-2.18-8.17-2.48-10,0C396.32,216.74,396.74,217.97,397,218.05z"/>
</g>
<g>
	<path class="st0" d="M268.54,149.79c0,39.59-21.76,74.31-54.43,93.73c-7.62,4.53-15.84,8.23-24.51,10.96
		c-0.14,0.04-0.27,0.09-0.41,0.13c-11.15,3.47-23.06,5.35-35.42,5.35c-4.32,0-8.57-0.23-12.77-0.68
		c-9.77-1.04-19.17-3.25-28.04-6.49c-0.49-0.18-0.98-0.36-1.46-0.55c-2.71-1.03-5.37-2.16-7.97-3.37c-4.8-2.24-9.41-4.8-13.8-7.64
		C59.13,221.44,39,187.87,39,149.79C39,88.95,90.38,39.62,153.77,39.62c0.19,0,0.38,0,0.56,0
		C217.46,39.92,268.54,89.13,268.54,149.79z"/>
	<g>
		<path class="st1" d="M133.57,183.68c14.66-0.42,29.31-0.85,43.97-1.27c-0.43,11.73-10.07,21.16-21.67,21.35
			C144.48,203.94,134.65,195.16,133.57,183.68z"/>
		<path class="st2" d="M175.31,169.02c0.84,7.5-1.91,4.14-2.55,28.68c-0.94,2.95-2.86,8.22-7.01,13.7
			c-3.19,4.21-5.94,7.84-9.56,7.97c-6.03,0.21-10.69-9.45-12.74-13.7c-4.31-8.92-1.91-20.39-3.5-33.77
			C146.65,163.53,161.82,161.41,175.31,169.02z"/>
		<g>
			<path class="st3" d="M140.74,171.73c3.82-2.05,11.61-5.51,21.77-5.13c5.36,0.2,9.79,1.41,12.96,2.58
				c-0.64,4.78-1.27,9.56-1.91,14.34c0,0-7.34,5.97-11.57,7.32c-5.49,1.74-10.49,1.56-14.84,1.34c-2.69-0.14-4.9-0.44-6.4-0.69
				V171.73z"/>
		</g>
		<path class="st4" d="M203.66,134.29c1.77-2.57,6.13-9.68,6.37-19.24c0.36-14.27-8.59-28.87-20.93-35.12
			c-14.7-7.44-38.38-6.17-31.96-6.5c6.05-0.32,8.8-15.2,8.28-15.61c-0.49-0.4-7.55,8.67-13.06,13.38
			c-30.27-9.88-60.62,6.68-60.54,5.74c0.08-0.99,29.3-1.37,47.32,3.15c0.06,0.01,0.1,0.02,0.16,0.04c-3.72-1.7-8.75-3.12-14.34-2.23
			c-11.82,1.88-21.74,13.43-24.53,28.99c0.44,8.57,2.77,24.81,14.97,36.64C139.84,167.23,187.68,157.61,203.66,134.29z"/>
		<path class="st2" d="M107.44,131.43c-3.31,1.46-3.21,8.11-3.19,8.92c0.35,13.75,17.69,21.81,18.8,22.3
			c3.84,1.72,7.84,3.52,9.56,1.91c3.32-3.1-4.05-16.87-12.74-25.81C116.87,135.68,111.15,129.79,107.44,131.43z"/>
		<path class="st2" d="M204.12,131.57c3.31,1.46,3.21,8.11,3.19,8.92c-0.35,13.75-17.69,21.81-18.8,22.3
			c-3.84,1.72-7.84,3.52-9.56,1.91c-3.32-3.1,4.05-16.87,12.74-25.81C194.68,135.82,200.41,129.93,204.12,131.57z"/>
		<path class="st2" d="M115.73,126.65c0.96,15.29,8.92,35.05,8.92,35.05s2.87,14.34,31.54,26.45c4.9-1.8,20.23-8.14,30.91-24.85
			c6.69-17.21,9.99-33.36,9.56-38.55c-2.87-18.05-17.28-41.47-39.19-42.06C134.45,82.06,118.16,107.02,115.73,126.65z"/>
		<path class="st6" d="M149.5,104.66c-2.23,21.03-9.24,30.59-9.24,30.59s17.84-9.24,14.34-12.43c0.56,0.47-4.46,14.34-10.2,17.52
			c1.51,1.97,9.14-0.26,14.02-4.14c13.81-10.99,8.19-37.32,7.33-41.1"/>
		<path class="st6" d="M159.38,100.2c4.46,9.19,19.78,21.69,32.05,32.04c2.2,1.85-0.45,7.72-4.01,13.53
			c1.04,0.98,3.89-0.5,4.49-0.82c4.7-2.45,7.83-8.04,7.93-15.12"/>
		<path class="st7" d="M115.73,142.54"/>
		<path class="st4" d="M200.16,127.92c5.33-4.52-2.44-34.56-24.21-45.88c-20.71-10.77-49.34-2.11-60.86,16.25
			c-6.63,10.57-8.72,26.01-3.5,29.31c9.19,5.82,39.83-26.73,43.49-23.1c1.59,1.58-3.54,8.34-1.43,10.36
			c2.23,2.14,8.26-5.16,15.77-3.98c7.42,1.17,7.71,9.26,18.8,14.66C191.24,127.01,197.59,130.1,200.16,127.92z"/>
		<g>
			<g>
				<path d="M150.61,104.66c0.27-1.25,0.41-2.54,0.4-3.82c-0.01-0.53-0.28-1.03-0.74-1.3c-0.44-0.26-1.08-0.3-1.51,0
					c-1.16,0.8-2.23,1.72-3.15,2.78c-0.26,0.3-0.44,0.65-0.44,1.06c0,0.37,0.16,0.81,0.44,1.06c0.29,0.26,0.66,0.46,1.06,0.44
					c0.38-0.02,0.8-0.14,1.06-0.44c0.65-0.75,1.37-1.43,2.16-2.04c-0.1,0.08-0.2,0.16-0.3,0.23c0.22-0.17,0.45-0.34,0.69-0.5
					c-0.75-0.43-1.5-0.86-2.26-1.3c0.01,0.75-0.04,1.5-0.14,2.24c0.02-0.13,0.04-0.27,0.05-0.4c-0.05,0.39-0.12,0.78-0.2,1.17
					c-0.08,0.39-0.06,0.8,0.15,1.16c0.18,0.31,0.54,0.61,0.9,0.69c0.38,0.09,0.81,0.07,1.16-0.15
					C150.23,105.35,150.52,105.04,150.61,104.66L150.61,104.66z"/>
			</g>
		</g>
		<g>
			<path d="M167.8,109.79c-0.24,0-0.27-2.34-0.99-6.96c-0.45-2.91-0.95-5.29-1.31-6.91c0.87,1.45,1.95,3.66,2.47,6.51
				C168.68,106.26,168.09,109.79,167.8,109.79z"/>
			<g>
				<path d="M168.2,108.35c-0.17-0.03,1.06,0.62,0.97,0.93c0.01-0.02-0.03-0.07-0.03-0.1c-0.01-0.1-0.03-0.21-0.06-0.31
					c-0.05-0.25,0.04,0.3,0.01,0.1c-0.01-0.08-0.02-0.17-0.03-0.25c-0.02-0.2-0.05-0.4-0.07-0.6c-0.14-1.27-0.29-2.53-0.46-3.79
					c-0.4-2.95-0.94-5.89-1.58-8.8c-0.91,0.39-1.83,0.77-2.74,1.16c1.24,2.09,2.1,4.39,2.43,6.81c0.18,1.31,0.21,2.65,0.13,3.96
					c-0.02,0.27-0.04,0.54-0.07,0.8c-0.03,0.27,0.03-0.18-0.01,0.06c-0.02,0.11-0.03,0.22-0.06,0.33c-0.03,0.14-0.07,0.27-0.1,0.41
					c-0.07,0.33,0.16-0.27,0.22-0.32c0.22-0.13,0.44-0.26,0.66-0.39c-0.01,0-0.01,0-0.02,0.01c-1.85,0.53-1.06,3.43,0.8,2.89
					c1.2-0.35,1.34-1.71,1.47-2.75c0.18-1.44,0.18-2.91,0.05-4.35c-0.3-3.18-1.28-6.22-2.91-8.97c-0.88-1.49-3.11-0.49-2.74,1.16
					c0.7,3.14,1.27,6.31,1.67,9.5c0.13,1.06,0.23,2.13,0.37,3.2c0.11,0.85,0.24,2.03,1.3,2.22c0.8,0.15,1.62-0.22,1.85-1.05
					C169.45,109.46,169,108.49,168.2,108.35z"/>
			</g>
		</g>
		<g>
			<g>
				<path d="M202.65,128.22c0-1.12,0-2.24,0-3.36c0-0.38-0.17-0.79-0.44-1.06c-0.26-0.26-0.69-0.46-1.06-0.44
					c-0.81,0.04-1.5,0.66-1.5,1.5c0,1.12,0,2.24,0,3.36c0,0.38,0.17,0.79,0.44,1.06c0.26,0.26,0.69,0.46,1.06,0.44
					C201.96,129.69,202.65,129.06,202.65,128.22L202.65,128.22z"/>
			</g>
		</g>
		<g>
			<g>
				<path d="M128.09,79.93c1.44-0.1,2.87-0.13,4.31-0.08c0.7,0.03,1.41,0.07,2.11,0.14c0.73,0.07,1.38,0.15,1.95,0.23
					c0.77,0.12,1.65-0.19,1.85-1.05c0.16-0.71-0.22-1.72-1.05-1.85c-3.04-0.46-6.1-0.62-9.17-0.4c-0.78,0.06-1.54,0.65-1.5,1.5
					C126.62,79.19,127.25,79.99,128.09,79.93L128.09,79.93z"/>
			</g>
		</g>
		<g>
			<g>
				<path d="M163.63,91.5c-0.12-0.25-0.27-0.49-0.44-0.72c-0.24-0.32-0.49-0.64-0.8-0.9c-0.62-0.54-1.29-0.93-2.06-1.19
					c-0.36-0.12-0.84-0.03-1.16,0.15c-0.31,0.18-0.61,0.54-0.69,0.9c-0.09,0.38-0.07,0.81,0.15,1.16c0.22,0.34,0.51,0.56,0.9,0.69
					c0.09,0.03,0.18,0.07,0.27,0.1c-0.12-0.05-0.24-0.1-0.36-0.15c0.34,0.14,0.65,0.33,0.94,0.55c-0.1-0.08-0.2-0.16-0.3-0.23
					c0.28,0.22,0.53,0.47,0.75,0.75c-0.08-0.1-0.16-0.2-0.23-0.3c0.17,0.22,0.32,0.46,0.44,0.72c0.16,0.32,0.56,0.6,0.9,0.69
					c0.36,0.1,0.84,0.05,1.16-0.15c0.32-0.21,0.6-0.51,0.69-0.9c0.02-0.13,0.04-0.27,0.05-0.4
					C163.83,91.98,163.76,91.73,163.63,91.5L163.63,91.5z"/>
			</g>
		</g>
		<g>
			<g>
				<path d="M188.04,92.43c2.58,4.56,4.88,9.27,6.85,14.12c0.3,0.75,1,1.28,1.85,1.05c0.71-0.2,1.35-1.09,1.05-1.85
					c-2.07-5.09-4.45-10.05-7.15-14.83C189.68,89.24,187.09,90.75,188.04,92.43L188.04,92.43z"/>
			</g>
		</g>
		<g>
			<g>
				<path d="M111.35,111.52c0.35-2.46,1.77-4.8,2.86-7c1.19-2.4,2.45-4.77,3.76-7.11c0.95-1.68-1.64-3.2-2.59-1.51
					c-1.36,2.42-2.66,4.87-3.88,7.36c-0.61,1.24-1.21,2.48-1.78,3.74c-0.55,1.2-1.07,2.41-1.26,3.73c-0.12,0.8,0.2,1.61,1.05,1.85
					C110.21,112.76,111.23,112.33,111.35,111.52L111.35,111.52z"/>
			</g>
		</g>
		<path class="st8" d="M108.08,135.89c-0.38,1.2-0.98,3.68-0.32,6.69c0.44,2.02,1.29,3.53,1.91,4.46"/>
		<path class="st8" d="M204.02,135.51c0.38,1.2,0.98,3.68,0.32,6.69c-0.44,2.02-1.29,3.53-1.91,4.46"/>
		<path class="st9" d="M186.94,162.49c-0.05,0-6.48,8.49-9.88,7.01c-2.16-0.94-0.67-4.87-3.5-7.01c-1.97-1.48-5.75-0.96-13.22,0.16
			c-2.43,0.36-2.07,0.4-3.82,0.64c-9.38,1.29-12.48-0.41-14.97,1.59c-2.9,2.32-0.19,7.09-2.23,8.28
			c-3.19,1.86-11.57-7.73-11.79-7.65c-0.16,0.06-0.35,0.12-0.38,0.28c-0.86,5.64,28.36,23.72,29.21,22.18
			c0,0,13.06-5.42,19.44-11.87C181.1,171.28,184.65,166.31,186.94,162.49z"/>
		<line class="st8" x1="158.1" y1="140.99" x2="153.96" y2="143.53"/>
		<line class="st8" x1="158.42" y1="142.58" x2="151.73" y2="146.72"/>
		<line class="st8" x1="160.01" y1="143.53" x2="151.41" y2="148.95"/>
		<line class="st8" x1="160.65" y1="145.45" x2="151.73" y2="150.86"/>
		<line class="st8" x1="161.61" y1="146.72" x2="152.37" y2="152.14"/>
		<path class="st10" d="M156.19,155.16c-0.05,1.27-0.11,2.55-0.16,3.82c-0.58-0.53-1.17-1.06-1.75-1.59"/>
		<g>
			<g>
				<path class="st3" d="M125.34,151.24c-0.19,0.26-0.39,0.52-0.58,0.78c-0.11,0.17-0.17,0.36-0.18,0.56
					c-0.04,0.2-0.04,0.4,0.03,0.6c0.05,0.2,0.14,0.37,0.27,0.51c0.11,0.16,0.25,0.29,0.42,0.39c0.12,0.05,0.24,0.1,0.36,0.15
					c0.27,0.07,0.53,0.07,0.8,0c0.12-0.05,0.24-0.1,0.36-0.15c0.23-0.13,0.4-0.31,0.54-0.54c0.19-0.26,0.39-0.52,0.58-0.78
					c0.11-0.17,0.17-0.36,0.18-0.56c0.04-0.2,0.04-0.4-0.03-0.6c-0.05-0.2-0.14-0.37-0.27-0.51c-0.11-0.16-0.25-0.29-0.42-0.39
					c-0.12-0.05-0.24-0.1-0.36-0.15c-0.27-0.07-0.53-0.07-0.8,0c-0.12,0.05-0.24,0.1-0.36,0.15
					C125.65,150.83,125.47,151.01,125.34,151.24L125.34,151.24z"/>
			</g>
		</g>
		<g>
			<g>
				<path class="st3" d="M126.59,152.11c-0.06,0.1-0.13,0.19-0.19,0.29c-0.11,0.17-0.17,0.36-0.18,0.56c-0.04,0.2-0.04,0.4,0.03,0.6
					c0.05,0.2,0.14,0.37,0.27,0.51c0.11,0.16,0.25,0.29,0.42,0.39c0.12,0.05,0.24,0.1,0.36,0.15c0.27,0.07,0.53,0.07,0.8,0
					c0.12-0.05,0.24-0.1,0.36-0.15c0.23-0.13,0.4-0.31,0.54-0.54c0.06-0.1,0.13-0.19,0.19-0.29c0.11-0.17,0.17-0.36,0.18-0.56
					c0.04-0.2,0.04-0.4-0.03-0.6c-0.05-0.2-0.14-0.37-0.27-0.51c-0.11-0.16-0.25-0.29-0.42-0.39c-0.12-0.05-0.24-0.1-0.36-0.15
					c-0.27-0.07-0.53-0.07-0.8,0c-0.12,0.05-0.24,0.1-0.36,0.15C126.91,151.7,126.73,151.88,126.59,152.11L126.59,152.11z"/>
			</g>
		</g>
		<g>
			<g>
				<path class="st3" d="M180.46,152.57c0,0.16,0,0.32,0,0.49c-0.01,0.21,0.04,0.4,0.13,0.58c0.06,0.19,0.16,0.35,0.31,0.48
					c0.14,0.15,0.3,0.25,0.48,0.31c0.18,0.09,0.37,0.14,0.58,0.13c0.13-0.02,0.27-0.04,0.4-0.05c0.25-0.07,0.47-0.2,0.66-0.39
					c0.08-0.1,0.16-0.2,0.23-0.3c0.14-0.23,0.2-0.49,0.2-0.76c0-0.16,0-0.32,0-0.49c0.01-0.21-0.04-0.4-0.13-0.58
					c-0.06-0.19-0.16-0.35-0.31-0.48c-0.14-0.15-0.3-0.25-0.48-0.31c-0.18-0.09-0.37-0.14-0.58-0.13c-0.13,0.02-0.27,0.04-0.4,0.05
					c-0.25,0.07-0.47,0.2-0.66,0.39c-0.08,0.1-0.16,0.2-0.23,0.3C180.53,152.05,180.46,152.3,180.46,152.57L180.46,152.57z"/>
			</g>
		</g>
		<g>
			<g>
				<path class="st3" d="M182.21,152.92c0,0,0.01,0.01,0.01,0.01c-0.08-0.1-0.16-0.2-0.23-0.3c0.08,0.1,0.14,0.21,0.19,0.33
					c-0.05-0.12-0.1-0.24-0.15-0.36c0.05,0.13,0.09,0.26,0.11,0.4c-0.02-0.13-0.04-0.27-0.05-0.4c0.01,0.12,0.02,0.24,0,0.36
					c-0.01,0.21,0.04,0.4,0.13,0.58c0.06,0.19,0.16,0.35,0.31,0.48c0.14,0.15,0.3,0.25,0.48,0.31c0.18,0.09,0.37,0.14,0.58,0.13
					c0.13-0.02,0.27-0.04,0.4-0.05c0.25-0.07,0.47-0.2,0.66-0.39c0.08-0.1,0.16-0.2,0.23-0.3c0.14-0.23,0.2-0.49,0.2-0.76
					c0.01-0.1,0.01-0.2,0-0.31c-0.02-0.18-0.04-0.36-0.07-0.53c-0.01-0.05-0.02-0.1-0.04-0.15c-0.01-0.05-0.03-0.09-0.05-0.14
					c-0.06-0.16-0.13-0.33-0.21-0.48c-0.1-0.2-0.26-0.38-0.4-0.55c-0.14-0.15-0.3-0.25-0.48-0.31c-0.18-0.09-0.37-0.14-0.58-0.13
					c-0.21-0.01-0.4,0.04-0.58,0.13c-0.19,0.06-0.35,0.16-0.48,0.31c-0.08,0.1-0.16,0.2-0.23,0.3c-0.14,0.23-0.2,0.49-0.2,0.76
					c0.02,0.13,0.04,0.27,0.05,0.4C181.89,152.51,182.02,152.73,182.21,152.92L182.21,152.92z"/>
			</g>
		</g>
		<path class="st6" d="M151.41,105.62c-4.08,2.85-29.95,26.76-32.18,36.32c-0.64,1.59,3.06,10,3.5,9.88
			c0.02-0.01,0.04-0.04,0.04-0.05c0.21-0.83-17.49-5.88-14.06-29.26"/>
		<path class="st12" d="M216.41,226.69c-0.87-6.94-1.9-13.89-4.37-20.73c-10.09-1.91-20.18-3.82-30.27-5.74l9.79,34.11
			c1.04,6.24,2.23,12.48,3.49,18.72l26.44-0.49C219.32,244.19,217.52,235.57,216.41,226.69z"/>
		<path class="st12" d="M124.65,230.84l12.74-31.86c-10.09,1.91-20.18,3.82-30.27,5.74c-2.49,7.93-4.94,16.01-7.33,24.21
			c-2.56,8.77-4.97,17.45-7.27,26.03l25.61-0.47C120.31,246.6,122.48,238.72,124.65,230.84z"/>
		<g>
			<path class="st13" d="M194.36,242.14c0.04-6.9,0.46-16.9,2.61-29.15l-80.61,2.55c2.21,5.88,2.82,21.55,2.57,38.92l75.73-1.4
				C194.48,249.85,194.34,246.24,194.36,242.14z"/>
			<g>
				<path d="M194.24,242.14c0.16-9.51,0.74-20.29,2.73-29.03c-13.42,0.43-47.5,1.51-60.46,1.88c-6.72,0.19-13.44,0.4-20.15,0.68
					l0.12-0.18c1.1,3.11,1.56,6.37,1.99,9.61c1.24,9.39,0.87,19.87,0.58,29.36c0,0-0.13-0.13-0.13-0.13
					c-0.02,0.04,76.18-1.55,75.62-1.27C194.55,253.07,194.24,242.14,194.24,242.14L194.24,242.14z M194.48,242.14l0.29,10.91l0,0.11
					c0,0.05-75.8,1.38-75.84,1.42c0,0-0.13,0-0.13,0l0-0.13l-0.03-4.89c-0.23-7.56-0.51-16.88-0.98-24.4
					c-0.27-3.29-0.55-6.63-1.61-9.76c6.78-0.15,13.55-0.36,20.33-0.6c12.82-0.44,47.21-1.52,60.46-1.94c0,0,0.15,0,0.15,0
					l-0.03,0.14C195.4,222.63,194.52,232.38,194.48,242.14L194.48,242.14z"/>
			</g>
		</g>
		<path class="st14" d="M164.79,210.13c-5.73,1.91-11.92,2.12-18.48,0.96c0.03-1.19,2.55,9.24,9.56,12.11
			C165.75,217.77,165.16,208.19,164.79,210.13z"/>
		<path class="st13" d="M142.17,210.13c-1.14-3.39-5.21-4.96-8.28-4.46c-5.13,0.83-8.64,7.56-6.69,11.15
			c1.91,3.52,9.09,4.05,12.74,0.64C141.61,215.89,143.12,212.97,142.17,210.13z"/>
		<path class="st13" d="M188.52,206.74c-1.08-3.51-5.47-5.12-8.59-5.06c-7.02,0.13-13.21,8.83-11.47,12.74
			c1.81,4.06,12.99,4.89,17.83-0.35C186.57,213.77,189.63,210.35,188.52,206.74z"/>
		<path class="st12" d="M177.7,182.56c-7.18,8.35-14.16,15.77-20.39,19.44c2.18,5.36,4.35,10.73,6.53,16.09
			c3.11-3.11,7.27-6.72,12.61-10.13c4.57-2.92,8.89-4.97,12.56-6.43c-2.66-3.93-5.31-7.86-7.97-11.79
			C179.93,187.34,178.81,184.95,177.7,182.56z"/>
		<path class="st12" d="M133.5,183.9c7.18,8.35,14.16,15.77,20.39,19.44c-2.18,5.36-4.35,10.73-6.53,16.09
			c-4.18-3.3-8.38-6.68-12.61-10.13c-3.31-2.7-6.57-5.4-9.78-8.09c1.65-2.33,3.44-5.2,5.1-8.6
			C131.6,189.44,132.7,186.48,133.5,183.9z"/>
		<g>
			<g>
				<path d="M176.33,194.57c-1.03,0.84-2.16,1.53-3.36,2.11c-0.54,0.26-1.07,0.53-1.46,0.99c-0.42,0.49-0.63,1.11-0.88,1.69
					c-1.19,2.8-2.39,5.6-3.58,8.4c-0.37,0.88,0.92,1.64,1.3,0.76c1.16-2.72,2.32-5.45,3.48-8.17c0.23-0.54,0.42-1.25,0.81-1.7
					c0.37-0.43,1-0.62,1.49-0.87c1.17-0.59,2.25-1.32,3.27-2.15C178.14,195.02,177.07,193.96,176.33,194.57L176.33,194.57z"/>
			</g>
		</g>
		<g>
			<g>
				<path d="M131.8,195.27c0.22,0.01,0.44,0.02,0.65,0.03c0.11,0.01,0.22,0.02,0.33,0.03c0.03,0,0.06,0.01,0.09,0.01
					c-0.03,0-0.05-0.01-0.08-0.01c0.04-0.01,0.14,0.02,0.17,0.03c0.2,0.04,0.4,0.08,0.6,0.15c0.05,0.02,0.09,0.03,0.14,0.05
					c0.18,0.07-0.14-0.07,0.04,0.02c0.09,0.05,0.18,0.09,0.26,0.14c0.02,0.01,0.1,0.05,0.1,0.07c-0.08-0.06-0.09-0.08-0.05-0.04
					c0.02,0.02,0.04,0.03,0.06,0.05c0.06,0.06,0.12,0.11,0.18,0.18c0.03,0.03,0.07,0.09,0.1,0.12c-0.06-0.04-0.08-0.11-0.01-0.01
					c0.05,0.08,0.1,0.16,0.14,0.24c0.07,0.12-0.04-0.11-0.01-0.02c0.01,0.04,0.03,0.08,0.04,0.12c0.01,0.05,0.03,0.09,0.04,0.14
					c0.01,0.02,0.01,0.05,0.01,0.07c0.01,0.06,0.01,0.03-0.01-0.08c-0.02,0.01,0,0.21,0,0.24c-0.01,0.16,0.05-0.16,0-0.01
					c-0.01,0.05-0.03,0.09-0.04,0.14c-0.12,0.37,0.14,0.84,0.52,0.92c0.41,0.09,0.79-0.12,0.92-0.52c0.35-1.08-0.26-2.18-1.12-2.8
					c-0.87-0.64-2.03-0.7-3.07-0.74c-0.39-0.02-0.77,0.36-0.75,0.75C131.07,194.94,131.38,195.25,131.8,195.27L131.8,195.27z"/>
			</g>
		</g>
		<path class="st7" d="M174.35,193.88"/>
		<path class="st7" d="M174.35,191.01"/>
		<path class="st7" d="M175.63,190.69"/>
		<path class="st15" d="M210.04,196.42c-1.63-2.05-3.93-2.81-5.1-3.19c-0.63-0.21-5.73-1.79-10.51,0.96
			c-5.06,2.9-8.22,9.75-6.05,14.66c2.86,6.48,14.44,8.3,20.07,2.87C212.44,207.86,213.27,200.49,210.04,196.42z"/>
		<path class="st16" d="M212.74,203.64c-6.55-6.24-14.84-7.34-24.5-4.37c-0.38,0.94-0.77,1.87-1.15,2.81
			c8.13,0.24,16.4,0.97,25.27,3.75C212.49,205.09,212.62,204.37,212.74,203.64z"/>
		<path class="st16" d="M106.84,203.09c5.73-6.24,12.98-7.34,21.43-4.37c0.33,0.94,0.67,1.87,1,2.81
			c-7.11,0.24-14.34,0.97-22.1,3.75C107.06,204.54,106.95,203.81,106.84,203.09z"/>
		<g>
			<g>
				<path class="st17" d="M114.5,216.67c-2.5,9.18-4.13,18.57-4.9,28.05c-0.16,1.92,2.84,1.91,3,0c0.75-9.22,2.37-18.33,4.8-27.25
					C117.9,215.6,115.01,214.81,114.5,216.67L114.5,216.67z"/>
			</g>
		</g>
		<g>
			<g>
				<path class="st17" d="M207.41,212.7c-2.56,2.84-5.07,5.72-7.53,8.64c-0.5,0.6-0.63,1.54,0,2.12c0.56,0.51,1.58,0.64,2.12,0
					c2.46-2.92,4.97-5.8,7.53-8.64c0.53-0.58,0.62-1.55,0-2.12C208.96,212.18,207.97,212.08,207.41,212.7L207.41,212.7z"/>
			</g>
		</g>
		<g>
			<g>
				<path class="st17" d="M118.83,204.56c3.29,0.88,6.6,1.66,9.93,2.35c0.77,0.16,1.66-0.22,1.85-1.05
					c0.17-0.75-0.23-1.68-1.05-1.85c-3.33-0.69-6.64-1.47-9.93-2.35c-0.76-0.2-1.66,0.25-1.85,1.05
					C117.6,203.5,118.02,204.35,118.83,204.56L118.83,204.56z"/>
			</g>
		</g>
	</g>
	<path class="st18" d="M162.08,39.63c-4.19-0.45-8.45-0.68-12.77-0.68c-63.39,0-114.77,49.32-114.77,110.16
		c0,42.35,24.9,79.13,61.42,97.56c7.33,3.7,15.13,6.66,23.29,8.78c0.23,0.06,0.46,0.12,0.69,0.17c9.2,2.33,18.85,3.6,28.81,3.64
		c0.19,0,0.38,0,0.56,0c16.64,0,32.45-3.4,46.72-9.51c0.42-0.17,0.83-0.35,1.24-0.54c8.35-3.69,16.16-8.31,23.28-13.73
		c26.52-20.18,43.54-51.37,43.54-86.38C264.08,92.41,219.46,45.72,162.08,39.63z"/>
</g>
<g>
	<path class="st7" d="M186.47,148c0.12-0.79,0.87-6.33-3.22-10.03c-5.04-4.55-14.41-3.6-18.03,0.59c-0.93,1.08-1.38,2.26-1.61,3.24"
		/>
	<path class="st20" d="M141.08,129.97c-7.67-0.24-14.75,1.01-20.93,4.51"/>
	<path class="st20" d="M167.49,129.96c7.67-0.24,14.75,1.01,20.93,4.51"/>
	<path class="st7" d="M122.68,147.1c-0.12-0.79-0.87-6.33,3.22-10.03c5.04-4.55,14.41-3.6,18.03,0.59c0.93,1.08,1.38,2.26,1.61,3.24
		"/>
	<path class="st21" d="M167.88,175.22c-0.25-2.16-13.01-2.01-14-2c-2.13,0.03-10.72,0.13-11,2c-0.2,1.32,3.75,3.2,7,4
		C158.59,181.36,168.11,177.14,167.88,175.22z"/>
	<path class="st22" d="M143.88,171.22c-0.06,0.49,5.55,2.18,12,2c5.34-0.15,10.06-1.55,10-2c-0.04-0.34-2.82-0.04-10,0
		C147.1,171.27,143.93,170.86,143.88,171.22z"/>
</g>
<g>
	<path class="st0" d="M164.79,146.12c-0.76-1.33-0.68-2.64-0.62-3.71c0.03-0.48,0.21-3.6,2.17-5.45c3.72-3.51,14.64-3.21,18.64,1.73
		c1.8,2.22,2.48,5.73,0.31,8.42c-2.98,3.7-9.33,3.31-10.87,3.22C173.56,150.27,166.91,149.8,164.79,146.12z"/>
	<path class="st7" d="M186.51,147.65c0.12-0.79,0.87-6.33-3.22-10.03c-5.04-4.55-14.41-3.6-18.03,0.59
		c-0.93,1.08-1.38,2.26-1.61,3.24"/>
	<circle class="st19" cx="173.39" cy="142.09" r="3.94"/>
	<circle class="st0" cx="175.25" cy="140.92" r="1.53"/>
	<path class="st0" d="M144.68,145.66c0.76-1.33,0.68-2.64,0.62-3.71c0-0.04-0.01-0.11-0.01-0.19c-0.15-1.99-1.52-4.46-2.14-5.26
		c-2.5-3.16-12.62-4.16-17.14,1.49c-1.68,2.1-3.17,5.84-1.66,8.65c2.02,3.74,8.05,3.39,10.79,3.22
		C135.98,149.82,142.58,149.34,144.68,145.66z"/>
	<circle class="st19" cx="136.08" cy="141.64" r="3.94"/>
	<circle class="st0" cx="138.08" cy="140.47" r="1.53"/>
	<path class="st7" d="M125.17,147.67c0.97,0.49,9.22,4.44,16.1,0.32c1.7-1.02,2.95-2.31,3.86-3.54"/>
	<path class="st25" d="M139.77,131.4c-7.64,4.23-14.52,5.91-20.25,6.95"/>
	<path class="st25" d="M169.09,131.79c6.13,2.96,12.5,5.92,19.79,8.15"/>
	<path class="st7" d="M122.72,146.75c0.02-1.14,0.22-6.44,4.3-9.91c5.01-4.25,13.45-3.71,16.95,0.47c0.92,1.1,1.37,2.29,1.61,3.24"
		/>
	<path class="st7" d="M184.33,148.29c-0.97,0.49-9.22,4.44-16.1,0.32c-1.7-1.02-2.95-2.31-3.86-3.54"/>
</g>
<g>
	<g>
		<path d="M164.23,174.01c-4.79-0.15-9.58,0.4-14.15,1.88c-0.91,0.3-0.52,1.75,0.4,1.45c4.45-1.45,9.08-1.98,13.75-1.83
			C165.19,175.54,165.19,174.04,164.23,174.01L164.23,174.01z"/>
	</g>
</g>
<g>
	<path class="st23" d="M83.88,239.17c0.11,0.56,0.23,1.12,0.39,1.67c0.34,1.16,0.87,2.24,1.52,3.26c0.44,0.69,0.9,1.36,1.46,1.96
		c0.78,0.84,1.67,1.55,2.63,2.18c1.1,0.72,2.24,1.38,3.39,2.02c0.79,0.44,1.54,0.95,2.23,1.55c1.05,0.91,2.01,1.91,2.97,2.91
		c0.39,0.41,0.7,0.87,0.98,1.36c1.05,1.81,1.78,3.75,2.27,5.78c0.37,1.57,0.83,3.11,1.3,4.65c0.54,1.75,1.32,3.4,2.28,4.96
		c0.39,0.63,0.81,1.25,1.35,1.77c0.45,0.44,0.98,0.72,1.62,0.76c0.17,0.01,0.35,0,0.52,0.01c0.66,0.02,1.2-0.21,1.69-0.65
		c0.57-0.51,0.88-1.16,1.07-1.88c0.62-2.32,0.89-4.67,0.53-7.08c-0.14-0.94-0.34-1.86-0.62-2.77c-0.54-1.71-1.2-3.38-1.9-5.03
		c-0.2-0.46-0.37-0.93-0.63-1.36c-0.23-0.38-0.45-0.77-0.67-1.17c-0.86-1.55-1.59-3.17-2.35-4.77c-0.14-0.3-0.3-0.58-0.5-0.84
		c-0.24-0.33-0.47-0.67-0.71-1c-0.56-0.78-1.06-1.59-1.69-2.32c-0.03-0.03-0.05-0.06-0.07-0.1c-0.03-0.05-0.07-0.11-0.01-0.16
		c0.04-0.04,0.1-0.02,0.14,0c0.1,0.06,0.2,0.11,0.29,0.17c0.27,0.19,0.52,0.4,0.75,0.63c0.12,0.12,0.24,0.23,0.36,0.35
		c-0.12-0.5-0.28-0.97-0.44-1.44c-0.22-0.64-0.33-1.3-0.37-1.98c-0.01-0.17,0-0.35,0.03-0.52c0.03-0.17,0.14-0.2,0.26-0.09
		c0.09,0.08,0.16,0.19,0.22,0.29c0.31,0.49,0.59,1,0.82,1.53c0.26,0.62,0.52,1.24,0.78,1.86c0.1,0.24,0.11,0.24,0.33,0.13
		c0.74-0.36,1.5-0.7,2.2-1.13c0.88-0.54,1.82-0.96,2.78-1.33c1.98-0.76,4.04-1.27,6.1-1.76c1.17-0.28,2.26-0.74,3.27-1.39
		c0.86-0.56,1.49-1.32,1.97-2.22c0.65-1.23,0.68-2.52,0.38-3.84c-0.27-1.18-0.67-2.31-1.23-3.38c-0.24-0.46-0.53-0.89-0.88-1.28
		c-0.2-0.22-0.37-0.46-0.54-0.7c-0.07-0.1-0.18-0.21-0.09-0.33c0.08-0.12,0.23-0.06,0.34-0.02c0.18,0.05,0.36,0.12,0.57,0.2
		c-0.06-0.31-0.12-0.59-0.15-0.87c-0.09-0.73-0.04-1.46-0.09-2.2c-0.05-0.69-0.09-1.38-0.26-2.06c-0.13-0.49-0.27-0.98-0.59-1.4
		c-0.41-0.55-0.83-1.08-1.27-1.6c-0.31-0.36-0.66-0.67-1.05-0.92c-0.31-0.2-0.61-0.41-0.9-0.64c-0.07-0.06-0.15-0.11-0.19-0.19
		c-0.05-0.09-0.03-0.16,0.05-0.21c0.1-0.05,0.21-0.07,0.32-0.08c0.23,0,0.47-0.01,0.7,0.05c0.06,0.02,0.14,0.05,0.2-0.03
		c-0.06-0.21-0.12-0.43-0.18-0.64c-0.22-0.92-0.42-1.85-0.67-2.76c-0.35-1.3-1.07-2.32-2.17-3.08c-0.33-0.23-0.62-0.49-0.92-0.76
		c-0.09-0.08-0.22-0.16-0.17-0.3c0.05-0.14,0.2-0.11,0.32-0.13c0.22-0.04,0.44,0.03,0.67,0.03c0-0.2-0.09-0.35-0.12-0.52
		c-0.1-0.48-0.19-0.96-0.31-1.43c-0.3-1.22-1.01-2.17-1.99-2.92c-0.2-0.16-0.43-0.29-0.67-0.36c-0.64-0.2-1.32-0.32-1.98-0.34
		c-1.31-0.03-2.62-0.09-3.93-0.18c-0.88-0.06-1.76-0.21-2.64-0.32c-1.05-0.14-2.11-0.15-3.17-0.17c-1.31-0.03-2.41,0.45-3.32,1.37
		c-0.52,0.52-0.87,1.17-1.2,1.84c-0.49,1.01-0.94,2.04-1.62,2.94c-0.19,0.25-0.35,0.54-0.38,0.86c-0.05,0.66,0.17,1.24,0.54,1.77
		c0.08,0.11,0.18,0.22,0.32,0.2c0.17-0.02,0.17-0.19,0.21-0.3c0.16-0.52,0.4-1,0.66-1.47c0.31-0.56,0.73-1.06,1.07-1.6
		c-0.1,0.03-0.16,0.12-0.23,0.19c-0.35,0.34-0.72,0.66-1.13,0.93c-0.04,0.03-0.08,0.06-0.13,0.08c-0.07,0.03-0.14,0.11-0.22,0.04
		c-0.1-0.08-0.03-0.17,0-0.25c0.17-0.4,0.38-0.79,0.64-1.14c0.71-0.96,1.42-1.93,2.24-2.82c0.12-0.14,0.25-0.27,0.41-0.37
		c0.12-0.08,0.24-0.12,0.37-0.03c0.12,0.09,0.1,0.21,0.07,0.33c-0.11,0.43-0.33,0.81-0.56,1.18c-0.25,0.4-0.55,0.76-0.84,1.12
		c-0.03,0.03-0.04,0.07-0.06,0.1c0,0,0,0,0,0c0.49-0.33,0.97-0.67,1.3-1.18c0.13-0.2,0.3-0.39,0.45-0.58
		c0.06-0.07,0.12-0.14,0.19-0.2c0.07-0.06,0.16-0.1,0.25-0.04c0.11,0.07,0.11,0.17,0.07,0.27c-0.05,0.17-0.15,0.31-0.24,0.46
		c-0.03,0.06-0.1,0.11-0.05,0.19c0.13-0.01,0.26-0.03,0.39-0.04c1.04-0.07,2.08,0.02,3.1,0.2c2.1,0.37,4.2,0.68,6.3,1.07
		c0.94,0.18,1.89,0.27,2.84,0.41c0.12,0.02,0.31-0.01,0.3,0.18c-0.01,0.14-0.18,0.13-0.3,0.15c-0.82,0.13-1.64,0.18-2.47,0.16
		c-1.32-0.03-2.64-0.17-3.96-0.29c-0.83-0.07-1.66-0.2-2.48-0.35c-0.87-0.15-1.74-0.35-2.63-0.4c-0.4-0.02-0.8-0.06-1.18,0.08
		c-0.61,0.21-1.12,0.58-1.53,1.08c-0.21,0.25-0.38,0.53-0.61,0.76c-0.17,0.18-0.3,0.39-0.41,0.61c-0.24,0.48-0.45,0.98-0.6,1.5
		c-0.22,0.74-0.55,1.43-0.88,2.11c-0.38,0.77-0.88,1.46-1.35,2.18c-0.22,0.34-0.44,0.69-0.61,1.06c-0.23,0.51-0.24,1.01,0.01,1.53
		c0.19,0.39,0.45,0.69,0.78,0.96c0.37,0.32,0.81,0.41,1.28,0.43c0.18,0.01,0.31-0.06,0.39-0.23c0.13-0.26,0.29-0.51,0.42-0.78
		c0.2-0.41,0.3-0.86,0.35-1.3c-0.07-0.03-0.1,0-0.14,0.02c-0.06,0.03-0.13,0.09-0.19,0.02c-0.06-0.07-0.01-0.14,0.02-0.2
		c0.08-0.14,0.16-0.28,0.24-0.42c0.53-0.91,1.15-1.75,1.76-2.61c0.35-0.49,0.69-0.99,1.07-1.45c0.11-0.13,0.21-0.25,0.35-0.34
		c0.1-0.07,0.2-0.11,0.31-0.04c0.11,0.07,0.12,0.18,0.1,0.3c-0.01,0.08-0.04,0.16-0.07,0.23c-0.1,0.24-0.21,0.48-0.35,0.71
		c-0.03,0.05-0.1,0.11-0.03,0.19c0.25-0.12,0.5-0.24,0.75-0.35c0.53-0.23,1.08-0.44,1.67-0.45c0.6-0.02,1.2-0.04,1.8,0.01
		c1.04,0.09,2.06,0.27,3.09,0.44c1.34,0.22,2.65,0.58,3.97,0.88c1.31,0.29,2.63,0.56,3.98,0.65c0.18,0.01,0.36,0.04,0.54,0.09
		c0.06,0.02,0.12,0.03,0.17,0.06c0.07,0.03,0.14,0.07,0.13,0.15c0,0.09-0.08,0.11-0.15,0.12c-0.08,0.01-0.16,0.02-0.24,0.03
		c-0.24,0.01-0.49,0-0.73,0.02c-1.21,0.13-2.42,0.06-3.63-0.07c-1.5-0.16-2.98-0.42-4.48-0.6c-1.31-0.16-2.62-0.4-3.94-0.49
		c-1.12-0.08-2.11,0.21-3,0.88c-0.62,0.47-1.15,1.04-1.63,1.65c-0.18,0.23-0.33,0.49-0.42,0.78c-0.22,0.7-0.53,1.37-0.8,2.05
		c-0.57,1.45-1.22,2.87-1.91,4.27c-0.12,0.24-0.22,0.48-0.28,0.74c-0.05,0.21-0.05,0.42,0.03,0.63c0.11,0.32,0.25,0.62,0.37,0.94
		c0.37,0.98,1.09,1.6,2.06,1.95c0.33,0.12,0.37,0.11,0.56-0.17c0.43-0.65,0.85-1.32,1.25-1.99c0.05-0.08,0.12-0.16,0.11-0.29
		c-0.1,0.02-0.16,0.08-0.22,0.13c-0.22,0.16-0.45,0.32-0.69,0.45c-0.09,0.05-0.19,0.15-0.27,0.05c-0.08-0.09,0.04-0.19,0.1-0.26
		c0.36-0.42,0.71-0.84,1.08-1.25c0.71-0.79,1.36-1.62,1.98-2.48c0.22-0.31,0.46-0.6,0.69-0.89c0.1-0.12,0.21-0.22,0.35-0.29
		c0.25-0.11,0.41,0,0.4,0.28c0,0.04-0.01,0.08,0.04,0.1c1.41-0.53,2.08-0.55,3.14-0.49c1.58,0.09,3.13,0.39,4.65,0.84
		c2.14,0.64,4.27,1.31,6.47,1.7c0.4,0.07,0.79,0.2,1.17,0.34c0.09,0.03,0.17,0.07,0.25,0.11c0.06,0.03,0.1,0.07,0.08,0.14
		c-0.01,0.06-0.07,0.07-0.12,0.08c-0.37,0.1-0.74,0.15-1.12,0.15c-0.73,0-1.44-0.12-2.16-0.22c-0.91-0.12-1.82-0.24-2.7-0.5
		c-1.78-0.53-3.58-0.95-5.41-1.27c-1.08-0.19-2.16-0.26-3.25-0.1c-0.35,0.05-0.67,0.16-0.98,0.33c-0.72,0.4-1.2,1-1.57,1.71
		c-0.14,0.26-0.27,0.53-0.44,0.77c-0.2,0.29-0.36,0.59-0.49,0.92c-0.14,0.35-0.31,0.69-0.5,1.02c-0.71,1.28-1.62,2.42-2.49,3.58
		c-0.27,0.36-0.57,0.7-0.79,1.08c-0.37,0.62-0.69,1.26-0.7,2c-0.01,0.56,0.17,1.08,0.61,1.44c0.47,0.39,1.03,0.62,1.65,0.66
		c0.72,0.05,1.42-0.05,2.11-0.25c0.93-0.28,1.74-0.77,2.5-1.38c0.93-0.75,1.63-1.7,2.33-2.66c0.08-0.1,0.08-0.2,0.01-0.31
		c-0.06-0.09-0.11-0.19-0.15-0.3c-0.09-0.3,0.04-0.48,0.35-0.5c0.19-0.01,0.37,0.03,0.53,0.12c0.2,0.1,0.39,0.22,0.58,0.34
		c0.91,0.58,1.83,1.16,2.83,1.57c1.77,0.73,3.59,1.34,5.44,1.85c0.74,0.2,1.49,0.31,2.27,0.25c0.15-0.01,0.31,0,0.46,0.03
		c0.11,0.02,0.24,0.05,0.23,0.2c-0.01,0.13-0.13,0.14-0.23,0.15c-0.9,0.12-1.8,0.25-2.7,0.35c-0.75,0.08-1.5,0.07-2.26,0.05
		c-0.73-0.02-1.47-0.04-2.19-0.19c-0.38-0.08-0.75-0.19-1.11-0.33c-0.15-0.06-0.18-0.03-0.17,0.13c0,0.04,0.01,0.08,0.01,0.12
		c0.17,1.16,0.38,2.31,0.78,3.42c0.02,0.06,0.04,0.11,0.05,0.17c0.01,0.04,0,0.09-0.02,0.11c-0.04,0.04-0.09,0.02-0.14-0.01
		c-0.16-0.13-0.28-0.29-0.4-0.46c-0.32-0.48-0.58-1.01-0.84-1.53c-0.32-0.63-0.6-1.27-0.95-1.88c-0.12-0.21-0.26-0.39-0.47-0.51
		c-0.61-0.34-1.26-0.52-1.96-0.44c-0.23,0.03-0.4,0.13-0.51,0.34c-0.22,0.44-0.47,0.86-0.68,1.3c-0.43,0.9-0.91,1.78-1.39,2.65
		c-0.05,0.1-0.1,0.28-0.24,0.23c-0.14-0.05-0.06-0.22-0.04-0.33c0.09-0.48,0.19-0.96,0.3-1.44c0.06-0.27-0.04-0.5-0.13-0.74
		c-0.04-0.09-0.11-0.11-0.2-0.07c-0.05,0.02-0.09,0.04-0.14,0.07c-1.04,0.55-2.14,0.87-3.34,0.85c-0.84-0.02-1.63-0.21-2.35-0.65
		c-0.56-0.34-0.92-0.81-1.11-1.44c-0.28-0.97-0.32-1.92,0.09-2.87c0.19-0.44,0.43-0.86,0.72-1.24c0.32-0.41,0.64-0.82,0.96-1.23
		c0.09-0.12,0.19-0.23,0.22-0.38c-0.09-0.07-0.19-0.07-0.28-0.09c-0.8-0.16-1.45-0.56-1.99-1.17c-0.41-0.47-0.66-1.03-0.88-1.6
		c-0.32-0.8-0.35-1.6,0-2.41c0.1-0.22,0.09-0.23-0.13-0.31c-0.64-0.21-1.24-0.51-1.85-0.8c-0.06-0.03-0.13-0.06-0.18-0.11
		c-0.1-0.08-0.08-0.17,0.04-0.2c0.16-0.04,0.32-0.05,0.49-0.03c0.53,0.04,1.05,0.13,1.56,0.27c0.14,0.04,0.28,0.07,0.41,0.11
		c0.13,0.04,0.19-0.04,0.22-0.15c0.04-0.12-0.05-0.14-0.13-0.17c-0.17-0.07-0.34-0.15-0.51-0.2c-1.05-0.35-2.07-0.81-3.15-1.08
		c-0.07-0.02-0.15-0.03-0.16-0.12c0-0.09,0.07-0.12,0.14-0.14c0.22-0.09,0.45-0.14,0.68-0.14c0.47,0,0.94,0.05,1.39,0.16
		c0.29,0.07,0.59,0.14,0.94,0.23c-0.15-0.17-0.3-0.22-0.45-0.27c-0.82-0.24-1.64-0.47-2.47-0.71c-0.09-0.03-0.18-0.05-0.25-0.1
		c-0.1-0.06-0.1-0.16,0-0.22c0.09-0.05,0.19-0.08,0.29-0.09c0.51-0.06,1.01-0.15,1.52-0.13c0.16,0.01,0.33,0.01,0.49,0
		c0.14,0,0.16-0.05,0.09-0.17c-0.12-0.19-0.22-0.39-0.33-0.58c-0.44-0.78-0.42-1.57-0.08-2.38c0.25-0.59,0.6-1.11,0.97-1.62
		c0.55-0.75,1.04-1.54,1.43-2.38c0.12-0.26,0.11-0.28-0.15-0.37c-0.52-0.17-0.85-0.54-1-1.07c-0.09-0.34-0.17-0.69-0.25-1.04
		c-0.18-0.83-0.01-1.6,0.48-2.29c0.2-0.27,0.37-0.56,0.54-0.85c0.03-0.05,0.08-0.1,0.01-0.18c-0.47,0.14-0.94,0.29-1.39,0.51
		c-0.71,0.35-1.31,0.85-1.9,1.38c-0.55,0.5-1.08,1.02-1.57,1.59c-0.4,0.47-0.73,1-1.06,1.53c-0.69,1.1-1.23,2.28-1.71,3.48
		c-0.4,1.01-0.8,2.03-1.03,3.1c-0.28,1.26-0.38,2.54-0.45,3.82c0,0.06-0.03,0.14,0.06,0.2c0.08-0.07,0.11-0.17,0.15-0.25
		c0.2-0.36,0.38-0.72,0.59-1.07c0.32-0.55,0.68-1.06,1.13-1.52c0.12-0.12,0.25-0.24,0.4-0.33c0.05-0.03,0.1-0.04,0.15-0.01
		c0.06,0.04,0.06,0.1,0.04,0.16c-0.01,0.04-0.02,0.08-0.04,0.12c-0.37,0.93-0.73,1.86-1.18,2.75c-0.52,1.05-0.99,2.12-1.37,3.23
		c-0.44,1.27-0.7,2.57-0.82,3.91c-0.16,1.79-0.25,3.58-0.01,5.37C83.57,237.59,83.74,238.38,83.88,239.17z M100.88,255.91
		c0.03-0.05,0.07-0.1,0.11-0.15c0.43-0.56,1-0.96,1.65-1.21c0.6-0.23,1.23-0.35,1.9-0.46c1.38-0.07,2.68,0.25,3.82,1.15
		c0.17,0.13,0.32,0.28,0.44,0.47c0.06,0.09,0.11,0.17,0.12,0.28c0.03,0.21-0.11,0.33-0.31,0.29c-0.06-0.01-0.11-0.04-0.17-0.07
		c-1.69-0.69-3.44-0.87-5.24-0.51c-0.62,0.12-1.24,0.24-1.84,0.42c-0.11,0.03-0.22,0.05-0.33,0.06
		C100.84,256.17,100.79,256.08,100.88,255.91z"/>
	<path class="st3" d="M104.39,233.58c-2.43-3.04-3.39-6.29-3.1-9.72c-2.28,3.61-4.56,7.22-6.84,10.83c-0.31,3.33,2.24,3.7,5.41,3.42
		C101.38,236.6,102.88,235.09,104.39,233.58z"/>
	<path class="st3" d="M97.44,234.36c-0.55,0.67-2.87-3.41-7.95-8.17c-1.57-1.46,3.84-7.2,3.97-9.5
		C93.67,212.95,100.1,231.07,97.44,234.36z"/>
	<path class="st3" d="M100.41,224.97c2.39-0.94-3.12-4.33-2.76-6.74c0.03-0.19,0-0.3-0.06-0.34c-0.47-0.29-4.83,4.33-4.02,8.84
		c0.21,1.14,0.95,3.48,2.43,3.75c0.11,0.02,0.72,0.39,0.99-0.11C97.92,228.68,99.17,225.46,100.41,224.97z"/>
	<path class="st3" d="M99.42,216.03c0.57-0.11,1.09,0.21,0.99-0.11c-0.16-0.54-1.17-2.52-1.77-6.85c-0.37-2.71-1.99-3.05-1.44-3.86
		c0.91-1.34-4.92,3.49-4.3,6.52c0.29,1.44,1.25,1.52,1.33,2.87c0.13,2.3-2.6,3.16-2.43,5.3c0.09,1.13,1.42,3.22,2.1,2.98
		c0.13-0.05,0.2-0.17,0.22-0.22C95.48,220.03,97.35,216.42,99.42,216.03z"/>
	<path class="st3" d="M84.29,224.76c0.25-0.82,2.85-4.35,3.53-4.42c1.31-0.14-2.18-2.1-3.2-1.66
		C82.84,219.46,83.89,226.06,84.29,224.76z"/>
	<path class="st3" d="M98.88,256.33c6.95-2.57,9.81-1.29,10.28-0.59c0.02,0.03,0.32,0.26,0.77,0.36c0.16,0.04,0.23,0.05,0.25,0.03
		c0.18-0.24-4.26-6.33-7.87-5.22C99.6,251.75,98.91,256.14,98.88,256.33z"/>
	<path class="st3" d="M117.1,239.21c-5.5,1.53-19.04,4.95-20.98,1.33c-0.26-0.48-0.4-1.25-0.22-1.99c0.82-3.31,7.86-3.91,8.61-3.98
		c4.86-0.42,8.9,1.33,11.38,2.76"/>
	<path class="st24" d="M96.62,209.59c-0.17,0.11-0.26,0.28-0.37,0.44C96.36,209.87,96.46,209.7,96.62,209.59z"/>
	<g>
		<path d="M82.82,240.54c0.31,1.4,0.9,2.68,1.7,3.87c0.67,1,1.48,1.89,2.26,2.8c1,1.17,2.21,2.1,3.52,2.91
			c0.86,0.53,1.77,0.97,2.65,1.46c0.59,0.32,1.18,0.66,1.7,1.09c0.74,0.61,1.46,1.24,2.14,1.91c0.71,0.69,1.34,1.45,1.84,2.31
			c0.87,1.49,1.43,3.11,1.86,4.77c0.31,1.17,0.62,2.34,1.02,3.49c0.53,1.53,1.05,3.06,1.57,4.6c0.4,1.16,0.87,2.28,1.57,3.3
			c0.39,0.58,0.84,1.1,1.39,1.53c0.77,0.59,1.65,0.82,2.61,0.78c0.82-0.03,1.56-0.27,2.17-0.86c0.53-0.51,0.98-1.09,1.32-1.75
			c0.35-0.69,0.57-1.42,0.75-2.16c0.4-1.63,0.69-3.27,0.65-4.95c-0.03-1.18-0.18-2.33-0.49-3.47c-0.37-1.33-0.86-2.61-1.44-3.86
			c-0.76-1.64-1.53-3.27-2.51-4.78c-0.18-0.28-0.34-0.58-0.46-0.89c-0.48-1.2-0.97-2.4-1.45-3.6c-0.22-0.54-0.45-1.07-0.67-1.61
			c-0.07-0.18-0.07-0.18,0.11-0.26c0.16-0.07,0.32-0.14,0.47-0.23c0.47-0.27,0.93-0.55,1.4-0.81c0.76-0.42,1.49-0.88,2.29-1.22
			c1.01-0.43,2.05-0.79,3.1-1.11c1.09-0.33,2.2-0.62,3.31-0.86c1.13-0.25,2.21-0.62,3.23-1.19c0.86-0.48,1.62-1.09,2.18-1.92
			c0.34-0.5,0.59-1.04,0.84-1.59c0.56-1.23,0.75-2.53,0.6-3.88c-0.09-0.84-0.35-1.63-0.63-2.42c-0.26-0.73-0.62-1.4-1.07-2.01
			c-0.14-0.19-0.23-0.38-0.27-0.61c-0.1-0.63-0.16-1.27-0.13-1.92c0.03-0.71,0.08-1.42,0.08-2.14c-0.01-0.96-0.16-1.88-0.58-2.75
			c-0.56-1.18-1.3-2.23-2.28-3.11c-0.12-0.11-0.21-0.24-0.28-0.39c-0.2-0.45-0.24-0.92-0.25-1.4c-0.02-0.72-0.08-1.43-0.32-2.11
			c-0.23-0.67-0.48-1.34-0.75-2c-0.28-0.69-0.73-1.27-1.31-1.74c-0.11-0.09-0.21-0.19-0.28-0.32c-0.12-0.27-0.23-0.54-0.31-0.83
			c-0.13-0.47-0.15-0.95-0.2-1.42c-0.09-0.82-0.38-1.56-0.82-2.24c-0.35-0.54-0.82-0.98-1.27-1.44c-0.63-0.66-1.39-1.01-2.3-1.06
			c-0.41-0.02-0.81-0.03-1.22-0.1c-0.39-0.07-0.79-0.1-1.19-0.07c-0.3,0.02-0.61,0.05-0.91,0.03c-0.74-0.05-1.48-0.13-2.22-0.19
			c-0.84-0.07-1.68-0.21-2.52-0.3c-1.07-0.11-2.15-0.19-3.22-0.28c-0.38-0.03-0.74-0.01-1.12,0.07c-1.23,0.27-2.26,0.86-3.09,1.79
			c-0.13,0.14-0.27,0.28-0.37,0.44c-0.31,0.47-0.63,0.93-0.85,1.45c-0.07,0.15-0.16,0.22-0.32,0.23c-0.4,0.04-0.79,0.1-1.17,0.2
			c-0.99,0.24-1.92,0.61-2.72,1.27c-0.33,0.27-0.65,0.56-0.97,0.84c-1.66,1.49-2.95,3.26-3.91,5.26c-0.51,1.06-0.94,2.15-1.32,3.25
			c-0.62,1.78-0.85,3.62-0.84,5.5c0,0.75,0.06,1.5,0.12,2.26c0.04,0.43,0.09,0.88-0.06,1.3c-0.48,1.36-0.77,2.76-0.89,4.2
			c-0.15,1.93-0.22,3.86,0.03,5.95C82.41,238.45,82.59,239.5,82.82,240.54z M83.47,231.43c0.12-1.33,0.39-2.64,0.82-3.91
			c0.38-1.11,0.84-2.19,1.37-3.23c0.45-0.89,0.81-1.82,1.18-2.75c0.01-0.04,0.03-0.08,0.04-0.12c0.02-0.06,0.02-0.13-0.04-0.16
			c-0.05-0.03-0.1-0.01-0.15,0.01c-0.15,0.09-0.27,0.21-0.4,0.33c-0.44,0.45-0.81,0.97-1.13,1.52c-0.21,0.35-0.39,0.71-0.59,1.07
			c-0.05,0.09-0.08,0.18-0.15,0.25c-0.09-0.06-0.06-0.14-0.06-0.2c0.07-1.28,0.16-2.56,0.45-3.82c0.24-1.07,0.63-2.09,1.03-3.1
			c0.48-1.2,1.02-2.38,1.71-3.48c0.33-0.53,0.66-1.06,1.06-1.53c0.48-0.57,1.01-1.09,1.57-1.59c0.59-0.53,1.19-1.02,1.9-1.38
			c0.45-0.22,0.92-0.37,1.39-0.51c0.07,0.08,0.02,0.13-0.01,0.18c-0.17,0.29-0.35,0.57-0.54,0.85c-0.5,0.69-0.66,1.45-0.48,2.29
			c0.07,0.35,0.15,0.7,0.25,1.04c0.14,0.53,0.47,0.9,1,1.07c0.26,0.08,0.27,0.11,0.15,0.37c-0.39,0.84-0.88,1.63-1.43,2.38
			c-0.37,0.51-0.73,1.03-0.97,1.62c-0.34,0.81-0.36,1.6,0.08,2.38c0.11,0.2,0.22,0.39,0.33,0.58c0.07,0.12,0.05,0.17-0.09,0.17
			c-0.16,0-0.33,0-0.49,0c-0.51-0.03-1.02,0.07-1.52,0.13c-0.1,0.01-0.2,0.04-0.29,0.09c-0.1,0.06-0.1,0.16,0,0.22
			c0.08,0.05,0.17,0.07,0.25,0.1c0.82,0.24,1.64,0.47,2.47,0.71c0.15,0.04,0.3,0.09,0.45,0.27c-0.35-0.09-0.65-0.16-0.94-0.23
			c-0.46-0.11-0.92-0.16-1.39-0.16c-0.24,0-0.47,0.05-0.68,0.14c-0.06,0.03-0.14,0.06-0.14,0.14c0,0.09,0.09,0.1,0.16,0.12
			c1.08,0.27,2.09,0.74,3.15,1.08c0.17,0.06,0.34,0.13,0.51,0.2c0.07,0.03,0.17,0.05,0.13,0.17c-0.04,0.1-0.09,0.18-0.22,0.15
			c-0.14-0.04-0.28-0.07-0.41-0.11c-0.51-0.14-1.03-0.23-1.56-0.27c-0.16-0.01-0.33-0.01-0.49,0.03c-0.12,0.03-0.14,0.12-0.04,0.2
			c0.05,0.04,0.12,0.08,0.18,0.11c0.61,0.29,1.21,0.59,1.85,0.8c0.22,0.07,0.23,0.08,0.13,0.31c-0.35,0.8-0.32,1.61,0,2.41
			c0.23,0.57,0.47,1.13,0.88,1.6c0.53,0.61,1.19,1.01,1.99,1.17c0.09,0.02,0.18,0.02,0.28,0.09c-0.03,0.15-0.13,0.26-0.22,0.38
			c-0.32,0.41-0.65,0.81-0.96,1.23c-0.29,0.38-0.53,0.8-0.72,1.24c-0.4,0.95-0.37,1.9-0.09,2.87c0.18,0.63,0.55,1.1,1.11,1.44
			c0.73,0.44,1.51,0.63,2.35,0.65c1.19,0.02,2.29-0.29,3.34-0.85c0.04-0.02,0.09-0.05,0.14-0.07c0.09-0.04,0.16-0.02,0.2,0.07
			c0.09,0.24,0.2,0.46,0.13,0.74c-0.11,0.48-0.21,0.96-0.3,1.44c-0.02,0.11-0.1,0.28,0.04,0.33c0.14,0.05,0.18-0.13,0.24-0.23
			c0.48-0.88,0.95-1.75,1.39-2.65c0.21-0.44,0.46-0.86,0.68-1.3c0.11-0.21,0.27-0.31,0.51-0.34c0.71-0.08,1.35,0.09,1.96,0.44
			c0.21,0.12,0.35,0.3,0.47,0.51c0.35,0.61,0.63,1.26,0.95,1.88c0.26,0.52,0.52,1.04,0.84,1.53c0.11,0.17,0.24,0.33,0.4,0.46
			c0.04,0.03,0.1,0.06,0.14,0.01c0.02-0.02,0.03-0.08,0.02-0.11c-0.01-0.06-0.03-0.12-0.05-0.17c-0.4-1.11-0.61-2.26-0.78-3.42
			c-0.01-0.04-0.01-0.08-0.01-0.12c0-0.16,0.02-0.19,0.17-0.13c0.36,0.14,0.73,0.25,1.11,0.33c0.72,0.14,1.46,0.16,2.19,0.19
			c0.75,0.02,1.51,0.04,2.26-0.05c0.9-0.1,1.8-0.23,2.7-0.35c0.1-0.01,0.23-0.02,0.23-0.15c0.01-0.14-0.12-0.18-0.23-0.2
			c-0.15-0.02-0.31-0.04-0.46-0.03c-0.77,0.06-1.52-0.05-2.27-0.25c-1.85-0.51-3.66-1.12-5.44-1.85c-1-0.41-1.92-0.99-2.83-1.57
			c-0.19-0.12-0.38-0.23-0.58-0.34c-0.16-0.09-0.34-0.13-0.53-0.12c-0.31,0.02-0.44,0.2-0.35,0.5c0.03,0.11,0.08,0.21,0.15,0.3
			c0.07,0.11,0.07,0.2-0.01,0.31c-0.7,0.95-1.4,1.9-2.33,2.66c-0.75,0.61-1.56,1.11-2.5,1.38c-0.69,0.2-1.39,0.3-2.11,0.25
			c-0.62-0.04-1.17-0.27-1.65-0.66c-0.44-0.37-0.62-0.88-0.61-1.44c0.01-0.74,0.33-1.38,0.7-2c0.23-0.39,0.53-0.72,0.79-1.08
			c0.87-1.17,1.79-2.3,2.49-3.58c0.18-0.33,0.36-0.66,0.5-1.02c0.12-0.32,0.29-0.63,0.49-0.92c0.17-0.24,0.31-0.51,0.44-0.77
			c0.37-0.71,0.85-1.31,1.57-1.71c0.31-0.17,0.63-0.28,0.98-0.33c1.09-0.16,2.17-0.09,3.25,0.1c1.83,0.32,3.63,0.74,5.41,1.27
			c0.88,0.26,1.79,0.38,2.7,0.5c0.72,0.1,1.43,0.22,2.16,0.22c0.38,0,0.75-0.04,1.12-0.15c0.05-0.01,0.1-0.03,0.12-0.08
			c0.02-0.07-0.03-0.12-0.08-0.14c-0.08-0.04-0.17-0.08-0.25-0.11c-0.38-0.14-0.77-0.27-1.17-0.34c-2.2-0.4-4.33-1.06-6.47-1.7
			c-1.52-0.45-3.07-0.76-4.65-0.84c-1.06-0.06-1.72-0.05-3.14,0.49c-0.05-0.02-0.04-0.06-0.04-0.1c0.01-0.28-0.15-0.39-0.4-0.28
			c-0.14,0.06-0.26,0.17-0.35,0.29c-0.23,0.3-0.47,0.59-0.69,0.89c-0.62,0.86-1.27,1.69-1.98,2.48c-0.37,0.41-0.72,0.83-1.08,1.25
			c-0.06,0.07-0.18,0.17-0.1,0.26c0.08,0.09,0.19-0.01,0.27-0.05c0.24-0.13,0.47-0.28,0.69-0.45c0.06-0.05,0.12-0.11,0.22-0.13
			c0.01,0.12-0.06,0.2-0.11,0.29c-0.4,0.68-0.82,1.34-1.25,1.99c-0.19,0.28-0.23,0.29-0.56,0.17c-0.97-0.35-1.69-0.96-2.06-1.95
			c-0.12-0.31-0.26-0.62-0.37-0.94c-0.07-0.21-0.08-0.42-0.03-0.63c0.06-0.26,0.16-0.5,0.28-0.74c0.68-1.4,1.34-2.81,1.91-4.27
			c0.27-0.68,0.58-1.35,0.8-2.05c0.09-0.28,0.24-0.54,0.42-0.78c0.48-0.61,1.01-1.17,1.63-1.65c0.89-0.68,1.88-0.96,3-0.88
			c1.32,0.09,2.63,0.34,3.94,0.49c1.5,0.18,2.98,0.44,4.48,0.6c1.21,0.13,2.41,0.2,3.63,0.07c0.24-0.03,0.49-0.01,0.73-0.02
			c0.08,0,0.16-0.01,0.24-0.03c0.07-0.01,0.15-0.03,0.15-0.12c0-0.08-0.06-0.12-0.13-0.15c-0.06-0.02-0.12-0.04-0.17-0.06
			c-0.18-0.05-0.36-0.08-0.54-0.09c-1.35-0.1-2.66-0.36-3.98-0.65c-1.32-0.3-2.63-0.66-3.97-0.88c-1.03-0.17-2.05-0.34-3.09-0.44
			c-0.6-0.05-1.2-0.03-1.8-0.01c-0.59,0.02-1.14,0.22-1.67,0.45c-0.25,0.11-0.5,0.23-0.75,0.35c-0.08-0.08,0-0.14,0.03-0.19
			c0.13-0.23,0.25-0.47,0.35-0.71c0.03-0.07,0.06-0.15,0.07-0.23c0.02-0.12,0.01-0.23-0.1-0.3c-0.11-0.07-0.22-0.03-0.31,0.04
			c-0.13,0.1-0.24,0.22-0.35,0.34c-0.39,0.46-0.73,0.96-1.07,1.45c-0.61,0.85-1.23,1.7-1.76,2.61c-0.08,0.14-0.17,0.28-0.24,0.42
			c-0.03,0.06-0.08,0.13-0.02,0.2c0.06,0.07,0.13,0.01,0.19-0.02c0.04-0.02,0.07-0.05,0.14-0.02c-0.06,0.45-0.16,0.89-0.35,1.3
			c-0.13,0.27-0.29,0.52-0.42,0.78c-0.08,0.17-0.21,0.24-0.39,0.23c-0.47-0.02-0.9-0.12-1.28-0.43c-0.33-0.27-0.59-0.57-0.78-0.96
			c-0.25-0.52-0.24-1.02-0.01-1.53c0.17-0.37,0.39-0.72,0.61-1.06c0.46-0.72,0.97-1.41,1.35-2.18c0.34-0.69,0.67-1.37,0.88-2.11
			c0.15-0.52,0.36-1.02,0.6-1.5c0.11-0.22,0.23-0.43,0.41-0.61c0.23-0.23,0.4-0.51,0.61-0.76c0.41-0.5,0.91-0.87,1.53-1.08
			c0.38-0.13,0.78-0.1,1.18-0.08c0.89,0.05,1.75,0.25,2.63,0.4c0.82,0.14,1.65,0.27,2.48,0.35c1.32,0.12,2.63,0.25,3.96,0.29
			c0.83,0.02,1.65-0.03,2.47-0.16c0.11-0.02,0.29-0.01,0.3-0.15c0.01-0.18-0.18-0.16-0.3-0.18c-0.95-0.14-1.9-0.23-2.84-0.41
			c-2.09-0.39-4.2-0.7-6.3-1.07c-1.02-0.18-2.06-0.27-3.1-0.2c-0.13,0.01-0.26,0.03-0.39,0.04c-0.05-0.08,0.02-0.13,0.05-0.19
			c0.09-0.15,0.18-0.29,0.24-0.46c0.03-0.1,0.03-0.21-0.07-0.27c-0.09-0.06-0.18-0.02-0.25,0.04c-0.07,0.06-0.13,0.13-0.19,0.2
			c-0.15,0.19-0.32,0.37-0.45,0.58c-0.33,0.51-0.81,0.85-1.3,1.18c0,0,0,0,0,0c0.02-0.04,0.04-0.07,0.06-0.1
			c0.29-0.36,0.6-0.72,0.84-1.12c0.23-0.37,0.45-0.75,0.56-1.18c0.03-0.12,0.05-0.25-0.07-0.33c-0.13-0.09-0.25-0.05-0.37,0.03
			c-0.15,0.1-0.28,0.23-0.41,0.37c-0.81,0.89-1.52,1.86-2.24,2.82c-0.26,0.35-0.47,0.74-0.64,1.14c-0.03,0.08-0.1,0.17,0,0.25
			c0.08,0.06,0.15-0.01,0.22-0.04c0.05-0.02,0.09-0.05,0.13-0.08c0.41-0.27,0.78-0.58,1.13-0.93c0.07-0.07,0.13-0.16,0.23-0.19
			c-0.34,0.55-0.75,1.04-1.07,1.6c-0.26,0.47-0.51,0.95-0.66,1.47c-0.04,0.12-0.04,0.29-0.21,0.3c-0.15,0.02-0.25-0.09-0.32-0.2
			c-0.37-0.53-0.59-1.12-0.54-1.77c0.02-0.32,0.18-0.61,0.38-0.86c0.69-0.9,1.14-1.93,1.62-2.94c0.32-0.66,0.67-1.31,1.2-1.84
			c0.91-0.91,2-1.39,3.32-1.37c1.06,0.02,2.12,0.03,3.17,0.17c0.88,0.11,1.75,0.26,2.64,0.32c1.31,0.09,2.62,0.14,3.93,0.18
			c0.66,0.02,1.34,0.13,1.98,0.34c0.24,0.08,0.47,0.21,0.67,0.36c0.98,0.76,1.69,1.7,1.99,2.92c0.12,0.47,0.21,0.95,0.31,1.43
			c0.03,0.17,0.13,0.32,0.12,0.52c-0.23,0-0.45-0.07-0.67-0.03c-0.12,0.02-0.27-0.01-0.32,0.13c-0.05,0.14,0.08,0.22,0.17,0.3
			c0.29,0.27,0.59,0.53,0.92,0.76c1.1,0.76,1.81,1.78,2.17,3.08c0.25,0.92,0.44,1.84,0.67,2.76c0.05,0.22,0.12,0.43,0.18,0.64
			c-0.06,0.08-0.13,0.05-0.2,0.03c-0.23-0.06-0.46-0.05-0.7-0.05c-0.11,0-0.22,0.02-0.32,0.08c-0.09,0.05-0.1,0.12-0.05,0.21
			c0.05,0.08,0.12,0.14,0.19,0.19c0.29,0.23,0.59,0.44,0.9,0.64c0.4,0.26,0.75,0.56,1.05,0.92c0.44,0.52,0.86,1.06,1.27,1.6
			c0.31,0.42,0.46,0.91,0.59,1.4c0.17,0.67,0.21,1.36,0.26,2.06c0.05,0.73,0,1.47,0.09,2.2c0.04,0.28,0.09,0.56,0.15,0.87
			c-0.21-0.07-0.39-0.14-0.57-0.2c-0.11-0.03-0.26-0.1-0.34,0.02c-0.09,0.12,0.03,0.23,0.09,0.33c0.17,0.24,0.34,0.48,0.54,0.7
			c0.35,0.39,0.64,0.82,0.88,1.28c0.56,1.07,0.96,2.2,1.23,3.38c0.3,1.32,0.27,2.61-0.38,3.84c-0.47,0.9-1.11,1.66-1.97,2.22
			c-1.01,0.66-2.1,1.11-3.27,1.39c-2.06,0.5-4.12,1-6.1,1.76c-0.96,0.37-1.9,0.79-2.78,1.33c-0.7,0.43-1.46,0.77-2.2,1.13
			c-0.22,0.11-0.23,0.1-0.33-0.13c-0.26-0.62-0.52-1.24-0.78-1.86c-0.23-0.53-0.51-1.04-0.82-1.53c-0.06-0.1-0.14-0.2-0.22-0.29
			c-0.12-0.12-0.23-0.08-0.26,0.09c-0.03,0.17-0.04,0.35-0.03,0.52c0.04,0.67,0.15,1.34,0.37,1.98c0.16,0.47,0.31,0.94,0.44,1.44
			c-0.12-0.12-0.24-0.23-0.36-0.35c-0.23-0.23-0.48-0.44-0.75-0.63c-0.09-0.06-0.19-0.12-0.29-0.17c-0.05-0.03-0.1-0.04-0.14,0
			c-0.06,0.05-0.02,0.11,0.01,0.16c0.02,0.03,0.05,0.07,0.07,0.1c0.63,0.73,1.14,1.54,1.69,2.32c0.24,0.33,0.47,0.67,0.71,1
			c0.19,0.27,0.36,0.54,0.5,0.84c0.76,1.6,1.5,3.21,2.35,4.77c0.22,0.39,0.44,0.78,0.67,1.17c0.26,0.43,0.43,0.9,0.63,1.36
			c0.7,1.65,1.37,3.31,1.9,5.03c0.28,0.91,0.48,1.83,0.62,2.77c0.36,2.4,0.09,4.75-0.53,7.08c-0.19,0.72-0.5,1.37-1.07,1.88
			c-0.49,0.43-1.04,0.67-1.69,0.65c-0.17-0.01-0.35,0-0.52-0.01c-0.64-0.04-1.17-0.32-1.62-0.76c-0.54-0.52-0.96-1.14-1.35-1.77
			c-0.96-1.56-1.75-3.2-2.28-4.96c-0.47-1.54-0.92-3.08-1.3-4.65c-0.48-2.03-1.22-3.97-2.27-5.78c-0.28-0.49-0.59-0.95-0.98-1.36
			c-0.96-1-1.92-2-2.97-2.91c-0.69-0.6-1.44-1.1-2.23-1.55c-1.15-0.64-2.28-1.3-3.39-2.02c-0.96-0.62-1.85-1.33-2.63-2.18
			c-0.55-0.6-1.02-1.27-1.46-1.96c-0.65-1.02-1.17-2.1-1.52-3.26c-0.16-0.55-0.28-1.11-0.39-1.67c-0.15-0.79-0.32-1.58-0.43-2.38
			C83.22,235,83.3,233.22,83.47,231.43z M96.25,210.03c0.11-0.16,0.21-0.33,0.37-0.44C96.46,209.7,96.36,209.87,96.25,210.03z"/>
		<path d="M101.03,256.15c0.11-0.01,0.22-0.02,0.33-0.06c0.6-0.18,1.23-0.3,1.84-0.42c1.8-0.36,3.54-0.17,5.24,0.51
			c0.06,0.02,0.11,0.05,0.17,0.07c0.2,0.05,0.34-0.08,0.31-0.29c-0.01-0.1-0.07-0.19-0.12-0.28c-0.12-0.18-0.27-0.33-0.44-0.47
			c-1.13-0.9-2.44-1.22-3.82-1.15c-0.67,0.11-1.3,0.23-1.9,0.46c-0.66,0.26-1.22,0.65-1.65,1.21c-0.04,0.05-0.08,0.1-0.11,0.15
			C100.79,256.08,100.84,256.17,101.03,256.15z"/>
		<path d="M106.22,259.01C106.22,259,106.22,258.98,106.22,259.01L106.22,259.01z"/>
		<path d="M106.22,259.01C106.22,259.01,106.22,259.01,106.22,259.01c0,0.01,0,0.01,0,0.01
			C106.23,259.02,106.22,259.02,106.22,259.01z"/>
	</g>
	<path class="st23" d="M115.24,263.56"/>
	<path class="st3" d="M109.83,237.23c-1.95-0.39-4.13-2.9-5.22-1.66c-0.29,0.33-2.11,1.05-3.75,2.43c-0.61,0.51-1.1,1.76-0.72,2.55
		c0.98,2.08,8.4,1.56,9.94-1.11C110.65,238.45,110.1,237.28,109.83,237.23z"/>
</g>
</svg>
