<?xml version="1.0" encoding="utf-8"?>
<!-- Generator: Adobe Illustrator 28.3.0, SVG Export Plug-In . SVG Version: 6.00 Build 0)  -->
<svg version="1.1" id="Layer_1" xmlns="http://www.w3.org/2000/svg" xmlns:xlink="http://www.w3.org/1999/xlink" x="0px" y="0px"
	 viewBox="0 0 350.1 250.5" enable-background="new 0 0 350.1 250.5" xml:space="preserve">
<g display="none" opacity="0.3">
	<g display="inline">
		<g>
			<g>
				
					<linearGradient id="SVGID_1_" gradientUnits="userSpaceOnUse" x1="-760.6241" y1="645.2887" x2="-1329.2102" y2="1590.8719" gradientTransform="matrix(-1 0 0 1 -1059.2926 -555.4032)">
					<stop  offset="0" style="stop-color:#FDF53F"/>
					<stop  offset="1" style="stop-color:#D93C65"/>
				</linearGradient>
				<path fill="url(#SVGID_1_)" d="M8,472.6v-49.9h156.6v49.9c0,46.8,7.6,93.4,22.4,137.8l83.8,250.4h-369l83.8-250.4
					C0.5,565.9,8,519.4,8,472.6z"/>
				
					<linearGradient id="SVGID_00000002361085187575885940000011135523227293003919_" gradientUnits="userSpaceOnUse" x1="-1198.6379" y1="937.5285" x2="-1108.1355" y2="1020.8861" gradientTransform="matrix(-1 0 0 1 -1059.2926 -555.4032)">
					<stop  offset="0" style="stop-color:#2B3582"/>
					<stop  offset="1" style="stop-color:#150E42"/>
				</linearGradient>
				<path fill="url(#SVGID_00000002361085187575885940000011135523227293003919_)" d="M5.2,443.5h162.2c6.9,0,12.5-5.6,12.5-12.5
					l0,0c0-6.9-5.6-12.5-12.5-12.5H5.2c-6.9,0-12.5,5.6-12.5,12.5l0,0C-7.2,437.9-1.6,443.5,5.2,443.5z"/>
				<path opacity="0.5" fill="#FFFFFF" enable-background="new    " d="M165.8,504.5H6.8c0.5-6.9,0.9-13.8,1-20.8h156.9
					C165,490.6,165.3,497.6,165.8,504.5z"/>
				<path opacity="0.5" fill="#FFFFFF" enable-background="new    " d="M169.6,537.7H3.1c0.5-3.2,0.9-6.5,1.4-9.7h163.7
					C168.6,531.3,169.1,534.5,169.6,537.7z"/>
			</g>
			<g>
				
					<linearGradient id="SVGID_00000106833534868197544290000015178891555491703947_" gradientUnits="userSpaceOnUse" x1="-1168.4746" y1="835.3927" x2="-1737.0614" y2="1780.9772" gradientTransform="matrix(-1 0 0 1 -1059.2926 -555.4032)">
					<stop  offset="0" style="stop-color:#A737D5"/>
					<stop  offset="1" style="stop-color:#EF497A"/>
				</linearGradient>
				<path fill="url(#SVGID_00000106833534868197544290000015178891555491703947_)" d="M268.9,392.1v-60.3H458V392
					c0,56.5,9.2,112.7,27.1,166.3l101.1,302.3H140.7l101.1-302.3C259.8,504.8,268.9,448.6,268.9,392.1z"/>
				
					<linearGradient id="SVGID_00000148649054306844153500000014351276519085182645_" gradientUnits="userSpaceOnUse" x1="-1490.4041" y1="834.9125" x2="-1375.0726" y2="941.1387" gradientTransform="matrix(-1 0 0 1 -1059.2926 -555.4032)">
					<stop  offset="0" style="stop-color:#2B3582"/>
					<stop  offset="1" style="stop-color:#150E42"/>
				</linearGradient>
				<path fill="url(#SVGID_00000148649054306844153500000014351276519085182645_)" d="M253.9,356.9h219.2c1.9,0,3.4-1.5,3.4-3.4
					v-23.4c0-1.9-1.5-3.4-3.4-3.4H253.9c-1.9,0-3.4,1.5-3.4,3.4v23.4C250.5,355.4,252,356.9,253.9,356.9z"/>
				<path opacity="0.5" fill="#FFFFFF" enable-background="new    " d="M459.4,430.6H267.5c0.6-8.3,1-16.7,1.2-25.1h189.4
					C458.4,413.8,458.8,422.2,459.4,430.6z"/>
				<path opacity="0.5" fill="#FFFFFF" enable-background="new    " d="M464,470.7H263c0.6-3.9,1.1-7.8,1.6-11.7h197.7
					C462.8,462.9,463.4,466.8,464,470.7z"/>
			</g>
			<g>
				<g>
					
						<linearGradient id="SVGID_00000141417189841304115550000016535286216859180165_" gradientUnits="userSpaceOnUse" x1="-1172.3457" y1="1493.0564" x2="-1196.4532" y2="1330.7948" gradientTransform="matrix(-1 0 0 1 -1059.2926 -555.4032)">
						<stop  offset="0" style="stop-color:#9F5699"/>
						<stop  offset="1" style="stop-color:#202278"/>
					</linearGradient>
					<path fill="url(#SVGID_00000141417189841304115550000016535286216859180165_)" d="M57.5,754h152.7c2.2,0,3.9,1.6,3.9,3.7
						l-2.7,99.1c0,2-1.9,3.6-4,3.6l-149.7-0.6c-2.1,0-3.9-1.7-3.9-3.7l-0.3-98.5C53.6,755.6,55.4,754,57.5,754z"/>
					<g>
						<g>
							<path opacity="0.5" fill="#FFFFFF" enable-background="new    " d="M195.6,772h4.8c0.2,0,0.4,0.2,0.6,0.3
								c0.1,0.2,0.2,0.4,0.2,0.6l-0.6,14c0,0.4-0.4,1-0.8,1h-4.6c-0.2,0-0.4-0.4-0.6-0.5c-0.1-0.2-0.2-0.5-0.2-0.7l0.5-13.8
								C194.8,772.5,195.2,772,195.6,772z"/>
							<path opacity="0.5" fill="#FFFFFF" enable-background="new    " d="M175.1,772h4.8c0.2,0,0.4,0.2,0.6,0.3
								c0.1,0.2,0.2,0.4,0.2,0.6l-0.2,14c0,0.4-0.4,1.1-0.8,1.1h-4.6c-0.2,0-0.4-0.4-0.6-0.5c-0.1-0.2-0.2-0.5-0.2-0.7l0.1-13.8
								C174.2,772.5,174.6,772,175.1,772z"/>
							<path opacity="0.5" fill="#FFFFFF" enable-background="new    " d="M156.9,772h4.8c0.5,0,0.8,0.4,0.8,0.8l0.1,13.7
								c0,0.2-0.1,0.7-0.2,0.8c-0.1,0.2-0.4,0.5-0.6,0.5h-4.6c-0.5,0-0.8-0.6-0.8-1l-0.2-13.8c0-0.2,0.1-0.6,0.2-0.7
								C156.5,772.2,156.7,772,156.9,772z"/>
							<path opacity="0.5" fill="#FFFFFF" enable-background="new    " d="M138.2,772.3c0.1-0.2,0.4-0.3,0.6-0.3h4.8
								c0.4,0,0.8,0.4,0.8,0.8l0.5,13.7c0,0.2-0.1,0.7-0.2,0.9c-0.1,0.2-0.4,0.5-0.6,0.5h-4.6c-0.4,0-0.8-0.6-0.8-1l-0.6-13.8
								C138,772.9,138.1,772.5,138.2,772.3z"/>
						</g>
						<g>
							<path opacity="0.5" fill="#FFFFFF" enable-background="new    " d="M121.4,772h4.8c0.2,0,0.4,0.2,0.6,0.3
								c0.1,0.2,0.2,0.4,0.2,0.6l-0.6,14c0,0.4-0.4,1-0.8,1H121c-0.2,0-0.4-0.4-0.6-0.5c-0.1-0.2-0.2-0.5-0.2-0.7l0.5-13.8
								C120.6,772.5,121,772,121.4,772z"/>
							<path opacity="0.5" fill="#FFFFFF" enable-background="new    " d="M100.8,772h4.8c0.2,0,0.4,0.2,0.6,0.3
								c0.1,0.2,0.2,0.4,0.2,0.6l-0.2,14c0,0.4-0.4,1.1-0.8,1.1h-4.6c-0.2,0-0.4-0.4-0.6-0.5c-0.1-0.2-0.2-0.5-0.2-0.7l0.1-13.8
								C100,772.5,100.3,772,100.8,772z"/>
							<path opacity="0.5" fill="#FFFFFF" enable-background="new    " d="M82.7,772h4.8c0.5,0,0.8,0.4,0.8,0.8l0.1,13.7
								c0,0.2-0.1,0.7-0.2,0.8c-0.1,0.2-0.4,0.5-0.6,0.5H83c-0.5,0-0.8-0.6-0.8-1L82,773c0-0.2,0.1-0.6,0.2-0.7
								C82.2,772.2,82.5,772,82.7,772z"/>
							<path opacity="0.5" fill="#FFFFFF" enable-background="new    " d="M64,772.3c0.1-0.2,0.4-0.3,0.6-0.3h4.8
								c0.4,0,0.8,0.4,0.8,0.8l0.5,13.7c0,0.2-0.1,0.7-0.2,0.9s-0.4,0.5-0.6,0.5h-4.6c-0.4,0-0.8-0.6-0.8-1l-0.6-13.8
								C63.7,772.9,63.8,772.5,64,772.3z"/>
						</g>
					</g>
					<g>
						<g>
							<path opacity="0.5" fill="#FFFFFF" enable-background="new    " d="M195.6,801.7h4.8c0.2,0,0.4,0.2,0.6,0.3
								c0.1,0.2,0.2,0.4,0.2,0.6l-0.6,13.6c0,0.4-0.4,0.7-0.8,0.7h-4.6c-0.2,0-0.4,0-0.6-0.2c-0.1-0.2-0.2-0.3-0.2-0.5l0.5-13.7
								C194.8,802.1,195.2,801.7,195.6,801.7z"/>
							<path opacity="0.5" fill="#FFFFFF" enable-background="new    " d="M175.1,801.7h4.8c0.2,0,0.4,0.2,0.6,0.3
								c0.1,0.2,0.2,0.4,0.2,0.6l-0.2,13.6c0,0.4-0.4,0.7-0.8,0.7h-4.6c-0.2,0-0.4,0-0.6-0.2s-0.2-0.3-0.2-0.5l0.1-13.7
								C174.2,802.1,174.6,801.7,175.1,801.7z"/>
							<path opacity="0.5" fill="#FFFFFF" enable-background="new    " d="M156.9,801.7h4.8c0.5,0,0.8,0.4,0.8,0.8l0.1,13.7
								c0,0.2-0.1,0.4-0.2,0.5c-0.1,0.2-0.4,0.2-0.6,0.2h-4.6c-0.5,0-0.8-0.3-0.8-0.7l-0.2-13.6c0-0.2,0.1-0.5,0.2-0.6
								C156.5,801.9,156.7,801.7,156.9,801.7z"/>
							<path opacity="0.5" fill="#FFFFFF" enable-background="new    " d="M138.2,802c0.1-0.2,0.4-0.3,0.6-0.3h4.8
								c0.4,0,0.8,0.4,0.8,0.8l0.5,13.7c0,0.2-0.1,0.4-0.2,0.5c-0.1,0.2-0.4,0.2-0.6,0.2h-4.6c-0.4,0-0.8-0.3-0.8-0.7l-0.6-13.7
								C138,802.4,138.1,802.2,138.2,802z"/>
						</g>
						<g>
							<path opacity="0.5" fill="#FFFFFF" enable-background="new    " d="M121.4,801.7h4.8c0.2,0,0.4,0.2,0.6,0.3
								c0.1,0.2,0.2,0.4,0.2,0.6l-0.6,13.6c0,0.4-0.4,0.7-0.8,0.7H121c-0.2,0-0.4,0-0.6-0.2c-0.1-0.2-0.2-0.3-0.2-0.5l0.5-13.7
								C120.6,802.1,121,801.7,121.4,801.7z"/>
							<path opacity="0.5" fill="#FFFFFF" enable-background="new    " d="M100.8,801.7h4.8c0.2,0,0.4,0.2,0.6,0.3
								c0.1,0.2,0.2,0.4,0.2,0.6l-0.2,13.6c0,0.4-0.4,0.7-0.8,0.7h-4.6c-0.2,0-0.4,0-0.6-0.2s-0.2-0.3-0.2-0.5l0.1-13.7
								C100,802.1,100.3,801.7,100.8,801.7z"/>
							<path opacity="0.5" fill="#FFFFFF" enable-background="new    " d="M82.7,801.7h4.8c0.5,0,0.8,0.4,0.8,0.8l0.1,13.7
								c0,0.2-0.1,0.4-0.2,0.5c-0.1,0.2-0.4,0.2-0.6,0.2H83c-0.5,0-0.8-0.3-0.8-0.7L82,802.6c0-0.2,0.1-0.5,0.2-0.6
								C82.2,801.9,82.5,801.7,82.7,801.7z"/>
							<path opacity="0.5" fill="#FFFFFF" enable-background="new    " d="M64,802c0.1-0.2,0.4-0.3,0.6-0.3h4.8
								c0.4,0,0.8,0.4,0.8,0.8l0.5,13.7c0,0.2-0.1,0.4-0.2,0.5c-0.1,0.2-0.4,0.2-0.6,0.2h-4.6c-0.4,0-0.8-0.3-0.8-0.7l-0.6-13.7
								C63.7,802.4,63.8,802.2,64,802z"/>
						</g>
					</g>
				</g>
				<g>
					
						<linearGradient id="SVGID_00000147919971437636020460000003867252261474283394_" gradientUnits="userSpaceOnUse" x1="-873.4049" y1="1054.7775" x2="-846.3729" y2="1420.4196" gradientTransform="matrix(-1 0 0 1 -1059.2926 -555.4032)">
						<stop  offset="0" style="stop-color:#A737D5"/>
						<stop  offset="1" style="stop-color:#EF497A"/>
					</linearGradient>
					<polygon fill="url(#SVGID_00000147919971437636020460000003867252261474283394_)" points="-223.9,844.1 -176.2,844.1 
						-181.4,568 -181.3,560.1 -181.4,551 -181.6,543.2 -183,495.1 -183,493.8 -220.6,493.8 -220.6,568 					"/>
					
						<linearGradient id="SVGID_00000042718571745659336710000014775675171026073731_" gradientUnits="userSpaceOnUse" x1="-883.0677" y1="1046.1591" x2="-833.2776" y2="1046.1591" gradientTransform="matrix(-1 0 0 1 -1059.2926 -555.4032)">
						<stop  offset="0" style="stop-color:#2B3582"/>
						<stop  offset="1" style="stop-color:#150E42"/>
					</linearGradient>
					<path fill="url(#SVGID_00000042718571745659336710000014775675171026073731_)" d="M-225.9,488.6c0-1.4,1-2.6,2.2-2.6h45.3
						c1.2,0,2.2,1.2,2.2,2.6v4.3c0,1.4-1,2.6-2.2,2.6h-45.3c-1.2,0-2.2-1.2-2.2-2.6V488.6z"/>
					
						<linearGradient id="SVGID_00000105416516396851788590000002582941686196442814_" gradientUnits="userSpaceOnUse" x1="-891.8677" y1="1406.009" x2="-824.5677" y2="1406.009" gradientTransform="matrix(-1 0 0 1 -1059.2926 -555.4032)">
						<stop  offset="0" style="stop-color:#2B3582"/>
						<stop  offset="1" style="stop-color:#150E42"/>
					</linearGradient>
					<path fill="url(#SVGID_00000105416516396851788590000002582941686196442814_)" d="M-234.7,847.7c0-1.9,1.3-3.5,3-3.5h61.3
						c1.7,0,3,1.6,3,3.5v5.8c0,1.9-1.3,3.5-3,3.5h-61.3c-1.7,0-3-1.6-3-3.5V847.7z"/>
					<polygon opacity="0.4" fill="#FFFFFF" enable-background="new    " points="-220.6,544.3 -220.6,550.6 -181.3,550.6 
						-181.5,544.3 					"/>
					<polygon opacity="0.4" fill="#FFFFFF" enable-background="new    " points="-220.6,558.5 -220.6,568 -180.8,568 -181,558.5 
											"/>
				</g>
				<g>
					<g>
						
							<linearGradient id="SVGID_00000067208734084703656720000007256667962992339106_" gradientUnits="userSpaceOnUse" x1="-877.2421" y1="1006.5735" x2="-966.4885" y2="1244.5647" gradientTransform="matrix(-1 0 0 1 -1059.2926 -555.4032)">
							<stop  offset="0" style="stop-color:#A737D5"/>
							<stop  offset="1" style="stop-color:#EF497A"/>
						</linearGradient>
						<polygon fill="url(#SVGID_00000067208734084703656720000007256667962992339106_)" points="-145.5,705.2 -102.1,705.2 
							-102.1,670.6 -105.1,568 -105.3,560.1 -105.6,551 -105.8,543.2 -107.3,495.1 -107.3,493.8 -143.8,493.8 -143.8,568 						"/>
						
							<linearGradient id="SVGID_00000062902253493396723420000016484300657203353229_" gradientUnits="userSpaceOnUse" x1="-958.4439" y1="1046.1591" x2="-908.6541" y2="1046.1591" gradientTransform="matrix(-1 0 0 1 -1059.2926 -555.4032)">
							<stop  offset="0" style="stop-color:#2B3582"/>
							<stop  offset="1" style="stop-color:#150E42"/>
						</linearGradient>
						<path fill="url(#SVGID_00000062902253493396723420000016484300657203353229_)" d="M-150.6,488.6c0-1.4,1-2.6,2.2-2.6h45.3
							c1.2,0,2.2,1.2,2.2,2.6v4.3c0,1.4-1,2.6-2.2,2.6h-45.3c-1.2,0-2.2-1.2-2.2-2.6V488.6z"/>
					</g>
					<polygon opacity="0.4" fill="#FFFFFF" enable-background="new    " points="-143.8,544.3 -143.8,550.6 -105.5,550.6 
						-105.8,544.3 					"/>
					<polygon opacity="0.4" fill="#FFFFFF" enable-background="new    " points="-143.8,558.5 -143.8,568 -105,568 -105.3,558.5 
											"/>
				</g>
				<g>
					
						<linearGradient id="SVGID_00000152261554724666503040000005645808172530131332_" gradientUnits="userSpaceOnUse" x1="-1131.5686" y1="1214.6138" x2="-930.6262" y2="1399.6924" gradientTransform="matrix(-1 0 0 1 -1059.2926 -555.4032)">
						<stop  offset="0" style="stop-color:#9F5699"/>
						<stop  offset="1" style="stop-color:#202278"/>
					</linearGradient>
					<path fill="url(#SVGID_00000152261554724666503040000005645808172530131332_)" d="M-176,677.8H86.3c3.8,0,6.8,2.8,6.7,6.4
						l-4.6,170.3c-0.1,3.5-3.2,6.3-6.9,6.2l-257.1-1.1c-3.7,0-6.6-2.8-6.7-6.3l-0.6-169.1C-182.7,680.6-179.7,677.8-176,677.8z"/>
					<g>
						<g>
							<path opacity="0.5" fill="#FFFFFF" enable-background="new    " d="M61.2,708.7h8.2c0.4,0,0.8,0.3,1,0.5s0.4,0.7,0.4,1l-1,24
								c0,0.7-0.6,1.8-1.4,1.8h-8c-0.4,0-0.7-0.6-1-0.9s-0.4-0.8-0.4-1.2l0.8-23.7C59.8,709.5,60.5,708.7,61.2,708.7z"/>
							<path opacity="0.5" fill="#FFFFFF" enable-background="new    " d="M25.8,708.7H34c0.4,0,0.7,0.3,1,0.5s0.4,0.7,0.4,1
								l-0.4,24c0,0.7-0.6,1.8-1.4,1.8h-8c-0.4,0-0.7-0.6-1-0.9c-0.3-0.2-0.4-0.8-0.4-1.2l0.1-23.7
								C24.5,709.5,25.1,708.7,25.8,708.7z"/>
							<path opacity="0.5" fill="#FFFFFF" enable-background="new    " d="M-5.3,708.7h8.2c0.8,0,1.4,0.7,1.4,1.4l0.2,23.5
								c0,0.3-0.1,1.2-0.4,1.4c-0.3,0.2-0.6,0.9-1,0.9h-8c-0.8,0-1.4-1.1-1.4-1.8l-0.4-23.7c0-0.4,0.1-0.9,0.4-1.2
								C-6,709.1-5.6,708.7-5.3,708.7z"/>
							<path opacity="0.5" fill="#FFFFFF" enable-background="new    " d="M-37.4,709.2c0.3-0.3,0.6-0.5,1-0.5h8.2
								c0.8,0,1.4,0.7,1.4,1.4l0.8,23.5c0,0.4-0.1,1.2-0.4,1.5c-0.3,0.3-0.6,0.9-1,0.9h-8c-0.8,0-1.4-1-1.4-1.7l-1-23.8
								C-37.8,710.1-37.6,709.5-37.4,709.2z"/>
						</g>
						<g>
							<path opacity="0.5" fill="#FFFFFF" enable-background="new    " d="M-66.3,708.7h8.2c0.4,0,0.8,0.3,1,0.5s0.4,0.7,0.4,1
								l-1,24c0,0.7-0.6,1.8-1.4,1.8h-8c-0.4,0-0.7-0.6-1-0.9c-0.3-0.3-0.4-0.8-0.4-1.2l0.8-23.7C-67.7,709.5-67.1,708.7-66.3,708.7
								z"/>
							<path opacity="0.5" fill="#FFFFFF" enable-background="new    " d="M-101.7,708.7h8.2c0.4,0,0.7,0.3,1,0.5
								c0.3,0.2,0.4,0.7,0.4,1l-0.4,24c0,0.7-0.6,1.8-1.4,1.8h-8c-0.4,0-0.7-0.6-1-0.9c-0.3-0.2-0.4-0.8-0.4-1.2l0.1-23.7
								C-103.1,709.5-102.5,708.7-101.7,708.7z"/>
							<path opacity="0.5" fill="#FFFFFF" enable-background="new    " d="M-132.8,708.7h8.2c0.8,0,1.4,0.7,1.4,1.4l0.2,23.5
								c0,0.3-0.1,1.2-0.4,1.4s-0.6,0.9-1,0.9h-8c-0.8,0-1.4-1.1-1.4-1.8l-0.4-23.7c0-0.4,0.1-0.9,0.4-1.2
								C-133.6,709.1-133.2,708.7-132.8,708.7z"/>
							<path opacity="0.5" fill="#FFFFFF" enable-background="new    " d="M-164.9,709.2c0.3-0.3,0.6-0.5,1-0.5h8.2
								c0.8,0,1.4,0.7,1.4,1.4l0.8,23.5c0,0.4-0.1,1.2-0.4,1.5s-0.6,0.9-1,0.9h-8c-0.8,0-1.4-1-1.4-1.7l-1-23.8
								C-165.3,710.1-165.2,709.5-164.9,709.2z"/>
						</g>
					</g>
					<g>
						<g>
							<path opacity="0.5" fill="#FFFFFF" enable-background="new    " d="M61.2,759.8h8.2c0.4,0,0.8,0.3,1,0.5s0.4,0.7,0.4,1
								l-1,23.4c0,0.7-0.6,1.2-1.4,1.2h-8c-0.4,0-0.7,0-1-0.3S59,785,59,784.7l0.8-23.6C59.8,760.4,60.5,759.8,61.2,759.8z"/>
							<path opacity="0.5" fill="#FFFFFF" enable-background="new    " d="M25.8,759.8H34c0.4,0,0.7,0.2,1,0.5
								c0.3,0.2,0.4,0.7,0.4,1L35,784.7c0,0.7-0.6,1.2-1.4,1.2h-8c-0.4,0-0.7,0-1-0.3c-0.3-0.2-0.4-0.5-0.4-0.9l0.1-23.6
								C24.5,760.5,25.1,759.8,25.8,759.8z"/>
							<path opacity="0.5" fill="#FFFFFF" enable-background="new    " d="M-5.3,759.8h8.2c0.8,0,1.4,0.7,1.4,1.4l0.2,23.5
								c0,0.3-0.1,0.6-0.4,0.9c-0.3,0.2-0.6,0.3-1,0.3h-8c-0.8,0-1.4-0.5-1.4-1.2l-0.4-23.4c0-0.4,0.1-0.8,0.4-1
								C-6,760-5.6,759.8-5.3,759.8z"/>
							<path opacity="0.5" fill="#FFFFFF" enable-background="new    " d="M-37.4,760.3c0.3-0.3,0.6-0.5,1-0.5h8.2
								c0.8,0,1.4,0.7,1.4,1.4l0.8,23.5c0,0.4-0.1,0.6-0.4,0.9c-0.3,0.3-0.6,0.3-1,0.3h-8c-0.8,0-1.4-0.5-1.4-1.2l-1-23.5
								C-37.8,760.9-37.6,760.6-37.4,760.3z"/>
						</g>
						<g>
							<path opacity="0.5" fill="#FFFFFF" enable-background="new    " d="M-66.3,759.8h8.2c0.4,0,0.8,0.3,1,0.5s0.4,0.7,0.4,1
								l-1,23.4c0,0.7-0.6,1.2-1.4,1.2h-8c-0.4,0-0.7,0-1-0.3c-0.3-0.3-0.4-0.6-0.4-0.9l0.8-23.6C-67.7,760.4-67.1,759.8-66.3,759.8
								z"/>
							<path opacity="0.5" fill="#FFFFFF" enable-background="new    " d="M-101.7,759.8h8.2c0.4,0,0.7,0.2,1,0.5
								c0.3,0.2,0.4,0.7,0.4,1l-0.4,23.4c0,0.7-0.6,1.2-1.4,1.2h-8c-0.4,0-0.7,0-1-0.3c-0.3-0.2-0.4-0.5-0.4-0.9l0.1-23.6
								C-103.1,760.5-102.5,759.8-101.7,759.8z"/>
							<path opacity="0.5" fill="#FFFFFF" enable-background="new    " d="M-132.8,759.8h8.2c0.8,0,1.4,0.7,1.4,1.4l0.2,23.5
								c0,0.3-0.1,0.6-0.4,0.9c-0.3,0.2-0.6,0.3-1,0.3h-8c-0.8,0-1.4-0.5-1.4-1.2l-0.4-23.4c0-0.4,0.1-0.8,0.4-1
								C-133.6,760-133.2,759.8-132.8,759.8z"/>
							<path opacity="0.5" fill="#FFFFFF" enable-background="new    " d="M-164.9,760.3c0.3-0.3,0.6-0.5,1-0.5h8.2
								c0.8,0,1.4,0.7,1.4,1.4l0.8,23.5c0,0.4-0.1,0.6-0.4,0.9s-0.6,0.3-1,0.3h-8c-0.8,0-1.4-0.5-1.4-1.2l-1-23.5
								C-165.3,760.9-165.2,760.6-164.9,760.3z"/>
						</g>
					</g>
				</g>
			</g>
		</g>
	</g>
</g>
<linearGradient id="SVGID_00000101065592723991700750000005319509680736086718_" gradientUnits="userSpaceOnUse" x1="261.1544" y1="356.7027" x2="37.6947" y2="973.8783" gradientTransform="matrix(1.0947 -0.1793 -0.1793 3.0491 154.7893 -2034.8076)">
	<stop  offset="0" style="stop-color:#63C3FF"/>
	<stop  offset="0.1795" style="stop-color:#69BFFD"/>
	<stop  offset="0.4236" style="stop-color:#7BB5F8"/>
	<stop  offset="0.7049" style="stop-color:#97A5F0"/>
	<stop  offset="1" style="stop-color:#BD8FE5"/>
</linearGradient>
<path display="none" opacity="0.5" fill="url(#SVGID_00000101065592723991700750000005319509680736086718_)" enable-background="new    " d="
	M760.1-229c21.4-154.7,24.7-271.1-10.7-378.9c-32.7-99.3-95.2-187-151.9-160.4c-46.1,21.7-91.5,78.5-132.3,153.4
	c-24.7,45.2-52,77.3-79.8,95.6c-30.8,20.2-69.3,38.2-98.5,27.8c-57.3-20.6-108.8-78.1-162-123.9C16-709.3-113.7-750.6-231.2-591.8
	c-56.7,76.5-111.6,223.7-108.7,371.2c2.2,114,38.3,197.9,34.4,314.7c-4.4,131.9-55.6,239.1-97.1,338.7
	c-39.3,94.3-74.6,202.9-96.9,324c-22.3,121.1-30.7,255.8-16.3,366.4c18.7,144,74.2,230.2,135.7,246.3c61.5,16.1,128.1-30,190.5-99.1
	s122.1-160.8,183-243.2c20.6-27.9,44.5-55.5,63-36.5c20.9,21.4,24.4,89.5,31.9,144c16.7,122,62.2,197.5,113.1,222.9
	s106.9,6.5,161.8-23c61.1-32.8,124.5-81.6,176.8-186.4c52.4-104.8,90.6-278.3,77.7-420.9c-8.2-90.5-35.5-162.1-32.5-260.1
	c3.1-101.2,37-191.5,66.5-274C697.2,66.7,738.7-74.2,760.1-229z"/>
<g display="none" opacity="0.5">
	<path display="inline" opacity="0.65" fill="#FFFFFF" enable-background="new    " d="M-35.1,331.8c-9.1-11.2-22.8-15.8-36.1-12.4
		c-14.6,3.6-22.8,17.5-36.3,23.1c-23.6,9.7-56.3-9.5-74.3,15.5c-22,30.6-38.9,7.7-38.9,28.4c0,20.8,151.7,5.5,226.5,6.6
		c10.8,0.2,57.8-0.6,37.5-23.1c-6.3-7-15.2-8.1-23.6-9.8c-10.9-2.1-36.8-3.3-44.6-11.8c-4.2-4.6-5.9-11.1-9.7-16
		C-34.7,332.2-34.9,332-35.1,331.8z"/>
	<path display="inline" opacity="0.65" fill="#FFFFFF" enable-background="new    " d="M484.4-312.4c-5.3-7.5-13.2-10.6-21-8.4
		c-8.5,2.5-13.2,11.9-21.1,15.6c-13.7,6.6-32.7-6.4-43.1,10.5c-12.7,20.7-22.6,5.2-22.6,19.2c0,14,88,3.7,131.5,4.4
		c6.3,0.1,33.5-0.4,21.8-15.6c-3.6-4.7-8.8-5.5-13.7-6.6c-6.3-1.4-21.3-2.2-25.9-7.9c-2.5-3.1-3.4-7.5-5.6-10.8
		C484.6-312.1,484.5-312.2,484.4-312.4z"/>
	<path display="inline" opacity="0.65" fill="#FFFFFF" enable-background="new    " d="M386.2-294.1c-9.1-11.2-22.8-15.8-36.1-12.4
		c-14.6,3.6-22.8,17.6-36.3,23.1c-23.6,9.7-56.3-9.5-74.3,15.6c-22,30.6-38.9,7.6-38.9,28.4s151.7,5.5,226.5,6.6
		c10.8,0.2,57.8-0.6,37.5-23.1c-6.3-7-15.2-8.1-23.6-9.8c-10.9-2.1-36.8-3.3-44.7-11.8c-4.2-4.6-5.9-11.1-9.7-16
		C386.5-293.7,386.4-293.9,386.2-294.1z"/>
	<path display="inline" opacity="0.65" fill="#FFFFFF" enable-background="new    " d="M-0.8-386.6c-9.1-11.2-22.8-15.8-36.1-12.4
		c-14.6,3.6-22.8,17.5-36.3,23.1c-23.6,9.7-56.3-9.5-74.3,15.6c-22,30.6-38.9,7.7-38.9,28.4s151.7,5.5,226.5,6.6
		c10.8,0.2,57.8-0.6,37.5-23.1c-6.3-7-15.2-8.1-23.6-9.8c-10.9-2.1-36.8-3.3-44.6-11.8c-4.2-4.6-5.9-11.1-9.7-16
		C-0.5-386.2-0.6-386.4-0.8-386.6z"/>
</g>
<g display="none" opacity="0.7">
	<rect x="-200.4" y="889.1" display="inline" fill="#D77D25" width="151.8" height="19.4"/>
	<path display="inline" fill="#FD8B04" d="M-205.1,875.8l11.4-10.6c3.2-3,9.4-5.4,13.8-5.4h53.7c4.4,0,11.1,1.7,15,3.8l23.5,12.8
		c3.9,2.1,10.5,4.5,14.8,5.4l25.6,5.3c4.3,0.9,8.5,5.2,9.3,9.5l0.8,4.1c0.8,4.3-2.1,7.8-6.5,7.8h-10.7c0-8.2-6.7-14.9-14.9-14.9
		s-14.9,6.7-14.9,14.9h-82.6c0-8.2-6.7-14.9-14.9-14.9s-14.9,6.7-14.9,14.9h-6.3c-4.4,0-8-3.6-8-8v-11.4
		C-211,884.8-208.3,878.8-205.1,875.8z"/>
	<g display="inline">
		<g>
			<g>
				<rect x="-137.5" y="881.1" fill="#FD6E03" width="46.5" height="26"/>
				<path fill="#1F2527" d="M-128.7,884.2c0,0.4-0.3,0.7-0.7,0.7h-4.6c-0.4,0-0.7-0.3-0.7-0.7l0,0c0-0.4,0.3-0.7,0.7-0.7h4.6
					C-129,883.5-128.7,883.8-128.7,884.2L-128.7,884.2z"/>
			</g>
			<g>
				<path fill="#FD6E03" d="M-140,881.1h-32.5v14.3c0,0,7.5,2.7,7.5,11.6h25V881.1z"/>
				<path fill="#1F2527" d="M-164.6,884.2c0,0.4-0.3,0.7-0.7,0.7h-4.6c-0.4,0-0.7-0.3-0.7-0.7l0,0c0-0.4,0.3-0.7,0.7-0.7h4.5
					C-165,883.5-164.6,883.8-164.6,884.2L-164.6,884.2z"/>
			</g>
		</g>
		<g>
			<g>
				<path fill="#1F2527" d="M-91.7,879.6c0.9,0,0.9-0.3,0.2-0.7l-27.2-13.5c-0.8-0.4-2.2-0.7-3-0.7h-14.1c-0.9,0-1.6,0.7-1.6,1.6
					V878c0,0.9,0.7,1.6,1.6,1.6L-91.7,879.6L-91.7,879.6z"/>
				<path fill="#1F2527" d="M-173.5,878c0,0.9,0.8,1.6,1.8,1.6h29.8c1,0,1.8-0.7,1.8-1.6v-11.7c0-0.9-0.8-1.6-1.8-1.6h-29.8
					c-1,0-1.8,0.7-1.8,1.6V878L-173.5,878z"/>
				<path fill="#1F2527" d="M-195.4,872.4l9.2-6.6c0.8-0.6,2.2-1,3.2-1h10.5c-1,0-1.5,0.7-1.5,1.6v11.7c0,0.9,0.5,1.6,1.5,1.6H-195
					c-1,0-1.8-0.7-1.8-1.6V875C-196.8,874.1-196.2,872.9-195.4,872.4z"/>
			</g>
			<path fill="#F77B04" d="M-93,875.4c0,0,2.6,0.2,2.6,2.9s-2.6,2.9-2.6,2.9h-3.9v-2.9v-2.9H-93z"/>
		</g>
	</g>
	<g display="inline">
		<path fill="#8D9095" d="M-211.8,909.8c0,1.6,1.3,2.9,2.9,2.9h171.1c1.6,0,2.9-1.3,2.9-2.9v-2.3c0-1.6-1.3-2.9-2.9-2.9h-171.1
			c-1.6,0-2.9,1.3-2.9,2.9C-211.8,907.4-211.8,909.8-211.8,909.8z"/>
		<g>
			<g>
				<path fill="#44474A" d="M-56.2,908.6c0,7.2-5.9,13.1-13.1,13.1c-7.2,0-13.1-5.9-13.1-13.1s5.9-13.1,13.1-13.1
					C-62.1,895.5-56.2,901.3-56.2,908.6z"/>
				<path fill="#43454A" d="M-61.4,908.2c0,4.4-3.6,7.9-7.9,7.9c-4.4,0-7.9-3.6-7.9-7.9c0-4.4,3.6-7.9,7.9-7.9
					S-61.4,903.9-61.4,908.2z"/>
			</g>
			<g>
				<path fill="#44474A" d="M-168.6,908.6c0,7.2-5.9,13.1-13.1,13.1s-13.1-5.9-13.1-13.1s5.9-13.1,13.1-13.1
					C-174.5,895.5-168.6,901.3-168.6,908.6z"/>
				<path fill="#43454A" d="M-173.8,908.2c0,4.4-3.6,7.9-7.9,7.9c-4.4,0-7.9-3.6-7.9-7.9c0-4.4,3.5-7.9,7.9-7.9
					C-177.4,900.3-173.8,903.9-173.8,908.2z"/>
			</g>
		</g>
	</g>
	<g display="inline">
		<path fill="#FDA947" d="M-40.6,896.1c-0.4-0.8-1.7-1.5-2.9-1.5h-4.2c-1.2,0-2.3,0.6-2.3,1.3s0.9,1.7,2,2.2l2,0.8
			c1.1,0.5,3,0.9,4.1,0.9c1.1,0,2-0.5,2-1.1C-39.9,898-40.2,896.9-40.6,896.1z"/>
		<polygon fill="#FD8B07" points="-210.9,888.5 -207.1,888.5 -209,898.9 -210.9,898.9 		"/>
	</g>
</g>
<g display="none">
	<path display="inline" opacity="0.2" fill="#B495C1" enable-background="new    " d="M348.4,318.8H-37.2
		c-101.2,0-183.2-82-183.2-183.2V-11c0-101.2,82-183.2,183.2-183.2h385.6c101.2,0,183.2,82,183.2,183.2v146.6
		C531.6,236.8,449.6,318.8,348.4,318.8z"/>
	<g display="inline">
		<g>
			<g transform="translate(1086.281208, 49.014148)">
				<g>
					<path d="M-1235.4-132.7c-1.9,0.1-3.2,1-3.8,2.8c-1.8,4.5-3.1,9.7-3.9,15.4c-0.2,1.1,0.1,2.1,0.8,3.2c0.7,1,1.7,1.5,2.8,1.7
						s2.1-0.1,3-0.8c1-0.7,1.6-1.7,1.7-2.8c0.7-5,1.9-9.5,3.5-13.4c0.6-1.5,0.4-2.9-0.5-4.1
						C-1232.6-132.2-1233.8-132.8-1235.4-132.7z M-1240.3-106.9c-0.3,0-0.6,0-0.8,0c-0.2,0-0.5,0.1-0.8,0.2c-0.1,0-0.2,0-0.4,0.1
						c-0.2,0.1-0.3,0.1-0.3,0.2c-0.1,0.1-0.1,0.1-0.1,0.1c-0.2,0.1-0.3,0.1-0.4,0.2c0,0.1,0,0.1-0.1,0.1s-0.1,0-0.2,0.1
						c0,0,0,0-0.1,0.1c-0.7,0.5-1.3,1.2-1.6,2.1c-0.3,0.9-0.3,1.8,0,2.7c0.3,0.9,0.8,1.6,1.6,2.2c0.8,0.5,1.7,0.8,2.5,0.8
						c0.3,0,0.5,0,0.7,0c0.2-0.1,0.4-0.1,0.5-0.1c0.7-0.1,1.3-0.4,2-0.9c0,0,0,0,0.1-0.1s0.1-0.2,0.1-0.2c0.7-0.6,1.2-1.3,1.4-2.2
						c0.3-0.9,0.3-1.8,0-2.5c-0.3-0.9-0.9-1.5-1.6-2C-1238.6-106.6-1239.4-106.9-1240.3-106.9z"/>
				</g>
			</g>
		</g>
		<g>
			<g transform="translate(1097.321185, 49.014148)">
				<g>
					<path d="M-1229.1-132.5c-0.9,0-1.7,0.3-2.5,0.8c-0.8,0.6-1.3,1.2-1.6,2c-0.3,0.9-0.3,1.7-0.1,2.7c0.3,0.9,0.7,1.6,1.4,2.2
						l-4,20.4c-0.1,0.1-0.1,0.2-0.2,0.4c-0.6,1.4-0.4,2.7,0.4,4s2.1,1.9,3.7,1.9c4.4,0,8.7,0,13-0.1c4.5-0.1,8.5-0.1,11.9-0.1h0.1
						c0.4,0.1,0.8,0.1,1.2,0h0.2c1.7,0,3-0.8,3.8-2.3s0.7-3-0.2-4.4c0.7-9.1,2.1-16.3,4.3-21.7c0.6-1.4,0.4-2.8-0.4-4.1
						c-0.9-1.2-2.1-1.8-3.6-1.8L-1229.1-132.5z M-1207.7-124c-1.3,4.7-2.2,10.4-2.7,17.2c-2.2,0-4.9,0-8.1,0.1
						c-3.3,0.1-6.1,0.1-8.3,0.2l3.5-17.2L-1207.7-124z"/>
				</g>
			</g>
		</g>
		<g>
			<g transform="translate(1122.473146, 49.014148)">
				<g>
					<path d="M-1209-132.6c-0.9,0.1-1.8,0.4-2.6,0.9c-0.8,0.6-1.3,1.3-1.6,2.2c-1.7,4.1-2.9,8.6-3.8,13.5c-0.2,1.2,0.1,2.4,0.9,3.5
						c0.7,1.1,1.7,1.8,3,2c1.2,0.2,2.3-0.1,3.4-0.9s1.8-1.8,2-3c0.7-4.2,1.8-8.2,3.3-11.8c0.6-1.5,0.5-3-0.5-4.4
						C-1206-131.9-1207.4-132.6-1209-132.6z"/>
				</g>
			</g>
		</g>
		<g>
			<g transform="translate(1132.889123, 49.014148)">
				<g>
					<path d="M-1201.9-132.5c-1.2,0-2.2,0.5-3.1,1.4c-0.8,0.9-1.3,1.9-1.3,3c0,1.1,0.5,2.1,1.4,3c0.8,0.9,1.9,1.3,3.1,1.3l16.2-0.2
						c-0.5,1.9-1,3.8-1.4,5.7h-16.3c-1.1,0-2.1,0.4-2.9,1.1s-1.2,1.6-1.4,2.6l-1.6,11.9c-0.1,1.2,0.3,2.3,1.1,3.2
						c0.9,0.9,1.9,1.3,3,1.4c1.2,0.1,2.2-0.3,3.1-1.2c0.9-0.8,1.4-1.8,1.4-2.9c0.1-1.5,0.4-4,0.9-7.5h11.5c-0.2,2-0.4,4.4-0.6,6.9
						c-0.1,1.1,0.3,2.2,1.1,3.1c0.8,1,1.8,1.5,2.9,1.5c1.2,0.1,2.2-0.3,3.1-1.1c0.9-0.8,1.4-1.8,1.5-2.9c0.3-4.6,0.7-8.3,1-11
						c0.1-0.1,0.1-0.2,0.1-0.4c0.7-4.9,1.9-9.3,3.4-13.1c0.5-1.4,0.3-2.8-0.5-4.1c-0.8-1.2-2-1.8-3.6-1.8L-1201.9-132.5z"/>
				</g>
			</g>
		</g>
		<g>
			<g transform="translate(1154.873085, 49.014148)">
				<g>
					<path d="M-1187.7-133.9c-1.3-0.1-2.4,0.4-3.2,1.3c-0.8,0.9-1.2,2-1.2,3.2l1.8,27.2c0,1.4,0.5,2.4,1.6,3.1
						c1.1,0.9,2.3,1.1,3.6,0.9h0.3c4.4,0,8.7-0.1,13-0.2c4.5,0,8.4,0,11.5,0c0.4,0,0.8,0,1.1,0h0.7c1.9,0,3.2-0.9,4-2.5
						c0.7-1.8,0.5-3.3-0.8-4.6c0.7-8.8,2.1-15.9,4.2-21.2c0.6-1.4,0.5-2.8-0.4-4.1c-0.8-1.2-2.1-1.8-3.7-1.8c-1.9,0.1-3.1,1-3.8,2.7
						c-2.4,6.1-4,13.8-4.8,23c-2,0-3.9,0-5.6,0c-0.7-4.8,0.3-11.5,2.9-20.2c0.5-1.4,0.3-2.7-0.6-3.9c-0.9-1.1-2.1-1.7-3.6-1.6
						c-0.9,0-1.7,0.3-2.5,0.9c-0.7,0.6-1.3,1.3-1.5,2.1c-2.8,9.4-3.9,17-3.3,22.8c-1.1,0-2.5,0-4.1,0l-1.5-23.1c0-1-0.4-2-1.3-2.8
						C-1185.6-133.5-1186.6-133.9-1187.7-133.9z"/>
				</g>
			</g>
		</g>
		<g>
			<g transform="translate(1181.129035, 49.014148)">
				<g>
					<path d="M-1162.8-132.7c-1.9,0.1-3.2,1-3.8,2.7c-2.6,6.5-4.3,15.6-5.1,27.2c-0.1,1.1,0.3,2.2,1.1,3.1c0.8,1,1.8,1.5,3,1.5
						c1.1,0.1,2.1-0.3,3.1-1.1c0.9-0.8,1.4-1.8,1.4-2.9c0.7-10.7,2.2-18.9,4.5-24.6c0.6-1.4,0.5-2.8-0.4-4.2
						C-1159.9-132.1-1161.2-132.7-1162.8-132.7z"/>
				</g>
			</g>
		</g>
		<g>
			<g transform="translate(1191.689013, 49.014148)">
				<g>
					<path d="M-1133-132.7c-0.1,0-0.3,0-0.6,0c-0.8,0-1.8,0.1-2.8,0.3c-0.2,0.1-0.5,0.1-0.7,0.2c-4.3,1.5-8.3,3.9-11.9,7.2
						c-0.5-1.6-1-3.3-1.6-4.9c-0.7-1.8-2.1-2.7-4-2.7c-1.5,0-2.7,0.6-3.6,1.9c-0.8,1.3-1,2.7-0.3,4c1.1,3,2.1,6.2,2.8,9.7
						c-2.5,3.6-4.9,7.9-7.2,12.8c-0.5,1.1-0.6,2.2-0.2,3.3c0.4,1.1,1.2,2,2.3,2.5s2.2,0.5,3.3,0.1c1.1-0.5,1.9-1.3,2.4-2.5
						c5.5-12.5,12.3-20.2,20.4-23.1c0.5-0.1,0.9-0.1,1.3-0.1c0,0.7-0.1,1.3-0.2,1.7c-1.8,9.4-2.6,14.5-2.6,15.4h-1.1
						c-0.6,0-0.9,0-1.1,0c-0.1,0.1-0.1,0.1-0.2,0.1s-0.2,0-0.2,0c-0.1,0-0.1,0-0.2,0c-0.6,0-2.5,0-5.7,0c-1.2,0-2.2,0.5-3,1.4
						c-0.9,0.9-1.4,1.8-1.4,2.9c0,1.2,0.5,2.2,1.4,3.1c0.8,0.9,1.8,1.2,3,1.2c2.8,0,4.7,0,5.9,0c0.4,0,0.8,0,1.1,0
						c0,0,0.1,0,0.2-0.1c0.2,0,0.2,0,0.2-0.1c1,0,2.8,0,5.4,0c1.2,0,2.3-0.5,3.1-1.5c0.8-1,1.2-2.1,1.1-3.3
						c-0.3-1.9,0.5-7.7,2.3-17.5c0.7-3.9,0.4-6.9-1-8.9c-1.1-1.5-2.7-2.5-4.8-2.8C-1131.6-132.6-1132.3-132.7-1133-132.7z
						 M-1135.4-99.4c-0.3,0.3-0.5,0.5-0.6,0.6c0.1-0.1,0-0.1-0.2,0C-1136.1-98.9-1135.8-99.1-1135.4-99.4z"/>
				</g>
			</g>
		</g>
		<g>
			<g transform="translate(1226.440953, 49.014148)">
				<g>
					<path d="M-1131.1-132.4c-1.1,0-2.1,0.4-3,1.3c-0.9,0.9-1.4,1.9-1.4,3c0.1,1.2,0.5,2.2,1.4,3c0.9,0.9,2,1.2,3.1,1.2l16.1-0.1
						c-1.5,5.3-2.5,12.4-3.2,21.2c-0.1,1.1,0.3,2.1,1.1,3.1c0.8,0.9,1.8,1.4,2.9,1.4c1.1,0.1,2.2-0.3,3.1-1.1
						c0.9-0.7,1.4-1.7,1.5-2.9c0.7-10.6,2.2-18.8,4.5-24.6c0.6-1.4,0.4-2.8-0.4-4s-2-1.9-3.6-1.9L-1131.1-132.4z M-1128.7-115.8
						c-1.1,0-2,0.4-2.9,1.2c-0.8,0.8-1.2,1.7-1.4,2.7l-3.5,33.1c-0.1,1.1,0.2,2.2,1,3.2c0.8,0.9,1.7,1.4,2.8,1.6
						c1.1,0.1,2.2-0.2,3.2-1c1-0.8,1.5-1.7,1.6-2.8l3.4-33.1c0.2-1.3-0.2-2.4-1-3.4C-1126.3-115.3-1127.4-115.8-1128.7-115.8z"/>
				</g>
			</g>
		</g>
		<g>
			<g transform="translate(1247.41692, 49.014148)">
				<g>
					<path d="M-1115.9-132.5c-1.2,0.1-2.2,0.5-3,1.4c-0.8,0.9-1.3,1.9-1.3,3c0.1,1.2,0.5,2.2,1.4,3c0.9,0.9,1.9,1.2,3,1.2l16.2-0.1
						c-1.5,5.3-2.5,12.4-3.2,21.2c-0.1,1.1,0.3,2.2,1.1,3.1c0.8,1,1.8,1.5,2.9,1.5c1.1,0.1,2.1-0.3,3-1.1c1-0.8,1.5-1.8,1.5-2.9
						c0.7-10.7,2.2-18.9,4.5-24.6c0.6-1.4,0.4-2.8-0.4-4.1c-0.9-1.2-2.1-1.8-3.7-1.8L-1115.9-132.5z"/>
				</g>
			</g>
		</g>
		<g>
			<g transform="translate(1267.720889, 49.014148)">
				<g>
					<path d="M-1095.5-132.6c-1,0.1-1.8,0.4-2.6,1.1c-0.8,0.7-1.4,1.5-1.5,2.5v0.1c0,0,0,0-0.1,0.1l-2.5,12.1
						c-0.3,1.3-0.1,2.4,0.7,3.4c0.8,1,1.8,1.6,3.1,1.7l9.1,0.9c1.2,0.1,2.2-0.2,3.2-1s1.5-1.8,1.6-2.9s-0.2-2.1-1-3
						c-0.8-1-1.8-1.5-2.9-1.6l-4.2-0.3l0.8-4.4l12.8-0.2c-1.4,4.8-2.3,10.5-2.9,17.2c-1.2,0-3.7,0-7.6,0.1
						c-2.9,0.1-6.4,0.2-10.6,0.2c-1.1-0.1-2.1,0.4-3,1.2c-0.9,0.9-1.4,1.9-1.4,3s0.5,2.1,1.4,3c0.8,0.9,1.8,1.3,3,1.3
						c4.4,0,8.3,0,11.7-0.1c3.6-0.1,6.9-0.1,9.7-0.1c0.5,0.1,1.1,0.1,1.6,0h0.4c1.8,0,3.1-0.9,3.9-2.5c0.8-1.7,0.6-3.2-0.7-4.6
						c0.7-8.9,2.1-16,4.2-21.4c0.6-1.4,0.4-2.8-0.5-4c-0.8-1.2-2-1.9-3.6-1.9L-1095.5-132.6z"/>
				</g>
			</g>
		</g>
		<g>
			<g transform="translate(1290.664849, 49.014148)">
				<g>
					<path d="M-1077.2-145.4c-1.9,0-3.2,0.9-3.9,2.7c-1.3,3.4-2.4,7.1-3.2,11.1c-1.6,1.2-2,2.8-1.4,4.8c0.7,2,2.1,2.9,4.2,2.9
						l15.5-0.2c-1.4,5.1-2.5,12.2-3.1,21.3c-0.1,1.1,0.3,2.2,1.1,3.1c0.8,0.9,1.8,1.4,2.9,1.5c1.2,0.1,2.2-0.3,3.1-1.1
						c0.9-0.8,1.4-1.8,1.5-2.9c0.7-10,2-17.6,3.8-22.9c1.6-1.2,2-2.8,1.4-4.8c-0.6-1.9-2-2.9-4-2.9c-0.3-0.1-0.6-0.1-0.9-0.1
						c-0.2,0-0.4,0-0.6,0.1l-14.5,0.1c0.6-2.4,1.4-4.7,2.2-6.8c0.6-1.5,0.4-2.9-0.5-4.2C-1074.3-144.9-1075.6-145.5-1077.2-145.4z"
						/>
				</g>
			</g>
		</g>
		<g>
			<g transform="translate(1321.432792, 49.014148)">
				<g>
					<path d="M-1055-132.5c-0.9,0-1.7,0.3-2.5,0.8c-0.8,0.6-1.3,1.2-1.6,2c-0.3,0.9-0.3,1.7-0.1,2.7c0.3,0.9,0.7,1.6,1.4,2.2
						l-4,20.4c-0.1,0.1-0.1,0.2-0.2,0.4c-0.6,1.4-0.4,2.7,0.4,4s2.1,1.9,3.7,1.9c4.4,0,8.7,0,13-0.1c4.5-0.1,8.5-0.1,11.9-0.1h0.1
						c0.4,0.1,0.8,0.1,1.2,0h0.2c1.7,0,3-0.8,3.8-2.3c0.8-1.5,0.7-3-0.2-4.4c0.7-9.1,2.1-16.3,4.3-21.7c0.6-1.4,0.4-2.8-0.4-4.1
						c-0.9-1.2-2.1-1.8-3.6-1.8L-1055-132.5z M-1033.6-124c-1.3,4.7-2.2,10.4-2.7,17.2c-2.2,0-4.9,0-8.1,0.1
						c-3.3,0.1-6.1,0.1-8.3,0.2l3.5-17.2L-1033.6-124z"/>
				</g>
			</g>
		</g>
		<g>
			<g transform="translate(1346.584754, 49.014148)">
				<g>
					<path d="M-1027.5-132.7c-0.5,0-1,0.1-1.4,0.2h-1.5c-2,0-3.3,0.9-4,2.8c-0.3,0.8-0.4,1.7-0.1,2.6c0.2,0.9,0.7,1.6,1.4,2.2
						c-1.5,4.9-2.5,10.9-3,18.2c-0.5,0-1.4,0-2.8,0c-1.1,0-2.2,0.4-3,1.3c-0.8,0.9-1.3,1.9-1.3,3s0.4,2.1,1.3,3s1.9,1.3,3,1.3
						c1.7,0,3.1,0,4.1-0.1c0.5-0.1,1.2-0.1,2.2-0.1c0.3,0.1,0.7,0.1,1.1,0h0.2c1.8,0,3.1-0.8,3.9-2.3c0.8-1.6,0.7-3.1-0.4-4.5
						c0.6-7.7,1.7-14,3.2-18.8l10.3-0.1c-1.5,5.3-2.5,12.3-3,21.1c-0.1,1.1,0.2,2.2,1,3.2c0.8,0.9,1.8,1.4,2.9,1.4
						c1.1,0.1,2.1-0.3,3-1.1c0.9-0.8,1.4-1.7,1.5-2.8c0.7-10.8,2.2-18.9,4.4-24.6c0.6-1.4,0.4-2.7-0.4-4c-0.8-1.2-2-1.9-3.6-1.9
						l-17.7,0.2C-1026.6-132.6-1027-132.7-1027.5-132.7z"/>
				</g>
			</g>
		</g>
		<g>
			<g transform="translate(1371.592702, 49.014148)">
				<g>
					<path d="M-1006.5-132.7c-1.9,0.1-3.1,1-3.8,2.8c-2.4,6.1-4,13.8-4.8,23.2c-2.2,0-4.1,0-5.5,0c-1.1,0-2.2,0.4-3,1.3
						s-1.3,1.9-1.3,3s0.4,2.1,1.3,2.9c0.9,0.9,1.9,1.3,3,1.3c4.4,0,8.9,0,13.4-0.1s8.7-0.1,12.7-0.1c1.3,0.2,2.3-0.1,3.2-0.9
						c1-0.7,1.5-1.7,1.6-3c0.7-10.7,2.2-18.8,4.4-24.5c0.6-1.5,0.5-2.9-0.4-4.1c-0.9-1.3-2.1-1.9-3.7-1.9c-1.9,0.1-3.2,1-3.8,2.8
						c-2.5,6.1-4.1,13.8-4.8,23c-3.2,0-6,0-8.6,0c0.7-8.1,2.1-14.7,4.2-19.9c0.6-1.5,0.4-2.9-0.4-4.1
						C-1003.7-132.2-1004.9-132.8-1006.5-132.7z"/>
				</g>
			</g>
		</g>
		<g>
			<g transform="translate(1396.456661, 49.014148)">
				<g>
					<path d="M-997.1-132.5c-1.2,0-2.2,0.5-3.1,1.4c-0.8,0.9-1.3,1.9-1.3,3c0,1.1,0.5,2.1,1.4,3c0.8,0.9,1.9,1.3,3.1,1.3l16.2-0.2
						c-0.5,1.9-1,3.8-1.4,5.7h-16.3c-1.1,0-2.1,0.4-2.9,1.1c-0.8,0.7-1.2,1.6-1.4,2.6l-1.6,11.9c-0.1,1.2,0.3,2.3,1.1,3.2
						c0.9,0.9,1.9,1.3,3,1.4c1.2,0.1,2.2-0.3,3.1-1.2c0.9-0.8,1.4-1.8,1.4-2.9c0.1-1.5,0.4-4,0.9-7.5h11.5c-0.2,2-0.4,4.4-0.6,6.9
						c-0.1,1.1,0.3,2.2,1.1,3.1c0.8,1,1.8,1.5,2.9,1.5c1.2,0.1,2.2-0.3,3.1-1.1c0.9-0.8,1.4-1.8,1.5-2.9c0.3-4.6,0.7-8.3,1-11
						c0.1-0.1,0.1-0.2,0.1-0.4c0.7-4.9,1.9-9.3,3.4-13.1c0.5-1.4,0.3-2.8-0.5-4.1c-0.8-1.2-2-1.8-3.6-1.8L-997.1-132.5z"/>
				</g>
			</g>
		</g>
		<g>
			<g transform="translate(1418.440623, 49.014148)">
				<g>
					<path d="M-980.9-132.5c-1.1,0-2.2,0.5-3,1.4c-0.9,0.9-1.3,1.9-1.3,3c0.1,1.2,0.5,2.2,1.4,3c0.9,0.9,1.9,1.2,3,1.2l16.2-0.1
						c-1.5,5.3-2.5,12.4-3.1,21.2c-0.1,1.1,0.2,2.2,1,3.1c0.8,1,1.8,1.5,2.9,1.5c1.1,0.1,2.1-0.3,3-1.1c1-0.8,1.5-1.8,1.5-2.9
						c0.7-10.7,2.2-18.9,4.5-24.6c0.6-1.4,0.4-2.8-0.4-4.1c-0.8-1.2-2.1-1.8-3.7-1.8L-980.9-132.5z M-981.9-117.6
						c-1.1-0.1-2,0.3-2.9,1c-0.8,0.8-1.3,1.7-1.4,2.8c-0.4,2.7-0.8,6.4-1.1,11.2c-0.1,1.1,0.3,2.2,1.1,3.1c0.8,1,1.8,1.5,3,1.5
						c1.1,0.1,2.1-0.3,3.1-1.1c0.9-0.8,1.4-1.8,1.4-2.9c0.3-4.5,0.7-8.1,1-10.6c0.2-1.3-0.2-2.5-0.9-3.4
						C-979.5-117.1-980.6-117.6-981.9-117.6z"/>
				</g>
			</g>
		</g>
	</g>
	<g display="inline">
		<g>
			<g transform="translate(620.445272, 91.601101)">
				<g>
					<path d="M-683.1,47c-0.1,0-0.3,0-0.5,0s-0.5,0.1-0.7,0.2c0,0-0.1,0-0.2,0.1c-0.1,0.1-0.2,0.1-0.2,0.1h-0.1
						c-0.1,0.1-0.2,0.1-0.3,0.2c0,0,0,0.1-0.1,0.1s-0.1,0.1-0.1,0.1l-0.1,0.1c-0.6,0.4-1,0.9-1.2,1.6s-0.2,1.4,0,2
						c0.2,0.7,0.6,1.2,1.2,1.7c0.6,0.4,1.2,0.6,1.9,0.6c0.2,0,0.4,0,0.5,0s0.2-0.1,0.4-0.1c0.5-0.1,1-0.3,1.5-0.7c0,0,0,0,0-0.1
						l0.1-0.1c0.5-0.4,0.9-1,1-1.7c0.2-0.7,0.2-1.3,0-1.9s-0.7-1.1-1.2-1.5C-681.8,47.1-682.4,47-683.1,47z"/>
				</g>
			</g>
		</g>
		<g>
			<g transform="translate(628.509259, 91.601101)">
				<g>
					<path d="M-680.5,27.8c-1.2,0-2.2,0.5-2.8,1.6s-0.6,2.2,0,3.2c0,0.1,0,0.2,0,0.3l2.2,17.8c0.1,0.8,0.4,1.5,1,2
						c0.7,0.6,1.4,0.8,2.2,0.8h8.1c0.7,0,1.3-0.2,1.9-0.7c0.6-0.4,1-0.9,1.2-1.6l5.8-18.9c0.1-0.2,0.1-0.4,0.1-0.7
						c0.3-1,0.1-2-0.5-2.9c-0.7-0.8-1.6-1.2-2.6-1.2L-680.5,27.8z M-672.2,47.1h-2.9l-1.5-12.9l8.5-0.1L-672.2,47.1z"/>
				</g>
			</g>
		</g>
		<g>
			<g transform="translate(649.101219, 91.601101)">
				<g>
					<path d="M-672.1,20.2c-0.6,0-1.2,0.2-1.7,0.6s-0.9,0.9-1.1,1.5c-0.9,2.2-1.6,4.5-2.2,6.9c-0.2,0.9,0,1.7,0.5,2.4
						c0.5,0.7,1.1,1.2,1.9,1.4c0.8,0.2,1.6,0,2.4-0.5s1.2-1.2,1.4-2c0.5-2.2,1.1-4.1,1.9-6c0.4-1.1,0.3-2.1-0.3-3.1
						C-670.1,20.6-671,20.2-672.1,20.2z M-663.6,20.2c-0.6,0-1.2,0.2-1.7,0.6c-0.6,0.4-0.9,0.9-1.1,1.5c-0.9,2.2-1.6,4.5-2.1,6.9
						c-0.2,0.9-0.1,1.7,0.5,2.4c0.5,0.7,1.1,1.2,1.9,1.4c0.9,0.2,1.7,0,2.4-0.5c0.8-0.5,1.2-1.2,1.4-2c0.5-2.2,1.1-4.1,1.8-6
						c0.5-1.1,0.4-2.1-0.3-3.1C-661.6,20.6-662.5,20.2-663.6,20.2z"/>
				</g>
			</g>
		</g>
		<g>
			<g transform="translate(664.797191, 91.601101)">
				<g>
					<path d="M-649.2,27.6c-0.1,0-0.2,0-0.4,0c-0.6,0-1.3,0.1-2.1,0.2c-0.2,0-0.4,0.1-0.5,0.1c-3.2,1.1-6.2,2.9-8.9,5.4
						c-0.4-1.2-0.8-2.5-1.2-3.7c-0.6-1.4-1.6-2-3-2c-1.1,0-2,0.5-2.7,1.4c-0.6,1-0.7,2-0.2,3c0.8,2.2,1.5,4.7,2.1,7.3
						c-1.9,2.7-3.7,5.9-5.4,9.6c-0.4,0.8-0.4,1.6-0.1,2.5s0.9,1.5,1.7,1.8c0.8,0.4,1.7,0.4,2.5,0.1s1.4-1,1.8-1.9
						c4.1-9.3,9.2-15.1,15.3-17.4c0.3,0,0.7-0.1,1-0.1c0,0.5,0,1-0.1,1.3c-1.3,7-2,10.9-2,11.5h-0.8c-0.4,0-0.7,0-0.8,0l-0.1,0.1
						c-0.1,0-0.1,0-0.1,0h-0.1c-0.5,0-1.9,0-4.3,0c-0.9,0-1.6,0.3-2.2,1c-0.7,0.6-1,1.4-1,2.2c0,0.9,0.3,1.7,1,2.3
						c0.6,0.6,1.4,0.9,2.2,0.9c2.1,0,3.5,0,4.4,0c0.3,0,0.6,0,0.8,0c0,0,0.1,0,0.2-0.1c0.1,0,0.2,0,0.2-0.1c0.7,0,2.1,0,4,0
						c0.9,0,1.7-0.4,2.4-1.1c0.6-0.7,0.9-1.5,0.8-2.5c-0.2-1.4,0.4-5.8,1.7-13.1c0.5-2.9,0.3-5.2-0.8-6.7c-0.9-1.1-2-1.9-3.6-2.1
						C-648.1,27.7-648.7,27.6-649.2,27.6z M-651,52.6c-0.2,0.3-0.4,0.4-0.4,0.4c0-0.1,0-0.1-0.2,0C-651.5,52.9-651.3,52.8-651,52.6z
						"/>
				</g>
			</g>
		</g>
		<g>
			<g transform="translate(689.66115, 91.601101)">
				<g>
					<path d="M-657.1,27.6c-1.4,0-2.4,0.7-2.9,2c-2,4.9-3.2,11.7-3.8,20.4c0,0.9,0.2,1.6,0.8,2.3c0.6,0.7,1.3,1.1,2.2,1.2
						c0.8,0.1,1.6-0.2,2.3-0.8c0.7-0.6,1-1.3,1.1-2.2c0.5-8,1.7-14.2,3.4-18.4c0.5-1.1,0.4-2.1-0.3-3.1
						C-654.9,28-655.9,27.6-657.1,27.6z"/>
				</g>
			</g>
		</g>
		<g>
			<g transform="translate(700.221128, 91.601101)">
				<g>
					<path d="M-653.5,27.6c-0.3,0-0.7,0.1-1,0.2h-1.1c-0.6,0-1.3,0.2-1.9,0.6c-0.6,0.4-1,0.9-1.2,1.5s-0.2,1.2,0,1.9
						c0.2,0.7,0.5,1.2,1,1.6c-1.2,4-2,9.5-2.6,16.6c0,0.9,0.2,1.6,0.8,2.3c0.6,0.7,1.3,1.1,2.2,1.2c0.8,0.1,1.6-0.2,2.3-0.8
						c0.7-0.6,1-1.3,1.1-2.2c0.5-7,1.4-12.5,2.6-16.3h7.8c-1.1,4-1.9,9.3-2.4,15.9c0,0.9,0.2,1.6,0.8,2.3c0.6,0.7,1.3,1.1,2.2,1.1
						c0.9,0.1,1.6-0.2,2.4-0.8c0.7-0.6,1-1.3,1.1-2.2c0.5-8.1,1.7-14.2,3.4-18.4c0.4-1.1,0.3-2.1-0.4-3c-0.6-1-1.5-1.5-2.7-1.5
						l-13.3,0.2C-652.7,27.7-653.1,27.6-653.5,27.6z"/>
				</g>
			</g>
		</g>
		<g>
			<g transform="translate(721.533093, 91.601101)">
				<g>
					<path d="M-648.3,27.8c-0.9,0-1.6,0.3-2.3,1c-0.7,0.6-1,1.4-1,2.2c0,0.9,0.4,1.7,1,2.3c0.7,0.6,1.4,0.9,2.3,0.9l12.2-0.1
						c-1.1,4-1.9,9.3-2.3,15.9c-0.1,0.9,0.2,1.6,0.8,2.3c0.6,0.7,1.3,1.1,2.2,1.1c0.8,0.1,1.6-0.2,2.3-0.8c0.7-0.6,1.1-1.3,1.1-2.2
						c0.5-8,1.7-14.2,3.4-18.5c0.4-1.1,0.3-2.1-0.3-3.1c-0.6-0.9-1.6-1.3-2.8-1.3L-648.3,27.8z M-649.1,38.9c-0.8,0-1.5,0.2-2.2,0.8
						c-0.6,0.6-1,1.3-1.1,2.1c-0.3,2-0.6,4.8-0.8,8.4c0,0.9,0.2,1.6,0.8,2.3c0.6,0.7,1.3,1.1,2.2,1.1c0.8,0.1,1.6-0.2,2.3-0.8
						c0.7-0.6,1-1.3,1.1-2.2c0.2-3.4,0.5-6.1,0.8-7.9c0.1-1-0.1-1.8-0.7-2.6C-647.3,39.3-648.1,38.9-649.1,38.9z"/>
				</g>
			</g>
		</g>
		<g>
			<g transform="translate(752.973033, 91.601101)">
				<g>
					<path d="M-636.9,27.8c-0.7,0-1.3,0.2-1.9,0.6c-0.6,0.4-1,0.9-1.2,1.5s-0.2,1.3-0.1,2c0.2,0.7,0.5,1.2,1,1.6l-3,15.3
						c0,0.1-0.1,0.2-0.1,0.3c-0.4,1-0.3,2,0.3,3s1.5,1.5,2.8,1.4c3.3,0,6.5,0,9.8-0.1c3.4,0,6.4-0.1,8.9-0.1h0.1c0.3,0,0.6,0,0.9,0
						h0.2c1.3,0,2.2-0.6,2.9-1.7c0.6-1.1,0.5-2.3-0.2-3.3c0.5-6.8,1.6-12.3,3.2-16.3c0.4-1.1,0.3-2.1-0.3-3.1
						c-0.7-0.9-1.6-1.3-2.7-1.3L-636.9,27.8z M-620.8,34.1c-1,3.5-1.7,7.8-2,12.9c-1.6,0-3.7,0-6.1,0.1c-2.5,0-4.6,0.1-6.2,0.1
						l2.6-12.9L-620.8,34.1z"/>
				</g>
			</g>
		</g>
		<g>
			<g transform="translate(778.124994, 91.601101)">
				<g>
					<path d="M-627.6,27.6c-1.4,0-2.4,0.7-2.9,2c-2,4.9-3.2,11.7-3.8,20.4c0,0.9,0.2,1.6,0.8,2.3c0.6,0.7,1.3,1.1,2.2,1.2
						c0.8,0.1,1.6-0.2,2.3-0.8c0.7-0.6,1-1.3,1.1-2.2c0.5-8,1.7-14.2,3.4-18.4c0.5-1.1,0.4-2.1-0.3-3.1
						C-625.4,28-626.4,27.6-627.6,27.6z"/>
				</g>
			</g>
		</g>
		<g>
			<g transform="translate(788.684972, 91.601101)">
				<g>
					<path d="M-624.1,27.6c-0.3,0-0.7,0.1-1,0.2h-1.1c-0.6,0-1.3,0.2-1.9,0.6c-0.6,0.4-1,0.9-1.2,1.5s-0.2,1.2,0,1.9
						c0.2,0.7,0.5,1.2,1,1.6c-1.2,4-2,9.5-2.6,16.6c0,0.9,0.2,1.6,0.8,2.3c0.6,0.7,1.3,1.1,2.2,1.2c0.8,0.1,1.6-0.2,2.3-0.8
						c0.7-0.6,1-1.3,1.1-2.2c0.5-7,1.4-12.5,2.6-16.3h7.8c-1.1,4-1.9,9.3-2.4,15.9c0,0.9,0.2,1.6,0.8,2.3s1.3,1.1,2.2,1.1
						c0.9,0.1,1.6-0.2,2.4-0.8c0.7-0.6,1-1.3,1.1-2.2c0.5-8.1,1.7-14.2,3.4-18.4c0.4-1.1,0.3-2.1-0.4-3c-0.6-1-1.5-1.5-2.7-1.5
						l-13.3,0.2C-623.2,27.7-623.6,27.6-624.1,27.6z"/>
				</g>
			</g>
		</g>
		<g>
			<g transform="translate(809.996937, 91.601101)">
				<g>
					<path d="M-611.9,27.6c-0.4,0-0.7,0.1-1,0.2h-1.2c-1.5,0-2.5,0.7-3,2.1c-0.2,0.6-0.3,1.2-0.1,1.9c0.2,0.7,0.5,1.2,1,1.6
						c-1.1,3.6-1.9,8.2-2.3,13.6c-0.4,0-1,0-2.1,0c-0.9,0-1.6,0.3-2.3,1c-0.6,0.6-1,1.4-1,2.2c0,0.9,0.3,1.6,1,2.2s1.4,1,2.3,1
						c1.3,0,2.3,0,3.1-0.1c0.4,0,0.9-0.1,1.7-0.1c0.2,0,0.5,0,0.8,0h0.2c1.3,0,2.3-0.6,2.9-1.7c0.6-1.2,0.5-2.3-0.3-3.4
						c0.5-5.8,1.3-10.5,2.4-14.1l7.8-0.1c-1.1,4-1.9,9.2-2.3,15.8c-0.1,0.9,0.1,1.6,0.8,2.4c0.6,0.7,1.4,1,2.2,1.1
						c0.8,0,1.6-0.2,2.3-0.8c0.7-0.6,1.1-1.3,1.2-2.1c0.5-8.1,1.7-14.2,3.3-18.4c0.4-1,0.3-2-0.3-3c-0.6-0.9-1.5-1.4-2.7-1.4
						l-13.3,0.2C-611.2,27.7-611.6,27.6-611.9,27.6z"/>
				</g>
			</g>
		</g>
		<g>
			<g transform="translate(835.004909, 91.601101)">
				<g>
					<path d="M-610,27.8c-0.9,0-1.6,0.3-2.2,1c-0.7,0.6-1,1.4-1,2.2c0,0.9,0.3,1.6,1,2.2c0.6,0.6,1.4,1,2.3,1l12.1-0.1
						c-1,3.5-1.7,7.9-2.1,12.9c-4.8,0.1-8.9,0.1-12.2,0.1c-0.9,0-1.6,0.3-2.3,1c-0.6,0.6-1,1.4-1,2.2c0,0.9,0.3,1.6,1,2.2
						s1.4,1,2.3,1c-0.7,0,4.3,0,15-0.1h0.5c2.2,0,3.6,0,4.4,0s1.6-0.3,2.2-1c0.7-0.6,1-1.4,1-2.3c0-0.8-0.3-1.6-1-2.2
						c-0.6-0.6-1.4-1-2.2-1h-1.2c0.5-6.1,1.5-11,3.1-14.9c0.4-1.1,0.3-2.1-0.3-3.1c-0.6-0.9-1.5-1.3-2.7-1.3L-610,27.8z"/>
				</g>
			</g>
		</g>
		<g>
			<g transform="translate(867.260858, 91.601101)">
				<g>
					<path d="M-598.8,27.8c-0.7,0-1.3,0.2-1.9,0.6c-0.6,0.4-1,0.9-1.2,1.5s-0.2,1.3-0.1,2c0.2,0.7,0.5,1.2,1,1.6l-3,15.3
						c0,0.1-0.1,0.2-0.1,0.3c-0.4,1-0.3,2,0.3,3s1.5,1.5,2.8,1.4c3.3,0,6.5,0,9.8-0.1c3.4,0,6.4-0.1,8.9-0.1h0.1c0.3,0,0.6,0,0.9,0
						h0.2c1.3,0,2.2-0.6,2.9-1.7c0.6-1.1,0.5-2.3-0.2-3.3c0.5-6.8,1.6-12.3,3.2-16.3c0.4-1.1,0.3-2.1-0.3-3.1
						c-0.7-0.9-1.6-1.3-2.7-1.3L-598.8,27.8z M-582.7,34.1c-1,3.5-1.7,7.8-2,12.9c-1.6,0-3.7,0-6.1,0.1c-2.5,0-4.6,0.1-6.2,0.1
						l2.6-12.9L-582.7,34.1z"/>
				</g>
			</g>
		</g>
		<g>
			<g transform="translate(892.41282, 91.601101)">
				<g>
					<path d="M-590,27.7c-0.7,0-1.3,0.3-1.9,0.6c-0.6,0.4-1,1-1.2,1.7c-1.2,3.1-2.2,6.5-2.9,10.1c-0.2,0.9,0,1.8,0.6,2.6
						c0.5,0.8,1.3,1.3,2.2,1.5c0.9,0.1,1.8-0.1,2.6-0.6c0.8-0.6,1.3-1.3,1.5-2.2c0.5-3.2,1.4-6.1,2.5-8.8c0.5-1.1,0.3-2.3-0.4-3.3
						C-587.8,28.2-588.8,27.6-590,27.7z"/>
				</g>
			</g>
		</g>
		<g>
			<g transform="translate(902.828796, 91.601101)">
				<g>
					<path d="M-575.3,27.6c-1.5,0-2.4,0.7-2.9,2c-1.8,4.6-3,10.3-3.6,17.3c-0.9,0-1.7,0-2.7,0s-2.7,0.1-5.2,0.2
						c-0.8,0-1.5,0.3-2.2,1c-0.6,0.6-0.9,1.4-0.8,2.3c0,0.8,0.3,1.5,1,2.2s1.4,0.9,2.2,0.9c4.8-0.1,8.2-0.2,10.2-0.1
						c0.1,0,0.2,0,0.3,0h0.1c0.8,0,1.6-0.2,2.2-0.8c0.7-0.6,1-1.3,1.1-2.1c0.5-8.1,1.7-14.2,3.3-18.4c0.5-1.1,0.4-2.1-0.3-3.1
						C-573.2,28-574.1,27.6-575.3,27.6z"/>
				</g>
			</g>
		</g>
		<g>
			<g transform="translate(921.404777, 91.601101)">
				<g>
					<path d="M-579.8,27.6c-1.4,0-2.4,0.7-2.9,2c-2,4.9-3.2,11.7-3.8,20.4c0,0.9,0.2,1.6,0.8,2.3s1.3,1.1,2.2,1.2
						c0.8,0.1,1.6-0.2,2.3-0.8c0.7-0.6,1-1.3,1.1-2.2c0.5-8,1.7-14.2,3.4-18.4c0.5-1.1,0.4-2.1-0.3-3.1
						C-577.7,28-578.6,27.6-579.8,27.6z"/>
				</g>
			</g>
		</g>
		<g>
			<g transform="translate(931.964743, 91.601101)">
				<g>
					<path d="M-579.7,26.7c-1,0-1.8,0.3-2.4,1c-0.6,0.7-0.9,1.5-0.9,2.4l1.3,20.4c0,1,0.4,1.8,1.2,2.3c0.8,0.6,1.7,0.8,2.7,0.7h0.2
						c3.3,0,6.5,0,9.7-0.1c3.4,0,6.3,0,8.6,0c0.3,0,0.6,0,0.8,0h0.5c1.4,0,2.4-0.6,3-1.9c0.5-1.3,0.4-2.5-0.6-3.5
						c0.5-6.6,1.5-11.9,3.1-15.9c0.5-1.1,0.4-2.1-0.3-3.1c-0.6-0.9-1.6-1.4-2.8-1.3c-1.4,0-2.4,0.7-2.8,2c-1.8,4.6-3,10.3-3.6,17.3
						c-1.5,0-2.9,0-4.2,0c-0.5-3.6,0.2-8.6,2.2-15.2c0.3-1.1,0.2-2-0.4-3c-0.7-0.8-1.6-1.2-2.7-1.2c-0.7,0-1.3,0.2-1.9,0.7
						c-0.6,0.4-1,1-1.2,1.6c-2.1,7.1-2.9,12.8-2.5,17.1c-0.8,0-1.9,0-3.1,0l-1.1-17.4c0-0.8-0.3-1.5-1-2.1
						C-578.2,27-578.9,26.7-579.7,26.7z"/>
				</g>
			</g>
		</g>
		<g>
			<g transform="translate(958.220693, 91.601101)">
				<g>
					<path d="M-569.4,27.8c-0.9,0-1.6,0.3-2.3,1c-0.7,0.6-1,1.4-1,2.2c0,0.9,0.4,1.7,1,2.3c0.7,0.6,1.4,0.9,2.3,0.9l12.2-0.1
						c-1.1,4-1.9,9.3-2.3,15.9c-0.1,0.9,0.2,1.6,0.8,2.3s1.3,1.1,2.2,1.1c0.8,0.1,1.6-0.2,2.3-0.8c0.7-0.6,1.1-1.3,1.1-2.2
						c0.5-8,1.7-14.2,3.4-18.5c0.4-1.1,0.3-2.1-0.3-3.1c-0.6-0.9-1.6-1.3-2.8-1.3L-569.4,27.8z M-570.2,38.9c-0.8,0-1.5,0.2-2.2,0.8
						c-0.6,0.6-1,1.3-1.1,2.1c-0.3,2-0.6,4.8-0.8,8.4c0,0.9,0.2,1.6,0.8,2.3c0.6,0.7,1.3,1.1,2.2,1.1c0.8,0.1,1.6-0.2,2.3-0.8
						c0.7-0.6,1-1.3,1.1-2.2c0.2-3.4,0.5-6.1,0.8-7.9c0.1-1-0.1-1.8-0.7-2.6C-568.4,39.3-569.2,38.9-570.2,38.9z"/>
				</g>
			</g>
		</g>
	</g>
	<g display="inline">
		<g>
			<g transform="translate(989.660633, 91.601101)">
				<g>
					<path d="M-1108-32.2c-0.7,0-1.3,0.2-1.8,0.6c-0.6,0.4-1,0.9-1.2,1.5c-0.2,0.6-0.2,1.3-0.1,2c0.2,0.7,0.5,1.2,1,1.6l-3,15.3
						c0,0.1-0.1,0.2-0.1,0.3c-0.4,1-0.3,2,0.3,3s1.5,1.5,2.8,1.4c3.3,0,6.5,0,9.8-0.1c3.4,0,6.4-0.1,8.9-0.1h0.1c0.3,0,0.6,0,0.9,0
						h0.2c1.3,0,2.2-0.6,2.9-1.7c0.6-1.1,0.5-2.3-0.2-3.3c0.5-6.8,1.6-12.3,3.2-16.3c0.4-1.1,0.3-2.1-0.3-3.1
						c-0.7-0.9-1.6-1.3-2.7-1.3L-1108-32.2z M-1091.9-25.9c-1,3.5-1.7,7.8-2,12.9c-1.6,0-3.7,0-6.1,0.1c-2.5,0-4.6,0.1-6.2,0.1
						l2.6-12.9L-1091.9-25.9z"/>
				</g>
			</g>
		</g>
		<g>
			<g transform="translate(1014.812594, 91.601101)">
				<g>
					<path d="M-1099.2-32.3c-0.7,0-1.3,0.3-1.9,0.6c-0.6,0.4-1,1-1.2,1.7c-1.2,3.1-2.2,6.5-2.9,10.1c-0.2,0.9,0,1.8,0.7,2.6
						c0.5,0.8,1.3,1.3,2.2,1.5c0.9,0.1,1.8-0.1,2.6-0.6c0.8-0.6,1.3-1.3,1.5-2.2c0.5-3.2,1.4-6.1,2.5-8.8c0.5-1.1,0.3-2.3-0.4-3.3
						C-1096.9-31.8-1097.9-32.4-1099.2-32.3z"/>
				</g>
			</g>
		</g>
		<g>
			<g transform="translate(1025.228549, 91.601101)">
				<g>
					<path d="M-1096.4-32.2c-0.9,0-1.6,0.3-2.3,1c-0.6,0.6-1,1.4-1,2.2c0,0.9,0.3,1.6,1,2.2c0.6,0.6,1.4,1,2.3,1l12.2-0.1
						c-0.4,1.4-0.7,2.9-1,4.3h-12.3c-0.8,0-1.5,0.3-2.2,0.8c-0.6,0.6-0.9,1.2-1,2l-1.2,9c0,0.9,0.2,1.7,0.8,2.4c0.7,0.6,1.4,1,2.2,1
						c0.9,0,1.6-0.3,2.3-0.9c0.7-0.6,1-1.3,1.1-2.2c0-1.1,0.3-3,0.7-5.6h8.6c-0.2,1.5-0.3,3.3-0.4,5.2c0,0.9,0.2,1.6,0.8,2.3
						c0.6,0.7,1.3,1.1,2.2,1.1s1.6-0.2,2.3-0.8c0.7-0.6,1.1-1.3,1.2-2.2c0.3-3.5,0.5-6.2,0.8-8.3c0-0.1,0.1-0.2,0.1-0.3
						c0.5-3.7,1.4-7,2.6-9.9c0.4-1.1,0.3-2.1-0.4-3.1c-0.6-0.9-1.5-1.3-2.7-1.3L-1096.4-32.2z"/>
				</g>
			</g>
		</g>
		<g>
			<g transform="translate(1047.212511, 91.601101)">
				<g>
					<path d="M-1091.3-33.3c-1,0-1.8,0.3-2.4,1c-0.6,0.7-0.9,1.5-0.9,2.4l1.3,20.4c0,1,0.4,1.8,1.2,2.4c0.8,0.6,1.7,0.9,2.7,0.6h0.2
						c3.3,0,6.5,0,9.7-0.1c3.4,0,6.3,0,8.7,0c0.3,0,0.6,0,0.8,0h0.5c1.4,0,2.4-0.6,3-1.9c0.5-1.3,0.4-2.5-0.6-3.5
						c0.5-6.6,1.5-11.9,3.1-15.9c0.5-1.1,0.4-2.1-0.3-3.1c-0.6-0.9-1.6-1.4-2.8-1.3c-1.4,0-2.3,0.7-2.8,2c-1.8,4.6-3,10.3-3.6,17.3
						c-1.5,0-2.9,0-4.2,0c-0.5-3.6,0.2-8.6,2.2-15.2c0.3-1.1,0.2-2-0.4-3c-0.7-0.8-1.6-1.2-2.7-1.2c-0.7,0-1.3,0.2-1.8,0.7
						c-0.6,0.4-1,1-1.2,1.6c-2.1,7.1-2.9,12.8-2.5,17.1c-0.8,0-1.8,0-3.1,0l-1.2-17.4c0-0.8-0.3-1.5-1-2.1
						C-1089.8-33-1090.5-33.3-1091.3-33.3z"/>
				</g>
			</g>
		</g>
		<g>
			<g transform="translate(1073.468461, 91.601101)">
				<g>
					<path d="M-1079.1-32.4c-1.4,0-2.4,0.7-2.9,2c-2,4.9-3.2,11.7-3.8,20.4c0,0.9,0.2,1.6,0.8,2.3c0.6,0.7,1.3,1.1,2.2,1.1
						c0.8,0.1,1.6-0.2,2.3-0.8c0.7-0.6,1-1.3,1.1-2.2c0.5-8,1.7-14.2,3.4-18.4c0.5-1.1,0.4-2.1-0.3-3.1
						C-1077-32-1077.9-32.4-1079.1-32.4z"/>
				</g>
			</g>
		</g>
		<g>
			<g transform="translate(1084.028427, 91.601101)">
				<g>
					<path d="M-1059.4-32.4c-0.1,0-0.2,0-0.4,0c-0.6,0-1.3,0.1-2.1,0.2c-0.2,0-0.3,0.1-0.5,0.1c-3.2,1.1-6.2,2.9-8.9,5.4
						c-0.3-1.2-0.8-2.5-1.2-3.7c-0.6-1.4-1.6-2-3-2c-1.1,0-2,0.5-2.7,1.4c-0.6,1-0.7,2-0.2,3c0.8,2.2,1.5,4.7,2.1,7.3
						c-1.9,2.7-3.7,5.9-5.4,9.6c-0.4,0.8-0.4,1.6-0.1,2.5s0.9,1.5,1.7,1.9c0.8,0.4,1.7,0.4,2.5,0.1s1.4-1,1.8-1.9
						c4.1-9.3,9.2-15.1,15.3-17.4c0.3,0,0.7-0.1,1-0.1c0,0.5,0,1-0.1,1.3c-1.3,7-2,10.9-2,11.5h-0.8c-0.4,0-0.7,0-0.8,0l-0.1,0.1
						c-0.1,0-0.1,0-0.1,0s-0.1,0-0.2,0c-0.5,0-1.9,0-4.3,0c-0.9,0-1.6,0.3-2.2,1c-0.7,0.6-1,1.4-1,2.2c0,0.9,0.3,1.7,1,2.3
						c0.6,0.6,1.4,0.9,2.2,0.9c2.1,0,3.5,0,4.4,0c0.3,0,0.6,0,0.8,0c0,0,0.1,0,0.2-0.1c0.1,0,0.2,0,0.2-0.1c0.7,0,2.1,0,4,0
						c0.9,0,1.7-0.4,2.3-1.1s0.9-1.5,0.8-2.5c-0.2-1.4,0.4-5.8,1.7-13.1c0.5-2.9,0.3-5.2-0.8-6.7c-0.8-1.1-2-1.9-3.6-2.1
						C-1058.4-32.3-1058.9-32.4-1059.4-32.4z M-1061.3-7.4c-0.2,0.2-0.4,0.4-0.4,0.4c0-0.1,0-0.1-0.2,0
						C-1061.7-7.1-1061.5-7.2-1061.3-7.4z"/>
				</g>
			</g>
		</g>
		<g>
			<g transform="translate(1108.892364, 91.601101)">
				<g>
					<path d="M-1069.2-32.2c-0.8,0-1.6,0.3-2.3,1c-0.7,0.6-1,1.4-1,2.2c0,0.9,0.4,1.7,1,2.3c0.7,0.6,1.4,0.9,2.3,0.9l12.2-0.1
						c-1.1,4-1.9,9.3-2.3,15.9c-0.1,0.9,0.2,1.6,0.8,2.3c0.6,0.7,1.3,1.1,2.2,1.1c0.8,0.1,1.6-0.2,2.3-0.8c0.7-0.6,1.1-1.3,1.2-2.2
						c0.5-8,1.7-14.2,3.4-18.5c0.4-1.1,0.3-2.1-0.3-3.1c-0.6-0.9-1.6-1.3-2.8-1.3L-1069.2-32.2z M-1069.9-21.1
						c-0.8,0-1.5,0.2-2.2,0.8c-0.6,0.6-1,1.3-1.1,2.1c-0.3,2-0.6,4.8-0.8,8.4c0,0.9,0.2,1.6,0.8,2.3c0.6,0.7,1.3,1.1,2.2,1.1
						c0.8,0.1,1.6-0.2,2.3-0.8c0.7-0.6,1-1.3,1.1-2.2c0.2-3.4,0.5-6.1,0.8-7.9c0.1-1-0.1-1.8-0.7-2.6
						C-1068.2-20.7-1069-21.1-1069.9-21.1z"/>
				</g>
			</g>
		</g>
		<g>
			<g transform="translate(1140.332304, 91.601101)">
				<g>
					<path d="M-1056.5-41.9c-1.4,0-2.4,0.7-2.9,2c-1,2.6-1.8,5.4-2.4,8.3c-1.2,0.9-1.5,2.1-1,3.6s1.6,2.2,3.2,2.2l11.7-0.1
						c-1.1,3.9-1.8,9.2-2.3,16c0,0.9,0.2,1.6,0.8,2.4c0.6,0.7,1.3,1.1,2.2,1.1c0.9,0.1,1.7-0.2,2.3-0.8c0.7-0.6,1.1-1.4,1.1-2.2
						c0.5-7.5,1.5-13.2,2.9-17.2c1.2-0.9,1.5-2.1,1-3.6c-0.5-1.4-1.5-2.2-3-2.2c-0.2-0.1-0.4-0.1-0.7-0.1c-0.2,0-0.3,0-0.4,0.1
						l-10.9,0.1c0.5-1.8,1-3.5,1.7-5.1c0.4-1.1,0.3-2.1-0.3-3.1C-1054.3-41.6-1055.3-42-1056.5-41.9z"/>
				</g>
			</g>
		</g>
		<g>
			<g transform="translate(1161.212277, 91.601101)">
				<g>
					<path d="M-1043.7-32.4c-1.4,0-2.3,0.7-2.8,2.1c-1.8,4.6-3,10.4-3.6,17.4c-1.7,0-3.1,0-4.2,0c-0.8,0-1.6,0.3-2.3,1
						c-0.6,0.6-1,1.4-1,2.3c0,0.8,0.3,1.5,1,2.2c0.7,0.6,1.4,1,2.3,1c3.3,0,6.7,0,10.1-0.1c3.4,0,6.5-0.1,9.5-0.1
						c0.9,0.1,1.8-0.1,2.4-0.7c0.7-0.5,1.1-1.3,1.2-2.2c0.5-8,1.6-14.1,3.3-18.4c0.5-1.1,0.4-2.1-0.3-3.1c-0.7-1-1.6-1.4-2.8-1.4
						c-1.4,0-2.4,0.7-2.9,2.1c-1.8,4.6-3,10.3-3.6,17.3c-2.4,0-4.5,0-6.5,0c0.5-6.1,1.6-11,3.2-14.9c0.4-1.1,0.3-2.1-0.3-3.1
						C-1041.6-32-1042.5-32.5-1043.7-32.4z"/>
				</g>
			</g>
		</g>
		<g>
			<g transform="translate(1195.964229, 91.601101)">
				<g>
					<path d="M-1038.3-32.4c-1.4,0-2.4,0.7-2.9,2c-2,4.9-3.2,11.7-3.8,20.4c0,0.9,0.2,1.6,0.8,2.3c0.6,0.7,1.3,1.1,2.2,1.1
						c0.8,0.1,1.6-0.2,2.3-0.8c0.7-0.6,1-1.3,1.1-2.2c0.5-8,1.7-14.2,3.4-18.4c0.5-1.1,0.4-2.1-0.3-3.1
						C-1036.2-32-1037.1-32.4-1038.3-32.4z"/>
				</g>
			</g>
		</g>
		<g>
			<g transform="translate(1206.524195, 91.601101)">
				<g>
					<path d="M-1028.4-32.4c-0.2,0-0.5,0-0.8,0.1l-9.2,0.1c-0.8,0-1.6,0.3-2.3,1c-0.6,0.7-1,1.5-1,2.3c0,0.9,0.4,1.6,1,2.2
						c0.7,0.6,1.4,1,2.2,1l5.4-0.1c-1.1,3.8-1.8,9.1-2.2,15.9c-0.1,0.9,0.2,1.6,0.8,2.3c0.6,0.7,1.3,1.1,2.2,1.1
						c0.8,0.1,1.6-0.2,2.3-0.8c0.7-0.6,1.1-1.3,1.1-2.2c0.5-7.1,1.4-12.5,2.7-16.4l4.4-0.1c0.8,0,1.6-0.3,2.3-1c0.6-0.7,1-1.5,1-2.3
						c0-0.8-0.3-1.6-1-2.2c-0.7-0.6-1.4-1-2.3-1l-5.9,0.1C-1027.8-32.4-1028.1-32.4-1028.4-32.4z"/>
				</g>
			</g>
		</g>
		<g>
			<g transform="translate(1226.540185, 91.601101)">
				<g>
					<path d="M-1011.9-32.4c-0.1,0-0.2,0-0.4,0c-0.6,0-1.3,0.1-2.1,0.2c-0.2,0-0.3,0.1-0.5,0.1c-3.2,1.1-6.2,2.9-8.9,5.4
						c-0.3-1.2-0.8-2.5-1.2-3.7c-0.6-1.4-1.6-2-3-2c-1.1,0-2,0.5-2.7,1.4c-0.6,1-0.7,2-0.2,3c0.8,2.2,1.5,4.7,2.1,7.3
						c-1.9,2.7-3.7,5.9-5.4,9.6c-0.4,0.8-0.4,1.6-0.1,2.5s0.9,1.5,1.7,1.9c0.8,0.4,1.7,0.4,2.5,0.1c0.8-0.3,1.4-1,1.8-1.9
						c4.1-9.3,9.2-15.1,15.3-17.4c0.3,0,0.7-0.1,1-0.1c0,0.5,0,1-0.1,1.3c-1.3,7-2,10.9-2,11.5h-0.8c-0.4,0-0.7,0-0.8,0l-0.1,0.1
						c-0.1,0-0.1,0-0.1,0s-0.1,0-0.2,0c-0.5,0-1.9,0-4.3,0c-0.9,0-1.6,0.3-2.2,1c-0.7,0.6-1,1.4-1,2.2c0,0.9,0.3,1.7,1,2.3
						c0.6,0.6,1.4,0.9,2.2,0.9c2.1,0,3.5,0,4.4,0c0.3,0,0.6,0,0.8,0c0,0,0.1,0,0.2-0.1c0.1,0,0.2,0,0.2-0.1c0.7,0,2.1,0,4,0
						c0.9,0,1.7-0.4,2.3-1.1s0.9-1.5,0.8-2.5c-0.2-1.4,0.4-5.8,1.7-13.1c0.5-2.9,0.3-5.2-0.8-6.7c-0.8-1.1-2-1.9-3.6-2.1
						C-1010.9-32.3-1011.4-32.4-1011.9-32.4z M-1013.8-7.4c-0.2,0.2-0.4,0.4-0.4,0.4c0-0.1,0-0.1-0.2,0
						C-1014.2-7.1-1014-7.2-1013.8-7.4z"/>
				</g>
			</g>
		</g>
		<g>
			<g transform="translate(1251.404168, 91.601101)">
				<g>
					<path d="M-1019.5-41.9c-1.4,0-2.4,0.7-2.9,2c-1,2.6-1.8,5.4-2.4,8.3c-1.2,0.9-1.5,2.1-1,3.6s1.6,2.2,3.2,2.2l11.7-0.1
						c-1.1,3.9-1.8,9.2-2.3,16c0,0.9,0.2,1.6,0.8,2.4c0.6,0.7,1.3,1.1,2.2,1.1c0.9,0.1,1.7-0.2,2.3-0.8c0.7-0.6,1.1-1.4,1.1-2.2
						c0.5-7.5,1.5-13.2,2.9-17.2c1.2-0.9,1.5-2.1,1-3.6c-0.5-1.4-1.5-2.2-3-2.2c-0.2-0.1-0.4-0.1-0.7-0.1c-0.2,0-0.3,0-0.4,0.1
						l-10.9,0.1c0.5-1.8,1-3.5,1.7-5.1c0.4-1.1,0.3-2.1-0.3-3.1C-1017.3-41.6-1018.2-42-1019.5-41.9z"/>
				</g>
			</g>
		</g>
		<g>
			<g transform="translate(1272.284141, 91.601101)">
				<g>
					<path d="M-1007.8-32.4c-0.4,0-0.7,0.1-1,0.2h-1.2c-1.5,0-2.5,0.7-3,2.1c-0.2,0.6-0.3,1.2-0.1,1.9s0.5,1.2,1,1.6
						c-1.1,3.6-1.9,8.2-2.3,13.6c-0.3,0-1,0-2.1,0c-0.8,0-1.6,0.3-2.3,1c-0.6,0.6-1,1.4-1,2.2c0,0.9,0.3,1.6,1,2.2s1.4,1,2.3,1
						c1.3,0,2.3,0,3.1-0.1c0.4,0,0.9-0.1,1.7-0.1c0.2,0,0.5,0,0.8,0h0.2c1.3,0,2.3-0.6,2.9-1.7c0.6-1.2,0.5-2.3-0.3-3.4
						c0.5-5.8,1.3-10.5,2.4-14.1l7.8-0.1c-1.1,4-1.9,9.2-2.3,15.8c-0.1,0.9,0.2,1.6,0.8,2.4c0.6,0.7,1.4,1,2.2,1.1
						c0.8,0,1.6-0.2,2.3-0.8c0.7-0.6,1.1-1.3,1.2-2.1c0.5-8.1,1.7-14.2,3.3-18.4c0.4-1,0.3-2-0.3-3c-0.6-0.9-1.5-1.4-2.7-1.4
						l-13.3,0.2C-1007.1-32.3-1007.5-32.4-1007.8-32.4z"/>
				</g>
			</g>
		</g>
		<g>
			<g transform="translate(1307.180059, 91.601101)">
				<g>
					<path d="M-1003.1-32.2c-0.8,0-1.6,0.3-2.3,1c-0.7,0.6-1,1.4-1,2.2c0,0.9,0.4,1.7,1,2.3c0.7,0.6,1.4,0.9,2.3,0.9l12.2-0.1
						c-1.1,4-1.9,9.3-2.3,15.9c-0.1,0.9,0.2,1.6,0.8,2.3c0.6,0.7,1.3,1.1,2.2,1.1c0.8,0.1,1.6-0.2,2.3-0.8c0.7-0.6,1.1-1.3,1.2-2.2
						c0.5-8,1.7-14.2,3.4-18.5c0.4-1.1,0.3-2.1-0.3-3.1c-0.6-0.9-1.6-1.3-2.8-1.3L-1003.1-32.2z M-1003.9-21.1
						c-0.8,0-1.5,0.2-2.2,0.8c-0.6,0.6-1,1.3-1.1,2.1c-0.3,2-0.6,4.8-0.8,8.4c0,0.9,0.2,1.6,0.8,2.3c0.6,0.7,1.3,1.1,2.2,1.1
						c0.8,0.1,1.6-0.2,2.3-0.8c0.7-0.6,1-1.3,1.1-2.2c0.2-3.4,0.5-6.1,0.8-7.9c0.1-1-0.1-1.8-0.7-2.6
						C-1002.1-20.7-1002.9-21.1-1003.9-21.1z"/>
				</g>
			</g>
		</g>
		<g>
			<g transform="translate(1328.732029, 91.601101)">
				<g>
					<path d="M-991.9-32.4c-0.2,0-0.5,0-0.8,0.1l-5,0.1c-0.8,0-1.6,0.3-2.2,1c-0.6,0.7-1,1.4-1,2.2c0,0.9,0.4,1.6,1,2.3
						c0.7,0.6,1.4,0.9,2.2,0.9h1.3c-1.1,3.9-1.8,9.1-2.3,15.8c0,0.9,0.3,1.6,0.9,2.3c0.5,0.7,1.3,1.1,2.2,1.1
						c0.8,0.1,1.6-0.2,2.3-0.8c0.7-0.6,1-1.3,1.1-2.2c0.5-7.1,1.4-12.6,2.6-16.4h1.7c0.9,0,1.7-0.4,2.2-1c0.6-0.7,1-1.5,1-2.3
						c0-0.8-0.3-1.6-1-2.2c-0.6-0.7-1.4-1-2.2-1l-3.1,0.1C-991.3-32.4-991.6-32.4-991.9-32.4z"/>
				</g>
			</g>
		</g>
		<g>
			<g transform="translate(1353.403979, 91.601101)">
				<g>
					<path d="M-988.4-32.2c-0.8,0-1.5,0.3-2.2,1c-0.7,0.7-1,1.4-1,2.2c0,0.9,0.4,1.7,1,2.3c0.7,0.6,1.5,0.9,2.3,0.9l12.1-0.1
						c-1.1,4-1.9,9.3-2.4,15.9c0,0.8,0.2,1.6,0.8,2.3c0.6,0.7,1.4,1,2.2,1.1s1.6-0.2,2.3-0.8c0.7-0.5,1.1-1.3,1.1-2.2
						c0.5-8,1.7-14.1,3.4-18.4c0.4-1.1,0.3-2.1-0.3-3c-0.6-0.9-1.5-1.4-2.7-1.4L-988.4-32.2z M-986.7-19.7c-0.8,0-1.5,0.3-2.2,0.9
						c-0.6,0.6-0.9,1.3-1,2L-992.5,8c-0.1,0.9,0.2,1.6,0.8,2.4c0.6,0.7,1.3,1.1,2.1,1.2s1.6-0.2,2.4-0.8c0.7-0.6,1.1-1.3,1.2-2.1
						l2.6-24.8c0.1-1-0.1-1.8-0.8-2.6C-984.9-19.3-985.7-19.7-986.7-19.7z"/>
				</g>
			</g>
		</g>
		<g>
			<g transform="translate(1374.379946, 91.601101)">
				<g>
					<path d="M-982.4-32.2c-0.9,0-1.7,0.4-2.3,1s-1,1.4-1,2.2c0,0.9,0.4,1.7,1,2.3c0.7,0.6,1.4,0.9,2.3,0.9l12.2-0.1
						c-1.1,4-1.9,9.3-2.4,15.9c0,0.9,0.2,1.6,0.8,2.3c0.6,0.7,1.3,1.1,2.2,1.1c0.8,0.1,1.6-0.2,2.3-0.8c0.7-0.6,1.1-1.3,1.2-2.2
						c0.5-8,1.7-14.2,3.4-18.5c0.4-1.1,0.3-2.1-0.3-3.1c-0.7-0.9-1.6-1.3-2.8-1.3L-982.4-32.2z"/>
				</g>
			</g>
		</g>
		<g>
			<g transform="translate(1394.683915, 91.601101)">
				<g>
					<path d="M-972.1-32.3c-0.7,0-1.4,0.3-2,0.8s-1,1.1-1.2,1.9v0.1c0,0,0,0-0.1,0.1l-1.8,9.1c-0.2,1-0.1,1.8,0.5,2.6
						c0.6,0.8,1.4,1.2,2.3,1.3l6.8,0.7c0.9,0.1,1.7-0.1,2.4-0.8c0.7-0.6,1.1-1.3,1.2-2.2c0.1-0.8-0.2-1.6-0.8-2.3
						c-0.6-0.7-1.3-1.1-2.2-1.2l-3.2-0.2l0.6-3.3l9.6-0.1c-1,3.6-1.8,7.9-2.2,12.9c-0.9,0-2.8,0-5.7,0.1c-2.2,0.1-4.8,0.1-7.9,0.1
						c-0.8,0-1.6,0.3-2.2,0.9c-0.7,0.7-1,1.5-1,2.3c0,0.9,0.3,1.6,1,2.2c0.6,0.6,1.4,1,2.2,1c3.3,0,6.3,0,8.8-0.1
						c2.7,0,5.2-0.1,7.3-0.1c0.4,0,0.8,0,1.2,0h0.3c1.4,0,2.3-0.6,2.9-1.9c0.6-1.3,0.4-2.4-0.5-3.5c0.5-6.6,1.6-12,3.2-16.1
						c0.4-1.1,0.3-2.1-0.4-3c-0.6-0.9-1.5-1.4-2.7-1.4L-972.1-32.3z"/>
				</g>
			</g>
		</g>
		<g>
			<g transform="translate(1417.627853, 91.601101)">
				<g>
					<path d="M-965.8-32.2c-0.9,0-1.6,0.3-2.2,1c-0.7,0.6-1,1.4-1,2.2c0,0.9,0.3,1.6,1,2.2c0.6,0.6,1.4,1,2.3,1l12.1-0.1
						c-1,3.5-1.7,7.9-2.1,12.9c-4.8,0.1-8.9,0.1-12.2,0.1c-0.8,0-1.6,0.3-2.3,1c-0.6,0.6-1,1.4-1,2.2c0,0.9,0.3,1.6,1,2.2
						s1.4,1,2.3,1c-0.7,0,4.3,0,15-0.1h0.5c2.2,0,3.6,0,4.4,0c0.8,0,1.6-0.3,2.2-1c0.7-0.6,1-1.4,1-2.3c0-0.8-0.3-1.6-1-2.2
						c-0.6-0.6-1.4-1-2.2-1h-1.2c0.5-6.1,1.5-11,3.1-14.9c0.4-1.1,0.3-2.1-0.3-3.1c-0.6-0.9-1.5-1.3-2.7-1.3L-965.8-32.2z"/>
				</g>
			</g>
		</g>
	</g>
</g>
<g display="none">
	<path display="inline" fill="#FFFFFF" d="M283.6-249.4c0,39.6-21.8,74.3-54.4,93.7c-7.6,4.5-15.8,8.2-24.5,11
		c-0.1,0-0.3,0.1-0.4,0.1c-11.1,3.5-23.1,5.4-35.4,5.4c-4.3,0-8.6-0.2-12.8-0.7c-9.8-1-19.2-3.2-28-6.5c-0.5-0.2-1-0.4-1.5-0.5
		c-2.7-1-5.4-2.2-8-3.4c-4.8-2.2-9.4-4.8-13.8-7.6c-30.6-19.8-50.7-53.4-50.7-91.4c0-60.8,51.4-110.2,114.8-110.2c0.2,0,0.4,0,0.6,0
		C232.5-359.2,283.6-310,283.6-249.4z"/>
	<g display="inline">
		<path fill="#20382B" stroke="#000000" stroke-miterlimit="10" d="M148.6-215.5c14.7-0.4,29.3-0.9,44-1.3
			c-0.4,11.7-10.1,21.2-21.7,21.4C159.5-195.2,149.7-204,148.6-215.5z"/>
		<path fill="#FFE3CB" stroke="#000000" stroke-miterlimit="10" d="M190.4-230.1c0.8,7.5-1.9,4.1-2.5,28.7c-0.9,3-2.9,8.2-7,13.7
			c-3.2,4.2-5.9,7.8-9.6,8c-6,0.2-10.7-9.5-12.7-13.7c-4.3-8.9-1.9-20.4-3.5-33.8C161.7-235.6,176.9-237.7,190.4-230.1z"/>
		<g>
			<path fill="#FFB995" d="M155.8-227.4c3.8-2.1,11.6-5.5,21.8-5.1c5.4,0.2,9.8,1.4,13,2.6c-0.6,4.8-1.3,9.6-1.9,14.3
				c0,0-7.3,6-11.6,7.3c-5.5,1.7-10.5,1.6-14.8,1.3c-2.7-0.1-4.9-0.4-6.4-0.7L155.8-227.4L155.8-227.4z"/>
		</g>
		<path fill="#332C26" d="M218.7-264.9c1.8-2.6,6.1-9.7,6.4-19.2c0.4-14.3-8.6-28.9-20.9-35.1c-14.7-7.4-38.4-6.2-32-6.5
			c6-0.3,8.8-15.2,8.3-15.6s-7.5,8.7-13.1,13.4c-30.3-9.9-60.6,6.7-60.5,5.7s29.3-1.4,47.3,3.1c0.1,0,0.1,0,0.2,0
			c-3.7-1.7-8.8-3.1-14.3-2.2c-11.8,1.9-21.7,13.4-24.5,29c0.4,8.6,2.8,24.8,15,36.6C154.9-231.9,202.7-241.5,218.7-264.9z"/>
		<path fill="#FFE3CB" stroke="#000000" stroke-miterlimit="10" d="M122.5-267.7c-3.3,1.5-3.2,8.1-3.2,8.9
			c0.4,13.8,17.7,21.8,18.8,22.3c3.8,1.7,7.8,3.5,9.6,1.9c3.3-3.1-4-16.9-12.7-25.8C131.9-263.5,126.2-269.4,122.5-267.7z"/>
		<path fill="#FFE3CB" stroke="#000000" stroke-miterlimit="10" d="M219.2-267.6c3.3,1.5,3.2,8.1,3.2,8.9
			c-0.4,13.8-17.7,21.8-18.8,22.3c-3.8,1.7-7.8,3.5-9.6,1.9c-3.3-3.1,4-16.9,12.7-25.8C209.7-263.3,215.5-269.2,219.2-267.6z"/>
		<path fill="#FFE3CB" stroke="#000000" stroke-miterlimit="10" d="M130.8-272.5c1,15.3,8.9,35.1,8.9,35.1s2.9,14.3,31.5,26.4
			c4.9-1.8,20.2-8.1,30.9-24.9c6.7-17.2,10-33.4,9.6-38.6c-2.9-18.1-17.3-41.5-39.2-42.1C149.5-317.1,133.2-292.1,130.8-272.5z"/>
		<path fill="#FFFFFF" d="M179.4-252.7c-0.8-1.3-0.7-2.6-0.6-3.7c0-0.5,0.2-3.6,2.1-5.4c3.7-3.5,14.5-3.2,18.4,1.7
			c1.8,2.2,2.5,5.7,0.3,8.3c-3,3.7-9.2,3.3-10.8,3.2C188.1-248.6,181.5-249,179.4-252.7z"/>
		<path fill="none" stroke="#000000" stroke-miterlimit="10" d="M200.9-251.2c0.1-0.8,0.9-6.3-3.2-9.9c-5-4.5-14.3-3.6-17.8,0.6
			c-0.9,1.1-1.4,2.2-1.6,3.2"/>
		<circle stroke="#000000" stroke-width="0.5" stroke-miterlimit="10" cx="187.9" cy="-256.6" r="3.9"/>
		<path fill="none" stroke="#000000" stroke-width="0.75" stroke-miterlimit="10" d="M198.5-250.7c-1,0.5-9.1,4.4-15.9,0.3
			c-1.7-1-2.9-2.3-3.8-3.5"/>
		<circle fill="#FFFFFF" cx="189.7" cy="-257.8" r="1.5"/>
		<path fill="#FFFFFF" d="M159.5-253.1c0.8-1.3,0.7-2.6,0.6-3.7c0-0.5-0.2-3.6-2.1-5.4c-3.7-3.5-14.5-3.2-18.4,1.7
			c-1.8,2.2-2.5,5.7-0.3,8.3c3,3.7,9.2,3.3,10.8,3.2C150.8-249,157.4-249.5,159.5-253.1z"/>
		<path fill="none" stroke="#000000" stroke-miterlimit="10" d="M138-251.6c-0.1-0.8-0.9-6.3,3.2-9.9c5-4.5,14.3-3.6,17.8,0.6
			c0.9,1.1,1.4,2.2,1.6,3.2"/>
		<circle stroke="#000000" stroke-width="0.5" stroke-miterlimit="10" cx="151" cy="-257.1" r="3.9"/>
		<circle fill="#FFFFFF" cx="153" cy="-258.3" r="1.5"/>
		<path fill="none" stroke="#000000" stroke-width="0.75" stroke-miterlimit="10" d="M140.2-251.1c1,0.5,9.1,4.4,15.9,0.3
			c1.7-1,2.9-2.3,3.8-3.5"/>
		<path fill="#332C26" stroke="#000000" stroke-miterlimit="10" d="M164.6-294.5c-2.2,21-9.2,30.6-9.2,30.6s17.8-9.2,14.3-12.4
			c0.6,0.5-4.5,14.3-10.2,17.5c1.5,2,9.1-0.3,14-4.1c13.8-11,8.2-37.3,7.3-41.1"/>
		<path fill="#332C26" stroke="#000000" stroke-miterlimit="10" d="M174.4-299c4.5,9.2,19.8,21.7,32,32c2.2,1.9-0.5,7.7-4,13.5
			c1,1,3.9-0.5,4.5-0.8c4.7-2.4,7.8-8,7.9-15.1"/>
		<path fill="none" stroke="#000000" stroke-miterlimit="10" d="M130.8-256.6"/>
		<path fill="#332C26" d="M215.2-271.2c5.3-4.5-2.4-34.6-24.2-45.9c-20.7-10.8-49.3-2.1-60.9,16.2c-6.6,10.6-8.7,26-3.5,29.3
			c9.2,5.8,39.8-26.7,43.5-23.1c1.6,1.6-3.5,8.3-1.4,10.4c2.2,2.1,8.3-5.2,15.8-4c7.4,1.2,7.7,9.3,18.8,14.7
			C206.3-272.1,212.6-269.1,215.2-271.2z"/>
		<g>
			<g>
				<path d="M165.7-294.5c0.3-1.2,0.4-2.5,0.4-3.8c0-0.5-0.3-1-0.7-1.3s-1.1-0.3-1.5,0c-1.2,0.8-2.2,1.7-3.1,2.8
					c-0.3,0.3-0.4,0.6-0.4,1.1c0,0.4,0.2,0.8,0.4,1.1c0.3,0.3,0.7,0.5,1.1,0.4c0.4,0,0.8-0.1,1.1-0.4c0.6-0.8,1.4-1.4,2.2-2
					c-0.1,0.1-0.2,0.2-0.3,0.2c0.2-0.2,0.5-0.3,0.7-0.5c-0.8-0.4-1.5-0.9-2.3-1.3c0,0.8,0,1.5-0.1,2.2c0-0.1,0-0.3,0-0.4
					c0,0.4-0.1,0.8-0.2,1.2s-0.1,0.8,0.1,1.2c0.2,0.3,0.5,0.6,0.9,0.7s0.8,0.1,1.2-0.1C165.3-293.8,165.6-294.1,165.7-294.5
					L165.7-294.5z"/>
			</g>
		</g>
		<g>
			<path d="M182.9-289.4c-0.2,0-0.3-2.3-1-7c-0.5-2.9-1-5.3-1.3-6.9c0.9,1.4,2,3.7,2.5,6.5C183.7-292.9,183.1-289.4,182.9-289.4z"/>
			<g>
				<path d="M183.3-290.8c-0.2,0,1.1,0.6,1,0.9v-0.1c0-0.1,0-0.2-0.1-0.3c0-0.2,0,0.3,0,0.1c0-0.1,0-0.2,0-0.2c0-0.2,0-0.4-0.1-0.6
					c-0.1-1.3-0.3-2.5-0.5-3.8c-0.4-2.9-0.9-5.9-1.6-8.8c-0.9,0.4-1.8,0.8-2.7,1.2c1.2,2.1,2.1,4.4,2.4,6.8c0.2,1.3,0.2,2.6,0.1,4
					c0,0.3,0,0.5-0.1,0.8c0,0.3,0-0.2,0,0.1c0,0.1,0,0.2-0.1,0.3c0,0.1-0.1,0.3-0.1,0.4c-0.1,0.3,0.2-0.3,0.2-0.3
					c0.2-0.1,0.4-0.3,0.7-0.4l0,0c-1.9,0.5-1.1,3.4,0.8,2.9c1.2-0.4,1.3-1.7,1.5-2.8c0.2-1.4,0.2-2.9,0-4.4c-0.3-3.2-1.3-6.2-2.9-9
					c-0.9-1.5-3.1-0.5-2.7,1.2c0.7,3.1,1.3,6.3,1.7,9.5c0.1,1.1,0.2,2.1,0.4,3.2c0.1,0.9,0.2,2,1.3,2.2c0.8,0.1,1.6-0.2,1.9-1.1
					C184.5-289.7,184.1-290.7,183.3-290.8z"/>
			</g>
		</g>
		<g>
			<g>
				<path d="M217.7-270.9c0-1.1,0-2.2,0-3.4c0-0.4-0.2-0.8-0.4-1.1c-0.3-0.3-0.7-0.5-1.1-0.4c-0.8,0-1.5,0.7-1.5,1.5
					c0,1.1,0,2.2,0,3.4c0,0.4,0.2,0.8,0.4,1.1c0.3,0.3,0.7,0.5,1.1,0.4C217-269.5,217.7-270.1,217.7-270.9L217.7-270.9z"/>
			</g>
		</g>
		<g>
			<g>
				<path d="M143.1-319.2c1.4-0.1,2.9-0.1,4.3-0.1c0.7,0,1.4,0.1,2.1,0.1c0.7,0.1,1.4,0.1,2,0.2c0.8,0.1,1.6-0.2,1.9-1.1
					c0.2-0.7-0.2-1.7-1-1.9c-3-0.5-6.1-0.6-9.2-0.4c-0.8,0.1-1.5,0.6-1.5,1.5C141.7-320,142.3-319.2,143.1-319.2L143.1-319.2z"/>
			</g>
		</g>
		<g>
			<g>
				<path d="M178.7-307.7c-0.1-0.2-0.3-0.5-0.4-0.7c-0.2-0.3-0.5-0.6-0.8-0.9c-0.6-0.5-1.3-0.9-2.1-1.2c-0.4-0.1-0.8,0-1.2,0.1
					c-0.3,0.2-0.6,0.5-0.7,0.9s-0.1,0.8,0.1,1.2s0.5,0.6,0.9,0.7c0.1,0,0.2,0.1,0.3,0.1c-0.1-0.1-0.2-0.1-0.4-0.1
					c0.3,0.1,0.6,0.3,0.9,0.6c-0.1-0.1-0.2-0.2-0.3-0.2c0.3,0.2,0.5,0.5,0.8,0.8c-0.1-0.1-0.2-0.2-0.2-0.3c0.2,0.2,0.3,0.5,0.4,0.7
					c0.2,0.3,0.6,0.6,0.9,0.7c0.4,0.1,0.8,0.1,1.2-0.1c0.3-0.2,0.6-0.5,0.7-0.9c0-0.1,0-0.3,0-0.4
					C178.9-307.2,178.8-307.4,178.7-307.7L178.7-307.7z"/>
			</g>
		</g>
		<g>
			<g>
				<path d="M203.1-306.7c2.6,4.6,4.9,9.3,6.9,14.1c0.3,0.8,1,1.3,1.9,1.1c0.7-0.2,1.4-1.1,1-1.9c-2.1-5.1-4.5-10.1-7.1-14.8
					C204.7-309.9,202.1-308.4,203.1-306.7L203.1-306.7z"/>
			</g>
		</g>
		<g>
			<g>
				<path d="M126.4-287.6c0.4-2.5,1.8-4.8,2.9-7c1.2-2.4,2.5-4.8,3.8-7.1c1-1.7-1.6-3.2-2.6-1.5c-1.4,2.4-2.7,4.9-3.9,7.4
					c-0.6,1.2-1.2,2.5-1.8,3.7c-0.5,1.2-1.1,2.4-1.3,3.7c-0.1,0.8,0.2,1.6,1,1.9C125.3-286.4,126.3-286.8,126.4-287.6L126.4-287.6z"
					/>
			</g>
		</g>
		<path fill="none" stroke="#FFB995" stroke-miterlimit="10" d="M123.1-263.3c-0.4,1.2-1,3.7-0.3,6.7c0.4,2,1.3,3.5,1.9,4.5"/>
		<path fill="none" stroke="#FFB995" stroke-miterlimit="10" d="M219.1-263.6c0.4,1.2,1,3.7,0.3,6.7c-0.4,2-1.3,3.5-1.9,4.5"/>
		<path opacity="0.44" fill="#D8B8A3" enable-background="new    " d="M202-236.7c0,0-6.5,8.5-9.9,7c-2.2-0.9-0.7-4.9-3.5-7
			c-2-1.5-5.8-1-13.2,0.2c-2.4,0.4-2.1,0.4-3.8,0.6c-9.4,1.3-12.5-0.4-15,1.6c-2.9,2.3-0.2,7.1-2.2,8.3c-3.2,1.9-11.6-7.7-11.8-7.6
			c-0.2,0.1-0.4,0.1-0.4,0.3c-0.9,5.6,28.4,23.7,29.2,22.2c0,0,13.1-5.4,19.4-11.9C196.2-227.9,199.7-232.8,202-236.7z"/>
		<line fill="none" stroke="#FFB995" stroke-miterlimit="10" x1="173.2" y1="-258.2" x2="169" y2="-255.6"/>
		<line fill="none" stroke="#FFB995" stroke-miterlimit="10" x1="173.5" y1="-256.6" x2="166.8" y2="-252.4"/>
		<line fill="none" stroke="#FFB995" stroke-miterlimit="10" x1="175.1" y1="-255.6" x2="166.5" y2="-250.2"/>
		<line fill="none" stroke="#FFB995" stroke-miterlimit="10" x1="175.7" y1="-253.7" x2="166.8" y2="-248.3"/>
		<line fill="none" stroke="#FFB995" stroke-miterlimit="10" x1="176.7" y1="-252.4" x2="167.4" y2="-247"/>
		<path fill="#FFB995" stroke="#000000" stroke-width="0.5" stroke-miterlimit="10" d="M171.2-244c0,1.3-0.1,2.6-0.2,3.8
			c-0.6-0.5-1.2-1.1-1.8-1.6"/>
		<g>
			<g>
				<path fill="#FFB995" d="M140.4-247.9c-0.2,0.3-0.4,0.5-0.6,0.8c-0.1,0.2-0.2,0.4-0.2,0.6c0,0.2,0,0.4,0,0.6
					c0,0.2,0.1,0.4,0.3,0.5c0.1,0.2,0.2,0.3,0.4,0.4c0.1,0.1,0.2,0.1,0.4,0.1c0.3,0.1,0.5,0.1,0.8,0c0.1-0.1,0.2-0.1,0.4-0.1
					c0.2-0.1,0.4-0.3,0.5-0.5c0.2-0.3,0.4-0.5,0.6-0.8c0.1-0.2,0.2-0.4,0.2-0.6c0-0.2,0-0.4,0-0.6c0-0.2-0.1-0.4-0.3-0.5
					c-0.1-0.2-0.2-0.3-0.4-0.4c-0.1-0.1-0.2-0.1-0.4-0.1c-0.3-0.1-0.5-0.1-0.8,0c-0.1,0.1-0.2,0.1-0.4,0.1
					C140.7-248.3,140.5-248.1,140.4-247.9L140.4-247.9z"/>
			</g>
		</g>
		<g>
			<g>
				<path fill="#FFB995" d="M141.6-247c-0.1,0.1-0.1,0.2-0.2,0.3c-0.1,0.2-0.2,0.4-0.2,0.6c0,0.2,0,0.4,0,0.6c0,0.2,0.1,0.4,0.3,0.5
					c0.1,0.2,0.2,0.3,0.4,0.4c0.1,0.1,0.2,0.1,0.4,0.1c0.3,0.1,0.5,0.1,0.8,0c0.1-0.1,0.2-0.1,0.4-0.1c0.2-0.1,0.4-0.3,0.5-0.5
					c0.1-0.1,0.1-0.2,0.2-0.3c0.1-0.2,0.2-0.4,0.2-0.6c0-0.2,0-0.4,0-0.6c0-0.2-0.1-0.4-0.3-0.5c-0.1-0.2-0.2-0.3-0.4-0.4
					c-0.1-0.1-0.2-0.1-0.4-0.1c-0.3-0.1-0.5-0.1-0.8,0c-0.1,0.1-0.2,0.1-0.4,0.1C142-247.4,141.8-247.3,141.6-247L141.6-247z"/>
			</g>
		</g>
		<g>
			<g>
				<path fill="#FFB995" d="M195.5-246.6c0,0.2,0,0.3,0,0.5s0,0.4,0.1,0.6c0.1,0.2,0.2,0.4,0.3,0.5s0.3,0.2,0.5,0.3s0.4,0.1,0.6,0.1
					c0.1,0,0.3,0,0.4-0.1c0.2-0.1,0.5-0.2,0.7-0.4c0.1-0.1,0.2-0.2,0.2-0.3c0.1-0.2,0.2-0.5,0.2-0.8c0-0.2,0-0.3,0-0.5
					s0-0.4-0.1-0.6c-0.1-0.2-0.2-0.4-0.3-0.5s-0.3-0.2-0.5-0.3s-0.4-0.1-0.6-0.1c-0.1,0-0.3,0-0.4,0.1c-0.2,0.1-0.5,0.2-0.7,0.4
					c-0.1,0.1-0.2,0.2-0.2,0.3C195.6-247.1,195.5-246.8,195.5-246.6L195.5-246.6z"/>
			</g>
		</g>
		<g>
			<g>
				<path fill="#FFB995" d="M197.3-246.2L197.3-246.2c-0.1-0.1-0.1-0.2-0.2-0.3C197.1-246.4,197.2-246.3,197.3-246.2
					c-0.1-0.1-0.1-0.2-0.2-0.3C197.1-246.4,197.2-246.3,197.3-246.2c-0.1-0.1-0.1-0.2-0.1-0.3c0,0.1,0,0.2,0,0.4s0,0.4,0.1,0.6
					c0.1,0.2,0.2,0.4,0.3,0.5s0.3,0.2,0.5,0.3s0.4,0.1,0.6,0.1c0.1,0,0.3,0,0.4-0.1c0.2-0.1,0.5-0.2,0.7-0.4
					c0.1-0.1,0.2-0.2,0.2-0.3c0.1-0.2,0.2-0.5,0.2-0.8c0-0.1,0-0.2,0-0.3c0-0.2,0-0.4-0.1-0.5c0-0.1,0-0.1,0-0.1c0-0.1,0-0.1,0-0.1
					c-0.1-0.2-0.1-0.3-0.2-0.5s-0.3-0.4-0.4-0.6c-0.1-0.1-0.3-0.2-0.5-0.3s-0.4-0.1-0.6-0.1s-0.4,0-0.6,0.1s-0.4,0.2-0.5,0.3
					s-0.2,0.2-0.2,0.3c-0.1,0.2-0.2,0.5-0.2,0.8c0,0.1,0,0.3,0,0.4C197-246.6,197.1-246.4,197.3-246.2L197.3-246.2z"/>
			</g>
		</g>
		<path fill="#332C26" stroke="#000000" stroke-miterlimit="10" d="M166.5-293.5c-4.1,2.9-30,26.8-32.2,36.3
			c-0.6,1.6,3.1,10,3.5,9.9c0,0,0,0,0-0.1c0.2-0.8-17.5-5.9-14.1-29.3"/>
		<path fill="none" stroke="#000000" stroke-width="2" stroke-miterlimit="10" d="M156-269c-7.6-0.2-14.6,1-20.7,4.5"/>
		<path fill="none" stroke="#000000" stroke-width="2" stroke-miterlimit="10" d="M182.1-269c7.6-0.2,14.6,1,20.7,4.5"/>
		<path fill="#305437" stroke="#000000" stroke-miterlimit="10" d="M231.5-172.5c-0.9-6.9-1.9-13.9-4.4-20.7
			c-10.1-1.9-20.2-3.8-30.3-5.7l9.8,34.1c1,6.2,2.2,12.5,3.5,18.7l26.4-0.5C234.4-155,232.6-163.6,231.5-172.5z"/>
		<path fill="#305437" stroke="#000000" stroke-miterlimit="10" d="M139.7-168.3l12.7-31.9c-10.1,1.9-20.2,3.8-30.3,5.7
			c-2.5,7.9-4.9,16-7.3,24.2c-2.6,8.8-5,17.5-7.3,26l25.6-0.5C135.4-152.6,137.5-160.4,139.7-168.3z"/>
		<g>
			<path fill="#305437" d="M209.4-157c0-6.9,0.5-16.9,2.6-29.1l-80.6,2.5c2.2,5.9,2.8,21.5,2.6,38.9l75.7-1.4
				C209.5-149.3,209.4-152.9,209.4-157z"/>
			<g>
				<path d="M209.3-157c0.2-9.5,0.7-20.3,2.7-29c-13.4,0.4-47.5,1.5-60.5,1.9c-6.7,0.2-13.4,0.4-20.1,0.7l0.1-0.2
					c1.1,3.1,1.6,6.4,2,9.6c1.2,9.4,0.9,19.9,0.6,29.4l-0.1-0.1c0,0,76.2-1.5,75.6-1.3C209.6-146.1,209.3-157,209.3-157L209.3-157z
					 M209.5-157l0.3,10.9v0.1l-75.8,1.4h-0.1v-0.1v-4.9c-0.2-7.6-0.5-16.9-1-24.4c-0.3-3.3-0.5-6.6-1.6-9.8
					c6.8-0.1,13.5-0.4,20.3-0.6c12.8-0.4,47.2-1.5,60.5-1.9h0.1v0.1C210.5-176.5,209.6-166.8,209.5-157L209.5-157z"/>
			</g>
		</g>
		<path fill="#FFFFFF" stroke="#000000" stroke-miterlimit="10" d="M179.8-189c-5.7,1.9-11.9,2.1-18.5,1c0-1.2,2.5,9.2,9.6,12.1
			C180.8-181.4,180.2-191,179.8-189z"/>
		<path fill="#305437" d="M157.2-189c-1.1-3.4-5.2-5-8.3-4.5c-5.1,0.8-8.6,7.6-6.7,11.1s9.1,4,12.7,0.6
			C156.7-183.3,158.2-186.2,157.2-189z"/>
		<path fill="#305437" d="M203.6-192.4c-1.1-3.5-5.5-5.1-8.6-5.1c-7,0.1-13.2,8.8-11.5,12.7c1.8,4.1,13,4.9,17.8-0.4
			C201.6-185.4,204.7-188.8,203.6-192.4z"/>
		<path fill="#305437" stroke="#000000" stroke-miterlimit="10" d="M192.7-216.6c-7.1,8.4-14.1,15.8-20.3,19.4
			c2.2,5.4,4.4,10.7,6.5,16.1c3.1-3.1,7.3-6.7,12.6-10.1c4.6-2.9,8.9-5,12.6-6.4c-2.7-3.9-5.3-7.9-8-11.8
			C195-211.8,193.9-214.2,192.7-216.6z"/>
		<path fill="#305437" stroke="#000000" stroke-miterlimit="10" d="M148.6-215.3c7.2,8.4,14.2,15.8,20.4,19.4
			c-2.2,5.4-4.4,10.7-6.5,16.1c-4.2-3.3-8.4-6.7-12.6-10.1c-3.3-2.7-6.6-5.4-9.8-8.1c1.6-2.3,3.4-5.2,5.1-8.6
			C146.7-209.7,147.8-212.7,148.6-215.3z"/>
		<g>
			<g>
				<path d="M191.4-204.6c-1,0.8-2.2,1.5-3.4,2.1c-0.5,0.3-1.1,0.5-1.5,1s-0.6,1.1-0.9,1.7c-1.2,2.8-2.4,5.6-3.6,8.4
					c-0.4,0.9,0.9,1.6,1.3,0.8c1.2-2.7,2.3-5.5,3.5-8.2c0.2-0.5,0.4-1.2,0.8-1.7c0.4-0.4,1-0.6,1.5-0.9c1.2-0.6,2.2-1.3,3.3-2.1
					C193.2-204.1,192.1-205.2,191.4-204.6L191.4-204.6z"/>
			</g>
		</g>
		<g>
			<g>
				<path d="M146.9-203.9c0.2,0,0.4,0,0.6,0c0.1,0,0.2,0,0.3,0h0.1c0,0,0,0-0.1,0c0,0,0.1,0,0.2,0c0.2,0,0.4,0.1,0.6,0.1
					c0,0,0.1,0,0.1,0.1c0.2,0.1-0.1-0.1,0,0s0.2,0.1,0.3,0.1l0.1,0.1c-0.1-0.1-0.1-0.1,0,0c0,0,0,0,0.1,0.1s0.1,0.1,0.2,0.2l0.1,0.1
					c-0.1,0-0.1-0.1,0,0c0,0.1,0.1,0.2,0.1,0.2c0.1,0.1,0-0.1,0,0v0.1v0.1c0,0,0,0,0,0.1s0,0,0-0.1v0.2c0,0.2,0-0.2,0,0v0.1
					c-0.1,0.4,0.1,0.8,0.5,0.9s0.8-0.1,0.9-0.5c0.4-1.1-0.3-2.2-1.1-2.8c-0.9-0.6-2-0.7-3.1-0.7c-0.4,0-0.8,0.4-0.8,0.8
					C146.1-204.2,146.4-203.9,146.9-203.9L146.9-203.9z"/>
			</g>
		</g>
		<path fill="none" stroke="#000000" stroke-miterlimit="10" d="M189.4-205.3"/>
		<path fill="none" stroke="#000000" stroke-miterlimit="10" d="M189.4-208.1"/>
		<path fill="none" stroke="#000000" stroke-miterlimit="10" d="M190.7-208.5"/>
		<path fill="#C87529" stroke="#000000" stroke-miterlimit="10" d="M225.1-202.7c-1.6-2.1-3.9-2.8-5.1-3.2c-0.6-0.2-5.7-1.8-10.5,1
			c-5.1,2.9-8.2,9.7-6,14.7c2.9,6.5,14.4,8.3,20.1,2.9C227.5-191.3,228.3-198.7,225.1-202.7z"/>
		<path fill="#304D37" stroke="#000000" stroke-miterlimit="10" d="M227.8-195.5c-6.5-6.2-14.8-7.3-24.5-4.4
			c-0.4,0.9-0.8,1.9-1.1,2.8c8.1,0.2,16.4,1,25.3,3.8C227.6-194.1,227.7-194.8,227.8-195.5z"/>
		<path fill="#304D37" stroke="#000000" stroke-miterlimit="10" d="M121.9-196.1c5.7-6.2,13-7.3,21.4-4.4c0.3,0.9,0.7,1.9,1,2.8
			c-7.1,0.2-14.3,1-22.1,3.8C122.1-194.6,122-195.3,121.9-196.1z"/>
		<g>
			<g>
				<path d="M165.1-223.5c4.8,0.5,10.1,0.5,14.1-2.6c0.8-0.6,0-1.9-0.8-1.3c-3.8,2.9-8.8,2.8-13.3,2.3
					C164.1-225.1,164.1-223.6,165.1-223.5L165.1-223.5z"/>
			</g>
		</g>
		<g>
			<g>
				<path fill="#20382B" d="M129.6-182.5c-2.5,9.2-4.1,18.6-4.9,28c-0.2,1.9,2.8,1.9,3,0c0.8-9.2,2.4-18.3,4.8-27.2
					C133-183.6,130.1-184.3,129.6-182.5L129.6-182.5z"/>
			</g>
		</g>
		<g>
			<g>
				<path fill="#20382B" d="M222.5-186.4c-2.6,2.8-5.1,5.7-7.5,8.6c-0.5,0.6-0.6,1.5,0,2.1c0.6,0.5,1.6,0.6,2.1,0
					c2.5-2.9,5-5.8,7.5-8.6c0.5-0.6,0.6-1.5,0-2.1C224-187,223-187.1,222.5-186.4L222.5-186.4z"/>
			</g>
		</g>
		<g>
			<g>
				<path fill="#20382B" d="M133.9-194.6c3.3,0.9,6.6,1.7,9.9,2.4c0.8,0.2,1.7-0.2,1.9-1s-0.2-1.7-1-1.9c-3.3-0.7-6.6-1.5-9.9-2.4
					c-0.8-0.2-1.7,0.2-1.9,1S133.1-194.8,133.9-194.6L133.9-194.6z"/>
			</g>
		</g>
	</g>
	<path display="inline" fill="none" stroke="#F48E8E" stroke-width="30" stroke-miterlimit="10" d="M177.1-359.5
		c-4.2-0.4-8.5-0.7-12.8-0.7C101-360.2,49.6-310.9,49.6-250c0,42.4,24.9,79.1,61.4,97.6c7.3,3.7,15.1,6.7,23.3,8.8
		c0.2,0.1,0.5,0.1,0.7,0.2c9.2,2.3,18.9,3.6,28.8,3.6c0.2,0,0.4,0,0.6,0c16.6,0,32.5-3.4,46.7-9.5c0.4-0.2,0.8-0.4,1.2-0.5
		c8.4-3.7,16.2-8.3,23.3-13.7c26.5-20.2,43.5-51.4,43.5-86.4C279.1-306.7,234.5-353.4,177.1-359.5z"/>
</g>
<g display="none">
	<path display="inline" fill="#C4925C" d="M72.8,281.8h184.1c21.1,0,38.2-17.1,38.2-38.2l0,0c0-21.1-17.1-38.2-38.2-38.2H72.8
		c-21.1,0-38.2,17.1-38.2,38.2l0,0C34.6,264.7,51.7,281.8,72.8,281.8z"/>
	<path display="inline" fill="#E0BF6C" d="M72.8,275.2h184.1c21.1,0,38.2-17.1,38.2-38.2l0,0c0-21.1-17.1-38.2-38.2-38.2H72.8
		c-21.1,0-38.2,17.1-38.2,38.2l0,0C34.6,258.1,51.7,275.2,72.8,275.2z"/>
</g>
<rect x="82.4" y="225.9" display="none" fill="none" width="180.2" height="35.9"/>
<g display="none" enable-background="new    ">
	<path display="inline" d="M85.4,249.6c0-1.3,0.9-2.2,2.1-2.2s2.1,0.9,2.1,2.2c0,1.3-0.8,2.2-2.1,2.2S85.4,250.9,85.4,249.6z
		 M86.3,244.5l-0.5-17.3h3.5l-0.5,17.3H86.3z"/>
	<path display="inline" d="M92.7,248.3c1.1-0.2,3.7-0.2,5.7-0.2h5.5c0-2.4,0-5.9,0-7.7c-0.1-3.9-0.5-5.3-3.9-5.3h-3.1
		c-2.1,0-3.5-0.1-4-0.2l0.6-3.2c0.7,0.1,2.3,0.1,4.6,0.1h2.8c5.1,0,5.7,2.4,5.7,7.3v5.9c0,0.8-0.1,2.4-0.1,3.1h2.6l-0.6,3.3H96.8
		c-1.5,0-3.8,0-4.6,0.1L92.7,248.3z"/>
	<path display="inline" d="M116.2,240.2c0-3.1-0.4-4.2-3.2-4.9c-1.3-0.3-1.9-0.5-2.4-0.7l0.6-3.2c0.5,0.2,1.2,0.4,2.5,0.6
		c4,0.9,5.3,2.2,5.3,7.7v11.8h-2.8V240.2z"/>
	<path display="inline" d="M123.8,246.7c0-3.5,0.8-6.8,3.4-9.5c-1.6-1.8-3.4-3.7-4.9-5l0.1-0.2l3.9-0.3c1.8,1.9,4.5,4.9,8.3,9.6
		c1.4-1,2.3-2.4,2.3-4.7c0-1.4-0.4-3-1.1-4.5l3.5-0.3c0.5,1.4,0.7,2.7,0.7,4.2c0,3-1.5,5.6-4.1,7.1c1.9,2.4,5,6.7,6.1,8.4h-3.8
		c-1.2-1.9-4.3-6.4-9.5-12.4c-1.6,1.9-1.9,4.5-1.8,6.8c0,2.1,0.5,4.1,1,5.6h-3.5C124,250,123.8,248.3,123.8,246.7z"/>
	<path display="inline" d="M148,240.2c0-3.1-0.4-4.2-3.2-4.9c-1.3-0.3-1.9-0.5-2.4-0.7l0.6-3.2c0.5,0.2,1.2,0.4,2.5,0.6
		c4,0.9,5.3,2.2,5.3,7.7v11.8H148V240.2z"/>
	<path display="inline" d="M162.5,248.3c0.9-0.1,2.1-0.1,4.4-0.1h2.5v-8c0-3.1-0.4-4-3.6-4.8c-1.3-0.3-2.6-0.6-3.1-0.8l0.6-3.2
		c0.5,0.2,1.5,0.4,3.1,0.7c4.2,0.9,5.8,2.1,5.8,7.4v8.7l-0.6,3.2h-5c-1.5,0-4,0-4.8,0.1L162.5,248.3z"/>
	<path display="inline" d="M176,248.3c0.5-0.1,1-0.2,3-0.2h0.5c0-3.5-0.3-10.7-0.6-13h-0.1c-0.6,0-2.2,0-2.7-0.3l0.6-3.2
		c1.1,0.2,3.5,0.1,5.7,0.1h5.9c5.3,0,6.3,1.3,6.3,7.4v12.2h-2.8v-11.2c0-3.6-0.4-5.1-3.7-5.1h-6.3c0.2,2.3,0.6,10.5,0.5,13.1
		l-0.5,3.2h-2.8c-1.4,0-2.7,0-3.6,0.1L176,248.3z"/>
	<path display="inline" d="M200.7,240.1c0-2.4,0.1-4.3,0.3-5c-0.6,0-2.4-0.1-2.6-0.2l0.6-3.2c0.8,0.2,2.6,0.2,5,0.2h6.5
		c5.3,0,6.3,1.6,6.3,7.6v12h-2.8v-10.9c0-4-0.4-5.4-3.8-5.4h-6.7v16.3h-2.8V240.1z"/>
	<path display="inline" d="M222.4,242.9c1.5-2.3,2.3-4.1,2.3-5.5c0-1.2-0.7-1.6-2.3-2.1c-0.9-0.3-1.6-0.5-2.2-0.7l0.6-3.2
		c0.5,0.2,1.2,0.4,2.1,0.6c3.4,0.8,4.6,1.8,4.6,4.5c0,2.3-1.1,4.8-2.8,7.4L222.4,242.9z"/>
	<path display="inline" d="M232.6,248.1c4.8-1.4,8.5-5.2,8.5-10.3c0-2.3-0.9-2.7-2.8-2.7h-8.6v-5.2c0-2.2-0.1-4.8-0.5-5.7l2.9-0.5
		c0.2,0.5,0.4,2.9,0.4,5.6v2.6h6.9c3.7,0,4.5,1.8,4.5,5c0,8.1-6.4,13.6-12.1,14.9L232.6,248.1z"/>
</g>
<g>
	<g>
		<g>
			<g>
				<defs>
					<rect id="SVGID_00000090262191855996653890000003895380684450042280_" x="118.3" y="48.7" width="125.2" height="125.2"/>
				</defs>
				<clipPath id="SVGID_00000132054188470896738990000004433981371041618339_">
					<use xlink:href="#SVGID_00000090262191855996653890000003895380684450042280_"  overflow="visible"/>
				</clipPath>
				<g clip-path="url(#SVGID_00000132054188470896738990000004433981371041618339_)">
					<g>
						<g>
							<g>
								<defs>
									<path id="SVGID_00000032630530713674357720000001598615535480712355_" d="M180.9,48.7c-34.6,0-62.6,28-62.6,62.6
										s28,62.6,62.6,62.6s62.6-28,62.6-62.6S215.5,48.7,180.9,48.7z"/>
								</defs>
								<clipPath id="SVGID_00000060713646554185193500000010760553345215795106_">
									<use xlink:href="#SVGID_00000032630530713674357720000001598615535480712355_"  overflow="visible"/>
								</clipPath>
								<g clip-path="url(#SVGID_00000060713646554185193500000010760553345215795106_)">
									<path fill="#F1EEF7" d="M118.3,48.7h125.2v125.2H118.3V48.7z"/>
								</g>
							</g>
						</g>
					</g>
				</g>
			</g>
		</g>
	</g>
	<g>
		<g transform="translate(113.274524, 528.495846)">
			<g>
				<path d="M49.4-387.4c-0.9,0-1.8-0.2-2.6-0.6c-0.8-0.4-1.2-1.4-1.2-3s0-2.8,0-3.8c0-0.9,0-1.7,0.2-2.4c0.2-0.6,0.5-1.2,0.9-1.8
					c0.5-0.6,1.2-1.4,2.1-2.3c5.6-5.4,9.9-10.1,13-14.2c3.1-4.1,4.6-7.1,4.6-9.2c0-1.3-0.7-2.3-2-3.1c-1.3-0.8-3.5-0.8-6.5-0.2
					l-8.8,1.8c-0.9,0.2-1.7,0.1-2.4-0.5c-0.7-0.5-1.1-1.2-1.1-2.1l0.1-7.6c0.1-0.9,0.3-1.6,0.6-2.2c0.4-0.6,1.3-1.2,2.6-1.8
					c1.3-0.6,3.4-1.1,6.3-1.7c3.7-0.8,6.8-1.2,9.3-1.2c2.6,0,4.7,0.3,6.5,0.8s3.3,1.2,4.6,2c1.3,0.8,2.5,1.7,3.6,2.6
					c1.8,1.5,3.2,3.5,4,6.2c0.9,2.6,1.1,5.4,0.7,8.4s-1.6,5.8-3.6,8.4l-10.4,14l11.9-0.1c0.9,0,1.6,0.3,2.2,0.9s0.9,1.2,0.9,2.1
					l0.1,7c0,0.9-0.4,1.7-1.2,2.4c-0.8,0.8-1.6,1.1-2.6,1.1L49.4-387.4z"/>
			</g>
		</g>
	</g>
	<path fill="#FFFFFF" d="M283.2,103.8c-7.4-30.1-26.3-43.1-60.5-34.9c-17.9-38.5-63.7-40.8-82.8-11.5c0,0-59.8-10.9-67.5,55.1
		c-52.3,0-55.4,58-41.6,77.9c8.4,12.2,24.7,20.8,51.5,20.7c0,0,127.3,3.5,195.6,1.1c11.5-0.4,22.5-5.2,30.5-13.5
		C352.5,155.2,303.6,105.2,283.2,103.8z M175.6,155.2c-23.1,0-41.8-18.7-41.8-41.8s18.7-41.8,41.8-41.8s41.8,18.7,41.8,41.8
		S198.7,155.2,175.6,155.2z"/>
	<g>
		<g>
			<g transform="translate(37.361138, 619.198342)">
				<g>
					<path d="M60.1-421.4v1.7c0,0.5-0.2,0.9-0.5,1c-0.3,0.1-0.7,0.2-1,0.2c-0.2,0-0.7,0-1.4-0.1c-0.7-0.1-1.5,0-2.3,0
						c-0.9,0.1-1.3-0.1-1.4-0.4s-0.1-0.6,0-0.9c0-0.5,0.1-1.2,0.1-2c0-0.8,0-1.5,0.1-2.1c0-0.5,0.1-1,0.1-1.5s0-1,0-1.6l-0.1-3
						c0,0,0-0.2,0-0.5s0-0.7,0-1.1s0-0.8,0-1c0-1-0.1-2-0.1-2.9c0-1-0.1-1.9-0.1-3c0-0.5-0.1-0.9,0-1.1c0-0.3,0-0.6,0-1
						c0-0.7-0.2-1.4-0.4-2.1c-0.3-0.7-0.8-1.1-1.5-1.3h-0.9c-0.2,0-0.4,0-0.8,0c-0.3,0-0.6,0-0.8,0c-0.4,0-0.7,0.1-0.9,0.3
						c-0.1,0.3-0.2,0.7-0.2,1.2v2.5c0,0.7,0,1.4,0,2.2s0,1.7,0.1,3c0,0.6,0,1.1-0.1,1.7c0,0.4,0,0.9,0,1.1l0.1,2.4
						c0,0.4,0.1,0.9,0.1,1.3c0.1,0.4,0.1,0.9,0.1,1.3c0,0.3,0,0.5,0,0.7c0,0.3,0,0.5-0.1,0.8c-0.1,0.7-0.1,1.5,0,2.3
						s0.1,1.7,0.1,2.3c0,0.8-0.2,1.3-0.4,1.6s-0.8,0.4-1.5,0.4h-1.6c-0.7,0-1.3,0-1.8,0.1c-0.6,0.1-1.2,0.1-1.9,0.1
						c-1.1,0-1.9,0-2.3-0.2c-0.4-0.2-0.6-0.4-0.6-1c0-0.9,0-1.6,0-2.1c0-0.6,0-1,0-1.3c0-0.5,0-0.9,0.1-1.3c0.1-0.3,0.3-0.5,0.9-0.5
						c0.2,0,0.4,0,0.8,0s0.6,0,0.9,0.1c0.3,0,0.5-0.1,0.6-0.2c0.1-0.2,0.2-0.3,0.2-0.4c0-0.3,0-0.6,0-0.9s0-0.6,0-0.9
						c0-0.7,0-1.5,0.1-2.4c0-1,0.1-1.7,0.1-2.4c0-0.2,0-0.5,0-1c0-0.4,0-1,0-1.6c0-0.5,0-1,0-1.4c0-1,0-2.1,0-3.2s0-2.3,0-3.8
						c0-0.3,0-0.6-0.1-0.7c-0.1-0.1-0.3-0.2-0.4-0.2c-0.1,0-0.3,0-0.3,0c-0.2,0-0.3,0-0.4-0.1c-0.3,0-0.5-0.3-0.5-0.7
						c0,0.2,0,0.2,0-0.2c0-0.3,0-0.7,0-1.1s0-0.7,0-0.9c0-0.3,0-0.6,0-0.9c0-0.3,0-0.7,0-1c0-0.3,0-0.6,0.1-0.9
						c0.1-0.3,0.5-0.5,1.2-0.5c0.4,0,1.1,0,2,0s1.5,0,1.8,0.1c0.3,0,0.8,0,1.7,0c0.9-0.1,1.7-0.1,2.7,0c0.7,0,1.3,0,1.8,0
						c0.5,0,0.9-0.1,0.9-0.1c0.3,0,0.9,0,1.5,0.1c0.6,0.1,1.2,0.2,1.7,0.3c0.3,0.1,0.7,0.2,1,0.3c0.3,0.2,0.6,0.3,0.7,0.3
						c0.5,0.3,1,0.9,1.3,1.4c0.3,0.5,0.6,1,0.9,1.6c0.5,1,0.8,2,0.8,3.2c0,1.2,0,2.5,0,4c0,0.9,0,1.9,0,3c0,1.1,0.1,2.4,0.1,3.9v1.3
						c0,0.5,0,0.9,0,1.1s-0.1,0.6-0.1,1v3.2c0,0.6,0,1.1,0.1,1.7C60.1-422.6,60.1-421.9,60.1-421.4z"/>
				</g>
			</g>
		</g>
		<g>
			<g transform="translate(59.409347, 619.198342)">
				<g>
					<path d="M49.6-448.4c0,0.3,0,0.7,0,1s0,0.7-0.1,1c0,0.7-0.1,1.2-0.1,1.6c0,0.3,0,0.9,0,1.6c0,0.3,0,0.5,0,0.8
						c0,0.3,0,0.5,0,0.8c0,0.5,0,1-0.1,1.3c-0.1,0.4-0.1,0.9,0,1.3v2.4c0,0.9,0.1,1.7,0.1,2.5s0,1.7,0.1,2.8c0,0.5-0.2,0.9-0.4,1
						c-0.3,0.1-0.6,0.2-1.1,0.2c-0.4,0-0.8,0-1.1,0c-0.3,0-0.7,0-1.1,0c-0.3,0-0.6,0-0.9,0s-0.5,0-0.9,0c-0.2,0-0.3-0.1-0.7-0.2
						c-0.3-0.1-0.5-0.4-0.5-1c0-1,0-1.8,0.1-2.7c0.1-0.9,0.1-1.7,0.1-2.6c0-0.6,0-1.2,0-1.7c0-0.5,0-1,0-1.7c0-0.6,0-1.2,0.1-1.7
						c0-0.5,0-1,0-1.7l-0.1-3.6c0-0.8,0-1.5,0.1-2.1c0.1-0.6,0.5-0.9,1.4-0.9c0.2,0,0.3,0,0.4,0.1c0.1,0,0.3,0.1,0.3,0.1
						c0.3,0,0.6-0.1,1-0.1c0.4,0,1,0,1.4,0c0.4,0,0.8,0,1,0c0.4,0,0.7,0.1,0.9,0.3C49.6-449.3,49.6-448.9,49.6-448.4z"/>
				</g>
			</g>
		</g>
		<g>
			<g transform="translate(69.492599, 619.198342)">
				<g>
					<path d="M60.5-446c0,0.2,0,0.4,0.1,0.8c0,0.4,0,0.7,0,1c0,0.4-0.2,0.7-0.5,0.7c-0.3,0.1-0.7,0.1-1.3,0.1
						c-0.3,0-0.5,0.1-0.7,0.3c-0.2,0.3-0.2,0.7-0.1,1.5s0.1,1.7,0.1,2.6c0,1,0,1.7,0,2.4c0,0.7,0.1,1.4,0.1,2.2c0,0.7,0,1.6,0,2.5
						v1.7c0,0.5,0,1.1,0.1,1.7c0.1,0.6,0.1,1.1,0,1.7c0,0.5-0.1,1-0.1,1.5s0,1,0,1.4c0,0.5,0.1,1.1,0.1,1.7c0,0.7,0.1,1.3,0.1,1.9
						c0,0.4-0.1,0.9-0.2,1.1c-0.1,0.3-0.5,0.4-1.2,0.4c-0.3,0-0.7,0-1,0c-0.3,0-0.6,0-1,0h-2.3c-0.3,0-0.7,0-1-0.1
						c-0.3-0.1-0.5-0.3-0.5-1c0-0.3,0-0.7,0.1-1c0-0.3,0.1-0.5,0.1-0.8c0-0.6,0-1.2,0-1.7c0-0.5,0.1-1,0.1-1.7
						c0.1-0.6,0.1-1.1,0.1-1.7c0-0.5,0-1-0.1-1.7c0-0.4-0.1-1,0-1.6c0-0.6,0.1-1.1,0.1-1.6c0-0.3,0-0.8-0.1-1.2s-0.1-0.8-0.1-1.1
						c0-0.8,0.1-1.7,0.1-2.7s0-1.7,0-2.2c0-0.3-0.1-0.7-0.1-0.9c0-0.3,0-0.6,0.1-1c0-0.4,0.1-1,0.1-1.9c0-0.5-0.2-0.8-0.4-1
						c-0.3-0.2-0.7-0.3-1-0.3c-0.3,0-0.7,0-1.2,0c-0.5,0-1,0-1.6,0.1c-0.5,0-0.9,0-1.1,0s-0.5,0-0.7,0c-0.3,0-0.4,0.1-0.6,0.1
						c-0.7,0-1-0.1-1.2-0.3c-0.2-0.3-0.3-0.6-0.3-1.2c-0.1-0.6-0.1-1.1-0.1-1.7c0-0.5,0-1.1,0-1.7c0-0.2,0-0.5,0.1-1
						c0.1-0.4,0.4-0.7,1.2-0.7c0.5,0,1,0,1.4,0.1c0.4,0.1,0.9,0.1,1.2,0c0.3,0,0.7,0,1,0s0.7,0.1,1,0.1c0.3,0,0.7,0,1.1,0
						c0.4,0,1.3,0,2.4,0c0.4,0,0.7-0.1,0.9-0.1c0.2,0,0.4,0,0.8,0s0.8,0.1,1.2,0c0.4,0,0.8,0,1.1,0c0.4,0,0.8,0,1.2,0
						c0.4,0,0.8-0.1,1.2-0.1c0.8,0,1.1,0.2,1.2,0.7c0.1,0.4,0.1,0.8,0.1,1c0,0.3,0,0.7,0.1,1.1C60.6-446.6,60.6-446.3,60.5-446z"/>
				</g>
			</g>
		</g>
		<g>
			<g transform="translate(87.014741, 619.198342)">
				<g>
					<path d="M54-448.4c0,0.3,0,0.7,0,1s0,0.7-0.1,1c0,0.7-0.1,1.2-0.1,1.6c0,0.3,0,0.9,0,1.6c0,0.3,0,0.5,0,0.8c0,0.3,0,0.5,0,0.8
						c0,0.5,0,1-0.1,1.3c-0.1,0.4-0.1,0.9,0,1.3v2.4c0,0.9,0.1,1.7,0.1,2.5s0,1.7,0.1,2.8c0,0.5-0.2,0.9-0.4,1
						c-0.3,0.1-0.6,0.2-1.1,0.2c-0.4,0-0.8,0-1.1,0s-0.7,0-1.1,0c-0.3,0-0.6,0-0.9,0s-0.5,0-0.9,0c-0.2,0-0.3-0.1-0.7-0.2
						s-0.5-0.4-0.5-1c0-1,0-1.8,0.1-2.7c0.1-0.9,0.1-1.7,0.1-2.6c0-0.6,0-1.2,0-1.7c0-0.5,0-1,0-1.7c0-0.6,0-1.2,0.1-1.7
						c0-0.5,0-1,0-1.7l-0.1-3.6c0-0.8,0-1.5,0.1-2.1c0.1-0.6,0.5-0.9,1.4-0.9c0.2,0,0.3,0,0.4,0.1c0.1,0,0.3,0.1,0.3,0.1
						c0.3,0,0.6-0.1,1-0.1c0.4,0,1,0,1.4,0c0.4,0,0.8,0,1,0c0.4,0,0.7,0.1,0.9,0.3C54-449.3,54-448.9,54-448.4z"/>
				</g>
			</g>
		</g>
		<g>
			<g transform="translate(97.097993, 619.198342)">
				<g>
					<path d="M55.7-448.4c0,0.3,0,0.7,0,1s0,0.7-0.1,1c0,0.7-0.1,1.2-0.1,1.6c0,0.3,0,0.9,0,1.6c0,0.3,0,0.5,0,0.8
						c0,0.3,0,0.5,0,0.8c0,0.5,0,1-0.1,1.3c-0.1,0.4-0.1,0.9,0,1.3v2.4c0,0.9,0.1,1.7,0.1,2.5s0,1.7,0.1,2.8c0,0.5-0.2,0.9-0.4,1
						c-0.3,0.1-0.6,0.2-1.1,0.2c-0.4,0-0.8,0-1.1,0s-0.7,0-1.1,0c-0.3,0-0.6,0-0.9,0c-0.3,0-0.5,0-0.9,0c-0.2,0-0.3-0.1-0.7-0.2
						c-0.3-0.1-0.5-0.4-0.5-1c0-1,0-1.8,0.1-2.7s0.1-1.7,0.1-2.6c0-0.6,0-1.2,0-1.7c0-0.5,0-1,0-1.7c0-0.6,0-1.2,0.1-1.7
						c0-0.5,0-1,0-1.7l-0.1-3.6c0-0.8,0-1.5,0.1-2.1c0.1-0.6,0.5-0.9,1.4-0.9c0.2,0,0.3,0,0.4,0.1c0.1,0,0.3,0.1,0.3,0.1
						c0.3,0,0.6-0.1,1-0.1c0.4,0,1,0,1.4,0c0.4,0,0.8,0,1,0c0.4,0,0.7,0.1,0.9,0.3C55.6-449.3,55.7-448.9,55.7-448.4z"/>
				</g>
			</g>
		</g>
		<g>
			<g transform="translate(107.181244, 619.198342)">
				<g>
					<path d="M70.1-435.1c0,1.3,0,2.6,0,3.9s-0.1,2.6-0.1,3.8c0,1,0,2.2,0,3.1c0,1,0,2.1,0.1,3.2c0,0.3,0,0.5-0.1,1
						c-0.1,0.3-0.2,0.7-0.4,1c-0.3,0.3-0.7,0.4-1.3,0.4c-0.3,0-0.6,0-0.9,0.1c-0.3,0.1-0.5,0.1-0.9,0.1c-0.3,0-0.9,0-1.6,0
						c-0.7,0-1.3,0-1.8,0c-0.3,0-0.5,0-0.8,0s-0.6,0-1.1-0.1c-0.3,0-0.8,0-1.1-0.1c-0.3-0.1-0.5-0.4-0.5-1c0-1.2,0.1-2.1,0.1-2.6
						c0.1-0.5,0.1-1,0-1.2c-0.1-0.5-0.1-0.9,0.1-1.1c0.1-0.3,0.4-0.4,1-0.4c1.3,0,2.1,0,2.4-0.1c0.3-0.1,0.5-0.3,0.5-0.8
						c0-0.7,0-1.5,0-2.2c0-0.8,0-1.5,0.1-2.1c0.1-1.1,0.1-1.9,0-2.4c-0.1-0.5-0.1-1.1-0.1-1.8c0-1.5,0-2.6-0.1-3.3
						c-0.1-0.8-0.1-1.5-0.1-2.1c0-0.6,0-1-0.1-1.4c-0.1-0.3-0.2-0.6-0.3-1c-0.4-1-1.1-1.7-2.2-1.7l-1.2-0.1c-0.3,0-0.5,0.1-0.6,0.2
						c-0.1,0.1-0.2,0.3-0.3,0.7c0,0.5-0.1,1.2-0.2,2.2c-0.1,1-0.2,2-0.3,3c-0.1,1-0.2,1.7-0.2,2.3c0,1.2-0.1,2.1-0.2,2.8
						c-0.1,0.6-0.2,1.2-0.2,1.7c-0.1,0.5-0.2,1.3-0.3,2.3c-0.2,1.7-0.3,2.9-0.3,3.7c-0.1,1-0.2,1.7-0.3,2.1
						c-0.1,0.4-0.1,0.9-0.1,1.2c0,0.3-0.1,0.9-0.1,1.6c0,0.8-0.2,1.3-0.5,1.5c-0.3,0.2-0.7,0.3-1.3,0.3c-0.3,0-0.5,0-0.7-0.1
						c-0.2,0-0.4-0.1-0.7-0.1c-0.3-0.1-0.7-0.1-1,0c-0.3,0.1-0.8,0.1-1.3,0.1c-0.3,0-0.5-0.1-0.9-0.1c-0.3-0.1-0.5-0.4-0.4-1.1
						c0.1-0.6,0.2-1.1,0.2-1.7c0.1-0.4,0.2-1,0.2-1.7l0.1-1.2c0-0.5,0.1-1,0.1-1.5c0-0.5,0.1-1,0.1-1.6c0.1-0.7,0.2-1.4,0.3-2.3
						c0.1-0.9,0.2-1.6,0.3-2.3c0.1-1,0.2-1.8,0.2-2.8c0.2-1.8,0.3-3.4,0.6-4.7c0.3-1.3,0.3-2.3,0.4-3.1c0-0.3,0-0.7-0.1-0.9
						c-0.1-0.2-0.2-0.3-0.5-0.4c-0.1,0-0.3,0-0.5,0c-0.3,0-0.4,0-0.5,0c-0.3,0-0.5,0-0.7-0.1c-0.2-0.1-0.3-0.3-0.3-0.6
						c0-0.3-0.1-0.6,0-1c0-0.4,0-0.8,0-1c0-0.4-0.1-0.8,0-1.1c0-0.3,0.1-0.7,0.1-1.1c0.1-0.3,0.2-0.6,0.3-0.8c0.1-0.2,0.4-0.3,1-0.3
						c0.4,0,0.9,0,1.2,0c0.4,0,1,0,1.6,0c0.5,0,1,0,1.3,0s0.8,0,1.3,0.1c0.5,0,1,0,1.5-0.1c0.4-0.1,1-0.1,1.4-0.1c0.5,0,1,0,1.2,0.1
						c0.3,0,0.7,0.1,1,0.1c2.4,0,4.4,0.8,6,2.4c0.5,0.5,1,1.2,1.3,2.1c0.3,0.9,0.5,1.8,0.6,2.9c0,0.3,0,0.6,0.1,1.1
						c0,0.5,0.1,0.9,0.1,1.2c0.1,1,0.2,1.8,0.2,2.6S70.1-435.9,70.1-435.1z"/>
				</g>
			</g>
		</g>
		<g>
			<g transform="translate(137.609828, 619.198342)">
				<g>
					<path d="M73.7-421.4c0,0.3,0,0.5,0,0.7c0,0.2,0,0.4,0,0.8c-0.1,0.7-0.3,1-0.6,1.1c-0.3,0.1-0.7,0.1-1,0.2c-0.3,0-0.6,0.1-1,0
						c-0.4,0-0.8-0.1-1-0.1c-0.3,0-0.4,0-0.6,0.1s-0.4,0.1-0.8,0.1c-0.9,0-1.3-0.2-1.4-0.5c-0.1-0.3-0.1-0.7-0.1-1.1
						c0-0.6,0-1.2,0-1.8c0-0.7,0-1.2,0-1.7c0-0.5,0-1,0.1-1.6c0-0.4,0.1-1,0.1-1.6c0-0.3,0-0.8-0.1-1.3c0-0.5,0-1,0-1.7
						c0-0.2,0-0.3-0.1-0.6c0-0.2,0-0.3,0-0.4c0-0.1,0-0.3,0-0.9c0-0.5,0.1-1,0.1-1.7c0-0.6,0-1,0-1.2c0-0.9,0-1.8-0.1-3
						c0-1.1-0.1-2.2-0.1-3c0-0.6-0.1-1.2-0.4-1.9c-0.3-0.7-1-1-1.9-1c-0.2,0-0.4,0-1,0c-0.5,0-1,0-1.5,0c-0.5,0-1,0-1.5,0
						c-0.4,0-0.8,0-1,0c-0.4,0-0.8,0-1.2,0.1c-0.4,0.1-0.8,0.1-1.2,0.1c-0.4,0-0.9-0.1-1.4-0.2c-0.4-0.1-0.6-0.5-0.5-1.2
						c0.1-0.3,0.1-0.9,0.1-1.7c0-0.8,0-1.4-0.1-1.8c0-0.3,0-0.7,0.1-1c0.1-0.3,0.5-0.5,1.2-0.5c0.4,0,0.9,0,1.3,0.1
						c0.4,0,0.8,0,1.3,0c0.7-0.1,1.5-0.1,2.3-0.1s1.7,0,2.4,0c0.7,0,1.2,0,1.5,0.1c0.3,0,1,0.1,1.6,0.1c0.7,0,1.3,0.2,1.9,0.3
						c0.3,0.1,0.7,0.3,1,0.4c0.3,0.2,0.5,0.3,0.7,0.4c0.5,0.3,1,0.8,1.3,1.3c0.3,0.5,0.7,1.1,1,1.7c0.3,0.5,0.3,1,0.4,1.6
						c0,0.4,0.1,0.9,0.1,1.1c0.1,0.6,0.1,1.2,0.1,2c0,0.7,0,1.6,0,2.5c0,0.9,0.1,1.8,0.2,3c0.1,1.1,0.1,2.4,0.1,3.9
						c0,0.2,0,0.4-0.1,0.7c0,0.3,0,0.7,0,1.3s0,1.3,0,2.1s0,1.5,0,2s0,0.9,0,0.9c0,0.6,0,1.1,0,1.7C73.7-422.6,73.7-422,73.7-421.4z
						 M62.1-429.7c0,0.4,0,0.9-0.1,1.3c-0.1,0.4-0.1,0.9-0.1,1.4v2c0,0.9,0,1.7,0.1,2.4c0.1,0.7,0.1,1.6,0,2.4c0,0.6-0.1,1-0.3,1.2
						c-0.2,0.2-0.6,0.3-1.1,0.3c-0.7,0.1-1.3,0.1-1.9,0c-0.6-0.1-1.3-0.1-2,0c-0.3,0-0.5-0.1-0.9-0.3c-0.3-0.2-0.5-0.5-0.5-1.2v-0.1
						c0-0.9,0-1.7,0.1-2.4c0.1-0.7,0.1-1.6,0.1-2.4c0-0.7,0-1.1,0-1.6c0-0.3,0-0.9-0.1-1.6c0-0.6,0-1.1,0-1.7c0-0.5,0-1,0-1.7v-2.8
						c0-0.3,0-0.6,0-1c0-0.5,0-1,0.1-1.5c0.1-0.5,0.2-0.9,0.3-1c0.3-0.3,0.5-0.4,0.8-0.3c0.3,0,0.4,0,0.5,0c0.8,0.1,1.5,0.1,2.1,0.1
						c0.6,0,1.2,0,1.9,0c0.6,0,1,0.2,1,0.4c0.1,0.3,0.2,0.5,0.2,0.9c0.1,1.3,0.1,2.6-0.1,3.9C62.1-431.7,62.1-430.6,62.1-429.7z"/>
				</g>
			</g>
		</g>
		<g>
			<g transform="translate(157.686288, 619.198342)">
				<g>
					<path d="M76-419.9c0,0.3-0.2,0.7-0.4,1c-0.2,0.3-0.6,0.4-1.1,0.3c-0.3,0-0.8-0.1-1.3,0c-0.5,0-1,0-1.3,0
						c-0.5,0-1.1-0.1-1.7-0.1c-0.6,0-1.2,0-1.7,0c-0.9,0-1.6,0-2.2-0.1c-0.6-0.1-1.2-0.1-1.9,0c-0.7,0-1.6,0.1-2.5,0.1s-1.7,0-2.1,0
						c-0.3,0-0.8,0-1.1,0s-0.6-0.3-0.6-0.9c0-0.5,0-1,0.1-1.5c0.1-0.4,0.1-0.8,0-1c0-0.3,0-0.5,0-0.8s0-0.5,0-0.7
						c0-0.5,0.1-0.9,0.2-1.1s0.3-0.3,0.7-0.3c0.3,0,0.8,0.1,1.3,0.2c0.5,0.1,0.8,0.1,1,0.1c0.5,0,1.1,0,1.8,0.1
						c0.7,0.1,1.3,0.1,1.9,0.1c0.4,0,0.8,0,1,0c0.2-0.1,0.3-0.3,0.5-0.4s0.2-0.4,0.3-0.9c0-0.3,0-0.8,0-1c0-0.3,0-0.6,0.1-1
						c0.1-0.3,0.2-0.5,0.2-0.7v-2.2c0-0.9-0.1-1.7,0-2.3c0-0.6,0-1.2,0.1-1.8c0-0.6,0-1.3-0.1-2.1c0-0.8,0-1.5,0-2
						c0-0.5,0.1-1,0.1-1.3c0-0.8-0.2-1.5-0.4-2.2c-0.3-0.6-0.9-1-1.8-0.9h-2.2c-0.4,0-0.9,0-1.3,0c-0.4,0-1,0-1.6,0.1
						c-0.3,0-0.8,0-1.1-0.2c-0.3-0.2-0.5-0.5-0.5-1c0-0.3,0-0.6,0-0.9s0-0.5,0-0.8c0-0.3,0-0.7,0-1s0-0.6,0-1s0.1-0.7,0.2-1
						c0.2-0.3,0.4-0.6,1-0.6c0.4,0,1,0,1.5,0.1c0.5,0.1,1,0.1,1.4,0c0.6-0.1,1.3-0.1,2,0c0.7,0,1.3,0,1.9,0c0.3,0,0.8,0,1.5,0
						c0.6,0,1.2,0,1.7,0.2c0.3,0.1,0.8,0.2,1.1,0.3c0.3,0.1,0.7,0.3,1,0.4c0.5,0.4,1,1,1.2,1.6c0.3,0.5,0.5,1.1,0.7,1.7
						c0.2,0.5,0.3,1.1,0.3,1.8c0.1,0.6,0.1,1.1,0.2,1.4c0.1,0.5,0.1,1.2,0.1,1.9c0,0.7,0,1.6,0.1,2.5c0,0.4,0,0.9,0,1.3s0,1-0.1,1.8
						c0,0.3,0,0.9,0,1.5s0,1.3,0,1.9c0,0.7,0,1.2-0.1,1.7c-0.1,0.8-0.1,1.5-0.1,2c0,0.6,0.1,1.3,0.1,2.1c0,0.7,0.3,1,1,1
						c0.5-0.1,0.9,0,1,0.1c0.2,0.2,0.3,0.4,0.3,0.9c0,0.3,0,0.5,0,0.9c-0.1,0.3-0.1,0.7-0.1,1.2c0,0.4,0.1,0.8,0.1,1
						C76-420.3,76-420,76-419.9z"/>
				</g>
			</g>
		</g>
		<g>
			<g transform="translate(176.059867, 619.198342)">
				<g>
					<path d="M61.5-419.8c0-0.6,0-1.2,0.1-1.7c0-0.5,0.1-1,0.1-1.7c0-0.7,0-1.3-0.1-1.9c-0.1-0.6-0.1-1.2-0.1-1.9
						c0-0.9,0-1.7,0.1-2.3c0.1-0.7,0.1-1.5,0.2-2.3l0.1-2.1c0-0.5,0-1,0-1.4s0-0.9-0.1-1.4c0-0.5-0.1-1.1,0-1.7c0-0.5,0-1,0-1.6
						c0-0.6-0.1-1.2,0-1.8c0-0.6,0-1.2,0-1.8c0-0.3,0-0.9-0.1-1.6c0-0.6-0.1-1.3-0.1-1.9s-0.1-1.1-0.1-1.6c0-0.3,0-0.6,0.1-1
						c0.1-0.3,0.3-0.5,0.7-0.5c0.3,0,0.8,0,1.1,0.1c0.3,0,0.7,0.1,1,0.1c0.4,0,0.8,0,1.1,0c0.3,0,0.7,0,1.1,0s0.9,0.1,1.2,0.2
						c0.3,0.2,0.5,0.5,0.5,1.1c0,0.3,0,0.6-0.1,1c-0.1,0.3-0.1,0.7-0.1,1.2c0,0.5,0.1,1,0.1,1.6c0,0.5,0,1,0.1,1.6
						c0,0.9,0.1,1.7,0.1,2.3c0.1,0.7,0.1,1.5,0,2.3c0,0.4-0.1,0.8-0.1,1c0,0.2,0,0.6,0,1l0.2,3.4c0,1.1-0.1,2.1-0.2,3
						s-0.2,1.9-0.2,3v1.8c0,0.6,0,1.1,0.1,1.7c0,0.4,0.1,1,0.1,1.4l0.1,1.8c0,0.5,0,0.9-0.2,1.3c-0.2,0.3-0.7,0.5-1.6,0.5
						c-0.4,0-0.9,0-1.2-0.1c-0.3-0.1-0.8-0.1-1.2-0.1c-0.3,0-0.5,0-0.7,0.1c-0.2,0-0.4,0.1-0.8,0.1c-0.5,0-0.9-0.1-1-0.3
						C61.6-419.2,61.5-419.4,61.5-419.8z"/>
				</g>
			</g>
		</g>
		<g>
			<g transform="translate(186.232749, 619.198342)">
				<g>
					<path d="M74.9-422.6c0.1,0.5,0.2,1.1,0.3,1.7c0.2,0.5,0.3,1.1,0.3,1.7c0,0.3-0.1,0.6-0.4,0.7c-0.3,0.1-0.6,0.2-1,0.2
						c-0.3,0-0.8,0-1.3,0s-1,0-1.2,0.1c-0.3,0-0.6,0.1-0.6,0.1s-0.2,0-0.6-0.1c-0.3,0-0.6-0.2-0.7-0.3s-0.2-0.5-0.3-0.9
						c-0.1-0.3-0.2-0.6-0.3-1c-0.1-0.5-0.2-0.9-0.3-1.2c-0.1-0.2-0.2-0.3-0.3-0.3s-0.3,0.1-0.3,0.3c-0.2,0.5-0.3,1-0.5,1.4
						c-0.1,0.3-0.3,0.7-0.7,1c-0.3,0.3-0.5,0.4-0.8,0.6s-0.7,0.3-1.1,0.4c-0.2,0-0.5,0-0.9,0c-0.4,0-0.8,0-1,0
						c-0.3,0-0.6-0.1-0.9-0.3c-0.2-0.3-0.3-0.8-0.2-1.5c0-0.2,0-0.4,0-0.8c0-0.4,0-0.9,0-1.2c0-0.4,0-0.7,0-0.9
						c0-1.1,0.1-1.8,0.2-2.2c0.1-0.3,0.4-0.6,1.1-0.6h1.2c0.9,0,1.6-0.3,2.2-0.8c0.5-0.4,0.8-1,1-2c0.1-0.3,0.1-0.6,0.1-0.9
						c0-0.3,0-0.6,0-1.1c0-1,0-1.7,0-2.1s0-0.8,0-1.1c0-0.3,0-1,0-1.7c-0.1-1.2-0.1-2.3,0-3.3c0.1-1,0.1-1.8,0.1-2.5
						c0-0.3,0-0.7,0-1c0-0.3-0.2-0.6-0.3-0.9c-0.2-0.3-0.7-0.3-1.3-0.3h-1.4c-0.7,0-1-0.3-1-1.1c0-0.3,0-0.7,0-1
						c0-0.3,0.1-0.5,0.1-0.7c0-0.3,0-0.7,0-1s0-0.6,0-1c0-0.5,0.1-1,0.2-1.2c0.2-0.3,0.5-0.3,1-0.4c0.3,0,0.7,0,1.1,0.1
						c0.4,0.1,0.8,0.1,1.1,0.1c0.6,0,1.2,0,1.8,0c0.6,0,1.1,0,1.4,0c0.3,0,0.8,0,1.2,0.2c0.4,0.1,0.8,0.3,1.2,0.6
						c0.6,0.3,1,0.9,1.2,1.6c0.2,0.7,0.3,1.5,0.3,2.5v2.2c0,0.7,0.1,1.4,0.1,2s0,1.2,0,2c0,0.7,0,1.3,0,1.8c0,0.6,0,1.2,0,1.9
						s-0.1,1.5,0,2.5c0,1,0.1,1.7,0.2,2.3c0,0.4,0.1,0.8,0.1,1.1c0,0.3,0.1,0.7,0.1,1.1s0,0.8,0,1.1c0,0.3,0,0.7,0,1
						c0,0.5,0,1,0.1,1.6C74.8-423.8,74.9-423.2,74.9-422.6z"/>
				</g>
			</g>
		</g>
		<g>
			<g transform="translate(200.66282, 619.198342)">
				<g>
					<path d="M86.1-421.4v1.7c0,0.5-0.2,0.9-0.5,1c-0.3,0.1-0.7,0.2-1,0.2c-0.2,0-0.7,0-1.4-0.1c-0.7-0.1-1.5,0-2.3,0
						c-0.9,0.1-1.3-0.1-1.4-0.4c-0.1-0.3-0.1-0.6,0-0.9c0-0.5,0.1-1.2,0.1-2c0-0.8,0-1.5,0.1-2.1c0-0.5,0.1-1,0.1-1.5s0-1,0-1.6
						l-0.1-3c0,0,0-0.2,0-0.5s0-0.7,0-1.1s0-0.8,0-1c0-1-0.1-2-0.1-2.9c0-1-0.1-1.9-0.1-3c0-0.5-0.1-0.9,0-1.1c0-0.3,0-0.6,0-1
						c0-0.7-0.2-1.4-0.4-2.1c-0.3-0.7-0.8-1.1-1.5-1.3h-0.9c-0.2,0-0.4,0-0.8,0c-0.3,0-0.6,0-0.8,0c-0.4,0-0.7,0.1-0.9,0.3
						c-0.1,0.3-0.2,0.7-0.2,1.2v2.5c0,0.7,0,1.4,0,2.2s0,1.7,0.1,3c0,0.6,0,1.1-0.1,1.7c0,0.4,0,0.9,0,1.1l0.1,2.4
						c0,0.4,0.1,0.9,0.1,1.3c0.1,0.4,0.1,0.9,0.1,1.3c0,0.3,0,0.5,0,0.7c0,0.3,0,0.5-0.1,0.8c-0.1,0.7-0.1,1.5,0,2.3
						s0.1,1.7,0.1,2.3c0,0.8-0.2,1.3-0.4,1.6s-0.8,0.4-1.5,0.4H71c-0.7,0-1.3,0-1.8,0.1c-0.6,0.1-1.2,0.1-1.9,0.1
						c-1.1,0-1.9,0-2.3-0.2s-0.6-0.4-0.6-1c0-0.9,0-1.6,0-2.1c0-0.6,0-1,0-1.3c0-0.5,0-0.9,0.1-1.3c0.1-0.3,0.3-0.5,0.9-0.5
						c0.2,0,0.4,0,0.8,0c0.3,0,0.6,0,0.9,0.1c0.3,0,0.5-0.1,0.6-0.2c0.1-0.2,0.2-0.3,0.2-0.4c0-0.3,0-0.6,0-0.9s0-0.6,0-0.9
						c0-0.7,0-1.5,0.1-2.4c0-1,0.1-1.7,0.1-2.4c0-0.2,0-0.5,0-1c0-0.4,0-1,0-1.6c0-0.5,0-1,0-1.4c0-1,0-2.1,0-3.2s0-2.3,0-3.8
						c0-0.3,0-0.6-0.1-0.7c-0.1-0.1-0.3-0.2-0.4-0.2c-0.1,0-0.3,0-0.3,0c-0.2,0-0.3,0-0.4-0.1c-0.3,0-0.5-0.3-0.5-0.7
						c0,0.2,0,0.2,0-0.2c0-0.3,0-0.7,0-1.1s0-0.7,0-0.9c0-0.3,0-0.6,0-0.9c0-0.3,0-0.7,0-1c0-0.3,0-0.6,0.1-0.9
						c0.1-0.3,0.5-0.5,1.2-0.5c0.4,0,1.1,0,2,0c0.9,0,1.5,0,1.8,0.1c0.3,0,0.8,0,1.7,0c0.9-0.1,1.7-0.1,2.7,0c0.7,0,1.3,0,1.8,0
						s0.9-0.1,0.9-0.1c0.3,0,0.9,0,1.5,0.1c0.6,0.1,1.2,0.2,1.7,0.3c0.3,0.1,0.7,0.2,1,0.3c0.3,0.2,0.6,0.3,0.7,0.3
						c0.5,0.3,1,0.9,1.3,1.4c0.3,0.5,0.6,1,0.9,1.6c0.5,1,0.8,2,0.8,3.2c0,1.2,0,2.5,0,4c0,0.9,0,1.9,0,3c0,1.1,0.1,2.4,0.1,3.9v1.3
						c0,0.5,0,0.9,0,1.1s-0.1,0.6-0.1,1v3.2c0,0.6,0,1.1,0.1,1.7C86.1-422.6,86.1-421.9,86.1-421.4z"/>
				</g>
			</g>
		</g>
	</g>
</g>
</svg>
