<?xml version="1.0" encoding="utf-8"?>
<!-- Generator: Adobe Illustrator 28.3.0, SVG Export Plug-In . SVG Version: 6.00 Build 0)  -->
<svg version="1.1" id="Layer_1" xmlns="http://www.w3.org/2000/svg" xmlns:xlink="http://www.w3.org/1999/xlink" x="0px" y="0px"
	 viewBox="0 0 350.9 250.7" enable-background="new 0 0 350.9 250.7" xml:space="preserve">
<g display="none" opacity="0.3">
	<g display="inline">
		<g>
			<g>
				
					<linearGradient id="SVGID_1_" gradientUnits="userSpaceOnUse" x1="-731.2993" y1="670.0829" x2="-1299.8854" y2="1615.6661" gradientTransform="matrix(-1 0 0 1 -1000.6429 -555.4032)">
					<stop  offset="0" style="stop-color:#FDF53F"/>
					<stop  offset="1" style="stop-color:#D93C65"/>
				</linearGradient>
				<path fill="url(#SVGID_1_)" d="M37.3,497.4v-49.9h156.6v49.9c0,46.8,7.6,93.4,22.4,137.8l83.8,250.4h-369l83.8-250.4
					C29.8,590.7,37.3,544.2,37.3,497.4z"/>
				
					<linearGradient id="SVGID_00000049932198498756971110000013674942276064824726_" gradientUnits="userSpaceOnUse" x1="-1169.313" y1="962.3227" x2="-1078.8107" y2="1045.6803" gradientTransform="matrix(-1 0 0 1 -1000.6429 -555.4032)">
					<stop  offset="0" style="stop-color:#2B3582"/>
					<stop  offset="1" style="stop-color:#150E42"/>
				</linearGradient>
				<path fill="url(#SVGID_00000049932198498756971110000013674942276064824726_)" d="M34.5,468.3h162.2c6.9,0,12.5-5.6,12.5-12.5
					l0,0c0-6.9-5.6-12.5-12.5-12.5H34.5c-6.9,0-12.5,5.6-12.5,12.5l0,0C22.1,462.7,27.7,468.3,34.5,468.3z"/>
				<path opacity="0.5" fill="#FFFFFF" enable-background="new    " d="M195.1,529.3h-159c0.5-6.9,0.9-13.8,1-20.8H194
					C194.3,515.4,194.6,522.4,195.1,529.3z"/>
				<path opacity="0.5" fill="#FFFFFF" enable-background="new    " d="M198.9,562.5H32.4c0.5-3.2,0.9-6.5,1.4-9.7h163.7
					C197.9,556.1,198.4,559.3,198.9,562.5z"/>
			</g>
			<g>
				
					<linearGradient id="SVGID_00000154413447809323681460000002457748707171988391_" gradientUnits="userSpaceOnUse" x1="-1139.1498" y1="860.187" x2="-1707.7366" y2="1805.7715" gradientTransform="matrix(-1 0 0 1 -1000.6429 -555.4032)">
					<stop  offset="0" style="stop-color:#A737D5"/>
					<stop  offset="1" style="stop-color:#EF497A"/>
				</linearGradient>
				<path fill="url(#SVGID_00000154413447809323681460000002457748707171988391_)" d="M298.2,416.9v-60.3h189.1v60.2
					c0,56.5,9.2,112.7,27.1,166.3l101.1,302.3H170l101.1-302.3C289.1,529.6,298.2,473.4,298.2,416.9z"/>
				
					<linearGradient id="SVGID_00000035524995180322592310000010967400884653174677_" gradientUnits="userSpaceOnUse" x1="-1461.0792" y1="859.7067" x2="-1345.7478" y2="965.933" gradientTransform="matrix(-1 0 0 1 -1000.6429 -555.4032)">
					<stop  offset="0" style="stop-color:#2B3582"/>
					<stop  offset="1" style="stop-color:#150E42"/>
				</linearGradient>
				<path fill="url(#SVGID_00000035524995180322592310000010967400884653174677_)" d="M283.2,381.7h219.2c1.9,0,3.4-1.5,3.4-3.4
					v-23.4c0-1.9-1.5-3.4-3.4-3.4H283.2c-1.9,0-3.4,1.5-3.4,3.4v23.4C279.8,380.2,281.3,381.7,283.2,381.7z"/>
				<path opacity="0.5" fill="#FFFFFF" enable-background="new    " d="M488.7,455.4H296.8c0.6-8.3,1-16.7,1.2-25.1h189.4
					C487.7,438.6,488.1,447,488.7,455.4z"/>
				<path opacity="0.5" fill="#FFFFFF" enable-background="new    " d="M493.3,495.5h-201c0.6-3.9,1.1-7.8,1.6-11.7h197.7
					C492.1,487.7,492.7,491.6,493.3,495.5z"/>
			</g>
			<g>
				<g>
					
						<linearGradient id="SVGID_00000016035496942973628450000004811121210262624937_" gradientUnits="userSpaceOnUse" x1="-1143.0209" y1="1517.8507" x2="-1167.1284" y2="1355.589" gradientTransform="matrix(-1 0 0 1 -1000.6429 -555.4032)">
						<stop  offset="0" style="stop-color:#9F5699"/>
						<stop  offset="1" style="stop-color:#202278"/>
					</linearGradient>
					<path fill="url(#SVGID_00000016035496942973628450000004811121210262624937_)" d="M86.8,778.8h152.7c2.2,0,3.9,1.6,3.9,3.7
						l-2.7,99.1c0,2-1.9,3.6-4,3.6L87,884.6c-2.1,0-3.9-1.7-3.9-3.7l-0.3-98.5C82.9,780.4,84.7,778.8,86.8,778.8z"/>
					<g>
						<g>
							<path opacity="0.5" fill="#FFFFFF" enable-background="new    " d="M224.9,796.8h4.8c0.2,0,0.4,0.2,0.6,0.3
								c0.1,0.2,0.2,0.4,0.2,0.6l-0.6,14c0,0.4-0.4,1-0.8,1h-4.6c-0.2,0-0.4-0.4-0.6-0.5c-0.1-0.2-0.2-0.5-0.2-0.7l0.5-13.8
								C224.1,797.3,224.5,796.8,224.9,796.8z"/>
							<path opacity="0.5" fill="#FFFFFF" enable-background="new    " d="M204.4,796.8h4.8c0.2,0,0.4,0.2,0.6,0.3
								c0.1,0.2,0.2,0.4,0.2,0.6l-0.2,14c0,0.4-0.4,1.1-0.8,1.1h-4.6c-0.2,0-0.4-0.4-0.6-0.5c-0.1-0.2-0.2-0.5-0.2-0.7l0.1-13.8
								C203.5,797.3,203.9,796.8,204.4,796.8z"/>
							<path opacity="0.5" fill="#FFFFFF" enable-background="new    " d="M186.2,796.8h4.8c0.5,0,0.8,0.4,0.8,0.8l0.1,13.7
								c0,0.2-0.1,0.7-0.2,0.8c-0.1,0.2-0.4,0.5-0.6,0.5h-4.6c-0.5,0-0.8-0.6-0.8-1l-0.2-13.8c0-0.2,0.1-0.6,0.2-0.7
								C185.8,797,186,796.8,186.2,796.8z"/>
							<path opacity="0.5" fill="#FFFFFF" enable-background="new    " d="M167.5,797.1c0.1-0.2,0.4-0.3,0.6-0.3h4.8
								c0.4,0,0.8,0.4,0.8,0.8l0.5,13.7c0,0.2-0.1,0.7-0.2,0.9c-0.1,0.2-0.4,0.5-0.6,0.5h-4.6c-0.4,0-0.8-0.6-0.8-1l-0.6-13.8
								C167.3,797.7,167.4,797.3,167.5,797.1z"/>
						</g>
						<g>
							<path opacity="0.5" fill="#FFFFFF" enable-background="new    " d="M150.7,796.8h4.8c0.2,0,0.4,0.2,0.6,0.3
								c0.1,0.2,0.2,0.4,0.2,0.6l-0.6,14c0,0.4-0.4,1-0.8,1h-4.6c-0.2,0-0.4-0.4-0.6-0.5c-0.1-0.2-0.2-0.5-0.2-0.7l0.5-13.8
								C149.9,797.3,150.3,796.8,150.7,796.8z"/>
							<path opacity="0.5" fill="#FFFFFF" enable-background="new    " d="M130.1,796.8h4.8c0.2,0,0.4,0.2,0.6,0.3
								c0.1,0.2,0.2,0.4,0.2,0.6l-0.2,14c0,0.4-0.4,1.1-0.8,1.1h-4.6c-0.2,0-0.4-0.4-0.6-0.5c-0.1-0.2-0.2-0.5-0.2-0.7l0.1-13.8
								C129.3,797.3,129.6,796.8,130.1,796.8z"/>
							<path opacity="0.5" fill="#FFFFFF" enable-background="new    " d="M112,796.8h4.8c0.5,0,0.8,0.4,0.8,0.8l0.1,13.7
								c0,0.2-0.1,0.7-0.2,0.8c-0.1,0.2-0.4,0.5-0.6,0.5h-4.6c-0.5,0-0.8-0.6-0.8-1l-0.2-13.8c0-0.2,0.1-0.6,0.2-0.7
								C111.5,797,111.8,796.8,112,796.8z"/>
							<path opacity="0.5" fill="#FFFFFF" enable-background="new    " d="M93.3,797.1c0.1-0.2,0.4-0.3,0.6-0.3h4.8
								c0.4,0,0.8,0.4,0.8,0.8l0.5,13.7c0,0.2-0.1,0.7-0.2,0.9s-0.4,0.5-0.6,0.5h-4.6c-0.4,0-0.8-0.6-0.8-1l-0.6-13.8
								C93,797.7,93.1,797.3,93.3,797.1z"/>
						</g>
					</g>
					<g>
						<g>
							<path opacity="0.5" fill="#FFFFFF" enable-background="new    " d="M224.9,826.5h4.8c0.2,0,0.4,0.2,0.6,0.3
								c0.1,0.2,0.2,0.4,0.2,0.6l-0.6,13.6c0,0.4-0.4,0.7-0.8,0.7h-4.6c-0.2,0-0.4,0-0.6-0.2c-0.1-0.2-0.2-0.3-0.2-0.5l0.5-13.7
								C224.1,826.9,224.5,826.5,224.9,826.5z"/>
							<path opacity="0.5" fill="#FFFFFF" enable-background="new    " d="M204.4,826.5h4.8c0.2,0,0.4,0.2,0.6,0.3
								c0.1,0.2,0.2,0.4,0.2,0.6l-0.2,13.6c0,0.4-0.4,0.7-0.8,0.7h-4.6c-0.2,0-0.4,0-0.6-0.2s-0.2-0.3-0.2-0.5l0.1-13.7
								C203.5,826.9,203.9,826.5,204.4,826.5z"/>
							<path opacity="0.5" fill="#FFFFFF" enable-background="new    " d="M186.2,826.5h4.8c0.5,0,0.8,0.4,0.8,0.8l0.1,13.7
								c0,0.2-0.1,0.4-0.2,0.5c-0.1,0.2-0.4,0.2-0.6,0.2h-4.6c-0.5,0-0.8-0.3-0.8-0.7l-0.2-13.6c0-0.2,0.1-0.5,0.2-0.6
								C185.8,826.7,186,826.5,186.2,826.5z"/>
							<path opacity="0.5" fill="#FFFFFF" enable-background="new    " d="M167.5,826.8c0.1-0.2,0.4-0.3,0.6-0.3h4.8
								c0.4,0,0.8,0.4,0.8,0.8l0.5,13.7c0,0.2-0.1,0.4-0.2,0.5c-0.1,0.2-0.4,0.2-0.6,0.2h-4.6c-0.4,0-0.8-0.3-0.8-0.7l-0.6-13.7
								C167.3,827.2,167.4,827,167.5,826.8z"/>
						</g>
						<g>
							<path opacity="0.5" fill="#FFFFFF" enable-background="new    " d="M150.7,826.5h4.8c0.2,0,0.4,0.2,0.6,0.3
								c0.1,0.2,0.2,0.4,0.2,0.6l-0.6,13.6c0,0.4-0.4,0.7-0.8,0.7h-4.6c-0.2,0-0.4,0-0.6-0.2c-0.1-0.2-0.2-0.3-0.2-0.5l0.5-13.7
								C149.9,826.9,150.3,826.5,150.7,826.5z"/>
							<path opacity="0.5" fill="#FFFFFF" enable-background="new    " d="M130.1,826.5h4.8c0.2,0,0.4,0.2,0.6,0.3
								c0.1,0.2,0.2,0.4,0.2,0.6l-0.2,13.6c0,0.4-0.4,0.7-0.8,0.7h-4.6c-0.2,0-0.4,0-0.6-0.2s-0.2-0.3-0.2-0.5l0.1-13.7
								C129.3,826.9,129.6,826.5,130.1,826.5z"/>
							<path opacity="0.5" fill="#FFFFFF" enable-background="new    " d="M112,826.5h4.8c0.5,0,0.8,0.4,0.8,0.8l0.1,13.7
								c0,0.2-0.1,0.4-0.2,0.5c-0.1,0.2-0.4,0.2-0.6,0.2h-4.6c-0.5,0-0.8-0.3-0.8-0.7l-0.2-13.6c0-0.2,0.1-0.5,0.2-0.6
								C111.5,826.7,111.8,826.5,112,826.5z"/>
							<path opacity="0.5" fill="#FFFFFF" enable-background="new    " d="M93.3,826.8c0.1-0.2,0.4-0.3,0.6-0.3h4.8
								c0.4,0,0.8,0.4,0.8,0.8L100,841c0,0.2-0.1,0.4-0.2,0.5c-0.1,0.2-0.4,0.2-0.6,0.2h-4.6c-0.4,0-0.8-0.3-0.8-0.7l-0.6-13.7
								C93,827.2,93.1,827,93.3,826.8z"/>
						</g>
					</g>
				</g>
				<g>
					
						<linearGradient id="SVGID_00000148626234165456657420000012343224621419700616_" gradientUnits="userSpaceOnUse" x1="-844.0801" y1="1079.5718" x2="-817.0481" y2="1445.2137" gradientTransform="matrix(-1 0 0 1 -1000.6429 -555.4032)">
						<stop  offset="0" style="stop-color:#A737D5"/>
						<stop  offset="1" style="stop-color:#EF497A"/>
					</linearGradient>
					<polygon fill="url(#SVGID_00000148626234165456657420000012343224621419700616_)" points="-194.6,868.9 -146.9,868.9 
						-152.1,592.8 -152,584.9 -152.1,575.8 -152.3,568 -153.7,519.9 -153.7,518.6 -191.3,518.6 -191.3,592.8 					"/>
					
						<linearGradient id="SVGID_00000116232640626019627260000005141059920457496754_" gradientUnits="userSpaceOnUse" x1="-853.7429" y1="1070.9532" x2="-803.9528" y2="1070.9532" gradientTransform="matrix(-1 0 0 1 -1000.6429 -555.4032)">
						<stop  offset="0" style="stop-color:#2B3582"/>
						<stop  offset="1" style="stop-color:#150E42"/>
					</linearGradient>
					<path fill="url(#SVGID_00000116232640626019627260000005141059920457496754_)" d="M-196.6,513.4c0-1.4,1-2.6,2.2-2.6h45.3
						c1.2,0,2.2,1.2,2.2,2.6v4.3c0,1.4-1,2.6-2.2,2.6h-45.3c-1.2,0-2.2-1.2-2.2-2.6V513.4z"/>
					
						<linearGradient id="SVGID_00000080899644174421735970000008209706463507350924_" gradientUnits="userSpaceOnUse" x1="-862.5429" y1="1430.8032" x2="-795.2429" y2="1430.8032" gradientTransform="matrix(-1 0 0 1 -1000.6429 -555.4032)">
						<stop  offset="0" style="stop-color:#2B3582"/>
						<stop  offset="1" style="stop-color:#150E42"/>
					</linearGradient>
					<path fill="url(#SVGID_00000080899644174421735970000008209706463507350924_)" d="M-205.4,872.5c0-1.9,1.3-3.5,3-3.5h61.3
						c1.7,0,3,1.6,3,3.5v5.8c0,1.9-1.3,3.5-3,3.5h-61.3c-1.7,0-3-1.6-3-3.5V872.5z"/>
					<polygon opacity="0.4" fill="#FFFFFF" enable-background="new    " points="-191.3,569.1 -191.3,575.4 -152,575.4 
						-152.2,569.1 					"/>
					<polygon opacity="0.4" fill="#FFFFFF" enable-background="new    " points="-191.3,583.3 -191.3,592.8 -151.5,592.8 
						-151.7,583.3 					"/>
				</g>
				<g>
					<g>
						
							<linearGradient id="SVGID_00000052104387802947445770000008594513980928955326_" gradientUnits="userSpaceOnUse" x1="-847.9172" y1="1031.3678" x2="-937.1636" y2="1269.3589" gradientTransform="matrix(-1 0 0 1 -1000.6429 -555.4032)">
							<stop  offset="0" style="stop-color:#A737D5"/>
							<stop  offset="1" style="stop-color:#EF497A"/>
						</linearGradient>
						<polygon fill="url(#SVGID_00000052104387802947445770000008594513980928955326_)" points="-116.2,730 -72.8,730 -72.8,695.4 
							-75.8,592.8 -76,584.9 -76.3,575.8 -76.5,568 -78,519.9 -78,518.6 -114.5,518.6 -114.5,592.8 						"/>
						
							<linearGradient id="SVGID_00000090975599930046265200000015536182699692256958_" gradientUnits="userSpaceOnUse" x1="-929.1191" y1="1070.9532" x2="-879.3292" y2="1070.9532" gradientTransform="matrix(-1 0 0 1 -1000.6429 -555.4032)">
							<stop  offset="0" style="stop-color:#2B3582"/>
							<stop  offset="1" style="stop-color:#150E42"/>
						</linearGradient>
						<path fill="url(#SVGID_00000090975599930046265200000015536182699692256958_)" d="M-121.3,513.4c0-1.4,1-2.6,2.2-2.6h45.3
							c1.2,0,2.2,1.2,2.2,2.6v4.3c0,1.4-1,2.6-2.2,2.6h-45.3c-1.2,0-2.2-1.2-2.2-2.6V513.4z"/>
					</g>
					<polygon opacity="0.4" fill="#FFFFFF" enable-background="new    " points="-114.5,569.1 -114.5,575.4 -76.2,575.4 
						-76.5,569.1 					"/>
					<polygon opacity="0.4" fill="#FFFFFF" enable-background="new    " points="-114.5,583.3 -114.5,592.8 -75.7,592.8 -76,583.3 
											"/>
				</g>
				<g>
					
						<linearGradient id="SVGID_00000178203157514198017760000009158059981208395935_" gradientUnits="userSpaceOnUse" x1="-1102.2438" y1="1239.4081" x2="-901.3013" y2="1424.4867" gradientTransform="matrix(-1 0 0 1 -1000.6429 -555.4032)">
						<stop  offset="0" style="stop-color:#9F5699"/>
						<stop  offset="1" style="stop-color:#202278"/>
					</linearGradient>
					<path fill="url(#SVGID_00000178203157514198017760000009158059981208395935_)" d="M-146.7,702.6h262.3c3.8,0,6.8,2.8,6.7,6.4
						l-4.6,170.3c-0.1,3.5-3.2,6.3-6.9,6.2l-257.1-1.1c-3.7,0-6.6-2.8-6.7-6.3l-0.6-169.1C-153.4,705.4-150.4,702.6-146.7,702.6z"/>
					<g>
						<g>
							<path opacity="0.5" fill="#FFFFFF" enable-background="new    " d="M90.5,733.5h8.2c0.4,0,0.8,0.3,1,0.5s0.4,0.7,0.4,1l-1,24
								c0,0.7-0.6,1.8-1.4,1.8h-8c-0.4,0-0.7-0.6-1-0.9s-0.4-0.8-0.4-1.2l0.8-23.7C89.1,734.3,89.8,733.5,90.5,733.5z"/>
							<path opacity="0.5" fill="#FFFFFF" enable-background="new    " d="M55.1,733.5h8.2c0.4,0,0.7,0.3,1,0.5s0.4,0.7,0.4,1
								l-0.4,24c0,0.7-0.6,1.8-1.4,1.8h-8c-0.4,0-0.7-0.6-1-0.9c-0.3-0.2-0.4-0.8-0.4-1.2l0.1-23.7
								C53.8,734.3,54.4,733.5,55.1,733.5z"/>
							<path opacity="0.5" fill="#FFFFFF" enable-background="new    " d="M24,733.5h8.2c0.8,0,1.4,0.7,1.4,1.4l0.2,23.5
								c0,0.3-0.1,1.2-0.4,1.4c-0.3,0.2-0.6,0.9-1,0.9h-8c-0.8,0-1.4-1.1-1.4-1.8l-0.4-23.7c0-0.4,0.1-0.9,0.4-1.2
								C23.3,733.9,23.7,733.5,24,733.5z"/>
							<path opacity="0.5" fill="#FFFFFF" enable-background="new    " d="M-8.1,734c0.3-0.3,0.6-0.5,1-0.5h8.2
								c0.8,0,1.4,0.7,1.4,1.4l0.8,23.5c0,0.4-0.1,1.2-0.4,1.5s-0.6,0.9-1,0.9h-8c-0.8,0-1.4-1-1.4-1.7l-1-23.8
								C-8.5,734.9-8.3,734.3-8.1,734z"/>
						</g>
						<g>
							<path opacity="0.5" fill="#FFFFFF" enable-background="new    " d="M-37,733.5h8.2c0.4,0,0.8,0.3,1,0.5s0.4,0.7,0.4,1l-1,24
								c0,0.7-0.6,1.8-1.4,1.8h-8c-0.4,0-0.7-0.6-1-0.9s-0.4-0.8-0.4-1.2l0.8-23.7C-38.4,734.3-37.8,733.5-37,733.5z"/>
							<path opacity="0.5" fill="#FFFFFF" enable-background="new    " d="M-72.4,733.5h8.2c0.4,0,0.7,0.3,1,0.5s0.4,0.7,0.4,1
								l-0.4,24c0,0.7-0.6,1.8-1.4,1.8h-8c-0.4,0-0.7-0.6-1-0.9c-0.3-0.2-0.4-0.8-0.4-1.2l0.1-23.7
								C-73.8,734.3-73.2,733.5-72.4,733.5z"/>
							<path opacity="0.5" fill="#FFFFFF" enable-background="new    " d="M-103.5,733.5h8.2c0.8,0,1.4,0.7,1.4,1.4l0.2,23.5
								c0,0.3-0.1,1.2-0.4,1.4s-0.6,0.9-1,0.9h-8c-0.8,0-1.4-1.1-1.4-1.8l-0.4-23.7c0-0.4,0.1-0.9,0.4-1.2
								C-104.3,733.9-103.9,733.5-103.5,733.5z"/>
							<path opacity="0.5" fill="#FFFFFF" enable-background="new    " d="M-135.6,734c0.3-0.3,0.6-0.5,1-0.5h8.2
								c0.8,0,1.4,0.7,1.4,1.4l0.8,23.5c0,0.4-0.1,1.2-0.4,1.5s-0.6,0.9-1,0.9h-8c-0.8,0-1.4-1-1.4-1.7l-1-23.8
								C-136,734.9-135.9,734.3-135.6,734z"/>
						</g>
					</g>
					<g>
						<g>
							<path opacity="0.5" fill="#FFFFFF" enable-background="new    " d="M90.5,784.6h8.2c0.4,0,0.8,0.3,1,0.5s0.4,0.7,0.4,1
								l-1,23.4c0,0.7-0.6,1.2-1.4,1.2h-8c-0.4,0-0.7,0-1-0.3s-0.4-0.6-0.4-0.9l0.8-23.6C89.1,785.2,89.8,784.6,90.5,784.6z"/>
							<path opacity="0.5" fill="#FFFFFF" enable-background="new    " d="M55.1,784.6h8.2c0.4,0,0.7,0.2,1,0.5
								c0.3,0.2,0.4,0.7,0.4,1l-0.4,23.4c0,0.7-0.6,1.2-1.4,1.2h-8c-0.4,0-0.7,0-1-0.3c-0.3-0.2-0.4-0.5-0.4-0.9l0.1-23.6
								C53.8,785.3,54.4,784.6,55.1,784.6z"/>
							<path opacity="0.5" fill="#FFFFFF" enable-background="new    " d="M24,784.6h8.2c0.8,0,1.4,0.7,1.4,1.4l0.2,23.5
								c0,0.3-0.1,0.6-0.4,0.9c-0.3,0.2-0.6,0.3-1,0.3h-8c-0.8,0-1.4-0.5-1.4-1.2l-0.4-23.4c0-0.4,0.1-0.8,0.4-1
								C23.3,784.8,23.7,784.6,24,784.6z"/>
							<path opacity="0.5" fill="#FFFFFF" enable-background="new    " d="M-8.1,785.1c0.3-0.3,0.6-0.5,1-0.5h8.2
								c0.8,0,1.4,0.7,1.4,1.4l0.8,23.5c0,0.4-0.1,0.6-0.4,0.9s-0.6,0.3-1,0.3h-8c-0.8,0-1.4-0.5-1.4-1.2l-1-23.5
								C-8.5,785.7-8.3,785.4-8.1,785.1z"/>
						</g>
						<g>
							<path opacity="0.5" fill="#FFFFFF" enable-background="new    " d="M-37,784.6h8.2c0.4,0,0.8,0.3,1,0.5s0.4,0.7,0.4,1
								l-1,23.4c0,0.7-0.6,1.2-1.4,1.2h-8c-0.4,0-0.7,0-1-0.3s-0.4-0.6-0.4-0.9l0.8-23.6C-38.4,785.2-37.8,784.6-37,784.6z"/>
							<path opacity="0.5" fill="#FFFFFF" enable-background="new    " d="M-72.4,784.6h8.2c0.4,0,0.7,0.2,1,0.5
								c0.3,0.2,0.4,0.7,0.4,1l-0.4,23.4c0,0.7-0.6,1.2-1.4,1.2h-8c-0.4,0-0.7,0-1-0.3c-0.3-0.2-0.4-0.5-0.4-0.9l0.1-23.6
								C-73.8,785.3-73.2,784.6-72.4,784.6z"/>
							<path opacity="0.5" fill="#FFFFFF" enable-background="new    " d="M-103.5,784.6h8.2c0.8,0,1.4,0.7,1.4,1.4l0.2,23.5
								c0,0.3-0.1,0.6-0.4,0.9c-0.3,0.2-0.6,0.3-1,0.3h-8c-0.8,0-1.4-0.5-1.4-1.2l-0.4-23.4c0-0.4,0.1-0.8,0.4-1
								C-104.3,784.8-103.9,784.6-103.5,784.6z"/>
							<path opacity="0.5" fill="#FFFFFF" enable-background="new    " d="M-135.6,785.1c0.3-0.3,0.6-0.5,1-0.5h8.2
								c0.8,0,1.4,0.7,1.4,1.4l0.8,23.5c0,0.4-0.1,0.6-0.4,0.9s-0.6,0.3-1,0.3h-8c-0.8,0-1.4-0.5-1.4-1.2l-1-23.5
								C-136,785.7-135.9,785.4-135.6,785.1z"/>
						</g>
					</g>
				</g>
			</g>
		</g>
	</g>
</g>
<linearGradient id="SVGID_00000011014432792592168330000001935584200799819169_" gradientUnits="userSpaceOnUse" x1="290.4792" y1="381.4969" x2="67.0196" y2="998.6725" gradientTransform="matrix(1.0947 -0.1793 -0.1793 3.0491 156.4578 -2080.3555)">
	<stop  offset="0" style="stop-color:#63C3FF"/>
	<stop  offset="0.1795" style="stop-color:#69BFFD"/>
	<stop  offset="0.4236" style="stop-color:#7BB5F8"/>
	<stop  offset="0.7049" style="stop-color:#97A5F0"/>
	<stop  offset="1" style="stop-color:#BD8FE5"/>
</linearGradient>
<path display="none" opacity="0.5" fill="url(#SVGID_00000011014432792592168330000001935584200799819169_)" enable-background="new    " d="
	M789.4-204.2c21.4-154.7,24.7-271.1-10.7-378.9c-32.7-99.3-95.2-187-151.9-160.4c-46.1,21.7-91.5,78.5-132.3,153.4
	c-24.7,45.2-52,77.3-79.8,95.6c-30.8,20.2-69.3,38.2-98.5,27.8c-57.3-20.6-108.8-78.1-162-123.9C45.3-684.5-84.4-725.8-201.9-567
	c-56.7,76.5-111.6,223.7-108.7,371.2c2.2,114,38.3,197.9,34.4,314.7c-4.4,131.9-55.6,239.1-97.1,338.7
	c-39.3,94.3-74.6,202.9-96.9,324s-30.7,255.8-16.3,366.4c18.7,144,74.2,230.2,135.7,246.3c61.5,16.1,128.1-30,190.5-99.1
	s122.1-160.8,183-243.2c20.6-27.9,44.5-55.5,63-36.5c20.9,21.4,24.4,89.5,31.9,144c16.7,122,62.2,197.5,113.1,222.9
	s106.9,6.5,161.8-23c61.1-32.8,124.5-81.6,176.8-186.4c52.4-104.8,90.6-278.3,77.7-420.9c-8.2-90.5-35.5-162.1-32.5-260.1
	c3.1-101.2,37-191.5,66.5-274C726.5,91.5,768-49.4,789.4-204.2z"/>
<g display="none" opacity="0.5">
	<path display="inline" opacity="0.65" fill="#FFFFFF" enable-background="new    " d="M-5.8,356.6c-9.1-11.2-22.8-15.8-36.1-12.4
		c-14.6,3.6-22.8,17.5-36.3,23.1c-23.6,9.7-56.3-9.5-74.3,15.5c-22,30.6-38.9,7.7-38.9,28.4c0,20.8,151.7,5.5,226.5,6.6
		c10.8,0.2,57.8-0.6,37.5-23.1c-6.3-7-15.2-8.1-23.6-9.8c-10.9-2.1-36.8-3.3-44.6-11.8c-4.2-4.6-5.9-11.1-9.7-16
		C-5.4,357-5.6,356.8-5.8,356.6z"/>
	<path display="inline" opacity="0.65" fill="#FFFFFF" enable-background="new    " d="M513.7-287.6c-5.3-7.5-13.2-10.6-21-8.4
		c-8.5,2.5-13.2,11.9-21.1,15.6c-13.7,6.6-32.7-6.4-43.1,10.5c-12.7,20.7-22.6,5.2-22.6,19.2s88,3.7,131.5,4.4
		c6.3,0.1,33.5-0.4,21.8-15.6c-3.6-4.7-8.8-5.5-13.7-6.6c-6.3-1.4-21.3-2.2-25.9-7.9c-2.5-3.1-3.4-7.5-5.6-10.8
		C513.9-287.3,513.8-287.4,513.7-287.6z"/>
	<path display="inline" opacity="0.65" fill="#FFFFFF" enable-background="new    " d="M415.5-269.3c-9.1-11.2-22.8-15.8-36.1-12.4
		c-14.6,3.6-22.8,17.6-36.3,23.1c-23.6,9.7-56.3-9.5-74.3,15.6c-22,30.6-38.9,7.6-38.9,28.4s151.7,5.5,226.5,6.6
		c10.8,0.2,57.8-0.6,37.5-23.1c-6.3-7-15.2-8.1-23.6-9.8c-10.9-2.1-36.8-3.3-44.7-11.8c-4.2-4.6-5.9-11.1-9.7-16
		C415.8-268.9,415.7-269.1,415.5-269.3z"/>
	<path display="inline" opacity="0.65" fill="#FFFFFF" enable-background="new    " d="M28.5-361.8C19.4-373,5.7-377.6-7.6-374.2
		c-14.6,3.6-22.8,17.5-36.3,23.1c-23.6,9.7-56.3-9.5-74.3,15.6c-22,30.6-38.9,7.7-38.9,28.4s151.7,5.5,226.5,6.6
		c10.8,0.2,57.8-0.6,37.5-23.1c-6.3-7-15.2-8.1-23.6-9.8c-10.9-2.1-36.8-3.3-44.6-11.8c-4.2-4.6-5.9-11.1-9.7-16
		C28.8-361.4,28.7-361.6,28.5-361.8z"/>
</g>
<g display="none" opacity="0.7">
	<rect x="-171.1" y="913.9" display="inline" fill="#D77D25" width="151.8" height="19.4"/>
	<path display="inline" fill="#FD8B04" d="M-175.8,900.6l11.4-10.6c3.2-3,9.4-5.4,13.8-5.4h53.7c4.4,0,11.1,1.7,15,3.8l23.5,12.8
		c3.9,2.1,10.5,4.5,14.8,5.4l25.6,5.3c4.3,0.9,8.5,5.2,9.3,9.5l0.8,4.1c0.8,4.3-2.1,7.8-6.5,7.8h-10.7c0-8.2-6.7-14.9-14.9-14.9
		s-14.9,6.7-14.9,14.9h-82.6c0-8.2-6.7-14.9-14.9-14.9s-14.9,6.7-14.9,14.9h-6.3c-4.4,0-8-3.6-8-8v-11.4
		C-181.7,909.6-179,903.6-175.8,900.6z"/>
	<g display="inline">
		<g>
			<g>
				<rect x="-108.2" y="905.9" fill="#FD6E03" width="46.5" height="26"/>
				<path fill="#1F2527" d="M-99.4,909c0,0.4-0.3,0.7-0.7,0.7h-4.6c-0.4,0-0.7-0.3-0.7-0.7l0,0c0-0.4,0.3-0.7,0.7-0.7h4.6
					C-99.7,908.3-99.4,908.6-99.4,909L-99.4,909z"/>
			</g>
			<g>
				<path fill="#FD6E03" d="M-110.7,905.9h-32.5v14.3c0,0,7.5,2.7,7.5,11.6h25V905.9z"/>
				<path fill="#1F2527" d="M-135.3,909c0,0.4-0.3,0.7-0.7,0.7h-4.6c-0.4,0-0.7-0.3-0.7-0.7l0,0c0-0.4,0.3-0.7,0.7-0.7h4.5
					C-135.7,908.3-135.3,908.6-135.3,909L-135.3,909z"/>
			</g>
		</g>
		<g>
			<g>
				<path fill="#1F2527" d="M-62.4,904.4c0.9,0,0.9-0.3,0.2-0.7l-27.2-13.5c-0.8-0.4-2.2-0.7-3-0.7h-14.1c-0.9,0-1.6,0.7-1.6,1.6
					v11.7c0,0.9,0.7,1.6,1.6,1.6L-62.4,904.4L-62.4,904.4z"/>
				<path fill="#1F2527" d="M-144.2,902.8c0,0.9,0.8,1.6,1.8,1.6h29.8c1,0,1.8-0.7,1.8-1.6v-11.7c0-0.9-0.8-1.6-1.8-1.6h-29.8
					c-1,0-1.8,0.7-1.8,1.6V902.8L-144.2,902.8z"/>
				<path fill="#1F2527" d="M-166.1,897.2l9.2-6.6c0.8-0.6,2.2-1,3.2-1h10.5c-1,0-1.5,0.7-1.5,1.6v11.7c0,0.9,0.5,1.6,1.5,1.6h-22.5
					c-1,0-1.8-0.7-1.8-1.6v-3.1C-167.5,898.9-166.9,897.7-166.1,897.2z"/>
			</g>
			<path fill="#F77B04" d="M-63.7,900.2c0,0,2.6,0.2,2.6,2.9s-2.6,2.9-2.6,2.9h-3.9v-2.9v-2.9H-63.7z"/>
		</g>
	</g>
	<g display="inline">
		<path fill="#8D9095" d="M-182.5,934.6c0,1.6,1.3,2.9,2.9,2.9H-8.5c1.6,0,2.9-1.3,2.9-2.9v-2.3c0-1.6-1.3-2.9-2.9-2.9h-171.1
			c-1.6,0-2.9,1.3-2.9,2.9C-182.5,932.2-182.5,934.6-182.5,934.6z"/>
		<g>
			<g>
				<path fill="#44474A" d="M-26.9,933.4c0,7.2-5.9,13.1-13.1,13.1s-13.1-5.9-13.1-13.1s5.9-13.1,13.1-13.1
					C-32.8,920.3-26.9,926.1-26.9,933.4z"/>
				<path fill="#43454A" d="M-32.1,933c0,4.4-3.6,7.9-7.9,7.9c-4.4,0-7.9-3.6-7.9-7.9c0-4.4,3.6-7.9,7.9-7.9S-32.1,928.7-32.1,933z"
					/>
			</g>
			<g>
				<path fill="#44474A" d="M-139.3,933.4c0,7.2-5.9,13.1-13.1,13.1s-13.1-5.9-13.1-13.1s5.9-13.1,13.1-13.1
					C-145.2,920.3-139.3,926.1-139.3,933.4z"/>
				<path fill="#43454A" d="M-144.5,933c0,4.4-3.6,7.9-7.9,7.9c-4.4,0-7.9-3.6-7.9-7.9c0-4.4,3.5-7.9,7.9-7.9
					C-148.1,925.1-144.5,928.7-144.5,933z"/>
			</g>
		</g>
	</g>
	<g display="inline">
		<path fill="#FDA947" d="M-11.3,920.9c-0.4-0.8-1.7-1.5-2.9-1.5h-4.2c-1.2,0-2.3,0.6-2.3,1.3s0.9,1.7,2,2.2l2,0.8
			c1.1,0.5,3,0.9,4.1,0.9s2-0.5,2-1.1C-10.6,922.8-10.9,921.7-11.3,920.9z"/>
		<polygon fill="#FD8B07" points="-181.6,913.3 -177.8,913.3 -179.7,923.7 -181.6,923.7 		"/>
	</g>
</g>
<g display="none">
	<path display="inline" opacity="0.2" fill="#B495C1" enable-background="new    " d="M377.7,343.6H-7.9
		c-101.2,0-183.2-82-183.2-183.2V13.8c0-101.2,82-183.2,183.2-183.2h385.6c101.2,0,183.2,82,183.2,183.2v146.6
		C560.9,261.6,478.9,343.6,377.7,343.6z"/>
	<g display="inline">
		<g>
			<g transform="translate(1086.281208, 49.014148)">
				<g>
					<path d="M-1206.1-107.9c-1.9,0.1-3.2,1-3.8,2.8c-1.8,4.5-3.1,9.7-3.9,15.4c-0.2,1.1,0.1,2.1,0.8,3.2c0.7,1,1.7,1.5,2.8,1.7
						s2.1-0.1,3-0.8c1-0.7,1.6-1.7,1.7-2.8c0.7-5,1.9-9.5,3.5-13.4c0.6-1.5,0.4-2.9-0.5-4.1C-1203.3-107.4-1204.5-108-1206.1-107.9z
						 M-1211-82.1c-0.3,0-0.6,0-0.8,0c-0.2,0-0.5,0.1-0.8,0.2c-0.1,0-0.2,0-0.4,0.1c-0.2,0.1-0.3,0.1-0.3,0.2
						c-0.1,0.1-0.1,0.1-0.1,0.1c-0.2,0.1-0.3,0.1-0.4,0.2c0,0.1,0,0.1-0.1,0.1s-0.1,0-0.2,0.1c0,0,0,0-0.1,0.1
						c-0.7,0.5-1.3,1.2-1.6,2.1c-0.3,0.9-0.3,1.8,0,2.7c0.3,0.9,0.8,1.6,1.6,2.2c0.8,0.5,1.7,0.8,2.5,0.8c0.3,0,0.5,0,0.7,0
						c0.2-0.1,0.4-0.1,0.5-0.1c0.7-0.1,1.3-0.4,2-0.9c0,0,0,0,0.1-0.1s0.1-0.2,0.1-0.2c0.7-0.6,1.2-1.3,1.4-2.2
						c0.3-0.9,0.3-1.8,0-2.5c-0.3-0.9-0.9-1.5-1.6-2C-1209.3-81.8-1210.1-82.1-1211-82.1z"/>
				</g>
			</g>
		</g>
		<g>
			<g transform="translate(1097.321185, 49.014148)">
				<g>
					<path d="M-1199.8-107.7c-0.9,0-1.7,0.3-2.5,0.8c-0.8,0.6-1.3,1.2-1.6,2c-0.3,0.9-0.3,1.7-0.1,2.7c0.3,0.9,0.7,1.6,1.4,2.2
						l-4,20.4c-0.1,0.1-0.1,0.2-0.2,0.4c-0.6,1.4-0.4,2.7,0.4,4s2.1,1.9,3.7,1.9c4.4,0,8.7,0,13-0.1c4.5-0.1,8.5-0.1,11.9-0.1h0.1
						c0.4,0.1,0.8,0.1,1.2,0h0.2c1.7,0,3-0.8,3.8-2.3s0.7-3-0.2-4.4c0.7-9.1,2.1-16.3,4.3-21.7c0.6-1.4,0.4-2.8-0.4-4.1
						c-0.9-1.2-2.1-1.8-3.6-1.8L-1199.8-107.7z M-1178.4-99.2c-1.3,4.7-2.2,10.4-2.7,17.2c-2.2,0-4.9,0-8.1,0.1
						c-3.3,0.1-6.1,0.1-8.3,0.2l3.5-17.2L-1178.4-99.2z"/>
				</g>
			</g>
		</g>
		<g>
			<g transform="translate(1122.473146, 49.014148)">
				<g>
					<path d="M-1179.7-107.8c-0.9,0.1-1.8,0.4-2.6,0.9c-0.8,0.6-1.3,1.3-1.6,2.2c-1.7,4.1-2.9,8.6-3.8,13.5
						c-0.2,1.2,0.1,2.4,0.9,3.5c0.7,1.1,1.7,1.8,3,2c1.2,0.2,2.3-0.1,3.4-0.9s1.8-1.8,2-3c0.7-4.2,1.8-8.2,3.3-11.8
						c0.6-1.5,0.5-3-0.5-4.4C-1176.7-107.1-1178.1-107.8-1179.7-107.8z"/>
				</g>
			</g>
		</g>
		<g>
			<g transform="translate(1132.889123, 49.014148)">
				<g>
					<path d="M-1172.6-107.7c-1.2,0-2.2,0.5-3.1,1.4c-0.8,0.9-1.3,1.9-1.3,3s0.5,2.1,1.4,3c0.8,0.9,1.9,1.3,3.1,1.3l16.2-0.2
						c-0.5,1.9-1,3.8-1.4,5.7h-16.3c-1.1,0-2.1,0.4-2.9,1.1s-1.2,1.6-1.4,2.6l-1.6,11.9c-0.1,1.2,0.3,2.3,1.1,3.2
						c0.9,0.9,1.9,1.3,3,1.4c1.2,0.1,2.2-0.3,3.1-1.2c0.9-0.8,1.4-1.8,1.4-2.9c0.1-1.5,0.4-4,0.9-7.5h11.5c-0.2,2-0.4,4.4-0.6,6.9
						c-0.1,1.1,0.3,2.2,1.1,3.1c0.8,1,1.8,1.5,2.9,1.5c1.2,0.1,2.2-0.3,3.1-1.1c0.9-0.8,1.4-1.8,1.5-2.9c0.3-4.6,0.7-8.3,1-11
						c0.1-0.1,0.1-0.2,0.1-0.4c0.7-4.9,1.9-9.3,3.4-13.1c0.5-1.4,0.3-2.8-0.5-4.1c-0.8-1.2-2-1.8-3.6-1.8L-1172.6-107.7z"/>
				</g>
			</g>
		</g>
		<g>
			<g transform="translate(1154.873085, 49.014148)">
				<g>
					<path d="M-1158.4-109.1c-1.3-0.1-2.4,0.4-3.2,1.3c-0.8,0.9-1.2,2-1.2,3.2l1.8,27.2c0,1.4,0.5,2.4,1.6,3.1
						c1.1,0.9,2.3,1.1,3.6,0.9h0.3c4.4,0,8.7-0.1,13-0.2c4.5,0,8.4,0,11.5,0c0.4,0,0.8,0,1.1,0h0.7c1.9,0,3.2-0.9,4-2.5
						c0.7-1.8,0.5-3.3-0.8-4.6c0.7-8.8,2.1-15.9,4.2-21.2c0.6-1.4,0.5-2.8-0.4-4.1c-0.8-1.2-2.1-1.8-3.7-1.8c-1.9,0.1-3.1,1-3.8,2.7
						c-2.4,6.1-4,13.8-4.8,23c-2,0-3.9,0-5.6,0c-0.7-4.8,0.3-11.5,2.9-20.2c0.5-1.4,0.3-2.7-0.6-3.9c-0.9-1.1-2.1-1.7-3.6-1.6
						c-0.9,0-1.7,0.3-2.5,0.9c-0.7,0.6-1.3,1.3-1.5,2.1c-2.8,9.4-3.9,17-3.3,22.8c-1.1,0-2.5,0-4.1,0l-1.5-23.1c0-1-0.4-2-1.3-2.8
						C-1156.3-108.7-1157.3-109.1-1158.4-109.1z"/>
				</g>
			</g>
		</g>
		<g>
			<g transform="translate(1181.129035, 49.014148)">
				<g>
					<path d="M-1133.5-107.9c-1.9,0.1-3.2,1-3.8,2.7c-2.6,6.5-4.3,15.6-5.1,27.2c-0.1,1.1,0.3,2.2,1.1,3.1c0.8,1,1.8,1.5,3,1.5
						c1.1,0.1,2.1-0.3,3.1-1.1c0.9-0.8,1.4-1.8,1.4-2.9c0.7-10.7,2.2-18.9,4.5-24.6c0.6-1.4,0.5-2.8-0.4-4.2
						C-1130.6-107.3-1131.9-107.9-1133.5-107.9z"/>
				</g>
			</g>
		</g>
		<g>
			<g transform="translate(1191.689013, 49.014148)">
				<g>
					<path d="M-1103.7-107.9c-0.1,0-0.3,0-0.6,0c-0.8,0-1.8,0.1-2.8,0.3c-0.2,0.1-0.5,0.1-0.7,0.2c-4.3,1.5-8.3,3.9-11.9,7.2
						c-0.5-1.6-1-3.3-1.6-4.9c-0.7-1.8-2.1-2.7-4-2.7c-1.5,0-2.7,0.6-3.6,1.9c-0.8,1.3-1,2.7-0.3,4c1.1,3,2.1,6.2,2.8,9.7
						c-2.5,3.6-4.9,7.9-7.2,12.8c-0.5,1.1-0.6,2.2-0.2,3.3c0.4,1.1,1.2,2,2.3,2.5s2.2,0.5,3.3,0.1c1.1-0.5,1.9-1.3,2.4-2.5
						c5.5-12.5,12.3-20.2,20.4-23.1c0.5-0.1,0.9-0.1,1.3-0.1c0,0.7-0.1,1.3-0.2,1.7c-1.8,9.4-2.6,14.5-2.6,15.4h-1.1
						c-0.6,0-0.9,0-1.1,0c-0.1,0.1-0.1,0.1-0.2,0.1s-0.2,0-0.2,0c-0.1,0-0.1,0-0.2,0c-0.6,0-2.5,0-5.7,0c-1.2,0-2.2,0.5-3,1.4
						c-0.9,0.9-1.4,1.8-1.4,2.9c0,1.2,0.5,2.2,1.4,3.1c0.8,0.9,1.8,1.2,3,1.2c2.8,0,4.7,0,5.9,0c0.4,0,0.8,0,1.1,0
						c0,0,0.1,0,0.2-0.1c0.2,0,0.2,0,0.2-0.1c1,0,2.8,0,5.4,0c1.2,0,2.3-0.5,3.1-1.5c0.8-1,1.2-2.1,1.1-3.3
						c-0.3-1.9,0.5-7.7,2.3-17.5c0.7-3.9,0.4-6.9-1-8.9c-1.1-1.5-2.7-2.5-4.8-2.8C-1102.3-107.8-1103-107.9-1103.7-107.9z
						 M-1106.1-74.6c-0.3,0.3-0.5,0.5-0.6,0.6c0.1-0.1,0-0.1-0.2,0C-1106.8-74.1-1106.5-74.3-1106.1-74.6z"/>
				</g>
			</g>
		</g>
		<g>
			<g transform="translate(1226.440953, 49.014148)">
				<g>
					<path d="M-1101.8-107.6c-1.1,0-2.1,0.4-3,1.3s-1.4,1.9-1.4,3c0.1,1.2,0.5,2.2,1.4,3c0.9,0.9,2,1.2,3.1,1.2l16.1-0.1
						c-1.5,5.3-2.5,12.4-3.2,21.2c-0.1,1.1,0.3,2.1,1.1,3.1c0.8,0.9,1.8,1.4,2.9,1.4c1.1,0.1,2.2-0.3,3.1-1.1
						c0.9-0.7,1.4-1.7,1.5-2.9c0.7-10.6,2.2-18.8,4.5-24.6c0.6-1.4,0.4-2.8-0.4-4s-2-1.9-3.6-1.9L-1101.8-107.6z M-1099.4-91
						c-1.1,0-2,0.4-2.9,1.2c-0.8,0.8-1.2,1.7-1.4,2.7l-3.5,33.1c-0.1,1.1,0.2,2.2,1,3.2c0.8,0.9,1.7,1.4,2.8,1.6
						c1.1,0.1,2.2-0.2,3.2-1s1.5-1.7,1.6-2.8l3.4-33.1c0.2-1.3-0.2-2.4-1-3.4C-1097-90.5-1098.1-91-1099.4-91z"/>
				</g>
			</g>
		</g>
		<g>
			<g transform="translate(1247.41692, 49.014148)">
				<g>
					<path d="M-1086.6-107.7c-1.2,0.1-2.2,0.5-3,1.4s-1.3,1.9-1.3,3c0.1,1.2,0.5,2.2,1.4,3c0.9,0.9,1.9,1.2,3,1.2l16.2-0.1
						c-1.5,5.3-2.5,12.4-3.2,21.2c-0.1,1.1,0.3,2.2,1.1,3.1c0.8,1,1.8,1.5,2.9,1.5c1.1,0.1,2.1-0.3,3-1.1c1-0.8,1.5-1.8,1.5-2.9
						c0.7-10.7,2.2-18.9,4.5-24.6c0.6-1.4,0.4-2.8-0.4-4.1c-0.9-1.2-2.1-1.8-3.7-1.8L-1086.6-107.7z"/>
				</g>
			</g>
		</g>
		<g>
			<g transform="translate(1267.720889, 49.014148)">
				<g>
					<path d="M-1066.2-107.8c-1,0.1-1.8,0.4-2.6,1.1c-0.8,0.7-1.4,1.5-1.5,2.5v0.1c0,0,0,0-0.1,0.1l-2.5,12.1
						c-0.3,1.3-0.1,2.4,0.7,3.4c0.8,1,1.8,1.6,3.1,1.7l9.1,0.9c1.2,0.1,2.2-0.2,3.2-1s1.5-1.8,1.6-2.9s-0.2-2.1-1-3
						c-0.8-1-1.8-1.5-2.9-1.6l-4.2-0.3l0.8-4.4l12.8-0.2c-1.4,4.8-2.3,10.5-2.9,17.2c-1.2,0-3.7,0-7.6,0.1
						c-2.9,0.1-6.4,0.2-10.6,0.2c-1.1-0.1-2.1,0.4-3,1.2c-0.9,0.9-1.4,1.9-1.4,3s0.5,2.1,1.4,3c0.8,0.9,1.8,1.3,3,1.3
						c4.4,0,8.3,0,11.7-0.1c3.6-0.1,6.9-0.1,9.7-0.1c0.5,0.1,1.1,0.1,1.6,0h0.4c1.8,0,3.1-0.9,3.9-2.5c0.8-1.7,0.6-3.2-0.7-4.6
						c0.7-8.9,2.1-16,4.2-21.4c0.6-1.4,0.4-2.8-0.5-4c-0.8-1.2-2-1.9-3.6-1.9L-1066.2-107.8z"/>
				</g>
			</g>
		</g>
		<g>
			<g transform="translate(1290.664849, 49.014148)">
				<g>
					<path d="M-1047.9-120.6c-1.9,0-3.2,0.9-3.9,2.7c-1.3,3.4-2.4,7.1-3.2,11.1c-1.6,1.2-2,2.8-1.4,4.8c0.7,2,2.1,2.9,4.2,2.9
						l15.5-0.2c-1.4,5.1-2.5,12.2-3.1,21.3c-0.1,1.1,0.3,2.2,1.1,3.1c0.8,0.9,1.8,1.4,2.9,1.5c1.2,0.1,2.2-0.3,3.1-1.1
						c0.9-0.8,1.4-1.8,1.5-2.9c0.7-10,2-17.6,3.8-22.9c1.6-1.2,2-2.8,1.4-4.8c-0.6-1.9-2-2.9-4-2.9c-0.3-0.1-0.6-0.1-0.9-0.1
						c-0.2,0-0.4,0-0.6,0.1l-14.5,0.1c0.6-2.4,1.4-4.7,2.2-6.8c0.6-1.5,0.4-2.9-0.5-4.2C-1045-120.1-1046.3-120.7-1047.9-120.6z"/>
				</g>
			</g>
		</g>
		<g>
			<g transform="translate(1321.432792, 49.014148)">
				<g>
					<path d="M-1025.7-107.7c-0.9,0-1.7,0.3-2.5,0.8c-0.8,0.6-1.3,1.2-1.6,2c-0.3,0.9-0.3,1.7-0.1,2.7c0.3,0.9,0.7,1.6,1.4,2.2
						l-4,20.4c-0.1,0.1-0.1,0.2-0.2,0.4c-0.6,1.4-0.4,2.7,0.4,4s2.1,1.9,3.7,1.9c4.4,0,8.7,0,13-0.1c4.5-0.1,8.5-0.1,11.9-0.1h0.1
						c0.4,0.1,0.8,0.1,1.2,0h0.2c1.7,0,3-0.8,3.8-2.3s0.7-3-0.2-4.4c0.7-9.1,2.1-16.3,4.3-21.7c0.6-1.4,0.4-2.8-0.4-4.1
						c-0.9-1.2-2.1-1.8-3.6-1.8L-1025.7-107.7z M-1004.3-99.2c-1.3,4.7-2.2,10.4-2.7,17.2c-2.2,0-4.9,0-8.1,0.1
						c-3.3,0.1-6.1,0.1-8.3,0.2l3.5-17.2L-1004.3-99.2z"/>
				</g>
			</g>
		</g>
		<g>
			<g transform="translate(1346.584754, 49.014148)">
				<g>
					<path d="M-998.2-107.9c-0.5,0-1,0.1-1.4,0.2h-1.5c-2,0-3.3,0.9-4,2.8c-0.3,0.8-0.4,1.7-0.1,2.6c0.2,0.9,0.7,1.6,1.4,2.2
						c-1.5,4.9-2.5,10.9-3,18.2c-0.5,0-1.4,0-2.8,0c-1.1,0-2.2,0.4-3,1.3s-1.3,1.9-1.3,3s0.4,2.1,1.3,3c0.9,0.9,1.9,1.3,3,1.3
						c1.7,0,3.1,0,4.1-0.1c0.5-0.1,1.2-0.1,2.2-0.1c0.3,0.1,0.7,0.1,1.1,0h0.2c1.8,0,3.1-0.8,3.9-2.3c0.8-1.6,0.7-3.1-0.4-4.5
						c0.6-7.7,1.7-14,3.2-18.8l10.3-0.1c-1.5,5.3-2.5,12.3-3,21.1c-0.1,1.1,0.2,2.2,1,3.2c0.8,0.9,1.8,1.4,2.9,1.4
						c1.1,0.1,2.1-0.3,3-1.1c0.9-0.8,1.4-1.7,1.5-2.8c0.7-10.8,2.2-18.9,4.4-24.6c0.6-1.4,0.4-2.7-0.4-4c-0.8-1.2-2-1.9-3.6-1.9
						l-17.7,0.2C-997.3-107.8-997.7-107.9-998.2-107.9z"/>
				</g>
			</g>
		</g>
		<g>
			<g transform="translate(1371.592702, 49.014148)">
				<g>
					<path d="M-977.2-107.9c-1.9,0.1-3.1,1-3.8,2.8c-2.4,6.1-4,13.8-4.8,23.2c-2.2,0-4.1,0-5.5,0c-1.1,0-2.2,0.4-3,1.3
						s-1.3,1.9-1.3,3s0.4,2.1,1.3,2.9c0.9,0.9,1.9,1.3,3,1.3c4.4,0,8.9,0,13.4-0.1s8.7-0.1,12.7-0.1c1.3,0.2,2.3-0.1,3.2-0.9
						c1-0.7,1.5-1.7,1.6-3c0.7-10.7,2.2-18.8,4.4-24.5c0.6-1.5,0.5-2.9-0.4-4.1c-0.9-1.3-2.1-1.9-3.7-1.9c-1.9,0.1-3.2,1-3.8,2.8
						c-2.5,6.1-4.1,13.8-4.8,23c-3.2,0-6,0-8.6,0c0.7-8.1,2.1-14.7,4.2-19.9c0.6-1.5,0.4-2.9-0.4-4.1
						C-974.4-107.4-975.6-108-977.2-107.9z"/>
				</g>
			</g>
		</g>
		<g>
			<g transform="translate(1396.456661, 49.014148)">
				<g>
					<path d="M-967.8-107.7c-1.2,0-2.2,0.5-3.1,1.4c-0.8,0.9-1.3,1.9-1.3,3s0.5,2.1,1.4,3c0.8,0.9,1.9,1.3,3.1,1.3l16.2-0.2
						c-0.5,1.9-1,3.8-1.4,5.7h-16.3c-1.1,0-2.1,0.4-2.9,1.1c-0.8,0.7-1.2,1.6-1.4,2.6l-1.6,11.9c-0.1,1.2,0.3,2.3,1.1,3.2
						c0.9,0.9,1.9,1.3,3,1.4c1.2,0.1,2.2-0.3,3.1-1.2c0.9-0.8,1.4-1.8,1.4-2.9c0.1-1.5,0.4-4,0.9-7.5h11.5c-0.2,2-0.4,4.4-0.6,6.9
						c-0.1,1.1,0.3,2.2,1.1,3.1c0.8,1,1.8,1.5,2.9,1.5c1.2,0.1,2.2-0.3,3.1-1.1c0.9-0.8,1.4-1.8,1.5-2.9c0.3-4.6,0.7-8.3,1-11
						c0.1-0.1,0.1-0.2,0.1-0.4c0.7-4.9,1.9-9.3,3.4-13.1c0.5-1.4,0.3-2.8-0.5-4.1c-0.8-1.2-2-1.8-3.6-1.8L-967.8-107.7z"/>
				</g>
			</g>
		</g>
		<g>
			<g transform="translate(1418.440623, 49.014148)">
				<g>
					<path d="M-951.6-107.7c-1.1,0-2.2,0.5-3,1.4c-0.9,0.9-1.3,1.9-1.3,3c0.1,1.2,0.5,2.2,1.4,3c0.9,0.9,1.9,1.2,3,1.2l16.2-0.1
						c-1.5,5.3-2.5,12.4-3.1,21.2c-0.1,1.1,0.2,2.2,1,3.1c0.8,1,1.8,1.5,2.9,1.5c1.1,0.1,2.1-0.3,3-1.1c1-0.8,1.5-1.8,1.5-2.9
						c0.7-10.7,2.2-18.9,4.5-24.6c0.6-1.4,0.4-2.8-0.4-4.1c-0.8-1.2-2.1-1.8-3.7-1.8L-951.6-107.7z M-952.6-92.8
						c-1.1-0.1-2,0.3-2.9,1c-0.8,0.8-1.3,1.7-1.4,2.8c-0.4,2.7-0.8,6.4-1.1,11.2c-0.1,1.1,0.3,2.2,1.1,3.1c0.8,1,1.8,1.5,3,1.5
						c1.1,0.1,2.1-0.3,3.1-1.1c0.9-0.8,1.4-1.8,1.4-2.9c0.3-4.5,0.7-8.1,1-10.6c0.2-1.3-0.2-2.5-0.9-3.4
						C-950.2-92.3-951.3-92.8-952.6-92.8z"/>
				</g>
			</g>
		</g>
	</g>
	<g display="inline">
		<g>
			<g transform="translate(620.445272, 91.601101)">
				<g>
					<path d="M-653.8,71.8c-0.1,0-0.3,0-0.5,0s-0.5,0.1-0.7,0.2c0,0-0.1,0-0.2,0.1c-0.1,0.1-0.2,0.1-0.2,0.1h-0.1
						c-0.1,0.1-0.2,0.1-0.3,0.2c0,0,0,0.1-0.1,0.1s-0.1,0.1-0.1,0.1l-0.1,0.1c-0.6,0.4-1,0.9-1.2,1.6s-0.2,1.4,0,2
						c0.2,0.7,0.6,1.2,1.2,1.7c0.6,0.4,1.2,0.6,1.9,0.6c0.2,0,0.4,0,0.5,0s0.2-0.1,0.4-0.1c0.5-0.1,1-0.3,1.5-0.7c0,0,0,0,0-0.1
						l0.1-0.1c0.5-0.4,0.9-1,1-1.7c0.2-0.7,0.2-1.3,0-1.9s-0.7-1.1-1.2-1.5C-652.5,71.9-653.1,71.8-653.8,71.8z"/>
				</g>
			</g>
		</g>
		<g>
			<g transform="translate(628.509259, 91.601101)">
				<g>
					<path d="M-651.2,52.6c-1.2,0-2.2,0.5-2.8,1.6s-0.6,2.2,0,3.2c0,0.1,0,0.2,0,0.3l2.2,17.8c0.1,0.8,0.4,1.5,1,2
						c0.7,0.6,1.4,0.8,2.2,0.8h8.1c0.7,0,1.3-0.2,1.9-0.7c0.6-0.4,1-0.9,1.2-1.6l5.8-18.9c0.1-0.2,0.1-0.4,0.1-0.7
						c0.3-1,0.1-2-0.5-2.9c-0.7-0.8-1.6-1.2-2.6-1.2L-651.2,52.6z M-642.9,71.9h-2.9l-1.5-12.9l8.5-0.1L-642.9,71.9z"/>
				</g>
			</g>
		</g>
		<g>
			<g transform="translate(649.101219, 91.601101)">
				<g>
					<path d="M-642.8,45c-0.6,0-1.2,0.2-1.7,0.6s-0.9,0.9-1.1,1.5c-0.9,2.2-1.6,4.5-2.2,6.9c-0.2,0.9,0,1.7,0.5,2.4s1.1,1.2,1.9,1.4
						c0.8,0.2,1.6,0,2.4-0.5s1.2-1.2,1.4-2c0.5-2.2,1.1-4.1,1.9-6c0.4-1.1,0.3-2.1-0.3-3.1C-640.8,45.4-641.7,45-642.8,45z
						 M-634.3,45c-0.6,0-1.2,0.2-1.7,0.6c-0.6,0.4-0.9,0.9-1.1,1.5c-0.9,2.2-1.6,4.5-2.1,6.9c-0.2,0.9-0.1,1.7,0.5,2.4
						c0.5,0.7,1.1,1.2,1.9,1.4c0.9,0.2,1.7,0,2.4-0.5c0.8-0.5,1.2-1.2,1.4-2c0.5-2.2,1.1-4.1,1.8-6c0.5-1.1,0.4-2.1-0.3-3.1
						C-632.3,45.4-633.2,45-634.3,45z"/>
				</g>
			</g>
		</g>
		<g>
			<g transform="translate(664.797191, 91.601101)">
				<g>
					<path d="M-619.9,52.4c-0.1,0-0.2,0-0.4,0c-0.6,0-1.3,0.1-2.1,0.2c-0.2,0-0.4,0.1-0.5,0.1c-3.2,1.1-6.2,2.9-8.9,5.4
						c-0.4-1.2-0.8-2.5-1.2-3.7c-0.6-1.4-1.6-2-3-2c-1.1,0-2,0.5-2.7,1.4c-0.6,1-0.7,2-0.2,3c0.8,2.2,1.5,4.7,2.1,7.3
						c-1.9,2.7-3.7,5.9-5.4,9.6c-0.4,0.8-0.4,1.6-0.1,2.5s0.9,1.5,1.7,1.8c0.8,0.4,1.7,0.4,2.5,0.1s1.4-1,1.8-1.9
						c4.1-9.3,9.2-15.1,15.3-17.4c0.3,0,0.7-0.1,1-0.1c0,0.5,0,1-0.1,1.3c-1.3,7-2,10.9-2,11.5h-0.8c-0.4,0-0.7,0-0.8,0l-0.1,0.1
						c-0.1,0-0.1,0-0.1,0h-0.1c-0.5,0-1.9,0-4.3,0c-0.9,0-1.6,0.3-2.2,1c-0.7,0.6-1,1.4-1,2.2c0,0.9,0.3,1.7,1,2.3
						c0.6,0.6,1.4,0.9,2.2,0.9c2.1,0,3.5,0,4.4,0c0.3,0,0.6,0,0.8,0c0,0,0.1,0,0.2-0.1c0.1,0,0.2,0,0.2-0.1c0.7,0,2.1,0,4,0
						c0.9,0,1.7-0.4,2.4-1.1c0.6-0.7,0.9-1.5,0.8-2.5c-0.2-1.4,0.4-5.8,1.7-13.1c0.5-2.9,0.3-5.2-0.8-6.7c-0.9-1.1-2-1.9-3.6-2.1
						C-618.8,52.5-619.4,52.4-619.9,52.4z M-621.7,77.4c-0.2,0.3-0.4,0.4-0.4,0.4c0-0.1,0-0.1-0.2,0
						C-622.2,77.7-622,77.6-621.7,77.4z"/>
				</g>
			</g>
		</g>
		<g>
			<g transform="translate(689.66115, 91.601101)">
				<g>
					<path d="M-627.8,52.4c-1.4,0-2.4,0.7-2.9,2c-2,4.9-3.2,11.7-3.8,20.4c0,0.9,0.2,1.6,0.8,2.3c0.6,0.7,1.3,1.1,2.2,1.2
						c0.8,0.1,1.6-0.2,2.3-0.8c0.7-0.6,1-1.3,1.1-2.2c0.5-8,1.7-14.2,3.4-18.4c0.5-1.1,0.4-2.1-0.3-3.1
						C-625.6,52.8-626.6,52.4-627.8,52.4z"/>
				</g>
			</g>
		</g>
		<g>
			<g transform="translate(700.221128, 91.601101)">
				<g>
					<path d="M-624.2,52.4c-0.3,0-0.7,0.1-1,0.2h-1.1c-0.6,0-1.3,0.2-1.9,0.6c-0.6,0.4-1,0.9-1.2,1.5s-0.2,1.2,0,1.9s0.5,1.2,1,1.6
						c-1.2,4-2,9.5-2.6,16.6c0,0.9,0.2,1.6,0.8,2.3c0.6,0.7,1.3,1.1,2.2,1.2c0.8,0.1,1.6-0.2,2.3-0.8c0.7-0.6,1-1.3,1.1-2.2
						c0.5-7,1.4-12.5,2.6-16.3h7.8c-1.1,4-1.9,9.3-2.4,15.9c0,0.9,0.2,1.6,0.8,2.3c0.6,0.7,1.3,1.1,2.2,1.1c0.9,0.1,1.6-0.2,2.4-0.8
						c0.7-0.6,1-1.3,1.1-2.2c0.5-8.1,1.7-14.2,3.4-18.4c0.4-1.1,0.3-2.1-0.4-3c-0.6-1-1.5-1.5-2.7-1.5l-13.3,0.2
						C-623.4,52.5-623.8,52.4-624.2,52.4z"/>
				</g>
			</g>
		</g>
		<g>
			<g transform="translate(721.533093, 91.601101)">
				<g>
					<path d="M-619,52.6c-0.9,0-1.6,0.3-2.3,1c-0.7,0.6-1,1.4-1,2.2c0,0.9,0.4,1.7,1,2.3c0.7,0.6,1.4,0.9,2.3,0.9l12.2-0.1
						c-1.1,4-1.9,9.3-2.3,15.9c-0.1,0.9,0.2,1.6,0.8,2.3c0.6,0.7,1.3,1.1,2.2,1.1c0.8,0.1,1.6-0.2,2.3-0.8c0.7-0.6,1.1-1.3,1.1-2.2
						c0.5-8,1.7-14.2,3.4-18.5c0.4-1.1,0.3-2.1-0.3-3.1c-0.6-0.9-1.6-1.3-2.8-1.3L-619,52.6z M-619.8,63.7c-0.8,0-1.5,0.2-2.2,0.8
						c-0.6,0.6-1,1.3-1.1,2.1c-0.3,2-0.6,4.8-0.8,8.4c0,0.9,0.2,1.6,0.8,2.3c0.6,0.7,1.3,1.1,2.2,1.1c0.8,0.1,1.6-0.2,2.3-0.8
						c0.7-0.6,1-1.3,1.1-2.2c0.2-3.4,0.5-6.1,0.8-7.9c0.1-1-0.1-1.8-0.7-2.6C-618,64.1-618.8,63.7-619.8,63.7z"/>
				</g>
			</g>
		</g>
		<g>
			<g transform="translate(752.973033, 91.601101)">
				<g>
					<path d="M-607.6,52.6c-0.7,0-1.3,0.2-1.9,0.6c-0.6,0.4-1,0.9-1.2,1.5s-0.2,1.3-0.1,2c0.2,0.7,0.5,1.2,1,1.6l-3,15.3
						c0,0.1-0.1,0.2-0.1,0.3c-0.4,1-0.3,2,0.3,3s1.5,1.5,2.8,1.4c3.3,0,6.5,0,9.8-0.1c3.4,0,6.4-0.1,8.9-0.1h0.1c0.3,0,0.6,0,0.9,0
						h0.2c1.3,0,2.2-0.6,2.9-1.7c0.6-1.1,0.5-2.3-0.2-3.3c0.5-6.8,1.6-12.3,3.2-16.3c0.4-1.1,0.3-2.1-0.3-3.1
						c-0.7-0.9-1.6-1.3-2.7-1.3L-607.6,52.6z M-591.5,58.9c-1,3.5-1.7,7.8-2,12.9c-1.6,0-3.7,0-6.1,0.1c-2.5,0-4.6,0.1-6.2,0.1
						l2.6-12.9L-591.5,58.9z"/>
				</g>
			</g>
		</g>
		<g>
			<g transform="translate(778.124994, 91.601101)">
				<g>
					<path d="M-598.3,52.4c-1.4,0-2.4,0.7-2.9,2c-2,4.9-3.2,11.7-3.8,20.4c0,0.9,0.2,1.6,0.8,2.3c0.6,0.7,1.3,1.1,2.2,1.2
						c0.8,0.1,1.6-0.2,2.3-0.8c0.7-0.6,1-1.3,1.1-2.2c0.5-8,1.7-14.2,3.4-18.4c0.5-1.1,0.4-2.1-0.3-3.1
						C-596.1,52.8-597.1,52.4-598.3,52.4z"/>
				</g>
			</g>
		</g>
		<g>
			<g transform="translate(788.684972, 91.601101)">
				<g>
					<path d="M-594.8,52.4c-0.3,0-0.7,0.1-1,0.2h-1.1c-0.6,0-1.3,0.2-1.9,0.6c-0.6,0.4-1,0.9-1.2,1.5s-0.2,1.2,0,1.9s0.5,1.2,1,1.6
						c-1.2,4-2,9.5-2.6,16.6c0,0.9,0.2,1.6,0.8,2.3c0.6,0.7,1.3,1.1,2.2,1.2c0.8,0.1,1.6-0.2,2.3-0.8c0.7-0.6,1-1.3,1.1-2.2
						c0.5-7,1.4-12.5,2.6-16.3h7.8c-1.1,4-1.9,9.3-2.4,15.9c0,0.9,0.2,1.6,0.8,2.3s1.3,1.1,2.2,1.1c0.9,0.1,1.6-0.2,2.4-0.8
						c0.7-0.6,1-1.3,1.1-2.2c0.5-8.1,1.7-14.2,3.4-18.4c0.4-1.1,0.3-2.1-0.4-3c-0.6-1-1.5-1.5-2.7-1.5l-13.3,0.2
						C-593.9,52.5-594.3,52.4-594.8,52.4z"/>
				</g>
			</g>
		</g>
		<g>
			<g transform="translate(809.996937, 91.601101)">
				<g>
					<path d="M-582.6,52.4c-0.4,0-0.7,0.1-1,0.2h-1.2c-1.5,0-2.5,0.7-3,2.1c-0.2,0.6-0.3,1.2-0.1,1.9s0.5,1.2,1,1.6
						c-1.1,3.6-1.9,8.2-2.3,13.6c-0.4,0-1,0-2.1,0c-0.9,0-1.6,0.3-2.3,1c-0.6,0.6-1,1.4-1,2.2c0,0.9,0.3,1.6,1,2.2s1.4,1,2.3,1
						c1.3,0,2.3,0,3.1-0.1c0.4,0,0.9-0.1,1.7-0.1c0.2,0,0.5,0,0.8,0h0.2c1.3,0,2.3-0.6,2.9-1.7c0.6-1.2,0.5-2.3-0.3-3.4
						c0.5-5.8,1.3-10.5,2.4-14.1l7.8-0.1c-1.1,4-1.9,9.2-2.3,15.8c-0.1,0.9,0.1,1.6,0.8,2.4c0.6,0.7,1.4,1,2.2,1.1
						c0.8,0,1.6-0.2,2.3-0.8c0.7-0.6,1.1-1.3,1.2-2.1c0.5-8.1,1.7-14.2,3.3-18.4c0.4-1,0.3-2-0.3-3c-0.6-0.9-1.5-1.4-2.7-1.4
						l-13.3,0.2C-581.9,52.5-582.3,52.4-582.6,52.4z"/>
				</g>
			</g>
		</g>
		<g>
			<g transform="translate(835.004909, 91.601101)">
				<g>
					<path d="M-580.7,52.6c-0.9,0-1.6,0.3-2.2,1c-0.7,0.6-1,1.4-1,2.2c0,0.9,0.3,1.6,1,2.2c0.6,0.6,1.4,1,2.3,1l12.1-0.1
						c-1,3.5-1.7,7.9-2.1,12.9c-4.8,0.1-8.9,0.1-12.2,0.1c-0.9,0-1.6,0.3-2.3,1c-0.6,0.6-1,1.4-1,2.2c0,0.9,0.3,1.6,1,2.2
						s1.4,1,2.3,1c-0.7,0,4.3,0,15-0.1h0.5c2.2,0,3.6,0,4.4,0s1.6-0.3,2.2-1c0.7-0.6,1-1.4,1-2.3c0-0.8-0.3-1.6-1-2.2
						c-0.6-0.6-1.4-1-2.2-1h-1.2c0.5-6.1,1.5-11,3.1-14.9c0.4-1.1,0.3-2.1-0.3-3.1c-0.6-0.9-1.5-1.3-2.7-1.3L-580.7,52.6z"/>
				</g>
			</g>
		</g>
		<g>
			<g transform="translate(867.260858, 91.601101)">
				<g>
					<path d="M-569.5,52.6c-0.7,0-1.3,0.2-1.9,0.6c-0.6,0.4-1,0.9-1.2,1.5s-0.2,1.3-0.1,2c0.2,0.7,0.5,1.2,1,1.6l-3,15.3
						c0,0.1-0.1,0.2-0.1,0.3c-0.4,1-0.3,2,0.3,3s1.5,1.5,2.8,1.4c3.3,0,6.5,0,9.8-0.1c3.4,0,6.4-0.1,8.9-0.1h0.1c0.3,0,0.6,0,0.9,0
						h0.2c1.3,0,2.2-0.6,2.9-1.7c0.6-1.1,0.5-2.3-0.2-3.3c0.5-6.8,1.6-12.3,3.2-16.3c0.4-1.1,0.3-2.1-0.3-3.1
						c-0.7-0.9-1.6-1.3-2.7-1.3L-569.5,52.6z M-553.4,58.9c-1,3.5-1.7,7.8-2,12.9c-1.6,0-3.7,0-6.1,0.1c-2.5,0-4.6,0.1-6.2,0.1
						l2.6-12.9L-553.4,58.9z"/>
				</g>
			</g>
		</g>
		<g>
			<g transform="translate(892.41282, 91.601101)">
				<g>
					<path d="M-560.7,52.5c-0.7,0-1.3,0.3-1.9,0.6c-0.6,0.4-1,1-1.2,1.7c-1.2,3.1-2.2,6.5-2.9,10.1c-0.2,0.9,0,1.8,0.6,2.6
						c0.5,0.8,1.3,1.3,2.2,1.5c0.9,0.1,1.8-0.1,2.6-0.6c0.8-0.6,1.3-1.3,1.5-2.2c0.5-3.2,1.4-6.1,2.5-8.8c0.5-1.1,0.3-2.3-0.4-3.3
						C-558.5,53-559.5,52.4-560.7,52.5z"/>
				</g>
			</g>
		</g>
		<g>
			<g transform="translate(902.828796, 91.601101)">
				<g>
					<path d="M-546,52.4c-1.5,0-2.4,0.7-2.9,2c-1.8,4.6-3,10.3-3.6,17.3c-0.9,0-1.7,0-2.7,0s-2.7,0.1-5.2,0.2c-0.8,0-1.5,0.3-2.2,1
						c-0.6,0.6-0.9,1.4-0.8,2.3c0,0.8,0.3,1.5,1,2.2s1.4,0.9,2.2,0.9c4.8-0.1,8.2-0.2,10.2-0.1c0.1,0,0.2,0,0.3,0h0.1
						c0.8,0,1.6-0.2,2.2-0.8c0.7-0.6,1-1.3,1.1-2.1c0.5-8.1,1.7-14.2,3.3-18.4c0.5-1.1,0.4-2.1-0.3-3.1
						C-543.9,52.8-544.8,52.4-546,52.4z"/>
				</g>
			</g>
		</g>
		<g>
			<g transform="translate(921.404777, 91.601101)">
				<g>
					<path d="M-550.5,52.4c-1.4,0-2.4,0.7-2.9,2c-2,4.9-3.2,11.7-3.8,20.4c0,0.9,0.2,1.6,0.8,2.3s1.3,1.1,2.2,1.2
						c0.8,0.1,1.6-0.2,2.3-0.8c0.7-0.6,1-1.3,1.1-2.2c0.5-8,1.7-14.2,3.4-18.4c0.5-1.1,0.4-2.1-0.3-3.1
						C-548.4,52.8-549.3,52.4-550.5,52.4z"/>
				</g>
			</g>
		</g>
		<g>
			<g transform="translate(931.964743, 91.601101)">
				<g>
					<path d="M-550.4,51.5c-1,0-1.8,0.3-2.4,1c-0.6,0.7-0.9,1.5-0.9,2.4l1.3,20.4c0,1,0.4,1.8,1.2,2.3c0.8,0.6,1.7,0.8,2.7,0.7h0.2
						c3.3,0,6.5,0,9.7-0.1c3.4,0,6.3,0,8.6,0c0.3,0,0.6,0,0.8,0h0.5c1.4,0,2.4-0.6,3-1.9c0.5-1.3,0.4-2.5-0.6-3.5
						c0.5-6.6,1.5-11.9,3.1-15.9c0.5-1.1,0.4-2.1-0.3-3.1c-0.6-0.9-1.6-1.4-2.8-1.3c-1.4,0-2.4,0.7-2.8,2c-1.8,4.6-3,10.3-3.6,17.3
						c-1.5,0-2.9,0-4.2,0c-0.5-3.6,0.2-8.6,2.2-15.2c0.3-1.1,0.2-2-0.4-3c-0.7-0.8-1.6-1.2-2.7-1.2c-0.7,0-1.3,0.2-1.9,0.7
						c-0.6,0.4-1,1-1.2,1.6c-2.1,7.1-2.9,12.8-2.5,17.1c-0.8,0-1.9,0-3.1,0l-1.1-17.4c0-0.8-0.3-1.5-1-2.1
						C-548.9,51.8-549.6,51.5-550.4,51.5z"/>
				</g>
			</g>
		</g>
		<g>
			<g transform="translate(958.220693, 91.601101)">
				<g>
					<path d="M-540.1,52.6c-0.9,0-1.6,0.3-2.3,1c-0.7,0.6-1,1.4-1,2.2c0,0.9,0.4,1.7,1,2.3c0.7,0.6,1.4,0.9,2.3,0.9l12.2-0.1
						c-1.1,4-1.9,9.3-2.3,15.9c-0.1,0.9,0.2,1.6,0.8,2.3s1.3,1.1,2.2,1.1c0.8,0.1,1.6-0.2,2.3-0.8c0.7-0.6,1.1-1.3,1.1-2.2
						c0.5-8,1.7-14.2,3.4-18.5c0.4-1.1,0.3-2.1-0.3-3.1c-0.6-0.9-1.6-1.3-2.8-1.3L-540.1,52.6z M-540.9,63.7c-0.8,0-1.5,0.2-2.2,0.8
						c-0.6,0.6-1,1.3-1.1,2.1c-0.3,2-0.6,4.8-0.8,8.4c0,0.9,0.2,1.6,0.8,2.3c0.6,0.7,1.3,1.1,2.2,1.1c0.8,0.1,1.6-0.2,2.3-0.8
						c0.7-0.6,1-1.3,1.1-2.2c0.2-3.4,0.5-6.1,0.8-7.9c0.1-1-0.1-1.8-0.7-2.6C-539.1,64.1-539.9,63.7-540.9,63.7z"/>
				</g>
			</g>
		</g>
	</g>
	<g display="inline">
		<g>
			<g transform="translate(989.660633, 91.601101)">
				<g>
					<path d="M-1078.7-7.4c-0.7,0-1.3,0.2-1.8,0.6c-0.6,0.4-1,0.9-1.2,1.5s-0.2,1.3-0.1,2c0.2,0.7,0.5,1.2,1,1.6l-3,15.3
						c0,0.1-0.1,0.2-0.1,0.3c-0.4,1-0.3,2,0.3,3s1.5,1.5,2.8,1.4c3.3,0,6.5,0,9.8-0.1c3.4,0,6.4-0.1,8.9-0.1h0.1c0.3,0,0.6,0,0.9,0
						h0.2c1.3,0,2.2-0.6,2.9-1.7c0.6-1.1,0.5-2.3-0.2-3.3c0.5-6.8,1.6-12.3,3.2-16.3c0.4-1.1,0.3-2.1-0.3-3.1
						c-0.7-0.9-1.6-1.3-2.7-1.3L-1078.7-7.4z M-1062.6-1.1c-1,3.5-1.7,7.8-2,12.9c-1.6,0-3.7,0-6.1,0.1c-2.5,0-4.6,0.1-6.2,0.1
						l2.6-12.9L-1062.6-1.1z"/>
				</g>
			</g>
		</g>
		<g>
			<g transform="translate(1014.812594, 91.601101)">
				<g>
					<path d="M-1069.9-7.5c-0.7,0-1.3,0.3-1.9,0.6c-0.6,0.4-1,1-1.2,1.7c-1.2,3.1-2.2,6.5-2.9,10.1c-0.2,0.9,0,1.8,0.7,2.6
						c0.5,0.8,1.3,1.3,2.2,1.5c0.9,0.1,1.8-0.1,2.6-0.6c0.8-0.6,1.3-1.3,1.5-2.2c0.5-3.2,1.4-6.1,2.5-8.8c0.5-1.1,0.3-2.3-0.4-3.3
						C-1067.6-7-1068.6-7.6-1069.9-7.5z"/>
				</g>
			</g>
		</g>
		<g>
			<g transform="translate(1025.228549, 91.601101)">
				<g>
					<path d="M-1067.1-7.4c-0.9,0-1.6,0.3-2.3,1c-0.6,0.6-1,1.4-1,2.2c0,0.9,0.3,1.6,1,2.2c0.6,0.6,1.4,1,2.3,1l12.2-0.1
						c-0.4,1.4-0.7,2.9-1,4.3h-12.3c-0.8,0-1.5,0.3-2.2,0.8c-0.6,0.6-0.9,1.2-1,2l-1.2,9c0,0.9,0.2,1.7,0.8,2.4c0.7,0.6,1.4,1,2.2,1
						c0.9,0,1.6-0.3,2.3-0.9c0.7-0.6,1-1.3,1.1-2.2c0-1.1,0.3-3,0.7-5.6h8.6c-0.2,1.5-0.3,3.3-0.4,5.2c0,0.9,0.2,1.6,0.8,2.3
						c0.6,0.7,1.3,1.1,2.2,1.1s1.6-0.2,2.3-0.8c0.7-0.6,1.1-1.3,1.2-2.2c0.3-3.5,0.5-6.2,0.8-8.3c0-0.1,0.1-0.2,0.1-0.3
						c0.5-3.7,1.4-7,2.6-9.9c0.4-1.1,0.3-2.1-0.4-3.1c-0.6-0.9-1.5-1.3-2.7-1.3L-1067.1-7.4z"/>
				</g>
			</g>
		</g>
		<g>
			<g transform="translate(1047.212511, 91.601101)">
				<g>
					<path d="M-1062-8.5c-1,0-1.8,0.3-2.4,1s-0.9,1.5-0.9,2.4l1.3,20.4c0,1,0.4,1.8,1.2,2.4c0.8,0.6,1.7,0.9,2.7,0.6h0.2
						c3.3,0,6.5,0,9.7-0.1c3.4,0,6.3,0,8.7,0c0.3,0,0.6,0,0.8,0h0.5c1.4,0,2.4-0.6,3-1.9c0.5-1.3,0.4-2.5-0.6-3.5
						c0.5-6.6,1.5-11.9,3.1-15.9c0.5-1.1,0.4-2.1-0.3-3.1c-0.6-0.9-1.6-1.4-2.8-1.3c-1.4,0-2.3,0.7-2.8,2c-1.8,4.6-3,10.3-3.6,17.3
						c-1.5,0-2.9,0-4.2,0c-0.5-3.6,0.2-8.6,2.2-15.2c0.3-1.1,0.2-2-0.4-3c-0.7-0.8-1.6-1.2-2.7-1.2c-0.7,0-1.3,0.2-1.8,0.7
						c-0.6,0.4-1,1-1.2,1.6c-2.1,7.1-2.9,12.8-2.5,17.1c-0.8,0-1.8,0-3.1,0l-1.2-17.4c0-0.8-0.3-1.5-1-2.1
						C-1060.5-8.2-1061.2-8.5-1062-8.5z"/>
				</g>
			</g>
		</g>
		<g>
			<g transform="translate(1073.468461, 91.601101)">
				<g>
					<path d="M-1049.8-7.6c-1.4,0-2.4,0.7-2.9,2c-2,4.9-3.2,11.7-3.8,20.4c0,0.9,0.2,1.6,0.8,2.3c0.6,0.7,1.3,1.1,2.2,1.1
						c0.8,0.1,1.6-0.2,2.3-0.8c0.7-0.6,1-1.3,1.1-2.2c0.5-8,1.7-14.2,3.4-18.4c0.5-1.1,0.4-2.1-0.3-3.1
						C-1047.7-7.2-1048.6-7.6-1049.8-7.6z"/>
				</g>
			</g>
		</g>
		<g>
			<g transform="translate(1084.028427, 91.601101)">
				<g>
					<path d="M-1030.1-7.6c-0.1,0-0.2,0-0.4,0c-0.6,0-1.3,0.1-2.1,0.2c-0.2,0-0.3,0.1-0.5,0.1c-3.2,1.1-6.2,2.9-8.9,5.4
						c-0.3-1.2-0.8-2.5-1.2-3.7c-0.6-1.4-1.6-2-3-2c-1.1,0-2,0.5-2.7,1.4c-0.6,1-0.7,2-0.2,3c0.8,2.2,1.5,4.7,2.1,7.3
						c-1.9,2.7-3.7,5.9-5.4,9.6c-0.4,0.8-0.4,1.6-0.1,2.5s0.9,1.5,1.7,1.9c0.8,0.4,1.7,0.4,2.5,0.1s1.4-1,1.8-1.9
						c4.1-9.3,9.2-15.1,15.3-17.4c0.3,0,0.7-0.1,1-0.1c0,0.5,0,1-0.1,1.3c-1.3,7-2,10.9-2,11.5h-0.8c-0.4,0-0.7,0-0.8,0l-0.1,0.1
						c-0.1,0-0.1,0-0.1,0s-0.1,0-0.2,0c-0.5,0-1.9,0-4.3,0c-0.9,0-1.6,0.3-2.2,1c-0.7,0.6-1,1.4-1,2.2c0,0.9,0.3,1.7,1,2.3
						c0.6,0.6,1.4,0.9,2.2,0.9c2.1,0,3.5,0,4.4,0c0.3,0,0.6,0,0.8,0c0,0,0.1,0,0.2-0.1c0.1,0,0.2,0,0.2-0.1c0.7,0,2.1,0,4,0
						c0.9,0,1.7-0.4,2.3-1.1s0.9-1.5,0.8-2.5c-0.2-1.4,0.4-5.8,1.7-13.1c0.5-2.9,0.3-5.2-0.8-6.7c-0.8-1.1-2-1.9-3.6-2.1
						C-1029.1-7.5-1029.6-7.6-1030.1-7.6z M-1032,17.4c-0.2,0.2-0.4,0.4-0.4,0.4c0-0.1,0-0.1-0.2,0
						C-1032.4,17.7-1032.2,17.6-1032,17.4z"/>
				</g>
			</g>
		</g>
		<g>
			<g transform="translate(1108.892364, 91.601101)">
				<g>
					<path d="M-1039.9-7.4c-0.8,0-1.6,0.3-2.3,1c-0.7,0.6-1,1.4-1,2.2c0,0.9,0.4,1.7,1,2.3c0.7,0.6,1.4,0.9,2.3,0.9l12.2-0.1
						c-1.1,4-1.9,9.3-2.3,15.9c-0.1,0.9,0.2,1.6,0.8,2.3c0.6,0.7,1.3,1.1,2.2,1.1c0.8,0.1,1.6-0.2,2.3-0.8c0.7-0.6,1.1-1.3,1.2-2.2
						c0.5-8,1.7-14.2,3.4-18.5c0.4-1.1,0.3-2.1-0.3-3.1c-0.6-0.9-1.6-1.3-2.8-1.3L-1039.9-7.4z M-1040.6,3.7c-0.8,0-1.5,0.2-2.2,0.8
						c-0.6,0.6-1,1.3-1.1,2.1c-0.3,2-0.6,4.8-0.8,8.4c0,0.9,0.2,1.6,0.8,2.3c0.6,0.7,1.3,1.1,2.2,1.1c0.8,0.1,1.6-0.2,2.3-0.8
						c0.7-0.6,1-1.3,1.1-2.2c0.2-3.4,0.5-6.1,0.8-7.9c0.1-1-0.1-1.8-0.7-2.6C-1038.9,4.1-1039.7,3.7-1040.6,3.7z"/>
				</g>
			</g>
		</g>
		<g>
			<g transform="translate(1140.332304, 91.601101)">
				<g>
					<path d="M-1027.2-17.1c-1.4,0-2.4,0.7-2.9,2c-1,2.6-1.8,5.4-2.4,8.3c-1.2,0.9-1.5,2.1-1,3.6s1.6,2.2,3.2,2.2l11.7-0.1
						c-1.1,3.9-1.8,9.2-2.3,16c0,0.9,0.2,1.6,0.8,2.4c0.6,0.7,1.3,1.1,2.2,1.1c0.9,0.1,1.7-0.2,2.3-0.8c0.7-0.6,1.1-1.4,1.1-2.2
						c0.5-7.5,1.5-13.2,2.9-17.2c1.2-0.9,1.5-2.1,1-3.6c-0.5-1.4-1.5-2.2-3-2.2c-0.2-0.1-0.4-0.1-0.7-0.1c-0.2,0-0.3,0-0.4,0.1
						l-10.9,0.1c0.5-1.8,1-3.5,1.7-5.1c0.4-1.1,0.3-2.1-0.3-3.1C-1025-16.8-1026-17.2-1027.2-17.1z"/>
				</g>
			</g>
		</g>
		<g>
			<g transform="translate(1161.212277, 91.601101)">
				<g>
					<path d="M-1014.4-7.6c-1.4,0-2.3,0.7-2.8,2.1c-1.8,4.6-3,10.4-3.6,17.4c-1.7,0-3.1,0-4.2,0c-0.8,0-1.6,0.3-2.3,1
						c-0.6,0.6-1,1.4-1,2.3c0,0.8,0.3,1.5,1,2.2c0.7,0.6,1.4,1,2.3,1c3.3,0,6.7,0,10.1-0.1c3.4,0,6.5-0.1,9.5-0.1
						c0.9,0.1,1.8-0.1,2.4-0.7c0.7-0.5,1.1-1.3,1.2-2.2c0.5-8,1.6-14.1,3.3-18.4c0.5-1.1,0.4-2.1-0.3-3.1s-1.6-1.4-2.8-1.4
						c-1.4,0-2.4,0.7-2.9,2.1c-1.8,4.6-3,10.3-3.6,17.3c-2.4,0-4.5,0-6.5,0c0.5-6.1,1.6-11,3.2-14.9c0.4-1.1,0.3-2.1-0.3-3.1
						C-1012.3-7.2-1013.2-7.7-1014.4-7.6z"/>
				</g>
			</g>
		</g>
		<g>
			<g transform="translate(1195.964229, 91.601101)">
				<g>
					<path d="M-1009-7.6c-1.4,0-2.4,0.7-2.9,2c-2,4.9-3.2,11.7-3.8,20.4c0,0.9,0.2,1.6,0.8,2.3c0.6,0.7,1.3,1.1,2.2,1.1
						c0.8,0.1,1.6-0.2,2.3-0.8c0.7-0.6,1-1.3,1.1-2.2c0.5-8,1.7-14.2,3.4-18.4c0.5-1.1,0.4-2.1-0.3-3.1
						C-1006.9-7.2-1007.8-7.6-1009-7.6z"/>
				</g>
			</g>
		</g>
		<g>
			<g transform="translate(1206.524195, 91.601101)">
				<g>
					<path d="M-999.1-7.6c-0.2,0-0.5,0-0.8,0.1l-9.2,0.1c-0.8,0-1.6,0.3-2.3,1c-0.6,0.7-1,1.5-1,2.3c0,0.9,0.4,1.6,1,2.2
						c0.7,0.6,1.4,1,2.2,1l5.4-0.1c-1.1,3.8-1.8,9.1-2.2,15.9c-0.1,0.9,0.2,1.6,0.8,2.3c0.6,0.7,1.3,1.1,2.2,1.1
						c0.8,0.1,1.6-0.2,2.3-0.8c0.7-0.6,1.1-1.3,1.1-2.2c0.5-7.1,1.4-12.5,2.7-16.4l4.4-0.1c0.8,0,1.6-0.3,2.3-1c0.6-0.7,1-1.5,1-2.3
						s-0.3-1.6-1-2.2s-1.4-1-2.3-1l-5.9,0.1C-998.5-7.6-998.8-7.6-999.1-7.6z"/>
				</g>
			</g>
		</g>
		<g>
			<g transform="translate(1226.540185, 91.601101)">
				<g>
					<path d="M-982.6-7.6c-0.1,0-0.2,0-0.4,0c-0.6,0-1.3,0.1-2.1,0.2c-0.2,0-0.3,0.1-0.5,0.1c-3.2,1.1-6.2,2.9-8.9,5.4
						c-0.3-1.2-0.8-2.5-1.2-3.7c-0.6-1.4-1.6-2-3-2c-1.1,0-2,0.5-2.7,1.4c-0.6,1-0.7,2-0.2,3c0.8,2.2,1.5,4.7,2.1,7.3
						c-1.9,2.7-3.7,5.9-5.4,9.6c-0.4,0.8-0.4,1.6-0.1,2.5c0.3,0.9,0.9,1.5,1.7,1.9s1.7,0.4,2.5,0.1s1.4-1,1.8-1.9
						c4.1-9.3,9.2-15.1,15.3-17.4c0.3,0,0.7-0.1,1-0.1c0,0.5,0,1-0.1,1.3c-1.3,7-2,10.9-2,11.5h-0.8c-0.4,0-0.7,0-0.8,0l-0.1,0.1
						c-0.1,0-0.1,0-0.1,0s-0.1,0-0.2,0c-0.5,0-1.9,0-4.3,0c-0.9,0-1.6,0.3-2.2,1c-0.7,0.6-1,1.4-1,2.2c0,0.9,0.3,1.7,1,2.3
						c0.6,0.6,1.4,0.9,2.2,0.9c2.1,0,3.5,0,4.4,0c0.3,0,0.6,0,0.8,0c0,0,0.1,0,0.2-0.1c0.1,0,0.2,0,0.2-0.1c0.7,0,2.1,0,4,0
						c0.9,0,1.7-0.4,2.3-1.1s0.9-1.5,0.8-2.5c-0.2-1.4,0.4-5.8,1.7-13.1c0.5-2.9,0.3-5.2-0.8-6.7c-0.8-1.1-2-1.9-3.6-2.1
						C-981.6-7.5-982.1-7.6-982.6-7.6z M-984.5,17.4c-0.2,0.2-0.4,0.4-0.4,0.4c0-0.1,0-0.1-0.2,0C-984.9,17.7-984.7,17.6-984.5,17.4
						z"/>
				</g>
			</g>
		</g>
		<g>
			<g transform="translate(1251.404168, 91.601101)">
				<g>
					<path d="M-990.2-17.1c-1.4,0-2.4,0.7-2.9,2c-1,2.6-1.8,5.4-2.4,8.3c-1.2,0.9-1.5,2.1-1,3.6s1.6,2.2,3.2,2.2l11.7-0.1
						c-1.1,3.9-1.8,9.2-2.3,16c0,0.9,0.2,1.6,0.8,2.4c0.6,0.7,1.3,1.1,2.2,1.1c0.9,0.1,1.7-0.2,2.3-0.8c0.7-0.6,1.1-1.4,1.1-2.2
						c0.5-7.5,1.5-13.2,2.9-17.2c1.2-0.9,1.5-2.1,1-3.6c-0.5-1.4-1.5-2.2-3-2.2c-0.2-0.1-0.4-0.1-0.7-0.1c-0.2,0-0.3,0-0.4,0.1
						l-10.9,0.1c0.5-1.8,1-3.5,1.7-5.1c0.4-1.1,0.3-2.1-0.3-3.1C-988-16.8-988.9-17.2-990.2-17.1z"/>
				</g>
			</g>
		</g>
		<g>
			<g transform="translate(1272.284141, 91.601101)">
				<g>
					<path d="M-978.5-7.6c-0.4,0-0.7,0.1-1,0.2h-1.2c-1.5,0-2.5,0.7-3,2.1c-0.2,0.6-0.3,1.2-0.1,1.9s0.5,1.2,1,1.6
						c-1.1,3.6-1.9,8.2-2.3,13.6c-0.3,0-1,0-2.1,0c-0.8,0-1.6,0.3-2.3,1c-0.6,0.6-1,1.4-1,2.2c0,0.9,0.3,1.6,1,2.2s1.4,1,2.3,1
						c1.3,0,2.3,0,3.1-0.1c0.4,0,0.9-0.1,1.7-0.1c0.2,0,0.5,0,0.8,0h0.2c1.3,0,2.3-0.6,2.9-1.7c0.6-1.2,0.5-2.3-0.3-3.4
						c0.5-5.8,1.3-10.5,2.4-14.1l7.8-0.1c-1.1,4-1.9,9.2-2.3,15.8c-0.1,0.9,0.2,1.6,0.8,2.4c0.6,0.7,1.4,1,2.2,1.1
						c0.8,0,1.6-0.2,2.3-0.8c0.7-0.6,1.1-1.3,1.2-2.1c0.5-8.1,1.7-14.2,3.3-18.4c0.4-1,0.3-2-0.3-3c-0.6-0.9-1.5-1.4-2.7-1.4
						l-13.3,0.2C-977.8-7.5-978.2-7.6-978.5-7.6z"/>
				</g>
			</g>
		</g>
		<g>
			<g transform="translate(1307.180059, 91.601101)">
				<g>
					<path d="M-973.8-7.4c-0.8,0-1.6,0.3-2.3,1c-0.7,0.6-1,1.4-1,2.2c0,0.9,0.4,1.7,1,2.3c0.7,0.6,1.4,0.9,2.3,0.9l12.2-0.1
						c-1.1,4-1.9,9.3-2.3,15.9c-0.1,0.9,0.2,1.6,0.8,2.3c0.6,0.7,1.3,1.1,2.2,1.1c0.8,0.1,1.6-0.2,2.3-0.8c0.7-0.6,1.1-1.3,1.2-2.2
						c0.5-8,1.7-14.2,3.4-18.5c0.4-1.1,0.3-2.1-0.3-3.1c-0.6-0.9-1.6-1.3-2.8-1.3L-973.8-7.4z M-974.6,3.7c-0.8,0-1.5,0.2-2.2,0.8
						c-0.6,0.6-1,1.3-1.1,2.1c-0.3,2-0.6,4.8-0.8,8.4c0,0.9,0.2,1.6,0.8,2.3c0.6,0.7,1.3,1.1,2.2,1.1c0.8,0.1,1.6-0.2,2.3-0.8
						c0.7-0.6,1-1.3,1.1-2.2c0.2-3.4,0.5-6.1,0.8-7.9c0.1-1-0.1-1.8-0.7-2.6C-972.8,4.1-973.6,3.7-974.6,3.7z"/>
				</g>
			</g>
		</g>
		<g>
			<g transform="translate(1328.732029, 91.601101)">
				<g>
					<path d="M-962.6-7.6c-0.2,0-0.5,0-0.8,0.1l-5,0.1c-0.8,0-1.6,0.3-2.2,1c-0.6,0.7-1,1.4-1,2.2c0,0.9,0.4,1.6,1,2.3
						c0.7,0.6,1.4,0.9,2.2,0.9h1.3c-1.1,3.9-1.8,9.1-2.3,15.8c0,0.9,0.3,1.6,0.9,2.3c0.5,0.7,1.3,1.1,2.2,1.1
						c0.8,0.1,1.6-0.2,2.3-0.8c0.7-0.6,1-1.3,1.1-2.2c0.5-7.1,1.4-12.6,2.6-16.4h1.7c0.9,0,1.7-0.4,2.2-1c0.6-0.7,1-1.5,1-2.3
						s-0.3-1.6-1-2.2c-0.6-0.7-1.4-1-2.2-1l-3.1,0.1C-962-7.6-962.3-7.6-962.6-7.6z"/>
				</g>
			</g>
		</g>
		<g>
			<g transform="translate(1353.403979, 91.601101)">
				<g>
					<path d="M-959.1-7.4c-0.8,0-1.5,0.3-2.2,1s-1,1.4-1,2.2c0,0.9,0.4,1.7,1,2.3c0.7,0.6,1.5,0.9,2.3,0.9l12.1-0.1
						c-1.1,4-1.9,9.3-2.4,15.9c0,0.8,0.2,1.6,0.8,2.3c0.6,0.7,1.4,1,2.2,1.1s1.6-0.2,2.3-0.8c0.7-0.5,1.1-1.3,1.1-2.2
						c0.5-8,1.7-14.1,3.4-18.4c0.4-1.1,0.3-2.1-0.3-3s-1.5-1.4-2.7-1.4L-959.1-7.4z M-957.4,5.1c-0.8,0-1.5,0.3-2.2,0.9
						c-0.6,0.6-0.9,1.3-1,2l-2.6,24.8c-0.1,0.9,0.2,1.6,0.8,2.4c0.6,0.7,1.3,1.1,2.1,1.2s1.6-0.2,2.4-0.8c0.7-0.6,1.1-1.3,1.2-2.1
						l2.6-24.8c0.1-1-0.1-1.8-0.8-2.6C-955.6,5.5-956.4,5.1-957.4,5.1z"/>
				</g>
			</g>
		</g>
		<g>
			<g transform="translate(1374.379946, 91.601101)">
				<g>
					<path d="M-953.1-7.4c-0.9,0-1.7,0.4-2.3,1s-1,1.4-1,2.2c0,0.9,0.4,1.7,1,2.3c0.7,0.6,1.4,0.9,2.3,0.9l12.2-0.1
						c-1.1,4-1.9,9.3-2.4,15.9c0,0.9,0.2,1.6,0.8,2.3c0.6,0.7,1.3,1.1,2.2,1.1c0.8,0.1,1.6-0.2,2.3-0.8c0.7-0.6,1.1-1.3,1.2-2.2
						c0.5-8,1.7-14.2,3.4-18.5c0.4-1.1,0.3-2.1-0.3-3.1c-0.7-0.9-1.6-1.3-2.8-1.3L-953.1-7.4z"/>
				</g>
			</g>
		</g>
		<g>
			<g transform="translate(1394.683915, 91.601101)">
				<g>
					<path d="M-942.8-7.5c-0.7,0-1.4,0.3-2,0.8s-1,1.1-1.2,1.9v0.1c0,0,0,0-0.1,0.1l-1.8,9.1c-0.2,1-0.1,1.8,0.5,2.6
						s1.4,1.2,2.3,1.3l6.8,0.7c0.9,0.1,1.7-0.1,2.4-0.8c0.7-0.6,1.1-1.3,1.2-2.2c0.1-0.8-0.2-1.6-0.8-2.3s-1.3-1.1-2.2-1.2l-3.2-0.2
						l0.6-3.3l9.6-0.1c-1,3.6-1.8,7.9-2.2,12.9c-0.9,0-2.8,0-5.7,0.1c-2.2,0.1-4.8,0.1-7.9,0.1c-0.8,0-1.6,0.3-2.2,0.9
						c-0.7,0.7-1,1.5-1,2.3c0,0.9,0.3,1.6,1,2.2c0.6,0.6,1.4,1,2.2,1c3.3,0,6.3,0,8.8-0.1c2.7,0,5.2-0.1,7.3-0.1c0.4,0,0.8,0,1.2,0
						h0.3c1.4,0,2.3-0.6,2.9-1.9c0.6-1.3,0.4-2.4-0.5-3.5c0.5-6.6,1.6-12,3.2-16.1c0.4-1.1,0.3-2.1-0.4-3c-0.6-0.9-1.5-1.4-2.7-1.4
						L-942.8-7.5z"/>
				</g>
			</g>
		</g>
		<g>
			<g transform="translate(1417.627853, 91.601101)">
				<g>
					<path d="M-936.5-7.4c-0.9,0-1.6,0.3-2.2,1c-0.7,0.6-1,1.4-1,2.2c0,0.9,0.3,1.6,1,2.2c0.6,0.6,1.4,1,2.3,1l12.1-0.1
						c-1,3.5-1.7,7.9-2.1,12.9c-4.8,0.1-8.9,0.1-12.2,0.1c-0.8,0-1.6,0.3-2.3,1c-0.6,0.6-1,1.4-1,2.2c0,0.9,0.3,1.6,1,2.2
						s1.4,1,2.3,1c-0.7,0,4.3,0,15-0.1h0.5c2.2,0,3.6,0,4.4,0c0.8,0,1.6-0.3,2.2-1c0.7-0.6,1-1.4,1-2.3c0-0.8-0.3-1.6-1-2.2
						c-0.6-0.6-1.4-1-2.2-1h-1.2c0.5-6.1,1.5-11,3.1-14.9c0.4-1.1,0.3-2.1-0.3-3.1c-0.6-0.9-1.5-1.3-2.7-1.3L-936.5-7.4z"/>
				</g>
			</g>
		</g>
	</g>
</g>
<g display="none">
	<path display="inline" fill="#FFFFFF" d="M312.9-224.6c0,39.6-21.8,74.3-54.4,93.7c-7.6,4.5-15.8,8.2-24.5,11
		c-0.1,0-0.3,0.1-0.4,0.1c-11.1,3.5-23.1,5.4-35.4,5.4c-4.3,0-8.6-0.2-12.8-0.7c-9.8-1-19.2-3.2-28-6.5c-0.5-0.2-1-0.4-1.5-0.5
		c-2.7-1-5.4-2.2-8-3.4c-4.8-2.2-9.4-4.8-13.8-7.6c-30.6-19.8-50.7-53.4-50.7-91.4c0-60.8,51.4-110.2,114.8-110.2c0.2,0,0.4,0,0.6,0
		C261.8-334.4,312.9-285.2,312.9-224.6z"/>
	<g display="inline">
		<path fill="#20382B" stroke="#000000" stroke-miterlimit="10" d="M177.9-190.7c14.7-0.4,29.3-0.9,44-1.3
			c-0.4,11.7-10.1,21.2-21.7,21.4C188.8-170.4,179-179.2,177.9-190.7z"/>
		<path fill="#FFE3CB" stroke="#000000" stroke-miterlimit="10" d="M219.7-205.3c0.8,7.5-1.9,4.1-2.5,28.7c-0.9,3-2.9,8.2-7,13.7
			c-3.2,4.2-5.9,7.8-9.6,8c-6,0.2-10.7-9.5-12.7-13.7c-4.3-8.9-1.9-20.4-3.5-33.8C191-210.8,206.2-212.9,219.7-205.3z"/>
		<g>
			<path fill="#FFB995" d="M185.1-202.6c3.8-2.1,11.6-5.5,21.8-5.1c5.4,0.2,9.8,1.4,13,2.6c-0.6,4.8-1.3,9.6-1.9,14.3
				c0,0-7.3,6-11.6,7.3c-5.5,1.7-10.5,1.6-14.8,1.3c-2.7-0.1-4.9-0.4-6.4-0.7L185.1-202.6L185.1-202.6z"/>
		</g>
		<path fill="#332C26" d="M248-240.1c1.8-2.6,6.1-9.7,6.4-19.2c0.4-14.3-8.6-28.9-20.9-35.1c-14.7-7.4-38.4-6.2-32-6.5
			c6-0.3,8.8-15.2,8.3-15.6s-7.5,8.7-13.1,13.4c-30.3-9.9-60.6,6.7-60.5,5.7s29.3-1.4,47.3,3.1c0.1,0,0.1,0,0.2,0
			c-3.7-1.7-8.8-3.1-14.3-2.2c-11.8,1.9-21.7,13.4-24.5,29c0.4,8.6,2.8,24.8,15,36.6C184.2-207.1,232-216.7,248-240.1z"/>
		<path fill="#FFE3CB" stroke="#000000" stroke-miterlimit="10" d="M151.8-242.9c-3.3,1.5-3.2,8.1-3.2,8.9
			c0.4,13.8,17.7,21.8,18.8,22.3c3.8,1.7,7.8,3.5,9.6,1.9c3.3-3.1-4-16.9-12.7-25.8C161.2-238.7,155.5-244.6,151.8-242.9z"/>
		<path fill="#FFE3CB" stroke="#000000" stroke-miterlimit="10" d="M248.5-242.8c3.3,1.5,3.2,8.1,3.2,8.9
			c-0.4,13.8-17.7,21.8-18.8,22.3c-3.8,1.7-7.8,3.5-9.6,1.9c-3.3-3.1,4-16.9,12.7-25.8C239-238.5,244.8-244.4,248.5-242.8z"/>
		<path fill="#FFE3CB" stroke="#000000" stroke-miterlimit="10" d="M160.1-247.7c1,15.3,8.9,35.1,8.9,35.1s2.9,14.3,31.5,26.4
			c4.9-1.8,20.2-8.1,30.9-24.9c6.7-17.2,10-33.4,9.6-38.6c-2.9-18.1-17.3-41.5-39.2-42.1C178.8-292.3,162.5-267.3,160.1-247.7z"/>
		<path fill="#FFFFFF" d="M208.7-227.9c-0.8-1.3-0.7-2.6-0.6-3.7c0-0.5,0.2-3.6,2.1-5.4c3.7-3.5,14.5-3.2,18.4,1.7
			c1.8,2.2,2.5,5.7,0.3,8.3c-3,3.7-9.2,3.3-10.8,3.2C217.4-223.8,210.8-224.2,208.7-227.9z"/>
		<path fill="none" stroke="#000000" stroke-miterlimit="10" d="M230.2-226.4c0.1-0.8,0.9-6.3-3.2-9.9c-5-4.5-14.3-3.6-17.8,0.6
			c-0.9,1.1-1.4,2.2-1.6,3.2"/>
		<circle stroke="#000000" stroke-width="0.5" stroke-miterlimit="10" cx="217.2" cy="-231.8" r="3.9"/>
		<path fill="none" stroke="#000000" stroke-width="0.75" stroke-miterlimit="10" d="M227.8-225.9c-1,0.5-9.1,4.4-15.9,0.3
			c-1.7-1-2.9-2.3-3.8-3.5"/>
		<circle fill="#FFFFFF" cx="219" cy="-233" r="1.5"/>
		<path fill="#FFFFFF" d="M188.8-228.3c0.8-1.3,0.7-2.6,0.6-3.7c0-0.5-0.2-3.6-2.1-5.4c-3.7-3.5-14.5-3.2-18.4,1.7
			c-1.8,2.2-2.5,5.7-0.3,8.3c3,3.7,9.2,3.3,10.8,3.2C180.1-224.2,186.7-224.7,188.8-228.3z"/>
		<path fill="none" stroke="#000000" stroke-miterlimit="10" d="M167.3-226.8c-0.1-0.8-0.9-6.3,3.2-9.9c5-4.5,14.3-3.6,17.8,0.6
			c0.9,1.1,1.4,2.2,1.6,3.2"/>
		<circle stroke="#000000" stroke-width="0.5" stroke-miterlimit="10" cx="180.3" cy="-232.3" r="3.9"/>
		<circle fill="#FFFFFF" cx="182.3" cy="-233.5" r="1.5"/>
		<path fill="none" stroke="#000000" stroke-width="0.75" stroke-miterlimit="10" d="M169.5-226.3c1,0.5,9.1,4.4,15.9,0.3
			c1.7-1,2.9-2.3,3.8-3.5"/>
		<path fill="#332C26" stroke="#000000" stroke-miterlimit="10" d="M193.9-269.7c-2.2,21-9.2,30.6-9.2,30.6s17.8-9.2,14.3-12.4
			c0.6,0.5-4.5,14.3-10.2,17.5c1.5,2,9.1-0.3,14-4.1c13.8-11,8.2-37.3,7.3-41.1"/>
		<path fill="#332C26" stroke="#000000" stroke-miterlimit="10" d="M203.7-274.2c4.5,9.2,19.8,21.7,32,32c2.2,1.9-0.5,7.7-4,13.5
			c1,1,3.9-0.5,4.5-0.8c4.7-2.4,7.8-8,7.9-15.1"/>
		<path fill="none" stroke="#000000" stroke-miterlimit="10" d="M160.1-231.8"/>
		<path fill="#332C26" d="M244.5-246.4c5.3-4.5-2.4-34.6-24.2-45.9c-20.7-10.8-49.3-2.1-60.9,16.2c-6.6,10.6-8.7,26-3.5,29.3
			c9.2,5.8,39.8-26.7,43.5-23.1c1.6,1.6-3.5,8.3-1.4,10.4c2.2,2.1,8.3-5.2,15.8-4c7.4,1.2,7.7,9.3,18.8,14.7
			C235.6-247.3,241.9-244.3,244.5-246.4z"/>
		<g>
			<g>
				<path d="M195-269.7c0.3-1.2,0.4-2.5,0.4-3.8c0-0.5-0.3-1-0.7-1.3s-1.1-0.3-1.5,0c-1.2,0.8-2.2,1.7-3.1,2.8
					c-0.3,0.3-0.4,0.6-0.4,1.1c0,0.4,0.2,0.8,0.4,1.1c0.3,0.3,0.7,0.5,1.1,0.4c0.4,0,0.8-0.1,1.1-0.4c0.6-0.8,1.4-1.4,2.2-2
					c-0.1,0.1-0.2,0.2-0.3,0.2c0.2-0.2,0.5-0.3,0.7-0.5c-0.8-0.4-1.5-0.9-2.3-1.3c0,0.8,0,1.5-0.1,2.2c0-0.1,0-0.3,0-0.4
					c0,0.4-0.1,0.8-0.2,1.2s-0.1,0.8,0.1,1.2c0.2,0.3,0.5,0.6,0.9,0.7s0.8,0.1,1.2-0.1C194.6-269,194.9-269.3,195-269.7L195-269.7z"
					/>
			</g>
		</g>
		<g>
			<path d="M212.2-264.6c-0.2,0-0.3-2.3-1-7c-0.5-2.9-1-5.3-1.3-6.9c0.9,1.4,2,3.7,2.5,6.5C213-268.1,212.4-264.6,212.2-264.6z"/>
			<g>
				<path d="M212.6-266c-0.2,0,1.1,0.6,1,0.9v-0.1c0-0.1,0-0.2-0.1-0.3c0-0.2,0,0.3,0,0.1c0-0.1,0-0.2,0-0.2c0-0.2,0-0.4-0.1-0.6
					c-0.1-1.3-0.3-2.5-0.5-3.8c-0.4-2.9-0.9-5.9-1.6-8.8c-0.9,0.4-1.8,0.8-2.7,1.2c1.2,2.1,2.1,4.4,2.4,6.8c0.2,1.3,0.2,2.6,0.1,4
					c0,0.3,0,0.5-0.1,0.8c0,0.3,0-0.2,0,0.1c0,0.1,0,0.2-0.1,0.3c0,0.1-0.1,0.3-0.1,0.4c-0.1,0.3,0.2-0.3,0.2-0.3
					c0.2-0.1,0.4-0.3,0.7-0.4l0,0c-1.9,0.5-1.1,3.4,0.8,2.9c1.2-0.4,1.3-1.7,1.5-2.8c0.2-1.4,0.2-2.9,0-4.4c-0.3-3.2-1.3-6.2-2.9-9
					c-0.9-1.5-3.1-0.5-2.7,1.2c0.7,3.1,1.3,6.3,1.7,9.5c0.1,1.1,0.2,2.1,0.4,3.2c0.1,0.9,0.2,2,1.3,2.2c0.8,0.1,1.6-0.2,1.9-1.1
					C213.8-264.9,213.4-265.9,212.6-266z"/>
			</g>
		</g>
		<g>
			<g>
				<path d="M247-246.1c0-1.1,0-2.2,0-3.4c0-0.4-0.2-0.8-0.4-1.1c-0.3-0.3-0.7-0.5-1.1-0.4c-0.8,0-1.5,0.7-1.5,1.5
					c0,1.1,0,2.2,0,3.4c0,0.4,0.2,0.8,0.4,1.1c0.3,0.3,0.7,0.5,1.1,0.4C246.3-244.7,247-245.3,247-246.1L247-246.1z"/>
			</g>
		</g>
		<g>
			<g>
				<path d="M172.4-294.4c1.4-0.1,2.9-0.1,4.3-0.1c0.7,0,1.4,0.1,2.1,0.1c0.7,0.1,1.4,0.1,2,0.2c0.8,0.1,1.6-0.2,1.9-1.1
					c0.2-0.7-0.2-1.7-1-1.9c-3-0.5-6.1-0.6-9.2-0.4c-0.8,0.1-1.5,0.6-1.5,1.5C171-295.2,171.6-294.4,172.4-294.4L172.4-294.4z"/>
			</g>
		</g>
		<g>
			<g>
				<path d="M208-282.9c-0.1-0.2-0.3-0.5-0.4-0.7c-0.2-0.3-0.5-0.6-0.8-0.9c-0.6-0.5-1.3-0.9-2.1-1.2c-0.4-0.1-0.8,0-1.2,0.1
					c-0.3,0.2-0.6,0.5-0.7,0.9s-0.1,0.8,0.1,1.2s0.5,0.6,0.9,0.7c0.1,0,0.2,0.1,0.3,0.1c-0.1-0.1-0.2-0.1-0.4-0.1
					c0.3,0.1,0.6,0.3,0.9,0.6c-0.1-0.1-0.2-0.2-0.3-0.2c0.3,0.2,0.5,0.5,0.8,0.8c-0.1-0.1-0.2-0.2-0.2-0.3c0.2,0.2,0.3,0.5,0.4,0.7
					c0.2,0.3,0.6,0.6,0.9,0.7c0.4,0.1,0.8,0.1,1.2-0.1c0.3-0.2,0.6-0.5,0.7-0.9c0-0.1,0-0.3,0-0.4
					C208.2-282.4,208.1-282.6,208-282.9L208-282.9z"/>
			</g>
		</g>
		<g>
			<g>
				<path d="M232.4-281.9c2.6,4.6,4.9,9.3,6.9,14.1c0.3,0.8,1,1.3,1.9,1.1c0.7-0.2,1.4-1.1,1-1.9c-2.1-5.1-4.5-10.1-7.1-14.8
					C234-285.1,231.4-283.6,232.4-281.9L232.4-281.9z"/>
			</g>
		</g>
		<g>
			<g>
				<path d="M155.7-262.8c0.4-2.5,1.8-4.8,2.9-7c1.2-2.4,2.5-4.8,3.8-7.1c1-1.7-1.6-3.2-2.6-1.5c-1.4,2.4-2.7,4.9-3.9,7.4
					c-0.6,1.2-1.2,2.5-1.8,3.7c-0.5,1.2-1.1,2.4-1.3,3.7c-0.1,0.8,0.2,1.6,1,1.9C154.6-261.6,155.6-262,155.7-262.8L155.7-262.8z"/>
			</g>
		</g>
		<path fill="none" stroke="#FFB995" stroke-miterlimit="10" d="M152.4-238.5c-0.4,1.2-1,3.7-0.3,6.7c0.4,2,1.3,3.5,1.9,4.5"/>
		<path fill="none" stroke="#FFB995" stroke-miterlimit="10" d="M248.4-238.8c0.4,1.2,1,3.7,0.3,6.7c-0.4,2-1.3,3.5-1.9,4.5"/>
		<path opacity="0.44" fill="#D8B8A3" enable-background="new    " d="M231.3-211.9c0,0-6.5,8.5-9.9,7c-2.2-0.9-0.7-4.9-3.5-7
			c-2-1.5-5.8-1-13.2,0.2c-2.4,0.4-2.1,0.4-3.8,0.6c-9.4,1.3-12.5-0.4-15,1.6c-2.9,2.3-0.2,7.1-2.2,8.3c-3.2,1.9-11.6-7.7-11.8-7.6
			c-0.2,0.1-0.4,0.1-0.4,0.3c-0.9,5.6,28.4,23.7,29.2,22.2c0,0,13.1-5.4,19.4-11.9C225.5-203.1,229-208,231.3-211.9z"/>
		<line fill="none" stroke="#FFB995" stroke-miterlimit="10" x1="202.5" y1="-233.4" x2="198.3" y2="-230.8"/>
		<line fill="none" stroke="#FFB995" stroke-miterlimit="10" x1="202.8" y1="-231.8" x2="196.1" y2="-227.6"/>
		<line fill="none" stroke="#FFB995" stroke-miterlimit="10" x1="204.4" y1="-230.8" x2="195.8" y2="-225.4"/>
		<line fill="none" stroke="#FFB995" stroke-miterlimit="10" x1="205" y1="-228.9" x2="196.1" y2="-223.5"/>
		<line fill="none" stroke="#FFB995" stroke-miterlimit="10" x1="206" y1="-227.6" x2="196.7" y2="-222.2"/>
		<path fill="#FFB995" stroke="#000000" stroke-width="0.5" stroke-miterlimit="10" d="M200.5-219.2c0,1.3-0.1,2.6-0.2,3.8
			c-0.6-0.5-1.2-1.1-1.8-1.6"/>
		<g>
			<g>
				<path fill="#FFB995" d="M169.7-223.1c-0.2,0.3-0.4,0.5-0.6,0.8c-0.1,0.2-0.2,0.4-0.2,0.6c0,0.2,0,0.4,0,0.6
					c0,0.2,0.1,0.4,0.3,0.5c0.1,0.2,0.2,0.3,0.4,0.4c0.1,0.1,0.2,0.1,0.4,0.1c0.3,0.1,0.5,0.1,0.8,0c0.1-0.1,0.2-0.1,0.4-0.1
					c0.2-0.1,0.4-0.3,0.5-0.5c0.2-0.3,0.4-0.5,0.6-0.8c0.1-0.2,0.2-0.4,0.2-0.6c0-0.2,0-0.4,0-0.6c0-0.2-0.1-0.4-0.3-0.5
					c-0.1-0.2-0.2-0.3-0.4-0.4c-0.1-0.1-0.2-0.1-0.4-0.1c-0.3-0.1-0.5-0.1-0.8,0c-0.1,0.1-0.2,0.1-0.4,0.1
					C170-223.5,169.8-223.3,169.7-223.1L169.7-223.1z"/>
			</g>
		</g>
		<g>
			<g>
				<path fill="#FFB995" d="M170.9-222.2c-0.1,0.1-0.1,0.2-0.2,0.3c-0.1,0.2-0.2,0.4-0.2,0.6c0,0.2,0,0.4,0,0.6
					c0,0.2,0.1,0.4,0.3,0.5c0.1,0.2,0.2,0.3,0.4,0.4c0.1,0.1,0.2,0.1,0.4,0.1c0.3,0.1,0.5,0.1,0.8,0c0.1-0.1,0.2-0.1,0.4-0.1
					c0.2-0.1,0.4-0.3,0.5-0.5c0.1-0.1,0.1-0.2,0.2-0.3c0.1-0.2,0.2-0.4,0.2-0.6c0-0.2,0-0.4,0-0.6c0-0.2-0.1-0.4-0.3-0.5
					c-0.1-0.2-0.2-0.3-0.4-0.4c-0.1-0.1-0.2-0.1-0.4-0.1c-0.3-0.1-0.5-0.1-0.8,0c-0.1,0.1-0.2,0.1-0.4,0.1
					C171.3-222.6,171.1-222.5,170.9-222.2L170.9-222.2z"/>
			</g>
		</g>
		<g>
			<g>
				<path fill="#FFB995" d="M224.8-221.8c0,0.2,0,0.3,0,0.5s0,0.4,0.1,0.6c0.1,0.2,0.2,0.4,0.3,0.5s0.3,0.2,0.5,0.3s0.4,0.1,0.6,0.1
					c0.1,0,0.3,0,0.4-0.1c0.2-0.1,0.5-0.2,0.7-0.4c0.1-0.1,0.2-0.2,0.2-0.3c0.1-0.2,0.2-0.5,0.2-0.8c0-0.2,0-0.3,0-0.5
					s0-0.4-0.1-0.6c-0.1-0.2-0.2-0.4-0.3-0.5s-0.3-0.2-0.5-0.3s-0.4-0.1-0.6-0.1c-0.1,0-0.3,0-0.4,0.1c-0.2,0.1-0.5,0.2-0.7,0.4
					c-0.1,0.1-0.2,0.2-0.2,0.3C224.9-222.3,224.8-222,224.8-221.8L224.8-221.8z"/>
			</g>
		</g>
		<g>
			<g>
				<path fill="#FFB995" d="M226.6-221.4L226.6-221.4c-0.1-0.1-0.1-0.2-0.2-0.3C226.4-221.6,226.5-221.5,226.6-221.4
					c-0.1-0.1-0.1-0.2-0.2-0.3C226.4-221.6,226.5-221.5,226.6-221.4c-0.1-0.1-0.1-0.2-0.1-0.3c0,0.1,0,0.2,0,0.4s0,0.4,0.1,0.6
					c0.1,0.2,0.2,0.4,0.3,0.5s0.3,0.2,0.5,0.3s0.4,0.1,0.6,0.1c0.1,0,0.3,0,0.4-0.1c0.2-0.1,0.5-0.2,0.7-0.4
					c0.1-0.1,0.2-0.2,0.2-0.3c0.1-0.2,0.2-0.5,0.2-0.8c0-0.1,0-0.2,0-0.3c0-0.2,0-0.4-0.1-0.5c0-0.1,0-0.1,0-0.1c0-0.1,0-0.1,0-0.1
					c-0.1-0.2-0.1-0.3-0.2-0.5s-0.3-0.4-0.4-0.6c-0.1-0.1-0.3-0.2-0.5-0.3s-0.4-0.1-0.6-0.1s-0.4,0-0.6,0.1s-0.4,0.2-0.5,0.3
					s-0.2,0.2-0.2,0.3c-0.1,0.2-0.2,0.5-0.2,0.8c0,0.1,0,0.3,0,0.4C226.3-221.8,226.4-221.6,226.6-221.4L226.6-221.4z"/>
			</g>
		</g>
		<path fill="#332C26" stroke="#000000" stroke-miterlimit="10" d="M195.8-268.7c-4.1,2.9-30,26.8-32.2,36.3
			c-0.6,1.6,3.1,10,3.5,9.9c0,0,0,0,0-0.1c0.2-0.8-17.5-5.9-14.1-29.3"/>
		<path fill="none" stroke="#000000" stroke-width="2" stroke-miterlimit="10" d="M185.3-244.2c-7.6-0.2-14.6,1-20.7,4.5"/>
		<path fill="none" stroke="#000000" stroke-width="2" stroke-miterlimit="10" d="M211.4-244.2c7.6-0.2,14.6,1,20.7,4.5"/>
		<path fill="#305437" stroke="#000000" stroke-miterlimit="10" d="M260.8-147.7c-0.9-6.9-1.9-13.9-4.4-20.7
			c-10.1-1.9-20.2-3.8-30.3-5.7l9.8,34.1c1,6.2,2.2,12.5,3.5,18.7l26.4-0.5C263.7-130.2,261.9-138.8,260.8-147.7z"/>
		<path fill="#305437" stroke="#000000" stroke-miterlimit="10" d="M169-143.5l12.7-31.9c-10.1,1.9-20.2,3.8-30.3,5.7
			c-2.5,7.9-4.9,16-7.3,24.2c-2.6,8.8-5,17.5-7.3,26l25.6-0.5C164.7-127.8,166.8-135.6,169-143.5z"/>
		<g>
			<path fill="#305437" d="M238.7-132.2c0-6.9,0.5-16.9,2.6-29.1l-80.6,2.5c2.2,5.9,2.8,21.5,2.6,38.9l75.7-1.4
				C238.8-124.5,238.7-128.1,238.7-132.2z"/>
			<g>
				<path d="M238.6-132.2c0.2-9.5,0.7-20.3,2.7-29c-13.4,0.4-47.5,1.5-60.5,1.9c-6.7,0.2-13.4,0.4-20.1,0.7l0.1-0.2
					c1.1,3.1,1.6,6.4,2,9.6c1.2,9.4,0.9,19.9,0.6,29.4l-0.1-0.1c0,0,76.2-1.5,75.6-1.3C238.9-121.3,238.6-132.2,238.6-132.2
					L238.6-132.2z M238.8-132.2l0.3,10.9v0.1l-75.8,1.4h-0.1v-0.1v-4.9c-0.2-7.6-0.5-16.9-1-24.4c-0.3-3.3-0.5-6.6-1.6-9.8
					c6.8-0.1,13.5-0.4,20.3-0.6c12.8-0.4,47.2-1.5,60.5-1.9h0.1v0.1C239.8-151.7,238.9-142,238.8-132.2L238.8-132.2z"/>
			</g>
		</g>
		<path fill="#FFFFFF" stroke="#000000" stroke-miterlimit="10" d="M209.1-164.2c-5.7,1.9-11.9,2.1-18.5,1c0-1.2,2.5,9.2,9.6,12.1
			C210.1-156.6,209.5-166.2,209.1-164.2z"/>
		<path fill="#305437" d="M186.5-164.2c-1.1-3.4-5.2-5-8.3-4.5c-5.1,0.8-8.6,7.6-6.7,11.1s9.1,4,12.7,0.6
			C186-158.5,187.5-161.4,186.5-164.2z"/>
		<path fill="#305437" d="M232.9-167.6c-1.1-3.5-5.5-5.1-8.6-5.1c-7,0.1-13.2,8.8-11.5,12.7c1.8,4.1,13,4.9,17.8-0.4
			C230.9-160.6,234-164,232.9-167.6z"/>
		<path fill="#305437" stroke="#000000" stroke-miterlimit="10" d="M222-191.8c-7.1,8.4-14.1,15.8-20.3,19.4
			c2.2,5.4,4.4,10.7,6.5,16.1c3.1-3.1,7.3-6.7,12.6-10.1c4.6-2.9,8.9-5,12.6-6.4c-2.7-3.9-5.3-7.9-8-11.8
			C224.3-187,223.2-189.4,222-191.8z"/>
		<path fill="#305437" stroke="#000000" stroke-miterlimit="10" d="M177.9-190.5c7.2,8.4,14.2,15.8,20.4,19.4
			c-2.2,5.4-4.4,10.7-6.5,16.1c-4.2-3.3-8.4-6.7-12.6-10.1c-3.3-2.7-6.6-5.4-9.8-8.1c1.6-2.3,3.4-5.2,5.1-8.6
			C176-184.9,177.1-187.9,177.9-190.5z"/>
		<g>
			<g>
				<path d="M220.7-179.8c-1,0.8-2.2,1.5-3.4,2.1c-0.5,0.3-1.1,0.5-1.5,1s-0.6,1.1-0.9,1.7c-1.2,2.8-2.4,5.6-3.6,8.4
					c-0.4,0.9,0.9,1.6,1.3,0.8c1.2-2.7,2.3-5.5,3.5-8.2c0.2-0.5,0.4-1.2,0.8-1.7c0.4-0.4,1-0.6,1.5-0.9c1.2-0.6,2.2-1.3,3.3-2.1
					C222.5-179.3,221.4-180.4,220.7-179.8L220.7-179.8z"/>
			</g>
		</g>
		<g>
			<g>
				<path d="M176.2-179.1c0.2,0,0.4,0,0.6,0c0.1,0,0.2,0,0.3,0h0.1c0,0,0,0-0.1,0c0,0,0.1,0,0.2,0c0.2,0,0.4,0.1,0.6,0.1
					c0,0,0.1,0,0.1,0.1c0.2,0.1-0.1-0.1,0,0s0.2,0.1,0.3,0.1l0.1,0.1c-0.1-0.1-0.1-0.1,0,0c0,0,0,0,0.1,0.1s0.1,0.1,0.2,0.2l0.1,0.1
					c-0.1,0-0.1-0.1,0,0c0,0.1,0.1,0.2,0.1,0.2c0.1,0.1,0-0.1,0,0v0.1v0.1c0,0,0,0,0,0.1s0,0,0-0.1v0.2c0,0.2,0-0.2,0,0v0.1
					c-0.1,0.4,0.1,0.8,0.5,0.9s0.8-0.1,0.9-0.5c0.4-1.1-0.3-2.2-1.1-2.8c-0.9-0.6-2-0.7-3.1-0.7c-0.4,0-0.8,0.4-0.8,0.8
					C175.4-179.4,175.7-179.1,176.2-179.1L176.2-179.1z"/>
			</g>
		</g>
		<path fill="none" stroke="#000000" stroke-miterlimit="10" d="M218.7-180.5"/>
		<path fill="none" stroke="#000000" stroke-miterlimit="10" d="M218.7-183.3"/>
		<path fill="none" stroke="#000000" stroke-miterlimit="10" d="M220-183.7"/>
		<path fill="#C87529" stroke="#000000" stroke-miterlimit="10" d="M254.4-177.9c-1.6-2.1-3.9-2.8-5.1-3.2c-0.6-0.2-5.7-1.8-10.5,1
			c-5.1,2.9-8.2,9.7-6,14.7c2.9,6.5,14.4,8.3,20.1,2.9C256.8-166.5,257.6-173.9,254.4-177.9z"/>
		<path fill="#304D37" stroke="#000000" stroke-miterlimit="10" d="M257.1-170.7c-6.5-6.2-14.8-7.3-24.5-4.4
			c-0.4,0.9-0.8,1.9-1.1,2.8c8.1,0.2,16.4,1,25.3,3.8C256.9-169.3,257-170,257.1-170.7z"/>
		<path fill="#304D37" stroke="#000000" stroke-miterlimit="10" d="M151.2-171.3c5.7-6.2,13-7.3,21.4-4.4c0.3,0.9,0.7,1.9,1,2.8
			c-7.1,0.2-14.3,1-22.1,3.8C151.4-169.8,151.3-170.5,151.2-171.3z"/>
		<g>
			<g>
				<path d="M194.4-198.7c4.8,0.5,10.1,0.5,14.1-2.6c0.8-0.6,0-1.9-0.8-1.3c-3.8,2.9-8.8,2.8-13.3,2.3
					C193.4-200.3,193.4-198.8,194.4-198.7L194.4-198.7z"/>
			</g>
		</g>
		<g>
			<g>
				<path fill="#20382B" d="M158.9-157.7c-2.5,9.2-4.1,18.6-4.9,28c-0.2,1.9,2.8,1.9,3,0c0.8-9.2,2.4-18.3,4.8-27.2
					C162.3-158.8,159.4-159.5,158.9-157.7L158.9-157.7z"/>
			</g>
		</g>
		<g>
			<g>
				<path fill="#20382B" d="M251.8-161.6c-2.6,2.8-5.1,5.7-7.5,8.6c-0.5,0.6-0.6,1.5,0,2.1c0.6,0.5,1.6,0.6,2.1,0
					c2.5-2.9,5-5.8,7.5-8.6c0.5-0.6,0.6-1.5,0-2.1C253.3-162.2,252.3-162.3,251.8-161.6L251.8-161.6z"/>
			</g>
		</g>
		<g>
			<g>
				<path fill="#20382B" d="M163.2-169.8c3.3,0.9,6.6,1.7,9.9,2.4c0.8,0.2,1.7-0.2,1.9-1s-0.2-1.7-1-1.9c-3.3-0.7-6.6-1.5-9.9-2.4
					c-0.8-0.2-1.7,0.2-1.9,1S162.4-170,163.2-169.8L163.2-169.8z"/>
			</g>
		</g>
	</g>
	<path display="inline" fill="none" stroke="#F48E8E" stroke-width="30" stroke-miterlimit="10" d="M206.4-334.7
		c-4.2-0.4-8.5-0.7-12.8-0.7c-63.3,0-114.7,49.3-114.7,110.2c0,42.4,24.9,79.1,61.4,97.6c7.3,3.7,15.1,6.7,23.3,8.8
		c0.2,0.1,0.5,0.1,0.7,0.2c9.2,2.3,18.9,3.6,28.8,3.6c0.2,0,0.4,0,0.6,0c16.6,0,32.5-3.4,46.7-9.5c0.4-0.2,0.8-0.4,1.2-0.5
		c8.4-3.7,16.2-8.3,23.3-13.7c26.5-20.2,43.5-51.4,43.5-86.4C308.4-281.9,263.8-328.6,206.4-334.7z"/>
</g>
<g display="none">
	<path display="inline" fill="#C4925C" d="M102.1,306.6h184.1c21.1,0,38.2-17.1,38.2-38.2l0,0c0-21.1-17.1-38.2-38.2-38.2H102.1
		c-21.1,0-38.2,17.1-38.2,38.2l0,0C63.9,289.5,81,306.6,102.1,306.6z"/>
	<path display="inline" fill="#E0BF6C" d="M102.1,300h184.1c21.1,0,38.2-17.1,38.2-38.2l0,0c0-21.1-17.1-38.2-38.2-38.2H102.1
		c-21.1,0-38.2,17.1-38.2,38.2l0,0C63.9,282.9,81,300,102.1,300z"/>
</g>
<rect x="111.7" y="250.7" display="none" fill="none" width="180.2" height="35.9"/>
<g display="none" enable-background="new    ">
	<path display="inline" d="M114.7,274.4c0-1.3,0.9-2.2,2.1-2.2s2.1,0.9,2.1,2.2c0,1.3-0.8,2.2-2.1,2.2S114.7,275.7,114.7,274.4z
		 M115.6,269.2l-0.5-17.3h3.5l-0.5,17.3H115.6z"/>
	<path display="inline" d="M122.1,273.1c1.1-0.2,3.7-0.2,5.7-0.2h5.5c0-2.4,0-5.9,0-7.7c-0.1-3.9-0.5-5.3-3.9-5.3h-3.1
		c-2.1,0-3.5-0.1-4-0.2l0.6-3.2c0.7,0.1,2.3,0.1,4.6,0.1h2.8c5.1,0,5.7,2.4,5.7,7.3v5.9c0,0.8-0.1,2.4-0.1,3.1h2.6l-0.6,3.3h-11.7
		c-1.5,0-3.8,0-4.6,0.1L122.1,273.1z"/>
	<path display="inline" d="M145.5,265c0-3.1-0.4-4.2-3.2-4.9c-1.3-0.3-1.9-0.5-2.4-0.7l0.6-3.2c0.5,0.2,1.2,0.4,2.5,0.6
		c4,0.9,5.3,2.2,5.3,7.7v11.8h-2.8V265z"/>
	<path display="inline" d="M153.1,271.4c0-3.5,0.8-6.8,3.4-9.5c-1.6-1.8-3.4-3.7-4.9-5l0.1-0.2l3.9-0.3c1.8,1.9,4.5,4.9,8.3,9.6
		c1.4-1,2.3-2.4,2.3-4.7c0-1.4-0.4-3-1.1-4.5l3.5-0.3c0.5,1.4,0.7,2.7,0.7,4.2c0,3-1.5,5.6-4.1,7.1c1.9,2.4,5,6.7,6.1,8.4h-3.8
		c-1.2-1.9-4.3-6.4-9.5-12.4c-1.6,1.9-1.9,4.5-1.8,6.8c0,2.1,0.5,4.1,1,5.6h-3.5C153.4,274.8,153.1,273.1,153.1,271.4z"/>
	<path display="inline" d="M177.3,265c0-3.1-0.4-4.2-3.2-4.9c-1.3-0.3-1.9-0.5-2.4-0.7l0.6-3.2c0.5,0.2,1.2,0.4,2.5,0.6
		c4,0.9,5.3,2.2,5.3,7.7v11.8h-2.8V265z"/>
	<path display="inline" d="M191.8,273.1c0.9-0.1,2.1-0.1,4.4-0.1h2.5v-8c0-3.1-0.4-4-3.6-4.8c-1.3-0.3-2.6-0.6-3.1-0.8l0.6-3.2
		c0.5,0.2,1.5,0.4,3.1,0.7c4.2,0.9,5.8,2.1,5.8,7.4v8.7l-0.6,3.2h-5c-1.5,0-4,0-4.8,0.1L191.8,273.1z"/>
	<path display="inline" d="M205.3,273.1c0.5-0.1,1-0.2,3-0.2h0.5c0-3.5-0.3-10.7-0.6-13h-0.1c-0.6,0-2.2,0-2.7-0.3l0.6-3.2
		c1.1,0.2,3.5,0.1,5.7,0.1h5.9c5.3,0,6.3,1.3,6.3,7.4v12.2h-2.8v-11.2c0-3.6-0.4-5.1-3.7-5.1H211c0.2,2.3,0.6,10.5,0.5,13.1
		l-0.5,3.2h-2.8c-1.4,0-2.7,0-3.6,0.1L205.3,273.1z"/>
	<path display="inline" d="M230,264.9c0-2.4,0.1-4.3,0.3-5c-0.6,0-2.4-0.1-2.6-0.2l0.6-3.2c0.8,0.2,2.6,0.2,5,0.2h6.5
		c5.3,0,6.3,1.6,6.3,7.6v12h-2.8v-10.9c0-4-0.4-5.4-3.8-5.4h-6.7v16.3H230V264.9z"/>
	<path display="inline" d="M251.7,267.7c1.5-2.3,2.3-4.1,2.3-5.5c0-1.2-0.7-1.6-2.3-2.1c-0.9-0.3-1.6-0.5-2.2-0.7l0.6-3.2
		c0.5,0.2,1.2,0.4,2.1,0.6c3.4,0.8,4.6,1.8,4.6,4.5c0,2.3-1.1,4.8-2.8,7.4L251.7,267.7z"/>
	<path display="inline" d="M261.9,272.9c4.8-1.4,8.5-5.2,8.5-10.3c0-2.3-0.9-2.7-2.8-2.7h-8.6v-5.2c0-2.2-0.1-4.8-0.5-5.7l2.9-0.5
		c0.2,0.5,0.4,2.9,0.4,5.6v2.6h6.9c3.7,0,4.5,1.8,4.5,5c0,8.1-6.4,13.6-12.1,14.9L261.9,272.9z"/>
</g>
<g>
	<g>
		<g>
			<g>
				<defs>
					<rect id="SVGID_00000165204922942940768600000002883465059152070304_" x="118.7" y="49.9" width="125.2" height="125.2"/>
				</defs>
				<clipPath id="SVGID_00000064328499666269569320000000251513753331983543_">
					<use xlink:href="#SVGID_00000165204922942940768600000002883465059152070304_"  overflow="visible"/>
				</clipPath>
				<g clip-path="url(#SVGID_00000064328499666269569320000000251513753331983543_)">
					<g>
						<g>
							<g>
								<defs>
									<path id="SVGID_00000069378697481096344960000013364506738456706192_" d="M181.3,49.9c-34.6,0-62.6,28-62.6,62.6
										s28,62.6,62.6,62.6s62.6-28,62.6-62.6C244,78,215.9,49.9,181.3,49.9z"/>
								</defs>
								<clipPath id="SVGID_00000097489775567578543230000004447539549952321438_">
									<use xlink:href="#SVGID_00000069378697481096344960000013364506738456706192_"  overflow="visible"/>
								</clipPath>
								<g clip-path="url(#SVGID_00000097489775567578543230000004447539549952321438_)">
									<path fill="#F1EEF7" d="M118.7,49.9h125.2v125.2H118.7V49.9z"/>
								</g>
							</g>
						</g>
					</g>
				</g>
			</g>
		</g>
	</g>
	<g>
		<g transform="translate(649.057869, 753.902603)">
			<g>
				<path d="M-486.5-611.6c-0.9,0-1.8-0.4-2.6-1.1c-0.8-0.8-1.2-1.6-1.2-2.5l0.1-7c0-0.8,0.3-1.5,0.9-2.1s1.3-0.9,2.1-0.9l13.9,0.1
					c2.5,0.1,4.3-0.3,5.2-0.9c0.9-0.7,1.5-1.5,1.7-2.3c0.1-0.7,0.1-1.3-0.1-1.9c-0.2-0.6-0.9-1.1-2.2-1.5c-1.2-0.4-3.4-0.6-6.5-0.6
					h-6c-0.9,0-1.6-0.3-2.3-0.9c-0.6-0.6-1-1.3-1-2.1l0.1-6.7c0-0.8,0.3-1.5,0.9-2s1.4-0.8,2.2-0.8h6c2.3,0,4.1-0.2,5.3-0.5
					c1.2-0.4,2-0.8,2.5-1.4c0.5-0.6,0.7-1.2,0.7-1.8c0-0.9-0.5-1.7-1.5-2.4s-2.6-1-4.9-0.9l-14.1,0.3c-0.9,0.1-1.6-0.2-2.2-0.8
					s-0.9-1.3-0.9-2.1l0.1-7.6c0.1-2.4,1.5-3.7,4.1-3.8l5.4-0.4c6-0.4,10.9-0.3,14.8,0.4s7,2,9.2,3.9c1.4,1.1,2.4,2.7,3.2,4.6
					c0.8,2,1.2,4.1,1.3,6.3c0.1,2.2-0.1,4.3-0.7,6.3c-0.5,2-1.4,3.7-2.6,4.9c1.6,1.2,2.8,2.7,3.7,4.7c0.9,1.9,1.4,4,1.6,6.3
					c0.2,2.2,0,4.4-0.6,6.5s-1.7,3.8-3.1,5.3c-1.3,1.3-2.5,2.4-3.8,3.1c-1.2,0.8-2.6,1.3-4.1,1.7s-3.3,0.6-5.5,0.6
					c-2.1,0.1-4.8,0.1-7.9,0.1C-478.1-611.6-482-611.6-486.5-611.6z"/>
			</g>
		</g>
	</g>
	<path fill="#FFFFFF" d="M283.6,103.9c-7.4-30.1-26.3-43.1-60.5-34.9c-17.9-38.5-63.7-40.8-82.8-11.5c0,0-59.8-10.9-67.5,55.1
		c-52.3,0-55.4,58-41.6,77.9c8.4,12.2,24.7,20.8,51.5,20.7c0,0,127.3,3.5,195.6,1.1c11.5-0.4,22.5-5.2,30.5-13.5
		C352.9,155.3,304,105.3,283.6,103.9z M176,155.3c-23.1,0-41.8-18.7-41.8-41.8s18.7-41.8,41.8-41.8s41.8,18.7,41.8,41.8
		S199.1,155.3,176,155.3z"/>
	<g>
		<g>
			<g transform="translate(575.459791, 840.105195)">
				<g>
					<path d="M-488.9-670.1c0,0.3,0,0.7,0,1s0,0.7-0.1,0.9c0,0.7-0.1,1.2-0.1,1.5c0,0.3,0,0.9,0,1.5c0,0.3,0,0.5,0,0.8
						c0,0.3,0,0.5,0,0.8c0,0.5,0,0.9-0.1,1.3c-0.1,0.4-0.1,0.9,0,1.3v2.4c0,0.9,0.1,1.7,0.1,2.5s0,1.6,0.1,2.7c0,0.5-0.2,0.9-0.4,1
						c-0.3,0.1-0.6,0.2-1.1,0.2c-0.4,0-0.8,0-1.1,0s-0.7,0-1.1,0c-0.3,0-0.6,0-0.9,0s-0.5,0-0.9,0c-0.2,0-0.3-0.1-0.7-0.2
						c-0.3-0.1-0.5-0.4-0.5-0.9c0-0.9,0-1.8,0.1-2.6s0.1-1.7,0.1-2.6c0-0.6,0-1.2,0-1.6c0-0.5,0-1,0-1.7c0-0.6,0-1.2,0.1-1.6
						c0-0.5,0-1,0-1.6l-0.1-3.5c0-0.8,0-1.5,0.1-2s0.5-0.9,1.4-0.9c0.2,0,0.3,0,0.4,0.1c0.1,0,0.3,0.1,0.3,0.1c0.3,0,0.6-0.1,1-0.1
						s0.9,0,1.4,0s0.8,0,0.9,0c0.4,0,0.7,0.1,0.9,0.3C-489-670.9-488.9-670.6-488.9-670.1z"/>
				</g>
			</g>
		</g>
		<g>
			<g transform="translate(585.543043, 840.105195)">
				<g>
					<path d="M-484.3-642.6c0,0.6-0.1,1-0.3,1.4c-0.2,0.3-0.5,0.5-1,0.6c-0.3,0-0.7,0-0.9,0s-0.6,0-1,0c-0.5,0-1-0.1-1.6-0.1
						c-0.6,0-0.9,0-1.2,0c-0.2,0-0.3,0.1-0.6,0.1c-0.3,0-0.5,0-0.8,0c-0.3,0-0.6,0-0.9,0s-0.6,0-0.9,0c-0.7,0-1.1-0.1-1.2-0.3
						c-0.1-0.2-0.2-0.4-0.2-0.9c0.1-0.9,0.1-1.7,0-2.3s-0.1-1-0.1-1.3c0-0.5,0.2-0.9,0.3-1.2c0.2-0.3,0.5-0.3,1-0.3h1.4
						c0.3,0,0.5-0.1,0.7-0.2c0.2-0.1,0.3-0.4,0.3-0.9c0-0.6,0-1.2,0-1.8c-0.1-0.6-0.1-1.2-0.1-1.9c0-0.9,0-1.6,0-2
						c0-0.5,0-0.9,0.1-1.5c0-0.5,0-1.2,0-2.1c0-1.7,0-3.2,0-4.5c0-0.5,0-0.9,0-1.5c0-0.5-0.1-0.9-0.3-1.3c-0.2-0.3-0.6-0.5-1.3-0.5
						h-1c-0.4,0-0.8-0.1-0.9-0.3c-0.2-0.2-0.2-0.5-0.2-0.9c0-0.3,0-0.9,0.1-1.8c0-0.9,0-1.5-0.1-2c0-0.5,0.1-0.8,0.3-1
						c0.3-0.2,0.6-0.3,1-0.3c0.3,0,0.6,0,0.9,0.1c0.3,0,0.6,0.1,0.9,0.1l1.3-0.1c0.3,0,0.6,0,0.9,0s0.7,0,0.9,0.1
						c0.3,0,0.7,0.1,1.2,0.3c0.5,0.1,1,0.3,1.5,0.8c0.5,0.4,0.8,1.1,0.9,2c0.2,0.9,0.3,1.7,0.3,2.6v1.3c0.1,0.8,0.1,1.4,0.1,2
						c0,0.5,0,1.2,0,1.9c0,0.6,0,1.5,0,2.5s0,2.2,0,3.3c0,0.4,0,0.9,0.1,1.3c0,0.4,0.1,0.9,0.1,1.4c0,0.4,0,0.8,0,1.1
						c0,0.3,0,0.7,0,1.1s0,0.8,0,1.1c0,0.3,0,0.7-0.1,1c0,0.3,0,1,0.1,2C-484.3-644.8-484.3-643.7-484.3-642.6z"/>
				</g>
			</g>
		</g>
		<g>
			<g transform="translate(598.494299, 840.105195)">
				<g>
					<path d="M-492.4-642c0-0.6,0-1.2,0.1-1.6c0-0.5,0.1-1,0.1-1.6c0-0.7,0-1.3-0.1-1.9s-0.1-1.2-0.1-1.9c0-0.9,0-1.6,0.1-2.3
						s0.1-1.5,0.2-2.3l0.1-2c0-0.5,0-0.9,0-1.4s0-0.9-0.1-1.4c0-0.5-0.1-1.1,0-1.6c0-0.5,0-1,0-1.5c0-0.6-0.1-1.2,0-1.8
						c0-0.6,0-1.2,0-1.8c0-0.3,0-0.9-0.1-1.5c0-0.6-0.1-1.3-0.1-1.9s-0.1-1.1-0.1-1.5c0-0.3,0-0.6,0.1-0.9c0.1-0.3,0.3-0.5,0.7-0.5
						c0.3,0,0.8,0,1.1,0.1c0.3,0,0.7,0.1,1,0.1c0.4,0,0.8,0,1.1,0s0.7,0,1.1,0s0.9,0.1,1.2,0.2c0.3,0.2,0.5,0.5,0.5,1.1
						c0,0.3,0,0.6-0.1,0.9c-0.1,0.3-0.1,0.7-0.1,1.2c0,0.5,0.1,1,0.1,1.5s0,1,0.1,1.5c0,0.9,0.1,1.6,0.1,2.2c0.1,0.7,0.1,1.5,0,2.3
						c0,0.4-0.1,0.8-0.1,1c0,0.2,0,0.6,0,1l0.2,3.3c0,1.1-0.1,2-0.2,2.9s-0.2,1.9-0.2,3v1.8c0,0.6,0,1.1,0.1,1.6
						c0,0.4,0.1,0.9,0.1,1.4l0.1,1.8c0,0.5,0,0.9-0.2,1.3c-0.2,0.3-0.7,0.5-1.5,0.5c-0.4,0-0.9,0-1.2-0.1s-0.8-0.1-1.2-0.1
						c-0.3,0-0.5,0-0.7,0.1c-0.2,0-0.4,0.1-0.8,0.1c-0.5,0-0.9-0.1-0.9-0.3C-492.4-641.4-492.4-641.7-492.4-642z"/>
				</g>
			</g>
		</g>
		<g>
			<g transform="translate(608.667183, 840.105195)">
				<g>
					<path d="M-465.1-664.6c0,1,0,2,0,3s0,2,0,3c0,0.3,0,0.7,0,1.1s0.1,0.8,0.1,1c0.1,1,0.1,1.9,0.1,2.6s0,1.5-0.1,2.6
						c0,0.5-0.1,0.9,0,1.3c0,0.4,0,0.9,0,1.3c-0.1,2.4-0.5,4.2-1.4,5.4c-0.9,1.2-2.2,2-4.2,2.5c-0.7,0.2-1.6,0.2-3,0.2
						c-1.4,0-2.6,0-4.1-0.1c-1.2,0-2.2,0-3.1,0.1s-1.6,0.2-2.3,0.1c-1.5,0-2.8,0-3.8,0.1s-1.7,0.1-2.4-0.1c-0.5-0.2-0.9-0.4-1.2-0.8
						c-0.3-0.4-0.4-0.9-0.4-1.5l-0.2-6c0-0.9,0-1.7,0-2.5c0.1-0.7,0.1-1.5,0.2-2.5c0-1.2,0.1-2.4,0.1-3.3c0-1,0-2.1-0.1-3.4
						l-0.1-3.8c0-0.8-0.1-1.5-0.1-2.1c0-0.7,0-1.4,0-2.1c0-0.9,0-1.5,0.1-2c0.2-0.5,0.5-0.8,1.3-0.7c0.6,0,1.1,0.1,1.5,0.1
						s0.9,0,1.5,0c0.5,0,1,0,1.5,0.1s0.6,0.6,0.7,1.4c0,0.7,0,1.3,0,1.8c0,0.6,0,1.2,0,1.9l0.1,2.1c0,0.3,0,0.7,0,1c0,0.3,0,0.6,0,1
						l-0.1,1.5c-0.1,1-0.1,2-0.1,2.8s0.1,1.6,0.1,2.2c0,0.5,0,1,0,1.5s0,0.9,0,1.5c0,0.3,0,0.7-0.1,1.2c-0.1,0.6-0.1,1.4,0.1,2.3
						c0,0.3,0.1,0.5,0.1,0.8c0,0.3,0,0.5,0,0.9c0,0.2,0.1,0.4,0.2,0.8c0.2,0.3,0.5,0.3,1.2,0.3c0.5,0,0.9-0.1,1.1-0.1
						s0.5-0.1,0.6-0.2c0.2-0.2,0.3-0.3,0.3-0.7c0-0.3,0.1-0.5,0.1-0.7c0.1-0.7,0.1-1.5,0.1-2.5s0-2-0.1-2.8c0-0.9-0.1-1.5-0.1-1.9
						l-0.1-4.9c0-0.4-0.1-0.9-0.1-1.3s0-0.9-0.1-1.3c0-0.9,0-1.7,0-2.3s0-1.3-0.1-2c0-0.4,0-0.9-0.1-1.3c-0.1-0.4-0.1-0.8-0.1-1.3
						c0-0.7,0.1-1.1,0.2-1.5c0.1-0.3,0.5-0.5,1.4-0.5c1-0.1,1.8-0.1,2.4-0.1c0.6,0,1.1,0,1.5,0c0.6,0,0.9,0.2,1,0.5
						c0.1,0.3,0.2,0.6,0.2,0.9c0,0.5,0,1,0,1.5c0,0.4,0,0.9,0,1.5c0,0.6,0,1.2,0,1.7s0.1,1,0.1,1.6c0.1,1,0.1,2.4,0,4
						s-0.1,3.2,0.1,5c0,0.3,0,0.9,0,1.7c-0.1,0.9-0.1,1.9-0.1,2.9s0,2,0,2.9c0,0.3,0.1,0.5,0.3,0.6c0.2,0.1,0.5,0.2,0.9,0.2
						c0.2,0,0.3,0,0.6,0.1c0.3,0,0.5,0,0.6-0.1c0.5-0.2,0.9-0.5,1-1c0.2-0.4,0.3-1.1,0.2-2c0-1.1,0.1-2.2,0.1-3.3
						c0.1-1.1,0.1-2.2,0-3.3c0-0.2,0-0.3,0-0.5c0-0.2,0-0.4,0-0.6c0-0.6,0-1.4,0-2.4c0-0.9,0-1.8,0-2.6c0-0.9,0-1.6-0.1-2.2
						c-0.1-0.6-0.1-1.4-0.1-2.1c0-0.3,0-0.6,0-1s0-0.8-0.1-1c0-0.3-0.1-0.7-0.1-1.1c0-0.4,0.1-0.8,0.3-1.1c0.2-0.3,0.6-0.4,1.2-0.4
						c0.7,0,1.2,0.1,1.5,0.1c0.3,0,0.5,0,0.7,0c0.2,0,0.3,0,0.6,0c0.3,0,0.6,0,1.2,0c0.7,0,1,0.3,1.1,0.8c0.1,0.5,0.2,0.9,0.2,1.3
						c0,0.5,0,1.2-0.1,2C-465.1-666.4-465.1-665.5-465.1-664.6z"/>
				</g>
			</g>
		</g>
		<g>
			<g transform="translate(635.734392, 840.105195)">
				<g>
					<path d="M-466.6-662.7c0,0.4,0,0.9,0,1.3s0,0.9-0.1,1.3c0,0.2-0.1,0.5-0.1,1.1s-0.1,1.2-0.3,1.9c-0.1,0.4-0.3,0.9-0.4,1.3
						c-0.2,0.3-0.4,0.8-0.7,1.1c-0.5,0.7-1.5,1.1-2.6,1.4c-0.9,0.2-1.1,0.9-0.6,1.9l0,0c0,0,0,0,0,0.1c0.3,0.4,0.5,0.9,0.8,1.6
						c0.3,0.6,0.5,1,0.6,1.3c0.3,0.6,0.5,1.2,0.7,1.6c0.2,0.4,0.4,1,0.8,1.6c0.5,0.9,0.8,1.6,0.9,2.1s0.3,0.9,0.3,1.5
						c0,0.3-0.1,0.5-0.3,0.8c-0.2,0.3-0.5,0.3-0.9,0.3s-0.9,0-1.3-0.1s-0.9-0.1-1.4-0.1c-0.3,0-0.7,0-0.9,0s-0.5,0-0.9,0
						c-0.4-0.1-0.8-0.2-0.9-0.4c-0.2-0.3-0.3-0.7-0.5-1.5c-0.3-0.9-0.5-1.5-0.8-1.8c-0.3-0.4-0.4-0.9-0.6-1.3
						c-0.1-0.2-0.2-0.4-0.3-0.9c-0.2-0.4-0.3-0.7-0.3-0.8c-0.1-0.3-0.2-0.4-0.3-0.7c-0.2-0.2-0.3-0.4-0.3-0.7
						c-0.2-0.5-0.4-1-0.7-1.5s-0.4-1-0.7-1.6c-0.2-0.3-0.3-0.7-0.5-1.2c-0.2-0.5-0.4-0.9-0.6-1.3c-0.3-0.3-0.6-0.5-0.9-0.4
						c-0.5,0.1-0.9,0.6-0.9,1.5c0,0.5-0.1,1.2-0.1,2c0,0.8,0,1.5,0.1,2.2s0.1,1.3,0,1.9s-0.1,1.1-0.1,1.5c0,0.3,0,0.5,0.1,0.9
						c0,0.3,0.1,0.7,0.1,1.2c0,0.2,0,0.5,0.1,0.9c0,0.3,0,0.7-0.1,0.9c0,0.3-0.2,0.6-0.3,0.8c-0.2,0.2-0.5,0.3-1,0.3
						c-0.3,0-0.7,0-1-0.1c-0.3-0.1-0.7-0.1-1-0.1c-0.3,0-0.7,0-0.9,0.1c-0.3,0-0.6,0.1-1,0.1c-0.6,0-0.9-0.2-1-0.6s-0.2-0.7-0.2-0.9
						c0-0.3,0-0.7,0-1s0-0.8-0.1-1.1c0-0.6,0-1.2,0-1.8c0.1-0.6,0.1-1.2,0.2-1.8c0-0.4,0-0.7,0-0.9s0-0.5,0-0.9s0-0.9,0-1.5
						c0-0.5-0.1-1,0-1.8c0-0.7,0.1-1.3,0.1-1.8c0.1-0.9,0.2-1.5,0.3-2.1s0.7-1.3,1.4-2c0.3-0.3,0.6-0.4,1-0.6s0.9-0.3,1.5-0.4
						c0.5-0.2,0.7-0.4,0.7-0.8s-0.1-0.7-0.3-1c-0.2-0.3-0.4-0.8-0.7-1.3s-0.6-1.1-0.9-1.6s-0.4-0.9-0.6-1.3
						c-0.2-0.5-0.4-0.9-0.7-1.3c-0.3-0.3-0.4-0.8-0.7-1.2c-0.3-0.6-0.4-0.9-0.5-1c-0.1-0.1-0.2-0.4-0.3-1c-0.2-0.5-0.1-0.8,0.2-0.9
						c0.3-0.1,0.5-0.2,0.7-0.2c0.5-0.1,1.1-0.1,2,0c0.9,0.1,1.8,0.1,2.7,0.1c0.7-0.1,1.1,0.1,1.3,0.5c0.2,0.3,0.3,0.8,0.5,1.3
						c0.2,0.4,0.3,0.8,0.4,1c0.1,0.3,0.2,0.6,0.3,0.9c0.3,0.6,0.7,1.3,1,2c0.3,0.8,0.6,1.5,0.9,2.2c0.1,0.2,0.2,0.5,0.4,1
						c0.2,0.5,0.4,1,0.7,1.6c0.3,0.5,0.4,0.9,0.6,1.3s0.3,0.6,0.5,0.7s0.3,0.2,0.6,0.2c0.5,0,0.8-0.3,0.9-0.9c0-0.2,0.1-0.4,0.1-0.8
						c0-0.3,0-0.8,0-1.2c0-1.1,0.1-2,0.1-2.7c0-0.7,0-1.5-0.1-2.4c0-0.5-0.1-0.9-0.1-1.3c-0.1-0.3-0.1-0.7-0.1-1s0-0.8,0-1.2
						s0.1-0.8,0.3-1c0.2-0.3,0.5-0.4,1-0.3c1,0.1,1.7,0.2,2.2,0.1c0.5-0.1,1.2-0.1,2,0c0.7,0.1,1,0.3,1.1,0.7
						c0.1,0.3,0.1,0.6,0.1,0.8v2c-0.1,1.2-0.1,2,0,2.5c0,0.3,0,0.7,0,0.9s0,0.3,0,0.7C-466.6-663.9-466.6-663.4-466.6-662.7z"/>
				</g>
			</g>
		</g>
		<g>
			<g transform="translate(657.917034, 840.105195)">
				<g>
					<path d="M-470.3-642.2c0,0.7-0.2,1-0.4,1.2s-0.6,0.2-0.9,0.2s-0.8,0-1-0.1c-0.3-0.1-0.7-0.1-1-0.1c-0.3,0-0.7,0.1-0.9,0.1
						c-0.3,0-0.6,0.1-1,0.1c-0.6,0-1-0.2-1.1-0.5c-0.2-0.3-0.3-0.7-0.3-0.9c0-0.6,0-1.2,0-2c0-0.8,0.1-1.4,0.1-2
						c0.1-0.5,0.1-1,0.1-1.5s0-0.9,0-1.5c0-0.3,0-0.8,0-1.4c0-0.6,0-1.1,0-1.6c0-0.1,0-0.2-0.1-0.4c0-0.3,0-0.4,0-0.5
						c0-0.2,0-0.8,0-1.7s0-1.9,0-2.7c0-1.2,0.1-2,0.1-2.6c0.1-0.6,0.1-1.2,0.1-1.6s-0.1-0.9-0.2-1.5c-0.4-1.7-1.5-2.5-3.3-2.4
						c-0.7,0-1.2,0-1.7,0s-1,0-1.5,0c-0.4,0-0.9,0-1.3-0.2c-0.3-0.2-0.6-0.6-0.7-1.3c0-0.6,0-1.2,0-1.7c0-0.6,0-1.1,0-1.5
						s0-0.7,0.1-1s0.5-0.5,1.2-0.5c0.4,0,0.9,0,1.3,0.1c0.4,0,0.8,0,1.2,0c0.9-0.1,1.5-0.1,2,0s1,0.1,1.5,0c0.3,0,0.7,0,1.3,0
						c0.6,0.1,1.2,0.2,1.7,0.3c0.5,0.1,0.9,0.3,1.1,0.4s0.5,0.3,0.7,0.3c0.6,0.3,1,0.8,1.4,1.2s0.6,0.9,0.9,1.5
						c0.3,0.5,0.4,1.1,0.4,1.7s0,1,0.1,1.3c0.2,0.6,0.2,1.2,0.2,2s0,1.5,0,2.5c0,0.9,0,1.9,0,3s0,2.5,0.1,3.9c0,0.8,0,1.7,0,2.9
						s-0.1,2.4-0.1,3.7c0,0.8,0,1.5,0.1,2.4C-470.3-643.6-470.3-642.8-470.3-642.2z"/>
				</g>
			</g>
		</g>
		<g>
			<g transform="translate(683.595485, 840.105195)">
				<g>
					<path d="M-462.7-643.6c0,0.3,0,0.5,0,0.7s0,0.4,0,0.8c-0.1,0.7-0.3,1-0.6,1.1c-0.3,0.1-0.7,0.1-1,0.2c-0.3,0-0.6,0.1-1,0
						c-0.4,0-0.8-0.1-1-0.1c-0.3,0-0.4,0-0.6,0.1c-0.2,0.1-0.4,0.1-0.8,0.1c-0.9,0-1.3-0.2-1.4-0.5c-0.1-0.3-0.1-0.7-0.1-1.1
						c0-0.6,0-1.2,0-1.8c0-0.7,0-1.2,0-1.7s0-1,0.1-1.5c0-0.4,0.1-0.9,0.1-1.5c0-0.3,0-0.8-0.1-1.3c0-0.5,0-1,0-1.6
						c0-0.2,0-0.3-0.1-0.6c0-0.2,0-0.3,0-0.4s0-0.3,0-0.9s0.1-1,0.1-1.6s0-0.9,0-1.2c0-0.9,0-1.8-0.1-2.9c0-1.1-0.1-2.1-0.1-3
						c0-0.6-0.1-1.2-0.4-1.9c-0.3-0.7-0.9-1-1.9-1c-0.2,0-0.4,0-0.9,0s-1,0-1.5,0c-0.5,0-1,0-1.5,0s-0.8,0-0.9,0
						c-0.4,0-0.8,0-1.2,0.1s-0.8,0.1-1.2,0.1s-0.9-0.1-1.4-0.2c-0.4-0.1-0.6-0.5-0.5-1.2c0.1-0.3,0.1-0.9,0.1-1.6
						c0-0.8,0-1.4-0.1-1.8c0-0.3,0-0.7,0.1-1s0.5-0.5,1.2-0.5c0.4,0,0.9,0,1.3,0.1c0.4,0,0.8,0,1.3,0c0.7-0.1,1.5-0.1,2.3-0.1
						c0.9,0,1.6,0,2.4,0c0.7,0,1.2,0,1.5,0.1c0.3,0,0.9,0.1,1.5,0.1c0.7,0,1.3,0.2,1.9,0.3c0.3,0.1,0.7,0.3,1,0.4s0.5,0.3,0.7,0.4
						c0.5,0.3,0.9,0.8,1.3,1.3s0.7,1.1,0.9,1.7c0.3,0.5,0.3,1,0.4,1.5s0.1,0.9,0.1,1.1c0.1,0.6,0.1,1.2,0.1,2c0,0.7,0,1.5,0,2.5
						c0,0.9,0.1,1.8,0.2,2.9c0.1,1.1,0.1,2.4,0.1,3.8c0,0.2,0,0.4-0.1,0.7c0,0.3,0,0.7,0,1.3c0,0.6,0,1.3,0,2s0,1.5,0,2s0,0.9,0,0.9
						c0,0.6,0,1.1,0,1.6C-462.7-644.7-462.7-644.2-462.7-643.6z M-474.1-651.7c0,0.4,0,0.9-0.1,1.3s-0.1,0.9-0.1,1.4v2
						c0,0.9,0,1.7,0.1,2.4s0.1,1.5,0,2.4c0,0.6-0.1,1-0.3,1.2c-0.2,0.2-0.6,0.3-1.1,0.3c-0.7,0.1-1.3,0.1-1.9,0s-1.3-0.1-2,0
						c-0.3,0-0.5-0.1-0.9-0.3s-0.5-0.5-0.5-1.2v-0.1c0-0.9,0-1.7,0.1-2.4s0.1-1.5,0.1-2.4c0-0.7,0-1.1,0-1.5c0-0.3,0-0.9-0.1-1.5
						c0-0.6,0-1.1,0-1.6c0-0.5,0-1,0-1.6v-2.7c0-0.3,0-0.6,0-1c0-0.5,0-0.9,0.1-1.5c0.1-0.5,0.2-0.9,0.3-1c0.3-0.3,0.5-0.4,0.8-0.3
						c0.3,0,0.4,0,0.5,0c0.8,0.1,1.5,0.1,2,0.1c0.6,0,1.2,0,1.9,0c0.6,0,0.9,0.2,1,0.4s0.2,0.5,0.2,0.9c0.1,1.3,0.1,2.6-0.1,3.8
						C-474-653.7-474.1-652.6-474.1-651.7z"/>
				</g>
			</g>
		</g>
		<g>
			<g transform="translate(703.671946, 840.105195)">
				<g>
					<path d="M-467.9-642.6c0,0.6-0.1,1-0.3,1.4c-0.2,0.3-0.5,0.5-1,0.6c-0.3,0-0.7,0-0.9,0c-0.3,0-0.6,0-1,0c-0.5,0-1-0.1-1.6-0.1
						s-0.9,0-1.2,0c-0.2,0-0.3,0.1-0.6,0.1c-0.3,0-0.5,0-0.8,0c-0.3,0-0.6,0-0.9,0s-0.6,0-0.9,0c-0.7,0-1.1-0.1-1.2-0.3
						s-0.2-0.4-0.2-0.9c0.1-0.9,0.1-1.7,0-2.3s-0.1-1-0.1-1.3c0-0.5,0.2-0.9,0.3-1.2c0.2-0.3,0.5-0.3,1-0.3h1.4
						c0.3,0,0.5-0.1,0.7-0.2c0.2-0.1,0.3-0.4,0.3-0.9c0-0.6,0-1.2,0-1.8c-0.1-0.6-0.1-1.2-0.1-1.9c0-0.9,0-1.6,0-2
						c0-0.5,0-0.9,0.1-1.5c0-0.5,0-1.2,0-2.1c0-1.7,0-3.2,0-4.5c0-0.5,0-0.9,0-1.5c0-0.5-0.1-0.9-0.3-1.3c-0.2-0.3-0.6-0.5-1.3-0.5
						h-1c-0.4,0-0.8-0.1-0.9-0.3c-0.2-0.2-0.2-0.5-0.2-0.9c0-0.3,0-0.9,0.1-1.8c0-0.9,0-1.5-0.1-2c0-0.5,0.1-0.8,0.3-1
						c0.3-0.2,0.6-0.3,1-0.3c0.3,0,0.6,0,0.9,0.1c0.3,0,0.6,0.1,0.9,0.1l1.3-0.1c0.3,0,0.6,0,0.9,0s0.7,0,0.9,0.1
						c0.3,0,0.7,0.1,1.2,0.3c0.5,0.1,1,0.3,1.5,0.8c0.5,0.4,0.8,1.1,0.9,2c0.2,0.9,0.3,1.7,0.3,2.6v1.3c0.1,0.8,0.1,1.4,0.1,2
						c0,0.5,0,1.2,0,1.9c0,0.6,0,1.5,0,2.5s0,2.2,0,3.3c0,0.4,0,0.9,0.1,1.3c0,0.4,0.1,0.9,0.1,1.4c0,0.4,0,0.8,0,1.1
						c0,0.3,0,0.7,0,1.1s0,0.8,0,1.1c0,0.3,0,0.7-0.1,1c0,0.3,0,1,0.1,2C-467.9-644.8-467.9-643.7-467.9-642.6z"/>
				</g>
			</g>
		</g>
		<g>
			<g transform="translate(716.6232, 840.105195)">
				<g>
					<path d="M-457.9-667.3c0,0.5,0.1,1,0.1,1.5s0.1,0.9,0.1,1.5c0,0.4,0,0.8,0,1.1c0,0.3,0,0.7-0.1,1.1c0,0.4-0.1,0.9,0,1.4
						c0,0.5,0,0.9,0,1.3c0,0.8,0,1.6,0,2.5c0,0.9,0,1.7,0,2.5c0,0.4-0.1,0.8,0,0.9c0,0.2,0.1,0.3,0.1,0.5c0,0.2,0,0.5,0,0.9
						c0,1.3-0.1,2.5-0.3,3.6c-0.2,1.1-0.5,2-1,2.9c-0.3,0.6-0.8,1.1-1.4,1.6c-0.5,0.4-1.3,0.9-2,1.4c-0.7,0.3-1.4,0.6-2,0.7
						s-1.5,0.3-2.6,0.7c-0.4,0.2-0.8,0.2-0.9,0.2s-0.5,0-1,0.2c-0.4,0.1-1,0.2-1.6,0.3c-0.7,0.1-1.2,0.2-1.7,0.3
						c-0.4,0.1-0.9,0.2-1.3,0.3c-0.4,0.1-0.9,0.2-1.4,0.3c-0.4,0-0.7-0.1-0.9-0.3c-0.2-0.3-0.3-0.7-0.4-1.2c-0.1-0.5-0.2-1-0.2-1.4
						c0-0.3-0.2-0.9-0.3-1.8c0-0.3-0.1-0.8,0-1c0-0.3,0.3-0.5,0.9-0.7c0.2,0,0.5-0.1,0.9-0.1c0.4,0,0.8-0.1,1.1-0.2
						c0.3-0.1,0.6-0.3,0.8-0.3c0.2-0.2,0.2-0.4,0.1-0.9c-0.2-0.9-0.3-2-0.5-3.1s-0.4-2.5-0.7-4.2c-0.2-0.9-0.3-1.7-0.3-2.6
						c-0.1-0.9-0.1-1.7-0.3-2.6c-0.1-0.9-0.2-1.6-0.3-2.3c-0.2-0.7-0.3-1.5-0.3-2.2c0-0.5-0.1-1-0.2-1.5s-0.2-1-0.3-1.5
						c-0.3-1.4-0.3-2.3-0.3-2.6c0.1-0.4,0.4-0.7,1-0.8c0.6-0.1,1.3-0.2,2-0.2s1.7,0,2.9,0c0.4,0,0.7,0.3,0.8,0.6s0.2,0.7,0.2,1
						c0.1,0.3,0.2,0.7,0.2,0.9c0,0.3,0.1,0.6,0.1,0.9c0,0.5,0.1,1,0.1,1.5s0.1,0.9,0.1,1.5c0,0.4,0,0.7,0,0.9s0,0.3,0,0.4
						c0,0.2,0.1,0.4,0.2,0.9c0.1,0.3,0.2,0.8,0.2,1.4c0.1,0.6,0.1,1.2,0.2,1.8c0.1,0.6,0.1,1.1,0.2,1.5c0,0.3,0,0.8,0.1,1.4
						c0.1,0.7,0.1,1.4,0.2,2c0.1,0.8,0.1,1.4,0.2,2s0.1,0.9,0.1,1c0,0.4,0.1,0.9,0.1,1.4c0.1,0.4,0.1,0.9,0.2,1.3
						c0.1,0.7,0.2,1.1,0.3,1.3c0.2,0.2,0.4,0.2,0.9,0s0.9-0.3,1.2-0.7c0.3-0.3,0.5-0.6,0.6-1c0.1-0.3,0.2-0.7,0.3-1.1
						c0.1-0.5,0.2-1,0.2-1.5s0-1.3-0.1-2.1c0-0.9-0.1-1.8-0.1-2.6s-0.1-1.5-0.1-2.1c0.1-1.3,0.1-2.2,0-2.9c-0.1-0.7-0.1-1.5-0.1-2.5
						c0-0.9,0-1.8-0.1-2.6c-0.1-0.9-0.2-1.7-0.2-2.6c0-0.7,0.1-1.1,0.3-1.4c0.2-0.3,0.6-0.4,1.2-0.4c0.3,0,0.8,0,1.3,0.1
						c0.6,0,1.1,0.1,1.5,0.1s0.7,0,0.8,0c0.1-0.1,0.3-0.1,0.7-0.1c0.7,0,1,0.4,1,1.2c0,0.5,0,1-0.1,1.5
						C-457.9-668.4-457.9-667.9-457.9-667.3z"/>
				</g>
			</g>
		</g>
		<g>
			<g transform="translate(737.058158, 840.105195)">
				<g>
					<path d="M-454.1-657c0,1.3,0,2.6,0,3.8s-0.1,2.6-0.1,3.8c0,1,0,2.1,0,3.1c0,1,0,2,0.1,3.2c0,0.3,0,0.5-0.1,0.9
						c-0.1,0.3-0.2,0.7-0.4,1c-0.3,0.3-0.7,0.4-1.3,0.4c-0.3,0-0.6,0-0.9,0.1s-0.5,0.1-0.9,0.1s-0.9,0-1.5,0s-1.3,0-1.8,0
						c-0.3,0-0.5,0-0.8,0s-0.6,0-1.1-0.1c-0.3,0-0.8,0-1.1-0.1s-0.5-0.4-0.5-0.9c0-1.2,0.1-2,0.1-2.6c0.1-0.5,0.1-0.9,0-1.2
						c-0.1-0.5-0.1-0.9,0.1-1.1c0.1-0.3,0.4-0.4,1-0.4c1.3,0,2,0,2.4-0.1s0.5-0.3,0.5-0.8c0-0.7,0-1.5,0-2.1c0-0.8,0-1.5,0.1-2
						c0.1-1.1,0.1-1.9,0-2.4s-0.1-1.1-0.1-1.8c0-1.5,0-2.6-0.1-3.2c-0.1-0.8-0.1-1.5-0.1-2s0-1-0.1-1.4c-0.1-0.3-0.2-0.6-0.3-0.9
						c-0.4-1-1.1-1.6-2.1-1.6l-1.2-0.1c-0.3,0-0.5,0.1-0.6,0.2c-0.1,0.1-0.2,0.3-0.3,0.7c0,0.5-0.1,1.2-0.2,2.1
						c-0.1,0.9-0.2,1.9-0.3,2.9c-0.1,0.9-0.2,1.7-0.2,2.2c0,1.2-0.1,2-0.2,2.7c-0.1,0.6-0.2,1.2-0.2,1.7c-0.1,0.5-0.2,1.3-0.3,2.2
						c-0.2,1.6-0.3,2.8-0.3,3.6c-0.1,0.9-0.2,1.6-0.3,2c-0.1,0.4-0.1,0.9-0.1,1.2c0,0.3-0.1,0.9-0.1,1.5c0,0.8-0.2,1.3-0.5,1.5
						c-0.3,0.2-0.7,0.3-1.3,0.3c-0.3,0-0.5,0-0.7-0.1c-0.2,0-0.4-0.1-0.7-0.1c-0.3-0.1-0.7-0.1-1,0c-0.3,0.1-0.8,0.1-1.3,0.1
						c-0.3,0-0.5-0.1-0.9-0.1c-0.3-0.1-0.5-0.4-0.4-1.1c0.1-0.6,0.2-1.1,0.2-1.6c0.1-0.4,0.2-1,0.2-1.6l0.1-1.2
						c0-0.5,0.1-0.9,0.1-1.5c0-0.5,0.1-1,0.1-1.5c0.1-0.7,0.2-1.4,0.3-2.2c0.1-0.9,0.2-1.5,0.3-2.2c0.1-0.9,0.2-1.8,0.2-2.7
						c0.2-1.8,0.3-3.3,0.6-4.6c0.3-1.3,0.3-2.3,0.4-3.1c0-0.3,0-0.7-0.1-0.9s-0.2-0.3-0.5-0.4c-0.1,0-0.3,0-0.5,0
						c-0.3,0-0.4,0-0.5,0c-0.3,0-0.5,0-0.7-0.1s-0.3-0.3-0.3-0.6c0-0.3-0.1-0.6,0-1c0-0.4,0-0.8,0-1c0-0.4-0.1-0.8,0-1.1
						c0-0.3,0.1-0.7,0.1-1.1c0.1-0.3,0.2-0.6,0.3-0.8c0.1-0.2,0.4-0.3,1-0.3c0.4,0,0.9,0,1.2,0c0.4,0,0.9,0,1.5,0c0.5,0,0.9,0,1.3,0
						s0.8,0,1.3,0.1c0.5,0,1,0,1.5-0.1c0.4-0.1,0.9-0.1,1.4-0.1c0.5,0,0.9,0,1.2,0.1c0.3,0,0.7,0.1,1,0.1c2.4,0,4.4,0.8,5.9,2.4
						c0.5,0.5,0.9,1.2,1.3,2c0.3,0.9,0.5,1.8,0.6,2.8c0,0.3,0,0.6,0.1,1.1c0,0.5,0.1,0.9,0.1,1.2c0.1,0.9,0.2,1.8,0.2,2.6
						C-454.3-658.6-454.1-657.8-454.1-657z"/>
				</g>
			</g>
		</g>
	</g>
</g>
</svg>
