<?xml version="1.0" encoding="utf-8"?>
<!-- Generator: Adobe Illustrator 28.3.0, SVG Export Plug-In . SVG Version: 6.00 Build 0)  -->
<svg version="1.1" id="Layer_1" xmlns="http://www.w3.org/2000/svg" xmlns:xlink="http://www.w3.org/1999/xlink" x="0px" y="0px"
	 viewBox="0 0 350.8 250.4" enable-background="new 0 0 350.8 250.4" xml:space="preserve">
<g display="none" opacity="0.3">
	<g display="inline">
		<g>
			<g>
				
					<linearGradient id="SVGID_1_" gradientUnits="userSpaceOnUse" x1="-1013.3038" y1="-394.3006" x2="-1581.8899" y2="-1339.8839" gradientTransform="matrix(-1 0 0 -1 -1320.6428 -299.5134)">
					<stop  offset="0" style="stop-color:#FDF53F"/>
					<stop  offset="1" style="stop-color:#D93C65"/>
				</linearGradient>
				<path fill="url(#SVGID_1_)" d="M-0.7,477.5v-49.9h156.6v49.9c0,46.8,7.6,93.4,22.4,137.8l83.8,250.4h-369l83.8-250.4
					C-8.2,570.8-0.7,524.3-0.7,477.5z"/>
				
					<linearGradient id="SVGID_00000155860063548090684920000016225266044578061989_" gradientUnits="userSpaceOnUse" x1="-1451.313" y1="-686.5328" x2="-1360.8107" y2="-769.8904" gradientTransform="matrix(-1 0 0 -1 -1320.6428 -299.5134)">
					<stop  offset="0" style="stop-color:#2B3582"/>
					<stop  offset="1" style="stop-color:#150E42"/>
				</linearGradient>
				<path fill="url(#SVGID_00000155860063548090684920000016225266044578061989_)" d="M-3.5,448.4h162.2c6.9,0,12.5-5.6,12.5-12.5
					l0,0c0-6.9-5.6-12.5-12.5-12.5H-3.5c-6.9,0-12.5,5.6-12.5,12.5l0,0C-15.9,442.8-10.3,448.4-3.5,448.4z"/>
				<path opacity="0.5" fill="#FFFFFF" enable-background="new    " d="M157.1,509.4h-159c0.5-6.9,0.9-13.8,1-20.8H156
					C156.3,495.5,156.6,502.5,157.1,509.4z"/>
				<path opacity="0.5" fill="#FFFFFF" enable-background="new    " d="M160.9,542.6H-5.6c0.5-3.2,0.9-6.5,1.4-9.7h163.7
					C159.9,536.2,160.4,539.4,160.9,542.6z"/>
			</g>
			<g>
				
					<linearGradient id="SVGID_00000078732313215823198510000001827483996849398668_" gradientUnits="userSpaceOnUse" x1="-1421.1542" y1="-584.4046" x2="-1989.7411" y2="-1529.9891" gradientTransform="matrix(-1 0 0 -1 -1320.6428 -299.5134)">
					<stop  offset="0" style="stop-color:#A737D5"/>
					<stop  offset="1" style="stop-color:#EF497A"/>
				</linearGradient>
				<path fill="url(#SVGID_00000078732313215823198510000001827483996849398668_)" d="M260.2,397v-60.3h189.1v60.2
					c0,56.5,9.2,112.7,27.1,166.3l101.1,302.3H132l101.1-302.3C251.1,509.7,260.2,453.5,260.2,397z"/>
				
					<linearGradient id="SVGID_00000016067688407171961720000007350730561332979642_" gradientUnits="userSpaceOnUse" x1="-1743.079" y1="-583.9168" x2="-1627.7476" y2="-690.1432" gradientTransform="matrix(-1 0 0 -1 -1320.6428 -299.5134)">
					<stop  offset="0" style="stop-color:#2B3582"/>
					<stop  offset="1" style="stop-color:#150E42"/>
				</linearGradient>
				<path fill="url(#SVGID_00000016067688407171961720000007350730561332979642_)" d="M245.2,361.8h219.2c1.9,0,3.4-1.5,3.4-3.4V335
					c0-1.9-1.5-3.4-3.4-3.4H245.2c-1.9,0-3.4,1.5-3.4,3.4v23.4C241.8,360.3,243.3,361.8,245.2,361.8z"/>
				<path opacity="0.5" fill="#FFFFFF" enable-background="new    " d="M450.7,435.5H258.8c0.6-8.3,1-16.7,1.2-25.1h189.4
					C449.7,418.7,450.1,427.1,450.7,435.5z"/>
				<path opacity="0.5" fill="#FFFFFF" enable-background="new    " d="M455.3,475.6h-201c0.6-3.9,1.1-7.8,1.6-11.7h197.7
					C454.1,467.8,454.7,471.7,455.3,475.6z"/>
			</g>
			<g>
				<g>
					
						<linearGradient id="SVGID_00000003092923905775016570000010272145483602049196_" gradientUnits="userSpaceOnUse" x1="-1425.0193" y1="-1242.0708" x2="-1449.1268" y2="-1079.8092" gradientTransform="matrix(-1 0 0 -1 -1320.6428 -299.5134)">
						<stop  offset="0" style="stop-color:#9F5699"/>
						<stop  offset="1" style="stop-color:#202278"/>
					</linearGradient>
					<path fill="url(#SVGID_00000003092923905775016570000010272145483602049196_)" d="M48.8,758.9h152.7c2.2,0,3.9,1.6,3.9,3.7
						l-2.7,99.1c0,2-1.9,3.6-4,3.6L49,864.7c-2.1,0-3.9-1.7-3.9-3.7l-0.3-98.5C44.9,760.5,46.7,758.9,48.8,758.9z"/>
					<g>
						<g>
							<path opacity="0.5" fill="#FFFFFF" enable-background="new    " d="M186.9,776.9h4.8c0.2,0,0.4,0.2,0.6,0.3
								c0.1,0.2,0.2,0.4,0.2,0.6l-0.6,14c0,0.4-0.4,1-0.8,1h-4.6c-0.2,0-0.4-0.4-0.6-0.5c-0.1-0.2-0.2-0.5-0.2-0.7l0.5-13.8
								C186.1,777.4,186.5,776.9,186.9,776.9z"/>
							<path opacity="0.5" fill="#FFFFFF" enable-background="new    " d="M166.4,776.9h4.8c0.2,0,0.4,0.2,0.6,0.3
								c0.1,0.2,0.2,0.4,0.2,0.6l-0.2,14c0,0.4-0.4,1.1-0.8,1.1h-4.6c-0.2,0-0.4-0.4-0.6-0.5c-0.1-0.2-0.2-0.5-0.2-0.7l0.1-13.8
								C165.5,777.4,165.9,776.9,166.4,776.9z"/>
							<path opacity="0.5" fill="#FFFFFF" enable-background="new    " d="M148.2,776.9h4.8c0.5,0,0.8,0.4,0.8,0.8l0.1,13.7
								c0,0.2-0.1,0.7-0.2,0.8c-0.1,0.2-0.4,0.5-0.6,0.5h-4.6c-0.5,0-0.8-0.6-0.8-1l-0.2-13.8c0-0.2,0.1-0.6,0.2-0.7
								C147.8,777.1,148,776.9,148.2,776.9z"/>
							<path opacity="0.5" fill="#FFFFFF" enable-background="new    " d="M129.5,777.2c0.1-0.2,0.4-0.3,0.6-0.3h4.8
								c0.4,0,0.8,0.4,0.8,0.8l0.5,13.7c0,0.2-0.1,0.7-0.2,0.9c-0.1,0.2-0.4,0.5-0.6,0.5h-4.6c-0.4,0-0.8-0.6-0.8-1l-0.6-13.8
								C129.3,777.8,129.4,777.4,129.5,777.2z"/>
						</g>
						<g>
							<path opacity="0.5" fill="#FFFFFF" enable-background="new    " d="M112.7,776.9h4.8c0.2,0,0.4,0.2,0.6,0.3
								c0.1,0.2,0.2,0.4,0.2,0.6l-0.6,14c0,0.4-0.4,1-0.8,1h-4.6c-0.2,0-0.4-0.4-0.6-0.5c-0.1-0.2-0.2-0.5-0.2-0.7l0.5-13.8
								C111.9,777.4,112.3,776.9,112.7,776.9z"/>
							<path opacity="0.5" fill="#FFFFFF" enable-background="new    " d="M92.1,776.9h4.8c0.2,0,0.4,0.2,0.6,0.3
								c0.1,0.2,0.2,0.4,0.2,0.6l-0.2,14c0,0.4-0.4,1.1-0.8,1.1h-4.6c-0.2,0-0.4-0.4-0.6-0.5c-0.1-0.2-0.2-0.5-0.2-0.7l0.1-13.8
								C91.3,777.4,91.6,776.9,92.1,776.9z"/>
							<path opacity="0.5" fill="#FFFFFF" enable-background="new    " d="M74,776.9h4.8c0.5,0,0.8,0.4,0.8,0.8l0.1,13.7
								c0,0.2-0.1,0.7-0.2,0.8c-0.1,0.2-0.4,0.5-0.6,0.5h-4.6c-0.5,0-0.8-0.6-0.8-1l-0.2-13.8c0-0.2,0.1-0.6,0.2-0.7
								C73.5,777.1,73.8,776.9,74,776.9z"/>
							<path opacity="0.5" fill="#FFFFFF" enable-background="new    " d="M55.3,777.2c0.1-0.2,0.4-0.3,0.6-0.3h4.8
								c0.4,0,0.8,0.4,0.8,0.8l0.5,13.7c0,0.2-0.1,0.7-0.2,0.9s-0.4,0.5-0.6,0.5h-4.6c-0.4,0-0.8-0.6-0.8-1L55.2,778
								C55,777.8,55.1,777.4,55.3,777.2z"/>
						</g>
					</g>
					<g>
						<g>
							<path opacity="0.5" fill="#FFFFFF" enable-background="new    " d="M186.9,806.6h4.8c0.2,0,0.4,0.2,0.6,0.3
								c0.1,0.2,0.2,0.4,0.2,0.6l-0.6,13.6c0,0.4-0.4,0.7-0.8,0.7h-4.6c-0.2,0-0.4,0-0.6-0.2c-0.1-0.2-0.2-0.3-0.2-0.5l0.5-13.7
								C186.1,807,186.5,806.6,186.9,806.6z"/>
							<path opacity="0.5" fill="#FFFFFF" enable-background="new    " d="M166.4,806.6h4.8c0.2,0,0.4,0.2,0.6,0.3
								c0.1,0.2,0.2,0.4,0.2,0.6l-0.2,13.6c0,0.4-0.4,0.7-0.8,0.7h-4.6c-0.2,0-0.4,0-0.6-0.2s-0.2-0.3-0.2-0.5l0.1-13.7
								C165.5,807,165.9,806.6,166.4,806.6z"/>
							<path opacity="0.5" fill="#FFFFFF" enable-background="new    " d="M148.2,806.6h4.8c0.5,0,0.8,0.4,0.8,0.8l0.1,13.7
								c0,0.2-0.1,0.4-0.2,0.5c-0.1,0.2-0.4,0.2-0.6,0.2h-4.6c-0.5,0-0.8-0.3-0.8-0.7l-0.2-13.6c0-0.2,0.1-0.5,0.2-0.6
								C147.8,806.8,148,806.6,148.2,806.6z"/>
							<path opacity="0.5" fill="#FFFFFF" enable-background="new    " d="M129.5,806.9c0.1-0.2,0.4-0.3,0.6-0.3h4.8
								c0.4,0,0.8,0.4,0.8,0.8l0.5,13.7c0,0.2-0.1,0.4-0.2,0.5c-0.1,0.2-0.4,0.2-0.6,0.2h-4.6c-0.4,0-0.8-0.3-0.8-0.7l-0.6-13.7
								C129.3,807.3,129.4,807.1,129.5,806.9z"/>
						</g>
						<g>
							<path opacity="0.5" fill="#FFFFFF" enable-background="new    " d="M112.7,806.6h4.8c0.2,0,0.4,0.2,0.6,0.3
								c0.1,0.2,0.2,0.4,0.2,0.6l-0.6,13.6c0,0.4-0.4,0.7-0.8,0.7h-4.6c-0.2,0-0.4,0-0.6-0.2c-0.1-0.2-0.2-0.3-0.2-0.5l0.5-13.7
								C111.9,807,112.3,806.6,112.7,806.6z"/>
							<path opacity="0.5" fill="#FFFFFF" enable-background="new    " d="M92.1,806.6h4.8c0.2,0,0.4,0.2,0.6,0.3
								c0.1,0.2,0.2,0.4,0.2,0.6l-0.2,13.6c0,0.4-0.4,0.7-0.8,0.7h-4.6c-0.2,0-0.4,0-0.6-0.2s-0.2-0.3-0.2-0.5l0.1-13.7
								C91.3,807,91.6,806.6,92.1,806.6z"/>
							<path opacity="0.5" fill="#FFFFFF" enable-background="new    " d="M74,806.6h4.8c0.5,0,0.8,0.4,0.8,0.8l0.1,13.7
								c0,0.2-0.1,0.4-0.2,0.5c-0.1,0.2-0.4,0.2-0.6,0.2h-4.6c-0.5,0-0.8-0.3-0.8-0.7l-0.2-13.6c0-0.2,0.1-0.5,0.2-0.6
								C73.5,806.8,73.8,806.6,74,806.6z"/>
							<path opacity="0.5" fill="#FFFFFF" enable-background="new    " d="M55.3,806.9c0.1-0.2,0.4-0.3,0.6-0.3h4.8
								c0.4,0,0.8,0.4,0.8,0.8l0.5,13.7c0,0.2-0.1,0.4-0.2,0.5c-0.1,0.2-0.4,0.2-0.6,0.2h-4.6c-0.4,0-0.8-0.3-0.8-0.7l-0.6-13.7
								C55,807.3,55.1,807.1,55.3,806.9z"/>
						</g>
					</g>
				</g>
				<g>
					
						<linearGradient id="SVGID_00000119813511503650268910000004277984056328076175_" gradientUnits="userSpaceOnUse" x1="-1126.0792" y1="-803.792" x2="-1099.0472" y2="-1169.4341" gradientTransform="matrix(-1 0 0 -1 -1320.6428 -299.5134)">
						<stop  offset="0" style="stop-color:#A737D5"/>
						<stop  offset="1" style="stop-color:#EF497A"/>
					</linearGradient>
					<polygon fill="url(#SVGID_00000119813511503650268910000004277984056328076175_)" points="-232.6,849 -184.9,849 -190.1,572.9 
						-190,565 -190.1,555.9 -190.3,548.1 -191.7,500 -191.7,498.7 -229.3,498.7 -229.3,572.9 					"/>
					
						<linearGradient id="SVGID_00000074424193594721010960000001958420567755463582_" gradientUnits="userSpaceOnUse" x1="-1135.7428" y1="-795.1633" x2="-1085.9528" y2="-795.1633" gradientTransform="matrix(-1 0 0 -1 -1320.6428 -299.5134)">
						<stop  offset="0" style="stop-color:#2B3582"/>
						<stop  offset="1" style="stop-color:#150E42"/>
					</linearGradient>
					<path fill="url(#SVGID_00000074424193594721010960000001958420567755463582_)" d="M-234.6,493.5c0-1.4,1-2.6,2.2-2.6h45.3
						c1.2,0,2.2,1.2,2.2,2.6v4.3c0,1.4-1,2.6-2.2,2.6h-45.3c-1.2,0-2.2-1.2-2.2-2.6V493.5z"/>
					
						<linearGradient id="SVGID_00000183219465442372948070000000498899302275193262_" gradientUnits="userSpaceOnUse" x1="-1144.5428" y1="-1155.0133" x2="-1077.2428" y2="-1155.0133" gradientTransform="matrix(-1 0 0 -1 -1320.6428 -299.5134)">
						<stop  offset="0" style="stop-color:#2B3582"/>
						<stop  offset="1" style="stop-color:#150E42"/>
					</linearGradient>
					<path fill="url(#SVGID_00000183219465442372948070000000498899302275193262_)" d="M-243.4,852.6c0-1.9,1.3-3.5,3-3.5h61.3
						c1.7,0,3,1.6,3,3.5v5.8c0,1.9-1.3,3.5-3,3.5h-61.3c-1.7,0-3-1.6-3-3.5V852.6z"/>
					<polygon opacity="0.4" fill="#FFFFFF" enable-background="new    " points="-229.3,549.2 -229.3,555.5 -190,555.5 
						-190.2,549.2 					"/>
					<polygon opacity="0.4" fill="#FFFFFF" enable-background="new    " points="-229.3,563.4 -229.3,572.9 -189.5,572.9 
						-189.7,563.4 					"/>
				</g>
				<g>
					<g>
						
							<linearGradient id="SVGID_00000183232760752310714150000012011076217910170264_" gradientUnits="userSpaceOnUse" x1="-1129.9205" y1="-755.5868" x2="-1219.167" y2="-993.578" gradientTransform="matrix(-1 0 0 -1 -1320.6428 -299.5134)">
							<stop  offset="0" style="stop-color:#A737D5"/>
							<stop  offset="1" style="stop-color:#EF497A"/>
						</linearGradient>
						<polygon fill="url(#SVGID_00000183232760752310714150000012011076217910170264_)" points="-154.2,710.1 -110.8,710.1 
							-110.8,675.5 -113.8,572.9 -114,565 -114.3,555.9 -114.5,548.1 -116,500 -116,498.7 -152.5,498.7 -152.5,572.9 						"/>
						
							<linearGradient id="SVGID_00000060007893377712722730000009883324879042446255_" gradientUnits="userSpaceOnUse" x1="-1211.1191" y1="-795.1633" x2="-1161.3292" y2="-795.1633" gradientTransform="matrix(-1 0 0 -1 -1320.6428 -299.5134)">
							<stop  offset="0" style="stop-color:#2B3582"/>
							<stop  offset="1" style="stop-color:#150E42"/>
						</linearGradient>
						<path fill="url(#SVGID_00000060007893377712722730000009883324879042446255_)" d="M-159.3,493.5c0-1.4,1-2.6,2.2-2.6h45.3
							c1.2,0,2.2,1.2,2.2,2.6v4.3c0,1.4-1,2.6-2.2,2.6h-45.3c-1.2,0-2.2-1.2-2.2-2.6V493.5z"/>
					</g>
					<polygon opacity="0.4" fill="#FFFFFF" enable-background="new    " points="-152.5,549.2 -152.5,555.5 -114.2,555.5 
						-114.5,549.2 					"/>
					<polygon opacity="0.4" fill="#FFFFFF" enable-background="new    " points="-152.5,563.4 -152.5,572.9 -113.7,572.9 
						-114,563.4 					"/>
				</g>
				<g>
					
						<linearGradient id="SVGID_00000028313644413926192580000007981062504240688312_" gradientUnits="userSpaceOnUse" x1="-1384.2438" y1="-963.6182" x2="-1183.3013" y2="-1148.6968" gradientTransform="matrix(-1 0 0 -1 -1320.6428 -299.5134)">
						<stop  offset="0" style="stop-color:#9F5699"/>
						<stop  offset="1" style="stop-color:#202278"/>
					</linearGradient>
					<path fill="url(#SVGID_00000028313644413926192580000007981062504240688312_)" d="M-184.7,682.7H77.6c3.8,0,6.8,2.8,6.7,6.4
						l-4.6,170.3c-0.1,3.5-3.2,6.3-6.9,6.2l-257.1-1.1c-3.7,0-6.6-2.8-6.7-6.3l-0.6-169.1C-191.4,685.5-188.4,682.7-184.7,682.7z"/>
					<g>
						<g>
							<path opacity="0.5" fill="#FFFFFF" enable-background="new    " d="M52.5,713.6h8.2c0.4,0,0.8,0.3,1,0.5s0.4,0.7,0.4,1l-1,24
								c0,0.7-0.6,1.8-1.4,1.8h-8c-0.4,0-0.7-0.6-1-0.9s-0.4-0.8-0.4-1.2l0.8-23.7C51.1,714.4,51.8,713.6,52.5,713.6z"/>
							<path opacity="0.5" fill="#FFFFFF" enable-background="new    " d="M17.1,713.6h8.2c0.4,0,0.7,0.3,1,0.5s0.4,0.7,0.4,1
								l-0.4,24c0,0.7-0.6,1.8-1.4,1.8h-8c-0.4,0-0.7-0.6-1-0.9c-0.3-0.2-0.4-0.8-0.4-1.2l0.1-23.7
								C15.8,714.4,16.4,713.6,17.1,713.6z"/>
							<path opacity="0.5" fill="#FFFFFF" enable-background="new    " d="M-14,713.6h8.2c0.8,0,1.4,0.7,1.4,1.4l0.2,23.5
								c0,0.3-0.1,1.2-0.4,1.4s-0.6,0.9-1,0.9h-8c-0.8,0-1.4-1.1-1.4-1.8l-0.4-23.7c0-0.4,0.1-0.9,0.4-1.2
								C-14.7,714-14.3,713.6-14,713.6z"/>
							<path opacity="0.5" fill="#FFFFFF" enable-background="new    " d="M-46.1,714.1c0.3-0.3,0.6-0.5,1-0.5h8.2
								c0.8,0,1.4,0.7,1.4,1.4l0.8,23.5c0,0.4-0.1,1.2-0.4,1.5c-0.3,0.3-0.6,0.9-1,0.9h-8c-0.8,0-1.4-1-1.4-1.7l-1-23.8
								C-46.5,715-46.3,714.4-46.1,714.1z"/>
						</g>
						<g>
							<path opacity="0.5" fill="#FFFFFF" enable-background="new    " d="M-75,713.6h8.2c0.4,0,0.8,0.3,1,0.5s0.4,0.7,0.4,1l-1,24
								c0,0.7-0.6,1.8-1.4,1.8h-8c-0.4,0-0.7-0.6-1-0.9c-0.3-0.3-0.4-0.8-0.4-1.2l0.8-23.7C-76.4,714.4-75.8,713.6-75,713.6z"/>
							<path opacity="0.5" fill="#FFFFFF" enable-background="new    " d="M-110.4,713.6h8.2c0.4,0,0.7,0.3,1,0.5s0.4,0.7,0.4,1
								l-0.4,24c0,0.7-0.6,1.8-1.4,1.8h-8c-0.4,0-0.7-0.6-1-0.9c-0.3-0.2-0.4-0.8-0.4-1.2l0.1-23.7
								C-111.8,714.4-111.2,713.6-110.4,713.6z"/>
							<path opacity="0.5" fill="#FFFFFF" enable-background="new    " d="M-141.5,713.6h8.2c0.8,0,1.4,0.7,1.4,1.4l0.2,23.5
								c0,0.3-0.1,1.2-0.4,1.4s-0.6,0.9-1,0.9h-8c-0.8,0-1.4-1.1-1.4-1.8l-0.4-23.7c0-0.4,0.1-0.9,0.4-1.2
								C-142.3,714-141.9,713.6-141.5,713.6z"/>
							<path opacity="0.5" fill="#FFFFFF" enable-background="new    " d="M-173.6,714.1c0.3-0.3,0.6-0.5,1-0.5h8.2
								c0.8,0,1.4,0.7,1.4,1.4l0.8,23.5c0,0.4-0.1,1.2-0.4,1.5s-0.6,0.9-1,0.9h-8c-0.8,0-1.4-1-1.4-1.7l-1-23.8
								C-174,715-173.9,714.4-173.6,714.1z"/>
						</g>
					</g>
					<g>
						<g>
							<path opacity="0.5" fill="#FFFFFF" enable-background="new    " d="M52.5,764.7h8.2c0.4,0,0.8,0.3,1,0.5s0.4,0.7,0.4,1
								l-1,23.4c0,0.7-0.6,1.2-1.4,1.2h-8c-0.4,0-0.7,0-1-0.3s-0.4-0.6-0.4-0.9l0.8-23.6C51.1,765.3,51.8,764.7,52.5,764.7z"/>
							<path opacity="0.5" fill="#FFFFFF" enable-background="new    " d="M17.1,764.7h8.2c0.4,0,0.7,0.2,1,0.5
								c0.3,0.2,0.4,0.7,0.4,1l-0.4,23.4c0,0.7-0.6,1.2-1.4,1.2h-8c-0.4,0-0.7,0-1-0.3c-0.3-0.2-0.4-0.5-0.4-0.9l0.1-23.6
								C15.8,765.4,16.4,764.7,17.1,764.7z"/>
							<path opacity="0.5" fill="#FFFFFF" enable-background="new    " d="M-14,764.7h8.2c0.8,0,1.4,0.7,1.4,1.4l0.2,23.5
								c0,0.3-0.1,0.6-0.4,0.9c-0.3,0.2-0.6,0.3-1,0.3h-8c-0.8,0-1.4-0.5-1.4-1.2l-0.4-23.4c0-0.4,0.1-0.8,0.4-1
								C-14.7,764.9-14.3,764.7-14,764.7z"/>
							<path opacity="0.5" fill="#FFFFFF" enable-background="new    " d="M-46.1,765.2c0.3-0.3,0.6-0.5,1-0.5h8.2
								c0.8,0,1.4,0.7,1.4,1.4l0.8,23.5c0,0.4-0.1,0.6-0.4,0.9c-0.3,0.3-0.6,0.3-1,0.3h-8c-0.8,0-1.4-0.5-1.4-1.2l-1-23.5
								C-46.5,765.8-46.3,765.5-46.1,765.2z"/>
						</g>
						<g>
							<path opacity="0.5" fill="#FFFFFF" enable-background="new    " d="M-75,764.7h8.2c0.4,0,0.8,0.3,1,0.5s0.4,0.7,0.4,1
								l-1,23.4c0,0.7-0.6,1.2-1.4,1.2h-8c-0.4,0-0.7,0-1-0.3s-0.4-0.6-0.4-0.9l0.8-23.6C-76.4,765.3-75.8,764.7-75,764.7z"/>
							<path opacity="0.5" fill="#FFFFFF" enable-background="new    " d="M-110.4,764.7h8.2c0.4,0,0.7,0.2,1,0.5
								c0.3,0.2,0.4,0.7,0.4,1l-0.4,23.4c0,0.7-0.6,1.2-1.4,1.2h-8c-0.4,0-0.7,0-1-0.3c-0.3-0.2-0.4-0.5-0.4-0.9l0.1-23.6
								C-111.8,765.4-111.2,764.7-110.4,764.7z"/>
							<path opacity="0.5" fill="#FFFFFF" enable-background="new    " d="M-141.5,764.7h8.2c0.8,0,1.4,0.7,1.4,1.4l0.2,23.5
								c0,0.3-0.1,0.6-0.4,0.9c-0.3,0.2-0.6,0.3-1,0.3h-8c-0.8,0-1.4-0.5-1.4-1.2l-0.4-23.4c0-0.4,0.1-0.8,0.4-1
								C-142.3,764.9-141.9,764.7-141.5,764.7z"/>
							<path opacity="0.5" fill="#FFFFFF" enable-background="new    " d="M-173.6,765.2c0.3-0.3,0.6-0.5,1-0.5h8.2
								c0.8,0,1.4,0.7,1.4,1.4l0.8,23.5c0,0.4-0.1,0.6-0.4,0.9s-0.6,0.3-1,0.3h-8c-0.8,0-1.4-0.5-1.4-1.2l-1-23.5
								C-174,765.8-173.9,765.5-173.6,765.2z"/>
						</g>
					</g>
				</g>
			</g>
		</g>
	</g>
</g>
<linearGradient id="SVGID_00000157993971524226990460000015812754832012207011_" gradientUnits="userSpaceOnUse" x1="258.8997" y1="83.6376" x2="35.4401" y2="-533.538" gradientTransform="matrix(1.0947 -0.1793 0.1793 -3.0491 69.6277 -687.6674)">
	<stop  offset="0" style="stop-color:#63C3FF"/>
	<stop  offset="0.1795" style="stop-color:#69BFFD"/>
	<stop  offset="0.4236" style="stop-color:#7BB5F8"/>
	<stop  offset="0.7049" style="stop-color:#97A5F0"/>
	<stop  offset="1" style="stop-color:#BD8FE5"/>
</linearGradient>
<path display="none" opacity="0.5" fill="url(#SVGID_00000157993971524226990460000015812754832012207011_)" enable-background="new    " d="
	M751.4-224.1c21.4-154.7,24.7-271.1-10.7-378.9c-32.7-99.3-95.2-187-151.9-160.4c-46.1,21.7-91.5,78.5-132.3,153.4
	c-24.7,45.2-52,77.3-79.8,95.6c-30.8,20.2-69.3,38.2-98.5,27.8c-57.3-20.6-108.8-78.1-162-123.9C7.3-704.4-122.4-745.7-239.9-586.9
	c-56.7,76.5-111.6,223.7-108.7,371.2c2.2,114,38.3,197.9,34.4,314.7c-4.4,131.9-55.6,239.1-97.1,338.7
	c-39.3,94.3-74.6,202.9-96.9,324c-22.3,121.1-30.7,255.8-16.3,366.4c18.7,144,74.2,230.2,135.7,246.3s128.1-30,190.5-99.1
	s122.1-160.8,183-243.2c20.6-27.9,44.5-55.5,63-36.5c20.9,21.4,24.4,89.5,31.9,144c16.7,122,62.2,197.5,113.1,222.9
	s106.9,6.5,161.8-23c61.1-32.8,124.5-81.6,176.8-186.4c52.4-104.8,90.6-278.3,77.7-420.9c-8.2-90.5-35.5-162.1-32.5-260.1
	c3.1-101.2,37-191.5,66.5-274C688.5,71.6,730-69.3,751.4-224.1z"/>
<g display="none" opacity="0.5">
	<path display="inline" opacity="0.65" fill="#FFFFFF" enable-background="new    " d="M-43.8,336.7c-9.1-11.2-22.8-15.8-36.1-12.4
		c-14.6,3.6-22.8,17.5-36.3,23.1c-23.6,9.7-56.3-9.5-74.3,15.5c-22,30.6-38.9,7.7-38.9,28.4c0,20.8,151.7,5.5,226.5,6.6
		c10.8,0.2,57.8-0.6,37.5-23.1c-6.3-7-15.2-8.1-23.6-9.8c-10.9-2.1-36.8-3.3-44.6-11.8c-4.2-4.6-5.9-11.1-9.7-16
		C-43.4,337.1-43.6,336.9-43.8,336.7z"/>
	<path display="inline" opacity="0.65" fill="#FFFFFF" enable-background="new    " d="M475.7-307.5c-5.3-7.5-13.2-10.6-21-8.4
		c-8.5,2.5-13.2,11.9-21.1,15.6c-13.7,6.6-32.7-6.4-43.1,10.5c-12.7,20.7-22.6,5.2-22.6,19.2s88,3.7,131.5,4.4
		c6.3,0.1,33.5-0.4,21.8-15.6c-3.6-4.7-8.8-5.5-13.7-6.6c-6.3-1.4-21.3-2.2-25.9-7.9c-2.5-3.1-3.4-7.5-5.6-10.8
		C475.9-307.2,475.8-307.3,475.7-307.5z"/>
	<path display="inline" opacity="0.65" fill="#FFFFFF" enable-background="new    " d="M377.5-289.2c-9.1-11.2-22.8-15.8-36.1-12.4
		c-14.6,3.6-22.8,17.6-36.3,23.1c-23.6,9.7-56.3-9.5-74.3,15.6c-22,30.6-38.9,7.6-38.9,28.4s151.7,5.5,226.5,6.6
		c10.8,0.2,57.8-0.6,37.5-23.1c-6.3-7-15.2-8.1-23.6-9.8c-10.9-2.1-36.8-3.3-44.7-11.8c-4.2-4.6-5.9-11.1-9.7-16
		C377.8-288.8,377.7-289,377.5-289.2z"/>
	<path display="inline" opacity="0.65" fill="#FFFFFF" enable-background="new    " d="M-9.5-381.7c-9.1-11.2-22.8-15.8-36.1-12.4
		c-14.6,3.6-22.8,17.5-36.3,23.1c-23.6,9.7-56.3-9.5-74.3,15.6c-22,30.6-38.9,7.7-38.9,28.4s151.7,5.5,226.5,6.6
		c10.8,0.2,57.8-0.6,37.5-23.1c-6.3-7-15.2-8.1-23.6-9.8c-10.9-2.1-36.8-3.3-44.6-11.8c-4.2-4.6-5.9-11.1-9.7-16
		C-9.2-381.3-9.3-381.5-9.5-381.7z"/>
</g>
<g display="none" opacity="0.7">
	<rect x="-209.1" y="894" display="inline" fill="#D77D25" width="151.8" height="19.4"/>
	<path display="inline" fill="#FD8B04" d="M-213.8,880.7l11.4-10.6c3.2-3,9.4-5.4,13.8-5.4h53.7c4.4,0,11.1,1.7,15,3.8l23.5,12.8
		c3.9,2.1,10.5,4.5,14.8,5.4L-56,892c4.3,0.9,8.5,5.2,9.3,9.5l0.8,4.1c0.8,4.3-2.1,7.8-6.5,7.8h-10.7c0-8.2-6.7-14.9-14.9-14.9
		s-14.9,6.7-14.9,14.9h-82.6c0-8.2-6.7-14.9-14.9-14.9s-14.9,6.7-14.9,14.9h-6.3c-4.4,0-8-3.6-8-8V894
		C-219.7,889.7-217,883.7-213.8,880.7z"/>
	<g display="inline">
		<g>
			<g>
				<rect x="-146.2" y="886" fill="#FD6E03" width="46.5" height="26"/>
				<path fill="#1F2527" d="M-137.4,889.1c0,0.4-0.3,0.7-0.7,0.7h-4.6c-0.4,0-0.7-0.3-0.7-0.7l0,0c0-0.4,0.3-0.7,0.7-0.7h4.6
					C-137.7,888.4-137.4,888.7-137.4,889.1L-137.4,889.1z"/>
			</g>
			<g>
				<path fill="#FD6E03" d="M-148.7,886h-32.5v14.3c0,0,7.5,2.7,7.5,11.6h25V886z"/>
				<path fill="#1F2527" d="M-173.3,889.1c0,0.4-0.3,0.7-0.7,0.7h-4.6c-0.4,0-0.7-0.3-0.7-0.7l0,0c0-0.4,0.3-0.7,0.7-0.7h4.5
					C-173.7,888.4-173.3,888.7-173.3,889.1L-173.3,889.1z"/>
			</g>
		</g>
		<g>
			<g>
				<path fill="#1F2527" d="M-100.4,884.5c0.9,0,0.9-0.3,0.2-0.7l-27.2-13.5c-0.8-0.4-2.2-0.7-3-0.7h-14.1c-0.9,0-1.6,0.7-1.6,1.6
					v11.7c0,0.9,0.7,1.6,1.6,1.6L-100.4,884.5L-100.4,884.5z"/>
				<path fill="#1F2527" d="M-182.2,882.9c0,0.9,0.8,1.6,1.8,1.6h29.8c1,0,1.8-0.7,1.8-1.6v-11.7c0-0.9-0.8-1.6-1.8-1.6h-29.8
					c-1,0-1.8,0.7-1.8,1.6V882.9L-182.2,882.9z"/>
				<path fill="#1F2527" d="M-204.1,877.3l9.2-6.6c0.8-0.6,2.2-1,3.2-1h10.5c-1,0-1.5,0.7-1.5,1.6V883c0,0.9,0.5,1.6,1.5,1.6h-22.5
					c-1,0-1.8-0.7-1.8-1.6v-3.1C-205.5,879-204.9,877.8-204.1,877.3z"/>
			</g>
			<path fill="#F77B04" d="M-101.7,880.3c0,0,2.6,0.2,2.6,2.9s-2.6,2.9-2.6,2.9h-3.9v-2.9v-2.9H-101.7z"/>
		</g>
	</g>
	<g display="inline">
		<path fill="#8D9095" d="M-220.5,914.7c0,1.6,1.3,2.9,2.9,2.9h171.1c1.6,0,2.9-1.3,2.9-2.9v-2.3c0-1.6-1.3-2.9-2.9-2.9h-171.1
			c-1.6,0-2.9,1.3-2.9,2.9C-220.5,912.3-220.5,914.7-220.5,914.7z"/>
		<g>
			<g>
				<path fill="#44474A" d="M-64.9,913.5c0,7.2-5.9,13.1-13.1,13.1s-13.1-5.9-13.1-13.1s5.9-13.1,13.1-13.1S-64.9,906.2-64.9,913.5z
					"/>
				<path fill="#43454A" d="M-70.1,913.1c0,4.4-3.6,7.9-7.9,7.9c-4.4,0-7.9-3.6-7.9-7.9c0-4.4,3.6-7.9,7.9-7.9
					S-70.1,908.8-70.1,913.1z"/>
			</g>
			<g>
				<path fill="#44474A" d="M-177.3,913.5c0,7.2-5.9,13.1-13.1,13.1s-13.1-5.9-13.1-13.1s5.9-13.1,13.1-13.1
					S-177.3,906.2-177.3,913.5z"/>
				<path fill="#43454A" d="M-182.5,913.1c0,4.4-3.6,7.9-7.9,7.9c-4.4,0-7.9-3.6-7.9-7.9c0-4.4,3.5-7.9,7.9-7.9
					C-186.1,905.2-182.5,908.8-182.5,913.1z"/>
			</g>
		</g>
	</g>
	<g display="inline">
		<path fill="#FDA947" d="M-49.3,901c-0.4-0.8-1.7-1.5-2.9-1.5h-4.2c-1.2,0-2.3,0.6-2.3,1.3s0.9,1.7,2,2.2l2,0.8
			c1.1,0.5,3,0.9,4.1,0.9s2-0.5,2-1.1C-48.6,902.9-48.9,901.8-49.3,901z"/>
		<polygon fill="#FD8B07" points="-219.6,893.4 -215.8,893.4 -217.7,903.8 -219.6,903.8 		"/>
	</g>
</g>
<g display="none">
	<path display="inline" opacity="0.2" fill="#B495C1" enable-background="new    " d="M339.7,323.7H-45.9
		c-101.2,0-183.2-82-183.2-183.2V-6.1c0-101.2,82-183.2,183.2-183.2h385.6c101.2,0,183.2,82,183.2,183.2v146.6
		C522.9,241.7,440.9,323.7,339.7,323.7z"/>
	<g display="inline">
		<g>
			<g transform="translate(1086.281208, 49.014148)">
				<g>
					<path d="M-1244.1-127.8c-1.9,0.1-3.2,1-3.8,2.8c-1.8,4.5-3.1,9.7-3.9,15.4c-0.2,1.1,0.1,2.1,0.8,3.2c0.7,1,1.7,1.5,2.8,1.7
						s2.1-0.1,3-0.8c1-0.7,1.6-1.7,1.7-2.8c0.7-5,1.9-9.5,3.5-13.4c0.6-1.5,0.4-2.9-0.5-4.1
						C-1241.3-127.3-1242.5-127.9-1244.1-127.8z M-1249-102c-0.3,0-0.6,0-0.8,0c-0.2,0-0.5,0.1-0.8,0.2c-0.1,0-0.2,0-0.4,0.1
						c-0.2,0.1-0.3,0.1-0.3,0.2c-0.1,0.1-0.1,0.1-0.1,0.1c-0.2,0.1-0.3,0.1-0.4,0.2c0,0.1,0,0.1-0.1,0.1s-0.1,0-0.2,0.1
						c0,0,0,0-0.1,0.1c-0.7,0.5-1.3,1.2-1.6,2.1c-0.3,0.9-0.3,1.8,0,2.7c0.3,0.9,0.8,1.6,1.6,2.2c0.8,0.5,1.7,0.8,2.5,0.8
						c0.3,0,0.5,0,0.7,0c0.2-0.1,0.4-0.1,0.5-0.1c0.7-0.1,1.3-0.4,2-0.9c0,0,0,0,0.1-0.1s0.1-0.2,0.1-0.2c0.7-0.6,1.2-1.3,1.4-2.2
						c0.3-0.9,0.3-1.8,0-2.5c-0.3-0.9-0.9-1.5-1.6-2C-1247.3-101.7-1248.1-102-1249-102z"/>
				</g>
			</g>
		</g>
		<g>
			<g transform="translate(1097.321185, 49.014148)">
				<g>
					<path d="M-1237.8-127.6c-0.9,0-1.7,0.3-2.5,0.8c-0.8,0.6-1.3,1.2-1.6,2c-0.3,0.9-0.3,1.7-0.1,2.7c0.3,0.9,0.7,1.6,1.4,2.2
						l-4,20.4c-0.1,0.1-0.1,0.2-0.2,0.4c-0.6,1.4-0.4,2.7,0.4,4s2.1,1.9,3.7,1.9c4.4,0,8.7,0,13-0.1c4.5-0.1,8.5-0.1,11.9-0.1h0.1
						c0.4,0.1,0.8,0.1,1.2,0h0.2c1.7,0,3-0.8,3.8-2.3s0.7-3-0.2-4.4c0.7-9.1,2.1-16.3,4.3-21.7c0.6-1.4,0.4-2.8-0.4-4.1
						c-0.9-1.2-2.1-1.8-3.6-1.8L-1237.8-127.6z M-1216.4-119.1c-1.3,4.7-2.2,10.4-2.7,17.2c-2.2,0-4.9,0-8.1,0.1
						c-3.3,0.1-6.1,0.1-8.3,0.2l3.5-17.2L-1216.4-119.1z"/>
				</g>
			</g>
		</g>
		<g>
			<g transform="translate(1122.473146, 49.014148)">
				<g>
					<path d="M-1217.7-127.7c-0.9,0.1-1.8,0.4-2.6,0.9c-0.8,0.6-1.3,1.3-1.6,2.2c-1.7,4.1-2.9,8.6-3.8,13.5
						c-0.2,1.2,0.1,2.4,0.9,3.5c0.7,1.1,1.7,1.8,3,2c1.2,0.2,2.3-0.1,3.4-0.9s1.8-1.8,2-3c0.7-4.2,1.8-8.2,3.3-11.8
						c0.6-1.5,0.5-3-0.5-4.4C-1214.7-127-1216.1-127.7-1217.7-127.7z"/>
				</g>
			</g>
		</g>
		<g>
			<g transform="translate(1132.889123, 49.014148)">
				<g>
					<path d="M-1210.6-127.6c-1.2,0-2.2,0.5-3.1,1.4c-0.8,0.9-1.3,1.9-1.3,3s0.5,2.1,1.4,3c0.8,0.9,1.9,1.3,3.1,1.3l16.2-0.2
						c-0.5,1.9-1,3.8-1.4,5.7h-16.3c-1.1,0-2.1,0.4-2.9,1.1s-1.2,1.6-1.4,2.6l-1.6,11.9c-0.1,1.2,0.3,2.3,1.1,3.2
						c0.9,0.9,1.9,1.3,3,1.4c1.2,0.1,2.2-0.3,3.1-1.2c0.9-0.8,1.4-1.8,1.4-2.9c0.1-1.5,0.4-4,0.9-7.5h11.5c-0.2,2-0.4,4.4-0.6,6.9
						c-0.1,1.1,0.3,2.2,1.1,3.1c0.8,1,1.8,1.5,2.9,1.5c1.2,0.1,2.2-0.3,3.1-1.1c0.9-0.8,1.4-1.8,1.5-2.9c0.3-4.6,0.7-8.3,1-11
						c0.1-0.1,0.1-0.2,0.1-0.4c0.7-4.9,1.9-9.3,3.4-13.1c0.5-1.4,0.3-2.8-0.5-4.1c-0.8-1.2-2-1.8-3.6-1.8L-1210.6-127.6z"/>
				</g>
			</g>
		</g>
		<g>
			<g transform="translate(1154.873085, 49.014148)">
				<g>
					<path d="M-1196.4-129c-1.3-0.1-2.4,0.4-3.2,1.3c-0.8,0.9-1.2,2-1.2,3.2l1.8,27.2c0,1.4,0.5,2.4,1.6,3.1
						c1.1,0.9,2.3,1.1,3.6,0.9h0.3c4.4,0,8.7-0.1,13-0.2c4.5,0,8.4,0,11.5,0c0.4,0,0.8,0,1.1,0h0.7c1.9,0,3.2-0.9,4-2.5
						c0.7-1.8,0.5-3.3-0.8-4.6c0.7-8.8,2.1-15.9,4.2-21.2c0.6-1.4,0.5-2.8-0.4-4.1c-0.8-1.2-2.1-1.8-3.7-1.8c-1.9,0.1-3.1,1-3.8,2.7
						c-2.4,6.1-4,13.8-4.8,23c-2,0-3.9,0-5.6,0c-0.7-4.8,0.3-11.5,2.9-20.2c0.5-1.4,0.3-2.7-0.6-3.9c-0.9-1.1-2.1-1.7-3.6-1.6
						c-0.9,0-1.7,0.3-2.5,0.9c-0.7,0.6-1.3,1.3-1.5,2.1c-2.8,9.4-3.9,17-3.3,22.8c-1.1,0-2.5,0-4.1,0l-1.5-23.1c0-1-0.4-2-1.3-2.8
						C-1194.3-128.6-1195.3-129-1196.4-129z"/>
				</g>
			</g>
		</g>
		<g>
			<g transform="translate(1181.129035, 49.014148)">
				<g>
					<path d="M-1171.5-127.8c-1.9,0.1-3.2,1-3.8,2.7c-2.6,6.5-4.3,15.6-5.1,27.2c-0.1,1.1,0.3,2.2,1.1,3.1c0.8,1,1.8,1.5,3,1.5
						c1.1,0.1,2.1-0.3,3.1-1.1c0.9-0.8,1.4-1.8,1.4-2.9c0.7-10.7,2.2-18.9,4.5-24.6c0.6-1.4,0.5-2.8-0.4-4.2
						C-1168.6-127.2-1169.9-127.8-1171.5-127.8z"/>
				</g>
			</g>
		</g>
		<g>
			<g transform="translate(1191.689013, 49.014148)">
				<g>
					<path d="M-1141.7-127.8c-0.1,0-0.3,0-0.6,0c-0.8,0-1.8,0.1-2.8,0.3c-0.2,0.1-0.5,0.1-0.7,0.2c-4.3,1.5-8.3,3.9-11.9,7.2
						c-0.5-1.6-1-3.3-1.6-4.9c-0.7-1.8-2.1-2.7-4-2.7c-1.5,0-2.7,0.6-3.6,1.9c-0.8,1.3-1,2.7-0.3,4c1.1,3,2.1,6.2,2.8,9.7
						c-2.5,3.6-4.9,7.9-7.2,12.8c-0.5,1.1-0.6,2.2-0.2,3.3c0.4,1.1,1.2,2,2.3,2.5s2.2,0.5,3.3,0.1c1.1-0.5,1.9-1.3,2.4-2.5
						c5.5-12.5,12.3-20.2,20.4-23.1c0.5-0.1,0.9-0.1,1.3-0.1c0,0.7-0.1,1.3-0.2,1.7c-1.8,9.4-2.6,14.5-2.6,15.4h-1.1
						c-0.6,0-0.9,0-1.1,0c-0.1,0.1-0.1,0.1-0.2,0.1s-0.2,0-0.2,0c-0.1,0-0.1,0-0.2,0c-0.6,0-2.5,0-5.7,0c-1.2,0-2.2,0.5-3,1.4
						c-0.9,0.9-1.4,1.8-1.4,2.9c0,1.2,0.5,2.2,1.4,3.1c0.8,0.9,1.8,1.2,3,1.2c2.8,0,4.7,0,5.9,0c0.4,0,0.8,0,1.1,0
						c0,0,0.1,0,0.2-0.1c0.2,0,0.2,0,0.2-0.1c1,0,2.8,0,5.4,0c1.2,0,2.3-0.5,3.1-1.5c0.8-1,1.2-2.1,1.1-3.3
						c-0.3-1.9,0.5-7.7,2.3-17.5c0.7-3.9,0.4-6.9-1-8.9c-1.1-1.5-2.7-2.5-4.8-2.8C-1140.3-127.7-1141-127.8-1141.7-127.8z
						 M-1144.1-94.5c-0.3,0.3-0.5,0.5-0.6,0.6c0.1-0.1,0-0.1-0.2,0C-1144.8-94-1144.5-94.2-1144.1-94.5z"/>
				</g>
			</g>
		</g>
		<g>
			<g transform="translate(1226.440953, 49.014148)">
				<g>
					<path d="M-1139.8-127.5c-1.1,0-2.1,0.4-3,1.3s-1.4,1.9-1.4,3c0.1,1.2,0.5,2.2,1.4,3c0.9,0.9,2,1.2,3.1,1.2l16.1-0.1
						c-1.5,5.3-2.5,12.4-3.2,21.2c-0.1,1.1,0.3,2.1,1.1,3.1c0.8,0.9,1.8,1.4,2.9,1.4c1.1,0.1,2.2-0.3,3.1-1.1
						c0.9-0.7,1.4-1.7,1.5-2.9c0.7-10.6,2.2-18.8,4.5-24.6c0.6-1.4,0.4-2.8-0.4-4s-2-1.9-3.6-1.9L-1139.8-127.5z M-1137.4-110.9
						c-1.1,0-2,0.4-2.9,1.2c-0.8,0.8-1.2,1.7-1.4,2.7l-3.5,33.1c-0.1,1.1,0.2,2.2,1,3.2c0.8,0.9,1.7,1.4,2.8,1.6
						c1.1,0.1,2.2-0.2,3.2-1s1.5-1.7,1.6-2.8l3.4-33.1c0.2-1.3-0.2-2.4-1-3.4C-1135-110.4-1136.1-110.9-1137.4-110.9z"/>
				</g>
			</g>
		</g>
		<g>
			<g transform="translate(1247.41692, 49.014148)">
				<g>
					<path d="M-1124.6-127.6c-1.2,0.1-2.2,0.5-3,1.4s-1.3,1.9-1.3,3c0.1,1.2,0.5,2.2,1.4,3c0.9,0.9,1.9,1.2,3,1.2l16.2-0.1
						c-1.5,5.3-2.5,12.4-3.2,21.2c-0.1,1.1,0.3,2.2,1.1,3.1c0.8,1,1.8,1.5,2.9,1.5c1.1,0.1,2.1-0.3,3-1.1c1-0.8,1.5-1.8,1.5-2.9
						c0.7-10.7,2.2-18.9,4.5-24.6c0.6-1.4,0.4-2.8-0.4-4.1c-0.9-1.2-2.1-1.8-3.7-1.8L-1124.6-127.6z"/>
				</g>
			</g>
		</g>
		<g>
			<g transform="translate(1267.720889, 49.014148)">
				<g>
					<path d="M-1104.2-127.7c-1,0.1-1.8,0.4-2.6,1.1c-0.8,0.7-1.4,1.5-1.5,2.5v0.1c0,0,0,0-0.1,0.1l-2.5,12.1
						c-0.3,1.3-0.1,2.4,0.7,3.4c0.8,1,1.8,1.6,3.1,1.7l9.1,0.9c1.2,0.1,2.2-0.2,3.2-1s1.5-1.8,1.6-2.9s-0.2-2.1-1-3
						c-0.8-1-1.8-1.5-2.9-1.6l-4.2-0.3l0.8-4.4l12.8-0.2c-1.4,4.8-2.3,10.5-2.9,17.2c-1.2,0-3.7,0-7.6,0.1
						c-2.9,0.1-6.4,0.2-10.6,0.2c-1.1-0.1-2.1,0.4-3,1.2c-0.9,0.9-1.4,1.9-1.4,3s0.5,2.1,1.4,3c0.8,0.9,1.8,1.3,3,1.3
						c4.4,0,8.3,0,11.7-0.1c3.6-0.1,6.9-0.1,9.7-0.1c0.5,0.1,1.1,0.1,1.6,0h0.4c1.8,0,3.1-0.9,3.9-2.5c0.8-1.7,0.6-3.2-0.7-4.6
						c0.7-8.9,2.1-16,4.2-21.4c0.6-1.4,0.4-2.8-0.5-4c-0.8-1.2-2-1.9-3.6-1.9L-1104.2-127.7z"/>
				</g>
			</g>
		</g>
		<g>
			<g transform="translate(1290.664849, 49.014148)">
				<g>
					<path d="M-1085.9-140.5c-1.9,0-3.2,0.9-3.9,2.7c-1.3,3.4-2.4,7.1-3.2,11.1c-1.6,1.2-2,2.8-1.4,4.8c0.7,2,2.1,2.9,4.2,2.9
						l15.5-0.2c-1.4,5.1-2.5,12.2-3.1,21.3c-0.1,1.1,0.3,2.2,1.1,3.1c0.8,0.9,1.8,1.4,2.9,1.5c1.2,0.1,2.2-0.3,3.1-1.1
						c0.9-0.8,1.4-1.8,1.5-2.9c0.7-10,2-17.6,3.8-22.9c1.6-1.2,2-2.8,1.4-4.8c-0.6-1.9-2-2.9-4-2.9c-0.3-0.1-0.6-0.1-0.9-0.1
						c-0.2,0-0.4,0-0.6,0.1l-14.5,0.1c0.6-2.4,1.4-4.7,2.2-6.8c0.6-1.5,0.4-2.9-0.5-4.2C-1083-140-1084.3-140.6-1085.9-140.5z"/>
				</g>
			</g>
		</g>
		<g>
			<g transform="translate(1321.432792, 49.014148)">
				<g>
					<path d="M-1063.7-127.6c-0.9,0-1.7,0.3-2.5,0.8c-0.8,0.6-1.3,1.2-1.6,2c-0.3,0.9-0.3,1.7-0.1,2.7c0.3,0.9,0.7,1.6,1.4,2.2
						l-4,20.4c-0.1,0.1-0.1,0.2-0.2,0.4c-0.6,1.4-0.4,2.7,0.4,4s2.1,1.9,3.7,1.9c4.4,0,8.7,0,13-0.1c4.5-0.1,8.5-0.1,11.9-0.1h0.1
						c0.4,0.1,0.8,0.1,1.2,0h0.2c1.7,0,3-0.8,3.8-2.3s0.7-3-0.2-4.4c0.7-9.1,2.1-16.3,4.3-21.7c0.6-1.4,0.4-2.8-0.4-4.1
						c-0.9-1.2-2.1-1.8-3.6-1.8L-1063.7-127.6z M-1042.3-119.1c-1.3,4.7-2.2,10.4-2.7,17.2c-2.2,0-4.9,0-8.1,0.1
						c-3.3,0.1-6.1,0.1-8.3,0.2l3.5-17.2L-1042.3-119.1z"/>
				</g>
			</g>
		</g>
		<g>
			<g transform="translate(1346.584754, 49.014148)">
				<g>
					<path d="M-1036.2-127.8c-0.5,0-1,0.1-1.4,0.2h-1.5c-2,0-3.3,0.9-4,2.8c-0.3,0.8-0.4,1.7-0.1,2.6c0.2,0.9,0.7,1.6,1.4,2.2
						c-1.5,4.9-2.5,10.9-3,18.2c-0.5,0-1.4,0-2.8,0c-1.1,0-2.2,0.4-3,1.3s-1.3,1.9-1.3,3s0.4,2.1,1.3,3s1.9,1.3,3,1.3
						c1.7,0,3.1,0,4.1-0.1c0.5-0.1,1.2-0.1,2.2-0.1c0.3,0.1,0.7,0.1,1.1,0h0.2c1.8,0,3.1-0.8,3.9-2.3c0.8-1.6,0.7-3.1-0.4-4.5
						c0.6-7.7,1.7-14,3.2-18.8l10.3-0.1c-1.5,5.3-2.5,12.3-3,21.1c-0.1,1.1,0.2,2.2,1,3.2c0.8,0.9,1.8,1.4,2.9,1.4
						c1.1,0.1,2.1-0.3,3-1.1c0.9-0.8,1.4-1.7,1.5-2.8c0.7-10.8,2.2-18.9,4.4-24.6c0.6-1.4,0.4-2.7-0.4-4c-0.8-1.2-2-1.9-3.6-1.9
						l-17.7,0.2C-1035.3-127.7-1035.7-127.8-1036.2-127.8z"/>
				</g>
			</g>
		</g>
		<g>
			<g transform="translate(1371.592702, 49.014148)">
				<g>
					<path d="M-1015.2-127.8c-1.9,0.1-3.1,1-3.8,2.8c-2.4,6.1-4,13.8-4.8,23.2c-2.2,0-4.1,0-5.5,0c-1.1,0-2.2,0.4-3,1.3
						s-1.3,1.9-1.3,3s0.4,2.1,1.3,2.9c0.9,0.9,1.9,1.3,3,1.3c4.4,0,8.9,0,13.4-0.1s8.7-0.1,12.7-0.1c1.3,0.2,2.3-0.1,3.2-0.9
						c1-0.7,1.5-1.7,1.6-3c0.7-10.7,2.2-18.8,4.4-24.5c0.6-1.5,0.5-2.9-0.4-4.1c-0.9-1.3-2.1-1.9-3.7-1.9c-1.9,0.1-3.2,1-3.8,2.8
						c-2.5,6.1-4.1,13.8-4.8,23c-3.2,0-6,0-8.6,0c0.7-8.1,2.1-14.7,4.2-19.9c0.6-1.5,0.4-2.9-0.4-4.1
						C-1012.4-127.3-1013.6-127.9-1015.2-127.8z"/>
				</g>
			</g>
		</g>
		<g>
			<g transform="translate(1396.456661, 49.014148)">
				<g>
					<path d="M-1005.8-127.6c-1.2,0-2.2,0.5-3.1,1.4c-0.8,0.9-1.3,1.9-1.3,3s0.5,2.1,1.4,3c0.8,0.9,1.9,1.3,3.1,1.3l16.2-0.2
						c-0.5,1.9-1,3.8-1.4,5.7h-16.3c-1.1,0-2.1,0.4-2.9,1.1c-0.8,0.7-1.2,1.6-1.4,2.6l-1.6,11.9c-0.1,1.2,0.3,2.3,1.1,3.2
						c0.9,0.9,1.9,1.3,3,1.4c1.2,0.1,2.2-0.3,3.1-1.2c0.9-0.8,1.4-1.8,1.4-2.9c0.1-1.5,0.4-4,0.9-7.5h11.5c-0.2,2-0.4,4.4-0.6,6.9
						c-0.1,1.1,0.3,2.2,1.1,3.1c0.8,1,1.8,1.5,2.9,1.5c1.2,0.1,2.2-0.3,3.1-1.1c0.9-0.8,1.4-1.8,1.5-2.9c0.3-4.6,0.7-8.3,1-11
						c0.1-0.1,0.1-0.2,0.1-0.4c0.7-4.9,1.9-9.3,3.4-13.1c0.5-1.4,0.3-2.8-0.5-4.1c-0.8-1.2-2-1.8-3.6-1.8L-1005.8-127.6z"/>
				</g>
			</g>
		</g>
		<g>
			<g transform="translate(1418.440623, 49.014148)">
				<g>
					<path d="M-989.6-127.6c-1.1,0-2.2,0.5-3,1.4c-0.9,0.9-1.3,1.9-1.3,3c0.1,1.2,0.5,2.2,1.4,3c0.9,0.9,1.9,1.2,3,1.2l16.2-0.1
						c-1.5,5.3-2.5,12.4-3.1,21.2c-0.1,1.1,0.2,2.2,1,3.1c0.8,1,1.8,1.5,2.9,1.5c1.1,0.1,2.1-0.3,3-1.1c1-0.8,1.5-1.8,1.5-2.9
						c0.7-10.7,2.2-18.9,4.5-24.6c0.6-1.4,0.4-2.8-0.4-4.1c-0.8-1.2-2.1-1.8-3.7-1.8L-989.6-127.6z M-990.6-112.7
						c-1.1-0.1-2,0.3-2.9,1c-0.8,0.8-1.3,1.7-1.4,2.8c-0.4,2.7-0.8,6.4-1.1,11.2c-0.1,1.1,0.3,2.2,1.1,3.1c0.8,1,1.8,1.5,3,1.5
						c1.1,0.1,2.1-0.3,3.1-1.1c0.9-0.8,1.4-1.8,1.4-2.9c0.3-4.5,0.7-8.1,1-10.6c0.2-1.3-0.2-2.5-0.9-3.4
						C-988.2-112.2-989.3-112.7-990.6-112.7z"/>
				</g>
			</g>
		</g>
	</g>
	<g display="inline">
		<g>
			<g transform="translate(620.445272, 91.601101)">
				<g>
					<path d="M-691.8,51.9c-0.1,0-0.3,0-0.5,0s-0.5,0.1-0.7,0.2c0,0-0.1,0-0.2,0.1c-0.1,0.1-0.2,0.1-0.2,0.1h-0.1
						c-0.1,0.1-0.2,0.1-0.3,0.2c0,0,0,0.1-0.1,0.1s-0.1,0.1-0.1,0.1l-0.1,0.1c-0.6,0.4-1,0.9-1.2,1.6s-0.2,1.4,0,2
						c0.2,0.7,0.6,1.2,1.2,1.7c0.6,0.4,1.2,0.6,1.9,0.6c0.2,0,0.4,0,0.5,0s0.2-0.1,0.4-0.1c0.5-0.1,1-0.3,1.5-0.7c0,0,0,0,0-0.1
						l0.1-0.1c0.5-0.4,0.9-1,1-1.7c0.2-0.7,0.2-1.3,0-1.9s-0.7-1.1-1.2-1.5C-690.5,52-691.1,51.9-691.8,51.9z"/>
				</g>
			</g>
		</g>
		<g>
			<g transform="translate(628.509259, 91.601101)">
				<g>
					<path d="M-689.2,32.7c-1.2,0-2.2,0.5-2.8,1.6s-0.6,2.2,0,3.2c0,0.1,0,0.2,0,0.3l2.2,17.8c0.1,0.8,0.4,1.5,1,2
						c0.7,0.6,1.4,0.8,2.2,0.8h8.1c0.7,0,1.3-0.2,1.9-0.7c0.6-0.4,1-0.9,1.2-1.6l5.8-18.9c0.1-0.2,0.1-0.4,0.1-0.7
						c0.3-1,0.1-2-0.5-2.9c-0.7-0.8-1.6-1.2-2.6-1.2L-689.2,32.7z M-680.9,52h-2.9l-1.5-12.9l8.5-0.1L-680.9,52z"/>
				</g>
			</g>
		</g>
		<g>
			<g transform="translate(649.101219, 91.601101)">
				<g>
					<path d="M-680.8,25.1c-0.6,0-1.2,0.2-1.7,0.6s-0.9,0.9-1.1,1.5c-0.9,2.2-1.6,4.5-2.2,6.9c-0.2,0.9,0,1.7,0.5,2.4
						s1.1,1.2,1.9,1.4c0.8,0.2,1.6,0,2.4-0.5s1.2-1.2,1.4-2c0.5-2.2,1.1-4.1,1.9-6c0.4-1.1,0.3-2.1-0.3-3.1
						C-678.8,25.5-679.7,25.1-680.8,25.1z M-672.3,25.1c-0.6,0-1.2,0.2-1.7,0.6c-0.6,0.4-0.9,0.9-1.1,1.5c-0.9,2.2-1.6,4.5-2.1,6.9
						c-0.2,0.9-0.1,1.7,0.5,2.4c0.5,0.7,1.1,1.2,1.9,1.4c0.9,0.2,1.7,0,2.4-0.5c0.8-0.5,1.2-1.2,1.4-2c0.5-2.2,1.1-4.1,1.8-6
						c0.5-1.1,0.4-2.1-0.3-3.1C-670.3,25.5-671.2,25.1-672.3,25.1z"/>
				</g>
			</g>
		</g>
		<g>
			<g transform="translate(664.797191, 91.601101)">
				<g>
					<path d="M-657.9,32.5c-0.1,0-0.2,0-0.4,0c-0.6,0-1.3,0.1-2.1,0.2c-0.2,0-0.4,0.1-0.5,0.1c-3.2,1.1-6.2,2.9-8.9,5.4
						c-0.4-1.2-0.8-2.5-1.2-3.7c-0.6-1.4-1.6-2-3-2c-1.1,0-2,0.5-2.7,1.4c-0.6,1-0.7,2-0.2,3c0.8,2.2,1.5,4.7,2.1,7.3
						c-1.9,2.7-3.7,5.9-5.4,9.6c-0.4,0.8-0.4,1.6-0.1,2.5s0.9,1.5,1.7,1.8c0.8,0.4,1.7,0.4,2.5,0.1s1.4-1,1.8-1.9
						c4.1-9.3,9.2-15.1,15.3-17.4c0.3,0,0.7-0.1,1-0.1c0,0.5,0,1-0.1,1.3c-1.3,7-2,10.9-2,11.5h-0.8c-0.4,0-0.7,0-0.8,0l-0.1,0.1
						c-0.1,0-0.1,0-0.1,0h-0.1c-0.5,0-1.9,0-4.3,0c-0.9,0-1.6,0.3-2.2,1c-0.7,0.6-1,1.4-1,2.2c0,0.9,0.3,1.7,1,2.3
						c0.6,0.6,1.4,0.9,2.2,0.9c2.1,0,3.5,0,4.4,0c0.3,0,0.6,0,0.8,0c0,0,0.1,0,0.2-0.1c0.1,0,0.2,0,0.2-0.1c0.7,0,2.1,0,4,0
						c0.9,0,1.7-0.4,2.4-1.1c0.6-0.7,0.9-1.5,0.8-2.5c-0.2-1.4,0.4-5.8,1.7-13.1c0.5-2.9,0.3-5.2-0.8-6.7c-0.9-1.1-2-1.9-3.6-2.1
						C-656.8,32.6-657.4,32.5-657.9,32.5z M-659.7,57.5c-0.2,0.3-0.4,0.4-0.4,0.4c0-0.1,0-0.1-0.2,0
						C-660.2,57.8-660,57.7-659.7,57.5z"/>
				</g>
			</g>
		</g>
		<g>
			<g transform="translate(689.66115, 91.601101)">
				<g>
					<path d="M-665.8,32.5c-1.4,0-2.4,0.7-2.9,2c-2,4.9-3.2,11.7-3.8,20.4c0,0.9,0.2,1.6,0.8,2.3s1.3,1.1,2.2,1.2
						c0.8,0.1,1.6-0.2,2.3-0.8s1-1.3,1.1-2.2c0.5-8,1.7-14.2,3.4-18.4c0.5-1.1,0.4-2.1-0.3-3.1C-663.6,32.9-664.6,32.5-665.8,32.5z"
						/>
				</g>
			</g>
		</g>
		<g>
			<g transform="translate(700.221128, 91.601101)">
				<g>
					<path d="M-662.2,32.5c-0.3,0-0.7,0.1-1,0.2h-1.1c-0.6,0-1.3,0.2-1.9,0.6c-0.6,0.4-1,0.9-1.2,1.5s-0.2,1.2,0,1.9s0.5,1.2,1,1.6
						c-1.2,4-2,9.5-2.6,16.6c0,0.9,0.2,1.6,0.8,2.3s1.3,1.1,2.2,1.2c0.8,0.1,1.6-0.2,2.3-0.8s1-1.3,1.1-2.2c0.5-7,1.4-12.5,2.6-16.3
						h7.8c-1.1,4-1.9,9.3-2.4,15.9c0,0.9,0.2,1.6,0.8,2.3s1.3,1.1,2.2,1.1c0.9,0.1,1.6-0.2,2.4-0.8c0.7-0.6,1-1.3,1.1-2.2
						c0.5-8.1,1.7-14.2,3.4-18.4c0.4-1.1,0.3-2.1-0.4-3c-0.6-1-1.5-1.5-2.7-1.5l-13.3,0.2C-661.4,32.6-661.8,32.5-662.2,32.5z"/>
				</g>
			</g>
		</g>
		<g>
			<g transform="translate(721.533093, 91.601101)">
				<g>
					<path d="M-657,32.7c-0.9,0-1.6,0.3-2.3,1c-0.7,0.6-1,1.4-1,2.2c0,0.9,0.4,1.7,1,2.3c0.7,0.6,1.4,0.9,2.3,0.9l12.2-0.1
						c-1.1,4-1.9,9.3-2.3,15.9c-0.1,0.9,0.2,1.6,0.8,2.3s1.3,1.1,2.2,1.1c0.8,0.1,1.6-0.2,2.3-0.8s1.1-1.3,1.1-2.2
						c0.5-8,1.7-14.2,3.4-18.5c0.4-1.1,0.3-2.1-0.3-3.1c-0.6-0.9-1.6-1.3-2.8-1.3L-657,32.7z M-657.8,43.8c-0.8,0-1.5,0.2-2.2,0.8
						c-0.6,0.6-1,1.3-1.1,2.1c-0.3,2-0.6,4.8-0.8,8.4c0,0.9,0.2,1.6,0.8,2.3s1.3,1.1,2.2,1.1c0.8,0.1,1.6-0.2,2.3-0.8s1-1.3,1.1-2.2
						c0.2-3.4,0.5-6.1,0.8-7.9c0.1-1-0.1-1.8-0.7-2.6C-656,44.2-656.8,43.8-657.8,43.8z"/>
				</g>
			</g>
		</g>
		<g>
			<g transform="translate(752.973033, 91.601101)">
				<g>
					<path d="M-645.6,32.7c-0.7,0-1.3,0.2-1.9,0.6c-0.6,0.4-1,0.9-1.2,1.5s-0.2,1.3-0.1,2c0.2,0.7,0.5,1.2,1,1.6l-3,15.3
						c0,0.1-0.1,0.2-0.1,0.3c-0.4,1-0.3,2,0.3,3s1.5,1.5,2.8,1.4c3.3,0,6.5,0,9.8-0.1c3.4,0,6.4-0.1,8.9-0.1h0.1c0.3,0,0.6,0,0.9,0
						h0.2c1.3,0,2.2-0.6,2.9-1.7c0.6-1.1,0.5-2.3-0.2-3.3c0.5-6.8,1.6-12.3,3.2-16.3c0.4-1.1,0.3-2.1-0.3-3.1
						c-0.7-0.9-1.6-1.3-2.7-1.3L-645.6,32.7z M-629.5,39c-1,3.5-1.7,7.8-2,12.9c-1.6,0-3.7,0-6.1,0.1c-2.5,0-4.6,0.1-6.2,0.1
						l2.6-12.9L-629.5,39z"/>
				</g>
			</g>
		</g>
		<g>
			<g transform="translate(778.124994, 91.601101)">
				<g>
					<path d="M-636.3,32.5c-1.4,0-2.4,0.7-2.9,2c-2,4.9-3.2,11.7-3.8,20.4c0,0.9,0.2,1.6,0.8,2.3s1.3,1.1,2.2,1.2
						c0.8,0.1,1.6-0.2,2.3-0.8s1-1.3,1.1-2.2c0.5-8,1.7-14.2,3.4-18.4c0.5-1.1,0.4-2.1-0.3-3.1C-634.1,32.9-635.1,32.5-636.3,32.5z"
						/>
				</g>
			</g>
		</g>
		<g>
			<g transform="translate(788.684972, 91.601101)">
				<g>
					<path d="M-632.8,32.5c-0.3,0-0.7,0.1-1,0.2h-1.1c-0.6,0-1.3,0.2-1.9,0.6c-0.6,0.4-1,0.9-1.2,1.5s-0.2,1.2,0,1.9s0.5,1.2,1,1.6
						c-1.2,4-2,9.5-2.6,16.6c0,0.9,0.2,1.6,0.8,2.3s1.3,1.1,2.2,1.2c0.8,0.1,1.6-0.2,2.3-0.8s1-1.3,1.1-2.2c0.5-7,1.4-12.5,2.6-16.3
						h7.8c-1.1,4-1.9,9.3-2.4,15.9c0,0.9,0.2,1.6,0.8,2.3s1.3,1.1,2.2,1.1c0.9,0.1,1.6-0.2,2.4-0.8c0.7-0.6,1-1.3,1.1-2.2
						c0.5-8.1,1.7-14.2,3.4-18.4c0.4-1.1,0.3-2.1-0.4-3c-0.6-1-1.5-1.5-2.7-1.5l-13.3,0.2C-631.9,32.6-632.3,32.5-632.8,32.5z"/>
				</g>
			</g>
		</g>
		<g>
			<g transform="translate(809.996937, 91.601101)">
				<g>
					<path d="M-620.6,32.5c-0.4,0-0.7,0.1-1,0.2h-1.2c-1.5,0-2.5,0.7-3,2.1c-0.2,0.6-0.3,1.2-0.1,1.9s0.5,1.2,1,1.6
						c-1.1,3.6-1.9,8.2-2.3,13.6c-0.4,0-1,0-2.1,0c-0.9,0-1.6,0.3-2.3,1c-0.6,0.6-1,1.4-1,2.2c0,0.9,0.3,1.6,1,2.2s1.4,1,2.3,1
						c1.3,0,2.3,0,3.1-0.1c0.4,0,0.9-0.1,1.7-0.1c0.2,0,0.5,0,0.8,0h0.2c1.3,0,2.3-0.6,2.9-1.7c0.6-1.2,0.5-2.3-0.3-3.4
						c0.5-5.8,1.3-10.5,2.4-14.1l7.8-0.1c-1.1,4-1.9,9.2-2.3,15.8c-0.1,0.9,0.1,1.6,0.8,2.4c0.6,0.7,1.4,1,2.2,1.1
						c0.8,0,1.6-0.2,2.3-0.8s1.1-1.3,1.2-2.1c0.5-8.1,1.7-14.2,3.3-18.4c0.4-1,0.3-2-0.3-3c-0.6-0.9-1.5-1.4-2.7-1.4l-13.3,0.2
						C-619.9,32.6-620.3,32.5-620.6,32.5z"/>
				</g>
			</g>
		</g>
		<g>
			<g transform="translate(835.004909, 91.601101)">
				<g>
					<path d="M-618.7,32.7c-0.9,0-1.6,0.3-2.2,1c-0.7,0.6-1,1.4-1,2.2c0,0.9,0.3,1.6,1,2.2c0.6,0.6,1.4,1,2.3,1l12.1-0.1
						c-1,3.5-1.7,7.9-2.1,12.9c-4.8,0.1-8.9,0.1-12.2,0.1c-0.9,0-1.6,0.3-2.3,1c-0.6,0.6-1,1.4-1,2.2c0,0.9,0.3,1.6,1,2.2
						s1.4,1,2.3,1c-0.7,0,4.3,0,15-0.1h0.5c2.2,0,3.6,0,4.4,0s1.6-0.3,2.2-1c0.7-0.6,1-1.4,1-2.3c0-0.8-0.3-1.6-1-2.2
						c-0.6-0.6-1.4-1-2.2-1h-1.2c0.5-6.1,1.5-11,3.1-14.9c0.4-1.1,0.3-2.1-0.3-3.1c-0.6-0.9-1.5-1.3-2.7-1.3L-618.7,32.7z"/>
				</g>
			</g>
		</g>
		<g>
			<g transform="translate(867.260858, 91.601101)">
				<g>
					<path d="M-607.5,32.7c-0.7,0-1.3,0.2-1.9,0.6c-0.6,0.4-1,0.9-1.2,1.5s-0.2,1.3-0.1,2c0.2,0.7,0.5,1.2,1,1.6l-3,15.3
						c0,0.1-0.1,0.2-0.1,0.3c-0.4,1-0.3,2,0.3,3s1.5,1.5,2.8,1.4c3.3,0,6.5,0,9.8-0.1c3.4,0,6.4-0.1,8.9-0.1h0.1c0.3,0,0.6,0,0.9,0
						h0.2c1.3,0,2.2-0.6,2.9-1.7c0.6-1.1,0.5-2.3-0.2-3.3c0.5-6.8,1.6-12.3,3.2-16.3c0.4-1.1,0.3-2.1-0.3-3.1
						c-0.7-0.9-1.6-1.3-2.7-1.3L-607.5,32.7z M-591.4,39c-1,3.5-1.7,7.8-2,12.9c-1.6,0-3.7,0-6.1,0.1c-2.5,0-4.6,0.1-6.2,0.1
						l2.6-12.9L-591.4,39z"/>
				</g>
			</g>
		</g>
		<g>
			<g transform="translate(892.41282, 91.601101)">
				<g>
					<path d="M-598.7,32.6c-0.7,0-1.3,0.3-1.9,0.6c-0.6,0.4-1,1-1.2,1.7c-1.2,3.1-2.2,6.5-2.9,10.1c-0.2,0.9,0,1.8,0.6,2.6
						c0.5,0.8,1.3,1.3,2.2,1.5c0.9,0.1,1.8-0.1,2.6-0.6c0.8-0.6,1.3-1.3,1.5-2.2c0.5-3.2,1.4-6.1,2.5-8.8c0.5-1.1,0.3-2.3-0.4-3.3
						C-596.5,33.1-597.5,32.5-598.7,32.6z"/>
				</g>
			</g>
		</g>
		<g>
			<g transform="translate(902.828796, 91.601101)">
				<g>
					<path d="M-584,32.5c-1.5,0-2.4,0.7-2.9,2c-1.8,4.6-3,10.3-3.6,17.3c-0.9,0-1.7,0-2.7,0s-2.7,0.1-5.2,0.2c-0.8,0-1.5,0.3-2.2,1
						c-0.6,0.6-0.9,1.4-0.8,2.3c0,0.8,0.3,1.5,1,2.2s1.4,0.9,2.2,0.9c4.8-0.1,8.2-0.2,10.2-0.1c0.1,0,0.2,0,0.3,0h0.1
						c0.8,0,1.6-0.2,2.2-0.8c0.7-0.6,1-1.3,1.1-2.1c0.5-8.1,1.7-14.2,3.3-18.4c0.5-1.1,0.4-2.1-0.3-3.1
						C-581.9,32.9-582.8,32.5-584,32.5z"/>
				</g>
			</g>
		</g>
		<g>
			<g transform="translate(921.404777, 91.601101)">
				<g>
					<path d="M-588.5,32.5c-1.4,0-2.4,0.7-2.9,2c-2,4.9-3.2,11.7-3.8,20.4c0,0.9,0.2,1.6,0.8,2.3s1.3,1.1,2.2,1.2
						c0.8,0.1,1.6-0.2,2.3-0.8s1-1.3,1.1-2.2c0.5-8,1.7-14.2,3.4-18.4c0.5-1.1,0.4-2.1-0.3-3.1S-587.3,32.5-588.5,32.5z"/>
				</g>
			</g>
		</g>
		<g>
			<g transform="translate(931.964743, 91.601101)">
				<g>
					<path d="M-588.4,31.6c-1,0-1.8,0.3-2.4,1c-0.6,0.7-0.9,1.5-0.9,2.4l1.3,20.4c0,1,0.4,1.8,1.2,2.3c0.8,0.6,1.7,0.8,2.7,0.7h0.2
						c3.3,0,6.5,0,9.7-0.1c3.4,0,6.3,0,8.6,0c0.3,0,0.6,0,0.8,0h0.5c1.4,0,2.4-0.6,3-1.9c0.5-1.3,0.4-2.5-0.6-3.5
						c0.5-6.6,1.5-11.9,3.1-15.9c0.5-1.1,0.4-2.1-0.3-3.1c-0.6-0.9-1.6-1.4-2.8-1.3c-1.4,0-2.4,0.7-2.8,2c-1.8,4.6-3,10.3-3.6,17.3
						c-1.5,0-2.9,0-4.2,0c-0.5-3.6,0.2-8.6,2.2-15.2c0.3-1.1,0.2-2-0.4-3c-0.7-0.8-1.6-1.2-2.7-1.2c-0.7,0-1.3,0.2-1.9,0.7
						c-0.6,0.4-1,1-1.2,1.6c-2.1,7.1-2.9,12.8-2.5,17.1c-0.8,0-1.9,0-3.1,0l-1.1-17.4c0-0.8-0.3-1.5-1-2.1
						C-586.9,31.9-587.6,31.6-588.4,31.6z"/>
				</g>
			</g>
		</g>
		<g>
			<g transform="translate(958.220693, 91.601101)">
				<g>
					<path d="M-578.1,32.7c-0.9,0-1.6,0.3-2.3,1c-0.7,0.6-1,1.4-1,2.2c0,0.9,0.4,1.7,1,2.3c0.7,0.6,1.4,0.9,2.3,0.9l12.2-0.1
						c-1.1,4-1.9,9.3-2.3,15.9c-0.1,0.9,0.2,1.6,0.8,2.3s1.3,1.1,2.2,1.1c0.8,0.1,1.6-0.2,2.3-0.8s1.1-1.3,1.1-2.2
						c0.5-8,1.7-14.2,3.4-18.5c0.4-1.1,0.3-2.1-0.3-3.1c-0.6-0.9-1.6-1.3-2.8-1.3L-578.1,32.7z M-578.9,43.8c-0.8,0-1.5,0.2-2.2,0.8
						c-0.6,0.6-1,1.3-1.1,2.1c-0.3,2-0.6,4.8-0.8,8.4c0,0.9,0.2,1.6,0.8,2.3s1.3,1.1,2.2,1.1c0.8,0.1,1.6-0.2,2.3-0.8s1-1.3,1.1-2.2
						c0.2-3.4,0.5-6.1,0.8-7.9c0.1-1-0.1-1.8-0.7-2.6C-577.1,44.2-577.9,43.8-578.9,43.8z"/>
				</g>
			</g>
		</g>
	</g>
	<g display="inline">
		<g>
			<g transform="translate(989.660633, 91.601101)">
				<g>
					<path d="M-1116.7-27.3c-0.7,0-1.3,0.2-1.8,0.6c-0.6,0.4-1,0.9-1.2,1.5s-0.2,1.3-0.1,2c0.2,0.7,0.5,1.2,1,1.6l-3,15.3
						c0,0.1-0.1,0.2-0.1,0.3c-0.4,1-0.3,2,0.3,3s1.5,1.5,2.8,1.4c3.3,0,6.5,0,9.8-0.1c3.4,0,6.4-0.1,8.9-0.1h0.1c0.3,0,0.6,0,0.9,0
						h0.2c1.3,0,2.2-0.6,2.9-1.7c0.6-1.1,0.5-2.3-0.2-3.3c0.5-6.8,1.6-12.3,3.2-16.3c0.4-1.1,0.3-2.1-0.3-3.1
						c-0.7-0.9-1.6-1.3-2.7-1.3L-1116.7-27.3z M-1100.6-21c-1,3.5-1.7,7.8-2,12.9c-1.6,0-3.7,0-6.1,0.1c-2.5,0-4.6,0.1-6.2,0.1
						l2.6-12.9L-1100.6-21z"/>
				</g>
			</g>
		</g>
		<g>
			<g transform="translate(1014.812594, 91.601101)">
				<g>
					<path d="M-1107.9-27.4c-0.7,0-1.3,0.3-1.9,0.6c-0.6,0.4-1,1-1.2,1.7c-1.2,3.1-2.2,6.5-2.9,10.1c-0.2,0.9,0,1.8,0.7,2.6
						c0.5,0.8,1.3,1.3,2.2,1.5c0.9,0.1,1.8-0.1,2.6-0.6c0.8-0.6,1.3-1.3,1.5-2.2c0.5-3.2,1.4-6.1,2.5-8.8c0.5-1.1,0.3-2.3-0.4-3.3
						C-1105.6-26.9-1106.6-27.5-1107.9-27.4z"/>
				</g>
			</g>
		</g>
		<g>
			<g transform="translate(1025.228549, 91.601101)">
				<g>
					<path d="M-1105.1-27.3c-0.9,0-1.6,0.3-2.3,1c-0.6,0.6-1,1.4-1,2.2c0,0.9,0.3,1.6,1,2.2c0.6,0.6,1.4,1,2.3,1l12.2-0.1
						c-0.4,1.4-0.7,2.9-1,4.3h-12.3c-0.8,0-1.5,0.3-2.2,0.8c-0.6,0.6-0.9,1.2-1,2l-1.2,9c0,0.9,0.2,1.7,0.8,2.4c0.7,0.6,1.4,1,2.2,1
						c0.9,0,1.6-0.3,2.3-0.9c0.7-0.6,1-1.3,1.1-2.2c0-1.1,0.3-3,0.7-5.6h8.6c-0.2,1.5-0.3,3.3-0.4,5.2c0,0.9,0.2,1.6,0.8,2.3
						c0.6,0.7,1.3,1.1,2.2,1.1s1.6-0.2,2.3-0.8c0.7-0.6,1.1-1.3,1.2-2.2c0.3-3.5,0.5-6.2,0.8-8.3c0-0.1,0.1-0.2,0.1-0.3
						c0.5-3.7,1.4-7,2.6-9.9c0.4-1.1,0.3-2.1-0.4-3.1c-0.6-0.9-1.5-1.3-2.7-1.3L-1105.1-27.3z"/>
				</g>
			</g>
		</g>
		<g>
			<g transform="translate(1047.212511, 91.601101)">
				<g>
					<path d="M-1100-28.4c-1,0-1.8,0.3-2.4,1s-0.9,1.5-0.9,2.4l1.3,20.4c0,1,0.4,1.8,1.2,2.4c0.8,0.6,1.7,0.9,2.7,0.6h0.2
						c3.3,0,6.5,0,9.7-0.1c3.4,0,6.3,0,8.7,0c0.3,0,0.6,0,0.8,0h0.5c1.4,0,2.4-0.6,3-1.9c0.5-1.3,0.4-2.5-0.6-3.5
						c0.5-6.6,1.5-11.9,3.1-15.9c0.5-1.1,0.4-2.1-0.3-3.1c-0.6-0.9-1.6-1.4-2.8-1.3c-1.4,0-2.3,0.7-2.8,2c-1.8,4.6-3,10.3-3.6,17.3
						c-1.5,0-2.9,0-4.2,0c-0.5-3.6,0.2-8.6,2.2-15.2c0.3-1.1,0.2-2-0.4-3c-0.7-0.8-1.6-1.2-2.7-1.2c-0.7,0-1.3,0.2-1.8,0.7
						c-0.6,0.4-1,1-1.2,1.6c-2.1,7.1-2.9,12.8-2.5,17.1c-0.8,0-1.8,0-3.1,0l-1.2-17.4c0-0.8-0.3-1.5-1-2.1
						C-1098.5-28.1-1099.2-28.4-1100-28.4z"/>
				</g>
			</g>
		</g>
		<g>
			<g transform="translate(1073.468461, 91.601101)">
				<g>
					<path d="M-1087.8-27.5c-1.4,0-2.4,0.7-2.9,2c-2,4.9-3.2,11.7-3.8,20.4c0,0.9,0.2,1.6,0.8,2.3c0.6,0.7,1.3,1.1,2.2,1.1
						c0.8,0.1,1.6-0.2,2.3-0.8c0.7-0.6,1-1.3,1.1-2.2c0.5-8,1.7-14.2,3.4-18.4c0.5-1.1,0.4-2.1-0.3-3.1
						C-1085.7-27.1-1086.6-27.5-1087.8-27.5z"/>
				</g>
			</g>
		</g>
		<g>
			<g transform="translate(1084.028427, 91.601101)">
				<g>
					<path d="M-1068.1-27.5c-0.1,0-0.2,0-0.4,0c-0.6,0-1.3,0.1-2.1,0.2c-0.2,0-0.3,0.1-0.5,0.1c-3.2,1.1-6.2,2.9-8.9,5.4
						c-0.3-1.2-0.8-2.5-1.2-3.7c-0.6-1.4-1.6-2-3-2c-1.1,0-2,0.5-2.7,1.4c-0.6,1-0.7,2-0.2,3c0.8,2.2,1.5,4.7,2.1,7.3
						c-1.9,2.7-3.7,5.9-5.4,9.6c-0.4,0.8-0.4,1.6-0.1,2.5s0.9,1.5,1.7,1.9c0.8,0.4,1.7,0.4,2.5,0.1s1.4-1,1.8-1.9
						c4.1-9.3,9.2-15.1,15.3-17.4c0.3,0,0.7-0.1,1-0.1c0,0.5,0,1-0.1,1.3c-1.3,7-2,10.9-2,11.5h-0.8c-0.4,0-0.7,0-0.8,0l-0.1,0.1
						c-0.1,0-0.1,0-0.1,0s-0.1,0-0.2,0c-0.5,0-1.9,0-4.3,0c-0.9,0-1.6,0.3-2.2,1c-0.7,0.6-1,1.4-1,2.2c0,0.9,0.3,1.7,1,2.3
						c0.6,0.6,1.4,0.9,2.2,0.9c2.1,0,3.5,0,4.4,0c0.3,0,0.6,0,0.8,0c0,0,0.1,0,0.2-0.1c0.1,0,0.2,0,0.2-0.1c0.7,0,2.1,0,4,0
						c0.9,0,1.7-0.4,2.3-1.1s0.9-1.5,0.8-2.5c-0.2-1.4,0.4-5.8,1.7-13.1c0.5-2.9,0.3-5.2-0.8-6.7c-0.8-1.1-2-1.9-3.6-2.1
						C-1067.1-27.4-1067.6-27.5-1068.1-27.5z M-1070-2.5c-0.2,0.2-0.4,0.4-0.4,0.4c0-0.1,0-0.1-0.2,0
						C-1070.4-2.2-1070.2-2.3-1070-2.5z"/>
				</g>
			</g>
		</g>
		<g>
			<g transform="translate(1108.892364, 91.601101)">
				<g>
					<path d="M-1077.9-27.3c-0.8,0-1.6,0.3-2.3,1c-0.7,0.6-1,1.4-1,2.2c0,0.9,0.4,1.7,1,2.3c0.7,0.6,1.4,0.9,2.3,0.9l12.2-0.1
						c-1.1,4-1.9,9.3-2.3,15.9c-0.1,0.9,0.2,1.6,0.8,2.3c0.6,0.7,1.3,1.1,2.2,1.1c0.8,0.1,1.6-0.2,2.3-0.8c0.7-0.6,1.1-1.3,1.2-2.2
						c0.5-8,1.7-14.2,3.4-18.5c0.4-1.1,0.3-2.1-0.3-3.1c-0.6-0.9-1.6-1.3-2.8-1.3L-1077.9-27.3z M-1078.6-16.2
						c-0.8,0-1.5,0.2-2.2,0.8c-0.6,0.6-1,1.3-1.1,2.1c-0.3,2-0.6,4.8-0.8,8.4c0,0.9,0.2,1.6,0.8,2.3c0.6,0.7,1.3,1.1,2.2,1.1
						c0.8,0.1,1.6-0.2,2.3-0.8c0.7-0.6,1-1.3,1.1-2.2c0.2-3.4,0.5-6.1,0.8-7.9c0.1-1-0.1-1.8-0.7-2.6
						C-1076.9-15.8-1077.7-16.2-1078.6-16.2z"/>
				</g>
			</g>
		</g>
		<g>
			<g transform="translate(1140.332304, 91.601101)">
				<g>
					<path d="M-1065.2-37c-1.4,0-2.4,0.7-2.9,2c-1,2.6-1.8,5.4-2.4,8.3c-1.2,0.9-1.5,2.1-1,3.6s1.6,2.2,3.2,2.2l11.7-0.1
						c-1.1,3.9-1.8,9.2-2.3,16c0,0.9,0.2,1.6,0.8,2.4c0.6,0.7,1.3,1.1,2.2,1.1c0.9,0.1,1.7-0.2,2.3-0.8c0.7-0.6,1.1-1.4,1.1-2.2
						c0.5-7.5,1.5-13.2,2.9-17.2c1.2-0.9,1.5-2.1,1-3.6c-0.5-1.4-1.5-2.2-3-2.2c-0.2-0.1-0.4-0.1-0.7-0.1c-0.2,0-0.3,0-0.4,0.1
						l-10.9,0.1c0.5-1.8,1-3.5,1.7-5.1c0.4-1.1,0.3-2.1-0.3-3.1C-1063-36.7-1064-37.1-1065.2-37z"/>
				</g>
			</g>
		</g>
		<g>
			<g transform="translate(1161.212277, 91.601101)">
				<g>
					<path d="M-1052.4-27.5c-1.4,0-2.3,0.7-2.8,2.1c-1.8,4.6-3,10.4-3.6,17.4c-1.7,0-3.1,0-4.2,0c-0.8,0-1.6,0.3-2.3,1
						c-0.6,0.6-1,1.4-1,2.3c0,0.8,0.3,1.5,1,2.2c0.7,0.6,1.4,1,2.3,1c3.3,0,6.7,0,10.1-0.1c3.4,0,6.5-0.1,9.5-0.1
						c0.9,0.1,1.8-0.1,2.4-0.7c0.7-0.5,1.1-1.3,1.2-2.2c0.5-8,1.6-14.1,3.3-18.4c0.5-1.1,0.4-2.1-0.3-3.1c-0.7-1-1.6-1.4-2.8-1.4
						c-1.4,0-2.4,0.7-2.9,2.1c-1.8,4.6-3,10.3-3.6,17.3c-2.4,0-4.5,0-6.5,0c0.5-6.1,1.6-11,3.2-14.9c0.4-1.1,0.3-2.1-0.3-3.1
						C-1050.3-27.1-1051.2-27.6-1052.4-27.5z"/>
				</g>
			</g>
		</g>
		<g>
			<g transform="translate(1195.964229, 91.601101)">
				<g>
					<path d="M-1047-27.5c-1.4,0-2.4,0.7-2.9,2c-2,4.9-3.2,11.7-3.8,20.4c0,0.9,0.2,1.6,0.8,2.3c0.6,0.7,1.3,1.1,2.2,1.1
						c0.8,0.1,1.6-0.2,2.3-0.8c0.7-0.6,1-1.3,1.1-2.2c0.5-8,1.7-14.2,3.4-18.4c0.5-1.1,0.4-2.1-0.3-3.1
						C-1044.9-27.1-1045.8-27.5-1047-27.5z"/>
				</g>
			</g>
		</g>
		<g>
			<g transform="translate(1206.524195, 91.601101)">
				<g>
					<path d="M-1037.1-27.5c-0.2,0-0.5,0-0.8,0.1l-9.2,0.1c-0.8,0-1.6,0.3-2.3,1c-0.6,0.7-1,1.5-1,2.3c0,0.9,0.4,1.6,1,2.2
						c0.7,0.6,1.4,1,2.2,1l5.4-0.1c-1.1,3.8-1.8,9.1-2.2,15.9c-0.1,0.9,0.2,1.6,0.8,2.3c0.6,0.7,1.3,1.1,2.2,1.1
						c0.8,0.1,1.6-0.2,2.3-0.8c0.7-0.6,1.1-1.3,1.1-2.2c0.5-7.1,1.4-12.5,2.7-16.4l4.4-0.1c0.8,0,1.6-0.3,2.3-1c0.6-0.7,1-1.5,1-2.3
						s-0.3-1.6-1-2.2s-1.4-1-2.3-1l-5.9,0.1C-1036.5-27.5-1036.8-27.5-1037.1-27.5z"/>
				</g>
			</g>
		</g>
		<g>
			<g transform="translate(1226.540185, 91.601101)">
				<g>
					<path d="M-1020.6-27.5c-0.1,0-0.2,0-0.4,0c-0.6,0-1.3,0.1-2.1,0.2c-0.2,0-0.3,0.1-0.5,0.1c-3.2,1.1-6.2,2.9-8.9,5.4
						c-0.3-1.2-0.8-2.5-1.2-3.7c-0.6-1.4-1.6-2-3-2c-1.1,0-2,0.5-2.7,1.4c-0.6,1-0.7,2-0.2,3c0.8,2.2,1.5,4.7,2.1,7.3
						c-1.9,2.7-3.7,5.9-5.4,9.6c-0.4,0.8-0.4,1.6-0.1,2.5s0.9,1.5,1.7,1.9c0.8,0.4,1.7,0.4,2.5,0.1s1.4-1,1.8-1.9
						c4.1-9.3,9.2-15.1,15.3-17.4c0.3,0,0.7-0.1,1-0.1c0,0.5,0,1-0.1,1.3c-1.3,7-2,10.9-2,11.5h-0.8c-0.4,0-0.7,0-0.8,0l-0.1,0.1
						c-0.1,0-0.1,0-0.1,0s-0.1,0-0.2,0c-0.5,0-1.9,0-4.3,0c-0.9,0-1.6,0.3-2.2,1c-0.7,0.6-1,1.4-1,2.2c0,0.9,0.3,1.7,1,2.3
						c0.6,0.6,1.4,0.9,2.2,0.9c2.1,0,3.5,0,4.4,0c0.3,0,0.6,0,0.8,0c0,0,0.1,0,0.2-0.1c0.1,0,0.2,0,0.2-0.1c0.7,0,2.1,0,4,0
						c0.9,0,1.7-0.4,2.3-1.1s0.9-1.5,0.8-2.5c-0.2-1.4,0.4-5.8,1.7-13.1c0.5-2.9,0.3-5.2-0.8-6.7c-0.8-1.1-2-1.9-3.6-2.1
						C-1019.6-27.4-1020.1-27.5-1020.6-27.5z M-1022.5-2.5c-0.2,0.2-0.4,0.4-0.4,0.4c0-0.1,0-0.1-0.2,0
						C-1022.9-2.2-1022.7-2.3-1022.5-2.5z"/>
				</g>
			</g>
		</g>
		<g>
			<g transform="translate(1251.404168, 91.601101)">
				<g>
					<path d="M-1028.2-37c-1.4,0-2.4,0.7-2.9,2c-1,2.6-1.8,5.4-2.4,8.3c-1.2,0.9-1.5,2.1-1,3.6s1.6,2.2,3.2,2.2l11.7-0.1
						c-1.1,3.9-1.8,9.2-2.3,16c0,0.9,0.2,1.6,0.8,2.4c0.6,0.7,1.3,1.1,2.2,1.1c0.9,0.1,1.7-0.2,2.3-0.8c0.7-0.6,1.1-1.4,1.1-2.2
						c0.5-7.5,1.5-13.2,2.9-17.2c1.2-0.9,1.5-2.1,1-3.6c-0.5-1.4-1.5-2.2-3-2.2c-0.2-0.1-0.4-0.1-0.7-0.1c-0.2,0-0.3,0-0.4,0.1
						l-10.9,0.1c0.5-1.8,1-3.5,1.7-5.1c0.4-1.1,0.3-2.1-0.3-3.1C-1026-36.7-1026.9-37.1-1028.2-37z"/>
				</g>
			</g>
		</g>
		<g>
			<g transform="translate(1272.284141, 91.601101)">
				<g>
					<path d="M-1016.5-27.5c-0.4,0-0.7,0.1-1,0.2h-1.2c-1.5,0-2.5,0.7-3,2.1c-0.2,0.6-0.3,1.2-0.1,1.9c0.2,0.7,0.5,1.2,1,1.6
						c-1.1,3.6-1.9,8.2-2.3,13.6c-0.3,0-1,0-2.1,0c-0.8,0-1.6,0.3-2.3,1c-0.6,0.6-1,1.4-1,2.2c0,0.9,0.3,1.6,1,2.2s1.4,1,2.3,1
						c1.3,0,2.3,0,3.1-0.1c0.4,0,0.9-0.1,1.7-0.1c0.2,0,0.5,0,0.8,0h0.2c1.3,0,2.3-0.6,2.9-1.7c0.6-1.2,0.5-2.3-0.3-3.4
						c0.5-5.8,1.3-10.5,2.4-14.1l7.8-0.1c-1.1,4-1.9,9.2-2.3,15.8c-0.1,0.9,0.2,1.6,0.8,2.4c0.6,0.7,1.4,1,2.2,1.1
						c0.8,0,1.6-0.2,2.3-0.8s1.1-1.3,1.2-2.1c0.5-8.1,1.7-14.2,3.3-18.4c0.4-1,0.3-2-0.3-3c-0.6-0.9-1.5-1.4-2.7-1.4l-13.3,0.2
						C-1015.8-27.4-1016.2-27.5-1016.5-27.5z"/>
				</g>
			</g>
		</g>
		<g>
			<g transform="translate(1307.180059, 91.601101)">
				<g>
					<path d="M-1011.8-27.3c-0.8,0-1.6,0.3-2.3,1c-0.7,0.6-1,1.4-1,2.2c0,0.9,0.4,1.7,1,2.3c0.7,0.6,1.4,0.9,2.3,0.9l12.2-0.1
						c-1.1,4-1.9,9.3-2.3,15.9c-0.1,0.9,0.2,1.6,0.8,2.3s1.3,1.1,2.2,1.1c0.8,0.1,1.6-0.2,2.3-0.8s1.1-1.3,1.2-2.2
						c0.5-8,1.7-14.2,3.4-18.5c0.4-1.1,0.3-2.1-0.3-3.1c-0.6-0.9-1.6-1.3-2.8-1.3L-1011.8-27.3z M-1012.6-16.2
						c-0.8,0-1.5,0.2-2.2,0.8c-0.6,0.6-1,1.3-1.1,2.1c-0.3,2-0.6,4.8-0.8,8.4c0,0.9,0.2,1.6,0.8,2.3s1.3,1.1,2.2,1.1
						c0.8,0.1,1.6-0.2,2.3-0.8s1-1.3,1.1-2.2c0.2-3.4,0.5-6.1,0.8-7.9c0.1-1-0.1-1.8-0.7-2.6C-1010.8-15.8-1011.6-16.2-1012.6-16.2z
						"/>
				</g>
			</g>
		</g>
		<g>
			<g transform="translate(1328.732029, 91.601101)">
				<g>
					<path d="M-1000.6-27.5c-0.2,0-0.5,0-0.8,0.1l-5,0.1c-0.8,0-1.6,0.3-2.2,1c-0.6,0.7-1,1.4-1,2.2c0,0.9,0.4,1.6,1,2.3
						c0.7,0.6,1.4,0.9,2.2,0.9h1.3c-1.1,3.9-1.8,9.1-2.3,15.8c0,0.9,0.3,1.6,0.9,2.3c0.5,0.7,1.3,1.1,2.2,1.1
						c0.8,0.1,1.6-0.2,2.3-0.8s1-1.3,1.1-2.2c0.5-7.1,1.4-12.6,2.6-16.4h1.7c0.9,0,1.7-0.4,2.2-1c0.6-0.7,1-1.5,1-2.3
						s-0.3-1.6-1-2.2c-0.6-0.7-1.4-1-2.2-1l-3.1,0.1C-1000-27.5-1000.3-27.5-1000.6-27.5z"/>
				</g>
			</g>
		</g>
		<g>
			<g transform="translate(1353.403979, 91.601101)">
				<g>
					<path d="M-997.1-27.3c-0.8,0-1.5,0.3-2.2,1s-1,1.4-1,2.2c0,0.9,0.4,1.7,1,2.3c0.7,0.6,1.5,0.9,2.3,0.9l12.1-0.1
						c-1.1,4-1.9,9.3-2.4,15.9c0,0.8,0.2,1.6,0.8,2.3s1.4,1,2.2,1.1s1.6-0.2,2.3-0.8c0.7-0.5,1.1-1.3,1.1-2.2
						c0.5-8,1.7-14.1,3.4-18.4c0.4-1.1,0.3-2.1-0.3-3s-1.5-1.4-2.7-1.4L-997.1-27.3z M-995.4-14.8c-0.8,0-1.5,0.3-2.2,0.9
						c-0.6,0.6-0.9,1.3-1,2l-2.6,24.8c-0.1,0.9,0.2,1.6,0.8,2.4c0.6,0.7,1.3,1.1,2.1,1.2s1.6-0.2,2.4-0.8c0.7-0.6,1.1-1.3,1.2-2.1
						l2.6-24.8c0.1-1-0.1-1.8-0.8-2.6C-993.6-14.4-994.4-14.8-995.4-14.8z"/>
				</g>
			</g>
		</g>
		<g>
			<g transform="translate(1374.379946, 91.601101)">
				<g>
					<path d="M-991.1-27.3c-0.9,0-1.7,0.4-2.3,1s-1,1.4-1,2.2c0,0.9,0.4,1.7,1,2.3c0.7,0.6,1.4,0.9,2.3,0.9l12.2-0.1
						c-1.1,4-1.9,9.3-2.4,15.9c0,0.9,0.2,1.6,0.8,2.3s1.3,1.1,2.2,1.1c0.8,0.1,1.6-0.2,2.3-0.8s1.1-1.3,1.2-2.2
						c0.5-8,1.7-14.2,3.4-18.5c0.4-1.1,0.3-2.1-0.3-3.1c-0.7-0.9-1.6-1.3-2.8-1.3L-991.1-27.3z"/>
				</g>
			</g>
		</g>
		<g>
			<g transform="translate(1394.683915, 91.601101)">
				<g>
					<path d="M-980.8-27.4c-0.7,0-1.4,0.3-2,0.8s-1,1.1-1.2,1.9v0.1c0,0,0,0-0.1,0.1l-1.8,9.1c-0.2,1-0.1,1.8,0.5,2.6
						s1.4,1.2,2.3,1.3l6.8,0.7c0.9,0.1,1.7-0.1,2.4-0.8c0.7-0.6,1.1-1.3,1.2-2.2c0.1-0.8-0.2-1.6-0.8-2.3c-0.6-0.7-1.3-1.1-2.2-1.2
						l-3.2-0.2l0.6-3.3l9.6-0.1c-1,3.6-1.8,7.9-2.2,12.9c-0.9,0-2.8,0-5.7,0.1c-2.2,0.1-4.8,0.1-7.9,0.1c-0.8,0-1.6,0.3-2.2,0.9
						c-0.7,0.7-1,1.5-1,2.3c0,0.9,0.3,1.6,1,2.2c0.6,0.6,1.4,1,2.2,1c3.3,0,6.3,0,8.8-0.1c2.7,0,5.2-0.1,7.3-0.1c0.4,0,0.8,0,1.2,0
						h0.3c1.4,0,2.3-0.6,2.9-1.9c0.6-1.3,0.4-2.4-0.5-3.5c0.5-6.6,1.6-12,3.2-16.1c0.4-1.1,0.3-2.1-0.4-3c-0.6-0.9-1.5-1.4-2.7-1.4
						L-980.8-27.4z"/>
				</g>
			</g>
		</g>
		<g>
			<g transform="translate(1417.627853, 91.601101)">
				<g>
					<path d="M-974.5-27.3c-0.9,0-1.6,0.3-2.2,1c-0.7,0.6-1,1.4-1,2.2c0,0.9,0.3,1.6,1,2.2c0.6,0.6,1.4,1,2.3,1l12.1-0.1
						c-1,3.5-1.7,7.9-2.1,12.9C-969.2-8-973.3-8-976.6-8c-0.8,0-1.6,0.3-2.3,1c-0.6,0.6-1,1.4-1,2.2c0,0.9,0.3,1.6,1,2.2
						s1.4,1,2.3,1c-0.7,0,4.3,0,15-0.1h0.5c2.2,0,3.6,0,4.4,0c0.8,0,1.6-0.3,2.2-1c0.7-0.6,1-1.4,1-2.3c0-0.8-0.3-1.6-1-2.2
						c-0.6-0.6-1.4-1-2.2-1h-1.2c0.5-6.1,1.5-11,3.1-14.9c0.4-1.1,0.3-2.1-0.3-3.1c-0.6-0.9-1.5-1.3-2.7-1.3L-974.5-27.3z"/>
				</g>
			</g>
		</g>
	</g>
</g>
<g display="none">
	<path display="inline" fill="#FFFFFF" d="M274.9-244.5c0,39.6-21.8,74.3-54.4,93.7c-7.6,4.5-15.8,8.2-24.5,11
		c-0.1,0-0.3,0.1-0.4,0.1c-11.1,3.5-23.1,5.4-35.4,5.4c-4.3,0-8.6-0.2-12.8-0.7c-9.8-1-19.2-3.2-28-6.5c-0.5-0.2-1-0.4-1.5-0.5
		c-2.7-1-5.4-2.2-8-3.4c-4.8-2.2-9.4-4.8-13.8-7.6c-30.6-19.8-50.7-53.4-50.7-91.4c0-60.8,51.4-110.2,114.8-110.2c0.2,0,0.4,0,0.6,0
		C223.8-354.3,274.9-305.1,274.9-244.5z"/>
	<g display="inline">
		<path fill="#20382B" stroke="#000000" stroke-miterlimit="10" d="M139.9-210.6c14.7-0.4,29.3-0.9,44-1.3
			c-0.4,11.7-10.1,21.2-21.7,21.4C150.8-190.3,141-199.1,139.9-210.6z"/>
		<path fill="#FFE3CB" stroke="#000000" stroke-miterlimit="10" d="M181.7-225.2c0.8,7.5-1.9,4.1-2.5,28.7c-0.9,3-2.9,8.2-7,13.7
			c-3.2,4.2-5.9,7.8-9.6,8c-6,0.2-10.7-9.5-12.7-13.7c-4.3-8.9-1.9-20.4-3.5-33.8C153-230.7,168.2-232.8,181.7-225.2z"/>
		<g>
			<path fill="#FFB995" d="M147.1-222.5c3.8-2.1,11.6-5.5,21.8-5.1c5.4,0.2,9.8,1.4,13,2.6c-0.6,4.8-1.3,9.6-1.9,14.3
				c0,0-7.3,6-11.6,7.3c-5.5,1.7-10.5,1.6-14.8,1.3c-2.7-0.1-4.9-0.4-6.4-0.7L147.1-222.5L147.1-222.5z"/>
		</g>
		<path fill="#332C26" d="M210-260c1.8-2.6,6.1-9.7,6.4-19.2c0.4-14.3-8.6-28.9-20.9-35.1c-14.7-7.4-38.4-6.2-32-6.5
			c6-0.3,8.8-15.2,8.3-15.6s-7.5,8.7-13.1,13.4c-30.3-9.9-60.6,6.7-60.5,5.7s29.3-1.4,47.3,3.1c0.1,0,0.1,0,0.2,0
			c-3.7-1.7-8.8-3.1-14.3-2.2c-11.8,1.9-21.7,13.4-24.5,29c0.4,8.6,2.8,24.8,15,36.6C146.2-227,194-236.6,210-260z"/>
		<path fill="#FFE3CB" stroke="#000000" stroke-miterlimit="10" d="M113.8-262.8c-3.3,1.5-3.2,8.1-3.2,8.9
			c0.4,13.8,17.7,21.8,18.8,22.3c3.8,1.7,7.8,3.5,9.6,1.9c3.3-3.1-4-16.9-12.7-25.8C123.2-258.6,117.5-264.5,113.8-262.8z"/>
		<path fill="#FFE3CB" stroke="#000000" stroke-miterlimit="10" d="M210.5-262.7c3.3,1.5,3.2,8.1,3.2,8.9
			c-0.4,13.8-17.7,21.8-18.8,22.3c-3.8,1.7-7.8,3.5-9.6,1.9c-3.3-3.1,4-16.9,12.7-25.8C201-258.4,206.8-264.3,210.5-262.7z"/>
		<path fill="#FFE3CB" stroke="#000000" stroke-miterlimit="10" d="M122.1-267.6c1,15.3,8.9,35.1,8.9,35.1s2.9,14.3,31.5,26.4
			c4.9-1.8,20.2-8.1,30.9-24.9c6.7-17.2,10-33.4,9.6-38.6c-2.9-18.1-17.3-41.5-39.2-42.1C140.8-312.2,124.5-287.2,122.1-267.6z"/>
		<path fill="#FFFFFF" d="M170.7-247.8c-0.8-1.3-0.7-2.6-0.6-3.7c0-0.5,0.2-3.6,2.1-5.4c3.7-3.5,14.5-3.2,18.4,1.7
			c1.8,2.2,2.5,5.7,0.3,8.3c-3,3.7-9.2,3.3-10.8,3.2C179.4-243.7,172.8-244.1,170.7-247.8z"/>
		<path fill="none" stroke="#000000" stroke-miterlimit="10" d="M192.2-246.3c0.1-0.8,0.9-6.3-3.2-9.9c-5-4.5-14.3-3.6-17.8,0.6
			c-0.9,1.1-1.4,2.2-1.6,3.2"/>
		<circle stroke="#000000" stroke-width="0.5" stroke-miterlimit="10" cx="179.2" cy="-251.7" r="3.9"/>
		<path fill="none" stroke="#000000" stroke-width="0.75" stroke-miterlimit="10" d="M189.8-245.8c-1,0.5-9.1,4.4-15.9,0.3
			c-1.7-1-2.9-2.3-3.8-3.5"/>
		<circle fill="#FFFFFF" cx="181" cy="-252.9" r="1.5"/>
		<path fill="#FFFFFF" d="M150.8-248.2c0.8-1.3,0.7-2.6,0.6-3.7c0-0.5-0.2-3.6-2.1-5.4c-3.7-3.5-14.5-3.2-18.4,1.7
			c-1.8,2.2-2.5,5.7-0.3,8.3c3,3.7,9.2,3.3,10.8,3.2C142.1-244.1,148.7-244.6,150.8-248.2z"/>
		<path fill="none" stroke="#000000" stroke-miterlimit="10" d="M129.3-246.7c-0.1-0.8-0.9-6.3,3.2-9.9c5-4.5,14.3-3.6,17.8,0.6
			c0.9,1.1,1.4,2.2,1.6,3.2"/>
		<circle stroke="#000000" stroke-width="0.5" stroke-miterlimit="10" cx="142.3" cy="-252.2" r="3.9"/>
		<circle fill="#FFFFFF" cx="144.3" cy="-253.4" r="1.5"/>
		<path fill="none" stroke="#000000" stroke-width="0.75" stroke-miterlimit="10" d="M131.5-246.2c1,0.5,9.1,4.4,15.9,0.3
			c1.7-1,2.9-2.3,3.8-3.5"/>
		<path fill="#332C26" stroke="#000000" stroke-miterlimit="10" d="M155.9-289.6c-2.2,21-9.2,30.6-9.2,30.6s17.8-9.2,14.3-12.4
			c0.6,0.5-4.5,14.3-10.2,17.5c1.5,2,9.1-0.3,14-4.1c13.8-11,8.2-37.3,7.3-41.1"/>
		<path fill="#332C26" stroke="#000000" stroke-miterlimit="10" d="M165.7-294.1c4.5,9.2,19.8,21.7,32,32c2.2,1.9-0.5,7.7-4,13.5
			c1,1,3.9-0.5,4.5-0.8c4.7-2.4,7.8-8,7.9-15.1"/>
		<path fill="none" stroke="#000000" stroke-miterlimit="10" d="M122.1-251.7"/>
		<path fill="#332C26" d="M206.5-266.3c5.3-4.5-2.4-34.6-24.2-45.9c-20.7-10.8-49.3-2.1-60.9,16.2c-6.6,10.6-8.7,26-3.5,29.3
			c9.2,5.8,39.8-26.7,43.5-23.1c1.6,1.6-3.5,8.3-1.4,10.4c2.2,2.1,8.3-5.2,15.8-4c7.4,1.2,7.7,9.3,18.8,14.7
			C197.6-267.2,203.9-264.2,206.5-266.3z"/>
		<g>
			<g>
				<path d="M157-289.6c0.3-1.2,0.4-2.5,0.4-3.8c0-0.5-0.3-1-0.7-1.3s-1.1-0.3-1.5,0c-1.2,0.8-2.2,1.7-3.1,2.8
					c-0.3,0.3-0.4,0.6-0.4,1.1c0,0.4,0.2,0.8,0.4,1.1c0.3,0.3,0.7,0.5,1.1,0.4c0.4,0,0.8-0.1,1.1-0.4c0.6-0.8,1.4-1.4,2.2-2
					c-0.1,0.1-0.2,0.2-0.3,0.2c0.2-0.2,0.5-0.3,0.7-0.5c-0.8-0.4-1.5-0.9-2.3-1.3c0,0.8,0,1.5-0.1,2.2c0-0.1,0-0.3,0-0.4
					c0,0.4-0.1,0.8-0.2,1.2s-0.1,0.8,0.1,1.2c0.2,0.3,0.5,0.6,0.9,0.7s0.8,0.1,1.2-0.1C156.6-288.9,156.9-289.2,157-289.6L157-289.6
					z"/>
			</g>
		</g>
		<g>
			<path d="M174.2-284.5c-0.2,0-0.3-2.3-1-7c-0.5-2.9-1-5.3-1.3-6.9c0.9,1.4,2,3.7,2.5,6.5C175-288,174.4-284.5,174.2-284.5z"/>
			<g>
				<path d="M174.6-285.9c-0.2,0,1.1,0.6,1,0.9v-0.1c0-0.1,0-0.2-0.1-0.3c0-0.2,0,0.3,0,0.1c0-0.1,0-0.2,0-0.2c0-0.2,0-0.4-0.1-0.6
					c-0.1-1.3-0.3-2.5-0.5-3.8c-0.4-2.9-0.9-5.9-1.6-8.8c-0.9,0.4-1.8,0.8-2.7,1.2c1.2,2.1,2.1,4.4,2.4,6.8c0.2,1.3,0.2,2.6,0.1,4
					c0,0.3,0,0.5-0.1,0.8c0,0.3,0-0.2,0,0.1c0,0.1,0,0.2-0.1,0.3c0,0.1-0.1,0.3-0.1,0.4c-0.1,0.3,0.2-0.3,0.2-0.3
					c0.2-0.1,0.4-0.3,0.7-0.4l0,0c-1.9,0.5-1.1,3.4,0.8,2.9c1.2-0.4,1.3-1.7,1.5-2.8c0.2-1.4,0.2-2.9,0-4.4c-0.3-3.2-1.3-6.2-2.9-9
					c-0.9-1.5-3.1-0.5-2.7,1.2c0.7,3.1,1.3,6.3,1.7,9.5c0.1,1.1,0.2,2.1,0.4,3.2c0.1,0.9,0.2,2,1.3,2.2c0.8,0.1,1.6-0.2,1.9-1.1
					C175.8-284.8,175.4-285.8,174.6-285.9z"/>
			</g>
		</g>
		<g>
			<g>
				<path d="M209-266c0-1.1,0-2.2,0-3.4c0-0.4-0.2-0.8-0.4-1.1c-0.3-0.3-0.7-0.5-1.1-0.4c-0.8,0-1.5,0.7-1.5,1.5c0,1.1,0,2.2,0,3.4
					c0,0.4,0.2,0.8,0.4,1.1c0.3,0.3,0.7,0.5,1.1,0.4C208.3-264.6,209-265.2,209-266L209-266z"/>
			</g>
		</g>
		<g>
			<g>
				<path d="M134.4-314.3c1.4-0.1,2.9-0.1,4.3-0.1c0.7,0,1.4,0.1,2.1,0.1c0.7,0.1,1.4,0.1,2,0.2c0.8,0.1,1.6-0.2,1.9-1.1
					c0.2-0.7-0.2-1.7-1-1.9c-3-0.5-6.1-0.6-9.2-0.4c-0.8,0.1-1.5,0.6-1.5,1.5C133-315.1,133.6-314.3,134.4-314.3L134.4-314.3z"/>
			</g>
		</g>
		<g>
			<g>
				<path d="M170-302.8c-0.1-0.2-0.3-0.5-0.4-0.7c-0.2-0.3-0.5-0.6-0.8-0.9c-0.6-0.5-1.3-0.9-2.1-1.2c-0.4-0.1-0.8,0-1.2,0.1
					c-0.3,0.2-0.6,0.5-0.7,0.9s-0.1,0.8,0.1,1.2s0.5,0.6,0.9,0.7c0.1,0,0.2,0.1,0.3,0.1c-0.1-0.1-0.2-0.1-0.4-0.1
					c0.3,0.1,0.6,0.3,0.9,0.6c-0.1-0.1-0.2-0.2-0.3-0.2c0.3,0.2,0.5,0.5,0.8,0.8c-0.1-0.1-0.2-0.2-0.2-0.3c0.2,0.2,0.3,0.5,0.4,0.7
					c0.2,0.3,0.6,0.6,0.9,0.7c0.4,0.1,0.8,0.1,1.2-0.1c0.3-0.2,0.6-0.5,0.7-0.9c0-0.1,0-0.3,0-0.4
					C170.2-302.3,170.1-302.5,170-302.8L170-302.8z"/>
			</g>
		</g>
		<g>
			<g>
				<path d="M194.4-301.8c2.6,4.6,4.9,9.3,6.9,14.1c0.3,0.8,1,1.3,1.9,1.1c0.7-0.2,1.4-1.1,1-1.9c-2.1-5.1-4.5-10.1-7.1-14.8
					C196-305,193.4-303.5,194.4-301.8L194.4-301.8z"/>
			</g>
		</g>
		<g>
			<g>
				<path d="M117.7-282.7c0.4-2.5,1.8-4.8,2.9-7c1.2-2.4,2.5-4.8,3.8-7.1c1-1.7-1.6-3.2-2.6-1.5c-1.4,2.4-2.7,4.9-3.9,7.4
					c-0.6,1.2-1.2,2.5-1.8,3.7c-0.5,1.2-1.1,2.4-1.3,3.7c-0.1,0.8,0.2,1.6,1,1.9C116.6-281.5,117.6-281.9,117.7-282.7L117.7-282.7z"
					/>
			</g>
		</g>
		<path fill="none" stroke="#FFB995" stroke-miterlimit="10" d="M114.4-258.4c-0.4,1.2-1,3.7-0.3,6.7c0.4,2,1.3,3.5,1.9,4.5"/>
		<path fill="none" stroke="#FFB995" stroke-miterlimit="10" d="M210.4-258.7c0.4,1.2,1,3.7,0.3,6.7c-0.4,2-1.3,3.5-1.9,4.5"/>
		<path opacity="0.44" fill="#D8B8A3" enable-background="new    " d="M193.3-231.8c0,0-6.5,8.5-9.9,7c-2.2-0.9-0.7-4.9-3.5-7
			c-2-1.5-5.8-1-13.2,0.2c-2.4,0.4-2.1,0.4-3.8,0.6c-9.4,1.3-12.5-0.4-15,1.6c-2.9,2.3-0.2,7.1-2.2,8.3c-3.2,1.9-11.6-7.7-11.8-7.6
			c-0.2,0.1-0.4,0.1-0.4,0.3c-0.9,5.6,28.4,23.7,29.2,22.2c0,0,13.1-5.4,19.4-11.9C187.5-223,191-227.9,193.3-231.8z"/>
		<line fill="none" stroke="#FFB995" stroke-miterlimit="10" x1="164.5" y1="-253.3" x2="160.3" y2="-250.7"/>
		<line fill="none" stroke="#FFB995" stroke-miterlimit="10" x1="164.8" y1="-251.7" x2="158.1" y2="-247.5"/>
		<line fill="none" stroke="#FFB995" stroke-miterlimit="10" x1="166.4" y1="-250.7" x2="157.8" y2="-245.3"/>
		<line fill="none" stroke="#FFB995" stroke-miterlimit="10" x1="167" y1="-248.8" x2="158.1" y2="-243.4"/>
		<line fill="none" stroke="#FFB995" stroke-miterlimit="10" x1="168" y1="-247.5" x2="158.7" y2="-242.1"/>
		<path fill="#FFB995" stroke="#000000" stroke-width="0.5" stroke-miterlimit="10" d="M162.5-239.1c0,1.3-0.1,2.6-0.2,3.8
			c-0.6-0.5-1.2-1.1-1.8-1.6"/>
		<g>
			<g>
				<path fill="#FFB995" d="M131.7-243c-0.2,0.3-0.4,0.5-0.6,0.8c-0.1,0.2-0.2,0.4-0.2,0.6c0,0.2,0,0.4,0,0.6c0,0.2,0.1,0.4,0.3,0.5
					c0.1,0.2,0.2,0.3,0.4,0.4c0.1,0.1,0.2,0.1,0.4,0.1c0.3,0.1,0.5,0.1,0.8,0c0.1-0.1,0.2-0.1,0.4-0.1c0.2-0.1,0.4-0.3,0.5-0.5
					c0.2-0.3,0.4-0.5,0.6-0.8c0.1-0.2,0.2-0.4,0.2-0.6c0-0.2,0-0.4,0-0.6c0-0.2-0.1-0.4-0.3-0.5c-0.1-0.2-0.2-0.3-0.4-0.4
					c-0.1-0.1-0.2-0.1-0.4-0.1c-0.3-0.1-0.5-0.1-0.8,0c-0.1,0.1-0.2,0.1-0.4,0.1C132-243.4,131.8-243.2,131.7-243L131.7-243z"/>
			</g>
		</g>
		<g>
			<g>
				<path fill="#FFB995" d="M132.9-242.1c-0.1,0.1-0.1,0.2-0.2,0.3c-0.1,0.2-0.2,0.4-0.2,0.6c0,0.2,0,0.4,0,0.6
					c0,0.2,0.1,0.4,0.3,0.5c0.1,0.2,0.2,0.3,0.4,0.4c0.1,0.1,0.2,0.1,0.4,0.1c0.3,0.1,0.5,0.1,0.8,0c0.1-0.1,0.2-0.1,0.4-0.1
					c0.2-0.1,0.4-0.3,0.5-0.5c0.1-0.1,0.1-0.2,0.2-0.3c0.1-0.2,0.2-0.4,0.2-0.6c0-0.2,0-0.4,0-0.6c0-0.2-0.1-0.4-0.3-0.5
					c-0.1-0.2-0.2-0.3-0.4-0.4c-0.1-0.1-0.2-0.1-0.4-0.1c-0.3-0.1-0.5-0.1-0.8,0c-0.1,0.1-0.2,0.1-0.4,0.1
					C133.3-242.5,133.1-242.4,132.9-242.1L132.9-242.1z"/>
			</g>
		</g>
		<g>
			<g>
				<path fill="#FFB995" d="M186.8-241.7c0,0.2,0,0.3,0,0.5s0,0.4,0.1,0.6c0.1,0.2,0.2,0.4,0.3,0.5s0.3,0.2,0.5,0.3s0.4,0.1,0.6,0.1
					c0.1,0,0.3,0,0.4-0.1c0.2-0.1,0.5-0.2,0.7-0.4c0.1-0.1,0.2-0.2,0.2-0.3c0.1-0.2,0.2-0.5,0.2-0.8c0-0.2,0-0.3,0-0.5
					s0-0.4-0.1-0.6c-0.1-0.2-0.2-0.4-0.3-0.5s-0.3-0.2-0.5-0.3s-0.4-0.1-0.6-0.1c-0.1,0-0.3,0-0.4,0.1c-0.2,0.1-0.5,0.2-0.7,0.4
					c-0.1,0.1-0.2,0.2-0.2,0.3C186.9-242.2,186.8-241.9,186.8-241.7L186.8-241.7z"/>
			</g>
		</g>
		<g>
			<g>
				<path fill="#FFB995" d="M188.6-241.3L188.6-241.3c-0.1-0.1-0.1-0.2-0.2-0.3C188.4-241.5,188.5-241.4,188.6-241.3
					c-0.1-0.1-0.1-0.2-0.2-0.3C188.4-241.5,188.5-241.4,188.6-241.3c-0.1-0.1-0.1-0.2-0.1-0.3c0,0.1,0,0.2,0,0.4s0,0.4,0.1,0.6
					c0.1,0.2,0.2,0.4,0.3,0.5s0.3,0.2,0.5,0.3s0.4,0.1,0.6,0.1c0.1,0,0.3,0,0.4-0.1c0.2-0.1,0.5-0.2,0.7-0.4
					c0.1-0.1,0.2-0.2,0.2-0.3c0.1-0.2,0.2-0.5,0.2-0.8c0-0.1,0-0.2,0-0.3c0-0.2,0-0.4-0.1-0.5c0-0.1,0-0.1,0-0.1c0-0.1,0-0.1,0-0.1
					c-0.1-0.2-0.1-0.3-0.2-0.5s-0.3-0.4-0.4-0.6c-0.1-0.1-0.3-0.2-0.5-0.3s-0.4-0.1-0.6-0.1s-0.4,0-0.6,0.1s-0.4,0.2-0.5,0.3
					s-0.2,0.2-0.2,0.3c-0.1,0.2-0.2,0.5-0.2,0.8c0,0.1,0,0.3,0,0.4C188.3-241.7,188.4-241.5,188.6-241.3L188.6-241.3z"/>
			</g>
		</g>
		<path fill="#332C26" stroke="#000000" stroke-miterlimit="10" d="M157.8-288.6c-4.1,2.9-30,26.8-32.2,36.3
			c-0.6,1.6,3.1,10,3.5,9.9c0,0,0,0,0-0.1c0.2-0.8-17.5-5.9-14.1-29.3"/>
		<path fill="none" stroke="#000000" stroke-width="2" stroke-miterlimit="10" d="M147.3-264.1c-7.6-0.2-14.6,1-20.7,4.5"/>
		<path fill="none" stroke="#000000" stroke-width="2" stroke-miterlimit="10" d="M173.4-264.1c7.6-0.2,14.6,1,20.7,4.5"/>
		<path fill="#305437" stroke="#000000" stroke-miterlimit="10" d="M222.8-167.6c-0.9-6.9-1.9-13.9-4.4-20.7
			c-10.1-1.9-20.2-3.8-30.3-5.7l9.8,34.1c1,6.2,2.2,12.5,3.5,18.7l26.4-0.5C225.7-150.1,223.9-158.7,222.8-167.6z"/>
		<path fill="#305437" stroke="#000000" stroke-miterlimit="10" d="M131-163.4l12.7-31.9c-10.1,1.9-20.2,3.8-30.3,5.7
			c-2.5,7.9-4.9,16-7.3,24.2c-2.6,8.8-5,17.5-7.3,26l25.6-0.5C126.7-147.7,128.8-155.5,131-163.4z"/>
		<g>
			<path fill="#305437" d="M200.7-152.1c0-6.9,0.5-16.9,2.6-29.1l-80.6,2.5c2.2,5.9,2.8,21.5,2.6,38.9l75.7-1.4
				C200.8-144.4,200.7-148,200.7-152.1z"/>
			<g>
				<path d="M200.6-152.1c0.2-9.5,0.7-20.3,2.7-29c-13.4,0.4-47.5,1.5-60.5,1.9c-6.7,0.2-13.4,0.4-20.1,0.7l0.1-0.2
					c1.1,3.1,1.6,6.4,2,9.6c1.2,9.4,0.9,19.9,0.6,29.4l-0.1-0.1c0,0,76.2-1.5,75.6-1.3C200.9-141.2,200.6-152.1,200.6-152.1
					L200.6-152.1z M200.8-152.1l0.3,10.9v0.1l-75.8,1.4h-0.1v-0.1v-4.9c-0.2-7.6-0.5-16.9-1-24.4c-0.3-3.3-0.5-6.6-1.6-9.8
					c6.8-0.1,13.5-0.4,20.3-0.6c12.8-0.4,47.2-1.5,60.5-1.9h0.1v0.1C201.8-171.6,200.9-161.9,200.8-152.1L200.8-152.1z"/>
			</g>
		</g>
		<path fill="#FFFFFF" stroke="#000000" stroke-miterlimit="10" d="M171.1-184.1c-5.7,1.9-11.9,2.1-18.5,1c0-1.2,2.5,9.2,9.6,12.1
			C172.1-176.5,171.5-186.1,171.1-184.1z"/>
		<path fill="#305437" d="M148.5-184.1c-1.1-3.4-5.2-5-8.3-4.5c-5.1,0.8-8.6,7.6-6.7,11.1s9.1,4,12.7,0.6
			C148-178.4,149.5-181.3,148.5-184.1z"/>
		<path fill="#305437" d="M194.9-187.5c-1.1-3.5-5.5-5.1-8.6-5.1c-7,0.1-13.2,8.8-11.5,12.7c1.8,4.1,13,4.9,17.8-0.4
			C192.9-180.5,196-183.9,194.9-187.5z"/>
		<path fill="#305437" stroke="#000000" stroke-miterlimit="10" d="M184-211.7c-7.1,8.4-14.1,15.8-20.3,19.4
			c2.2,5.4,4.4,10.7,6.5,16.1c3.1-3.1,7.3-6.7,12.6-10.1c4.6-2.9,8.9-5,12.6-6.4c-2.7-3.9-5.3-7.9-8-11.8
			C186.3-206.9,185.2-209.3,184-211.7z"/>
		<path fill="#305437" stroke="#000000" stroke-miterlimit="10" d="M139.9-210.4c7.2,8.4,14.2,15.8,20.4,19.4
			c-2.2,5.4-4.4,10.7-6.5,16.1c-4.2-3.3-8.4-6.7-12.6-10.1c-3.3-2.7-6.6-5.4-9.8-8.1c1.6-2.3,3.4-5.2,5.1-8.6
			C138-204.8,139.1-207.8,139.9-210.4z"/>
		<g>
			<g>
				<path d="M182.7-199.7c-1,0.8-2.2,1.5-3.4,2.1c-0.5,0.3-1.1,0.5-1.5,1s-0.6,1.1-0.9,1.7c-1.2,2.8-2.4,5.6-3.6,8.4
					c-0.4,0.9,0.9,1.6,1.3,0.8c1.2-2.7,2.3-5.5,3.5-8.2c0.2-0.5,0.4-1.2,0.8-1.7c0.4-0.4,1-0.6,1.5-0.9c1.2-0.6,2.2-1.3,3.3-2.1
					C184.5-199.2,183.4-200.3,182.7-199.7L182.7-199.7z"/>
			</g>
		</g>
		<g>
			<g>
				<path d="M138.2-199c0.2,0,0.4,0,0.6,0c0.1,0,0.2,0,0.3,0h0.1c0,0,0,0-0.1,0c0,0,0.1,0,0.2,0c0.2,0,0.4,0.1,0.6,0.1
					c0,0,0.1,0,0.1,0.1c0.2,0.1-0.1-0.1,0,0s0.2,0.1,0.3,0.1l0.1,0.1c-0.1-0.1-0.1-0.1,0,0c0,0,0,0,0.1,0.1s0.1,0.1,0.2,0.2l0.1,0.1
					c-0.1,0-0.1-0.1,0,0c0,0.1,0.1,0.2,0.1,0.2c0.1,0.1,0-0.1,0,0v0.1v0.1c0,0,0,0,0,0.1s0,0,0-0.1v0.2c0,0.2,0-0.2,0,0v0.1
					c-0.1,0.4,0.1,0.8,0.5,0.9s0.8-0.1,0.9-0.5c0.4-1.1-0.3-2.2-1.1-2.8c-0.9-0.6-2-0.7-3.1-0.7c-0.4,0-0.8,0.4-0.8,0.8
					C137.4-199.3,137.7-199,138.2-199L138.2-199z"/>
			</g>
		</g>
		<path fill="none" stroke="#000000" stroke-miterlimit="10" d="M180.7-200.4"/>
		<path fill="none" stroke="#000000" stroke-miterlimit="10" d="M180.7-203.2"/>
		<path fill="none" stroke="#000000" stroke-miterlimit="10" d="M182-203.6"/>
		<path fill="#C87529" stroke="#000000" stroke-miterlimit="10" d="M216.4-197.8c-1.6-2.1-3.9-2.8-5.1-3.2c-0.6-0.2-5.7-1.8-10.5,1
			c-5.1,2.9-8.2,9.7-6,14.7c2.9,6.5,14.4,8.3,20.1,2.9C218.8-186.4,219.6-193.8,216.4-197.8z"/>
		<path fill="#304D37" stroke="#000000" stroke-miterlimit="10" d="M219.1-190.6c-6.5-6.2-14.8-7.3-24.5-4.4
			c-0.4,0.9-0.8,1.9-1.1,2.8c8.1,0.2,16.4,1,25.3,3.8C218.9-189.2,219-189.9,219.1-190.6z"/>
		<path fill="#304D37" stroke="#000000" stroke-miterlimit="10" d="M113.2-191.2c5.7-6.2,13-7.3,21.4-4.4c0.3,0.9,0.7,1.9,1,2.8
			c-7.1,0.2-14.3,1-22.1,3.8C113.4-189.7,113.3-190.4,113.2-191.2z"/>
		<g>
			<g>
				<path d="M156.4-218.6c4.8,0.5,10.1,0.5,14.1-2.6c0.8-0.6,0-1.9-0.8-1.3c-3.8,2.9-8.8,2.8-13.3,2.3
					C155.4-220.2,155.4-218.7,156.4-218.6L156.4-218.6z"/>
			</g>
		</g>
		<g>
			<g>
				<path fill="#20382B" d="M120.9-177.6c-2.5,9.2-4.1,18.6-4.9,28c-0.2,1.9,2.8,1.9,3,0c0.8-9.2,2.4-18.3,4.8-27.2
					C124.3-178.7,121.4-179.4,120.9-177.6L120.9-177.6z"/>
			</g>
		</g>
		<g>
			<g>
				<path fill="#20382B" d="M213.8-181.5c-2.6,2.8-5.1,5.7-7.5,8.6c-0.5,0.6-0.6,1.5,0,2.1c0.6,0.5,1.6,0.6,2.1,0
					c2.5-2.9,5-5.8,7.5-8.6c0.5-0.6,0.6-1.5,0-2.1S214.3-182.2,213.8-181.5L213.8-181.5z"/>
			</g>
		</g>
		<g>
			<g>
				<path fill="#20382B" d="M125.2-189.7c3.3,0.9,6.6,1.7,9.9,2.4c0.8,0.2,1.7-0.2,1.9-1s-0.2-1.7-1-1.9c-3.3-0.7-6.6-1.5-9.9-2.4
					c-0.8-0.2-1.7,0.2-1.9,1S124.4-189.9,125.2-189.7L125.2-189.7z"/>
			</g>
		</g>
	</g>
	<path display="inline" fill="none" stroke="#F48E8E" stroke-width="30" stroke-miterlimit="10" d="M168.4-354.6
		c-4.2-0.4-8.5-0.7-12.8-0.7c-63.3,0-114.7,49.3-114.7,110.2c0,42.4,24.9,79.1,61.4,97.6c7.3,3.7,15.1,6.7,23.3,8.8
		c0.2,0.1,0.5,0.1,0.7,0.2c9.2,2.3,18.9,3.6,28.8,3.6c0.2,0,0.4,0,0.6,0c16.6,0,32.5-3.4,46.7-9.5c0.4-0.2,0.8-0.4,1.2-0.5
		c8.4-3.7,16.2-8.3,23.3-13.7c26.5-20.2,43.5-51.4,43.5-86.4C270.4-301.8,225.8-348.5,168.4-354.6z"/>
</g>
<g display="none">
	<path display="inline" fill="#C4925C" d="M64.1,286.7h184.1c21.1,0,38.2-17.1,38.2-38.2l0,0c0-21.1-17.1-38.2-38.2-38.2H64.1
		c-21.1,0-38.2,17.1-38.2,38.2l0,0C25.9,269.6,43,286.7,64.1,286.7z"/>
	<path display="inline" fill="#E0BF6C" d="M64.1,280.1h184.1c21.1,0,38.2-17.1,38.2-38.2l0,0c0-21.1-17.1-38.2-38.2-38.2H64.1
		c-21.1,0-38.2,17.1-38.2,38.2l0,0C25.9,263,43,280.1,64.1,280.1z"/>
</g>
<rect x="73.7" y="230.8" display="none" fill="none" width="180.2" height="35.9"/>
<g display="none" enable-background="new    ">
	<path display="inline" d="M76.7,254.5c0-1.3,0.9-2.2,2.1-2.2s2.1,0.9,2.1,2.2s-0.8,2.2-2.1,2.2S76.7,255.8,76.7,254.5z M77.6,249.4
		l-0.5-17.3h3.5l-0.5,17.3H77.6z"/>
	<path display="inline" d="M84.1,253.2c1.1-0.2,3.7-0.2,5.7-0.2h5.5c0-2.4,0-5.9,0-7.7c-0.1-3.9-0.5-5.3-3.9-5.3h-3.1
		c-2.1,0-3.5-0.1-4-0.2l0.6-3.2c0.7,0.1,2.3,0.1,4.6,0.1h2.8c5.1,0,5.7,2.4,5.7,7.3v5.9c0,0.8-0.1,2.4-0.1,3.1h2.6l-0.6,3.3H88.1
		c-1.5,0-3.8,0-4.6,0.1L84.1,253.2z"/>
	<path display="inline" d="M107.5,245.1c0-3.1-0.4-4.2-3.2-4.9c-1.3-0.3-1.9-0.5-2.4-0.7l0.6-3.2c0.5,0.2,1.2,0.4,2.5,0.6
		c4,0.9,5.3,2.2,5.3,7.7v11.8h-2.8V245.1z"/>
	<path display="inline" d="M115.1,251.6c0-3.5,0.8-6.8,3.4-9.5c-1.6-1.8-3.4-3.7-4.9-5l0.1-0.2l3.9-0.3c1.8,1.9,4.5,4.9,8.3,9.6
		c1.4-1,2.3-2.4,2.3-4.7c0-1.4-0.4-3-1.1-4.5l3.5-0.3c0.5,1.4,0.7,2.7,0.7,4.2c0,3-1.5,5.6-4.1,7.1c1.9,2.4,5,6.7,6.1,8.4h-3.8
		c-1.2-1.9-4.3-6.4-9.5-12.4c-1.6,1.9-1.9,4.5-1.8,6.8c0,2.1,0.5,4.1,1,5.6h-3.5C115.4,254.9,115.1,253.2,115.1,251.6z"/>
	<path display="inline" d="M139.3,245.1c0-3.1-0.4-4.2-3.2-4.9c-1.3-0.3-1.9-0.5-2.4-0.7l0.6-3.2c0.5,0.2,1.2,0.4,2.5,0.6
		c4,0.9,5.3,2.2,5.3,7.7v11.8h-2.8L139.3,245.1L139.3,245.1z"/>
	<path display="inline" d="M153.8,253.2c0.9-0.1,2.1-0.1,4.4-0.1h2.5v-8c0-3.1-0.4-4-3.6-4.8c-1.3-0.3-2.6-0.6-3.1-0.8l0.6-3.2
		c0.5,0.2,1.5,0.4,3.1,0.7c4.2,0.9,5.8,2.1,5.8,7.4v8.7l-0.6,3.2h-5c-1.5,0-4,0-4.8,0.1L153.8,253.2z"/>
	<path display="inline" d="M167.3,253.2c0.5-0.1,1-0.2,3-0.2h0.5c0-3.5-0.3-10.7-0.6-13h-0.1c-0.6,0-2.2,0-2.7-0.3l0.6-3.2
		c1.1,0.2,3.5,0.1,5.7,0.1h5.9c5.3,0,6.3,1.3,6.3,7.4v12.2h-2.8V245c0-3.6-0.4-5.1-3.7-5.1H173c0.2,2.3,0.6,10.5,0.5,13.1l-0.5,3.2
		h-2.8c-1.4,0-2.7,0-3.6,0.1L167.3,253.2z"/>
	<path display="inline" d="M192,245c0-2.4,0.1-4.3,0.3-5c-0.6,0-2.4-0.1-2.6-0.2l0.6-3.2c0.8,0.2,2.6,0.2,5,0.2h6.5
		c5.3,0,6.3,1.6,6.3,7.6v12h-2.8v-10.9c0-4-0.4-5.4-3.8-5.4h-6.7v16.3H192V245z"/>
	<path display="inline" d="M213.7,247.8c1.5-2.3,2.3-4.1,2.3-5.5c0-1.2-0.7-1.6-2.3-2.1c-0.9-0.3-1.6-0.5-2.2-0.7l0.6-3.2
		c0.5,0.2,1.2,0.4,2.1,0.6c3.4,0.8,4.6,1.8,4.6,4.5c0,2.3-1.1,4.8-2.8,7.4L213.7,247.8z"/>
	<path display="inline" d="M223.9,253c4.8-1.4,8.5-5.2,8.5-10.3c0-2.3-0.9-2.7-2.8-2.7H221v-5.2c0-2.2-0.1-4.8-0.5-5.7l2.9-0.5
		c0.2,0.5,0.4,2.9,0.4,5.6v2.6h6.9c3.7,0,4.5,1.8,4.5,5c0,8.1-6.4,13.6-12.1,14.9L223.9,253z"/>
</g>
<g>
	<g>
		<g>
			<g>
				<g>
					<defs>
						<rect id="SVGID_00000020368705633161274700000014414442044774660482_" x="112.4" y="50" width="125.2" height="125.2"/>
					</defs>
					<clipPath id="SVGID_00000127036700032229682740000016668639611850455969_">
						<use xlink:href="#SVGID_00000020368705633161274700000014414442044774660482_"  overflow="visible"/>
					</clipPath>
					<g clip-path="url(#SVGID_00000127036700032229682740000016668639611850455969_)">
						<g>
							<g>
								<g>
									<g>
										<defs>
											<path id="SVGID_00000165943301866784798400000001763194822096453049_" d="M175,50c-34.6,0-62.6,28-62.6,62.6
												s28,62.6,62.6,62.6s62.6-28,62.6-62.6S209.6,50,175,50z"/>
										</defs>
										<clipPath id="SVGID_00000093878470927511469620000010652819154160110526_">
											<use xlink:href="#SVGID_00000165943301866784798400000001763194822096453049_"  overflow="visible"/>
										</clipPath>
										<g clip-path="url(#SVGID_00000093878470927511469620000010652819154160110526_)">
											<path fill="#F1EEF7" d="M112.4,50h125.2v125.2H112.4V50z"/>
										</g>
									</g>
								</g>
							</g>
						</g>
					</g>
				</g>
			</g>
		</g>
	</g>
	<g>
		<g transform="translate(634.51208, 373.425562)">
			<g>
				<path d="M-464.3-231.6c-0.8,0-1.4-0.3-1.9-1s-0.7-1.4-0.7-2.1l0.4-26.5h-4.1c-0.9,0-1.6-0.2-2.2-0.7s-0.9-1.1-1-1.7l-1.1-7.5
					c-0.2-1.2,0.3-2.1,1.4-2.9c1.6-1.1,3-2.2,4.2-3.1s2.2-2,3.2-3.1s2-2.4,3-4c0.3-0.5,0.7-0.9,1.2-1.2c0.5-0.3,1-0.4,1.5-0.4l9,0.1
					c1,0.1,1.7,0.4,2.1,1c0.5,0.6,0.7,1.2,0.7,1.9l-0.2,48.4c0,0.9-0.2,1.7-0.6,2.2c-0.4,0.6-1,0.8-1.9,0.8L-464.3-231.6z"/>
			</g>
		</g>
	</g>
	<path fill="#FFFFFF" d="M283.6,103.7c-7.4-30.1-26.3-43.1-60.5-34.9c-17.9-38.5-63.7-40.8-82.8-11.5c0,0-59.8-10.9-67.5,55.1
		c-52.3,0-55.4,58-41.6,77.9c8.4,12.2,24.7,20.8,51.5,20.7c0,0,127.3,3.5,195.6,1.1c11.5-0.4,22.5-5.2,30.5-13.5
		C352.9,155.1,304,105.1,283.6,103.7z M176,155.1c-23.1,0-41.8-18.7-41.8-41.8s18.7-41.8,41.8-41.8s41.8,18.7,41.8,41.8
		S199.1,155.1,176,155.1z"/>
	<g>
		<g transform="translate(589.819889, 457.478844)">
			<g>
				<path d="M-464.3-260.8v2c0,0.6-0.2,1-0.6,1.1s-0.8,0.2-1.2,0.2c-0.2,0-0.8,0-1.6-0.1c-0.8-0.1-1.7,0-2.6,0
					c-1,0.1-1.5-0.1-1.6-0.5s-0.1-0.7,0-1c0-0.6,0.1-1.4,0.1-2.3s0-1.7,0.1-2.4c0-0.6,0.1-1.2,0.1-1.7s0-1.1,0-1.8l-0.1-3.4
					c0,0,0-0.2,0-0.6s0-0.8,0-1.3s0-0.9,0-1.2c0-1.2-0.1-2.3-0.1-3.3c0-1.1-0.1-2.2-0.1-3.4c0-0.6-0.1-1,0-1.3c0-0.3,0-0.7,0-1.1
					c0-0.8-0.2-1.6-0.5-2.4s-0.9-1.3-1.7-1.5h-1c-0.2,0-0.5,0-0.9,0s-0.7,0-0.9,0c-0.5,0-0.8,0.1-1,0.4c-0.1,0.3-0.2,0.8-0.2,1.4
					v2.9c0,0.8,0,1.6,0,2.5s0,2,0.1,3.4c0,0.7,0,1.3-0.1,1.9c0,0.5,0,1,0,1.3l0.1,2.8c0,0.5,0.1,1,0.1,1.5c0.1,0.5,0.1,1,0.1,1.5
					c0,0.3,0,0.6,0,0.8c0,0.3,0,0.6-0.1,0.9c-0.1,0.8-0.1,1.7,0,2.7s0.1,1.9,0.1,2.7c0,0.9-0.2,1.5-0.5,1.8s-0.9,0.5-1.7,0.5h-1.8
					c-0.8,0-1.5,0-2.1,0.1c-0.7,0.1-1.4,0.1-2.2,0.1c-1.3,0-2.2,0-2.7-0.2s-0.7-0.5-0.7-1.2c0-1,0-1.8,0-2.4c0-0.7,0-1.2,0-1.5
					c0-0.6,0-1,0.1-1.5c0.1-0.4,0.4-0.6,1-0.6c0.2,0,0.5,0,0.9,0s0.7,0,1,0.1c0.4,0,0.6-0.1,0.7-0.2c0.1-0.2,0.2-0.3,0.2-0.5
					c0-0.4,0-0.7,0-1s0-0.7,0-1c0-0.8,0-1.7,0.1-2.8c0-1.1,0.1-2,0.1-2.8c0-0.2,0-0.6,0-1.1s0-1.1,0-1.8c0-0.6,0-1.2,0-1.6
					c0-1.2,0-2.4,0-3.7c0-1.3,0-2.7,0-4.4c0-0.4,0-0.7-0.1-0.8s-0.3-0.2-0.5-0.2c-0.1,0-0.3,0-0.4,0c-0.2,0-0.3,0-0.5-0.1
					c-0.4,0-0.6-0.3-0.6-0.8c0,0.2,0,0.2,0-0.2s0-0.8,0-1.3s0-0.8,0-1c0-0.3,0-0.7,0-1c0-0.4,0-0.8,0-1.2c0-0.3,0-0.7,0.1-1
					c0.1-0.4,0.6-0.6,1.4-0.6c0.5,0,1.3,0,2.3,0s1.7,0,2.1,0.1c0.3,0,0.9,0,1.9,0c1-0.1,2-0.1,3.1,0c0.8,0,1.5,0,2.1,0s1-0.1,1-0.1
					c0.4,0,1,0,1.7,0.1s1.4,0.2,2,0.4c0.4,0.1,0.8,0.2,1.2,0.4c0.4,0.2,0.7,0.3,0.8,0.4c0.6,0.4,1.1,1,1.5,1.6s0.7,1.2,1,1.8
					c0.6,1.1,0.9,2.3,0.9,3.7s0,2.9,0,4.6c0,1,0,2.2,0,3.5s0.1,2.8,0.1,4.5v1.5c0,0.6,0,1,0,1.3s-0.1,0.7-0.1,1.2v3.7
					c0,0.7,0,1.3,0.1,1.9C-464.3-262.1-464.3-261.5-464.3-260.8z"/>
			</g>
		</g>
	</g>
	<g>
		<g transform="translate(611.868098, 457.478844)">
			<g>
				<path d="M-480.7-258.9c0-0.7,0-1.4,0.1-1.9c0-0.6,0.1-1.2,0.1-1.9c0-0.8,0-1.5-0.1-2.2s-0.1-1.4-0.1-2.2c0-1,0-1.9,0.1-2.7
					c0.1-0.8,0.1-1.7,0.2-2.7l0.1-2.4c0-0.6,0-1.1,0-1.6s0-1-0.1-1.6c0-0.6-0.1-1.3,0-1.9c0-0.6,0-1.2,0-1.8c0-0.7-0.1-1.4,0-2.1
					c0-0.7,0-1.4,0-2.1c0-0.4,0-1-0.1-1.8c0-0.7-0.1-1.5-0.1-2.2s-0.1-1.3-0.1-1.8c0-0.3,0-0.7,0.1-1.1s0.3-0.6,0.8-0.6
					c0.4,0,0.9,0,1.3,0.1s0.8,0.1,1.2,0.1c0.5,0,0.9,0,1.3,0s0.8,0,1.3,0s1,0.1,1.4,0.2c0.4,0.2,0.6,0.6,0.6,1.3
					c0,0.4,0,0.7-0.1,1.1s-0.1,0.8-0.1,1.4s0.1,1.2,0.1,1.8s0,1.2,0.1,1.8c0,1,0.1,1.9,0.1,2.6c0.1,0.8,0.1,1.7,0,2.7
					c0,0.5-0.1,0.9-0.1,1.2c0,0.2,0,0.7,0,1.2l0.2,3.9c0,1.3-0.1,2.4-0.2,3.4s-0.2,2.2-0.2,3.5v2.1c0,0.7,0,1.3,0.1,1.9
					c0,0.5,0.1,1.1,0.1,1.6l0.1,2.1c0,0.6,0,1-0.2,1.5c-0.2,0.4-0.8,0.6-1.8,0.6c-0.5,0-1,0-1.4-0.1s-0.9-0.1-1.4-0.1
					c-0.3,0-0.6,0-0.8,0.1c-0.2,0-0.5,0.1-0.9,0.1c-0.6,0-1-0.1-1.1-0.4C-480.6-258.2-480.7-258.5-480.7-258.9z"/>
			</g>
		</g>
	</g>
	<g>
		<g transform="translate(622.040981, 457.478844)">
			<g>
				<path d="M-460.1-278.5c0,1.7,0,3.2,0,4.5c0,1.2,0,2.4,0,3.4c-0.1,1.1-0.1,2-0.2,2.8c0,0.8,0,1.5,0,2.1c0,0.4-0.1,0.9-0.2,1.5
					s-0.2,1.2-0.4,1.8c-0.5,1.3-1.1,2.3-1.6,3c-0.6,0.6-1.5,1.1-2.9,1.6c-0.7,0.2-1.4,0.3-2.2,0.4c-0.8,0.1-1.4,0.1-1.9,0.1h-4.4
					c-0.5,0-1-0.1-1.3,0c-0.3,0-0.8,0.1-1.3,0.1c-0.8,0-1.2-0.2-1.3-0.5c-0.1-0.3-0.1-0.7-0.1-1c0.1-1.1,0.1-2,0-2.5
					c-0.1-0.6-0.1-1.2,0-1.8c0.1-0.7,0.3-1.1,0.6-1.3c0.4-0.2,0.8-0.3,1.3-0.2c0.5,0,1.2,0.1,2,0c0.9,0,1.7,0,2.4,0.1
					c1.4,0.2,2.3-0.3,2.8-1.3s0.8-2.3,0.8-3.9c0-1.4,0-2.5,0.1-3.4s0.1-1.7,0.2-2.3c0-0.6,0-1.3,0-1.9c0-0.7-0.1-1.5-0.1-2.4
					c0-0.4,0-0.9,0-1.5c0.1-0.6,0.1-1.3,0-2.2c-0.1-1-0.5-1.7-1.1-2.1s-1.4-0.6-2.2-0.5c-0.3,0-0.8,0.1-1.7,0.1c-0.8,0-1.5,0-2-0.1
					c-0.3,0-0.6,0-0.8,0c-0.3,0-0.5,0.1-0.8,0.1c-1.2,0-1.7-0.5-1.5-1.4c0.1-0.6,0.1-1.4,0.1-2.1c0-0.8,0-1.3,0-1.6
					c0-0.6,0.1-1.1,0.2-1.6c0.2-0.5,0.6-0.7,1.4-0.7h3.5c0.4,0,0.8,0,1.1-0.1c0.3-0.1,0.7-0.1,1.1-0.1c1.2,0,2.3,0.1,3.4,0.2
					c1,0.1,1.9,0.4,2.6,0.7c1.5,0.8,2.6,1.8,3.1,3.2c0.6,1.4,1,3,1.4,4.8c0.2,0.9,0.2,1.9,0.2,3
					C-460.1-280.7-460.1-279.6-460.1-278.5z"/>
			</g>
		</g>
	</g>
	<g>
		<g transform="translate(639.025376, 457.478844)">
			<g>
				<path d="M-455.3-259.1c0,0.8-0.2,1.2-0.5,1.4c-0.3,0.2-0.7,0.2-1.1,0.2s-0.9,0-1.2-0.1s-0.8-0.1-1.2-0.1c-0.4,0-0.8,0.1-1,0.1
					c-0.3,0-0.7,0.1-1.2,0.1c-0.7,0-1.2-0.2-1.3-0.6c-0.2-0.4-0.3-0.8-0.3-1c0-0.7,0-1.4,0-2.3s0.1-1.6,0.1-2.3
					c0.1-0.6,0.1-1.2,0.1-1.7s0-1.1,0-1.8c0-0.4,0-0.9,0-1.6s0-1.3,0-1.9c0-0.1,0-0.2-0.1-0.5c0-0.3,0-0.5,0-0.6c0-0.2,0-0.9,0-2
					s0-2.2,0-3.2c0-1.4,0.1-2.4,0.1-3.1c0.1-0.7,0.1-1.4,0.1-1.9s-0.1-1.1-0.2-1.7c-0.5-2-1.8-2.9-3.9-2.8c-0.8,0-1.4,0-2,0
					s-1.2,0-1.8,0c-0.5,0-1,0-1.5-0.2c-0.4-0.2-0.7-0.7-0.8-1.5c0-0.7,0-1.4,0-2c0-0.7,0-1.3,0-1.7s0-0.8,0.1-1.2s0.6-0.6,1.4-0.6
					c0.5,0,1,0,1.5,0.1c0.5,0,0.9,0,1.4,0c1-0.1,1.8-0.1,2.4,0s1.2,0.1,1.8,0c0.3,0,0.8,0,1.5,0c0.7,0.1,1.4,0.2,2,0.4
					c0.6,0.1,1,0.3,1.3,0.5s0.6,0.3,0.8,0.4c0.7,0.4,1.2,0.9,1.6,1.4s0.7,1.1,1,1.8c0.3,0.6,0.5,1.3,0.5,2s0,1.2,0.1,1.5
					c0.2,0.7,0.2,1.4,0.2,2.3s0,1.8,0,2.9c0,1,0,2.2,0,3.5s0,2.9,0.1,4.6c0,0.9,0,2,0,3.4s-0.1,2.8-0.1,4.3c0,0.9,0,1.8,0.1,2.8
					C-455.4-260.8-455.3-259.9-455.3-259.1z"/>
			</g>
		</g>
	</g>
	<g>
		<g transform="translate(655.427196, 457.478844)">
			<g>
				<path d="M-444.8-288.5c0,0.6,0.1,1.2,0.1,1.7s0.1,1.1,0.1,1.7c0,0.5,0,0.9,0,1.3s0,0.8-0.1,1.3c0,0.5-0.1,1,0,1.6
					c0,0.6,0,1.1,0,1.5c0,0.9,0,1.9,0,2.9s0,2,0,2.9c0,0.5-0.1,0.9,0,1.1c0,0.2,0.1,0.4,0.1,0.6s0,0.6,0,1.1c0,1.5-0.1,2.9-0.3,4.2
					c-0.2,1.3-0.6,2.4-1.2,3.4c-0.4,0.7-0.9,1.3-1.6,1.9c-0.6,0.5-1.5,1.1-2.4,1.6c-0.8,0.4-1.6,0.7-2.4,0.8s-1.8,0.4-3,0.8
					c-0.5,0.2-0.9,0.2-1.1,0.2s-0.6,0-1.2,0.2c-0.5,0.1-1.2,0.2-1.9,0.3c-0.8,0.1-1.4,0.2-2,0.3c-0.5,0.1-1,0.2-1.5,0.4
					c-0.5,0.1-1.1,0.2-1.6,0.3c-0.5,0-0.8-0.1-1-0.4s-0.4-0.8-0.5-1.4s-0.2-1.2-0.2-1.6s-0.2-1.1-0.4-2.1c0-0.4-0.1-0.9,0-1.2
					c0-0.4,0.4-0.6,1.1-0.8c0.2,0,0.6-0.1,1-0.1c0.5,0,0.9-0.1,1.3-0.2s0.7-0.3,0.9-0.4c0.2-0.2,0.2-0.5,0.1-1.1
					c-0.2-1.1-0.4-2.3-0.6-3.6c-0.2-1.3-0.5-2.9-0.8-4.9c-0.2-1-0.3-2-0.3-3c-0.1-1-0.1-2-0.3-3c-0.1-1-0.2-1.9-0.4-2.7
					c-0.2-0.8-0.3-1.7-0.3-2.6c0-0.6-0.1-1.2-0.2-1.8s-0.2-1.2-0.3-1.7c-0.3-1.6-0.4-2.7-0.3-3.1c0.1-0.5,0.5-0.8,1.2-0.9
					s1.5-0.2,2.3-0.2s2,0,3.4,0c0.5,0,0.8,0.3,0.9,0.7s0.2,0.8,0.2,1.2c0.1,0.4,0.2,0.8,0.2,1.1c0,0.4,0.1,0.7,0.1,1.1
					c0,0.6,0.1,1.2,0.1,1.7s0.1,1.1,0.1,1.7c0,0.5,0,0.8,0,1s0,0.4,0,0.5c0,0.2,0.1,0.5,0.2,1c0.1,0.4,0.2,0.9,0.2,1.6
					c0.1,0.7,0.1,1.4,0.2,2.1s0.1,1.3,0.2,1.7c0,0.3,0,0.9,0.1,1.6c0.1,0.8,0.1,1.6,0.2,2.4c0.1,0.9,0.1,1.6,0.2,2.3
					c0.1,0.7,0.1,1.1,0.1,1.2c0,0.5,0.1,1,0.1,1.6c0.1,0.5,0.1,1,0.2,1.5c0.1,0.8,0.2,1.3,0.4,1.5c0.2,0.2,0.5,0.2,1,0
					s1-0.4,1.4-0.8c0.4-0.3,0.6-0.7,0.7-1.2c0.1-0.3,0.2-0.8,0.3-1.3c0.1-0.6,0.2-1.2,0.2-1.8s0-1.5-0.1-2.5c0-1-0.1-2.1-0.1-3.1
					s-0.1-1.8-0.1-2.5c0.1-1.5,0.1-2.6,0-3.4s-0.1-1.8-0.1-2.9s0-2.1-0.1-3c-0.1-1-0.2-2-0.2-3.1c0-0.8,0.1-1.3,0.3-1.6
					c0.2-0.3,0.7-0.5,1.4-0.5c0.4,0,0.9,0,1.5,0.1c0.7,0,1.3,0.1,1.8,0.1s0.8,0,0.9,0c0.1-0.1,0.3-0.1,0.8-0.1
					c0.8,0,1.2,0.5,1.2,1.4c0,0.6,0,1.2-0.1,1.8C-444.8-289.8-444.8-289.2-444.8-288.5z"/>
			</g>
		</g>
	</g>
	<g>
		<g transform="translate(675.862154, 457.478844)">
			<g>
				<path d="M-451.6-291.8c0,0.4,0,0.8,0,1.2s0,0.8-0.1,1.1c0,0.8-0.1,1.4-0.1,1.8s0,1,0,1.8c0,0.3,0,0.6,0,0.9s0,0.6,0,0.9
					c0,0.6,0,1.1-0.1,1.5c-0.1,0.5-0.1,1,0,1.5v2.8c0,1,0.1,2,0.1,2.9s0,1.9,0.1,3.2c0,0.6-0.2,1-0.5,1.2c-0.3,0.1-0.7,0.2-1.3,0.2
					c-0.5,0-0.9,0-1.3,0s-0.8,0-1.3,0c-0.4,0-0.7,0-1,0s-0.6,0-1,0c-0.2,0-0.4-0.1-0.8-0.2s-0.6-0.5-0.6-1.1c0-1.1,0-2.1,0.1-3.1
					s0.1-2,0.1-3c0-0.7,0-1.4,0-1.9c0-0.6,0-1.2,0-2c0-0.7,0-1.4,0.1-1.9c0-0.6,0-1.2,0-1.9l-0.1-4.1c0-0.9,0-1.7,0.1-2.4
					c0.1-0.7,0.6-1,1.6-1c0.2,0,0.4,0,0.5,0.1c0.1,0,0.3,0.1,0.4,0.1c0.3,0,0.7-0.1,1.2-0.1s1.1,0,1.6,0s0.9,0,1.1,0
					c0.5,0,0.8,0.1,1,0.4C-451.7-292.8-451.6-292.4-451.6-291.8z"/>
			</g>
		</g>
	</g>
	<g>
		<g transform="translate(685.945411, 457.478844)">
			<g>
				<path d="M-434.9-260.8c0,0.3,0,0.6,0,0.8c0,0.2,0,0.5,0,0.9c-0.1,0.8-0.3,1.2-0.7,1.3c-0.4,0.1-0.8,0.1-1.2,0.2
					c-0.3,0-0.7,0.1-1.2,0c-0.5,0-0.9-0.1-1.2-0.1c-0.3,0-0.5,0-0.7,0.1s-0.5,0.1-0.9,0.1c-1,0-1.5-0.2-1.6-0.6
					c-0.1-0.3-0.1-0.8-0.1-1.3c0-0.7,0-1.4,0-2.1c0-0.8,0-1.4,0-2s0-1.2,0.1-1.8c0-0.5,0.1-1.1,0.1-1.8c0-0.4,0-0.9-0.1-1.5
					c0-0.6,0-1.2,0-1.9c0-0.2,0-0.4-0.1-0.7c0-0.2,0-0.4,0-0.5s0-0.4,0-1s0.1-1.2,0.1-1.9c0-0.7,0-1.1,0-1.4c0-1,0-2.1-0.1-3.4
					c0-1.3-0.1-2.5-0.1-3.5c0-0.7-0.1-1.4-0.5-2.2c-0.3-0.8-1.1-1.2-2.2-1.2c-0.2,0-0.5,0-1.1,0s-1.2,0-1.7,0c-0.6,0-1.2,0-1.7,0
					s-0.9,0-1.1,0c-0.5,0-0.9,0-1.4,0.1s-0.9,0.1-1.4,0.1s-1-0.1-1.6-0.2c-0.5-0.1-0.7-0.6-0.6-1.4c0.1-0.4,0.1-1,0.1-1.9
					s0-1.6-0.1-2.1c0-0.4,0-0.8,0.1-1.2s0.6-0.6,1.4-0.6c0.5,0,1,0,1.5,0.1c0.5,0,0.9,0,1.5,0c0.8-0.1,1.7-0.1,2.7-0.1s1.9,0,2.8,0
					c0.8,0,1.4,0,1.7,0.1c0.4,0,1.1,0.1,1.8,0.1c0.8,0,1.5,0.2,2.2,0.4c0.4,0.1,0.8,0.3,1.2,0.5c0.4,0.2,0.6,0.4,0.8,0.5
					c0.6,0.4,1.1,0.9,1.5,1.5s0.8,1.3,1.1,2c0.3,0.6,0.4,1.2,0.5,1.8c0,0.5,0.1,1,0.1,1.3c0.1,0.7,0.1,1.4,0.1,2.3
					c0,0.8,0,1.8,0,2.9c0,1,0.1,2.1,0.2,3.4s0.1,2.8,0.1,4.5c0,0.2,0,0.5-0.1,0.8c0,0.3,0,0.8,0,1.5s0,1.5,0,2.4s0,1.7,0,2.3
					s0,1,0,1c0,0.7,0,1.3,0,1.9C-435-262.1-435-261.5-434.9-260.8z M-448.4-270.3c0,0.5,0,1-0.1,1.5s-0.1,1-0.1,1.6v2.3
					c0,1,0,2,0.1,2.8s0.1,1.8,0,2.8c0,0.7-0.1,1.2-0.4,1.4c-0.2,0.2-0.7,0.4-1.3,0.4c-0.8,0.1-1.5,0.1-2.2,0s-1.5-0.1-2.3,0
					c-0.3,0-0.6-0.1-1-0.3c-0.4-0.2-0.6-0.6-0.6-1.4v-0.1c0-1,0-2,0.1-2.8s0.1-1.8,0.1-2.8c0-0.8,0-1.3,0-1.8c0-0.4,0-1-0.1-1.8
					c0-0.7,0-1.3,0-1.9s0-1.2,0-1.9v-3.2c0-0.3,0-0.7,0-1.2c0-0.6,0-1.1,0.1-1.7s0.2-1,0.3-1.2c0.3-0.3,0.6-0.5,0.9-0.4
					c0.3,0,0.5,0,0.6,0c0.9,0.1,1.7,0.1,2.4,0.1c0.7,0,1.4,0,2.2,0c0.7,0,1.1,0.2,1.2,0.5s0.2,0.6,0.2,1c0.1,1.5,0.1,3-0.1,4.5
					C-448.3-272.6-448.4-271.4-448.4-270.3z"/>
			</g>
		</g>
	</g>
</g>
</svg>
