<?xml version="1.0" encoding="utf-8"?>
<!-- Generator: Adobe Illustrator 28.3.0, SVG Export Plug-In . SVG Version: 6.00 Build 0)  -->
<svg version="1.1" id="Layer_1" xmlns="http://www.w3.org/2000/svg" xmlns:xlink="http://www.w3.org/1999/xlink" x="0px" y="0px"
	 viewBox="0 0 746 740" style="enable-background:new 0 0 746 740;" xml:space="preserve">
<style type="text/css">
	.st0{fill:#3B88C8;}
	.st1{fill:none;stroke:#3B3A3C;stroke-miterlimit:10;}
	.st2{fill:none;}
	.st3{fill:#231F20;}
	.st4{font-family:'AdobeArabic-Bold';}
	.st5{font-size:58.9694px;}
	.st6{enable-background:new    ;}
</style>
<g>
	<g>
		<g>
			<polygon class="st0" points="368.93,653.5 82,372.29 373,86.5 664,372.29 			"/>
			<polygon class="st1" points="369.52,612.12 124.48,371.96 373,127.88 621.52,371.96 			"/>
		</g>
		<path d="M372.99,170.72c-11.82,22.33,1.97,34.81-13.14,66.99c-8.54-6.57-3.94-30.87-19.7-31.53c1.97,7.88,0.66,10.51,0,13.14
			c-1.97,11.17-5.25,20.36,1.97,34.15c-11.17-5.25-11.82-15.11-21.02-21.67c1.97,10.51-2.63,32.18,9.85,53.2
			c-11.17-1.31-15.11-5.25-26.93-17.08c12.48,65.68,22.33,67.65,68.96,71.59c-3.94-0.66-27.58-4.6-36.12-31.53
			c0-6.57-0.66,5.91,22.33,6.57c-14.45-22.99-10.51-18.39-9.2-31.53c6.57,8.54,1.31,9.85,17.73,16.42
			c-5.25-17.08,8.54-28.24,5.25-47.95c3.94,8.54,17.08,7.22,16.42,47.95c11.17-12.48,11.82-3.94,17.08-17.08
			c0.66,7.22,3.94,16.42-11.17,32.18c3.94,1.31,10.51,1.97,20.36-5.25c-9.85,11.82-0.66,11.82-26.27,30.21
			c32.18,0.66,53.2-19.7,52.54-63.71c-1.31,3.94-1.97,11.82-19.05,13.79c10.51-10.51,16.42-32.18,7.88-49.26
			c-3.28,2.63-7.88,15.76-19.05,19.05c5.25-9.2,3.94-21.02,3.94-21.02s1.97-16.42-7.88-29.56c-2.63,19.7-2.63,30.21-15.11,32.84
			c1.97-11.17,2.63-17.08-3.94-30.21C382.19,197.65,374.31,183.85,372.99,170.72z M319.79,350.68v11.82H432.1v-11.82H319.79z"/>
	</g>
	<rect x="347.83" y="537.74" class="st2" width="29.15" height="58.66"/>
	<text transform="matrix(0.9131 0 0 1 357.9985 580.9277)" class="st3 st4 st5">4</text>
	<polygon class="st2" points="162.04,384.92 587.23,388.86 578.84,452.69 153.66,448.76 	"/>
	<g class="st6">
		<path class="st3" d="M240.56,402.85l-0.16,9.52c0,0.24-0.48,2.44-0.73,3.54l-17.78-0.31l0.24-14.15c0.03-1.82,0.17-3.04,0.34-3.79
			c-1.07-0.02-2.41-0.12-2.84-0.29l0.73-3.5c1.02,0.22,3.28,0.25,5.45,0.29l7.98,0.14C239.6,394.42,240.68,396.1,240.56,402.85z
			 M233.57,397.91l-8.42-0.14l-0.25,14.3l12.49,0.22l0.15-8.54C237.61,399.84,237.21,397.97,233.57,397.91z"/>
		<path class="st3" d="M245.24,406.61c1.66-2.5,2.57-4.42,2.59-6c0.02-1.3-0.72-1.75-2.53-2.3c-0.94-0.29-1.73-0.54-2.4-0.83
			l0.73-3.47c0.55,0.21,1.34,0.46,2.32,0.71c3.74,0.89,5.02,2.1,4.97,5.03c-0.04,2.49-1.28,5.24-3.26,8.09L245.24,406.61z"/>
		<path class="st3" d="M257.02,404.09c0.62-3.94-0.93-5.51-3.41-6.15l0.77-3.66c3.15,0.57,5.01,2.62,5.32,5.66
			c0.95-2.39,3.38-5.47,7.76-5.4c6.17,0.11,7.57,5.78,7.44,13.41l-0.09,5.06c-0.01,0.36-0.49,2.96-0.61,3.51l-7.78-0.13
			c-1.58-0.03-3.64-0.02-4.47,0.04l0.73-3.51c0.83-0.14,2.69-0.11,4.86-0.07l4.15,0.07c0.07-1.66,0.1-3.28,0.12-4.86
			c0.09-4.98-0.46-9.85-5.08-9.93c-4.39-0.08-6,4.24-6.64,6.92c-0.68,2.64-1.59,7.4-2.37,11.19l-3.08-0.05
			C255.5,412.12,256.53,407,257.02,404.09z"/>
		<path class="st3" d="M308.16,404.02l-0.16,9.52c0,0.24-0.48,2.44-0.73,3.54l-17.78-0.31l0.24-14.15c0.03-1.82,0.17-3.04,0.34-3.79
			c-1.07-0.02-2.41-0.12-2.84-0.29l0.73-3.51c1.02,0.22,3.28,0.25,5.45,0.29l7.98,0.14C307.2,395.59,308.28,397.27,308.16,404.02z
			 M301.17,399.08l-8.42-0.15l-0.25,14.3l12.49,0.22l0.15-8.54C305.21,401.01,304.81,399.14,301.17,399.08z"/>
		<path class="st3" d="M320.25,413.72c-1.23-4.33-5.18-13.61-7.95-17.84l4.19-0.28c2.11,3.87,5.33,11.91,6.62,17.27
			c2.94-1.17,4.53-3.72,4.61-8.58c0.04-2.25-0.5-5.58-1.52-8.17l3.92-0.33c0.45,1.35,0.95,4.25,0.9,7.52
			c-0.14,5.77-1.64,10.33-8.17,13.1c-3.03,1.29-7.75,2.2-11.39,2.57l0.74-3.86C314.85,414.89,318.18,414.39,320.25,413.72z"/>
		<path class="st3" d="M350.55,414.24c-1.23-4.33-5.18-13.61-7.95-17.84l4.19-0.28c2.11,3.87,5.33,11.91,6.62,17.27
			c2.94-1.17,4.53-3.71,4.61-8.58c0.04-2.25-0.5-5.58-1.52-8.17l3.92-0.33c0.45,1.35,0.95,4.25,0.9,7.53
			c-0.14,5.77-1.64,10.33-8.17,13.1c-3.03,1.29-7.75,2.2-11.39,2.57l0.74-3.86C345.16,415.42,348.49,414.92,350.55,414.24z"/>
		<path class="st3" d="M364.42,414.44c3.32-0.06,7.47-2.2,7.52-7.38l0.03-1.54c0.02-3.24-0.72-4.2-3.67-5
			c-0.83-0.25-2.64-0.64-3.23-0.92l0.77-3.46c0.59,0.25,1.89,0.55,3.15,0.84c5.24,1.24,5.99,3.23,6.06,8.37l0.06,5.77
			c0.03,2.93,0.22,5.62,0.59,7.17l-3.08-0.05c-0.34-0.88-0.61-3.61-0.53-5.82c-1.29,3.69-4.49,6.05-8.36,5.98L364.42,414.44z"/>
		<path class="st3" d="M382.23,406.25c0.62-3.94-0.93-5.51-3.41-6.15l0.78-3.66c3.15,0.57,5.01,2.62,5.32,5.67
			c0.95-2.39,3.38-5.48,7.76-5.4c6.16,0.11,7.57,5.78,7.44,13.41l-0.09,5.06c-0.01,0.36-0.49,2.96-0.61,3.51l-7.78-0.13
			c-1.58-0.03-3.64-0.02-4.47,0.04l0.73-3.51c0.83-0.14,2.69-0.11,4.86-0.07l4.15,0.07c0.07-1.66,0.1-3.28,0.12-4.86
			c0.09-4.98-0.46-9.85-5.08-9.93c-4.39-0.08-6,4.24-6.64,6.92c-0.68,2.64-1.59,7.4-2.37,11.18l-3.08-0.05
			C380.71,414.29,381.75,409.17,382.23,406.25z"/>
		<path class="st3" d="M404.13,415.37c1.19-0.18,4.03-0.13,6.25-0.09l6.01,0.1c0.05-2.69,0.15-6.44,0.11-8.46
			c-0.01-4.23-0.45-5.86-4.21-5.92l-3.44-0.06c-2.29-0.04-3.79-0.14-4.38-0.31l0.77-3.5c0.79,0.17,2.53,0.2,5.06,0.25l3.12,0.05
			c5.65,0.1,6.24,2.72,6.14,8.13l-0.11,6.52c-0.01,0.83-0.13,2.69-0.22,3.36l2.88,0.05l-0.73,3.58l-12.88-0.22
			c-1.7-0.03-4.19-0.07-5.1,0.03L404.13,415.37z"/>
		<path class="st3" d="M437.63,407.01c0.06-3.44-0.32-4.63-3.38-5.43c-1.42-0.38-2.12-0.59-2.67-0.88l0.73-3.43
			c0.51,0.21,1.3,0.46,2.99,0.84c4.25,1.06,5.53,2.43,5.43,8.24l-0.36,20.63l-3.08-0.05L437.63,407.01z"/>
		<path class="st3" d="M444.63,416.03c0.79-0.11,3.04-0.07,5.38-0.03l7.55,0.13c0.43-1.97,0.84-5,0.88-7.34
			c0.09-5.29-1.07-7.01-5.37-7.09l-3.64-0.06c-2.33-0.04-3.95-0.15-4.54-0.32l0.77-3.5c0.79,0.17,2.72,0.21,4.94,0.24l3.28,0.06
			c6.52,0.11,7.73,3.02,7.61,10.41c-0.07,4.23-0.82,8.37-1.5,11.2l-10.87-0.19c-1.7-0.03-4.27-0.11-5.22,0.03L444.63,416.03z"/>
		<path class="st3" d="M470.7,407.55c0.06-3.4-0.32-4.63-3.38-5.43c-1.38-0.38-2.12-0.55-2.67-0.8l0.73-3.47
			c0.51,0.21,1.3,0.42,2.71,0.68c4.41,1.03,5.81,2.51,5.7,8.52l-0.22,12.92l-3.08-0.05L470.7,407.55z"/>
		<path class="st3" d="M478.62,402.11c-0.91-0.06-1.5-0.14-2.01-0.27l0.77-3.51c0.63,0.17,3.16,0.25,5.61,0.29l8.97,0.16
			c4.82,0.08,5.65,2.63,5.58,6.7c-0.16,9.29-5.65,13.5-10.92,14.36c-2.06,0.36-4,0.48-5.11,0.54
			C480.61,415.03,479.12,405.08,478.62,402.11z M487.23,416.29c4.92-0.9,7.08-4.94,7.17-9.99c0.04-2.61-0.68-3.88-3.41-3.93
			l-9.21-0.16c0.42,2.89,1.63,10.74,2.2,14.5C484.7,416.64,485.92,416.55,487.23,416.29z"/>
		<path class="st3" d="M503.85,408.36c0.62-3.94-0.93-5.51-3.41-6.15l0.78-3.66c3.15,0.57,5.01,2.62,5.32,5.67
			c0.95-2.39,3.38-5.48,7.76-5.4c6.16,0.11,7.57,5.78,7.44,13.41l-0.09,5.06c-0.01,0.36-0.49,2.96-0.61,3.51l-7.78-0.13
			c-1.58-0.03-3.64-0.02-4.47,0.04l0.73-3.5c0.83-0.14,2.69-0.11,4.86-0.07l4.15,0.07c0.07-1.66,0.1-3.28,0.12-4.86
			c0.09-4.98-0.46-9.85-5.09-9.93c-4.39-0.08-6,4.24-6.64,6.92c-0.68,2.64-1.59,7.4-2.37,11.18l-3.08-0.05
			C502.33,416.39,503.36,411.27,503.85,408.36z"/>
	</g>
	<g class="st6">
		<path class="st3" d="M241.57,445.62c1.42-0.21,3.08-0.37,4.9-0.37c3.29,0,5.64,0.76,7.19,2.21c1.58,1.45,2.5,3.53,2.5,6.37
			c0,2.9-0.9,5.24-2.55,6.9c-1.69,1.66-4.4,2.55-7.85,2.55c-1.63,0-3-0.08-4.19-0.21V445.62z M243.88,461.32
			c0.58,0.11,1.42,0.13,2.32,0.13c4.9,0,7.56-2.74,7.56-7.53c0.03-4.19-2.34-6.85-7.19-6.85c-1.19,0-2.08,0.13-2.69,0.24V461.32z"/>
		<path class="st3" d="M261.64,457.55l-1.82,5.58h-2.4l6.06-17.75h2.74l6.06,17.75h-2.45l-1.9-5.58H261.64z M267.46,455.76
			l-1.74-5.11c-0.4-1.16-0.66-2.21-0.92-3.24h-0.08c-0.24,1.05-0.53,2.13-0.87,3.21l-1.74,5.14H267.46z"/>
		<path class="st3" d="M274.87,463.13v-17.75h2.55l5.66,8.95c1.29,2.11,2.34,3.98,3.19,5.79l0.05-0.03
			c-0.21-2.37-0.26-4.53-0.26-7.27v-7.45h2.16v17.75h-2.32l-5.64-9.01c-1.24-1.98-2.42-4-3.32-5.93l-0.08,0.03
			c0.13,2.24,0.18,4.37,0.18,7.32v7.58H274.87z"/>
		<path class="st3" d="M305.74,462.34c-1.03,0.37-3.06,0.97-5.45,0.97c-2.69,0-4.9-0.68-6.64-2.34c-1.53-1.48-2.48-3.85-2.48-6.61
			c0.03-5.27,3.66-9.17,9.61-9.17c2.05,0,3.69,0.47,4.42,0.82l-0.55,1.87c-0.95-0.42-2.13-0.76-3.92-0.76
			c-4.32,0-7.14,2.69-7.14,7.14c0,4.5,2.69,7.16,6.85,7.16c1.5,0,2.53-0.21,3.05-0.47v-5.29h-3.61v-1.84h5.85V462.34z"/>
		<path class="st3" d="M318.41,454.81h-6.87v6.43h7.69v1.9h-10.01v-17.75h9.61v1.9h-7.3v5.64h6.87V454.81z"/>
		<path class="st3" d="M322.15,445.62c1.19-0.24,2.84-0.37,4.42-0.37c2.45,0,4.03,0.45,5.14,1.45c0.87,0.79,1.4,2,1.4,3.37
			c0,2.34-1.47,3.9-3.34,4.53v0.05c1.37,0.5,2.19,1.79,2.61,3.61c0.58,2.5,1,4.19,1.37,4.87h-2.37c-0.29-0.5-0.68-2.03-1.19-4.24
			c-0.53-2.42-1.47-3.37-3.56-3.45h-2.16v7.69h-2.32V445.62z M324.47,453.71h2.34c2.45,0,4-1.34,4-3.37c0-2.32-1.66-3.29-4.08-3.32
			c-1.13,0-1.9,0.11-2.26,0.21V453.71z"/>
		<path class="st3" d="M351.6,454.23c0,5.9-3.77,9.19-8.24,9.19c-4.79,0-7.98-3.77-7.98-9.06c0-5.45,3.4-9.27,8.3-9.27
			C348.73,445.09,351.6,449.1,351.6,454.23z M337.83,454.29c0,4.03,2.05,7.27,5.66,7.27c3.74,0,5.69-3.4,5.69-7.27
			c0-3.63-1.76-7.32-5.66-7.32C339.83,446.96,337.83,450.28,337.83,454.29z"/>
		<path class="st3" d="M356.87,445.38v10.56c0,3.92,1.74,5.61,4.13,5.61c2.61,0,4.32-1.74,4.32-5.61v-10.56h2.29v10.38
			c0,5.45-2.84,7.66-6.69,7.66c-3.63,0-6.37-2.05-6.37-7.56v-10.48H356.87z"/>
		<path class="st3" d="M371.31,460.34c1.03,0.63,2.53,1.16,4.11,1.16c2.34,0,3.71-1.24,3.71-3.03c0-1.66-0.95-2.61-3.37-3.53
			c-2.87-1-4.66-2.55-4.66-5.03c0-2.74,2.29-4.79,5.74-4.79c1.79,0,3.13,0.42,3.92,0.84l-0.63,1.87c-0.58-0.32-1.76-0.84-3.37-0.84
			c-2.42,0-3.35,1.45-3.35,2.66c0,1.66,1.08,2.48,3.53,3.42c3,1.19,4.53,2.61,4.53,5.21c0,2.74-2.03,5.14-6.21,5.14
			c-1.74,0-3.61-0.53-4.56-1.16L371.31,460.34z"/>
		<path class="st3" d="M392.15,463.13l-4.5-17.75h2.45l2.11,8.98c0.53,2.21,1,4.42,1.32,6.14h0.05c0.26-1.76,0.84-3.9,1.45-6.16
			l2.37-8.95h2.4l2.16,9.01c0.5,2.11,0.97,4.21,1.24,6.08h0.05c0.37-1.95,0.87-3.95,1.4-6.14l2.34-8.95h2.37l-5.03,17.75h-2.42
			l-2.21-9.24c-0.55-2.26-0.92-4-1.16-5.79h-0.05c-0.32,1.76-0.74,3.5-1.37,5.79l-2.5,9.24H392.15z"/>
		<path class="st3" d="M413.85,445.38v17.75h-2.32v-17.75H413.85z"/>
		<path class="st3" d="M421.23,447.33h-5.4v-1.95h13.14v1.95h-5.42v15.8h-2.32V447.33z"/>
		<path class="st3" d="M433.24,445.38v7.45h8.58v-7.45h2.29v17.75h-2.29v-8.32h-8.58v8.32h-2.32v-17.75H433.24z"/>
		<path class="st3" d="M455.66,463.13l-4.5-17.75h2.45l2.11,8.98c0.53,2.21,1,4.42,1.32,6.14h0.05c0.26-1.76,0.84-3.9,1.45-6.16
			l2.37-8.95h2.4l2.16,9.01c0.5,2.11,0.97,4.21,1.24,6.08h0.05c0.37-1.95,0.87-3.95,1.4-6.14l2.34-8.95h2.37l-5.03,17.75h-2.42
			l-2.21-9.24c-0.55-2.26-0.92-4-1.16-5.79h-0.05c-0.32,1.76-0.74,3.5-1.37,5.79l-2.5,9.24H455.66z"/>
		<path class="st3" d="M484.24,454.81h-6.87v6.43h7.69v1.9h-10.01v-17.75h9.61v1.9h-7.29v5.64h6.87V454.81z"/>
		<path class="st3" d="M491.81,447.33h-5.4v-1.95h13.14v1.95h-5.42v15.8h-2.32V447.33z"/>
	</g>
</g>
</svg>
