<?xml version="1.0" encoding="utf-8"?>
<!-- Generator: Adobe Illustrator 28.3.0, SVG Export Plug-In . SVG Version: 6.00 Build 0)  -->
<svg version="1.1" id="Layer_1" xmlns="http://www.w3.org/2000/svg" xmlns:xlink="http://www.w3.org/1999/xlink" x="0px" y="0px"
	 viewBox="0 0 746 740" style="enable-background:new 0 0 746 740;" xml:space="preserve">
<style type="text/css">
	.st0{fill:#F18421;}
	.st1{fill:none;stroke:#3B3A3C;stroke-miterlimit:10;}
	.st2{fill-rule:evenodd;clip-rule:evenodd;}
	.st3{enable-background:new    ;}
	.st4{fill:#231F20;}
	.st5{fill:none;}
	.st6{font-family:'AdobeArabic-Bold';}
	.st7{font-size:64.4684px;}
</style>
<g>
	<g>
		<g>
			<polygon class="st0" points="368.55,679.94 54.87,372.5 373,60.06 691.13,372.5 			"/>
			<polygon class="st1" points="369.2,634.69 101.31,372.14 373,105.31 644.69,372.14 			"/>
		</g>
		<path id="path4637" class="st2" d="M300.89,290.57c2.03-3.3,4.91-6.32,8.62-8.2l-13.08-20.15c-1.1-1.7,2.5-3.21,3.65-1.51
			l6.79,9.98l-0.57-9.14c-0.11-1.8,2.94-2.63,4.21-0.84c-0.91-9.9,0.97-13.02,3.6,0.84l1.01,9.61c2.42,1.27,3.15,3.48,2.2,6.64
			l1.4,1.02c2.26-0.69,5.02-1.14,7.84-1.35l-3.59-32.31c-0.19-1.72,2.71-2.77,3.59-0.85c2.77,5.98,4.88,11.92,5.62,17.94
			c0.21,1.68-1.77,2.32-0.38,6.27c0.47,1.34,2.3,0.98,2.77,3.38c-0.26,1.18,0.28,2.36,0.42,3.55l-0.62,2.62
			c-0.12,0.52,1.84,0.96,1.82,0.43l-0.31-9.89c-0.05-1.64,1.84-2.2,2.91,1.08l0.21-4.38c-0.87-2.1-1.37-4.7-0.91-8.63
			c-1.26-0.47-1.42-2.78-1.09-5.92l0.89-0.52c-1.24-0.59-1.33-8.64-0.2-16.66c-0.69,1.75-1.82,7.34-2.36,4.33
			c-0.89-4.9,1.12-14.05-2.13-14.39l14.13-12.54c0.06,1.76,0.02,3.93-1.5,6.02c1.76,1.22,2.78,3.32,0.71,8.22l-5.14,7.97
			c-0.47,5.1-0.55,3.71,1.62,8.2c1.47-1.49,2.95-2.99,4.82-3.14c1.51-0.12,2.4,1.25,2.81,2.71v4.4c0,0.82,2.66,0.13,2.81-0.68
			c0.52-2.71,1.5-5.29,2.81-7.78c-0.09-3.55,0.34-6.38,1.3-8.38l0.2-12.18c0.03-1.8,3.14-1.79,2.92,0.25
			c-0.99,8.93,0.63,11.91,0.1,19.37c-0.1,1.46,3.15,1.39,3.71,0c2.21-5.43,3.79-6.6,5.48-10.06c1.32-2.69,2-5.82,3.65-8.47
			c1.19-1.92,3.24-2.28,2.32,0.85c-0.54,1.8-1.18,3.33-0.91,5.08c0.46,3.06,3.64,1.44,4.13,2.36c1.05,2-3.96,12.05-3.12,13.03
			c1.02,1.59,1.92-6.8,8.34-22.51c0.95-2.33-1.61-3.79-2.01-1.35c-0.47,2.82,0.56,5.57-1.41,8.46c-1.02,1.49-3.38,1.43-2.21-1.1
			c1.78-3.86-0.5-3.38,0.2-6.86c0.56-2.75,1.93-8.73,1.72-9.12c-1.87-3.41,3.59-10.06,6.12-6.94c1.61,1.8,5.29-1.65,4.72,5.42
			c3.46,2.54,0.28,5.34-1.01,9.22l-2.3,4.82l-17.86,42.14l0.52,0.17l9.81-17.93c1.4-2.55,4.74-2.37,3.32,0.16l-18.47,32.83
			l0.65,0.02l59.98-69.49c1.71-1.98,4.5,0.23,2.42,2.46l-12.66,13.54c1.5,4.45-4.82,5.97-2.8,8.25c2.71-0.1,3.21,0.99,1.5,2.77
			l-56.16,58.5c-1.41,1.46,0.1,2.58,1.68,1.24l62.8-52.91c2.1-1.77,4.83,0.09,2.62,1.91l-14.73,12.18
			c-0.12,1.49-2.33,3.38-4.84,5.32c0.85,2,0.06,4.3-1.47,6.74l11.05-7.45l2.96-1.15l13.57-8.52l3.97-3.27
			c5.17-2.67,10.08-5.57,14.72-8.69c2.23-0.48,3.96-1.71,6.48-2.77l4.88-1.48c1.2,0.78,1.48,1.79,0.84,3.01
			c-2.48,0.01-4.31,1.13-5.47,3.37l-56.37,34.92c-2.82,1.75,3.05,0.05,5.07-0.01l4.55-0.17l41.9-17.02l2.94-1.24l30.42-12.49
			l2.56,2.59l-37.61,15.4c1.24,0.63,25.43-8.49,38.49-11.88c2.86-0.74,5.56,1.4,2.77,2.31l-80.17,26.22
			c-3.51,6.05-8.21,9.66-14.09,10.81c-2.02,0.34-3.77,0.46-5.26,0.35c-3.14,1.82-6.78,0.67-9.04-3.55l-22.71,13.83l1.89-0.01
			L443,277.3c4.55-3.17,6.23-6.24,6.53-8.42c0.26-1.9,3.1-2.99,5.88-2.92c4.6,0.12,8.93,0.94,13.04,1.77
			c1.9,0.39,4.72-0.32,4.97-1.77c0.51-2.95,3.19-4.59,8.49-3.9c2.09,0.27,3.14,0.1,4-1.24c2.03-3.2,4.79-3.12,7.78,0
			c1.62-0.21,3.06,0.34,4.42,1.24c2.81,1.11,2.53,2.52,0.84,4.08c-2.68,0.63-4.6,1.84-6.31,2.48c-2.14,0.8-4.72,0.26-6.94,0.89
			c-2.05,0.58-3.73,1.87-5.68,2.66c-1.56,0.63-2.96,0.84-4.84,1.6c-0.89,0.36-2.01,1.74,1.47,1.6l4.21-0.18l6.52-1.77
			c1.46-0.4,3.6,0.15,3.91,1.6l8.29-1.6c2.73-0.53,2.57,2.51,0.21,3.01l-9.89,2.13l0.43,0.81l-1.68,1.32l-0.85-1.43l-11.37,2.49
			c-1.35,0.3-1.18,2.04,0.21,1.88l14.97-1.72c1.95-0.22,2.53,2.46,0.61,2.85l-38.49,7.8c0.05,4.86-1.93,6.73-5.05,6.91
			c1.2,3.89-4.22,6.78-7.57,5.32c-2.56-1.12-5.32-4.32-9.17-5.35c-3.17-0.85-4.27,1.48-7.2-0.04c-1.34-0.69-1.28-3.36-3.4-6.13
			l-60.15,13.45l138.38-0.33c1.52,0,3.24,1.56,3.23,2.72c1.29,0.76,2.23,1.96,2.99,2.93c5.1,0.05,7.03,0.88,9.65,0.91
			c2.18,0.02,1.84,2.7-0.33,2.83c-3.62,0.2-4.64,1.85-11.53-0.7c-2.86-0.29-5.27,1.33-7.99,0.89c-2.93-0.48-5.77-3.81-6.73-3.72
			c-3.15,0.3-6.29,0.92-9.46,0.89c-2.08-0.02-4.02-1-6.1-1.06c-1.7-0.05-3.37,0.47-5.05,0.71c-1.68,0.06-3.37,0.27-5.05,0.18
			c-1.43-0.08-2.78-0.76-4.21-0.71c-1.8,0.07-3.67,1.02-5.46,0.81c-2.3-0.26-3.46,0.68-5.27,0.44c-2.28-0.3-3.93-0.85-6.22-1.03
			c-4.4-0.35-9.6-0.04-13.55-0.4c-0.47-0.71-0.68-1.42-0.63-2.13h-4.42c5.1,0.64,4.84,2.63,0.32,2.5l-6.84-0.2
			c-1.55,0.49-3.23,0.74-5.05,0.79c-1.96,0.06-3.78-0.19-5.47-0.79c-3.36,0.17-6.58,0.23-9.67,0.18c-2.1,0.24-4.21,0.47-6.31,0.71
			c-2.47-0.16-5.23-1.08-7.99-1.24c-1.92-0.63-4.75-0.49-7.99,0c-2.25-0.63-4.64-0.92-7.15-0.89c-2.26,0.47-1.48,0.82-0.63,1.06
			l124.3,8.69c2.41,0.17,1.57,2.65-0.84,2.48l-32.44-2.3l10.99,1.6c0.88,0.13,1.21,1.32,2.1,1.42l18.82,2.12
			c2.15,0.24,1.42,3.24-0.73,3.01l-125.82-13.56l33.07,7.89c4.65-1.16,8.97-1.77,12.83-1.6c3.36-0.8,5.53-0.27,6.52,1.6
			c4.69-0.53,7.47,0.96,9.8,4.08c1.47,1.97,10.22,0.87,12.07,1.43l8.2,2.47c2.46-0.53,4.74-0.61,6.94-0.47l3.15,1.89
			c2.72,1.43,6.03,1.94,7.36,3.55c0.71,0.85,1.24,2.01,2.52,3.01l7.36,1.42c2.28,0.44,1.82,3.09-0.84,2.65l-3.15-0.52
			c-0.92,0.56-2.03,0.73-3.25,0.52l-7.05-1.23c-2.05,0.69-4.98,1.71-7.35,1.07l-93.18-25.18l-0.3,0.92l118.71,42.87
			c2.29,0.83,0.91,3.7-1.68,2.66l-12.83-5.14c-0.94,0.97-3.72,1.58-4.59,0.82c-3.27-2.84-4.54-1.41-9.92-5.08l-5.26-0.73l-4.84-1.93
			c-1.42-0.57-1.93,1.41-1.26,1.77c1.9,1.02,1.06,3.48-0.84,1.95l-4.63-3.72c-1.61-0.31-3.22-1.59-4.84-3.01
			c-4.38-1.69-8.56-3.54-12.41-5.67c-1.4-1.01-2.8-1.13-4.21-0.35c-3.26-0.11-6-0.99-8.2-2.66c-3.44,0.53-6.09-0.52-8.2-2.66
			c-2.36,0.12-5.86-1.41-9.01-3.08l-0.31,1.3c5.1,3.46,10.98,6.15,16.68,9.22c0.77,0.42,0.66,1.59,1.47,1.95l8.83,3.9
			c2.1,0.93,1.79,3.05-1.14,3.47c-3.07,0.44,3.46,3.73,5.52,4.95c1.57,0.94-0.45,3.4-1.99,2.39l-11.2-7.36l-3.6-1.15l-46.15-28.97
			c-2.48,2.02-5.12,3.84-8.13,5.19l-10.08,38.49c-0.6,2.29-4.6,2.11-4-0.18l9.67-36.52c-5.89,1.54-11.46,1.88-16.83,1.42
			l-44.8,38.64c-2.8,2.41-6.16-0.58-4-3.19c2.83-3.42,8.42-8.04,9.58-9.92c2.23-3.62,3.53-5.44,5.99-7l8.33-7.8
			c1.45-1.36-0.58-2.37-2.52-1.55c-1.86,0.78-3.72,1.47-5.39,2.5c-2.68,1.66-4.28,4.39-7.56,5.51c-2.45,0.83-6.93-2.34-7.57-3.01
			c-5.6,1.55-10.26,5.17-11.15,5.14c-1.33-0.04-5.01,0.12-6.94,0c-1.53-0.1-2.07-1.77-0.63-2.84l26.27-19.48l-48.46,12.01
			c-3.42,0.85-4.16-2.55-1.27-3.54l40.51-13.82c-0.27-3.83-1.1-2.87,3.15-5.14c-1.4,0.01-2.8,0.25-4.21,0.71
			c-1.4-0.06-2.95,0.34-4.21-0.19c-0.73-0.31,0.43-2.02-0.84-1.94l-6.97,0.43c-1.39,0.09-3.28,1.98-2.83,2.49
			c1.19,1.35,1.05,3.83-1.66,5.16c-2.67,1.31-4.93,2.68-8.1,4.33c-1.91,0.99-4.37-0.59-3.58-2.13c1-1.93,0.01-3.09-1.89-3.9
			c-2.59,0.04-5.19-0.44-7.78-1.06c-1.31,0.14-2.22-0.4-2.73-1.6c-2.58-1-2.9-2.73-0.21-3.01l57.42-6.02l-46.27-3.02
			c-2.08-0.14-1.67-3.15,0.21-3.01l52.77,3.87l0.05-1.66c-2.67-0.15-6.07-0.03-8.02-0.44l-23.98-5.07
			c-2.02-0.43-4.24-0.09-6.21-0.66l-13.6-3.93l2.77-3.46l16.79,3.82c1.58,0.62,3.16,0.62,4.74,0.34c-1.32-1.04-3.88-1.15-5.75-1.86
			c-1.6-0.6-1.41-2.04-3.15-2.3l-3.71-0.57c-1.46-0.23-0.67-2.03,0.8-1.94l5.86,0.37c0.75,0.05,0.97-2.61,1.91-3.42
			c1.83-0.29,3.13-1.03,3.9-2.21c2.14,0.38,4.55,1.2,7.23,2.46l0.21-1.6l-6.31-4.79c-1.75-1.33,0.93-2.86,3.13-1.42
			c-0.02-0.95-0.62-2.02-0.07-2.84c0.63-0.94,1.26-1.22,1.51-2.41c0.44-2.12,3.76,1.25,6.69,0.09c1.31-0.52,3.66,3.36,3.76,1.22
			c0.1-2.13-5.8-5.36-4.08-7.41c0.68-0.81,3.81,1.46,4.55,2.22L300.89,290.57L300.89,290.57z M390.32,175.75l6.5-5.24l11.21,9.28
			c-1.77,1.15-4.04,1.75-6.87,1.91c-2.71,1.4-1.93,5.15-4.75,4.79C386.03,182.26,392.2,177.34,390.32,175.75L390.32,175.75z
			 M350.06,309.14c1.8-0.95,3.96-1.44,6.29-1.72l-0.45,2.48L350.06,309.14z M302.49,309c-1.63-1.26-1.38-4.64-0.42-4.79
			c2.54-0.39,6.84-1.62,9.49-2.04c5.78-0.93,15.75,7.57,16.31,7.7c3.14,0.72,3.63,3.58,6.53,6.88c0.79,0.89,5.29-2.22,5.41-3.21
			c0.63-5.56,1.54-4.77,0.56-7.01c-0.89-2.03,0.7-2.88,0.2-4.09c-4.42-10.62,2.26-11.22,8.2-11.34c3.59-0.08,7.59,4.5,5.38,6.56
			c-2.32,2.15-5.88,4.84-8.54,7.8c-2.47,2.75,1.06,4.35,0.63,4.43c-3.15,0.61-5.31,1.81-4.63,4.43c0.37,1.42-4.6,4.24-6.3,4.18
			c-3.08-0.12-4.02-3.49-6.54-4.97c-1.96-1.15-4.02-0.6-5.89-0.09c-3.27,0.89-5.97,4.48-6.93,4.43c-2.2-0.11-5.49,0.55-8.62,1.24
			c-2.21,0.49-6.24-2.38-4.53-3.65c1.34-1,5.4-2.55,8.1-3.62c2.15-0.85,2.37-2.99-0.21-3.01C307.96,308.8,303.09,309.46,302.49,309
			L302.49,309z M385.99,331.68c0.68,0.89,3.36,1.63,6.94,2.3C390.73,332.83,388.45,331.95,385.99,331.68z M368.53,329.03
			c-0.11,0.69,1.43,1.31,2.54,2.25L368.53,329.03z M365.75,326.16c-2.72-2.39,3.87,0.65,8.67,1.27c1.16,1.53,3.46,2.45,6.21,3.1
			L365.75,326.16z M306.06,340.73c-0.48,1.3-1.62,2.6-4.21,3.9C303,343.1,304.4,341.8,306.06,340.73z M286.6,329.08
			c6.28-2.5,9.33-1.56,10.7-2.25c2.15-1.1,5.55-3.12,6.93-1.92c1.53,1.32,3.58,3,5.84,3.76c0.77,0.26-0.11,1.51-0.69,2
			c-0.82,0.7-2.01,1.34-3.17,1.25c-1.48-0.11-3.63,0.39-5.74,2.09c-2.53,2.03-5.77,3.79-8.22,5.51c-0.69,0.48-3.31,0.2-2.08-1.25
			c0.78-0.93,2.26-1.88,0.99-3.17c-1.53-1.55-2.87-3.33-6.14-2.67C283.91,332.64,285.85,329.38,286.6,329.08z M258.95,332.75
			l7.89-3.29c0.69-0.29,0.64,1.55-0.11,1.7L258.95,332.75z M276.83,325.46c2.15-0.83,3.95-0.33,6.73-0.51
			c4.49-0.29,8.69-2.01,13.04-3.01c-2.58,1.38-5.58,2.9-12.2,3.9C281.62,326.25,278.72,326.47,276.83,325.46L276.83,325.46z
			 M287.56,290.42c2.01,1.32,4.2,2.33,6.47,3.2c-1.24-0.96-1.98-1.91-3.41-2.78C290.29,291.15,288.48,290.54,287.56,290.42z
			 M283.77,291.8c0.98,1.71,3.84,2.77,7.99,3.37C289.22,293.52,286.57,292.33,283.77,291.8z M278.4,294.29
			c-1.23,0.38,2.3,1.36,3.59,2.04c1.3,0.68,3.01,2.44,3.69,1.79c0.65-0.62-1.53-1.9-3.24-2.25
			C281.12,295.6,280.21,293.74,278.4,294.29z M291.32,300.83l1.11-1.12l0.92,1.85L291.32,300.83L291.32,300.83z M341.61,259.89
			l-0.42-1.95l1.05-3.55l0.25,3.71L341.61,259.89z M355.39,288.92c-3.67-3.21-7.6-6.54-10.84-7.23c-0.66-1.99-0.96-3.44-1.06-5.13
			c-0.18-2.83,0.53-5.58,0.52-8.01c-0.02-3.63,2.42-7.28,4.54-10.44c1.2-1.79,2.86-2.78,4.23-4.65c0.59-0.8-1.45-3.21,2.08-3.5
			c1.58-0.13,2.73-1.45,3.69-0.98c0.95,0.47,1.69,2.73,2.83,2.76c0.94,0.02,1.79-0.85,2.1-1.6c1.55-3.67,1.95-7.63,3.37-11.34
			c1.05-2.75,2.5-6.24,4-7.98c-0.31,2.07,1.78,4.34,2.31,5.85c-0.61,3.25-3.91,6.67-6.1,8.51c-3.23,2.71,0.12,3.11-1.91,6.87
			c-1.34,2.49,2,1.6,1.79,2.67c-0.73,3.79-3.38,8.15-4.31,12.09c-1.11,4.72-2.01,9.22-3.25,13.93
			C358.7,283.34,356.67,286.6,355.39,288.92L355.39,288.92z M368.86,290.08l2.61-2.18l1.05,1.77L368.86,290.08z M380.31,282.05
			l-5.68,5.67l-1.26-1.06L380.31,282.05z M390.61,296.94c3.22-0.1,6.45-1.27,9.67-2.3C396.96,295.32,393.68,296.04,390.61,296.94z
			 M423.52,289.35c1.95,0.6,4.73-0.55,7.05-1.45C427.94,288.67,424.8,288.62,423.52,289.35"/>
	</g>
	<g class="st3">
		<path class="st4" d="M218.2,406.2l-0.22,12.73c-0.01,0.32-0.64,3.26-0.98,4.74l-23.76-0.41l0.33-18.9
			c0.04-2.43,0.23-4.06,0.46-5.06c-1.43-0.03-3.22-0.16-3.8-0.38l0.98-4.68c1.37,0.29,4.38,0.34,7.28,0.39l10.67,0.18
			C216.92,394.93,218.36,397.17,218.2,406.2z M208.86,399.6l-11.25-0.19l-0.33,19.11l16.69,0.29l0.2-11.4
			C214.26,402.17,213.72,399.68,208.86,399.6z"/>
		<path class="st4" d="M226.72,411.26c2.22-3.34,3.43-5.91,3.47-8.02c0.03-1.74-0.96-2.34-3.38-3.07c-1.26-0.39-2.31-0.73-3.2-1.11
			l0.98-4.63c0.73,0.28,1.79,0.61,3.1,0.95c5,1.2,6.71,2.81,6.64,6.72c-0.06,3.33-1.71,7-4.36,10.81L226.72,411.26z"/>
		<path class="st4" d="M240.04,419.52c1.22-0.19,4.23-0.19,7.24-0.14l8.18,0.14c-1.45-1.5-4.71-5.73-10.28-13.38
			c-2.63-3.64-5.73-7.86-7.84-10.65l5.92-0.43c2.16,3.21,5.77,8.66,8.65,12.72c4.04-1.57,4.71-3.88,4.77-6.78
			c0.03-1.58-0.52-3.71-1.12-5.2l5.18-0.39c0.4,1.27,0.64,2.86,0.61,4.55c-0.09,5.02-2.05,8.36-7.63,10.59
			c4.33,5.99,7.18,9.26,8.07,9.96l-0.97,3.89l-14.15-0.24c-3.54-0.06-6.65-0.06-7.82,0.02L240.04,419.52z"/>
		<path class="st4" d="M266.55,419.98c1.22-0.19,4.23-0.19,7.24-0.14l8.18,0.14c-1.45-1.5-4.71-5.73-10.28-13.38
			c-2.63-3.64-5.73-7.86-7.84-10.65l5.92-0.43c2.16,3.21,5.77,8.66,8.65,12.72c4.04-1.57,4.71-3.88,4.77-6.78
			c0.03-1.58-0.52-3.71-1.12-5.2l5.18-0.39c0.4,1.28,0.64,2.87,0.61,4.55c-0.09,5.02-2.05,8.36-7.63,10.59
			c4.33,5.99,7.18,9.26,8.07,9.96l-0.97,3.89l-14.15-0.25c-3.54-0.06-6.65-0.06-7.82,0.02L266.55,419.98z"/>
		<path class="st4" d="M298.01,408.53c0.08-4.54-0.42-6.19-4.52-7.26c-1.84-0.51-2.84-0.74-3.57-1.07l0.98-4.63
			c0.68,0.28,1.73,0.56,3.63,0.91c5.89,1.37,7.76,3.36,7.62,11.38l-0.3,17.27l-4.12-0.07L298.01,408.53z"/>
		<path class="st4" d="M308.41,420.7c1.27-0.19,4.81-0.13,8.03-0.12l11.35,0.2l0.16-9.45c0.05-5.81-1.71-8.06-8.24-9.28
			c-2.37-0.46-4.48-0.82-5.84-1.05c-0.87,1.62-1.53,3.09-1.55,4.3c-0.03,1.9,1.21,3.19,5.06,3.89l-1.13,4.52
			c-5.85-0.84-7.81-3.62-7.74-7.48c0.06-3.27,2.5-7.3,3.66-10.29c0.84,0.23,3.74,0.75,8.16,1.46c7.9,1.19,11.92,3.8,11.71,12.99
			l-0.19,10.77c-0.01,0.58-0.59,3.74-0.76,4.48l-16.47-0.29c-2.64-0.05-5.97-0.1-7.18,0.03L308.41,420.7z"/>
		<path class="st4" d="M337.14,421.2c0.79-0.15,1.54-0.24,4.33-0.19l0.79,0.01c0.04-5.12-0.2-15.74-0.51-19.13l-0.16,0
			c-0.95-0.02-3.17-0.11-4.01-0.44l1.03-4.63c1.63,0.35,5.07,0.3,8.29,0.36l8.66,0.15c7.76,0.13,9.21,2.01,9.05,11.04l-0.31,17.85
			l-4.12-0.07l0.28-16.37c0.09-5.23-0.45-7.56-5.36-7.65l-9.29-0.16c0.21,3.38,0.58,15.49,0.46,19.18l-0.82,4.74l-4.17-0.07
			c-2.11-0.04-4.01-0.02-5.23,0.12L337.14,421.2z"/>
		<path class="st4" d="M374.14,410.17c0.83-5.27-1.25-7.36-4.56-8.21l1.04-4.89c4.21,0.76,6.7,3.5,7.11,7.57
			c1.27-3.2,4.51-7.32,10.37-7.21c8.24,0.14,10.11,7.73,9.94,17.92l-0.12,6.76c-0.01,0.48-0.65,3.95-0.82,4.69l-10.4-0.18
			c-2.11-0.04-4.86-0.03-5.97,0.05l0.98-4.68c1.11-0.19,3.59-0.15,6.5-0.1l5.54,0.1c0.09-2.22,0.13-4.38,0.17-6.49
			c0.12-6.65-0.62-13.16-6.8-13.27c-5.86-0.1-8.02,5.67-8.88,9.25c-0.91,3.52-2.12,9.89-3.16,14.95l-4.12-0.07
			C372.1,420.91,373.49,414.06,374.14,410.17z"/>
		<path class="st4" d="M442.69,410.09l-0.22,12.72c-0.01,0.32-0.64,3.26-0.98,4.74l-23.76-0.41l0.33-18.9
			c0.04-2.43,0.23-4.06,0.46-5.06c-1.43-0.02-3.22-0.16-3.79-0.38l0.98-4.68c1.37,0.29,4.38,0.34,7.28,0.39l10.67,0.18
			C441.41,398.81,442.85,401.06,442.69,410.09z M433.35,403.48l-11.25-0.2l-0.33,19.12l16.69,0.29l0.2-11.41
			C438.75,406.06,438.21,403.56,433.35,403.48z"/>
		<path class="st4" d="M449.83,415.12c2.22-3.34,3.43-5.91,3.47-8.02c0.03-1.74-0.96-2.34-3.38-3.07c-1.26-0.39-2.31-0.73-3.2-1.11
			l0.98-4.63c0.73,0.28,1.79,0.61,3.1,0.95c5,1.2,6.71,2.81,6.64,6.72c-0.06,3.33-1.71,7-4.36,10.8L449.83,415.12z"/>
		<path class="st4" d="M475.4,411.76c0.09-5.23-0.45-7.56-5.41-7.65l-5.23-0.09c-3.12-0.05-5.12-0.19-5.86-0.42l0.98-4.68
			c1.05,0.23,3.75,0.28,7.34,0.34l3.27,0.06c7.71,0.13,9.16,2.01,9,11.04l-0.31,17.85l-4.07-0.07L475.4,411.76z"/>
		<path class="st4" d="M488.81,412.15c0.83-5.27-1.25-7.36-4.56-8.21l1.04-4.89c4.21,0.76,6.7,3.5,7.11,7.57
			c1.27-3.2,4.51-7.32,10.37-7.21c8.24,0.14,10.11,7.73,9.94,17.92l-0.12,6.76c-0.01,0.48-0.65,3.95-0.82,4.69l-10.4-0.18
			c-2.11-0.04-4.86-0.03-5.97,0.05l0.98-4.68c1.11-0.19,3.59-0.15,6.5-0.1l5.54,0.1c0.09-2.22,0.13-4.38,0.17-6.49
			c0.12-6.65-0.62-13.16-6.8-13.27c-5.86-0.1-8.02,5.67-8.88,9.25c-0.91,3.52-2.12,9.89-3.16,14.95l-4.12-0.07
			C486.77,422.89,488.16,416.05,488.81,412.15z"/>
		<path class="st4" d="M524.56,412.45c0.08-4.54-0.42-6.19-4.52-7.26c-1.84-0.51-2.84-0.74-3.57-1.07l0.98-4.63
			c0.68,0.28,1.73,0.56,3.63,0.91c5.89,1.37,7.76,3.36,7.62,11.38l-0.3,17.27l-4.12-0.07L524.56,412.45z"/>
		<path class="st4" d="M537.18,412.57c0.06-3.54,0.27-6.28,0.55-7.33c-0.95-0.07-3.48-0.27-3.85-0.33l0.98-4.74
			c1.11,0.28,3.75,0.33,7.34,0.39l9.56,0.17c7.71,0.13,9.15,2.54,8.99,11.3l-0.3,17.58l-4.12-0.07l0.28-16.05
			c0.1-5.81-0.39-7.88-5.41-7.96l-9.82-0.17l-0.41,23.92l-4.07-0.07L537.18,412.57z"/>
	</g>
	<g class="st3">
		<path class="st4" d="M238.22,462.37h-7.52v7.03h8.41v2.07h-10.94v-19.41h10.51v2.07h-7.98v6.16h7.52V462.37z"/>
		<path class="st4" d="M252.96,471.47l-2.48-4.29c-1.04-1.64-1.64-2.71-2.25-3.83h-0.06c-0.55,1.15-1.12,2.16-2.1,3.86l-2.33,4.26
			h-2.88l5.93-9.82l-5.7-9.59h2.88l2.59,4.55c0.72,1.27,1.27,2.25,1.81,3.31h0.06c0.55-1.18,1.04-2.04,1.76-3.31l2.65-4.55h2.88
			l-5.9,9.44l6.05,9.96H252.96z"/>
		<path class="st4" d="M258.75,452.29c1.21-0.2,2.85-0.37,4.84-0.37c2.48,0,4.29,0.58,5.44,1.61c1.04,0.92,1.7,2.33,1.7,4.09
			c0,1.79-0.52,3.17-1.5,4.17c-1.32,1.41-3.48,2.13-5.87,2.13c-0.81,0-1.56-0.06-2.07-0.14v7.69h-2.53V452.29z M261.29,461.73
			c0.4,0.12,1.24,0.17,2.07,0.17c3.02,0,4.87-1.5,4.87-4.15c0-2.62-1.81-3.86-4.58-3.86c-1.12,0-1.93,0.09-2.36,0.17V461.73z"/>
		<path class="st4" d="M274.08,452.06h2.53v17.28h8.29v2.13h-10.83V452.06z"/>
		<path class="st4" d="M303.16,461.73c0,6.45-4.12,10.05-9.01,10.05c-5.24,0-8.72-4.12-8.72-9.9c0-5.96,3.71-10.14,9.07-10.14
			C300.02,451.74,303.16,456.12,303.16,461.73z M288.1,461.79c0,4.41,2.25,7.95,6.19,7.95c4.09,0,6.22-3.71,6.22-7.95
			c0-3.97-1.93-8-6.19-8C290.29,453.79,288.1,457.42,288.1,461.79z"/>
		<path class="st4" d="M306.07,468.42c1.12,0.69,2.76,1.27,4.49,1.27c2.56,0,4.06-1.35,4.06-3.31c0-1.81-1.04-2.85-3.69-3.86
			c-3.14-1.09-5.1-2.79-5.1-5.5c0-3,2.51-5.24,6.28-5.24c1.96,0,3.43,0.46,4.29,0.92l-0.69,2.04c-0.63-0.35-1.93-0.92-3.69-0.92
			c-2.65,0-3.66,1.58-3.66,2.91c0,1.81,1.18,2.71,3.86,3.74c3.28,1.3,4.95,2.85,4.95,5.7c0,2.99-2.22,5.61-6.8,5.61
			c-1.9,0-3.94-0.58-4.98-1.27L306.07,468.42z"/>
		<path class="st4" d="M323.12,452.06v19.41h-2.53v-19.41H323.12z"/>
		<path class="st4" d="M331.76,471.47l-6.36-19.41h2.74l3.02,9.56c0.81,2.62,1.55,5.01,2.07,7.26h0.09c0.55-2.25,1.32-4.69,2.19-7.2
			l3.28-9.62h2.68l-6.94,19.41H331.76z"/>
		<path class="st4" d="M353.56,462.37h-7.52v7.03h8.41v2.07h-10.94v-19.41h10.51v2.07h-7.98v6.16h7.52V462.37z"/>
		<path class="st4" d="M363.47,468.42c1.12,0.69,2.76,1.27,4.49,1.27c2.56,0,4.06-1.35,4.06-3.31c0-1.81-1.04-2.85-3.69-3.86
			c-3.14-1.09-5.1-2.79-5.1-5.5c0-3,2.51-5.24,6.28-5.24c1.96,0,3.43,0.46,4.29,0.92l-0.69,2.04c-0.63-0.35-1.93-0.92-3.69-0.92
			c-2.65,0-3.66,1.58-3.66,2.91c0,1.81,1.18,2.71,3.86,3.74c3.28,1.3,4.95,2.85,4.95,5.7c0,2.99-2.22,5.61-6.8,5.61
			c-1.9,0-3.94-0.58-4.98-1.27L363.47,468.42z"/>
		<path class="st4" d="M380.52,452.06v11.55c0,4.29,1.9,6.13,4.52,6.13c2.85,0,4.72-1.9,4.72-6.13v-11.55h2.5v11.34
			c0,5.96-3.11,8.38-7.31,8.38c-3.97,0-6.97-2.25-6.97-8.26v-11.46H380.52z"/>
		<path class="st4" d="M396.62,452.32c1.12-0.23,2.88-0.4,4.61-0.4c2.5,0,4.12,0.43,5.3,1.41c1.04,0.75,1.64,1.9,1.64,3.43
			c0,1.87-1.27,3.54-3.28,4.26v0.06c1.84,0.46,4,1.96,4,4.89c0,1.64-0.63,2.91-1.67,3.86c-1.32,1.24-3.51,1.81-6.68,1.81
			c-1.76,0-3.05-0.12-3.92-0.23V452.32z M399.16,460.29h2.27c2.62,0,4.2-1.41,4.2-3.28c0-2.27-1.73-3.17-4.26-3.17
			c-1.15,0-1.81,0.09-2.22,0.17V460.29z M399.16,469.57c0.52,0.09,1.18,0.12,2.1,0.12c2.59,0,5.01-0.95,5.01-3.74
			c0-2.68-2.3-3.77-5.04-3.77h-2.07V469.57z"/>
		<path class="st4" d="M411.92,468.42c1.12,0.69,2.76,1.27,4.49,1.27c2.56,0,4.06-1.35,4.06-3.31c0-1.81-1.04-2.85-3.69-3.86
			c-3.14-1.09-5.1-2.79-5.1-5.5c0-3,2.5-5.24,6.28-5.24c1.96,0,3.43,0.46,4.29,0.92l-0.69,2.04c-0.63-0.35-1.93-0.92-3.69-0.92
			c-2.65,0-3.66,1.58-3.66,2.91c0,1.81,1.18,2.71,3.86,3.74c3.28,1.3,4.95,2.85,4.95,5.7c0,2.99-2.22,5.61-6.8,5.61
			c-1.9,0-3.94-0.58-4.98-1.27L411.92,468.42z"/>
		<path class="st4" d="M430.14,454.19h-5.9v-2.13h14.37v2.13h-5.93v17.28h-2.53V454.19z"/>
		<path class="st4" d="M441.75,465.36l-1.99,6.1h-2.62l6.62-19.41h3l6.62,19.41h-2.68l-2.07-6.1H441.75z M448.11,463.4l-1.9-5.59
			c-0.43-1.27-0.72-2.42-1.01-3.54h-0.09c-0.26,1.15-0.58,2.33-0.95,3.51l-1.9,5.61H448.11z"/>
		<path class="st4" d="M456.21,471.47v-19.41H459l6.19,9.79c1.41,2.3,2.56,4.35,3.48,6.33l0.06-0.03c-0.23-2.59-0.29-4.95-0.29-7.95
			v-8.15h2.36v19.41h-2.53l-6.16-9.85c-1.35-2.16-2.65-4.38-3.63-6.48l-0.09,0.03c0.14,2.45,0.2,4.78,0.2,8v8.29H456.21z"/>
		<path class="st4" d="M488.75,470.86c-0.92,0.43-2.76,0.92-5.15,0.92c-5.44,0-9.56-3.48-9.56-9.85c0-6.08,4.12-10.16,10.13-10.16
			c2.39,0,3.95,0.49,4.61,0.83l-0.6,2.04c-0.95-0.46-2.3-0.81-3.92-0.81c-4.55,0-7.57,2.91-7.57,8c0,4.75,2.74,7.8,7.46,7.8
			c1.53,0,3.08-0.32,4.09-0.81L488.75,470.86z"/>
		<path class="st4" d="M501.91,462.37h-7.52v7.03h8.41v2.07h-10.94v-19.41h10.51v2.07h-7.98v6.16h7.52V462.37z"/>
		<path class="st4" d="M505.69,468.42c1.12,0.69,2.76,1.27,4.49,1.27c2.56,0,4.06-1.35,4.06-3.31c0-1.81-1.04-2.85-3.69-3.86
			c-3.14-1.09-5.1-2.79-5.1-5.5c0-3,2.5-5.24,6.28-5.24c1.96,0,3.43,0.46,4.29,0.92l-0.69,2.04c-0.63-0.35-1.93-0.92-3.69-0.92
			c-2.65,0-3.66,1.58-3.66,2.91c0,1.81,1.18,2.71,3.86,3.74c3.28,1.3,4.95,2.85,4.95,5.7c0,2.99-2.22,5.61-6.8,5.61
			c-1.9,0-3.94-0.58-4.98-1.27L505.69,468.42z"/>
	</g>
	<rect x="349.18" y="559.44" class="st5" width="31.87" height="64.13"/>
	<text transform="matrix(0.9131 0 0 1 360.2915 606.6523)" class="st4 st6 st7">1</text>
</g>
</svg>
