<?xml version="1.0" encoding="utf-8"?>
<!-- Generator: Adobe Illustrator 28.3.0, SVG Export Plug-In . SVG Version: 6.00 Build 0)  -->
<svg version="1.1" id="Layer_1" xmlns="http://www.w3.org/2000/svg" xmlns:xlink="http://www.w3.org/1999/xlink" x="0px" y="0px"
	 viewBox="0 0 746 740" style="enable-background:new 0 0 746 740;" xml:space="preserve">
<style type="text/css">
	.st0{fill:#C82127;}
	.st1{fill:none;stroke:#FFFFFF;stroke-miterlimit:10;}
	.st2{fill:none;}
	.st3{fill:#231F20;}
	.st4{font-family:'AdobeArabic-Bold';}
	.st5{font-size:60.5294px;}
	.st6{enable-background:new    ;}
</style>
<g>
	<g>
		<g>
			<g>
				<polygon class="st0" points="368.82,661 74.3,372.35 373,79 671.7,372.35 				"/>
				<polygon class="st0" points="369.43,618.52 117.91,372.01 373,121.48 628.09,372.01 				"/>
			</g>
			<path class="st0" d="M372.99,165.45c-12.13,22.92,2.02,35.73-13.48,68.76c-8.76-6.74-4.04-31.69-20.22-32.36
				c2.02,8.09,0.67,10.79,0,13.48c-2.02,11.46-5.39,20.9,2.02,35.06c-11.46-5.39-12.13-15.51-21.57-22.25
				c2.02,10.79-2.7,33.03,10.11,54.61c-11.46-1.35-15.51-5.39-27.64-17.53c12.81,67.42,22.92,69.44,70.79,73.48
				c-4.04-0.67-28.31-4.72-37.08-32.36c0-6.74-0.67,6.07,22.92,6.74c-14.83-23.6-10.79-18.88-9.44-32.36
				c6.74,8.76,1.35,10.11,18.2,16.85c-5.39-17.53,8.76-28.99,5.39-49.21c4.04,8.76,17.53,7.42,16.85,49.21
				c11.46-12.81,12.13-4.04,17.53-17.53c0.67,7.42,4.04,16.85-11.46,33.03c4.04,1.35,10.79,2.02,20.9-5.39
				c-10.11,12.13-0.67,12.13-26.97,31.01c33.03,0.67,54.61-20.22,53.93-65.39c-1.35,4.04-2.02,12.13-19.55,14.16
				c10.79-10.79,16.85-33.03,8.09-50.56c-3.37,2.7-8.09,16.18-19.55,19.55c5.39-9.44,4.04-21.57,4.04-21.57s2.02-16.85-8.09-30.34
				c-2.7,20.22-2.7,31.01-15.51,33.71c2.02-11.46,2.7-17.53-4.04-31.01C382.43,193.09,374.34,178.93,372.99,165.45z M318.39,350.17
				v12.13h115.28v-12.13H318.39z"/>
		</g>
		<g>
			<g>
				<polygon class="st0" points="368.82,661 74.3,372.35 373,79 671.7,372.35 				"/>
				<polygon class="st1" points="369.43,618.52 117.91,372.01 373,121.48 628.09,372.01 				"/>
			</g>
			<path d="M372.99,165.45c-12.13,22.92,2.02,35.73-13.48,68.76c-8.76-6.74-4.04-31.69-20.22-32.36c2.02,8.09,0.67,10.79,0,13.48
				c-2.02,11.46-5.39,20.9,2.02,35.06c-11.46-5.39-12.13-15.51-21.57-22.25c2.02,10.79-2.7,33.03,10.11,54.61
				c-11.46-1.35-15.51-5.39-27.64-17.53c12.81,67.42,22.92,69.44,70.79,73.48c-4.04-0.67-28.31-4.72-37.08-32.36
				c0-6.74-0.67,6.07,22.92,6.74c-14.83-23.6-10.79-18.88-9.44-32.36c6.74,8.76,1.35,10.11,18.2,16.85
				c-5.39-17.53,8.76-28.99,5.39-49.21c4.04,8.76,17.53,7.42,16.85,49.21c11.46-12.81,12.13-4.04,17.53-17.53
				c0.67,7.42,4.04,16.85-11.46,33.03c4.04,1.35,10.79,2.02,20.9-5.39c-10.11,12.13-0.67,12.13-26.97,31.01
				c33.03,0.67,54.61-20.22,53.93-65.39c-1.35,4.04-2.02,12.13-19.55,14.16c10.79-10.79,16.85-33.03,8.09-50.56
				c-3.37,2.7-8.09,16.18-19.55,19.55c5.39-9.44,4.04-21.57,4.04-21.57s2.02-16.85-8.09-30.34c-2.7,20.22-2.7,31.01-15.51,33.71
				c2.02-11.46,2.7-17.53-4.04-31.01C382.43,193.09,374.34,178.93,372.99,165.45z M318.39,350.17v12.13h115.28v-12.13H318.39z"/>
		</g>
	</g>
	<rect x="353.84" y="540.94" class="st2" width="29.92" height="60.21"/>
	<text transform="matrix(0.9131 0 0 1 364.2725 585.2744)" class="st3 st4 st5">3</text>
	<polygon class="st2" points="195.17,378.44 537.14,382.48 530.39,448.01 188.42,443.97 	"/>
	<g class="st6">
		<path class="st3" d="M233.85,402.32l-0.21,11.95c0,0.3-0.6,3.06-0.92,4.45l-22.31-0.38l0.31-17.75c0.04-2.28,0.21-3.81,0.43-4.75
			c-1.34-0.02-3.02-0.15-3.56-0.36l0.92-4.4c1.28,0.27,4.11,0.32,6.84,0.37l10.01,0.17C232.65,391.74,234,393.84,233.85,402.32z
			 M225.08,396.12l-10.56-0.18l-0.31,17.94l15.66,0.27l0.19-10.71C230.15,398.54,229.64,396.2,225.08,396.12z"/>
		<path class="st3" d="M240.56,407.05c2.09-3.14,3.22-5.55,3.25-7.53c0.03-1.63-0.9-2.2-3.17-2.88c-1.18-0.37-2.17-0.68-3.01-1.04
			l0.92-4.35c0.69,0.26,1.68,0.57,2.91,0.89c4.69,1.12,6.3,2.64,6.24,6.31c-0.05,3.12-1.6,6.57-4.09,10.14L240.56,407.05z"/>
		<path class="st3" d="M254.36,403.47c0.06-3.32,0.25-5.9,0.52-6.88c-0.89-0.07-3.27-0.25-3.61-0.31l0.92-4.45
			c1.04,0.27,3.52,0.31,6.89,0.37l8.97,0.16c7.24,0.12,8.59,2.38,8.44,10.61l-0.29,16.51l-3.87-0.07l0.26-15.07
			c0.09-5.45-0.37-7.39-5.08-7.48l-9.22-0.16l-0.39,22.45l-3.82-0.07L254.36,403.47z"/>
		<path class="st3" d="M290.56,414.76c5.98-1.63,11-5.56,11.13-13c0.06-3.17-1.06-4.33-4.83-4.4l-6.79-0.12
			c-3.37-0.06-6.54-0.11-7.33-0.47l0.92-4.35c1.38,0.27,4.06,0.27,7.28,0.32l6.94,0.12c6.34,0.11,7.79,2.32,7.7,7.87
			c-0.19,10.71-7.44,17.37-15.85,19.36L290.56,414.76z M283.6,404.62l3.87,0.07l-0.42,24.49l-3.87-0.07L283.6,404.62z"/>
		<path class="st3" d="M312.42,415.48c6.63-1.87,11.87-6.93,11.99-13.92c0.05-3.12-1.17-3.74-3.8-3.78l-11.8-0.2l0.12-7.14
			c0.05-3.02-0.03-6.64-0.56-7.89l4.03-0.62c0.29,0.65,0.43,4.02,0.36,7.69l-0.06,3.52l9.57,0.17c5.06,0.09,6.2,2.64,6.13,7.05
			c-0.19,11.15-9.1,18.58-16.96,20.18L312.42,415.48z"/>
		<path class="st3" d="M331.94,416.17c0.75-0.14,1.44-0.22,4.07-0.18l0.74,0.01c0.03-4.81-0.19-14.78-0.48-17.96l-0.15,0
			c-0.89-0.02-2.97-0.1-3.76-0.41l0.97-4.35c1.53,0.32,4.75,0.28,7.78,0.33l8.13,0.14c7.29,0.13,8.64,1.88,8.5,10.36l-0.29,16.75
			l-3.87-0.07l0.27-15.37c0.08-4.91-0.42-7.1-5.03-7.18l-8.72-0.15c0.19,3.18,0.54,14.54,0.43,18.01l-0.77,4.45l-3.92-0.07
			c-1.98-0.03-3.77-0.01-4.91,0.11L331.94,416.17z"/>
		<path class="st3" d="M366.68,405.81c0.78-4.94-1.17-6.91-4.28-7.71l0.97-4.59c3.96,0.71,6.29,3.28,6.67,7.11
			c1.19-3,4.24-6.87,9.74-6.77c7.73,0.13,9.49,7.25,9.33,16.82L389,417c-0.01,0.45-0.61,3.71-0.77,4.4l-9.77-0.17
			c-1.98-0.03-4.56-0.03-5.6,0.05l0.92-4.4c1.04-0.18,3.37-0.14,6.1-0.09l5.21,0.09c0.09-2.08,0.12-4.11,0.16-6.1
			c0.11-6.25-0.58-12.36-6.38-12.46c-5.5-0.09-7.53,5.32-8.33,8.68c-0.85,3.31-1.99,9.29-2.97,14.03l-3.87-0.07
			C364.77,415.89,366.07,409.47,366.68,405.81z"/>
		<path class="st3" d="M431.04,405.73l-0.21,11.95c0,0.3-0.6,3.06-0.92,4.45l-22.31-0.39l0.31-17.75c0.04-2.28,0.21-3.81,0.43-4.75
			c-1.34-0.02-3.02-0.15-3.56-0.36l0.92-4.4c1.29,0.27,4.11,0.32,6.84,0.37l10.01,0.17C429.83,395.15,431.19,397.26,431.04,405.73z
			 M422.27,399.53l-10.56-0.18l-0.31,17.94l15.66,0.27l0.19-10.71C427.34,401.95,426.83,399.61,422.27,399.53z"/>
		<path class="st3" d="M438.79,410.48c2.09-3.14,3.22-5.55,3.25-7.53c0.03-1.63-0.91-2.2-3.17-2.88c-1.18-0.37-2.17-0.68-3.01-1.04
			l0.92-4.35c0.69,0.26,1.68,0.57,2.91,0.89c4.69,1.12,6.3,2.64,6.24,6.31c-0.05,3.12-1.6,6.57-4.09,10.14L438.79,410.48z"/>
		<path class="st3" d="M454.23,417.94c6.63-1.87,11.87-6.94,11.99-13.92c0.05-3.12-1.17-3.74-3.8-3.78l-11.8-0.21l0.12-7.14
			c0.05-3.02-0.03-6.64-0.56-7.89l4.03-0.62c0.29,0.65,0.43,4.02,0.36,7.69l-0.06,3.52l9.57,0.17c5.06,0.09,6.2,2.64,6.13,7.05
			c-0.19,11.15-9.1,18.58-16.96,20.18L454.23,417.94z"/>
		<path class="st3" d="M476.98,407.07c0.15-2.82,0.63-4.65,1.89-5.92c-1.93-0.33-5.04-0.98-6.17-1.45l0.92-4.4
			c2.17,0.98,10.62,2.27,13.89,2.52l-0.82,4.45c-1.04-0.07-2.87-0.4-3.56-0.46c-1.39-0.07-2.04,0.66-2.25,4.18
			c-0.09,2.58,0.1,11.5,0.35,17.01l-3.92-0.07C477.05,414.56,476.89,409.4,476.98,407.07z"/>
		<path class="st3" d="M495.81,407.75c0.07-4.26-0.39-5.81-4.25-6.82c-1.73-0.48-2.67-0.69-3.35-1l0.92-4.35
			c0.64,0.26,1.63,0.52,3.41,0.85c5.53,1.29,7.28,3.15,7.15,10.69l-0.28,16.21l-3.87-0.07L495.81,407.75z"/>
		<path class="st3" d="M504.94,419.11c1.24-0.13,2.83-0.15,6.1-0.09l3.47,0.06l0.19-11.05c0.07-4.31-0.4-5.51-4.79-6.63
			c-1.78-0.43-3.51-0.85-4.29-1.17l0.92-4.35c0.64,0.26,2.12,0.63,4.25,1.06c5.73,1.29,7.93,3.01,7.8,10.3l-0.21,12.04l-0.92,4.35
			l-6.89-0.12c-2.13-0.04-5.55-0.05-6.54,0.04L504.94,419.11z"/>
	</g>
	<g class="st6">
		<path class="st3" d="M224.78,444.33h11.45v2.27h-8.68v7.1h8.05v2.27h-8.05v9.62h-2.78V444.33z"/>
		<path class="st3" d="M240.11,444.33h2.78v18.93h9.09v2.33h-11.86V444.33z"/>
		<path class="st3" d="M258.47,458.91l-2.18,6.69h-2.87l7.26-21.27h3.28l7.26,21.27h-2.93l-2.27-6.69H258.47z M265.45,456.77
			l-2.08-6.12c-0.47-1.39-0.79-2.65-1.1-3.88h-0.09c-0.28,1.26-0.63,2.56-1.04,3.85l-2.08,6.15H265.45z"/>
		<path class="st3" d="M292.17,456.26c-0.19-2.94-0.38-6.53-0.35-9.15h-0.09c-0.73,2.46-1.67,5.33-2.71,8.17l-3.69,10.19h-2.18
			l-3.38-10.13c-1.04-3-1.86-5.74-2.43-8.24h-0.09c-0.09,2.62-0.19,6.15-0.41,9.37l-0.57,9.12h-2.62l1.48-21.27h3.5l3.63,10.32
			c0.88,2.56,1.58,5.08,2.11,7.29h0.09c0.54-2.15,1.29-4.64,2.27-7.32l3.79-10.29h3.5l1.33,21.27h-2.71L292.17,456.26z"/>
		<path class="st3" d="M317.53,456.26c-0.19-2.94-0.38-6.53-0.35-9.15h-0.09c-0.73,2.46-1.67,5.33-2.71,8.17l-3.69,10.19h-2.18
			l-3.38-10.13c-1.04-3-1.86-5.74-2.43-8.24h-0.09c-0.09,2.62-0.19,6.15-0.41,9.37l-0.57,9.12h-2.62l1.48-21.27h3.5l3.63,10.32
			c0.88,2.56,1.58,5.08,2.11,7.29h0.09c0.54-2.15,1.29-4.64,2.27-7.32l3.79-10.29h3.5l1.33,21.27h-2.71L317.53,456.26z"/>
		<path class="st3" d="M328.07,458.91l-2.18,6.69h-2.87l7.26-21.27h3.28l7.26,21.27h-2.93l-2.27-6.69H328.07z M335.04,456.77
			l-2.08-6.12c-0.47-1.39-0.79-2.65-1.1-3.88h-0.09c-0.28,1.26-0.63,2.56-1.04,3.85l-2.08,6.15H335.04z"/>
		<path class="st3" d="M343.9,444.62c1.23-0.25,3.16-0.44,5.05-0.44c2.75,0,4.51,0.47,5.81,1.55c1.14,0.82,1.8,2.08,1.8,3.75
			c0,2.05-1.39,3.88-3.6,4.67v0.06c2.02,0.5,4.39,2.15,4.39,5.36c0,1.8-0.69,3.19-1.83,4.23c-1.45,1.36-3.85,1.99-7.32,1.99
			c-1.92,0-3.34-0.13-4.29-0.25V444.62z M346.68,453.36h2.49c2.87,0,4.61-1.55,4.61-3.6c0-2.49-1.89-3.47-4.67-3.47
			c-1.26,0-1.99,0.09-2.43,0.19V453.36z M346.68,463.52c0.57,0.09,1.29,0.13,2.3,0.13c2.84,0,5.49-1.04,5.49-4.1
			c0-2.93-2.52-4.13-5.52-4.13h-2.27V463.52z"/>
		<path class="st3" d="M361,444.33h2.78v18.93h9.09v2.33H361V444.33z"/>
		<path class="st3" d="M386.9,455.63h-8.24v7.7h9.21v2.27h-11.99v-21.27h11.52v2.27h-8.74v6.75h8.24V455.63z"/>
		<path class="st3" d="M398.1,444.33h2.78v18.93h9.09v2.33H398.1V444.33z"/>
		<path class="st3" d="M415.77,444.33v21.27h-2.78v-21.27H415.77z"/>
		<path class="st3" d="M438.07,468.73c-2.43-0.66-5.14-1.51-8.11-2.46c-0.57-0.19-0.98-0.28-1.32-0.32
			c-5.84-0.32-9.34-4.61-9.34-10.82c0-6.53,4.04-11.14,9.94-11.14c6.06,0,9.5,4.83,9.5,10.92c0,5.24-2.56,8.8-6.06,10.07v0.13
			c2.11,0.5,4.42,1.01,6.25,1.33L438.07,468.73z M435.83,454.97c0-4.45-2.18-8.74-6.75-8.74c-4.54,0-6.85,4.2-6.85,8.8
			c0,4.61,2.3,8.68,6.75,8.68C433.47,463.71,435.83,459.67,435.83,454.97z"/>
		<path class="st3" d="M445.04,444.33v12.65c0,4.7,2.08,6.72,4.96,6.72c3.12,0,5.17-2.08,5.17-6.72v-12.65h2.75v12.43
			c0,6.53-3.41,9.18-8.02,9.18c-4.35,0-7.64-2.46-7.64-9.06v-12.56H445.04z"/>
		<path class="st3" d="M465.46,444.33v21.27h-2.78v-21.27H465.46z"/>
		<path class="st3" d="M470.22,444.62c1.7-0.25,3.69-0.44,5.87-0.44c3.94,0,6.75,0.92,8.61,2.65c1.89,1.74,3,4.23,3,7.64
			c0,3.47-1.07,6.28-3.06,8.27c-2.02,1.99-5.27,3.06-9.4,3.06c-1.96,0-3.6-0.09-5.02-0.25V444.62z M472.99,463.42
			c0.7,0.13,1.71,0.16,2.78,0.16c5.87,0,9.06-3.28,9.06-9.02c0.03-5.02-2.81-8.21-8.62-8.21c-1.42,0-2.49,0.16-3.22,0.28V463.42z"/>
		<path class="st3" d="M490.88,462.26c1.23,0.76,3.03,1.39,4.92,1.39c2.81,0,4.45-1.48,4.45-3.63c0-1.99-1.14-3.12-4.04-4.23
			c-3.44-1.2-5.58-3.06-5.58-6.03c0-3.28,2.74-5.74,6.88-5.74c2.15,0,3.75,0.5,4.7,1.01l-0.76,2.24c-0.69-0.38-2.11-1.01-4.04-1.01
			c-2.9,0-4.01,1.74-4.01,3.19c0,1.99,1.29,2.97,4.23,4.1c3.6,1.42,5.43,3.12,5.43,6.25c0,3.28-2.43,6.15-7.45,6.15
			c-2.08,0-4.32-0.63-5.46-1.39L490.88,462.26z"/>
	</g>
</g>
</svg>
