<?xml version="1.0" encoding="utf-8"?>
<!-- Generator: Adobe Illustrator 28.3.0, SVG Export Plug-In . SVG Version: 6.00 Build 0)  -->
<svg version="1.1" id="Layer_1" xmlns="http://www.w3.org/2000/svg" xmlns:xlink="http://www.w3.org/1999/xlink" x="0px" y="0px"
	 viewBox="0 0 746 740" style="enable-background:new 0 0 746 740;" xml:space="preserve">
<style type="text/css">
	.st0{fill:#C82127;}
	.st1{fill:none;stroke:#FFFFFF;stroke-miterlimit:10;}
	.st2{fill:none;}
	.st3{fill:#231F20;}
	.st4{font-family:'AdobeArabic-Bold';}
	.st5{font-size:62.9084px;}
	.st6{enable-background:new    ;}
</style>
<g>
	<g>
		<g>
			<polygon class="st0" points="368.66,672.44 62.56,372.44 373,67.56 683.44,372.44 			"/>
			<polygon class="st1" points="369.29,628.29 107.88,372.09 373,111.71 638.12,372.09 			"/>
		</g>
		<path d="M372.99,155.01c-12.61,23.82,2.1,37.13-14.01,71.47c-9.11-7.01-4.2-32.93-21.02-33.63c2.1,8.41,0.7,11.21,0,14.01
			c-2.1,11.91-5.61,21.72,2.1,36.43c-11.91-5.61-12.61-16.12-22.42-23.12c2.1,11.21-2.8,34.33,10.51,56.75
			c-11.91-1.4-16.12-5.61-28.73-18.22c13.31,70.07,23.82,72.17,73.57,76.37c-4.2-0.7-29.43-4.9-38.54-33.63
			c0-7.01-0.7,6.31,23.82,7.01c-15.41-24.52-11.21-19.62-9.81-33.63c7.01,9.11,1.4,10.51,18.92,17.52
			c-5.61-18.22,9.11-30.13,5.61-51.15c4.2,9.11,18.22,7.71,17.52,51.15c11.91-13.31,12.61-4.2,18.22-18.22
			c0.7,7.71,4.2,17.52-11.91,34.33c4.2,1.4,11.21,2.1,21.72-5.61c-10.51,12.61-0.7,12.61-28.03,32.23
			c34.33,0.7,56.75-21.02,56.05-67.96c-1.4,4.2-2.1,12.61-20.32,14.71c11.21-11.21,17.52-34.33,8.41-52.55
			c-3.5,2.8-8.41,16.82-20.32,20.32c5.61-9.81,4.2-22.42,4.2-22.42s2.1-17.52-8.41-31.53c-2.8,21.02-2.8,32.23-16.12,35.03
			c2.1-11.91,2.8-18.22-4.2-32.23C382.8,183.74,374.39,169.02,372.99,155.01z M316.24,346.99v12.61h119.81v-12.61H316.24z"/>
	</g>
	<rect x="351.19" y="554.85" class="st2" width="31.1" height="62.58"/>
	<text transform="matrix(0.9131 0 0 1 362.0356 600.9258)" class="st3 st4 st5">2</text>
	<g class="st6">
		<path class="st3" d="M261.93,406.73l-0.21,12.42c-0.01,0.31-0.62,3.18-0.96,4.62l-23.18-0.4l0.32-18.44
			c0.04-2.37,0.22-3.96,0.45-4.94c-1.39-0.02-3.14-0.16-3.7-0.37l0.96-4.57c1.34,0.28,4.27,0.33,7.11,0.38l10.41,0.18
			C260.68,395.73,262.08,397.92,261.93,406.73z M252.82,400.29l-10.97-0.19l-0.32,18.65l16.28,0.28l0.19-11.13
			C258.08,402.8,257.56,400.37,252.82,400.29z"/>
		<path class="st3" d="M268.9,411.64c2.17-3.26,3.35-5.77,3.38-7.83c0.03-1.7-0.94-2.28-3.3-2.99c-1.23-0.38-2.26-0.71-3.12-1.08
			l0.95-4.52c0.72,0.27,1.74,0.6,3.02,0.93c4.88,1.17,6.55,2.74,6.48,6.55c-0.06,3.25-1.66,6.83-4.25,10.54L268.9,411.64z"/>
		<path class="st3" d="M283.24,407.92c0.06-3.45,0.26-6.13,0.54-7.15c-0.93-0.07-3.4-0.27-3.76-0.32l0.96-4.62
			c1.08,0.28,3.65,0.32,7.16,0.38l9.33,0.16c7.52,0.13,8.92,2.47,8.78,11.03l-0.3,17.16l-4.02-0.07l0.27-15.66
			c0.1-5.67-0.38-7.69-5.28-7.77l-9.58-0.17l-0.4,23.34l-3.97-0.07L283.24,407.92z"/>
		<path class="st3" d="M320.87,419.65c6.21-1.7,11.44-5.78,11.57-13.51c0.06-3.3-1.11-4.5-5.02-4.57l-7.06-0.12
			c-3.5-0.06-6.8-0.12-7.62-0.49l0.95-4.52c1.44,0.28,4.22,0.28,7.57,0.34l7.21,0.12c6.59,0.11,8.1,2.41,8,8.18
			c-0.19,11.13-7.73,18.06-16.48,20.12L320.87,419.65z M313.63,409.12l4.02,0.07l-0.44,25.45l-4.02-0.07L313.63,409.12z"/>
		<path class="st3" d="M343.58,420.41c6.89-1.94,12.34-7.21,12.46-14.47c0.06-3.25-1.22-3.89-3.95-3.93l-12.26-0.21l0.13-7.42
			c0.05-3.14-0.03-6.91-0.58-8.2l4.19-0.65c0.3,0.68,0.44,4.18,0.38,7.99l-0.06,3.66l9.94,0.17c5.25,0.09,6.45,2.74,6.37,7.33
			c-0.2,11.59-9.46,19.32-17.63,20.98L343.58,420.41z"/>
		<path class="st3" d="M363.87,421.12c0.78-0.14,1.5-0.23,4.23-0.18l0.77,0.01c0.03-5-0.2-15.36-0.5-18.67l-0.16,0
			c-0.93-0.02-3.09-0.1-3.91-0.43l1.01-4.52c1.59,0.34,4.94,0.29,8.09,0.35l8.45,0.15c7.57,0.13,8.98,1.96,8.83,10.77l-0.3,17.42
			l-4.02-0.07l0.28-15.97c0.09-5.1-0.44-7.38-5.23-7.46l-9.07-0.16c0.2,3.3,0.56,15.11,0.45,18.72l-0.8,4.62l-4.07-0.07
			c-2.06-0.04-3.92-0.02-5.1,0.12L363.87,421.12z"/>
		<path class="st3" d="M399.97,410.36c0.81-5.14-1.21-7.18-4.45-8.01l1.01-4.78c4.11,0.74,6.54,3.41,6.93,7.39
			c1.24-3.12,4.4-7.14,10.12-7.04c8.04,0.14,9.87,7.54,9.69,17.48l-0.11,6.6c-0.01,0.46-0.63,3.85-0.8,4.57l-10.15-0.18
			c-2.06-0.04-4.74-0.03-5.83,0.05l0.96-4.57c1.08-0.19,3.51-0.15,6.34-0.1l5.41,0.09c0.09-2.16,0.13-4.28,0.16-6.34
			c0.11-6.49-0.6-12.84-6.63-12.95c-5.72-0.1-7.83,5.53-8.66,9.02c-0.88,3.44-2.07,9.65-3.09,14.58l-4.02-0.07
			C397.99,420.83,399.34,414.16,399.97,410.36z"/>
		<path class="st3" d="M466.87,410.28l-0.21,12.42c0,0.31-0.62,3.18-0.96,4.62l-23.19-0.4l0.32-18.44c0.04-2.37,0.22-3.96,0.45-4.94
			c-1.39-0.02-3.14-0.16-3.7-0.37l0.96-4.57c1.33,0.28,4.27,0.33,7.1,0.38l10.41,0.18C465.62,399.28,467.02,401.47,466.87,410.28z
			 M457.75,403.83l-10.97-0.19l-0.32,18.65l16.28,0.28l0.19-11.13C463.02,406.34,462.49,403.91,457.75,403.83z"/>
		<path class="st3" d="M475.33,415.21c2.17-3.26,3.35-5.77,3.38-7.83c0.03-1.7-0.94-2.28-3.3-2.99c-1.23-0.38-2.25-0.71-3.12-1.09
			l0.96-4.52c0.72,0.27,1.74,0.6,3.02,0.93c4.88,1.17,6.55,2.74,6.48,6.55c-0.06,3.25-1.66,6.83-4.25,10.54L475.33,415.21z"/>
		<path class="st3" d="M489.63,411.24c0.15-2.93,0.65-4.83,1.96-6.15c-2-0.34-5.24-1.02-6.42-1.5l0.96-4.57
			c2.25,1.02,11.04,2.36,14.44,2.62l-0.85,4.62c-1.08-0.07-2.98-0.41-3.7-0.48c-1.44-0.08-2.13,0.68-2.34,4.34
			c-0.1,2.68,0.1,11.96,0.36,17.68l-4.07-0.07C489.7,419.02,489.53,413.66,489.63,411.24z"/>
		<path class="st3" d="M503.64,423.23c4.33-0.08,9.74-2.87,9.8-9.62l0.03-2.01c0.02-4.23-0.94-5.48-4.78-6.53
			c-1.08-0.33-3.44-0.83-4.21-1.21l1.01-4.52c0.77,0.32,2.46,0.71,4.1,1.1c6.83,1.61,7.81,4.21,7.9,10.91l0.08,7.53
			c0.04,3.81,0.29,7.32,0.77,9.34l-4.02-0.07c-0.44-1.14-0.79-4.7-0.69-7.59c-1.68,4.81-5.86,7.89-10.91,7.8L503.64,423.23z"/>
	</g>
	<g class="st6">
		<path class="st3" d="M229.19,453.4h11.9v2.36h-9.02v7.38h8.36v2.36h-8.36v10h-2.89V453.4z"/>
		<path class="st3" d="M245.13,453.4h2.89v19.67h9.44v2.43h-12.33V453.4z"/>
		<path class="st3" d="M264.21,468.55l-2.26,6.95h-2.98l7.54-22.1h3.41l7.54,22.1h-3.05l-2.36-6.95H264.21z M271.46,466.32
			l-2.16-6.36c-0.49-1.44-0.82-2.75-1.15-4.03h-0.1c-0.29,1.31-0.66,2.66-1.08,4l-2.16,6.39H271.46z"/>
		<path class="st3" d="M299.23,465.8c-0.2-3.05-0.39-6.79-0.36-9.51h-0.1c-0.75,2.56-1.74,5.54-2.82,8.49l-3.84,10.59h-2.26
			l-3.51-10.53c-1.08-3.12-1.93-5.97-2.53-8.56h-0.1c-0.1,2.72-0.2,6.39-0.43,9.74l-0.59,9.48h-2.72l1.54-22.1h3.64l3.77,10.72
			c0.92,2.66,1.64,5.28,2.2,7.58h0.1c0.56-2.23,1.34-4.82,2.36-7.61l3.93-10.69h3.64l1.38,22.1h-2.82L299.23,465.8z"/>
		<path class="st3" d="M325.59,465.8c-0.2-3.05-0.39-6.79-0.36-9.51h-0.1c-0.75,2.56-1.74,5.54-2.82,8.49l-3.84,10.59h-2.26
			l-3.51-10.53c-1.08-3.12-1.93-5.97-2.52-8.56h-0.1c-0.1,2.72-0.2,6.39-0.43,9.74l-0.59,9.48h-2.72l1.54-22.1h3.64l3.77,10.72
			c0.92,2.66,1.64,5.28,2.2,7.58h0.1c0.56-2.23,1.34-4.82,2.36-7.61l3.94-10.69h3.64l1.38,22.1h-2.82L325.59,465.8z"/>
		<path class="st3" d="M336.54,468.55l-2.26,6.95h-2.98l7.54-22.1h3.41l7.54,22.1h-3.05l-2.36-6.95H336.54z M343.79,466.32
			l-2.16-6.36c-0.49-1.44-0.82-2.75-1.15-4.03h-0.1c-0.29,1.31-0.66,2.66-1.08,4l-2.16,6.39H343.79z"/>
		<path class="st3" d="M353,453.7c1.28-0.26,3.28-0.46,5.25-0.46c2.85,0,4.69,0.49,6.03,1.61c1.18,0.85,1.87,2.16,1.87,3.9
			c0,2.13-1.44,4.03-3.74,4.85v0.07c2.1,0.53,4.56,2.23,4.56,5.58c0,1.87-0.72,3.31-1.9,4.39c-1.51,1.41-4,2.07-7.61,2.07
			c-2,0-3.48-0.13-4.46-0.26V453.7z M355.88,462.78h2.59c2.98,0,4.79-1.61,4.79-3.74c0-2.59-1.97-3.61-4.85-3.61
			c-1.31,0-2.07,0.1-2.53,0.2V462.78z M355.88,473.34c0.59,0.1,1.34,0.13,2.39,0.13c2.95,0,5.71-1.08,5.71-4.26
			c0-3.05-2.62-4.3-5.74-4.3h-2.36V473.34z"/>
		<path class="st3" d="M370.77,453.4h2.89v19.67h9.44v2.43h-12.33V453.4z"/>
		<path class="st3" d="M397.69,465.14h-8.56v8h9.58v2.36h-12.46v-22.1h11.97v2.36h-9.08v7.02h8.56V465.14z"/>
		<path class="st3" d="M426.18,474.52c-1.28,0.46-3.8,1.21-6.79,1.21c-3.34,0-6.1-0.85-8.26-2.92c-1.9-1.84-3.08-4.79-3.08-8.23
			c0.03-6.56,4.56-11.41,11.97-11.41c2.56,0,4.59,0.59,5.51,1.02l-0.69,2.33c-1.18-0.52-2.66-0.95-4.89-0.95
			c-5.38,0-8.89,3.34-8.89,8.89c0,5.61,3.34,8.92,8.53,8.92c1.87,0,3.15-0.26,3.8-0.59v-6.59h-4.49v-2.3h7.28V474.52z"/>
		<path class="st3" d="M434.12,468.55l-2.26,6.95h-2.98l7.54-22.1h3.41l7.54,22.1h-3.05l-2.36-6.95H434.12z M441.36,466.32
			l-2.16-6.36c-0.49-1.44-0.82-2.75-1.15-4.03h-0.1c-0.29,1.31-0.66,2.66-1.08,4l-2.16,6.39H441.36z"/>
		<path class="st3" d="M450.21,472.03c1.28,0.79,3.15,1.44,5.12,1.44c2.92,0,4.62-1.54,4.62-3.77c0-2.07-1.18-3.25-4.2-4.39
			c-3.57-1.25-5.8-3.18-5.8-6.26c0-3.41,2.85-5.97,7.15-5.97c2.23,0,3.9,0.52,4.89,1.05l-0.79,2.33c-0.72-0.39-2.2-1.05-4.2-1.05
			c-3.02,0-4.16,1.8-4.16,3.31c0,2.07,1.34,3.08,4.39,4.26c3.74,1.48,5.64,3.25,5.64,6.49c0,3.41-2.52,6.39-7.74,6.39
			c-2.16,0-4.49-0.66-5.67-1.44L450.21,472.03z"/>
		<path class="st3" d="M478.18,465.14h-8.56v8h9.58v2.36h-12.46v-22.1h11.97v2.36h-9.08v7.02h8.56V465.14z"/>
		<path class="st3" d="M482.48,472.03c1.28,0.79,3.15,1.44,5.12,1.44c2.92,0,4.62-1.54,4.62-3.77c0-2.07-1.18-3.25-4.2-4.39
			c-3.57-1.25-5.8-3.18-5.8-6.26c0-3.41,2.85-5.97,7.15-5.97c2.23,0,3.9,0.52,4.89,1.05l-0.79,2.33c-0.72-0.39-2.2-1.05-4.2-1.05
			c-3.02,0-4.16,1.8-4.16,3.31c0,2.07,1.34,3.08,4.39,4.26c3.74,1.48,5.64,3.25,5.64,6.49c0,3.41-2.53,6.39-7.74,6.39
			c-2.16,0-4.49-0.66-5.67-1.44L482.48,472.03z"/>
	</g>
</g>
</svg>
