<?xml version="1.0" encoding="utf-8"?>
<!-- Generator: Adobe Illustrator 28.3.0, SVG Export Plug-In . SVG Version: 6.00 Build 0)  -->
<svg version="1.1" id="Layer_1" xmlns="http://www.w3.org/2000/svg" xmlns:xlink="http://www.w3.org/1999/xlink" x="0px" y="0px"
	 viewBox="0 0 746 740" style="enable-background:new 0 0 746 740;" xml:space="preserve">
<style type="text/css">
	.st0{fill:#C82127;}
	.st1{fill:none;}
	.st2{fill:#FFFFFF;}
	.st3{fill:none;stroke:#3B3A3C;stroke-miterlimit:10;}
	.st4{fill:#231F20;}
	.st5{font-family:'AdobeArabic-Bold';}
	.st6{font-size:60.1694px;}
	.st7{enable-background:new    ;}
</style>
<g>
	<g>
		<polygon class="st0" points="368.3,659.27 75.54,372.34 372.46,80.73 669.38,372.34 		"/>
		<rect x="112.08" y="63" class="st1" width="509.96" height="614"/>
		<g>
			<polygon class="st2" points="622.21,324.95 621.54,418.96 670.46,372.34 			"/>
			<polygon class="st2" points="441.78,590.28 478.16,555.6 480.81,186.09 444.93,150.85 			"/>
			<polygon class="st2" points="569.45,273.14 533.57,237.9 531.66,504.62 568.04,469.94 			"/>
			<polygon class="st2" points="174.86,468.62 210.74,503.78 212.64,238.75 176.25,274.49 			"/>
			<polygon class="st2" points="392.18,99.03 373.54,80.73 356.05,97.91 352.14,642.37 369.38,659.27 388.28,641.26 			"/>
			<polygon class="st2" points="302.54,150.46 266.15,186.2 263.5,555.49 299.38,590.66 			"/>
			<polygon class="st2" points="122.74,327.04 76.62,372.34 122.1,416.91 			"/>
		</g>
		<polygon class="st3" points="367.83,617.04 117.8,372 371.38,122.96 624.96,372 		"/>
		<path d="M372.45,175.49c-12.06,22.79,2.01,35.52-13.4,68.36c-8.71-6.7-4.02-31.5-20.1-32.17c2.01,8.04,0.67,10.72,0,13.4
			c-2.01,11.39-5.36,20.77,2.01,34.85c-11.39-5.36-12.06-15.41-21.44-22.11c2.01,10.72-2.68,32.84,10.05,54.28
			c-11.39-1.34-15.41-5.36-27.48-17.42c12.73,67.02,22.79,69.03,70.37,73.05c-4.02-0.67-28.15-4.69-36.86-32.17
			c0-6.7-0.67,6.03,22.79,6.7c-14.74-23.46-10.72-18.76-9.38-32.17c6.7,8.71,1.34,10.05,18.09,16.75
			c-5.36-17.42,8.71-28.82,5.36-48.92c4.02,8.71,17.42,7.37,16.75,48.92c11.39-12.73,12.06-4.02,17.42-17.42
			c0.67,7.37,4.02,16.75-11.39,32.84c4.02,1.34,10.72,2.01,20.77-5.36c-10.05,12.06-0.67,12.06-26.81,30.83
			c32.84,0.67,54.28-20.1,53.61-65c-1.34,4.02-2.01,12.06-19.43,14.07c10.72-10.72,16.75-32.84,8.04-50.26
			c-3.35,2.68-8.04,16.08-19.43,19.43c5.36-9.38,4.02-21.44,4.02-21.44s2.01-16.75-8.04-30.16c-2.68,20.1-2.68,30.83-15.41,33.51
			c2.01-11.39,2.68-17.42-4.02-30.83C381.83,202.96,373.79,188.89,372.45,175.49z M318.17,359.11v12.06h114.6v-12.06H318.17z"/>
	</g>
	<rect x="348.83" y="536.34" class="st1" width="29.74" height="59.85"/>
	<text transform="matrix(0.9131 0 0 1 359.2021 580.4053)" class="st4 st5 st6">4</text>
	<polygon class="st1" points="158.34,382.33 592.18,386.35 583.62,451.48 149.78,447.47 	"/>
	<g class="st7">
		<path class="st4" d="M193.93,399.86l-0.17,9.72c0,0.24-0.49,2.49-0.75,3.62l-18.15-0.31l0.25-14.44c0.03-1.86,0.17-3.1,0.35-3.87
			c-1.09-0.02-2.46-0.12-2.9-0.29l0.75-3.58c1.04,0.22,3.34,0.26,5.56,0.3l8.15,0.14C192.95,391.25,194.05,392.96,193.93,399.86z
			 M186.8,394.81l-8.59-0.15l-0.25,14.6l12.74,0.22l0.15-8.71C190.92,396.78,190.51,394.88,186.8,394.81z"/>
		<path class="st4" d="M200.39,403.72c1.7-2.55,2.62-4.51,2.65-6.13c0.02-1.33-0.74-1.79-2.58-2.34c-0.96-0.3-1.77-0.56-2.45-0.85
			l0.75-3.54c0.56,0.21,1.36,0.47,2.37,0.73c3.82,0.91,5.13,2.15,5.07,5.13c-0.04,2.54-1.3,5.34-3.33,8.25L200.39,403.72z"/>
		<path class="st4" d="M216.63,409.57c4.86-1.33,8.95-4.53,9.06-10.57c0.04-2.58-0.87-3.52-3.93-3.58l-5.52-0.1
			c-2.74-0.05-5.32-0.09-5.96-0.38l0.75-3.54c1.12,0.22,3.3,0.22,5.92,0.26l5.65,0.1c5.16,0.09,6.34,1.88,6.26,6.4
			c-0.15,8.71-6.05,14.13-12.9,15.75L216.63,409.57z M210.96,401.32l3.15,0.05l-0.34,19.92l-3.15-0.05L210.96,401.32z"/>
		<path class="st4" d="M232.62,410.41c0.93-0.15,3.23-0.15,5.53-0.11l6.25,0.11c-1.11-1.15-3.6-4.38-7.85-10.22
			c-2.01-2.78-4.37-6-5.99-8.13l4.52-0.32c1.65,2.45,4.4,6.61,6.61,9.71c3.09-1.2,3.6-2.96,3.64-5.18c0.02-1.21-0.39-2.83-0.86-3.97
			l3.96-0.29c0.31,0.97,0.49,2.19,0.46,3.48c-0.07,3.83-1.56,6.39-5.83,8.09c3.31,4.57,5.48,7.07,6.16,7.61l-0.74,2.97l-10.81-0.19
			c-2.7-0.05-5.08-0.05-5.97,0.02L232.62,410.41z"/>
		<path class="st4" d="M256.61,401.67c0.06-3.47-0.32-4.72-3.45-5.54c-1.41-0.39-2.17-0.56-2.73-0.81l0.75-3.54
			c0.52,0.21,1.32,0.43,2.77,0.69c4.5,1.05,5.93,2.56,5.82,8.69l-0.23,13.19l-3.15-0.05L256.61,401.67z"/>
		<path class="st4" d="M267.04,402.09c0.63-4.02-0.95-5.62-3.48-6.27l0.79-3.74c3.22,0.58,5.12,2.67,5.43,5.78
			c0.97-2.44,3.44-5.59,7.92-5.51c6.29,0.11,7.72,5.9,7.59,13.68l-0.09,5.16c-0.01,0.36-0.5,3.02-0.63,3.58l-7.94-0.14
			c-1.61-0.03-3.71-0.02-4.56,0.04l0.75-3.58c0.85-0.15,2.75-0.11,4.96-0.08l4.23,0.07c0.07-1.69,0.1-3.35,0.13-4.96
			c0.09-5.08-0.47-10.05-5.19-10.13c-4.48-0.08-6.12,4.33-6.78,7.06c-0.69,2.69-1.62,7.55-2.42,11.41l-3.15-0.05
			C265.49,410.29,266.55,405.07,267.04,402.09z"/>
		<path class="st4" d="M319.39,402.03l-0.17,9.72c0,0.24-0.49,2.49-0.75,3.62l-18.15-0.31l0.25-14.44c0.03-1.85,0.17-3.1,0.35-3.87
			c-1.09-0.02-2.46-0.12-2.9-0.29l0.75-3.58c1.05,0.22,3.34,0.26,5.56,0.3l8.15,0.14C318.41,393.42,319.51,395.13,319.39,402.03z
			 M312.26,396.98l-8.59-0.15l-0.25,14.6l12.74,0.22l0.15-8.71C316.38,398.95,315.97,397.05,312.26,396.98z"/>
		<path class="st4" d="M324.85,405.87c1.7-2.55,2.62-4.51,2.65-6.13c0.02-1.33-0.74-1.79-2.58-2.34c-0.96-0.3-1.76-0.55-2.45-0.85
			l0.75-3.54c0.56,0.21,1.36,0.47,2.37,0.73c3.82,0.91,5.13,2.15,5.07,5.13c-0.04,2.54-1.3,5.34-3.33,8.25L324.85,405.87z"/>
		<path class="st4" d="M336.07,402.96c0.05-2.7,0.2-4.8,0.42-5.6c-0.72-0.05-2.66-0.21-2.94-0.25l0.75-3.62
			c0.84,0.22,2.86,0.25,5.6,0.3l7.3,0.13c5.89,0.1,6.99,1.94,6.87,8.63l-0.23,13.43l-3.15-0.05l0.21-12.26
			c0.08-4.44-0.3-6.01-4.13-6.08l-7.5-0.13l-0.32,18.27l-3.1-0.05L336.07,402.96z"/>
		<path class="st4" d="M365.51,412.14c4.86-1.33,8.95-4.53,9.06-10.57c0.04-2.58-0.87-3.52-3.93-3.58l-5.52-0.1
			c-2.74-0.05-5.32-0.09-5.96-0.39l0.75-3.54c1.13,0.22,3.3,0.22,5.92,0.26l5.65,0.1c5.16,0.09,6.34,1.88,6.26,6.4
			c-0.15,8.71-6.05,14.13-12.9,15.75L365.51,412.14z M359.85,403.9l3.14,0.05l-0.34,19.92l-3.14-0.05L359.85,403.9z"/>
		<path class="st4" d="M383.29,412.73c5.39-1.52,9.66-5.64,9.76-11.33c0.04-2.54-0.96-3.04-3.09-3.08l-9.6-0.17l0.1-5.81
			c0.04-2.46-0.03-5.41-0.45-6.42l3.28-0.51c0.23,0.53,0.35,3.27,0.29,6.26l-0.05,2.86l7.78,0.13c4.11,0.07,5.04,2.14,4.98,5.73
			c-0.16,9.07-7.4,15.12-13.79,16.42L383.29,412.73z"/>
		<path class="st4" d="M399.17,413.29c0.61-0.11,1.17-0.18,3.31-0.14l0.6,0.01c0.03-3.91-0.15-12.02-0.39-14.61l-0.12,0
			c-0.73-0.01-2.42-0.08-3.06-0.34l0.79-3.54c1.25,0.26,3.87,0.23,6.33,0.27l6.61,0.12c5.93,0.1,7.03,1.53,6.91,8.43l-0.24,13.63
			l-3.15-0.05l0.22-12.5c0.07-3.99-0.34-5.77-4.09-5.84l-7.1-0.12c0.16,2.58,0.44,11.83,0.35,14.65l-0.63,3.62l-3.19-0.05
			c-1.61-0.03-3.06-0.01-3.99,0.09L399.17,413.29z"/>
		<path class="st4" d="M427.42,404.87c0.63-4.02-0.95-5.62-3.48-6.27l0.79-3.74c3.22,0.58,5.12,2.67,5.43,5.78
			c0.97-2.44,3.44-5.59,7.92-5.51c6.29,0.11,7.72,5.9,7.59,13.68l-0.09,5.16c-0.01,0.36-0.5,3.02-0.63,3.58l-7.94-0.14
			c-1.61-0.03-3.71-0.02-4.56,0.04l0.75-3.58c0.85-0.15,2.74-0.11,4.96-0.07l4.23,0.07c0.07-1.69,0.1-3.35,0.13-4.96
			c0.09-5.08-0.47-10.05-5.19-10.13c-4.48-0.08-6.12,4.33-6.78,7.06c-0.69,2.69-1.62,7.55-2.42,11.41l-3.14-0.05
			C425.87,413.07,426.93,407.84,427.42,404.87z"/>
		<path class="st4" d="M479.77,404.8l-0.17,9.72c0,0.24-0.49,2.49-0.75,3.62l-18.15-0.31l0.25-14.44c0.03-1.86,0.17-3.1,0.35-3.87
			c-1.09-0.02-2.46-0.12-2.9-0.29l0.75-3.58c1.04,0.22,3.34,0.26,5.56,0.3l8.15,0.14C478.79,396.2,479.89,397.91,479.77,404.8z
			 M472.64,399.76l-8.59-0.15l-0.25,14.6l12.74,0.22l0.15-8.71C476.76,401.73,476.35,399.82,472.64,399.76z"/>
		<path class="st4" d="M485.23,408.65c1.7-2.55,2.62-4.51,2.65-6.12c0.02-1.33-0.74-1.79-2.58-2.34c-0.96-0.3-1.77-0.56-2.45-0.85
			l0.75-3.54c0.56,0.21,1.36,0.47,2.37,0.73c3.82,0.91,5.12,2.15,5.07,5.13c-0.04,2.54-1.3,5.34-3.33,8.25L485.23,408.65z"/>
		<path class="st4" d="M504.75,406.08c0.07-3.99-0.34-5.77-4.13-5.84l-3.99-0.07c-2.38-0.04-3.91-0.15-4.47-0.32l0.75-3.58
			c0.8,0.18,2.86,0.21,5.6,0.26l2.5,0.04c5.89,0.1,6.99,1.53,6.87,8.43l-0.24,13.63l-3.1-0.05L504.75,406.08z"/>
		<path class="st4" d="M514.99,406.38c0.63-4.02-0.95-5.62-3.48-6.27l0.79-3.74c3.22,0.58,5.12,2.67,5.43,5.78
			c0.97-2.44,3.44-5.59,7.92-5.51c6.29,0.11,7.72,5.9,7.59,13.68l-0.09,5.16c-0.01,0.36-0.5,3.02-0.63,3.58l-7.94-0.14
			c-1.61-0.03-3.71-0.02-4.56,0.04l0.75-3.58c0.85-0.15,2.75-0.11,4.96-0.08l4.23,0.07c0.07-1.69,0.1-3.35,0.13-4.96
			c0.09-5.08-0.47-10.05-5.19-10.13c-4.48-0.08-6.12,4.33-6.78,7.06c-0.69,2.69-1.62,7.56-2.42,11.41l-3.15-0.05
			C513.43,414.58,514.49,409.36,514.99,406.38z"/>
		<path class="st4" d="M542.29,406.61c0.06-3.47-0.32-4.72-3.45-5.55c-1.4-0.39-2.17-0.56-2.73-0.81l0.75-3.54
			c0.52,0.21,1.32,0.43,2.77,0.69c4.5,1.05,5.92,2.56,5.82,8.69l-0.23,13.19l-3.14-0.05L542.29,406.61z"/>
		<path class="st4" d="M551.92,406.7c0.05-2.7,0.2-4.8,0.42-5.6c-0.72-0.05-2.66-0.21-2.94-0.25l0.75-3.62
			c0.84,0.22,2.86,0.25,5.6,0.3l7.3,0.13c5.89,0.1,6.99,1.94,6.87,8.63l-0.23,13.43l-3.15-0.05l0.21-12.26
			c0.08-4.44-0.3-6.01-4.13-6.08l-7.5-0.13l-0.32,18.27l-3.11-0.05L551.92,406.7z"/>
	</g>
	<g class="st7">
		<path class="st4" d="M228.65,449.2h11.38v2.26h-8.62v7.06h8v2.26h-8v9.56h-2.76V449.2z"/>
		<path class="st4" d="M243.89,449.2h2.76v18.81h9.03v2.32h-11.79V449.2z"/>
		<path class="st4" d="M262.14,463.69l-2.16,6.65h-2.85l7.21-21.13h3.26l7.21,21.13h-2.92l-2.26-6.65H262.14z M269.07,461.56
			l-2.07-6.08c-0.47-1.38-0.78-2.63-1.1-3.86h-0.09c-0.28,1.25-0.63,2.54-1.03,3.83l-2.07,6.11H269.07z"/>
		<path class="st4" d="M295.63,461.06c-0.19-2.92-0.38-6.49-0.34-9.09h-0.09c-0.72,2.45-1.66,5.3-2.7,8.12l-3.67,10.13h-2.16
			l-3.36-10.07c-1.03-2.98-1.85-5.71-2.41-8.18h-0.09c-0.09,2.6-0.19,6.11-0.41,9.31l-0.56,9.06h-2.6l1.47-21.13h3.48l3.61,10.25
			c0.88,2.54,1.57,5.05,2.1,7.24h0.09c0.53-2.13,1.29-4.61,2.26-7.27L294,449.2h3.48l1.32,21.13h-2.7L295.63,461.06z"/>
		<path class="st4" d="M320.84,461.06c-0.19-2.92-0.38-6.49-0.34-9.09h-0.09c-0.72,2.45-1.66,5.3-2.7,8.12l-3.67,10.13h-2.16
			l-3.36-10.07c-1.03-2.98-1.85-5.71-2.41-8.18h-0.09c-0.09,2.6-0.19,6.11-0.41,9.31l-0.56,9.06h-2.6l1.47-21.13h3.48l3.61,10.25
			c0.88,2.54,1.57,5.05,2.1,7.24h0.09c0.53-2.13,1.29-4.61,2.26-7.27l3.76-10.22h3.48l1.32,21.13h-2.7L320.84,461.06z"/>
		<path class="st4" d="M331.32,463.69l-2.16,6.65h-2.85l7.21-21.13h3.26l7.21,21.13h-2.92l-2.26-6.65H331.32z M338.25,461.56
			l-2.07-6.08c-0.47-1.38-0.78-2.63-1.1-3.86h-0.09c-0.28,1.25-0.63,2.54-1.03,3.83l-2.07,6.11H338.25z"/>
		<path class="st4" d="M347.06,449.48c1.22-0.25,3.14-0.44,5.02-0.44c2.73,0,4.48,0.47,5.77,1.54c1.13,0.82,1.79,2.07,1.79,3.73
			c0,2.04-1.38,3.86-3.57,4.64v0.06c2.01,0.5,4.36,2.13,4.36,5.33c0,1.79-0.69,3.17-1.82,4.2c-1.44,1.35-3.83,1.98-7.27,1.98
			c-1.91,0-3.32-0.13-4.26-0.25V449.48z M349.82,458.17h2.48c2.85,0,4.58-1.54,4.58-3.58c0-2.48-1.88-3.45-4.64-3.45
			c-1.25,0-1.98,0.09-2.41,0.19V458.17z M349.82,468.27c0.56,0.09,1.29,0.12,2.29,0.12c2.82,0,5.46-1.03,5.46-4.08
			c0-2.92-2.51-4.11-5.49-4.11h-2.26V468.27z"/>
		<path class="st4" d="M364.06,449.2h2.76v18.81h9.03v2.32h-11.79V449.2z"/>
		<path class="st4" d="M389.8,460.43h-8.18v7.65h9.16v2.26h-11.92V449.2h11.45v2.26h-8.69v6.71h8.18V460.43z"/>
		<path class="st4" d="M400.59,467.01c1.22,0.75,3.01,1.38,4.89,1.38c2.79,0,4.42-1.47,4.42-3.61c0-1.98-1.13-3.1-4.01-4.2
			c-3.42-1.19-5.55-3.04-5.55-5.99c0-3.26,2.73-5.71,6.84-5.71c2.13,0,3.73,0.5,4.67,1l-0.75,2.23c-0.69-0.38-2.1-1-4.01-1
			c-2.88,0-3.98,1.72-3.98,3.17c0,1.98,1.29,2.95,4.2,4.08c3.58,1.41,5.39,3.1,5.39,6.21c0,3.26-2.41,6.11-7.4,6.11
			c-2.07,0-4.3-0.63-5.42-1.38L400.59,467.01z"/>
		<path class="st4" d="M434.49,459.74c0,7.02-4.48,10.94-9.82,10.94c-5.71,0-9.5-4.48-9.5-10.79c0-6.49,4.04-11.04,9.88-11.04
			C431.07,448.86,434.49,453.62,434.49,459.74z M418.09,459.8c0,4.8,2.45,8.65,6.74,8.65c4.45,0,6.77-4.04,6.77-8.65
			c0-4.33-2.1-8.72-6.74-8.72C420.47,451.08,418.09,455.04,418.09,459.8z"/>
		<path class="st4" d="M438,449.2h2.76v18.81h9.03v2.32H438V449.2z"/>
		<path class="st4" d="M455.57,449.2v21.13h-2.76V449.2H455.57z"/>
		<path class="st4" d="M460.3,449.48c1.69-0.25,3.67-0.44,5.83-0.44c3.92,0,6.71,0.91,8.56,2.63c1.88,1.72,2.98,4.2,2.98,7.59
			c0,3.45-1.07,6.24-3.04,8.22c-2.01,1.98-5.24,3.04-9.34,3.04c-1.94,0-3.57-0.09-4.99-0.25V449.48z M463.06,468.17
			c0.69,0.13,1.69,0.16,2.76,0.16c5.83,0,9-3.26,9-8.97c0.03-4.99-2.79-8.15-8.56-8.15c-1.41,0-2.48,0.16-3.2,0.28V468.17z"/>
		<path class="st4" d="M480.84,467.01c1.22,0.75,3.01,1.38,4.89,1.38c2.79,0,4.42-1.47,4.42-3.61c0-1.98-1.13-3.1-4.01-4.2
			c-3.42-1.19-5.55-3.04-5.55-5.99c0-3.26,2.73-5.71,6.84-5.71c2.13,0,3.73,0.5,4.67,1l-0.75,2.23c-0.69-0.38-2.1-1-4.01-1
			c-2.88,0-3.98,1.72-3.98,3.17c0,1.98,1.29,2.95,4.2,4.08c3.57,1.41,5.39,3.1,5.39,6.21c0,3.26-2.41,6.11-7.4,6.11
			c-2.07,0-4.3-0.63-5.42-1.38L480.84,467.01z"/>
	</g>
</g>
</svg>
