<?xml version="1.0" encoding="utf-8"?>
<!-- Generator: Adobe Illustrator 28.3.0, SVG Export Plug-In . SVG Version: 6.00 Build 0)  -->
<svg version="1.1" id="Layer_1" xmlns="http://www.w3.org/2000/svg" xmlns:xlink="http://www.w3.org/1999/xlink" x="0px" y="0px"
	 viewBox="0 0 746 740" style="enable-background:new 0 0 746 740;" xml:space="preserve">
<style type="text/css">
	.st0{fill:#C82127;}
	.st1{fill:none;}
	.st2{fill:#FFFFFF;}
	.st3{fill:none;stroke:#3B3A3C;stroke-miterlimit:10;}
	.st4{fill:#231F20;}
	.st5{font-family:'AdobeArabic-Regular';}
	.st6{font-size:60.1694px;}
	.st7{font-family:'MyriadHebrew-Regular';}
	.st8{font-size:40.3202px;}
	.st9{font-size:31.3602px;}
</style>
<g>
	<g>
		<polygon class="st0" points="368.3,659.27 75.54,372.34 372.46,80.73 669.38,372.34 		"/>
		<rect x="112.08" y="63" class="st1" width="509.96" height="614"/>
		<g>
			<polygon class="st2" points="622.21,324.95 621.54,418.96 670.46,372.34 			"/>
			<polygon class="st2" points="441.78,590.28 478.16,555.6 480.81,186.09 444.93,150.85 			"/>
			<polygon class="st2" points="569.45,273.14 533.57,237.9 531.66,504.62 568.04,469.94 			"/>
			<polygon class="st2" points="174.86,468.62 210.74,503.78 212.64,238.75 176.25,274.49 			"/>
			<polygon class="st2" points="392.18,99.03 373.54,80.73 356.05,97.91 352.14,642.37 369.38,659.27 388.28,641.26 			"/>
			<polygon class="st2" points="302.54,150.46 266.15,186.2 263.5,555.49 299.38,590.66 			"/>
			<polygon class="st2" points="122.74,327.04 76.62,372.34 122.1,416.91 			"/>
		</g>
		<polygon class="st3" points="367.83,617.04 117.8,372 371.38,122.96 624.96,372 		"/>
		<path d="M372.45,175.49c-12.06,22.79,2.01,35.52-13.4,68.36c-8.71-6.7-4.02-31.5-20.1-32.17c2.01,8.04,0.67,10.72,0,13.4
			c-2.01,11.39-5.36,20.77,2.01,34.85c-11.39-5.36-12.06-15.41-21.44-22.11c2.01,10.72-2.68,32.84,10.05,54.28
			c-11.39-1.34-15.41-5.36-27.48-17.42c12.73,67.02,22.79,69.03,70.37,73.05c-4.02-0.67-28.15-4.69-36.86-32.17
			c0-6.7-0.67,6.03,22.79,6.7c-14.74-23.46-10.72-18.76-9.38-32.17c6.7,8.71,1.34,10.05,18.09,16.75
			c-5.36-17.42,8.71-28.82,5.36-48.92c4.02,8.71,17.42,7.37,16.75,48.92c11.39-12.73,12.06-4.02,17.42-17.42
			c0.67,7.37,4.02,16.75-11.39,32.84c4.02,1.34,10.72,2.01,20.77-5.36c-10.05,12.06-0.67,12.06-26.81,30.83
			c32.84,0.67,54.28-20.1,53.61-65c-1.34,4.02-2.01,12.06-19.43,14.07c10.72-10.72,16.75-32.84,8.04-50.26
			c-3.35,2.68-8.04,16.08-19.43,19.43c5.36-9.38,4.02-21.44,4.02-21.44s2.01-16.75-8.04-30.16c-2.68,20.1-2.68,30.83-15.41,33.51
			c2.01-11.39,2.68-17.42-4.02-30.83C381.83,202.96,373.79,188.89,372.45,175.49z M318.17,359.11v12.06h114.6v-12.06H318.17z"/>
	</g>
	<rect x="348.83" y="536.34" class="st1" width="29.74" height="59.85"/>
	<text transform="matrix(0.9131 0 0 1 359.2025 580.4053)" class="st4 st5 st6">4</text>
	<polygon class="st1" points="158.34,382.33 592.18,386.35 583.62,451.48 149.78,447.47 	"/>
	<text transform="matrix(0.9999 0.0173 -0.0173 0.9999 162.3721 412.6627)" class="st4 st7 st8">םיקצומ םיחקלתמ םירמוח</text>
	<text transform="matrix(1 0 0 1 226.2943 470.3369)" class="st4 st7 st9">FLAMMABLE SOLIDS</text>
</g>
</svg>
