<?xml version="1.0" encoding="utf-8"?>
<!-- Generator: Adobe Illustrator 28.3.0, SVG Export Plug-In . SVG Version: 6.00 Build 0)  -->
<svg version="1.1" id="Layer_1" xmlns="http://www.w3.org/2000/svg" xmlns:xlink="http://www.w3.org/1999/xlink" x="0px" y="0px"
	 viewBox="0 0 746 740" style="enable-background:new 0 0 746 740;" xml:space="preserve">
<style type="text/css">
	.st0{fill:#FFFFFF;stroke:#323031;stroke-miterlimit:10;stroke-dasharray:6;}
	.st1{fill:none;stroke:#3B3A3C;stroke-miterlimit:10;}
	.st2{fill:none;}
	.st3{fill:#231F20;}
	.st4{font-family:'AdobeArabic-Regular';}
	.st5{font-size:58.2414px;}
	.st6{font-family:'MyriadHebrew-Regular';}
	.st7{font-size:39.0282px;}
	.st8{font-size:21.6824px;}
</style>
<g>
	<g>
		<g>
			<polygon class="st0" points="368.98,650 85.6,372.26 373,90 660.4,372.26 			"/>
			<polygon class="st1" points="369.56,609.13 127.55,371.93 373,130.87 618.45,371.93 			"/>
		</g>
		<g>
			<path d="M367.73,273.49c-0.86,0.43-1.81,0.83-2.69,1.36c-1.13,0.69-1.77,0.35-2.55-0.66c-4.43-5.81-10.18-9.75-17.18-11.86
				c-19.09-5.76-39.32,7-42.22,26.59c-0.77,5.24-0.31,10.34,1.27,15.38c0.18,0.58-0.05,1.28-0.1,1.93c-0.34,0.03-0.69,0.07-1.03,0.1
				c-0.89-3.19-2.07-6.34-2.64-9.59c-3.96-22.64,7.57-43.38,28.91-52.05c1.68-0.68,1.32-1.55,1.16-2.85
				c-1.66-13.35,1.58-25.39,10.07-35.87c7.23-8.92,16.65-14.3,27.9-16.5c0.81-0.16,1.65-0.16,2.48-0.24
				c0.67,1.67-0.6,1.64-1.46,1.83c-6.6,1.45-12.31,4.56-16.87,9.51c-8.99,9.78-11.66,21.24-7.36,33.75
				c4.29,12.46,13.51,19.65,26.44,22.06c0.88,0.16,1.8,0.1,3,0.15c0,1.35,0.05,2.63-0.04,3.89c-0.02,0.33-0.43,0.75-0.76,0.92
				C368.33,264.24,366.82,267.06,367.73,273.49z"/>
			<path d="M309.11,316.05c0.97-1.3,1.53-0.48,2.16,0.22c5.56,6.11,12.5,9.66,20.63,10.77c15.1,2.06,30.22-7.27,35.35-21.76
				c2.93-8.26,2.5-16.44-0.85-24.5c-0.2-0.48-0.41-0.95-0.61-1.43c-0.02-0.05,0.01-0.13,0.04-0.47c1.01-0.49,2.11-1.15,3.31-1.56
				c0.49-0.17,1.26,0.05,1.73,0.36c3.7,2.46,7.37,2.47,11.14,0.15c0.49-0.3,1.34-0.38,1.88-0.18c1.2,0.44,2.3,1.13,3.2,1.59
				c-0.89,3.54-1.93,6.81-2.51,10.17c-2.74,15.98,7.78,32.34,23.62,36.46c13.14,3.41,24.5,0.09,33.86-9.85
				c0.42-0.44,1.13-0.61,1.7-0.91c0.14,0.2,0.28,0.4,0.43,0.6c-0.34,0.51-0.64,1.07-1.03,1.54c-10.55,12.41-24.04,18.06-40.2,16.94
				c-9.14-0.63-17.44-3.92-24.58-9.78c-1.15-0.94-1.86-1.07-3.1-0.05c-19.73,16.1-49.2,12.95-65.2-6.91
				C309.72,317.01,309.43,316.52,309.11,316.05z"/>
			<path d="M450.43,306.02c-1.84-0.4-1.06-1.44-0.82-2.3c3.03-10.88,1.42-20.99-5.38-30.06c-12.98-17.34-39.1-17.49-52.41-0.4
				c-0.59,0.76-1.18,1.53-1.87,2.44c-1.45-0.68-2.83-1.33-4.25-2c0.68-2.92,0.91-5.75-0.84-8.17c-0.99-1.38-2.28-2.87-3.77-3.48
				c-1.94-0.8-2.3-1.93-2.09-3.68c0.06-0.51,0.06-1.02,0.09-1.6c2.38-0.47,4.73-0.82,7.03-1.42c12.62-3.31,22.22-14.91,23.82-27.91
				c2.1-16.97-9.7-33.05-26-36.36c-0.25-0.05-0.56-0.07-0.74-0.22c-0.34-0.3-0.59-0.7-0.89-1.05c0.42-0.16,0.86-0.51,1.26-0.47
				c4.76,0.48,9.29,1.86,13.53,4.01c15.21,7.73,23.93,20.16,26.05,37.04c0.49,3.87-0.04,7.9-0.33,11.83
				c-0.11,1.41,0.35,1.88,1.51,2.37c14.39,6.05,23.8,16.58,28,31.61c2.61,9.32,2.15,18.61-1.02,27.75
				C451.08,304.61,450.76,305.24,450.43,306.02z"/>
			<path d="M403.2,237.39c-1.78,2.32-3.52,4.56-5.24,6.83c-0.65,0.86-1.24,0.81-2.12,0.22c-12.61-8.44-25.59-8.43-38.18-0.06
				c-0.44,0.29-1.52,0.37-1.76,0.09c-2-2.35-3.87-4.81-5.77-7.22C364.43,225.04,387.74,224.28,403.2,237.39z"/>
			<path d="M408.78,270.81c0-0.65,0.02-1.3,0-1.95c-0.09-3.09-0.11-3.17,2.95-3.68c1.91-0.32,3.87-0.45,5.81-0.46
				c0.48,0,1.34,0.76,1.39,1.25c1.37,11.84-1.97,22.32-9.41,31.53c-4.15,5.14-9.35,8.95-15.31,11.79c-1.37,0.65-2.18,0.42-2.76-0.92
				c-0.87-2.02-1.77-4.02-2.62-6.05c-0.55-1.31-0.11-1.98,1.25-2.62c9.33-4.45,15.45-11.66,17.94-21.75
				c0.57-2.31,0.65-4.74,0.96-7.11C408.92,270.83,408.85,270.82,408.78,270.81z"/>
			<path d="M344.38,270.17c0.5,13.55,6.6,23.56,18.91,29.57c1.24,0.61,1.7,1.17,1.13,2.49c-0.87,2.01-1.66,4.07-2.47,6.11
				c-0.55,1.37-1.35,1.58-2.72,0.93c-9.62-4.58-16.81-11.56-21.35-21.24c-3.13-6.68-4.21-13.7-3.77-21.01
				c0.1-1.7,0.62-2.69,2.55-2.37c1.08,0.18,2.2,0.15,3.28,0.34C344.44,265.74,344.44,265.76,344.38,270.17z"/>
		</g>
	</g>
	<rect x="352.88" y="527.38" class="st2" width="28.79" height="57.94"/>
	<text transform="matrix(0.9131 0 0 1 362.9189 570.0391)" class="st3 st4 st5">6</text>
	<polygon class="st2" points="167.18,341.3 587.11,346.44 578.82,429.83 158.89,424.69 	"/>
	<text transform="matrix(0.9999 0.0173 -0.0173 0.9999 310.9355 374.3353)"><tspan x="0" y="0" class="st3 st6 st7">!תוריהז</tspan><tspan x="-68.93" y="46.83" class="st3 st6 st7">םיקבדמ םירמוח</tspan></text>
	<rect x="209.84" y="441.26" class="st2" width="323.54" height="93.54"/>
	<text transform="matrix(1 0 0 1 332.4599 459.4062)"><tspan x="0" y="0" class="st3 st6 st8">DANGER</tspan><tspan x="-77.27" y="26.02" class="st3 st6 st8">INFECTIOUS SUBSTANCES</tspan></text>
</g>
</svg>
