<?xml version="1.0" encoding="utf-8"?>
<!-- Generator: Adobe Illustrator 28.3.0, SVG Export Plug-In . SVG Version: 6.00 Build 0)  -->
<svg version="1.1" id="Layer_1" xmlns="http://www.w3.org/2000/svg" xmlns:xlink="http://www.w3.org/1999/xlink" x="0px" y="0px"
	 viewBox="0 0 746 740" style="enable-background:new 0 0 746 740;" xml:space="preserve">
<style type="text/css">
	.st0{fill:#FFFFFF;stroke:#323031;stroke-miterlimit:10;stroke-dasharray:6;}
	.st1{fill:none;stroke:#3B3A3C;stroke-miterlimit:10;}
	.st2{fill:none;}
	.st3{fill:#231F20;}
	.st4{font-family:'AdobeArabic-Bold';}
	.st5{font-size:58.2414px;}
	.st6{enable-background:new    ;}
</style>
<g>
	<g>
		<g>
			<polygon class="st0" points="368.98,650 85.6,372.26 373,90 660.4,372.26 			"/>
			<polygon class="st1" points="369.56,609.13 127.55,371.93 373,130.87 618.45,371.93 			"/>
		</g>
		<g>
			<path d="M367.73,273.49c-0.86,0.43-1.81,0.83-2.69,1.36c-1.13,0.69-1.77,0.35-2.55-0.66c-4.43-5.81-10.18-9.75-17.18-11.86
				c-19.09-5.76-39.32,7-42.22,26.59c-0.77,5.24-0.31,10.34,1.27,15.38c0.18,0.58-0.05,1.28-0.1,1.93c-0.34,0.03-0.69,0.07-1.03,0.1
				c-0.89-3.19-2.07-6.34-2.64-9.59c-3.96-22.64,7.57-43.38,28.91-52.05c1.68-0.68,1.32-1.55,1.16-2.85
				c-1.66-13.35,1.58-25.39,10.07-35.87c7.23-8.92,16.65-14.3,27.9-16.5c0.81-0.16,1.65-0.16,2.48-0.24
				c0.67,1.67-0.6,1.64-1.46,1.83c-6.6,1.45-12.31,4.56-16.87,9.51c-8.99,9.78-11.66,21.24-7.36,33.75
				c4.29,12.46,13.51,19.65,26.44,22.06c0.88,0.16,1.8,0.1,3,0.15c0,1.35,0.05,2.63-0.04,3.89c-0.02,0.33-0.43,0.75-0.76,0.92
				C368.33,264.24,366.82,267.06,367.73,273.49z"/>
			<path d="M309.11,316.05c0.97-1.3,1.53-0.48,2.16,0.22c5.56,6.11,12.5,9.66,20.63,10.77c15.1,2.06,30.22-7.27,35.35-21.76
				c2.93-8.26,2.5-16.44-0.85-24.5c-0.2-0.48-0.41-0.95-0.61-1.43c-0.02-0.05,0.01-0.13,0.04-0.47c1.01-0.49,2.11-1.15,3.31-1.56
				c0.49-0.17,1.26,0.05,1.73,0.36c3.7,2.46,7.37,2.47,11.14,0.15c0.49-0.3,1.34-0.38,1.88-0.18c1.2,0.44,2.3,1.13,3.2,1.59
				c-0.89,3.54-1.93,6.81-2.51,10.17c-2.74,15.98,7.78,32.34,23.62,36.46c13.14,3.41,24.5,0.09,33.86-9.85
				c0.42-0.44,1.13-0.61,1.7-0.91c0.14,0.2,0.28,0.4,0.43,0.6c-0.34,0.51-0.64,1.07-1.03,1.54c-10.55,12.41-24.04,18.06-40.2,16.94
				c-9.14-0.63-17.44-3.92-24.58-9.78c-1.15-0.94-1.86-1.07-3.1-0.05c-19.73,16.1-49.2,12.95-65.2-6.91
				C309.72,317.01,309.43,316.52,309.11,316.05z"/>
			<path d="M450.43,306.02c-1.84-0.4-1.06-1.44-0.82-2.3c3.03-10.88,1.42-20.99-5.38-30.06c-12.98-17.34-39.1-17.49-52.41-0.4
				c-0.59,0.76-1.18,1.53-1.87,2.44c-1.45-0.68-2.83-1.33-4.25-2c0.68-2.92,0.91-5.75-0.84-8.17c-0.99-1.38-2.28-2.87-3.77-3.48
				c-1.94-0.8-2.3-1.93-2.09-3.68c0.06-0.51,0.06-1.02,0.09-1.6c2.38-0.47,4.73-0.82,7.03-1.42c12.62-3.31,22.22-14.91,23.82-27.91
				c2.1-16.97-9.7-33.05-26-36.36c-0.25-0.05-0.56-0.07-0.74-0.22c-0.34-0.3-0.59-0.7-0.89-1.05c0.42-0.16,0.86-0.51,1.26-0.47
				c4.76,0.48,9.29,1.86,13.53,4.01c15.21,7.73,23.93,20.16,26.05,37.04c0.49,3.87-0.04,7.9-0.33,11.83
				c-0.11,1.41,0.35,1.88,1.51,2.37c14.39,6.05,23.8,16.58,28,31.61c2.61,9.32,2.15,18.61-1.02,27.75
				C451.08,304.61,450.76,305.24,450.43,306.02z"/>
			<path d="M403.2,237.39c-1.78,2.32-3.52,4.56-5.24,6.83c-0.65,0.86-1.24,0.81-2.12,0.22c-12.61-8.44-25.59-8.43-38.18-0.06
				c-0.44,0.29-1.52,0.37-1.76,0.09c-2-2.35-3.87-4.81-5.77-7.22C364.43,225.04,387.74,224.28,403.2,237.39z"/>
			<path d="M408.78,270.81c0-0.65,0.02-1.3,0-1.95c-0.09-3.09-0.11-3.17,2.95-3.68c1.91-0.32,3.87-0.45,5.81-0.46
				c0.48,0,1.34,0.76,1.39,1.25c1.37,11.84-1.97,22.32-9.41,31.53c-4.15,5.14-9.35,8.95-15.31,11.79c-1.37,0.65-2.18,0.42-2.76-0.92
				c-0.87-2.02-1.77-4.02-2.62-6.05c-0.55-1.31-0.11-1.98,1.25-2.62c9.33-4.45,15.45-11.66,17.94-21.75
				c0.57-2.31,0.65-4.74,0.96-7.11C408.92,270.83,408.85,270.82,408.78,270.81z"/>
			<path d="M344.38,270.17c0.5,13.55,6.6,23.56,18.91,29.57c1.24,0.61,1.7,1.17,1.13,2.49c-0.87,2.01-1.66,4.07-2.47,6.11
				c-0.55,1.37-1.35,1.58-2.72,0.93c-9.62-4.58-16.81-11.56-21.35-21.24c-3.13-6.68-4.21-13.7-3.77-21.01
				c0.1-1.7,0.62-2.69,2.55-2.37c1.08,0.18,2.2,0.15,3.28,0.34C344.44,265.74,344.44,265.76,344.38,270.17z"/>
		</g>
	</g>
	<rect x="352.88" y="527.38" class="st2" width="28.79" height="57.94"/>
	<text transform="matrix(0.9131 0 0 1 362.9189 570.0391)" class="st3 st4 st5">6</text>
	<polygon class="st2" points="167.18,341.3 587.11,346.44 578.82,429.83 158.89,424.69 	"/>
	<g class="st6">
		<path class="st3" d="M322.64,372.55c0.02-1.41,0.98-2.4,2.34-2.38c1.37,0.02,2.29,1.05,2.26,2.46c-0.02,1.37-0.94,2.4-2.35,2.38
			C323.49,374.98,322.61,373.91,322.64,372.55z M323.71,366.98l-0.26-18.74l3.79,0.07l-0.87,18.72L323.71,366.98z"/>
		<path class="st3" d="M330.66,371.32c0.59-0.11,1.14-0.17,3.2-0.14l0.59,0.01c0.03-3.79-0.15-11.64-0.38-14.14l-0.12,0
			c-0.7-0.01-2.34-0.08-2.96-0.32l0.76-3.42c1.21,0.26,3.74,0.22,6.12,0.26l6.4,0.11c5.74,0.1,6.81,1.48,6.69,8.16l-0.23,13.19
			l-3.04-0.05l0.21-12.1c0.07-3.86-0.33-5.59-3.96-5.65l-6.87-0.12c0.15,2.5,0.43,11.45,0.34,14.18l-0.61,3.5l-3.08-0.05
			c-1.56-0.03-2.97-0.01-3.87,0.09L330.66,371.32z"/>
		<path class="st3" d="M359.89,362.96c0.06-3.36-0.31-4.57-3.34-5.37c-1.36-0.38-2.1-0.54-2.64-0.79l0.72-3.42
			c0.5,0.2,1.28,0.41,2.68,0.67c4.36,1.01,5.74,2.48,5.63,8.41l-0.22,12.76l-3.04-0.05L359.89,362.96z"/>
		<path class="st3" d="M378.89,363.41c0.07-3.86-0.33-5.59-4-5.65l-3.86-0.07c-2.3-0.04-3.78-0.14-4.33-0.31l0.72-3.46
			c0.78,0.17,2.77,0.2,5.42,0.25l2.42,0.04c5.7,0.1,6.77,1.48,6.65,8.16l-0.23,13.19l-3.01-0.05L378.89,363.41z"/>
		<path class="st3" d="M387.19,366.36c1.64-2.47,2.53-4.37,2.56-5.93c0.02-1.29-0.71-1.73-2.5-2.27c-0.93-0.29-1.71-0.54-2.37-0.82
			l0.72-3.42c0.54,0.2,1.32,0.45,2.29,0.7c3.69,0.88,4.96,2.08,4.91,4.96c-0.04,2.46-1.26,5.17-3.22,7.99L387.19,366.36z"/>
		<path class="st3" d="M411.39,364.44c0.08-4.33-0.29-6.06-3.95-6.12l-6.63-0.11c-2.3-0.04-3.94-0.15-4.49-0.31l0.72-3.46
			c0.78,0.17,2.73,0.2,5.38,0.25l5.35,0.09c5.54,0.1,6.76,1.72,6.65,8.12l-0.23,13.23l-3.01-0.05L411.39,364.44z M396.98,364.66
			l3.04,0.05l-0.19,11.16l-3.04-0.05L396.98,364.66z"/>
		<path class="st3" d="M421.08,363.75c0.12-2.22,0.49-3.66,1.49-4.66c-1.52-0.26-3.97-0.77-4.86-1.14l0.72-3.46
			c1.7,0.77,8.36,1.78,10.93,1.98l-0.65,3.5c-0.82-0.05-2.26-0.31-2.8-0.36c-1.09-0.06-1.61,0.52-1.77,3.29
			c-0.07,2.03,0.08,9.06,0.28,13.4l-3.08-0.05C421.14,369.64,421.01,365.58,421.08,363.75z"/>
	</g>
	<g class="st6">
		<path class="st3" d="M271.75,407.58l-0.16,9.41c0,0.23-0.47,2.41-0.73,3.5l-17.56-0.3l0.24-13.97c0.03-1.79,0.17-3,0.34-3.74
			c-1.05-0.02-2.38-0.12-2.81-0.28l0.72-3.46c1.01,0.21,3.24,0.25,5.38,0.29l7.88,0.14C270.8,399.24,271.86,400.9,271.75,407.58z
			 M264.84,402.69l-8.31-0.14l-0.24,14.13l12.33,0.21l0.15-8.43C268.83,404.6,268.43,402.75,264.84,402.69z"/>
		<path class="st3" d="M278,411.31c1.64-2.47,2.54-4.37,2.56-5.93c0.02-1.29-0.71-1.73-2.5-2.27c-0.93-0.29-1.71-0.54-2.37-0.82
			l0.72-3.42c0.54,0.2,1.32,0.45,2.29,0.7c3.69,0.88,4.96,2.08,4.91,4.96c-0.04,2.46-1.26,5.17-3.22,7.99L278,411.31z"/>
		<path class="st3" d="M293.83,416.97c4.71-1.29,8.66-4.38,8.77-10.23c0.04-2.5-0.84-3.41-3.81-3.46l-5.35-0.09
			c-2.65-0.05-5.15-0.09-5.77-0.37l0.72-3.42c1.09,0.21,3.2,0.21,5.73,0.26l5.46,0.09c5,0.09,6.14,1.82,6.06,6.19
			c-0.15,8.43-5.86,13.68-12.48,15.24L293.83,416.97z M288.35,408.99l3.04,0.05l-0.33,19.28l-3.04-0.05L288.35,408.99z"/>
		<path class="st3" d="M308.81,417.78c1.17-0.18,3.98-0.13,6.17-0.09l5.93,0.1c0.05-2.65,0.15-6.36,0.11-8.35
			c-0.01-4.18-0.45-5.79-4.15-5.85l-3.4-0.06c-2.26-0.04-3.75-0.14-4.33-0.31l0.76-3.46c0.78,0.17,2.49,0.2,4.99,0.24l3.08,0.05
			c5.58,0.1,6.16,2.68,6.07,8.03l-0.11,6.44c-0.01,0.82-0.12,2.65-0.21,3.31l2.85,0.05l-0.73,3.54l-12.72-0.22
			c-1.68-0.03-4.14-0.07-5.04,0.03L308.81,417.78z"/>
		<path class="st3" d="M326.78,403.53l0.72-3.46c0.78,0.17,2.77,0.2,5.42,0.25l11.47,0.2l-0.76,3.54l-1.48-0.03
			c-1.17-0.02-1.62,0.79-1.66,3.6c-0.08,4.68,0.02,10.23,0.07,14.05l-3.04-0.05c0-2.54-0.12-9.1-0.04-13.35
			c0.05-2.69,0.37-3.59,0.9-4.32l-7.26-0.12C328.8,403.8,327.32,403.7,326.78,403.53z"/>
		<path class="st3" d="M349.78,409.86c0.61-3.89-0.92-5.44-3.37-6.07l0.77-3.62c3.11,0.56,4.95,2.58,5.25,5.59
			c0.94-2.37,3.33-5.41,7.67-5.33c6.09,0.11,7.47,5.71,7.34,13.24l-0.09,5c-0.01,0.35-0.48,2.92-0.61,3.46l-7.69-0.13
			c-1.56-0.03-3.59-0.02-4.41,0.04l0.72-3.46c0.82-0.14,2.66-0.11,4.8-0.07l4.1,0.07c0.07-1.64,0.09-3.24,0.12-4.8
			c0.08-4.92-0.46-9.73-5.02-9.81c-4.33-0.07-5.93,4.19-6.56,6.84c-0.67,2.6-1.57,7.31-2.34,11.05l-3.04-0.05
			C348.28,417.8,349.3,412.74,349.78,409.86z"/>
		<path class="st3" d="M400.45,409.8l-0.16,9.4c0,0.23-0.47,2.41-0.73,3.5L382,422.4l0.24-13.97c0.03-1.79,0.17-3,0.34-3.74
			c-1.05-0.02-2.38-0.12-2.8-0.28l0.72-3.46c1.01,0.21,3.24,0.25,5.38,0.29l7.88,0.14C399.5,401.47,400.56,403.13,400.45,409.8z
			 M393.54,404.92l-8.31-0.14l-0.24,14.13l12.33,0.21l0.15-8.43C397.53,406.82,397.13,404.98,393.54,404.92z"/>
		<path class="st3" d="M405.73,413.52c1.64-2.47,2.53-4.37,2.56-5.93c0.02-1.29-0.71-1.73-2.5-2.27c-0.93-0.29-1.71-0.54-2.37-0.82
			l0.72-3.42c0.54,0.21,1.32,0.45,2.29,0.7c3.69,0.88,4.96,2.08,4.91,4.96c-0.04,2.46-1.26,5.17-3.22,7.99L405.73,413.52z"/>
		<path class="st3" d="M424.63,411.04c0.07-3.86-0.33-5.59-4-5.65l-3.86-0.07c-2.3-0.04-3.78-0.14-4.33-0.31l0.72-3.46
			c0.78,0.17,2.77,0.2,5.42,0.25l2.42,0.04c5.7,0.1,6.77,1.48,6.65,8.16l-0.23,13.19l-3.01-0.05L424.63,411.04z"/>
		<path class="st3" d="M434.54,411.33c0.61-3.89-0.92-5.44-3.37-6.07l0.77-3.62c3.11,0.56,4.95,2.58,5.25,5.6
			c0.94-2.37,3.33-5.41,7.67-5.33c6.09,0.11,7.47,5.71,7.34,13.24l-0.09,5c-0.01,0.35-0.48,2.92-0.61,3.46l-7.69-0.13
			c-1.56-0.03-3.59-0.02-4.41,0.04l0.72-3.46c0.82-0.14,2.66-0.11,4.8-0.07l4.1,0.07c0.07-1.64,0.09-3.24,0.12-4.8
			c0.08-4.92-0.46-9.73-5.02-9.81c-4.33-0.07-5.93,4.19-6.56,6.84c-0.67,2.6-1.57,7.31-2.34,11.05l-3.04-0.05
			C433.04,419.27,434.06,414.21,434.54,411.33z"/>
		<path class="st3" d="M460.96,411.55c0.06-3.36-0.31-4.57-3.34-5.37c-1.36-0.38-2.1-0.54-2.64-0.79l0.72-3.42
			c0.5,0.2,1.28,0.41,2.68,0.67c4.35,1.01,5.74,2.48,5.63,8.41l-0.22,12.76l-3.04-0.05L460.96,411.55z"/>
		<path class="st3" d="M470.29,411.63c0.05-2.62,0.2-4.64,0.41-5.42c-0.7-0.05-2.57-0.2-2.85-0.24l0.72-3.5
			c0.82,0.21,2.77,0.24,5.42,0.29l7.06,0.12c5.7,0.1,6.76,1.88,6.65,8.35l-0.22,13l-3.04-0.05l0.21-11.86
			c0.07-4.29-0.29-5.82-4-5.89l-7.26-0.13l-0.31,17.68l-3.01-0.05L470.29,411.63z"/>
	</g>
	<rect x="209.84" y="441.26" class="st2" width="323.54" height="93.54"/>
	<g class="st6">
		<path class="st3" d="M334.09,444.99c1.17-0.17,2.54-0.3,4.03-0.3c2.71,0,4.64,0.63,5.92,1.82c1.3,1.19,2.06,2.91,2.06,5.25
			c0,2.39-0.74,4.32-2.1,5.68c-1.39,1.37-3.62,2.1-6.46,2.1c-1.34,0-2.47-0.06-3.45-0.17V444.99z M335.99,457.91
			c0.48,0.09,1.17,0.11,1.91,0.11c4.03,0,6.22-2.25,6.22-6.2c0.02-3.45-1.93-5.64-5.92-5.64c-0.98,0-1.71,0.11-2.21,0.2V457.91z"/>
		<path class="st3" d="M350.61,454.81l-1.5,4.6h-1.97l4.99-14.61h2.25l4.99,14.61h-2.02l-1.56-4.6H350.61z M355.4,453.33l-1.43-4.21
			c-0.33-0.95-0.54-1.82-0.76-2.67h-0.06c-0.2,0.87-0.43,1.76-0.72,2.65l-1.43,4.23H355.4z"/>
		<path class="st3" d="M361.49,459.41v-14.61h2.1l4.66,7.37c1.06,1.73,1.93,3.27,2.62,4.77l0.04-0.02
			c-0.17-1.95-0.22-3.73-0.22-5.98v-6.14h1.78v14.61h-1.91l-4.64-7.42c-1.02-1.63-2-3.3-2.73-4.88l-0.07,0.02
			c0.11,1.84,0.15,3.6,0.15,6.03v6.24H361.49z"/>
		<path class="st3" d="M386.9,458.76c-0.85,0.3-2.52,0.8-4.49,0.8c-2.21,0-4.03-0.56-5.46-1.93c-1.26-1.21-2.04-3.17-2.04-5.44
			c0.02-4.34,3.01-7.54,7.91-7.54c1.69,0,3.04,0.39,3.64,0.67l-0.46,1.54c-0.78-0.35-1.76-0.63-3.23-0.63
			c-3.56,0-5.88,2.21-5.88,5.88c0,3.71,2.21,5.9,5.64,5.9c1.24,0,2.08-0.17,2.52-0.39v-4.36h-2.97v-1.52h4.81V458.76z"/>
		<path class="st3" d="M397.33,452.55h-5.66v5.29H398v1.56h-8.24v-14.61h7.91v1.56h-6.01v4.64h5.66V452.55z"/>
		<path class="st3" d="M400.41,444.99c0.98-0.2,2.34-0.3,3.64-0.3c2.02,0,3.32,0.37,4.23,1.19c0.72,0.65,1.15,1.65,1.15,2.78
			c0,1.93-1.21,3.21-2.75,3.73v0.04c1.13,0.41,1.8,1.47,2.15,2.97c0.48,2.06,0.82,3.45,1.13,4.01H408
			c-0.24-0.41-0.56-1.67-0.98-3.49c-0.43-1.99-1.21-2.78-2.93-2.84h-1.78v6.33h-1.91V444.99z M402.32,451.64h1.93
			c2.02,0,3.3-1.11,3.3-2.78c0-1.91-1.37-2.71-3.36-2.73c-0.93,0-1.56,0.09-1.87,0.17V451.64z"/>
	</g>
	<g class="st6">
		<path class="st3" d="M258.72,470.81v14.61h-1.91v-14.61H258.72z"/>
		<path class="st3" d="M262,485.43v-14.61h2.1l4.66,7.37c1.06,1.73,1.93,3.27,2.62,4.77l0.04-0.02c-0.17-1.95-0.22-3.73-0.22-5.98
			v-6.14h1.78v14.61h-1.91l-4.64-7.42c-1.02-1.63-2-3.3-2.73-4.88l-0.07,0.02c0.11,1.84,0.15,3.6,0.15,6.03v6.24H262z"/>
		<path class="st3" d="M276.26,470.81h7.87v1.56h-5.96v4.88h5.53v1.56h-5.53v6.61h-1.91V470.81z"/>
		<path class="st3" d="M294.37,478.57h-5.66v5.29h6.33v1.56h-8.24v-14.61h7.91v1.56h-6.01v4.64h5.66V478.57z"/>
		<path class="st3" d="M307.68,484.97c-0.69,0.33-2.08,0.69-3.88,0.69c-4.1,0-7.2-2.62-7.2-7.42c0-4.58,3.1-7.65,7.63-7.65
			c1.8,0,2.97,0.37,3.47,0.63l-0.46,1.54c-0.72-0.35-1.73-0.61-2.95-0.61c-3.43,0-5.7,2.19-5.7,6.03c0,3.58,2.06,5.88,5.62,5.88
			c1.15,0,2.32-0.24,3.08-0.61L307.68,484.97z"/>
		<path class="st3" d="M313.43,472.42h-4.44v-1.6h10.82v1.6h-4.47v13.01h-1.91V472.42z"/>
		<path class="st3" d="M323.31,470.81v14.61h-1.91v-14.61H323.31z"/>
		<path class="st3" d="M339.1,478.1c0,4.86-3.1,7.57-6.79,7.57c-3.95,0-6.57-3.1-6.57-7.46c0-4.49,2.8-7.63,6.83-7.63
			C336.74,470.57,339.1,473.87,339.1,478.1z M327.76,478.14c0,3.32,1.69,5.98,4.66,5.98c3.08,0,4.68-2.8,4.68-5.98
			c0-2.99-1.45-6.03-4.66-6.03C329.41,472.11,327.76,474.84,327.76,478.14z"/>
		<path class="st3" d="M343.44,470.81v8.7c0,3.23,1.43,4.62,3.4,4.62c2.15,0,3.56-1.43,3.56-4.62v-8.7h1.89v8.54
			c0,4.49-2.34,6.31-5.51,6.31c-2.99,0-5.25-1.69-5.25-6.22v-8.63H343.44z"/>
		<path class="st3" d="M355.32,483.13c0.85,0.52,2.08,0.95,3.38,0.95c1.93,0,3.06-1.02,3.06-2.49c0-1.37-0.78-2.15-2.78-2.91
			c-2.36-0.82-3.84-2.1-3.84-4.14c0-2.25,1.89-3.95,4.73-3.95c1.47,0,2.58,0.35,3.23,0.69l-0.52,1.54
			c-0.48-0.26-1.45-0.69-2.78-0.69c-1.99,0-2.75,1.19-2.75,2.19c0,1.37,0.89,2.04,2.91,2.82c2.47,0.98,3.73,2.15,3.73,4.29
			c0,2.25-1.67,4.23-5.12,4.23c-1.43,0-2.97-0.43-3.75-0.95L355.32,483.13z"/>
		<path class="st3" d="M370.63,483.13c0.85,0.52,2.08,0.95,3.38,0.95c1.93,0,3.06-1.02,3.06-2.49c0-1.37-0.78-2.15-2.78-2.91
			c-2.36-0.82-3.84-2.1-3.84-4.14c0-2.25,1.89-3.95,4.73-3.95c1.47,0,2.58,0.35,3.23,0.69l-0.52,1.54
			c-0.48-0.26-1.45-0.69-2.78-0.69c-1.99,0-2.75,1.19-2.75,2.19c0,1.37,0.89,2.04,2.91,2.82c2.47,0.98,3.73,2.15,3.73,4.29
			c0,2.25-1.67,4.23-5.12,4.23c-1.43,0-2.97-0.43-3.75-0.95L370.63,483.13z"/>
		<path class="st3" d="M383.46,470.81v8.7c0,3.23,1.43,4.62,3.4,4.62c2.15,0,3.56-1.43,3.56-4.62v-8.7h1.89v8.54
			c0,4.49-2.34,6.31-5.51,6.31c-2.99,0-5.25-1.69-5.25-6.22v-8.63H383.46z"/>
		<path class="st3" d="M395.58,471.01c0.85-0.17,2.17-0.3,3.47-0.3c1.89,0,3.1,0.33,3.99,1.06c0.78,0.56,1.24,1.43,1.24,2.58
			c0,1.41-0.95,2.67-2.47,3.21v0.04c1.39,0.35,3.01,1.47,3.01,3.69c0,1.24-0.48,2.19-1.26,2.91c-1,0.93-2.65,1.37-5.03,1.37
			c-1.32,0-2.3-0.09-2.95-0.17V471.01z M397.49,477.01h1.71c1.97,0,3.17-1.06,3.17-2.47c0-1.71-1.3-2.38-3.21-2.38
			c-0.87,0-1.37,0.06-1.67,0.13V477.01z M397.49,484c0.39,0.06,0.89,0.09,1.58,0.09c1.95,0,3.77-0.71,3.77-2.82
			c0-2.02-1.74-2.84-3.79-2.84h-1.56V484z"/>
		<path class="st3" d="M407.09,483.13c0.85,0.52,2.08,0.95,3.38,0.95c1.93,0,3.06-1.02,3.06-2.49c0-1.37-0.78-2.15-2.78-2.91
			c-2.36-0.82-3.84-2.1-3.84-4.14c0-2.25,1.89-3.95,4.73-3.95c1.47,0,2.58,0.35,3.23,0.69l-0.52,1.54
			c-0.48-0.26-1.45-0.69-2.78-0.69c-2,0-2.75,1.19-2.75,2.19c0,1.37,0.89,2.04,2.91,2.82c2.47,0.98,3.73,2.15,3.73,4.29
			c0,2.25-1.67,4.23-5.12,4.23c-1.43,0-2.97-0.43-3.75-0.95L407.09,483.13z"/>
		<path class="st3" d="M420.82,472.42h-4.44v-1.6h10.82v1.6h-4.47v13.01h-1.91V472.42z"/>
		<path class="st3" d="M429.56,480.83l-1.5,4.6h-1.97l4.99-14.61h2.25l4.99,14.61h-2.02l-1.56-4.6H429.56z M434.35,479.35
			l-1.43-4.21c-0.33-0.95-0.54-1.82-0.76-2.67h-0.06c-0.2,0.87-0.43,1.76-0.72,2.65l-1.43,4.23H434.35z"/>
		<path class="st3" d="M440.44,485.43v-14.61h2.1l4.66,7.37c1.06,1.73,1.93,3.27,2.62,4.77l0.04-0.02
			c-0.17-1.95-0.22-3.73-0.22-5.98v-6.14h1.78v14.61h-1.91l-4.64-7.42c-1.02-1.63-2-3.3-2.73-4.88l-0.07,0.02
			c0.11,1.84,0.15,3.6,0.15,6.03v6.24H440.44z"/>
		<path class="st3" d="M464.94,484.97c-0.69,0.33-2.08,0.69-3.88,0.69c-4.1,0-7.2-2.62-7.2-7.42c0-4.58,3.1-7.65,7.63-7.65
			c1.8,0,2.97,0.37,3.47,0.63l-0.46,1.54c-0.71-0.35-1.73-0.61-2.95-0.61c-3.43,0-5.7,2.19-5.7,6.03c0,3.58,2.06,5.88,5.62,5.88
			c1.15,0,2.32-0.24,3.08-0.61L464.94,484.97z"/>
		<path class="st3" d="M474.85,478.57h-5.66v5.29h6.33v1.56h-8.24v-14.61h7.91v1.56h-6.01v4.64h5.66V478.57z"/>
		<path class="st3" d="M477.69,483.13c0.85,0.52,2.08,0.95,3.38,0.95c1.93,0,3.06-1.02,3.06-2.49c0-1.37-0.78-2.15-2.78-2.91
			c-2.36-0.82-3.84-2.1-3.84-4.14c0-2.25,1.89-3.95,4.73-3.95c1.47,0,2.58,0.35,3.23,0.69l-0.52,1.54
			c-0.48-0.26-1.45-0.69-2.78-0.69c-1.99,0-2.75,1.19-2.75,2.19c0,1.37,0.89,2.04,2.91,2.82c2.47,0.98,3.73,2.15,3.73,4.29
			c0,2.25-1.67,4.23-5.12,4.23c-1.43,0-2.97-0.43-3.75-0.95L477.69,483.13z"/>
	</g>
</g>
</svg>
