<?xml version="1.0" encoding="utf-8"?>
<!-- Generator: Adobe Illustrator 28.3.0, SVG Export Plug-In . SVG Version: 6.00 Build 0)  -->
<svg version="1.1" id="Layer_1" xmlns="http://www.w3.org/2000/svg" xmlns:xlink="http://www.w3.org/1999/xlink" x="0px" y="0px"
	 viewBox="0 0 746 740" style="enable-background:new 0 0 746 740;" xml:space="preserve">
<style type="text/css">
	.st0{fill:#FFFFFF;stroke:#323031;stroke-miterlimit:10;stroke-dasharray:6;}
	.st1{fill:none;}
	.st2{fill:none;stroke:#3B3A3C;stroke-miterlimit:10;}
	.st3{fill:#231F20;}
	.st4{font-family:'AdobeArabic-Bold';}
	.st5{font-size:57.7195px;}
	.st6{enable-background:new    ;}
</style>
<g>
	<g>
		<polygon class="st0" points="359.87,647.49 79.03,372.24 363.86,92.51 648.69,372.24 		"/>
		<rect x="115.11" y="75.5" class="st1" width="489.2" height="589"/>
		<polygon class="st2" points="360.45,606.98 120.61,371.91 363.86,133.02 607.11,371.91 		"/>
		<g>
			<polygon class="st3" points="604.48,326.79 604.15,371.92 650.41,371.9 			"/>
			<polygon class="st3" points="468.84,193.57 434.42,159.77 432.89,371.99 467.56,371.98 			"/>
			<polygon class="st3" points="553.87,277.08 519.45,243.28 518.52,371.95 553.19,371.94 			"/>
			<polygon class="st3" points="211.58,244.09 176.67,278.38 176,372.11 210.66,372.09 			"/>
			<polygon class="st3" points="383.81,110.07 365.93,92.51 349.15,108.99 347.26,372.03 381.92,372.01 			"/>
			<polygon class="st3" points="297.82,159.4 262.91,193.68 261.63,372.07 296.29,372.05 			"/>
			<polygon class="st3" points="125.34,328.79 81.2,372.15 125.03,372.13 			"/>
		</g>
	</g>
	<rect x="350.45" y="526.97" class="st1" width="28.53" height="57.42"/>
	<text transform="matrix(0.9131 0 0 1 360.4023 569.248)" class="st3 st4 st5">9</text>
	<polygon class="st1" points="140.32,380.59 598.15,384.79 589.12,452.85 131.29,448.66 	"/>
	<g class="st6">
		<path class="st3" d="M199.57,393.11l-0.13,7.25c0,0.18-0.36,1.86-0.56,2.7l-13.54-0.23l0.19-10.77c0.02-1.38,0.13-2.31,0.26-2.88
			c-0.81-0.01-1.83-0.09-2.16-0.22l0.56-2.67c0.78,0.16,2.49,0.19,4.15,0.22l6.08,0.11C198.84,386.69,199.66,387.97,199.57,393.11z
			 M194.25,389.35l-6.41-0.11l-0.19,10.89l9.51,0.17l0.11-6.5C197.33,390.81,197.02,389.39,194.25,389.35z"/>
		<path class="st3" d="M203.64,395.98c1.27-1.9,1.95-3.37,1.97-4.57c0.02-0.99-0.55-1.33-1.93-1.75c-0.72-0.22-1.32-0.41-1.83-0.63
			l0.56-2.64c0.42,0.16,1.02,0.35,1.77,0.54c2.85,0.68,3.82,1.6,3.79,3.83c-0.03,1.9-0.97,3.99-2.48,6.16L203.64,395.98z"/>
		<path class="st3" d="M218.78,394.08c0.05-2.98-0.26-4.31-3.08-4.36l-2.98-0.05c-1.77-0.03-2.92-0.11-3.34-0.24l0.56-2.67
			c0.6,0.13,2.13,0.16,4.18,0.19l1.87,0.03c4.39,0.08,5.22,1.14,5.13,6.29l-0.18,10.17l-2.32-0.04L218.78,394.08z"/>
		<path class="st3" d="M225.97,394.05c0.03-2.02,0.15-3.58,0.31-4.18c-0.54-0.04-1.98-0.15-2.19-0.19l0.56-2.7
			c0.63,0.16,2.13,0.19,4.18,0.22l5.45,0.09c4.39,0.08,5.21,1.44,5.13,6.44l-0.17,10.02l-2.35-0.04l0.16-9.15
			c0.06-3.31-0.22-4.49-3.08-4.54l-5.6-0.1l-0.24,13.63l-2.32-0.04L225.97,394.05z"/>
		<path class="st3" d="M243.29,399.83c0.05-2.95,0.79-5.67,2.97-7.89c-1.3-1.56-2.8-3.12-3.99-4.25l0.09-0.15l3.22-0.19
			c1.51,1.59,3.69,4.16,6.78,8.12c1.22-0.79,1.99-1.98,2.02-3.91c-0.01-1.14-0.29-2.5-0.84-3.81l2.95-0.22
			c0.37,1.15,0.53,2.24,0.51,3.56c-0.04,2.47-1.34,4.64-3.53,5.87c1.59,2.01,4.08,5.67,4.96,7.13l-3.19-0.06
			c-0.99-1.64-3.52-5.42-7.73-10.49c-1.35,1.6-1.66,3.73-1.63,5.66c0,1.72,0.39,3.41,0.76,4.68l-2.89-0.05
			C243.46,402.66,243.27,401.18,243.29,399.83z"/>
		<path class="st3" d="M282.2,394.54l-0.13,7.25c0,0.18-0.36,1.86-0.56,2.7l-13.54-0.23l0.19-10.77c0.02-1.38,0.13-2.31,0.26-2.88
			c-0.81-0.01-1.83-0.09-2.16-0.22l0.56-2.67c0.78,0.16,2.5,0.19,4.15,0.22l6.08,0.11C281.47,388.12,282.29,389.4,282.2,394.54z
			 M276.88,390.78l-6.41-0.11l-0.19,10.89l9.51,0.17l0.11-6.5C279.95,392.24,279.65,390.82,276.88,390.78z"/>
		<path class="st3" d="M285.79,397.4c1.27-1.9,1.96-3.37,1.98-4.57c0.02-0.99-0.55-1.33-1.93-1.75c-0.72-0.22-1.32-0.41-1.82-0.63
			l0.56-2.64c0.42,0.16,1.02,0.35,1.77,0.54c2.85,0.68,3.82,1.6,3.79,3.83c-0.03,1.9-0.97,3.99-2.48,6.16L285.79,397.4z"/>
		<path class="st3" d="M292.27,402.06c0.75-0.08,1.72-0.09,3.7-0.06l2.11,0.04l0.12-6.71c0.05-2.62-0.24-3.34-2.91-4.02
			c-1.08-0.26-2.13-0.52-2.61-0.71l0.56-2.64c0.39,0.16,1.29,0.38,2.58,0.65c3.48,0.78,4.81,1.83,4.74,6.25l-0.13,7.31l-0.56,2.64
			l-4.18-0.07c-1.29-0.02-3.37-0.03-3.97,0.02L292.27,402.06z"/>
		<path class="st3" d="M303.52,402.25c0.6-0.08,2.32-0.05,4.09-0.02l5.75,0.1c0.33-1.5,0.64-3.81,0.67-5.59
			c0.07-4.03-0.81-5.34-4.09-5.4l-2.77-0.05c-1.78-0.03-3.01-0.11-3.46-0.24l0.59-2.67c0.6,0.13,2.07,0.16,3.76,0.19l2.5,0.04
			c4.96,0.09,5.89,2.3,5.79,7.92c-0.06,3.22-0.62,6.37-1.14,8.53l-8.27-0.14c-1.29-0.02-3.25-0.09-3.97,0.02L303.52,402.25z"/>
		<path class="st3" d="M323.37,395.79c0.04-2.59-0.24-3.53-2.58-4.14c-1.05-0.29-1.62-0.42-2.04-0.61l0.56-2.64
			c0.39,0.16,0.99,0.32,2.07,0.52c3.36,0.78,4.42,1.91,4.34,6.49l-0.17,9.84l-2.35-0.04L323.37,395.79z"/>
		<path class="st3" d="M329.4,391.66c-0.69-0.04-1.14-0.11-1.53-0.21l0.59-2.67c0.48,0.13,2.4,0.19,4.27,0.22l6.83,0.12
			c3.67,0.06,4.3,2,4.25,5.1c-0.12,7.07-4.3,10.28-8.31,10.93c-1.57,0.27-3.05,0.37-3.89,0.41
			C330.91,401.49,329.78,393.92,329.4,391.66z M335.95,402.45c3.74-0.69,5.39-3.76,5.46-7.61c0.03-1.98-0.52-2.96-2.6-2.99
			l-7.01-0.12c0.32,2.2,1.24,8.18,1.67,11.04C334.02,402.72,334.96,402.65,335.95,402.45z"/>
		<path class="st3" d="M348.6,396.41c0.47-3-0.71-4.2-2.6-4.68l0.59-2.79c2.4,0.43,3.82,1.99,4.05,4.31
			c0.72-1.82,2.57-4.17,5.91-4.11c4.69,0.08,5.76,4.4,5.66,10.21l-0.07,3.85c0,0.27-0.37,2.25-0.47,2.67l-5.93-0.1
			c-1.2-0.02-2.77-0.02-3.4,0.03l0.56-2.67c0.63-0.11,2.05-0.08,3.7-0.06l3.16,0.05c0.05-1.26,0.07-2.5,0.09-3.7
			c0.07-3.79-0.35-7.5-3.87-7.56c-3.34-0.06-4.57,3.23-5.06,5.27c-0.52,2.01-1.21,5.64-1.8,8.52l-2.35-0.04
			C347.44,402.53,348.23,398.63,348.6,396.41z"/>
		<path class="st3" d="M387.66,396.37l-0.12,7.25c0,0.18-0.36,1.86-0.56,2.7l-13.54-0.23l0.19-10.77c0.02-1.38,0.13-2.32,0.26-2.88
			c-0.81-0.01-1.83-0.09-2.16-0.22l0.56-2.67c0.78,0.16,2.49,0.19,4.15,0.22l6.08,0.1C386.93,389.94,387.75,391.22,387.66,396.37z
			 M382.34,392.6l-6.41-0.11l-0.19,10.89l9.51,0.17l0.11-6.5C385.41,394.07,385.11,392.65,382.34,392.6z"/>
		<path class="st3" d="M392.51,399.25c1.27-1.9,1.96-3.37,1.98-4.57c0.02-0.99-0.55-1.33-1.93-1.75c-0.72-0.22-1.32-0.41-1.83-0.63
			l0.56-2.64c0.42,0.16,1.02,0.35,1.77,0.54c2.85,0.68,3.82,1.6,3.79,3.83c-0.03,1.9-0.97,3.99-2.48,6.16L392.51,399.25z"/>
		<path class="st3" d="M399.62,403.95c0.69-0.11,2.41-0.11,4.12-0.08l4.66,0.08c-0.83-0.86-2.68-3.27-5.86-7.62
			c-1.5-2.07-3.26-4.48-4.47-6.07l3.38-0.24c1.23,1.83,3.29,4.93,4.93,7.25c2.3-0.89,2.69-2.21,2.72-3.87
			c0.02-0.9-0.29-2.11-0.64-2.96l2.95-0.22c0.23,0.73,0.36,1.63,0.35,2.59c-0.05,2.86-1.17,4.76-4.35,6.03
			c2.47,3.41,4.09,5.28,4.59,5.68l-0.55,2.22l-8.06-0.14c-2.02-0.03-3.79-0.04-4.45,0.01L399.62,403.95z"/>
		<path class="st3" d="M414.72,404.21c0.72-0.11,2.74-0.07,4.58-0.07l6.47,0.11l0.09-5.39c0.03-3.31-0.97-4.59-4.69-5.29
			c-1.35-0.26-2.55-0.47-3.33-0.6c-0.5,0.92-0.87,1.76-0.89,2.45c-0.02,1.08,0.69,1.82,2.88,2.22l-0.65,2.58
			c-3.33-0.48-4.45-2.06-4.41-4.26c0.03-1.87,1.43-4.16,2.09-5.86c0.48,0.13,2.13,0.43,4.65,0.83c4.5,0.68,6.79,2.16,6.67,7.4
			l-0.11,6.14c-0.01,0.33-0.34,2.13-0.43,2.55l-9.39-0.16c-1.5-0.03-3.4-0.06-4.09,0.02L414.72,404.21z"/>
		<path class="st3" d="M433.07,397.63c0.04-2.02,0.15-3.58,0.31-4.18c-0.54-0.04-1.98-0.16-2.19-0.19l0.56-2.7
			c0.63,0.16,2.13,0.19,4.18,0.22l5.45,0.09c4.39,0.08,5.21,1.44,5.13,6.44l-0.17,10.02l-2.35-0.04l0.16-9.15
			c0.06-3.31-0.22-4.49-3.08-4.54l-5.6-0.1l-0.24,13.63l-2.32-0.04L433.07,397.63z"/>
		<path class="st3" d="M453.5,398.05c0.04-2.59-0.24-3.53-2.58-4.14c-1.05-0.29-1.62-0.42-2.04-0.61l0.56-2.64
			c0.39,0.16,0.99,0.32,2.07,0.52c3.36,0.78,4.42,1.91,4.34,6.49l-0.17,9.84l-2.35-0.04L453.5,398.05z"/>
		<path class="st3" d="M481.42,397.99l-0.12,7.25c0,0.18-0.36,1.86-0.56,2.7l-13.54-0.23l0.19-10.77c0.02-1.38,0.13-2.31,0.26-2.88
			c-0.81-0.01-1.83-0.09-2.16-0.22l0.56-2.67c0.78,0.16,2.49,0.19,4.15,0.22l6.08,0.11C480.69,391.56,481.51,392.84,481.42,397.99z
			 M476.1,394.22l-6.41-0.11L469.5,405l9.51,0.16l0.11-6.5C479.17,395.69,478.87,394.27,476.1,394.22z"/>
		<path class="st3" d="M485.49,400.86c1.27-1.9,1.95-3.37,1.97-4.57c0.02-0.99-0.55-1.33-1.92-1.75c-0.72-0.22-1.32-0.41-1.83-0.63
			l0.56-2.64c0.42,0.16,1.02,0.35,1.77,0.54c2.85,0.68,3.82,1.6,3.79,3.83c-0.03,1.9-0.97,3.99-2.48,6.16L485.49,400.86z"/>
		<path class="st3" d="M500.06,398.94c0.05-2.98-0.26-4.31-3.08-4.36l-2.98-0.05c-1.77-0.03-2.92-0.11-3.34-0.24l0.56-2.67
			c0.6,0.13,2.13,0.16,4.18,0.19l1.87,0.03c4.39,0.08,5.22,1.14,5.13,6.29l-0.18,10.17l-2.32-0.04L500.06,398.94z"/>
		<path class="st3" d="M507.7,399.16c0.47-3-0.71-4.2-2.6-4.68l0.59-2.79c2.4,0.43,3.82,1.99,4.05,4.31
			c0.72-1.82,2.57-4.17,5.91-4.11c4.69,0.08,5.76,4.4,5.66,10.21l-0.07,3.85c0,0.27-0.37,2.25-0.47,2.67l-5.93-0.1
			c-1.2-0.02-2.77-0.02-3.4,0.03l0.56-2.67c0.63-0.11,2.05-0.08,3.7-0.06l3.16,0.05c0.05-1.26,0.07-2.5,0.09-3.7
			c0.07-3.79-0.35-7.5-3.87-7.56c-3.34-0.06-4.57,3.23-5.06,5.27c-0.52,2.01-1.21,5.64-1.8,8.52l-2.35-0.04
			C506.54,405.28,507.33,401.38,507.7,399.16z"/>
		<path class="st3" d="M528.06,399.34c0.04-2.59-0.24-3.53-2.58-4.14c-1.05-0.29-1.62-0.42-2.04-0.61l0.56-2.64
			c0.39,0.16,0.99,0.32,2.07,0.52c3.36,0.78,4.42,1.91,4.34,6.49l-0.17,9.84l-2.35-0.04L528.06,399.34z"/>
		<path class="st3" d="M535.25,399.4c0.04-2.02,0.15-3.58,0.31-4.18c-0.54-0.04-1.98-0.15-2.19-0.19l0.56-2.7
			c0.63,0.16,2.13,0.19,4.18,0.22l5.45,0.09c4.39,0.08,5.21,1.44,5.13,6.44l-0.17,10.02l-2.35-0.04l0.16-9.15
			c0.06-3.31-0.22-4.49-3.08-4.54l-5.6-0.1l-0.24,13.63l-2.32-0.04L535.25,399.4z"/>
	</g>
	<rect x="212.42" y="420.16" class="st1" width="304.59" height="81.2"/>
	<g class="st6">
		<path class="st3" d="M289.28,434.11c-0.15-2.4-0.31-5.34-0.28-7.48h-0.08c-0.59,2.01-1.37,4.36-2.22,6.68l-3.02,8.33h-1.78
			l-2.76-8.28c-0.85-2.45-1.52-4.69-1.99-6.73h-0.08c-0.08,2.14-0.15,5.03-0.34,7.66l-0.46,7.45h-2.14l1.21-17.38h2.86l2.97,8.43
			c0.72,2.09,1.29,4.15,1.73,5.96h0.08c0.44-1.75,1.06-3.79,1.86-5.98l3.09-8.41h2.86l1.08,17.38h-2.22L289.28,434.11z"/>
		<path class="st3" d="M297.58,424.37v17.38h-2.27v-17.38H297.58z"/>
		<path class="st3" d="M301.19,439.01c1.01,0.62,2.48,1.13,4.02,1.13c2.29,0,3.64-1.21,3.64-2.97c0-1.62-0.93-2.55-3.3-3.46
			c-2.81-0.98-4.56-2.5-4.56-4.93c0-2.68,2.24-4.69,5.62-4.69c1.75,0,3.07,0.41,3.84,0.83l-0.62,1.83c-0.57-0.31-1.73-0.83-3.3-0.83
			c-2.37,0-3.27,1.42-3.27,2.6c0,1.62,1.06,2.42,3.46,3.35c2.94,1.16,4.44,2.55,4.44,5.11c0,2.68-1.99,5.03-6.09,5.03
			c-1.7,0-3.53-0.52-4.46-1.13L301.19,439.01z"/>
		<path class="st3" d="M326.36,441.2c-0.83,0.39-2.48,0.83-4.62,0.83c-4.87,0-8.56-3.12-8.56-8.82c0-5.44,3.69-9.1,9.08-9.1
			c2.14,0,3.53,0.44,4.13,0.75l-0.54,1.83c-0.85-0.41-2.06-0.72-3.51-0.72c-4.07,0-6.78,2.6-6.78,7.17c0,4.25,2.45,6.99,6.68,6.99
			c1.37,0,2.76-0.28,3.66-0.72L326.36,441.2z"/>
		<path class="st3" d="M338.14,433.6h-6.73v6.29h7.53v1.86h-9.8v-17.38h9.41v1.86h-7.14v5.52h6.73V433.6z"/>
		<path class="st3" d="M341.81,424.37h2.27v15.47h7.43v1.91h-9.7V424.37z"/>
		<path class="st3" d="M353.98,424.37h2.27v15.47h7.43v1.91h-9.7V424.37z"/>
		<path class="st3" d="M368.98,436.28l-1.78,5.47h-2.35l5.93-17.38h2.68l5.93,17.38H377l-1.86-5.47H368.98z M374.68,434.53l-1.7-5
			c-0.39-1.13-0.64-2.17-0.9-3.17H372c-0.23,1.03-0.52,2.09-0.85,3.15l-1.7,5.03H374.68z"/>
		<path class="st3" d="M381.93,441.75v-17.38h2.5l5.54,8.77c1.26,2.06,2.29,3.89,3.12,5.67l0.05-0.03
			c-0.21-2.32-0.26-4.44-0.26-7.12v-7.3H395v17.38h-2.27l-5.52-8.82c-1.21-1.93-2.37-3.92-3.25-5.8l-0.08,0.03
			c0.13,2.19,0.18,4.28,0.18,7.17v7.43H381.93z"/>
		<path class="st3" d="M407.89,433.6h-6.73v6.29h7.53v1.86h-9.8v-17.38h9.41v1.86h-7.14v5.52h6.73V433.6z"/>
		<path class="st3" d="M426.43,433.03c0,5.78-3.69,9-8.07,9c-4.69,0-7.81-3.69-7.81-8.87c0-5.34,3.33-9.08,8.12-9.08
			C423.62,424.08,426.43,428,426.43,433.03z M412.95,433.08c0,3.95,2.01,7.12,5.54,7.12c3.66,0,5.57-3.33,5.57-7.12
			c0-3.56-1.73-7.17-5.54-7.17C414.91,425.91,412.95,429.16,412.95,433.08z"/>
		<path class="st3" d="M431.59,424.37v10.34c0,3.84,1.7,5.49,4.05,5.49c2.55,0,4.23-1.7,4.23-5.49v-10.34h2.24v10.16
			c0,5.34-2.79,7.5-6.55,7.5c-3.56,0-6.24-2.01-6.24-7.4v-10.26H431.59z"/>
		<path class="st3" d="M445.72,439.01c1.01,0.62,2.48,1.13,4.02,1.13c2.29,0,3.64-1.21,3.64-2.97c0-1.62-0.93-2.55-3.3-3.46
			c-2.81-0.98-4.56-2.5-4.56-4.93c0-2.68,2.24-4.69,5.62-4.69c1.75,0,3.07,0.41,3.84,0.83l-0.62,1.83c-0.57-0.31-1.73-0.83-3.3-0.83
			c-2.37,0-3.27,1.42-3.27,2.6c0,1.62,1.06,2.42,3.46,3.35c2.94,1.16,4.44,2.55,4.44,5.11c0,2.68-1.99,5.03-6.09,5.03
			c-1.7,0-3.53-0.52-4.46-1.13L445.72,439.01z"/>
	</g>
	<g class="st6">
		<path class="st3" d="M229.11,455.54c1.39-0.21,3.02-0.36,4.8-0.36c3.22,0,5.52,0.75,7.04,2.17c1.55,1.42,2.45,3.46,2.45,6.24
			c0,2.84-0.88,5.13-2.5,6.76c-1.65,1.62-4.31,2.5-7.68,2.5c-1.6,0-2.94-0.08-4.1-0.21V455.54z M231.38,470.91
			c0.57,0.1,1.39,0.13,2.27,0.13c4.8,0,7.4-2.68,7.4-7.38c0.03-4.1-2.29-6.71-7.04-6.71c-1.16,0-2.04,0.13-2.63,0.23V470.91z"/>
		<path class="st3" d="M248.76,467.22l-1.78,5.47h-2.35l5.93-17.38h2.68l5.93,17.38h-2.4l-1.86-5.47H248.76z M254.46,465.47l-1.7-5
			c-0.39-1.13-0.64-2.17-0.9-3.17h-0.08c-0.23,1.03-0.52,2.09-0.85,3.15l-1.7,5.03H254.46z"/>
		<path class="st3" d="M261.71,472.69v-17.38h2.5l5.54,8.77c1.26,2.06,2.3,3.89,3.12,5.67l0.05-0.03c-0.21-2.32-0.26-4.44-0.26-7.12
			v-7.3h2.11v17.38h-2.27l-5.52-8.82c-1.21-1.93-2.37-3.92-3.25-5.8l-0.08,0.03c0.13,2.19,0.18,4.28,0.18,7.17v7.43H261.71z"/>
		<path class="st3" d="M291.93,471.91c-1.01,0.36-2.99,0.95-5.34,0.95c-2.63,0-4.8-0.67-6.5-2.29c-1.5-1.44-2.42-3.77-2.42-6.47
			c0.03-5.16,3.58-8.97,9.41-8.97c2.01,0,3.61,0.46,4.33,0.8l-0.54,1.83c-0.93-0.41-2.09-0.75-3.84-0.75
			c-4.23,0-6.99,2.63-6.99,6.99c0,4.41,2.63,7.01,6.7,7.01c1.47,0,2.48-0.21,2.99-0.46v-5.18h-3.53v-1.81h5.73V471.91z"/>
		<path class="st3" d="M295.33,455.54c1.16-0.23,2.79-0.36,4.33-0.36c2.4,0,3.95,0.44,5.03,1.42c0.85,0.77,1.37,1.96,1.37,3.3
			c0,2.3-1.44,3.82-3.27,4.44v0.05c1.34,0.49,2.14,1.75,2.55,3.53c0.57,2.45,0.98,4.1,1.34,4.77h-2.32
			c-0.28-0.49-0.67-1.99-1.16-4.15c-0.52-2.37-1.44-3.3-3.48-3.38h-2.11v7.53h-2.27V455.54z M297.6,463.46h2.3
			c2.4,0,3.92-1.32,3.92-3.3c0-2.27-1.62-3.22-4-3.25c-1.11,0-1.86,0.1-2.22,0.21V463.46z"/>
		<path class="st3" d="M324.16,463.97c0,5.78-3.69,9-8.07,9c-4.69,0-7.81-3.69-7.81-8.87c0-5.34,3.33-9.08,8.12-9.08
			C321.35,455.02,324.16,458.94,324.16,463.97z M310.67,464.02c0,3.95,2.01,7.12,5.54,7.12c3.66,0,5.57-3.33,5.57-7.12
			c0-3.56-1.73-7.17-5.54-7.17C312.63,456.85,310.67,460.1,310.67,464.02z"/>
		<path class="st3" d="M329.31,455.31v10.34c0,3.84,1.7,5.49,4.05,5.49c2.55,0,4.23-1.7,4.23-5.49v-10.34h2.24v10.16
			c0,5.34-2.79,7.5-6.55,7.5c-3.56,0-6.24-2.01-6.24-7.4v-10.26H329.31z"/>
		<path class="st3" d="M343.45,469.95c1.01,0.62,2.48,1.13,4.02,1.13c2.29,0,3.64-1.21,3.64-2.97c0-1.62-0.93-2.55-3.3-3.46
			c-2.81-0.98-4.56-2.5-4.56-4.93c0-2.68,2.24-4.69,5.62-4.69c1.75,0,3.07,0.41,3.84,0.83l-0.62,1.83c-0.57-0.31-1.73-0.83-3.3-0.83
			c-2.37,0-3.27,1.42-3.27,2.6c0,1.62,1.06,2.42,3.46,3.35c2.94,1.16,4.44,2.55,4.44,5.11c0,2.68-1.99,5.03-6.09,5.03
			c-1.7,0-3.53-0.52-4.46-1.13L343.45,469.95z"/>
		<path class="st3" d="M361.65,469.95c1.01,0.62,2.48,1.13,4.02,1.13c2.29,0,3.64-1.21,3.64-2.97c0-1.62-0.93-2.55-3.3-3.46
			c-2.81-0.98-4.56-2.5-4.56-4.93c0-2.68,2.24-4.69,5.62-4.69c1.75,0,3.07,0.41,3.84,0.83l-0.62,1.83c-0.57-0.31-1.73-0.83-3.3-0.83
			c-2.37,0-3.27,1.42-3.27,2.6c0,1.62,1.06,2.42,3.46,3.35c2.94,1.16,4.44,2.55,4.44,5.11c0,2.68-1.99,5.03-6.09,5.03
			c-1.7,0-3.53-0.52-4.46-1.13L361.65,469.95z"/>
		<path class="st3" d="M376.91,455.31v10.34c0,3.84,1.7,5.49,4.05,5.49c2.55,0,4.23-1.7,4.23-5.49v-10.34h2.24v10.16
			c0,5.34-2.79,7.5-6.55,7.5c-3.56,0-6.24-2.01-6.24-7.4v-10.26H376.91z"/>
		<path class="st3" d="M391.33,455.54c1.01-0.21,2.58-0.36,4.13-0.36c2.24,0,3.69,0.39,4.74,1.26c0.93,0.67,1.47,1.7,1.47,3.07
			c0,1.68-1.13,3.17-2.94,3.82v0.05c1.65,0.41,3.58,1.75,3.58,4.38c0,1.47-0.57,2.6-1.5,3.46c-1.19,1.11-3.15,1.62-5.98,1.62
			c-1.57,0-2.73-0.1-3.51-0.21V455.54z M393.6,462.68h2.04c2.35,0,3.77-1.26,3.77-2.94c0-2.04-1.55-2.84-3.82-2.84
			c-1.03,0-1.62,0.08-1.99,0.16V462.68z M393.6,470.98c0.46,0.08,1.06,0.1,1.88,0.1c2.32,0,4.49-0.85,4.49-3.35
			c0-2.4-2.06-3.38-4.51-3.38h-1.86V470.98z"/>
		<path class="st3" d="M405.02,469.95c1.01,0.62,2.48,1.13,4.02,1.13c2.29,0,3.64-1.21,3.64-2.97c0-1.62-0.93-2.55-3.3-3.46
			c-2.81-0.98-4.56-2.5-4.56-4.93c0-2.68,2.24-4.69,5.62-4.69c1.75,0,3.07,0.41,3.84,0.83l-0.62,1.83c-0.57-0.31-1.73-0.83-3.3-0.83
			c-2.37,0-3.27,1.42-3.27,2.6c0,1.62,1.06,2.42,3.46,3.35c2.94,1.16,4.44,2.55,4.44,5.11c0,2.68-1.99,5.03-6.09,5.03
			c-1.7,0-3.53-0.52-4.46-1.13L405.02,469.95z"/>
		<path class="st3" d="M421.34,457.21h-5.29v-1.91h12.87v1.91h-5.31v15.47h-2.27V457.21z"/>
		<path class="st3" d="M431.73,467.22l-1.78,5.47h-2.35l5.93-17.38h2.68l5.93,17.38h-2.4l-1.86-5.47H431.73z M437.43,465.47l-1.7-5
			c-0.39-1.13-0.64-2.17-0.9-3.17h-0.08c-0.23,1.03-0.52,2.09-0.85,3.15l-1.7,5.03H437.43z"/>
		<path class="st3" d="M444.68,472.69v-17.38h2.5l5.54,8.77c1.26,2.06,2.29,3.89,3.12,5.67l0.05-0.03
			c-0.21-2.32-0.26-4.44-0.26-7.12v-7.3h2.11v17.38h-2.27l-5.52-8.82c-1.21-1.93-2.37-3.92-3.25-5.8l-0.08,0.03
			c0.13,2.19,0.18,4.28,0.18,7.17v7.43H444.68z"/>
		<path class="st3" d="M473.82,472.14c-0.82,0.39-2.47,0.83-4.62,0.83c-4.87,0-8.56-3.12-8.56-8.82c0-5.44,3.69-9.1,9.08-9.1
			c2.14,0,3.53,0.44,4.13,0.75l-0.54,1.83c-0.85-0.41-2.06-0.72-3.51-0.72c-4.08,0-6.78,2.6-6.78,7.17c0,4.25,2.45,6.99,6.68,6.99
			c1.37,0,2.76-0.28,3.66-0.72L473.82,472.14z"/>
		<path class="st3" d="M485.6,464.54h-6.73v6.29h7.53v1.86h-9.8v-17.38h9.41v1.86h-7.14v5.52h6.73V464.54z"/>
		<path class="st3" d="M488.98,469.95c1.01,0.62,2.47,1.13,4.02,1.13c2.29,0,3.64-1.21,3.64-2.97c0-1.62-0.93-2.55-3.3-3.46
			c-2.81-0.98-4.56-2.5-4.56-4.93c0-2.68,2.24-4.69,5.62-4.69c1.75,0,3.07,0.41,3.84,0.83l-0.62,1.83c-0.57-0.31-1.73-0.83-3.3-0.83
			c-2.37,0-3.28,1.42-3.28,2.6c0,1.62,1.06,2.42,3.46,3.35c2.94,1.16,4.44,2.55,4.44,5.11c0,2.68-1.99,5.03-6.09,5.03
			c-1.7,0-3.53-0.52-4.46-1.13L488.98,469.95z"/>
	</g>
</g>
</svg>
