<?xml version="1.0" encoding="utf-8"?>
<!-- Generator: Adobe Illustrator 28.3.0, SVG Export Plug-In . SVG Version: 6.00 Build 0)  -->
<svg version="1.1" id="Layer_1" xmlns="http://www.w3.org/2000/svg" xmlns:xlink="http://www.w3.org/1999/xlink" x="0px" y="0px"
	 viewBox="0 0 746 740" style="enable-background:new 0 0 746 740;" xml:space="preserve">
<style type="text/css">
	.st0{fill:#FFFFFF;stroke:#323031;stroke-miterlimit:10;stroke-dasharray:6;}
	.st1{fill:none;}
	.st2{fill:none;stroke:#3B3A3C;stroke-miterlimit:10;}
	.st3{fill:#231F20;}
	.st4{font-family:'AdobeArabic-Regular';}
	.st5{font-size:57.7195px;}
	.st6{font-family:'MyriadHebrew-Regular';}
	.st7{font-size:30.0833px;}
	.st8{font-size:25.7857px;}
</style>
<g>
	<g>
		<polygon class="st0" points="359.87,647.49 79.03,372.24 363.86,92.51 648.69,372.24 		"/>
		<rect x="115.11" y="75.5" class="st1" width="489.2" height="589"/>
		<polygon class="st2" points="360.45,606.98 120.61,371.91 363.86,133.02 607.11,371.91 		"/>
		<g>
			<polygon class="st3" points="604.48,326.79 604.15,371.92 650.41,371.9 			"/>
			<polygon class="st3" points="468.84,193.57 434.42,159.77 432.89,371.99 467.56,371.98 			"/>
			<polygon class="st3" points="553.87,277.08 519.45,243.28 518.52,371.95 553.19,371.94 			"/>
			<polygon class="st3" points="211.58,244.09 176.67,278.38 176,372.11 210.66,372.09 			"/>
			<polygon class="st3" points="383.81,110.07 365.93,92.51 349.15,108.99 347.26,372.03 381.92,372.01 			"/>
			<polygon class="st3" points="297.82,159.4 262.91,193.68 261.63,372.07 296.29,372.05 			"/>
			<polygon class="st3" points="125.34,328.79 81.2,372.15 125.03,372.13 			"/>
		</g>
	</g>
	<rect x="350.45" y="526.97" class="st1" width="28.53" height="57.42"/>
	<text transform="matrix(0.9131 0 0 1 360.4025 569.248)" class="st3 st4 st5">9</text>
	<polygon class="st1" points="140.32,380.59 598.15,384.79 589.12,452.85 131.29,448.66 	"/>
	<text transform="matrix(0.9999 0.0173 -0.0173 0.9999 176.0266 402.6647)" class="st3 st6 st7">םירחא םינכוסמ םיצפחו םירמוח</text>
	<rect x="212.42" y="420.16" class="st1" width="304.59" height="81.2"/>
	<text transform="matrix(1 0 0 1 272.6487 441.7461)"><tspan x="0" y="0" class="st3 st6 st8">MISCELLANEOUS</tspan><tspan x="-45.47" y="30.94" class="st3 st6 st8">DANGROUS SUBSTANCES</tspan></text>
</g>
</svg>
