<?xml version="1.0" encoding="utf-8"?>
<!-- Generator: Adobe Illustrator 28.3.0, SVG Export Plug-In . SVG Version: 6.00 Build 0)  -->
<svg version="1.1" id="Layer_1" xmlns="http://www.w3.org/2000/svg" xmlns:xlink="http://www.w3.org/1999/xlink" x="0px" y="0px"
	 viewBox="0 0 746 740" style="enable-background:new 0 0 746 740;" xml:space="preserve">
<style type="text/css">
	.st0{fill:#4BAA48;}
	.st1{fill:none;stroke:#FFFFFF;stroke-miterlimit:10;}
	.st2{fill-rule:evenodd;clip-rule:evenodd;fill:#231F20;}
	.st3{fill:none;}
	.st4{fill:#231F20;}
	.st5{font-family:'AdobeArabic-Bold';}
	.st6{font-size:61.7852px;}
	.st7{enable-background:new    ;}
</style>
<g>
	<g>
		<g>
			<polygon class="st0" points="368.84,666.87 68.21,372.24 373.11,72.8 678,372.24 			"/>
			<polygon class="st1" points="369.46,623.51 112.72,371.89 373.11,116.16 633.49,371.89 			"/>
		</g>
		<path class="st2" d="M491.4,264.18c0.75,3.54-1.03,6.91-3.97,7.53l-28.65,6.09c-2.21,0.47-3.63,2.64-3.15,4.85
			c0.75,3.54-1.03,6.91-3.97,7.53l-183.9,39.09c-2.94,0.62-9.33-5.17-12.05-17.46c-2.73-12.29,0.27-23.52,3.21-24.15l183.9-39.09
			c2.94-0.63,5.94,1.73,6.69,5.27c0.65,3.09,3.69,5.07,6.78,4.41c0.01,0,0.01,0,0.02,0l27.03-5.75c2.96-0.63,5.94,1.73,6.69,5.27
			L491.4,264.18z"/>
	</g>
	<rect x="351.76" y="551.39" class="st3" width="30.54" height="61.46"/>
	<text transform="matrix(0.9131 0 0 1 362.4131 596.6406)" class="st4 st5 st6">2</text>
	<polygon class="st3" points="110.63,361.04 642.54,365.16 632.05,432.05 100.14,427.92 	"/>
	<g class="st7">
		<path class="st4" d="M188.04,375.92l-0.15,8.87c0,0.22-0.44,2.27-0.68,3.3l-16.56-0.29l0.23-13.17c0.03-1.69,0.16-2.83,0.32-3.53
			c-0.99-0.02-2.24-0.11-2.65-0.27l0.68-3.26c0.95,0.2,3.05,0.24,5.08,0.27l7.43,0.13C187.15,368.06,188.15,369.63,188.04,375.92z
			 M181.53,371.32l-7.84-0.14l-0.23,13.32l11.63,0.2l0.14-7.95C185.29,373.11,184.92,371.38,181.53,371.32z"/>
		<path class="st4" d="M193.79,379.44c1.55-2.33,2.39-4.12,2.42-5.59c0.02-1.21-0.67-1.63-2.36-2.14c-0.88-0.27-1.61-0.51-2.23-0.77
			l0.68-3.23c0.51,0.19,1.24,0.43,2.16,0.66c3.48,0.83,4.68,1.96,4.63,4.68c-0.04,2.32-1.19,4.88-3.04,7.53L193.79,379.44z"/>
		<path class="st4" d="M204.7,384.97c4.92-1.39,8.81-5.15,8.9-10.34c0.04-2.32-0.87-2.78-2.82-2.81l-8.76-0.15l0.09-5.3
			c0.04-2.24-0.03-4.93-0.41-5.86l2.99-0.46c0.21,0.48,0.32,2.99,0.27,5.71l-0.04,2.61l7.1,0.12c3.75,0.06,4.6,1.96,4.55,5.23
			c-0.14,8.28-6.75,13.8-12.59,14.98L204.7,384.97z"/>
		<path class="st4" d="M221.43,379.92c1.55-2.33,2.39-4.12,2.42-5.59c0.02-1.21-0.67-1.63-2.36-2.14c-0.88-0.27-1.61-0.51-2.23-0.77
			l0.68-3.23c0.51,0.19,1.24,0.43,2.16,0.66c3.48,0.83,4.68,1.96,4.63,4.68c-0.04,2.32-1.19,4.88-3.04,7.53L221.43,379.92z"/>
		<path class="st4" d="M236.61,385.59c-1.15-4.03-4.82-12.67-7.41-16.62l3.91-0.26c1.96,3.6,4.96,11.09,6.16,16.08
			c2.74-1.09,4.22-3.46,4.3-7.99c0.04-2.1-0.46-5.2-1.41-7.61l3.65-0.31c0.42,1.26,0.89,3.95,0.84,7.01
			c-0.13,5.37-1.53,9.62-7.61,12.2c-2.82,1.2-7.21,2.05-10.61,2.39l0.69-3.6C231.58,386.69,234.68,386.22,236.61,385.59z"/>
		<path class="st4" d="M260.37,377.94c0.06-3.64-0.31-5.27-3.77-5.33l-3.64-0.06c-2.17-0.04-3.57-0.14-4.08-0.29l0.68-3.26
			c0.73,0.16,2.61,0.19,5.11,0.24l2.28,0.04c5.37,0.09,6.38,1.4,6.27,7.69l-0.22,12.44l-2.83-0.05L260.37,377.94z"/>
		<path class="st4" d="M275.53,384.72c0.06-3.61,0.97-6.94,3.63-9.66c-1.59-1.9-3.43-3.81-4.88-5.2l0.11-0.18l3.94-0.23
			c1.84,1.95,4.51,5.08,8.29,9.94c1.49-0.97,2.43-2.42,2.48-4.78c-0.01-1.4-0.35-3.06-1.02-4.66l3.61-0.27
			c0.45,1.41,0.65,2.74,0.62,4.35c-0.05,3.02-1.64,5.68-4.32,7.18c1.95,2.46,5,6.93,6.07,8.72l-3.9-0.07
			c-1.22-2.01-4.3-6.63-9.46-12.83c-1.65,1.96-2.03,4.57-2,6.92c0,2.1,0.48,4.17,0.93,5.72l-3.53-0.06
			C275.73,388.19,275.5,386.38,275.53,384.72z"/>
		<path class="st4" d="M297.36,386.57c4.92-1.39,8.81-5.15,8.9-10.34c0.04-2.32-0.87-2.78-2.82-2.81l-8.76-0.15l0.09-5.3
			c0.04-2.24-0.03-4.93-0.41-5.86l2.99-0.46c0.21,0.48,0.32,2.99,0.27,5.71l-0.04,2.61l7.1,0.12c3.75,0.06,4.6,1.96,4.55,5.23
			c-0.14,8.28-6.75,13.8-12.59,14.98L297.36,386.57z"/>
		<path class="st4" d="M316.93,378.81c0.06-3.17-0.29-4.31-3.15-5.06c-1.28-0.35-1.98-0.51-2.49-0.74l0.68-3.23
			c0.48,0.19,1.21,0.39,2.53,0.63c4.11,0.95,5.41,2.34,5.31,7.93l-0.21,12.03l-2.87-0.05L316.93,378.81z"/>
		<path class="st4" d="M351.09,378.74l-0.15,8.87c0,0.22-0.44,2.28-0.68,3.3l-16.56-0.29l0.23-13.17c0.03-1.69,0.16-2.83,0.32-3.53
			c-0.99-0.02-2.24-0.11-2.65-0.27l0.68-3.26c0.95,0.2,3.05,0.24,5.07,0.27l7.43,0.13C350.2,370.88,351.2,372.45,351.09,378.74z
			 M344.58,374.14l-7.84-0.13l-0.23,13.32l11.63,0.2l0.14-7.95C348.34,375.93,347.97,374.2,344.58,374.14z"/>
		<path class="st4" d="M356.08,382.25c1.55-2.33,2.39-4.12,2.41-5.59c0.02-1.21-0.67-1.63-2.35-2.14c-0.88-0.27-1.61-0.51-2.23-0.78
			l0.68-3.23c0.51,0.19,1.25,0.43,2.16,0.66c3.48,0.83,4.68,1.96,4.63,4.68c-0.04,2.32-1.19,4.88-3.04,7.53L356.08,382.25z"/>
		<path class="st4" d="M366.32,379.59c0.04-2.47,0.19-4.38,0.38-5.11c-0.66-0.05-2.43-0.19-2.68-0.23l0.68-3.3
			c0.77,0.2,2.61,0.23,5.11,0.27l6.66,0.12c5.37,0.09,6.37,1.77,6.27,7.88l-0.21,12.25l-2.87-0.05l0.19-11.19
			c0.07-4.05-0.27-5.49-3.77-5.55l-6.84-0.12l-0.29,16.67l-2.83-0.05L366.32,379.59z"/>
		<path class="st4" d="M393.19,387.97c4.44-1.21,8.17-4.13,8.26-9.65c0.04-2.36-0.79-3.22-3.59-3.27l-5.04-0.09
			c-2.5-0.04-4.86-0.08-5.44-0.35l0.68-3.23c1.03,0.2,3.01,0.2,5.41,0.24l5.15,0.09c4.71,0.08,5.79,1.72,5.71,5.84
			c-0.14,7.95-5.52,12.9-11.77,14.37L393.19,387.97z M388.02,380.45l2.87,0.05l-0.31,18.18l-2.87-0.05L388.02,380.45z"/>
		<path class="st4" d="M409.42,388.51c4.92-1.39,8.81-5.15,8.9-10.34c0.04-2.32-0.87-2.78-2.82-2.81l-8.76-0.15l0.09-5.3
			c0.04-2.24-0.03-4.93-0.41-5.86l2.99-0.46c0.21,0.48,0.32,2.99,0.27,5.71l-0.05,2.61l7.1,0.12c3.75,0.07,4.61,1.96,4.55,5.23
			c-0.14,8.28-6.75,13.8-12.59,14.98L409.42,388.51z"/>
		<path class="st4" d="M423.91,389.02c0.55-0.1,1.07-0.17,3.02-0.13l0.55,0.01c0.03-3.57-0.14-10.97-0.36-13.33l-0.11,0
			c-0.66-0.01-2.21-0.08-2.79-0.31l0.72-3.23c1.14,0.24,3.53,0.21,5.77,0.25l6.04,0.11c5.41,0.09,6.42,1.4,6.31,7.69l-0.21,12.44
			l-2.87-0.05l0.2-11.41c0.06-3.64-0.31-5.27-3.74-5.33l-6.48-0.11c0.14,2.36,0.4,10.79,0.32,13.37l-0.57,3.3l-2.91-0.05
			c-1.47-0.03-2.8-0.01-3.65,0.08L423.91,389.02z"/>
		<path class="st4" d="M449.7,381.33c0.58-3.67-0.87-5.13-3.18-5.72l0.72-3.41c2.93,0.53,4.67,2.44,4.95,5.28
			c0.88-2.23,3.14-5.1,7.23-5.03c5.74,0.1,7.05,5.39,6.92,12.49l-0.08,4.71c-0.01,0.33-0.45,2.75-0.57,3.27l-7.25-0.13
			c-1.47-0.03-3.39-0.02-4.16,0.04l0.68-3.26c0.78-0.13,2.5-0.1,4.53-0.07l3.86,0.07c0.06-1.54,0.09-3.05,0.12-4.53
			c0.08-4.64-0.43-9.17-4.74-9.25c-4.08-0.07-5.59,3.95-6.18,6.45c-0.63,2.46-1.48,6.89-2.21,10.42l-2.87-0.05
			C448.28,388.81,449.25,384.05,449.7,381.33z"/>
		<path class="st4" d="M478.48,388.23c0.06-3.61,0.97-6.94,3.63-9.66c-1.59-1.9-3.43-3.81-4.88-5.2l0.11-0.18l3.94-0.23
			c1.84,1.95,4.51,5.08,8.29,9.93c1.49-0.97,2.44-2.42,2.48-4.78c-0.01-1.4-0.35-3.06-1.02-4.66l3.61-0.27
			c0.45,1.41,0.65,2.74,0.62,4.36c-0.05,3.02-1.64,5.68-4.32,7.18c1.95,2.46,5,6.93,6.07,8.72l-3.9-0.07
			c-1.22-2.01-4.3-6.63-9.46-12.83c-1.65,1.96-2.03,4.57-2,6.92c0,2.1,0.48,4.17,0.93,5.72l-3.53-0.06
			C478.67,391.7,478.45,389.89,478.48,388.23z"/>
		<path class="st4" d="M500.79,390.09c4.92-1.39,8.81-5.15,8.9-10.34c0.04-2.32-0.87-2.78-2.82-2.81l-8.76-0.15l0.09-5.3
			c0.04-2.24-0.03-4.93-0.41-5.86l2.99-0.46c0.21,0.48,0.32,2.99,0.27,5.71l-0.05,2.61l7.1,0.12c3.75,0.06,4.61,1.96,4.55,5.23
			c-0.14,8.28-6.75,13.8-12.59,14.99L500.79,390.09z"/>
		<path class="st4" d="M543.07,382.06l-0.15,8.87c0,0.22-0.44,2.28-0.68,3.3l-16.56-0.29l0.23-13.17c0.03-1.69,0.16-2.83,0.32-3.53
			c-0.99-0.02-2.24-0.11-2.64-0.27l0.68-3.26c0.95,0.2,3.05,0.24,5.07,0.27l7.43,0.13C542.18,374.21,543.18,375.77,543.07,382.06z
			 M536.56,377.46l-7.84-0.14l-0.23,13.32l11.63,0.2l0.14-7.95C540.32,379.25,539.95,377.52,536.56,377.46z"/>
		<path class="st4" d="M549.12,385.59c1.55-2.33,2.39-4.12,2.42-5.59c0.02-1.21-0.67-1.63-2.36-2.14c-0.88-0.27-1.61-0.51-2.23-0.78
			l0.68-3.23c0.51,0.19,1.25,0.43,2.16,0.66c3.48,0.83,4.68,1.96,4.63,4.68c-0.04,2.32-1.19,4.88-3.04,7.53L549.12,385.59z"/>
		<path class="st4" d="M559.33,382.75c0.11-2.1,0.46-3.45,1.4-4.39c-1.43-0.25-3.74-0.73-4.58-1.07l0.68-3.26
			c1.61,0.73,7.89,1.68,10.31,1.87l-0.61,3.3c-0.77-0.05-2.13-0.29-2.64-0.34c-1.03-0.05-1.52,0.49-1.67,3.1
			c-0.07,1.91,0.07,8.54,0.26,12.63l-2.91-0.05C559.38,388.31,559.26,384.48,559.33,382.75z"/>
		<path class="st4" d="M569.34,391.31c3.09-0.06,6.96-2.05,7-6.87l0.03-1.43c0.02-3.02-0.67-3.91-3.42-4.66
			c-0.77-0.23-2.46-0.59-3-0.86l0.72-3.23c0.55,0.23,1.76,0.51,2.93,0.79c4.88,1.15,5.58,3,5.64,7.79l0.05,5.38
			c0.03,2.72,0.2,5.23,0.55,6.67l-2.87-0.05c-0.32-0.82-0.57-3.36-0.5-5.42c-1.2,3.44-4.18,5.63-7.79,5.57L569.34,391.31z"/>
	</g>
	<g class="st7">
		<path class="st4" d="M270.76,432.35v-18.6h2.68l5.94,9.38c1.35,2.21,2.46,4.17,3.34,6.07l0.06-0.03
			c-0.22-2.48-0.28-4.75-0.28-7.62v-7.81h2.26v18.6h-2.43l-5.91-9.44c-1.3-2.07-2.54-4.2-3.48-6.21l-0.08,0.03
			c0.14,2.35,0.19,4.58,0.19,7.67v7.95H270.76z"/>
		<path class="st4" d="M304.85,423.02c0,6.18-3.95,9.63-8.64,9.63c-5.02,0-8.36-3.95-8.36-9.5c0-5.71,3.56-9.72,8.69-9.72
			C301.84,413.44,304.85,417.64,304.85,423.02z M290.41,423.08c0,4.22,2.15,7.62,5.93,7.62c3.92,0,5.96-3.56,5.96-7.62
			c0-3.81-1.85-7.67-5.93-7.67C292.51,415.4,290.41,418.88,290.41,423.08z"/>
		<path class="st4" d="M307.94,432.35v-18.6h2.68l5.94,9.38c1.35,2.21,2.46,4.17,3.34,6.07l0.06-0.03
			c-0.22-2.48-0.28-4.75-0.28-7.62v-7.81h2.26v18.6h-2.43l-5.91-9.44c-1.3-2.07-2.54-4.2-3.48-6.21l-0.08,0.03
			c0.14,2.35,0.19,4.58,0.19,7.67v7.95H307.94z"/>
		<path class="st4" d="M331.9,423.6v2.21h-6.82v-2.21H331.9z"/>
		<path class="st4" d="M334.99,413.75h10.02v1.99h-7.59v6.21h7.04v1.99h-7.04v8.42h-2.43V413.75z"/>
		<path class="st4" d="M348.4,413.75h2.43v16.56h7.95v2.04H348.4V413.75z"/>
		<path class="st4" d="M364.47,426.5l-1.9,5.85h-2.51l6.35-18.6h2.87l6.35,18.6h-2.57l-1.99-5.85H364.47z M370.57,424.62l-1.82-5.36
			c-0.41-1.21-0.69-2.32-0.97-3.4h-0.08c-0.25,1.1-0.55,2.24-0.91,3.37l-1.82,5.38H370.57z"/>
		<path class="st4" d="M393.95,424.18c-0.17-2.57-0.33-5.71-0.3-8h-0.08c-0.63,2.15-1.46,4.67-2.37,7.15l-3.23,8.92h-1.9l-2.95-8.86
			c-0.91-2.62-1.63-5.02-2.12-7.21h-0.08c-0.08,2.29-0.17,5.38-0.36,8.2l-0.5,7.98h-2.29l1.3-18.6h3.06l3.17,9.03
			c0.77,2.24,1.38,4.44,1.85,6.38h0.08c0.47-1.88,1.13-4.06,1.99-6.4l3.31-9h3.06l1.16,18.6h-2.37L393.95,424.18z"/>
		<path class="st4" d="M416.14,424.18c-0.17-2.57-0.33-5.71-0.3-8h-0.08c-0.63,2.15-1.46,4.67-2.37,7.15l-3.23,8.92h-1.9l-2.95-8.86
			c-0.91-2.62-1.63-5.02-2.12-7.21h-0.08c-0.08,2.29-0.17,5.38-0.36,8.2l-0.5,7.98h-2.29l1.3-18.6h3.06l3.17,9.03
			c0.77,2.24,1.38,4.44,1.85,6.38h0.08c0.47-1.88,1.13-4.06,1.99-6.4l3.31-9h3.06l1.16,18.6h-2.37L416.14,424.18z"/>
		<path class="st4" d="M425.36,426.5l-1.9,5.85h-2.51l6.35-18.6h2.87l6.35,18.6h-2.57l-1.99-5.85H425.36z M431.46,424.62l-1.82-5.36
			c-0.41-1.21-0.69-2.32-0.97-3.4h-0.08c-0.25,1.1-0.55,2.24-0.91,3.37l-1.82,5.38H431.46z"/>
		<path class="st4" d="M439.21,414c1.08-0.22,2.76-0.39,4.42-0.39c2.4,0,3.95,0.41,5.08,1.35c0.99,0.72,1.57,1.82,1.57,3.28
			c0,1.79-1.21,3.4-3.15,4.09v0.05c1.77,0.44,3.84,1.88,3.84,4.69c0,1.57-0.61,2.79-1.6,3.7c-1.27,1.19-3.37,1.74-6.4,1.74
			c-1.68,0-2.93-0.11-3.75-0.22V414z M441.64,421.64h2.18c2.51,0,4.03-1.35,4.03-3.15c0-2.18-1.66-3.04-4.09-3.04
			c-1.1,0-1.74,0.08-2.12,0.17V421.64z M441.64,430.53c0.5,0.08,1.13,0.11,2.01,0.11c2.48,0,4.8-0.91,4.8-3.59
			c0-2.57-2.21-3.62-4.83-3.62h-1.99V430.53z"/>
		<path class="st4" d="M454.17,413.75h2.43v16.56h7.95v2.04h-10.38V413.75z"/>
		<path class="st4" d="M476.83,423.63h-7.2v6.74h8.06v1.99H467.2v-18.6h10.08v1.99h-7.65v5.91h7.2V423.63z"/>
	</g>
	<g class="st7">
		<path class="st4" d="M261.47,465.47v-18.6h2.68l5.94,9.38c1.35,2.21,2.46,4.17,3.34,6.07l0.06-0.03
			c-0.22-2.48-0.28-4.75-0.28-7.62v-7.81h2.26v18.6h-2.43l-5.91-9.44c-1.3-2.07-2.54-4.2-3.48-6.21l-0.08,0.03
			c0.14,2.35,0.19,4.58,0.19,7.67v7.95H261.47z"/>
		<path class="st4" d="M295.56,456.14c0,6.18-3.95,9.63-8.64,9.63c-5.02,0-8.36-3.95-8.36-9.5c0-5.71,3.56-9.72,8.69-9.72
			C292.55,446.56,295.56,450.76,295.56,456.14z M281.12,456.2c0,4.22,2.15,7.62,5.93,7.62c3.92,0,5.96-3.56,5.96-7.62
			c0-3.81-1.85-7.67-5.93-7.67C283.22,448.52,281.12,452,281.12,456.2z"/>
		<path class="st4" d="M298.65,465.47v-18.6h2.68l5.94,9.38c1.35,2.21,2.46,4.17,3.34,6.07l0.06-0.03
			c-0.22-2.48-0.28-4.75-0.28-7.62v-7.81h2.26v18.6h-2.43l-5.91-9.44c-1.3-2.07-2.54-4.2-3.48-6.21l-0.08,0.03
			c0.14,2.35,0.19,4.58,0.19,7.67v7.95H298.65z"/>
		<path class="st4" d="M322.61,456.72v2.21h-6.82v-2.21H322.61z"/>
		<path class="st4" d="M327.91,448.91h-5.66v-2.04h13.77v2.04h-5.69v16.56h-2.43V448.91z"/>
		<path class="st4" d="M353.25,456.14c0,6.18-3.95,9.63-8.64,9.63c-5.02,0-8.36-3.95-8.36-9.5c0-5.71,3.56-9.72,8.69-9.72
			C350.24,446.56,353.25,450.76,353.25,456.14z M338.81,456.2c0,4.22,2.15,7.62,5.93,7.62c3.92,0,5.96-3.56,5.96-7.62
			c0-3.81-1.85-7.67-5.94-7.67C340.91,448.52,338.81,452,338.81,456.2z"/>
		<path class="st4" d="M365.8,465.47l-2.37-4.11c-0.99-1.57-1.57-2.59-2.15-3.67h-0.06c-0.52,1.1-1.08,2.07-2.02,3.7l-2.24,4.08
			h-2.76l5.69-9.41l-5.47-9.19h2.76l2.48,4.36c0.69,1.21,1.21,2.15,1.74,3.17h0.06c0.52-1.13,0.99-1.96,1.68-3.17l2.54-4.36h2.76
			l-5.66,9.05l5.8,9.55H365.8z"/>
		<path class="st4" d="M373.78,446.87v18.6h-2.43v-18.6H373.78z"/>
		<path class="st4" d="M390.98,464.89c-0.88,0.41-2.65,0.88-4.94,0.88c-5.22,0-9.16-3.34-9.16-9.44c0-5.82,3.95-9.74,9.72-9.74
			c2.29,0,3.78,0.47,4.42,0.8l-0.58,1.96c-0.91-0.44-2.21-0.77-3.75-0.77c-4.36,0-7.26,2.79-7.26,7.67c0,4.55,2.62,7.48,7.15,7.48
			c1.46,0,2.95-0.3,3.92-0.77L390.98,464.89z"/>
		<path class="st4" d="M414.03,464.64c-1.08,0.39-3.2,1.02-5.71,1.02c-2.82,0-5.13-0.72-6.96-2.46c-1.6-1.55-2.59-4.03-2.59-6.93
			c0.03-5.52,3.84-9.61,10.08-9.61c2.15,0,3.86,0.5,4.64,0.86l-0.58,1.96c-0.99-0.44-2.24-0.8-4.11-0.8c-4.53,0-7.48,2.82-7.48,7.48
			c0,4.72,2.82,7.51,7.18,7.51c1.57,0,2.65-0.22,3.2-0.5v-5.55h-3.78v-1.93h6.13V464.64z"/>
		<path class="st4" d="M420.7,459.62l-1.9,5.85h-2.51l6.35-18.6h2.87l6.35,18.6h-2.57l-1.99-5.85H420.7z M426.8,457.74l-1.82-5.36
			c-0.41-1.21-0.69-2.32-0.97-3.4h-0.08c-0.25,1.1-0.55,2.24-0.91,3.37l-1.82,5.38H426.8z"/>
		<path class="st4" d="M434.26,462.55c1.08,0.66,2.65,1.21,4.31,1.21c2.46,0,3.89-1.3,3.89-3.17c0-1.74-0.99-2.73-3.53-3.7
			c-3.01-1.05-4.89-2.68-4.89-5.27c0-2.87,2.4-5.02,6.02-5.02c1.88,0,3.29,0.44,4.11,0.88l-0.66,1.96
			c-0.61-0.33-1.85-0.88-3.53-0.88c-2.54,0-3.51,1.52-3.51,2.79c0,1.74,1.13,2.59,3.7,3.59c3.15,1.24,4.75,2.73,4.75,5.46
			c0,2.87-2.13,5.38-6.51,5.38c-1.82,0-3.78-0.55-4.78-1.21L434.26,462.55z"/>
		<path class="st4" d="M457.8,456.75h-7.2v6.74h8.06v1.99h-10.49v-18.6h10.08v1.99h-7.65v5.91h7.2V456.75z"/>
		<path class="st4" d="M461.42,462.55c1.08,0.66,2.65,1.21,4.31,1.21c2.46,0,3.89-1.3,3.89-3.17c0-1.74-0.99-2.73-3.53-3.7
			c-3.01-1.05-4.89-2.68-4.89-5.27c0-2.87,2.4-5.02,6.02-5.02c1.88,0,3.29,0.44,4.11,0.88l-0.66,1.96
			c-0.61-0.33-1.85-0.88-3.53-0.88c-2.54,0-3.51,1.52-3.51,2.79c0,1.74,1.13,2.59,3.7,3.59c3.15,1.24,4.75,2.73,4.75,5.46
			c0,2.87-2.13,5.38-6.51,5.38c-1.82,0-3.78-0.55-4.78-1.21L461.42,462.55z"/>
	</g>
</g>
</svg>
