<?xml version="1.0" encoding="utf-8"?>
<!-- Generator: Adobe Illustrator 28.3.0, SVG Export Plug-In . SVG Version: 6.00 Build 0)  -->
<svg version="1.1" id="Layer_1" xmlns="http://www.w3.org/2000/svg" xmlns:xlink="http://www.w3.org/1999/xlink" x="0px" y="0px"
	 viewBox="0 0 746 740" style="enable-background:new 0 0 746 740;" xml:space="preserve">
<style type="text/css">
	.st0{fill:#F5EB31;}
	.st1{fill:#C82127;}
	.st2{fill:none;stroke:url(#SVGID_1_);stroke-miterlimit:10;}
	.st3{fill:#FFFFFF;}
	.st4{fill:none;}
	.st5{fill:#231F20;}
	.st6{font-family:'AdobeArabic-Regular';}
	.st7{font-size:58.4494px;}
	.st8{font-family:'MyriadHebrew-Regular';}
	.st9{font-size:39.1676px;}
	.st10{font-size:26.1117px;}
</style>
<g>
	<g>
		<polygon class="st0" points="368.96,651 84.57,372.27 373,89 661.43,372.27 		"/>
		<polygon class="st1" points="664.82,374.53 81.18,374.27 372.52,89 		"/>
		<linearGradient id="SVGID_1_" gradientUnits="userSpaceOnUse" x1="373.0026" y1="610.6757" x2="373.0026" y2="129.3188">
			<stop  offset="0.4916" style="stop-color:#231F20"/>
			<stop  offset="0.5084" style="stop-color:#FFFFFF"/>
		</linearGradient>
		<polygon class="st2" points="369.55,609.98 126.67,371.94 373,130.02 619.33,371.94 		"/>
		<path class="st3" d="M372.99,177.06c-11.72,22.13,1.95,34.5-13.02,66.4c-8.46-6.51-3.91-30.6-19.53-31.25
			c1.95,7.81,0.65,10.42,0,13.02c-1.95,11.07-5.21,20.18,1.95,33.85c-11.07-5.21-11.72-14.97-20.83-21.48
			c1.95,10.42-2.6,31.9,9.76,52.73c-11.07-1.3-14.97-5.21-26.69-16.93c12.37,65.1,22.13,67.05,68.35,70.96
			c-3.91-0.65-27.34-4.56-35.8-31.25c0-6.51-0.65,5.86,22.13,6.51c-14.32-22.78-10.42-18.23-9.11-31.25
			c6.51,8.46,1.3,9.76,17.58,16.27c-5.21-16.93,8.46-27.99,5.21-47.52c3.91,8.46,16.93,7.16,16.27,47.52
			c11.07-12.37,11.72-3.91,16.93-16.93c0.65,7.16,3.91,16.27-11.07,31.9c3.91,1.3,10.42,1.95,20.18-5.21
			c-9.76,11.72-0.65,11.72-26.04,29.95c31.9,0.65,52.73-19.53,52.08-63.15c-1.3,3.91-1.95,11.72-18.88,13.67
			c10.42-10.42,16.27-31.9,7.81-48.82c-3.25,2.6-7.81,15.62-18.88,18.88c5.21-9.11,3.91-20.83,3.91-20.83s1.95-16.27-7.81-29.29
			c-2.6,19.53-2.6,29.95-14.97,32.55c1.95-11.07,2.6-16.93-3.91-29.95C382.11,203.75,374.29,190.08,372.99,177.06z M320.26,355.43
			v11.72h111.32v-11.72H320.26z"/>
	</g>
	<rect x="345.67" y="527.94" class="st4" width="50.74" height="58.14"/>
	<text transform="matrix(0.9131 0 0 1 349.8141 570.7549)" class="st5 st6 st7">5.2</text>
	<polygon class="st4" points="164.87,374.31 586.3,378.21 577.99,441.48 156.55,437.58 	"/>
	<text transform="matrix(0.9999 0.0173 -0.0173 0.9999 204.3007 404.3839)" class="st5 st8 st9">םיינגרוא םידיסקוארפ</text>
	<text transform="matrix(1 0 0 1 245.7301 457.7402)" class="st5 st8 st10">ORGANIC PEROXIDES</text>
</g>
</svg>
