<?xml version="1.0" encoding="utf-8"?>
<!-- Generator: Adobe Illustrator 28.3.0, SVG Export Plug-In . SVG Version: 6.00 Build 0)  -->
<svg version="1.1" id="Layer_1" xmlns="http://www.w3.org/2000/svg" xmlns:xlink="http://www.w3.org/1999/xlink" x="0px" y="0px"
	 viewBox="0 0 746 740" style="enable-background:new 0 0 746 740;" xml:space="preserve">
<style type="text/css">
	.st0{fill:#F5EB31;}
	.st1{fill:#C82127;}
	.st2{fill:none;stroke:url(#SVGID_1_);stroke-miterlimit:10;}
	.st3{fill:#FFFFFF;}
	.st4{fill:none;}
	.st5{enable-background:new    ;}
	.st6{fill:#231F20;}
</style>
<g>
	<g>
		<polygon class="st0" points="368.96,651 84.57,372.27 373,89 661.43,372.27 		"/>
		<polygon class="st1" points="664.82,374.53 81.18,374.27 372.52,89 		"/>
		
			<linearGradient id="SVGID_1_" gradientUnits="userSpaceOnUse" x1="373.0026" y1="131.3247" x2="373.0026" y2="612.6808" gradientTransform="matrix(1 0 0 -1 0 742)">
			<stop  offset="0.4916" style="stop-color:#231F20"/>
			<stop  offset="0.5084" style="stop-color:#FFFFFF"/>
		</linearGradient>
		<polygon class="st2" points="369.55,609.98 126.67,371.94 373,130.02 619.33,371.94 		"/>
		<path class="st3" d="M372.99,177.06c-11.72,22.13,1.95,34.5-13.02,66.4c-8.46-6.51-3.91-30.6-19.53-31.25
			c1.95,7.81,0.65,10.42,0,13.02c-1.95,11.07-5.21,20.18,1.95,33.85c-11.07-5.21-11.72-14.97-20.83-21.48
			c1.95,10.42-2.6,31.9,9.76,52.73c-11.07-1.3-14.97-5.21-26.69-16.93c12.37,65.1,22.13,67.05,68.35,70.96
			c-3.91-0.65-27.34-4.56-35.8-31.25c0-6.51-0.65,5.86,22.13,6.51c-14.32-22.78-10.42-18.23-9.11-31.25
			c6.51,8.46,1.3,9.76,17.58,16.27c-5.21-16.93,8.46-27.99,5.21-47.52c3.91,8.46,16.93,7.16,16.27,47.52
			c11.07-12.37,11.72-3.91,16.93-16.93c0.65,7.16,3.91,16.27-11.07,31.9c3.91,1.3,10.42,1.95,20.18-5.21
			c-9.76,11.72-0.65,11.72-26.04,29.95c31.9,0.65,52.73-19.53,52.08-63.15c-1.3,3.91-1.95,11.72-18.88,13.67
			c10.42-10.42,16.27-31.9,7.81-48.82c-3.25,2.6-7.81,15.62-18.88,18.88c5.21-9.11,3.91-20.83,3.91-20.83s1.95-16.27-7.81-29.29
			c-2.6,19.53-2.6,29.95-14.97,32.55c1.95-11.07,2.6-16.93-3.91-29.95C382.11,203.75,374.29,190.08,372.99,177.06z M320.26,355.43
			v11.72h111.32v-11.72H320.26z"/>
	</g>
	<rect x="345.67" y="527.94" class="st4" width="50.74" height="58.14"/>
	<g class="st5">
		<path class="st6" d="M354.64,555.8c1.98-0.86,4.09-1.37,5.08-1.37c4.95,0,7.74,3.4,7.74,6.93c0,2.57-1.17,4.99-3.86,7.05
			c-2.21,1.68-4.98,2.83-7.3,2.83c-1.51,0-3.15-0.57-4.01-1.31c-0.83-0.71-0.99-1.17-0.99-1.74c0-0.69,0.57-1.68,1.28-2.25
			c0.47-0.34,0.89-0.17,1.41,0.37c0.96,0.91,2.81,2.54,4.98,2.54c2.42,0,3.57-2.28,3.57-5.25c0-3.77-2.22-6.19-5.71-6.19
			c-1.8,0-3.49,0.54-4.27,0.86l1.75-13.38h12.38l0.21,0.4l-1.28,4.08h-9.9L354.64,555.8z"/>
		<path class="st6" d="M374.1,571.24c-1.56,0-2.76-1.28-2.76-3.14c0-1.83,1.2-3.11,2.79-3.11c1.64,0,2.81,1.28,2.81,3.11
			c0,1.85-1.17,3.14-2.81,3.14H374.1z"/>
		<path class="st6" d="M397.4,563.85c-0.6,2.54-1.09,5.16-1.51,6.91h-15.51v-1.03c2.06-2.17,4.33-4.45,6.23-6.88
			c2.74-3.4,4.22-6.65,4.22-9.73c0-2.91-1.36-4.96-4.01-4.96c-2.45,0-3.99,1.77-5.24,3.77l-1.15-1l2.5-3.94
			c1.43-1.6,3.41-2.62,5.84-2.62c3.83,0,7.04,2.8,7.04,7.45c0,3.14-1.46,5.68-5.39,9.76l-4.51,4.65h6.07c2.42,0,2.68-0.11,4.17-2.83
			L397.4,563.85z"/>
	</g>
	<polygon class="st4" points="164.87,374.31 586.3,378.21 577.99,441.48 156.55,437.58 	"/>
	<g class="st5">
		<path class="st6" d="M234.95,391.95l-0.16,9.44c0,0.24-0.47,2.42-0.73,3.51l-17.62-0.3l0.24-14.02c0.03-1.8,0.17-3.01,0.34-3.75
			c-1.06-0.02-2.39-0.12-2.82-0.28l0.73-3.47c1.01,0.21,3.25,0.25,5.4,0.29l7.91,0.14C234,383.59,235.07,385.25,234.95,391.95z
			 M228.03,387.05l-8.34-0.14l-0.25,14.18l12.38,0.21l0.15-8.46C232.03,388.96,231.63,387.11,228.03,387.05z"/>
		<path class="st6" d="M241.04,395.7c1.65-2.48,2.54-4.38,2.57-5.95c0.02-1.29-0.71-1.74-2.51-2.28c-0.93-0.29-1.71-0.54-2.38-0.83
			l0.73-3.44c0.54,0.21,1.32,0.45,2.3,0.71c3.71,0.89,4.98,2.08,4.93,4.98c-0.04,2.47-1.27,5.19-3.23,8.01L241.04,395.7z"/>
		<path class="st6" d="M250.28,395.86c1.65-2.48,2.54-4.38,2.57-5.95c0.02-1.29-0.71-1.74-2.51-2.28c-0.93-0.29-1.71-0.54-2.38-0.83
			l0.73-3.43c0.54,0.21,1.32,0.45,2.3,0.71c3.71,0.89,4.98,2.08,4.93,4.98c-0.04,2.47-1.27,5.19-3.23,8.01L250.28,395.86z"/>
		<path class="st6" d="M259.03,401.92c0.98-0.1,2.24-0.12,4.82-0.07l2.74,0.05l0.15-8.73c0.06-3.41-0.32-4.35-3.79-5.24
			c-1.4-0.34-2.77-0.67-3.39-0.92l0.72-3.44c0.51,0.21,1.68,0.5,3.35,0.84c4.53,1.02,6.27,2.38,6.17,8.14l-0.16,9.52l-0.73,3.44
			l-5.44-0.09c-1.68-0.03-4.39-0.04-5.17,0.03L259.03,401.92z"/>
		<path class="st6" d="M273.84,401.98c3.29-0.06,7.4-2.18,7.45-7.31l0.03-1.53c0.02-3.21-0.71-4.16-3.64-4.96
			c-0.82-0.25-2.61-0.63-3.2-0.92l0.76-3.43c0.58,0.25,1.87,0.54,3.12,0.84c5.19,1.22,5.94,3.2,6.01,8.29l0.06,5.72
			c0.03,2.9,0.22,5.57,0.58,7.1l-3.05-0.05c-0.34-0.87-0.6-3.58-0.53-5.77c-1.28,3.66-4.45,6-8.29,5.93L273.84,401.98z"/>
		<path class="st6" d="M299.29,393.88c0.07-3.88-0.33-5.61-4.02-5.67l-3.88-0.07c-2.31-0.04-3.8-0.14-4.34-0.31l0.73-3.47
			c0.78,0.17,2.78,0.21,5.44,0.25l2.43,0.04c5.72,0.1,6.79,1.49,6.68,8.19l-0.23,13.24l-3.02-0.05L299.29,393.88z"/>
		<path class="st6" d="M312.13,393.99c0.06-3.37-0.31-4.59-3.35-5.39c-1.37-0.38-2.11-0.54-2.65-0.79l0.73-3.43
			c0.51,0.2,1.29,0.41,2.69,0.67c4.37,1.02,5.75,2.49,5.65,8.44l-0.22,12.81l-3.06-0.05L312.13,393.99z"/>
		<path class="st6" d="M320.27,401.18c0.07-3.84,1.03-7.39,3.86-10.28c-1.69-2.03-3.65-4.06-5.19-5.54l0.12-0.19l4.2-0.24
			c1.96,2.07,4.8,5.41,8.83,10.57c1.59-1.03,2.59-2.58,2.63-5.09c-0.01-1.49-0.37-3.26-1.09-4.96l3.84-0.29
			c0.48,1.5,0.69,2.91,0.66,4.63c-0.06,3.21-1.75,6.04-4.6,7.64c2.07,2.62,5.32,7.38,6.46,9.28l-4.15-0.07
			c-1.29-2.14-4.58-7.05-10.07-13.65c-1.76,2.08-2.16,4.86-2.13,7.37c0,2.23,0.51,4.44,0.99,6.09l-3.76-0.07
			C320.48,404.87,320.24,402.94,320.27,401.18z"/>
		<path class="st6" d="M370.93,394.3l-0.16,9.44c0,0.23-0.47,2.42-0.73,3.51l-17.62-0.3l0.24-14.02c0.03-1.8,0.17-3.01,0.34-3.75
			c-1.06-0.02-2.39-0.12-2.82-0.28l0.73-3.47c1.02,0.21,3.25,0.25,5.4,0.29l7.91,0.14C369.98,385.94,371.04,387.6,370.93,394.3z
			 M364,389.4l-8.34-0.14l-0.25,14.18l12.38,0.21l0.15-8.46C368,391.31,367.6,389.46,364,389.4z"/>
		<path class="st6" d="M377.6,398.06c1.65-2.48,2.54-4.38,2.57-5.95c0.02-1.29-0.71-1.74-2.51-2.28c-0.94-0.29-1.71-0.54-2.38-0.82
			l0.72-3.44c0.54,0.21,1.32,0.46,2.3,0.71c3.71,0.89,4.98,2.08,4.93,4.98c-0.04,2.47-1.27,5.19-3.23,8.01L377.6,398.06z"/>
		<path class="st6" d="M385.97,389.55l0.73-3.47c0.78,0.17,2.78,0.21,5.44,0.25l11.52,0.2l-0.77,3.55l-1.49-0.03
			c-1.18-0.02-1.62,0.8-1.67,3.62c-0.08,4.7,0.02,10.26,0.07,14.1l-3.06-0.05c0.01-2.55-0.12-9.13-0.04-13.4
			c0.05-2.7,0.38-3.6,0.9-4.33l-7.28-0.13C388.01,389.82,386.52,389.71,385.97,389.55z"/>
		<path class="st6" d="M407.76,398.58c1.65-2.48,2.54-4.38,2.57-5.95c0.02-1.29-0.71-1.74-2.51-2.28c-0.94-0.29-1.71-0.54-2.38-0.83
			l0.73-3.43c0.55,0.21,1.32,0.45,2.3,0.71c3.71,0.89,4.98,2.08,4.93,4.98c-0.04,2.47-1.27,5.19-3.23,8.01L407.76,398.58z"/>
		<path class="st6" d="M418.44,390.3c-0.9-0.05-1.49-0.14-1.99-0.27l0.77-3.47c0.62,0.17,3.13,0.25,5.56,0.29l8.89,0.15
			c4.78,0.08,5.6,2.6,5.53,6.64c-0.16,9.2-5.6,13.38-10.82,14.23c-2.04,0.36-3.96,0.48-5.06,0.54
			C420.41,403.11,418.93,393.25,418.44,390.3z M426.97,404.36c4.87-0.89,7.02-4.89,7.11-9.91c0.04-2.58-0.68-3.85-3.38-3.9
			l-9.12-0.16c0.42,2.87,1.62,10.64,2.18,14.38C424.46,404.71,425.67,404.61,426.97,404.36z"/>
		<path class="st6" d="M447.65,404.68c4.72-1.29,8.69-4.39,8.8-10.27c0.04-2.51-0.84-3.42-3.82-3.47l-5.37-0.09
			c-2.66-0.05-5.17-0.09-5.79-0.37l0.73-3.44c1.09,0.21,3.21,0.21,5.75,0.26l5.48,0.09c5.01,0.09,6.16,1.83,6.08,6.22
			c-0.15,8.46-5.88,13.73-12.53,15.3L447.65,404.68z M442.14,396.67l3.06,0.05l-0.33,19.35l-3.06-0.05L442.14,396.67z"/>
		<path class="st6" d="M468.31,396.69c0.06-3.37-0.31-4.59-3.35-5.38c-1.37-0.38-2.11-0.55-2.65-0.79l0.73-3.44
			c0.51,0.21,1.29,0.42,2.69,0.67c4.37,1.02,5.75,2.49,5.65,8.44L471.16,409l-3.06-0.05L468.31,396.69z"/>
		<path class="st6" d="M476.46,403.88c0.07-3.84,1.03-7.39,3.86-10.28c-1.69-2.03-3.65-4.06-5.19-5.53l0.12-0.19l4.2-0.24
			c1.96,2.07,4.8,5.41,8.83,10.57c1.58-1.03,2.59-2.58,2.63-5.09c-0.01-1.49-0.38-3.26-1.09-4.95l3.84-0.29
			c0.48,1.5,0.69,2.91,0.66,4.63c-0.06,3.21-1.75,6.04-4.6,7.64c2.07,2.62,5.32,7.38,6.46,9.28l-4.15-0.07
			c-1.29-2.14-4.58-7.05-10.07-13.65c-1.76,2.08-2.16,4.86-2.12,7.37c0,2.23,0.51,4.44,0.99,6.09l-3.76-0.06
			C476.66,407.57,476.42,405.64,476.46,403.88z"/>
		<path class="st6" d="M508.22,397.5c0.07-3.88-0.33-5.61-4.01-5.67l-3.88-0.07c-2.31-0.04-3.8-0.14-4.34-0.31l0.73-3.47
			c0.78,0.17,2.78,0.21,5.44,0.25l2.43,0.04c5.72,0.1,6.79,1.49,6.67,8.19l-0.23,13.24l-3.02-0.05L508.22,397.5z"/>
		<path class="st6" d="M516.13,406.41c0.94-0.14,3.57-0.1,5.96-0.09l8.42,0.15l0.12-7.01c0.04-4.31-1.27-5.98-6.11-6.88
			c-1.76-0.34-3.32-0.61-4.34-0.78c-0.65,1.2-1.14,2.29-1.15,3.19c-0.02,1.41,0.9,2.37,3.75,2.89l-0.84,3.35
			c-4.34-0.62-5.79-2.69-5.74-5.54c0.04-2.43,1.86-5.41,2.72-7.63c0.62,0.17,2.77,0.56,6.05,1.08c5.86,0.88,8.84,2.82,8.69,9.63
			l-0.14,7.99c-0.01,0.43-0.44,2.77-0.57,3.32l-12.22-0.21c-1.96-0.03-4.42-0.08-5.33,0.03L516.13,406.41z"/>
	</g>
	<g class="st5">
		<path class="st6" d="M262.75,448.92c0,5.85-3.73,9.11-8.17,9.11c-4.75,0-7.91-3.73-7.91-8.98c0-5.4,3.37-9.19,8.22-9.19
			C259.91,439.86,262.75,443.83,262.75,448.92z M249.1,448.97c0,4,2.04,7.21,5.61,7.21c3.71,0,5.64-3.37,5.64-7.21
			c0-3.6-1.75-7.26-5.61-7.26C251.08,441.71,249.1,445,249.1,448.97z"/>
		<path class="st6" d="M265.68,440.38c1.17-0.24,2.82-0.37,4.39-0.37c2.43,0,3.99,0.44,5.09,1.44c0.86,0.78,1.38,1.98,1.38,3.34
			c0,2.32-1.46,3.86-3.32,4.49v0.05c1.36,0.5,2.17,1.77,2.58,3.58c0.57,2.48,0.99,4.15,1.36,4.83h-2.35
			c-0.29-0.5-0.68-2.01-1.17-4.2c-0.52-2.4-1.46-3.34-3.52-3.42h-2.14v7.62h-2.3V440.38z M267.98,448.39h2.32
			c2.43,0,3.97-1.33,3.97-3.34c0-2.3-1.64-3.26-4.05-3.29c-1.12,0-1.88,0.1-2.25,0.21V448.39z"/>
		<path class="st6" d="M293.22,456.96c-1.02,0.37-3.03,0.97-5.4,0.97c-2.66,0-4.86-0.68-6.58-2.32c-1.51-1.46-2.45-3.81-2.45-6.55
			c0.03-5.22,3.63-9.08,9.53-9.08c2.04,0,3.66,0.47,4.39,0.81l-0.55,1.85c-0.94-0.42-2.11-0.76-3.89-0.76
			c-4.28,0-7.08,2.66-7.08,7.08c0,4.46,2.66,7.1,6.79,7.1c1.49,0,2.51-0.21,3.03-0.47v-5.25h-3.58v-1.83h5.8V456.96z"/>
		<path class="st6" d="M299.54,452.21l-1.8,5.54h-2.38l6-17.6h2.71l6,17.6h-2.43l-1.88-5.54H299.54z M305.31,450.43l-1.72-5.06
			c-0.39-1.15-0.65-2.19-0.91-3.21h-0.08c-0.24,1.04-0.52,2.11-0.86,3.18l-1.72,5.09H305.31z"/>
		<path class="st6" d="M312.65,457.74v-17.6h2.53l5.61,8.88c1.28,2.09,2.32,3.94,3.16,5.74l0.05-0.03
			c-0.21-2.35-0.26-4.49-0.26-7.21v-7.39h2.14v17.6h-2.3l-5.59-8.93c-1.23-1.96-2.4-3.97-3.29-5.87l-0.08,0.03
			c0.13,2.22,0.18,4.33,0.18,7.26v7.52H312.65z"/>
		<path class="st6" d="M332.13,440.14v17.6h-2.3v-17.6H332.13z"/>
		<path class="st6" d="M348.4,457.19c-0.84,0.39-2.51,0.83-4.67,0.83c-4.93,0-8.67-3.16-8.67-8.93c0-5.51,3.73-9.22,9.19-9.22
			c2.17,0,3.58,0.44,4.18,0.76l-0.55,1.85c-0.86-0.42-2.09-0.73-3.55-0.73c-4.12,0-6.87,2.64-6.87,7.26c0,4.31,2.48,7.08,6.76,7.08
			c1.38,0,2.79-0.29,3.71-0.73L348.4,457.19z"/>
		<path class="st6" d="M356.78,440.35c1.1-0.18,2.58-0.34,4.39-0.34c2.25,0,3.89,0.52,4.93,1.46c0.94,0.84,1.54,2.12,1.54,3.71
			c0,1.62-0.47,2.87-1.36,3.79c-1.2,1.28-3.16,1.93-5.33,1.93c-0.73,0-1.41-0.05-1.88-0.13v6.97h-2.3V440.35z M359.08,448.92
			c0.37,0.1,1.12,0.16,1.88,0.16c2.74,0,4.41-1.36,4.41-3.76c0-2.38-1.64-3.5-4.15-3.5c-1.02,0-1.75,0.08-2.14,0.16V448.92z"/>
		<path class="st6" d="M379.78,449.49h-6.81v6.37h7.62v1.88h-9.92v-17.6h9.53v1.88h-7.23v5.59h6.81V449.49z"/>
		<path class="st6" d="M383.49,440.38c1.17-0.24,2.82-0.37,4.39-0.37c2.43,0,3.99,0.44,5.09,1.44c0.86,0.78,1.38,1.98,1.38,3.34
			c0,2.32-1.46,3.86-3.32,4.49v0.05c1.36,0.5,2.17,1.77,2.58,3.58c0.57,2.48,0.99,4.15,1.36,4.83h-2.35
			c-0.29-0.5-0.68-2.01-1.17-4.2c-0.52-2.4-1.46-3.34-3.52-3.42h-2.14v7.62h-2.3V440.38z M385.79,448.39h2.32
			c2.43,0,3.97-1.33,3.97-3.34c0-2.3-1.64-3.26-4.05-3.29c-1.12,0-1.88,0.1-2.25,0.21V448.39z"/>
		<path class="st6" d="M412.68,448.92c0,5.85-3.73,9.11-8.17,9.11c-4.75,0-7.91-3.73-7.91-8.98c0-5.4,3.37-9.19,8.22-9.19
			C409.84,439.86,412.68,443.83,412.68,448.92z M399.03,448.97c0,4,2.04,7.21,5.61,7.21c3.71,0,5.64-3.37,5.64-7.21
			c0-3.6-1.75-7.26-5.61-7.26C401.01,441.71,399.03,445,399.03,448.97z"/>
		<path class="st6" d="M424.57,457.74l-2.25-3.89c-0.94-1.49-1.49-2.45-2.04-3.47h-0.05c-0.5,1.04-1.02,1.96-1.91,3.5l-2.12,3.86
			h-2.61l5.38-8.9l-5.17-8.69h2.61l2.35,4.12c0.65,1.15,1.15,2.04,1.64,3h0.05c0.5-1.07,0.94-1.85,1.59-3l2.4-4.12h2.61l-5.35,8.56
			l5.48,9.03H424.57z"/>
		<path class="st6" d="M432.11,440.14v17.6h-2.3v-17.6H432.11z"/>
		<path class="st6" d="M436.06,440.38c1.41-0.21,3.05-0.37,4.86-0.37c3.26,0,5.59,0.76,7.13,2.19c1.57,1.44,2.48,3.5,2.48,6.32
			c0,2.87-0.89,5.2-2.53,6.84c-1.67,1.64-4.36,2.53-7.78,2.53c-1.62,0-2.98-0.08-4.15-0.21V440.38z M438.35,455.94
			c0.57,0.1,1.41,0.13,2.3,0.13c4.86,0,7.49-2.71,7.49-7.47c0.03-4.15-2.32-6.79-7.13-6.79c-1.17,0-2.06,0.13-2.66,0.24V455.94z"/>
		<path class="st6" d="M462.56,449.49h-6.81v6.37h7.62v1.88h-9.92v-17.6h9.53v1.88h-7.23v5.59h6.81V449.49z"/>
		<path class="st6" d="M465.98,454.97c1.02,0.63,2.51,1.15,4.07,1.15c2.32,0,3.68-1.23,3.68-3c0-1.64-0.94-2.58-3.34-3.5
			c-2.85-0.99-4.62-2.53-4.62-4.99c0-2.71,2.27-4.75,5.69-4.75c1.78,0,3.11,0.42,3.89,0.83l-0.63,1.85
			c-0.57-0.31-1.75-0.83-3.34-0.83c-2.4,0-3.32,1.44-3.32,2.64c0,1.64,1.07,2.45,3.5,3.39c2.98,1.18,4.49,2.58,4.49,5.17
			c0,2.71-2.01,5.09-6.16,5.09c-1.72,0-3.58-0.52-4.52-1.15L465.98,454.97z"/>
	</g>
</g>
</svg>
