<?xml version="1.0" encoding="utf-8"?>
<!-- Generator: Adobe Illustrator 28.3.0, SVG Export Plug-In . SVG Version: 6.00 Build 0)  -->
<svg version="1.1" id="Layer_1" xmlns="http://www.w3.org/2000/svg" xmlns:xlink="http://www.w3.org/1999/xlink" x="0px" y="0px"
	 viewBox="0 0 746 740" style="enable-background:new 0 0 746 740;" xml:space="preserve">
<style type="text/css">
	.st0{fill:#F5EB31;}
	.st1{fill:none;stroke:#3B3A3C;stroke-miterlimit:10;}
	.st2{fill:#221F1F;}
	.st3{fill:none;}
	.st4{enable-background:new    ;}
	.st5{fill:#231F20;}
</style>
<g>
	<g>
		<g>
			<polygon class="st0" points="368.95,652 83.54,372.28 373,88 662.46,372.28 			"/>
			<polygon class="st1" points="369.54,610.83 125.8,371.95 373,129.17 620.2,371.95 			"/>
		</g>
		<path id="path1360" class="st2" d="M372.19,156.32l-3.64,3.94c-10.05,12.26,4.19,25.97-2,38.48c-2.74-6.07-8.97-12.72-15.83-13.07
			v0.9c0.24-0.13,0.31,0.06,0.55,0.18c6.85,10.01,2.74,23.21-3.64,32.21c-2.53-3.26-5.86-8.22-10.18-8.77v0.9
			c5.48,6.97,2.77,16.89-0.91,23.98c-1.48,2.8-1,6.79-2.73,9.48c-2.74-1.69-5.75-3.86-9.64-3.76v1.07
			c8.7,10.36-0.14,23.16,1.46,35.08c1.01,2.88,2.11,7.42,5.64,7.87c1.25,14.14,9.74,26.31,21.82,32.74h-29.28v11.99h98.37v-11.99
			H393.1c12.53-6.62,21.2-19.4,22-34.17c0.49,0.01,0.95,0,1.45,0c11.55-14.41-7.9-31.34,4.91-45.28c-2.85-0.56-5.55,0.77-8.18,1.79
			l-0.55-0.54c1.12-4.84,2.11-9.58,2-14.86c-0.93-8.33-2.97-16.33-7.09-23.09c-0.45,3.84-0.01,8-2.18,10.92
			c1.03-11.02-4.74-20.84-14-27.02c-0.45,3.48,2.64,7.3,0.37,10.91c-0.69-3.73-2.9-6.76-4.74-10.02
			c-5.38-7.53-15.02-13.57-14.9-23.81C371.84,160.15,373.1,158.01,372.19,156.32z M378.18,203.75c3.65,6.99-2.21,13.77-0.73,21.3
			c2.16,4.85,6.45,9.94,4.73,15.57c-0.02,0.07,0.01,0.11,0,0.18c-2.92-0.63-5.98-1.07-9.09-1.07c-0.78,0-1.6,0.14-2.36,0.18
			l0.55-3.23C362.13,225.21,372.34,213.53,378.18,203.75z M358.18,228.63c1.15,4.39,4.22,7.85,4.91,12.34
			c-2.54,0.61-4.95,1.29-7.28,2.33c1.39-3.47,0.79-8.04,0.55-11.82C356.97,230.59,356.59,228.96,358.18,228.63z M391.83,229.17
			c3.76,3.38,3.12,10.34,1.63,14.85c-0.14,0.24-0.12,0.48-0.18,0.72c-2.09-1.14-4.26-2.09-6.55-2.87c0.04-0.13,0.15-0.21,0.18-0.36
			C388.29,237.36,390.9,233.55,391.83,229.17z M344.91,239.54c1.37,2.58,1.5,6.13,4.36,7.7c-2.08,1.42-4.05,2.89-5.82,4.66
			C343.43,247.43,342.16,243.43,344.91,239.54z M404.01,242.41c0.22,0.03,0.5,0.17,0.73,0.54l-0.54,9.85c0.01,0.15-0.01,0.38,0,0.54
			c-1.8-1.94-3.87-3.62-6.01-5.19c0.19-0.11,0.39-0.18,0.55-0.36c1.7-1.13,1.97-2.93,3.46-4.3
			C402.79,243.32,403.36,242.31,404.01,242.41z M373.1,250.82c17.03,0,30.91,13.66,30.91,30.43c0,16.74-13.88,30.26-30.91,30.26
			c-17.04,0-30.74-13.52-30.74-30.26C342.36,264.48,356.06,250.82,373.1,250.82z M333.81,258.15c1.5,0.11,1.41,2.16,2.91,2.51
			c-0.8,1.38-1.59,2.78-2.28,4.23l-0.09-0.11C333.79,262.65,333.25,260.41,333.81,258.15z"/>
	</g>
	<rect x="342.16" y="528.51" class="st3" width="50.92" height="58.35"/>
	<g class="st4">
		<path class="st5" d="M351.16,556.46c1.99-0.86,4.11-1.38,5.1-1.38c4.97,0,7.77,3.41,7.77,6.96c0,2.58-1.18,5.01-3.87,7.07
			c-2.22,1.69-5,2.83-7.32,2.83c-1.52,0-3.16-0.57-4.03-1.32c-0.84-0.72-0.99-1.17-0.99-1.75c0-0.69,0.58-1.69,1.28-2.26
			c0.47-0.34,0.89-0.17,1.41,0.37c0.97,0.92,2.82,2.55,5,2.55c2.43,0,3.58-2.29,3.58-5.27c0-3.78-2.22-6.21-5.73-6.21
			c-1.8,0-3.5,0.54-4.29,0.86l1.75-13.43h12.42l0.21,0.4l-1.28,4.1h-9.94L351.16,556.46z"/>
		<path class="st5" d="M370.7,571.96c-1.57,0-2.77-1.29-2.77-3.15c0-1.83,1.2-3.12,2.8-3.12c1.65,0,2.82,1.29,2.82,3.12
			c0,1.86-1.18,3.15-2.82,3.15H370.7z"/>
		<path class="st5" d="M379.59,571.47v-1.46c3.14-0.26,3.48-0.89,3.48-3.87v-15.04c0-2.21-0.16-2.46-1.67-2.58l-2.09-0.11v-1.26
			c2.48-0.43,5.33-1.17,8.87-2.18v21.17c0,2.86,0.26,3.61,3.43,3.87v1.46H379.59z"/>
	</g>
	<polygon class="st3" points="170.73,340.61 593.67,344.53 585.32,408.03 162.39,404.11 	"/>
	<g class="st4">
		<path class="st5" d="M269.21,358.81l-0.16,9.47c0,0.24-0.47,2.43-0.73,3.53l-17.69-0.31l0.24-14.07c0.03-1.81,0.17-3.02,0.34-3.77
			c-1.06-0.02-2.4-0.12-2.83-0.28l0.73-3.49c1.02,0.21,3.26,0.25,5.42,0.29l7.94,0.14C268.25,350.42,269.33,352.09,269.21,358.81z
			 M262.26,353.89l-8.37-0.14l-0.25,14.23l12.42,0.21l0.15-8.49C266.27,355.81,265.87,353.95,262.26,353.89z"/>
		<path class="st5" d="M273.9,362.54c1.65-2.49,2.55-4.4,2.58-5.97c0.02-1.3-0.72-1.74-2.52-2.28c-0.94-0.29-1.72-0.54-2.38-0.83
			l0.73-3.45c0.55,0.21,1.33,0.46,2.31,0.71c3.72,0.89,5,2.09,4.95,5c-0.04,2.48-1.27,5.21-3.24,8.04L273.9,362.54z"/>
		<path class="st5" d="M282.92,368.64c0.99-0.1,2.24-0.12,4.84-0.07l2.75,0.05l0.15-8.76c0.06-3.42-0.32-4.37-3.8-5.25
			c-1.41-0.34-2.78-0.68-3.4-0.92l0.73-3.45c0.51,0.21,1.68,0.5,3.37,0.84c4.54,1.02,6.29,2.39,6.19,8.17l-0.17,9.55l-0.73,3.45
			l-5.46-0.09c-1.69-0.03-4.4-0.04-5.19,0.03L282.92,368.64z"/>
		<path class="st5" d="M297.97,368.94c0.91-0.14,3.15-0.14,5.39-0.1l6.09,0.11c-1.08-1.12-3.5-4.27-7.65-9.96
			c-1.96-2.71-4.26-5.85-5.84-7.92l4.41-0.32c1.61,2.39,4.29,6.44,6.44,9.47c3.01-1.17,3.51-2.89,3.55-5.05
			c0.02-1.18-0.38-2.76-0.84-3.87l3.86-0.29c0.3,0.95,0.47,2.13,0.45,3.39c-0.06,3.73-1.52,6.22-5.68,7.88
			c3.22,4.46,5.34,6.89,6,7.42l-0.72,2.9l-10.53-0.18c-2.63-0.04-4.95-0.05-5.82,0.02L297.97,368.94z"/>
		<path class="st5" d="M320.13,360.63c0.62-3.92-0.93-5.48-3.39-6.11l0.77-3.64c3.13,0.56,4.99,2.6,5.29,5.63
			c0.95-2.38,3.36-5.45,7.72-5.37c6.13,0.11,7.53,5.75,7.4,13.34l-0.09,5.03c-0.01,0.35-0.48,2.94-0.61,3.49l-7.74-0.13
			c-1.57-0.03-3.62-0.02-4.44,0.04l0.73-3.49c0.83-0.14,2.68-0.11,4.84-0.07l4.13,0.07c0.07-1.65,0.1-3.26,0.12-4.83
			c0.09-4.95-0.46-9.8-5.06-9.88c-4.36-0.08-5.97,4.22-6.61,6.88c-0.67,2.62-1.58,7.36-2.35,11.12l-3.07-0.05
			C318.61,368.63,319.65,363.53,320.13,360.63z"/>
		<path class="st5" d="M343.83,360.73c0.05-2.63,0.2-4.67,0.41-5.46c-0.71-0.05-2.59-0.2-2.86-0.25l0.73-3.53
			c0.82,0.21,2.79,0.25,5.46,0.29l7.11,0.12c5.74,0.1,6.81,1.89,6.7,8.41l-0.23,13.09l-3.07-0.05l0.21-11.95
			c0.07-4.32-0.29-5.86-4.02-5.93l-7.31-0.13l-0.31,17.8l-3.03-0.05L343.83,360.73z"/>
		<path class="st5" d="M368.47,361.47c0.62-3.92-0.93-5.48-3.39-6.11l0.77-3.64c3.14,0.56,4.99,2.6,5.29,5.63
			c0.95-2.38,3.36-5.45,7.72-5.37c6.13,0.11,7.53,5.75,7.4,13.34l-0.09,5.03c-0.01,0.35-0.48,2.94-0.61,3.49l-7.74-0.13
			c-1.57-0.03-3.62-0.02-4.44,0.04l0.73-3.49c0.83-0.14,2.67-0.11,4.84-0.07l4.13,0.07c0.07-1.65,0.1-3.26,0.12-4.83
			c0.09-4.95-0.46-9.8-5.06-9.88c-4.36-0.08-5.97,4.22-6.6,6.88c-0.67,2.62-1.58,7.36-2.35,11.12l-3.07-0.05
			C366.96,369.46,367.99,364.37,368.47,361.47z"/>
		<path class="st5" d="M419.5,361.41l-0.16,9.47c0,0.24-0.48,2.43-0.73,3.53l-17.69-0.31l0.24-14.07c0.03-1.81,0.17-3.02,0.34-3.77
			c-1.06-0.02-2.4-0.12-2.83-0.29l0.73-3.49c1.02,0.21,3.26,0.25,5.42,0.29l7.94,0.14C418.55,353.02,419.62,354.69,419.5,361.41z
			 M412.55,356.49l-8.37-0.15l-0.25,14.23l12.42,0.21l0.15-8.49C416.57,358.41,416.17,356.55,412.55,356.49z"/>
		<path class="st5" d="M424.83,365.16c1.65-2.49,2.55-4.4,2.58-5.97c0.02-1.3-0.72-1.74-2.52-2.28c-0.94-0.29-1.72-0.54-2.38-0.83
			l0.73-3.45c0.55,0.21,1.33,0.46,2.31,0.71c3.72,0.89,5,2.09,4.95,5c-0.04,2.48-1.27,5.21-3.24,8.04L424.83,365.16z"/>
		<path class="st5" d="M443.86,362.65c0.07-3.89-0.34-5.63-4.03-5.69l-3.89-0.07c-2.32-0.04-3.81-0.14-4.36-0.31l0.73-3.49
			c0.78,0.17,2.79,0.21,5.46,0.25l2.44,0.04c5.74,0.1,6.81,1.49,6.7,8.21l-0.23,13.28l-3.03-0.05L443.86,362.65z"/>
		<path class="st5" d="M453.84,362.94c0.62-3.92-0.93-5.48-3.39-6.11l0.77-3.64c3.14,0.57,4.99,2.6,5.29,5.63
			c0.95-2.38,3.36-5.45,7.72-5.37c6.13,0.11,7.53,5.75,7.4,13.34l-0.09,5.03c-0.01,0.35-0.48,2.94-0.61,3.49l-7.74-0.13
			c-1.57-0.03-3.62-0.02-4.44,0.04l0.73-3.49c0.83-0.14,2.67-0.11,4.84-0.07l4.13,0.07c0.07-1.65,0.09-3.26,0.12-4.83
			c0.09-4.95-0.46-9.8-5.06-9.88c-4.36-0.08-5.97,4.22-6.61,6.88c-0.67,2.62-1.58,7.36-2.36,11.12l-3.07-0.05
			C452.32,370.94,453.36,365.85,453.84,362.94z"/>
		<path class="st5" d="M480.45,363.17c0.06-3.38-0.31-4.6-3.37-5.4c-1.37-0.38-2.11-0.55-2.66-0.79l0.73-3.45
			c0.51,0.21,1.29,0.42,2.7,0.68c4.38,1.02,5.78,2.5,5.67,8.47l-0.22,12.85l-3.07-0.05L480.45,363.17z"/>
		<path class="st5" d="M489.84,363.25c0.05-2.63,0.2-4.67,0.41-5.46c-0.71-0.05-2.59-0.2-2.87-0.25l0.73-3.53
			c0.82,0.21,2.79,0.25,5.46,0.29l7.11,0.12c5.74,0.1,6.81,1.89,6.7,8.41l-0.23,13.09l-3.07-0.05l0.21-11.95
			c0.07-4.32-0.29-5.86-4.03-5.93l-7.31-0.13l-0.31,17.8l-3.03-0.05L489.84,363.25z"/>
	</g>
	<g class="st4">
		<path class="st5" d="M248.76,414.93c0,5.87-3.75,9.14-8.2,9.14c-4.77,0-7.94-3.75-7.94-9.01c0-5.42,3.38-9.22,8.25-9.22
			C245.9,405.84,248.76,409.82,248.76,414.93z M235.06,414.98c0,4.01,2.04,7.23,5.63,7.23c3.72,0,5.66-3.38,5.66-7.23
			c0-3.62-1.76-7.28-5.63-7.28C237.05,407.7,235.06,411,235.06,414.98z"/>
		<path class="st5" d="M260.68,423.78l-2.25-3.9c-0.94-1.49-1.49-2.46-2.04-3.49h-0.05c-0.5,1.05-1.02,1.97-1.91,3.51l-2.12,3.88
			h-2.62l5.4-8.93l-5.19-8.72h2.62l2.36,4.14c0.66,1.15,1.15,2.04,1.65,3.01h0.05c0.5-1.07,0.94-1.86,1.6-3.01l2.41-4.14h2.62
			l-5.37,8.59l5.5,9.07H260.68z"/>
		<path class="st5" d="M268.26,406.13v17.66h-2.31v-17.66H268.26z"/>
		<path class="st5" d="M272.21,406.36c1.42-0.21,3.07-0.37,4.87-0.37c3.27,0,5.61,0.76,7.15,2.2c1.57,1.44,2.49,3.51,2.49,6.34
			c0,2.88-0.89,5.21-2.54,6.86c-1.68,1.65-4.38,2.54-7.81,2.54c-1.62,0-2.99-0.08-4.17-0.21V406.36z M274.52,421.98
			c0.58,0.1,1.41,0.13,2.31,0.13c4.87,0,7.52-2.72,7.52-7.49c0.03-4.17-2.33-6.81-7.15-6.81c-1.18,0-2.07,0.13-2.67,0.24V421.98z"/>
		<path class="st5" d="M291.97,406.13v17.66h-2.31v-17.66H291.97z"/>
		<path class="st5" d="M294.75,422.47l9.77-14.36v-0.08h-8.93v-1.91h11.92v1.39l-9.75,14.28v0.08h9.88v1.91h-12.89V422.47z"/>
		<path class="st5" d="M312.73,406.13v17.66h-2.31v-17.66H312.73z"/>
		<path class="st5" d="M316.68,423.78v-17.66h2.54l5.63,8.91c1.28,2.1,2.33,3.96,3.17,5.76l0.05-0.03
			c-0.21-2.36-0.26-4.51-0.26-7.23v-7.41h2.15v17.66h-2.31l-5.61-8.96c-1.23-1.96-2.41-3.98-3.3-5.9l-0.08,0.03
			c0.13,2.23,0.18,4.35,0.18,7.28v7.54H316.68z"/>
		<path class="st5" d="M347.39,423c-1.02,0.37-3.04,0.97-5.42,0.97c-2.67,0-4.87-0.68-6.6-2.33c-1.52-1.47-2.46-3.83-2.46-6.58
			c0.03-5.24,3.64-9.12,9.56-9.12c2.04,0,3.67,0.47,4.4,0.81l-0.55,1.86c-0.94-0.42-2.12-0.76-3.9-0.76c-4.3,0-7.1,2.67-7.1,7.1
			c0,4.48,2.67,7.13,6.81,7.13c1.49,0,2.52-0.21,3.04-0.47v-5.27h-3.59v-1.83h5.82V423z"/>
		<path class="st5" d="M356.15,421.01c1.02,0.63,2.52,1.15,4.09,1.15c2.33,0,3.69-1.23,3.69-3.01c0-1.65-0.94-2.59-3.35-3.51
			c-2.86-1-4.64-2.54-4.64-5c0-2.72,2.28-4.77,5.71-4.77c1.78,0,3.12,0.42,3.9,0.84l-0.63,1.86c-0.58-0.31-1.76-0.84-3.35-0.84
			c-2.41,0-3.33,1.44-3.33,2.65c0,1.65,1.07,2.46,3.51,3.41c2.99,1.18,4.51,2.59,4.51,5.19c0,2.72-2.02,5.11-6.18,5.11
			c-1.73,0-3.59-0.52-4.53-1.15L356.15,421.01z"/>
		<path class="st5" d="M371.66,406.13v10.51c0,3.9,1.73,5.58,4.11,5.58c2.59,0,4.3-1.73,4.3-5.58v-10.51h2.28v10.32
			c0,5.42-2.83,7.62-6.65,7.62c-3.62,0-6.34-2.04-6.34-7.52v-10.43H371.66z"/>
		<path class="st5" d="M386.31,406.36c1.02-0.21,2.62-0.37,4.19-0.37c2.28,0,3.75,0.39,4.82,1.28c0.94,0.68,1.49,1.73,1.49,3.12
			c0,1.7-1.15,3.22-2.99,3.88v0.05c1.68,0.42,3.64,1.78,3.64,4.45c0,1.49-0.58,2.65-1.52,3.51c-1.21,1.13-3.2,1.65-6.08,1.65
			c-1.6,0-2.78-0.1-3.56-0.21V406.36z M388.61,413.62h2.07c2.38,0,3.83-1.28,3.83-2.99c0-2.07-1.57-2.88-3.88-2.88
			c-1.05,0-1.65,0.08-2.02,0.16V413.62z M388.61,422.05c0.47,0.08,1.07,0.11,1.91,0.11c2.36,0,4.56-0.87,4.56-3.41
			c0-2.44-2.1-3.43-4.58-3.43h-1.89V422.05z"/>
		<path class="st5" d="M400.22,421.01c1.02,0.63,2.51,1.15,4.09,1.15c2.33,0,3.69-1.23,3.69-3.01c0-1.65-0.94-2.59-3.35-3.51
			c-2.86-1-4.64-2.54-4.64-5c0-2.72,2.28-4.77,5.71-4.77c1.78,0,3.12,0.42,3.9,0.84l-0.63,1.86c-0.58-0.31-1.75-0.84-3.35-0.84
			c-2.41,0-3.33,1.44-3.33,2.65c0,1.65,1.07,2.46,3.51,3.41c2.99,1.18,4.51,2.59,4.51,5.19c0,2.72-2.02,5.11-6.18,5.11
			c-1.73,0-3.59-0.52-4.53-1.15L400.22,421.01z"/>
		<path class="st5" d="M416.81,408.06h-5.37v-1.94h13.07v1.94h-5.4v15.72h-2.31V408.06z"/>
		<path class="st5" d="M427.37,418.23l-1.81,5.55h-2.38l6.03-17.66h2.73l6.03,17.66h-2.44l-1.89-5.55H427.37z M433.16,416.45
			l-1.73-5.08c-0.39-1.15-0.66-2.2-0.92-3.22h-0.08c-0.24,1.05-0.52,2.12-0.86,3.2l-1.73,5.11H433.16z"/>
		<path class="st5" d="M440.53,423.78v-17.66h2.54l5.63,8.91c1.28,2.1,2.33,3.96,3.17,5.76l0.05-0.03
			c-0.21-2.36-0.26-4.51-0.26-7.23v-7.41h2.15v17.66h-2.31l-5.61-8.96c-1.23-1.96-2.41-3.98-3.3-5.9l-0.08,0.03
			c0.13,2.23,0.18,4.35,0.18,7.28v7.54H440.53z"/>
		<path class="st5" d="M470.13,423.23c-0.84,0.39-2.52,0.84-4.69,0.84c-4.95,0-8.7-3.17-8.7-8.96c0-5.53,3.75-9.25,9.22-9.25
			c2.17,0,3.59,0.45,4.19,0.76l-0.55,1.86c-0.86-0.42-2.1-0.73-3.56-0.73c-4.14,0-6.89,2.65-6.89,7.28c0,4.32,2.49,7.1,6.79,7.1
			c1.39,0,2.8-0.29,3.72-0.73L470.13,423.23z"/>
		<path class="st5" d="M482.11,415.5h-6.84v6.39h7.65v1.89h-9.96v-17.66h9.56v1.89h-7.26v5.61h6.84V415.5z"/>
		<path class="st5" d="M485.54,421.01c1.02,0.63,2.52,1.15,4.09,1.15c2.33,0,3.69-1.23,3.69-3.01c0-1.65-0.94-2.59-3.35-3.51
			c-2.86-1-4.64-2.54-4.64-5c0-2.72,2.28-4.77,5.71-4.77c1.78,0,3.12,0.42,3.9,0.84l-0.63,1.86c-0.58-0.31-1.76-0.84-3.35-0.84
			c-2.41,0-3.33,1.44-3.33,2.65c0,1.65,1.07,2.46,3.51,3.41c2.99,1.18,4.51,2.59,4.51,5.19c0,2.72-2.02,5.11-6.18,5.11
			c-1.73,0-3.59-0.52-4.53-1.15L485.54,421.01z"/>
	</g>
</g>
</svg>
