<?xml version="1.0" encoding="utf-8"?>
<!-- Generator: Adobe Illustrator 28.3.0, SVG Export Plug-In . SVG Version: 6.00 Build 0)  -->
<svg version="1.1" id="Layer_1" xmlns="http://www.w3.org/2000/svg" xmlns:xlink="http://www.w3.org/1999/xlink" x="0px" y="0px"
	 viewBox="0 0 746 740" style="enable-background:new 0 0 746 740;" xml:space="preserve">
<style type="text/css">
	.st0{fill:#FFFFFF;stroke:#323031;stroke-miterlimit:10;stroke-dasharray:6;}
	.st1{fill:none;stroke:#3B3A3C;stroke-miterlimit:10;}
	.st2{fill:#C82127;}
	.st3{fill:none;}
	.st4{enable-background:new    ;}
	.st5{fill:#231F20;}
</style>
<g>
	<g>
		<g>
			<g>
				<polygon class="st0" points="369.44,653.21 79.44,368.99 373.55,80.14 667.66,368.99 				"/>
				<polygon class="st1" points="370.04,611.38 122.38,368.65 373.55,121.97 624.73,368.65 				"/>
			</g>
		</g>
		<polygon class="st0" points="370.02,651.75 80.04,367.52 372.69,80.13 666.79,368.99 		"/>
		<polygon class="st2" points="670.56,368.73 75.44,368.99 372.51,659.87 		"/>
		<polygon class="st1" points="369.16,611.38 121.5,368.65 372.68,121.97 623.86,368.65 		"/>
		<path d="M372.99,172.11c-11.95,22.57,1.99,35.18-13.28,67.71c-8.63-6.64-3.98-31.2-19.91-31.86c1.99,7.97,0.66,10.62,0,13.28
			c-1.99,11.28-5.31,20.58,1.99,34.52c-11.28-5.31-11.95-15.27-21.24-21.91c1.99,10.62-2.66,32.53,9.96,53.77
			c-11.28-1.33-15.27-5.31-27.22-17.26c12.61,66.38,22.57,68.37,69.7,72.36c-3.98-0.66-27.88-4.65-36.51-31.86
			c0-6.64-0.66,5.97,22.57,6.64c-14.6-23.23-10.62-18.59-9.29-31.86c6.64,8.63,1.33,9.96,17.92,16.6
			c-5.31-17.26,8.63-28.54,5.31-48.46c3.98,8.63,17.26,7.3,16.6,48.46c11.28-12.61,11.95-3.98,17.26-17.26
			c0.66,7.3,3.98,16.6-11.28,32.53c3.98,1.33,10.62,1.99,20.58-5.31c-9.96,11.95-0.66,11.95-26.55,30.54
			c32.53,0.66,53.77-19.91,53.1-64.39c-1.33,3.98-1.99,11.95-19.25,13.94c10.62-10.62,16.6-32.53,7.97-49.79
			c-3.32,2.66-7.97,15.93-19.25,19.25c5.31-9.29,3.98-21.24,3.98-21.24s1.99-16.6-7.97-29.87c-2.66,19.91-2.66,30.54-15.27,33.19
			c1.99-11.28,2.66-17.26-3.98-30.54C382.29,199.32,374.32,185.38,372.99,172.11z M319.22,353.99v11.95h113.51v-11.95H319.22z"/>
	</g>
	<rect x="350.74" y="534.98" class="st3" width="29.46" height="59.29"/>
	<g class="st4">
		<path class="st5" d="M376.69,571.21v2.53c0,2.65,0.27,3.06,3.24,3.43v1.46h-11.87v-1.46c3.53-0.38,3.64-0.99,3.64-3.64v-2.33
			h-10.07v-1.78c4.3-6.49,8.47-12.51,12.25-17.46h2.82v16.79h3.64v2.44H376.69z M371.69,557.68h-0.08
			c-1.81,2.56-4.41,6.63-7.04,11.09h7.12V557.68z"/>
	</g>
	<polygon class="st3" points="162.19,379.41 591.92,383.39 583.45,447.91 153.72,443.93 	"/>
	<g class="st4">
		<path class="st5" d="M198.05,406.57c0.6-0.11,1.16-0.18,3.28-0.14l0.6,0.01c0.03-3.88-0.15-11.91-0.39-14.47l-0.12,0
			c-0.72-0.01-2.4-0.08-3.03-0.33l0.78-3.5c1.23,0.26,3.83,0.22,6.27,0.27l6.55,0.11c5.87,0.1,6.97,1.52,6.85,8.35l-0.23,13.5
			l-3.12-0.05l0.21-12.38c0.07-3.95-0.34-5.72-4.05-5.78l-7.03-0.12c0.16,2.56,0.44,11.71,0.35,14.51l-0.62,3.58l-3.16-0.05
			c-1.6-0.03-3.04-0.01-3.96,0.09L198.05,406.57z"/>
		<path class="st5" d="M223.52,400.94c1.68-2.53,2.59-4.47,2.62-6.07c0.02-1.32-0.73-1.77-2.56-2.32c-0.95-0.3-1.75-0.55-2.42-0.84
			l0.74-3.5c0.56,0.21,1.35,0.46,2.34,0.72c3.78,0.9,5.08,2.12,5.03,5.08c-0.04,2.52-1.29,5.29-3.3,8.17L223.52,400.94z"/>
		<path class="st5" d="M235.82,398.39c0.63-3.98-0.94-5.57-3.45-6.21l0.78-3.7c3.19,0.57,5.07,2.64,5.37,5.73
			c0.96-2.42,3.41-5.54,7.85-5.46c6.23,0.11,7.65,5.85,7.52,13.55l-0.09,5.11c-0.01,0.36-0.49,2.99-0.62,3.54l-7.87-0.14
			c-1.6-0.03-3.68-0.02-4.52,0.04l0.74-3.54c0.84-0.15,2.72-0.11,4.92-0.08l4.19,0.07c0.07-1.68,0.1-3.32,0.12-4.91
			c0.09-5.03-0.47-9.96-5.14-10.04c-4.43-0.08-6.07,4.29-6.71,7c-0.69,2.67-1.61,7.48-2.39,11.31l-3.12-0.05
			C234.28,406.52,235.33,401.34,235.82,398.39z"/>
		<path class="st5" d="M258.91,407.62c0.92-0.14,3.2-0.14,5.48-0.11l6.19,0.11c-1.1-1.14-3.56-4.34-7.78-10.12
			c-1.99-2.75-4.33-5.95-5.93-8.05l4.48-0.32c1.64,2.43,4.36,6.55,6.55,9.62c3.06-1.19,3.57-2.93,3.6-5.13
			c0.02-1.2-0.39-2.8-0.85-3.93l3.92-0.29c0.3,0.96,0.48,2.17,0.46,3.44c-0.07,3.79-1.55,6.33-5.77,8.01
			c3.28,4.53,5.43,7.01,6.1,7.54l-0.73,2.94l-10.7-0.18c-2.68-0.05-5.03-0.05-5.91,0.02L258.91,407.62z"/>
		<path class="st5" d="M286.39,407.9c-1.24-4.38-5.24-13.76-8.04-18.04l4.24-0.29c2.13,3.91,5.38,12.04,6.69,17.46
			c2.98-1.19,4.58-3.76,4.67-8.67c0.04-2.28-0.5-5.64-1.54-8.26l3.96-0.33c0.46,1.37,0.96,4.29,0.91,7.61
			c-0.14,5.83-1.66,10.44-8.26,13.24c-3.06,1.3-7.83,2.22-11.51,2.6l0.75-3.9C280.94,409.08,284.3,408.58,286.39,407.9z"/>
		<path class="st5" d="M309.03,408.49c0.6-0.11,1.16-0.18,3.28-0.14l0.6,0.01c0.03-3.88-0.15-11.91-0.39-14.47l-0.12,0
			c-0.72-0.01-2.4-0.08-3.03-0.33l0.78-3.5c1.23,0.26,3.83,0.23,6.27,0.27l6.55,0.11c5.87,0.1,6.96,1.52,6.85,8.35l-0.23,13.5
			l-3.12-0.05l0.21-12.38c0.07-3.95-0.34-5.72-4.06-5.78l-7.03-0.12c0.15,2.56,0.44,11.71,0.35,14.51l-0.62,3.59l-3.16-0.05
			c-1.6-0.03-3.04-0.01-3.96,0.09L309.03,408.49z"/>
		<path class="st5" d="M338.94,399.94c0.06-3.43-0.32-4.68-3.42-5.49c-1.39-0.38-2.15-0.56-2.7-0.81l0.74-3.5
			c0.52,0.21,1.31,0.42,2.75,0.69c4.46,1.04,5.87,2.54,5.76,8.61l-0.23,13.06l-3.12-0.05L338.94,399.94z"/>
		<path class="st5" d="M348.48,400.02c0.05-2.68,0.2-4.75,0.42-5.55c-0.72-0.05-2.63-0.21-2.91-0.25l0.74-3.58
			c0.84,0.21,2.83,0.25,5.55,0.3l7.23,0.12c5.83,0.1,6.92,1.92,6.8,8.55l-0.23,13.3l-3.12-0.05l0.21-12.14
			c0.08-4.39-0.3-5.96-4.09-6.02l-7.43-0.13l-0.31,18.09l-3.08-0.05L348.48,400.02z"/>
		<path class="st5" d="M377.65,409.12c4.82-1.31,8.87-4.48,8.97-10.47c0.04-2.56-0.86-3.49-3.9-3.54l-5.47-0.09
			c-2.72-0.05-5.27-0.09-5.91-0.38l0.74-3.5c1.12,0.22,3.27,0.22,5.87,0.26l5.59,0.1c5.11,0.09,6.28,1.87,6.2,6.34
			c-0.15,8.63-6,14-12.78,15.6L377.65,409.12z M372.04,400.95l3.12,0.05l-0.34,19.73l-3.12-0.05L372.04,400.95z"/>
		<path class="st5" d="M395.25,409.7c5.34-1.51,9.57-5.59,9.66-11.22c0.04-2.52-0.95-3.01-3.06-3.05l-9.5-0.17l0.1-5.75
			c0.04-2.44-0.03-5.35-0.45-6.36l3.25-0.5c0.23,0.52,0.34,3.24,0.29,6.2l-0.05,2.84l7.71,0.13c4.08,0.07,5,2.12,4.94,5.68
			c-0.16,8.99-7.33,14.98-13.67,16.26L395.25,409.7z"/>
		<path class="st5" d="M411.18,410.25c0.6-0.11,1.16-0.18,3.28-0.14l0.6,0.01c0.03-3.88-0.15-11.91-0.39-14.47l-0.12,0
			c-0.72-0.01-2.4-0.08-3.03-0.33l0.78-3.5c1.23,0.26,3.83,0.22,6.27,0.27l6.55,0.11c5.87,0.1,6.96,1.52,6.85,8.35l-0.23,13.5
			l-3.12-0.05l0.21-12.38c0.07-3.95-0.34-5.72-4.06-5.78l-7.03-0.12c0.16,2.56,0.44,11.71,0.35,14.51l-0.62,3.58l-3.16-0.05
			c-1.6-0.03-3.04-0.01-3.96,0.09L411.18,410.25z"/>
		<path class="st5" d="M452.42,402.5c0.08-4.43-0.29-6.2-4.05-6.26l-6.79-0.12c-2.36-0.04-4.03-0.15-4.59-0.32l0.74-3.54
			c0.8,0.17,2.79,0.21,5.51,0.25l5.47,0.09c5.67,0.1,6.92,1.76,6.81,8.31l-0.23,13.54l-3.08-0.05L452.42,402.5z M437.68,402.72
			l3.12,0.05l-0.2,11.42l-3.12-0.05L437.68,402.72z"/>
		<path class="st5" d="M462.06,410.86c5.34-1.51,9.57-5.59,9.66-11.22c0.04-2.52-0.95-3.01-3.06-3.05l-9.5-0.16l0.1-5.75
			c0.04-2.44-0.03-5.35-0.45-6.36l3.24-0.5c0.23,0.52,0.34,3.24,0.29,6.2l-0.05,2.84l7.71,0.13c4.07,0.07,5,2.12,4.94,5.68
			c-0.16,8.99-7.33,14.98-13.67,16.26L462.06,410.86z"/>
		<path class="st5" d="M491.01,402.61c0.06-3.47-0.32-4.68-3.42-5.49c-1.43-0.38-2.15-0.6-2.7-0.88l0.74-3.46
			c0.52,0.21,1.31,0.46,3.02,0.85c4.3,1.07,5.59,2.45,5.49,8.33l-0.36,20.85l-3.12-0.05L491.01,402.61z"/>
		<path class="st5" d="M503.31,402.78c0.06-3.43-0.32-4.68-3.42-5.49c-1.39-0.38-2.15-0.56-2.7-0.81l0.74-3.5
			c0.52,0.21,1.31,0.42,2.75,0.69c4.46,1.04,5.87,2.54,5.76,8.61l-0.23,13.06l-3.12-0.05L503.31,402.78z"/>
		<path class="st5" d="M510.42,411.97c0.6-0.11,1.16-0.18,3.28-0.14l0.6,0.01c0.03-3.88-0.15-11.91-0.39-14.47l-0.12,0
			c-0.72-0.01-2.39-0.08-3.03-0.33l0.78-3.5c1.23,0.26,3.83,0.23,6.27,0.27l6.55,0.11c5.87,0.1,6.96,1.52,6.85,8.35l-0.23,13.5
			l-3.12-0.05l0.21-12.38c0.07-3.95-0.34-5.72-4.06-5.78l-7.03-0.12c0.16,2.56,0.44,11.71,0.35,14.51l-0.62,3.59l-3.16-0.05
			c-1.6-0.03-3.04-0.01-3.96,0.09L510.42,411.97z"/>
		<path class="st5" d="M535.42,412.37c1-0.1,2.28-0.12,4.92-0.08l2.8,0.05l0.15-8.91c0.06-3.47-0.32-4.44-3.86-5.34
			c-1.43-0.34-2.82-0.69-3.46-0.94l0.74-3.5c0.52,0.21,1.71,0.51,3.42,0.86c4.62,1.04,6.39,2.43,6.29,8.3l-0.17,9.71l-0.74,3.5
			l-5.55-0.1c-1.72-0.03-4.47-0.04-5.27,0.03L535.42,412.37z"/>
	</g>
	<rect x="246.54" y="435.75" class="st3" width="235.05" height="95.72"/>
	<g class="st4">
		<path class="st5" d="M266.3,455.21c1.04,0.64,2.56,1.17,4.15,1.17c2.37,0,3.75-1.25,3.75-3.06c0-1.68-0.96-2.64-3.41-3.57
			c-2.9-1.01-4.71-2.58-4.71-5.08c0-2.77,2.32-4.85,5.8-4.85c1.81,0,3.17,0.43,3.97,0.85l-0.64,1.89c-0.59-0.32-1.78-0.85-3.41-0.85
			c-2.45,0-3.38,1.46-3.38,2.69c0,1.68,1.09,2.5,3.57,3.46c3.04,1.2,4.58,2.64,4.58,5.27c0,2.77-2.05,5.19-6.28,5.19
			c-1.76,0-3.65-0.53-4.61-1.17L266.3,455.21z"/>
		<path class="st5" d="M279.72,440.3c1.12-0.19,2.64-0.35,4.47-0.35c2.29,0,3.97,0.53,5.03,1.49c0.96,0.85,1.57,2.16,1.57,3.78
			c0,1.65-0.48,2.93-1.38,3.86c-1.22,1.3-3.22,1.97-5.43,1.97c-0.75,0-1.44-0.05-1.92-0.13v7.11h-2.34V440.3z M282.06,449.04
			c0.37,0.11,1.14,0.16,1.92,0.16c2.8,0,4.5-1.38,4.5-3.83c0-2.42-1.68-3.57-4.23-3.57c-1.04,0-1.78,0.08-2.18,0.16V449.04z"/>
		<path class="st5" d="M309.24,449.04c0,5.96-3.81,9.29-8.33,9.29c-4.85,0-8.07-3.81-8.07-9.16c0-5.51,3.44-9.37,8.39-9.37
			C306.34,439.8,309.24,443.84,309.24,449.04z M295.32,449.09c0,4.07,2.08,7.35,5.72,7.35c3.78,0,5.75-3.43,5.75-7.35
			c0-3.67-1.78-7.4-5.73-7.4C297.34,441.69,295.32,445.04,295.32,449.09z"/>
		<path class="st5" d="M312.23,458.04v-17.95h2.58l5.73,9.05c1.3,2.13,2.37,4.02,3.22,5.86l0.05-0.03c-0.21-2.4-0.27-4.58-0.27-7.35
			v-7.54h2.18v17.95h-2.34l-5.7-9.11c-1.25-2-2.45-4.05-3.35-5.99l-0.08,0.03c0.13,2.26,0.19,4.42,0.19,7.4v7.67H312.23z"/>
		<path class="st5" d="M333.18,442.06h-5.46v-1.97h13.29v1.97h-5.49v15.98h-2.34V442.06z"/>
		<path class="st5" d="M343.91,452.39l-1.84,5.64h-2.42l6.12-17.95h2.77l6.12,17.95h-2.48l-1.92-5.64H343.91z M349.79,450.58
			l-1.76-5.17c-0.4-1.17-0.67-2.24-0.93-3.28h-0.08c-0.24,1.07-0.53,2.16-0.88,3.25l-1.76,5.19H349.79z"/>
		<path class="st5" d="M357.28,458.04v-17.95h2.58l5.73,9.05c1.3,2.13,2.37,4.02,3.22,5.86l0.05-0.03c-0.21-2.4-0.27-4.58-0.27-7.35
			v-7.54h2.18v17.95h-2.34l-5.7-9.11c-1.25-2-2.45-4.05-3.35-5.99l-0.08,0.03c0.13,2.26,0.19,4.42,0.19,7.4v7.67H357.28z"/>
		<path class="st5" d="M384.09,449.62h-6.95v6.5h7.77v1.92h-10.12v-17.95h9.72v1.92h-7.38v5.7h6.95V449.62z"/>
		<path class="st5" d="M403.23,449.04c0,5.96-3.81,9.29-8.33,9.29c-4.85,0-8.07-3.81-8.07-9.16c0-5.51,3.43-9.37,8.39-9.37
			C400.33,439.8,403.23,443.84,403.23,449.04z M389.31,449.09c0,4.07,2.08,7.35,5.72,7.35c3.78,0,5.75-3.43,5.75-7.35
			c0-3.67-1.78-7.4-5.72-7.4C391.33,441.69,389.31,445.04,389.31,449.09z"/>
		<path class="st5" d="M408.56,440.09v10.68c0,3.97,1.76,5.67,4.18,5.67c2.64,0,4.37-1.76,4.37-5.67v-10.68h2.32v10.49
			c0,5.51-2.88,7.75-6.76,7.75c-3.67,0-6.44-2.08-6.44-7.64v-10.6H408.56z"/>
		<path class="st5" d="M423.15,455.21c1.04,0.64,2.56,1.17,4.15,1.17c2.37,0,3.75-1.25,3.75-3.06c0-1.68-0.96-2.64-3.41-3.57
			c-2.9-1.01-4.71-2.58-4.71-5.08c0-2.77,2.32-4.85,5.8-4.85c1.81,0,3.17,0.43,3.97,0.85l-0.64,1.89c-0.59-0.32-1.78-0.85-3.41-0.85
			c-2.45,0-3.38,1.46-3.38,2.69c0,1.68,1.09,2.5,3.57,3.46c3.04,1.2,4.58,2.64,4.58,5.27c0,2.77-2.05,5.19-6.28,5.19
			c-1.76,0-3.65-0.53-4.61-1.17L423.15,455.21z"/>
		<path class="st5" d="M436.57,440.09h2.34v15.98h7.67v1.97h-10.01V440.09z"/>
		<path class="st5" d="M450.92,458.04v-7.59l-5.67-10.36h2.64l2.53,4.95c0.69,1.38,1.22,2.48,1.78,3.7h0.05
			c0.48-1.17,1.12-2.34,1.81-3.7l2.58-4.95h2.61l-5.99,10.3v7.64H450.92z"/>
	</g>
	<g class="st4">
		<path class="st5" d="M298.81,489.43c-0.85,0.4-2.56,0.85-4.77,0.85c-5.03,0-8.84-3.22-8.84-9.11c0-5.62,3.81-9.4,9.37-9.4
			c2.21,0,3.65,0.45,4.26,0.77l-0.56,1.89c-0.88-0.43-2.13-0.75-3.62-0.75c-4.21,0-7,2.69-7,7.4c0,4.39,2.53,7.22,6.9,7.22
			c1.41,0,2.85-0.29,3.78-0.75L298.81,489.43z"/>
		<path class="st5" d="M316.49,480.99c0,5.96-3.81,9.29-8.33,9.29c-4.85,0-8.07-3.81-8.07-9.16c0-5.51,3.44-9.37,8.39-9.37
			C313.58,471.75,316.49,475.79,316.49,480.99z M302.56,481.04c0,4.07,2.08,7.35,5.72,7.35c3.78,0,5.75-3.43,5.75-7.35
			c0-3.67-1.78-7.4-5.73-7.4C304.58,473.64,302.56,476.99,302.56,481.04z"/>
		<path class="st5" d="M334.65,482.1c-0.16-2.48-0.32-5.51-0.29-7.72h-0.08c-0.61,2.08-1.41,4.5-2.29,6.9l-3.12,8.6h-1.84
			l-2.85-8.55c-0.88-2.53-1.57-4.85-2.05-6.95h-0.08c-0.08,2.21-0.16,5.19-0.35,7.91l-0.48,7.7h-2.21l1.25-17.95h2.96l3.06,8.71
			c0.75,2.16,1.33,4.29,1.78,6.15h0.08c0.45-1.81,1.09-3.91,1.92-6.18l3.2-8.68h2.96l1.12,17.95h-2.29L334.65,482.1z"/>
		<path class="st5" d="M340.87,472.28c1.04-0.21,2.66-0.37,4.26-0.37c2.32,0,3.81,0.4,4.9,1.3c0.96,0.69,1.52,1.76,1.52,3.17
			c0,1.73-1.17,3.28-3.04,3.94v0.05c1.7,0.43,3.7,1.81,3.7,4.53c0,1.52-0.59,2.69-1.54,3.57c-1.22,1.14-3.25,1.68-6.18,1.68
			c-1.62,0-2.82-0.11-3.62-0.21V472.28z M343.22,479.65h2.1c2.42,0,3.89-1.3,3.89-3.04c0-2.1-1.6-2.93-3.94-2.93
			c-1.06,0-1.68,0.08-2.05,0.16V479.65z M343.22,488.23c0.48,0.08,1.09,0.11,1.94,0.11c2.4,0,4.63-0.88,4.63-3.46
			c0-2.48-2.13-3.49-4.66-3.49h-1.92V488.23z"/>
		<path class="st5" d="M357.65,472.04v10.68c0,3.97,1.76,5.67,4.18,5.67c2.64,0,4.37-1.76,4.37-5.67v-10.68h2.32v10.49
			c0,5.51-2.88,7.75-6.76,7.75c-3.67,0-6.44-2.08-6.44-7.64v-10.6H357.65z"/>
		<path class="st5" d="M372.24,487.16c1.04,0.64,2.56,1.17,4.15,1.17c2.37,0,3.75-1.25,3.75-3.06c0-1.68-0.96-2.64-3.41-3.57
			c-2.9-1.01-4.71-2.58-4.71-5.08c0-2.77,2.32-4.85,5.8-4.85c1.81,0,3.17,0.43,3.97,0.85l-0.64,1.89c-0.59-0.32-1.78-0.85-3.41-0.85
			c-2.45,0-3.38,1.46-3.38,2.69c0,1.68,1.09,2.5,3.57,3.46c3.04,1.2,4.58,2.64,4.58,5.27c0,2.77-2.05,5.19-6.28,5.19
			c-1.76,0-3.65-0.53-4.61-1.17L372.24,487.16z"/>
		<path class="st5" d="M389.09,474.01h-5.46v-1.97h13.29v1.97h-5.49v15.98h-2.34V474.01z"/>
		<path class="st5" d="M401.23,472.04v17.95h-2.34v-17.95H401.23z"/>
		<path class="st5" d="M405.25,472.28c1.04-0.21,2.66-0.37,4.26-0.37c2.32,0,3.81,0.4,4.9,1.3c0.96,0.69,1.52,1.76,1.52,3.17
			c0,1.73-1.17,3.28-3.04,3.94v0.05c1.7,0.43,3.7,1.81,3.7,4.53c0,1.52-0.59,2.69-1.54,3.57c-1.22,1.14-3.25,1.68-6.18,1.68
			c-1.62,0-2.82-0.11-3.62-0.21V472.28z M407.6,479.65h2.1c2.42,0,3.89-1.3,3.89-3.04c0-2.1-1.6-2.93-3.94-2.93
			c-1.07,0-1.68,0.08-2.05,0.16V479.65z M407.6,488.23c0.48,0.08,1.09,0.11,1.94,0.11c2.4,0,4.63-0.88,4.63-3.46
			c0-2.48-2.13-3.49-4.66-3.49h-1.92V488.23z"/>
		<path class="st5" d="M419.69,472.04h2.34v15.98h7.67v1.97h-10.01V472.04z"/>
		<path class="st5" d="M441.54,481.57h-6.95v6.5h7.78v1.92h-10.12v-17.95h9.72v1.92h-7.38v5.7h6.95V481.57z"/>
	</g>
</g>
</svg>
