<?xml version="1.0" encoding="utf-8"?>
<!-- Generator: Adobe Illustrator 28.3.0, SVG Export Plug-In . SVG Version: 6.00 Build 0)  -->
<svg version="1.1" id="Layer_1" xmlns="http://www.w3.org/2000/svg" xmlns:xlink="http://www.w3.org/1999/xlink" x="0px" y="0px"
	 viewBox="0 0 746 740" style="enable-background:new 0 0 746 740;" xml:space="preserve">
<style type="text/css">
	.st0{fill:#FFFFFF;stroke:#323031;stroke-miterlimit:10;stroke-dasharray:6;}
	.st1{fill:none;stroke:#3B3A3C;stroke-miterlimit:10;}
	.st2{fill:#FFFFFF;stroke:#221F1F;stroke-width:0.5213;}
	.st3{fill:#221F1F;}
	.st4{fill:#FFFFFF;}
	.st5{fill:none;}
	.st6{enable-background:new    ;}
	.st7{fill:#231F20;}
</style>
<g>
	<g>
		<g>
			<g>
				<polygon class="st0" points="368.99,649 86.62,372.25 373,91 659.38,372.25 				"/>
				<polygon class="st1" points="369.58,608.27 128.43,371.93 373,131.73 617.57,371.93 				"/>
			</g>
		</g>
		<g>
			<path id="path628_00000077287102620558835250000009969733144600584600_" class="st2" d="M307.35,266.41
				c4.98-1.19,4.98,3.28,9.68,7.47c0,0,23.38,18.47,50.85,26.81c27.42,8.35,45.2,14.6,46.76,15.2c1.55,0.6,8.41,2.1,14.02-0.29
				c5.64-2.38,15.29,2.08,14.02,6.23c-1.25,4.17-8.09,4.15-10.26,10.07c-2.19,5.96-3.14,10.51-9.06,9.31
				c-5.94-1.19-5.63-5.38-6.54-10.74c-0.95-5.36-10.63-8.95-34.63-17.26c-24.02-8.37-49.27-17.9-53.03-19.09
				c-3.73-1.19-12.14-5.36-19.64-2.09c-7.49,3.28-11.84-5.07-8.09-8.93c3.73-3.89,4.65-4.18,2.81-6.86
				C302.37,273.56,297.86,268.69,307.35,266.41z"/>
			<path id="path632_00000101077673054663489090000011573424601156471223_" class="st2" d="M328.26,317.07
				c8.47-3.14,82.63-30.4,86.39-32.79c3.73-2.39,12.79-11.02,15.58-14.89c2.81-3.89,10.61-1.19,9.98,3.27
				c-0.6,4.48-2.17,5.95-0.29,7.45c1.87,1.49,6.85-0.6,5.9,2.99c-0.94,3.56-3.42,9.24-7.15,8.63c-3.75-0.6-6.88-5.66-15.29-2.37
				c-8.44,3.26-78.29,31.58-84.52,33.99c-6.23,2.35-10.6,10.4-12.49,13.38c-1.85,2.98-10.29,7.17-11.84-1.19
				c-1.57-8.35-1.86-5.62-3.41-6.82c-1.59-1.21-5.94-6.28,0-9.28C317.04,316.48,318.59,320.63,328.26,317.07z"/>
			<path id="path634_00000098923734326781204650000001360224068119656351_" class="st3" d="M374.7,211.29
				c-15.26,0.3-38.96,18.46-40.53,19.66c-1.54,1.21-6.54,13.42-3.73,22.05c2.82,8.65,7.17,13.41,6.54,18.19
				c-0.61,4.76-1.83,12.21,3.44,14.3c5.3,2.08,8.11,2.68,8.73,7.45c0.64,4.77,1.25,10.13,1.55,12.2c0.34,2.08,7.19,7.75,11.24,10.74
				c4.03,3.01,7.15,4.75,12.18,4.75c8.72,0,13.71-6.23,15.59-7.74c4.04-3.28,8.15-2.18,7.52-9.05c-0.07-2.46,0.15-12.22,1.87-14
				c2.5-1.79,9.62-6.74,10.25-10.02c0.62-3.28,0-12.23,0.31-15.19c0.32-2.99,7.19-9.54,6.84-14.6c-0.29-5.07,2.51-13.1-9.03-20.86
				C395.92,221.42,384.38,211.1,374.7,211.29"/>
			<path id="path636_00000087395363667038454590000010888893800856578192_" class="st4" d="M374.62,215.65
				c-4.02,0.36-7.63,0.76-10.75,2.85c-3.1,2.11-25.68,13.45-27.85,17.33c-2.17,3.87-7.68,10.41,1.97,20.84
				c0,0-2.31-12.32,3.95-17.99c0,0-1.42,13.52,0.44,33.78c0.43,4.46-1.09,7.76,4.82,10.74c5.93,2.98,13.24,6.77,12.94,12.72
				c0,0,3.71,3.51,13.38,3.51c9.68,0,12.4-1.92,12.72-4.61c0.3-2.69-1.96-5.41,4.61-8.11c6.55-2.67,12.56-5.68,13.16-10.74
				c0.65-5.07,3.15-24.39-3.07-37.5c0,0,6.17,4.16,6.8,16.67c0,0,4.17-1.93,4.17-11.19c0-9.22-6.38-12.42-12.94-16.89
				C392.41,222.6,384.62,214.76,374.62,215.65z M354.22,260.83c1.56-0.04,4.31,0.07,8.99,0.22c9.33,0.3,0.24,8.85-3.51,11.84
				c-3.73,2.97-8.35-0.17-10.53-2.85c-2.18-2.67-2.85-8.99,3.07-8.99C352.25,261.05,352.66,260.87,354.22,260.83z M393.26,260.83
				c1.56,0.04,1.97,0.22,1.97,0.22c5.91,0,5.25,6.32,3.07,8.99c-2.2,2.68-7.01,5.82-10.75,2.85c-3.75-2.99-12.67-11.54-3.29-11.84
				C388.94,260.9,391.7,260.79,393.26,260.83z M353.12,293.29c0,0-0.22,11.28,1.97,13.38c2.17,2.08,11.7,9.71,12.94,10.31
				c1.25,0.6,2.37,1.97,6.14,1.97c3.73,0,5.88-2.53,7.46-3.73c1.54-1.19,10.15-6.48,11.4-7.68c1.25-1.19,1.84-10.16,1.53-14.04
				l-3.18,1.54c0,0,0.22,6.46-1.03,8.25c-1.24,1.78-6.38,5.34-15.09,5.34c-8.74,0-18.11-4.07-18.42-5.26
				c-0.3-1.19-0.44-7.68-0.44-7.68L353.12,293.29z"/>
			<path id="path644_00000135675742688117300880000005746328795255405749_" class="st3" d="M372.83,289.05
				c1.57,0,3.08,2.39,5.61,1.8c2.47-0.62,1.52-3.57,0.31-5.97c-1.25-2.37-2.47-7.74-5.92-8.06c-3.45-0.29-4.69,5.68-5.93,8.06
				c-1.19,2.4-2.17,5.35,0.32,5.97C369.74,291.44,371.25,289.05,372.83,289.05"/>
		</g>
	</g>
	<rect x="352.95" y="526.82" class="st5" width="28.69" height="57.73"/>
	<g class="st6">
		<path class="st7" d="M371.88,553.51c0.96-0.45,1.63-0.79,2.23-0.79c4.48,0,7.4,2.97,7.4,7.68c0,5.24-3.7,9.41-8.75,9.41
			c-4.84,0-8.67-3.94-8.67-10.54c0-8.84,5.8-13.46,10.2-15.05c1.71-0.59,4.45-1.13,5.85-1.36l0.26,1.59
			c-1.09,0.28-2.82,0.76-4.14,1.47c-1.89,1.05-5.28,3.4-6.39,8.64L371.88,553.51z M372.04,555.67c-0.91,0-1.66,0.17-2.41,0.45
			c-0.18,0.65-0.26,2.44-0.26,3.29c0,5.5,2.1,8.67,4.17,8.67c2.43,0,2.98-3.26,2.98-5.78c0-3.91-1.81-6.63-4.45-6.63H372.04z"/>
	</g>
	<polygon class="st5" points="174.89,349.91 593.33,356.62 585.07,465.34 166.64,458.63 	"/>
	<g class="st6">
		<path class="st7" d="M292.82,371.09l-0.16,9.37c0,0.23-0.47,2.4-0.72,3.49l-17.5-0.3l0.24-13.92c0.03-1.79,0.17-2.99,0.34-3.73
			c-1.05-0.02-2.37-0.12-2.8-0.28l0.72-3.45c1.01,0.21,3.23,0.25,5.36,0.29l7.86,0.14C291.87,362.79,292.93,364.44,292.82,371.09z
			 M285.94,366.23l-8.28-0.14l-0.24,14.08l12.29,0.21l0.15-8.4C289.91,368.13,289.51,366.29,285.94,366.23z"/>
		<path class="st7" d="M298.89,374.82c1.64-2.46,2.53-4.35,2.55-5.91c0.02-1.28-0.71-1.72-2.49-2.26c-0.93-0.29-1.7-0.53-2.36-0.82
			l0.72-3.41c0.54,0.2,1.31,0.45,2.28,0.7c3.68,0.88,4.94,2.07,4.89,4.95c-0.04,2.45-1.26,5.15-3.21,7.96L298.89,374.82z"/>
		<path class="st7" d="M310.42,380.66c5.2-1.47,9.31-5.44,9.41-10.92c0.04-2.45-0.92-2.93-2.98-2.97l-9.26-0.16l0.1-5.6
			c0.04-2.37-0.03-5.21-0.44-6.19l3.16-0.49c0.22,0.51,0.33,3.16,0.28,6.03l-0.05,2.76l7.5,0.13c3.97,0.07,4.87,2.07,4.81,5.53
			c-0.15,8.75-7.14,14.58-13.31,15.84L310.42,380.66z"/>
		<path class="st7" d="M328.1,375.32c1.64-2.46,2.53-4.35,2.55-5.91c0.02-1.28-0.71-1.72-2.49-2.26c-0.93-0.29-1.7-0.54-2.36-0.82
			l0.72-3.41c0.54,0.2,1.32,0.45,2.28,0.7c3.68,0.88,4.94,2.07,4.89,4.95c-0.04,2.45-1.26,5.15-3.21,7.96L328.1,375.32z"/>
		<path class="st7" d="M344.13,381.32c-1.21-4.26-5.1-13.39-7.83-17.56l4.13-0.28c2.07,3.81,5.24,11.72,6.51,17
			c2.9-1.16,4.46-3.66,4.54-8.44c0.04-2.22-0.49-5.49-1.49-8.04l3.86-0.32c0.44,1.33,0.94,4.18,0.88,7.41
			c-0.14,5.68-1.61,10.16-8.04,12.89c-2.98,1.27-7.62,2.16-11.21,2.53l0.73-3.8C338.82,382.47,342.1,381.98,344.13,381.32z"/>
		<path class="st7" d="M369.25,373.23c0.07-3.85-0.33-5.57-3.99-5.63l-3.85-0.07c-2.29-0.04-3.77-0.14-4.31-0.31l0.72-3.45
			c0.78,0.17,2.76,0.2,5.4,0.25l2.41,0.04c5.68,0.1,6.74,1.48,6.63,8.13l-0.23,13.14l-2.99-0.05L369.25,373.23z"/>
		<path class="st7" d="M405.35,373.04l-0.16,9.37c0,0.23-0.47,2.4-0.72,3.49l-17.5-0.3l0.24-13.92c0.03-1.79,0.17-2.99,0.34-3.73
			c-1.05-0.02-2.37-0.12-2.8-0.28l0.72-3.45c1.01,0.21,3.22,0.25,5.36,0.29l7.86,0.14C404.4,364.74,405.46,366.39,405.35,373.04z
			 M398.47,368.18l-8.28-0.14l-0.24,14.08l12.29,0.21l0.14-8.4C402.44,370.07,402.05,368.24,398.47,368.18z"/>
		<path class="st7" d="M410.61,376.75c1.64-2.46,2.53-4.35,2.55-5.91c0.02-1.28-0.71-1.72-2.49-2.26c-0.93-0.29-1.7-0.54-2.36-0.82
			l0.72-3.41c0.54,0.2,1.32,0.45,2.28,0.7c3.68,0.88,4.94,2.07,4.89,4.95c-0.04,2.45-1.25,5.15-3.21,7.96L410.61,376.75z"/>
		<path class="st7" d="M429.44,374.28c0.07-3.85-0.33-5.57-3.99-5.63l-3.85-0.07c-2.29-0.04-3.77-0.14-4.31-0.31l0.72-3.45
			c0.78,0.17,2.76,0.2,5.4,0.25l2.41,0.04c5.68,0.1,6.74,1.48,6.63,8.13l-0.23,13.14l-3-0.05L429.44,374.28z"/>
		<path class="st7" d="M439.31,374.56c0.61-3.88-0.92-5.42-3.36-6.05l0.76-3.6c3.1,0.56,4.93,2.57,5.23,5.58
			c0.94-2.36,3.32-5.39,7.64-5.31c6.07,0.1,7.45,5.69,7.32,13.2l-0.09,4.98c-0.01,0.35-0.48,2.91-0.6,3.45l-7.66-0.13
			c-1.55-0.03-3.58-0.02-4.4,0.04l0.72-3.45c0.82-0.14,2.65-0.11,4.79-0.07l4.08,0.07c0.07-1.63,0.09-3.23,0.12-4.78
			c0.08-4.9-0.46-9.69-5.01-9.77c-4.32-0.07-5.91,4.18-6.54,6.81c-0.67,2.6-1.57,7.29-2.33,11.01l-3.03-0.05
			C437.81,382.47,438.83,377.43,439.31,374.56z"/>
		<path class="st7" d="M465.64,374.79c0.06-3.34-0.31-4.56-3.33-5.35c-1.35-0.37-2.09-0.54-2.63-0.78l0.72-3.41
			c0.5,0.2,1.28,0.41,2.67,0.67c4.34,1.01,5.71,2.47,5.61,8.38l-0.22,12.72l-3.03-0.05L465.64,374.79z"/>
		<path class="st7" d="M474.94,374.87c0.04-2.61,0.2-4.63,0.41-5.4c-0.7-0.05-2.56-0.2-2.84-0.24l0.72-3.49
			c0.81,0.21,2.76,0.24,5.4,0.29l7.04,0.12c5.68,0.1,6.74,1.87,6.62,8.32l-0.22,12.95l-3.03-0.05l0.2-11.82
			c0.07-4.28-0.29-5.8-3.98-5.87l-7.23-0.12l-0.3,17.62l-3-0.05L474.94,374.87z"/>
	</g>
	<g class="st6">
		<path class="st7" d="M274.77,425.42h-5.31v-1.92h12.94v1.92h-5.34v15.55h-2.28V425.42z"/>
		<path class="st7" d="M298.57,432.21c0,5.81-3.71,9.05-8.11,9.05c-4.72,0-7.86-3.71-7.86-8.92c0-5.37,3.34-9.13,8.17-9.13
			C295.74,423.21,298.57,427.15,298.57,432.21z M285.01,432.26c0,3.97,2.02,7.16,5.57,7.16c3.68,0,5.6-3.34,5.6-7.16
			c0-3.58-1.74-7.21-5.57-7.21C286.98,425.05,285.01,428.32,285.01,432.26z"/>
		<path class="st7" d="M310.36,440.97l-2.23-3.86c-0.93-1.48-1.48-2.44-2.02-3.45h-0.05c-0.49,1.04-1.01,1.94-1.89,3.47l-2.1,3.84
			h-2.59l5.34-8.84l-5.13-8.63h2.59l2.33,4.1c0.65,1.14,1.14,2.02,1.63,2.98h0.05c0.49-1.06,0.93-1.84,1.58-2.98l2.38-4.1h2.59
			l-5.31,8.5l5.44,8.97H310.36z"/>
		<path class="st7" d="M317.85,423.5v17.47h-2.28V423.5H317.85z"/>
		<path class="st7" d="M334.01,440.43c-0.83,0.39-2.49,0.83-4.64,0.83c-4.9,0-8.61-3.14-8.61-8.87c0-5.47,3.71-9.15,9.13-9.15
			c2.15,0,3.55,0.44,4.15,0.75l-0.54,1.84c-0.86-0.42-2.07-0.73-3.53-0.73c-4.1,0-6.82,2.62-6.82,7.21c0,4.28,2.46,7.03,6.71,7.03
			c1.37,0,2.77-0.29,3.68-0.73L334.01,440.43z"/>
		<path class="st7" d="M342.04,438.22c1.01,0.62,2.49,1.14,4.04,1.14c2.31,0,3.66-1.22,3.66-2.98c0-1.63-0.93-2.57-3.32-3.47
			c-2.83-0.99-4.59-2.51-4.59-4.95c0-2.7,2.26-4.72,5.65-4.72c1.76,0,3.08,0.42,3.86,0.83l-0.62,1.84
			c-0.57-0.31-1.74-0.83-3.32-0.83c-2.38,0-3.29,1.43-3.29,2.62c0,1.63,1.06,2.44,3.47,3.37c2.96,1.17,4.46,2.57,4.46,5.13
			c0,2.7-2,5.06-6.12,5.06c-1.71,0-3.55-0.52-4.48-1.14L342.04,438.22z"/>
		<path class="st7" d="M357.39,423.5v10.4c0,3.86,1.71,5.52,4.07,5.52c2.57,0,4.25-1.71,4.25-5.52v-10.4h2.26v10.21
			c0,5.37-2.8,7.54-6.58,7.54c-3.58,0-6.27-2.02-6.27-7.44V423.5H357.39z"/>
		<path class="st7" d="M371.88,423.73c1.01-0.21,2.59-0.36,4.15-0.36c2.26,0,3.71,0.39,4.77,1.27c0.93,0.67,1.48,1.71,1.48,3.09
			c0,1.68-1.14,3.19-2.96,3.84v0.05c1.66,0.41,3.6,1.76,3.6,4.41c0,1.48-0.57,2.62-1.5,3.47c-1.19,1.11-3.16,1.63-6.01,1.63
			c-1.58,0-2.75-0.1-3.53-0.21V423.73z M374.17,430.91h2.05c2.36,0,3.79-1.27,3.79-2.96c0-2.05-1.56-2.85-3.84-2.85
			c-1.04,0-1.63,0.08-2,0.16V430.91z M374.17,439.26c0.47,0.08,1.06,0.1,1.89,0.1c2.33,0,4.51-0.86,4.51-3.37
			c0-2.41-2.07-3.4-4.54-3.4h-1.87V439.26z"/>
		<path class="st7" d="M385.65,438.22c1.01,0.62,2.49,1.14,4.04,1.14c2.31,0,3.66-1.22,3.66-2.98c0-1.63-0.93-2.57-3.32-3.47
			c-2.83-0.99-4.59-2.51-4.59-4.95c0-2.7,2.26-4.72,5.65-4.72c1.76,0,3.08,0.42,3.86,0.83l-0.62,1.84
			c-0.57-0.31-1.74-0.83-3.32-0.83c-2.38,0-3.29,1.43-3.29,2.62c0,1.63,1.06,2.44,3.47,3.37c2.96,1.17,4.46,2.57,4.46,5.13
			c0,2.7-2,5.06-6.12,5.06c-1.71,0-3.55-0.52-4.49-1.14L385.65,438.22z"/>
		<path class="st7" d="M402.06,425.42h-5.31v-1.92h12.94v1.92h-5.34v15.55h-2.28V425.42z"/>
		<path class="st7" d="M412.51,435.47l-1.79,5.5h-2.36l5.96-17.47h2.7l5.96,17.47h-2.41l-1.87-5.5H412.51z M418.24,433.71
			l-1.71-5.03c-0.39-1.14-0.65-2.18-0.91-3.19h-0.08c-0.23,1.04-0.52,2.1-0.86,3.16l-1.71,5.06H418.24z"/>
		<path class="st7" d="M425.52,440.97V423.5h2.51l5.57,8.81c1.27,2.07,2.31,3.92,3.14,5.7l0.05-0.03c-0.21-2.33-0.26-4.46-0.26-7.16
			v-7.34h2.13v17.47h-2.28l-5.55-8.87c-1.22-1.94-2.38-3.94-3.27-5.83l-0.08,0.03c0.13,2.2,0.18,4.3,0.18,7.21v7.47H425.52z"/>
		<path class="st7" d="M454.82,440.43c-0.83,0.39-2.49,0.83-4.64,0.83c-4.9,0-8.61-3.14-8.61-8.87c0-5.47,3.71-9.15,9.13-9.15
			c2.15,0,3.55,0.44,4.15,0.75l-0.54,1.84c-0.86-0.42-2.07-0.73-3.53-0.73c-4.1,0-6.82,2.62-6.82,7.21c0,4.28,2.46,7.03,6.71,7.03
			c1.37,0,2.77-0.29,3.68-0.73L454.82,440.43z"/>
		<path class="st7" d="M466.67,432.78h-6.77v6.33h7.57v1.87h-9.85V423.5h9.46v1.87h-7.18v5.55h6.77V432.78z"/>
		<path class="st7" d="M470.06,438.22c1.01,0.62,2.49,1.14,4.04,1.14c2.31,0,3.66-1.22,3.66-2.98c0-1.63-0.93-2.57-3.32-3.47
			c-2.83-0.99-4.59-2.51-4.59-4.95c0-2.7,2.26-4.72,5.65-4.72c1.76,0,3.08,0.42,3.86,0.83l-0.62,1.84
			c-0.57-0.31-1.74-0.83-3.32-0.83c-2.38,0-3.29,1.43-3.29,2.62c0,1.63,1.06,2.44,3.47,3.37c2.96,1.17,4.46,2.57,4.46,5.13
			c0,2.7-2,5.06-6.12,5.06c-1.71,0-3.55-0.52-4.49-1.14L470.06,438.22z"/>
	</g>
</g>
</svg>
