<?xml version="1.0" encoding="utf-8"?>
<!-- Generator: Adobe Illustrator 28.3.0, SVG Export Plug-In . SVG Version: 6.00 Build 0)  -->
<svg version="1.1" id="Layer_1" xmlns="http://www.w3.org/2000/svg" xmlns:xlink="http://www.w3.org/1999/xlink" x="0px" y="0px"
	 viewBox="0 0 746 740" style="enable-background:new 0 0 746 740;" xml:space="preserve">
<style type="text/css">
	.st0{fill:#FFFFFF;stroke:#323031;stroke-miterlimit:10;stroke-dasharray:6;}
	.st1{fill:none;stroke:#3B3A3C;stroke-miterlimit:10;}
	.st2{fill:#FFFFFF;stroke:#221F1F;stroke-width:0.5213;}
	.st3{fill:#221F1F;}
	.st4{fill:#FFFFFF;}
	.st5{fill:none;}
	.st6{enable-background:new    ;}
	.st7{fill:#231F20;}
	.st8{fill:#259306;stroke:#323031;stroke-width:4;stroke-miterlimit:10;}
</style>
<g>
	<g>
		<g>
			<polygon class="st0" points="369.77,666 69.68,371.9 374.02,73 678.37,371.9 			"/>
			<polygon class="st1" points="370.39,622.72 114.11,371.55 374.02,116.28 633.94,371.55 			"/>
		</g>
		<g>
			<path id="path628" class="st2" d="M304.26,242.2c5.3-1.26,5.3,3.48,10.29,7.94c0,0,24.84,19.63,54.04,28.49
				c29.14,8.88,48.03,15.52,49.69,16.15c1.65,0.63,8.94,2.23,14.9-0.31c5.99-2.53,16.25,2.21,14.9,6.62
				c-1.33,4.43-8.59,4.42-10.9,10.7c-2.33,6.33-3.34,11.17-9.63,9.9c-6.31-1.27-5.98-5.72-6.95-11.41
				c-1.01-5.7-11.3-9.51-36.8-18.34c-25.52-8.9-52.36-19.02-56.35-20.29c-3.96-1.26-12.9-5.7-20.88-2.22
				c-7.96,3.49-12.58-5.39-8.6-9.49c3.97-4.13,4.94-4.45,2.98-7.29C298.97,249.8,294.17,244.62,304.26,242.2z"/>
			<path id="path632" class="st2" d="M326.47,296.04c9-3.33,87.81-32.31,91.8-34.85c3.97-2.54,13.59-11.71,16.56-15.82
				c2.99-4.13,11.28-1.27,10.61,3.48c-0.63,4.77-2.3,6.32-0.31,7.92c1.98,1.58,7.28-0.63,6.27,3.18c-1,3.78-3.64,9.82-7.6,9.17
				c-3.98-0.63-7.31-6.01-16.24-2.52c-8.96,3.47-83.2,33.56-89.82,36.12c-6.62,2.5-11.26,11.05-13.27,14.22
				c-1.97,3.17-10.93,7.61-12.58-1.27c-1.67-8.88-1.98-5.97-3.62-7.25c-1.69-1.29-6.32-6.68,0-9.86
				C314.55,295.42,316.2,299.83,326.47,296.04z"/>
			<path id="path634" class="st3" d="M375.83,183.62c-16.22,0.32-41.41,19.62-43.07,20.89c-1.64,1.29-6.95,14.26-3.97,23.43
				c3,9.19,7.62,14.25,6.95,19.33c-0.65,5.06-1.95,12.98,3.65,15.2c5.63,2.22,8.61,2.85,9.28,7.92c0.68,5.06,1.33,10.76,1.65,12.97
				c0.37,2.22,7.64,8.23,11.94,11.41c4.28,3.2,7.6,5.05,12.94,5.05c9.27,0,14.57-6.62,16.57-8.23c4.3-3.48,8.67-2.32,7.99-9.61
				c-0.07-2.62,0.16-12.98,1.99-14.88c2.66-1.9,10.23-7.16,10.89-10.65c0.66-3.48,0-12.99,0.33-16.15
				c0.34-3.18,7.64-10.14,7.27-15.52c-0.31-5.38,2.66-13.92-9.6-22.17C398.38,194.39,386.12,183.43,375.83,183.62"/>
			<path id="path636" class="st4" d="M375.74,188.26c-4.27,0.38-8.11,0.81-11.42,3.03c-3.3,2.24-27.29,14.3-29.6,18.41
				s-8.17,11.06,2.1,22.14c0,0-2.46-13.1,4.2-19.12c0,0-1.51,14.36,0.47,35.9c0.45,4.74-1.16,8.24,5.13,11.42
				c6.3,3.16,14.07,7.2,13.75,13.52c0,0,3.95,3.73,14.22,3.73c10.29,0,13.18-2.04,13.52-4.9c0.32-2.86-2.09-5.75,4.89-8.62
				c6.96-2.84,13.34-6.04,13.98-11.42c0.69-5.38,3.35-25.92-3.26-39.86c0,0,6.55,4.42,7.22,17.71c0,0,4.43-2.05,4.43-11.89
				c0-9.8-6.78-13.2-13.75-17.94C394.65,195.65,386.38,187.31,375.74,188.26z M354.07,236.28c1.66-0.04,4.58,0.07,9.56,0.23
				c9.92,0.32,0.26,9.4-3.73,12.58c-3.97,3.15-8.88-0.18-11.19-3.03c-2.32-2.83-3.03-9.55,3.26-9.55
				C351.97,236.51,352.41,236.32,354.07,236.28z M395.55,236.28c1.66,0.04,2.1,0.23,2.1,0.23c6.28,0,5.58,6.72,3.26,9.55
				c-2.33,2.85-7.45,6.18-11.42,3.03c-3.98-3.18-13.46-12.26-3.5-12.58C390.96,236.35,393.89,236.23,395.55,236.28z M352.9,270.77
				c0,0-0.23,11.99,2.1,14.22c2.3,2.22,12.43,10.32,13.75,10.96c1.33,0.63,2.52,2.1,6.53,2.1c3.96,0,6.24-2.69,7.93-3.96
				c1.63-1.27,10.79-6.88,12.12-8.16c1.33-1.26,1.96-10.79,1.63-14.92l-3.38,1.63c0,0,0.24,6.87-1.09,8.77
				c-1.32,1.89-6.78,5.68-16.03,5.68c-9.29,0-19.25-4.33-19.58-5.59c-0.32-1.26-0.47-8.16-0.47-8.16L352.9,270.77z"/>
			<path id="path644" class="st3" d="M373.84,266.27c1.66,0,3.27,2.54,5.96,1.92c2.63-0.66,1.62-3.79,0.33-6.34
				c-1.33-2.52-2.63-8.23-6.29-8.56c-3.66-0.31-4.98,6.04-6.3,8.56c-1.27,2.55-2.3,5.68,0.34,6.34
				C370.56,268.8,372.16,266.27,373.84,266.27"/>
		</g>
	</g>
	<rect x="350.99" y="537.36" class="st5" width="30.49" height="61.35"/>
	<g class="st6">
		<path class="st7" d="M381.01,575.25c-0.63,2.68-1.16,5.45-1.59,7.29h-16.36v-1.08c2.17-2.29,4.56-4.7,6.57-7.26
			c2.89-3.58,4.45-7.02,4.45-10.27c0-3.07-1.43-5.24-4.23-5.24c-2.58,0-4.21,1.87-5.53,3.98l-1.21-1.05l2.64-4.16
			c1.51-1.69,3.6-2.77,6.16-2.77c4.04,0,7.42,2.95,7.42,7.86c0,3.31-1.54,5.99-5.69,10.3l-4.76,4.91h6.41c2.56,0,2.83-0.12,4.4-2.98
			L381.01,575.25z"/>
	</g>
	<polygon class="st5" points="218.6,346.94 519.8,351.06 513.86,417.82 212.66,413.7 	"/>
	<g class="st6">
		<path class="st7" d="M283.26,372.52l-0.21,12.17c-0.01,0.3-0.61,3.12-0.94,4.53l-22.73-0.39l0.31-18.08
			c0.04-2.32,0.22-3.89,0.44-4.84c-1.36-0.02-3.08-0.15-3.63-0.37l0.94-4.48c1.31,0.27,4.19,0.32,6.97,0.37l10.2,0.18
			C282.03,361.74,283.41,363.89,283.26,372.52z M274.32,366.2l-10.76-0.19l-0.32,18.29l15.96,0.28l0.19-10.91
			C279.48,368.67,278.97,366.28,274.32,366.2z"/>
		<path class="st7" d="M291.15,377.36c2.13-3.2,3.28-5.65,3.32-7.67c0.03-1.67-0.92-2.24-3.23-2.94c-1.21-0.37-2.21-0.69-3.06-1.06
			l0.94-4.43c0.7,0.27,1.71,0.59,2.97,0.91c4.78,1.14,6.42,2.69,6.36,6.43c-0.06,3.18-1.63,6.69-4.17,10.34L291.15,377.36z"/>
		<path class="st7" d="M306.13,384.95c6.75-1.9,12.1-7.07,12.22-14.19c0.05-3.18-1.2-3.81-3.87-3.86l-12.02-0.21l0.13-7.27
			c0.05-3.08-0.03-6.77-0.57-8.04l4.1-0.64c0.29,0.66,0.44,4.1,0.37,7.84l-0.06,3.59l9.75,0.17c5.15,0.09,6.32,2.69,6.24,7.18
			c-0.2,11.37-9.27,18.94-17.28,20.57L306.13,384.95z"/>
		<path class="st7" d="M329.08,378.02c2.13-3.2,3.28-5.65,3.32-7.67c0.03-1.67-0.92-2.24-3.23-2.94c-1.21-0.37-2.21-0.69-3.06-1.06
			l0.94-4.43c0.7,0.27,1.71,0.59,2.97,0.91c4.78,1.14,6.42,2.69,6.36,6.43c-0.06,3.18-1.63,6.69-4.17,10.34L329.08,378.02z"/>
		<path class="st7" d="M349.92,385.8c-1.57-5.53-6.62-17.4-10.17-22.81l5.36-0.36c2.69,4.95,6.81,15.23,8.46,22.08
			c3.77-1.5,5.79-4.75,5.9-10.96c0.05-2.88-0.63-7.14-1.94-10.44l5.01-0.42c0.58,1.73,1.22,5.43,1.15,9.62
			c-0.18,7.38-2.1,13.2-10.45,16.75c-3.87,1.65-9.9,2.81-14.56,3.29l0.94-4.94C343.02,387.3,347.27,386.67,349.92,385.8z"/>
		<path class="st7" d="M382.53,375.3c0.09-5-0.43-7.23-5.18-7.32l-5-0.09c-2.98-0.05-4.9-0.19-5.6-0.4l0.94-4.48
			c1.01,0.22,3.58,0.26,7.02,0.32l3.13,0.05c7.38,0.13,8.76,1.92,8.61,10.56l-0.29,17.07l-3.89-0.07L382.53,375.3z"/>
		<path class="st7" d="M429.42,375.05l-0.21,12.17c0,0.3-0.61,3.12-0.94,4.53l-22.73-0.39l0.31-18.08c0.04-2.32,0.22-3.89,0.44-4.84
			c-1.36-0.02-3.08-0.15-3.63-0.37l0.94-4.48c1.31,0.28,4.19,0.33,6.97,0.37l10.2,0.18C428.19,364.27,429.57,366.41,429.42,375.05z
			 M420.49,368.73l-10.76-0.19l-0.32,18.29l15.96,0.28l0.19-10.91C425.65,371.2,425.13,368.81,420.49,368.73z"/>
		<path class="st7" d="M437.72,379.89c2.13-3.2,3.28-5.65,3.32-7.67c0.03-1.67-0.92-2.24-3.23-2.94c-1.21-0.37-2.21-0.69-3.06-1.06
			l0.93-4.43c0.7,0.27,1.71,0.59,2.97,0.91c4.78,1.14,6.42,2.69,6.36,6.43c-0.05,3.18-1.63,6.69-4.17,10.34L437.72,379.89z"/>
		<path class="st7" d="M451.73,375.99c0.15-2.88,0.64-4.74,1.92-6.03c-1.96-0.34-5.14-1-6.29-1.47l0.94-4.48
			c2.21,1,10.83,2.31,14.16,2.57l-0.84,4.53c-1.06-0.07-2.92-0.4-3.63-0.47c-1.42-0.07-2.08,0.67-2.3,4.26
			c-0.1,2.63,0.1,11.72,0.36,17.34l-3.99-0.07C451.8,383.62,451.64,378.37,451.73,375.99z"/>
		<path class="st7" d="M465.47,387.75c4.25-0.08,9.55-2.82,9.61-9.43l0.03-1.97c0.02-4.14-0.92-5.37-4.69-6.4
			c-1.06-0.32-3.37-0.82-4.12-1.18l0.99-4.43c0.75,0.32,2.41,0.7,4.02,1.08c6.69,1.58,7.66,4.12,7.75,10.69l0.08,7.38
			c0.04,3.74,0.28,7.18,0.75,9.16l-3.94-0.07c-0.44-1.12-0.78-4.61-0.68-7.44c-1.65,4.72-5.74,7.73-10.69,7.65L465.47,387.75z"/>
	</g>
	<g class="st6">
		<path class="st7" d="M294.3,429.56h-5.65v-2.04h13.75v2.04h-5.68v16.53h-2.43L294.3,429.56L294.3,429.56z"/>
		<path class="st7" d="M319.6,436.78c0,6.17-3.94,9.62-8.63,9.62c-5.02,0-8.35-3.94-8.35-9.48c0-5.71,3.55-9.7,8.68-9.7
			C316.59,427.21,319.6,431.4,319.6,436.78z M305.19,436.83c0,4.22,2.15,7.61,5.93,7.61c3.91,0,5.95-3.55,5.95-7.61
			c0-3.8-1.85-7.66-5.92-7.66C307.28,429.17,305.19,432.64,305.19,436.83z"/>
		<path class="st7" d="M332.13,446.09l-2.37-4.11c-0.99-1.57-1.57-2.59-2.15-3.67h-0.06c-0.52,1.1-1.07,2.07-2.01,3.69l-2.23,4.08
			h-2.76l5.68-9.4l-5.46-9.18h2.76l2.48,4.35c0.69,1.21,1.21,2.15,1.74,3.17h0.06c0.52-1.13,0.99-1.96,1.68-3.17l2.54-4.35h2.76
			l-5.65,9.04l5.79,9.54L332.13,446.09L332.13,446.09z"/>
		<path class="st7" d="M340.09,427.52v18.57h-2.42v-18.57H340.09z"/>
		<path class="st7" d="M357.26,445.51c-0.88,0.41-2.65,0.88-4.93,0.88c-5.21,0-9.15-3.33-9.15-9.42c0-5.81,3.94-9.73,9.7-9.73
			c2.29,0,3.78,0.47,4.41,0.8l-0.58,1.96c-0.91-0.44-2.2-0.77-3.75-0.77c-4.35,0-7.25,2.78-7.25,7.66c0,4.55,2.62,7.47,7.14,7.47
			c1.46,0,2.95-0.3,3.91-0.77L357.26,445.51z"/>
		<path class="st7" d="M380.27,445.27c-1.07,0.38-3.2,1.02-5.7,1.02c-2.81,0-5.13-0.72-6.94-2.45c-1.6-1.54-2.59-4.02-2.59-6.92
			c0.03-5.51,3.83-9.59,10.06-9.59c2.15,0,3.86,0.5,4.63,0.85l-0.58,1.96c-0.99-0.44-2.23-0.8-4.11-0.8c-4.52,0-7.47,2.81-7.47,7.47
			c0,4.71,2.81,7.5,7.17,7.5c1.57,0,2.65-0.22,3.2-0.5v-5.54h-3.77v-1.93h6.12v8.93H380.27z"/>
		<path class="st7" d="M386.93,440.25l-1.9,5.84h-2.51l6.34-18.57h2.87l6.34,18.57h-2.56l-1.98-5.84H386.93z M393.02,438.38
			l-1.82-5.35c-0.41-1.21-0.69-2.31-0.96-3.39h-0.08c-0.25,1.1-0.55,2.23-0.91,3.36l-1.82,5.38L393.02,438.38L393.02,438.38z"/>
		<path class="st7" d="M400.46,443.17c1.07,0.66,2.65,1.21,4.3,1.21c2.45,0,3.89-1.29,3.89-3.17c0-1.74-0.99-2.73-3.53-3.69
			c-3-1.05-4.88-2.67-4.88-5.26c0-2.87,2.4-5.02,6.01-5.02c1.87,0,3.28,0.44,4.11,0.88l-0.66,1.96c-0.61-0.33-1.85-0.88-3.53-0.88
			c-2.54,0-3.5,1.52-3.5,2.78c0,1.74,1.13,2.59,3.69,3.58c3.14,1.24,4.74,2.73,4.74,5.46c0,2.87-2.12,5.37-6.5,5.37
			c-1.82,0-3.78-0.55-4.77-1.21L400.46,443.17z"/>
		<path class="st7" d="M423.96,437.38h-7.19v6.72h8.05v1.98h-10.47v-18.57h10.06v1.98h-7.63v5.9h7.19L423.96,437.38L423.96,437.38z"
			/>
		<path class="st7" d="M427.57,443.17c1.08,0.66,2.65,1.21,4.3,1.21c2.45,0,3.89-1.29,3.89-3.17c0-1.74-0.99-2.73-3.53-3.69
			c-3-1.05-4.88-2.67-4.88-5.26c0-2.87,2.4-5.02,6.01-5.02c1.87,0,3.28,0.44,4.11,0.88l-0.66,1.96c-0.61-0.33-1.85-0.88-3.53-0.88
			c-2.54,0-3.5,1.52-3.5,2.78c0,1.74,1.13,2.59,3.69,3.58c3.14,1.24,4.74,2.73,4.74,5.46c0,2.87-2.12,5.37-6.5,5.37
			c-1.82,0-3.78-0.55-4.77-1.21L427.57,443.17z"/>
	</g>
</g>
<g id="Objects">
	<path class="st8" d="M489.45,315.66c-3.16-8.41-7.19-16.48-11.91-24.12c-1.51-2.44-5.54-3.46-7.13-0.55
		c-1.67,3.07-3.54,5.62-4.33,6.7c-0.01,0.01-0.01,0.02-0.02,0.03c-1.31,1.79-1.45,4.19-0.36,6.12
		c9.32,16.53,14.95,35.15,15.13,54.09c0.03,2.46-0.02,5.5-0.2,7.95c-0.15,2.53-0.45,5.4-0.87,7.9c-1.07,6.93-3.15,13.8-5.41,20.44
		c-0.54,1.4-1.29,3.56-1.89,4.92l-1.01,2.43c-0.38,0.79-1.29,2.83-1.67,3.6c-0.39,0.75-1.4,2.76-1.8,3.53
		c-1.23,2.24-2.63,4.73-3.99,6.87c-6.41,10.1-14.47,19.21-23.66,26.87c-9.21,7.65-19.64,13.92-30.74,18.41
		c-2.37,0.94-5.1,1.92-7.5,2.71c-0.79,0.25-3.09,0.91-3.81,1.14c-0.88,0.25-2.92,0.74-3.85,1c-39.78,9.61-84.39-6.07-109.57-38.29
		c-17.55-22.33-25.95-52.01-21.84-80.17c4.26-28.36,21.32-54.02,43.79-71.56c33.53-26.32,83.18-30.56,121.02-10.97
		c2.56,1.32,6.48,0.89,8.7-0.94c1.87-1.55,2.22-2.52,3.92-4.33c2.29-2.43,1.42-5.4-1.01-6.85c-1.31-0.78-2.65-1.55-3.67-2.06
		c-45.47-23.31-104.68-17.12-143.34,16.66c-23.02,19.84-40.04,47.38-44.67,77.74c-7.68,49.01,17.83,100.57,61.41,124.22
		c22.34,12.48,48.43,18.35,73.97,15.81c2.79-0.24,6.42-0.78,9.18-1.27c3.98-0.7,8.14-1.65,12.02-2.77
		c15.76-4.45,30.62-12.11,43.61-22.06c11.34-8.73,21.38-19.28,29.36-31.17c3.14-4.63,6.02-9.67,8.52-14.67
		c0.98-2.04,2.33-4.95,3.18-7.05c0.7-1.59,1.62-4.14,2.25-5.78c0.31-0.96,1.16-3.47,1.44-4.4c0.38-1.45,0.89-3.03,1.23-4.47
		c1.2-4.92,2.14-10.17,2.72-15.2C499.32,355.71,496.77,334.87,489.45,315.66z"/>
	<path class="st8" d="M477.3,253.31c-2.19-3.65-6.93-4.83-10.58-2.64c-0.94,0.57-1.81,1.2-2.65,1.85
		c-3.88,2.89-7.94,7.55-11.21,11.06c-28.75,31.01-54.81,64.76-76.31,101.28c-2.14,3.56-4.36,7.46-6.15,11.2
		c-1.73,3.53-3.57,7.42-5.21,11.01c-11.31-20.7-29.1-43.42-50.22-52.71c-8.44-3.49-16.8,5.4-12.62,13.65
		c1.24,2.43,2.69,4.7,4.13,6.99c7.06,11.12,15.35,21.28,22.69,32.17c9.32,13.64,17.17,28.09,24.76,42.72
		c5.23,9.87,20.04,8.39,23.16-2.44c5.24-11.02,10.62-21.9,16.37-32.63c1.84-3.48,3.96-7.19,5.73-10.69
		c1.72-3.44,3.65-7.43,5.43-10.85c14.81-28.98,32.57-56.32,51.78-82.65c3.26-4.44,7.7-10.45,11.03-14.84
		c2.12-2.84,5.51-7.02,7.33-9.97c1.13-1.78,2.2-3.59,3.02-5.56C478.72,258.07,478.61,255.5,477.3,253.31z"/>
</g>
</svg>
