<?xml version="1.0" encoding="utf-8"?>
<!-- Generator: Adobe Illustrator 28.3.0, SVG Export Plug-In . SVG Version: 6.00 Build 0)  -->
<svg version="1.1" id="Layer_1" xmlns="http://www.w3.org/2000/svg" xmlns:xlink="http://www.w3.org/1999/xlink" x="0px" y="0px"
	 viewBox="0 0 800 1400" style="enable-background:new 0 0 800 1400;" xml:space="preserve">
<style type="text/css">
	.st0{opacity:0.5;}
	.st1{fill-rule:evenodd;clip-rule:evenodd;fill:#170C45;}
	.st2{fill-rule:evenodd;clip-rule:evenodd;fill:#E38F5F;}
	.st3{fill-rule:evenodd;clip-rule:evenodd;fill:#B757B5;}
	.st4{fill-rule:evenodd;clip-rule:evenodd;fill:#D47178;}
	.st5{fill-rule:evenodd;clip-rule:evenodd;fill:#EFEFEF;}
	.st6{fill-rule:evenodd;clip-rule:evenodd;fill:#7A68A5;}
	.st7{opacity:0.5;fill:url(#SVGID_1_);enable-background:new    ;}
	.st8{display:none;opacity:0.5;fill:url(#SVGID_00000056428584539043576430000013158175147191401862_);}
	.st9{opacity:0.58;fill:#968EFD;}
	.st10{opacity:0.3;}
	.st11{fill:#FCFCFC;}
	.st12{fill:none;stroke:#F2F2F2;stroke-width:5;stroke-miterlimit:10;}
	.st13{fill:none;stroke:#F2F2F2;stroke-width:5;stroke-miterlimit:10;stroke-dasharray:11.8507,11.8507;}
	.st14{opacity:0.65;fill:#FFFFFF;}
	.st15{fill:#C45AC0;}
</style>
<g class="st0">
	<g>
		<g>
			<g>
				<rect x="135.51" y="1075.15" class="st1" width="92.71" height="241.02"/>
				<path class="st2" d="M561.45,889.73l-127.65,0v27.76h7.98c0,0-1.75,278.27-88.39,339.74l288.47,0
					c-86.63-61.47-88.39-339.74-88.39-339.74h7.98V889.73z"/>
				<rect x="436.33" y="925.55" class="st3" width="122.6" height="18.9"/>
				<rect x="436.33" y="925.55" class="st1" width="122.6" height="9.45"/>
				<rect x="436.33" y="952.51" class="st3" width="122.6" height="18.9"/>
				<rect x="436.33" y="952.51" class="st1" width="122.6" height="9.45"/>
				<rect x="433.8" y="889.73" class="st4" width="127.65" height="27.76"/>
				<rect x="661.83" y="1096.31" class="st3" width="139.93" height="219.87"/>
				<path class="st5" d="M492.39,852.31c0,0,1.73-32.69,17.28-48.35c0,0-14.97-55.84,27.06-63.33c0,0,8.64-36.09,35.7-29.28
					c0,0,1.15-48.35,45.49-37.46c0,0-3.46-36.77,23.61-38.82c27.07-2.04,22.46,42.22,13.24,53.8c0,0,18.43,17.03,4.61,34.73
					c0,0,15.55,7.49,10.94,24.52c-4.61,17.02-21.88,14.3-31.1,8.85c0,0,4.03,19.75-12.67,22.47c0,0-6.33,29.28-27.07,17.71
					c0,0-3.45,10.9-17.85,8.85c0,0,2.88,16.34-6.33,25.2c-9.21,8.85-26.49,8.17-32.25-2.04c-5.76-10.21-40.72,15.85-45.58,32.77
					C492.62,878.85,492.39,852.31,492.39,852.31z"/>
				<path class="st6" d="M782.58,1113.49h-27.04v31.98h27.04V1113.49L782.58,1113.49z M745.32,1113.49h-27.04v31.98h27.04V1113.49
					L745.32,1113.49z M708.05,1113.49h-27.04l0,31.98l27.04,0V1113.49L708.05,1113.49z M782.58,1165.63l-27.04,0v31.98h27.04
					L782.58,1165.63L782.58,1165.63z M745.32,1165.63h-27.04l0,31.98h27.04V1165.63L745.32,1165.63z M708.05,1165.63h-27.04v31.98
					l27.04,0V1165.63L708.05,1165.63z M782.58,1217.76l-27.04,0v31.98h27.04V1217.76L782.58,1217.76z M745.32,1217.76h-27.04v31.98
					h27.04V1217.76L745.32,1217.76z M708.05,1217.76h-27.04v31.98h27.04V1217.76L708.05,1217.76z M782.58,1267h-27.04l0,31.98h27.04
					V1267L782.58,1267z M745.32,1267l-27.04,0v31.98h27.04L745.32,1267L745.32,1267z M708.05,1267h-27.04v31.98h27.04V1267z"/>
				<path class="st5" d="M162.04,981.89c0,0,0.87-16.52,8.73-24.44c0,0-7.57-28.22,13.68-32.01c0,0,4.37-18.24,18.05-14.8
					c0,0,0.58-24.44,22.99-18.93c0,0-1.75-18.59,11.93-19.62c13.68-1.03,11.35,21.34,6.69,27.19c0,0,9.31,8.61,2.33,17.55
					c0,0,7.86,3.79,5.53,12.39c-2.33,8.61-11.06,7.23-15.72,4.48c0,0,2.04,9.98-6.4,11.36c0,0-3.2,14.8-13.68,8.95
					c0,0-1.75,5.51-9.02,4.47c0,0,1.45,8.26-3.2,12.74c-4.66,4.47-13.39,4.13-16.3-1.03c-2.91-5.16-20.58,8.01-23.04,16.56
					C162.15,995.3,162.04,981.89,162.04,981.89z"/>
				<rect x="605.83" y="1087.41" class="st3" width="23.47" height="74.47"/>
				<rect x="602.96" y="1087.41" class="st1" width="29.21" height="10.15"/>
				<rect x="548.75" y="1050.51" class="st3" width="23.47" height="111.37"/>
				<rect x="545.88" y="1050.52" class="st1" width="29.21" height="10.15"/>
				<rect x="491.67" y="1019.38" class="st3" width="23.47" height="142.51"/>
				<rect x="488.8" y="1019.38" class="st1" width="29.21" height="10.15"/>
				<path class="st6" d="M383.14,1082.67L383.14,1082.67c-15.27,0-27.76,14.77-27.76,32.83l0,64.31c0,18.06,12.49,32.83,27.76,32.83
					l0,0c15.27,0,27.76-14.77,27.76-32.83l0-64.31C410.9,1097.45,398.41,1082.67,383.14,1082.67z"/>
				<rect x="350.65" y="1146.39" class="st2" width="64.97" height="6.35"/>
				<rect x="350.65" y="1134.3" class="st2" width="64.97" height="6.35"/>
				<rect x="287.54" y="1161.88" class="st1" width="28.62" height="58.95"/>
				<rect x="240.03" y="1161.88" class="st3" width="28.62" height="58.95"/>
				<path class="st6" d="M147.52,1098.69h17.92v21.19h-17.92V1098.69L147.52,1098.69z M172.21,1098.69h17.92l0,21.19h-17.92
					L172.21,1098.69L172.21,1098.69z M196.9,1098.69h17.92l0,21.19H196.9L196.9,1098.69L196.9,1098.69z M147.52,1133.23h17.92
					l0,21.19h-17.92L147.52,1133.23L147.52,1133.23z M172.21,1133.23h17.92v21.19h-17.92V1133.23L172.21,1133.23z M196.9,1133.23
					h17.92v21.19H196.9V1133.23L196.9,1133.23z M147.52,1167.77h17.92v21.19h-17.92V1167.77L147.52,1167.77z M172.21,1167.77h17.92
					v21.19h-17.92V1167.77L172.21,1167.77z M196.9,1167.77h17.92l0,21.19H196.9L196.9,1167.77L196.9,1167.77z M147.52,1202.31h17.92
					v21.19h-17.92V1202.31L147.52,1202.31z M172.21,1202.31h17.92l0,21.19h-17.92L172.21,1202.31L172.21,1202.31z M196.9,1202.31
					h17.92v21.19H196.9V1202.31L196.9,1202.31z M147.52,1236.85h17.92l0,21.19h-17.92L147.52,1236.85L147.52,1236.85z
					 M172.21,1236.85h17.92v21.19h-17.92V1236.85L172.21,1236.85z M196.9,1236.85h17.92v21.19H196.9V1236.85L196.9,1236.85z
					 M147.52,1271.4h17.92v21.19h-17.92V1271.4L147.52,1271.4z M172.21,1271.4h17.92l0,21.19h-17.92V1271.4L172.21,1271.4z
					 M196.9,1271.4h17.92l0,21.19H196.9L196.9,1271.4z"/>
				<path class="st5" d="M759.41,963.44c0,0,1.1-20.92,11.06-30.94c0,0-9.58-35.74,17.32-40.54c0,0,5.53-23.1,22.85-18.74
					c0,0,0.74-30.94,29.11-23.97c0,0-2.21-23.54,15.11-24.85c17.32-1.31,14.37,27.02,8.48,34.43c0,0,11.79,10.9,2.95,22.23
					c0,0,9.95,4.79,7,15.69c-2.95,10.9-14,9.15-19.9,5.67c0,0,2.58,12.64-8.11,14.38c0,0-4.05,18.74-17.32,11.33
					c0,0-2.21,6.97-11.42,5.67c0,0,1.84,10.46-4.05,16.13c-5.9,5.67-16.95,5.23-20.64-1.31c-3.69-6.54-26.06,10.14-29.17,20.97
					C759.55,980.43,759.41,963.44,759.41,963.44z"/>
				<rect x="3.07" y="1195.67" class="st3" width="132.44" height="120.51"/>
				<path class="st6" d="M33.9,1231.94c5.56,0,10.06,10.74,10.06,23.98c0,13.24-4.5,23.98-10.06,23.98
					c-5.55,0-10.06-10.74-10.06-23.98C23.84,1242.68,28.35,1231.94,33.9,1231.94L33.9,1231.94z M69.29,1231.94
					c5.56,0,10.06,10.74,10.06,23.98c0,13.24-4.5,23.98-10.06,23.98c-5.56,0-10.06-10.74-10.06-23.98
					C59.23,1242.68,63.73,1231.94,69.29,1231.94L69.29,1231.94z M104.68,1231.94c5.56,0,10.06,10.74,10.06,23.98
					c0,13.24-4.5,23.98-10.06,23.98c-5.56,0-10.06-10.74-10.06-23.98C94.62,1242.68,99.12,1231.94,104.68,1231.94z"/>
				<rect x="3.07" y="1202.76" class="st1" width="132.44" height="9.82"/>
				<path class="st1" d="M388.74,1083.32c-1.73-0.4-3.77-0.65-5.6-0.65c-1.92,0-3.8,0.23-5.61,0.68v17.63h11.21V1083.32z"/>
				<polygon class="st1" points="415.62,1170.57 350.65,1170.57 350.65,1185.3 364.81,1185.3 343.07,1245.78 349.88,1245.78 
					371.63,1185.3 379.5,1185.3 379.5,1245.78 386.77,1245.78 386.77,1185.3 394.65,1185.3 416.39,1245.78 423.21,1245.78 
					401.46,1185.3 415.62,1185.3 				"/>
				<polygon class="st1" points="485.08,1205.85 459.13,1205.85 459.13,1241.43 323.81,1241.43 323.81,1257.23 323.81,1316.17 
					661.83,1316.17 661.83,1257.23 661.83,1205.85 635.88,1205.85 635.88,1161.88 599.24,1161.88 599.24,1205.85 578.8,1205.85 
					578.8,1161.88 542.16,1161.88 542.16,1205.85 521.72,1205.85 521.72,1161.88 485.08,1161.88 				"/>
				<path class="st6" d="M634.99,1302.63c7.42,0,13.47-7.16,13.47-15.93c0-8.78-6.05-15.93-13.47-15.93
					c-7.42,0-13.47,7.16-13.47,15.93S627.57,1302.63,634.99,1302.63z"/>
				<path class="st6" d="M587.6,1302.63c7.42,0,13.47-7.16,13.47-15.93s-6.05-15.93-13.47-15.93c-7.42,0-13.47,7.16-13.47,15.93
					S580.18,1302.63,587.6,1302.63z"/>
				<path class="st6" d="M540.21,1302.63c7.42,0,13.47-7.16,13.47-15.93s-6.05-15.93-13.47-15.93c-7.42,0-13.47,7.16-13.47,15.93
					S532.79,1302.63,540.21,1302.63z"/>
				<path class="st6" d="M492.82,1302.63c7.42,0,13.47-7.16,13.47-15.93s-6.05-15.93-13.47-15.93c-7.42,0-13.47,7.16-13.47,15.93
					S485.4,1302.63,492.82,1302.63z"/>
				<path class="st6" d="M445.43,1302.63c7.42,0,13.47-7.16,13.47-15.93s-6.05-15.93-13.47-15.93c-7.42,0-13.47,7.16-13.47,15.93
					S438.01,1302.63,445.43,1302.63z"/>
				<path class="st6" d="M398.04,1302.63c7.42,0,13.47-7.16,13.47-15.93c0-8.78-6.05-15.93-13.47-15.93
					c-7.42,0-13.47,7.16-13.47,15.93C384.57,1295.48,390.62,1302.63,398.04,1302.63z"/>
				<path class="st6" d="M350.65,1302.63c7.42,0,13.47-7.16,13.47-15.93c0-8.78-6.05-15.93-13.47-15.93
					c-7.42,0-13.47,7.16-13.47,15.93S343.23,1302.63,350.65,1302.63z"/>
				<rect x="574.13" y="1227.39" class="st6" width="74.33" height="14.04"/>
				<rect x="479.35" y="1227.39" class="st6" width="74.33" height="14.04"/>
				<polygon class="st1" points="712.32,1030.46 712.32,1096.31 779.59,1096.31 779.59,1030.46 768.94,1030.46 768.94,986.56 
					751.09,986.56 751.09,1030.46 				"/>
				<path class="st6" d="M745.95,1083.53c9.38,0,17.04-9.05,17.04-20.15c0-11.1-7.65-20.15-17.04-20.15
					c-9.38,0-17.04,9.05-17.04,20.15S736.57,1083.53,745.95,1083.53z"/>
				<rect x="194.25" y="1220.83" class="st2" width="137.05" height="95.34"/>
				<path class="st1" d="M315.7,1231.21h-46.37v7.51h46.37V1231.21L315.7,1231.21z M255.7,1231.21l-46.37,0v7.51h46.37V1231.21
					L255.7,1231.21z M315.7,1253.61h-46.37v7.51h46.37V1253.61L315.7,1253.61z M255.7,1253.61h-46.37v7.51h46.37V1253.61
					L255.7,1253.61z M315.7,1276.01h-46.37v7.51h46.37V1276.01L315.7,1276.01z M255.7,1276.01h-46.37l0,7.51h46.37V1276.01
					L255.7,1276.01z M315.7,1298.41h-46.37v7.51h46.37V1298.41L315.7,1298.41z M255.7,1298.41h-46.37v7.51h46.37V1298.41z"/>
				<polygon class="st3" points="157.26,1002.44 157.26,1031.53 150.2,1031.53 150.2,1075.16 194.77,1075.16 194.77,1031.53 
					169.08,1031.53 169.08,1002.44 				"/>
				<path class="st6" d="M172.48,1066.69c6.22,0,11.29-6,11.29-13.35c0-7.35-5.07-13.35-11.29-13.35s-11.29,6-11.29,13.35
					C161.2,1060.69,166.27,1066.69,172.48,1066.69z"/>
				<polygon class="st2" points="42.2,1156.15 45.63,1195.67 12.67,1195.67 16.1,1156.15 				"/>
				<rect x="12.36" y="1164.21" class="st1" width="33.58" height="4.98"/>
				<rect x="12.36" y="1172.26" class="st3" width="33.58" height="4.99"/>
			</g>
		</g>
	</g>
</g>
<linearGradient id="SVGID_1_" gradientUnits="userSpaceOnUse" x1="676.2983" y1="1466.533" x2="269.8587" y2="343.9831" gradientTransform="matrix(1 0 0 -1 0 1402)">
	<stop  offset="0" style="stop-color:#63C3FF"/>
	<stop  offset="0.171" style="stop-color:#64BDFA"/>
	<stop  offset="0.4038" style="stop-color:#68ABEC"/>
	<stop  offset="0.6719" style="stop-color:#6D8FD6"/>
	<stop  offset="0.9646" style="stop-color:#7567B6"/>
	<stop  offset="1" style="stop-color:#7662B2"/>
</linearGradient>
<rect x="-12" y="-25" class="st7" width="825.14" height="1444"/>
<linearGradient id="SVGID_00000008859042604030236800000015580047856833782152_" gradientUnits="userSpaceOnUse" x1="531.7946" y1="282.0739" x2="308.3351" y2="899.2493" gradientTransform="matrix(1.0947 -0.1793 -0.1793 3.0491 121.9902 -1279.4989)">
	<stop  offset="0" style="stop-color:#B37CFF"/>
	<stop  offset="1" style="stop-color:#F895E7"/>
</linearGradient>
<path style="display:none;opacity:0.5;fill:url(#SVGID_00000008859042604030236800000015580047856833782152_);" d="M1036.89,250.25
	c21.41-154.74,24.74-271.12-10.7-378.9c-32.65-99.3-95.21-187.04-151.92-160.38c-46.08,21.67-91.49,78.47-132.35,153.36
	c-24.65,45.17-51.95,77.34-79.84,95.63c-30.81,20.22-69.33,38.22-98.5,27.75c-57.34-20.58-108.8-78.05-162.02-123.95
	c-108.89-93.89-238.63-135.25-356.12,23.62C-11.17-36.06-65.99,111.06-63.13,258.65c2.21,113.97,38.28,197.93,34.4,314.69
	c-4.38,131.88-55.56,239.07-97.07,338.74c-39.29,94.34-74.6,202.87-96.91,323.97c-22.3,121.1-30.66,255.85-16.27,366.44
	c18.74,143.98,74.24,230.24,135.71,246.34c61.46,16.11,128.05-29.99,190.53-99.08c62.48-69.09,122.13-160.85,182.96-243.24
	c20.58-27.87,44.46-55.51,63.01-36.54c20.9,21.37,24.44,89.54,31.88,144c16.67,122,62.22,197.48,113.13,222.89
	c50.91,25.41,106.95,6.48,161.8-22.96c61.09-32.78,124.46-81.59,176.82-186.41c52.36-104.82,90.58-278.35,77.72-420.88
	c-8.17-90.53-35.48-162.07-32.47-260.1c3.12-101.22,37-191.54,66.52-273.97C974,545.9,1015.48,404.99,1036.89,250.25z"/>
<g>
	<rect x="3.37" y="1318" class="st9" width="800" height="84"/>
	<g class="st10">
		<line class="st11" x1="-2.13" y1="1359.33" x2="803.87" y2="1359.67"/>
		<g>
			<line class="st12" x1="-2.13" y1="1359.33" x2="3.87" y2="1359.33"/>
			<line class="st13" x1="15.72" y1="1359.34" x2="791.95" y2="1359.66"/>
			<line class="st12" x1="797.87" y1="1359.67" x2="803.87" y2="1359.67"/>
		</g>
	</g>
</g>
<g class="st0">
	<path class="st14" d="M219.69,775c-9.13-11.16-22.77-15.75-36.12-12.41c-14.56,3.64-22.78,17.55-36.33,23.12
		c-23.64,9.71-56.32-9.47-74.27,15.55c-21.96,30.6-38.92,7.65-38.92,28.42c0,20.77,151.69,5.47,226.54,6.56
		c10.81,0.16,57.76-0.63,37.55-23.08c-6.28-6.97-15.23-8.14-23.58-9.77c-10.88-2.13-36.76-3.29-44.65-11.76
		c-4.24-4.56-5.88-11.11-9.71-15.98C220.04,775.42,219.87,775.21,219.69,775z"/>
	<path class="st14" d="M739.13,130.84c-5.3-7.53-13.21-10.63-20.97-8.38c-8.45,2.46-13.22,11.85-21.09,15.6
		c-13.72,6.55-32.69-6.39-43.11,10.5c-12.74,20.66-22.59,5.16-22.59,19.18c0,14.02,88.05,3.69,131.49,4.43
		c6.28,0.11,33.53-0.43,21.8-15.58c-3.64-4.7-8.84-5.49-13.69-6.59c-6.32-1.44-21.34-2.22-25.91-7.94
		c-2.46-3.08-3.41-7.5-5.63-10.79C739.33,131.13,739.23,130.98,739.13,130.84z"/>
	<path class="st14" d="M640.97,149.07c-9.13-11.16-22.77-15.75-36.12-12.41c-14.56,3.64-22.78,17.55-36.33,23.12
		c-23.64,9.71-56.32-9.47-74.27,15.55c-21.96,30.6-38.92,7.65-38.92,28.42c0,20.77,151.69,5.47,226.54,6.56
		c10.81,0.16,57.76-0.63,37.55-23.08c-6.28-6.97-15.23-8.14-23.58-9.77c-10.88-2.13-36.76-3.29-44.65-11.76
		c-4.24-4.56-5.88-11.11-9.71-15.98C641.32,149.5,641.15,149.28,640.97,149.07z"/>
	<path class="st14" d="M253.97,56.55c-9.13-11.16-22.77-15.75-36.12-12.41c-14.56,3.64-22.78,17.55-36.33,23.12
		c-23.64,9.71-56.32-9.47-74.27,15.55c-21.96,30.6-38.92,7.65-38.92,28.42c0,20.77,151.69,5.47,226.54,6.56
		c10.81,0.16,57.76-0.63,37.55-23.08c-6.28-6.97-15.23-8.14-23.58-9.77c-10.88-2.13-36.76-3.29-44.65-11.76
		c-4.24-4.56-5.88-11.11-9.71-15.98C254.31,56.98,254.14,56.76,253.97,56.55z"/>
</g>
<path class="st15" d="M235.93,1217.91"/>
</svg>
