<?xml version="1.0" encoding="utf-8"?>
<!-- Generator: Adobe Illustrator 28.3.0, SVG Export Plug-In . SVG Version: 6.00 Build 0)  -->
<svg version="1.1" id="Layer_1" xmlns="http://www.w3.org/2000/svg" xmlns:xlink="http://www.w3.org/1999/xlink" x="0px" y="0px"
	 viewBox="0 0 800 1400" style="enable-background:new 0 0 800 1400;" xml:space="preserve">
<style type="text/css">
	.st0{display:none;opacity:0.3;}
	.st1{display:inline;}
	.st2{fill:url(#SVGID_1_);}
	.st3{fill:url(#SVGID_00000179614580678317699760000005622908884179915146_);}
	.st4{opacity:0.5;fill:#FFFFFF;enable-background:new    ;}
	.st5{fill:url(#SVGID_00000124141717448143627080000007883619829853909888_);}
	.st6{fill:url(#SVGID_00000109745434550831192230000006546046942586781087_);}
	.st7{fill:url(#SVGID_00000018208013037509610170000004698385464477666446_);}
	.st8{fill:url(#SVGID_00000038379066709404099250000015439915562429770155_);}
	.st9{fill:url(#SVGID_00000166652183842919956210000005345117238704641706_);}
	.st10{fill:url(#SVGID_00000175302032869428940500000000746962106886594692_);}
	.st11{opacity:0.4;fill:#FFFFFF;enable-background:new    ;}
	.st12{fill:url(#SVGID_00000152952632754615812430000011257198369116029322_);}
	.st13{fill:url(#SVGID_00000000917981714064062320000008260309420896637114_);}
	.st14{fill:url(#SVGID_00000107555161458484564710000017296184567834396580_);}
	.st15{display:none;opacity:0.5;fill:url(#SVGID_00000019638155007939688570000013672436485831197853_);enable-background:new    ;}
	.st16{display:none;opacity:0.5;}
	.st17{display:inline;opacity:0.65;fill:#FFFFFF;enable-background:new    ;}
	.st18{display:none;opacity:0.7;}
	.st19{display:inline;fill:#D77D25;}
	.st20{display:inline;fill:#FD8B04;}
	.st21{fill:#FD6E03;}
	.st22{fill:#1F2527;}
	.st23{fill:#F77B04;}
	.st24{fill:#8D9095;}
	.st25{fill:#44474A;}
	.st26{fill:#43454A;}
	.st27{fill:#FDA947;}
	.st28{fill:#FD8B07;}
	.st29{display:none;}
	.st30{display:inline;opacity:0.2;fill:#B495C1;enable-background:new    ;}
	.st31{display:inline;fill:#FFFFFF;}
	.st32{fill:#20382B;stroke:#000000;stroke-miterlimit:10;}
	.st33{fill:#FFE3CB;stroke:#000000;stroke-miterlimit:10;}
	.st34{fill:#FFB995;}
	.st35{fill:#332C26;}
	.st36{fill:#FFFFFF;}
	.st37{fill:none;stroke:#000000;stroke-miterlimit:10;}
	.st38{stroke:#000000;stroke-width:0.5;stroke-miterlimit:10;}
	.st39{fill:none;stroke:#000000;stroke-width:0.75;stroke-miterlimit:10;}
	.st40{fill:#332C26;stroke:#000000;stroke-miterlimit:10;}
	.st41{fill:none;stroke:#FFB995;stroke-miterlimit:10;}
	.st42{opacity:0.44;fill:#D8B8A3;enable-background:new    ;}
	.st43{fill:#FFB995;stroke:#000000;stroke-width:0.5;stroke-miterlimit:10;}
	.st44{fill:none;stroke:#000000;stroke-width:2;stroke-miterlimit:10;}
	.st45{fill:#305437;stroke:#000000;stroke-miterlimit:10;}
	.st46{fill:#305437;}
	.st47{fill:#FFFFFF;stroke:#000000;stroke-miterlimit:10;}
	.st48{fill:#C87529;stroke:#000000;stroke-miterlimit:10;}
	.st49{fill:#304D37;stroke:#000000;stroke-miterlimit:10;}
	.st50{fill:#20382B;}
	.st51{display:inline;fill:none;stroke:#F48E8E;stroke-width:30;stroke-miterlimit:10;}
	.st52{display:inline;fill:#C4925C;}
	.st53{display:inline;fill:#E0BF6C;}
	.st54{display:none;fill:none;}
	.st55{display:none;enable-background:new    ;}
	.st56{font-family:'MyriadHebrew-Regular';}
	.st57{font-size:36px;}
	.st58{clip-path:url(#SVGID_00000038401705645133837440000013677801182786551186_);}
	.st59{fill:#D5D5D5;}
	.st60{clip-path:url(#SVGID_00000163041347171372085130000004801241370173316524_);}
	.st61{fill:#9A98FA;}
	.st62{clip-path:url(#SVGID_00000113348137223744149160000008366051630405680787_);}
</style>
<g class="st0">
	<g class="st1">
		<g>
			<g>
				
					<linearGradient id="SVGID_1_" gradientUnits="userSpaceOnUse" x1="-156.1498" y1="566.5128" x2="-724.7359" y2="1512.0961" gradientTransform="matrix(-1 0 0 1 -210.3754 -17.4032)">
					<stop  offset="0" style="stop-color:#FDF53F"/>
					<stop  offset="1" style="stop-color:#D93C65"/>
				</linearGradient>
				<path class="st2" d="M252.4,931.8v-49.9H409v49.9c0,46.8,7.6,93.4,22.4,137.8l83.8,250.4h-369l83.8-250.4
					C244.9,1025.1,252.4,978.6,252.4,931.8z"/>
				
					<linearGradient id="SVGID_00000170959009545632901310000007658961507537119161_" gradientUnits="userSpaceOnUse" x1="-594.1456" y1="858.7227" x2="-503.6432" y2="942.0803" gradientTransform="matrix(-1 0 0 1 -210.3754 -17.4032)">
					<stop  offset="0" style="stop-color:#2B3582"/>
					<stop  offset="1" style="stop-color:#150E42"/>
				</linearGradient>
				<path style="fill:url(#SVGID_00000170959009545632901310000007658961507537119161_);" d="M249.6,902.7h162.2
					c6.9,0,12.5-5.6,12.5-12.5l0,0c0-6.9-5.6-12.5-12.5-12.5H249.6c-6.9,0-12.5,5.6-12.5,12.5l0,0
					C237.2,897.1,242.8,902.7,249.6,902.7z"/>
				<path class="st4" d="M410.2,963.7h-159c0.5-6.9,0.9-13.8,1-20.8h156.9C409.4,949.8,409.7,956.8,410.2,963.7z"/>
				<path class="st4" d="M414,996.9H247.5c0.5-3.2,0.9-6.5,1.4-9.7h163.7C413,990.5,413.5,993.7,414,996.9z"/>
			</g>
			<g>
				
					<linearGradient id="SVGID_00000118358946189964074790000016433241019144753538_" gradientUnits="userSpaceOnUse" x1="-564.0002" y1="756.6168" x2="-1132.587" y2="1702.2013" gradientTransform="matrix(-1 0 0 1 -210.3754 -17.4032)">
					<stop  offset="0" style="stop-color:#A737D5"/>
					<stop  offset="1" style="stop-color:#EF497A"/>
				</linearGradient>
				<path style="fill:url(#SVGID_00000118358946189964074790000016433241019144753538_);" d="M513.3,851.3V791h189.1v60.2
					c0,56.5,9.2,112.7,27.1,166.3l101.1,302.3H385.1l101.1-302.3C504.2,964,513.3,907.8,513.3,851.3z"/>
				
					<linearGradient id="SVGID_00000047028194929301138320000011754024775829548475_" gradientUnits="userSpaceOnUse" x1="-885.9117" y1="756.1065" x2="-770.5803" y2="862.3329" gradientTransform="matrix(-1 0 0 1 -210.3754 -17.4032)">
					<stop  offset="0" style="stop-color:#2B3582"/>
					<stop  offset="1" style="stop-color:#150E42"/>
				</linearGradient>
				<path style="fill:url(#SVGID_00000047028194929301138320000011754024775829548475_);" d="M498.3,816.1h219.2
					c1.9,0,3.4-1.5,3.4-3.4v-23.4c0-1.9-1.5-3.4-3.4-3.4H498.3c-1.9,0-3.4,1.5-3.4,3.4v23.4C494.9,814.6,496.4,816.1,498.3,816.1z"
					/>
				<path class="st4" d="M703.8,889.8H511.9c0.6-8.3,1-16.7,1.2-25.1h189.4C702.8,873,703.2,881.4,703.8,889.8z"/>
				<path class="st4" d="M708.4,929.9h-201c0.6-3.9,1.1-7.8,1.6-11.7h197.7C707.2,922.1,707.8,926,708.4,929.9z"/>
			</g>
			<g>
				<g>
					
						<linearGradient id="SVGID_00000060736732135799867810000013261655938166839228_" gradientUnits="userSpaceOnUse" x1="-567.8511" y1="1414.2656" x2="-591.9587" y2="1252.0039" gradientTransform="matrix(-1 0 0 1 -210.3754 -17.4032)">
						<stop  offset="0" style="stop-color:#9F5699"/>
						<stop  offset="1" style="stop-color:#202278"/>
					</linearGradient>
					<path style="fill:url(#SVGID_00000060736732135799867810000013261655938166839228_);" d="M301.9,1213.2h152.7
						c2.2,0,3.9,1.6,3.9,3.7l-2.7,99.1c0,2-1.9,3.6-4,3.6l-149.7-0.6c-2.1,0-3.9-1.7-3.9-3.7l-0.3-98.5
						C298,1214.8,299.8,1213.2,301.9,1213.2z"/>
					<g>
						<g>
							<path class="st4" d="M440,1231.2h4.8c0.2,0,0.4,0.2,0.6,0.3c0.1,0.2,0.2,0.4,0.2,0.6l-0.6,14c0,0.4-0.4,1-0.8,1h-4.6
								c-0.2,0-0.4-0.4-0.6-0.5c-0.1-0.2-0.2-0.5-0.2-0.7l0.5-13.8C439.2,1231.7,439.6,1231.2,440,1231.2z"/>
							<path class="st4" d="M419.5,1231.2h4.8c0.2,0,0.4,0.2,0.6,0.3c0.1,0.2,0.2,0.4,0.2,0.6l-0.2,14c0,0.4-0.4,1.1-0.8,1.1h-4.6
								c-0.2,0-0.4-0.4-0.6-0.5c-0.1-0.2-0.2-0.5-0.2-0.7l0.1-13.8C418.6,1231.7,419,1231.2,419.5,1231.2z"/>
							<path class="st4" d="M401.3,1231.2h4.8c0.5,0,0.8,0.4,0.8,0.8l0.1,13.7c0,0.2-0.1,0.7-0.2,0.8c-0.1,0.2-0.4,0.5-0.6,0.5h-4.6
								c-0.5,0-0.8-0.6-0.8-1l-0.2-13.8c0-0.2,0.1-0.6,0.2-0.7C400.9,1231.4,401.1,1231.2,401.3,1231.2z"/>
							<path class="st4" d="M382.6,1231.5c0.1-0.2,0.4-0.3,0.6-0.3h4.8c0.4,0,0.8,0.4,0.8,0.8l0.5,13.7c0,0.2-0.1,0.7-0.2,0.9
								c-0.1,0.2-0.4,0.5-0.6,0.5h-4.6c-0.4,0-0.8-0.6-0.8-1l-0.6-13.8C382.4,1232.1,382.5,1231.7,382.6,1231.5z"/>
						</g>
						<g>
							<path class="st4" d="M365.8,1231.2h4.8c0.2,0,0.4,0.2,0.6,0.3c0.1,0.2,0.2,0.4,0.2,0.6l-0.6,14c0,0.4-0.4,1-0.8,1h-4.6
								c-0.2,0-0.4-0.4-0.6-0.5c-0.1-0.2-0.2-0.5-0.2-0.7l0.5-13.8C365,1231.7,365.4,1231.2,365.8,1231.2z"/>
							<path class="st4" d="M345.2,1231.2h4.8c0.2,0,0.4,0.2,0.6,0.3c0.1,0.2,0.2,0.4,0.2,0.6l-0.2,14c0,0.4-0.4,1.1-0.8,1.1h-4.6
								c-0.2,0-0.4-0.4-0.6-0.5c-0.1-0.2-0.2-0.5-0.2-0.7l0.1-13.8C344.4,1231.7,344.7,1231.2,345.2,1231.2z"/>
							<path class="st4" d="M327.1,1231.2h4.8c0.5,0,0.8,0.4,0.8,0.8l0.1,13.7c0,0.2-0.1,0.7-0.2,0.8c-0.1,0.2-0.4,0.5-0.6,0.5h-4.6
								c-0.5,0-0.8-0.6-0.8-1l-0.2-13.8c0-0.2,0.1-0.6,0.2-0.7C326.6,1231.4,326.9,1231.2,327.1,1231.2z"/>
							<path class="st4" d="M308.4,1231.5c0.1-0.2,0.4-0.3,0.6-0.3h4.8c0.4,0,0.8,0.4,0.8,0.8l0.5,13.7c0,0.2-0.1,0.7-0.2,0.9
								s-0.4,0.5-0.6,0.5h-4.6c-0.4,0-0.8-0.6-0.8-1l-0.6-13.8C308.1,1232.1,308.2,1231.7,308.4,1231.5z"/>
						</g>
					</g>
					<g>
						<g>
							<path class="st4" d="M440,1260.9h4.8c0.2,0,0.4,0.2,0.6,0.3c0.1,0.2,0.2,0.4,0.2,0.6l-0.6,13.6c0,0.4-0.4,0.7-0.8,0.7h-4.6
								c-0.2,0-0.4,0-0.6-0.2c-0.1-0.2-0.2-0.3-0.2-0.5l0.5-13.7C439.2,1261.3,439.6,1260.9,440,1260.9z"/>
							<path class="st4" d="M419.5,1260.9h4.8c0.2,0,0.4,0.2,0.6,0.3c0.1,0.2,0.2,0.4,0.2,0.6l-0.2,13.6c0,0.4-0.4,0.7-0.8,0.7h-4.6
								c-0.2,0-0.4,0-0.6-0.2s-0.2-0.3-0.2-0.5l0.1-13.7C418.6,1261.3,419,1260.9,419.5,1260.9z"/>
							<path class="st4" d="M401.3,1260.9h4.8c0.5,0,0.8,0.4,0.8,0.8l0.1,13.7c0,0.2-0.1,0.4-0.2,0.5c-0.1,0.2-0.4,0.2-0.6,0.2h-4.6
								c-0.5,0-0.8-0.3-0.8-0.7l-0.2-13.6c0-0.2,0.1-0.5,0.2-0.6C400.9,1261.1,401.1,1260.9,401.3,1260.9z"/>
							<path class="st4" d="M382.6,1261.2c0.1-0.2,0.4-0.3,0.6-0.3h4.8c0.4,0,0.8,0.4,0.8,0.8l0.5,13.7c0,0.2-0.1,0.4-0.2,0.5
								c-0.1,0.2-0.4,0.2-0.6,0.2h-4.6c-0.4,0-0.8-0.3-0.8-0.7l-0.6-13.7C382.4,1261.6,382.5,1261.4,382.6,1261.2z"/>
						</g>
						<g>
							<path class="st4" d="M365.8,1260.9h4.8c0.2,0,0.4,0.2,0.6,0.3c0.1,0.2,0.2,0.4,0.2,0.6l-0.6,13.6c0,0.4-0.4,0.7-0.8,0.7h-4.6
								c-0.2,0-0.4,0-0.6-0.2c-0.1-0.2-0.2-0.3-0.2-0.5l0.5-13.7C365,1261.3,365.4,1260.9,365.8,1260.9z"/>
							<path class="st4" d="M345.2,1260.9h4.8c0.2,0,0.4,0.2,0.6,0.3c0.1,0.2,0.2,0.4,0.2,0.6l-0.2,13.6c0,0.4-0.4,0.7-0.8,0.7h-4.6
								c-0.2,0-0.4,0-0.6-0.2s-0.2-0.3-0.2-0.5l0.1-13.7C344.4,1261.3,344.7,1260.9,345.2,1260.9z"/>
							<path class="st4" d="M327.1,1260.9h4.8c0.5,0,0.8,0.4,0.8,0.8l0.1,13.7c0,0.2-0.1,0.4-0.2,0.5c-0.1,0.2-0.4,0.2-0.6,0.2h-4.6
								c-0.5,0-0.8-0.3-0.8-0.7l-0.2-13.6c0-0.2,0.1-0.5,0.2-0.6C326.6,1261.1,326.9,1260.9,327.1,1260.9z"/>
							<path class="st4" d="M308.4,1261.2c0.1-0.2,0.4-0.3,0.6-0.3h4.8c0.4,0,0.8,0.4,0.8,0.8l0.5,13.7c0,0.2-0.1,0.4-0.2,0.5
								c-0.1,0.2-0.4,0.2-0.6,0.2h-4.6c-0.4,0-0.8-0.3-0.8-0.7l-0.6-13.7C308.1,1261.6,308.2,1261.4,308.4,1261.2z"/>
						</g>
					</g>
				</g>
				<g>
					
						<linearGradient id="SVGID_00000160148970912508570490000012056788141758320557_" gradientUnits="userSpaceOnUse" x1="-268.9113" y1="975.9895" x2="-241.8793" y2="1341.6315" gradientTransform="matrix(-1 0 0 1 -210.3754 -17.4032)">
						<stop  offset="0" style="stop-color:#A737D5"/>
						<stop  offset="1" style="stop-color:#EF497A"/>
					</linearGradient>
					<polygon style="fill:url(#SVGID_00000160148970912508570490000012056788141758320557_);" points="20.5,1303.3 68.2,1303.3 
						63,1027.2 63.1,1019.3 63,1010.2 62.8,1002.4 61.4,954.3 61.4,953 23.8,953 23.8,1027.2 					"/>
					
						<linearGradient id="SVGID_00000170978254041841251440000008737694911651464073_" gradientUnits="userSpaceOnUse" x1="-278.5754" y1="967.3531" x2="-228.7854" y2="967.3531" gradientTransform="matrix(-1 0 0 1 -210.3754 -17.4032)">
						<stop  offset="0" style="stop-color:#2B3582"/>
						<stop  offset="1" style="stop-color:#150E42"/>
					</linearGradient>
					<path style="fill:url(#SVGID_00000170978254041841251440000008737694911651464073_);" d="M18.5,947.8c0-1.4,1-2.6,2.2-2.6H66
						c1.2,0,2.2,1.2,2.2,2.6v4.3c0,1.4-1,2.6-2.2,2.6H20.7c-1.2,0-2.2-1.2-2.2-2.6V947.8z"/>
					
						<linearGradient id="SVGID_00000116917807620824695710000004424717247757871000_" gradientUnits="userSpaceOnUse" x1="-287.3754" y1="1327.2032" x2="-220.0754" y2="1327.2032" gradientTransform="matrix(-1 0 0 1 -210.3754 -17.4032)">
						<stop  offset="0" style="stop-color:#2B3582"/>
						<stop  offset="1" style="stop-color:#150E42"/>
					</linearGradient>
					<path style="fill:url(#SVGID_00000116917807620824695710000004424717247757871000_);" d="M9.7,1306.9c0-1.9,1.3-3.5,3-3.5H74
						c1.7,0,3,1.6,3,3.5v5.8c0,1.9-1.3,3.5-3,3.5H12.7c-1.7,0-3-1.6-3-3.5V1306.9z"/>
					<polygon class="st11" points="23.8,1003.5 23.8,1009.8 63.1,1009.8 62.9,1003.5 					"/>
					<polygon class="st11" points="23.8,1017.7 23.8,1027.2 63.6,1027.2 63.4,1017.7 					"/>
				</g>
				<g>
					<g>
						
							<linearGradient id="SVGID_00000075872507114936910530000015631852416501581201_" gradientUnits="userSpaceOnUse" x1="-272.7606" y1="927.7967" x2="-362.007" y2="1165.7878" gradientTransform="matrix(-1 0 0 1 -210.3754 -17.4032)">
							<stop  offset="0" style="stop-color:#A737D5"/>
							<stop  offset="1" style="stop-color:#EF497A"/>
						</linearGradient>
						<polygon style="fill:url(#SVGID_00000075872507114936910530000015631852416501581201_);" points="98.9,1164.4 142.3,1164.4 
							142.3,1129.8 139.3,1027.2 139.1,1019.3 138.8,1010.2 138.6,1002.4 137.1,954.3 137.1,953 100.6,953 100.6,1027.2 						"/>
						
							<linearGradient id="SVGID_00000048493796118899541120000014342705242954546620_" gradientUnits="userSpaceOnUse" x1="-353.9854" y1="967.3531" x2="-304.1954" y2="967.3531" gradientTransform="matrix(-1 0 0 1 -210.3754 -17.4032)">
							<stop  offset="0" style="stop-color:#2B3582"/>
							<stop  offset="1" style="stop-color:#150E42"/>
						</linearGradient>
						<path style="fill:url(#SVGID_00000048493796118899541120000014342705242954546620_);" d="M93.8,947.8c0-1.4,1-2.6,2.2-2.6
							h45.3c1.2,0,2.2,1.2,2.2,2.6v4.3c0,1.4-1,2.6-2.2,2.6H96c-1.2,0-2.2-1.2-2.2-2.6V947.8z"/>
					</g>
					<polygon class="st11" points="100.6,1003.5 100.6,1009.8 138.9,1009.8 138.6,1003.5 					"/>
					<polygon class="st11" points="100.6,1017.7 100.6,1027.2 139.4,1027.2 139.1,1017.7 					"/>
				</g>
				<g>
					
						<linearGradient id="SVGID_00000041274397249950551350000012143138808679703466_" gradientUnits="userSpaceOnUse" x1="-527.0763" y1="1135.8081" x2="-326.1338" y2="1320.8867" gradientTransform="matrix(-1 0 0 1 -210.3754 -17.4032)">
						<stop  offset="0" style="stop-color:#9F5699"/>
						<stop  offset="1" style="stop-color:#202278"/>
					</linearGradient>
					<path style="fill:url(#SVGID_00000041274397249950551350000012143138808679703466_);" d="M68.4,1137h262.3
						c3.8,0,6.8,2.8,6.7,6.4l-4.6,170.3c-0.1,3.5-3.2,6.3-6.9,6.2l-257.1-1.1c-3.7,0-6.6-2.8-6.7-6.3l-0.6-169.1
						C61.7,1139.8,64.7,1137,68.4,1137z"/>
					<g>
						<g>
							<path class="st4" d="M305.6,1167.9h8.2c0.4,0,0.8,0.3,1,0.5s0.4,0.7,0.4,1l-1,24c0,0.7-0.6,1.8-1.4,1.8h-8
								c-0.4,0-0.7-0.6-1-0.9s-0.4-0.8-0.4-1.2l0.8-23.7C304.2,1168.7,304.9,1167.9,305.6,1167.9z"/>
							<path class="st4" d="M270.2,1167.9h8.2c0.4,0,0.7,0.3,1,0.5s0.4,0.7,0.4,1l-0.4,24c0,0.7-0.6,1.8-1.4,1.8h-8
								c-0.4,0-0.7-0.6-1-0.9c-0.3-0.2-0.4-0.8-0.4-1.2l0.1-23.7C268.9,1168.7,269.5,1167.9,270.2,1167.9z"/>
							<path class="st4" d="M239.1,1167.9h8.2c0.8,0,1.4,0.7,1.4,1.4l0.2,23.5c0,0.3-0.1,1.2-0.4,1.4c-0.3,0.2-0.6,0.9-1,0.9h-8
								c-0.8,0-1.4-1.1-1.4-1.8l-0.4-23.7c0-0.4,0.1-0.9,0.4-1.2C238.4,1168.3,238.8,1167.9,239.1,1167.9z"/>
							<path class="st4" d="M207,1168.4c0.3-0.3,0.6-0.5,1-0.5h8.2c0.8,0,1.4,0.7,1.4,1.4l0.8,23.5c0,0.4-0.1,1.2-0.4,1.5
								s-0.6,0.9-1,0.9h-8c-0.8,0-1.4-1-1.4-1.7l-1-23.8C206.6,1169.3,206.8,1168.7,207,1168.4z"/>
						</g>
						<g>
							<path class="st4" d="M178.1,1167.9h8.2c0.4,0,0.8,0.3,1,0.5s0.4,0.7,0.4,1l-1,24c0,0.7-0.6,1.8-1.4,1.8h-8
								c-0.4,0-0.7-0.6-1-0.9s-0.4-0.8-0.4-1.2l0.8-23.7C176.7,1168.7,177.3,1167.9,178.1,1167.9z"/>
							<path class="st4" d="M142.7,1167.9h8.2c0.4,0,0.7,0.3,1,0.5s0.4,0.7,0.4,1l-0.4,24c0,0.7-0.6,1.8-1.4,1.8h-8
								c-0.4,0-0.7-0.6-1-0.9c-0.3-0.2-0.4-0.8-0.4-1.2l0.1-23.7C141.3,1168.7,141.9,1167.9,142.7,1167.9z"/>
							<path class="st4" d="M111.6,1167.9h8.2c0.8,0,1.4,0.7,1.4,1.4l0.2,23.5c0,0.3-0.1,1.2-0.4,1.4c-0.3,0.2-0.6,0.9-1,0.9h-8
								c-0.8,0-1.4-1.1-1.4-1.8l-0.4-23.7c0-0.4,0.1-0.9,0.4-1.2C110.8,1168.3,111.2,1167.9,111.6,1167.9z"/>
							<path class="st4" d="M79.5,1168.4c0.3-0.3,0.6-0.5,1-0.5h8.2c0.8,0,1.4,0.7,1.4,1.4l0.8,23.5c0,0.4-0.1,1.2-0.4,1.5
								s-0.6,0.9-1,0.9h-8c-0.8,0-1.4-1-1.4-1.7l-1-23.8C79.1,1169.3,79.2,1168.7,79.5,1168.4z"/>
						</g>
					</g>
					<g>
						<g>
							<path class="st4" d="M305.6,1219h8.2c0.4,0,0.8,0.3,1,0.5s0.4,0.7,0.4,1l-1,23.4c0,0.7-0.6,1.2-1.4,1.2h-8
								c-0.4,0-0.7,0-1-0.3s-0.4-0.6-0.4-0.9l0.8-23.6C304.2,1219.6,304.9,1219,305.6,1219z"/>
							<path class="st4" d="M270.2,1219h8.2c0.4,0,0.7,0.2,1,0.5c0.3,0.2,0.4,0.7,0.4,1l-0.4,23.4c0,0.7-0.6,1.2-1.4,1.2h-8
								c-0.4,0-0.7,0-1-0.3c-0.3-0.2-0.4-0.5-0.4-0.9l0.1-23.6C268.9,1219.7,269.5,1219,270.2,1219z"/>
							<path class="st4" d="M239.1,1219h8.2c0.8,0,1.4,0.7,1.4,1.4l0.2,23.5c0,0.3-0.1,0.6-0.4,0.9c-0.3,0.2-0.6,0.3-1,0.3h-8
								c-0.8,0-1.4-0.5-1.4-1.2l-0.4-23.4c0-0.4,0.1-0.8,0.4-1C238.4,1219.2,238.8,1219,239.1,1219z"/>
							<path class="st4" d="M207,1219.5c0.3-0.3,0.6-0.5,1-0.5h8.2c0.8,0,1.4,0.7,1.4,1.4l0.8,23.5c0,0.4-0.1,0.6-0.4,0.9
								s-0.6,0.3-1,0.3h-8c-0.8,0-1.4-0.5-1.4-1.2l-1-23.5C206.6,1220.1,206.8,1219.8,207,1219.5z"/>
						</g>
						<g>
							<path class="st4" d="M178.1,1219h8.2c0.4,0,0.8,0.3,1,0.5s0.4,0.7,0.4,1l-1,23.4c0,0.7-0.6,1.2-1.4,1.2h-8
								c-0.4,0-0.7,0-1-0.3s-0.4-0.6-0.4-0.9l0.8-23.6C176.7,1219.6,177.3,1219,178.1,1219z"/>
							<path class="st4" d="M142.7,1219h8.2c0.4,0,0.7,0.2,1,0.5c0.3,0.2,0.4,0.7,0.4,1l-0.4,23.4c0,0.7-0.6,1.2-1.4,1.2h-8
								c-0.4,0-0.7,0-1-0.3c-0.3-0.2-0.4-0.5-0.4-0.9l0.1-23.6C141.3,1219.7,141.9,1219,142.7,1219z"/>
							<path class="st4" d="M111.6,1219h8.2c0.8,0,1.4,0.7,1.4,1.4l0.2,23.5c0,0.3-0.1,0.6-0.4,0.9c-0.3,0.2-0.6,0.3-1,0.3h-8
								c-0.8,0-1.4-0.5-1.4-1.2l-0.4-23.4c0-0.4,0.1-0.8,0.4-1C110.8,1219.2,111.2,1219,111.6,1219z"/>
							<path class="st4" d="M79.5,1219.5c0.3-0.3,0.6-0.5,1-0.5h8.2c0.8,0,1.4,0.7,1.4,1.4l0.8,23.5c0,0.4-0.1,0.6-0.4,0.9
								s-0.6,0.3-1,0.3h-8c-0.8,0-1.4-0.5-1.4-1.2l-1-23.5C79.1,1220.1,79.2,1219.8,79.5,1219.5z"/>
						</g>
					</g>
				</g>
			</g>
		</g>
	</g>
</g>
<linearGradient id="SVGID_00000143613792730038695880000013184166441327698611_" gradientUnits="userSpaceOnUse" x1="490.3731" y1="627.9814" x2="266.9136" y2="1245.1569" gradientTransform="matrix(1.0947 -0.1793 -0.1793 3.0491 196.9302 -2361.679)">
	<stop  offset="0" style="stop-color:#63C3FF"/>
	<stop  offset="0.1795" style="stop-color:#69BFFD"/>
	<stop  offset="0.4236" style="stop-color:#7BB5F8"/>
	<stop  offset="0.7049" style="stop-color:#97A5F0"/>
	<stop  offset="1" style="stop-color:#BD8FE5"/>
</linearGradient>
<path style="display:none;opacity:0.5;fill:url(#SVGID_00000143613792730038695880000013184166441327698611_);enable-background:new    ;" d="
	M1004.5,230.2c21.4-154.7,24.7-271.1-10.7-378.9c-32.7-99.3-95.2-187-151.9-160.4c-46.1,21.7-91.5,78.5-132.3,153.4
	c-24.7,45.2-52,77.3-79.8,95.6c-30.8,20.2-69.3,38.2-98.5,27.8c-57.3-20.6-108.8-78.1-162-123.9c-108.9-93.9-238.6-135.2-356.1,23.6
	C-43.5-56.1-98.4,91.1-95.5,238.6c2.2,114,38.3,197.9,34.4,314.7c-4.4,131.9-55.6,239.1-97.1,338.7c-39.3,94.3-74.6,202.9-96.9,324
	c-22.3,121.1-30.7,255.8-16.3,366.4c18.7,144,74.2,230.2,135.7,246.3c61.5,16.1,128.1-30,190.5-99.1s122.1-160.8,183-243.2
	c20.6-27.9,44.5-55.5,63-36.5c20.9,21.4,24.4,89.5,31.9,144c16.7,122,62.2,197.5,113.1,222.9s106.9,6.5,161.8-23
	c61.1-32.8,124.5-81.6,176.8-186.4c52.4-104.8,90.6-278.3,77.7-420.9c-8.2-90.5-35.5-162.1-32.5-260.1c3.1-101.2,37-191.5,66.5-274
	C941.6,525.9,983.1,385,1004.5,230.2z"/>
<g class="st16">
	<path class="st17" d="M209.3,791c-9.1-11.2-22.8-15.8-36.1-12.4c-14.6,3.6-22.8,17.5-36.3,23.1c-23.6,9.7-56.3-9.5-74.3,15.5
		c-22,30.6-38.9,7.7-38.9,28.4c0,20.8,151.7,5.5,226.5,6.6c10.8,0.2,57.8-0.6,37.5-23.1c-6.3-7-15.2-8.1-23.6-9.8
		c-10.9-2.1-36.8-3.3-44.6-11.8c-4.2-4.6-5.9-11.1-9.7-16C209.7,791.4,209.5,791.2,209.3,791z"/>
	<path class="st17" d="M728.8,146.8c-5.3-7.5-13.2-10.6-21-8.4c-8.5,2.5-13.2,11.9-21.1,15.6c-13.7,6.6-32.7-6.4-43.1,10.5
		c-12.7,20.7-22.6,5.2-22.6,19.2s88,3.7,131.5,4.4c6.3,0.1,33.5-0.4,21.8-15.6c-3.6-4.7-8.8-5.5-13.7-6.6
		c-6.3-1.4-21.3-2.2-25.9-7.9c-2.5-3.1-3.4-7.5-5.6-10.8C729,147.1,728.9,147,728.8,146.8z"/>
	<path class="st17" d="M630.6,165.1c-9.1-11.2-22.8-15.8-36.1-12.4c-14.6,3.6-22.8,17.6-36.3,23.1c-23.6,9.7-56.3-9.5-74.3,15.6
		c-22,30.6-38.9,7.6-38.9,28.4s151.7,5.5,226.5,6.6c10.8,0.2,57.8-0.6,37.5-23.1c-6.3-7-15.2-8.1-23.6-9.8
		c-10.9-2.1-36.8-3.3-44.7-11.8c-4.2-4.6-5.9-11.1-9.7-16C630.9,165.5,630.8,165.3,630.6,165.1z"/>
	<path class="st17" d="M243.6,72.6c-9.1-11.2-22.8-15.8-36.1-12.4c-14.6,3.6-22.8,17.5-36.3,23.1c-23.6,9.7-56.3-9.5-74.3,15.6
		c-22,30.6-38.9,7.7-38.9,28.4s151.7,5.5,226.5,6.6c10.8,0.2,57.8-0.6,37.5-23.1c-6.3-7-15.2-8.1-23.6-9.8
		c-10.9-2.1-36.8-3.3-44.6-11.8c-4.2-4.6-5.9-11.1-9.7-16C243.9,73,243.8,72.8,243.6,72.6z"/>
</g>
<g class="st18">
	<rect x="44" y="1348.3" class="st19" width="151.8" height="19.4"/>
	<path class="st20" d="M39.3,1335l11.4-10.6c3.2-3,9.4-5.4,13.8-5.4h53.7c4.4,0,11.1,1.7,15,3.8l23.5,12.8
		c3.9,2.1,10.5,4.5,14.8,5.4l25.6,5.3c4.3,0.9,8.5,5.2,9.3,9.5l0.8,4.1c0.8,4.3-2.1,7.8-6.5,7.8H190c0-8.2-6.7-14.9-14.9-14.9
		s-14.9,6.7-14.9,14.9H77.6c0-8.2-6.7-14.9-14.9-14.9s-14.9,6.7-14.9,14.9h-6.3c-4.4,0-8-3.6-8-8v-11.4
		C33.4,1344,36.1,1338,39.3,1335z"/>
	<g class="st1">
		<g>
			<g>
				<rect x="106.9" y="1340.3" class="st21" width="46.5" height="26"/>
				<path class="st22" d="M115.7,1343.4c0,0.4-0.3,0.7-0.7,0.7h-4.6c-0.4,0-0.7-0.3-0.7-0.7l0,0c0-0.4,0.3-0.7,0.7-0.7h4.6
					C115.4,1342.7,115.7,1343,115.7,1343.4L115.7,1343.4z"/>
			</g>
			<g>
				<path class="st21" d="M104.4,1340.3H71.9v14.3c0,0,7.5,2.7,7.5,11.6h25V1340.3z"/>
				<path class="st22" d="M79.8,1343.4c0,0.4-0.3,0.7-0.7,0.7h-4.6c-0.4,0-0.7-0.3-0.7-0.7l0,0c0-0.4,0.3-0.7,0.7-0.7H79
					C79.4,1342.7,79.8,1343,79.8,1343.4L79.8,1343.4z"/>
			</g>
		</g>
		<g>
			<g>
				<path class="st22" d="M152.7,1338.8c0.9,0,0.9-0.3,0.2-0.7l-27.2-13.5c-0.8-0.4-2.2-0.7-3-0.7h-14.1c-0.9,0-1.6,0.7-1.6,1.6
					v11.7c0,0.9,0.7,1.6,1.6,1.6H152.7z"/>
				<path class="st22" d="M70.9,1337.2c0,0.9,0.8,1.6,1.8,1.6h29.8c1,0,1.8-0.7,1.8-1.6v-11.7c0-0.9-0.8-1.6-1.8-1.6H72.7
					c-1,0-1.8,0.7-1.8,1.6L70.9,1337.2L70.9,1337.2z"/>
				<path class="st22" d="M49,1331.6l9.2-6.6c0.8-0.6,2.2-1,3.2-1h10.5c-1,0-1.5,0.7-1.5,1.6v11.7c0,0.9,0.5,1.6,1.5,1.6H49.4
					c-1,0-1.8-0.7-1.8-1.6v-3.1C47.6,1333.3,48.2,1332.1,49,1331.6z"/>
			</g>
			<path class="st23" d="M151.4,1334.6c0,0,2.6,0.2,2.6,2.9s-2.6,2.9-2.6,2.9h-3.9v-2.9v-2.9H151.4z"/>
		</g>
	</g>
	<g class="st1">
		<path class="st24" d="M32.6,1369c0,1.6,1.3,2.9,2.9,2.9h171.1c1.6,0,2.9-1.3,2.9-2.9v-2.3c0-1.6-1.3-2.9-2.9-2.9H35.5
			c-1.6,0-2.9,1.3-2.9,2.9C32.6,1366.6,32.6,1369,32.6,1369z"/>
		<g>
			<g>
				<path class="st25" d="M188.2,1367.8c0,7.2-5.9,13.1-13.1,13.1s-13.1-5.9-13.1-13.1s5.9-13.1,13.1-13.1
					C182.3,1354.7,188.2,1360.5,188.2,1367.8z"/>
				<path class="st26" d="M183,1367.4c0,4.4-3.6,7.9-7.9,7.9c-4.4,0-7.9-3.6-7.9-7.9c0-4.4,3.6-7.9,7.9-7.9S183,1363.1,183,1367.4z"
					/>
			</g>
			<g>
				<path class="st25" d="M75.8,1367.8c0,7.2-5.9,13.1-13.1,13.1s-13.1-5.9-13.1-13.1s5.9-13.1,13.1-13.1
					C69.9,1354.7,75.8,1360.5,75.8,1367.8z"/>
				<path class="st26" d="M70.6,1367.4c0,4.4-3.6,7.9-7.9,7.9c-4.4,0-7.9-3.6-7.9-7.9c0-4.4,3.5-7.9,7.9-7.9
					C67,1359.5,70.6,1363.1,70.6,1367.4z"/>
			</g>
		</g>
	</g>
	<g class="st1">
		<path class="st27" d="M203.8,1355.3c-0.4-0.8-1.7-1.5-2.9-1.5h-4.2c-1.2,0-2.3,0.6-2.3,1.3c0,0.7,0.9,1.7,2,2.2l2,0.8
			c1.1,0.5,3,0.9,4.1,0.9s2-0.5,2-1.1C204.5,1357.2,204.2,1356.1,203.8,1355.3z"/>
		<polygon class="st28" points="33.5,1347.7 37.3,1347.7 35.4,1358.1 33.5,1358.1 		"/>
	</g>
</g>
<g class="st29">
	<path class="st30" d="M592.8,778H207.2C106,778,24,696,24,594.8V448.2C24,347,106,265,207.2,265h385.6C694,265,776,347,776,448.2
		v146.6C776,696,694,778,592.8,778z"/>
	<g class="st1">
		<g>
			<g transform="translate(1086.281208, 49.014148)">
				<g>
					<path d="M-991,326.5c-1.9,0.1-3.2,1-3.8,2.8c-1.8,4.5-3.1,9.7-3.9,15.4c-0.2,1.1,0.1,2.1,0.8,3.2c0.7,1,1.7,1.5,2.8,1.7
						s2.1-0.1,3-0.8c1-0.7,1.6-1.7,1.7-2.8c0.7-5,1.9-9.5,3.5-13.4c0.6-1.5,0.4-2.9-0.5-4.1C-988.2,327-989.4,326.4-991,326.5z
						 M-995.9,352.3c-0.3,0-0.6,0-0.8,0s-0.5,0.1-0.8,0.2c-0.1,0-0.2,0-0.4,0.1s-0.3,0.1-0.3,0.2c-0.1,0.1-0.1,0.1-0.1,0.1
						c-0.2,0.1-0.3,0.1-0.4,0.2c0,0.1,0,0.1-0.1,0.1s-0.1,0-0.2,0.1c0,0,0,0-0.1,0.1c-0.7,0.5-1.3,1.2-1.6,2.1s-0.3,1.8,0,2.7
						c0.3,0.9,0.8,1.6,1.6,2.2c0.8,0.5,1.7,0.8,2.5,0.8c0.3,0,0.5,0,0.7,0c0.2-0.1,0.4-0.1,0.5-0.1c0.7-0.1,1.3-0.4,2-0.9
						c0,0,0,0,0.1-0.1s0.1-0.2,0.1-0.2c0.7-0.6,1.2-1.3,1.4-2.2c0.3-0.9,0.3-1.8,0-2.5c-0.3-0.9-0.9-1.5-1.6-2
						C-994.2,352.6-995,352.3-995.9,352.3z"/>
				</g>
			</g>
		</g>
		<g>
			<g transform="translate(1097.321185, 49.014148)">
				<g>
					<path d="M-984.7,326.7c-0.9,0-1.7,0.3-2.5,0.8c-0.8,0.6-1.3,1.2-1.6,2c-0.3,0.9-0.3,1.7-0.1,2.7c0.3,0.9,0.7,1.6,1.4,2.2
						l-4,20.4c-0.1,0.1-0.1,0.2-0.2,0.4c-0.6,1.4-0.4,2.7,0.4,4c0.8,1.3,2.1,1.9,3.7,1.9c4.4,0,8.7,0,13-0.1
						c4.5-0.1,8.5-0.1,11.9-0.1h0.1c0.4,0.1,0.8,0.1,1.2,0h0.2c1.7,0,3-0.8,3.8-2.3s0.7-3-0.2-4.4c0.7-9.1,2.1-16.3,4.3-21.7
						c0.6-1.4,0.4-2.8-0.4-4.1c-0.9-1.2-2.1-1.8-3.6-1.8L-984.7,326.7z M-963.3,335.2c-1.3,4.7-2.2,10.4-2.7,17.2
						c-2.2,0-4.9,0-8.1,0.1c-3.3,0.1-6.1,0.1-8.3,0.2l3.5-17.2L-963.3,335.2z"/>
				</g>
			</g>
		</g>
		<g>
			<g transform="translate(1122.473146, 49.014148)">
				<g>
					<path d="M-964.6,326.6c-0.9,0.1-1.8,0.4-2.6,0.9c-0.8,0.6-1.3,1.3-1.6,2.2c-1.7,4.1-2.9,8.6-3.8,13.5c-0.2,1.2,0.1,2.4,0.9,3.5
						c0.7,1.1,1.7,1.8,3,2c1.2,0.2,2.3-0.1,3.4-0.9c1.1-0.8,1.8-1.8,2-3c0.7-4.2,1.8-8.2,3.3-11.8c0.6-1.5,0.5-3-0.5-4.4
						C-961.6,327.3-963,326.6-964.6,326.6z"/>
				</g>
			</g>
		</g>
		<g>
			<g transform="translate(1132.889123, 49.014148)">
				<g>
					<path d="M-957.5,326.7c-1.2,0-2.2,0.5-3.1,1.4c-0.8,0.9-1.3,1.9-1.3,3s0.5,2.1,1.4,3c0.8,0.9,1.9,1.3,3.1,1.3l16.2-0.2
						c-0.5,1.9-1,3.8-1.4,5.7h-16.3c-1.1,0-2.1,0.4-2.9,1.1c-0.8,0.7-1.2,1.6-1.4,2.6l-1.6,11.9c-0.1,1.2,0.3,2.3,1.1,3.2
						c0.9,0.9,1.9,1.3,3,1.4c1.2,0.1,2.2-0.3,3.1-1.2c0.9-0.8,1.4-1.8,1.4-2.9c0.1-1.5,0.4-4,0.9-7.5h11.5c-0.2,2-0.4,4.4-0.6,6.9
						c-0.1,1.1,0.3,2.2,1.1,3.1c0.8,1,1.8,1.5,2.9,1.5c1.2,0.1,2.2-0.3,3.1-1.1c0.9-0.8,1.4-1.8,1.5-2.9c0.3-4.6,0.7-8.3,1-11
						c0.1-0.1,0.1-0.2,0.1-0.4c0.7-4.9,1.9-9.3,3.4-13.1c0.5-1.4,0.3-2.8-0.5-4.1c-0.8-1.2-2-1.8-3.6-1.8L-957.5,326.7z"/>
				</g>
			</g>
		</g>
		<g>
			<g transform="translate(1154.873085, 49.014148)">
				<g>
					<path d="M-943.3,325.3c-1.3-0.1-2.4,0.4-3.2,1.3s-1.2,2-1.2,3.2l1.8,27.2c0,1.4,0.5,2.4,1.6,3.1c1.1,0.9,2.3,1.1,3.6,0.9h0.3
						c4.4,0,8.7-0.1,13-0.2c4.5,0,8.4,0,11.5,0c0.4,0,0.8,0,1.1,0h0.7c1.9,0,3.2-0.9,4-2.5c0.7-1.8,0.5-3.3-0.8-4.6
						c0.7-8.8,2.1-15.9,4.2-21.2c0.6-1.4,0.5-2.8-0.4-4.1c-0.8-1.2-2.1-1.8-3.7-1.8c-1.9,0.1-3.1,1-3.8,2.7c-2.4,6.1-4,13.8-4.8,23
						c-2,0-3.9,0-5.6,0c-0.7-4.8,0.3-11.5,2.9-20.2c0.5-1.4,0.3-2.7-0.6-3.9c-0.9-1.1-2.1-1.7-3.6-1.6c-0.9,0-1.7,0.3-2.5,0.9
						c-0.7,0.6-1.3,1.3-1.5,2.1c-2.8,9.4-3.9,17-3.3,22.8c-1.1,0-2.5,0-4.1,0l-1.5-23.1c0-1-0.4-2-1.3-2.8
						C-941.2,325.7-942.2,325.3-943.3,325.3z"/>
				</g>
			</g>
		</g>
		<g>
			<g transform="translate(1181.129035, 49.014148)">
				<g>
					<path d="M-918.4,326.5c-1.9,0.1-3.2,1-3.8,2.7c-2.6,6.5-4.3,15.6-5.1,27.2c-0.1,1.1,0.3,2.2,1.1,3.1c0.8,1,1.8,1.5,3,1.5
						c1.1,0.1,2.1-0.3,3.1-1.1c0.9-0.8,1.4-1.8,1.4-2.9c0.7-10.7,2.2-18.9,4.5-24.6c0.6-1.4,0.5-2.8-0.4-4.2
						C-915.5,327.1-916.8,326.5-918.4,326.5z"/>
				</g>
			</g>
		</g>
		<g>
			<g transform="translate(1191.689013, 49.014148)">
				<g>
					<path d="M-888.6,326.5c-0.1,0-0.3,0-0.6,0c-0.8,0-1.8,0.1-2.8,0.3c-0.2,0.1-0.5,0.1-0.7,0.2c-4.3,1.5-8.3,3.9-11.9,7.2
						c-0.5-1.6-1-3.3-1.6-4.9c-0.7-1.8-2.1-2.7-4-2.7c-1.5,0-2.7,0.6-3.6,1.9c-0.8,1.3-1,2.7-0.3,4c1.1,3,2.1,6.2,2.8,9.7
						c-2.5,3.6-4.9,7.9-7.2,12.8c-0.5,1.1-0.6,2.2-0.2,3.3c0.4,1.1,1.2,2,2.3,2.5s2.2,0.5,3.3,0.1c1.1-0.5,1.9-1.3,2.4-2.5
						c5.5-12.5,12.3-20.2,20.4-23.1c0.5-0.1,0.9-0.1,1.3-0.1c0,0.7-0.1,1.3-0.2,1.7c-1.8,9.4-2.6,14.5-2.6,15.4h-1.1
						c-0.6,0-0.9,0-1.1,0c-0.1,0.1-0.1,0.1-0.2,0.1c-0.1,0-0.2,0-0.2,0c-0.1,0-0.1,0-0.2,0c-0.6,0-2.5,0-5.7,0c-1.2,0-2.2,0.5-3,1.4
						c-0.9,0.9-1.4,1.8-1.4,2.9c0,1.2,0.5,2.2,1.4,3.1c0.8,0.9,1.8,1.2,3,1.2c2.8,0,4.7,0,5.9,0c0.4,0,0.8,0,1.1,0
						c0,0,0.1,0,0.2-0.1c0.2,0,0.2,0,0.2-0.1c1,0,2.8,0,5.4,0c1.2,0,2.3-0.5,3.1-1.5s1.2-2.1,1.1-3.3c-0.3-1.9,0.5-7.7,2.3-17.5
						c0.7-3.9,0.4-6.9-1-8.9c-1.1-1.5-2.7-2.5-4.8-2.8C-887.2,326.6-887.9,326.5-888.6,326.5z M-891,359.8c-0.3,0.3-0.5,0.5-0.6,0.6
						c0.1-0.1,0-0.1-0.2,0C-891.7,360.3-891.4,360.1-891,359.8z"/>
				</g>
			</g>
		</g>
		<g>
			<g transform="translate(1226.440953, 49.014148)">
				<g>
					<path d="M-886.7,326.8c-1.1,0-2.1,0.4-3,1.3s-1.4,1.9-1.4,3c0.1,1.2,0.5,2.2,1.4,3c0.9,0.9,2,1.2,3.1,1.2l16.1-0.1
						c-1.5,5.3-2.5,12.4-3.2,21.2c-0.1,1.1,0.3,2.1,1.1,3.1c0.8,0.9,1.8,1.4,2.9,1.4c1.1,0.1,2.2-0.3,3.1-1.1
						c0.9-0.7,1.4-1.7,1.5-2.9c0.7-10.6,2.2-18.8,4.5-24.6c0.6-1.4,0.4-2.8-0.4-4c-0.8-1.2-2-1.9-3.6-1.9L-886.7,326.8z
						 M-884.3,343.4c-1.1,0-2,0.4-2.9,1.2c-0.8,0.8-1.2,1.7-1.4,2.7l-3.5,33.1c-0.1,1.1,0.2,2.2,1,3.2c0.8,0.9,1.7,1.4,2.8,1.6
						c1.1,0.1,2.2-0.2,3.2-1s1.5-1.7,1.6-2.8l3.4-33.1c0.2-1.3-0.2-2.4-1-3.4C-881.9,343.9-883,343.4-884.3,343.4z"/>
				</g>
			</g>
		</g>
		<g>
			<g transform="translate(1247.41692, 49.014148)">
				<g>
					<path d="M-871.5,326.7c-1.2,0.1-2.2,0.5-3,1.4s-1.3,1.9-1.3,3c0.1,1.2,0.5,2.2,1.4,3c0.9,0.9,1.9,1.2,3,1.2l16.2-0.1
						c-1.5,5.3-2.5,12.4-3.2,21.2c-0.1,1.1,0.3,2.2,1.1,3.1c0.8,1,1.8,1.5,2.9,1.5c1.1,0.1,2.1-0.3,3-1.1c1-0.8,1.5-1.8,1.5-2.9
						c0.7-10.7,2.2-18.9,4.5-24.6c0.6-1.4,0.4-2.8-0.4-4.1c-0.9-1.2-2.1-1.8-3.7-1.8L-871.5,326.7z"/>
				</g>
			</g>
		</g>
		<g>
			<g transform="translate(1267.720889, 49.014148)">
				<g>
					<path d="M-851.1,326.6c-1,0.1-1.8,0.4-2.6,1.1s-1.4,1.5-1.5,2.5v0.1c0,0,0,0-0.1,0.1l-2.5,12.1c-0.3,1.3-0.1,2.4,0.7,3.4
						s1.8,1.6,3.1,1.7l9.1,0.9c1.2,0.1,2.2-0.2,3.2-1s1.5-1.8,1.6-2.9s-0.2-2.1-1-3c-0.8-1-1.8-1.5-2.9-1.6l-4.2-0.3l0.8-4.4
						l12.8-0.2c-1.4,4.8-2.3,10.5-2.9,17.2c-1.2,0-3.7,0-7.6,0.1c-2.9,0.1-6.4,0.2-10.6,0.2c-1.1-0.1-2.1,0.4-3,1.2
						c-0.9,0.9-1.4,1.9-1.4,3s0.5,2.1,1.4,3c0.8,0.9,1.8,1.3,3,1.3c4.4,0,8.3,0,11.7-0.1c3.6-0.1,6.9-0.1,9.7-0.1
						c0.5,0.1,1.1,0.1,1.6,0h0.4c1.8,0,3.1-0.9,3.9-2.5c0.8-1.7,0.6-3.2-0.7-4.6c0.7-8.9,2.1-16,4.2-21.4c0.6-1.4,0.4-2.8-0.5-4
						c-0.8-1.2-2-1.9-3.6-1.9L-851.1,326.6z"/>
				</g>
			</g>
		</g>
		<g>
			<g transform="translate(1290.664849, 49.014148)">
				<g>
					<path d="M-832.8,313.8c-1.9,0-3.2,0.9-3.9,2.7c-1.3,3.4-2.4,7.1-3.2,11.1c-1.6,1.2-2,2.8-1.4,4.8c0.7,2,2.1,2.9,4.2,2.9
						l15.5-0.2c-1.4,5.1-2.5,12.2-3.1,21.3c-0.1,1.1,0.3,2.2,1.1,3.1s1.8,1.4,2.9,1.5c1.2,0.1,2.2-0.3,3.1-1.1
						c0.9-0.8,1.4-1.8,1.5-2.9c0.7-10,2-17.6,3.8-22.9c1.6-1.2,2-2.8,1.4-4.8c-0.6-1.9-2-2.9-4-2.9c-0.3-0.1-0.6-0.1-0.9-0.1
						c-0.2,0-0.4,0-0.6,0.1l-14.5,0.1c0.6-2.4,1.4-4.7,2.2-6.8c0.6-1.5,0.4-2.9-0.5-4.2C-829.9,314.3-831.2,313.7-832.8,313.8z"/>
				</g>
			</g>
		</g>
		<g>
			<g transform="translate(1321.432792, 49.014148)">
				<g>
					<path d="M-810.6,326.7c-0.9,0-1.7,0.3-2.5,0.8c-0.8,0.6-1.3,1.2-1.6,2c-0.3,0.9-0.3,1.7-0.1,2.7c0.3,0.9,0.7,1.6,1.4,2.2
						l-4,20.4c-0.1,0.1-0.1,0.2-0.2,0.4c-0.6,1.4-0.4,2.7,0.4,4c0.8,1.3,2.1,1.9,3.7,1.9c4.4,0,8.7,0,13-0.1
						c4.5-0.1,8.5-0.1,11.9-0.1h0.1c0.4,0.1,0.8,0.1,1.2,0h0.2c1.7,0,3-0.8,3.8-2.3s0.7-3-0.2-4.4c0.7-9.1,2.1-16.3,4.3-21.7
						c0.6-1.4,0.4-2.8-0.4-4.1c-0.9-1.2-2.1-1.8-3.6-1.8L-810.6,326.7z M-789.2,335.2c-1.3,4.7-2.2,10.4-2.7,17.2
						c-2.2,0-4.9,0-8.1,0.1c-3.3,0.1-6.1,0.1-8.3,0.2l3.5-17.2L-789.2,335.2z"/>
				</g>
			</g>
		</g>
		<g>
			<g transform="translate(1346.584754, 49.014148)">
				<g>
					<path d="M-783.1,326.5c-0.5,0-1,0.1-1.4,0.2h-1.5c-2,0-3.3,0.9-4,2.8c-0.3,0.8-0.4,1.7-0.1,2.6c0.2,0.9,0.7,1.6,1.4,2.2
						c-1.5,4.9-2.5,10.9-3,18.2c-0.5,0-1.4,0-2.8,0c-1.1,0-2.2,0.4-3,1.3s-1.3,1.9-1.3,3s0.4,2.1,1.3,3c0.9,0.9,1.9,1.3,3,1.3
						c1.7,0,3.1,0,4.1-0.1c0.5-0.1,1.2-0.1,2.2-0.1c0.3,0.1,0.7,0.1,1.1,0h0.2c1.8,0,3.1-0.8,3.9-2.3c0.8-1.6,0.7-3.1-0.4-4.5
						c0.6-7.7,1.7-14,3.2-18.8l10.3-0.1c-1.5,5.3-2.5,12.3-3,21.1c-0.1,1.1,0.2,2.2,1,3.2c0.8,0.9,1.8,1.4,2.9,1.4
						c1.1,0.1,2.1-0.3,3-1.1c0.9-0.8,1.4-1.7,1.5-2.8c0.7-10.8,2.2-18.9,4.4-24.6c0.6-1.4,0.4-2.7-0.4-4c-0.8-1.2-2-1.9-3.6-1.9
						l-17.7,0.2C-782.2,326.6-782.6,326.5-783.1,326.5z"/>
				</g>
			</g>
		</g>
		<g>
			<g transform="translate(1371.592702, 49.014148)">
				<g>
					<path d="M-762.1,326.5c-1.9,0.1-3.1,1-3.8,2.8c-2.4,6.1-4,13.8-4.8,23.2c-2.2,0-4.1,0-5.5,0c-1.1,0-2.2,0.4-3,1.3
						s-1.3,1.9-1.3,3s0.4,2.1,1.3,2.9c0.9,0.9,1.9,1.3,3,1.3c4.4,0,8.9,0,13.4-0.1s8.7-0.1,12.7-0.1c1.3,0.2,2.3-0.1,3.2-0.9
						c1-0.7,1.5-1.7,1.6-3c0.7-10.7,2.2-18.8,4.4-24.5c0.6-1.5,0.5-2.9-0.4-4.1c-0.9-1.3-2.1-1.9-3.7-1.9c-1.9,0.1-3.2,1-3.8,2.8
						c-2.5,6.1-4.1,13.8-4.8,23c-3.2,0-6,0-8.6,0c0.7-8.1,2.1-14.7,4.2-19.9c0.6-1.5,0.4-2.9-0.4-4.1
						C-759.3,327-760.5,326.4-762.1,326.5z"/>
				</g>
			</g>
		</g>
		<g>
			<g transform="translate(1396.456661, 49.014148)">
				<g>
					<path d="M-752.7,326.7c-1.2,0-2.2,0.5-3.1,1.4c-0.8,0.9-1.3,1.9-1.3,3s0.5,2.1,1.4,3c0.8,0.9,1.9,1.3,3.1,1.3l16.2-0.2
						c-0.5,1.9-1,3.8-1.4,5.7h-16.3c-1.1,0-2.1,0.4-2.9,1.1c-0.8,0.7-1.2,1.6-1.4,2.6l-1.6,11.9c-0.1,1.2,0.3,2.3,1.1,3.2
						c0.9,0.9,1.9,1.3,3,1.4c1.2,0.1,2.2-0.3,3.1-1.2c0.9-0.8,1.4-1.8,1.4-2.9c0.1-1.5,0.4-4,0.9-7.5h11.5c-0.2,2-0.4,4.4-0.6,6.9
						c-0.1,1.1,0.3,2.2,1.1,3.1c0.8,1,1.8,1.5,2.9,1.5c1.2,0.1,2.2-0.3,3.1-1.1c0.9-0.8,1.4-1.8,1.5-2.9c0.3-4.6,0.7-8.3,1-11
						c0.1-0.1,0.1-0.2,0.1-0.4c0.7-4.9,1.9-9.3,3.4-13.1c0.5-1.4,0.3-2.8-0.5-4.1c-0.8-1.2-2-1.8-3.6-1.8L-752.7,326.7z"/>
				</g>
			</g>
		</g>
		<g>
			<g transform="translate(1418.440623, 49.014148)">
				<g>
					<path d="M-736.5,326.7c-1.1,0-2.2,0.5-3,1.4c-0.9,0.9-1.3,1.9-1.3,3c0.1,1.2,0.5,2.2,1.4,3c0.9,0.9,1.9,1.2,3,1.2l16.2-0.1
						c-1.5,5.3-2.5,12.4-3.1,21.2c-0.1,1.1,0.2,2.2,1,3.1c0.8,1,1.8,1.5,2.9,1.5c1.1,0.1,2.1-0.3,3-1.1c1-0.8,1.5-1.8,1.5-2.9
						c0.7-10.7,2.2-18.9,4.5-24.6c0.6-1.4,0.4-2.8-0.4-4.1c-0.8-1.2-2.1-1.8-3.7-1.8L-736.5,326.7z M-737.5,341.6
						c-1.1-0.1-2,0.3-2.9,1c-0.8,0.8-1.3,1.7-1.4,2.8c-0.4,2.7-0.8,6.4-1.1,11.2c-0.1,1.1,0.3,2.2,1.1,3.1c0.8,1,1.8,1.5,3,1.5
						c1.1,0.1,2.1-0.3,3.1-1.1c0.9-0.8,1.4-1.8,1.4-2.9c0.3-4.5,0.7-8.1,1-10.6c0.2-1.3-0.2-2.5-0.9-3.4
						C-735.1,342.1-736.2,341.6-737.5,341.6z"/>
				</g>
			</g>
		</g>
	</g>
	<g class="st1">
		<g>
			<g transform="translate(620.445272, 91.601101)">
				<g>
					<path d="M-438.7,506.2c-0.1,0-0.3,0-0.5,0s-0.5,0.1-0.7,0.2c0,0-0.1,0-0.2,0.1s-0.2,0.1-0.2,0.1h-0.1c-0.1,0.1-0.2,0.1-0.3,0.2
						c0,0,0,0.1-0.1,0.1s-0.1,0.1-0.1,0.1l-0.1,0.1c-0.6,0.4-1,0.9-1.2,1.6s-0.2,1.4,0,2c0.2,0.7,0.6,1.2,1.2,1.7
						c0.6,0.4,1.2,0.6,1.9,0.6c0.2,0,0.4,0,0.5,0s0.2-0.1,0.4-0.1c0.5-0.1,1-0.3,1.5-0.7c0,0,0,0,0-0.1l0.1-0.1c0.5-0.4,0.9-1,1-1.7
						c0.2-0.7,0.2-1.3,0-1.9s-0.7-1.1-1.2-1.5C-437.4,506.3-438,506.2-438.7,506.2z"/>
				</g>
			</g>
		</g>
		<g>
			<g transform="translate(628.509259, 91.601101)">
				<g>
					<path d="M-436.1,487c-1.2,0-2.2,0.5-2.8,1.6c-0.6,1.1-0.6,2.2,0,3.2c0,0.1,0,0.2,0,0.3l2.2,17.8c0.1,0.8,0.4,1.5,1,2
						c0.7,0.6,1.4,0.8,2.2,0.8h8.1c0.7,0,1.3-0.2,1.9-0.7c0.6-0.4,1-0.9,1.2-1.6l5.8-18.9c0.1-0.2,0.1-0.4,0.1-0.7
						c0.3-1,0.1-2-0.5-2.9c-0.7-0.8-1.6-1.2-2.6-1.2L-436.1,487z M-427.8,506.3h-2.9l-1.5-12.9l8.5-0.1L-427.8,506.3z"/>
				</g>
			</g>
		</g>
		<g>
			<g transform="translate(649.101219, 91.601101)">
				<g>
					<path d="M-427.7,479.4c-0.6,0-1.2,0.2-1.7,0.6s-0.9,0.9-1.1,1.5c-0.9,2.2-1.6,4.5-2.2,6.9c-0.2,0.9,0,1.7,0.5,2.4
						c0.5,0.7,1.1,1.2,1.9,1.4c0.8,0.2,1.6,0,2.4-0.5s1.2-1.2,1.4-2c0.5-2.2,1.1-4.1,1.9-6c0.4-1.1,0.3-2.1-0.3-3.1
						C-425.7,479.8-426.6,479.4-427.7,479.4z M-419.2,479.4c-0.6,0-1.2,0.2-1.7,0.6c-0.6,0.4-0.9,0.9-1.1,1.5
						c-0.9,2.2-1.6,4.5-2.1,6.9c-0.2,0.9-0.1,1.7,0.5,2.4c0.5,0.7,1.1,1.2,1.9,1.4c0.9,0.2,1.7,0,2.4-0.5c0.8-0.5,1.2-1.2,1.4-2
						c0.5-2.2,1.1-4.1,1.8-6c0.5-1.1,0.4-2.1-0.3-3.1C-417.2,479.8-418.1,479.4-419.2,479.4z"/>
				</g>
			</g>
		</g>
		<g>
			<g transform="translate(664.797191, 91.601101)">
				<g>
					<path d="M-404.8,486.8c-0.1,0-0.2,0-0.4,0c-0.6,0-1.3,0.1-2.1,0.2c-0.2,0-0.4,0.1-0.5,0.1c-3.2,1.1-6.2,2.9-8.9,5.4
						c-0.4-1.2-0.8-2.5-1.2-3.7c-0.6-1.4-1.6-2-3-2c-1.1,0-2,0.5-2.7,1.4c-0.6,1-0.7,2-0.2,3c0.8,2.2,1.5,4.7,2.1,7.3
						c-1.9,2.7-3.7,5.9-5.4,9.6c-0.4,0.8-0.4,1.6-0.1,2.5s0.9,1.5,1.7,1.8c0.8,0.4,1.7,0.4,2.5,0.1c0.8-0.3,1.4-1,1.8-1.9
						c4.1-9.3,9.2-15.1,15.3-17.4c0.3,0,0.7-0.1,1-0.1c0,0.5,0,1-0.1,1.3c-1.3,7-2,10.9-2,11.5h-0.8c-0.4,0-0.7,0-0.8,0l-0.1,0.1
						c-0.1,0-0.1,0-0.1,0h-0.1c-0.5,0-1.9,0-4.3,0c-0.9,0-1.6,0.3-2.2,1c-0.7,0.6-1,1.4-1,2.2c0,0.9,0.3,1.7,1,2.3
						c0.6,0.6,1.4,0.9,2.2,0.9c2.1,0,3.5,0,4.4,0c0.3,0,0.6,0,0.8,0c0,0,0.1,0,0.2-0.1c0.1,0,0.2,0,0.2-0.1c0.7,0,2.1,0,4,0
						c0.9,0,1.7-0.4,2.4-1.1c0.6-0.7,0.9-1.5,0.8-2.5c-0.2-1.4,0.4-5.8,1.7-13.1c0.5-2.9,0.3-5.2-0.8-6.7c-0.9-1.1-2-1.9-3.6-2.1
						C-403.7,486.9-404.3,486.8-404.8,486.8z M-406.6,511.8c-0.2,0.3-0.4,0.4-0.4,0.4c0-0.1,0-0.1-0.2,0
						C-407.1,512.1-406.9,512-406.6,511.8z"/>
				</g>
			</g>
		</g>
		<g>
			<g transform="translate(689.66115, 91.601101)">
				<g>
					<path d="M-412.7,486.8c-1.4,0-2.4,0.7-2.9,2c-2,4.9-3.2,11.7-3.8,20.4c0,0.9,0.2,1.6,0.8,2.3c0.6,0.7,1.3,1.1,2.2,1.2
						c0.8,0.1,1.6-0.2,2.3-0.8c0.7-0.6,1-1.3,1.1-2.2c0.5-8,1.7-14.2,3.4-18.4c0.5-1.1,0.4-2.1-0.3-3.1
						C-410.5,487.2-411.5,486.8-412.7,486.8z"/>
				</g>
			</g>
		</g>
		<g>
			<g transform="translate(700.221128, 91.601101)">
				<g>
					<path d="M-409.1,486.8c-0.3,0-0.7,0.1-1,0.2h-1.1c-0.6,0-1.3,0.2-1.9,0.6s-1,0.9-1.2,1.5s-0.2,1.2,0,1.9c0.2,0.7,0.5,1.2,1,1.6
						c-1.2,4-2,9.5-2.6,16.6c0,0.9,0.2,1.6,0.8,2.3c0.6,0.7,1.3,1.1,2.2,1.2c0.8,0.1,1.6-0.2,2.3-0.8c0.7-0.6,1-1.3,1.1-2.2
						c0.5-7,1.4-12.5,2.6-16.3h7.8c-1.1,4-1.9,9.3-2.4,15.9c0,0.9,0.2,1.6,0.8,2.3c0.6,0.7,1.3,1.1,2.2,1.1c0.9,0.1,1.6-0.2,2.4-0.8
						c0.7-0.6,1-1.3,1.1-2.2c0.5-8.1,1.7-14.2,3.4-18.4c0.4-1.1,0.3-2.1-0.4-3c-0.6-1-1.5-1.5-2.7-1.5L-408,487
						C-408.3,486.9-408.7,486.8-409.1,486.8z"/>
				</g>
			</g>
		</g>
		<g>
			<g transform="translate(721.533093, 91.601101)">
				<g>
					<path d="M-403.9,487c-0.9,0-1.6,0.3-2.3,1c-0.7,0.6-1,1.4-1,2.2c0,0.9,0.4,1.7,1,2.3c0.7,0.6,1.4,0.9,2.3,0.9l12.2-0.1
						c-1.1,4-1.9,9.3-2.3,15.9c-0.1,0.9,0.2,1.6,0.8,2.3c0.6,0.7,1.3,1.1,2.2,1.1c0.8,0.1,1.6-0.2,2.3-0.8c0.7-0.6,1.1-1.3,1.1-2.2
						c0.5-8,1.7-14.2,3.4-18.5c0.4-1.1,0.3-2.1-0.3-3.1c-0.6-0.9-1.6-1.3-2.8-1.3L-403.9,487z M-404.7,498.1c-0.8,0-1.5,0.2-2.2,0.8
						c-0.6,0.6-1,1.3-1.1,2.1c-0.3,2-0.6,4.8-0.8,8.4c0,0.9,0.2,1.6,0.8,2.3c0.6,0.7,1.3,1.1,2.2,1.1c0.8,0.1,1.6-0.2,2.3-0.8
						c0.7-0.6,1-1.3,1.1-2.2c0.2-3.4,0.5-6.1,0.8-7.9c0.1-1-0.1-1.8-0.7-2.6C-402.9,498.5-403.7,498.1-404.7,498.1z"/>
				</g>
			</g>
		</g>
		<g>
			<g transform="translate(752.973033, 91.601101)">
				<g>
					<path d="M-392.5,487c-0.7,0-1.3,0.2-1.9,0.6s-1,0.9-1.2,1.5s-0.2,1.3-0.1,2c0.2,0.7,0.5,1.2,1,1.6l-3,15.3
						c0,0.1-0.1,0.2-0.1,0.3c-0.4,1-0.3,2,0.3,3c0.6,1,1.5,1.5,2.8,1.4c3.3,0,6.5,0,9.8-0.1c3.4,0,6.4-0.1,8.9-0.1h0.1
						c0.3,0,0.6,0,0.9,0h0.2c1.3,0,2.2-0.6,2.9-1.7c0.6-1.1,0.5-2.3-0.2-3.3c0.5-6.8,1.6-12.3,3.2-16.3c0.4-1.1,0.3-2.1-0.3-3.1
						c-0.7-0.9-1.6-1.3-2.7-1.3L-392.5,487z M-376.4,493.3c-1,3.5-1.7,7.8-2,12.9c-1.6,0-3.7,0-6.1,0.1c-2.5,0-4.6,0.1-6.2,0.1
						l2.6-12.9L-376.4,493.3z"/>
				</g>
			</g>
		</g>
		<g>
			<g transform="translate(778.124994, 91.601101)">
				<g>
					<path d="M-383.2,486.8c-1.4,0-2.4,0.7-2.9,2c-2,4.9-3.2,11.7-3.8,20.4c0,0.9,0.2,1.6,0.8,2.3c0.6,0.7,1.3,1.1,2.2,1.2
						c0.8,0.1,1.6-0.2,2.3-0.8c0.7-0.6,1-1.3,1.1-2.2c0.5-8,1.7-14.2,3.4-18.4c0.5-1.1,0.4-2.1-0.3-3.1
						C-381,487.2-382,486.8-383.2,486.8z"/>
				</g>
			</g>
		</g>
		<g>
			<g transform="translate(788.684972, 91.601101)">
				<g>
					<path d="M-379.7,486.8c-0.3,0-0.7,0.1-1,0.2h-1.1c-0.6,0-1.3,0.2-1.9,0.6s-1,0.9-1.2,1.5s-0.2,1.2,0,1.9c0.2,0.7,0.5,1.2,1,1.6
						c-1.2,4-2,9.5-2.6,16.6c0,0.9,0.2,1.6,0.8,2.3c0.6,0.7,1.3,1.1,2.2,1.2c0.8,0.1,1.6-0.2,2.3-0.8c0.7-0.6,1-1.3,1.1-2.2
						c0.5-7,1.4-12.5,2.6-16.3h7.8c-1.1,4-1.9,9.3-2.4,15.9c0,0.9,0.2,1.6,0.8,2.3c0.6,0.7,1.3,1.1,2.2,1.1c0.9,0.1,1.6-0.2,2.4-0.8
						c0.7-0.6,1-1.3,1.1-2.2c0.5-8.1,1.7-14.2,3.4-18.4c0.4-1.1,0.3-2.1-0.4-3c-0.6-1-1.5-1.5-2.7-1.5l-13.3,0.2
						C-378.8,486.9-379.2,486.8-379.7,486.8z"/>
				</g>
			</g>
		</g>
		<g>
			<g transform="translate(809.996937, 91.601101)">
				<g>
					<path d="M-367.5,486.8c-0.4,0-0.7,0.1-1,0.2h-1.2c-1.5,0-2.5,0.7-3,2.1c-0.2,0.6-0.3,1.2-0.1,1.9c0.2,0.7,0.5,1.2,1,1.6
						c-1.1,3.6-1.9,8.2-2.3,13.6c-0.4,0-1,0-2.1,0c-0.9,0-1.6,0.3-2.3,1c-0.6,0.6-1,1.4-1,2.2c0,0.9,0.3,1.6,1,2.2
						c0.7,0.6,1.4,1,2.3,1c1.3,0,2.3,0,3.1-0.1c0.4,0,0.9-0.1,1.7-0.1c0.2,0,0.5,0,0.8,0h0.2c1.3,0,2.3-0.6,2.9-1.7
						c0.6-1.2,0.5-2.3-0.3-3.4c0.5-5.8,1.3-10.5,2.4-14.1l7.8-0.1c-1.1,4-1.9,9.2-2.3,15.8c-0.1,0.9,0.1,1.6,0.8,2.4
						c0.6,0.7,1.4,1,2.2,1.1c0.8,0,1.6-0.2,2.3-0.8c0.7-0.6,1.1-1.3,1.2-2.1c0.5-8.1,1.7-14.2,3.3-18.4c0.4-1,0.3-2-0.3-3
						c-0.6-0.9-1.5-1.4-2.7-1.4l-13.3,0.2C-366.8,486.9-367.2,486.8-367.5,486.8z"/>
				</g>
			</g>
		</g>
		<g>
			<g transform="translate(835.004909, 91.601101)">
				<g>
					<path d="M-365.6,487c-0.9,0-1.6,0.3-2.2,1c-0.7,0.6-1,1.4-1,2.2c0,0.9,0.3,1.6,1,2.2c0.6,0.6,1.4,1,2.3,1l12.1-0.1
						c-1,3.5-1.7,7.9-2.1,12.9c-4.8,0.1-8.9,0.1-12.2,0.1c-0.9,0-1.6,0.3-2.3,1c-0.6,0.6-1,1.4-1,2.2c0,0.9,0.3,1.6,1,2.2
						s1.4,1,2.3,1c-0.7,0,4.3,0,15-0.1h0.5c2.2,0,3.6,0,4.4,0s1.6-0.3,2.2-1c0.7-0.6,1-1.4,1-2.3c0-0.8-0.3-1.6-1-2.2
						c-0.6-0.6-1.4-1-2.2-1h-1.2c0.5-6.1,1.5-11,3.1-14.9c0.4-1.1,0.3-2.1-0.3-3.1c-0.6-0.9-1.5-1.3-2.7-1.3L-365.6,487z"/>
				</g>
			</g>
		</g>
		<g>
			<g transform="translate(867.260858, 91.601101)">
				<g>
					<path d="M-354.4,487c-0.7,0-1.3,0.2-1.9,0.6s-1,0.9-1.2,1.5s-0.2,1.3-0.1,2c0.2,0.7,0.5,1.2,1,1.6l-3,15.3
						c0,0.1-0.1,0.2-0.1,0.3c-0.4,1-0.3,2,0.3,3c0.6,1,1.5,1.5,2.8,1.4c3.3,0,6.5,0,9.8-0.1c3.4,0,6.4-0.1,8.9-0.1h0.1
						c0.3,0,0.6,0,0.9,0h0.2c1.3,0,2.2-0.6,2.9-1.7c0.6-1.1,0.5-2.3-0.2-3.3c0.5-6.8,1.6-12.3,3.2-16.3c0.4-1.1,0.3-2.1-0.3-3.1
						c-0.7-0.9-1.6-1.3-2.7-1.3L-354.4,487z M-338.3,493.3c-1,3.5-1.7,7.8-2,12.9c-1.6,0-3.7,0-6.1,0.1c-2.5,0-4.6,0.1-6.2,0.1
						l2.6-12.9L-338.3,493.3z"/>
				</g>
			</g>
		</g>
		<g>
			<g transform="translate(892.41282, 91.601101)">
				<g>
					<path d="M-345.6,486.9c-0.7,0-1.3,0.3-1.9,0.6c-0.6,0.4-1,1-1.2,1.7c-1.2,3.1-2.2,6.5-2.9,10.1c-0.2,0.9,0,1.8,0.6,2.6
						c0.5,0.8,1.3,1.3,2.2,1.5c0.9,0.1,1.8-0.1,2.6-0.6c0.8-0.6,1.3-1.3,1.5-2.2c0.5-3.2,1.4-6.1,2.5-8.8c0.5-1.1,0.3-2.3-0.4-3.3
						C-343.4,487.4-344.4,486.8-345.6,486.9z"/>
				</g>
			</g>
		</g>
		<g>
			<g transform="translate(902.828796, 91.601101)">
				<g>
					<path d="M-330.9,486.8c-1.5,0-2.4,0.7-2.9,2c-1.8,4.6-3,10.3-3.6,17.3c-0.9,0-1.7,0-2.7,0s-2.7,0.1-5.2,0.2
						c-0.8,0-1.5,0.3-2.2,1c-0.6,0.6-0.9,1.4-0.8,2.3c0,0.8,0.3,1.5,1,2.2s1.4,0.9,2.2,0.9c4.8-0.1,8.2-0.2,10.2-0.1
						c0.1,0,0.2,0,0.3,0h0.1c0.8,0,1.6-0.2,2.2-0.8c0.7-0.6,1-1.3,1.1-2.1c0.5-8.1,1.7-14.2,3.3-18.4c0.5-1.1,0.4-2.1-0.3-3.1
						C-328.8,487.2-329.7,486.8-330.9,486.8z"/>
				</g>
			</g>
		</g>
		<g>
			<g transform="translate(921.404777, 91.601101)">
				<g>
					<path d="M-335.4,486.8c-1.4,0-2.4,0.7-2.9,2c-2,4.9-3.2,11.7-3.8,20.4c0,0.9,0.2,1.6,0.8,2.3c0.6,0.7,1.3,1.1,2.2,1.2
						c0.8,0.1,1.6-0.2,2.3-0.8c0.7-0.6,1-1.3,1.1-2.2c0.5-8,1.7-14.2,3.4-18.4c0.5-1.1,0.4-2.1-0.3-3.1
						C-333.3,487.2-334.2,486.8-335.4,486.8z"/>
				</g>
			</g>
		</g>
		<g>
			<g transform="translate(931.964743, 91.601101)">
				<g>
					<path d="M-335.3,485.9c-1,0-1.8,0.3-2.4,1s-0.9,1.5-0.9,2.4l1.3,20.4c0,1,0.4,1.8,1.2,2.3c0.8,0.6,1.7,0.8,2.7,0.7h0.2
						c3.3,0,6.5,0,9.7-0.1c3.4,0,6.3,0,8.6,0c0.3,0,0.6,0,0.8,0h0.5c1.4,0,2.4-0.6,3-1.9c0.5-1.3,0.4-2.5-0.6-3.5
						c0.5-6.6,1.5-11.9,3.1-15.9c0.5-1.1,0.4-2.1-0.3-3.1c-0.6-0.9-1.6-1.4-2.8-1.3c-1.4,0-2.4,0.7-2.8,2c-1.8,4.6-3,10.3-3.6,17.3
						c-1.5,0-2.9,0-4.2,0c-0.5-3.6,0.2-8.6,2.2-15.2c0.3-1.1,0.2-2-0.4-3c-0.7-0.8-1.6-1.2-2.7-1.2c-0.7,0-1.3,0.2-1.9,0.7
						c-0.6,0.4-1,1-1.2,1.6c-2.1,7.1-2.9,12.8-2.5,17.1c-0.8,0-1.9,0-3.1,0l-1.1-17.4c0-0.8-0.3-1.5-1-2.1
						C-333.8,486.2-334.5,485.9-335.3,485.9z"/>
				</g>
			</g>
		</g>
		<g>
			<g transform="translate(958.220693, 91.601101)">
				<g>
					<path d="M-325,487c-0.9,0-1.6,0.3-2.3,1c-0.7,0.6-1,1.4-1,2.2c0,0.9,0.4,1.7,1,2.3c0.7,0.6,1.4,0.9,2.3,0.9l12.2-0.1
						c-1.1,4-1.9,9.3-2.3,15.9c-0.1,0.9,0.2,1.6,0.8,2.3c0.6,0.7,1.3,1.1,2.2,1.1c0.8,0.1,1.6-0.2,2.3-0.8c0.7-0.6,1.1-1.3,1.1-2.2
						c0.5-8,1.7-14.2,3.4-18.5c0.4-1.1,0.3-2.1-0.3-3.1c-0.6-0.9-1.6-1.3-2.8-1.3L-325,487z M-325.8,498.1c-0.8,0-1.5,0.2-2.2,0.8
						c-0.6,0.6-1,1.3-1.1,2.1c-0.3,2-0.6,4.8-0.8,8.4c0,0.9,0.2,1.6,0.8,2.3c0.6,0.7,1.3,1.1,2.2,1.1c0.8,0.1,1.6-0.2,2.3-0.8
						c0.7-0.6,1-1.3,1.1-2.2c0.2-3.4,0.5-6.1,0.8-7.9c0.1-1-0.1-1.8-0.7-2.6C-324,498.5-324.8,498.1-325.8,498.1z"/>
				</g>
			</g>
		</g>
	</g>
	<g class="st1">
		<g>
			<g transform="translate(989.660633, 91.601101)">
				<g>
					<path d="M-863.6,427c-0.7,0-1.3,0.2-1.8,0.6c-0.6,0.4-1,0.9-1.2,1.5s-0.2,1.3-0.1,2c0.2,0.7,0.5,1.2,1,1.6l-3,15.3
						c0,0.1-0.1,0.2-0.1,0.3c-0.4,1-0.3,2,0.3,3s1.5,1.5,2.8,1.4c3.3,0,6.5,0,9.8-0.1c3.4,0,6.4-0.1,8.9-0.1h0.1c0.3,0,0.6,0,0.9,0
						h0.2c1.3,0,2.2-0.6,2.9-1.7c0.6-1.1,0.5-2.3-0.2-3.3c0.5-6.8,1.6-12.3,3.2-16.3c0.4-1.1,0.3-2.1-0.3-3.1
						c-0.7-0.9-1.6-1.3-2.7-1.3L-863.6,427z M-847.5,433.3c-1,3.5-1.7,7.8-2,12.9c-1.6,0-3.7,0-6.1,0.1c-2.5,0-4.6,0.1-6.2,0.1
						l2.6-12.9L-847.5,433.3z"/>
				</g>
			</g>
		</g>
		<g>
			<g transform="translate(1014.812594, 91.601101)">
				<g>
					<path d="M-854.8,426.9c-0.7,0-1.3,0.3-1.9,0.6c-0.6,0.4-1,1-1.2,1.7c-1.2,3.1-2.2,6.5-2.9,10.1c-0.2,0.9,0,1.8,0.7,2.6
						c0.5,0.8,1.3,1.3,2.2,1.5c0.9,0.1,1.8-0.1,2.6-0.6c0.8-0.6,1.3-1.3,1.5-2.2c0.5-3.2,1.4-6.1,2.5-8.8c0.5-1.1,0.3-2.3-0.4-3.3
						C-852.5,427.4-853.5,426.8-854.8,426.9z"/>
				</g>
			</g>
		</g>
		<g>
			<g transform="translate(1025.228549, 91.601101)">
				<g>
					<path d="M-852,427c-0.9,0-1.6,0.3-2.3,1c-0.6,0.6-1,1.4-1,2.2c0,0.9,0.3,1.6,1,2.2c0.6,0.6,1.4,1,2.3,1l12.2-0.1
						c-0.4,1.4-0.7,2.9-1,4.3h-12.3c-0.8,0-1.5,0.3-2.2,0.8c-0.6,0.6-0.9,1.2-1,2l-1.2,9c0,0.9,0.2,1.7,0.8,2.4c0.7,0.6,1.4,1,2.2,1
						c0.9,0,1.6-0.3,2.3-0.9s1-1.3,1.1-2.2c0-1.1,0.3-3,0.7-5.6h8.6c-0.2,1.5-0.3,3.3-0.4,5.2c0,0.9,0.2,1.6,0.8,2.3
						c0.6,0.7,1.3,1.1,2.2,1.1s1.6-0.2,2.3-0.8c0.7-0.6,1.1-1.3,1.2-2.2c0.3-3.5,0.5-6.2,0.8-8.3c0-0.1,0.1-0.2,0.1-0.3
						c0.5-3.7,1.4-7,2.6-9.9c0.4-1.1,0.3-2.1-0.4-3.1c-0.6-0.9-1.5-1.3-2.7-1.3L-852,427z"/>
				</g>
			</g>
		</g>
		<g>
			<g transform="translate(1047.212511, 91.601101)">
				<g>
					<path d="M-846.9,425.9c-1,0-1.8,0.3-2.4,1c-0.6,0.7-0.9,1.5-0.9,2.4l1.3,20.4c0,1,0.4,1.8,1.2,2.4s1.7,0.9,2.7,0.6h0.2
						c3.3,0,6.5,0,9.7-0.1c3.4,0,6.3,0,8.7,0c0.3,0,0.6,0,0.8,0h0.5c1.4,0,2.4-0.6,3-1.9c0.5-1.3,0.4-2.5-0.6-3.5
						c0.5-6.6,1.5-11.9,3.1-15.9c0.5-1.1,0.4-2.1-0.3-3.1c-0.6-0.9-1.6-1.4-2.8-1.3c-1.4,0-2.3,0.7-2.8,2c-1.8,4.6-3,10.3-3.6,17.3
						c-1.5,0-2.9,0-4.2,0c-0.5-3.6,0.2-8.6,2.2-15.2c0.3-1.1,0.2-2-0.4-3c-0.7-0.8-1.6-1.2-2.7-1.2c-0.7,0-1.3,0.2-1.8,0.7
						c-0.6,0.4-1,1-1.2,1.6c-2.1,7.1-2.9,12.8-2.5,17.1c-0.8,0-1.8,0-3.1,0l-1.2-17.4c0-0.8-0.3-1.5-1-2.1
						C-845.4,426.2-846.1,425.9-846.9,425.9z"/>
				</g>
			</g>
		</g>
		<g>
			<g transform="translate(1073.468461, 91.601101)">
				<g>
					<path d="M-834.7,426.8c-1.4,0-2.4,0.7-2.9,2c-2,4.9-3.2,11.7-3.8,20.4c0,0.9,0.2,1.6,0.8,2.3c0.6,0.7,1.3,1.1,2.2,1.1
						c0.8,0.1,1.6-0.2,2.3-0.8c0.7-0.6,1-1.3,1.1-2.2c0.5-8,1.7-14.2,3.4-18.4c0.5-1.1,0.4-2.1-0.3-3.1
						C-832.6,427.2-833.5,426.8-834.7,426.8z"/>
				</g>
			</g>
		</g>
		<g>
			<g transform="translate(1084.028427, 91.601101)">
				<g>
					<path d="M-815,426.8c-0.1,0-0.2,0-0.4,0c-0.6,0-1.3,0.1-2.1,0.2c-0.2,0-0.3,0.1-0.5,0.1c-3.2,1.1-6.2,2.9-8.9,5.4
						c-0.3-1.2-0.8-2.5-1.2-3.7c-0.6-1.4-1.6-2-3-2c-1.1,0-2,0.5-2.7,1.4c-0.6,1-0.7,2-0.2,3c0.8,2.2,1.5,4.7,2.1,7.3
						c-1.9,2.7-3.7,5.9-5.4,9.6c-0.4,0.8-0.4,1.6-0.1,2.5c0.3,0.9,0.9,1.5,1.7,1.9s1.7,0.4,2.5,0.1s1.4-1,1.8-1.9
						c4.1-9.3,9.2-15.1,15.3-17.4c0.3,0,0.7-0.1,1-0.1c0,0.5,0,1-0.1,1.3c-1.3,7-2,10.9-2,11.5h-0.8c-0.4,0-0.7,0-0.8,0l-0.1,0.1
						c-0.1,0-0.1,0-0.1,0s-0.1,0-0.2,0c-0.5,0-1.9,0-4.3,0c-0.9,0-1.6,0.3-2.2,1c-0.7,0.6-1,1.4-1,2.2c0,0.9,0.3,1.7,1,2.3
						c0.6,0.6,1.4,0.9,2.2,0.9c2.1,0,3.5,0,4.4,0c0.3,0,0.6,0,0.8,0c0,0,0.1,0,0.2-0.1c0.1,0,0.2,0,0.2-0.1c0.7,0,2.1,0,4,0
						c0.9,0,1.7-0.4,2.3-1.1s0.9-1.5,0.8-2.5c-0.2-1.4,0.4-5.8,1.7-13.1c0.5-2.9,0.3-5.2-0.8-6.7c-0.8-1.1-2-1.9-3.6-2.1
						C-814,426.9-814.5,426.8-815,426.8z M-816.9,451.8c-0.2,0.2-0.4,0.4-0.4,0.4c0-0.1,0-0.1-0.2,0
						C-817.3,452.1-817.1,452-816.9,451.8z"/>
				</g>
			</g>
		</g>
		<g>
			<g transform="translate(1108.892364, 91.601101)">
				<g>
					<path d="M-824.8,427c-0.8,0-1.6,0.3-2.3,1c-0.7,0.6-1,1.4-1,2.2c0,0.9,0.4,1.7,1,2.3c0.7,0.6,1.4,0.9,2.3,0.9l12.2-0.1
						c-1.1,4-1.9,9.3-2.3,15.9c-0.1,0.9,0.2,1.6,0.8,2.3c0.6,0.7,1.3,1.1,2.2,1.1c0.8,0.1,1.6-0.2,2.3-0.8c0.7-0.6,1.1-1.3,1.2-2.2
						c0.5-8,1.7-14.2,3.4-18.5c0.4-1.1,0.3-2.1-0.3-3.1c-0.6-0.9-1.6-1.3-2.8-1.3L-824.8,427z M-825.5,438.1c-0.8,0-1.5,0.2-2.2,0.8
						c-0.6,0.6-1,1.3-1.1,2.1c-0.3,2-0.6,4.8-0.8,8.4c0,0.9,0.2,1.6,0.8,2.3c0.6,0.7,1.3,1.1,2.2,1.1c0.8,0.1,1.6-0.2,2.3-0.8
						c0.7-0.6,1-1.3,1.1-2.2c0.2-3.4,0.5-6.1,0.8-7.9c0.1-1-0.1-1.8-0.7-2.6C-823.8,438.5-824.6,438.1-825.5,438.1z"/>
				</g>
			</g>
		</g>
		<g>
			<g transform="translate(1140.332304, 91.601101)">
				<g>
					<path d="M-812.1,417.3c-1.4,0-2.4,0.7-2.9,2c-1,2.6-1.8,5.4-2.4,8.3c-1.2,0.9-1.5,2.1-1,3.6s1.6,2.2,3.2,2.2l11.7-0.1
						c-1.1,3.9-1.8,9.2-2.3,16c0,0.9,0.2,1.6,0.8,2.4c0.6,0.7,1.3,1.1,2.2,1.1c0.9,0.1,1.7-0.2,2.3-0.8c0.7-0.6,1.1-1.4,1.1-2.2
						c0.5-7.5,1.5-13.2,2.9-17.2c1.2-0.9,1.5-2.1,1-3.6c-0.5-1.4-1.5-2.2-3-2.2c-0.2-0.1-0.4-0.1-0.7-0.1c-0.2,0-0.3,0-0.4,0.1
						l-10.9,0.1c0.5-1.8,1-3.5,1.7-5.1c0.4-1.1,0.3-2.1-0.3-3.1C-809.9,417.6-810.9,417.2-812.1,417.3z"/>
				</g>
			</g>
		</g>
		<g>
			<g transform="translate(1161.212277, 91.601101)">
				<g>
					<path d="M-799.3,426.8c-1.4,0-2.3,0.7-2.8,2.1c-1.8,4.6-3,10.4-3.6,17.4c-1.7,0-3.1,0-4.2,0c-0.8,0-1.6,0.3-2.3,1
						c-0.6,0.6-1,1.4-1,2.3c0,0.8,0.3,1.5,1,2.2c0.7,0.6,1.4,1,2.3,1c3.3,0,6.7,0,10.1-0.1c3.4,0,6.5-0.1,9.5-0.1
						c0.9,0.1,1.8-0.1,2.4-0.7c0.7-0.5,1.1-1.3,1.2-2.2c0.5-8,1.6-14.1,3.3-18.4c0.5-1.1,0.4-2.1-0.3-3.1s-1.6-1.4-2.8-1.4
						c-1.4,0-2.4,0.7-2.9,2.1c-1.8,4.6-3,10.3-3.6,17.3c-2.4,0-4.5,0-6.5,0c0.5-6.1,1.6-11,3.2-14.9c0.4-1.1,0.3-2.1-0.3-3.1
						C-797.2,427.2-798.1,426.7-799.3,426.8z"/>
				</g>
			</g>
		</g>
		<g>
			<g transform="translate(1195.964229, 91.601101)">
				<g>
					<path d="M-793.9,426.8c-1.4,0-2.4,0.7-2.9,2c-2,4.9-3.2,11.7-3.8,20.4c0,0.9,0.2,1.6,0.8,2.3c0.6,0.7,1.3,1.1,2.2,1.1
						c0.8,0.1,1.6-0.2,2.3-0.8c0.7-0.6,1-1.3,1.1-2.2c0.5-8,1.7-14.2,3.4-18.4c0.5-1.1,0.4-2.1-0.3-3.1
						C-791.8,427.2-792.7,426.8-793.9,426.8z"/>
				</g>
			</g>
		</g>
		<g>
			<g transform="translate(1206.524195, 91.601101)">
				<g>
					<path d="M-784,426.8c-0.2,0-0.5,0-0.8,0.1l-9.2,0.1c-0.8,0-1.6,0.3-2.3,1c-0.6,0.7-1,1.5-1,2.3c0,0.9,0.4,1.6,1,2.2
						c0.7,0.6,1.4,1,2.2,1l5.4-0.1c-1.1,3.8-1.8,9.1-2.2,15.9c-0.1,0.9,0.2,1.6,0.8,2.3c0.6,0.7,1.3,1.1,2.2,1.1
						c0.8,0.1,1.6-0.2,2.3-0.8c0.7-0.6,1.1-1.3,1.1-2.2c0.5-7.1,1.4-12.5,2.7-16.4l4.4-0.1c0.8,0,1.6-0.3,2.3-1c0.6-0.7,1-1.5,1-2.3
						s-0.3-1.6-1-2.2s-1.4-1-2.3-1l-5.9,0.1C-783.4,426.8-783.7,426.8-784,426.8z"/>
				</g>
			</g>
		</g>
		<g>
			<g transform="translate(1226.540185, 91.601101)">
				<g>
					<path d="M-767.5,426.8c-0.1,0-0.2,0-0.4,0c-0.6,0-1.3,0.1-2.1,0.2c-0.2,0-0.3,0.1-0.5,0.1c-3.2,1.1-6.2,2.9-8.9,5.4
						c-0.3-1.2-0.8-2.5-1.2-3.7c-0.6-1.4-1.6-2-3-2c-1.1,0-2,0.5-2.7,1.4c-0.6,1-0.7,2-0.2,3c0.8,2.2,1.5,4.7,2.1,7.3
						c-1.9,2.7-3.7,5.9-5.4,9.6c-0.4,0.8-0.4,1.6-0.1,2.5c0.3,0.9,0.9,1.5,1.7,1.9s1.7,0.4,2.5,0.1s1.4-1,1.8-1.9
						c4.1-9.3,9.2-15.1,15.3-17.4c0.3,0,0.7-0.1,1-0.1c0,0.5,0,1-0.1,1.3c-1.3,7-2,10.9-2,11.5h-0.8c-0.4,0-0.7,0-0.8,0l-0.1,0.1
						c-0.1,0-0.1,0-0.1,0s-0.1,0-0.2,0c-0.5,0-1.9,0-4.3,0c-0.9,0-1.6,0.3-2.2,1c-0.7,0.6-1,1.4-1,2.2c0,0.9,0.3,1.7,1,2.3
						c0.6,0.6,1.4,0.9,2.2,0.9c2.1,0,3.5,0,4.4,0c0.3,0,0.6,0,0.8,0c0,0,0.1,0,0.2-0.1c0.1,0,0.2,0,0.2-0.1c0.7,0,2.1,0,4,0
						c0.9,0,1.7-0.4,2.3-1.1s0.9-1.5,0.8-2.5c-0.2-1.4,0.4-5.8,1.7-13.1c0.5-2.9,0.3-5.2-0.8-6.7c-0.8-1.1-2-1.9-3.6-2.1
						C-766.5,426.9-767,426.8-767.5,426.8z M-769.4,451.8c-0.2,0.2-0.4,0.4-0.4,0.4c0-0.1,0-0.1-0.2,0
						C-769.8,452.1-769.6,452-769.4,451.8z"/>
				</g>
			</g>
		</g>
		<g>
			<g transform="translate(1251.404168, 91.601101)">
				<g>
					<path d="M-775.1,417.3c-1.4,0-2.4,0.7-2.9,2c-1,2.6-1.8,5.4-2.4,8.3c-1.2,0.9-1.5,2.1-1,3.6s1.6,2.2,3.2,2.2l11.7-0.1
						c-1.1,3.9-1.8,9.2-2.3,16c0,0.9,0.2,1.6,0.8,2.4c0.6,0.7,1.3,1.1,2.2,1.1c0.9,0.1,1.7-0.2,2.3-0.8c0.7-0.6,1.1-1.4,1.1-2.2
						c0.5-7.5,1.5-13.2,2.9-17.2c1.2-0.9,1.5-2.1,1-3.6c-0.5-1.4-1.5-2.2-3-2.2c-0.2-0.1-0.4-0.1-0.7-0.1c-0.2,0-0.3,0-0.4,0.1
						l-10.9,0.1c0.5-1.8,1-3.5,1.7-5.1c0.4-1.1,0.3-2.1-0.3-3.1C-772.9,417.6-773.8,417.2-775.1,417.3z"/>
				</g>
			</g>
		</g>
		<g>
			<g transform="translate(1272.284141, 91.601101)">
				<g>
					<path d="M-763.4,426.8c-0.4,0-0.7,0.1-1,0.2h-1.2c-1.5,0-2.5,0.7-3,2.1c-0.2,0.6-0.3,1.2-0.1,1.9c0.2,0.7,0.5,1.2,1,1.6
						c-1.1,3.6-1.9,8.2-2.3,13.6c-0.3,0-1,0-2.1,0c-0.8,0-1.6,0.3-2.3,1c-0.6,0.6-1,1.4-1,2.2c0,0.9,0.3,1.6,1,2.2s1.4,1,2.3,1
						c1.3,0,2.3,0,3.1-0.1c0.4,0,0.9-0.1,1.7-0.1c0.2,0,0.5,0,0.8,0h0.2c1.3,0,2.3-0.6,2.9-1.7c0.6-1.2,0.5-2.3-0.3-3.4
						c0.5-5.8,1.3-10.5,2.4-14.1l7.8-0.1c-1.1,4-1.9,9.2-2.3,15.8c-0.1,0.9,0.2,1.6,0.8,2.4c0.6,0.7,1.4,1,2.2,1.1
						c0.8,0,1.6-0.2,2.3-0.8c0.7-0.6,1.1-1.3,1.2-2.1c0.5-8.1,1.7-14.2,3.3-18.4c0.4-1,0.3-2-0.3-3c-0.6-0.9-1.5-1.4-2.7-1.4
						l-13.3,0.2C-762.7,426.9-763.1,426.8-763.4,426.8z"/>
				</g>
			</g>
		</g>
		<g>
			<g transform="translate(1307.180059, 91.601101)">
				<g>
					<path d="M-758.7,427c-0.8,0-1.6,0.3-2.3,1c-0.7,0.6-1,1.4-1,2.2c0,0.9,0.4,1.7,1,2.3c0.7,0.6,1.4,0.9,2.3,0.9l12.2-0.1
						c-1.1,4-1.9,9.3-2.3,15.9c-0.1,0.9,0.2,1.6,0.8,2.3c0.6,0.7,1.3,1.1,2.2,1.1c0.8,0.1,1.6-0.2,2.3-0.8c0.7-0.6,1.1-1.3,1.2-2.2
						c0.5-8,1.7-14.2,3.4-18.5c0.4-1.1,0.3-2.1-0.3-3.1c-0.6-0.9-1.6-1.3-2.8-1.3L-758.7,427z M-759.5,438.1c-0.8,0-1.5,0.2-2.2,0.8
						c-0.6,0.6-1,1.3-1.1,2.1c-0.3,2-0.6,4.8-0.8,8.4c0,0.9,0.2,1.6,0.8,2.3c0.6,0.7,1.3,1.1,2.2,1.1c0.8,0.1,1.6-0.2,2.3-0.8
						c0.7-0.6,1-1.3,1.1-2.2c0.2-3.4,0.5-6.1,0.8-7.9c0.1-1-0.1-1.8-0.7-2.6C-757.7,438.5-758.5,438.1-759.5,438.1z"/>
				</g>
			</g>
		</g>
		<g>
			<g transform="translate(1328.732029, 91.601101)">
				<g>
					<path d="M-747.5,426.8c-0.2,0-0.5,0-0.8,0.1l-5,0.1c-0.8,0-1.6,0.3-2.2,1c-0.6,0.7-1,1.4-1,2.2c0,0.9,0.4,1.6,1,2.3
						c0.7,0.6,1.4,0.9,2.2,0.9h1.3c-1.1,3.9-1.8,9.1-2.3,15.8c0,0.9,0.3,1.6,0.9,2.3c0.5,0.7,1.3,1.1,2.2,1.1
						c0.8,0.1,1.6-0.2,2.3-0.8c0.7-0.6,1-1.3,1.1-2.2c0.5-7.1,1.4-12.6,2.6-16.4h1.7c0.9,0,1.7-0.4,2.2-1c0.6-0.7,1-1.5,1-2.3
						s-0.3-1.6-1-2.2c-0.6-0.7-1.4-1-2.2-1l-3.1,0.1C-746.9,426.8-747.2,426.8-747.5,426.8z"/>
				</g>
			</g>
		</g>
		<g>
			<g transform="translate(1353.403979, 91.601101)">
				<g>
					<path d="M-744,427c-0.8,0-1.5,0.3-2.2,1s-1,1.4-1,2.2c0,0.9,0.4,1.7,1,2.3c0.7,0.6,1.5,0.9,2.3,0.9l12.1-0.1
						c-1.1,4-1.9,9.3-2.4,15.9c0,0.8,0.2,1.6,0.8,2.3c0.6,0.7,1.4,1,2.2,1.1s1.6-0.2,2.3-0.8c0.7-0.5,1.1-1.3,1.1-2.2
						c0.5-8,1.7-14.1,3.4-18.4c0.4-1.1,0.3-2.1-0.3-3s-1.5-1.4-2.7-1.4L-744,427z M-742.3,439.5c-0.8,0-1.5,0.3-2.2,0.9
						c-0.6,0.6-0.9,1.3-1,2l-2.6,24.8c-0.1,0.9,0.2,1.6,0.8,2.4c0.6,0.7,1.3,1.1,2.1,1.2s1.6-0.2,2.4-0.8c0.7-0.6,1.1-1.3,1.2-2.1
						l2.6-24.8c0.1-1-0.1-1.8-0.8-2.6C-740.5,439.9-741.3,439.5-742.3,439.5z"/>
				</g>
			</g>
		</g>
		<g>
			<g transform="translate(1374.379946, 91.601101)">
				<g>
					<path d="M-738,427c-0.9,0-1.7,0.4-2.3,1s-1,1.4-1,2.2c0,0.9,0.4,1.7,1,2.3c0.7,0.6,1.4,0.9,2.3,0.9l12.2-0.1
						c-1.1,4-1.9,9.3-2.4,15.9c0,0.9,0.2,1.6,0.8,2.3c0.6,0.7,1.3,1.1,2.2,1.1c0.8,0.1,1.6-0.2,2.3-0.8c0.7-0.6,1.1-1.3,1.2-2.2
						c0.5-8,1.7-14.2,3.4-18.5c0.4-1.1,0.3-2.1-0.3-3.1c-0.7-0.9-1.6-1.3-2.8-1.3L-738,427z"/>
				</g>
			</g>
		</g>
		<g>
			<g transform="translate(1394.683915, 91.601101)">
				<g>
					<path d="M-727.7,426.9c-0.7,0-1.4,0.3-2,0.8s-1,1.1-1.2,1.9v0.1c0,0,0,0-0.1,0.1l-1.8,9.1c-0.2,1-0.1,1.8,0.5,2.6
						c0.6,0.8,1.4,1.2,2.3,1.3l6.8,0.7c0.9,0.1,1.7-0.1,2.4-0.8c0.7-0.6,1.1-1.3,1.2-2.2c0.1-0.8-0.2-1.6-0.8-2.3
						c-0.6-0.7-1.3-1.1-2.2-1.2l-3.2-0.2l0.6-3.3l9.6-0.1c-1,3.6-1.8,7.9-2.2,12.9c-0.9,0-2.8,0-5.7,0.1c-2.2,0.1-4.8,0.1-7.9,0.1
						c-0.8,0-1.6,0.3-2.2,0.9c-0.7,0.7-1,1.5-1,2.3c0,0.9,0.3,1.6,1,2.2c0.6,0.6,1.4,1,2.2,1c3.3,0,6.3,0,8.8-0.1
						c2.7,0,5.2-0.1,7.3-0.1c0.4,0,0.8,0,1.2,0h0.3c1.4,0,2.3-0.6,2.9-1.9c0.6-1.3,0.4-2.4-0.5-3.5c0.5-6.6,1.6-12,3.2-16.1
						c0.4-1.1,0.3-2.1-0.4-3c-0.6-0.9-1.5-1.4-2.7-1.4L-727.7,426.9z"/>
				</g>
			</g>
		</g>
		<g>
			<g transform="translate(1417.627853, 91.601101)">
				<g>
					<path d="M-721.4,427c-0.9,0-1.6,0.3-2.2,1c-0.7,0.6-1,1.4-1,2.2c0,0.9,0.3,1.6,1,2.2c0.6,0.6,1.4,1,2.3,1l12.1-0.1
						c-1,3.5-1.7,7.9-2.1,12.9c-4.8,0.1-8.9,0.1-12.2,0.1c-0.8,0-1.6,0.3-2.3,1c-0.6,0.6-1,1.4-1,2.2c0,0.9,0.3,1.6,1,2.2
						s1.4,1,2.3,1c-0.7,0,4.3,0,15-0.1h0.5c2.2,0,3.6,0,4.4,0c0.8,0,1.6-0.3,2.2-1c0.7-0.6,1-1.4,1-2.3c0-0.8-0.3-1.6-1-2.2
						c-0.6-0.6-1.4-1-2.2-1h-1.2c0.5-6.1,1.5-11,3.1-14.9c0.4-1.1,0.3-2.1-0.3-3.1c-0.6-0.9-1.5-1.3-2.7-1.3L-721.4,427z"/>
				</g>
			</g>
		</g>
	</g>
</g>
<g class="st29">
	<path class="st31" d="M528,209.8c0,39.6-21.8,74.3-54.4,93.7c-7.6,4.5-15.8,8.2-24.5,11c-0.1,0-0.3,0.1-0.4,0.1
		c-11.1,3.5-23.1,5.4-35.4,5.4c-4.3,0-8.6-0.2-12.8-0.7c-9.8-1-19.2-3.2-28-6.5c-0.5-0.2-1-0.4-1.5-0.5c-2.7-1-5.4-2.2-8-3.4
		c-4.8-2.2-9.4-4.8-13.8-7.6c-30.6-19.8-50.7-53.4-50.7-91.4c0-60.8,51.4-110.2,114.8-110.2c0.2,0,0.4,0,0.6,0
		C476.9,100,528,149.2,528,209.8z"/>
	<g class="st1">
		<path class="st32" d="M393,243.7c14.7-0.4,29.3-0.9,44-1.3c-0.4,11.7-10.1,21.2-21.7,21.4C403.9,264,394.1,255.2,393,243.7z"/>
		<path class="st33" d="M434.8,229.1c0.8,7.5-1.9,4.1-2.5,28.7c-0.9,3-2.9,8.2-7,13.7c-3.2,4.2-5.9,7.8-9.6,8
			c-6,0.2-10.7-9.5-12.7-13.7c-4.3-8.9-1.9-20.4-3.5-33.8C406.1,223.6,421.3,221.5,434.8,229.1z"/>
		<g>
			<path class="st34" d="M400.2,231.8c3.8-2.1,11.6-5.5,21.8-5.1c5.4,0.2,9.8,1.4,13,2.6c-0.6,4.8-1.3,9.6-1.9,14.3
				c0,0-7.3,6-11.6,7.3c-5.5,1.7-10.5,1.6-14.8,1.3c-2.7-0.1-4.9-0.4-6.4-0.7L400.2,231.8L400.2,231.8z"/>
		</g>
		<path class="st35" d="M463.1,194.3c1.8-2.6,6.1-9.7,6.4-19.2c0.4-14.3-8.6-28.9-20.9-35.1c-14.7-7.4-38.4-6.2-32-6.5
			c6-0.3,8.8-15.2,8.3-15.6s-7.5,8.7-13.1,13.4c-30.3-9.9-60.6,6.7-60.5,5.7s29.3-1.4,47.3,3.1c0.1,0,0.1,0,0.2,0
			c-3.7-1.7-8.8-3.1-14.3-2.2c-11.8,1.9-21.7,13.4-24.5,29c0.4,8.6,2.8,24.8,15,36.6C399.3,227.3,447.1,217.7,463.1,194.3z"/>
		<path class="st33" d="M366.9,191.5c-3.3,1.5-3.2,8.1-3.2,8.9c0.4,13.8,17.7,21.8,18.8,22.3c3.8,1.7,7.8,3.5,9.6,1.9
			c3.3-3.1-4-16.9-12.7-25.8C376.3,195.7,370.6,189.8,366.9,191.5z"/>
		<path class="st33" d="M463.6,191.6c3.3,1.5,3.2,8.1,3.2,8.9c-0.4,13.8-17.7,21.8-18.8,22.3c-3.8,1.7-7.8,3.5-9.6,1.9
			c-3.3-3.1,4-16.9,12.7-25.8C454.1,195.9,459.9,190,463.6,191.6z"/>
		<path class="st33" d="M375.2,186.7c1,15.3,8.9,35.1,8.9,35.1s2.9,14.3,31.5,26.4c4.9-1.8,20.2-8.1,30.9-24.9
			c6.7-17.2,10-33.4,9.6-38.6c-2.9-18.1-17.3-41.5-39.2-42.1C393.9,142.1,377.6,167.1,375.2,186.7z"/>
		<path class="st36" d="M423.8,206.5c-0.8-1.3-0.7-2.6-0.6-3.7c0-0.5,0.2-3.6,2.1-5.4c3.7-3.5,14.5-3.2,18.4,1.7
			c1.8,2.2,2.5,5.7,0.3,8.3c-3,3.7-9.2,3.3-10.8,3.2C432.5,210.6,425.9,210.2,423.8,206.5z"/>
		<path class="st37" d="M445.3,208c0.1-0.8,0.9-6.3-3.2-9.9c-5-4.5-14.3-3.6-17.8,0.6c-0.9,1.1-1.4,2.2-1.6,3.2"/>
		<circle class="st38" cx="432.3" cy="202.6" r="3.9"/>
		<path class="st39" d="M442.9,208.5c-1,0.5-9.1,4.4-15.9,0.3c-1.7-1-2.9-2.3-3.8-3.5"/>
		<circle class="st36" cx="434.1" cy="201.4" r="1.5"/>
		<path class="st36" d="M403.9,206.1c0.8-1.3,0.7-2.6,0.6-3.7c0-0.5-0.2-3.6-2.1-5.4c-3.7-3.5-14.5-3.2-18.4,1.7
			c-1.8,2.2-2.5,5.7-0.3,8.3c3,3.7,9.2,3.3,10.8,3.2C395.2,210.2,401.8,209.7,403.9,206.1z"/>
		<path class="st37" d="M382.4,207.6c-0.1-0.8-0.9-6.3,3.2-9.9c5-4.5,14.3-3.6,17.8,0.6c0.9,1.1,1.4,2.2,1.6,3.2"/>
		<circle class="st38" cx="395.4" cy="202.1" r="3.9"/>
		<circle class="st36" cx="397.4" cy="200.9" r="1.5"/>
		<path class="st39" d="M384.6,208.1c1,0.5,9.1,4.4,15.9,0.3c1.7-1,2.9-2.3,3.8-3.5"/>
		<path class="st40" d="M409,164.7c-2.2,21-9.2,30.6-9.2,30.6s17.8-9.2,14.3-12.4c0.6,0.5-4.5,14.3-10.2,17.5c1.5,2,9.1-0.3,14-4.1
			c13.8-11,8.2-37.3,7.3-41.1"/>
		<path class="st40" d="M418.8,160.2c4.5,9.2,19.8,21.7,32,32c2.2,1.9-0.5,7.7-4,13.5c1,1,3.9-0.5,4.5-0.8c4.7-2.4,7.8-8,7.9-15.1"
			/>
		<path class="st37" d="M375.2,202.6"/>
		<path class="st35" d="M459.6,188c5.3-4.5-2.4-34.6-24.2-45.9c-20.7-10.8-49.3-2.1-60.9,16.2c-6.6,10.6-8.7,26-3.5,29.3
			c9.2,5.8,39.8-26.7,43.5-23.1c1.6,1.6-3.5,8.3-1.4,10.4c2.2,2.1,8.3-5.2,15.8-4c7.4,1.2,7.7,9.3,18.8,14.7
			C450.7,187.1,457,190.1,459.6,188z"/>
		<g>
			<g>
				<path d="M410.1,164.7c0.3-1.2,0.4-2.5,0.4-3.8c0-0.5-0.3-1-0.7-1.3c-0.4-0.3-1.1-0.3-1.5,0c-1.2,0.8-2.2,1.7-3.1,2.8
					c-0.3,0.3-0.4,0.6-0.4,1.1c0,0.4,0.2,0.8,0.4,1.1c0.3,0.3,0.7,0.5,1.1,0.4c0.4,0,0.8-0.1,1.1-0.4c0.6-0.8,1.4-1.4,2.2-2
					c-0.1,0.1-0.2,0.2-0.3,0.2c0.2-0.2,0.5-0.3,0.7-0.5c-0.8-0.4-1.5-0.9-2.3-1.3c0,0.8,0,1.5-0.1,2.2c0-0.1,0-0.3,0-0.4
					c0,0.4-0.1,0.8-0.2,1.2s-0.1,0.8,0.1,1.2c0.2,0.3,0.5,0.6,0.9,0.7c0.4,0.1,0.8,0.1,1.2-0.1C409.7,165.4,410,165.1,410.1,164.7
					L410.1,164.7z"/>
			</g>
		</g>
		<g>
			<path d="M427.3,169.8c-0.2,0-0.3-2.3-1-7c-0.5-2.9-1-5.3-1.3-6.9c0.9,1.4,2,3.7,2.5,6.5C428.1,166.3,427.5,169.8,427.3,169.8z"/>
			<g>
				<path d="M427.7,168.4c-0.2,0,1.1,0.6,1,0.9v-0.1c0-0.1,0-0.2-0.1-0.3c0-0.2,0,0.3,0,0.1c0-0.1,0-0.2,0-0.2c0-0.2,0-0.4-0.1-0.6
					c-0.1-1.3-0.3-2.5-0.5-3.8c-0.4-2.9-0.9-5.9-1.6-8.8c-0.9,0.4-1.8,0.8-2.7,1.2c1.2,2.1,2.1,4.4,2.4,6.8c0.2,1.3,0.2,2.6,0.1,4
					c0,0.3,0,0.5-0.1,0.8c0,0.3,0-0.2,0,0.1c0,0.1,0,0.2-0.1,0.3c0,0.1-0.1,0.3-0.1,0.4c-0.1,0.3,0.2-0.3,0.2-0.3
					c0.2-0.1,0.4-0.3,0.7-0.4l0,0c-1.9,0.5-1.1,3.4,0.8,2.9c1.2-0.4,1.3-1.7,1.5-2.8c0.2-1.4,0.2-2.9,0-4.4c-0.3-3.2-1.3-6.2-2.9-9
					c-0.9-1.5-3.1-0.5-2.7,1.2c0.7,3.1,1.3,6.3,1.7,9.5c0.1,1.1,0.2,2.1,0.4,3.2c0.1,0.9,0.2,2,1.3,2.2c0.8,0.1,1.6-0.2,1.9-1.1
					C428.9,169.5,428.5,168.5,427.7,168.4z"/>
			</g>
		</g>
		<g>
			<g>
				<path d="M462.1,188.3c0-1.1,0-2.2,0-3.4c0-0.4-0.2-0.8-0.4-1.1c-0.3-0.3-0.7-0.5-1.1-0.4c-0.8,0-1.5,0.7-1.5,1.5
					c0,1.1,0,2.2,0,3.4c0,0.4,0.2,0.8,0.4,1.1c0.3,0.3,0.7,0.5,1.1,0.4C461.4,189.7,462.1,189.1,462.1,188.3L462.1,188.3z"/>
			</g>
		</g>
		<g>
			<g>
				<path d="M387.5,140c1.4-0.1,2.9-0.1,4.3-0.1c0.7,0,1.4,0.1,2.1,0.1c0.7,0.1,1.4,0.1,2,0.2c0.8,0.1,1.6-0.2,1.9-1.1
					c0.2-0.7-0.2-1.7-1-1.9c-3-0.5-6.1-0.6-9.2-0.4c-0.8,0.1-1.5,0.6-1.5,1.5C386.1,139.2,386.7,140,387.5,140L387.5,140z"/>
			</g>
		</g>
		<g>
			<g>
				<path d="M423.1,151.5c-0.1-0.2-0.3-0.5-0.4-0.7c-0.2-0.3-0.5-0.6-0.8-0.9c-0.6-0.5-1.3-0.9-2.1-1.2c-0.4-0.1-0.8,0-1.2,0.1
					c-0.3,0.2-0.6,0.5-0.7,0.9s-0.1,0.8,0.1,1.2s0.5,0.6,0.9,0.7c0.1,0,0.2,0.1,0.3,0.1c-0.1-0.1-0.2-0.1-0.4-0.1
					c0.3,0.1,0.6,0.3,0.9,0.6c-0.1-0.1-0.2-0.2-0.3-0.2c0.3,0.2,0.5,0.5,0.8,0.8c-0.1-0.1-0.2-0.2-0.2-0.3c0.2,0.2,0.3,0.5,0.4,0.7
					c0.2,0.3,0.6,0.6,0.9,0.7c0.4,0.1,0.8,0.1,1.2-0.1c0.3-0.2,0.6-0.5,0.7-0.9c0-0.1,0-0.3,0-0.4
					C423.3,152,423.2,151.8,423.1,151.5L423.1,151.5z"/>
			</g>
		</g>
		<g>
			<g>
				<path d="M447.5,152.5c2.6,4.6,4.9,9.3,6.9,14.1c0.3,0.8,1,1.3,1.9,1.1c0.7-0.2,1.4-1.1,1-1.9c-2.1-5.1-4.5-10.1-7.1-14.8
					C449.1,149.3,446.5,150.8,447.5,152.5L447.5,152.5z"/>
			</g>
		</g>
		<g>
			<g>
				<path d="M370.8,171.6c0.4-2.5,1.8-4.8,2.9-7c1.2-2.4,2.5-4.8,3.8-7.1c1-1.7-1.6-3.2-2.6-1.5c-1.4,2.4-2.7,4.9-3.9,7.4
					c-0.6,1.2-1.2,2.5-1.8,3.7c-0.5,1.2-1.1,2.4-1.3,3.7c-0.1,0.8,0.2,1.6,1,1.9C369.7,172.8,370.7,172.4,370.8,171.6L370.8,171.6z"
					/>
			</g>
		</g>
		<path class="st41" d="M367.5,195.9c-0.4,1.2-1,3.7-0.3,6.7c0.4,2,1.3,3.5,1.9,4.5"/>
		<path class="st41" d="M463.5,195.6c0.4,1.2,1,3.7,0.3,6.7c-0.4,2-1.3,3.5-1.9,4.5"/>
		<path class="st42" d="M446.4,222.5c0,0-6.5,8.5-9.9,7c-2.2-0.9-0.7-4.9-3.5-7c-2-1.5-5.8-1-13.2,0.2c-2.4,0.4-2.1,0.4-3.8,0.6
			c-9.4,1.3-12.5-0.4-15,1.6c-2.9,2.3-0.2,7.1-2.2,8.3c-3.2,1.9-11.6-7.7-11.8-7.6c-0.2,0.1-0.4,0.1-0.4,0.3
			c-0.9,5.6,28.4,23.7,29.2,22.2c0,0,13.1-5.4,19.4-11.9C440.6,231.3,444.1,226.4,446.4,222.5z"/>
		<line class="st41" x1="417.6" y1="201" x2="413.4" y2="203.6"/>
		<line class="st41" x1="417.9" y1="202.6" x2="411.2" y2="206.8"/>
		<line class="st41" x1="419.5" y1="203.6" x2="410.9" y2="209"/>
		<line class="st41" x1="420.1" y1="205.5" x2="411.2" y2="210.9"/>
		<line class="st41" x1="421.1" y1="206.8" x2="411.8" y2="212.2"/>
		<path class="st43" d="M415.6,215.2c0,1.3-0.1,2.6-0.2,3.8c-0.6-0.5-1.2-1.1-1.8-1.6"/>
		<g>
			<g>
				<path class="st34" d="M384.8,211.3c-0.2,0.3-0.4,0.5-0.6,0.8c-0.1,0.2-0.2,0.4-0.2,0.6c0,0.2,0,0.4,0,0.6c0,0.2,0.1,0.4,0.3,0.5
					c0.1,0.2,0.2,0.3,0.4,0.4c0.1,0.1,0.2,0.1,0.4,0.1c0.3,0.1,0.5,0.1,0.8,0c0.1-0.1,0.2-0.1,0.4-0.1c0.2-0.1,0.4-0.3,0.5-0.5
					c0.2-0.3,0.4-0.5,0.6-0.8c0.1-0.2,0.2-0.4,0.2-0.6c0-0.2,0-0.4,0-0.6c0-0.2-0.1-0.4-0.3-0.5c-0.1-0.2-0.2-0.3-0.4-0.4
					c-0.1-0.1-0.2-0.1-0.4-0.1c-0.3-0.1-0.5-0.1-0.8,0c-0.1,0.1-0.2,0.1-0.4,0.1C385.1,210.9,384.9,211.1,384.8,211.3L384.8,211.3z"
					/>
			</g>
		</g>
		<g>
			<g>
				<path class="st34" d="M386,212.2c-0.1,0.1-0.1,0.2-0.2,0.3c-0.1,0.2-0.2,0.4-0.2,0.6c0,0.2,0,0.4,0,0.6c0,0.2,0.1,0.4,0.3,0.5
					c0.1,0.2,0.2,0.3,0.4,0.4c0.1,0.1,0.2,0.1,0.4,0.1c0.3,0.1,0.5,0.1,0.8,0c0.1-0.1,0.2-0.1,0.4-0.1c0.2-0.1,0.4-0.3,0.5-0.5
					c0.1-0.1,0.1-0.2,0.2-0.3c0.1-0.2,0.2-0.4,0.2-0.6c0-0.2,0-0.4,0-0.6c0-0.2-0.1-0.4-0.3-0.5c-0.1-0.2-0.2-0.3-0.4-0.4
					c-0.1-0.1-0.2-0.1-0.4-0.1c-0.3-0.1-0.5-0.1-0.8,0c-0.1,0.1-0.2,0.1-0.4,0.1C386.4,211.8,386.2,211.9,386,212.2L386,212.2z"/>
			</g>
		</g>
		<g>
			<g>
				<path class="st34" d="M439.9,212.6c0,0.2,0,0.3,0,0.5s0,0.4,0.1,0.6c0.1,0.2,0.2,0.4,0.3,0.5c0.1,0.1,0.3,0.2,0.5,0.3
					s0.4,0.1,0.6,0.1c0.1,0,0.3,0,0.4-0.1c0.2-0.1,0.5-0.2,0.7-0.4c0.1-0.1,0.2-0.2,0.2-0.3c0.1-0.2,0.2-0.5,0.2-0.8
					c0-0.2,0-0.3,0-0.5s0-0.4-0.1-0.6c-0.1-0.2-0.2-0.4-0.3-0.5c-0.1-0.1-0.3-0.2-0.5-0.3s-0.4-0.1-0.6-0.1c-0.1,0-0.3,0-0.4,0.1
					c-0.2,0.1-0.5,0.2-0.7,0.4c-0.1,0.1-0.2,0.2-0.2,0.3C440,212.1,439.9,212.4,439.9,212.6L439.9,212.6z"/>
			</g>
		</g>
		<g>
			<g>
				<path class="st34" d="M441.7,213L441.7,213c-0.1-0.1-0.1-0.2-0.2-0.3C441.5,212.8,441.6,212.9,441.7,213
					c-0.1-0.1-0.1-0.2-0.2-0.3C441.5,212.8,441.6,212.9,441.7,213c-0.1-0.1-0.1-0.2-0.1-0.3c0,0.1,0,0.2,0,0.4s0,0.4,0.1,0.6
					c0.1,0.2,0.2,0.4,0.3,0.5c0.1,0.1,0.3,0.2,0.5,0.3s0.4,0.1,0.6,0.1c0.1,0,0.3,0,0.4-0.1c0.2-0.1,0.5-0.2,0.7-0.4
					c0.1-0.1,0.2-0.2,0.2-0.3c0.1-0.2,0.2-0.5,0.2-0.8c0-0.1,0-0.2,0-0.3c0-0.2,0-0.4-0.1-0.5c0-0.1,0-0.1,0-0.1c0-0.1,0-0.1,0-0.1
					c-0.1-0.2-0.1-0.3-0.2-0.5s-0.3-0.4-0.4-0.6c-0.1-0.1-0.3-0.2-0.5-0.3s-0.4-0.1-0.6-0.1s-0.4,0-0.6,0.1s-0.4,0.2-0.5,0.3
					s-0.2,0.2-0.2,0.3c-0.1,0.2-0.2,0.5-0.2,0.8c0,0.1,0,0.3,0,0.4C441.4,212.6,441.5,212.8,441.7,213L441.7,213z"/>
			</g>
		</g>
		<path class="st40" d="M410.9,165.7c-4.1,2.9-30,26.8-32.2,36.3c-0.6,1.6,3.1,10,3.5,9.9c0,0,0,0,0-0.1c0.2-0.8-17.5-5.9-14.1-29.3
			"/>
		<path class="st44" d="M400.4,190.2c-7.6-0.2-14.6,1-20.7,4.5"/>
		<path class="st44" d="M426.5,190.2c7.6-0.2,14.6,1,20.7,4.5"/>
		<path class="st45" d="M475.9,286.7c-0.9-6.9-1.9-13.9-4.4-20.7c-10.1-1.9-20.2-3.8-30.3-5.7l9.8,34.1c1,6.2,2.2,12.5,3.5,18.7
			l26.4-0.5C478.8,304.2,477,295.6,475.9,286.7z"/>
		<path class="st45" d="M384.1,290.9l12.7-31.9c-10.1,1.9-20.2,3.8-30.3,5.7c-2.5,7.9-4.9,16-7.3,24.2c-2.6,8.8-5,17.5-7.3,26
			l25.6-0.5C379.8,306.6,381.9,298.8,384.1,290.9z"/>
		<g>
			<path class="st46" d="M453.8,302.2c0-6.9,0.5-16.9,2.6-29.1l-80.6,2.5c2.2,5.9,2.8,21.5,2.6,38.9l75.7-1.4
				C453.9,309.9,453.8,306.3,453.8,302.2z"/>
			<g>
				<path d="M453.7,302.2c0.2-9.5,0.7-20.3,2.7-29c-13.4,0.4-47.5,1.5-60.5,1.9c-6.7,0.2-13.4,0.4-20.1,0.7l0.1-0.2
					c1.1,3.1,1.6,6.4,2,9.6c1.2,9.4,0.9,19.9,0.6,29.4l-0.1-0.1c0,0,76.2-1.5,75.6-1.3C454,313.1,453.7,302.2,453.7,302.2
					L453.7,302.2z M453.9,302.2l0.3,10.9v0.1l-75.8,1.4h-0.1v-0.1v-4.9c-0.2-7.6-0.5-16.9-1-24.4c-0.3-3.3-0.5-6.6-1.6-9.8
					c6.8-0.1,13.5-0.4,20.3-0.6c12.8-0.4,47.2-1.5,60.5-1.9h0.1v0.1C454.9,282.7,454,292.4,453.9,302.2L453.9,302.2z"/>
			</g>
		</g>
		<path class="st47" d="M424.2,270.2c-5.7,1.9-11.9,2.1-18.5,1c0-1.2,2.5,9.2,9.6,12.1C425.2,277.8,424.6,268.2,424.2,270.2z"/>
		<path class="st46" d="M401.6,270.2c-1.1-3.4-5.2-5-8.3-4.5c-5.1,0.8-8.6,7.6-6.7,11.1s9.1,4,12.7,0.6
			C401.1,275.9,402.6,273,401.6,270.2z"/>
		<path class="st46" d="M448,266.8c-1.1-3.5-5.5-5.1-8.6-5.1c-7,0.1-13.2,8.8-11.5,12.7c1.8,4.1,13,4.9,17.8-0.4
			C446,273.8,449.1,270.4,448,266.8z"/>
		<path class="st45" d="M437.1,242.6C430,251,423,258.4,416.8,262c2.2,5.4,4.4,10.7,6.5,16.1c3.1-3.1,7.3-6.7,12.6-10.1
			c4.6-2.9,8.9-5,12.6-6.4c-2.7-3.9-5.3-7.9-8-11.8C439.4,247.4,438.3,245,437.1,242.6z"/>
		<path class="st45" d="M393,243.9c7.2,8.4,14.2,15.8,20.4,19.4c-2.2,5.4-4.4,10.7-6.5,16.1c-4.2-3.3-8.4-6.7-12.6-10.1
			c-3.3-2.7-6.6-5.4-9.8-8.1c1.6-2.3,3.4-5.2,5.1-8.6C391.1,249.5,392.2,246.5,393,243.9z"/>
		<g>
			<g>
				<path d="M435.8,254.6c-1,0.8-2.2,1.5-3.4,2.1c-0.5,0.3-1.1,0.5-1.5,1s-0.6,1.1-0.9,1.7c-1.2,2.8-2.4,5.6-3.6,8.4
					c-0.4,0.9,0.9,1.6,1.3,0.8c1.2-2.7,2.3-5.5,3.5-8.2c0.2-0.5,0.4-1.2,0.8-1.7c0.4-0.4,1-0.6,1.5-0.9c1.2-0.6,2.2-1.3,3.3-2.1
					C437.6,255.1,436.5,254,435.8,254.6L435.8,254.6z"/>
			</g>
		</g>
		<g>
			<g>
				<path d="M391.3,255.3c0.2,0,0.4,0,0.6,0c0.1,0,0.2,0,0.3,0h0.1c0,0,0,0-0.1,0c0,0,0.1,0,0.2,0c0.2,0,0.4,0.1,0.6,0.1
					c0,0,0.1,0,0.1,0.1c0.2,0.1-0.1-0.1,0,0s0.2,0.1,0.3,0.1l0.1,0.1c-0.1-0.1-0.1-0.1,0,0c0,0,0,0,0.1,0.1s0.1,0.1,0.2,0.2l0.1,0.1
					c-0.1,0-0.1-0.1,0,0c0,0.1,0.1,0.2,0.1,0.2c0.1,0.1,0-0.1,0,0v0.1v0.1c0,0,0,0,0,0.1s0,0,0-0.1v0.2c0,0.2,0-0.2,0,0v0.1
					c-0.1,0.4,0.1,0.8,0.5,0.9s0.8-0.1,0.9-0.5c0.4-1.1-0.3-2.2-1.1-2.8c-0.9-0.6-2-0.7-3.1-0.7c-0.4,0-0.8,0.4-0.8,0.8
					C390.5,255,390.8,255.3,391.3,255.3L391.3,255.3z"/>
			</g>
		</g>
		<path class="st37" d="M433.8,253.9"/>
		<path class="st37" d="M433.8,251.1"/>
		<path class="st37" d="M435.1,250.7"/>
		<path class="st48" d="M469.5,256.5c-1.6-2.1-3.9-2.8-5.1-3.2c-0.6-0.2-5.7-1.8-10.5,1c-5.1,2.9-8.2,9.7-6,14.7
			c2.9,6.5,14.4,8.3,20.1,2.9C471.9,267.9,472.7,260.5,469.5,256.5z"/>
		<path class="st49" d="M472.2,263.7c-6.5-6.2-14.8-7.3-24.5-4.4c-0.4,0.9-0.8,1.9-1.1,2.8c8.1,0.2,16.4,1,25.3,3.8
			C472,265.1,472.1,264.4,472.2,263.7z"/>
		<path class="st49" d="M366.3,263.1c5.7-6.2,13-7.3,21.4-4.4c0.3,0.9,0.7,1.9,1,2.8c-7.1,0.2-14.3,1-22.1,3.8
			C366.5,264.6,366.4,263.9,366.3,263.1z"/>
		<g>
			<g>
				<path d="M409.5,235.7c4.8,0.5,10.1,0.5,14.1-2.6c0.8-0.6,0-1.9-0.8-1.3c-3.8,2.9-8.8,2.8-13.3,2.3
					C408.5,234.1,408.5,235.6,409.5,235.7L409.5,235.7z"/>
			</g>
		</g>
		<g>
			<g>
				<path class="st50" d="M374,276.7c-2.5,9.2-4.1,18.6-4.9,28c-0.2,1.9,2.8,1.9,3,0c0.8-9.2,2.4-18.3,4.8-27.2
					C377.4,275.6,374.5,274.9,374,276.7L374,276.7z"/>
			</g>
		</g>
		<g>
			<g>
				<path class="st50" d="M466.9,272.8c-2.6,2.8-5.1,5.7-7.5,8.6c-0.5,0.6-0.6,1.5,0,2.1c0.6,0.5,1.6,0.6,2.1,0
					c2.5-2.9,5-5.8,7.5-8.6c0.5-0.6,0.6-1.5,0-2.1C468.4,272.2,467.4,272.1,466.9,272.8L466.9,272.8z"/>
			</g>
		</g>
		<g>
			<g>
				<path class="st50" d="M378.3,264.6c3.3,0.9,6.6,1.7,9.9,2.4c0.8,0.2,1.7-0.2,1.9-1c0.2-0.8-0.2-1.7-1-1.9
					c-3.3-0.7-6.6-1.5-9.9-2.4c-0.8-0.2-1.7,0.2-1.9,1S377.5,264.4,378.3,264.6L378.3,264.6z"/>
			</g>
		</g>
	</g>
	<path class="st51" d="M421.5,99.7c-4.2-0.4-8.5-0.7-12.8-0.7C345.4,99,294,148.3,294,209.2c0,42.4,24.9,79.1,61.4,97.6
		c7.3,3.7,15.1,6.7,23.3,8.8c0.2,0.1,0.5,0.1,0.7,0.2c9.2,2.3,18.9,3.6,28.8,3.6c0.2,0,0.4,0,0.6,0c16.6,0,32.5-3.4,46.7-9.5
		c0.4-0.2,0.8-0.4,1.2-0.5c8.4-3.7,16.2-8.3,23.3-13.7c26.5-20.2,43.5-51.4,43.5-86.4C523.5,152.5,478.9,105.8,421.5,99.7z"/>
</g>
<g class="st29">
	<path class="st52" d="M317.2,741h184.1c21.1,0,38.2-17.1,38.2-38.2l0,0c0-21.1-17.1-38.2-38.2-38.2H317.2
		c-21.1,0-38.2,17.1-38.2,38.2l0,0C279,723.9,296.1,741,317.2,741z"/>
	<path class="st53" d="M317.2,734.4h184.1c21.1,0,38.2-17.1,38.2-38.2l0,0c0-21.1-17.1-38.2-38.2-38.2H317.2
		c-21.1,0-38.2,17.1-38.2,38.2l0,0C279,717.3,296.1,734.4,317.2,734.4z"/>
</g>
<rect x="326.8" y="685.1" class="st54" width="180.2" height="35.9"/>
<text transform="matrix(1 0 0 1 326.7812 710.6533)" class="st55 st56 st57">! </text>
<g>
	<g>
		<defs>
			<rect id="SVGID_00000025400732571391873160000012922351193234202244_" x="99.7" y="41.6" width="555.9" height="1358.4"/>
		</defs>
		<clipPath id="SVGID_00000172426301992600223650000007210236997455669417_">
			<use xlink:href="#SVGID_00000025400732571391873160000012922351193234202244_"  style="overflow:visible;"/>
		</clipPath>
		<g style="clip-path:url(#SVGID_00000172426301992600223650000007210236997455669417_);">
			<path class="st59" d="M100,1714.4h76.1v-150c0-21.8,4.3-43.1,12.8-63.1c8.1-19.3,19.8-36.6,34.7-51.4
				c14.8-14.8,32.2-26.6,51.4-34.7c20-8.5,41.1-12.8,63.1-12.8h155.5c19.7,0,38.5-9.2,53.1-25.9c15.9-18.3,24.8-42.9,24.8-69.5
				s-8.8-51.2-24.8-69.5c-14.6-16.6-33.5-25.9-53.1-25.9c-0.3,0-0.6,0-0.9,0H337.9c-22.6,0-44.4-5.1-65-15
				c-19.3-9.4-36.7-22.7-51.4-39.6c-29.3-33.6-45.4-77.9-45.4-124.7c0-46.8,16.2-91.1,45.4-124.7c14.7-16.8,32.1-30.2,51.4-39.6
				c20.6-9.9,42.4-15,65-15h155.8c19.7,0,38.5-9.2,53.1-25.9c15.9-18.3,24.8-42.9,24.8-69.5c0-26.6-8.8-51.2-24.8-69.5
				c-14.6-16.6-33.5-25.9-53.1-25.9H337.9c-21.8,0-43.1-4.3-63.1-12.8c-19.3-8.1-36.6-19.8-51.4-34.7
				c-14.8-14.8-26.6-32.1-34.7-51.4c-8.5-20-12.8-41.1-12.8-63.1v-34.9c0-21.8,4.3-43.1,12.8-63.1c8.1-19.3,19.8-36.6,34.7-51.4
				c14.8-14.8,32.2-26.6,51.4-34.7c20-8.5,41.1-12.8,63.1-12.8h155.8c19.7,0,38.5-9.2,53.1-25.9c15.9-18.3,24.8-42.9,24.8-69.5V83.6
				c0-23.2,18.9-42,41.9-42c23.2,0,42,18.9,42,42v125.2c0,46.8-16.2,91.1-45.4,124.7c-14.7,16.8-32,30.2-51.4,39.6
				c-20.6,9.9-42.4,15-65,15H337.9c-42.9,0-77.9,34.9-77.9,77.9v34.9c0,42.9,34.9,77.9,77.9,77.9h155.8c22.6,0,44.4,5.1,65,15
				c19.3,9.4,36.7,22.7,51.4,39.6c29.3,33.6,45.4,77.9,45.4,124.7c0,46.8-16.2,91.1-45.4,124.7c-14.7,16.8-32,30.2-51.4,39.6
				c-20.6,9.9-42.4,15-65,15H337.9c-19.7,0-38.5,9.2-53.1,25.9c-15.9,18.3-24.8,42.9-24.8,69.5c0,26.6,8.8,51.2,24.8,69.5
				c14.6,16.6,33.5,25.9,53.1,25.9h155.8c0.3,0,0.8,0,1.1,0c22,0.2,43.5,5.2,63.6,15c19.3,9.4,36.7,22.7,51.4,39.6
				c29.3,33.6,45.4,77.9,45.4,124.7c0,46.8-16.2,91.1-45.4,124.7c-14.7,16.8-32,30.2-51.4,39.6c-20.6,9.9-42.4,15-65,15H337.9
				c-42.9,0-77.9,34.9-77.9,77.9v150h76.1L218,1832.4L100,1714.4z M575.8,1307.2c0,27.6-9.2,53.3-25.9,72.4
				c-15.4,17.6-35.5,27.3-56.4,27.3H337.9c-21.2,0-41.8,4.2-61.3,12.4c-18.8,7.9-35.6,19.3-50.1,33.7
				c-14.5,14.5-25.8,31.3-33.7,50.1c-8.2,19.4-12.4,40-12.4,61.3v154.4h-69.8L218,1826.2l107.4-107.4h-69.8v-154.4
				c0-45.3,37-82.3,82.3-82.3h155.7c21.9,0,43.1-4.9,63.1-14.6c18.9-9.2,35.7-22,50.1-38.5c28.6-32.8,44.4-76.1,44.4-121.8
				c0-45.8-15.7-89.1-44.4-121.8c-14.4-16.4-31.2-29.4-50.1-38.5c-19.6-9.5-40.2-14.4-61.7-14.6c-0.3,0-0.8,0-1.1,0H337.9
				c-21,0-41-9.7-56.4-27.3c-16.6-19.1-25.9-44.8-25.9-72.3c0-27.6,9.2-53.3,25.9-72.4c15.4-17.6,35.5-27.3,56.4-27.3h155.8
				c21.9,0,43.1-4.9,63.1-14.6c18.9-9.2,35.7-22.2,50.1-38.5c28.6-32.8,44.4-76.1,44.4-121.8c0-45.8-15.7-89.1-44.4-121.8
				c-14.4-16.4-31.2-29.4-50.1-38.5c-19.9-9.6-41.1-14.6-63.1-14.6H337.9c-45.3,0-82.3-37-82.3-82.3v-34.9c0-45.3,37-82.3,82.3-82.3
				h155.8c21.9,0,43.1-4.9,63.1-14.6c18.9-9.2,35.7-22.2,50.1-38.5c28.6-32.8,44.4-76.1,44.4-121.8V83.6
				c-0.1-20.8-17-37.6-37.7-37.6C592.7,46,576,62.8,576,83.5v125.2c0,27.6-9.2,53.3-25.9,72.4c-15.4,17.6-35.5,27.3-56.4,27.3H337.9
				c-21.2,0-41.8,4.2-61.3,12.4c-18.8,7.9-35.6,19.3-50.1,33.7c-14.5,14.5-25.8,31.3-33.7,50.1c-8.2,19.4-12.4,40-12.4,61.3v34.9
				c0,21.2,4.2,41.8,12.4,61.3c7.9,18.8,19.3,35.6,33.7,50.1c14.5,14.5,31.3,25.8,50.1,33.7c19.4,8.2,40,12.4,61.3,12.4h155.8
				c21,0,41,9.7,56.4,27.3c16.6,19.1,25.9,44.8,25.9,72.4c0,27.7-9.2,53.3-25.9,72.4c-15.4,17.6-35.5,27.3-56.4,27.3H337.9
				c-21.9,0-43.2,4.9-63.1,14.6c-18.9,9.2-35.7,22-50.1,38.5c-28.6,32.8-44.4,76.1-44.4,121.8c0,45.8,15.7,89.1,44.4,121.8
				c14.4,16.4,31.2,29.4,50.1,38.5c19.9,9.6,41.1,14.6,63.1,14.6h154.7c0.3,0,0.6,0,0.9,0c21,0,41,9.7,56.4,27.3
				C566.6,1254,575.8,1279.6,575.8,1307.2z"/>
		</g>
	</g>
	<g>
		<defs>
			<rect id="SVGID_00000005945484110921180900000006416763748781973657_" x="184" y="50" width="463.6" height="1350"/>
		</defs>
		<clipPath id="SVGID_00000065765618405240587190000016862990896302338456_">
			<use xlink:href="#SVGID_00000005945484110921180900000006416763748781973657_"  style="overflow:visible;"/>
		</clipPath>
		<g style="clip-path:url(#SVGID_00000065765618405240587190000016862990896302338456_);">
			<path class="st61" d="M184.9,1726v-161.6c0-20.7,4.1-40.7,12.1-59.6c7.7-18.2,18.8-34.6,32.8-48.6c14-14,30.4-25.1,48.6-32.8
				c18.9-8,38.9-12.1,59.6-12.1h155.6c22.3,0,43.5-10.3,59.8-28.8c17.4-19.9,26.9-46.7,26.9-75.3c0-28.7-9.6-55.4-26.9-75.3
				c-16.3-18.6-37.5-28.8-59.8-28.8c-0.2,0-0.6,0-0.8,0H337.9c-21.2,0-41.8-4.7-61.1-14.1c-18.3-8.8-34.7-21.5-48.6-37.4
				c-27.9-32-43.3-74.2-43.3-118.9c0-44.6,15.4-86.9,43.3-118.9c13.9-15.9,30.3-28.6,48.6-37.4c19.3-9.4,39.9-14.1,61.1-14.1h155.8
				c22.3,0,43.5-10.3,59.8-28.8c17.4-19.9,26.9-46.7,26.9-75.3c0-28.6-9.6-55.4-26.9-75.3c-16.3-18.6-37.5-28.8-59.8-28.8H337.9
				c-20.7,0-40.7-4.1-59.6-12.1c-18.2-7.7-34.6-18.8-48.6-32.8c-14-14-25.1-30.4-32.8-48.6c-8-18.9-12.1-38.9-12.1-59.6v-34.9
				c0-20.7,4.1-40.7,12.1-59.6c7.7-18.2,18.8-34.6,32.8-48.6c14-14,30.4-25.1,48.6-32.8c18.9-8,38.9-12.1,59.6-12.1h155.8
				c22.3,0,43.5-10.3,59.8-28.8c17.4-19.9,26.9-46.7,26.9-75.3V83.6c0-18.3,14.8-33.2,33.1-33.2c18.3,0,33.2,14.9,33.2,33.2v125.2
				c0,44.6-15.4,86.9-43.3,118.9c-13.9,15.9-30.3,28.6-48.6,37.4c-19.3,9.4-39.9,14.1-61.1,14.1H337.9c-47.8,0-86.7,38.9-86.7,86.7
				v34.9c0,47.8,38.9,86.7,86.7,86.7h155.8c21.2,0,41.8,4.7,61.1,14.1c18.3,8.8,34.7,21.5,48.6,37.4c27.9,32,43.3,74.2,43.3,118.9
				s-15.4,86.9-43.3,118.9c-13.9,15.9-30.3,28.6-48.6,37.4c-19.3,9.4-39.9,14.1-61.1,14.1H337.9c-22.3,0-43.5,10.3-59.8,28.8
				c-17.4,19.9-26.9,46.7-26.9,75.3c0,28.6,9.6,55.4,26.9,75.3c16.3,18.6,37.5,28.8,59.8,28.8h155.8c0.3,0,0.7,0,1,0
				c20.8,0.2,40.9,5,59.9,14.1c18.3,8.8,34.7,21.5,48.6,37.4c27.9,32.2,43.3,74.5,43.3,119.1c0,44.6-15.4,86.9-43.3,118.9
				c-13.9,15.9-30.3,28.6-48.6,37.4c-19.3,9.4-39.9,14.1-61.1,14.1H337.9c-47.8,0-86.7,38.9-86.7,86.7v161.6
				c0,18.3-14.8,33.1-33.1,33.1C199.8,1759.1,184.9,1744.3,184.9,1726z"/>
		</g>
	</g>
	<g>
		<defs>
			<rect id="SVGID_00000142894803000667961410000016272602909908701069_" x="214.8" y="80.7" width="402.1" height="1319.3"/>
		</defs>
		<clipPath id="SVGID_00000016059344757468234220000014527002100121194150_">
			<use xlink:href="#SVGID_00000142894803000667961410000016272602909908701069_"  style="overflow:visible;"/>
		</clipPath>
		<g style="clip-path:url(#SVGID_00000016059344757468234220000014527002100121194150_);">
			<path class="st36" d="M215.8,1759.1v-3.6c0-1.2,1-2.3,2.3-2.3c1.2,0,2.3,1,2.3,2.3v3.6c0,1.2-1,2.3-2.3,2.3
				C216.9,1761.4,215.8,1760.4,215.8,1759.1z M215.8,1729.1v-22.2c0-1.2,1-2.3,2.3-2.3c1.2,0,2.3,1,2.3,2.3v22.2
				c0,1.2-1,2.3-2.3,2.3C216.9,1731.2,215.8,1730.3,215.8,1729.1z M215.8,1680.5v-22.2c0-1.2,1-2.3,2.3-2.3c1.2,0,2.3,1,2.3,2.3
				v22.2c0,1.2-1,2.3-2.3,2.3C216.9,1682.6,215.8,1681.6,215.8,1680.5z M215.8,1631.8v-22.2c0-1.2,1-2.3,2.3-2.3
				c1.2,0,2.3,1,2.3,2.3v22.2c0,1.2-1,2.3-2.3,2.3C216.9,1634,215.8,1633,215.8,1631.8z M215.8,1583.2v-18.9c0-1.1,0-2.3,0-3.3
				c0-1.2,1-2.1,2.3-2.1c1.2,0,2.1,1,2.1,2.3c0,1,0,2.1,0,3.2v18.9c0,1.2-1,2.3-2.3,2.3C216.9,1585.4,215.8,1584.4,215.8,1583.2z
				 M215.8,1032.6c0-5,0.2-9.9,0.7-14.8c0.1-1.2,1.2-2.1,2.4-2c1.2,0.1,2.1,1.2,2,2.4c-0.5,4.7-0.7,9.6-0.7,14.4
				c0,2.5,0.1,5,0.2,7.3c0.1,1.2-0.9,2.3-2.1,2.3c-1.2,0.1-2.3-0.9-2.3-2.1C216,1037.7,215.8,1035.1,215.8,1032.6z M215.8,497v-22.2
				c0-1.2,1-2.3,2.3-2.3c1.2,0,2.3,1,2.3,2.3V497c0,1.2-1,2.3-2.3,2.3C216.9,499.1,215.8,498.2,215.8,497z M217.1,448.4
				c0-0.1,0-0.2,0-0.3c1.1-7.5,2.8-14.8,5.3-21.8c0.4-1.1,1.7-1.8,2.8-1.4s1.8,1.7,1.4,2.8c-2.4,6.8-4.1,13.9-5.1,21
				c-0.2,1.2-1.2,2-2.5,1.9C217.9,450.4,217.1,449.5,217.1,448.4z M218,523.3c0-1,0.8-1.9,1.8-2.1c1.2-0.2,2.4,0.6,2.6,1.8
				c1.4,7.1,3.4,14.1,6,20.8c0.4,1.1-0.1,2.4-1.2,2.8c-1.1,0.5-2.4-0.1-2.8-1.2c-2.7-7-4.9-14.2-6.2-21.6
				C218,523.7,218,523.6,218,523.3z M219.5,1066.4c0-1,0.7-1.9,1.7-2.1c1.2-0.2,2.4,0.5,2.6,1.7c1.6,7.1,3.6,14.1,6.2,20.8
				c0.5,1.1-0.1,2.4-1.2,2.8c-1.1,0.5-2.4-0.1-2.8-1.2c-2.6-6.9-4.7-14.1-6.4-21.5C219.5,1066.6,219.5,1066.5,219.5,1066.4z
				 M219.5,1534.9c0-0.2,0-0.3,0.1-0.6c1.8-7.2,4.4-14.4,7.5-21.1c0.6-1.1,1.8-1.6,2.9-1.1c1.1,0.6,1.6,1.8,1.1,2.9
				c-3,6.6-5.4,13.5-7.2,20.5c-0.3,1.1-1.5,1.9-2.7,1.6C220.1,1536.7,219.5,1535.9,219.5,1534.9z M221.2,991.9c0-0.2,0-0.3,0.1-0.6
				c1.9-7.2,4.4-14.4,7.5-21.1c0.5-1.1,1.8-1.6,2.9-1.1c1.1,0.5,1.6,1.8,1.1,2.9c-2.9,6.6-5.3,13.4-7.2,20.6
				c-0.3,1.1-1.6,1.9-2.7,1.6C221.8,993.8,221.2,992.9,221.2,991.9z M233.6,403.1c0-0.4,0.1-0.8,0.3-1.1c4-6.3,8.5-12.4,13.5-18
				c0.8-0.9,2.3-1,3.2-0.1c0.9,0.8,1,2.3,0.1,3.2c-4.9,5.3-9.3,11.2-13,17.3c-0.7,1-2,1.4-3,0.7
				C233.9,404.6,233.6,403.8,233.6,403.1z M236.4,568c0-0.7,0.3-1.4,1-1.8c1-0.7,2.4-0.5,3,0.6c4.1,6,8.7,11.6,13.8,16.7
				c0.9,0.9,0.9,2.3,0,3.2s-2.3,0.9-3.2,0c-5.3-5.3-10.1-11.2-14.2-17.4C236.5,568.9,236.4,568.4,236.4,568z M237.4,1111.2
				c0-0.8,0.3-1.5,1-1.9c1-0.7,2.4-0.3,3.1,0.7c3.8,6.2,8.1,12.1,12.8,17.5c0.8,0.9,0.7,2.4-0.2,3.2c-0.9,0.8-2.4,0.7-3.2-0.2
				c-4.9-5.7-9.3-11.8-13.2-18.1C237.5,1112,237.4,1111.7,237.4,1111.2z M240.6,1491.5c0-0.5,0.1-0.9,0.4-1.4
				c4.5-6,9.7-11.5,15.3-16.5c0.9-0.8,2.3-0.8,3.2,0.1c0.8,0.9,0.8,2.3-0.1,3.2c-5.3,4.9-10.3,10.2-14.7,15.9
				c-0.8,1-2.1,1.1-3.1,0.5C240.8,1492.8,240.6,1492.1,240.6,1491.5z M241.3,947.9c0-0.4,0.1-0.9,0.3-1.2c4.3-6.2,9-12.1,14.1-17.4
				c0.8-0.9,2.3-0.9,3.2-0.1s0.9,2.3,0.1,3.2c-5,5.2-9.6,10.8-13.7,16.8c-0.7,1-2,1.2-3,0.6C241.6,949.4,241.3,948.6,241.3,947.9z
				 M266.7,367.9c0-0.7,0.3-1.4,0.9-1.8c6.1-4.3,12.7-8.1,19.4-11.2c1.1-0.6,2.4,0,2.9,1.1c0.6,1.1,0,2.4-1.1,2.9
				c-6.6,3.1-12.9,6.7-18.8,10.9c-1,0.7-2.4,0.4-3-0.6C266.8,368.8,266.7,368.4,266.7,367.9z M269.8,1147.3c0-0.4,0.1-0.9,0.5-1.4
				c0.8-1,2.1-1.1,3.1-0.4c5.9,4.4,12,8.2,18.4,11.4c1.1,0.6,1.6,1.8,1,2.9s-1.8,1.6-2.9,1c-6.7-3.3-13.1-7.2-19.1-11.9
				C270,1148.5,269.8,1148,269.8,1147.3z M271,601.7c0-0.5,0.1-0.8,0.3-1.2c0.7-1,2-1.4,3-0.7c6.1,4,12.5,7.2,19.2,9.9
				c1.1,0.4,1.7,1.7,1.2,2.8c-0.4,1.1-1.7,1.7-2.8,1.2c-6.9-2.8-13.7-6.3-19.9-10.4C271.3,603.1,271,602.4,271,601.7z M275.5,913.8
				c0-0.7,0.3-1.5,1-1.8c6.3-4.2,13-7.8,19.8-10.6c1.1-0.4,2.4,0.1,2.9,1.2c0.4,1.1-0.1,2.4-1.2,2.9c-6.6,2.7-13,6.1-19.1,10.2
				c-1,0.7-2.4,0.4-3-0.6C275.6,914.7,275.5,914.3,275.5,913.8z M277,1459.9c0-0.8,0.4-1.5,1.1-1.9c6.6-3.7,13.4-6.8,20.6-9.2
				c1.1-0.3,2.4,0.2,2.8,1.4c0.3,1.1-0.2,2.4-1.4,2.8c-6.8,2.3-13.4,5.3-19.8,8.8c-1,0.6-2.4,0.2-3.1-0.8
				C277.1,1460.6,277,1460.2,277,1459.9z M310.9,348.6c0-1,0.7-1.9,1.8-2.1c7.3-1.6,14.8-2.4,22.3-2.6c1.2,0,2.3,0.9,2.3,2.1
				c0,1.2-0.9,2.3-2.1,2.3c-7.2,0.2-14.5,1-21.5,2.5c-1.2,0.2-2.4-0.6-2.6-1.7C310.9,349,310.9,348.7,310.9,348.6z M313.5,1167.5
				c0-0.1,0-0.3,0-0.4c0.2-1.2,1.5-1.9,2.6-1.7c7,1.5,14.2,2.3,21.5,2.3c1.2,0,2.1,1,2.1,2.3c0,1.2-1,2.3-2.3,2.1
				c-7.6,0-15-0.8-22.4-2.4C314.2,1169.4,313.5,1168.5,313.5,1167.5z M316,619.1c0-0.1,0-0.2,0-0.3c0.2-1.2,1.4-2,2.5-1.8
				c6.3,1,12.9,1.6,19.3,1.6h2.3c1.2,0,2.3,1,2.3,2.3c0,1.2-1,2.3-2.3,2.3h-2.3c-6.8,0-13.4-0.6-20-1.7
				C316.8,621.1,316,620.1,316,619.1z M320.4,896.4c0-1.1,0.8-2,1.9-2.1c5.1-0.8,10.4-1.1,15.6-1.1h6.8c1.2,0,2.3,1,2.3,2.3
				c0,1.2-1,2.3-2.3,2.3h-6.8c-5,0-10.1,0.3-14.9,1.1c-1.2,0.2-2.4-0.7-2.5-1.9C320.5,896.6,320.4,896.5,320.4,896.4z M323,1445.2
				c0-1.1,0.8-2,2-2.1c4.3-0.4,8.6-0.7,12.9-0.7h9.4c1.2,0,2.3,1,2.3,2.3c0,1.2-1,2.3-2.3,2.3h-9.4c-4.2,0-8.4,0.2-12.4,0.7
				c-1.2,0.1-2.3-0.8-2.4-1.9C323,1445.3,323,1445.3,323,1445.2z M359.4,346c0-1.2,1-2.3,2.3-2.3h22.2c1.2,0,2.3,1,2.3,2.3
				c0,1.2-1,2.3-2.3,2.3h-22.2C360.4,348.3,359.4,347.3,359.4,346z M361.9,1169.9c0-1.2,1-2.3,2.3-2.3h22.2c1.2,0,2.3,1,2.3,2.3
				c0,1.2-1,2.3-2.3,2.3h-22.2C362.9,1172.2,361.9,1171.1,361.9,1169.9z M364.6,620.6c0-1.2,1-2.3,2.3-2.3h22c1.2,0,2.3,1,2.3,2.3
				c0,1.2-1,2.3-2.3,2.3h-22.2C365.5,622.9,364.6,621.9,364.6,620.6z M369,895.3c0-1.2,1-2.3,2.3-2.3h22.2c1.2,0,2.3,1,2.3,2.3
				c0,1.2-1,2.3-2.3,2.3h-22.2C370,897.5,369,896.5,369,895.3z M371.6,1444.5c0-1.2,1-2.3,2.3-2.3H396c1.2,0,2.3,1,2.3,2.3
				c0,1.2-1,2.3-2.3,2.3h-22.2C372.6,1446.8,371.6,1445.8,371.6,1444.5z M408,346c0-1.2,1-2.3,2.3-2.3h22.2c1.2,0,2.3,1,2.3,2.3
				c0,1.2-1,2.3-2.3,2.3h-22.2C409,348.3,408,347.3,408,346z M410.6,1169.9c0-1.2,1-2.3,2.3-2.3H435c1.2,0,2.3,1,2.3,2.3
				c0,1.2-1,2.3-2.3,2.3h-22.2C411.5,1172.2,410.6,1171.1,410.6,1169.9z M413.2,620.6c0-1.2,1-2.3,2.3-2.3h22c1.2,0,2.3,1,2.3,2.3
				c0,1.2-1,2.3-2.3,2.3h-22.2C414.2,622.9,413.2,621.9,413.2,620.6z M417.6,895.3c0-1.2,1-2.3,2.3-2.3H442c1.2,0,2.3,1,2.3,2.3
				c0,1.2-1,2.3-2.3,2.3h-22.2C418.6,897.5,417.6,896.5,417.6,895.3z M420.3,1444.5c0-1.2,1-2.3,2.3-2.3h22.2c1.2,0,2.3,1,2.3,2.3
				c0,1.2-1,2.3-2.3,2.3h-22.2C421.2,1446.8,420.3,1445.8,420.3,1444.5z M456.6,346c0-1.2,1-2.3,2.3-2.3H481c1.2,0,2.3,1,2.3,2.3
				c0,1.2-1,2.3-2.3,2.3h-22.2C457.6,348.3,456.6,347.3,456.6,346z M459.2,1169.9c0-1.2,1-2.3,2.3-2.3h22.2c1.2,0,2.3,1,2.3,2.3
				c0,1.2-1,2.3-2.3,2.3h-22.2C460.2,1172.2,459.2,1171.1,459.2,1169.9z M461.8,620.6c0-1.2,1-2.3,2.3-2.3h22c1.2,0,2.3,1,2.3,2.3
				c0,1.2-1,2.3-2.3,2.3h-22.2C462.8,622.9,461.8,621.9,461.8,620.6z M466.3,895.3c0-1.2,1-2.3,2.3-2.3h22c1.2,0,2.3,1,2.3,2.3
				c0,1.2-1,2.3-2.3,2.3h-22.2C467.2,897.5,466.3,896.5,466.3,895.3z M468.9,1444.5c0-1.2,1-2.3,2.3-2.3h22.2c1.2,0,2.3,1,2.3,2.3
				c0,1.2-1,2.3-2.3,2.3h-22.2C469.9,1446.8,468.9,1445.8,468.9,1444.5z M505.2,345.1c0-1.1,0.8-2,1.9-2.1c7.1-0.9,14.1-2.6,21-5
				c1.1-0.4,2.4,0.2,2.8,1.4c0.4,1.1-0.2,2.4-1.4,2.8c-7.1,2.5-14.5,4.3-21.9,5.2c-1.2,0.1-2.4-0.7-2.5-1.9
				C505.2,345.3,505.2,345.2,505.2,345.1z M507.2,1171.1c0-0.1,0-0.2,0-0.3c0.2-1.2,1.4-2,2.5-1.8c7.3,1.1,14.7,3.1,21.8,5.7
				c1.1,0.5,1.7,1.7,1.2,2.8c-0.5,1.1-1.7,1.7-2.8,1.2c-6.8-2.5-13.8-4.4-20.9-5.4C508,1173.2,507.2,1172.2,507.2,1171.1z
				 M510.2,622.3c0-0.1,0-0.2,0-0.3c0.2-1.2,1.4-2,2.6-1.8c7.3,1.4,14.6,3.4,21.6,6.2c1.1,0.4,1.7,1.7,1.2,2.8
				c-0.4,1.1-1.7,1.7-2.8,1.2c-6.7-2.7-13.7-4.7-20.8-6C511,624.3,510.2,623.4,510.2,622.3z M514.7,892.8c0-1,0.7-1.9,1.7-2.1
				c7-1.6,13.9-3.8,20.5-6.9c1.1-0.4,2.4,0,2.9,1.1c0.6,1.1,0,2.4-1.1,2.9c-6.9,3.2-14,5.5-21.4,7.1c-1.2,0.2-2.4-0.5-2.6-1.7
				C514.7,893,514.7,892.9,514.7,892.8z M517.1,1441.3c0-1,0.7-1.9,1.7-2.1c6.9-1.7,13.8-4.2,20.3-7.3c1.1-0.6,2.4-0.1,2.9,1
				s0.1,2.4-1,2.9c-6.8,3.3-13.9,5.9-21.1,7.7c-1.1,0.3-2.4-0.5-2.7-1.6C517.3,1441.7,517.1,1441.5,517.1,1441.3z M550.4,328.4
				c0-0.7,0.3-1.5,1-1.8c6-3.8,11.8-8.4,17.1-13.4c0.9-0.8,2.3-0.8,3.2,0.1c0.8,0.9,0.8,2.3-0.1,3.2c-5.5,5.2-11.4,9.8-17.6,13.9
				c-1,0.7-2.4,0.3-3.1-0.7C550.5,329.3,550.4,328.8,550.4,328.4z M552.1,1188.9c0-0.4,0.1-0.9,0.3-1.2c0.7-1,2-1.2,3.1-0.6
				c6.1,4.2,12,8.9,17.4,14.2c0.9,0.9,0.9,2.3,0,3.2s-2.3,0.9-3.2,0c-5.2-5.1-10.8-9.7-16.7-13.7
				C552.4,1190.2,552.1,1189.6,552.1,1188.9z M554.7,641.2c0-0.5,0.1-0.9,0.5-1.2c0.7-1,2-1.2,3-0.6c6,4.3,11.8,9.2,17.1,14.6
				c0.9,0.9,0.8,2.3,0,3.2c-0.9,0.9-2.3,0.8-3.2,0c-5.1-5.2-10.6-9.9-16.5-14.1C554.9,642.6,554.7,641.9,554.7,641.2z M558.2,872.1
				c0-0.7,0.3-1.4,0.9-1.8c5.7-4.3,11.1-9.3,15.9-14.7c0.8-0.9,2.3-1,3.2-0.1c0.9,0.8,1,2.3,0.1,3.2c-5.1,5.7-10.6,10.7-16.5,15.3
				c-1,0.8-2.4,0.6-3.1-0.5C558.4,873,558.2,872.5,558.2,872.1z M560.2,1419.5c0-0.7,0.2-1.2,0.8-1.7c5.5-4.5,10.8-9.5,15.6-15
				c0.8-0.9,2.1-1,3.2-0.2c0.9,0.8,1,2.1,0.2,3.2c-5,5.7-10.4,11-16.2,15.6c-0.9,0.8-2.4,0.6-3.1-0.3
				C560.4,1420.6,560.2,1420.1,560.2,1419.5z M584.9,294.7c0-0.4,0.1-0.9,0.5-1.2c4.1-5.9,7.8-12.2,11.1-18.8c0.6-1.1,1.8-1.6,2.9-1
				c1.1,0.6,1.6,1.8,1,2.9c-3.3,6.8-7.1,13.2-11.4,19.3c-0.7,1-2,1.2-3.1,0.6C585.3,296.1,584.9,295.4,584.9,294.7z M586.1,1223.1
				c0-0.7,0.3-1.4,1-1.8c1-0.7,2.4-0.4,3.1,0.6c4.2,6.1,7.9,12.7,11.1,19.6c0.6,1.1,0,2.4-1,2.9c-1.1,0.6-2.4,0-2.9-1
				c-3.1-6.6-6.7-13-10.7-18.9C586.2,1224,586.1,1223.6,586.1,1223.1z M587.9,676.2c0-0.7,0.3-1.5,1-1.8c1-0.7,2.4-0.3,3.1,0.7
				c4.1,6.2,7.6,12.9,10.6,19.7c0.5,1.1,0,2.4-1.1,2.9c-1.1,0.5-2.4,0-2.9-1.1c-2.9-6.7-6.4-13.1-10.4-19.1
				C588,677.1,587.9,676.7,587.9,676.2z M590.3,835.9c0-0.3,0.1-0.8,0.3-1.1c3.7-6.1,7-12.7,9.7-19.4c0.4-1.1,1.8-1.7,2.8-1.2
				c1.1,0.4,1.7,1.7,1.2,2.9c-2.8,7-6.2,13.7-10.1,20c-0.7,1-2,1.4-3,0.8C590.6,837.4,590.3,836.6,590.3,835.9z M591.5,1382.7
				c0-0.3,0.1-0.8,0.3-1.1c3.6-6.2,6.8-12.8,9.4-19.7c0.4-1.1,1.7-1.7,2.8-1.2c1.1,0.5,1.7,1.7,1.2,2.8c-2.7,7-6,13.8-9.6,20.2
				c-0.6,1-1.9,1.5-3,0.8C591.8,1384.2,591.5,1383.5,591.5,1382.7z M605.6,251c0-0.2,0-0.4,0.1-0.6c1.9-6.9,3.4-14.1,4.4-21.4
				c0.1-1.2,1.2-2,2.5-1.9c1.2,0.1,2,1.2,1.9,2.5c-1,7.5-2.5,14.8-4.5,21.9c-0.3,1.1-1.6,1.8-2.7,1.6
				C606.2,252.8,605.6,251.9,605.6,251z M606,1267.2c0-1,0.7-1.9,1.7-2.1c1.1-0.3,2.4,0.3,2.7,1.6c1.9,7.1,3.3,14.6,4.2,22
				c0.1,1.2-0.7,2.3-1.9,2.5c-1.2,0.1-2.3-0.7-2.5-1.9c-0.8-7.2-2.1-14.5-4.1-21.4C606.1,1267.6,606,1267.4,606,1267.2z
				 M606.9,720.8c0-1,0.7-1.9,1.7-2.1c1.1-0.3,2.4,0.4,2.7,1.6c1.8,7.2,3.1,14.6,3.7,22c0.1,1.2-0.8,2.3-2,2.4
				c-1.2,0.1-2.3-0.8-2.4-2c-0.7-7.2-1.9-14.5-3.6-21.5C607,721.1,606.9,720.9,606.9,720.8z M607.9,790.8c0-0.1,0-0.3,0-0.5
				c1.5-7,2.5-14.2,3.1-21.6c0.1-1.2,1.1-2.1,2.4-2c1.2,0.1,2.1,1.1,2,2.4c-0.6,7.5-1.6,14.9-3.2,22.1c-0.2,1.2-1.5,1.9-2.6,1.7
				C608.7,792.8,607.9,791.9,607.9,790.8z M608.2,1337.3c0-0.1,0-0.3,0-0.4c1.4-7.1,2.3-14.4,2.6-21.6c0.1-1.2,1.1-2.1,2.4-2.1
				c1.2,0,2.1,1.1,2.1,2.4c-0.3,7.5-1.2,14.9-2.7,22.3c-0.2,1.2-1.4,2-2.6,1.7C609,1339.3,608.2,1338.4,608.2,1337.3z M611.4,202.8
				v-22.2c0-1.2,1-2.3,2.3-2.3c1.2,0,2.3,1,2.3,2.3v22.2c0,1.2-1,2.3-2.3,2.3C612.4,205.1,611.4,204.1,611.4,202.8z M611.4,154.2
				v-22c0-1.2,1-2.3,2.3-2.3c1.2,0,2.3,1,2.3,2.3v22.2c0,1.2-1,2.3-2.3,2.3C612.4,156.5,611.4,155.5,611.4,154.2z M611.4,105.6v-22
				c0-1.2,1-2.3,2.3-2.3c1.2,0,2.3,1,2.3,2.3v22.2c0,1.2-1,2.3-2.3,2.3C612.4,107.9,611.4,106.9,611.4,105.6z"/>
		</g>
	</g>
</g>
</svg>
