<?xml version="1.0" encoding="utf-8"?>
<!-- Generator: Adobe Illustrator 28.3.0, SVG Export Plug-In . SVG Version: 6.00 Build 0)  -->
<svg version="1.1" xmlns="http://www.w3.org/2000/svg" xmlns:xlink="http://www.w3.org/1999/xlink" x="0px" y="0px"
	 viewBox="0 0 500 500" style="enable-background:new 0 0 500 500;" xml:space="preserve">
<style type="text/css">
	.st0{fill:#FFFFFF;}
	.st1{fill:#42454C;}
	.st2{fill:#EA4332;}
	.st3{fill:#C41414;}
	.st4{fill:#3C474C;}
	.st5{fill:#F9E873;}
	.st6{fill:#D82B27;}
	.st7{fill:#CC1D1D;}
	.st8{fill:#B4B8BF;}
	.st9{fill:#FB6E06;}
	.st10{fill:#192023;}
	.st11{fill:#FB8B08;}
	.st12{fill:#10181B;}
	.st13{fill:#676C73;}
	.st14{fill:#D9873B;}
	.st15{fill:#DE9753;}
	.st16{fill:#D87F4A;}
	.st17{fill:#2C3336;}
	.st18{fill:#624429;}
	.st19{fill:#2A3336;}
	.st20{fill:#F56C05;}
	.st21{fill:#9CA0A6;}
	.st22{fill:#1E2528;}
	.st23{fill:#5B5F66;}
	.st24{fill:#FB8E14;}
	.st25{fill:#FB7B09;}
	.st26{fill:#F98B0C;}
	.st27{fill:#EF7C22;}
	.st28{fill:#2D3438;}
	.st29{fill:#A49F9D;}
	.st30{fill:#252E32;}
	.st31{fill:#E85A15;}
	.st32{fill:#D77D25;}
	.st33{fill:#FD8B04;}
	.st34{fill:#FD6E03;}
	.st35{fill:#1F2527;}
	.st36{fill:#F77B04;}
	.st37{fill:#8D9095;}
	.st38{fill:#44474A;}
	.st39{fill:#43454A;}
	.st40{fill:#FDA947;}
	.st41{fill:#FD8B07;}
</style>
<g id="BACKGROUND">
	<rect class="st0" width="500" height="500"/>
</g>
<g id="DESIGNED_BY_FREEPIK">
</g>
<g id="OBJECTS">
	<g>
		<g>
			<path class="st1" d="M346.8,193.52c0,3.27-2.26,5.94-5.03,5.94h-4.85c-2.76,0-5.03-2.68-5.03-5.94v-24.35
				c0-3.27,2.26-5.94,5.03-5.94h4.85c2.76,0,5.03,2.67,5.03,5.94V193.52z"/>
			<path class="st1" d="M476.29,193.52c0,3.27-2.26,5.94-5.02,5.94h-4.85c-2.76,0-5.02-2.68-5.02-5.94v-24.35
				c0-3.27,2.26-5.94,5.02-5.94h4.85c2.76,0,5.02,2.67,5.02,5.94V193.52z"/>
		</g>
		<path class="st2" d="M473.42,125.8c0,0-1.22-1.07-3.15-2.73c-0.03-0.04-0.05-0.07-0.08-0.11l-18.53-21.12
			c-1.78-2.03-5.37-3.68-7.97-3.68h-34.85c-2.61,0-6.87,0-9.48,0H364.5c-2.61,0-6.2,1.66-7.97,3.68L338,122.95
			c-0.03,0.04-0.05,0.07-0.08,0.11c-1.93,1.67-3.15,2.73-3.15,2.73c-12.57,8.16-12.45,33.73-8.22,45.11h0.27l0.02,0.11
			c0.55,2.42,2.61,4.39,4.57,4.39h72.69h72.68c1.96,0,4.01-1.97,4.57-4.39l0.02-0.11h0.27C485.87,159.53,485.99,133.96,473.42,125.8
			z"/>
		<g>
			<path class="st3" d="M465.6,120.25h3.16c0,0-0.99-4.55,2.57-4.55c3.56,0,7.31,0,7.31,0s2.92-0.1,2.92,2.92
				c0,3.01,0.15,6.77-2.82,6.77c-2.96,0-13.14,0-13.14,0V120.25z"/>
			<path class="st3" d="M342.59,120.25h-3.16c0,0,0.99-4.55-2.57-4.55c-3.56,0-7.31,0-7.31,0s-2.92-0.1-2.92,2.92
				c0,3.01-0.14,6.77,2.82,6.77c2.96,0,13.14,0,13.14,0V120.25z"/>
		</g>
		<g>
			<path class="st4" d="M448.32,107.2c-1.79-2.22-5.39-4.03-8-4.03h-31.49c-2.61,0-4.74,0-4.74,0c0,0-2.13,0-4.74,0h-31.49
				c-2.61,0-6.21,1.81-8,4.03l-13.34,16.53c-1.79,2.22-1.12,4.03,1.49,4.03h51.35c2.61,0,4.74,0,4.74,0c0,0,2.13,0,4.74,0h51.34
				c2.61,0,3.28-1.81,1.49-4.03L448.32,107.2z"/>
			<g>
				<g>
					<path class="st5" d="M455.84,150.38c-5.22,0-9.49-1.63-9.49-3.63c0-2,4.04-4.72,9-6.04l4.19-1.13c4.95-1.33,9,0.56,9,4.19
						c0,3.63-4.27,6.61-9.5,6.61H455.84z"/>
					<path class="st5" d="M349.02,150.38c5.22,0,9.5-1.63,9.5-3.63c0-2-4.05-4.72-9-6.04l-4.19-1.13c-4.95-1.33-9,0.56-9,4.19
						c0,3.63,4.27,6.61,9.5,6.61H349.02z"/>
				</g>
				<g>
					<path class="st6" d="M402.43,131.39L402.43,131.39h-59.84c0,0,21.52,5.46,30.61,27.98h29.24h0h29.23
						c9.09-22.52,30.61-27.98,30.61-27.98H402.43z"/>
					<g>
						<path class="st7" d="M402.43,145.38L402.43,145.38l-33.38,0c4.15,5.17,8,12.01,8,12.01h25.38v0h25.38c0,0,3.85-6.84,8-12.01
							H402.43z"/>
						<g>
							<g>
								<path class="st2" d="M374.78,147.89c18.44,0,36.87,0,55.31,0c0.57,0,0.57-0.89,0-0.89c-18.44,0-36.87,0-55.31,0
									C374.2,147,374.2,147.89,374.78,147.89L374.78,147.89z"/>
							</g>
							<g>
								<path class="st2" d="M377.15,151.45c18.44,0,32.13,0,50.57,0c0.57,0,0.57-0.89,0-0.89c-18.44,0-32.13,0-50.57,0
									C376.57,150.56,376.57,151.45,377.15,151.45L377.15,151.45z"/>
							</g>
							<g>
								<path class="st2" d="M379.52,155c18.44,0,27.39,0,45.83,0c0.57,0,0.57-0.89,0-0.89c-18.44,0-27.39,0-45.83,0
									C378.94,154.11,378.94,155,379.52,155L379.52,155z"/>
							</g>
						</g>
					</g>
				</g>
			</g>
		</g>
		<g>
			<path class="st8" d="M484.4,177.61c0,2.61-2.13,4.74-4.74,4.74H328.83c-2.61,0-4.74-2.13-4.74-4.74v-3.85
				c0-2.61,2.13-4.74,4.74-4.74h150.82c2.61,0,4.74,2.13,4.74,4.74V177.61z"/>
			<rect x="384.92" y="163.53" class="st0" width="35.02" height="8.8"/>
		</g>
	</g>
	<g>
		<g>
			<path class="st9" d="M468.26,280.15h3.16c0,0-0.99-4.55,2.57-4.55c3.56,0,7.31,0,7.31,0s2.92-0.1,2.92,2.92s0.15,6.77-2.82,6.77
				s-13.14,0-13.14,0V280.15z"/>
			<path class="st9" d="M345.24,280.15h-3.16c0,0,0.99-4.55-2.57-4.55c-3.56,0-7.31,0-7.31,0s-2.92-0.1-2.92,2.92
				s-0.14,6.77,2.82,6.77c2.96,0,13.14,0,13.14,0V280.15z"/>
		</g>
		<g>
			<path class="st10" d="M349.46,353.41c0,3.27-2.26,5.95-5.02,5.95h-4.85c-2.77,0-5.03-2.68-5.03-5.95v-24.35
				c0-3.27,2.26-5.94,5.03-5.94h4.85c2.76,0,5.02,2.67,5.02,5.94V353.41z"/>
			<path class="st10" d="M478.94,353.41c0,3.27-2.26,5.95-5.03,5.95h-4.85c-2.76,0-5.02-2.68-5.02-5.95v-24.35
				c0-3.27,2.26-5.94,5.02-5.94h4.85c2.76,0,5.03,2.67,5.03,5.94V353.41z"/>
		</g>
		<path class="st11" d="M476.08,285.69c0,0-1.22-1.07-3.15-2.73c-0.03-0.04-0.05-0.07-0.08-0.11l-18.53-21.12
			c-1.78-2.03-5.37-3.68-7.97-3.68h-34.85c-2.61,0-6.87,0-9.48,0h-34.85c-2.61,0-6.19,1.66-7.97,3.68l-18.53,21.12
			c-0.03,0.04-0.05,0.07-0.08,0.11c-1.93,1.67-3.15,2.73-3.15,2.73c-12.56,8.16-12.45,33.73-8.22,45.11h0.27l0.02,0.11
			c0.55,2.42,2.61,4.39,4.57,4.39h72.69h72.68c1.96,0,4.01-1.97,4.57-4.39l0.02-0.11h0.27
			C488.53,319.42,488.64,293.85,476.08,285.69z"/>
		<path class="st12" d="M448.21,267.09c-1.68-2.22-5.05-4.03-7.49-4.03H411.2c-2.44,0-4.44,0-4.44,0c0,0-2,0-4.44,0h-29.52
			c-2.44,0-5.82,1.81-7.49,4.03l-12.51,16.53c-1.68,2.22-1.05,4.03,1.39,4.03h48.13c2.44,0,4.44,0,4.44,0c0,0,2,0,4.44,0h48.13
			c2.44,0,3.07-1.81,1.39-4.03L448.21,267.09z"/>
		<path class="st13" d="M487.05,337.5c0,2.61-2.13,4.74-4.74,4.74H331.49c-2.61,0-4.74-2.13-4.74-4.74v-3.85
			c0-2.61,2.13-4.74,4.74-4.74h150.82c2.61,0,4.74,2.13,4.74,4.74V337.5z"/>
		<g>
			<g>
				<rect x="341.95" y="303.53" class="st14" width="129.49" height="19.35"/>
				<g>
					<path class="st11" d="M409.12,308.07c-1.22,0-3.22,0-4.44,0h-21.76c-1.22,0-1.8,0.91-1.29,2.01l3.34,7.22
						c0.51,1.11,1.93,2.01,3.15,2.01h16.57c1.22,0,3.21,0,4.44,0h16.57c1.22,0,2.64-0.91,3.15-2.01l3.33-7.22
						c0.51-1.11-0.07-2.01-1.29-2.01H409.12z"/>
					<g>
						<rect x="393.22" y="309.91" class="st0" width="27.37" height="6.88"/>
					</g>
				</g>
				<g>
					<g>
						<polygon class="st9" points="371.9,309.17 366.54,318.22 348.25,318.22 354.16,309.17 						"/>
						<polygon class="st15" points="348.25,318.22 362.97,318.22 366.36,312.49 351.99,312.49 						"/>
					</g>
					<g>
						<polygon class="st9" points="441.89,309.17 447.25,318.22 465.55,318.22 459.64,309.17 						"/>
						<polygon class="st15" points="465.55,318.22 450.83,318.22 447.44,312.49 461.81,312.49 						"/>
					</g>
				</g>
			</g>
			<path class="st11" d="M470.81,295.69c-3.73-3.23-9.83-6.21-9.83-6.21h-53.25h-1.67h-53.25c0,0-6.1,2.98-9.83,6.21
				c-3.73,3.23-3.42,7.84-3.42,7.84h66.49h1.67h66.49C474.22,303.53,474.54,298.92,470.81,295.69z"/>
			<g>
				<path class="st16" d="M410.24,303.03c0,1.96-1.59,3.55-3.55,3.55c-1.96,0-3.55-1.59-3.55-3.55c0-1.96,1.59-3.55,3.55-3.55
					C408.65,299.48,410.24,301.07,410.24,303.03z"/>
				<path class="st17" d="M409.11,303.03c0,1.33-1.08,2.41-2.41,2.41c-1.33,0-2.41-1.08-2.41-2.41c0-1.33,1.08-2.41,2.41-2.41
					C408.03,300.61,409.11,301.69,409.11,303.03z"/>
			</g>
		</g>
	</g>
	<g>
		<rect x="32.75" y="77.25" class="st18" width="248.62" height="31.87"/>
		<path class="st11" d="M289.13,55.41l-18.61-17.31c-5.27-4.9-15.47-8.91-22.67-8.91h-88.03c-7.2,0-18.26,2.81-24.59,6.24
			l-38.49,20.9c-6.32,3.43-17.26,7.44-24.31,8.91l-42.02,8.73c-7.05,1.46-13.91,8.45-15.24,15.52l-1.28,6.79
			c-1.34,7.07,3.46,12.86,10.65,12.86h17.69c0-13.51,10.95-24.45,24.45-24.45c13.51,0,24.45,10.95,24.45,24.45h135.27
			c0-13.51,10.95-24.45,24.45-24.45c13.5,0,24.45,10.95,24.45,24.45h10.33c7.2,0,13.08-5.89,13.08-13.08V77.41
			C298.71,70.21,294.4,60.31,289.13,55.41z"/>
		<g>
			<g>
				<g>
					<rect x="102.14" y="64.16" class="st9" width="76.19" height="42.53"/>
					<path class="st19" d="M163.87,69.15c0,0.65,0.53,1.19,1.19,1.19h7.55c0.66,0,1.19-0.53,1.19-1.19l0,0
						c0-0.66-0.53-1.19-1.19-1.19h-7.55C164.41,67.97,163.87,68.5,163.87,69.15L163.87,69.15z"/>
				</g>
				<g>
					<path class="st9" d="M182.47,64.16h53.23v23.45c0,0-12.23,4.34-12.23,19.08h-41V64.16z"/>
					<path class="st19" d="M222.81,69.15c0,0.65,0.53,1.19,1.19,1.19h7.55c0.66,0,1.19-0.53,1.19-1.19l0,0
						c0-0.66-0.53-1.19-1.19-1.19H224C223.35,67.97,222.81,68.5,222.81,69.15L222.81,69.15z"/>
				</g>
			</g>
			<g>
				<g>
					<path class="st19" d="M103.3,61.66c-1.44,0-1.56-0.52-0.27-1.16l44.6-22.1c1.29-0.64,3.52-1.16,4.96-1.16h23.12
						c1.44,0,2.62,1.18,2.62,2.62v19.19c0,1.44-1.18,2.62-2.62,2.62H103.3z"/>
					<path class="st19" d="M237.27,59.04c0,1.44-1.33,2.62-2.96,2.62h-48.88c-1.63,0-2.96-1.18-2.96-2.62V39.85
						c0-1.44,1.33-2.62,2.96-2.62h48.88c1.63,0,2.96,1.18,2.96,2.62V59.04z"/>
					<path class="st19" d="M273.22,49.75l-15.04-10.86c-1.26-0.91-3.63-1.66-5.25-1.66H235.7c1.63,0,2.51,1.18,2.51,2.62v19.19
						c0,1.44-0.88,2.62-2.51,2.62h36.86c1.63,0,2.96-1.18,2.96-2.62v-5.02C275.51,52.58,274.48,50.66,273.22,49.75z"/>
				</g>
				<path class="st20" d="M105.36,54.75c0,0-4.28,0.29-4.28,4.71c0,4.41,4.28,4.71,4.28,4.71h6.41v-4.71v-4.71H105.36z"/>
			</g>
		</g>
		<g>
			<path class="st21" d="M300.06,111.03c0,2.59-2.12,4.71-4.71,4.71H14.99c-2.59,0-4.71-2.12-4.71-4.71v-3.82
				c0-2.59,2.12-4.71,4.71-4.71h280.37c2.59,0,4.71,2.12,4.71,4.71V111.03z"/>
			<g>
				<g>
					<path class="st22" d="M45.16,109.12c0,11.88,9.63,21.51,21.51,21.51c11.88,0,21.51-9.63,21.51-21.51
						c0-11.88-9.63-21.51-21.51-21.51C54.79,87.61,45.16,97.24,45.16,109.12z"/>
					<path class="st23" d="M53.67,108.55c0,7.18,5.82,13,13,13c7.18,0,13-5.82,13-13c0-7.18-5.82-13-13-13
						C59.49,95.55,53.67,101.37,53.67,108.55z"/>
				</g>
				<g>
					<path class="st22" d="M229.34,109.12c0,11.88,9.63,21.51,21.51,21.51c11.88,0,21.51-9.63,21.51-21.51
						c0-11.88-9.63-21.51-21.51-21.51C238.97,87.61,229.34,97.24,229.34,109.12z"/>
					<path class="st23" d="M237.84,108.55c0,7.18,5.82,13,13,13c7.18,0,13.01-5.82,13.01-13c0-7.18-5.82-13-13.01-13
						C243.66,95.55,237.84,101.37,237.84,108.55z"/>
				</g>
			</g>
		</g>
		<g>
			<path class="st24" d="M19.52,88.61c0.59-1.32,2.72-2.4,4.74-2.4h6.94c2.02,0,3.7,0.94,3.72,2.09c0.03,1.15-1.47,2.74-3.32,3.54
				l-3.25,1.39c-1.86,0.8-4.85,1.45-6.64,1.45c-1.79,0-3.26-0.83-3.26-1.84C18.45,91.83,18.93,89.92,19.52,88.61z"/>
			<polygon class="st25" points="298.66,76.22 292.42,76.22 295.54,93.19 298.66,93.19 			"/>
		</g>
	</g>
	<g>
		<path class="st26" d="M277.26,199.53c-8.88-1.32-24.34-2.4-34.34-2.4H58.86c-10,0-21.05,1.64-24.55,3.65
			c-3.5,2.01-8.17,11.63-10.38,21.39l-1.57,6.95c-2.21,9.76-2.21,25.72,0,35.48l1.57,6.95c2.21,9.76,6.87,19.38,10.38,21.39
			c3.5,2.01,14.55,3.65,24.55,3.65h184.06c10,0,25.46-1.08,34.34-2.4c8.88-1.32,16.15-10.58,16.15-20.59v-8.55c0-10,0-26.37,0-36.37
			v-8.55C293.41,210.12,286.14,200.85,277.26,199.53z"/>
		<g>
			<path class="st27" d="M83.39,205.14c-15.49,15.24-45.15,21.29-45.15,21.29v20.35v0.95v20.35c0,0,29.66,6.05,45.15,21.29
				c0,0-6.39-16.12-6.45-42.12C77,221.26,83.39,205.14,83.39,205.14z"/>
			<g>
				<path class="st28" d="M66.12,247.26L66.12,247.26l0-22.67c-5.3,2.96-12.31,4.57-12.31,4.57v18.1h0v18.1
					c0,0,7.01,1.61,12.31,4.57V247.26z"/>
				<g>
					<g>
						<path class="st26" d="M63.54,227.54c0,13.15,0,26.3,0,39.44c0,0.41,0.91,0.41,0.91,0c0-13.15,0-26.3,0-39.44
							C64.45,227.13,63.54,227.13,63.54,227.54L63.54,227.54z"/>
					</g>
					<g>
						<path class="st26" d="M59.9,229.23c0,13.15,0,22.92,0,36.06c0,0.41,0.91,0.41,0.91,0c0-13.15,0-22.92,0-36.06
							C60.81,228.82,59.9,228.82,59.9,229.23L59.9,229.23z"/>
					</g>
					<g>
						<path class="st26" d="M56.25,230.92c0,13.15,0,19.53,0,32.68c0,0.41,0.91,0.41,0.91,0c0-13.15,0-19.53,0-32.68
							C57.16,230.51,56.25,230.51,56.25,230.92L56.25,230.92z"/>
					</g>
				</g>
			</g>
		</g>
		<g>
			<path class="st29" d="M26.47,213.68c0.09,0.11,0.19,0.21,0.31,0.28c1.7,1.15,6.33-0.73,10.3-4.17l3.36-2.91
				c3.19-2.76,4.27-6.22,2.98-8.56c-4.11,0.65-7.45,1.51-9.1,2.46C31.85,202.19,28.82,207.35,26.47,213.68z"/>
			<path class="st29" d="M26.47,280.07c0.09-0.11,0.19-0.21,0.31-0.28c1.7-1.15,6.33,0.73,10.3,4.17l3.36,2.92
				c3.19,2.76,4.27,6.22,2.98,8.56c-4.11-0.65-7.45-1.51-9.1-2.46C31.85,291.57,28.82,286.4,26.47,280.07z"/>
		</g>
		<g>
			<path class="st30" d="M83.51,246.85c0,0-1.17,33.73,11.43,42.85l29.04-8.66c0,0-3.15-11.4-3.15-34.19s3.15-34.19,3.15-34.19
				l-29.04-8.66C82.34,213.12,83.51,246.85,83.51,246.85z"/>
			<g>
				<path class="st30" d="M101.11,290.1l33.9-5.85c0,0,61.59-3.22,96.96,0l17.68,4C249.66,288.25,128.37,293.62,101.11,290.1z"/>
				<path class="st30" d="M99.64,203.09l33.9,5.85c0,0,63.07,3.22,98.44,0l17.68-4C249.66,204.94,126.9,199.57,99.64,203.09z"/>
			</g>
			<path class="st30" d="M233.78,211.75c0,0,13.37,13.75,13.37,34.82s-13.37,34.82-13.37,34.82l18.7,1.47
				c20.28-9.73,19-36.29,19-36.29s0-28.33-19-36.29L233.78,211.75z"/>
		</g>
		<g>
			<path class="st31" d="M293.41,273.59v-3.64l-16.15,9.51v14.72C286.14,292.86,293.41,283.59,293.41,273.59z"/>
			<path class="st31" d="M293.41,220.14v3.64l-16.15-9.51v-14.72C286.14,200.88,293.41,210.14,293.41,220.14z"/>
		</g>
		<g>
			<path class="st31" d="M92.14,296.58c0,0,0.5,12.66,13.4,12.1l-3.47-12.1H92.14z"/>
			<path class="st31" d="M92.14,197.13c0,0,0.5-12.66,13.4-12.1l-3.47,12.1H92.14z"/>
		</g>
	</g>
	<g>
		<rect x="67.06" y="422.91" class="st32" width="235.73" height="30.22"/>
		<path class="st33" d="M59.7,402.2l17.65-16.42c5-4.65,14.67-8.45,21.49-8.45h83.47c6.82,0,17.31,2.66,23.31,5.92l36.5,19.81
			c6,3.26,16.37,7.06,23.05,8.44l39.84,8.28c6.68,1.39,13.19,8.01,14.45,14.71l1.22,6.44c1.27,6.71-3.28,12.19-10.1,12.19h-16.77
			c0-12.81-10.38-23.18-23.18-23.18c-12.81,0-23.19,10.38-23.19,23.18H119.18c0-12.81-10.38-23.18-23.19-23.18
			c-12.8,0-23.18,10.38-23.18,23.18h-9.79c-6.82,0-12.41-5.58-12.41-12.41v-17.67C50.62,416.24,54.7,406.85,59.7,402.2z"/>
		<g>
			<g>
				<g>
					<rect x="164.76" y="410.5" class="st34" width="72.24" height="40.32"/>
					<path class="st35" d="M178.46,415.23c0,0.62-0.51,1.12-1.13,1.12h-7.16c-0.62,0-1.13-0.5-1.13-1.12l0,0
						c0-0.62,0.5-1.13,1.13-1.13h7.16C177.96,414.11,178.46,414.61,178.46,415.23L178.46,415.23z"/>
				</g>
				<g>
					<path class="st34" d="M160.83,410.5h-50.47v22.23c0,0,11.59,4.11,11.59,18.09h38.87V410.5z"/>
					<path class="st35" d="M122.58,415.23c0,0.62-0.51,1.12-1.13,1.12h-7.16c-0.62,0-1.12-0.5-1.12-1.12l0,0
						c0-0.62,0.5-1.13,1.12-1.13h7.16C122.07,414.11,122.58,414.61,122.58,415.23L122.58,415.23z"/>
				</g>
			</g>
			<g>
				<g>
					<path class="st35" d="M235.89,408.13c1.37,0,1.48-0.5,0.26-1.1l-42.28-20.95c-1.22-0.61-3.34-1.1-4.7-1.1h-21.92
						c-1.36,0-2.48,1.12-2.48,2.48v18.2c0,1.37,1.12,2.48,2.48,2.48H235.89z"/>
					<path class="st35" d="M108.87,405.65c0,1.37,1.26,2.48,2.81,2.48h46.34c1.54,0,2.81-1.12,2.81-2.48v-18.2
						c0-1.37-1.26-2.48-2.81-2.48h-46.34c-1.54,0-2.81,1.12-2.81,2.48V405.65z"/>
					<path class="st35" d="M74.78,396.84l14.26-10.3c1.2-0.86,3.44-1.57,4.98-1.57h16.34c-1.55,0-2.38,1.12-2.38,2.48v18.2
						c0,1.37,0.83,2.48,2.38,2.48H75.42c-1.54,0-2.81-1.12-2.81-2.48v-4.76C72.61,399.52,73.59,397.7,74.78,396.84z"/>
				</g>
				<path class="st36" d="M233.94,401.58c0,0,4.05,0.28,4.05,4.46c0,4.18-4.05,4.46-4.05,4.46h-6.08v-4.46v-4.46H233.94z"/>
			</g>
		</g>
		<g>
			<path class="st37" d="M49.34,454.95c0,2.45,2.01,4.46,4.46,4.46h265.83c2.45,0,4.46-2.01,4.46-4.46v-3.63
				c0-2.45-2.01-4.46-4.46-4.46H53.8c-2.46,0-4.46,2.01-4.46,4.46V454.95z"/>
			<g>
				<g>
					<path class="st38" d="M291.02,453.13c0,11.26-9.13,20.39-20.39,20.39c-11.26,0-20.39-9.13-20.39-20.39
						c0-11.26,9.13-20.39,20.39-20.39C281.89,432.74,291.02,441.87,291.02,453.13z"/>
					<path class="st39" d="M282.95,452.59c0,6.81-5.52,12.33-12.33,12.33c-6.81,0-12.33-5.52-12.33-12.33
						c0-6.81,5.52-12.33,12.33-12.33C277.43,440.26,282.95,445.78,282.95,452.59z"/>
				</g>
				<g>
					<path class="st38" d="M116.39,453.13c0,11.26-9.13,20.39-20.39,20.39c-11.26,0-20.39-9.13-20.39-20.39
						c0-11.26,9.13-20.39,20.39-20.39C107.26,432.74,116.39,441.87,116.39,453.13z"/>
					<path class="st39" d="M108.33,452.59c0,6.81-5.52,12.33-12.33,12.33c-6.81,0-12.33-5.52-12.33-12.33
						c0-6.81,5.52-12.33,12.33-12.33C102.81,440.26,108.33,445.78,108.33,452.59z"/>
				</g>
			</g>
		</g>
		<g>
			<path class="st40" d="M315.33,433.68c-0.56-1.25-2.58-2.27-4.5-2.27h-6.58c-1.91,0-3.5,0.89-3.53,1.98
				c-0.03,1.09,1.39,2.6,3.15,3.36l3.08,1.32c1.76,0.76,4.59,1.37,6.3,1.37c1.7,0,3.1-0.78,3.1-1.74
				C316.35,436.74,315.89,434.93,315.33,433.68z"/>
			<polygon class="st41" points="50.66,421.93 56.58,421.93 53.62,438.02 50.66,438.02 			"/>
		</g>
	</g>
</g>
</svg>
