<?xml version="1.0" encoding="utf-8"?>
<!-- Generator: Adobe Illustrator 28.3.0, SVG Export Plug-In . SVG Version: 6.00 Build 0)  -->
<svg version="1.1" id="Layer_1" xmlns="http://www.w3.org/2000/svg" xmlns:xlink="http://www.w3.org/1999/xlink" x="0px" y="0px"
	 viewBox="0 0 2063 1142" style="enable-background:new 0 0 2063 1142;" xml:space="preserve">
<style type="text/css">
	.st0{fill:#FB6E06;}
	.st1{fill:#192023;}
	.st2{fill:#FB8B08;}
	.st3{fill:#10181B;}
	.st4{fill:#676C73;}
	.st5{fill:#D9873B;}
	.st6{fill:#FFFFFF;}
	.st7{fill:#DE9753;}
	.st8{fill:#D87F4A;}
	.st9{fill:#2C3336;}
</style>
<g>
	<g>
		<path class="st0" d="M1544.34,332.56h26.4c0,0-8.25-37.98,21.43-37.98c29.7,0,61.04,0,61.04,0s24.36-0.83,24.36,24.35
			c0,25.18,1.21,56.52-23.53,56.52s-109.7,0-109.7,0V332.56z"/>
		<path class="st0" d="M517.12,332.56h-26.38c0,0,8.24-37.98-21.43-37.98c-29.71,0-61.05,0-61.05,0s-24.37-0.83-24.37,24.35
			c0,25.18-1.21,56.52,23.54,56.52c24.76,0,109.69,0,109.69,0V332.56z"/>
	</g>
	<g>
		<path class="st1" d="M552.3,944.34c0,27.31-18.9,49.65-41.96,49.65h-40.48c-23.09,0-41.98-22.34-41.98-49.65V741.02
			c0-27.29,18.89-49.63,41.98-49.63h40.48c23.05,0,41.96,22.34,41.96,49.63V944.34z"/>
		<path class="st1" d="M1633.59,944.34c0,27.31-18.9,49.65-41.96,49.65h-40.5c-23.08,0-41.96-22.34-41.96-49.65V741.02
			c0-27.29,18.88-49.63,41.96-49.63h40.5c23.06,0,41.96,22.34,41.96,49.63V944.34z"/>
	</g>
	<path class="st2" d="M1609.64,378.85c0,0-10.2-8.91-26.33-22.83c-0.24-0.31-0.38-0.6-0.65-0.91l-154.73-176.35
		c-14.84-16.91-44.8-30.75-66.58-30.75h-291.03c-21.77,0-57.39,0-79.17,0H700.12c-21.77,0-51.73,13.84-66.58,30.75L478.83,355.11
		c-0.27,0.31-0.42,0.6-0.67,0.91c-16.13,13.91-26.34,22.83-26.34,22.83c-104.92,68.13-103.95,281.66-68.63,376.7h2.24l0.2,0.88
		c4.63,20.17,21.78,36.66,38.15,36.66h606.96h606.95c16.37,0,33.52-16.48,38.14-36.66l0.2-0.88h2.24
		C1713.6,660.51,1714.57,446.98,1609.64,378.85z"/>
	<path class="st3" d="M1376.96,223.53c-14.01-18.51-42.17-33.66-62.58-33.66h-246.53c-20.41,0-37.1,0-37.11,0c0,0-16.7,0-37.11,0
		H747.09c-20.4,0-48.57,15.15-62.57,33.66L580.06,361.58c-14.03,18.52-8.79,33.66,11.63,33.66h401.93c20.41,0,37.11,0,37.11,0
		c0.02,0,16.7,0,37.11,0h401.94c20.4,0,25.65-15.14,11.64-33.66L1376.96,223.53z"/>
	<path class="st4" d="M1701.28,811.49c0,21.77-17.81,39.59-39.59,39.59H402.26c-21.77,0-39.59-17.82-39.59-39.59v-32.17
		c0-21.78,17.82-39.58,39.59-39.58h1259.43c21.78,0,39.59,17.8,39.59,39.58V811.49z"/>
	<g>
		<g>
			<rect x="489.62" y="527.82" class="st5" width="1081.27" height="161.58"/>
			<g>
				<path class="st2" d="M1050.5,565.77c-10.19,0-26.85,0-37.04,0H831.72c-10.19,0-15.03,7.56-10.76,16.81l27.85,60.26
					c4.27,9.25,16.1,16.81,26.28,16.81h138.36c10.18,0,26.85,0,37.04,0h138.35c10.19,0,22.02-7.56,26.3-16.81l27.83-60.26
					c4.27-9.25-0.56-16.81-10.75-16.81H1050.5z"/>
				<g>
					<rect x="917.71" y="581.12" class="st6" width="228.55" height="57.43"/>
				</g>
			</g>
			<g>
				<g>
					<polygon class="st0" points="739.75,574.9 694.99,650.52 542.2,650.52 591.59,574.9 					"/>
					<polygon class="st7" points="542.2,650.52 665.14,650.52 693.45,602.68 573.45,602.68 					"/>
				</g>
				<g>
					<polygon class="st0" points="1324.2,574.9 1368.96,650.52 1521.75,650.52 1472.37,574.9 					"/>
					<polygon class="st7" points="1521.75,650.52 1398.82,650.52 1370.5,602.68 1490.51,602.68 					"/>
				</g>
			</g>
		</g>
		<path class="st2" d="M1565.65,462.36c-31.18-26.93-82.09-51.85-82.09-51.85h-444.63h-13.91H580.39c0,0-50.91,24.91-82.09,51.85
			c-31.18,26.94-28.53,65.46-28.53,65.46h555.24h13.91h555.24C1594.18,527.82,1596.83,489.3,1565.65,462.36z"/>
		<g>
			<path class="st8" d="M1059.9,523.62c0,16.37-13.28,29.64-29.63,29.64c-16.38,0-29.65-13.28-29.65-29.64
				c0-16.37,13.28-29.64,29.65-29.64C1046.63,493.98,1059.9,507.25,1059.9,523.62z"/>
			<path class="st9" d="M1050.4,523.62c0,11.12-9.02,20.14-20.13,20.14c-11.13,0-20.14-9.02-20.14-20.14
				c0-11.12,9.01-20.13,20.14-20.13C1041.38,503.49,1050.4,512.5,1050.4,523.62z"/>
		</g>
	</g>
</g>
</svg>
