<?xml version="1.0" encoding="utf-8"?>
<!-- Generator: Adobe Illustrator 28.3.0, SVG Export Plug-In . SVG Version: 6.00 Build 0)  -->
<svg version="1.1" id="Layer_1" xmlns="http://www.w3.org/2000/svg" xmlns:xlink="http://www.w3.org/1999/xlink" x="0px" y="0px"
	 viewBox="0 0 2063 1004.2" style="enable-background:new 0 0 2063 1004.2;" xml:space="preserve">
<style type="text/css">
	.st0{fill:#FB6E06;}
	.st1{fill:#192023;}
	.st2{fill:#FB8B08;}
	.st3{fill:#10181B;}
	.st4{fill:#676C73;}
	.st5{fill:#D9873B;}
	.st6{fill:#FFFFFF;}
	.st7{fill:#DE9753;}
	.st8{fill:#D87F4A;}
	.st9{fill:#2C3336;}
</style>
<g>
	<g>
		<path class="st0" d="M1544.3,332.6h26.4c0,0-8.2-38,21.4-38c29.7,0,61,0,61,0s24.4-0.8,24.4,24.4s1.2,56.5-23.5,56.5
			s-109.7,0-109.7,0L1544.3,332.6L1544.3,332.6z"/>
		<path class="st0" d="M517.1,332.6h-26.4c0,0,8.2-38-21.4-38c-29.7,0-61,0-61,0s-24.4-0.8-24.4,24.4s-1.2,56.5,23.5,56.5
			c24.8,0,109.7,0,109.7,0V332.6z"/>
	</g>
	<g>
		<path class="st1" d="M552.3,944.3c0,27.3-18.9,49.7-42,49.7h-40.5c-23.1,0-42-22.3-42-49.7V741c0-27.3,18.9-49.6,42-49.6h40.5
			c23.1,0,42,22.3,42,49.6V944.3z"/>
		<path class="st1" d="M1633.6,944.3c0,27.3-18.9,49.7-42,49.7h-40.5c-23.1,0-42-22.3-42-49.7V741c0-27.3,18.9-49.6,42-49.6h40.5
			c23.1,0,42,22.3,42,49.6V944.3z"/>
	</g>
	<path class="st2" d="M1609.6,378.9c0,0-10.2-8.9-26.3-22.8c-0.2-0.3-0.4-0.6-0.7-0.9l-154.7-176.4c-14.8-16.9-44.8-30.8-66.6-30.8
		h-291c-21.8,0-57.4,0-79.2,0h-291c-21.8,0-51.7,13.8-66.6,30.8L478.8,355.1c-0.3,0.3-0.4,0.6-0.7,0.9
		c-16.1,13.9-26.3,22.8-26.3,22.8C346.9,447,347.9,660.5,383.2,755.5h2.2l0.2,0.9c4.6,20.2,21.8,36.7,38.1,36.7h607h606.9
		c16.4,0,33.5-16.5,38.1-36.7l0.2-0.9h2.2C1713.6,660.5,1714.6,447,1609.6,378.9z"/>
	<path class="st3" d="M1377,223.5c-14-18.5-42.2-33.7-62.6-33.7h-246.5c-20.4,0-37.1,0-37.1,0c0,0-16.7,0-37.1,0H747.1
		c-20.4,0-48.6,15.1-62.6,33.7l-104.5,138c-14,18.5-8.8,33.7,11.6,33.7h401.9c20.4,0,37.1,0,37.1,0c0,0,16.7,0,37.1,0h401.9
		c20.4,0,25.7-15.1,11.6-33.7L1377,223.5z"/>
	<path class="st4" d="M1701.3,811.5c0,21.8-17.8,39.6-39.6,39.6H402.3c-21.8,0-39.6-17.8-39.6-39.6v-32.2
		c0-21.8,17.8-39.6,39.6-39.6h1259.4c21.8,0,39.6,17.8,39.6,39.6V811.5z"/>
	<g>
		<g>
			<rect x="489.6" y="527.8" class="st5" width="1081.3" height="161.6"/>
			<g>
				<path class="st2" d="M1050.5,565.8c-10.2,0-26.8,0-37,0H831.7c-10.2,0-15,7.6-10.8,16.8l27.8,60.3c4.3,9.2,16.1,16.8,26.3,16.8
					h138.4c10.2,0,26.8,0,37,0h138.3c10.2,0,22-7.6,26.3-16.8l27.8-60.3c4.3-9.2-0.6-16.8-10.8-16.8H1050.5z"/>
				<g>
					<rect x="917.7" y="581.1" class="st6" width="228.5" height="57.4"/>
				</g>
			</g>
			<g>
				<g>
					<polygon class="st0" points="739.8,574.9 695,650.5 542.2,650.5 591.6,574.9 					"/>
					<polygon class="st7" points="542.2,650.5 665.1,650.5 693.5,602.7 573.5,602.7 					"/>
				</g>
				<g>
					<polygon class="st0" points="1324.2,574.9 1369,650.5 1521.8,650.5 1472.4,574.9 					"/>
					<polygon class="st7" points="1521.8,650.5 1398.8,650.5 1370.5,602.7 1490.5,602.7 					"/>
				</g>
			</g>
		</g>
		<path class="st2" d="M1565.7,462.4c-31.2-26.9-82.1-51.9-82.1-51.9h-444.6H1025H580.4c0,0-50.9,24.9-82.1,51.9
			s-28.5,65.5-28.5,65.5H1025h13.9h555.2C1594.2,527.8,1596.8,489.3,1565.7,462.4z"/>
		<g>
			<path class="st8" d="M1059.9,523.6c0,16.4-13.3,29.6-29.6,29.6c-16.4,0-29.7-13.3-29.7-29.6c0-16.4,13.3-29.6,29.7-29.6
				C1046.6,494,1059.9,507.2,1059.9,523.6z"/>
			<path class="st9" d="M1050.4,523.6c0,11.1-9,20.1-20.1,20.1c-11.1,0-20.1-9-20.1-20.1s9-20.1,20.1-20.1
				C1041.4,503.5,1050.4,512.5,1050.4,523.6z"/>
		</g>
	</g>
</g>
</svg>
