<?xml version="1.0" encoding="utf-8"?>
<!-- Generator: Adobe Illustrator 28.3.0, SVG Export Plug-In . SVG Version: 6.00 Build 0)  -->
<svg version="1.1" id="Layer_1" xmlns="http://www.w3.org/2000/svg" xmlns:xlink="http://www.w3.org/1999/xlink" x="0px" y="0px"
	 viewBox="0 0 2063 1142" style="enable-background:new 0 0 2063 1142;" xml:space="preserve">
<style type="text/css">
	.st0{fill:#42454C;}
	.st1{fill:#FB8B08;}
	.st2{fill:#E85A15;}
	.st3{fill:#3C474C;}
	.st4{fill:#F9E873;}
	.st5{fill:#EF7C22;}
	.st6{fill:#252E32;}
	.st7{fill:#B4B8BF;}
	.st8{fill:#FFFFFF;}
</style>
<g>
	<g>
		<path class="st0" d="M590.26,914.77c0,25.14-17.41,45.71-38.64,45.71h-37.27c-21.26,0-38.64-20.57-38.64-45.71V727.55
			c0-25.14,17.38-45.7,38.64-45.7h37.27c21.23,0,38.64,20.57,38.64,45.7V914.77z"/>
		<path class="st0" d="M1585.87,914.77c0,25.14-17.4,45.71-38.63,45.71h-37.28c-21.24,0-38.63-20.57-38.63-45.71V727.55
			c0-25.14,17.39-45.7,38.63-45.7h37.28c21.23,0,38.63,20.57,38.63,45.7V914.77z"/>
	</g>
	<path class="st1" d="M1563.83,394.07c0,0-9.39-8.21-24.24-21.02c-0.22-0.29-0.37-0.56-0.62-0.84l-142.46-162.37
		c-13.67-15.58-41.25-28.32-61.3-28.32h-267.97c-20.06,0-52.85,0-72.9,0H726.37c-20.05,0-47.64,12.74-61.3,28.32L522.61,372.21
		c-0.25,0.29-0.38,0.55-0.61,0.84c-14.86,12.81-24.25,21.02-24.25,21.02c-96.62,62.73-95.72,259.34-63.2,346.86h2.06l0.19,0.82
		c4.26,18.57,20.05,33.75,35.12,33.75h558.88h558.86c15.06,0,30.87-15.18,35.12-33.75l0.18-0.82h2.06
		C1659.56,653.41,1660.46,456.81,1563.83,394.07z"/>
	<g>
		<path class="st2" d="M1503.71,351.45h24.31c0,0-7.6-34.97,19.73-34.97c27.35,0,56.2,0,56.2,0s22.43-0.76,22.43,22.42
			c0,23.18,1.12,52.04-21.67,52.04c-22.77,0-101,0-101,0V351.45z"/>
		<path class="st2" d="M557.87,351.45h-24.31c0,0,7.61-34.97-19.73-34.97c-27.35,0-56.2,0-56.2,0s-22.42-0.76-22.42,22.42
			c0,23.18-1.11,52.04,21.66,52.04c22.8,0,101,0,101,0V351.45z"/>
	</g>
	<g>
		<path class="st3" d="M1370.86,251.06c-13.76-17.05-41.43-30.99-61.47-30.99h-242.14c-20.06,0-36.45,0-36.46,0c0,0-16.41,0-36.45,0
			H752.19c-20.05,0-47.71,13.94-61.47,30.99L588.11,378.17c-13.76,17.05-8.61,31,11.44,31h394.8c20.05,0,36.45,0,36.45,0
			c0.01,0,16.4,0,36.46,0h394.78c20.06,0,25.2-13.95,11.44-31L1370.86,251.06z"/>
		<g>
			<g>
				<path class="st4" d="M1428.66,583.07c-40.14,0-73-12.56-73-27.9c0-15.35,31.1-36.26,69.17-46.48l32.23-8.66
					c38.05-10.22,69.17,4.29,69.17,32.23c0,27.94-32.85,50.81-73.02,50.81H1428.66z"/>
				<path class="st4" d="M607.31,583.07c40.15,0,73.01-12.56,73.01-27.9c0-15.35-31.1-36.26-69.18-46.48l-32.23-8.66
					c-38.03-10.22-69.17,4.29-69.17,32.23c0,27.94,32.86,50.81,73.02,50.81H607.31z"/>
			</g>
			<g>
				<path class="st5" d="M1018,437.07L1018,437.07H557.87c0,0,165.46,41.96,235.32,215.11h224.8h0.01h224.78
					c69.87-173.15,235.33-215.11,235.33-215.11H1018z"/>
				<g>
					<path class="st6" d="M1017.99,544.63L1017.99,544.63l-256.69,0c31.89,39.77,61.52,92.37,61.52,92.37h195.17v0h195.17
						c0,0,29.61-52.59,61.52-92.36H1017.99z"/>
					<g>
						<g>
							<path class="st5" d="M805.35,563.96c141.76,0,283.51,0,425.27,0c4.41,0,4.41-6.84,0-6.84c-141.77,0-283.52,0-425.27,0
								C800.94,557.12,800.94,563.96,805.35,563.96L805.35,563.96z"/>
						</g>
						<g>
							<path class="st5" d="M823.58,591.3c141.77,0,247.06,0,388.83,0c4.4,0,4.4-6.83,0-6.83c-141.77,0-247.06,0-388.83,0
								C819.17,584.46,819.17,591.3,823.58,591.3L823.58,591.3z"/>
						</g>
						<g>
							<path class="st5" d="M841.81,618.63c141.76,0,210.61,0,352.36,0c4.42,0,4.42-6.83,0-6.83c-141.76,0-210.61,0-352.36,0
								C837.4,611.8,837.4,618.63,841.81,618.63L841.81,618.63z"/>
						</g>
					</g>
				</g>
			</g>
		</g>
	</g>
	<g>
		<path class="st7" d="M1648.22,792.44c0,20.05-16.41,36.46-36.46,36.46H452.11c-20.05,0-36.46-16.4-36.46-36.46v-29.62
			c0-20.05,16.41-36.45,36.46-36.45h1159.65c20.05,0,36.46,16.4,36.46,36.45V792.44z"/>
		<rect x="883.36" y="684.23" class="st8" width="269.25" height="67.66"/>
	</g>
</g>
</svg>
