<?xml version="1.0" encoding="utf-8"?>
<!-- Generator: Adobe Illustrator 28.3.0, SVG Export Plug-In . SVG Version: 6.00 Build 0)  -->
<svg version="1.1" id="Layer_1" xmlns="http://www.w3.org/2000/svg" xmlns:xlink="http://www.w3.org/1999/xlink" x="0px" y="0px"
	 viewBox="0 0 2063 1142" style="enable-background:new 0 0 2063 1142;" xml:space="preserve">
<style type="text/css">
	.st0{fill:#D77D25;}
	.st1{fill:#FD8B04;}
	.st2{fill:#FD6E03;}
	.st3{fill:#1F2527;}
	.st4{fill:#F77B04;}
	.st5{fill:#8D9095;}
	.st6{fill:#44474A;}
	.st7{fill:#43454A;}
	.st8{fill:#FDA947;}
	.st9{fill:#FD8B07;}
</style>
<g>
	<rect x="254.76" y="554.64" class="st0" width="1530.19" height="196.17"/>
	<path class="st1" d="M207.02,420.22l114.55-106.56c32.43-30.17,95.21-54.86,139.5-54.86h541.81c44.3,0,112.39,17.29,151.32,38.42
		l236.92,128.61c38.92,21.13,106.26,45.8,149.63,54.81l258.62,53.73c43.37,9.01,85.59,52,93.82,95.52l7.91,41.79
		c8.24,43.53-21.27,79.13-65.56,79.13h-108.86c0-83.12-67.38-150.49-150.49-150.49c-83.13,0-150.51,67.37-150.51,150.49H593.14
		c0-83.12-67.39-150.49-150.51-150.49c-83.11,0-150.5,67.37-150.5,150.49h-63.55c-44.29,0-80.53-36.24-80.53-80.53V555.61
		C148.05,511.32,174.59,450.39,207.02,420.22z"/>
	<g>
		<g>
			<g>
				<rect x="888.98" y="474.11" class="st2" width="468.91" height="261.74"/>
				<path class="st3" d="M977.93,504.81c0,4.03-3.28,7.3-7.32,7.3h-46.48c-4.04,0-7.31-3.27-7.31-7.3l0,0
					c0-4.03,3.27-7.31,7.31-7.31h46.48C974.65,497.51,977.93,500.78,977.93,504.81L977.93,504.81z"/>
			</g>
			<g>
				<path class="st2" d="M863.49,474.11H535.87v144.33c0,0,75.26,26.69,75.26,117.42h252.35V474.11z"/>
				<path class="st3" d="M615.16,504.81c0,4.03-3.28,7.3-7.32,7.3h-46.48c-4.04,0-7.3-3.27-7.3-7.3l0,0c0-4.03,3.26-7.31,7.3-7.31
					h46.48C611.88,497.51,615.16,500.78,615.16,504.81L615.16,504.81z"/>
			</g>
		</g>
		<g>
			<g>
				<path class="st3" d="M1350.72,458.68c8.87,0,9.61-3.22,1.68-7.16L1077.91,315.5c-7.94-3.94-21.68-7.16-30.54-7.16H905.09
					c-8.86,0-16.11,7.25-16.11,16.11v118.12c0,8.87,7.25,16.11,16.11,16.11H1350.72z"/>
				<path class="st3" d="M526.2,442.56c0,8.87,8.21,16.11,18.23,16.11h300.81c10.03,0,18.24-7.25,18.24-16.11V324.45
					c0-8.86-8.21-16.11-18.24-16.11H544.43c-10.02,0-18.23,7.25-18.23,16.11V442.56z"/>
				<path class="st3" d="M304.91,385.39l92.56-66.86c7.77-5.6,22.32-10.2,32.34-10.2h106.07c-10.03,0-15.44,7.25-15.44,16.11v118.12
					c0,8.87,5.41,16.11,15.44,16.11H309.02c-10.03,0-18.22-7.25-18.22-16.11v-30.87C290.8,402.83,297.15,391,304.91,385.39z"/>
			</g>
			<path class="st4" d="M1338.05,416.17c0,0,26.31,1.81,26.31,28.97c0,27.16-26.31,28.97-26.31,28.97h-39.48v-28.97v-28.97H1338.05z
				"/>
		</g>
	</g>
	<g>
		<path class="st5" d="M139.74,762.59c0,15.93,13.04,28.97,28.98,28.97h1725.58c15.93,0,28.97-13.04,28.97-28.97v-23.54
			c0-15.93-13.04-28.97-28.97-28.97H168.71c-15.94,0-28.98,13.03-28.98,28.97V762.59z"/>
		<g>
			<g>
				<path class="st6" d="M1708.56,750.82c0,73.11-59.27,132.38-132.38,132.38c-73.11,0-132.39-59.27-132.39-132.38
					c0-73.11,59.27-132.38,132.39-132.38C1649.29,618.43,1708.56,677.71,1708.56,750.82z"/>
				<path class="st7" d="M1656.22,747.29c0,44.21-35.83,80.03-80.03,80.03c-44.2,0-80.04-35.82-80.04-80.03
					c0-44.2,35.83-80.03,80.04-80.03C1620.39,667.26,1656.22,703.09,1656.22,747.29z"/>
			</g>
			<g>
				<path class="st6" d="M575.01,750.82c0,73.11-59.26,132.38-132.38,132.38c-73.11,0-132.39-59.27-132.39-132.38
					c0-73.11,59.28-132.38,132.39-132.38C515.75,618.43,575.01,677.71,575.01,750.82z"/>
				<path class="st7" d="M522.67,747.29c0,44.21-35.83,80.03-80.02,80.03c-44.21,0-80.05-35.82-80.05-80.03
					c0-44.2,35.84-80.03,80.05-80.03C486.84,667.26,522.67,703.09,522.67,747.29z"/>
			</g>
		</g>
	</g>
	<g>
		<path class="st8" d="M1866.38,624.54c-3.62-8.11-16.77-14.76-29.2-14.76h-42.7c-12.43,0-22.75,5.79-22.92,12.87
			c-0.18,7.08,9.04,16.88,20.46,21.78l19.98,8.56c11.43,4.9,29.82,8.91,40.87,8.91c11.05,0,20.09-5.09,20.09-11.31
			C1872.97,644.38,1870,632.65,1866.38,624.54z"/>
		<polygon class="st9" points="148.32,548.29 186.76,548.29 167.54,652.73 148.32,652.73 		"/>
	</g>
</g>
</svg>
