<?xml version="1.0" encoding="utf-8"?>
<!-- Generator: Adobe Illustrator 28.3.0, SVG Export Plug-In . SVG Version: 6.00 Build 0)  -->
<svg version="1.1" id="Layer_1" xmlns="http://www.w3.org/2000/svg" xmlns:xlink="http://www.w3.org/1999/xlink" x="0px" y="0px"
	 viewBox="0 0 2063 1142" style="enable-background:new 0 0 2063 1142;" xml:space="preserve">
<style type="text/css">
	.st0{fill:#F98B0C;}
	.st1{fill:#EF7C22;}
	.st2{fill:#2D3438;}
	.st3{fill:#A49F9D;}
	.st4{fill:#252E32;}
	.st5{fill:#E85A15;}
</style>
<g>
	<path class="st0" d="M1796.37,269.87c-56.53-8.41-154.87-15.28-218.51-15.28H406.63c-63.64,0-133.95,10.45-156.23,23.22
		c-22.28,12.77-51.98,74.02-66.02,136.1l-10,44.21c-14.04,62.09-14.04,163.68,0,225.76l10,44.21
		c14.04,62.09,43.74,123.33,66.02,136.1c22.28,12.77,92.59,23.22,156.23,23.22h1171.22c63.65,0,161.98-6.88,218.51-15.29
		c56.54-8.4,102.78-67.36,102.78-131v-54.4c0-63.65,0-167.81,0-231.46v-54.39C1899.15,337.22,1852.9,278.27,1796.37,269.87z"/>
	<g>
		<path class="st1" d="M562.69,305.58c-98.58,96.99-287.32,135.5-287.32,135.5v129.48v6.03v129.48c0,0,188.74,38.51,287.32,135.5
			c0,0-40.64-102.57-41.04-268C522.05,408.14,562.69,305.58,562.69,305.58z"/>
		<g>
			<path class="st2" d="M452.81,573.57L452.81,573.57l0.01-144.26c-33.74,18.83-78.36,29.08-78.36,29.08v115.19h0.01v115.19
				c0,0,44.62,10.25,78.35,29.08V573.57z"/>
			<g>
				<g>
					<path class="st0" d="M436.41,448.08c0,83.67,0,167.33,0,251c0,2.6,5.8,2.6,5.8,0c0-83.67,0-167.33,0-251
						C442.22,445.48,436.41,445.48,436.41,448.08L436.41,448.08z"/>
				</g>
				<g>
					<path class="st0" d="M413.22,458.83c0,83.67,0,145.82,0,229.49c0,2.59,5.81,2.59,5.81,0c0-83.67,0-145.82,0-229.49
						C419.03,456.24,413.22,456.24,413.22,458.83L413.22,458.83z"/>
				</g>
				<g>
					<path class="st0" d="M390.04,469.6c0,83.66,0,124.3,0,207.97c0,2.6,5.79,2.6,5.79,0c0-83.67,0-124.3,0-207.97
						C395.83,466.99,390.04,466.99,390.04,469.6L390.04,469.6z"/>
				</g>
			</g>
		</g>
	</g>
	<g>
		<path class="st3" d="M200.51,359.9c0.57,0.69,1.21,1.31,1.94,1.8c10.79,7.29,40.25-4.65,65.52-26.55l21.39-18.54
			c20.27-17.59,27.19-39.59,18.96-54.46c-26.15,4.15-47.42,9.64-57.93,15.66C234.76,286.77,215.48,319.65,200.51,359.9z"/>
		<path class="st3" d="M200.51,782.38c0.57-0.69,1.21-1.31,1.94-1.8c10.79-7.3,40.25,4.65,65.52,26.55l21.39,18.55
			c20.27,17.59,27.19,39.58,18.96,54.45c-26.15-4.15-47.42-9.63-57.93-15.66C234.76,855.51,215.48,822.64,200.51,782.38z"/>
	</g>
	<g>
		<path class="st4" d="M563.46,570.99c0,0-7.45,214.63,72.71,272.65l184.8-55.11c0,0-20.04-72.51-20.04-217.55
			s20.04-217.55,20.04-217.55l-184.8-55.11C556.01,356.35,563.46,570.99,563.46,570.99z"/>
		<g>
			<path class="st4" d="M675.47,846.22l215.71-37.24c0,0,391.94-20.49,617,0l112.54,25.43
				C1620.71,834.4,848.95,868.56,675.47,846.22z"/>
			<path class="st4" d="M666.09,292.49l215.7,37.25c0,0,401.32,20.49,626.38,0l112.54-25.43
				C1620.71,304.31,839.57,270.14,666.09,292.49z"/>
		</g>
		<path class="st4" d="M1519.71,347.6c0,0,85.08,87.48,85.08,221.56s-85.08,221.55-85.08,221.55l119.01,9.37
			c129.05-61.92,120.9-230.92,120.9-230.92s0.02-180.27-120.9-230.93L1519.71,347.6z"/>
	</g>
	<g>
		<path class="st5" d="M1899.15,741.13v-23.18l-102.78,60.5v93.69C1852.9,863.73,1899.15,804.77,1899.15,741.13z"/>
		<path class="st5" d="M1899.15,401.03v23.19l-102.78-60.5v-93.69C1852.9,278.44,1899.15,337.39,1899.15,401.03z"/>
	</g>
	<g>
		<path class="st5" d="M618.36,887.42c0,0,3.16,80.58,85.24,77.01l-22.1-77.01H618.36z"/>
		<path class="st5" d="M618.36,254.58c0,0,3.17-80.58,85.25-77.01l-22.1,77.01H618.36z"/>
	</g>
</g>
</svg>
