<?xml version="1.0" encoding="utf-8"?>
<!-- Generator: Adobe Illustrator 28.3.0, SVG Export Plug-In . SVG Version: 6.00 Build 0)  -->
<svg version="1.1" id="Layer_1" xmlns="http://www.w3.org/2000/svg" xmlns:xlink="http://www.w3.org/1999/xlink" x="0px" y="0px"
	 viewBox="0 0 800 1400" style="enable-background:new 0 0 800 1400;" xml:space="preserve">
<style type="text/css">
	.st0{opacity:0.5;fill:url(#SVGID_1_);enable-background:new    ;}
	.st1{display:none;opacity:0.3;}
	.st2{display:inline;}
	.st3{fill:url(#SVGID_00000175287114265996966300000002311969645918812075_);}
	.st4{fill:url(#SVGID_00000157998883370581621260000007717215364473193124_);}
	.st5{opacity:0.5;fill:#FFFFFF;enable-background:new    ;}
	.st6{fill:url(#SVGID_00000177453842240833671490000000096601283454683549_);}
	.st7{fill:url(#SVGID_00000107562238501559206190000017337483996985245871_);}
	.st8{fill:url(#SVGID_00000096028230193203973130000005272313384932684699_);}
	.st9{fill:url(#SVGID_00000016757496546006723560000010040317113730657719_);}
	.st10{fill:url(#SVGID_00000013170681780950217580000013596654953487398528_);}
	.st11{fill:url(#SVGID_00000099626427347785545200000017678310303268530343_);}
	.st12{opacity:0.4;fill:#FFFFFF;enable-background:new    ;}
	.st13{fill:url(#SVGID_00000166654847834500213910000016878064215300377497_);}
	.st14{fill:url(#SVGID_00000044868417817997341500000003774117648779966626_);}
	.st15{fill:url(#SVGID_00000134225012736902969930000013514088980280356246_);}
	.st16{display:none;opacity:0.5;fill:url(#SVGID_00000028302952116390728720000006841660501770046085_);enable-background:new    ;}
	.st17{display:none;opacity:0.5;}
	.st18{display:inline;opacity:0.65;fill:#FFFFFF;enable-background:new    ;}
	.st19{display:none;opacity:0.7;}
	.st20{display:inline;fill:#D77D25;}
	.st21{display:inline;fill:#FD8B04;}
	.st22{fill:#FD6E03;}
	.st23{fill:#1F2527;}
	.st24{fill:#F77B04;}
	.st25{fill:#8D9095;}
	.st26{fill:#44474A;}
	.st27{fill:#43454A;}
	.st28{fill:#FDA947;}
	.st29{fill:#FD8B07;}
	.st30{display:none;}
	.st31{display:inline;opacity:0.2;fill:#B495C1;enable-background:new    ;}
	.st32{display:inline;fill:#FFFFFF;}
	.st33{fill:#20382B;stroke:#000000;stroke-miterlimit:10;}
	.st34{fill:#FFE3CB;stroke:#000000;stroke-miterlimit:10;}
	.st35{fill:#FFB995;}
	.st36{fill:#332C26;}
	.st37{fill:#FFFFFF;}
	.st38{fill:none;stroke:#000000;stroke-miterlimit:10;}
	.st39{stroke:#000000;stroke-width:0.5;stroke-miterlimit:10;}
	.st40{fill:none;stroke:#000000;stroke-width:0.75;stroke-miterlimit:10;}
	.st41{fill:#332C26;stroke:#000000;stroke-miterlimit:10;}
	.st42{fill:none;stroke:#FFB995;stroke-miterlimit:10;}
	.st43{opacity:0.44;fill:#D8B8A3;enable-background:new    ;}
	.st44{fill:#FFB995;stroke:#000000;stroke-width:0.5;stroke-miterlimit:10;}
	.st45{fill:none;stroke:#000000;stroke-width:2;stroke-miterlimit:10;}
	.st46{fill:#305437;stroke:#000000;stroke-miterlimit:10;}
	.st47{fill:#305437;}
	.st48{fill:#FFFFFF;stroke:#000000;stroke-miterlimit:10;}
	.st49{fill:#C87529;stroke:#000000;stroke-miterlimit:10;}
	.st50{fill:#304D37;stroke:#000000;stroke-miterlimit:10;}
	.st51{fill:#20382B;}
	.st52{display:inline;fill:none;stroke:#F48E8E;stroke-width:30;stroke-miterlimit:10;}
	.st53{display:inline;fill:#C4925C;}
	.st54{display:inline;fill:#E0BF6C;}
	.st55{display:none;fill:none;}
	.st56{display:none;enable-background:new    ;}
	.st57{font-family:'MyriadHebrew-Regular';}
	.st58{font-size:36px;}
</style>
<linearGradient id="SVGID_1_" gradientUnits="userSpaceOnUse" x1="667.3252" y1="-38.3284" x2="273.2702" y2="1050.0164">
	<stop  offset="0" style="stop-color:#63C3FF"/>
	<stop  offset="0.171" style="stop-color:#64BDFA"/>
	<stop  offset="0.4038" style="stop-color:#68ABEC"/>
	<stop  offset="0.6719" style="stop-color:#6D8FD6"/>
	<stop  offset="0.9646" style="stop-color:#7567B6"/>
	<stop  offset="1" style="stop-color:#7662B2"/>
</linearGradient>
<rect class="st0" width="800" height="1400"/>
<g class="st1">
	<g class="st2">
		<g>
			<g>
				
					<linearGradient id="SVGID_00000116222310198235402580000011006659476710571142_" gradientUnits="userSpaceOnUse" x1="-156.1968" y1="833.5155" x2="-724.7829" y2="-112.0679" gradientTransform="matrix(-1 0 0 -1 -210.3754 1382.5968)">
					<stop  offset="0" style="stop-color:#FDF53F"/>
					<stop  offset="1" style="stop-color:#D93C65"/>
				</linearGradient>
				<path style="fill:url(#SVGID_00000116222310198235402580000011006659476710571142_);" d="M252.4,931.8v-49.9H409v49.9
					c0,46.8,7.6,93.4,22.4,137.8l83.8,250.4h-369l83.8-250.4C244.9,1025.1,252.4,978.6,252.4,931.8z"/>
				
					<linearGradient id="SVGID_00000023997287462132189220000010158163117832624575_" gradientUnits="userSpaceOnUse" x1="-594.1736" y1="541.2716" x2="-503.6712" y2="457.9141" gradientTransform="matrix(-1 0 0 -1 -210.3754 1382.5968)">
					<stop  offset="0" style="stop-color:#2B3582"/>
					<stop  offset="1" style="stop-color:#150E42"/>
				</linearGradient>
				<path style="fill:url(#SVGID_00000023997287462132189220000010158163117832624575_);" d="M249.6,902.7h162.2
					c6.9,0,12.5-5.6,12.5-12.5l0,0c0-6.9-5.6-12.5-12.5-12.5H249.6c-6.9,0-12.5,5.6-12.5,12.5l0,0
					C237.2,897.1,242.8,902.7,249.6,902.7z"/>
				<path class="st5" d="M410.2,963.7h-159c0.5-6.9,0.9-13.8,1-20.8h156.9C409.4,949.8,409.7,956.8,410.2,963.7z"/>
				<path class="st5" d="M414,996.9H247.5c0.5-3.2,0.9-6.5,1.4-9.7h163.7C413,990.5,413.5,993.7,414,996.9z"/>
			</g>
			<g>
				
					<linearGradient id="SVGID_00000036934017957765354260000001145084384133005220_" gradientUnits="userSpaceOnUse" x1="-563.9745" y1="643.3677" x2="-1132.5613" y2="-302.2167" gradientTransform="matrix(-1 0 0 -1 -210.3754 1382.5968)">
					<stop  offset="0" style="stop-color:#A737D5"/>
					<stop  offset="1" style="stop-color:#EF497A"/>
				</linearGradient>
				<path style="fill:url(#SVGID_00000036934017957765354260000001145084384133005220_);" d="M513.3,851.3V791h189.1v60.2
					c0,56.5,9.2,112.7,27.1,166.3l101.1,302.3H385.1l101.1-302.3C504.2,964,513.3,907.8,513.3,851.3z"/>
				
					<linearGradient id="SVGID_00000158710086805052397040000013506090713236268928_" gradientUnits="userSpaceOnUse" x1="-885.8432" y1="643.7926" x2="-770.5118" y2="537.5662" gradientTransform="matrix(-1 0 0 -1 -210.3754 1382.5968)">
					<stop  offset="0" style="stop-color:#2B3582"/>
					<stop  offset="1" style="stop-color:#150E42"/>
				</linearGradient>
				<path style="fill:url(#SVGID_00000158710086805052397040000013506090713236268928_);" d="M498.3,816.1h219.2
					c1.9,0,3.4-1.5,3.4-3.4v-23.4c0-1.9-1.5-3.4-3.4-3.4H498.3c-1.9,0-3.4,1.5-3.4,3.4v23.4C494.9,814.6,496.4,816.1,498.3,816.1z"
					/>
				<path class="st5" d="M703.8,889.8H511.9c0.6-8.3,1-16.7,1.2-25.1h189.4C702.8,873,703.2,881.4,703.8,889.8z"/>
				<path class="st5" d="M708.4,929.9h-201c0.6-3.9,1.1-7.8,1.6-11.7h197.7C707.2,922.1,707.8,926,708.4,929.9z"/>
			</g>
			<g>
				<g>
					
						<linearGradient id="SVGID_00000116941141565857489880000012354612012235746969_" gradientUnits="userSpaceOnUse" x1="-567.9551" y1="-14.2811" x2="-592.0626" y2="147.9806" gradientTransform="matrix(-1 0 0 -1 -210.3754 1382.5968)">
						<stop  offset="0" style="stop-color:#9F5699"/>
						<stop  offset="1" style="stop-color:#202278"/>
					</linearGradient>
					<path style="fill:url(#SVGID_00000116941141565857489880000012354612012235746969_);" d="M301.9,1213.2h152.7
						c2.2,0,3.9,1.6,3.9,3.7l-2.7,99.1c0,2-1.9,3.6-4,3.6l-149.7-0.6c-2.1,0-3.9-1.7-3.9-3.7l-0.3-98.5
						C298,1214.8,299.8,1213.2,301.9,1213.2z"/>
					<g>
						<g>
							<path class="st5" d="M440,1231.2h4.8c0.2,0,0.4,0.2,0.6,0.3c0.1,0.2,0.2,0.4,0.2,0.6l-0.6,14c0,0.4-0.4,1-0.8,1h-4.6
								c-0.2,0-0.4-0.4-0.6-0.5c-0.1-0.2-0.2-0.5-0.2-0.7l0.5-13.8C439.2,1231.7,439.6,1231.2,440,1231.2z"/>
							<path class="st5" d="M419.5,1231.2h4.8c0.2,0,0.4,0.2,0.6,0.3c0.1,0.2,0.2,0.4,0.2,0.6l-0.2,14c0,0.4-0.4,1.1-0.8,1.1h-4.6
								c-0.2,0-0.4-0.4-0.6-0.5c-0.1-0.2-0.2-0.5-0.2-0.7l0.1-13.8C418.6,1231.7,419,1231.2,419.5,1231.2z"/>
							<path class="st5" d="M401.3,1231.2h4.8c0.5,0,0.8,0.4,0.8,0.8l0.1,13.7c0,0.2-0.1,0.7-0.2,0.8c-0.1,0.2-0.4,0.5-0.6,0.5h-4.6
								c-0.5,0-0.8-0.6-0.8-1l-0.2-13.8c0-0.2,0.1-0.6,0.2-0.7C400.9,1231.4,401.1,1231.2,401.3,1231.2z"/>
							<path class="st5" d="M382.6,1231.5c0.1-0.2,0.4-0.3,0.6-0.3h4.8c0.4,0,0.8,0.4,0.8,0.8l0.5,13.7c0,0.2-0.1,0.7-0.2,0.9
								c-0.1,0.2-0.4,0.5-0.6,0.5h-4.6c-0.4,0-0.8-0.6-0.8-1l-0.6-13.8C382.4,1232.1,382.5,1231.7,382.6,1231.5z"/>
						</g>
						<g>
							<path class="st5" d="M365.8,1231.2h4.8c0.2,0,0.4,0.2,0.6,0.3c0.1,0.2,0.2,0.4,0.2,0.6l-0.6,14c0,0.4-0.4,1-0.8,1h-4.6
								c-0.2,0-0.4-0.4-0.6-0.5c-0.1-0.2-0.2-0.5-0.2-0.7l0.5-13.8C365,1231.7,365.4,1231.2,365.8,1231.2z"/>
							<path class="st5" d="M345.2,1231.2h4.8c0.2,0,0.4,0.2,0.6,0.3c0.1,0.2,0.2,0.4,0.2,0.6l-0.2,14c0,0.4-0.4,1.1-0.8,1.1h-4.6
								c-0.2,0-0.4-0.4-0.6-0.5c-0.1-0.2-0.2-0.5-0.2-0.7l0.1-13.8C344.4,1231.7,344.7,1231.2,345.2,1231.2z"/>
							<path class="st5" d="M327.1,1231.2h4.8c0.5,0,0.8,0.4,0.8,0.8l0.1,13.7c0,0.2-0.1,0.7-0.2,0.8c-0.1,0.2-0.4,0.5-0.6,0.5h-4.6
								c-0.5,0-0.8-0.6-0.8-1l-0.2-13.8c0-0.2,0.1-0.6,0.2-0.7C326.6,1231.4,326.9,1231.2,327.1,1231.2z"/>
							<path class="st5" d="M308.4,1231.5c0.1-0.2,0.4-0.3,0.6-0.3h4.8c0.4,0,0.8,0.4,0.8,0.8l0.5,13.7c0,0.2-0.1,0.7-0.2,0.9
								s-0.4,0.5-0.6,0.5h-4.6c-0.4,0-0.8-0.6-0.8-1l-0.6-13.8C308.1,1232.1,308.2,1231.7,308.4,1231.5z"/>
						</g>
					</g>
					<g>
						<g>
							<path class="st5" d="M440,1260.9h4.8c0.2,0,0.4,0.2,0.6,0.3c0.1,0.2,0.2,0.4,0.2,0.6l-0.6,13.6c0,0.4-0.4,0.7-0.8,0.7h-4.6
								c-0.2,0-0.4,0-0.6-0.2c-0.1-0.2-0.2-0.3-0.2-0.5l0.5-13.7C439.2,1261.3,439.6,1260.9,440,1260.9z"/>
							<path class="st5" d="M419.5,1260.9h4.8c0.2,0,0.4,0.2,0.6,0.3c0.1,0.2,0.2,0.4,0.2,0.6l-0.2,13.6c0,0.4-0.4,0.7-0.8,0.7h-4.6
								c-0.2,0-0.4,0-0.6-0.2s-0.2-0.3-0.2-0.5l0.1-13.7C418.6,1261.3,419,1260.9,419.5,1260.9z"/>
							<path class="st5" d="M401.3,1260.9h4.8c0.5,0,0.8,0.4,0.8,0.8l0.1,13.7c0,0.2-0.1,0.4-0.2,0.5c-0.1,0.2-0.4,0.2-0.6,0.2h-4.6
								c-0.5,0-0.8-0.3-0.8-0.7l-0.2-13.6c0-0.2,0.1-0.5,0.2-0.6C400.9,1261.1,401.1,1260.9,401.3,1260.9z"/>
							<path class="st5" d="M382.6,1261.2c0.1-0.2,0.4-0.3,0.6-0.3h4.8c0.4,0,0.8,0.4,0.8,0.8l0.5,13.7c0,0.2-0.1,0.4-0.2,0.5
								c-0.1,0.2-0.4,0.2-0.6,0.2h-4.6c-0.4,0-0.8-0.3-0.8-0.7l-0.6-13.7C382.4,1261.6,382.5,1261.4,382.6,1261.2z"/>
						</g>
						<g>
							<path class="st5" d="M365.8,1260.9h4.8c0.2,0,0.4,0.2,0.6,0.3c0.1,0.2,0.2,0.4,0.2,0.6l-0.6,13.6c0,0.4-0.4,0.7-0.8,0.7h-4.6
								c-0.2,0-0.4,0-0.6-0.2c-0.1-0.2-0.2-0.3-0.2-0.5l0.5-13.7C365,1261.3,365.4,1260.9,365.8,1260.9z"/>
							<path class="st5" d="M345.2,1260.9h4.8c0.2,0,0.4,0.2,0.6,0.3c0.1,0.2,0.2,0.4,0.2,0.6l-0.2,13.6c0,0.4-0.4,0.7-0.8,0.7h-4.6
								c-0.2,0-0.4,0-0.6-0.2s-0.2-0.3-0.2-0.5l0.1-13.7C344.4,1261.3,344.7,1260.9,345.2,1260.9z"/>
							<path class="st5" d="M327.1,1260.9h4.8c0.5,0,0.8,0.4,0.8,0.8l0.1,13.7c0,0.2-0.1,0.4-0.2,0.5c-0.1,0.2-0.4,0.2-0.6,0.2h-4.6
								c-0.5,0-0.8-0.3-0.8-0.7l-0.2-13.6c0-0.2,0.1-0.5,0.2-0.6C326.6,1261.1,326.9,1260.9,327.1,1260.9z"/>
							<path class="st5" d="M308.4,1261.2c0.1-0.2,0.4-0.3,0.6-0.3h4.8c0.4,0,0.8,0.4,0.8,0.8l0.5,13.7c0,0.2-0.1,0.4-0.2,0.5
								c-0.1,0.2-0.4,0.2-0.6,0.2h-4.6c-0.4,0-0.8-0.3-0.8-0.7l-0.6-13.7C308.1,1261.6,308.2,1261.4,308.4,1261.2z"/>
						</g>
					</g>
				</g>
				<g>
					
						<linearGradient id="SVGID_00000157307307631478477810000003370969979137565856_" gradientUnits="userSpaceOnUse" x1="-268.9518" y1="424.0075" x2="-241.9198" y2="58.3655" gradientTransform="matrix(-1 0 0 -1 -210.3754 1382.5968)">
						<stop  offset="0" style="stop-color:#A737D5"/>
						<stop  offset="1" style="stop-color:#EF497A"/>
					</linearGradient>
					<polygon style="fill:url(#SVGID_00000157307307631478477810000003370969979137565856_);" points="20.5,1303.3 68.2,1303.3 
						63,1027.2 63.1,1019.3 63,1010.2 62.8,1002.4 61.4,954.3 61.4,953 23.8,953 23.8,1027.2 					"/>
					
						<linearGradient id="SVGID_00000067199446487365245570000017843700800328265362_" gradientUnits="userSpaceOnUse" x1="-278.6154" y1="432.7168" x2="-228.8254" y2="432.7168" gradientTransform="matrix(-1 0 0 -1 -210.3754 1382.5968)">
						<stop  offset="0" style="stop-color:#2B3582"/>
						<stop  offset="1" style="stop-color:#150E42"/>
					</linearGradient>
					<path style="fill:url(#SVGID_00000067199446487365245570000017843700800328265362_);" d="M18.5,947.8c0-1.4,1-2.6,2.2-2.6H66
						c1.2,0,2.2,1.2,2.2,2.6v4.3c0,1.4-1,2.6-2.2,2.6H20.7c-1.2,0-2.2-1.2-2.2-2.6L18.5,947.8z"/>
					
						<linearGradient id="SVGID_00000062165116218885268780000008718164220884818604_" gradientUnits="userSpaceOnUse" x1="-287.3554" y1="72.7719" x2="-220.0854" y2="72.7719" gradientTransform="matrix(-1 0 0 -1 -210.3754 1382.5968)">
						<stop  offset="0" style="stop-color:#2B3582"/>
						<stop  offset="1" style="stop-color:#150E42"/>
					</linearGradient>
					<path style="fill:url(#SVGID_00000062165116218885268780000008718164220884818604_);" d="M9.7,1306.9c0-1.9,1.3-3.5,3-3.5H74
						c1.7,0,3,1.6,3,3.5v5.8c0,1.9-1.3,3.5-3,3.5H12.7c-1.7,0-3-1.6-3-3.5L9.7,1306.9z"/>
					<polygon class="st12" points="23.8,1003.5 23.8,1009.8 63.1,1009.8 62.9,1003.5 					"/>
					<polygon class="st12" points="23.8,1017.7 23.8,1027.2 63.6,1027.2 63.4,1017.7 					"/>
				</g>
				<g>
					<g>
						
							<linearGradient id="SVGID_00000144308740139843146850000001018896899344920224_" gradientUnits="userSpaceOnUse" x1="-272.7782" y1="472.2099" x2="-362.0246" y2="234.2187" gradientTransform="matrix(-1 0 0 -1 -210.3754 1382.5968)">
							<stop  offset="0" style="stop-color:#A737D5"/>
							<stop  offset="1" style="stop-color:#EF497A"/>
						</linearGradient>
						<polygon style="fill:url(#SVGID_00000144308740139843146850000001018896899344920224_);" points="98.9,1164.4 142.3,1164.4 
							142.3,1129.8 139.3,1027.2 139.1,1019.3 138.8,1010.2 138.6,1002.4 137.1,954.3 137.1,953 100.6,953 100.6,1027.2 						"/>
						
							<linearGradient id="SVGID_00000083089244113778946290000015703812091384852874_" gradientUnits="userSpaceOnUse" x1="-353.9854" y1="432.7168" x2="-304.1954" y2="432.7168" gradientTransform="matrix(-1 0 0 -1 -210.3754 1382.5968)">
							<stop  offset="0" style="stop-color:#2B3582"/>
							<stop  offset="1" style="stop-color:#150E42"/>
						</linearGradient>
						<path style="fill:url(#SVGID_00000083089244113778946290000015703812091384852874_);" d="M93.8,947.8c0-1.4,1-2.6,2.2-2.6
							h45.3c1.2,0,2.2,1.2,2.2,2.6v4.3c0,1.4-1,2.6-2.2,2.6H96c-1.2,0-2.2-1.2-2.2-2.6V947.8z"/>
					</g>
					<polygon class="st12" points="100.6,1003.5 100.6,1009.8 138.9,1009.8 138.6,1003.5 					"/>
					<polygon class="st12" points="100.6,1017.7 100.6,1027.2 139.4,1027.2 139.1,1017.7 					"/>
				</g>
				<g>
					
						<linearGradient id="SVGID_00000000920680379327287740000011976587202316166028_" gradientUnits="userSpaceOnUse" x1="-527.0923" y1="264.1985" x2="-326.1498" y2="79.1198" gradientTransform="matrix(-1 0 0 -1 -210.3754 1382.5968)">
						<stop  offset="0" style="stop-color:#9F5699"/>
						<stop  offset="1" style="stop-color:#202278"/>
					</linearGradient>
					<path style="fill:url(#SVGID_00000000920680379327287740000011976587202316166028_);" d="M68.4,1137h262.3
						c3.8,0,6.8,2.8,6.7,6.4l-4.6,170.3c-0.1,3.5-3.2,6.3-6.9,6.2l-257.1-1.1c-3.7,0-6.6-2.8-6.7-6.3l-0.6-169.1
						C61.7,1139.8,64.7,1137,68.4,1137z"/>
					<g>
						<g>
							<path class="st5" d="M305.6,1167.9h8.2c0.4,0,0.8,0.3,1,0.5s0.4,0.7,0.4,1l-1,24c0,0.7-0.6,1.8-1.4,1.8h-8
								c-0.4,0-0.7-0.6-1-0.9c-0.3-0.3-0.4-0.8-0.4-1.2l0.8-23.7C304.2,1168.7,304.9,1167.9,305.6,1167.9z"/>
							<path class="st5" d="M270.2,1167.9h8.2c0.4,0,0.7,0.3,1,0.5c0.3,0.2,0.4,0.7,0.4,1l-0.4,24c0,0.7-0.6,1.8-1.4,1.8h-8
								c-0.4,0-0.7-0.6-1-0.9c-0.3-0.2-0.4-0.8-0.4-1.2l0.1-23.7C268.9,1168.7,269.5,1167.9,270.2,1167.9z"/>
							<path class="st5" d="M239.1,1167.9h8.2c0.8,0,1.4,0.7,1.4,1.4l0.2,23.5c0,0.3-0.1,1.2-0.4,1.4c-0.3,0.2-0.6,0.9-1,0.9h-8
								c-0.8,0-1.4-1.1-1.4-1.8l-0.4-23.7c0-0.4,0.1-0.9,0.4-1.2C238.4,1168.3,238.8,1167.9,239.1,1167.9z"/>
							<path class="st5" d="M207,1168.4c0.3-0.3,0.6-0.5,1-0.5h8.2c0.8,0,1.4,0.7,1.4,1.4l0.8,23.5c0,0.4-0.1,1.2-0.4,1.5
								s-0.6,0.9-1,0.9h-8c-0.8,0-1.4-1-1.4-1.7l-1-23.8C206.6,1169.3,206.8,1168.7,207,1168.4z"/>
						</g>
						<g>
							<path class="st5" d="M178.1,1167.9h8.2c0.4,0,0.8,0.3,1,0.5s0.4,0.7,0.4,1l-1,24c0,0.7-0.6,1.8-1.4,1.8h-8
								c-0.4,0-0.7-0.6-1-0.9c-0.3-0.3-0.4-0.8-0.4-1.2l0.8-23.7C176.7,1168.7,177.3,1167.9,178.1,1167.9z"/>
							<path class="st5" d="M142.7,1167.9h8.2c0.4,0,0.7,0.3,1,0.5c0.3,0.2,0.4,0.7,0.4,1l-0.4,24c0,0.7-0.6,1.8-1.4,1.8h-8
								c-0.4,0-0.7-0.6-1-0.9c-0.3-0.2-0.4-0.8-0.4-1.2l0.1-23.7C141.3,1168.7,141.9,1167.9,142.7,1167.9z"/>
							<path class="st5" d="M111.6,1167.9h8.2c0.8,0,1.4,0.7,1.4,1.4l0.2,23.5c0,0.3-0.1,1.2-0.4,1.4c-0.3,0.2-0.6,0.9-1,0.9h-8
								c-0.8,0-1.4-1.1-1.4-1.8l-0.4-23.7c0-0.4,0.1-0.9,0.4-1.2C110.8,1168.3,111.2,1167.9,111.6,1167.9z"/>
							<path class="st5" d="M79.5,1168.4c0.3-0.3,0.6-0.5,1-0.5h8.2c0.8,0,1.4,0.7,1.4,1.4l0.8,23.5c0,0.4-0.1,1.2-0.4,1.5
								s-0.6,0.9-1,0.9h-8c-0.8,0-1.4-1-1.4-1.7l-1-23.8C79.1,1169.3,79.2,1168.7,79.5,1168.4z"/>
						</g>
					</g>
					<g>
						<g>
							<path class="st5" d="M305.6,1219h8.2c0.4,0,0.8,0.3,1,0.5s0.4,0.7,0.4,1l-1,23.4c0,0.7-0.6,1.2-1.4,1.2h-8
								c-0.4,0-0.7,0-1-0.3c-0.3-0.3-0.4-0.6-0.4-0.9l0.8-23.6C304.2,1219.6,304.9,1219,305.6,1219z"/>
							<path class="st5" d="M270.2,1219h8.2c0.4,0,0.7,0.2,1,0.5c0.3,0.2,0.4,0.7,0.4,1l-0.4,23.4c0,0.7-0.6,1.2-1.4,1.2h-8
								c-0.4,0-0.7,0-1-0.3c-0.3-0.2-0.4-0.5-0.4-0.9l0.1-23.6C268.9,1219.7,269.5,1219,270.2,1219z"/>
							<path class="st5" d="M239.1,1219h8.2c0.8,0,1.4,0.7,1.4,1.4l0.2,23.5c0,0.3-0.1,0.6-0.4,0.9c-0.3,0.2-0.6,0.3-1,0.3h-8
								c-0.8,0-1.4-0.5-1.4-1.2l-0.4-23.4c0-0.4,0.1-0.8,0.4-1C238.4,1219.2,238.8,1219,239.1,1219z"/>
							<path class="st5" d="M207,1219.5c0.3-0.3,0.6-0.5,1-0.5h8.2c0.8,0,1.4,0.7,1.4,1.4l0.8,23.5c0,0.4-0.1,0.6-0.4,0.9
								s-0.6,0.3-1,0.3h-8c-0.8,0-1.4-0.5-1.4-1.2l-1-23.5C206.6,1220.1,206.8,1219.8,207,1219.5z"/>
						</g>
						<g>
							<path class="st5" d="M178.1,1219h8.2c0.4,0,0.8,0.3,1,0.5s0.4,0.7,0.4,1l-1,23.4c0,0.7-0.6,1.2-1.4,1.2h-8
								c-0.4,0-0.7,0-1-0.3c-0.3-0.3-0.4-0.6-0.4-0.9l0.8-23.6C176.7,1219.6,177.3,1219,178.1,1219z"/>
							<path class="st5" d="M142.7,1219h8.2c0.4,0,0.7,0.2,1,0.5c0.3,0.2,0.4,0.7,0.4,1l-0.4,23.4c0,0.7-0.6,1.2-1.4,1.2h-8
								c-0.4,0-0.7,0-1-0.3c-0.3-0.2-0.4-0.5-0.4-0.9l0.1-23.6C141.3,1219.7,141.9,1219,142.7,1219z"/>
							<path class="st5" d="M111.6,1219h8.2c0.8,0,1.4,0.7,1.4,1.4l0.2,23.5c0,0.3-0.1,0.6-0.4,0.9c-0.3,0.2-0.6,0.3-1,0.3h-8
								c-0.8,0-1.4-0.5-1.4-1.2l-0.4-23.4c0-0.4,0.1-0.8,0.4-1C110.8,1219.2,111.2,1219,111.6,1219z"/>
							<path class="st5" d="M79.5,1219.5c0.3-0.3,0.6-0.5,1-0.5h8.2c0.8,0,1.4,0.7,1.4,1.4l0.8,23.5c0,0.4-0.1,0.6-0.4,0.9
								s-0.6,0.3-1,0.3h-8c-0.8,0-1.4-0.5-1.4-1.2l-1-23.5C79.1,1220.1,79.2,1219.8,79.5,1219.5z"/>
						</g>
					</g>
				</g>
			</g>
		</g>
	</g>
</g>
<linearGradient id="SVGID_00000075158400945577374160000009023226966032851347_" gradientUnits="userSpaceOnUse" x1="490.4085" y1="772.0058" x2="266.949" y2="154.8303" gradientTransform="matrix(1.0947 -0.1793 0.1793 -3.0491 -54.0898 1907.061)">
	<stop  offset="0" style="stop-color:#63C3FF"/>
	<stop  offset="0.1795" style="stop-color:#69BFFD"/>
	<stop  offset="0.4236" style="stop-color:#7BB5F8"/>
	<stop  offset="0.7049" style="stop-color:#97A5F0"/>
	<stop  offset="1" style="stop-color:#BD8FE5"/>
</linearGradient>
<path style="display:none;opacity:0.5;fill:url(#SVGID_00000075158400945577374160000009023226966032851347_);enable-background:new    ;" d="
	M1004.5,230.2c21.4-154.7,24.7-271.1-10.7-378.9c-32.7-99.3-95.2-187-151.9-160.4c-46.1,21.7-91.5,78.5-132.3,153.4
	c-24.7,45.2-52,77.3-79.8,95.6c-30.8,20.2-69.3,38.2-98.5,27.8c-57.3-20.6-108.8-78.1-162-123.9c-108.9-93.9-238.6-135.2-356.1,23.6
	C-43.5-56.1-98.4,91.1-95.5,238.6c2.2,114,38.3,197.9,34.4,314.7c-4.4,131.9-55.6,239.1-97.1,338.7c-39.3,94.3-74.6,202.9-96.9,324
	c-22.3,121.1-30.7,255.8-16.3,366.4c18.7,144,74.2,230.2,135.7,246.3c61.5,16.1,128.1-30,190.5-99.1s122.1-160.8,183-243.2
	c20.6-27.9,44.5-55.5,63-36.5c20.9,21.4,24.4,89.5,31.9,144c16.7,122,62.2,197.5,113.1,222.9s106.9,6.5,161.8-23
	c61.1-32.8,124.5-81.6,176.8-186.4c52.4-104.8,90.6-278.3,77.7-420.9c-8.2-90.5-35.5-162.1-32.5-260.1c3.1-101.2,37-191.5,66.5-274
	C941.6,525.9,983.1,385,1004.5,230.2z"/>
<g class="st17">
	<path class="st18" d="M209.3,791c-9.1-11.2-22.8-15.8-36.1-12.4c-14.6,3.6-22.8,17.5-36.3,23.1c-23.6,9.7-56.3-9.5-74.3,15.5
		c-22,30.6-38.9,7.7-38.9,28.4c0,20.8,151.7,5.5,226.5,6.6c10.8,0.2,57.8-0.6,37.5-23.1c-6.3-7-15.2-8.1-23.6-9.8
		c-10.9-2.1-36.8-3.3-44.6-11.8c-4.2-4.6-5.9-11.1-9.7-16C209.7,791.4,209.5,791.2,209.3,791z"/>
	<path class="st18" d="M728.8,146.8c-5.3-7.5-13.2-10.6-21-8.4c-8.5,2.5-13.2,11.9-21.1,15.6c-13.7,6.6-32.7-6.4-43.1,10.5
		c-12.7,20.7-22.6,5.2-22.6,19.2c0,14,88,3.7,131.5,4.4c6.3,0.1,33.5-0.4,21.8-15.6c-3.6-4.7-8.8-5.5-13.7-6.6
		c-6.3-1.4-21.3-2.2-25.9-7.9c-2.5-3.1-3.4-7.5-5.6-10.8C729,147.1,728.9,147,728.8,146.8z"/>
	<path class="st18" d="M630.6,165.1c-9.1-11.2-22.8-15.8-36.1-12.4c-14.6,3.6-22.8,17.6-36.3,23.1c-23.6,9.7-56.3-9.5-74.3,15.6
		c-22,30.6-38.9,7.6-38.9,28.4s151.7,5.5,226.5,6.6c10.8,0.2,57.8-0.6,37.5-23.1c-6.3-7-15.2-8.1-23.6-9.8
		c-10.9-2.1-36.8-3.3-44.7-11.8c-4.2-4.6-5.9-11.1-9.7-16C630.9,165.5,630.8,165.3,630.6,165.1z"/>
	<path class="st18" d="M243.6,72.6c-9.1-11.2-22.8-15.8-36.1-12.4c-14.6,3.6-22.8,17.5-36.3,23.1c-23.6,9.7-56.3-9.5-74.3,15.6
		c-22,30.6-38.9,7.7-38.9,28.4s151.7,5.5,226.5,6.6c10.8,0.2,57.8-0.6,37.5-23.1c-6.3-7-15.2-8.1-23.6-9.8
		c-10.9-2.1-36.8-3.3-44.6-11.8c-4.2-4.6-5.9-11.1-9.7-16C243.9,73,243.8,72.8,243.6,72.6z"/>
</g>
<g class="st19">
	<rect x="44" y="1348.3" class="st20" width="151.8" height="19.4"/>
	<path class="st21" d="M39.3,1335l11.4-10.6c3.2-3,9.4-5.4,13.8-5.4h53.7c4.4,0,11.1,1.7,15,3.8l23.5,12.8
		c3.9,2.1,10.5,4.5,14.8,5.4l25.6,5.3c4.3,0.9,8.5,5.2,9.3,9.5l0.8,4.1c0.8,4.3-2.1,7.8-6.5,7.8H190c0-8.2-6.7-14.9-14.9-14.9
		s-14.9,6.7-14.9,14.9H77.6c0-8.2-6.7-14.9-14.9-14.9c-8.2,0-14.9,6.7-14.9,14.9h-6.3c-4.4,0-8-3.6-8-8v-11.4
		C33.4,1344,36.1,1338,39.3,1335z"/>
	<g class="st2">
		<g>
			<g>
				<rect x="106.9" y="1340.3" class="st22" width="46.5" height="26"/>
				<path class="st23" d="M115.7,1343.4c0,0.4-0.3,0.7-0.7,0.7h-4.6c-0.4,0-0.7-0.3-0.7-0.7l0,0c0-0.4,0.3-0.7,0.7-0.7h4.6
					C115.4,1342.7,115.7,1343,115.7,1343.4L115.7,1343.4z"/>
			</g>
			<g>
				<path class="st22" d="M104.4,1340.3H71.9v14.3c0,0,7.5,2.7,7.5,11.6h25V1340.3z"/>
				<path class="st23" d="M79.8,1343.4c0,0.4-0.3,0.7-0.7,0.7h-4.6c-0.4,0-0.7-0.3-0.7-0.7l0,0c0-0.4,0.3-0.7,0.7-0.7H79
					C79.4,1342.7,79.8,1343,79.8,1343.4L79.8,1343.4z"/>
			</g>
		</g>
		<g>
			<g>
				<path class="st23" d="M152.7,1338.8c0.9,0,0.9-0.3,0.2-0.7l-27.2-13.5c-0.8-0.4-2.2-0.7-3-0.7h-14.1c-0.9,0-1.6,0.7-1.6,1.6
					v11.7c0,0.9,0.7,1.6,1.6,1.6H152.7z"/>
				<path class="st23" d="M70.9,1337.2c0,0.9,0.8,1.6,1.8,1.6h29.8c1,0,1.8-0.7,1.8-1.6v-11.7c0-0.9-0.8-1.6-1.8-1.6H72.7
					c-1,0-1.8,0.7-1.8,1.6L70.9,1337.2L70.9,1337.2z"/>
				<path class="st23" d="M49,1331.6l9.2-6.6c0.8-0.6,2.2-1,3.2-1h10.5c-1,0-1.5,0.7-1.5,1.6v11.7c0,0.9,0.5,1.6,1.5,1.6H49.4
					c-1,0-1.8-0.7-1.8-1.6v-3.1C47.6,1333.3,48.2,1332.1,49,1331.6z"/>
			</g>
			<path class="st24" d="M151.4,1334.6c0,0,2.6,0.2,2.6,2.9s-2.6,2.9-2.6,2.9h-3.9v-2.9v-2.9H151.4z"/>
		</g>
	</g>
	<g class="st2">
		<path class="st25" d="M32.6,1369c0,1.6,1.3,2.9,2.9,2.9h171.1c1.6,0,2.9-1.3,2.9-2.9v-2.3c0-1.6-1.3-2.9-2.9-2.9H35.5
			c-1.6,0-2.9,1.3-2.9,2.9C32.6,1366.6,32.6,1369,32.6,1369z"/>
		<g>
			<g>
				<path class="st26" d="M188.2,1367.8c0,7.2-5.9,13.1-13.1,13.1s-13.1-5.9-13.1-13.1s5.9-13.1,13.1-13.1
					C182.3,1354.7,188.2,1360.5,188.2,1367.8z"/>
				<path class="st27" d="M183,1367.4c0,4.4-3.6,7.9-7.9,7.9c-4.4,0-7.9-3.6-7.9-7.9c0-4.4,3.6-7.9,7.9-7.9
					C179.4,1359.5,183,1363.1,183,1367.4z"/>
			</g>
			<g>
				<path class="st26" d="M75.8,1367.8c0,7.2-5.9,13.1-13.1,13.1s-13.1-5.9-13.1-13.1s5.9-13.1,13.1-13.1
					C69.9,1354.7,75.8,1360.5,75.8,1367.8z"/>
				<path class="st27" d="M70.6,1367.4c0,4.4-3.6,7.9-7.9,7.9c-4.4,0-7.9-3.6-7.9-7.9c0-4.4,3.5-7.9,7.9-7.9
					C67,1359.5,70.6,1363.1,70.6,1367.4z"/>
			</g>
		</g>
	</g>
	<g class="st2">
		<path class="st28" d="M203.8,1355.3c-0.4-0.8-1.7-1.5-2.9-1.5h-4.2c-1.2,0-2.3,0.6-2.3,1.3c0,0.7,0.9,1.7,2,2.2l2,0.8
			c1.1,0.5,3,0.9,4.1,0.9c1.1,0,2-0.5,2-1.1C204.5,1357.2,204.2,1356.1,203.8,1355.3z"/>
		<polygon class="st29" points="33.5,1347.7 37.3,1347.7 35.4,1358.1 33.5,1358.1 		"/>
	</g>
</g>
<g class="st30">
	<path class="st31" d="M592.8,778H207.2C106,778,24,696,24,594.8V448.2C24,347,106,265,207.2,265h385.6C694,265,776,347,776,448.2
		v146.6C776,696,694,778,592.8,778z"/>
	<g class="st2">
		<g>
			<g transform="translate(1086.281208, 49.014148)">
				<g>
					<path d="M-991,326.5c-1.9,0.1-3.2,1-3.8,2.8c-1.8,4.5-3.1,9.7-3.9,15.4c-0.2,1.1,0.1,2.1,0.8,3.2c0.7,1,1.7,1.5,2.8,1.7
						c1.1,0.2,2.1-0.1,3-0.8c1-0.7,1.6-1.7,1.7-2.8c0.7-5,1.9-9.5,3.5-13.4c0.6-1.5,0.4-2.9-0.5-4.1
						C-988.2,327-989.4,326.4-991,326.5z M-995.9,352.3c-0.3,0-0.6,0-0.8,0c-0.2,0-0.5,0.1-0.8,0.2c-0.1,0-0.2,0-0.4,0.1
						c-0.2,0.1-0.3,0.1-0.3,0.2c-0.1,0.1-0.1,0.1-0.1,0.1c-0.2,0.1-0.3,0.1-0.4,0.2c0,0.1,0,0.1-0.1,0.1c-0.1,0-0.1,0-0.2,0.1
						c0,0,0,0-0.1,0.1c-0.7,0.5-1.3,1.2-1.6,2.1c-0.3,0.9-0.3,1.8,0,2.7c0.3,0.9,0.8,1.6,1.6,2.2c0.8,0.5,1.7,0.8,2.5,0.8
						c0.3,0,0.5,0,0.7,0c0.2-0.1,0.4-0.1,0.5-0.1c0.7-0.1,1.3-0.4,2-0.9c0,0,0,0,0.1-0.1c0.1-0.1,0.1-0.2,0.1-0.2
						c0.7-0.6,1.2-1.3,1.4-2.2c0.3-0.9,0.3-1.8,0-2.5c-0.3-0.9-0.9-1.5-1.6-2C-994.2,352.6-995,352.3-995.9,352.3z"/>
				</g>
			</g>
		</g>
		<g>
			<g transform="translate(1097.321185, 49.014148)">
				<g>
					<path d="M-984.7,326.7c-0.9,0-1.7,0.3-2.5,0.8c-0.8,0.6-1.3,1.2-1.6,2c-0.3,0.9-0.3,1.7-0.1,2.7c0.3,0.9,0.7,1.6,1.4,2.2
						l-4,20.4c-0.1,0.1-0.1,0.2-0.2,0.4c-0.6,1.4-0.4,2.7,0.4,4c0.8,1.3,2.1,1.9,3.7,1.9c4.4,0,8.7,0,13-0.1
						c4.5-0.1,8.5-0.1,11.9-0.1h0.1c0.4,0.1,0.8,0.1,1.2,0h0.2c1.7,0,3-0.8,3.8-2.3c0.8-1.5,0.7-3-0.2-4.4
						c0.7-9.1,2.1-16.3,4.3-21.7c0.6-1.4,0.4-2.8-0.4-4.1c-0.9-1.2-2.1-1.8-3.6-1.8L-984.7,326.7z M-963.3,335.2
						c-1.3,4.7-2.2,10.4-2.7,17.2c-2.2,0-4.9,0-8.1,0.1c-3.3,0.1-6.1,0.1-8.3,0.2l3.5-17.2L-963.3,335.2z"/>
				</g>
			</g>
		</g>
		<g>
			<g transform="translate(1122.473146, 49.014148)">
				<g>
					<path d="M-964.6,326.6c-0.9,0.1-1.8,0.4-2.6,0.9c-0.8,0.6-1.3,1.3-1.6,2.2c-1.7,4.1-2.9,8.6-3.8,13.5c-0.2,1.2,0.1,2.4,0.9,3.5
						c0.7,1.1,1.7,1.8,3,2c1.2,0.2,2.3-0.1,3.4-0.9c1.1-0.8,1.8-1.8,2-3c0.7-4.2,1.8-8.2,3.3-11.8c0.6-1.5,0.5-3-0.5-4.4
						C-961.6,327.3-963,326.6-964.6,326.6z"/>
				</g>
			</g>
		</g>
		<g>
			<g transform="translate(1132.889123, 49.014148)">
				<g>
					<path d="M-957.5,326.7c-1.2,0-2.2,0.5-3.1,1.4c-0.8,0.9-1.3,1.9-1.3,3c0,1.1,0.5,2.1,1.4,3c0.8,0.9,1.9,1.3,3.1,1.3l16.2-0.2
						c-0.5,1.9-1,3.8-1.4,5.7h-16.3c-1.1,0-2.1,0.4-2.9,1.1c-0.8,0.7-1.2,1.6-1.4,2.6l-1.6,11.9c-0.1,1.2,0.3,2.3,1.1,3.2
						c0.9,0.9,1.9,1.3,3,1.4c1.2,0.1,2.2-0.3,3.1-1.2c0.9-0.8,1.4-1.8,1.4-2.9c0.1-1.5,0.4-4,0.9-7.5h11.5c-0.2,2-0.4,4.4-0.6,6.9
						c-0.1,1.1,0.3,2.2,1.1,3.1c0.8,1,1.8,1.5,2.9,1.5c1.2,0.1,2.2-0.3,3.1-1.1c0.9-0.8,1.4-1.8,1.5-2.9c0.3-4.6,0.7-8.3,1-11
						c0.1-0.1,0.1-0.2,0.1-0.4c0.7-4.9,1.9-9.3,3.4-13.1c0.5-1.4,0.3-2.8-0.5-4.1c-0.8-1.2-2-1.8-3.6-1.8L-957.5,326.7z"/>
				</g>
			</g>
		</g>
		<g>
			<g transform="translate(1154.873085, 49.014148)">
				<g>
					<path d="M-943.3,325.3c-1.3-0.1-2.4,0.4-3.2,1.3s-1.2,2-1.2,3.2l1.8,27.2c0,1.4,0.5,2.4,1.6,3.1c1.1,0.9,2.3,1.1,3.6,0.9h0.3
						c4.4,0,8.7-0.1,13-0.2c4.5,0,8.4,0,11.5,0c0.4,0,0.8,0,1.1,0h0.7c1.9,0,3.2-0.9,4-2.5c0.7-1.8,0.5-3.3-0.8-4.6
						c0.7-8.8,2.1-15.9,4.2-21.2c0.6-1.4,0.5-2.8-0.4-4.1c-0.8-1.2-2.1-1.8-3.7-1.8c-1.9,0.1-3.1,1-3.8,2.7c-2.4,6.1-4,13.8-4.8,23
						c-2,0-3.9,0-5.6,0c-0.7-4.8,0.3-11.5,2.9-20.2c0.5-1.4,0.3-2.7-0.6-3.9c-0.9-1.1-2.1-1.7-3.6-1.6c-0.9,0-1.7,0.3-2.5,0.9
						c-0.7,0.6-1.3,1.3-1.5,2.1c-2.8,9.4-3.9,17-3.3,22.8c-1.1,0-2.5,0-4.1,0l-1.5-23.1c0-1-0.4-2-1.3-2.8
						C-941.2,325.7-942.2,325.3-943.3,325.3z"/>
				</g>
			</g>
		</g>
		<g>
			<g transform="translate(1181.129035, 49.014148)">
				<g>
					<path d="M-918.4,326.5c-1.9,0.1-3.2,1-3.8,2.7c-2.6,6.5-4.3,15.6-5.1,27.2c-0.1,1.1,0.3,2.2,1.1,3.1c0.8,1,1.8,1.5,3,1.5
						c1.1,0.1,2.1-0.3,3.1-1.1c0.9-0.8,1.4-1.8,1.4-2.9c0.7-10.7,2.2-18.9,4.5-24.6c0.6-1.4,0.5-2.8-0.4-4.2
						C-915.5,327.1-916.8,326.5-918.4,326.5z"/>
				</g>
			</g>
		</g>
		<g>
			<g transform="translate(1191.689013, 49.014148)">
				<g>
					<path d="M-888.6,326.5c-0.1,0-0.3,0-0.6,0c-0.8,0-1.8,0.1-2.8,0.3c-0.2,0.1-0.5,0.1-0.7,0.2c-4.3,1.5-8.3,3.9-11.9,7.2
						c-0.5-1.6-1-3.3-1.6-4.9c-0.7-1.8-2.1-2.7-4-2.7c-1.5,0-2.7,0.6-3.6,1.9c-0.8,1.3-1,2.7-0.3,4c1.1,3,2.1,6.2,2.8,9.7
						c-2.5,3.6-4.9,7.9-7.2,12.8c-0.5,1.1-0.6,2.2-0.2,3.3c0.4,1.1,1.2,2,2.3,2.5c1.1,0.5,2.2,0.5,3.3,0.1c1.1-0.5,1.9-1.3,2.4-2.5
						c5.5-12.5,12.3-20.2,20.4-23.1c0.5-0.1,0.9-0.1,1.3-0.1c0,0.7-0.1,1.3-0.2,1.7c-1.8,9.4-2.6,14.5-2.6,15.4h-1.1
						c-0.6,0-0.9,0-1.1,0c-0.1,0.1-0.1,0.1-0.2,0.1c-0.1,0-0.2,0-0.2,0c-0.1,0-0.1,0-0.2,0c-0.6,0-2.5,0-5.7,0c-1.2,0-2.2,0.5-3,1.4
						c-0.9,0.9-1.4,1.8-1.4,2.9c0,1.2,0.5,2.2,1.4,3.1c0.8,0.9,1.8,1.2,3,1.2c2.8,0,4.7,0,5.9,0c0.4,0,0.8,0,1.1,0
						c0,0,0.1,0,0.2-0.1c0.2,0,0.2,0,0.2-0.1c1,0,2.8,0,5.4,0c1.2,0,2.3-0.5,3.1-1.5c0.8-1,1.2-2.1,1.1-3.3
						c-0.3-1.9,0.5-7.7,2.3-17.5c0.7-3.9,0.4-6.9-1-8.9c-1.1-1.5-2.7-2.5-4.8-2.8C-887.2,326.6-887.9,326.5-888.6,326.5z
						 M-891,359.8c-0.3,0.3-0.5,0.5-0.6,0.6c0.1-0.1,0-0.1-0.2,0C-891.7,360.3-891.4,360.1-891,359.8z"/>
				</g>
			</g>
		</g>
		<g>
			<g transform="translate(1226.440953, 49.014148)">
				<g>
					<path d="M-886.7,326.8c-1.1,0-2.1,0.4-3,1.3c-0.9,0.9-1.4,1.9-1.4,3c0.1,1.2,0.5,2.2,1.4,3c0.9,0.9,2,1.2,3.1,1.2l16.1-0.1
						c-1.5,5.3-2.5,12.4-3.2,21.2c-0.1,1.1,0.3,2.1,1.1,3.1c0.8,0.9,1.8,1.4,2.9,1.4c1.1,0.1,2.2-0.3,3.1-1.1
						c0.9-0.7,1.4-1.7,1.5-2.9c0.7-10.6,2.2-18.8,4.5-24.6c0.6-1.4,0.4-2.8-0.4-4c-0.8-1.2-2-1.9-3.6-1.9L-886.7,326.8z
						 M-884.3,343.4c-1.1,0-2,0.4-2.9,1.2c-0.8,0.8-1.2,1.7-1.4,2.7l-3.5,33.1c-0.1,1.1,0.2,2.2,1,3.2c0.8,0.9,1.7,1.4,2.8,1.6
						c1.1,0.1,2.2-0.2,3.2-1c1-0.8,1.5-1.7,1.6-2.8l3.4-33.1c0.2-1.3-0.2-2.4-1-3.4C-881.9,343.9-883,343.4-884.3,343.4z"/>
				</g>
			</g>
		</g>
		<g>
			<g transform="translate(1247.41692, 49.014148)">
				<g>
					<path d="M-871.5,326.7c-1.2,0.1-2.2,0.5-3,1.4c-0.8,0.9-1.3,1.9-1.3,3c0.1,1.2,0.5,2.2,1.4,3c0.9,0.9,1.9,1.2,3,1.2l16.2-0.1
						c-1.5,5.3-2.5,12.4-3.2,21.2c-0.1,1.1,0.3,2.2,1.1,3.1c0.8,1,1.8,1.5,2.9,1.5c1.1,0.1,2.1-0.3,3-1.1c1-0.8,1.5-1.8,1.5-2.9
						c0.7-10.7,2.2-18.9,4.5-24.6c0.6-1.4,0.4-2.8-0.4-4.1c-0.9-1.2-2.1-1.8-3.7-1.8L-871.5,326.7z"/>
				</g>
			</g>
		</g>
		<g>
			<g transform="translate(1267.720889, 49.014148)">
				<g>
					<path d="M-851.1,326.6c-1,0.1-1.8,0.4-2.6,1.1c-0.8,0.7-1.4,1.5-1.5,2.5v0.1c0,0,0,0-0.1,0.1l-2.5,12.1
						c-0.3,1.3-0.1,2.4,0.7,3.4c0.8,1,1.8,1.6,3.1,1.7l9.1,0.9c1.2,0.1,2.2-0.2,3.2-1c1-0.8,1.5-1.8,1.6-2.9c0.1-1.1-0.2-2.1-1-3
						c-0.8-1-1.8-1.5-2.9-1.6l-4.2-0.3l0.8-4.4l12.8-0.2c-1.4,4.8-2.3,10.5-2.9,17.2c-1.2,0-3.7,0-7.6,0.1
						c-2.9,0.1-6.4,0.2-10.6,0.2c-1.1-0.1-2.1,0.4-3,1.2c-0.9,0.9-1.4,1.9-1.4,3c0,1.1,0.5,2.1,1.4,3c0.8,0.9,1.8,1.3,3,1.3
						c4.4,0,8.3,0,11.7-0.1c3.6-0.1,6.9-0.1,9.7-0.1c0.5,0.1,1.1,0.1,1.6,0h0.4c1.8,0,3.1-0.9,3.9-2.5c0.8-1.7,0.6-3.2-0.7-4.6
						c0.7-8.9,2.1-16,4.2-21.4c0.6-1.4,0.4-2.8-0.5-4c-0.8-1.2-2-1.9-3.6-1.9L-851.1,326.6z"/>
				</g>
			</g>
		</g>
		<g>
			<g transform="translate(1290.664849, 49.014148)">
				<g>
					<path d="M-832.8,313.8c-1.9,0-3.2,0.9-3.9,2.7c-1.3,3.4-2.4,7.1-3.2,11.1c-1.6,1.2-2,2.8-1.4,4.8c0.7,2,2.1,2.9,4.2,2.9
						l15.5-0.2c-1.4,5.1-2.5,12.2-3.1,21.3c-0.1,1.1,0.3,2.2,1.1,3.1c0.8,0.9,1.8,1.4,2.9,1.5c1.2,0.1,2.2-0.3,3.1-1.1
						c0.9-0.8,1.4-1.8,1.5-2.9c0.7-10,2-17.6,3.8-22.9c1.6-1.2,2-2.8,1.4-4.8c-0.6-1.9-2-2.9-4-2.9c-0.3-0.1-0.6-0.1-0.9-0.1
						c-0.2,0-0.4,0-0.6,0.1l-14.5,0.1c0.6-2.4,1.4-4.7,2.2-6.8c0.6-1.5,0.4-2.9-0.5-4.2C-829.9,314.3-831.2,313.7-832.8,313.8z"/>
				</g>
			</g>
		</g>
		<g>
			<g transform="translate(1321.432792, 49.014148)">
				<g>
					<path d="M-810.6,326.7c-0.9,0-1.7,0.3-2.5,0.8c-0.8,0.6-1.3,1.2-1.6,2c-0.3,0.9-0.3,1.7-0.1,2.7c0.3,0.9,0.7,1.6,1.4,2.2
						l-4,20.4c-0.1,0.1-0.1,0.2-0.2,0.4c-0.6,1.4-0.4,2.7,0.4,4c0.8,1.3,2.1,1.9,3.7,1.9c4.4,0,8.7,0,13-0.1
						c4.5-0.1,8.5-0.1,11.9-0.1h0.1c0.4,0.1,0.8,0.1,1.2,0h0.2c1.7,0,3-0.8,3.8-2.3c0.8-1.5,0.7-3-0.2-4.4
						c0.7-9.1,2.1-16.3,4.3-21.7c0.6-1.4,0.4-2.8-0.4-4.1c-0.9-1.2-2.1-1.8-3.6-1.8L-810.6,326.7z M-789.2,335.2
						c-1.3,4.7-2.2,10.4-2.7,17.2c-2.2,0-4.9,0-8.1,0.1c-3.3,0.1-6.1,0.1-8.3,0.2l3.5-17.2L-789.2,335.2z"/>
				</g>
			</g>
		</g>
		<g>
			<g transform="translate(1346.584754, 49.014148)">
				<g>
					<path d="M-783.1,326.5c-0.5,0-1,0.1-1.4,0.2h-1.5c-2,0-3.3,0.9-4,2.8c-0.3,0.8-0.4,1.7-0.1,2.6c0.2,0.9,0.7,1.6,1.4,2.2
						c-1.5,4.9-2.5,10.9-3,18.2c-0.5,0-1.4,0-2.8,0c-1.1,0-2.2,0.4-3,1.3c-0.8,0.9-1.3,1.9-1.3,3c0,1.1,0.4,2.1,1.3,3
						c0.9,0.9,1.9,1.3,3,1.3c1.7,0,3.1,0,4.1-0.1c0.5-0.1,1.2-0.1,2.2-0.1c0.3,0.1,0.7,0.1,1.1,0h0.2c1.8,0,3.1-0.8,3.9-2.3
						c0.8-1.6,0.7-3.1-0.4-4.5c0.6-7.7,1.7-14,3.2-18.8l10.3-0.1c-1.5,5.3-2.5,12.3-3,21.1c-0.1,1.1,0.2,2.2,1,3.2
						c0.8,0.9,1.8,1.4,2.9,1.4c1.1,0.1,2.1-0.3,3-1.1c0.9-0.8,1.4-1.7,1.5-2.8c0.7-10.8,2.2-18.9,4.4-24.6c0.6-1.4,0.4-2.7-0.4-4
						c-0.8-1.2-2-1.9-3.6-1.9l-17.7,0.2C-782.2,326.6-782.6,326.5-783.1,326.5z"/>
				</g>
			</g>
		</g>
		<g>
			<g transform="translate(1371.592702, 49.014148)">
				<g>
					<path d="M-762.1,326.5c-1.9,0.1-3.1,1-3.8,2.8c-2.4,6.1-4,13.8-4.8,23.2c-2.2,0-4.1,0-5.5,0c-1.1,0-2.2,0.4-3,1.3
						c-0.8,0.9-1.3,1.9-1.3,3c0,1.1,0.4,2.1,1.3,2.9c0.9,0.9,1.9,1.3,3,1.3c4.4,0,8.9,0,13.4-0.1c4.5-0.1,8.7-0.1,12.7-0.1
						c1.3,0.2,2.3-0.1,3.2-0.9c1-0.7,1.5-1.7,1.6-3c0.7-10.7,2.2-18.8,4.4-24.5c0.6-1.5,0.5-2.9-0.4-4.1c-0.9-1.3-2.1-1.9-3.7-1.9
						c-1.9,0.1-3.2,1-3.8,2.8c-2.5,6.1-4.1,13.8-4.8,23c-3.2,0-6,0-8.6,0c0.7-8.1,2.1-14.7,4.2-19.9c0.6-1.5,0.4-2.9-0.4-4.1
						C-759.3,327-760.5,326.4-762.1,326.5z"/>
				</g>
			</g>
		</g>
		<g>
			<g transform="translate(1396.456661, 49.014148)">
				<g>
					<path d="M-752.7,326.7c-1.2,0-2.2,0.5-3.1,1.4c-0.8,0.9-1.3,1.9-1.3,3c0,1.1,0.5,2.1,1.4,3c0.8,0.9,1.9,1.3,3.1,1.3l16.2-0.2
						c-0.5,1.9-1,3.8-1.4,5.7h-16.3c-1.1,0-2.1,0.4-2.9,1.1c-0.8,0.7-1.2,1.6-1.4,2.6l-1.6,11.9c-0.1,1.2,0.3,2.3,1.1,3.2
						c0.9,0.9,1.9,1.3,3,1.4c1.2,0.1,2.2-0.3,3.1-1.2c0.9-0.8,1.4-1.8,1.4-2.9c0.1-1.5,0.4-4,0.9-7.5h11.5c-0.2,2-0.4,4.4-0.6,6.9
						c-0.1,1.1,0.3,2.2,1.1,3.1c0.8,1,1.8,1.5,2.9,1.5c1.2,0.1,2.2-0.3,3.1-1.1c0.9-0.8,1.4-1.8,1.5-2.9c0.3-4.6,0.7-8.3,1-11
						c0.1-0.1,0.1-0.2,0.1-0.4c0.7-4.9,1.9-9.3,3.4-13.1c0.5-1.4,0.3-2.8-0.5-4.1c-0.8-1.2-2-1.8-3.6-1.8L-752.7,326.7z"/>
				</g>
			</g>
		</g>
		<g>
			<g transform="translate(1418.440623, 49.014148)">
				<g>
					<path d="M-736.5,326.7c-1.1,0-2.2,0.5-3,1.4c-0.9,0.9-1.3,1.9-1.3,3c0.1,1.2,0.5,2.2,1.4,3c0.9,0.9,1.9,1.2,3,1.2l16.2-0.1
						c-1.5,5.3-2.5,12.4-3.1,21.2c-0.1,1.1,0.2,2.2,1,3.1c0.8,1,1.8,1.5,2.9,1.5c1.1,0.1,2.1-0.3,3-1.1c1-0.8,1.5-1.8,1.5-2.9
						c0.7-10.7,2.2-18.9,4.5-24.6c0.6-1.4,0.4-2.8-0.4-4.1c-0.8-1.2-2.1-1.8-3.7-1.8L-736.5,326.7z M-737.5,341.6
						c-1.1-0.1-2,0.3-2.9,1c-0.8,0.8-1.3,1.7-1.4,2.8c-0.4,2.7-0.8,6.4-1.1,11.2c-0.1,1.1,0.3,2.2,1.1,3.1c0.8,1,1.8,1.5,3,1.5
						c1.1,0.1,2.1-0.3,3.1-1.1c0.9-0.8,1.4-1.8,1.4-2.9c0.3-4.5,0.7-8.1,1-10.6c0.2-1.3-0.2-2.5-0.9-3.4
						C-735.1,342.1-736.2,341.6-737.5,341.6z"/>
				</g>
			</g>
		</g>
	</g>
	<g class="st2">
		<g>
			<g transform="translate(620.445272, 91.601101)">
				<g>
					<path d="M-438.7,506.2c-0.1,0-0.3,0-0.5,0c-0.2,0-0.5,0.1-0.7,0.2c0,0-0.1,0-0.2,0.1c-0.1,0.1-0.2,0.1-0.2,0.1h-0.1
						c-0.1,0.1-0.2,0.1-0.3,0.2c0,0,0,0.1-0.1,0.1c-0.1,0-0.1,0.1-0.1,0.1c0,0-0.1,0.1-0.1,0.1c-0.6,0.4-1,0.9-1.2,1.6
						c-0.2,0.7-0.2,1.4,0,2c0.2,0.7,0.6,1.2,1.2,1.7c0.6,0.4,1.2,0.6,1.9,0.6c0.2,0,0.4,0,0.5,0c0.1,0,0.2-0.1,0.4-0.1
						c0.5-0.1,1-0.3,1.5-0.7c0,0,0,0,0-0.1c0,0,0.1-0.1,0.1-0.1c0.5-0.4,0.9-1,1-1.7c0.2-0.7,0.2-1.3,0-1.9
						c-0.2-0.6-0.7-1.1-1.2-1.5C-437.4,506.3-438,506.2-438.7,506.2z"/>
				</g>
			</g>
		</g>
		<g>
			<g transform="translate(628.509259, 91.601101)">
				<g>
					<path d="M-436.1,487c-1.2,0-2.2,0.5-2.8,1.6c-0.6,1.1-0.6,2.2,0,3.2c0,0.1,0,0.2,0,0.3l2.2,17.8c0.1,0.8,0.4,1.5,1,2
						c0.7,0.6,1.4,0.8,2.2,0.8h8.1c0.7,0,1.3-0.2,1.9-0.7c0.6-0.4,1-0.9,1.2-1.6l5.8-18.9c0.1-0.2,0.1-0.4,0.1-0.7
						c0.3-1,0.1-2-0.5-2.9c-0.7-0.8-1.6-1.2-2.6-1.2L-436.1,487z M-427.8,506.3h-2.9l-1.5-12.9l8.5-0.1L-427.8,506.3z"/>
				</g>
			</g>
		</g>
		<g>
			<g transform="translate(649.101219, 91.601101)">
				<g>
					<path d="M-427.7,479.4c-0.6,0-1.2,0.2-1.7,0.6c-0.5,0.4-0.9,0.9-1.1,1.5c-0.9,2.2-1.6,4.5-2.2,6.9c-0.2,0.9,0,1.7,0.5,2.4
						c0.5,0.7,1.1,1.2,1.9,1.4c0.8,0.2,1.6,0,2.4-0.5c0.8-0.5,1.2-1.2,1.4-2c0.5-2.2,1.1-4.1,1.9-6c0.4-1.1,0.3-2.1-0.3-3.1
						C-425.7,479.8-426.6,479.4-427.7,479.4z M-419.2,479.4c-0.6,0-1.2,0.2-1.7,0.6c-0.6,0.4-0.9,0.9-1.1,1.5
						c-0.9,2.2-1.6,4.5-2.1,6.9c-0.2,0.9-0.1,1.7,0.5,2.4c0.5,0.7,1.1,1.2,1.9,1.4c0.9,0.2,1.7,0,2.4-0.5c0.8-0.5,1.2-1.2,1.4-2
						c0.5-2.2,1.1-4.1,1.8-6c0.5-1.1,0.4-2.1-0.3-3.1C-417.2,479.8-418.1,479.4-419.2,479.4z"/>
				</g>
			</g>
		</g>
		<g>
			<g transform="translate(664.797191, 91.601101)">
				<g>
					<path d="M-404.8,486.8c-0.1,0-0.2,0-0.4,0c-0.6,0-1.3,0.1-2.1,0.2c-0.2,0-0.4,0.1-0.5,0.1c-3.2,1.1-6.2,2.9-8.9,5.4
						c-0.4-1.2-0.8-2.5-1.2-3.7c-0.6-1.4-1.6-2-3-2c-1.1,0-2,0.5-2.7,1.4c-0.6,1-0.7,2-0.2,3c0.8,2.2,1.5,4.7,2.1,7.3
						c-1.9,2.7-3.7,5.9-5.4,9.6c-0.4,0.8-0.4,1.6-0.1,2.5c0.3,0.9,0.9,1.5,1.7,1.8c0.8,0.4,1.7,0.4,2.5,0.1c0.8-0.3,1.4-1,1.8-1.9
						c4.1-9.3,9.2-15.1,15.3-17.4c0.3,0,0.7-0.1,1-0.1c0,0.5,0,1-0.1,1.3c-1.3,7-2,10.9-2,11.5h-0.8c-0.4,0-0.7,0-0.8,0
						c0,0-0.1,0.1-0.1,0.1c-0.1,0-0.1,0-0.1,0c0,0-0.1,0-0.1,0c-0.5,0-1.9,0-4.3,0c-0.9,0-1.6,0.3-2.2,1c-0.7,0.6-1,1.4-1,2.2
						c0,0.9,0.3,1.7,1,2.3c0.6,0.6,1.4,0.9,2.2,0.9c2.1,0,3.5,0,4.4,0c0.3,0,0.6,0,0.8,0c0,0,0.1,0,0.2-0.1c0.1,0,0.2,0,0.2-0.1
						c0.7,0,2.1,0,4,0c0.9,0,1.7-0.4,2.4-1.1c0.6-0.7,0.9-1.5,0.8-2.5c-0.2-1.4,0.4-5.8,1.7-13.1c0.5-2.9,0.3-5.2-0.8-6.7
						c-0.9-1.1-2-1.9-3.6-2.1C-403.7,486.9-404.3,486.8-404.8,486.8z M-406.6,511.8c-0.2,0.3-0.4,0.4-0.4,0.4c0-0.1,0-0.1-0.2,0
						C-407.1,512.1-406.9,512-406.6,511.8z"/>
				</g>
			</g>
		</g>
		<g>
			<g transform="translate(689.66115, 91.601101)">
				<g>
					<path d="M-412.7,486.8c-1.4,0-2.4,0.7-2.9,2c-2,4.9-3.2,11.7-3.8,20.4c0,0.9,0.2,1.6,0.8,2.3c0.6,0.7,1.3,1.1,2.2,1.2
						c0.8,0.1,1.6-0.2,2.3-0.8c0.7-0.6,1-1.3,1.1-2.2c0.5-8,1.7-14.2,3.4-18.4c0.5-1.1,0.4-2.1-0.3-3.1
						C-410.5,487.2-411.5,486.8-412.7,486.8z"/>
				</g>
			</g>
		</g>
		<g>
			<g transform="translate(700.221128, 91.601101)">
				<g>
					<path d="M-409.1,486.8c-0.3,0-0.7,0.1-1,0.2h-1.1c-0.6,0-1.3,0.2-1.9,0.6c-0.6,0.4-1,0.9-1.2,1.5c-0.2,0.6-0.2,1.2,0,1.9
						c0.2,0.7,0.5,1.2,1,1.6c-1.2,4-2,9.5-2.6,16.6c0,0.9,0.2,1.6,0.8,2.3c0.6,0.7,1.3,1.1,2.2,1.2c0.8,0.1,1.6-0.2,2.3-0.8
						c0.7-0.6,1-1.3,1.1-2.2c0.5-7,1.4-12.5,2.6-16.3h7.8c-1.1,4-1.9,9.3-2.4,15.9c0,0.9,0.2,1.6,0.8,2.3c0.6,0.7,1.3,1.1,2.2,1.1
						c0.9,0.1,1.6-0.2,2.4-0.8c0.7-0.6,1-1.3,1.1-2.2c0.5-8.1,1.7-14.2,3.4-18.4c0.4-1.1,0.3-2.1-0.4-3c-0.6-1-1.5-1.5-2.7-1.5
						l-13.3,0.2C-408.3,486.9-408.7,486.8-409.1,486.8z"/>
				</g>
			</g>
		</g>
		<g>
			<g transform="translate(721.533093, 91.601101)">
				<g>
					<path d="M-403.9,487c-0.9,0-1.6,0.3-2.3,1c-0.7,0.6-1,1.4-1,2.2c0,0.9,0.4,1.7,1,2.3c0.7,0.6,1.4,0.9,2.3,0.9l12.2-0.1
						c-1.1,4-1.9,9.3-2.3,15.9c-0.1,0.9,0.2,1.6,0.8,2.3c0.6,0.7,1.3,1.1,2.2,1.1c0.8,0.1,1.6-0.2,2.3-0.8c0.7-0.6,1.1-1.3,1.1-2.2
						c0.5-8,1.7-14.2,3.4-18.5c0.4-1.1,0.3-2.1-0.3-3.1c-0.6-0.9-1.6-1.3-2.8-1.3L-403.9,487z M-404.7,498.1c-0.8,0-1.5,0.2-2.2,0.8
						c-0.6,0.6-1,1.3-1.1,2.1c-0.3,2-0.6,4.8-0.8,8.4c0,0.9,0.2,1.6,0.8,2.3c0.6,0.7,1.3,1.1,2.2,1.1c0.8,0.1,1.6-0.2,2.3-0.8
						c0.7-0.6,1-1.3,1.1-2.2c0.2-3.4,0.5-6.1,0.8-7.9c0.1-1-0.1-1.8-0.7-2.6C-402.9,498.5-403.7,498.1-404.7,498.1z"/>
				</g>
			</g>
		</g>
		<g>
			<g transform="translate(752.973033, 91.601101)">
				<g>
					<path d="M-392.5,487c-0.7,0-1.3,0.2-1.9,0.6c-0.6,0.4-1,0.9-1.2,1.5c-0.2,0.6-0.2,1.3-0.1,2c0.2,0.7,0.5,1.2,1,1.6l-3,15.3
						c0,0.1-0.1,0.2-0.1,0.3c-0.4,1-0.3,2,0.3,3c0.6,1,1.5,1.5,2.8,1.4c3.3,0,6.5,0,9.8-0.1c3.4,0,6.4-0.1,8.9-0.1h0.1
						c0.3,0,0.6,0,0.9,0h0.2c1.3,0,2.2-0.6,2.9-1.7c0.6-1.1,0.5-2.3-0.2-3.3c0.5-6.8,1.6-12.3,3.2-16.3c0.4-1.1,0.3-2.1-0.3-3.1
						c-0.7-0.9-1.6-1.3-2.7-1.3L-392.5,487z M-376.4,493.3c-1,3.5-1.7,7.8-2,12.9c-1.6,0-3.7,0-6.1,0.1c-2.5,0-4.6,0.1-6.2,0.1
						l2.6-12.9L-376.4,493.3z"/>
				</g>
			</g>
		</g>
		<g>
			<g transform="translate(778.124994, 91.601101)">
				<g>
					<path d="M-383.2,486.8c-1.4,0-2.4,0.7-2.9,2c-2,4.9-3.2,11.7-3.8,20.4c0,0.9,0.2,1.6,0.8,2.3c0.6,0.7,1.3,1.1,2.2,1.2
						c0.8,0.1,1.6-0.2,2.3-0.8c0.7-0.6,1-1.3,1.1-2.2c0.5-8,1.7-14.2,3.4-18.4c0.5-1.1,0.4-2.1-0.3-3.1
						C-381,487.2-382,486.8-383.2,486.8z"/>
				</g>
			</g>
		</g>
		<g>
			<g transform="translate(788.684972, 91.601101)">
				<g>
					<path d="M-379.7,486.8c-0.3,0-0.7,0.1-1,0.2h-1.1c-0.6,0-1.3,0.2-1.9,0.6c-0.6,0.4-1,0.9-1.2,1.5c-0.2,0.6-0.2,1.2,0,1.9
						c0.2,0.7,0.5,1.2,1,1.6c-1.2,4-2,9.5-2.6,16.6c0,0.9,0.2,1.6,0.8,2.3c0.6,0.7,1.3,1.1,2.2,1.2c0.8,0.1,1.6-0.2,2.3-0.8
						c0.7-0.6,1-1.3,1.1-2.2c0.5-7,1.4-12.5,2.6-16.3h7.8c-1.1,4-1.9,9.3-2.4,15.9c0,0.9,0.2,1.6,0.8,2.3c0.6,0.7,1.3,1.1,2.2,1.1
						c0.9,0.1,1.6-0.2,2.4-0.8c0.7-0.6,1-1.3,1.1-2.2c0.5-8.1,1.7-14.2,3.4-18.4c0.4-1.1,0.3-2.1-0.4-3c-0.6-1-1.5-1.5-2.7-1.5
						l-13.3,0.2C-378.8,486.9-379.2,486.8-379.7,486.8z"/>
				</g>
			</g>
		</g>
		<g>
			<g transform="translate(809.996937, 91.601101)">
				<g>
					<path d="M-367.5,486.8c-0.4,0-0.7,0.1-1,0.2h-1.2c-1.5,0-2.5,0.7-3,2.1c-0.2,0.6-0.3,1.2-0.1,1.9c0.2,0.7,0.5,1.2,1,1.6
						c-1.1,3.6-1.9,8.2-2.3,13.6c-0.4,0-1,0-2.1,0c-0.9,0-1.6,0.3-2.3,1c-0.6,0.6-1,1.4-1,2.2c0,0.9,0.3,1.6,1,2.2
						c0.7,0.6,1.4,1,2.3,1c1.3,0,2.3,0,3.1-0.1c0.4,0,0.9-0.1,1.7-0.1c0.2,0,0.5,0,0.8,0h0.2c1.3,0,2.3-0.6,2.9-1.7
						c0.6-1.2,0.5-2.3-0.3-3.4c0.5-5.8,1.3-10.5,2.4-14.1l7.8-0.1c-1.1,4-1.9,9.2-2.3,15.8c-0.1,0.9,0.1,1.6,0.8,2.4
						c0.6,0.7,1.4,1,2.2,1.1c0.8,0,1.6-0.2,2.3-0.8c0.7-0.6,1.1-1.3,1.2-2.1c0.5-8.1,1.7-14.2,3.3-18.4c0.4-1,0.3-2-0.3-3
						c-0.6-0.9-1.5-1.4-2.7-1.4l-13.3,0.2C-366.8,486.9-367.2,486.8-367.5,486.8z"/>
				</g>
			</g>
		</g>
		<g>
			<g transform="translate(835.004909, 91.601101)">
				<g>
					<path d="M-365.6,487c-0.9,0-1.6,0.3-2.2,1c-0.7,0.6-1,1.4-1,2.2c0,0.9,0.3,1.6,1,2.2c0.6,0.6,1.4,1,2.3,1l12.1-0.1
						c-1,3.5-1.7,7.9-2.1,12.9c-4.8,0.1-8.9,0.1-12.2,0.1c-0.9,0-1.6,0.3-2.3,1c-0.6,0.6-1,1.4-1,2.2c0,0.9,0.3,1.6,1,2.2
						c0.7,0.6,1.4,1,2.3,1c-0.7,0,4.3,0,15-0.1h0.5c2.2,0,3.6,0,4.4,0c0.8,0,1.6-0.3,2.2-1c0.7-0.6,1-1.4,1-2.3c0-0.8-0.3-1.6-1-2.2
						c-0.6-0.6-1.4-1-2.2-1h-1.2c0.5-6.1,1.5-11,3.1-14.9c0.4-1.1,0.3-2.1-0.3-3.1c-0.6-0.9-1.5-1.3-2.7-1.3L-365.6,487z"/>
				</g>
			</g>
		</g>
		<g>
			<g transform="translate(867.260858, 91.601101)">
				<g>
					<path d="M-354.4,487c-0.7,0-1.3,0.2-1.9,0.6c-0.6,0.4-1,0.9-1.2,1.5c-0.2,0.6-0.2,1.3-0.1,2c0.2,0.7,0.5,1.2,1,1.6l-3,15.3
						c0,0.1-0.1,0.2-0.1,0.3c-0.4,1-0.3,2,0.3,3c0.6,1,1.5,1.5,2.8,1.4c3.3,0,6.5,0,9.8-0.1c3.4,0,6.4-0.1,8.9-0.1h0.1
						c0.3,0,0.6,0,0.9,0h0.2c1.3,0,2.2-0.6,2.9-1.7c0.6-1.1,0.5-2.3-0.2-3.3c0.5-6.8,1.6-12.3,3.2-16.3c0.4-1.1,0.3-2.1-0.3-3.1
						c-0.7-0.9-1.6-1.3-2.7-1.3L-354.4,487z M-338.3,493.3c-1,3.5-1.7,7.8-2,12.9c-1.6,0-3.7,0-6.1,0.1c-2.5,0-4.6,0.1-6.2,0.1
						l2.6-12.9L-338.3,493.3z"/>
				</g>
			</g>
		</g>
		<g>
			<g transform="translate(892.41282, 91.601101)">
				<g>
					<path d="M-345.6,486.9c-0.7,0-1.3,0.3-1.9,0.6c-0.6,0.4-1,1-1.2,1.7c-1.2,3.1-2.2,6.5-2.9,10.1c-0.2,0.9,0,1.8,0.6,2.6
						c0.5,0.8,1.3,1.3,2.2,1.5c0.9,0.1,1.8-0.1,2.6-0.6c0.8-0.6,1.3-1.3,1.5-2.2c0.5-3.2,1.4-6.1,2.5-8.8c0.5-1.1,0.3-2.3-0.4-3.3
						C-343.4,487.4-344.4,486.8-345.6,486.9z"/>
				</g>
			</g>
		</g>
		<g>
			<g transform="translate(902.828796, 91.601101)">
				<g>
					<path d="M-330.9,486.8c-1.5,0-2.4,0.7-2.9,2c-1.8,4.6-3,10.3-3.6,17.3c-0.9,0-1.7,0-2.7,0c-1,0-2.7,0.1-5.2,0.2
						c-0.8,0-1.5,0.3-2.2,1c-0.6,0.6-0.9,1.4-0.8,2.3c0,0.8,0.3,1.5,1,2.2s1.4,0.9,2.2,0.9c4.8-0.1,8.2-0.2,10.2-0.1
						c0.1,0,0.2,0,0.3,0h0.1c0.8,0,1.6-0.2,2.2-0.8c0.7-0.6,1-1.3,1.1-2.1c0.5-8.1,1.7-14.2,3.3-18.4c0.5-1.1,0.4-2.1-0.3-3.1
						C-328.8,487.2-329.7,486.8-330.9,486.8z"/>
				</g>
			</g>
		</g>
		<g>
			<g transform="translate(921.404777, 91.601101)">
				<g>
					<path d="M-335.4,486.8c-1.4,0-2.4,0.7-2.9,2c-2,4.9-3.2,11.7-3.8,20.4c0,0.9,0.2,1.6,0.8,2.3c0.6,0.7,1.3,1.1,2.2,1.2
						c0.8,0.1,1.6-0.2,2.3-0.8c0.7-0.6,1-1.3,1.1-2.2c0.5-8,1.7-14.2,3.4-18.4c0.5-1.1,0.4-2.1-0.3-3.1
						C-333.3,487.2-334.2,486.8-335.4,486.8z"/>
				</g>
			</g>
		</g>
		<g>
			<g transform="translate(931.964743, 91.601101)">
				<g>
					<path d="M-335.3,485.9c-1,0-1.8,0.3-2.4,1s-0.9,1.5-0.9,2.4l1.3,20.4c0,1,0.4,1.8,1.2,2.3c0.8,0.6,1.7,0.8,2.7,0.7h0.2
						c3.3,0,6.5,0,9.7-0.1c3.4,0,6.3,0,8.6,0c0.3,0,0.6,0,0.8,0h0.5c1.4,0,2.4-0.6,3-1.9c0.5-1.3,0.4-2.5-0.6-3.5
						c0.5-6.6,1.5-11.9,3.1-15.9c0.5-1.1,0.4-2.1-0.3-3.1c-0.6-0.9-1.6-1.4-2.8-1.3c-1.4,0-2.4,0.7-2.8,2c-1.8,4.6-3,10.3-3.6,17.3
						c-1.5,0-2.9,0-4.2,0c-0.5-3.6,0.2-8.6,2.2-15.2c0.3-1.1,0.2-2-0.4-3c-0.7-0.8-1.6-1.2-2.7-1.2c-0.7,0-1.3,0.2-1.9,0.7
						c-0.6,0.4-1,1-1.2,1.6c-2.1,7.1-2.9,12.8-2.5,17.1c-0.8,0-1.9,0-3.1,0l-1.1-17.4c0-0.8-0.3-1.5-1-2.1
						C-333.8,486.2-334.5,485.9-335.3,485.9z"/>
				</g>
			</g>
		</g>
		<g>
			<g transform="translate(958.220693, 91.601101)">
				<g>
					<path d="M-325,487c-0.9,0-1.6,0.3-2.3,1c-0.7,0.6-1,1.4-1,2.2c0,0.9,0.4,1.7,1,2.3c0.7,0.6,1.4,0.9,2.3,0.9l12.2-0.1
						c-1.1,4-1.9,9.3-2.3,15.9c-0.1,0.9,0.2,1.6,0.8,2.3c0.6,0.7,1.3,1.1,2.2,1.1c0.8,0.1,1.6-0.2,2.3-0.8c0.7-0.6,1.1-1.3,1.1-2.2
						c0.5-8,1.7-14.2,3.4-18.5c0.4-1.1,0.3-2.1-0.3-3.1c-0.6-0.9-1.6-1.3-2.8-1.3L-325,487z M-325.8,498.1c-0.8,0-1.5,0.2-2.2,0.8
						c-0.6,0.6-1,1.3-1.1,2.1c-0.3,2-0.6,4.8-0.8,8.4c0,0.9,0.2,1.6,0.8,2.3c0.6,0.7,1.3,1.1,2.2,1.1c0.8,0.1,1.6-0.2,2.3-0.8
						c0.7-0.6,1-1.3,1.1-2.2c0.2-3.4,0.5-6.1,0.8-7.9c0.1-1-0.1-1.8-0.7-2.6C-324,498.5-324.8,498.1-325.8,498.1z"/>
				</g>
			</g>
		</g>
	</g>
	<g class="st2">
		<g>
			<g transform="translate(989.660633, 91.601101)">
				<g>
					<path d="M-863.6,427c-0.7,0-1.3,0.2-1.8,0.6c-0.6,0.4-1,0.9-1.2,1.5c-0.2,0.6-0.2,1.3-0.1,2c0.2,0.7,0.5,1.2,1,1.6l-3,15.3
						c0,0.1-0.1,0.2-0.1,0.3c-0.4,1-0.3,2,0.3,3c0.6,1,1.5,1.5,2.8,1.4c3.3,0,6.5,0,9.8-0.1c3.4,0,6.4-0.1,8.9-0.1h0.1
						c0.3,0,0.6,0,0.9,0h0.2c1.3,0,2.2-0.6,2.9-1.7c0.6-1.1,0.5-2.3-0.2-3.3c0.5-6.8,1.6-12.3,3.2-16.3c0.4-1.1,0.3-2.1-0.3-3.1
						c-0.7-0.9-1.6-1.3-2.7-1.3L-863.6,427z M-847.5,433.3c-1,3.5-1.7,7.8-2,12.9c-1.6,0-3.7,0-6.1,0.1c-2.5,0-4.6,0.1-6.2,0.1
						l2.6-12.9L-847.5,433.3z"/>
				</g>
			</g>
		</g>
		<g>
			<g transform="translate(1014.812594, 91.601101)">
				<g>
					<path d="M-854.8,426.9c-0.7,0-1.3,0.3-1.9,0.6c-0.6,0.4-1,1-1.2,1.7c-1.2,3.1-2.2,6.5-2.9,10.1c-0.2,0.9,0,1.8,0.7,2.6
						c0.5,0.8,1.3,1.3,2.2,1.5c0.9,0.1,1.8-0.1,2.6-0.6c0.8-0.6,1.3-1.3,1.5-2.2c0.5-3.2,1.4-6.1,2.5-8.8c0.5-1.1,0.3-2.3-0.4-3.3
						C-852.5,427.4-853.5,426.8-854.8,426.9z"/>
				</g>
			</g>
		</g>
		<g>
			<g transform="translate(1025.228549, 91.601101)">
				<g>
					<path d="M-852,427c-0.9,0-1.6,0.3-2.3,1c-0.6,0.6-1,1.4-1,2.2c0,0.9,0.3,1.6,1,2.2c0.6,0.6,1.4,1,2.3,1l12.2-0.1
						c-0.4,1.4-0.7,2.9-1,4.3h-12.3c-0.8,0-1.5,0.3-2.2,0.8c-0.6,0.6-0.9,1.2-1,2l-1.2,9c0,0.9,0.2,1.7,0.8,2.4c0.7,0.6,1.4,1,2.2,1
						c0.9,0,1.6-0.3,2.3-0.9c0.7-0.6,1-1.3,1.1-2.2c0-1.1,0.3-3,0.7-5.6h8.6c-0.2,1.5-0.3,3.3-0.4,5.2c0,0.9,0.2,1.6,0.8,2.3
						c0.6,0.7,1.3,1.1,2.2,1.1c0.9,0,1.6-0.2,2.3-0.8c0.7-0.6,1.1-1.3,1.2-2.2c0.3-3.5,0.5-6.2,0.8-8.3c0-0.1,0.1-0.2,0.1-0.3
						c0.5-3.7,1.4-7,2.6-9.9c0.4-1.1,0.3-2.1-0.4-3.1c-0.6-0.9-1.5-1.3-2.7-1.3L-852,427z"/>
				</g>
			</g>
		</g>
		<g>
			<g transform="translate(1047.212511, 91.601101)">
				<g>
					<path d="M-846.9,425.9c-1,0-1.8,0.3-2.4,1c-0.6,0.7-0.9,1.5-0.9,2.4l1.3,20.4c0,1,0.4,1.8,1.2,2.4c0.8,0.6,1.7,0.9,2.7,0.6h0.2
						c3.3,0,6.5,0,9.7-0.1c3.4,0,6.3,0,8.7,0c0.3,0,0.6,0,0.8,0h0.5c1.4,0,2.4-0.6,3-1.9c0.5-1.3,0.4-2.5-0.6-3.5
						c0.5-6.6,1.5-11.9,3.1-15.9c0.5-1.1,0.4-2.1-0.3-3.1c-0.6-0.9-1.6-1.4-2.8-1.3c-1.4,0-2.3,0.7-2.8,2c-1.8,4.6-3,10.3-3.6,17.3
						c-1.5,0-2.9,0-4.2,0c-0.5-3.6,0.2-8.6,2.2-15.2c0.3-1.1,0.2-2-0.4-3c-0.7-0.8-1.6-1.2-2.7-1.2c-0.7,0-1.3,0.2-1.8,0.7
						c-0.6,0.4-1,1-1.2,1.6c-2.1,7.1-2.9,12.8-2.5,17.1c-0.8,0-1.8,0-3.1,0l-1.2-17.4c0-0.8-0.3-1.5-1-2.1
						C-845.4,426.2-846.1,425.9-846.9,425.9z"/>
				</g>
			</g>
		</g>
		<g>
			<g transform="translate(1073.468461, 91.601101)">
				<g>
					<path d="M-834.7,426.8c-1.4,0-2.4,0.7-2.9,2c-2,4.9-3.2,11.7-3.8,20.4c0,0.9,0.2,1.6,0.8,2.3c0.6,0.7,1.3,1.1,2.2,1.1
						c0.8,0.1,1.6-0.2,2.3-0.8c0.7-0.6,1-1.3,1.1-2.2c0.5-8,1.7-14.2,3.4-18.4c0.5-1.1,0.4-2.1-0.3-3.1
						C-832.6,427.2-833.5,426.8-834.7,426.8z"/>
				</g>
			</g>
		</g>
		<g>
			<g transform="translate(1084.028427, 91.601101)">
				<g>
					<path d="M-815,426.8c-0.1,0-0.2,0-0.4,0c-0.6,0-1.3,0.1-2.1,0.2c-0.2,0-0.3,0.1-0.5,0.1c-3.2,1.1-6.2,2.9-8.9,5.4
						c-0.3-1.2-0.8-2.5-1.2-3.7c-0.6-1.4-1.6-2-3-2c-1.1,0-2,0.5-2.7,1.4c-0.6,1-0.7,2-0.2,3c0.8,2.2,1.5,4.7,2.1,7.3
						c-1.9,2.7-3.7,5.9-5.4,9.6c-0.4,0.8-0.4,1.6-0.1,2.5c0.3,0.9,0.9,1.5,1.7,1.9c0.8,0.4,1.7,0.4,2.5,0.1c0.8-0.3,1.4-1,1.8-1.9
						c4.1-9.3,9.2-15.1,15.3-17.4c0.3,0,0.7-0.1,1-0.1c0,0.5,0,1-0.1,1.3c-1.3,7-2,10.9-2,11.5h-0.8c-0.4,0-0.7,0-0.8,0
						c0,0-0.1,0.1-0.1,0.1c-0.1,0-0.1,0-0.1,0c0,0-0.1,0-0.2,0c-0.5,0-1.9,0-4.3,0c-0.9,0-1.6,0.3-2.2,1c-0.7,0.6-1,1.4-1,2.2
						c0,0.9,0.3,1.7,1,2.3c0.6,0.6,1.4,0.9,2.2,0.9c2.1,0,3.5,0,4.4,0c0.3,0,0.6,0,0.8,0c0,0,0.1,0,0.2-0.1c0.1,0,0.2,0,0.2-0.1
						c0.7,0,2.1,0,4,0c0.9,0,1.7-0.4,2.3-1.1c0.6-0.7,0.9-1.5,0.8-2.5c-0.2-1.4,0.4-5.8,1.7-13.1c0.5-2.9,0.3-5.2-0.8-6.7
						c-0.8-1.1-2-1.9-3.6-2.1C-814,426.9-814.5,426.8-815,426.8z M-816.9,451.8c-0.2,0.2-0.4,0.4-0.4,0.4c0-0.1,0-0.1-0.2,0
						C-817.3,452.1-817.1,452-816.9,451.8z"/>
				</g>
			</g>
		</g>
		<g>
			<g transform="translate(1108.892364, 91.601101)">
				<g>
					<path d="M-824.8,427c-0.8,0-1.6,0.3-2.3,1c-0.7,0.6-1,1.4-1,2.2c0,0.9,0.4,1.7,1,2.3c0.7,0.6,1.4,0.9,2.3,0.9l12.2-0.1
						c-1.1,4-1.9,9.3-2.3,15.9c-0.1,0.9,0.2,1.6,0.8,2.3c0.6,0.7,1.3,1.1,2.2,1.1c0.8,0.1,1.6-0.2,2.3-0.8c0.7-0.6,1.1-1.3,1.2-2.2
						c0.5-8,1.7-14.2,3.4-18.5c0.4-1.1,0.3-2.1-0.3-3.1c-0.6-0.9-1.6-1.3-2.8-1.3L-824.8,427z M-825.5,438.1c-0.8,0-1.5,0.2-2.2,0.8
						c-0.6,0.6-1,1.3-1.1,2.1c-0.3,2-0.6,4.8-0.8,8.4c0,0.9,0.2,1.6,0.8,2.3c0.6,0.7,1.3,1.1,2.2,1.1c0.8,0.1,1.6-0.2,2.3-0.8
						c0.7-0.6,1-1.3,1.1-2.2c0.2-3.4,0.5-6.1,0.8-7.9c0.1-1-0.1-1.8-0.7-2.6C-823.8,438.5-824.6,438.1-825.5,438.1z"/>
				</g>
			</g>
		</g>
		<g>
			<g transform="translate(1140.332304, 91.601101)">
				<g>
					<path d="M-812.1,417.3c-1.4,0-2.4,0.7-2.9,2c-1,2.6-1.8,5.4-2.4,8.3c-1.2,0.9-1.5,2.1-1,3.6c0.5,1.5,1.6,2.2,3.2,2.2l11.7-0.1
						c-1.1,3.9-1.8,9.2-2.3,16c0,0.9,0.2,1.6,0.8,2.4c0.6,0.7,1.3,1.1,2.2,1.1c0.9,0.1,1.7-0.2,2.3-0.8c0.7-0.6,1.1-1.4,1.1-2.2
						c0.5-7.5,1.5-13.2,2.9-17.2c1.2-0.9,1.5-2.1,1-3.6c-0.5-1.4-1.5-2.2-3-2.2c-0.2-0.1-0.4-0.1-0.7-0.1c-0.2,0-0.3,0-0.4,0.1
						l-10.9,0.1c0.5-1.8,1-3.5,1.7-5.1c0.4-1.1,0.3-2.1-0.3-3.1C-809.9,417.6-810.9,417.2-812.1,417.3z"/>
				</g>
			</g>
		</g>
		<g>
			<g transform="translate(1161.212277, 91.601101)">
				<g>
					<path d="M-799.3,426.8c-1.4,0-2.3,0.7-2.8,2.1c-1.8,4.6-3,10.4-3.6,17.4c-1.7,0-3.1,0-4.2,0c-0.8,0-1.6,0.3-2.3,1
						c-0.6,0.6-1,1.4-1,2.3c0,0.8,0.3,1.5,1,2.2c0.7,0.6,1.4,1,2.3,1c3.3,0,6.7,0,10.1-0.1c3.4,0,6.5-0.1,9.5-0.1
						c0.9,0.1,1.8-0.1,2.4-0.7c0.7-0.5,1.1-1.3,1.2-2.2c0.5-8,1.6-14.1,3.3-18.4c0.5-1.1,0.4-2.1-0.3-3.1c-0.7-1-1.6-1.4-2.8-1.4
						c-1.4,0-2.4,0.7-2.9,2.1c-1.8,4.6-3,10.3-3.6,17.3c-2.4,0-4.5,0-6.5,0c0.5-6.1,1.6-11,3.2-14.9c0.4-1.1,0.3-2.1-0.3-3.1
						C-797.2,427.2-798.1,426.7-799.3,426.8z"/>
				</g>
			</g>
		</g>
		<g>
			<g transform="translate(1195.964229, 91.601101)">
				<g>
					<path d="M-793.9,426.8c-1.4,0-2.4,0.7-2.9,2c-2,4.9-3.2,11.7-3.8,20.4c0,0.9,0.2,1.6,0.8,2.3c0.6,0.7,1.3,1.1,2.2,1.1
						c0.8,0.1,1.6-0.2,2.3-0.8c0.7-0.6,1-1.3,1.1-2.2c0.5-8,1.7-14.2,3.4-18.4c0.5-1.1,0.4-2.1-0.3-3.1
						C-791.8,427.2-792.7,426.8-793.9,426.8z"/>
				</g>
			</g>
		</g>
		<g>
			<g transform="translate(1206.524195, 91.601101)">
				<g>
					<path d="M-784,426.8c-0.2,0-0.5,0-0.8,0.1l-9.2,0.1c-0.8,0-1.6,0.3-2.3,1c-0.6,0.7-1,1.5-1,2.3c0,0.9,0.4,1.6,1,2.2
						c0.7,0.6,1.4,1,2.2,1l5.4-0.1c-1.1,3.8-1.8,9.1-2.2,15.9c-0.1,0.9,0.2,1.6,0.8,2.3c0.6,0.7,1.3,1.1,2.2,1.1
						c0.8,0.1,1.6-0.2,2.3-0.8c0.7-0.6,1.1-1.3,1.1-2.2c0.5-7.1,1.4-12.5,2.7-16.4l4.4-0.1c0.8,0,1.6-0.3,2.3-1c0.6-0.7,1-1.5,1-2.3
						c0-0.8-0.3-1.6-1-2.2c-0.7-0.6-1.4-1-2.3-1l-5.9,0.1C-783.4,426.8-783.7,426.8-784,426.8z"/>
				</g>
			</g>
		</g>
		<g>
			<g transform="translate(1226.540185, 91.601101)">
				<g>
					<path d="M-767.5,426.8c-0.1,0-0.2,0-0.4,0c-0.6,0-1.3,0.1-2.1,0.2c-0.2,0-0.3,0.1-0.5,0.1c-3.2,1.1-6.2,2.9-8.9,5.4
						c-0.3-1.2-0.8-2.5-1.2-3.7c-0.6-1.4-1.6-2-3-2c-1.1,0-2,0.5-2.7,1.4c-0.6,1-0.7,2-0.2,3c0.8,2.2,1.5,4.7,2.1,7.3
						c-1.9,2.7-3.7,5.9-5.4,9.6c-0.4,0.8-0.4,1.6-0.1,2.5c0.3,0.9,0.9,1.5,1.7,1.9c0.8,0.4,1.7,0.4,2.5,0.1c0.8-0.3,1.4-1,1.8-1.9
						c4.1-9.3,9.2-15.1,15.3-17.4c0.3,0,0.7-0.1,1-0.1c0,0.5,0,1-0.1,1.3c-1.3,7-2,10.9-2,11.5h-0.8c-0.4,0-0.7,0-0.8,0
						c0,0-0.1,0.1-0.1,0.1c-0.1,0-0.1,0-0.1,0c0,0-0.1,0-0.2,0c-0.5,0-1.9,0-4.3,0c-0.9,0-1.6,0.3-2.2,1c-0.7,0.6-1,1.4-1,2.2
						c0,0.9,0.3,1.7,1,2.3c0.6,0.6,1.4,0.9,2.2,0.9c2.1,0,3.5,0,4.4,0c0.3,0,0.6,0,0.8,0c0,0,0.1,0,0.2-0.1c0.1,0,0.2,0,0.2-0.1
						c0.7,0,2.1,0,4,0c0.9,0,1.7-0.4,2.3-1.1c0.6-0.7,0.9-1.5,0.8-2.5c-0.2-1.4,0.4-5.8,1.7-13.1c0.5-2.9,0.3-5.2-0.8-6.7
						c-0.8-1.1-2-1.9-3.6-2.1C-766.5,426.9-767,426.8-767.5,426.8z M-769.4,451.8c-0.2,0.2-0.4,0.4-0.4,0.4c0-0.1,0-0.1-0.2,0
						C-769.8,452.1-769.6,452-769.4,451.8z"/>
				</g>
			</g>
		</g>
		<g>
			<g transform="translate(1251.404168, 91.601101)">
				<g>
					<path d="M-775.1,417.3c-1.4,0-2.4,0.7-2.9,2c-1,2.6-1.8,5.4-2.4,8.3c-1.2,0.9-1.5,2.1-1,3.6c0.5,1.5,1.6,2.2,3.2,2.2l11.7-0.1
						c-1.1,3.9-1.8,9.2-2.3,16c0,0.9,0.2,1.6,0.8,2.4c0.6,0.7,1.3,1.1,2.2,1.1c0.9,0.1,1.7-0.2,2.3-0.8c0.7-0.6,1.1-1.4,1.1-2.2
						c0.5-7.5,1.5-13.2,2.9-17.2c1.2-0.9,1.5-2.1,1-3.6c-0.5-1.4-1.5-2.2-3-2.2c-0.2-0.1-0.4-0.1-0.7-0.1c-0.2,0-0.3,0-0.4,0.1
						l-10.9,0.1c0.5-1.8,1-3.5,1.7-5.1c0.4-1.1,0.3-2.1-0.3-3.1C-772.9,417.6-773.8,417.2-775.1,417.3z"/>
				</g>
			</g>
		</g>
		<g>
			<g transform="translate(1272.284141, 91.601101)">
				<g>
					<path d="M-763.4,426.8c-0.4,0-0.7,0.1-1,0.2h-1.2c-1.5,0-2.5,0.7-3,2.1c-0.2,0.6-0.3,1.2-0.1,1.9c0.2,0.7,0.5,1.2,1,1.6
						c-1.1,3.6-1.9,8.2-2.3,13.6c-0.3,0-1,0-2.1,0c-0.8,0-1.6,0.3-2.3,1c-0.6,0.6-1,1.4-1,2.2c0,0.9,0.3,1.6,1,2.2
						c0.7,0.6,1.4,1,2.3,1c1.3,0,2.3,0,3.1-0.1c0.4,0,0.9-0.1,1.7-0.1c0.2,0,0.5,0,0.8,0h0.2c1.3,0,2.3-0.6,2.9-1.7
						c0.6-1.2,0.5-2.3-0.3-3.4c0.5-5.8,1.3-10.5,2.4-14.1l7.8-0.1c-1.1,4-1.9,9.2-2.3,15.8c-0.1,0.9,0.2,1.6,0.8,2.4
						c0.6,0.7,1.4,1,2.2,1.1c0.8,0,1.6-0.2,2.3-0.8c0.7-0.6,1.1-1.3,1.2-2.1c0.5-8.1,1.7-14.2,3.3-18.4c0.4-1,0.3-2-0.3-3
						c-0.6-0.9-1.5-1.4-2.7-1.4l-13.3,0.2C-762.7,426.9-763.1,426.8-763.4,426.8z"/>
				</g>
			</g>
		</g>
		<g>
			<g transform="translate(1307.180059, 91.601101)">
				<g>
					<path d="M-758.7,427c-0.8,0-1.6,0.3-2.3,1c-0.7,0.6-1,1.4-1,2.2c0,0.9,0.4,1.7,1,2.3c0.7,0.6,1.4,0.9,2.3,0.9l12.2-0.1
						c-1.1,4-1.9,9.3-2.3,15.9c-0.1,0.9,0.2,1.6,0.8,2.3c0.6,0.7,1.3,1.1,2.2,1.1c0.8,0.1,1.6-0.2,2.3-0.8c0.7-0.6,1.1-1.3,1.2-2.2
						c0.5-8,1.7-14.2,3.4-18.5c0.4-1.1,0.3-2.1-0.3-3.1c-0.6-0.9-1.6-1.3-2.8-1.3L-758.7,427z M-759.5,438.1c-0.8,0-1.5,0.2-2.2,0.8
						c-0.6,0.6-1,1.3-1.1,2.1c-0.3,2-0.6,4.8-0.8,8.4c0,0.9,0.2,1.6,0.8,2.3c0.6,0.7,1.3,1.1,2.2,1.1c0.8,0.1,1.6-0.2,2.3-0.8
						c0.7-0.6,1-1.3,1.1-2.2c0.2-3.4,0.5-6.1,0.8-7.9c0.1-1-0.1-1.8-0.7-2.6C-757.7,438.5-758.5,438.1-759.5,438.1z"/>
				</g>
			</g>
		</g>
		<g>
			<g transform="translate(1328.732029, 91.601101)">
				<g>
					<path d="M-747.5,426.8c-0.2,0-0.5,0-0.8,0.1l-5,0.1c-0.8,0-1.6,0.3-2.2,1c-0.6,0.7-1,1.4-1,2.2c0,0.9,0.4,1.6,1,2.3
						c0.7,0.6,1.4,0.9,2.2,0.9h1.3c-1.1,3.9-1.8,9.1-2.3,15.8c0,0.9,0.3,1.6,0.9,2.3c0.5,0.7,1.3,1.1,2.2,1.1
						c0.8,0.1,1.6-0.2,2.3-0.8c0.7-0.6,1-1.3,1.1-2.2c0.5-7.1,1.4-12.6,2.6-16.4h1.7c0.9,0,1.7-0.4,2.2-1c0.6-0.7,1-1.5,1-2.3
						c0-0.8-0.3-1.6-1-2.2c-0.6-0.7-1.4-1-2.2-1l-3.1,0.1C-746.9,426.8-747.2,426.8-747.5,426.8z"/>
				</g>
			</g>
		</g>
		<g>
			<g transform="translate(1353.403979, 91.601101)">
				<g>
					<path d="M-744,427c-0.8,0-1.5,0.3-2.2,1c-0.7,0.7-1,1.4-1,2.2c0,0.9,0.4,1.7,1,2.3c0.7,0.6,1.5,0.9,2.3,0.9l12.1-0.1
						c-1.1,4-1.9,9.3-2.4,15.9c0,0.8,0.2,1.6,0.8,2.3c0.6,0.7,1.4,1,2.2,1.1c0.8,0.1,1.6-0.2,2.3-0.8c0.7-0.5,1.1-1.3,1.1-2.2
						c0.5-8,1.7-14.1,3.4-18.4c0.4-1.1,0.3-2.1-0.3-3c-0.6-0.9-1.5-1.4-2.7-1.4L-744,427z M-742.3,439.5c-0.8,0-1.5,0.3-2.2,0.9
						c-0.6,0.6-0.9,1.3-1,2l-2.6,24.8c-0.1,0.9,0.2,1.6,0.8,2.4c0.6,0.7,1.3,1.1,2.1,1.2c0.8,0.1,1.6-0.2,2.4-0.8
						c0.7-0.6,1.1-1.3,1.2-2.1l2.6-24.8c0.1-1-0.1-1.8-0.8-2.6C-740.5,439.9-741.3,439.5-742.3,439.5z"/>
				</g>
			</g>
		</g>
		<g>
			<g transform="translate(1374.379946, 91.601101)">
				<g>
					<path d="M-738,427c-0.9,0-1.7,0.4-2.3,1c-0.6,0.6-1,1.4-1,2.2c0,0.9,0.4,1.7,1,2.3c0.7,0.6,1.4,0.9,2.3,0.9l12.2-0.1
						c-1.1,4-1.9,9.3-2.4,15.9c0,0.9,0.2,1.6,0.8,2.3c0.6,0.7,1.3,1.1,2.2,1.1c0.8,0.1,1.6-0.2,2.3-0.8c0.7-0.6,1.1-1.3,1.2-2.2
						c0.5-8,1.7-14.2,3.4-18.5c0.4-1.1,0.3-2.1-0.3-3.1c-0.7-0.9-1.6-1.3-2.8-1.3L-738,427z"/>
				</g>
			</g>
		</g>
		<g>
			<g transform="translate(1394.683915, 91.601101)">
				<g>
					<path d="M-727.7,426.9c-0.7,0-1.4,0.3-2,0.8c-0.6,0.5-1,1.1-1.2,1.9v0.1c0,0,0,0-0.1,0.1l-1.8,9.1c-0.2,1-0.1,1.8,0.5,2.6
						c0.6,0.8,1.4,1.2,2.3,1.3l6.8,0.7c0.9,0.1,1.7-0.1,2.4-0.8c0.7-0.6,1.1-1.3,1.2-2.2c0.1-0.8-0.2-1.6-0.8-2.3
						c-0.6-0.7-1.3-1.1-2.2-1.2l-3.2-0.2l0.6-3.3l9.6-0.1c-1,3.6-1.8,7.9-2.2,12.9c-0.9,0-2.8,0-5.7,0.1c-2.2,0.1-4.8,0.1-7.9,0.1
						c-0.8,0-1.6,0.3-2.2,0.9c-0.7,0.7-1,1.5-1,2.3c0,0.9,0.3,1.6,1,2.2c0.6,0.6,1.4,1,2.2,1c3.3,0,6.3,0,8.8-0.1
						c2.7,0,5.2-0.1,7.3-0.1c0.4,0,0.8,0,1.2,0h0.3c1.4,0,2.3-0.6,2.9-1.9c0.6-1.3,0.4-2.4-0.5-3.5c0.5-6.6,1.6-12,3.2-16.1
						c0.4-1.1,0.3-2.1-0.4-3c-0.6-0.9-1.5-1.4-2.7-1.4L-727.7,426.9z"/>
				</g>
			</g>
		</g>
		<g>
			<g transform="translate(1417.627853, 91.601101)">
				<g>
					<path d="M-721.4,427c-0.9,0-1.6,0.3-2.2,1c-0.7,0.6-1,1.4-1,2.2c0,0.9,0.3,1.6,1,2.2c0.6,0.6,1.4,1,2.3,1l12.1-0.1
						c-1,3.5-1.7,7.9-2.1,12.9c-4.8,0.1-8.9,0.1-12.2,0.1c-0.8,0-1.6,0.3-2.3,1c-0.6,0.6-1,1.4-1,2.2c0,0.9,0.3,1.6,1,2.2
						c0.7,0.6,1.4,1,2.3,1c-0.7,0,4.3,0,15-0.1h0.5c2.2,0,3.6,0,4.4,0c0.8,0,1.6-0.3,2.2-1c0.7-0.6,1-1.4,1-2.3c0-0.8-0.3-1.6-1-2.2
						c-0.6-0.6-1.4-1-2.2-1h-1.2c0.5-6.1,1.5-11,3.1-14.9c0.4-1.1,0.3-2.1-0.3-3.1c-0.6-0.9-1.5-1.3-2.7-1.3L-721.4,427z"/>
				</g>
			</g>
		</g>
	</g>
</g>
<g class="st30">
	<path class="st32" d="M528,209.8c0,39.6-21.8,74.3-54.4,93.7c-7.6,4.5-15.8,8.2-24.5,11c-0.1,0-0.3,0.1-0.4,0.1
		c-11.1,3.5-23.1,5.4-35.4,5.4c-4.3,0-8.6-0.2-12.8-0.7c-9.8-1-19.2-3.2-28-6.5c-0.5-0.2-1-0.4-1.5-0.5c-2.7-1-5.4-2.2-8-3.4
		c-4.8-2.2-9.4-4.8-13.8-7.6c-30.6-19.8-50.7-53.4-50.7-91.4c0-60.8,51.4-110.2,114.8-110.2c0.2,0,0.4,0,0.6,0
		C476.9,100,528,149.2,528,209.8z"/>
	<g class="st2">
		<path class="st33" d="M393,243.7c14.7-0.4,29.3-0.9,44-1.3c-0.4,11.7-10.1,21.2-21.7,21.4C403.9,264,394.1,255.2,393,243.7z"/>
		<path class="st34" d="M434.8,229.1c0.8,7.5-1.9,4.1-2.5,28.7c-0.9,3-2.9,8.2-7,13.7c-3.2,4.2-5.9,7.8-9.6,8
			c-6,0.2-10.7-9.5-12.7-13.7c-4.3-8.9-1.9-20.4-3.5-33.8C406.1,223.6,421.3,221.5,434.8,229.1z"/>
		<g>
			<path class="st35" d="M400.2,231.8c3.8-2.1,11.6-5.5,21.8-5.1c5.4,0.2,9.8,1.4,13,2.6c-0.6,4.8-1.3,9.6-1.9,14.3
				c0,0-7.3,6-11.6,7.3c-5.5,1.7-10.5,1.6-14.8,1.3c-2.7-0.1-4.9-0.4-6.4-0.7L400.2,231.8L400.2,231.8z"/>
		</g>
		<path class="st36" d="M463.1,194.3c1.8-2.6,6.1-9.7,6.4-19.2c0.4-14.3-8.6-28.9-20.9-35.1c-14.7-7.4-38.4-6.2-32-6.5
			c6-0.3,8.8-15.2,8.3-15.6c-0.5-0.4-7.5,8.7-13.1,13.4c-30.3-9.9-60.6,6.7-60.5,5.7c0.1-1,29.3-1.4,47.3,3.1c0.1,0,0.1,0,0.2,0
			c-3.7-1.7-8.8-3.1-14.3-2.2c-11.8,1.9-21.7,13.4-24.5,29c0.4,8.6,2.8,24.8,15,36.6C399.3,227.3,447.1,217.7,463.1,194.3z"/>
		<path class="st34" d="M366.9,191.5c-3.3,1.5-3.2,8.1-3.2,8.9c0.4,13.8,17.7,21.8,18.8,22.3c3.8,1.7,7.8,3.5,9.6,1.9
			c3.3-3.1-4-16.9-12.7-25.8C376.3,195.7,370.6,189.8,366.9,191.5z"/>
		<path class="st34" d="M463.6,191.6c3.3,1.5,3.2,8.1,3.2,8.9c-0.4,13.8-17.7,21.8-18.8,22.3c-3.8,1.7-7.8,3.5-9.6,1.9
			c-3.3-3.1,4-16.9,12.7-25.8C454.1,195.9,459.9,190,463.6,191.6z"/>
		<path class="st34" d="M375.2,186.7c1,15.3,8.9,35.1,8.9,35.1s2.9,14.3,31.5,26.4c4.9-1.8,20.2-8.1,30.9-24.9
			c6.7-17.2,10-33.4,9.6-38.6c-2.9-18.1-17.3-41.5-39.2-42.1C393.9,142.1,377.6,167.1,375.2,186.7z"/>
		<path class="st37" d="M423.8,206.5c-0.8-1.3-0.7-2.6-0.6-3.7c0-0.5,0.2-3.6,2.1-5.4c3.7-3.5,14.5-3.2,18.4,1.7
			c1.8,2.2,2.5,5.7,0.3,8.3c-3,3.7-9.2,3.3-10.8,3.2C432.5,210.6,425.9,210.2,423.8,206.5z"/>
		<path class="st38" d="M445.3,208c0.1-0.8,0.9-6.3-3.2-9.9c-5-4.5-14.3-3.6-17.8,0.6c-0.9,1.1-1.4,2.2-1.6,3.2"/>
		<circle class="st39" cx="432.3" cy="202.6" r="3.9"/>
		<path class="st40" d="M442.9,208.5c-1,0.5-9.1,4.4-15.9,0.3c-1.7-1-2.9-2.3-3.8-3.5"/>
		<circle class="st37" cx="434.1" cy="201.4" r="1.5"/>
		<path class="st37" d="M403.9,206.1c0.8-1.3,0.7-2.6,0.6-3.7c0-0.5-0.2-3.6-2.1-5.4c-3.7-3.5-14.5-3.2-18.4,1.7
			c-1.8,2.2-2.5,5.7-0.3,8.3c3,3.7,9.2,3.3,10.8,3.2C395.2,210.2,401.8,209.7,403.9,206.1z"/>
		<path class="st38" d="M382.4,207.6c-0.1-0.8-0.9-6.3,3.2-9.9c5-4.5,14.3-3.6,17.8,0.6c0.9,1.1,1.4,2.2,1.6,3.2"/>
		<circle class="st39" cx="395.4" cy="202.1" r="3.9"/>
		<circle class="st37" cx="397.4" cy="200.9" r="1.5"/>
		<path class="st40" d="M384.6,208.1c1,0.5,9.1,4.4,15.9,0.3c1.7-1,2.9-2.3,3.8-3.5"/>
		<path class="st41" d="M409,164.7c-2.2,21-9.2,30.6-9.2,30.6s17.8-9.2,14.3-12.4c0.6,0.5-4.5,14.3-10.2,17.5c1.5,2,9.1-0.3,14-4.1
			c13.8-11,8.2-37.3,7.3-41.1"/>
		<path class="st41" d="M418.8,160.2c4.5,9.2,19.8,21.7,32,32c2.2,1.9-0.5,7.7-4,13.5c1,1,3.9-0.5,4.5-0.8c4.7-2.4,7.8-8,7.9-15.1"
			/>
		<path class="st38" d="M375.2,202.6"/>
		<path class="st36" d="M459.6,188c5.3-4.5-2.4-34.6-24.2-45.9c-20.7-10.8-49.3-2.1-60.9,16.2c-6.6,10.6-8.7,26-3.5,29.3
			c9.2,5.8,39.8-26.7,43.5-23.1c1.6,1.6-3.5,8.3-1.4,10.4c2.2,2.1,8.3-5.2,15.8-4c7.4,1.2,7.7,9.3,18.8,14.7
			C450.7,187.1,457,190.1,459.6,188z"/>
		<g>
			<g>
				<path d="M410.1,164.7c0.3-1.2,0.4-2.5,0.4-3.8c0-0.5-0.3-1-0.7-1.3c-0.4-0.3-1.1-0.3-1.5,0c-1.2,0.8-2.2,1.7-3.1,2.8
					c-0.3,0.3-0.4,0.6-0.4,1.1c0,0.4,0.2,0.8,0.4,1.1c0.3,0.3,0.7,0.5,1.1,0.4c0.4,0,0.8-0.1,1.1-0.4c0.6-0.8,1.4-1.4,2.2-2
					c-0.1,0.1-0.2,0.2-0.3,0.2c0.2-0.2,0.5-0.3,0.7-0.5c-0.8-0.4-1.5-0.9-2.3-1.3c0,0.8,0,1.5-0.1,2.2c0-0.1,0-0.3,0-0.4
					c0,0.4-0.1,0.8-0.2,1.2c-0.1,0.4-0.1,0.8,0.1,1.2c0.2,0.3,0.5,0.6,0.9,0.7c0.4,0.1,0.8,0.1,1.2-0.1
					C409.7,165.4,410,165.1,410.1,164.7L410.1,164.7z"/>
			</g>
		</g>
		<g>
			<path d="M427.3,169.8c-0.2,0-0.3-2.3-1-7c-0.5-2.9-1-5.3-1.3-6.9c0.9,1.4,2,3.7,2.5,6.5C428.1,166.3,427.5,169.8,427.3,169.8z"/>
			<g>
				<path d="M427.7,168.4c-0.2,0,1.1,0.6,1,0.9c0,0,0-0.1,0-0.1c0-0.1,0-0.2-0.1-0.3c0-0.2,0,0.3,0,0.1c0-0.1,0-0.2,0-0.2
					c0-0.2,0-0.4-0.1-0.6c-0.1-1.3-0.3-2.5-0.5-3.8c-0.4-2.9-0.9-5.9-1.6-8.8c-0.9,0.4-1.8,0.8-2.7,1.2c1.2,2.1,2.1,4.4,2.4,6.8
					c0.2,1.3,0.2,2.6,0.1,4c0,0.3,0,0.5-0.1,0.8c0,0.3,0-0.2,0,0.1c0,0.1,0,0.2-0.1,0.3c0,0.1-0.1,0.3-0.1,0.4
					c-0.1,0.3,0.2-0.3,0.2-0.3c0.2-0.1,0.4-0.3,0.7-0.4c0,0,0,0,0,0c-1.9,0.5-1.1,3.4,0.8,2.9c1.2-0.4,1.3-1.7,1.5-2.8
					c0.2-1.4,0.2-2.9,0-4.4c-0.3-3.2-1.3-6.2-2.9-9c-0.9-1.5-3.1-0.5-2.7,1.2c0.7,3.1,1.3,6.3,1.7,9.5c0.1,1.1,0.2,2.1,0.4,3.2
					c0.1,0.9,0.2,2,1.3,2.2c0.8,0.1,1.6-0.2,1.9-1.1C428.9,169.5,428.5,168.5,427.7,168.4z"/>
			</g>
		</g>
		<g>
			<g>
				<path d="M462.1,188.3c0-1.1,0-2.2,0-3.4c0-0.4-0.2-0.8-0.4-1.1c-0.3-0.3-0.7-0.5-1.1-0.4c-0.8,0-1.5,0.7-1.5,1.5
					c0,1.1,0,2.2,0,3.4c0,0.4,0.2,0.8,0.4,1.1c0.3,0.3,0.7,0.5,1.1,0.4C461.4,189.7,462.1,189.1,462.1,188.3L462.1,188.3z"/>
			</g>
		</g>
		<g>
			<g>
				<path d="M387.5,140c1.4-0.1,2.9-0.1,4.3-0.1c0.7,0,1.4,0.1,2.1,0.1c0.7,0.1,1.4,0.1,2,0.2c0.8,0.1,1.6-0.2,1.9-1.1
					c0.2-0.7-0.2-1.7-1-1.9c-3-0.5-6.1-0.6-9.2-0.4c-0.8,0.1-1.5,0.6-1.5,1.5C386.1,139.2,386.7,140,387.5,140L387.5,140z"/>
			</g>
		</g>
		<g>
			<g>
				<path d="M423.1,151.5c-0.1-0.2-0.3-0.5-0.4-0.7c-0.2-0.3-0.5-0.6-0.8-0.9c-0.6-0.5-1.3-0.9-2.1-1.2c-0.4-0.1-0.8,0-1.2,0.1
					c-0.3,0.2-0.6,0.5-0.7,0.9c-0.1,0.4-0.1,0.8,0.1,1.2s0.5,0.6,0.9,0.7c0.1,0,0.2,0.1,0.3,0.1c-0.1-0.1-0.2-0.1-0.4-0.1
					c0.3,0.1,0.6,0.3,0.9,0.6c-0.1-0.1-0.2-0.2-0.3-0.2c0.3,0.2,0.5,0.5,0.8,0.8c-0.1-0.1-0.2-0.2-0.2-0.3c0.2,0.2,0.3,0.5,0.4,0.7
					c0.2,0.3,0.6,0.6,0.9,0.7c0.4,0.1,0.8,0.1,1.2-0.1c0.3-0.2,0.6-0.5,0.7-0.9c0-0.1,0-0.3,0-0.4
					C423.3,152,423.2,151.8,423.1,151.5L423.1,151.5z"/>
			</g>
		</g>
		<g>
			<g>
				<path d="M447.5,152.5c2.6,4.6,4.9,9.3,6.9,14.1c0.3,0.8,1,1.3,1.9,1.1c0.7-0.2,1.4-1.1,1-1.9c-2.1-5.1-4.5-10.1-7.1-14.8
					C449.1,149.3,446.5,150.8,447.5,152.5L447.5,152.5z"/>
			</g>
		</g>
		<g>
			<g>
				<path d="M370.8,171.6c0.4-2.5,1.8-4.8,2.9-7c1.2-2.4,2.5-4.8,3.8-7.1c1-1.7-1.6-3.2-2.6-1.5c-1.4,2.4-2.7,4.9-3.9,7.4
					c-0.6,1.2-1.2,2.5-1.8,3.7c-0.5,1.2-1.1,2.4-1.3,3.7c-0.1,0.8,0.2,1.6,1,1.9C369.7,172.8,370.7,172.4,370.8,171.6L370.8,171.6z"
					/>
			</g>
		</g>
		<path class="st42" d="M367.5,195.9c-0.4,1.2-1,3.7-0.3,6.7c0.4,2,1.3,3.5,1.9,4.5"/>
		<path class="st42" d="M463.5,195.6c0.4,1.2,1,3.7,0.3,6.7c-0.4,2-1.3,3.5-1.9,4.5"/>
		<path class="st43" d="M446.4,222.5c0,0-6.5,8.5-9.9,7c-2.2-0.9-0.7-4.9-3.5-7c-2-1.5-5.8-1-13.2,0.2c-2.4,0.4-2.1,0.4-3.8,0.6
			c-9.4,1.3-12.5-0.4-15,1.6c-2.9,2.3-0.2,7.1-2.2,8.3c-3.2,1.9-11.6-7.7-11.8-7.6c-0.2,0.1-0.4,0.1-0.4,0.3
			c-0.9,5.6,28.4,23.7,29.2,22.2c0,0,13.1-5.4,19.4-11.9C440.6,231.3,444.1,226.4,446.4,222.5z"/>
		<line class="st42" x1="417.6" y1="201" x2="413.4" y2="203.6"/>
		<line class="st42" x1="417.9" y1="202.6" x2="411.2" y2="206.8"/>
		<line class="st42" x1="419.5" y1="203.6" x2="410.9" y2="209"/>
		<line class="st42" x1="420.1" y1="205.5" x2="411.2" y2="210.9"/>
		<line class="st42" x1="421.1" y1="206.8" x2="411.8" y2="212.2"/>
		<path class="st44" d="M415.6,215.2c0,1.3-0.1,2.6-0.2,3.8c-0.6-0.5-1.2-1.1-1.8-1.6"/>
		<g>
			<g>
				<path class="st35" d="M384.8,211.3c-0.2,0.3-0.4,0.5-0.6,0.8c-0.1,0.2-0.2,0.4-0.2,0.6c0,0.2,0,0.4,0,0.6c0,0.2,0.1,0.4,0.3,0.5
					c0.1,0.2,0.2,0.3,0.4,0.4c0.1,0.1,0.2,0.1,0.4,0.1c0.3,0.1,0.5,0.1,0.8,0c0.1-0.1,0.2-0.1,0.4-0.1c0.2-0.1,0.4-0.3,0.5-0.5
					c0.2-0.3,0.4-0.5,0.6-0.8c0.1-0.2,0.2-0.4,0.2-0.6c0-0.2,0-0.4,0-0.6c0-0.2-0.1-0.4-0.3-0.5c-0.1-0.2-0.2-0.3-0.4-0.4
					c-0.1-0.1-0.2-0.1-0.4-0.1c-0.3-0.1-0.5-0.1-0.8,0c-0.1,0.1-0.2,0.1-0.4,0.1C385.1,210.9,384.9,211.1,384.8,211.3L384.8,211.3z"
					/>
			</g>
		</g>
		<g>
			<g>
				<path class="st35" d="M386,212.2c-0.1,0.1-0.1,0.2-0.2,0.3c-0.1,0.2-0.2,0.4-0.2,0.6c0,0.2,0,0.4,0,0.6c0,0.2,0.1,0.4,0.3,0.5
					c0.1,0.2,0.2,0.3,0.4,0.4c0.1,0.1,0.2,0.1,0.4,0.1c0.3,0.1,0.5,0.1,0.8,0c0.1-0.1,0.2-0.1,0.4-0.1c0.2-0.1,0.4-0.3,0.5-0.5
					c0.1-0.1,0.1-0.2,0.2-0.3c0.1-0.2,0.2-0.4,0.2-0.6c0-0.2,0-0.4,0-0.6c0-0.2-0.1-0.4-0.3-0.5c-0.1-0.2-0.2-0.3-0.4-0.4
					c-0.1-0.1-0.2-0.1-0.4-0.1c-0.3-0.1-0.5-0.1-0.8,0c-0.1,0.1-0.2,0.1-0.4,0.1C386.4,211.8,386.2,211.9,386,212.2L386,212.2z"/>
			</g>
		</g>
		<g>
			<g>
				<path class="st35" d="M439.9,212.6c0,0.2,0,0.3,0,0.5c0,0.2,0,0.4,0.1,0.6c0.1,0.2,0.2,0.4,0.3,0.5c0.1,0.1,0.3,0.2,0.5,0.3
					c0.2,0.1,0.4,0.1,0.6,0.1c0.1,0,0.3,0,0.4-0.1c0.2-0.1,0.5-0.2,0.7-0.4c0.1-0.1,0.2-0.2,0.2-0.3c0.1-0.2,0.2-0.5,0.2-0.8
					c0-0.2,0-0.3,0-0.5c0-0.2,0-0.4-0.1-0.6c-0.1-0.2-0.2-0.4-0.3-0.5c-0.1-0.1-0.3-0.2-0.5-0.3c-0.2-0.1-0.4-0.1-0.6-0.1
					c-0.1,0-0.3,0-0.4,0.1c-0.2,0.1-0.5,0.2-0.7,0.4c-0.1,0.1-0.2,0.2-0.2,0.3C440,212.1,439.9,212.4,439.9,212.6L439.9,212.6z"/>
			</g>
		</g>
		<g>
			<g>
				<path class="st35" d="M441.7,213L441.7,213c-0.1-0.1-0.1-0.2-0.2-0.3C441.5,212.8,441.6,212.9,441.7,213
					c-0.1-0.1-0.1-0.2-0.2-0.3C441.5,212.8,441.6,212.9,441.7,213c-0.1-0.1-0.1-0.2-0.1-0.3c0,0.1,0,0.2,0,0.4c0,0.2,0,0.4,0.1,0.6
					c0.1,0.2,0.2,0.4,0.3,0.5c0.1,0.1,0.3,0.2,0.5,0.3c0.2,0.1,0.4,0.1,0.6,0.1c0.1,0,0.3,0,0.4-0.1c0.2-0.1,0.5-0.2,0.7-0.4
					c0.1-0.1,0.2-0.2,0.2-0.3c0.1-0.2,0.2-0.5,0.2-0.8c0-0.1,0-0.2,0-0.3c0-0.2,0-0.4-0.1-0.5c0-0.1,0-0.1,0-0.1c0-0.1,0-0.1,0-0.1
					c-0.1-0.2-0.1-0.3-0.2-0.5c-0.1-0.2-0.3-0.4-0.4-0.6c-0.1-0.1-0.3-0.2-0.5-0.3c-0.2-0.1-0.4-0.1-0.6-0.1c-0.2,0-0.4,0-0.6,0.1
					c-0.2,0.1-0.4,0.2-0.5,0.3c-0.1,0.1-0.2,0.2-0.2,0.3c-0.1,0.2-0.2,0.5-0.2,0.8c0,0.1,0,0.3,0,0.4
					C441.4,212.6,441.5,212.8,441.7,213L441.7,213z"/>
			</g>
		</g>
		<path class="st41" d="M410.9,165.7c-4.1,2.9-30,26.8-32.2,36.3c-0.6,1.6,3.1,10,3.5,9.9c0,0,0,0,0-0.1c0.2-0.8-17.5-5.9-14.1-29.3
			"/>
		<path class="st45" d="M400.4,190.2c-7.6-0.2-14.6,1-20.7,4.5"/>
		<path class="st45" d="M426.5,190.2c7.6-0.2,14.6,1,20.7,4.5"/>
		<path class="st46" d="M475.9,286.7c-0.9-6.9-1.9-13.9-4.4-20.7c-10.1-1.9-20.2-3.8-30.3-5.7l9.8,34.1c1,6.2,2.2,12.5,3.5,18.7
			l26.4-0.5C478.8,304.2,477,295.6,475.9,286.7z"/>
		<path class="st46" d="M384.1,290.9l12.7-31.9c-10.1,1.9-20.2,3.8-30.3,5.7c-2.5,7.9-4.9,16-7.3,24.2c-2.6,8.8-5,17.5-7.3,26
			l25.6-0.5C379.8,306.6,381.9,298.8,384.1,290.9z"/>
		<g>
			<path class="st47" d="M453.8,302.2c0-6.9,0.5-16.9,2.6-29.1l-80.6,2.5c2.2,5.9,2.8,21.5,2.6,38.9l75.7-1.4
				C453.9,309.9,453.8,306.3,453.8,302.2z"/>
			<g>
				<path d="M453.7,302.2c0.2-9.5,0.7-20.3,2.7-29c-13.4,0.4-47.5,1.5-60.5,1.9c-6.7,0.2-13.4,0.4-20.1,0.7l0.1-0.2
					c1.1,3.1,1.6,6.4,2,9.6c1.2,9.4,0.9,19.9,0.6,29.4l-0.1-0.1c0,0,76.2-1.5,75.6-1.3C454,313.1,453.7,302.2,453.7,302.2
					L453.7,302.2z M453.9,302.2l0.3,10.9v0.1c0,0-75.8,1.4-75.8,1.4h-0.1v-0.1l0-4.9c-0.2-7.6-0.5-16.9-1-24.4
					c-0.3-3.3-0.5-6.6-1.6-9.8c6.8-0.1,13.5-0.4,20.3-0.6c12.8-0.4,47.2-1.5,60.5-1.9h0.1l0,0.1C454.9,282.7,454,292.4,453.9,302.2
					L453.9,302.2z"/>
			</g>
		</g>
		<path class="st48" d="M424.2,270.2c-5.7,1.9-11.9,2.1-18.5,1c0-1.2,2.5,9.2,9.6,12.1C425.2,277.8,424.6,268.2,424.2,270.2z"/>
		<path class="st47" d="M401.6,270.2c-1.1-3.4-5.2-5-8.3-4.5c-5.1,0.8-8.6,7.6-6.7,11.1c1.9,3.5,9.1,4,12.7,0.6
			C401.1,275.9,402.6,273,401.6,270.2z"/>
		<path class="st47" d="M448,266.8c-1.1-3.5-5.5-5.1-8.6-5.1c-7,0.1-13.2,8.8-11.5,12.7c1.8,4.1,13,4.9,17.8-0.4
			C446,273.8,449.1,270.4,448,266.8z"/>
		<path class="st46" d="M437.1,242.6C430,251,423,258.4,416.8,262c2.2,5.4,4.4,10.7,6.5,16.1c3.1-3.1,7.3-6.7,12.6-10.1
			c4.6-2.9,8.9-5,12.6-6.4c-2.7-3.9-5.3-7.9-8-11.8C439.4,247.4,438.3,245,437.1,242.6z"/>
		<path class="st46" d="M393,243.9c7.2,8.4,14.2,15.8,20.4,19.4c-2.2,5.4-4.4,10.7-6.5,16.1c-4.2-3.3-8.4-6.7-12.6-10.1
			c-3.3-2.7-6.6-5.4-9.8-8.1c1.6-2.3,3.4-5.2,5.1-8.6C391.1,249.5,392.2,246.5,393,243.9z"/>
		<g>
			<g>
				<path d="M435.8,254.6c-1,0.8-2.2,1.5-3.4,2.1c-0.5,0.3-1.1,0.5-1.5,1c-0.4,0.5-0.6,1.1-0.9,1.7c-1.2,2.8-2.4,5.6-3.6,8.4
					c-0.4,0.9,0.9,1.6,1.3,0.8c1.2-2.7,2.3-5.5,3.5-8.2c0.2-0.5,0.4-1.2,0.8-1.7c0.4-0.4,1-0.6,1.5-0.9c1.2-0.6,2.2-1.3,3.3-2.1
					C437.6,255.1,436.5,254,435.8,254.6L435.8,254.6z"/>
			</g>
		</g>
		<g>
			<g>
				<path d="M391.3,255.3c0.2,0,0.4,0,0.6,0c0.1,0,0.2,0,0.3,0c0,0,0.1,0,0.1,0c0,0,0,0-0.1,0c0,0,0.1,0,0.2,0
					c0.2,0,0.4,0.1,0.6,0.1c0,0,0.1,0,0.1,0.1c0.2,0.1-0.1-0.1,0,0c0.1,0.1,0.2,0.1,0.3,0.1c0,0,0.1,0.1,0.1,0.1
					c-0.1-0.1-0.1-0.1,0,0c0,0,0,0,0.1,0.1c0.1,0.1,0.1,0.1,0.2,0.2c0,0,0.1,0.1,0.1,0.1c-0.1,0-0.1-0.1,0,0c0,0.1,0.1,0.2,0.1,0.2
					c0.1,0.1,0-0.1,0,0c0,0,0,0.1,0,0.1c0,0,0,0.1,0,0.1c0,0,0,0,0,0.1c0,0.1,0,0,0-0.1c0,0,0,0.2,0,0.2c0,0.2,0-0.2,0,0
					c0,0,0,0.1,0,0.1c-0.1,0.4,0.1,0.8,0.5,0.9c0.4,0.1,0.8-0.1,0.9-0.5c0.4-1.1-0.3-2.2-1.1-2.8c-0.9-0.6-2-0.7-3.1-0.7
					c-0.4,0-0.8,0.4-0.8,0.8C390.5,255,390.8,255.3,391.3,255.3L391.3,255.3z"/>
			</g>
		</g>
		<path class="st38" d="M433.8,253.9"/>
		<path class="st38" d="M433.8,251.1"/>
		<path class="st38" d="M435.1,250.7"/>
		<path class="st49" d="M469.5,256.5c-1.6-2.1-3.9-2.8-5.1-3.2c-0.6-0.2-5.7-1.8-10.5,1c-5.1,2.9-8.2,9.7-6,14.7
			c2.9,6.5,14.4,8.3,20.1,2.9C471.9,267.9,472.7,260.5,469.5,256.5z"/>
		<path class="st50" d="M472.2,263.7c-6.5-6.2-14.8-7.3-24.5-4.4c-0.4,0.9-0.8,1.9-1.1,2.8c8.1,0.2,16.4,1,25.3,3.8
			C472,265.1,472.1,264.4,472.2,263.7z"/>
		<path class="st50" d="M366.3,263.1c5.7-6.2,13-7.3,21.4-4.4c0.3,0.9,0.7,1.9,1,2.8c-7.1,0.2-14.3,1-22.1,3.8
			C366.5,264.6,366.4,263.9,366.3,263.1z"/>
		<g>
			<g>
				<path d="M409.5,235.7c4.8,0.5,10.1,0.5,14.1-2.6c0.8-0.6,0-1.9-0.8-1.3c-3.8,2.9-8.8,2.8-13.3,2.3
					C408.5,234.1,408.5,235.6,409.5,235.7L409.5,235.7z"/>
			</g>
		</g>
		<g>
			<g>
				<path class="st51" d="M374,276.7c-2.5,9.2-4.1,18.6-4.9,28c-0.2,1.9,2.8,1.9,3,0c0.8-9.2,2.4-18.3,4.8-27.2
					C377.4,275.6,374.5,274.9,374,276.7L374,276.7z"/>
			</g>
		</g>
		<g>
			<g>
				<path class="st51" d="M466.9,272.8c-2.6,2.8-5.1,5.7-7.5,8.6c-0.5,0.6-0.6,1.5,0,2.1c0.6,0.5,1.6,0.6,2.1,0
					c2.5-2.9,5-5.8,7.5-8.6c0.5-0.6,0.6-1.5,0-2.1C468.4,272.2,467.4,272.1,466.9,272.8L466.9,272.8z"/>
			</g>
		</g>
		<g>
			<g>
				<path class="st51" d="M378.3,264.6c3.3,0.9,6.6,1.7,9.9,2.4c0.8,0.2,1.7-0.2,1.9-1c0.2-0.8-0.2-1.7-1-1.9
					c-3.3-0.7-6.6-1.5-9.9-2.4c-0.8-0.2-1.7,0.2-1.9,1C377.1,263.5,377.5,264.4,378.3,264.6L378.3,264.6z"/>
			</g>
		</g>
	</g>
	<path class="st52" d="M421.5,99.7c-4.2-0.4-8.5-0.7-12.8-0.7C345.4,99,294,148.3,294,209.2c0,42.4,24.9,79.1,61.4,97.6
		c7.3,3.7,15.1,6.7,23.3,8.8c0.2,0.1,0.5,0.1,0.7,0.2c9.2,2.3,18.9,3.6,28.8,3.6c0.2,0,0.4,0,0.6,0c16.6,0,32.5-3.4,46.7-9.5
		c0.4-0.2,0.8-0.4,1.2-0.5c8.4-3.7,16.2-8.3,23.3-13.7c26.5-20.2,43.5-51.4,43.5-86.4C523.5,152.5,478.9,105.8,421.5,99.7z"/>
</g>
<g class="st30">
	<path class="st53" d="M317.2,741h184.1c21.1,0,38.2-17.1,38.2-38.2l0,0c0-21.1-17.1-38.2-38.2-38.2H317.2
		c-21.1,0-38.2,17.1-38.2,38.2l0,0C279,723.9,296.1,741,317.2,741z"/>
	<path class="st54" d="M317.2,734.4h184.1c21.1,0,38.2-17.1,38.2-38.2l0,0c0-21.1-17.1-38.2-38.2-38.2H317.2
		c-21.1,0-38.2,17.1-38.2,38.2l0,0C279,717.3,296.1,734.4,317.2,734.4z"/>
</g>
<rect x="326.8" y="685.1" class="st55" width="180.2" height="35.9"/>
<text transform="matrix(1 0 0 1 326.7812 710.6533)" class="st56 st57 st58">! </text>
</svg>
