<?xml version="1.0" encoding="utf-8"?>
<!-- Generator: Adobe Illustrator 28.3.0, SVG Export Plug-In . SVG Version: 6.00 Build 0)  -->
<svg version="1.1" id="Layer_1" xmlns="http://www.w3.org/2000/svg" xmlns:xlink="http://www.w3.org/1999/xlink" x="0px" y="0px"
	 viewBox="0 0 800 1400" style="enable-background:new 0 0 800 1400;" xml:space="preserve">
<style type="text/css">
	.st0{opacity:0.3;}
	.st1{fill:url(#SVGID_1_);}
	.st2{fill:url(#SVGID_00000179636706227269717060000016754374283379648163_);}
	.st3{opacity:0.5;fill:#FFFFFF;enable-background:new    ;}
	.st4{fill:url(#SVGID_00000151523004366465993060000016748797211217797772_);}
	.st5{fill:url(#SVGID_00000118359877094769742120000015035813441653047936_);}
	.st6{fill:url(#SVGID_00000067228425143909057960000003497682477575234963_);}
	.st7{fill:url(#SVGID_00000134209711541108279260000011713799091211817663_);}
	.st8{fill:url(#SVGID_00000088820891223352328490000017370862691139040164_);}
	.st9{fill:url(#SVGID_00000062154771401683900580000013424691553392186767_);}
	.st10{opacity:0.4;fill:#FFFFFF;enable-background:new    ;}
	.st11{fill:url(#SVGID_00000132090195095447058700000014674400283587562175_);}
	.st12{fill:url(#SVGID_00000086692400001598010840000010243752748014541470_);}
	.st13{fill:url(#SVGID_00000123435174728793723260000007491922144246903195_);}
	.st14{opacity:0.58;fill:#968EFD;enable-background:new    ;}
	.st15{fill:none;}
	.st16{fill:none;stroke:#F2F2F2;stroke-width:5;stroke-miterlimit:10;}
	.st17{fill:none;stroke:#F2F2F2;stroke-width:5;stroke-miterlimit:10;stroke-dasharray:11.8507,11.8507;}
	.st18{display:none;opacity:0.5;fill:url(#SVGID_00000067932693426242555660000012425406571378111380_);enable-background:new    ;}
	.st19{opacity:0.5;}
	.st20{opacity:0.65;fill:#FFFFFF;enable-background:new    ;}
</style>
<g class="st0">
	<g>
		<g>
			<g>
				
					<linearGradient id="SVGID_1_" gradientUnits="userSpaceOnUse" x1="-156.1968" y1="833.5155" x2="-724.7829" y2="-112.0679" gradientTransform="matrix(-1 0 0 -1 -210.3754 1382.5968)">
					<stop  offset="0" style="stop-color:#FDF53F"/>
					<stop  offset="1" style="stop-color:#D93C65"/>
				</linearGradient>
				<path class="st1" d="M252.45,931.77v-49.89h156.58v49.89c0,46.84,7.58,93.36,22.43,137.78l83.76,250.39H146.25l83.76-250.39
					C244.88,1025.13,252.45,978.6,252.45,931.77z"/>
				
					<linearGradient id="SVGID_00000175289498623173131250000004198391472781029303_" gradientUnits="userSpaceOnUse" x1="-594.1736" y1="541.2716" x2="-503.6712" y2="457.9141" gradientTransform="matrix(-1 0 0 -1 -210.3754 1382.5968)">
					<stop  offset="0" style="stop-color:#2B3582"/>
					<stop  offset="1" style="stop-color:#150E42"/>
				</linearGradient>
				<path style="fill:url(#SVGID_00000175289498623173131250000004198391472781029303_);" d="M249.65,902.67h162.19
					c6.89,0,12.48-5.59,12.48-12.48l0,0c0-6.89-5.59-12.48-12.48-12.48H249.65c-6.89,0-12.48,5.59-12.48,12.48l0,0
					C237.17,897.09,242.76,902.67,249.65,902.67z"/>
				<path class="st3" d="M410.23,963.67H251.26c0.51-6.92,0.86-13.85,1.03-20.79h156.9C409.37,949.82,409.72,956.75,410.23,963.67z"
					/>
				<path class="st3" d="M413.97,996.94H247.51c0.49-3.23,0.95-6.46,1.36-9.7H412.6C413.03,990.47,413.48,993.71,413.97,996.94z"/>
			</g>
			<g>
				
					<linearGradient id="SVGID_00000074409480658457747360000013976411648582783639_" gradientUnits="userSpaceOnUse" x1="-563.9745" y1="643.3677" x2="-1132.5613" y2="-302.2167" gradientTransform="matrix(-1 0 0 -1 -210.3754 1382.5968)">
					<stop  offset="0" style="stop-color:#A737D5"/>
					<stop  offset="1" style="stop-color:#EF497A"/>
				</linearGradient>
				<path style="fill:url(#SVGID_00000074409480658457747360000013976411648582783639_);" d="M513.34,851.26v-60.24H702.4v60.24
					c0,56.55,9.15,112.73,27.09,166.35l101.13,302.32h-445.5l101.13-302.32C504.19,963.98,513.34,907.81,513.34,851.26z"/>
				
					<linearGradient id="SVGID_00000152222594958911942270000015258670037366378893_" gradientUnits="userSpaceOnUse" x1="-885.8432" y1="643.7926" x2="-770.5118" y2="537.5662" gradientTransform="matrix(-1 0 0 -1 -210.3754 1382.5968)">
					<stop  offset="0" style="stop-color:#2B3582"/>
					<stop  offset="1" style="stop-color:#150E42"/>
				</linearGradient>
				<path style="fill:url(#SVGID_00000152222594958911942270000015258670037366378893_);" d="M498.26,816.13h219.21
					c1.86,0,3.37-1.51,3.37-3.37v-23.38c0-1.86-1.51-3.37-3.37-3.37H498.26c-1.86,0-3.37,1.51-3.37,3.37v23.38
					C494.89,814.62,496.4,816.13,498.26,816.13z"/>
				<path class="st3" d="M703.84,889.77H511.9c0.62-8.35,1.03-16.72,1.25-25.11h189.44C702.8,873.05,703.22,881.42,703.84,889.77z"
					/>
				<path class="st3" d="M708.36,929.94H507.37c0.59-3.9,1.14-7.8,1.65-11.72h197.69C707.22,922.14,707.77,926.05,708.36,929.94z"/>
			</g>
			<g>
				<g>
					
						<linearGradient id="SVGID_00000029014197284960397390000013198862799912356268_" gradientUnits="userSpaceOnUse" x1="-567.9551" y1="-14.2811" x2="-592.0626" y2="147.9806" gradientTransform="matrix(-1 0 0 -1 -210.3754 1382.5968)">
						<stop  offset="0" style="stop-color:#9F5699"/>
						<stop  offset="1" style="stop-color:#202278"/>
					</linearGradient>
					<path style="fill:url(#SVGID_00000029014197284960397390000013198862799912356268_);" d="M301.94,1213.23h152.74
						c2.2,0,3.94,1.61,3.89,3.72l-2.67,99.14c-0.05,2.03-1.85,3.64-4.01,3.64l-149.68-0.64c-2.13-0.01-3.87-1.66-3.87-3.68
						l-0.33-98.47C298.01,1214.84,299.76,1213.23,301.94,1213.23z"/>
					<g>
						<g>
							<path class="st3" d="M440.05,1231.21h4.76c0.22,0,0.43,0.16,0.59,0.31c0.15,0.15,0.24,0.39,0.23,0.6l-0.58,13.96
								c-0.02,0.41-0.38,1.03-0.82,1.03h-4.64c-0.22,0-0.43-0.36-0.59-0.51c-0.15-0.15-0.24-0.49-0.23-0.7l0.46-13.81
								C439.25,1231.69,439.61,1231.21,440.05,1231.21z"/>
							<path class="st3" d="M419.45,1231.21h4.76c0.22,0,0.43,0.16,0.58,0.3c0.15,0.15,0.24,0.38,0.23,0.59l-0.2,13.96
								c-0.01,0.42-0.37,1.05-0.82,1.05h-4.64c-0.22,0-0.43-0.36-0.58-0.5c-0.15-0.15-0.24-0.48-0.24-0.69l0.08-13.81
								C418.64,1231.7,419.01,1231.21,419.45,1231.21z"/>
							<path class="st3" d="M401.34,1231.21h4.76c0.45,0,0.81,0.42,0.82,0.84l0.13,13.7c0,0.21-0.08,0.7-0.24,0.84
								c-0.15,0.15-0.36,0.52-0.58,0.52h-4.64c-0.45,0-0.81-0.61-0.82-1.03l-0.25-13.8c0-0.21,0.08-0.55,0.23-0.7
								C400.91,1231.44,401.12,1231.21,401.34,1231.21z"/>
							<path class="st3" d="M382.64,1231.53c0.15-0.15,0.37-0.31,0.59-0.31h4.76c0.44,0,0.8,0.41,0.82,0.82l0.46,13.7
								c0.01,0.21-0.08,0.71-0.23,0.86c-0.15,0.15-0.37,0.53-0.59,0.53h-4.64c-0.44,0-0.8-0.6-0.82-1.02l-0.58-13.84
								C382.41,1232.06,382.49,1231.68,382.64,1231.53z"/>
						</g>
						<g>
							<path class="st3" d="M365.79,1231.21h4.76c0.22,0,0.43,0.16,0.59,0.31c0.15,0.15,0.24,0.39,0.23,0.6l-0.58,13.96
								c-0.02,0.41-0.38,1.03-0.82,1.03h-4.64c-0.22,0-0.43-0.36-0.59-0.51c-0.15-0.15-0.24-0.49-0.23-0.7l0.46-13.81
								C364.99,1231.69,365.35,1231.21,365.79,1231.21z"/>
							<path class="st3" d="M345.19,1231.21h4.76c0.22,0,0.43,0.16,0.58,0.3c0.15,0.15,0.24,0.38,0.24,0.59l-0.2,13.96
								c-0.01,0.42-0.37,1.05-0.82,1.05h-4.64c-0.22,0-0.43-0.36-0.58-0.5c-0.15-0.15-0.24-0.48-0.24-0.69l0.08-13.81
								C344.37,1231.7,344.74,1231.21,345.19,1231.21z"/>
							<path class="st3" d="M327.08,1231.21h4.76c0.45,0,0.81,0.42,0.82,0.84l0.13,13.7c0,0.21-0.08,0.7-0.24,0.84
								c-0.15,0.15-0.36,0.52-0.58,0.52h-4.64c-0.45,0-0.81-0.61-0.82-1.03l-0.25-13.8c0-0.21,0.08-0.55,0.23-0.7
								C326.65,1231.44,326.86,1231.21,327.08,1231.21z"/>
							<path class="st3" d="M308.38,1231.53c0.15-0.15,0.37-0.31,0.59-0.31h4.76c0.44,0,0.8,0.41,0.82,0.82l0.46,13.7
								c0.01,0.21-0.08,0.71-0.23,0.86s-0.37,0.53-0.59,0.53h-4.64c-0.44,0-0.8-0.6-0.82-1.02l-0.58-13.84
								C308.14,1232.06,308.22,1231.68,308.38,1231.53z"/>
						</g>
					</g>
					<g>
						<g>
							<path class="st3" d="M440.05,1260.95h4.76c0.22,0,0.43,0.15,0.59,0.3c0.15,0.15,0.24,0.39,0.23,0.6l-0.58,13.62
								c-0.02,0.41-0.38,0.7-0.82,0.7h-4.64c-0.22,0-0.43-0.02-0.59-0.17c-0.15-0.15-0.24-0.32-0.23-0.53l0.46-13.71
								C439.25,1261.33,439.61,1260.95,440.05,1260.95z"/>
							<path class="st3" d="M419.45,1260.95h4.76c0.22,0,0.43,0.15,0.58,0.29c0.15,0.15,0.24,0.38,0.23,0.58l-0.2,13.62
								c-0.01,0.42-0.37,0.72-0.82,0.72h-4.64c-0.22,0-0.43-0.02-0.58-0.17s-0.24-0.31-0.24-0.52l0.08-13.71
								C418.64,1261.34,419.01,1260.95,419.45,1260.95z"/>
							<path class="st3" d="M401.34,1260.95h4.76c0.45,0,0.81,0.41,0.82,0.83l0.13,13.69c0,0.21-0.08,0.36-0.24,0.51
								c-0.15,0.15-0.36,0.18-0.58,0.18h-4.64c-0.45,0-0.81-0.28-0.82-0.7l-0.25-13.63c0-0.21,0.08-0.46,0.23-0.6
								C400.91,1261.08,401.12,1260.95,401.34,1260.95z"/>
							<path class="st3" d="M382.64,1261.25c0.15-0.15,0.37-0.3,0.59-0.3h4.76c0.44,0,0.8,0.4,0.82,0.81l0.46,13.69
								c0.01,0.21-0.08,0.37-0.23,0.52c-0.15,0.15-0.37,0.19-0.59,0.19h-4.64c-0.44,0-0.8-0.27-0.82-0.68l-0.58-13.66
								C382.41,1261.61,382.49,1261.4,382.64,1261.25z"/>
						</g>
						<g>
							<path class="st3" d="M365.79,1260.95h4.76c0.22,0,0.43,0.15,0.59,0.3c0.15,0.15,0.24,0.39,0.23,0.6l-0.58,13.62
								c-0.02,0.41-0.38,0.7-0.82,0.7h-4.64c-0.22,0-0.43-0.02-0.59-0.17c-0.15-0.15-0.24-0.32-0.23-0.53l0.46-13.71
								C364.99,1261.33,365.35,1260.95,365.79,1260.95z"/>
							<path class="st3" d="M345.19,1260.95h4.76c0.22,0,0.43,0.15,0.58,0.29c0.15,0.15,0.24,0.38,0.24,0.58l-0.2,13.62
								c-0.01,0.42-0.37,0.72-0.82,0.72h-4.64c-0.22,0-0.43-0.02-0.58-0.17s-0.24-0.31-0.24-0.52l0.08-13.71
								C344.37,1261.34,344.74,1260.95,345.19,1260.95z"/>
							<path class="st3" d="M327.08,1260.95h4.76c0.45,0,0.81,0.41,0.82,0.83l0.13,13.69c0,0.21-0.08,0.36-0.24,0.51
								c-0.15,0.15-0.36,0.18-0.58,0.18h-4.64c-0.45,0-0.81-0.28-0.82-0.7l-0.25-13.63c0-0.21,0.08-0.46,0.23-0.6
								C326.65,1261.08,326.86,1260.95,327.08,1260.95z"/>
							<path class="st3" d="M308.38,1261.25c0.15-0.15,0.37-0.3,0.59-0.3h4.76c0.44,0,0.8,0.4,0.82,0.81l0.46,13.69
								c0.01,0.21-0.08,0.37-0.23,0.52c-0.15,0.15-0.37,0.19-0.59,0.19h-4.64c-0.44,0-0.8-0.27-0.82-0.68l-0.58-13.66
								C308.14,1261.61,308.22,1261.4,308.38,1261.25z"/>
						</g>
					</g>
				</g>
				<g>
					
						<linearGradient id="SVGID_00000142135318598662285130000000823763563662358408_" gradientUnits="userSpaceOnUse" x1="-268.9518" y1="424.0075" x2="-241.9198" y2="58.3655" gradientTransform="matrix(-1 0 0 -1 -210.3754 1382.5968)">
						<stop  offset="0" style="stop-color:#A737D5"/>
						<stop  offset="1" style="stop-color:#EF497A"/>
					</linearGradient>
					<polygon style="fill:url(#SVGID_00000142135318598662285130000000823763563662358408_);" points="20.5,1303.29 68.25,1303.29 
						63.02,1027.16 63.08,1019.34 62.96,1010.23 62.8,1002.42 61.36,954.29 61.36,953.03 23.83,953.03 23.83,1027.16 					"/>
					
						<linearGradient id="SVGID_00000054245935957416459870000015626125011360958135_" gradientUnits="userSpaceOnUse" x1="-278.6154" y1="432.7168" x2="-228.8254" y2="432.7168" gradientTransform="matrix(-1 0 0 -1 -210.3754 1382.5968)">
						<stop  offset="0" style="stop-color:#2B3582"/>
						<stop  offset="1" style="stop-color:#150E42"/>
					</linearGradient>
					<path style="fill:url(#SVGID_00000054245935957416459870000015626125011360958135_);" d="M18.45,947.75
						c0-1.44,0.99-2.6,2.22-2.6h45.35c1.23,0,2.22,1.17,2.22,2.6v4.26c0,1.44-0.99,2.6-2.22,2.6H20.67c-1.23,0-2.22-1.17-2.22-2.6
						L18.45,947.75z"/>
					
						<linearGradient id="SVGID_00000169523604328844368630000012388379474472154522_" gradientUnits="userSpaceOnUse" x1="-287.3554" y1="72.7719" x2="-220.0854" y2="72.7719" gradientTransform="matrix(-1 0 0 -1 -210.3754 1382.5968)">
						<stop  offset="0" style="stop-color:#2B3582"/>
						<stop  offset="1" style="stop-color:#150E42"/>
					</linearGradient>
					<path style="fill:url(#SVGID_00000169523604328844368630000012388379474472154522_);" d="M9.71,1306.95
						c0-1.94,1.34-3.52,3-3.52h61.27c1.66,0,3,1.58,3,3.52v5.75c0,1.94-1.34,3.52-3,3.52H12.71c-1.66,0-3-1.58-3-3.52L9.71,1306.95z
						"/>
					<polygon class="st10" points="23.83,1003.52 23.83,1009.83 63.11,1009.83 62.88,1003.52 					"/>
					<polygon class="st10" points="23.83,1017.72 23.83,1027.19 63.63,1027.19 63.39,1017.72 					"/>
				</g>
				<g>
					<g>
						
							<linearGradient id="SVGID_00000106836991221823618530000007805960812814987675_" gradientUnits="userSpaceOnUse" x1="-272.7782" y1="472.2099" x2="-362.0246" y2="234.2187" gradientTransform="matrix(-1 0 0 -1 -210.3754 1382.5968)">
							<stop  offset="0" style="stop-color:#A737D5"/>
							<stop  offset="1" style="stop-color:#EF497A"/>
						</linearGradient>
						<polygon style="fill:url(#SVGID_00000106836991221823618530000007805960812814987675_);" points="98.95,1164.45 
							142.27,1164.45 142.27,1129.78 139.26,1027.16 139.08,1019.34 138.84,1010.23 138.62,1002.42 137.15,954.29 137.12,953.03 
							100.55,953.03 100.55,1027.16 						"/>
						
							<linearGradient id="SVGID_00000165954346699954977960000001687377406674024845_" gradientUnits="userSpaceOnUse" x1="-353.9854" y1="432.7168" x2="-304.1954" y2="432.7168" gradientTransform="matrix(-1 0 0 -1 -210.3754 1382.5968)">
							<stop  offset="0" style="stop-color:#2B3582"/>
							<stop  offset="1" style="stop-color:#150E42"/>
						</linearGradient>
						<path style="fill:url(#SVGID_00000165954346699954977960000001687377406674024845_);" d="M93.82,947.75
							c0-1.44,0.99-2.6,2.22-2.6h45.35c1.23,0,2.22,1.17,2.22,2.6v4.26c0,1.44-0.99,2.6-2.22,2.6H96.04c-1.23,0-2.22-1.17-2.22-2.6
							V947.75z"/>
					</g>
					<polygon class="st10" points="100.55,1003.52 100.55,1009.83 138.87,1009.83 138.64,1003.52 					"/>
					<polygon class="st10" points="100.55,1017.72 100.55,1027.19 139.39,1027.19 139.15,1017.72 					"/>
				</g>
				<g>
					
						<linearGradient id="SVGID_00000054967857999513103370000008287786476279454874_" gradientUnits="userSpaceOnUse" x1="-527.0923" y1="264.1985" x2="-326.1498" y2="79.1198" gradientTransform="matrix(-1 0 0 -1 -210.3754 1382.5968)">
						<stop  offset="0" style="stop-color:#9F5699"/>
						<stop  offset="1" style="stop-color:#202278"/>
					</linearGradient>
					<path style="fill:url(#SVGID_00000054967857999513103370000008287786476279454874_);" d="M68.41,1137.02h262.34
						c3.78,0,6.77,2.77,6.68,6.39l-4.58,170.27c-0.09,3.49-3.18,6.26-6.88,6.24l-257.07-1.11c-3.66-0.02-6.64-2.85-6.65-6.32
						l-0.57-169.13C61.65,1139.78,64.67,1137.02,68.41,1137.02z"/>
					<g>
						<g>
							<path class="st3" d="M305.62,1167.9h8.17c0.38,0,0.75,0.28,1.01,0.54s0.4,0.68,0.39,1.04l-0.99,23.97
								c-0.03,0.71-0.65,1.78-1.4,1.78h-7.97c-0.38,0-0.74-0.62-1.01-0.88c-0.26-0.26-0.41-0.84-0.39-1.2l0.79-23.71
								C304.25,1168.72,304.87,1167.9,305.62,1167.9z"/>
							<path class="st3" d="M270.24,1167.9h8.18c0.38,0,0.73,0.27,1,0.52c0.26,0.25,0.41,0.66,0.4,1.01l-0.35,23.97
								c-0.01,0.72-0.63,1.81-1.4,1.81h-7.98c-0.37,0-0.73-0.61-0.99-0.86c-0.26-0.25-0.41-0.83-0.41-1.18l0.15-23.71
								C268.85,1168.74,269.47,1167.9,270.24,1167.9z"/>
							<path class="st3" d="M239.14,1167.9h8.18c0.77,0,1.39,0.71,1.4,1.44l0.22,23.53c0,0.35-0.14,1.2-0.41,1.45
								c-0.26,0.25-0.62,0.9-1,0.9h-7.98c-0.76,0-1.39-1.05-1.4-1.78l-0.42-23.7c-0.01-0.36,0.14-0.94,0.4-1.2
								C238.4,1168.29,238.76,1167.9,239.14,1167.9z"/>
							<path class="st3" d="M207.02,1168.44c0.26-0.26,0.63-0.54,1.01-0.54h8.18c0.76,0,1.38,0.7,1.4,1.41l0.79,23.53
								c0.01,0.36-0.13,1.21-0.39,1.47s-0.63,0.91-1.01,0.91h-7.97c-0.75,0-1.37-1.03-1.4-1.74l-0.99-23.77
								C206.61,1169.35,206.75,1168.7,207.02,1168.44z"/>
						</g>
						<g>
							<path class="st3" d="M178.07,1167.9h8.17c0.38,0,0.75,0.28,1.01,0.54s0.41,0.68,0.39,1.04l-0.99,23.97
								c-0.03,0.71-0.65,1.78-1.4,1.78h-7.97c-0.38,0-0.74-0.62-1.01-0.88c-0.26-0.26-0.41-0.84-0.39-1.2l0.79-23.71
								C176.69,1168.72,177.31,1167.9,178.07,1167.9z"/>
							<path class="st3" d="M142.69,1167.9h8.18c0.38,0,0.73,0.27,1,0.52c0.26,0.25,0.41,0.66,0.4,1.01l-0.35,23.97
								c-0.01,0.72-0.63,1.81-1.4,1.81h-7.98c-0.37,0-0.73-0.61-0.99-0.86c-0.26-0.25-0.41-0.83-0.41-1.18l0.15-23.71
								C141.29,1168.74,141.92,1167.9,142.69,1167.9z"/>
							<path class="st3" d="M111.58,1167.9h8.18c0.77,0,1.39,0.71,1.4,1.44l0.22,23.53c0,0.35-0.14,1.2-0.41,1.45
								c-0.26,0.25-0.62,0.9-1,0.9h-7.98c-0.76,0-1.39-1.05-1.4-1.78l-0.42-23.7c-0.01-0.36,0.14-0.94,0.4-1.2
								C110.85,1168.29,111.21,1167.9,111.58,1167.9z"/>
							<path class="st3" d="M79.46,1168.44c0.26-0.26,0.63-0.54,1.01-0.54h8.17c0.76,0,1.38,0.7,1.4,1.41l0.79,23.53
								c0.01,0.36-0.13,1.21-0.39,1.47s-0.63,0.91-1.01,0.91h-7.97c-0.75,0-1.37-1.03-1.4-1.74l-0.99-23.77
								C79.06,1169.35,79.2,1168.7,79.46,1168.44z"/>
						</g>
					</g>
					<g>
						<g>
							<path class="st3" d="M305.62,1218.97h8.17c0.38,0,0.75,0.26,1.01,0.52s0.4,0.67,0.39,1.03l-0.99,23.39
								c-0.03,0.71-0.65,1.2-1.4,1.2h-7.97c-0.38,0-0.74-0.04-1.01-0.3c-0.26-0.26-0.41-0.55-0.39-0.91l0.79-23.55
								C304.25,1219.62,304.87,1218.97,305.62,1218.97z"/>
							<path class="st3" d="M270.24,1218.97h8.18c0.38,0,0.73,0.25,1,0.51c0.26,0.25,0.41,0.65,0.4,1l-0.35,23.39
								c-0.01,0.72-0.63,1.23-1.4,1.23h-7.98c-0.37,0-0.73-0.04-0.99-0.29c-0.26-0.25-0.41-0.54-0.41-0.89l0.15-23.55
								C268.85,1219.65,269.47,1218.97,270.24,1218.97z"/>
							<path class="st3" d="M239.14,1218.97h8.18c0.77,0,1.39,0.7,1.4,1.42l0.22,23.52c0,0.35-0.14,0.62-0.41,0.87
								c-0.26,0.25-0.62,0.32-1,0.32h-7.98c-0.76,0-1.39-0.48-1.4-1.2l-0.42-23.41c-0.01-0.36,0.14-0.78,0.4-1.04
								C238.4,1219.2,238.76,1218.97,239.14,1218.97z"/>
							<path class="st3" d="M207.02,1219.49c0.26-0.26,0.63-0.52,1.01-0.52h8.18c0.76,0,1.38,0.68,1.4,1.39l0.79,23.52
								c0.01,0.36-0.13,0.63-0.39,0.89s-0.63,0.33-1.01,0.33h-7.97c-0.75,0-1.37-0.46-1.4-1.17l-0.99-23.47
								C206.61,1220.1,206.75,1219.75,207.02,1219.49z"/>
						</g>
						<g>
							<path class="st3" d="M178.07,1218.97h8.17c0.38,0,0.75,0.26,1.01,0.52s0.41,0.67,0.39,1.03l-0.99,23.39
								c-0.03,0.71-0.65,1.2-1.4,1.2h-7.97c-0.38,0-0.74-0.04-1.01-0.3c-0.26-0.26-0.41-0.55-0.39-0.91l0.79-23.55
								C176.69,1219.62,177.31,1218.97,178.07,1218.97z"/>
							<path class="st3" d="M142.69,1218.97h8.18c0.38,0,0.73,0.25,1,0.51c0.26,0.25,0.41,0.65,0.4,1l-0.35,23.39
								c-0.01,0.72-0.63,1.23-1.4,1.23h-7.98c-0.37,0-0.73-0.04-0.99-0.29c-0.26-0.25-0.41-0.54-0.41-0.89l0.15-23.55
								C141.29,1219.65,141.92,1218.97,142.69,1218.97z"/>
							<path class="st3" d="M111.58,1218.97h8.18c0.77,0,1.39,0.7,1.4,1.42l0.22,23.52c0,0.35-0.14,0.62-0.41,0.87
								c-0.26,0.25-0.62,0.32-1,0.32h-7.98c-0.76,0-1.39-0.48-1.4-1.2l-0.42-23.41c-0.01-0.36,0.14-0.78,0.4-1.04
								C110.85,1219.2,111.21,1218.97,111.58,1218.97z"/>
							<path class="st3" d="M79.46,1219.49c0.26-0.26,0.63-0.52,1.01-0.52h8.17c0.76,0,1.38,0.68,1.4,1.39l0.79,23.52
								c0.01,0.36-0.13,0.63-0.39,0.89s-0.63,0.33-1.01,0.33h-7.97c-0.75,0-1.37-0.46-1.4-1.17l-0.99-23.47
								C79.06,1220.1,79.2,1219.75,79.46,1219.49z"/>
						</g>
					</g>
				</g>
			</g>
		</g>
	</g>
</g>
<g>
	<rect x="2" y="1316" class="st14" width="800" height="84"/>
	<g class="st0">
		<line class="st15" x1="-3.5" y1="1357.33" x2="802.5" y2="1357.67"/>
		<g>
			<line class="st16" x1="-3.5" y1="1357.33" x2="2.5" y2="1357.33"/>
			<line class="st17" x1="14.35" y1="1357.34" x2="790.57" y2="1357.66"/>
			<line class="st16" x1="796.5" y1="1357.67" x2="802.5" y2="1357.67"/>
		</g>
	</g>
</g>
<linearGradient id="SVGID_00000036974410291955229740000008274227273355711363_" gradientUnits="userSpaceOnUse" x1="490.4085" y1="772.0058" x2="266.949" y2="154.8303" gradientTransform="matrix(1.0947 -0.1793 0.1793 -3.0491 -54.0898 1907.061)">
	<stop  offset="0" style="stop-color:#63C3FF"/>
	<stop  offset="0.1795" style="stop-color:#69BFFD"/>
	<stop  offset="0.4236" style="stop-color:#7BB5F8"/>
	<stop  offset="0.7049" style="stop-color:#97A5F0"/>
	<stop  offset="1" style="stop-color:#BD8FE5"/>
</linearGradient>
<path style="display:none;opacity:0.5;fill:url(#SVGID_00000036974410291955229740000008274227273355711363_);enable-background:new    ;" d="
	M1004.52,230.25c21.41-154.74,24.74-271.12-10.7-378.9c-32.65-99.3-95.21-187.04-151.93-160.38
	c-46.08,21.67-91.49,78.47-132.35,153.36c-24.65,45.17-51.95,77.34-79.84,95.63c-30.81,20.22-69.33,38.22-98.5,27.75
	c-57.34-20.58-108.8-78.05-162.02-123.95C260.3-250.13,130.56-291.48,13.07-132.62C-43.55-56.06-98.37,91.06-95.5,238.65
	c2.21,113.97,38.28,197.93,34.4,314.69c-4.38,131.88-55.56,239.07-97.07,338.74c-39.29,94.34-74.6,202.87-96.91,323.97
	c-22.3,121.1-30.66,255.85-16.27,366.44c18.74,143.98,74.24,230.24,135.71,246.34c61.46,16.11,128.05-29.99,190.53-99.08
	s122.13-160.85,182.96-243.24c20.58-27.87,44.46-55.51,63.01-36.54c20.9,21.37,24.44,89.54,31.88,144
	c16.67,122,62.22,197.48,113.13,222.89s106.95,6.48,161.8-22.96c61.09-32.78,124.46-81.59,176.82-186.41
	c52.36-104.82,90.58-278.35,77.72-420.88c-8.17-90.53-35.48-162.07-32.47-260.1c3.12-101.22,37-191.54,66.52-273.97
	C941.62,525.9,983.1,384.99,1004.52,230.25z"/>
<g class="st19">
	<path class="st20" d="M209.32,791c-9.13-11.16-22.77-15.75-36.12-12.41c-14.56,3.64-22.78,17.55-36.33,23.12
		c-23.64,9.71-56.32-9.47-74.27,15.55c-21.96,30.6-38.92,7.65-38.92,28.42c0,20.77,151.69,5.47,226.54,6.56
		c10.81,0.16,57.76-0.63,37.55-23.08c-6.28-6.97-15.23-8.14-23.58-9.77c-10.88-2.13-36.76-3.29-44.65-11.76
		c-4.24-4.56-5.88-11.11-9.71-15.98C209.66,791.42,209.49,791.21,209.32,791z"/>
	<path class="st20" d="M728.76,146.84c-5.3-7.53-13.21-10.63-20.97-8.38c-8.45,2.46-13.22,11.85-21.09,15.6
		c-13.72,6.55-32.69-6.39-43.11,10.5c-12.74,20.66-22.59,5.16-22.59,19.18c0,14.02,88.05,3.69,131.49,4.43
		c6.28,0.11,33.53-0.43,21.8-15.58c-3.64-4.7-8.84-5.49-13.69-6.59c-6.32-1.44-21.34-2.22-25.91-7.94
		c-2.46-3.08-3.41-7.5-5.63-10.79C728.96,147.13,728.86,146.98,728.76,146.84z"/>
	<path class="st20" d="M630.6,165.07c-9.13-11.16-22.77-15.75-36.12-12.41c-14.56,3.64-22.78,17.55-36.33,23.12
		c-23.64,9.71-56.32-9.47-74.27,15.55c-21.96,30.6-38.92,7.65-38.92,28.42s151.69,5.47,226.54,6.56
		c10.81,0.16,57.76-0.63,37.55-23.08c-6.28-6.97-15.23-8.14-23.58-9.77c-10.88-2.13-36.76-3.29-44.65-11.76
		c-4.24-4.56-5.88-11.11-9.71-15.98C630.94,165.5,630.77,165.28,630.6,165.07z"/>
	<path class="st20" d="M243.59,72.55c-9.13-11.16-22.77-15.75-36.12-12.41c-14.56,3.64-22.78,17.55-36.33,23.12
		c-23.64,9.71-56.32-9.47-74.27,15.55c-21.96,30.6-38.92,7.65-38.92,28.42s151.69,5.47,226.54,6.56
		c10.81,0.16,57.76-0.63,37.55-23.08c-6.28-6.97-15.23-8.14-23.58-9.77c-10.88-2.13-36.76-3.29-44.65-11.76
		c-4.24-4.56-5.88-11.11-9.71-15.98C243.94,72.98,243.77,72.76,243.59,72.55z"/>
</g>
</svg>
