<svg width="357" height="357" xmlns="http://www.w3.org/2000/svg" xmlns:xlink="http://www.w3.org/1999/xlink" xml:space="preserve" overflow="hidden"><defs><clipPath id="clip0"><rect x="331" y="220" width="357" height="357"/></clipPath></defs><g clip-path="url(#clip0)" transform="translate(-331 -220)"><path d="M509.5 383.625C490.906 383.625 476.031 368.75 476.031 350.156 476.031 331.562 490.906 316.688 509.5 316.688 528.094 316.688 542.969 331.562 542.969 350.156 542.969 368.75 528.094 383.625 509.5 383.625ZM509.5 272.062C483.841 272.062 459.669 284.706 445.166 306.275 430.663 327.472 427.688 354.619 436.984 378.791L472.312 456.884 502.806 520.847C503.922 523.45 506.525 524.938 509.5 524.938 512.475 524.938 515.078 523.45 516.194 520.847L546.688 456.884 582.016 378.791C591.312 354.619 588.338 327.472 573.834 306.275 559.331 284.706 535.159 272.062 509.5 272.062Z" fill="#C00000"/></g></svg>