<?xml version="1.0" encoding="utf-8"?>
<!-- Generator: Adobe Illustrator 28.3.0, SVG Export Plug-In . SVG Version: 6.00 Build 0)  -->
<svg version="1.1" id="Layer_1" xmlns="http://www.w3.org/2000/svg" xmlns:xlink="http://www.w3.org/1999/xlink" x="0px" y="0px"
	 viewBox="0 0 1294.5 687" style="enable-background:new 0 0 1294.5 687;" xml:space="preserve">
<style type="text/css">
	.st0{fill:#F28521;}
	.st1{fill:none;stroke:#383839;stroke-miterlimit:10;}
	.st2{fill:#FFFFFF;stroke:#282829;stroke-miterlimit:10;stroke-dasharray:6;}
	.st3{fill:none;}
	.st4{fill-rule:evenodd;clip-rule:evenodd;fill:#010101;}
	.st5{font-family:'MyriadHebrew-Regular';}
	.st6{font-size:11px;}
	.st7{font-size:6px;}
	.st8{font-family:'AdobeArabic-Regular';}
	.st9{font-size:13.4306px;}
	.st10{font-size:7px;}
	.st11{fill:#C92127;}
	.st12{fill:none;stroke:#FFFFFF;stroke-miterlimit:10;}
	.st13{fill:#010101;}
	.st14{fill:#4BAB48;}
	.st15{fill-rule:evenodd;clip-rule:evenodd;}
	.st16{font-size:8px;}
	.st17{fill:#FFFFFF;stroke:#231F20;stroke-width:0.5213;}
	.st18{fill:#231F20;}
	.st19{fill:#FFFFFF;}
	.st20{fill:#3B89C9;}
	.st21{font-size:9px;}
	.st22{fill:#F6EC31;}
	.st23{fill:none;stroke:url(#SVGID_1_);stroke-miterlimit:10;}
	.st24{fill:#FFFFFF;stroke:#231F20;stroke-width:0.4922;stroke-linecap:round;stroke-linejoin:bevel;stroke-miterlimit:3.5797;}
	.st25{fill:none;stroke:#231F20;stroke-width:0.5817;stroke-miterlimit:3.5797;}
	.st26{font-size:5px;}
</style>
<g>
	<polygon class="st0" points="-1253.6,5666.2 -1308.7,5612.1 -1252.8,5557.3 -1196.9,5612.1 	"/>
	<polygon class="st1" points="-1253.5,5658.2 -1300.6,5612.1 -1252.8,5565.2 -1205.1,5612.1 	"/>
</g>
<g>
	<polygon class="st2" points="560.6,652.8 495.2,588.8 561.5,523.7 627.8,588.8 	"/>
	<rect x="503.6" y="519.7" class="st3" width="113.8" height="137.1"/>
	<polygon class="st1" points="560.7,643.4 504.9,588.7 561.5,533.1 618.1,588.7 	"/>
	<g>
		<polygon points="617.5,578.2 617.4,588.7 628.2,588.7 		"/>
		<polygon points="585.9,547.2 577.9,539.3 577.6,588.7 585.6,588.7 		"/>
		<polygon points="605.7,566.6 597.7,558.8 597.5,588.7 605.6,588.7 		"/>
		<polygon points="526.1,558.9 518,566.9 517.8,588.7 525.9,588.7 		"/>
		<polygon points="566.2,527.8 562,523.7 558.1,527.5 557.7,588.7 565.7,588.7 		"/>
		<polygon points="546.2,539.2 538,547.2 537.7,588.7 545.8,588.7 		"/>
		<polygon points="506,578.7 495.7,588.7 505.9,588.7 		"/>
	</g>
</g>
<image style="overflow:visible;" width="951" height="1201" xlink:href="8A745756.jpg"  transform="matrix(1 0 0 1 -7894 -7770.1099)">
</image>
<image style="overflow:visible;" width="951" height="1201" xlink:href="8A74575A.jpg"  transform="matrix(1 0 0 1 -7894 -7770.1099)">
</image>
<g>
	<g>
		<g>
			<polygon class="st0" points="864.7,172.8 799.4,108.8 865.7,43.7 931.9,108.8 			"/>
			<polygon class="st1" points="864.9,163.4 809.1,108.7 865.7,53.1 922.3,108.7 			"/>
		</g>
		<path id="path4637" class="st4" d="M850.7,91.7c0.4-0.7,1-1.3,1.8-1.7l-2.7-4.2c-0.2-0.4,0.5-0.7,0.8-0.3l1.4,2.1l-0.1-1.9
			c0-0.4,0.6-0.5,0.9-0.2c-0.2-2.1,0.2-2.7,0.7,0.2l0.2,2c0.5,0.3,0.7,0.7,0.5,1.4l0.3,0.2c0.5-0.1,1-0.2,1.6-0.3l-0.7-6.7
			c0-0.4,0.6-0.6,0.7-0.2c0.6,1.2,1,2.5,1.2,3.7c0,0.4-0.4,0.5-0.1,1.3c0.1,0.3,0.5,0.2,0.6,0.7c-0.1,0.2,0.1,0.5,0.1,0.7l-0.1,0.5
			c0,0.1,0.4,0.2,0.4,0.1l-0.1-2.1c0-0.3,0.4-0.5,0.6,0.2l0-0.9c-0.2-0.4-0.3-1-0.2-1.8c-0.3-0.1-0.3-0.6-0.2-1.2l0.2-0.1
			c-0.3-0.1-0.3-1.8,0-3.5c-0.1,0.4-0.4,1.5-0.5,0.9c-0.2-1,0.2-2.9-0.4-3l2.9-2.6c0,0.4,0,0.8-0.3,1.3c0.4,0.3,0.6,0.7,0.1,1.7
			l-1.1,1.7c-0.1,1.1-0.1,0.8,0.3,1.7c0.3-0.3,0.6-0.6,1-0.7c0.3,0,0.5,0.3,0.6,0.6v0.9c0,0.2,0.6,0,0.6-0.1
			c0.1-0.6,0.3-1.1,0.6-1.6c0-0.7,0.1-1.3,0.3-1.7l0-2.5c0-0.4,0.7-0.4,0.6,0.1c-0.2,1.9,0.1,2.5,0,4c0,0.3,0.7,0.3,0.8,0
			c0.5-1.1,0.8-1.4,1.1-2.1c0.3-0.6,0.4-1.2,0.8-1.8c0.2-0.4,0.7-0.5,0.5,0.2c-0.1,0.4-0.2,0.7-0.2,1.1c0.1,0.6,0.8,0.3,0.9,0.5
			c0.2,0.4-0.8,2.5-0.7,2.7c0.2,0.3,0.4-1.4,1.7-4.7c0.2-0.5-0.3-0.8-0.4-0.3c-0.1,0.6,0.1,1.2-0.3,1.8c-0.2,0.3-0.7,0.3-0.5-0.2
			c0.4-0.8-0.1-0.7,0-1.4c0.1-0.6,0.4-1.8,0.4-1.9c-0.4-0.7,0.7-2.1,1.3-1.4c0.3,0.4,1.1-0.3,1,1.1c0.7,0.5,0.1,1.1-0.2,1.9l-0.5,1
			l-3.7,8.8l0.1,0l2-3.7c0.3-0.5,1-0.5,0.7,0l-3.8,6.8l0.1,0l12.5-14.5c0.4-0.4,0.9,0,0.5,0.5l-2.6,2.8c0.3,0.9-1,1.2-0.6,1.7
			c0.6,0,0.7,0.2,0.3,0.6l-11.7,12.2c-0.3,0.3,0,0.5,0.4,0.3l13.1-11c0.4-0.4,1,0,0.5,0.4l-3.1,2.5c0,0.3-0.5,0.7-1,1.1
			c0.2,0.4,0,0.9-0.3,1.4l2.3-1.6l0.6-0.2l2.8-1.8l0.8-0.7c1.1-0.6,2.1-1.2,3.1-1.8c0.5-0.1,0.8-0.4,1.4-0.6l1-0.3
			c0.3,0.2,0.3,0.4,0.2,0.6c-0.5,0-0.9,0.2-1.1,0.7l-11.7,7.3c-0.6,0.4,0.6,0,1.1,0l0.9,0l8.7-3.5l0.6-0.3l6.3-2.6l0.5,0.5l-7.8,3.2
			c0.3,0.1,5.3-1.8,8-2.5c0.6-0.2,1.2,0.3,0.6,0.5l-16.7,5.5c-0.7,1.3-1.7,2-2.9,2.3c-0.4,0.1-0.8,0.1-1.1,0.1
			c-0.7,0.4-1.4,0.1-1.9-0.7l-4.7,2.9l0.4,0l16.7-4.7c0.9-0.7,1.3-1.3,1.4-1.8c0.1-0.4,0.6-0.6,1.2-0.6c1,0,1.9,0.2,2.7,0.4
			c0.4,0.1,1-0.1,1-0.4c0.1-0.6,0.7-1,1.8-0.8c0.4,0.1,0.7,0,0.8-0.3c0.4-0.7,1-0.6,1.6,0c0.3,0,0.6,0.1,0.9,0.3
			c0.6,0.2,0.5,0.5,0.2,0.8c-0.6,0.1-1,0.4-1.3,0.5c-0.4,0.2-1,0.1-1.4,0.2c-0.4,0.1-0.8,0.4-1.2,0.6c-0.3,0.1-0.6,0.2-1,0.3
			c-0.2,0.1-0.4,0.4,0.3,0.3l0.9,0l1.4-0.4c0.3-0.1,0.7,0,0.8,0.3l1.7-0.3c0.6-0.1,0.5,0.5,0,0.6l-2.1,0.4l0.1,0.2l-0.4,0.3
			l-0.2-0.3l-2.4,0.5c-0.3,0.1-0.2,0.4,0,0.4l3.1-0.4c0.4,0,0.5,0.5,0.1,0.6l-8,1.6c0,1-0.4,1.4-1.1,1.4c0.2,0.8-0.9,1.4-1.6,1.1
			c-0.5-0.2-1.1-0.9-1.9-1.1c-0.7-0.2-0.9,0.3-1.5,0c-0.3-0.1-0.3-0.7-0.7-1.3l-12.5,2.8L892,95c0.3,0,0.7,0.3,0.7,0.6
			c0.3,0.2,0.5,0.4,0.6,0.6c1.1,0,1.5,0.2,2,0.2c0.5,0,0.4,0.6-0.1,0.6c-0.8,0-1,0.4-2.4-0.1c-0.6-0.1-1.1,0.3-1.7,0.2
			c-0.6-0.1-1.2-0.8-1.4-0.8c-0.7,0.1-1.3,0.2-2,0.2c-0.4,0-0.8-0.2-1.3-0.2c-0.4,0-0.7,0.1-1.1,0.1c-0.4,0-0.7,0.1-1.1,0
			c-0.3,0-0.6-0.2-0.9-0.1c-0.4,0-0.8,0.2-1.1,0.2c-0.5-0.1-0.7,0.1-1.1,0.1c-0.5-0.1-0.8-0.2-1.3-0.2c-0.9-0.1-2,0-2.8-0.1
			c-0.1-0.1-0.1-0.3-0.1-0.4h-0.9c1.1,0.1,1,0.5,0.1,0.5l-1.4,0c-0.3,0.1-0.7,0.2-1.1,0.2c-0.4,0-0.8,0-1.1-0.2c-0.7,0-1.4,0-2,0
			c-0.4,0-0.9,0.1-1.3,0.1c-0.5,0-1.1-0.2-1.7-0.3c-0.4-0.1-1-0.1-1.7,0c-0.5-0.1-1-0.2-1.5-0.2c-0.5,0.1-0.3,0.2-0.1,0.2l25.9,1.8
			c0.5,0,0.3,0.6-0.2,0.5l-6.8-0.5l2.3,0.3c0.2,0,0.3,0.3,0.4,0.3l3.9,0.4c0.4,0.1,0.3,0.7-0.2,0.6l-26.2-2.8l6.9,1.6
			c1-0.2,1.9-0.4,2.7-0.3c0.7-0.2,1.2-0.1,1.4,0.3c1-0.1,1.6,0.2,2,0.8c0.3,0.4,2.1,0.2,2.5,0.3l1.7,0.5c0.5-0.1,1-0.1,1.4-0.1
			l0.7,0.4c0.6,0.3,1.3,0.4,1.5,0.7c0.1,0.2,0.3,0.4,0.5,0.6l1.5,0.3c0.5,0.1,0.4,0.6-0.2,0.6l-0.7-0.1c-0.2,0.1-0.4,0.2-0.7,0.1
			l-1.5-0.3c-0.4,0.1-1,0.4-1.5,0.2l-19.4-5.2l-0.1,0.2l24.7,8.9c0.5,0.2,0.2,0.8-0.4,0.6l-2.7-1.1c-0.2,0.2-0.8,0.3-1,0.2
			c-0.7-0.6-0.9-0.3-2.1-1.1l-1.1-0.2l-1-0.4c-0.3-0.1-0.4,0.3-0.3,0.4c0.4,0.2,0.2,0.7-0.2,0.4l-1-0.8c-0.3-0.1-0.7-0.3-1-0.6
			c-0.9-0.4-1.8-0.7-2.6-1.2c-0.3-0.2-0.6-0.2-0.9-0.1c-0.7,0-1.2-0.2-1.7-0.6c-0.7,0.1-1.3-0.1-1.7-0.6c-0.5,0-1.2-0.3-1.9-0.6
			l-0.1,0.3c1.1,0.7,2.3,1.3,3.5,1.9c0.2,0.1,0.1,0.3,0.3,0.4l1.8,0.8c0.4,0.2,0.4,0.6-0.2,0.7c-0.6,0.1,0.7,0.8,1.1,1
			c0.3,0.2-0.1,0.7-0.4,0.5l-2.3-1.5l-0.7-0.2l-9.6-6c-0.5,0.4-1.1,0.8-1.7,1.1l-2.1,8c-0.1,0.5-1,0.4-0.8,0l2-7.6
			c-1.2,0.3-2.4,0.4-3.5,0.3l-9.3,8.1c-0.6,0.5-1.3-0.1-0.8-0.7c0.6-0.7,1.8-1.7,2-2.1c0.5-0.8,0.7-1.1,1.2-1.5l1.7-1.6
			c0.3-0.3-0.1-0.5-0.5-0.3c-0.4,0.2-0.8,0.3-1.1,0.5c-0.6,0.3-0.9,0.9-1.6,1.1c-0.5,0.2-1.4-0.5-1.6-0.6c-1.2,0.3-2.1,1.1-2.3,1.1
			c-0.3,0-1,0-1.4,0c-0.3,0-0.4-0.4-0.1-0.6l5.5-4.1l-10.1,2.5c-0.7,0.2-0.9-0.5-0.3-0.7l8.4-2.9c-0.1-0.8-0.2-0.6,0.7-1.1
			c-0.3,0-0.6,0.1-0.9,0.1c-0.3,0-0.6,0.1-0.9,0c-0.2-0.1,0.1-0.4-0.2-0.4l-1.5,0.1c-0.3,0-0.7,0.4-0.6,0.5c0.2,0.3,0.2,0.8-0.3,1.1
			c-0.6,0.3-1,0.6-1.7,0.9c-0.4,0.2-0.9-0.1-0.7-0.4c0.2-0.4,0-0.6-0.4-0.8c-0.5,0-1.1-0.1-1.6-0.2c-0.3,0-0.5-0.1-0.6-0.3
			c-0.5-0.2-0.6-0.6,0-0.6l12-1.3l-9.6-0.6c-0.4,0-0.3-0.7,0-0.6l11,0.8l0-0.3c-0.6,0-1.3,0-1.7-0.1l-5-1.1c-0.4-0.1-0.9,0-1.3-0.1
			l-2.8-0.8l0.6-0.7l3.5,0.8c0.3,0.1,0.7,0.1,1,0.1c-0.3-0.2-0.8-0.2-1.2-0.4c-0.3-0.1-0.3-0.4-0.7-0.5l-0.8-0.1
			c-0.3,0-0.1-0.4,0.2-0.4l1.2,0.1c0.2,0,0.2-0.5,0.4-0.7c0.4-0.1,0.7-0.2,0.8-0.5c0.4,0.1,0.9,0.2,1.5,0.5l0-0.3l-1.3-1
			c-0.4-0.3,0.2-0.6,0.7-0.3c0-0.2-0.1-0.4,0-0.6c0.1-0.2,0.3-0.3,0.3-0.5c0.1-0.4,0.8,0.3,1.4,0c0.3-0.1,0.8,0.7,0.8,0.3
			c0-0.4-1.2-1.1-0.9-1.5c0.1-0.2,0.8,0.3,0.9,0.5L850.7,91.7L850.7,91.7z M869.3,67.8l1.4-1.1l2.3,1.9c-0.4,0.2-0.8,0.4-1.4,0.4
			c-0.6,0.3-0.4,1.1-1,1C868.4,69.2,869.7,68.1,869.3,67.8L869.3,67.8z M860.9,95.6c0.4-0.2,0.8-0.3,1.3-0.4l-0.1,0.5L860.9,95.6z
			 M851,95.6c-0.3-0.3-0.3-1-0.1-1c0.5-0.1,1.4-0.3,2-0.4c1.2-0.2,3.3,1.6,3.4,1.6c0.7,0.2,0.8,0.7,1.4,1.4c0.2,0.2,1.1-0.5,1.1-0.7
			c0.1-1.2,0.3-1,0.1-1.5c-0.2-0.4,0.1-0.6,0-0.9c-0.9-2.2,0.5-2.3,1.7-2.4c0.7,0,1.6,0.9,1.1,1.4c-0.5,0.4-1.2,1-1.8,1.6
			c-0.5,0.6,0.2,0.9,0.1,0.9c-0.7,0.1-1.1,0.4-1,0.9c0.1,0.3-1,0.9-1.3,0.9c-0.6,0-0.8-0.7-1.4-1c-0.4-0.2-0.8-0.1-1.2,0
			c-0.7,0.2-1.2,0.9-1.4,0.9c-0.5,0-1.1,0.1-1.8,0.3c-0.5,0.1-1.3-0.5-0.9-0.8c0.3-0.2,1.1-0.5,1.7-0.8c0.4-0.2,0.5-0.6,0-0.6
			C852.1,95.5,851.1,95.7,851,95.6L851,95.6z M868.4,100.3c0.1,0.2,0.7,0.3,1.4,0.5C869.4,100.5,868.9,100.3,868.4,100.3z
			 M864.7,99.7c0,0.1,0.3,0.3,0.5,0.5L864.7,99.7z M864.2,99.1c-0.6-0.5,0.8,0.1,1.8,0.3c0.2,0.3,0.7,0.5,1.3,0.6L864.2,99.1z
			 M851.7,102.2c-0.1,0.3-0.3,0.5-0.9,0.8C851.1,102.7,851.4,102.4,851.7,102.2z M847.7,99.7c1.3-0.5,1.9-0.3,2.2-0.5
			c0.4-0.2,1.2-0.6,1.4-0.4c0.3,0.3,0.7,0.6,1.2,0.8c0.2,0.1,0,0.3-0.1,0.4c-0.2,0.1-0.4,0.3-0.7,0.3c-0.3,0-0.8,0.1-1.2,0.4
			c-0.5,0.4-1.2,0.8-1.7,1.1c-0.1,0.1-0.7,0-0.4-0.3c0.2-0.2,0.5-0.4,0.2-0.7c-0.3-0.3-0.6-0.7-1.3-0.6
			C847.1,100.5,847.5,99.8,847.7,99.7z M841.9,100.5l1.6-0.7c0.1-0.1,0.1,0.3,0,0.4L841.9,100.5z M845.6,99c0.4-0.2,0.8-0.1,1.4-0.1
			c0.9-0.1,1.8-0.4,2.7-0.6c-0.5,0.3-1.2,0.6-2.5,0.8C846.6,99.2,846,99.2,845.6,99L845.6,99z M847.9,91.7c0.4,0.3,0.9,0.5,1.3,0.7
			c-0.3-0.2-0.4-0.4-0.7-0.6C848.4,91.8,848.1,91.7,847.9,91.7z M847.1,92c0.2,0.4,0.8,0.6,1.7,0.7C848.2,92.3,847.7,92.1,847.1,92z
			 M846,92.5c-0.3,0.1,0.5,0.3,0.7,0.4c0.3,0.1,0.6,0.5,0.8,0.4c0.1-0.1-0.3-0.4-0.7-0.5C846.5,92.8,846.3,92.4,846,92.5z
			 M848.7,93.9l0.2-0.2l0.2,0.4L848.7,93.9L848.7,93.9z M859.1,85.3l-0.1-0.4l0.2-0.7l0.1,0.8L859.1,85.3z M862,91.4
			c-0.8-0.7-1.6-1.4-2.3-1.5c-0.1-0.4-0.2-0.7-0.2-1.1c0-0.6,0.1-1.2,0.1-1.7c0-0.8,0.5-1.5,0.9-2.2c0.2-0.4,0.6-0.6,0.9-1
			c0.1-0.2-0.3-0.7,0.4-0.7c0.3,0,0.6-0.3,0.8-0.2c0.2,0.1,0.4,0.6,0.6,0.6c0.2,0,0.4-0.2,0.4-0.3c0.3-0.8,0.4-1.6,0.7-2.4
			c0.2-0.6,0.5-1.3,0.8-1.7c-0.1,0.4,0.4,0.9,0.5,1.2c-0.1,0.7-0.8,1.4-1.3,1.8c-0.7,0.6,0,0.6-0.4,1.4c-0.3,0.5,0.4,0.3,0.4,0.6
			c-0.2,0.8-0.7,1.7-0.9,2.5c-0.2,1-0.4,1.9-0.7,2.9C862.7,90.2,862.3,90.9,862,91.4L862,91.4z M864.8,91.6l0.5-0.5l0.2,0.4
			L864.8,91.6z M867.2,90l-1.2,1.2l-0.3-0.2L867.2,90z M869.3,93.1c0.7,0,1.3-0.3,2-0.5C870.7,92.7,870,92.9,869.3,93.1z
			 M876.2,91.5c0.4,0.1,1-0.1,1.5-0.3C877.1,91.3,876.5,91.3,876.2,91.5"/>
	</g>
	<text transform="matrix(0.9999 1.731000e-02 -1.731000e-02 0.9999 824.8137 119.3081)" class="st5 st6">םיצצופתמ םירמוח</text>
	<text transform="matrix(1 0 0 1 835.0486 129.4108)" class="st5 st7">EXPLOSIVE SUBSTANCES</text>
	<rect x="860.7" y="147.7" class="st3" width="6.6" height="13.4"/>
	<text transform="matrix(0.9131 0 0 1 863.0247 157.574)" class="st8 st9">1</text>
</g>
<rect x="555.9" y="624.8" class="st3" width="6.6" height="13.4"/>
<text transform="matrix(0.9131 0 0 1 558.1857 634.6074)" class="st8 st9">9</text>
<polygon class="st3" points="509.1,590.7 615.7,591.7 613.6,607.5 507,606.5 "/>
<text transform="matrix(0.9999 1.731000e-02 -1.731000e-02 0.9999 517.469 595.8259)" class="st5 st10">םירחא םינכוסמ םיצפחו םירמוח</text>
<g>
	<g>
		<g>
			<polygon class="st11" points="712.2,172.8 646.8,108.8 713.1,43.7 779.4,108.8 			"/>
			<polygon class="st12" points="712.3,163.4 656.5,108.7 713.1,53.1 769.7,108.7 			"/>
		</g>
		<path class="st13" d="M713.1,62.4c-2.7,5.1,0.4,7.9-3,15.3c-1.9-1.5-0.9-7-4.5-7.2c0.4,1.8,0.1,2.4,0,3c-0.4,2.5-1.2,4.6,0.4,7.8
			c-2.5-1.2-2.7-3.4-4.8-4.9c0.4,2.4-0.6,7.3,2.2,12.1c-2.5-0.3-3.4-1.2-6.1-3.9c2.8,15,5.1,15.4,15.7,16.3c-0.9-0.1-6.3-1-8.2-7.2
			c0-1.5-0.1,1.3,5.1,1.5c-3.3-5.2-2.4-4.2-2.1-7.2c1.5,1.9,0.3,2.2,4,3.7c-1.2-3.9,1.9-6.4,1.2-10.9c0.9,1.9,3.9,1.6,3.7,10.9
			c2.5-2.8,2.7-0.9,3.9-3.9c0.1,1.6,0.9,3.7-2.5,7.3c0.9,0.3,2.4,0.4,4.6-1.2c-2.2,2.7-0.1,2.7-6,6.9c7.3,0.1,12.1-4.5,12-14.5
			c-0.3,0.9-0.4,2.7-4.3,3.1c2.4-2.4,3.7-7.3,1.8-11.2c-0.7,0.6-1.8,3.6-4.3,4.3c1.2-2.1,0.9-4.8,0.9-4.8s0.4-3.7-1.8-6.7
			c-0.6,4.5-0.6,6.9-3.4,7.5c0.4-2.5,0.6-3.9-0.9-6.9C715.2,68.5,713.4,65.4,713.1,62.4z M701,103.4v2.7h25.6v-2.7H701z"/>
	</g>
	<rect x="708.4" y="147.7" class="st3" width="6.6" height="13.4"/>
	<text transform="matrix(0.9131 0 0 1 710.765 157.574)" class="st8 st9">2</text>
	<text transform="matrix(0.9999 1.731000e-02 -1.731000e-02 0.9999 680.7827 119.6068)" class="st5 st6">םיחקלתמ םיזג</text>
	<text transform="matrix(1 0 0 1 681.879 130.7969)" class="st5 st10">FLAMMABLE GASES</text>
</g>
<g>
	<g>
		<g>
			<polygon class="st14" points="560.8,172.8 495.4,108.8 561.7,43.7 628,108.8 			"/>
			<polygon class="st12" points="560.9,163.4 505.1,108.7 561.7,53.1 618.3,108.7 			"/>
		</g>
		<path class="st15" d="M587.4,85.3c0.2,0.8-0.2,1.5-0.9,1.6l-6.2,1.3c-0.5,0.1-0.8,0.6-0.7,1.1c0.2,0.8-0.2,1.5-0.9,1.6l-40,8.5
			c-0.6,0.1-2-1.1-2.6-3.8c-0.6-2.7,0.1-5.1,0.7-5.2l40-8.5c0.6-0.1,1.3,0.4,1.5,1.1c0.1,0.7,0.8,1.1,1.5,1c0,0,0,0,0,0l5.9-1.2
			c0.6-0.1,1.3,0.4,1.5,1.1L587.4,85.3z"/>
	</g>
	<rect x="557.1" y="147.7" class="st3" width="6.6" height="13.4"/>
	<text transform="matrix(0.9131 0 0 1 559.3913 157.574)" class="st8 st9">2</text>
	<polygon class="st3" points="504.7,106.4 620.3,107.3 618,121.8 502.4,120.9 	"/>
	<text transform="matrix(0.9999 1.731000e-02 -1.731000e-02 0.9999 515.2475 112.1143)" class="st5 st16">םיליער אלו םיחקלתמ אל םיזג</text>
	<text transform="matrix(1 0 0 1 541.43 121.8616)"><tspan x="0" y="0" class="st5 st7">NON-FLAMABLE</tspan><tspan x="-4.4" y="7.2" class="st5 st7">NON-TOXIC GASES</tspan></text>
</g>
<g>
	<g>
		<g>
			<polygon class="st2" points="408.4,172.8 343.1,108.8 409.4,43.7 475.6,108.8 			"/>
			<polygon class="st1" points="408.6,163.4 352.8,108.7 409.4,53.1 466,108.7 			"/>
		</g>
		<g>
			<path id="path628" class="st17" d="M394.2,80.6c1.2-0.3,1.2,0.8,2.2,1.7c0,0,5.4,4.3,11.8,6.2c6.3,1.9,10.5,3.4,10.8,3.5
				c0.4,0.1,1.9,0.5,3.2-0.1c1.3-0.6,3.5,0.5,3.2,1.4c-0.3,1-1.9,1-2.4,2.3c-0.5,1.4-0.7,2.4-2.1,2.2c-1.4-0.3-1.3-1.2-1.5-2.5
				c-0.2-1.2-2.5-2.1-8-4c-5.6-1.9-11.4-4.1-12.3-4.4c-0.9-0.3-2.8-1.2-4.5-0.5c-1.7,0.8-2.7-1.2-1.9-2.1c0.9-0.9,1.1-1,0.6-1.6
				C393,82.2,392,81.1,394.2,80.6z"/>
			<path id="path632" class="st17" d="M399,92.3c2-0.7,19.1-7,20-7.6c0.9-0.6,3-2.5,3.6-3.4c0.7-0.9,2.5-0.3,2.3,0.8
				c-0.1,1-0.5,1.4-0.1,1.7c0.4,0.3,1.6-0.1,1.4,0.7c-0.2,0.8-0.8,2.1-1.7,2c-0.9-0.1-1.6-1.3-3.5-0.5c-2,0.8-18.1,7.3-19.6,7.9
				c-1.4,0.5-2.5,2.4-2.9,3.1c-0.4,0.7-2.4,1.7-2.7-0.3c-0.4-1.9-0.4-1.3-0.8-1.6c-0.4-0.3-1.4-1.5,0-2.1
				C396.4,92.1,396.8,93.1,399,92.3z"/>
			<path id="path634" class="st18" d="M409.8,67.8c-3.5,0.1-9,4.3-9.4,4.5c-0.4,0.3-1.5,3.1-0.9,5.1c0.7,2,1.7,3.1,1.5,4.2
				c-0.1,1.1-0.4,2.8,0.8,3.3c1.2,0.5,1.9,0.6,2,1.7c0.1,1.1,0.3,2.3,0.4,2.8c0.1,0.5,1.7,1.8,2.6,2.5c0.9,0.7,1.7,1.1,2.8,1.1
				c2,0,3.2-1.4,3.6-1.8c0.9-0.8,1.9-0.5,1.7-2.1c0-0.6,0-2.8,0.4-3.2c0.6-0.4,2.2-1.6,2.4-2.3c0.1-0.8,0-2.8,0.1-3.5
				c0.1-0.7,1.7-2.2,1.6-3.4c-0.1-1.2,0.6-3-2.1-4.8C414.7,70.1,412,67.8,409.8,67.8"/>
			<path id="path636" class="st19" d="M409.7,68.8c-0.9,0.1-1.8,0.2-2.5,0.7c-0.7,0.5-5.9,3.1-6.4,4c-0.5,0.9-1.8,2.4,0.5,4.8
				c0,0-0.5-2.9,0.9-4.2c0,0-0.3,3.1,0.1,7.8c0.1,1-0.3,1.8,1.1,2.5c1.4,0.7,3.1,1.6,3,2.9c0,0,0.9,0.8,3.1,0.8
				c2.2,0,2.9-0.4,2.9-1.1c0.1-0.6-0.5-1.3,1.1-1.9c1.5-0.6,2.9-1.3,3-2.5c0.1-1.2,0.7-5.6-0.7-8.7c0,0,1.4,1,1.6,3.9
				c0,0,1-0.4,1-2.6c0-2.1-1.5-2.9-3-3.9C413.9,70.4,412.1,68.6,409.7,68.8z M405,79.3c0.4,0,1,0,2.1,0.1c2.2,0.1,0.1,2-0.8,2.7
				c-0.9,0.7-1.9,0-2.4-0.7c-0.5-0.6-0.7-2.1,0.7-2.1C404.6,79.3,404.7,79.3,405,79.3z M414.1,79.3c0.4,0,0.5,0.1,0.5,0.1
				c1.4,0,1.2,1.5,0.7,2.1c-0.5,0.6-1.6,1.3-2.5,0.7c-0.9-0.7-2.9-2.7-0.8-2.7C413.1,79.3,413.7,79.3,414.1,79.3z M404.8,86.8
				c0,0,0,2.6,0.5,3.1c0.5,0.5,2.7,2.2,3,2.4c0.3,0.1,0.5,0.5,1.4,0.5c0.9,0,1.4-0.6,1.7-0.9c0.4-0.3,2.3-1.5,2.6-1.8
				c0.3-0.3,0.4-2.4,0.4-3.2l-0.7,0.4c0,0,0.1,1.5-0.2,1.9c-0.3,0.4-1.5,1.2-3.5,1.2c-2,0-4.2-0.9-4.3-1.2c-0.1-0.3-0.1-1.8-0.1-1.8
				L404.8,86.8z"/>
			<path id="path644" class="st18" d="M409.3,85.8c0.4,0,0.7,0.6,1.3,0.4c0.6-0.1,0.4-0.8,0.1-1.4c-0.3-0.5-0.6-1.8-1.4-1.9
				c-0.8-0.1-1.1,1.3-1.4,1.9c-0.3,0.6-0.5,1.2,0.1,1.4C408.6,86.3,409,85.8,409.3,85.8"/>
		</g>
	</g>
	<rect x="404.4" y="144.8" class="st3" width="6.6" height="13.4"/>
	<text transform="matrix(0.9131 0 0 1 406.668 154.6649)" class="st8 st9">2</text>
	<polygon class="st3" points="375.5,103.4 441.1,104.3 439.8,118.8 374.2,117.9 	"/>
	<text transform="matrix(0.9999 1.731000e-02 -1.731000e-02 0.9999 381.0137 112.4035)" class="st5 st6">םיליער םיזג</text>
	<text transform="matrix(1 0 0 1 390.7835 124.9518)" class="st5 st7">TOXIC GASES</text>
</g>
<g>
	<g>
		<g>
			<polygon class="st20" points="408.4,330.4 343.1,266.4 409.4,201.3 475.6,266.4 			"/>
			<polygon class="st1" points="408.6,321 352.8,266.3 409.4,210.7 466,266.3 			"/>
		</g>
		<path class="st13" d="M409.4,220.5c-2.7,5.1,0.4,7.9-3,15.3c-1.9-1.5-0.9-7-4.5-7.2c0.4,1.8,0.1,2.4,0,3c-0.4,2.5-1.2,4.6,0.4,7.8
			c-2.5-1.2-2.7-3.4-4.8-4.9c0.4,2.4-0.6,7.3,2.2,12.1c-2.5-0.3-3.4-1.2-6.1-3.9c2.8,15,5.1,15.4,15.7,16.3c-0.9-0.1-6.3-1-8.2-7.2
			c0-1.5-0.1,1.3,5.1,1.5c-3.3-5.2-2.4-4.2-2.1-7.2c1.5,1.9,0.3,2.2,4,3.7c-1.2-3.9,1.9-6.4,1.2-10.9c0.9,1.9,3.9,1.6,3.7,10.9
			c2.5-2.8,2.7-0.9,3.9-3.9c0.1,1.6,0.9,3.7-2.5,7.3c0.9,0.3,2.4,0.4,4.6-1.2c-2.2,2.7-0.1,2.7-6,6.9c7.3,0.1,12.1-4.5,12-14.5
			c-0.3,0.9-0.4,2.7-4.3,3.1c2.4-2.4,3.7-7.3,1.8-11.2c-0.7,0.6-1.8,3.6-4.3,4.3c1.2-2.1,0.9-4.8,0.9-4.8s0.4-3.7-1.8-6.7
			c-0.6,4.5-0.6,6.9-3.4,7.5c0.4-2.5,0.6-3.9-0.9-6.9C411.5,226.6,409.7,223.5,409.4,220.5z M397.3,261.5v2.7h25.6v-2.7H397.3z"/>
	</g>
	<rect x="403.6" y="304.1" class="st3" width="6.6" height="13.4"/>
	<text transform="matrix(0.9131 0 0 1 405.9521 313.895)" class="st8 st9">4</text>
	<polygon class="st3" points="361.3,269.3 458.2,270.2 456.2,284.7 359.4,283.8 	"/>
	<text transform="matrix(0.9999 1.731000e-02 -1.731000e-02 0.9999 372.1823 276.1751)" class="st5 st21">םימ םע עגמב ןכוסמ</text>
	<text transform="matrix(1 0 0 1 378.9831 287.0676)" class="st5 st7">DANGEROUS WITH WET</text>
</g>
<g>
	<g>
		<g>
			<g>
				<polygon class="st11" points="864.7,330.4 799.4,266.4 865.7,201.3 931.9,266.4 				"/>
				<polygon class="st11" points="864.9,321 809.1,266.3 865.7,210.7 922.3,266.3 				"/>
			</g>
			<path class="st11" d="M865.7,220.5c-2.7,5.1,0.4,7.9-3,15.3c-1.9-1.5-0.9-7-4.5-7.2c0.4,1.8,0.1,2.4,0,3
				c-0.4,2.5-1.2,4.6,0.4,7.8c-2.5-1.2-2.7-3.4-4.8-4.9c0.4,2.4-0.6,7.3,2.2,12.1c-2.5-0.3-3.4-1.2-6.1-3.9
				c2.8,15,5.1,15.4,15.7,16.3c-0.9-0.1-6.3-1-8.2-7.2c0-1.5-0.1,1.3,5.1,1.5c-3.3-5.2-2.4-4.2-2.1-7.2c1.5,1.9,0.3,2.2,4,3.7
				c-1.2-3.9,1.9-6.4,1.2-10.9c0.9,1.9,3.9,1.6,3.7,10.9c2.5-2.8,2.7-0.9,3.9-3.9c0.1,1.6,0.9,3.7-2.5,7.3c0.9,0.3,2.4,0.4,4.6-1.2
				c-2.2,2.7-0.1,2.7-6,6.9c7.3,0.1,12.1-4.5,12-14.5c-0.3,0.9-0.4,2.7-4.3,3.1c2.4-2.4,3.7-7.3,1.8-11.2c-0.7,0.6-1.8,3.6-4.3,4.3
				c1.2-2.1,0.9-4.8,0.9-4.8s0.4-3.7-1.8-6.7c-0.6,4.5-0.6,6.9-3.4,7.5c0.4-2.5,0.6-3.9-0.9-6.9C867.8,226.6,866,223.5,865.7,220.5z
				 M853.6,261.5v2.7h25.6v-2.7H853.6z"/>
		</g>
		<g>
			<g>
				<polygon class="st11" points="864.7,330.4 799.4,266.4 865.7,201.3 931.9,266.4 				"/>
				<polygon class="st12" points="864.9,321 809.1,266.3 865.7,210.7 922.3,266.3 				"/>
			</g>
			<path class="st13" d="M865.7,220.5c-2.7,5.1,0.4,7.9-3,15.3c-1.9-1.5-0.9-7-4.5-7.2c0.4,1.8,0.1,2.4,0,3
				c-0.4,2.5-1.2,4.6,0.4,7.8c-2.5-1.2-2.7-3.4-4.8-4.9c0.4,2.4-0.6,7.3,2.2,12.1c-2.5-0.3-3.4-1.2-6.1-3.9
				c2.8,15,5.1,15.4,15.7,16.3c-0.9-0.1-6.3-1-8.2-7.2c0-1.5-0.1,1.3,5.1,1.5c-3.3-5.2-2.4-4.2-2.1-7.2c1.5,1.9,0.3,2.2,4,3.7
				c-1.2-3.9,1.9-6.4,1.2-10.9c0.9,1.9,3.9,1.6,3.7,10.9c2.5-2.8,2.7-0.9,3.9-3.9c0.1,1.6,0.9,3.7-2.5,7.3c0.9,0.3,2.4,0.4,4.6-1.2
				c-2.2,2.7-0.1,2.7-6,6.9c7.3,0.1,12.1-4.5,12-14.5c-0.3,0.9-0.4,2.7-4.3,3.1c2.4-2.4,3.7-7.3,1.8-11.2c-0.7,0.6-1.8,3.6-4.3,4.3
				c1.2-2.1,0.9-4.8,0.9-4.8s0.4-3.7-1.8-6.7c-0.6,4.5-0.6,6.9-3.4,7.5c0.4-2.5,0.6-3.9-0.9-6.9C867.8,226.6,866,223.5,865.7,220.5z
				 M853.6,261.5v2.7h25.6v-2.7H853.6z"/>
		</g>
	</g>
	<rect x="861.4" y="303.8" class="st3" width="6.6" height="13.4"/>
	<text transform="matrix(0.9131 0 0 1 863.736 313.6216)" class="st8 st9">3</text>
	<polygon class="st3" points="826.2,267.7 902.1,268.6 900.6,283.2 824.7,282.3 	"/>
	<text transform="matrix(0.9999 1.731000e-02 -1.731000e-02 0.9999 826.2097 276.4988)" class="st5 st6">םיחקלתמ םילזונ</text>
	<text transform="matrix(1 0 0 1 832.2593 287.0676)" class="st5 st10">FLAMMABLE LIQUIDS</text>
</g>
<g>
	<g>
		<polygon class="st11" points="712.1,334.4 646.7,270.3 713,205.2 779.3,270.3 		"/>
		<rect x="654.9" y="201.3" class="st3" width="113.8" height="137.1"/>
		<g>
			<polygon class="st19" points="768.7,259.8 768.6,280.7 779.5,270.3 			"/>
			<polygon class="st19" points="728.5,319 736.6,311.2 737.2,228.8 729.2,220.9 			"/>
			<polygon class="st19" points="757,248.2 748.9,240.3 748.5,299.9 756.6,292.1 			"/>
			<polygon class="st19" points="668.9,291.8 676.9,299.7 677.3,240.5 669.2,248.5 			"/>
			<polygon class="st19" points="717.4,209.3 713.2,205.2 709.3,209.1 708.4,330.6 712.3,334.4 716.5,330.4 			"/>
			<polygon class="st19" points="697.4,220.8 689.3,228.8 688.7,311.2 696.7,319.1 			"/>
			<polygon class="st19" points="657.2,260.2 647,270.3 657.1,280.3 			"/>
		</g>
		<polygon class="st1" points="712,325 656.1,270.3 712.7,214.7 769.3,270.3 		"/>
		<path class="st13" d="M713,226.4c-2.7,5.1,0.4,7.9-3,15.3c-1.9-1.5-0.9-7-4.5-7.2c0.4,1.8,0.1,2.4,0,3c-0.4,2.5-1.2,4.6,0.4,7.8
			c-2.5-1.2-2.7-3.4-4.8-4.9c0.4,2.4-0.6,7.3,2.2,12.1c-2.5-0.3-3.4-1.2-6.1-3.9c2.8,15,5.1,15.4,15.7,16.3c-0.9-0.1-6.3-1-8.2-7.2
			c0-1.5-0.1,1.3,5.1,1.5c-3.3-5.2-2.4-4.2-2.1-7.2c1.5,1.9,0.3,2.2,4,3.7c-1.2-3.9,1.9-6.4,1.2-10.9c0.9,1.9,3.9,1.6,3.7,10.9
			c2.5-2.8,2.7-0.9,3.9-3.9c0.1,1.6,0.9,3.7-2.5,7.3c0.9,0.3,2.4,0.4,4.6-1.2c-2.2,2.7-0.1,2.7-6,6.9c7.3,0.1,12.1-4.5,12-14.5
			c-0.3,0.9-0.4,2.7-4.3,3.1c2.4-2.4,3.7-7.3,1.8-11.2c-0.7,0.6-1.8,3.6-4.3,4.3c1.2-2.1,0.9-4.8,0.9-4.8s0.4-3.7-1.8-6.7
			c-0.6,4.5-0.6,6.9-3.4,7.5c0.4-2.5,0.6-3.9-0.9-6.9C715.1,232.5,713.3,229.4,713,226.4z M700.9,267.4v2.7h25.6v-2.7H700.9z"/>
	</g>
	<rect x="707.7" y="306.9" class="st3" width="6.6" height="13.4"/>
	<text transform="matrix(0.9131 0 0 1 710.0262 316.7783)" class="st8 st9">4</text>
	<polygon class="st3" points="665.2,272.6 762,273.5 760.1,288 663.3,287.1 	"/>
	<text transform="matrix(0.9999 1.731000e-02 -1.731000e-02 0.9999 666.1121 279.3153)" class="st5 st21">םיקצומ םיחקלתמ םירמוח</text>
	<text transform="matrix(1 0 0 1 680.3597 292.2094)" class="st5 st10">FLAMMABLE SOLIDS</text>
</g>
<g>
	<g>
		<g>
			<g>
				<polygon class="st2" points="560.8,496.8 495.4,432.7 561.7,367.6 628,432.7 				"/>
				<polygon class="st1" points="560.9,487.3 505.1,432.6 561.7,377.1 618.3,432.6 				"/>
			</g>
		</g>
		<g>
			<path id="path628_00000077287102620558835250000009969733144600584600_" class="st17" d="M546.5,408.2c1.2-0.3,1.2,0.8,2.2,1.7
				c0,0,5.4,4.3,11.8,6.2c6.3,1.9,10.5,3.4,10.8,3.5c0.4,0.1,1.9,0.5,3.2-0.1c1.3-0.6,3.5,0.5,3.2,1.4c-0.3,1-1.9,1-2.4,2.3
				c-0.5,1.4-0.7,2.4-2.1,2.2c-1.4-0.3-1.3-1.2-1.5-2.5c-0.2-1.2-2.5-2.1-8-4c-5.6-1.9-11.4-4.1-12.3-4.4c-0.9-0.3-2.8-1.2-4.5-0.5
				c-1.7,0.8-2.7-1.2-1.9-2.1c0.9-0.9,1.1-1,0.6-1.6C545.4,409.9,544.3,408.8,546.5,408.2z"/>
			<path id="path632_00000101077673054663489090000011573424601156471223_" class="st17" d="M551.4,420c2-0.7,19.1-7,20-7.6
				c0.9-0.6,3-2.5,3.6-3.4c0.7-0.9,2.5-0.3,2.3,0.8c-0.1,1-0.5,1.4-0.1,1.7c0.4,0.3,1.6-0.1,1.4,0.7c-0.2,0.8-0.8,2.1-1.7,2
				c-0.9-0.1-1.6-1.3-3.5-0.5c-2,0.8-18.1,7.3-19.6,7.9c-1.4,0.5-2.5,2.4-2.9,3.1c-0.4,0.7-2.4,1.7-2.7-0.3
				c-0.4-1.9-0.4-1.3-0.8-1.6c-0.4-0.3-1.4-1.5,0-2.1C548.8,419.8,549.1,420.8,551.4,420z"/>
			<path id="path634_00000098923734326781204650000001360224068119656351_" class="st18" d="M562.1,395.5c-3.5,0.1-9,4.3-9.4,4.5
				c-0.4,0.3-1.5,3.1-0.9,5.1c0.7,2,1.7,3.1,1.5,4.2c-0.1,1.1-0.4,2.8,0.8,3.3c1.2,0.5,1.9,0.6,2,1.7c0.1,1.1,0.3,2.3,0.4,2.8
				c0.1,0.5,1.7,1.8,2.6,2.5c0.9,0.7,1.7,1.1,2.8,1.1c2,0,3.2-1.4,3.6-1.8c0.9-0.8,1.9-0.5,1.7-2.1c0-0.6,0-2.8,0.4-3.2
				c0.6-0.4,2.2-1.6,2.4-2.3c0.1-0.8,0-2.8,0.1-3.5c0.1-0.7,1.7-2.2,1.6-3.4c-0.1-1.2,0.6-3-2.1-4.8
				C567,397.8,564.3,395.4,562.1,395.5"/>
			<path id="path636_00000087395363667038454590000010888893800856578192_" class="st19" d="M562.1,396.5c-0.9,0.1-1.8,0.2-2.5,0.7
				c-0.7,0.5-5.9,3.1-6.4,4c-0.5,0.9-1.8,2.4,0.5,4.8c0,0-0.5-2.9,0.9-4.2c0,0-0.3,3.1,0.1,7.8c0.1,1-0.3,1.8,1.1,2.5
				c1.4,0.7,3.1,1.6,3,2.9c0,0,0.9,0.8,3.1,0.8c2.2,0,2.9-0.4,2.9-1.1c0.1-0.6-0.5-1.3,1.1-1.9c1.5-0.6,2.9-1.3,3-2.5
				c0.1-1.2,0.7-5.6-0.7-8.7c0,0,1.4,1,1.6,3.9c0,0,1-0.4,1-2.6c0-2.1-1.5-2.9-3-3.9C566.2,398.1,564.4,396.3,562.1,396.5z
				 M557.4,406.9c0.4,0,1,0,2.1,0.1c2.2,0.1,0.1,2-0.8,2.7c-0.9,0.7-1.9,0-2.4-0.7c-0.5-0.6-0.7-2.1,0.7-2.1
				C556.9,407,557,406.9,557.4,406.9z M566.4,406.9c0.4,0,0.5,0.1,0.5,0.1c1.4,0,1.2,1.5,0.7,2.1c-0.5,0.6-1.6,1.3-2.5,0.7
				c-0.9-0.7-2.9-2.7-0.8-2.7C565.4,407,566,406.9,566.4,406.9z M557.1,414.5c0,0,0,2.6,0.5,3.1c0.5,0.5,2.7,2.2,3,2.4
				c0.3,0.1,0.5,0.5,1.4,0.5c0.9,0,1.4-0.6,1.7-0.9c0.4-0.3,2.3-1.5,2.6-1.8c0.3-0.3,0.4-2.4,0.4-3.2l-0.7,0.4c0,0,0.1,1.5-0.2,1.9
				c-0.3,0.4-1.5,1.2-3.5,1.2c-2,0-4.2-0.9-4.3-1.2c-0.1-0.3-0.1-1.8-0.1-1.8L557.1,414.5z"/>
			<path id="path644_00000135675742688117300880000005746328795255405749_" class="st18" d="M561.7,413.5c0.4,0,0.7,0.6,1.3,0.4
				c0.6-0.1,0.4-0.8,0.1-1.4c-0.3-0.5-0.6-1.8-1.4-1.9c-0.8-0.1-1.1,1.3-1.4,1.9c-0.3,0.6-0.5,1.2,0.1,1.4
				C561,414,561.3,413.5,561.7,413.5"/>
		</g>
	</g>
	<rect x="557.1" y="468.5" class="st3" width="6.6" height="13.4"/>
	<text transform="matrix(0.9131 0 0 1 559.3913 478.3329)" class="st8 st9">6</text>
	<polygon class="st3" points="515.9,427.6 612.7,429.1 610.8,454.3 514,452.7 	"/>
	<text transform="matrix(0.9999 1.731000e-02 -1.731000e-02 0.9999 536.1357 435.2941)" class="st5 st21">םיליער םירמוח</text>
	<text transform="matrix(1 0 0 1 537.7576 448.6284)" class="st5 st7">TOXIC SUBSTANCES</text>
</g>
<g>
	<g>
		<polygon class="st22" points="712.2,496.8 646.8,432.7 713.1,367.6 779.4,432.7 		"/>
		<polygon class="st11" points="780.2,433.2 646.1,433.2 713,367.6 		"/>
		<linearGradient id="SVGID_1_" gradientUnits="userSpaceOnUse" x1="713.1083" y1="488.0417" x2="713.1083" y2="376.3594">
			<stop  offset="0.4916" style="stop-color:#000000"/>
			<stop  offset="0.5084" style="stop-color:#FFFFFF"/>
		</linearGradient>
		<polygon class="st23" points="712.3,487.3 656.5,432.6 713.1,377.1 769.7,432.6 		"/>
		<path class="st19" d="M713.1,387.9c-2.7,5.1,0.4,7.9-3,15.3c-1.9-1.5-0.9-7-4.5-7.2c0.4,1.8,0.1,2.4,0,3c-0.4,2.5-1.2,4.6,0.4,7.8
			c-2.5-1.2-2.7-3.4-4.8-4.9c0.4,2.4-0.6,7.3,2.2,12.1c-2.5-0.3-3.4-1.2-6.1-3.9c2.8,15,5.1,15.4,15.7,16.3c-0.9-0.1-6.3-1-8.2-7.2
			c0-1.5-0.1,1.3,5.1,1.5c-3.3-5.2-2.4-4.2-2.1-7.2c1.5,1.9,0.3,2.2,4,3.7c-1.2-3.9,1.9-6.4,1.2-10.9c0.9,1.9,3.9,1.6,3.7,10.9
			c2.5-2.8,2.7-0.9,3.9-3.9c0.1,1.6,0.9,3.7-2.5,7.3c0.9,0.3,2.4,0.4,4.6-1.2c-2.2,2.7-0.1,2.7-6,6.9c7.3,0.1,12.1-4.5,12-14.5
			c-0.3,0.9-0.4,2.7-4.3,3.1c2.4-2.4,3.7-7.3,1.8-11.2c-0.7,0.6-1.8,3.6-4.3,4.3c1.2-2.1,0.9-4.8,0.9-4.8s0.4-3.7-1.8-6.7
			c-0.6,4.5-0.6,6.9-3.4,7.5c0.4-2.5,0.6-3.9-0.9-6.9C715.2,394,713.4,390.9,713.1,387.9z M701,428.9v2.7h25.6v-2.7H701z"/>
	</g>
	<rect x="706.8" y="468.5" class="st3" width="11.7" height="13.4"/>
	<text transform="matrix(0.9131 0 0 1 707.7777 478.3329)" class="st8 st9">5.2</text>
	<polygon class="st3" points="665.3,433.2 762.1,434.1 760.2,448.6 663.4,447.7 	"/>
	<text transform="matrix(0.9999 1.731000e-02 -1.731000e-02 0.9999 674.3635 440.0834)" class="st5 st21">םיינגרוא םידיסקוארפ</text>
	<text transform="matrix(1 0 0 1 683.8619 452.3635)" class="st5 st7">ORGANIC PEROXIDES</text>
</g>
<g>
	<g>
		<g>
			<polygon class="st22" points="864.7,496.8 799.4,432.7 865.7,367.6 931.9,432.7 			"/>
			<polygon class="st1" points="864.9,487.3 809.1,432.6 865.7,377.1 922.3,432.6 			"/>
		</g>
		<path id="path1360" class="st18" d="M865.5,383.3l-0.8,0.9c-2.3,2.8,1,5.9-0.5,8.8c-0.6-1.4-2.1-2.9-3.6-3v0.2c0.1,0,0.1,0,0.1,0
			c1.6,2.3,0.6,5.3-0.8,7.4c-0.6-0.7-1.3-1.9-2.3-2v0.2c1.3,1.6,0.6,3.9-0.2,5.5c-0.3,0.6-0.2,1.6-0.6,2.2c-0.6-0.4-1.3-0.9-2.2-0.9
			v0.2c2,2.4,0,5.3,0.3,8c0.2,0.7,0.5,1.7,1.3,1.8c0.3,3.2,2.2,6,5,7.5h-6.7v2.7h22.5v-2.7h-6.7c2.9-1.5,4.9-4.4,5-7.8
			c0.1,0,0.2,0,0.3,0c2.6-3.3-1.8-7.2,1.1-10.4c-0.7-0.1-1.3,0.2-1.9,0.4l-0.1-0.1c0.3-1.1,0.5-2.2,0.5-3.4
			c-0.2-1.9-0.7-3.7-1.6-5.3c-0.1,0.9,0,1.8-0.5,2.5c0.2-2.5-1.1-4.8-3.2-6.2c-0.1,0.8,0.6,1.7,0.1,2.5c-0.2-0.9-0.7-1.5-1.1-2.3
			c-1.2-1.7-3.4-3.1-3.4-5.5C865.4,384.2,865.7,383.7,865.5,383.3z M866.9,394.1c0.8,1.6-0.5,3.2-0.2,4.9c0.5,1.1,1.5,2.3,1.1,3.6
			c0,0,0,0,0,0c-0.7-0.1-1.4-0.2-2.1-0.2c-0.2,0-0.4,0-0.5,0l0.1-0.7C863.2,399.1,865.5,396.4,866.9,394.1z M862.3,399.8
			c0.3,1,1,1.8,1.1,2.8c-0.6,0.1-1.1,0.3-1.7,0.5c0.3-0.8,0.2-1.8,0.1-2.7C862,400.3,861.9,399.9,862.3,399.8z M870,400
			c0.9,0.8,0.7,2.4,0.4,3.4c0,0.1,0,0.1,0,0.2c-0.5-0.3-1-0.5-1.5-0.7c0,0,0,0,0-0.1C869.2,401.8,869.8,401,870,400z M859.2,402.3
			c0.3,0.6,0.3,1.4,1,1.8c-0.5,0.3-0.9,0.7-1.3,1.1C858.9,404.1,858.6,403.2,859.2,402.3z M872.8,403c0,0,0.1,0,0.2,0.1l-0.1,2.3
			c0,0,0,0.1,0,0.1c-0.4-0.4-0.9-0.8-1.4-1.2c0,0,0.1,0,0.1-0.1c0.4-0.3,0.5-0.7,0.8-1C872.5,403.2,872.6,403,872.8,403z
			 M865.7,404.9c3.9,0,7.1,3.1,7.1,7c0,3.8-3.2,6.9-7.1,6.9c-3.9,0-7-3.1-7-6.9C858.7,408,861.8,404.9,865.7,404.9z M856.7,406.6
			c0.3,0,0.3,0.5,0.7,0.6c-0.2,0.3-0.4,0.6-0.5,1l0,0C856.7,407.6,856.6,407.1,856.7,406.6z"/>
	</g>
	<rect x="858.6" y="468.5" class="st3" width="11.7" height="13.4"/>
	<text transform="matrix(0.9131 0 0 1 859.5637 478.3329)" class="st8 st9">5.1</text>
	<polygon class="st3" points="819.4,425.5 916.2,426.4 914.3,440.9 817.4,440 	"/>
	<text transform="matrix(0.9999 1.731000e-02 -1.731000e-02 0.9999 834.8849 432.4772)" class="st5 st21">םינצמחמ םירמוח</text>
	<text transform="matrix(1 0 0 1 833.3137 444.5186)" class="st5 st7">OXIDIZING SUBSTANCES</text>
</g>
<g>
	<g>
		<polygon class="st2" points="712,651.7 646.6,587.7 712.9,522.6 779.2,587.7 		"/>
		<polygon class="st1" points="712.7,642.3 656.9,587.6 713.5,532 770.1,587.6 		"/>
		<g id="g3993" transform="matrix(0.894922,0,0,0.894922,104.882,-858.269)">
			<path id="path404" class="st3" d="M683.5,1577.7c0,0,2.2,0.6,3.1,1c0.6,0,2.4,0.7,2.8,0.8c1.7-0.1,2.7,1.1,4.2,0.6
				c0.4-0.3,0.9,0.1,1.2,0.3v0.5c-0.3,0.3-0.4,0.8-0.5,1.2c-0.2,0.2-0.1,0.6-0.1,0.8c-0.3,0.3-0.4,0.9-0.6,1.2
				c-0.2,0.3,0,0.6-0.3,0.8c-0.3,0.1-0.4,0.2-0.7,0.2c-0.4-0.2-0.2-0.9-0.8-1c-0.1-0.4-0.8-0.4-1.5-0.6c-1-0.3-5.1-1.5-5.5-1.7
				c-1-0.2-1.7-0.6-2.8-0.7c-0.4-0.4-0.9-0.4-1-0.8c-0.7-0.3-0.4-2.2,0-2.3c0-0.3,0.3-0.4,0.5-0.5c0.1,0,0.8-0.5,1.3-0.3
				C682.7,1577.5,683.2,1577.6,683.5,1577.7z"/>
			<path id="path408" class="st3" d="M677.3,1577.7c0.1,0.3,0.8,0.5,1.1,1.2v1.2c-0.2,0.4-0.9,1-1.5,1.2c-0.8,0.1-8.9,2.1-9.6,2.3
				c0,0-0.8,0.2-0.8,0.5v0.2c-0.1,0-0.2,0.3-0.2,0.3c-0.6,0-0.3,0-0.9,0c0-0.1-0.2-0.3-0.2-0.3c-0.1-0.6-0.8-3-1-3.9
				c-0.2-0.7,0.3-0.9,0.6-1.2h0.3c0.2,0.3,1.2,0.5,1.2,0.4c0.9,0.2,2.1-0.4,2.1-0.4c1.1-0.2,7.4-1.7,7.4-1.7H677.3z"/>
			<path id="path412" class="st3" d="M683.3,1578.1c0,0,2.7,0.8,3.3,1c1.1,0.2,3.2,0.9,3.4,0.9c0.5,0.2,1.7,0.5,1.7,0.5
				c1,0.1,1.5,0.6,2.5,0.7c-0.2,0.1-0.3,0.5-0.7,0.3v-0.1l-9.8-0.2c0-0.3-1.5,0-2.5-1.2c0-0.2-0.2-0.6-0.2-0.6v-0.3
				c0.3-1,0.8-1.1,0.8-1.1C681.9,1578,682.9,1578,683.3,1578.1z"/>
			<path id="path416" class="st3" d="M677.1,1578.1c0.5,0.3,0.8,0.8,0.8,0.8s0.2,1.6-1.2,1.8l-1.7,0.6h-10c0.1-0.3-0.4-0.4-0.4-0.4
				c0.1-0.4,0.7-0.2,0.8-0.6c1.1,0,2-0.1,2.9-0.4l7.4-1.8H677.1z"/>
			<path id="path420" class="st3" d="M700,1584.5c0,1.1,0.2,2.5-0.8,2.9c-0.3,0.2,0,0.9-0.3,1.1c-0.4,0-0.7,0.2-0.8,0.5v0.9
				c-0.4,0.1-0.3,0.6-0.7,0.7v0.2c-0.4-0.2-0.5,0.2-0.7,0.4c0-0.2-0.4-0.2-0.2-0.6c0.6-0.4,0.6-1.1,0.6-2c0.3-0.1,0.3-0.5,0.8-0.5
				v-0.2c0.5-0.1,0.2-0.7,0.4-0.9c0.2-0.7,1.4-0.6,0.9-1.7c-0.2-0.3,0.1-0.5,0.1-0.8C699.5,1584.4,700,1584.1,700,1584.5z"/>
			<path id="path424" class="st3" d="M695.2,1585.7c0.1,0.5,0.1,0.8,0.2,1.2h0.2c-0.3,0-0.2,0.5-0.2,0.7c-0.1,0-0.2,0.1-0.2,0.2v0.2
				c-0.2-0.1-0.3,0.2-0.2,0.3c0,0.1-0.1,0.3,0.1,0.3c0.2,0.1,0.3,0.4,0.6,0.4c0,0.1-0.1,0.3,0.1,0.4l0.1,1.3c-0.1,0-0.2,0.1-0.2,0.2
				v0.3c-0.1,0-0.3,0-0.2,0.2v0.3c-0.1,0-0.3-0.1-0.4,0.1v0.2h-0.7c0-0.1,0-0.2-0.1-0.2H694c0-0.1,0.1-0.3-0.1-0.4l-0.1-1.3
				c0.2,0,0.2-0.2,0.2-0.3v-0.3c0.5,0,0-0.7,0.4-0.8c-0.1-0.2-0.3-0.1-0.4-0.1c0-0.1,0-0.3-0.2-0.2h-0.2c-0.1-0.4,0-0.8-0.4-1v-0.6
				c0.3-0.3,0.4-0.9,0.6-1.2c0.2-0.2-0.1-0.7,0.3-0.7C694.3,1585.1,694.8,1585.4,695.2,1585.7z"/>
			<path id="path428" class="st3" d="M685.9,1585.3c0.3,0.3,0.7,0.1,0.9,0.6h0.2c0.2,0.4,0.3,0.9,0.6,1.2c0.6-0.1,0.6,0.4,1.1,0.5
				c0.3,0.2,0,0.7,0.4,0.7c0.1,0.4,0.1,0.8,0.2,1.2c0.4,0.3,1.1,0.5,1.4,1h0.2v0.5c-1,0.1-1.2-0.8-2.1-0.8c-1.5,0.1,0.4-2.7-1.7-2
				c0-0.4-0.4-0.3-0.4-0.6c-0.4-0.1-0.3-0.6-0.7-0.7c0.3-0.9-0.7-0.8-0.6-1.6H685.9z"/>
			<path id="path432" class="st3" d="M665.2,1586.3c-0.1,0.4,0.2,0.6,0.4,0.7v1.5c-0.4,0.1-0.3,0.6-0.7,0.7v0.2
				c-0.1,0-0.3-0.1-0.4,0.1v0.1c-0.4-0.1-0.5-0.5-0.9-0.6v-1.4c0.3-0.3,0.3-0.9,0.7-1.2c0-0.3-0.1-0.6,0.2-0.7
				C665,1585.6,664.9,1586.2,665.2,1586.3z"/>
			<path id="path436" class="st3" d="M690,1586.5c-0.2,0.7,0.6,0.3,0.7,0.8h0.2c0.1,0.4,0.2,0.8,0.3,1.2c0.4,0,0.2,0.6,0.6,0.6
				c-0.1,0.3,0.3,0.2,0.3,0.4h0.2v0.9c-0.1,0-0.2,0-0.2,0.1v0.2c-0.3-0.2-0.4-0.6-0.7-0.8c0.2-0.6-0.5-0.5-0.6-0.8h-0.2
				c-0.1-0.4-0.1-0.8-0.4-1c0-0.1,0.1-0.4-0.2-0.4c-0.4-0.1-0.4-0.6-0.6-0.8c0.1-0.3-0.1-0.8,0.2-1
				C689.8,1585.8,689.7,1586.4,690,1586.5z"/>
			<path id="path440" class="st3" d="M702.4,1586.4c0.3,0.4,0.1,1.3,0.2,1.9c-0.1,0-0.3-0.1-0.4,0.1v0.2c-0.7-0.3-0.2,0.6-0.6,0.7
				v0.6c-0.4,0.1-0.2,0.8-0.7,0.8v0.2c-0.4,0.1-0.8,0-1,0.4c-0.8,0.1-1.2,0.4-1.7,0.8c1.6,0.2,3.1,0.4,4,1.5h0.2
				c0,0.4,0.6,0.2,0.6,0.6c1.1,0.4,2.6,0.2,3.9,0.2c0,0.1,0,0.2,0.1,0.3v-0.1h0.2v0.1c-1.2,0.1-2.9,0.2-4-0.1
				c-0.3-0.5-1.1-0.5-1.4-1.1c-0.6-0.1-0.8-0.5-1.4-0.6c-0.1-0.4-0.7-0.2-1.1-0.2v-0.1c-0.7-0.1-1.7-0.2-2.3,0.1
				c0,0.3-0.6,0.3-0.7,0.7c-0.4,0.1-0.8,0-1,0.4h-0.9c-0.2-0.4-1-0.2-1.1-0.7c0.2-0.6-0.6-0.1-0.7-0.5c-1.4,0.1-3-0.2-4.1,0.2
				c0,0.3-0.1,0.6,0.1,0.8c0.2,0.1,0.3,0.4,0.6,0.4c0,0.4,0.4,0.2,0.6,0.4h3.3c0.3,0.3,0.9,0.3,1.2,0.7c0.8,0.2,1.3,1.1,1.9,1.6
				c0,0.4,0.6,0.2,0.6,0.6c0.6,0.1,0.7,0.7,1.5,0.5v0.3h-0.7c-0.2-0.3-0.5-0.5-0.8-0.5c-0.1-0.5-0.8-0.2-0.9-0.7
				c-0.5-0.1-0.2-0.9-0.7-0.8c0.1-0.5-0.6,0-0.6-0.4c-0.3-0.1-0.3-0.6-0.8-0.4v-0.1c-0.2-0.2-0.6,0-0.8-0.1v-0.2h-8.7v0.2
				c-0.4-0.2-0.4,0.3-0.8,0.2c-0.1,0.5,0.2,0.8,0.5,1h7.3v0.3c-3.2,0-6.5-0.1-9.7,0.1v0.2c-0.4-0.2-0.6,0.3-0.7,0.4
				c-0.2,0.2-0.1,0.6-0.1,0.8c0.7,0.2,1,0.6,1.7,0.7h7.7c0,0.1,0,0.2,0.1,0.2h0.2l-8.2,0.2v0.2c-0.2-0.1-0.3,0.2-0.2,0.3
				c0,0.1-0.1,0.3,0.1,0.3h0.2c0.2,0.3,0.5,0.5,1,0.4v0.2c0.2,0.1,0.7,0.1,0.9,0v-0.2h0.2v0.2l7.4,0.1v0.2c-2.4,0-4.9-0.1-7.4,0.1
				v0.2c-0.2-0.1-0.3,0.2-0.2,0.3c0,0.1-0.1,0.3,0.1,0.3h0.2c0.2,0.2,0.5,0.5,1,0.4v0.2l1.8,0.1v0.1l3.3,0.1v0.2
				c1.1,0.1,2.4,0.1,3.6,0v-0.2c1.3,0,2.6,0.1,3.9-0.1c0.8-0.2,1.8,0,2.7-0.2v-0.2c1.3,0.4,1.4-0.7,2.5-0.7v-0.2
				c0.7,0,1.1-0.2,1.8-0.3v-0.2h3.6c0.2,0.4-0.3,0.3-0.3,0.6c-1.8,0.1-3.8-0.2-5.3,0.3c0,0.4-0.6,0.1-0.6,0.6
				c-0.4,0.1-0.8,0.1-1.2,0.3v0.2c-2.3,0-4.3,0.2-6.5,0.2v0.2h-4.5v-0.2c-1.7-0.2-3.6,0-5.1-0.2c-0.2-0.3-0.5-0.5-0.8-0.5
				c-1,0,0.3-1.9-1.1-1.6h-0.6c0-0.1-0.1-0.2-0.2-0.2c-0.3,0-0.3-0.4-0.7-0.4c0-0.1,0.1-0.3-0.1-0.4c-0.3-0.2,0.6-1-0.3-0.8
				c0-0.3-0.2-0.3-0.3-0.4h-0.2c0-0.1,0.1-0.3-0.1-0.4H680v-0.8c0.4-0.1,0.2-0.9,0.8-0.7c0-0.2,0.5,0.1,0.4-0.3c0.5,0,1.1,0,1.5-0.2
				c-0.3-0.8,0.4-0.8,0.6-1.3c0.1,0,0.3,0.1,0.4-0.1v-0.2h4.6c0.3-0.4-0.2-0.5-0.2-0.9H688c-0.1-0.5,0-0.8,0.4-1
				c0.1-0.1,0.2-0.4,0.5-0.3h4c0,0.1,0.1,0.2,0.2,0.2h0.2c0,0.2-0.1,0.4,0.2,0.4c0.3,0,0.3,0.6,0.8,0.4c-0.1,0.2,0.2,0.3,0.3,0.3
				c0.1,0,0.3,0.1,0.3-0.1v-0.2c0.9,0.3,0.9-0.6,1.6-0.6c0.1-0.1,0.1-0.3,0.1-0.4c0.1,0,0.3,0.1,0.4-0.1v-0.2
				c1.4,0.5,1.6-0.7,2.2-1.2c0.1,0,0.2,0,0.2-0.1v-0.3c0.4-0.2,0.8-0.3,1-0.8v-0.4c0.3-0.2,0.4-0.5,0.5-0.8c0.2-0.4,0.9-0.5,0.7-1.2
				l-0.1-0.9C702,1586,702.1,1586.3,702.4,1586.4z"/>
			<path id="path444" class="st3" d="M693.8,1586.5L693.8,1586.5l0.2,0.7h-0.1L693.8,1586.5z"/>
			<path id="path448" class="st3" d="M664.6,1587.3c0.1,0.3-0.2,0.3-0.2,0.5v-0.5H664.6z"/>
			<path id="path452" class="st3" d="M672.2,1588.3c-0.1,0-0.2,0.1-0.2,0.2v0.2h-0.2c-0.1,0.8,0,1.8-0.7,2.1
				c-1.6-0.1,0.1,2.7-1.4,2.7c-0.4,0.4-0.6,0.8-0.8,1.4c-0.3,0-0.2,0.3-0.6,0.2v-0.9c0.3-0.3,0.3-0.8,0.8-0.9v-0.2
				c0.4,0,0.1-0.5,0.4-0.7c0.2-0.7-0.5-1,0-1.5c0.3-0.9,1.8-0.8,1.2-2.3c0.1,0,0.2-0.1,0.2-0.2v-0.3c0.1,0,0.2,0,0.3-0.1v-0.2
				c0.1,0,0.4,0.1,0.4-0.2C671.9,1587.9,672,1588,672.2,1588.3z"/>
			<path id="path456" class="st3" d="M660.9,1588.8l0.2,0.5H661c-0.1,0.6-0.3,1.5,0.2,1.9h0.2c0.1,0.6,0.2,1,0.2,1.7
				c0.2,0.3,0.7,0,0.7,0.5v0.7c-0.2,0-0.2,0.2-0.2,0.3c0,0.5,0.5,0.7,0.8,1v0.7c-0.1,0-0.2,0-0.3,0.1v0.2h-0.5
				c0.2-1.1-1-0.6-0.8-1.7v-0.8c0.5-0.2-0.2-0.2-0.1-0.5H661c0-0.1-0.1-0.2-0.2-0.2h-0.2c-0.1-0.6,0.2-1.4-0.3-1.7
				c0.1-0.3-0.3-0.2-0.2-0.4h-0.2c0-0.5-0.3-0.6-0.2-1.2h0.1c0.2-0.3,0.1-0.7,0.1-1c0.4,0,0.1-0.6,0.7-0.4L660.9,1588.8z"/>
			<path id="path460" class="st3" d="M658.9,1592.2c0,0.1-0.1,0.3,0.1,0.4h0.2c-0.6,1.6,0.9,1.7,1.2,2.7c0.4,0.4,0.9,0.6,1.1,1.2
				h-0.7c0-0.1-0.1-0.2-0.2-0.2h-0.2c0-0.1,0-0.3-0.2-0.3h-0.2c-0.1-0.5-0.4-0.8-0.8-1.2c-0.5,0.2-0.5-0.2-0.7-0.5
				c-0.1-0.5,0.2-1.2-0.2-1.4c0.2-0.7-0.6-0.3-0.7-0.8h-0.2v-0.5c0.4-0.1,0.3-0.6,0.6-0.7c0.1-0.4,0.2-0.8,0.5-1
				C658.6,1590.6,658.1,1592,658.9,1592.2z"/>
			<path id="path464" class="st3" d="M668.7,1590c0,0.1,0,0.2,0.1,0.2h0.2v0.7c-0.3,0.1-0.4,0.5-0.6,0.7l-0.1,1.4
				c-0.1,0-0.2,0.1-0.2,0.2v0.3H668c-0.3,0.5,0.3,1.6-0.5,1.7v0.3c-0.3,0.1-0.3-0.2-0.5-0.3c0.4-0.6-0.2-2.1,0.6-2.4v-0.2h0.2
				l0.1-1.4c0.1,0,0.2-0.1,0.2-0.2v-0.2C668.3,1590.7,668.2,1589.9,668.7,1590z"/>
			<path id="path468" class="st3" d="M694.5,1590.5l-0.1-0.5l0.1,0.2V1590.5z"/>
			<path id="path472" class="st3" d="M665.6,1591.8c0.1,0.3-0.1,0.8,0.2,0.9c-0.2,0.7-0.2,1.5-0.9,1.7c-0.5,0-0.9,0-1.1-0.4h-0.2
				c-0.2-0.4-0.1-0.9-0.2-1.4c0.1,0,0.2-0.1,0.2-0.2v-0.3c0.3-0.3,0.3-0.9,0.7-1.2l0.2-0.5C665,1590.9,665.1,1591.4,665.6,1591.8z"
				/>
			<path id="path476" class="st3" d="M664.2,1593.2h-0.2v-0.7h0.2V1593.2z"/>
			<path id="path480" class="st3" d="M661.5,1596.8c0.4,0.1,0.3,0.6,0.8,0.4c0.4,0.4,1.2,1.2,1.2,1.2c0.7,0.1,1.6,0.1,2.3,0
				c0.1-0.5,1.2-0.7,1.2-0.8c0-0.7,1,0,1.1-0.6c2.6-0.3,5.5-0.1,8.3-0.2c0.3,0.2,0.3,0.7,0.7,0.8v2.4c-0.4,0.1-0.2,0.9-0.8,0.8
				h-16.5l-8.4-0.2c-1.1-0.4-0.4-2-0.6-3.1c0.1,0,0.2-0.4,0.2-0.4c0.1,0,0.2-0.2,0.2-0.2C654.4,1596.6,658,1596.8,661.5,1596.8z"/>
			<g id="g5054" transform="translate(-290.518,745.557)">
				<path id="path4901" class="st18" d="M985,834.2c-0.3-0.1-0.5,0.1-0.6,0.3c-0.1,0.3-0.3,0.4-0.6,0.3l-0.8-0.2l-8.3-2.4l-1.2-0.3
					c-0.1,0-0.3-0.1-0.4-0.1c-0.1,0-0.2,0-0.3,0c-0.8,0.1-1.4,0.6-1.6,1.4c-0.3,1,0.3,2.1,1.3,2.4l9.5,2.7l0.7,0.2
					c0.4,0.1,0.4,0.2,0.4,0.5c-0.1,0.3,0.1,0.5,0.3,0.6c0.3,0.1,0.5-0.1,0.6-0.3l1.2-4.6C985.3,834.5,985.2,834.2,985,834.2z"/>
				<path id="path4903" class="st19" d="M972.8,832.4c-0.5,0.1-1,0.5-1.1,1c-0.2,0.8,0.2,1.5,0.9,1.7l0.5,0.1l11.1,0.8l0.1-0.5
					l-11-3.1c-0.1,0-0.3-0.1-0.3-0.1C973,832.4,972.9,832.4,972.8,832.4z"/>
			</g>
			<path id="path4922" class="st24" d="M699.1,1598.1c-4.7,0-3.7-3.5-8-3.5h-0.5 M706.9,1601.2h-3.5c-2.6,0-3.4,1.4-6.2,1.4h-12.6
				c0,0-1.6,0.2-1.6-0.9s0.9-0.9,0.9-0.9h6.3h-7.5c0,0-1.3,0-1.3-1c0-1.1,1-1,1-1h6.6H682c0,0-1.3,0-1.3-1c0-1.1,1-1,1-1l8.1,0
				l-5.4,0c0,0-1.3,0-1.3-1c0-1.1,1-1,1-1l6.9,0l-1.6,0c0,0-1.4-0.1-1.4-1.2c0-1.2,1.4-1.1,1.4-1.1h2.4l0.8,0.3l0.8,1.2l0.8-0.8
				l0.7,0.8l1-1.1c0,0.2,0.3,0.3,0.3,0.3s0.9-0.7,1.1-0.7h0.9c2.9,0,3.4,2.5,5.8,2.5h2.6"/>
			<path id="path4931" class="st18" d="M650.7,1596.8v4h26.4v-4h-9.9c-0.3,0-1.2,1.3-1.5,1.3c-0.4,0-0.4-0.3-0.6-0.3
				c-0.2,0-0.2,0.3-0.4,0.3c-0.2,0-0.5-0.6-0.8-0.6c-0.3,0-0.2,0.4-0.5,0.4c-0.3,0-0.8-1.1-1.6-1.1H650.7z"/>
			<path id="path4933" class="st18" d="M694.4,1584.7c0.4,0.4,0.9,1.7,0.9,2.5c0,0.7-0.5,1.2-1,1.2c-0.5,0-1-0.4-1-1.2
				S694.3,1586,694.4,1584.7z"/>
			<path id="path4937" class="st19" d="M694.5,1586.2c-0.1,0.1-0.1,0.2-0.2,0.3c-0.3,0.4-0.4,0.5-0.4,0.7c0,0.5,0.3,0.6,0.4,0.6
				c0.1,0,0.4-0.2,0.4-0.6C694.8,1587,694.7,1586.6,694.5,1586.2z"/>
			<path id="path4940" class="st18" d="M694.4,1588.7c0.4,0.4,0.8,1.5,0.8,2.2c0,0.7-0.5,1.2-1,1.2c-0.5,0-1-0.4-1-1.2
				C693.3,1590.2,694,1589.6,694.4,1588.7z"/>
			<path id="path4942" class="st19" d="M694.4,1589.9c-0.1,0.1-0.1,0.2-0.2,0.3c-0.3,0.4-0.4,0.5-0.4,0.6c0,0.5,0.3,0.6,0.4,0.6
				c0.1,0,0.4-0.2,0.4-0.6C694.6,1590.7,694.5,1590.3,694.4,1589.9z"/>
			<path id="path4944" class="st25" d="M685.6,1585.3c0.9,0.4,1.7,0.9,1.6,2c0,0.6,1-0.2,1.3,0.6c0.1,0.3-0.1,1,0,1.4
				c0.2,0.5,0.7,0.5,1.1,0.6c0.8,0.4,0.8,0.9,1,1.3"/>
			<path id="path4946" class="st25" d="M691.9,1590.9c0,0-0.2-0.7-0.2-1.1c0-0.3-0.7-0.6-1-0.9c-0.3-0.2,0.1-0.8-0.1-1.1
				c-0.2-0.3-0.9-0.7-1-1.2c0-0.5,0-1,0.2-1.4"/>
			<path id="path4948" class="st25" d="M695.8,1590.8c0.1-0.4,0.6-0.8,0.7-1.3c0.1-0.5-0.1-0.6,0-1c0.1-0.4,0.3,0,0.8-0.4
				c0.5-0.4,0.1-0.6,0.3-0.9c0.2-0.3,0.7-0.3,0.8-0.6c0.1-0.3-0.3-1.4-0.3-1.8c0.1-0.4,0.3-0.6,0.3-0.6"/>
			<path id="path4950" class="st25" d="M699.5,1586c0.6,0.4,0.9,1.3,0.8,1.6c-0.1,0.3-0.1,0.6-0.6,1c-0.5,0.3-0.3,0.7-0.4,1.1
				c0,0.4-0.3,0.6-0.9,0.6c-0.6,0-0.9,0.9-0.9,0.9"/>
			<path id="path4952" class="st18" d="M665.1,1586.1c-0.6,0.3-1.5,1.6-1.7,2.3c-0.2,0.8,0.2,1.4,0.7,1.6c0.5,0.1,1.2-0.2,1.4-1
				C665.7,1588.2,664.8,1587.5,665.1,1586.1z"/>
			<path id="path4954" class="st19" d="M664.5,1587.6c0,0.1,0.1,0.3,0.1,0.4c0.2,0.5,0.2,0.7,0.2,0.8c-0.1,0.5-0.5,0.5-0.6,0.5
				c-0.1,0-0.4-0.3-0.2-0.7C664,1588.4,664.3,1588,664.5,1587.6z"/>
			<path id="path4956" class="st18" d="M664.6,1590.4c-0.5,0.5-1,1.6-1,2.4c0,0.8,0.5,1.3,1,1.3c0.5,0,1.1-0.4,1.1-1.2
				C665.8,1592,665,1591.4,664.6,1590.4z"/>
			<path id="path4958" class="st19" d="M664.6,1591.8c0.1,0.1,0.1,0.3,0.2,0.4c0.3,0.4,0.4,0.6,0.4,0.7c0,0.5-0.4,0.6-0.4,0.6
				c-0.1,0-0.4-0.2-0.4-0.7C664.3,1592.6,664.4,1592.2,664.6,1591.8z"/>
			<path id="path4960" class="st25" d="M671.7,1588c0,0-0.9,0.7-1.3,1c-0.4,0.3,0.1,1-0.2,1.4c-0.3,0.4-1.1,0.4-1,0.9
				c0.1,0.5,0.5,1-0.2,1.4c-0.7,0.4-1.1,1.2-0.8,1.7c0.3,0.5,0.3,0.9,0.3,0.9"/>
			<path id="path4962" class="st25" d="M667.2,1589.7c0,0,1,0.7,0.9,1.1c0,0.5-0.8,0.5-0.8,0.9c-0.1,0.3,0.3,0.2,0.3,0.6
				c0,0.4-0.7,0.6-0.7,1c0,0.4,0.2,1,0.2,1"/>
			<path id="path4964" class="st25" d="M661.3,1587.4c0,0,0.1,1,0,1.5c-0.1,0.5-0.6,1-0.6,1.5c0,0.5,0.5,0.7,0.6,1.1
				c0.1,0.4-0.2,0.4-0.1,1c0.1,0.6,0.6,0.4,0.9,1c0.3,0.6-0.3,1,0.2,1c0.5,0,0.8,1.3,0.8,1.3"/>
			<path id="path4966" class="st25" d="M661.8,1595.8c-1.2-0.4-1.2-1-1.6-1.3c-0.4-0.3-0.6-0.1-0.8-0.5c-0.2-0.4,0.1-1-0.1-1.5
				c-0.1-0.4-0.7-0.3-0.7-0.8s0.6-0.8,0.9-1.3c0.3-0.5,0.3-1.7,0.3-1.7"/>
			<g id="g5050" transform="translate(-290.518,745.557)">
				<path id="path5046" class="st18" d="M955,834.2c0.3-0.1,0.5,0.1,0.6,0.3c0.1,0.3,0.3,0.4,0.6,0.3l0.8-0.2l8.3-2.4l1.2-0.3
					c0.1,0,0.3-0.1,0.4-0.1c0.1,0,0.2,0,0.3,0c0.8,0.1,1.4,0.6,1.6,1.4c0.3,1-0.3,2.1-1.3,2.4l-9.5,2.7l-0.7,0.2
					c-0.4,0.1-0.4,0.2-0.4,0.5c0.1,0.3-0.1,0.5-0.3,0.6c-0.3,0.1-0.5-0.1-0.6-0.3l-1.2-4.6C954.6,834.5,954.7,834.2,955,834.2z"/>
				<path id="path5048" class="st19" d="M967.1,832.4c0.5,0.1,1,0.5,1.1,1c0.2,0.8-0.2,1.5-0.9,1.7l-0.5,0.1l-11.1,0.8l-0.1-0.5
					l11-3.1c0.1,0,0.3-0.1,0.3-0.1C967,832.4,967,832.4,967.1,832.4z"/>
			</g>
		</g>
	</g>
	<rect x="708.9" y="620.6" class="st3" width="6.6" height="13.4"/>
	<text transform="matrix(0.9131 0 0 1 711.1797 630.4515)" class="st8 st9">8</text>
	<polygon class="st3" points="662.7,579.4 759.6,581 757.7,606.1 660.8,604.6 	"/>
	<text transform="matrix(0.9999 1.731000e-02 -1.731000e-02 0.9999 681.0193 587.1104)" class="st5 st21">םילכאמ םירמוח</text>
	<text transform="matrix(1 0 0 1 681.3212 600.1174)" class="st5 st7">CORROSIVE SUBSTANCES</text>
</g>
<g>
	<g>
		<g>
			<g>
				<polygon class="st2" points="560.9,330.4 495.6,266.4 561.8,201.3 628.1,266.4 				"/>
				<polygon class="st1" points="561,321 505.2,266.3 561.8,210.7 618.4,266.3 				"/>
			</g>
		</g>
		<polygon class="st2" points="561,330.1 495.7,266 561.6,201.3 627.9,266.4 		"/>
		<polygon class="st11" points="628.8,266.3 494.7,266.4 561.6,331.9 		"/>
		<polygon class="st1" points="560.9,321 505,266.3 561.6,210.7 618.2,266.3 		"/>
		<path class="st13" d="M561.7,222c-2.7,5.1,0.4,7.9-3,15.3c-1.9-1.5-0.9-7-4.5-7.2c0.4,1.8,0.1,2.4,0,3c-0.4,2.5-1.2,4.6,0.4,7.8
			c-2.5-1.2-2.7-3.4-4.8-4.9c0.4,2.4-0.6,7.3,2.2,12.1c-2.5-0.3-3.4-1.2-6.1-3.9c2.8,15,5.1,15.4,15.7,16.3c-0.9-0.1-6.3-1-8.2-7.2
			c0-1.5-0.1,1.3,5.1,1.5c-3.3-5.2-2.4-4.2-2.1-7.2c1.5,1.9,0.3,2.2,4,3.7c-1.2-3.9,1.9-6.4,1.2-10.9c0.9,1.9,3.9,1.6,3.7,10.9
			c2.5-2.8,2.7-0.9,3.9-3.9c0.1,1.6,0.9,3.7-2.5,7.3c0.9,0.3,2.4,0.4,4.6-1.2c-2.2,2.7-0.1,2.7-6,6.9c7.3,0.1,12.1-4.5,12-14.5
			c-0.3,0.9-0.4,2.7-4.3,3.1c2.4-2.4,3.7-7.3,1.8-11.2c-0.7,0.6-1.8,3.6-4.3,4.3c1.2-2.1,0.9-4.8,0.9-4.8s0.4-3.7-1.8-6.7
			c-0.6,4.5-0.6,6.9-3.4,7.5c0.4-2.5,0.6-3.9-0.9-6.9C563.8,228.1,562,225,561.7,222z M549.6,263v2.7h25.6V263H549.6z"/>
	</g>
	<rect x="556.7" y="303.8" class="st3" width="6.6" height="13.4"/>
	<text transform="matrix(0.9131 0 0 1 559.0154 313.6216)" class="st8 st9">4</text>
	<polygon class="st3" points="514.2,268.7 611,269.6 609.1,284.2 512.3,283.3 	"/>
	<text transform="matrix(0.9999 1.731000e-02 -1.731000e-02 0.9999 520.1495 275.5645)" class="st5 st21">תימצע תוחקלתהל ןותנ</text>
	<rect x="533.2" y="281.4" class="st3" width="53" height="21.6"/>
	<text transform="matrix(1 0 0 1 537.2866 286.4462)"><tspan x="0" y="0" class="st5 st7">SPONTANEOUSLY</tspan><tspan x="4.4" y="7.2" class="st5 st7">COMBUSTIBLE</tspan></text>
</g>
<g>
	<g>
		<g>
			<polygon class="st2" points="408.4,496.8 343.1,432.7 409.4,367.6 475.6,432.7 			"/>
			<polygon class="st1" points="408.6,487.3 352.8,432.6 409.4,377.1 466,432.6 			"/>
		</g>
		<g>
			<path d="M408.2,409.9c-0.2,0.1-0.4,0.2-0.6,0.3c-0.3,0.2-0.4,0.1-0.6-0.2c-1-1.3-2.3-2.2-4-2.7c-4.4-1.3-9.1,1.6-9.7,6.1
				c-0.2,1.2-0.1,2.4,0.3,3.5c0,0.1,0,0.3,0,0.4c-0.1,0-0.2,0-0.2,0c-0.2-0.7-0.5-1.5-0.6-2.2c-0.9-5.2,1.7-10,6.7-12
				c0.4-0.2,0.3-0.4,0.3-0.7c-0.4-3.1,0.4-5.9,2.3-8.3c1.7-2.1,3.8-3.3,6.4-3.8c0.2,0,0.4,0,0.6-0.1c0.2,0.4-0.1,0.4-0.3,0.4
				c-1.5,0.3-2.8,1.1-3.9,2.2c-2.1,2.3-2.7,4.9-1.7,7.8c1,2.9,3.1,4.5,6.1,5.1c0.2,0,0.4,0,0.7,0c0,0.3,0,0.6,0,0.9
				c0,0.1-0.1,0.2-0.2,0.2C408.3,407.8,407.9,408.5,408.2,409.9z"/>
			<path d="M394.6,419.8c0.2-0.3,0.4-0.1,0.5,0c1.3,1.4,2.9,2.2,4.8,2.5c3.5,0.5,7-1.7,8.2-5c0.7-1.9,0.6-3.8-0.2-5.6
				c0-0.1-0.1-0.2-0.1-0.3c0,0,0,0,0-0.1c0.2-0.1,0.5-0.3,0.8-0.4c0.1,0,0.3,0,0.4,0.1c0.9,0.6,1.7,0.6,2.6,0c0.1-0.1,0.3-0.1,0.4,0
				c0.3,0.1,0.5,0.3,0.7,0.4c-0.2,0.8-0.4,1.6-0.6,2.3c-0.6,3.7,1.8,7.5,5.4,8.4c3,0.8,5.6,0,7.8-2.3c0.1-0.1,0.3-0.1,0.4-0.2
				c0,0,0.1,0.1,0.1,0.1c-0.1,0.1-0.1,0.2-0.2,0.4c-2.4,2.9-5.5,4.2-9.3,3.9c-2.1-0.1-4-0.9-5.7-2.3c-0.3-0.2-0.4-0.2-0.7,0
				c-4.6,3.7-11.3,3-15-1.6C394.8,420,394.7,419.9,394.6,419.8z"/>
			<path d="M427.2,417.5c-0.4-0.1-0.2-0.3-0.2-0.5c0.7-2.5,0.3-4.8-1.2-6.9c-3-4-9-4-12.1-0.1c-0.1,0.2-0.3,0.4-0.4,0.6
				c-0.3-0.2-0.7-0.3-1-0.5c0.2-0.7,0.2-1.3-0.2-1.9c-0.2-0.3-0.5-0.7-0.9-0.8c-0.4-0.2-0.5-0.4-0.5-0.8c0-0.1,0-0.2,0-0.4
				c0.5-0.1,1.1-0.2,1.6-0.3c2.9-0.8,5.1-3.4,5.5-6.4c0.5-3.9-2.2-7.6-6-8.4c-0.1,0-0.1,0-0.2-0.1c-0.1-0.1-0.1-0.2-0.2-0.2
				c0.1,0,0.2-0.1,0.3-0.1c1.1,0.1,2.1,0.4,3.1,0.9c3.5,1.8,5.5,4.6,6,8.5c0.1,0.9,0,1.8-0.1,2.7c0,0.3,0.1,0.4,0.3,0.5
				c3.3,1.4,5.5,3.8,6.5,7.3c0.6,2.1,0.5,4.3-0.2,6.4C427.4,417.1,427.3,417.3,427.2,417.5z"/>
			<path d="M416.3,401.6c-0.4,0.5-0.8,1.1-1.2,1.6c-0.2,0.2-0.3,0.2-0.5,0.1c-2.9-1.9-5.9-1.9-8.8,0c-0.1,0.1-0.4,0.1-0.4,0
				c-0.5-0.5-0.9-1.1-1.3-1.7C407.4,398.8,412.8,398.6,416.3,401.6z"/>
			<path d="M417.6,409.3c0-0.1,0-0.3,0-0.4c0-0.7,0-0.7,0.7-0.8c0.4-0.1,0.9-0.1,1.3-0.1c0.1,0,0.3,0.2,0.3,0.3
				c0.3,2.7-0.5,5.1-2.2,7.3c-1,1.2-2.2,2.1-3.5,2.7c-0.3,0.2-0.5,0.1-0.6-0.2c-0.2-0.5-0.4-0.9-0.6-1.4c-0.1-0.3,0-0.5,0.3-0.6
				c2.2-1,3.6-2.7,4.1-5C417.6,410.4,417.6,409.9,417.6,409.3C417.7,409.3,417.6,409.3,417.6,409.3z"/>
			<path d="M402.8,409.2c0.1,3.1,1.5,5.4,4.4,6.8c0.3,0.1,0.4,0.3,0.3,0.6c-0.2,0.5-0.4,0.9-0.6,1.4c-0.1,0.3-0.3,0.4-0.6,0.2
				c-2.2-1.1-3.9-2.7-4.9-4.9c-0.7-1.5-1-3.2-0.9-4.8c0-0.4,0.1-0.6,0.6-0.5c0.2,0,0.5,0,0.8,0.1
				C402.8,408.2,402.8,408.2,402.8,409.2z"/>
		</g>
	</g>
	<rect x="404.7" y="468.5" class="st3" width="6.6" height="13.4"/>
	<text transform="matrix(0.9131 0 0 1 407.0439 478.3329)" class="st8 st9">6</text>
	<polygon class="st3" points="361.9,425.6 458.7,426.8 456.8,446 360,444.8 	"/>
	<text transform="matrix(0.9999 1.731000e-02 -1.731000e-02 0.9999 395.0771 433.1824)"><tspan x="0" y="0" class="st5 st21">!תוריהז</tspan><tspan x="-15.9" y="10.8" class="st5 st21">םיקבדמ םירמוח</tspan></text>
	<rect x="371.7" y="448.6" class="st3" width="74.6" height="21.6"/>
	<text transform="matrix(1 0 0 1 400.0202 452.8204)"><tspan x="0" y="0" class="st5 st26">DANGER</tspan><tspan x="-17.8" y="6" class="st5 st26">INFECTIOUS SUBSTANCES</tspan></text>
</g>
<rect x="525.1" y="599.9" class="st3" width="70.9" height="18.9"/>
<text transform="matrix(1 0 0 1 539.0859 604.9399)"><tspan x="0" y="0" class="st5 st7">MISCELLANEOUS</tspan><tspan x="-10.6" y="7.2" class="st5 st7">DANGROUS SUBSTANCES</tspan></text>
</svg>
