<?xml version="1.0" encoding="utf-8"?>
<!-- Generator: Adobe Illustrator 28.3.0, SVG Export Plug-In . SVG Version: 6.00 Build 0)  -->
<svg version="1.1" id="Layer_1" xmlns="http://www.w3.org/2000/svg" xmlns:xlink="http://www.w3.org/1999/xlink" x="0px" y="0px"
	 viewBox="0 0 746 740" style="enable-background:new 0 0 746 740;" xml:space="preserve">
<style type="text/css">
	.st0{fill:#FFFFFF;stroke:#323031;stroke-miterlimit:10;stroke-dasharray:6;}
	.st1{fill:none;stroke:#3B3A3C;stroke-miterlimit:10;}
	.st2{fill:none;}
	.st3{fill:#221F1F;}
	.st4{fill:#FFFFFF;}
	.st5{fill:#FFFFFF;stroke:#221F1F;stroke-width:0.4922;stroke-linecap:round;stroke-linejoin:bevel;stroke-miterlimit:3.5797;}
	.st6{fill:none;stroke:#221F1F;stroke-width:0.5817;stroke-miterlimit:3.5797;}
	.st7{fill:#231F20;}
	.st8{font-family:'AdobeArabic-Regular';}
	.st9{font-size:58.2414px;}
	.st10{font-family:'MyriadHebrew-Regular';}
	.st11{font-size:39.0282px;}
	.st12{font-size:26.0188px;}
</style>
<g>
	<g>
		<polygon class="st0" points="368.98,650 85.6,372.26 373,90 660.4,372.26 		"/>
		<polygon class="st1" points="372.02,609.13 130,371.93 375.45,130.87 620.91,371.93 		"/>
		<g id="g3993" transform="matrix(0.894922,0,0,0.894922,104.882,-858.269)">
			<path id="path404" class="st2" d="M317.33,1209.97c0,0,9.42,2.54,13.31,4.26c2.54,0.07,10.46,2.98,12.17,3.58
				c7.18-0.23,11.89,4.93,18.31,2.54c1.87-1.12,3.89,0.38,5.01,1.43v2.16c-1.27,1.27-1.94,3.35-2.17,5.37
				c-0.67,0.98-0.22,2.39-0.37,3.59c-1.35,1.27-1.66,3.89-2.48,5.37c-0.67,1.2-0.14,2.62-1.11,3.59c-1.27,0.29-1.65,0.98-3.21,0.67
				c-1.72-0.89-0.91-4.1-3.58-4.26c-0.48-1.68-3.42-1.84-6.43-2.54c-4.19-1.19-22.2-6.58-24.07-7.18
				c-4.33-0.96-7.54-2.46-12.18-2.83c-1.61-1.77-3.75-1.77-4.4-3.4c-3.08-1.31-1.8-9.7,0-9.86c0.06-1.11,1.36-1.66,1.96-1.96
				c0.44-0.22,3.26-2.12,5.65-1.29C313.75,1209.22,316.14,1209.82,317.33,1209.97z"/>
			<path id="path408" class="st2" d="M290.43,1209.97c0.46,1.19,3.55,2.02,4.72,5.38v4.99c-0.83,1.65-3.95,4.28-6.5,5.39
				c-3.35,0.54-38.64,9.23-41.62,10.01c0,0-3.3,0.75-3.59,2.16v1.06c-0.37,0.07-1.05,1.13-1.05,1.13c-2.54,0.21-1.42,0.21-3.95,0
				c0-0.46-1.04-1.13-1.04-1.13c-0.23-2.47-3.46-13.2-4.35-16.82c-0.75-2.98,1.13-3.88,2.55-4.99h1.42
				c1.05,1.49,5.01,2.16,5.01,1.78c3.73,0.67,8.96-1.78,8.96-1.78c4.77-0.9,31.91-7.18,31.91-7.18H290.43z"/>
			<path id="path412" class="st2" d="M316.29,1211.76c0,0,11.88,3.66,14.35,4.26c4.71,0.98,14.05,4.1,14.71,3.95
				c2.32,0.83,7.48,2.17,7.48,2.17c4.25,0.23,6.51,2.77,10.77,2.85c-0.68,0.6-1.43,2.01-3.21,1.41v-0.3l-42.67-0.75
				c0.07-1.12-6.33,0.08-10.77-5.01c-0.14-0.81-1.04-2.54-1.04-2.54v-1.41c1.21-4.25,3.58-4.64,3.58-4.64
				C310.39,1211.47,314.94,1211.47,316.29,1211.76z"/>
			<path id="path416" class="st2" d="M289.77,1211.76c2.25,1.38,3.58,3.59,3.58,3.59s0.81,6.8-5.37,7.84l-7.16,2.54h-43.42
				c0.52-1.26-1.8-1.79-1.8-1.79c0.46-1.8,3.14-0.68,3.59-2.54c4.7-0.09,8.65-0.46,12.55-1.81l31.91-7.84H289.77z"/>
			<path id="path420" class="st2" d="M389.08,1239.71c-0.08,4.93,0.82,10.99-3.59,12.55c-1.42,0.83,0.07,3.83-1.42,4.64
				c-1.87-0.14-2.92,0.9-3.59,2.16v3.97c-1.64,0.38-1.11,2.54-2.84,2.83v0.76c-1.79-0.67-2.31,1.04-2.92,1.78
				c0.08-1.04-1.71-0.96-1.04-2.54c2.47-1.56,2.76-4.93,2.47-8.59c1.41-0.52,1.49-2.31,3.58-2.17v-0.68
				c2.02-0.3,0.67-2.92,1.79-3.96c0.82-2.92,5.91-2.62,3.96-7.17c-1.05-1.27,0.44-2.02,0.38-3.58
				C386.54,1238.96,388.85,1237.69,389.08,1239.71z"/>
			<path id="path424" class="st2" d="M367.93,1244.71c0.6,1.95,0.6,3.37,1.05,5.38h0.75c-1.5,0-0.98,2.1-1.05,3.22
				c-0.45-0.08-0.9,0.36-0.75,0.76v1.04c-0.97-0.37-1.2,0.81-1.04,1.5c0.08,0.44-0.3,1.11,0.3,1.41c0.9,0.3,1.2,1.72,2.55,1.79
				c0.15,0.6-0.3,1.42,0.37,1.79l0.38,5.76c-0.44-0.15-0.9,0.29-0.75,0.67v1.12c-0.52-0.14-1.2,0.08-1.05,0.69v1.11
				c-0.6,0.08-1.42-0.3-1.79,0.31v0.75h-2.92c0-0.38,0.08-0.83-0.37-1.05h-0.68c-0.14-0.59,0.3-1.41-0.37-1.79l-0.38-5.74
				c0.9,0.06,0.75-0.92,0.75-1.43v-1.13c2.16,0.17,0.07-3.14,1.79-3.57c-0.37-0.67-1.2-0.23-1.79-0.38
				c0.07-0.46-0.14-1.12-0.75-1.04h-1.05c-0.52-1.78-0.22-3.59-1.78-4.35v-2.45c1.34-1.27,1.64-3.89,2.46-5.39
				c0.89-0.89-0.3-2.91,1.12-3.2C364.19,1242.02,366.28,1243.29,367.93,1244.71z"/>
			<path id="path428" class="st2" d="M327.73,1242.92c1.34,1.2,3.21,0.52,3.95,2.54h0.75c0.82,1.65,1.12,3.89,2.46,5.01
				c2.62-0.23,2.69,1.73,4.72,2.16c1.12,0.68-0.15,2.91,1.79,2.85c0.52,1.93,0.6,3.35,1.04,5.36c1.95,1.21,4.78,2.19,6.12,4.35h0.67
				v2.17c-4.41,0.52-5.37-3.58-9.26-3.58c-6.64,0.44,1.57-11.58-7.18-8.67c0-1.58-1.72-1.2-1.79-2.47
				c-1.79-0.29-1.27-2.54-2.92-2.91c1.2-4.04-3.14-3.29-2.46-6.8H327.73z"/>
			<path id="path432" class="st2" d="M238.06,1247.26c-0.31,1.79,0.66,2.69,1.79,3.2v6.43c-1.57,0.38-1.13,2.62-2.84,2.91v0.67
				c-0.59,0.16-1.42-0.29-1.79,0.37v0.38c-1.86-0.29-2.09-2.23-3.95-2.54v-6.05c1.5-1.13,1.41-3.89,2.92-4.99
				c0.07-1.13-0.3-2.39,0.67-2.93C237.01,1244.18,236.48,1246.95,238.06,1247.26z"/>
			<path id="path436" class="st2" d="M345.66,1248.31c-0.82,3.2,2.76,1.12,2.91,3.58h0.67c0.61,1.95,0.68,3.37,1.13,5.38
				c1.79,0.14,0.67,2.39,2.46,2.54c-0.44,1.27,1.19,0.67,1.13,1.79h0.67v3.96c-0.37,0-0.82-0.14-1.04,0.29v0.76
				c-1.42-0.82-1.95-2.54-3.21-3.58c0.67-2.56-2.17-1.95-2.54-3.6h-1.04c-0.52-1.78-0.23-3.58-1.79-4.32
				c-0.15-0.6,0.37-1.87-0.75-1.79c-1.57-0.22-1.57-2.39-2.47-3.59c0.23-1.41-0.59-3.58,0.67-4.26
				C344.61,1245.02,344.09,1247.93,345.66,1248.31z"/>
			<path id="path440" class="st2" d="M399.17,1247.64c1.27,1.93,0.45,5.45,0.67,8.21c-0.59,0.15-1.41-0.31-1.79,0.38v0.66
				c-2.92-1.12-0.9,2.54-2.47,2.91v2.47c-1.87,0.52-0.67,3.29-2.91,3.58v0.76c-1.8,0.52-3.58,0.14-4.26,1.78
				c-3.29,0.23-5.3,1.87-7.18,3.59c6.81,1.04,13.53,1.65,17.2,6.43h0.75c0.08,1.87,2.39,0.75,2.47,2.54
				c4.63,1.93,11.28,0.75,16.89,1.04c0,0.46-0.07,0.89,0.37,1.13v-0.38h0.67v0.38c-5.3,0.37-12.48,0.83-17.56-0.38
				c-1.5-2.01-4.71-2.31-6.12-4.63c-2.55-0.29-3.52-2.23-6.05-2.54c-0.3-1.93-3.14-0.75-4.72-1.04v-0.38
				c-3.06-0.46-7.39-0.83-10.01,0.38c-0.07,1.5-2.46,1.35-2.83,2.83c-1.79,0.52-3.67,0.16-4.34,1.81h-3.96
				c-0.97-1.65-4.19-1.06-4.63-3.22c0.75-2.68-2.54-0.6-2.91-2.16c-5.99,0.37-12.93-0.89-17.94,1.04c0.15,1.2-0.3,2.62,0.38,3.59
				c0.82,0.29,1.12,1.79,2.54,1.79c-0.08,1.78,1.58,1.04,2.47,1.78h14.34c1.2,1.5,3.89,1.41,5.09,2.91c3.51,1.06,5.75,4.64,8.21,6.8
				c0.08,1.87,2.39,0.67,2.55,2.54c2.47,0.52,3.06,2.84,6.42,2.1v1.49h-3.21c-0.67-1.27-2.17-2.01-3.58-2.16
				c-0.6-2.02-3.52-0.83-3.96-3.22c-2.09-0.29-0.67-3.81-3.21-3.58c0.45-2.25-2.47-0.17-2.55-1.81c-1.49-0.3-1.19-2.75-3.58-1.79
				v-0.38c-0.98-0.67-2.39-0.21-3.59-0.37v-0.75h-37.67v0.75c-1.93-0.75-1.86,1.27-3.58,1.05c-0.52,2.31,0.67,3.5,2.17,4.33h31.53
				v1.41c-13.97,0.15-28.17-0.29-41.92,0.38v0.75c-1.95-0.75-2.4,1.41-3.21,1.79c-0.67,0.98-0.3,2.39-0.37,3.59
				c2.83,0.9,4.47,2.4,7.54,2.84h33.32c0,0.37-0.07,0.83,0.38,1.05h0.67l-35.48,0.73v0.75c-0.98-0.44-1.21,0.75-1.06,1.43
				c0.08,0.44-0.3,1.18,0.37,1.41h0.69c0.88,1.1,2.08,2.23,4.32,1.77v0.77c1.04,0.51,2.83,0.51,3.96,0v-0.77h0.67v0.77l31.91,0.31
				v1.08c-10.61,0.1-21.44-0.26-31.91,0.41v0.67c-0.97-0.36-1.19,0.77-1.04,1.44c0.07,0.51-0.3,1.18,0.37,1.49h0.67
				c0.9,1.08,2.1,2.21,4.34,1.75v0.67l7.85,0.41v0.36l14.34,0.36v0.72c4.93,0.51,10.54,0.51,15.46,0v-0.72
				c5.61-0.15,11.44,0.31,16.82-0.36c3.29-0.82,7.93,0.1,11.51-0.77v-0.67c5.68,1.75,6.12-2.98,10.75-2.88v-0.67
				c3.07,0,4.86-0.93,7.93-1.13v-0.67h15.77c0.67,1.54-1.2,1.49-1.13,2.47c-7.62,0.36-16.29-0.93-22.94,1.13
				c-0.07,1.75-2.39,0.57-2.47,2.42c-1.94,0.62-3.44,0.62-5.37,1.13v0.72c-9.94,0-18.53,0.87-28.39,1.08v0.67h-19.36v-0.67
				c-7.25-0.82-15.4,0.15-22.19-1.08c-0.68-1.29-2.18-1.95-3.59-2.21c-4.26-0.15,1.2-8.23-4.71-6.79h-2.46
				c0.07-0.36-0.37-0.82-0.75-0.67c-1.49,0.21-1.34-1.8-2.83-1.8c-0.15-0.59,0.29-1.41-0.38-1.78c-1.42-0.83,2.46-4.35-1.42-3.6
				c0.08-1.18-0.75-1.33-1.5-1.79h-1.05c-0.15-0.6,0.3-1.41-0.37-1.79h-0.68v-3.28c1.72-0.52,0.75-3.74,3.59-3.22
				c0.15-0.75,2.24,0.23,1.79-1.41c2.3,0.08,4.85,0,6.43-1.04c-1.2-3.67,1.94-3.29,2.53-5.76c0.61-0.15,1.43,0.29,1.8-0.38V1282
				h20.02c1.42-1.78-0.97-2.08-0.67-3.89h-0.75c-0.23-2.31,0.22-3.29,1.79-4.32c0.37-0.52,0.82-1.87,2.17-1.41h17.18
				c-0.07,0.37,0.38,0.81,0.75,0.66h1.05c0.15,0.67-0.37,1.87,0.75,1.79c1.41-0.06,1.41,2.62,3.59,1.79
				c-0.46,1.06,0.74,1.21,1.42,1.12c0.51-0.14,1.19,0.31,1.41-0.37v-0.75c4.03,1.5,3.96-2.54,6.88-2.46c0.6-0.37,0.23-1.2,0.3-1.78
				c0.6-0.17,1.42,0.29,1.8-0.38v-0.75c6.05,2.02,7.02-3,9.71-5.39c0.37,0,0.82,0.15,1.04-0.29v-1.12c1.87-0.67,3.66-1.41,4.34-3.6
				v-1.78c1.27-0.67,1.94-2.16,2.17-3.58c1.04-1.87,3.81-2.17,2.84-5.01l-0.38-3.95C397.6,1246.14,398.12,1247.18,399.17,1247.64z"
				/>
			<path id="path444" class="st2" d="M362.17,1248.31h0.38l0.37,3.2h-0.37L362.17,1248.31z"/>
			<path id="path448" class="st2" d="M235.22,1251.89c0.46,1.35-0.67,1.5-1.04,2.18v-2.18H235.22z"/>
			<path id="path452" class="st2" d="M268.24,1255.85c-0.44-0.14-0.9,0.3-0.75,0.75v1.04h-0.74c-0.52,3.52,0,7.84-3.21,8.97
				c-6.89-0.3,0.22,11.58-6.05,11.81c-1.64,1.87-2.69,3.58-3.29,6.12c-1.36-0.21-1.05,1.27-2.47,0.75v-3.95
				c1.42-1.12,1.42-3.29,3.58-3.97v-0.75c1.94,0.16,0.6-2.16,1.79-2.83c1.05-2.92-2.16-4.33,0-6.43c1.28-3.89,7.85-3.37,5.38-10.09
				c0.38,0.14,0.83-0.29,0.68-0.67v-1.12c0.44,0,0.89,0.06,1.12-0.38v-0.68c0.6-0.15,1.87,0.37,1.79-0.76
				C266.97,1254.5,267.43,1254.96,268.24,1255.85z"/>
			<path id="path456" class="st2" d="M219.44,1258.39l0.68,2.08h-0.3c-0.29,2.56-1.18,6.51,0.68,8.3h0.75
				c0.22,2.76,0.74,4.41,1.05,7.17c0.75,1.35,3.13,0.14,3.2,2.17v2.85c-0.81-0.09-0.67,0.89-0.67,1.41
				c0.15,2.17,2.24,3.22,3.58,4.33v2.85c-0.44,0-0.9-0.08-1.11,0.37v0.75h-2.1c0.9-4.56-4.55-2.68-3.6-7.17v-3.28
				c2.03-0.67-0.81-0.9-0.36-2.1h-1.43c0.08-0.44-0.38-0.89-0.75-0.75h-1.04c-0.37-2.39,0.89-6.06-1.13-7.16
				c0.52-1.29-1.12-0.68-1.04-1.81h-0.75c0-2.08-1.13-2.76-0.67-4.99h0.3c0.67-1.2,0.29-2.93,0.37-4.35
				c1.87-0.07,0.59-2.77,3.21-1.79L219.44,1258.39z"/>
			<path id="path460" class="st2" d="M210.49,1273.03c0.08,0.61-0.3,1.42,0.37,1.79h0.67c-2.39,6.8,4.11,7.41,5.01,11.5
				c1.72,1.67,4.12,2.62,4.71,5.01h-3.21c0.07-0.37-0.37-0.81-0.75-0.67h-1.04c0.06-0.52-0.15-1.2-0.76-1.12h-1.04
				c-0.59-2.17-1.65-3.58-3.29-5.01c-2.18,0.75-2.32-1.04-2.84-2.17c-0.37-2.02,0.89-5.39-1.05-6.05c0.81-3.2-2.76-1.12-2.92-3.58
				h-0.67v-2.18c1.57-0.36,1.2-2.46,2.47-2.91c0.22-1.94,0.89-3.35,2.16-4.25C209.59,1266.08,207.04,1271.92,210.49,1273.03z"/>
			<path id="path464" class="st2" d="M253.16,1263.41c0,0.37-0.08,0.81,0.37,1.04h0.68v2.92c-1.36,0.37-1.65,2.17-2.47,2.84
				l-0.38,6.12c-0.37-0.14-0.82,0.29-0.75,0.66v1.13h-0.66c-1.28,2.24,1.26,7.03-2.16,7.48v1.49c-1.36,0.37-1.5-0.67-2.18-1.11
				c1.95-2.71-0.97-8.99,2.55-10.4v-0.75h0.67l0.37-6.05c0.45,0.14,0.9-0.29,0.76-0.75v-1.04
				C251.51,1266.32,250.98,1263.17,253.16,1263.41z"/>
			<path id="path468" class="st2" d="M365.08,1265.57l-0.37-2.16l0.37,1.04V1265.57z"/>
			<path id="path472" class="st2" d="M239.85,1271.25c0.29,1.33-0.61,3.43,0.75,3.95c-0.75,3.07-1.05,6.36-3.96,7.54
				c-2.18,0.08-3.82,0.15-4.63-1.78h-0.75c-0.97-1.58-0.6-3.89-0.68-6.13c0.38,0.15,0.83-0.29,0.68-0.67v-1.13
				c1.5-1.12,1.41-3.89,2.92-5l0.67-2.17C236.94,1267.5,237.75,1269.66,239.85,1271.25z"/>
			<path id="path476" class="st2" d="M233.8,1277.37h-0.75v-3.21h0.75V1277.37z"/>
			<path id="path480" class="st2" d="M221.92,1292.75c1.57,0.31,1.2,2.77,3.58,1.81c1.72,1.71,5.39,5.08,5.39,5.08
				c3.13,0.52,6.95,0.52,10.08,0c0.22-2.1,5-2.99,5.39-3.58c-0.15-2.85,4.32-0.16,4.62-2.55c11.21-1.34,23.92-0.45,35.87-0.76
				c1.49,0.69,1.41,3,2.91,3.6v10.45c-1.79,0.62-0.83,3.96-3.59,3.6h-71.73l-36.62-0.77c-4.64-1.54-1.64-8.81-2.54-13.28
				c0.44,0.14,0.75-1.79,0.75-1.79c0.37,0,1.04-1.05,1.04-1.05C191.28,1292.17,206.97,1293.06,221.92,1292.75z"/>
			<g id="g5054" transform="translate(-290.518,745.557)">
				<path id="path4901" class="st3" d="M655.3,473.3c-1.15-0.31-2.37,0.32-2.59,1.49c-0.46,1.27-1.33,1.73-2.7,1.36l-3.36-0.9
					L610.86,465l-5.26-1.41c-0.56-0.15-1.37-0.32-1.93-0.35c-0.49-0.03-0.96,0.03-1.44,0.08c-3.32,0.38-6.06,2.8-6.98,6.26
					c-1.2,4.51,1.32,9.11,5.83,10.31l41.38,11.59l3.21,0.86c1.55,0.44,1.87,0.95,1.72,2.28c-0.3,1.15,0.26,2.25,1.5,2.59
					c1.24,0.34,2.28-0.35,2.59-1.5l5.33-19.83C657,474.7,656.45,473.6,655.3,473.3z"/>
				<path id="path4903" class="st4" d="M602.58,465.69c-2.31,0.26-4.29,1.96-4.98,4.53c-0.88,3.32,0.82,6.54,4.08,7.4l2.26,0.61
					l48.33,3.37l0.61-2.11L605,465.99c-0.43-0.11-1.31-0.29-1.51-0.3C603.28,465.68,603.08,465.63,602.58,465.69z"/>
			</g>
			<path id="path4922" class="st5" d="M384.96,1298.64c-20.51,0-16.06-15.19-34.8-15.19h-2.25 M418.95,1312h-15.2
				c-11.39,0-14.68,6.07-26.73,6.07h-54.81c0,0-6.75,0.72-6.75-3.7c0-4.42,4.11-3.7,4.11-3.7h27.29h-32.48c0,0-5.59,0.05-5.59-4.53
				c0-4.57,4.46-4.54,4.46-4.54h28.57h-30.97c0,0-5.6-0.13-5.6-4.54c0-4.57,4.47-4.53,4.47-4.53l35-0.01l-23.21-0.01
				c0,0-5.59,0.04-5.59-4.54c0-4.56,4.47-4.53,4.47-4.53l29.77-0.02l-6.76-0.01c0,0-5.99-0.34-5.99-5.38c0-5.18,5.93-4.58,5.93-4.58
				h10.54l3.53,1.38l3.4,5.04l3.59-3.64l3.18,3.51l4.26-4.78c0,0.91,1.42,1.33,1.42,1.33s3.72-2.84,4.64-2.84h3.7
				c12.45,0,14.63,10.74,25.35,10.74h11.49"/>
			<path id="path4931" class="st3" d="M175.15,1292.88v17.53h114.39v-17.53H246.5c-1.14,0-5.09,5.5-6.71,5.5
				c-1.61,0-1.66-1.25-2.61-1.25c-0.94,0-0.78,1.26-1.87,1.23c-1.08-0.03-2.08-2.51-3.44-2.51c-1.37,0-0.79,1.64-2.04,1.64
				c-1.25,0-3.35-4.6-6.88-4.6H175.15z"/>
			<path id="path4933" class="st3" d="M364.73,1240.44c1.92,1.92,4.09,7.55,4.09,10.71c0,3.17-2.33,5.25-4.35,5.25
				c-2.02,0-4.35-1.93-4.35-5.25S364.12,1246.2,364.73,1240.44z"/>
			<path id="path4937" class="st4" d="M365.2,1246.86c-0.29,0.48-0.6,1.06-0.87,1.45c-1.14,1.63-1.59,2.29-1.59,2.89
				c0,2.09,1.35,2.61,1.74,2.61c0.26,0,1.74-0.71,1.74-2.61C366.21,1250.32,365.76,1248.51,365.2,1246.86z"/>
			<path id="path4940" class="st3" d="M364.55,1257.87c1.86,1.87,3.63,6.43,3.63,9.5c0,3.08-2.27,5.1-4.23,5.1
				c-1.96,0-4.23-1.88-4.23-5.1C359.72,1264.16,363.04,1261.79,364.55,1257.87z"/>
			<path id="path4942" class="st4" d="M364.66,1263.2c-0.28,0.46-0.58,1.03-0.84,1.41c-1.11,1.58-1.55,2.23-1.55,2.81
				c0,2.03,1.32,2.53,1.69,2.53c0.26,0,1.69-0.69,1.69-2.53C365.64,1266.56,365.2,1264.8,364.66,1263.2z"/>
			<path id="path4944" class="st6" d="M326.55,1243.07c3.87,1.85,7.27,4.03,6.91,8.84c0,2.56,4.38-0.83,5.62,2.57
				c0.55,1.43-0.62,4.19,0,5.94c0.88,1.97,3.14,2.03,4.98,2.65c3.65,1.76,3.5,3.69,4.18,5.46"/>
			<path id="path4946" class="st6" d="M353.87,1267.34c0,0-1.01-3.23-0.96-4.74c0.05-1.51-3.06-2.74-4.5-3.77s0.27-3.51-0.64-4.91
				c-0.92-1.39-3.98-2.93-4.18-5.14c-0.2-2.21,0.2-4.36,0.97-6.19"/>
			<path id="path4948" class="st6" d="M370.9,1266.94c0.28-1.65,2.6-3.42,3.21-5.79c0.62-2.37-0.38-2.47,0-4.34
				c0.38-1.87,1.28-0.02,3.3-1.85c2.02-1.84,0.63-2.81,1.36-4.02c0.74-1.21,2.96-1.29,3.54-2.73c0.58-1.45-1.42-5.93-1.21-7.63
				c0.22-1.71,1.13-2.81,1.13-2.81"/>
			<path id="path4950" class="st6" d="M386.57,1246.29c2.42,1.57,3.88,5.51,3.62,6.75c-0.26,1.24-0.24,2.74-2.57,4.18
				c-2.33,1.44-1.5,3.07-1.69,4.82c-0.2,1.75-1.25,2.42-3.7,2.57c-2.45,0.15-3.7,3.69-3.7,3.69"/>
			<path id="path4952" class="st3" d="M237.36,1246.47c-2.57,1.48-6.48,6.78-7.38,10.11c-0.91,3.34,0.96,6.2,3.08,6.78
				c2.13,0.58,5.14-0.79,6.08-4.28C240.09,1255.59,236.36,1252.71,237.36,1246.47z"/>
			<path id="path4954" class="st4" d="M235.03,1253.09c0.16,0.59,0.32,1.3,0.5,1.77c0.73,2.04,1.02,2.87,0.85,3.51
				c-0.6,2.21-2.17,2.36-2.58,2.25c-0.27-0.08-1.62-1.25-1.07-3.24C232.97,1256.45,233.97,1254.67,235.03,1253.09z"/>
			<path id="path4956" class="st3" d="M235.5,1265.26c-2.09,1.97-4.18,6.89-4.28,10.24c-0.11,3.36,2.3,5.65,4.44,5.71
				c2.14,0.07,4.67-1.9,4.79-5.42C240.56,1272.29,237.03,1269.58,235.5,1265.26z"/>
			<path id="path4958" class="st4" d="M235.22,1271.07c0.29,0.51,0.6,1.15,0.87,1.56c1.16,1.77,1.61,2.49,1.59,3.13
				c-0.07,2.22-1.52,2.71-1.93,2.7c-0.28-0.01-1.82-0.82-1.75-2.82C234.02,1274.71,234.56,1272.81,235.22,1271.07z"/>
			<path id="path4960" class="st6" d="M266.16,1254.9c0,0-3.74,3.1-5.68,4.32c-1.93,1.22,0.63,4.52-0.79,6.13
				c-1.42,1.62-4.66,1.58-4.2,3.75c0.46,2.18,2.31,4.36-0.68,6.13c-2.99,1.78-4.79,5.06-3.3,7.16c1.51,2.1,1.14,3.86,1.14,3.86"/>
			<path id="path4962" class="st6" d="M246.73,1261.95c0,0,4.2,2.82,4.09,4.89c-0.11,2.06-3.29,2.29-3.52,3.75
				c-0.22,1.46,1.36,1,1.25,2.61c-0.11,1.61-2.87,2.73-3.06,4.43c-0.2,1.7,1.02,4.32,1.02,4.32"/>
			<path id="path4964" class="st6" d="M221.05,1252.29c0,0,0.63,4.36,0.11,6.59c-0.52,2.23-2.43,4.37-2.39,6.36
				c0.04,2,2.12,3.09,2.39,4.77c0.27,1.69-0.96,1.93-0.45,4.43c0.5,2.5,2.42,1.85,3.86,4.32c1.45,2.47-1.3,4.51,0.8,4.43
				c2.1-0.08,3.41,5.68,3.41,5.68"/>
			<path id="path4966" class="st6" d="M223.09,1288.54c-5.22-1.93-5.16-4.38-7.03-5.68c-1.89-1.31-2.47-0.49-3.42-2.15
				c-0.94-1.67,0.3-4.54-0.33-6.37c-0.63-1.83-2.96-1.46-2.96-3.52s2.39-3.38,3.86-5.46c1.49-2.07,1.25-7.16,1.25-7.16"/>
			<g id="g5050" transform="translate(-290.518,745.557)">
				<path id="path5046" class="st3" d="M525.3,473.3c1.15-0.31,2.37,0.32,2.59,1.49c0.46,1.27,1.33,1.73,2.7,1.36l3.36-0.9
					L569.74,465l5.26-1.41c0.56-0.15,1.37-0.32,1.93-0.35c0.49-0.03,0.96,0.03,1.44,0.08c3.32,0.38,6.06,2.8,6.98,6.26
					c1.2,4.51-1.32,9.11-5.83,10.31l-41.38,11.59l-3.21,0.86c-1.55,0.44-1.87,0.95-1.72,2.28c0.3,1.15-0.26,2.25-1.5,2.59
					c-1.24,0.34-2.28-0.35-2.59-1.5l-5.33-19.83C523.6,474.7,524.15,473.6,525.3,473.3z"/>
				<path id="path5048" class="st4" d="M578.02,465.69c2.31,0.26,4.29,1.96,4.98,4.53c0.88,3.32-0.82,6.54-4.08,7.4l-2.26,0.61
					l-48.33,3.37l-0.61-2.11l47.88-13.49c0.43-0.11,1.31-0.29,1.51-0.3C577.32,465.68,577.52,465.63,578.02,465.69z"/>
			</g>
		</g>
	</g>
	<rect x="355.51" y="515.05" class="st2" width="28.79" height="57.94"/>
	<text transform="matrix(0.9131 0 0 1 365.5507 557.7119)" class="st7 st8 st9">8</text>
	<polygon class="st2" points="155.48,336.35 575.41,343.08 567.13,452.19 147.19,445.46 	"/>
	<text transform="matrix(0.9999 0.0173 -0.0173 0.9999 234.6702 369.8532)" class="st7 st10 st11">םילכאמ םירמוח</text>
	<text transform="matrix(1 0 0 1 236.0761 426.1709)" class="st7 st10 st12">CORROSIVE SUBSTANCES</text>
</g>
</svg>
