<?xml version="1.0" encoding="utf-8"?>
<!-- Generator: Adobe Illustrator 28.3.0, SVG Export Plug-In . SVG Version: 6.00 Build 0)  -->
<svg version="1.1" id="Layer_1" xmlns="http://www.w3.org/2000/svg" xmlns:xlink="http://www.w3.org/1999/xlink" x="0px" y="0px"
	 viewBox="0 0 746 740" style="enable-background:new 0 0 746 740;" xml:space="preserve">
<style type="text/css">
	.st0{fill:#3B88C8;}
	.st1{fill:none;stroke:#3B3A3C;stroke-miterlimit:10;}
	.st2{fill:none;}
	.st3{fill:#231F20;}
	.st4{font-family:'AdobeArabic-Regular';}
	.st5{font-size:58.9694px;}
	.st6{font-family:'MyriadHebrew-Regular';}
	.st7{font-size:39.5161px;}
	.st8{font-size:26.3441px;}
</style>
<g>
	<g>
		<g>
			<polygon class="st0" points="368.93,653.5 82,372.29 373,86.5 664,372.29 			"/>
			<polygon class="st1" points="369.52,612.12 124.48,371.96 373,127.88 621.52,371.96 			"/>
		</g>
		<path d="M372.99,170.72c-11.82,22.33,1.97,34.81-13.14,66.99c-8.54-6.57-3.94-30.87-19.7-31.53c1.97,7.88,0.66,10.51,0,13.14
			c-1.97,11.17-5.25,20.36,1.97,34.15c-11.17-5.25-11.82-15.11-21.02-21.67c1.97,10.51-2.63,32.18,9.85,53.2
			c-11.17-1.31-15.11-5.25-26.93-17.08c12.48,65.68,22.33,67.65,68.96,71.59c-3.94-0.66-27.58-4.6-36.12-31.53
			c0-6.57-0.66,5.91,22.33,6.57c-14.45-22.99-10.51-18.39-9.2-31.53c6.57,8.54,1.31,9.85,17.73,16.42
			c-5.25-17.08,8.54-28.24,5.25-47.95c3.94,8.54,17.08,7.22,16.42,47.95c11.17-12.48,11.82-3.94,17.08-17.08
			c0.66,7.22,3.94,16.42-11.17,32.18c3.94,1.31,10.51,1.97,20.36-5.25c-9.85,11.82-0.66,11.82-26.27,30.21
			c32.18,0.66,53.2-19.7,52.54-63.71c-1.31,3.94-1.97,11.82-19.05,13.79c10.51-10.51,16.42-32.18,7.88-49.26
			c-3.28,2.63-7.88,15.76-19.05,19.05c5.25-9.2,3.94-21.02,3.94-21.02s1.97-16.42-7.88-29.56c-2.63,19.7-2.63,30.21-15.11,32.84
			c1.97-11.17,2.63-17.08-3.94-30.21C382.19,197.65,374.31,183.85,372.99,170.72z M319.79,350.68v11.82H432.1v-11.82H319.79z"/>
	</g>
	<rect x="347.83" y="537.74" class="st2" width="29.15" height="58.66"/>
	<text transform="matrix(0.9131 0 0 1 357.9987 580.9277)" class="st3 st4 st5">4</text>
	<polygon class="st2" points="162.04,384.92 587.23,388.86 578.84,452.69 153.66,448.76 	"/>
	<text transform="matrix(0.9999 0.0173 -0.0173 0.9999 209.6331 415.4021)" class="st3 st6 st7">םימ םע עגמב ןכוסמ</text>
	<text transform="matrix(1 0 0 1 239.5914 463.1348)" class="st3 st6 st8">DANGEROUS WITH WET</text>
</g>
</svg>
