<?xml version="1.0" encoding="utf-8"?>
<!-- Generator: Adobe Illustrator 28.3.0, SVG Export Plug-In . SVG Version: 6.00 Build 0)  -->
<svg version="1.1" id="Layer_1" xmlns="http://www.w3.org/2000/svg" xmlns:xlink="http://www.w3.org/1999/xlink" x="0px" y="0px"
	 viewBox="0 0 746 740" style="enable-background:new 0 0 746 740;" xml:space="preserve">
<style type="text/css">
	.st0{fill:#C82127;}
	.st1{fill:none;stroke:#FFFFFF;stroke-miterlimit:10;}
	.st2{fill:none;}
	.st3{fill:#231F20;}
	.st4{font-family:'AdobeArabic-Regular';}
	.st5{font-size:60.5294px;}
	.st6{font-family:'MyriadHebrew-Regular';}
	.st7{font-size:49.5751px;}
	.st8{font-size:31.5478px;}
</style>
<g>
	<g>
		<g>
			<g>
				<polygon class="st0" points="368.82,661 74.3,372.35 373,79 671.7,372.35 				"/>
				<polygon class="st0" points="369.43,618.52 117.91,372.01 373,121.48 628.09,372.01 				"/>
			</g>
			<path class="st0" d="M372.99,165.45c-12.13,22.92,2.02,35.73-13.48,68.76c-8.76-6.74-4.04-31.69-20.22-32.36
				c2.02,8.09,0.67,10.79,0,13.48c-2.02,11.46-5.39,20.9,2.02,35.06c-11.46-5.39-12.13-15.51-21.57-22.25
				c2.02,10.79-2.7,33.03,10.11,54.61c-11.46-1.35-15.51-5.39-27.64-17.53c12.81,67.42,22.92,69.44,70.79,73.48
				c-4.04-0.67-28.31-4.72-37.08-32.36c0-6.74-0.67,6.07,22.92,6.74c-14.83-23.6-10.79-18.88-9.44-32.36
				c6.74,8.76,1.35,10.11,18.2,16.85c-5.39-17.53,8.76-28.99,5.39-49.21c4.04,8.76,17.53,7.42,16.85,49.21
				c11.46-12.81,12.13-4.04,17.53-17.53c0.67,7.42,4.04,16.85-11.46,33.03c4.04,1.35,10.79,2.02,20.9-5.39
				c-10.11,12.13-0.67,12.13-26.97,31.01c33.03,0.67,54.61-20.22,53.93-65.39c-1.35,4.04-2.02,12.13-19.55,14.16
				c10.79-10.79,16.85-33.03,8.09-50.56c-3.37,2.7-8.09,16.18-19.55,19.55c5.39-9.44,4.04-21.57,4.04-21.57s2.02-16.85-8.09-30.34
				c-2.7,20.22-2.7,31.01-15.51,33.71c2.02-11.46,2.7-17.53-4.04-31.01C382.43,193.09,374.34,178.93,372.99,165.45z M318.39,350.17
				v12.13h115.28v-12.13H318.39z"/>
		</g>
		<g>
			<g>
				<polygon class="st0" points="368.82,661 74.3,372.35 373,79 671.7,372.35 				"/>
				<polygon class="st1" points="369.43,618.52 117.91,372.01 373,121.48 628.09,372.01 				"/>
			</g>
			<path d="M372.99,165.45c-12.13,22.92,2.02,35.73-13.48,68.76c-8.76-6.74-4.04-31.69-20.22-32.36c2.02,8.09,0.67,10.79,0,13.48
				c-2.02,11.46-5.39,20.9,2.02,35.06c-11.46-5.39-12.13-15.51-21.57-22.25c2.02,10.79-2.7,33.03,10.11,54.61
				c-11.46-1.35-15.51-5.39-27.64-17.53c12.81,67.42,22.92,69.44,70.79,73.48c-4.04-0.67-28.31-4.72-37.08-32.36
				c0-6.74-0.67,6.07,22.92,6.74c-14.83-23.6-10.79-18.88-9.44-32.36c6.74,8.76,1.35,10.11,18.2,16.85
				c-5.39-17.53,8.76-28.99,5.39-49.21c4.04,8.76,17.53,7.42,16.85,49.21c11.46-12.81,12.13-4.04,17.53-17.53
				c0.67,7.42,4.04,16.85-11.46,33.03c4.04,1.35,10.79,2.02,20.9-5.39c-10.11,12.13-0.67,12.13-26.97,31.01
				c33.03,0.67,54.61-20.22,53.93-65.39c-1.35,4.04-2.02,12.13-19.55,14.16c10.79-10.79,16.85-33.03,8.09-50.56
				c-3.37,2.7-8.09,16.18-19.55,19.55c5.39-9.44,4.04-21.57,4.04-21.57s2.02-16.85-8.09-30.34c-2.7,20.22-2.7,31.01-15.51,33.71
				c2.02-11.46,2.7-17.53-4.04-31.01C382.43,193.09,374.34,178.93,372.99,165.45z M318.39,350.17v12.13h115.28v-12.13H318.39z"/>
		</g>
	</g>
	<rect x="353.84" y="540.94" class="st2" width="29.92" height="60.21"/>
	<text transform="matrix(0.9131 0 0 1 364.2729 585.2744)" class="st3 st4 st5">3</text>
	<polygon class="st2" points="195.17,378.44 537.14,382.48 530.39,448.01 188.42,443.97 	"/>
	<text transform="matrix(0.9999 0.0173 -0.0173 0.9999 195.0543 418.0617)" class="st3 st6 st7">םיחקלתמ םילזונ</text>
	<text transform="matrix(1 0 0 1 222.4126 465.6025)" class="st3 st6 st8">FLAMMABLE LIQUIDS</text>
</g>
</svg>
