<?xml version="1.0" encoding="utf-8"?>
<!-- Generator: Adobe Illustrator 28.3.0, SVG Export Plug-In . SVG Version: 6.00 Build 0)  -->
<svg version="1.1" id="Layer_1" xmlns="http://www.w3.org/2000/svg" xmlns:xlink="http://www.w3.org/1999/xlink" x="0px" y="0px"
	 viewBox="0 0 746 740" style="enable-background:new 0 0 746 740;" xml:space="preserve">
<style type="text/css">
	.st0{fill:#C82127;}
	.st1{fill:none;stroke:#FFFFFF;stroke-miterlimit:10;}
	.st2{fill:none;}
	.st3{fill:#231F20;}
	.st4{font-family:'AdobeArabic-Regular';}
	.st5{font-size:62.9084px;}
	.st6{font-family:'MyriadHebrew-Regular';}
	.st7{font-size:51.5236px;}
	.st8{font-size:32.7878px;}
</style>
<g>
	<g>
		<g>
			<polygon class="st0" points="368.66,672.44 62.56,372.44 373,67.56 683.44,372.44 			"/>
			<polygon class="st1" points="369.29,628.29 107.88,372.09 373,111.71 638.12,372.09 			"/>
		</g>
		<path d="M372.99,155.01c-12.61,23.82,2.1,37.13-14.01,71.47c-9.11-7.01-4.2-32.93-21.02-33.63c2.1,8.41,0.7,11.21,0,14.01
			c-2.1,11.91-5.61,21.72,2.1,36.43c-11.91-5.61-12.61-16.12-22.42-23.12c2.1,11.21-2.8,34.33,10.51,56.75
			c-11.91-1.4-16.12-5.61-28.73-18.22c13.31,70.07,23.82,72.17,73.57,76.37c-4.2-0.7-29.43-4.9-38.54-33.63
			c0-7.01-0.7,6.31,23.82,7.01c-15.41-24.52-11.21-19.62-9.81-33.63c7.01,9.11,1.4,10.51,18.92,17.52
			c-5.61-18.22,9.11-30.13,5.61-51.15c4.2,9.11,18.22,7.71,17.52,51.15c11.91-13.31,12.61-4.2,18.22-18.22
			c0.7,7.71,4.2,17.52-11.91,34.33c4.2,1.4,11.21,2.1,21.72-5.61c-10.51,12.61-0.7,12.61-28.03,32.23
			c34.33,0.7,56.75-21.02,56.05-67.96c-1.4,4.2-2.1,12.61-20.32,14.71c11.21-11.21,17.52-34.33,8.41-52.55
			c-3.5,2.8-8.41,16.82-20.32,20.32c5.61-9.81,4.2-22.42,4.2-22.42s2.1-17.52-8.41-31.53c-2.8,21.02-2.8,32.23-16.12,35.03
			c2.1-11.91,2.8-18.22-4.2-32.23C382.8,183.74,374.39,169.02,372.99,155.01z M316.24,346.99v12.61h119.81v-12.61H316.24z"/>
	</g>
	<rect x="351.19" y="554.85" class="st2" width="31.1" height="62.58"/>
	<text transform="matrix(0.9131 0 0 1 362.0359 600.9256)" class="st3 st4 st5">2</text>
	<text transform="matrix(0.9999 0.0173 -0.0173 0.9999 221.604 423.0908)" class="st3 st6 st7">םיחקלתמ םיזג</text>
	<text transform="matrix(1 0 0 1 226.7351 475.5023)" class="st3 st6 st8">FLAMMABLE GASES</text>
</g>
</svg>
