<?xml version="1.0" encoding="utf-8"?>
<!-- Generator: Adobe Illustrator 28.3.0, SVG Export Plug-In . SVG Version: 6.00 Build 0)  -->
<svg version="1.1" id="Layer_1" xmlns="http://www.w3.org/2000/svg" xmlns:xlink="http://www.w3.org/1999/xlink" x="0px" y="0px"
	 viewBox="0 0 746 740" style="enable-background:new 0 0 746 740;" xml:space="preserve">
<style type="text/css">
	.st0{fill:#4BAA48;}
	.st1{fill:none;stroke:#FFFFFF;stroke-miterlimit:10;}
	.st2{fill-rule:evenodd;clip-rule:evenodd;fill:#231F20;}
	.st3{fill:none;}
	.st4{fill:#231F20;}
	.st5{font-family:'AdobeArabic-Regular';}
	.st6{font-size:61.7852px;}
	.st7{font-family:'MyriadHebrew-Regular';}
	.st8{font-size:36.8027px;}
	.st9{font-size:27.602px;}
</style>
<g>
	<g>
		<g>
			<polygon class="st0" points="368.84,666.87 68.21,372.24 373.11,72.8 678,372.24 			"/>
			<polygon class="st1" points="369.46,623.51 112.72,371.89 373.11,116.16 633.49,371.89 			"/>
		</g>
		<path class="st2" d="M491.4,264.18c0.75,3.54-1.03,6.91-3.97,7.53l-28.65,6.09c-2.21,0.47-3.63,2.64-3.15,4.85
			c0.75,3.54-1.03,6.91-3.97,7.53l-183.9,39.09c-2.94,0.62-9.33-5.17-12.05-17.46c-2.73-12.29,0.27-23.52,3.21-24.15l183.9-39.09
			c2.94-0.63,5.94,1.73,6.69,5.27c0.65,3.09,3.69,5.07,6.78,4.41c0.01,0,0.01,0,0.02,0l27.03-5.75c2.96-0.63,5.94,1.73,6.69,5.27
			L491.4,264.18z"/>
	</g>
	<rect x="351.76" y="551.39" class="st3" width="30.54" height="61.46"/>
	<text transform="matrix(0.9131 0 0 1 362.4131 596.6406)" class="st4 st5 st6">2</text>
	<polygon class="st3" points="110.63,361.04 642.54,365.16 632.05,432.05 100.14,427.92 	"/>
	<text transform="matrix(0.9999 0.0173 -0.0173 0.9999 159.2375 387.6057)" class="st4 st7 st8">םיליער אלו םיחקלתמ אל םיזג</text>
	<text transform="matrix(1 0 0 1 268.6895 432.3516)"><tspan x="0" y="0" class="st4 st7 st9">NON-FLAMMABLE</tspan><tspan x="-9.29" y="33.12" class="st4 st7 st9">NON-TOXIC GASES</tspan></text>
</g>
</svg>
