<?xml version="1.0" encoding="utf-8"?>
<!-- Generator: Adobe Illustrator 28.3.0, SVG Export Plug-In . SVG Version: 6.00 Build 0)  -->
<svg version="1.1" id="Layer_1" xmlns="http://www.w3.org/2000/svg" xmlns:xlink="http://www.w3.org/1999/xlink" x="0px" y="0px"
	 viewBox="0 0 746 740" style="enable-background:new 0 0 746 740;" xml:space="preserve">
<style type="text/css">
	.st0{fill:#F5EB31;}
	.st1{fill:none;stroke:#3B3A3C;stroke-miterlimit:10;}
	.st2{fill:#221F1F;}
	.st3{fill:none;}
	.st4{fill:#231F20;}
	.st5{font-family:'AdobeArabic-Regular';}
	.st6{font-size:58.6574px;}
	.st7{font-family:'MyriadHebrew-Regular';}
	.st8{font-size:39.307px;}
	.st9{font-size:26.2047px;}
</style>
<g>
	<g>
		<g>
			<polygon class="st0" points="368.95,652 83.54,372.28 373,88 662.46,372.28 			"/>
			<polygon class="st1" points="369.54,610.83 125.8,371.95 373,129.17 620.2,371.95 			"/>
		</g>
		<path id="path1360" class="st2" d="M372.19,156.32l-3.64,3.94c-10.05,12.26,4.19,25.97-2,38.48c-2.74-6.07-8.97-12.72-15.83-13.07
			v0.9c0.24-0.13,0.31,0.06,0.55,0.18c6.85,10.01,2.74,23.21-3.64,32.21c-2.53-3.26-5.86-8.22-10.18-8.77v0.9
			c5.48,6.97,2.77,16.89-0.91,23.98c-1.48,2.8-1,6.79-2.73,9.48c-2.74-1.69-5.75-3.86-9.64-3.76v1.07
			c8.7,10.36-0.14,23.16,1.46,35.08c1.01,2.88,2.11,7.42,5.64,7.87c1.25,14.14,9.74,26.31,21.82,32.74h-29.28v11.99h98.37v-11.99
			H393.1c12.53-6.62,21.2-19.4,22-34.17c0.49,0.01,0.95,0,1.45,0c11.55-14.41-7.9-31.34,4.91-45.28c-2.85-0.56-5.55,0.77-8.18,1.79
			l-0.55-0.54c1.12-4.84,2.11-9.58,2-14.86c-0.93-8.33-2.97-16.33-7.09-23.09c-0.45,3.84-0.01,8-2.18,10.92
			c1.03-11.02-4.74-20.84-14-27.02c-0.45,3.48,2.64,7.3,0.37,10.91c-0.69-3.73-2.9-6.76-4.74-10.02
			c-5.38-7.53-15.02-13.57-14.9-23.81C371.84,160.15,373.1,158.01,372.19,156.32z M378.18,203.75c3.65,6.99-2.21,13.77-0.73,21.3
			c2.16,4.85,6.45,9.94,4.73,15.57c-0.02,0.07,0.01,0.11,0,0.18c-2.92-0.63-5.98-1.07-9.09-1.07c-0.78,0-1.6,0.14-2.36,0.18
			l0.55-3.23C362.13,225.21,372.34,213.53,378.18,203.75z M358.18,228.63c1.15,4.39,4.22,7.85,4.91,12.34
			c-2.54,0.61-4.95,1.29-7.28,2.33c1.39-3.47,0.79-8.04,0.55-11.82C356.97,230.59,356.59,228.96,358.18,228.63z M391.83,229.17
			c3.76,3.38,3.12,10.34,1.63,14.85c-0.14,0.24-0.12,0.48-0.18,0.72c-2.09-1.14-4.26-2.09-6.55-2.87c0.04-0.13,0.15-0.21,0.18-0.36
			C388.29,237.36,390.9,233.55,391.83,229.17z M344.91,239.54c1.37,2.58,1.5,6.13,4.36,7.7c-2.08,1.42-4.05,2.89-5.82,4.66
			C343.43,247.43,342.16,243.43,344.91,239.54z M404.01,242.41c0.22,0.03,0.5,0.17,0.73,0.54l-0.54,9.85c0.01,0.15-0.01,0.38,0,0.54
			c-1.8-1.94-3.87-3.62-6.01-5.19c0.19-0.11,0.39-0.18,0.55-0.36c1.7-1.13,1.97-2.93,3.46-4.3
			C402.79,243.32,403.36,242.31,404.01,242.41z M373.1,250.82c17.03,0,30.91,13.66,30.91,30.43c0,16.74-13.88,30.26-30.91,30.26
			c-17.04,0-30.74-13.52-30.74-30.26C342.36,264.48,356.06,250.82,373.1,250.82z M333.81,258.15c1.5,0.11,1.41,2.16,2.91,2.51
			c-0.8,1.38-1.59,2.78-2.28,4.23l-0.09-0.11C333.79,262.65,333.25,260.41,333.81,258.15z"/>
	</g>
	<rect x="342.16" y="528.51" class="st3" width="50.92" height="58.35"/>
	<text transform="matrix(0.9131 0 0 1 346.3235 571.4688)" class="st4 st5 st6">5.1</text>
	<polygon class="st3" points="170.73,340.61 593.67,344.53 585.32,408.03 162.39,404.11 	"/>
	<text transform="matrix(0.9999 0.0173 -0.0173 0.9999 238.4482 371.2873)" class="st4 st7 st8">םינצמחמ םירמוח</text>
	<text transform="matrix(1 0 0 1 231.676 423.7842)" class="st4 st7 st9">OXIDIZING SUBSTANCES</text>
</g>
</svg>
