<?xml version="1.0" encoding="utf-8"?>
<!-- Generator: Adobe Illustrator 28.3.0, SVG Export Plug-In . SVG Version: 6.00 Build 0)  -->
<svg version="1.1" id="Layer_1" xmlns="http://www.w3.org/2000/svg" xmlns:xlink="http://www.w3.org/1999/xlink" x="0px" y="0px"
	 viewBox="0 0 746 740" style="enable-background:new 0 0 746 740;" xml:space="preserve">
<style type="text/css">
	.st0{fill:#FFFFFF;stroke:#323031;stroke-miterlimit:10;stroke-dasharray:6;}
	.st1{fill:none;stroke:#3B3A3C;stroke-miterlimit:10;}
	.st2{fill:#C82127;}
	.st3{fill:none;}
	.st4{fill:#231F20;}
	.st5{font-family:'AdobeArabic-Regular';}
	.st6{font-size:59.6001px;}
	.st7{font-family:'MyriadHebrew-Regular';}
	.st8{font-size:39.9388px;}
	.st9{font-size:26.6258px;}
</style>
<g>
	<g>
		<g>
			<g>
				<polygon class="st0" points="369.44,653.21 79.44,368.99 373.55,80.14 667.66,368.99 				"/>
				<polygon class="st1" points="370.04,611.38 122.38,368.65 373.55,121.97 624.73,368.65 				"/>
			</g>
		</g>
		<polygon class="st0" points="370.02,651.75 80.04,367.52 372.69,80.13 666.79,368.99 		"/>
		<polygon class="st2" points="670.56,368.73 75.44,368.99 372.51,659.87 		"/>
		<polygon class="st1" points="369.16,611.38 121.5,368.65 372.68,121.97 623.86,368.65 		"/>
		<path d="M372.99,172.11c-11.95,22.57,1.99,35.18-13.28,67.71c-8.63-6.64-3.98-31.2-19.91-31.86c1.99,7.97,0.66,10.62,0,13.28
			c-1.99,11.28-5.31,20.58,1.99,34.52c-11.28-5.31-11.95-15.27-21.24-21.91c1.99,10.62-2.66,32.53,9.96,53.77
			c-11.28-1.33-15.27-5.31-27.22-17.26c12.61,66.38,22.57,68.37,69.7,72.36c-3.98-0.66-27.88-4.65-36.51-31.86
			c0-6.64-0.66,5.97,22.57,6.64c-14.6-23.23-10.62-18.59-9.29-31.86c6.64,8.63,1.33,9.96,17.92,16.6
			c-5.31-17.26,8.63-28.54,5.31-48.46c3.98,8.63,17.26,7.3,16.6,48.46c11.28-12.61,11.95-3.98,17.26-17.26
			c0.66,7.3,3.98,16.6-11.28,32.53c3.98,1.33,10.62,1.99,20.58-5.31c-9.96,11.95-0.66,11.95-26.55,30.54
			c32.53,0.66,53.77-19.91,53.1-64.39c-1.33,3.98-1.99,11.95-19.25,13.94c10.62-10.62,16.6-32.53,7.97-49.79
			c-3.32,2.66-7.97,15.93-19.25,19.25c5.31-9.29,3.98-21.24,3.98-21.24s1.99-16.6-7.97-29.87c-2.66,19.91-2.66,30.54-15.27,33.19
			c1.99-11.28,2.66-17.26-3.98-30.54C382.29,199.32,374.32,185.38,372.99,172.11z M319.22,353.99v11.95h113.51v-11.95H319.22z"/>
	</g>
	<rect x="350.74" y="534.98" class="st3" width="29.46" height="59.29"/>
	<text transform="matrix(0.9131 0 0 1 361.0139 578.6292)" class="st4 st5 st6">4</text>
	<polygon class="st3" points="162.19,379.41 591.92,383.39 583.45,447.91 153.72,443.93 	"/>
	<text transform="matrix(0.9999 0.0173 -0.0173 0.9999 188.4482 409.8376)" class="st4 st7 st8">תימצע תוחקלתהל ןותנ</text>
	<rect x="246.54" y="435.75" class="st3" width="235.05" height="95.72"/>
	<text transform="matrix(1 0 0 1 264.592 458.0355)"><tspan x="0" y="0" class="st4 st7 st9">SPONTANEOUSLY</tspan><tspan x="19.65" y="31.95" class="st4 st7 st9">COMBUSTIBLE</tspan></text>
</g>
</svg>
