<?xml version="1.0" encoding="utf-8"?>
<!-- Generator: Adobe Illustrator 28.3.0, SVG Export Plug-In . SVG Version: 6.00 Build 0)  -->
<svg version="1.1" id="Layer_1" xmlns="http://www.w3.org/2000/svg" xmlns:xlink="http://www.w3.org/1999/xlink" x="0px" y="0px"
	 viewBox="0 0 746 740" style="enable-background:new 0 0 746 740;" xml:space="preserve">
<style type="text/css">
	.st0{fill:#FFFFFF;stroke:#323031;stroke-miterlimit:10;stroke-dasharray:6;}
	.st1{fill:none;stroke:#3B3A3C;stroke-miterlimit:10;}
	.st2{fill:#FFFFFF;stroke:#221F1F;stroke-width:0.5213;}
	.st3{fill:#221F1F;}
	.st4{fill:#FFFFFF;}
	.st5{fill:none;}
	.st6{fill:#231F20;}
	.st7{font-family:'AdobeArabic-Regular';}
	.st8{font-size:61.6734px;}
	.st9{font-family:'MyriadHebrew-Regular';}
	.st10{font-size:50.5121px;}
	.st11{font-size:27.5521px;}
</style>
<g>
	<g>
		<g>
			<polygon class="st0" points="369.77,666 69.68,371.9 374.02,73 678.37,371.9 			"/>
			<polygon class="st1" points="370.39,622.72 114.11,371.55 374.02,116.28 633.94,371.55 			"/>
		</g>
		<g>
			<path id="path628" class="st2" d="M304.26,242.2c5.3-1.26,5.3,3.48,10.29,7.94c0,0,24.84,19.63,54.04,28.49
				c29.14,8.88,48.03,15.52,49.69,16.15c1.65,0.63,8.94,2.23,14.9-0.31c5.99-2.53,16.25,2.21,14.9,6.62
				c-1.33,4.43-8.59,4.42-10.9,10.7c-2.33,6.33-3.34,11.17-9.63,9.9c-6.31-1.27-5.98-5.72-6.95-11.41
				c-1.01-5.7-11.3-9.51-36.8-18.34c-25.52-8.9-52.36-19.02-56.35-20.29c-3.96-1.26-12.9-5.7-20.88-2.22
				c-7.96,3.49-12.58-5.39-8.6-9.49c3.97-4.13,4.94-4.45,2.98-7.29C298.97,249.8,294.17,244.62,304.26,242.2z"/>
			<path id="path632" class="st2" d="M326.47,296.04c9-3.33,87.81-32.31,91.8-34.85c3.97-2.54,13.59-11.71,16.56-15.82
				c2.99-4.13,11.28-1.27,10.61,3.48c-0.63,4.77-2.3,6.32-0.31,7.92c1.98,1.58,7.28-0.63,6.27,3.18c-1,3.78-3.64,9.82-7.6,9.17
				c-3.98-0.63-7.31-6.01-16.24-2.52c-8.96,3.47-83.2,33.56-89.82,36.12c-6.62,2.5-11.26,11.05-13.27,14.22
				c-1.97,3.17-10.93,7.61-12.58-1.27c-1.67-8.88-1.98-5.97-3.62-7.25c-1.69-1.29-6.32-6.68,0-9.86
				C314.55,295.42,316.2,299.83,326.47,296.04z"/>
			<path id="path634" class="st3" d="M375.83,183.62c-16.22,0.32-41.41,19.62-43.07,20.89c-1.64,1.29-6.95,14.26-3.97,23.43
				c3,9.19,7.62,14.25,6.95,19.33c-0.65,5.06-1.95,12.98,3.65,15.2c5.63,2.22,8.61,2.85,9.28,7.92c0.68,5.06,1.33,10.76,1.65,12.97
				c0.37,2.22,7.64,8.23,11.94,11.41c4.28,3.2,7.6,5.05,12.94,5.05c9.27,0,14.57-6.62,16.57-8.23c4.3-3.48,8.67-2.32,7.99-9.61
				c-0.07-2.62,0.16-12.98,1.99-14.88c2.66-1.9,10.23-7.16,10.89-10.65c0.66-3.48,0-12.99,0.33-16.15
				c0.34-3.18,7.64-10.14,7.27-15.52c-0.31-5.38,2.66-13.92-9.6-22.17C398.38,194.39,386.12,183.43,375.83,183.62"/>
			<path id="path636" class="st4" d="M375.74,188.26c-4.27,0.38-8.11,0.81-11.42,3.03c-3.3,2.24-27.29,14.3-29.6,18.41
				c-2.31,4.11-8.17,11.06,2.1,22.14c0,0-2.46-13.1,4.2-19.12c0,0-1.51,14.36,0.47,35.9c0.45,4.74-1.16,8.24,5.13,11.42
				c6.3,3.16,14.07,7.2,13.75,13.52c0,0,3.95,3.73,14.22,3.73c10.29,0,13.18-2.04,13.52-4.9c0.32-2.86-2.09-5.75,4.89-8.62
				c6.96-2.84,13.34-6.04,13.98-11.42c0.69-5.38,3.35-25.92-3.26-39.86c0,0,6.55,4.42,7.22,17.71c0,0,4.43-2.05,4.43-11.89
				c0-9.8-6.78-13.2-13.75-17.94C394.65,195.65,386.38,187.31,375.74,188.26z M354.07,236.28c1.66-0.04,4.58,0.07,9.56,0.23
				c9.92,0.32,0.26,9.4-3.73,12.58c-3.97,3.15-8.88-0.18-11.19-3.03c-2.32-2.83-3.03-9.55,3.26-9.55
				C351.97,236.51,352.41,236.32,354.07,236.28z M395.55,236.28c1.66,0.04,2.1,0.23,2.1,0.23c6.28,0,5.58,6.72,3.26,9.55
				c-2.33,2.85-7.45,6.18-11.42,3.03c-3.98-3.18-13.46-12.26-3.5-12.58C390.96,236.35,393.89,236.23,395.55,236.28z M352.9,270.77
				c0,0-0.23,11.99,2.1,14.22c2.3,2.22,12.43,10.32,13.75,10.96c1.33,0.63,2.52,2.1,6.53,2.1c3.96,0,6.24-2.69,7.93-3.96
				c1.63-1.27,10.79-6.88,12.12-8.16c1.33-1.26,1.96-10.79,1.63-14.92l-3.38,1.63c0,0,0.24,6.87-1.09,8.77
				c-1.32,1.89-6.78,5.68-16.03,5.68c-9.29,0-19.25-4.33-19.58-5.59c-0.32-1.26-0.47-8.16-0.47-8.16L352.9,270.77z"/>
			<path id="path644" class="st3" d="M373.84,266.27c1.66,0,3.27,2.54,5.96,1.92c2.63-0.66,1.62-3.79,0.33-6.34
				c-1.33-2.52-2.63-8.23-6.29-8.56c-3.66-0.31-4.98,6.04-6.3,8.56c-1.27,2.55-2.3,5.68,0.34,6.34
				C370.56,268.8,372.16,266.27,373.84,266.27"/>
		</g>
	</g>
	<rect x="350.99" y="537.36" class="st5" width="30.49" height="61.35"/>
	<text transform="matrix(0.9131 0 0 1 361.624 582.5342)" class="st6 st7 st8">2</text>
	<polygon class="st5" points="218.6,346.94 519.8,351.06 513.86,417.82 212.66,413.7 	"/>
	<text transform="matrix(0.9999 0.0173 -0.0173 0.9999 243.7217 388.5647)" class="st6 st9 st10">םיליער םיזג</text>
	<text transform="matrix(1 0 0 1 288.6807 446.0923)" class="st6 st9 st11">TOXIC GASES</text>
</g>
</svg>
