<?xml version="1.0" encoding="utf-8"?>
<!-- Generator: Adobe Illustrator 28.3.0, SVG Export Plug-In . SVG Version: 6.00 Build 0)  -->
<svg version="1.1" id="Layer_1" xmlns="http://www.w3.org/2000/svg" xmlns:xlink="http://www.w3.org/1999/xlink" x="0px" y="0px"
	 viewBox="0 0 746 740" style="enable-background:new 0 0 746 740;" xml:space="preserve">
<style type="text/css">
	.st0{fill:#FFFFFF;stroke:#323031;stroke-miterlimit:10;stroke-dasharray:6;}
	.st1{fill:none;stroke:#3B3A3C;stroke-miterlimit:10;}
	.st2{fill:#FFFFFF;stroke:#221F1F;stroke-width:0.5213;}
	.st3{fill:#221F1F;}
	.st4{fill:#FFFFFF;}
	.st5{fill:none;}
	.st6{fill:#231F20;}
	.st7{font-family:'AdobeArabic-Regular';}
	.st8{font-size:58.0334px;}
	.st9{font-family:'MyriadHebrew-Regular';}
	.st10{font-size:38.8888px;}
	.st11{font-size:25.9259px;}
</style>
<g>
	<g>
		<g>
			<g>
				<polygon class="st0" points="368.99,649 86.62,372.25 373,91 659.38,372.25 				"/>
				<polygon class="st1" points="369.58,608.27 128.43,371.93 373,131.73 617.57,371.93 				"/>
			</g>
		</g>
		<g>
			<path id="path628_00000077287102620558835250000009969733144600584600_" class="st2" d="M307.35,266.41
				c4.98-1.19,4.98,3.28,9.68,7.47c0,0,23.38,18.47,50.85,26.81c27.42,8.35,45.2,14.6,46.76,15.2c1.55,0.6,8.41,2.1,14.02-0.29
				c5.64-2.38,15.29,2.08,14.02,6.23c-1.25,4.17-8.09,4.15-10.26,10.07c-2.19,5.96-3.14,10.51-9.06,9.31
				c-5.94-1.19-5.63-5.38-6.54-10.74c-0.95-5.36-10.63-8.95-34.63-17.26c-24.02-8.37-49.27-17.9-53.03-19.09
				c-3.73-1.19-12.14-5.36-19.64-2.09c-7.49,3.28-11.84-5.07-8.09-8.93c3.73-3.89,4.65-4.18,2.81-6.86
				C302.37,273.56,297.86,268.69,307.35,266.41z"/>
			<path id="path632_00000101077673054663489090000011573424601156471223_" class="st2" d="M328.26,317.07
				c8.47-3.14,82.63-30.4,86.39-32.79c3.73-2.39,12.79-11.02,15.58-14.89c2.81-3.89,10.61-1.19,9.98,3.27
				c-0.6,4.48-2.17,5.95-0.29,7.45c1.87,1.49,6.85-0.6,5.9,2.99c-0.94,3.56-3.42,9.24-7.15,8.63c-3.75-0.6-6.88-5.66-15.29-2.37
				c-8.44,3.26-78.29,31.58-84.52,33.99c-6.23,2.35-10.6,10.4-12.49,13.38c-1.85,2.98-10.29,7.17-11.84-1.19
				c-1.57-8.35-1.86-5.62-3.41-6.82c-1.59-1.21-5.94-6.28,0-9.28C317.04,316.48,318.59,320.63,328.26,317.07z"/>
			<path id="path634_00000098923734326781204650000001360224068119656351_" class="st3" d="M374.7,211.29
				c-15.26,0.3-38.96,18.46-40.53,19.66c-1.54,1.21-6.54,13.42-3.73,22.05c2.82,8.65,7.17,13.41,6.54,18.19
				c-0.61,4.76-1.83,12.21,3.44,14.3c5.3,2.08,8.11,2.68,8.73,7.45c0.64,4.77,1.25,10.13,1.55,12.2c0.34,2.08,7.19,7.75,11.24,10.74
				c4.03,3.01,7.15,4.75,12.18,4.75c8.72,0,13.71-6.23,15.59-7.74c4.04-3.28,8.15-2.18,7.52-9.05c-0.07-2.46,0.15-12.22,1.87-14
				c2.5-1.79,9.62-6.74,10.25-10.02c0.62-3.28,0-12.23,0.31-15.19c0.32-2.99,7.19-9.54,6.84-14.6c-0.29-5.07,2.51-13.1-9.03-20.86
				C395.92,221.42,384.38,211.1,374.7,211.29"/>
			<path id="path636_00000087395363667038454590000010888893800856578192_" class="st4" d="M374.62,215.65
				c-4.02,0.36-7.63,0.76-10.75,2.85c-3.1,2.11-25.68,13.45-27.85,17.33c-2.17,3.87-7.68,10.41,1.97,20.84
				c0,0-2.31-12.32,3.95-17.99c0,0-1.42,13.52,0.44,33.78c0.43,4.46-1.09,7.76,4.82,10.74c5.93,2.98,13.24,6.77,12.94,12.72
				c0,0,3.71,3.51,13.38,3.51c9.68,0,12.4-1.92,12.72-4.61c0.3-2.69-1.96-5.41,4.61-8.11c6.55-2.67,12.56-5.68,13.16-10.74
				c0.65-5.07,3.15-24.39-3.07-37.5c0,0,6.17,4.16,6.8,16.67c0,0,4.17-1.93,4.17-11.19c0-9.22-6.38-12.42-12.94-16.89
				C392.41,222.6,384.62,214.76,374.62,215.65z M354.22,260.83c1.56-0.04,4.31,0.07,8.99,0.22c9.33,0.3,0.24,8.85-3.51,11.84
				c-3.73,2.97-8.35-0.17-10.53-2.85c-2.18-2.67-2.85-8.99,3.07-8.99C352.25,261.05,352.66,260.87,354.22,260.83z M393.26,260.83
				c1.56,0.04,1.97,0.22,1.97,0.22c5.91,0,5.25,6.32,3.07,8.99c-2.2,2.68-7.01,5.82-10.75,2.85c-3.75-2.99-12.67-11.54-3.29-11.84
				C388.94,260.9,391.7,260.79,393.26,260.83z M353.12,293.29c0,0-0.22,11.28,1.97,13.38c2.17,2.08,11.7,9.71,12.94,10.31
				c1.25,0.6,2.37,1.97,6.14,1.97c3.73,0,5.88-2.53,7.46-3.73c1.54-1.19,10.15-6.48,11.4-7.68c1.25-1.19,1.84-10.16,1.53-14.04
				l-3.18,1.54c0,0,0.22,6.46-1.03,8.25c-1.24,1.78-6.38,5.34-15.09,5.34c-8.74,0-18.11-4.07-18.42-5.26
				c-0.3-1.19-0.44-7.68-0.44-7.68L353.12,293.29z"/>
			<path id="path644_00000135675742688117300880000005746328795255405749_" class="st3" d="M372.83,289.05
				c1.57,0,3.08,2.39,5.61,1.8c2.47-0.62,1.52-3.57,0.31-5.97c-1.25-2.37-2.47-7.74-5.92-8.06c-3.45-0.29-4.69,5.68-5.93,8.06
				c-1.19,2.4-2.17,5.35,0.32,5.97C369.74,291.44,371.25,289.05,372.83,289.05"/>
		</g>
	</g>
	<rect x="352.95" y="526.82" class="st5" width="28.69" height="57.73"/>
	<text transform="matrix(0.9131 0 0 1 362.9561 569.3252)" class="st6 st7 st8">6</text>
	<polygon class="st5" points="174.89,349.91 593.33,356.62 585.07,465.34 166.64,458.63 	"/>
	<text transform="matrix(0.9999 0.0173 -0.0173 0.9999 262.3783 383.4445)" class="st6 st9 st10">םיליער םירמוח</text>
	<text transform="matrix(1 0 0 1 269.4775 440.9707)" class="st6 st9 st11">TOXIC SUBSTANCES</text>
</g>
</svg>
