<?xml version="1.0" encoding="utf-8"?>
<!-- Generator: Adobe Illustrator 28.3.0, SVG Export Plug-In . SVG Version: 6.00 Build 0)  -->
<svg version="1.1" id="Layer_1" xmlns="http://www.w3.org/2000/svg" xmlns:xlink="http://www.w3.org/1999/xlink" x="0px" y="0px"
	 viewBox="0 0 1755.5 1746" style="enable-background:new 0 0 1755.5 1746;" xml:space="preserve">
<style type="text/css">
	.st0{fill:none;stroke:#000000;stroke-miterlimit:10;}
	.st1{fill:#426646;stroke:#000000;stroke-miterlimit:10;}
	.st2{fill:#FFE3CB;stroke:#000000;stroke-miterlimit:10;}
	.st3{fill:#426646;}
	.st4{fill:#FFB995;}
	.st5{fill:#332C26;}
	.st6{fill:#332C26;stroke:#000000;stroke-miterlimit:10;}
	.st7{fill:none;stroke:#FFB995;stroke-miterlimit:10;}
	.st8{stroke:#000000;stroke-miterlimit:10;}
	.st9{fill:#FF3858;}
	.st10{fill:#FFFFFF;stroke:#000000;stroke-miterlimit:10;}
	.st11{fill:#080D1D;stroke:#FFFFFF;stroke-miterlimit:10;}
	.st12{fill:none;stroke:#FFFFFF;stroke-miterlimit:10;}
	.st13{fill:#10495B;}
	.st14{fill:#322B13;}
	.st15{fill:#FFFFFF;}
	.st16{fill:#FFB995;stroke:#FFB995;stroke-miterlimit:10;}
	.st17{fill:#FFB995;stroke:#000000;stroke-width:0.5;stroke-miterlimit:10;}
	.st18{fill:#080D1D;}
	.st19{fill:#8DA1A9;}
	.st20{fill:#20382B;}
	.st21{fill:#597590;}
	.st22{fill:#20382B;stroke:#20382B;stroke-miterlimit:10;}
	.st23{fill:#304D37;stroke:#000000;stroke-miterlimit:10;}
	.st24{stroke:#000000;stroke-width:5;stroke-miterlimit:10;}
	.st25{fill:#5B7077;stroke:#000000;stroke-miterlimit:10;}
	.st26{fill:none;stroke:#20382B;stroke-width:3;stroke-miterlimit:10;}
	.st27{fill:none;stroke:#000000;stroke-width:3;stroke-miterlimit:10;}
	.st28{fill:none;stroke:#000000;stroke-width:4;stroke-miterlimit:10;}
	.st29{opacity:0.5;fill:#231F20;stroke:#000000;stroke-width:3;stroke-miterlimit:10;}
	.st30{fill:none;stroke:#000000;stroke-width:7;stroke-miterlimit:10;}
	.st31{fill:#231F20;stroke:#000000;stroke-width:3;stroke-miterlimit:10;}
	.st32{fill:#426646;stroke:#000000;stroke-width:2;stroke-miterlimit:10;}
</style>
<g>
	<path class="st0" d="M1424.15,1156.72"/>
	<path class="st1" d="M1570.3,426.76c14.8-39.75,25.52-73.72,32.93-98.92c32.15-109.4,30.82-151.86,29.37-171.18
		c-1.9-25.25-6.62-45.67-10.33-59c-16.59-17.37-62.03-60.28-133.32-73c-95.42-17.03-167.24,32.49-183.07,44
		c-5.28,8.11-12.82,21.7-16.9,40c-3.78,16.96-2.98,30.79-1.88,43c7.61,84.34,35.51,154.29,44.72,176.38l0,0
		c13.15,32.24,26.3,64.49,39.44,96.73"/>
	<path class="st2" d="M1521.48,291.42c2.63,23.55-6,13-8,90c-2.94,9.27-8.97,25.81-22,43c-10.02,13.22-18.65,24.6-30,25
		c-18.93,0.66-33.56-29.65-40-43c-13.52-28-6-64-11-106C1431.52,274.18,1479.16,267.51,1521.48,291.42z"/>
	<g>
		<path class="st3" d="M1576.1,794.47c1.96-4.29,6.31-15.17,1.38-22.05c-3.4-4.74-9.72-5.52-11.98-5.8
			c-54.87-6.94-12.26-12.05-90.68-13.56c-40.48-0.78-83.06-0.96-118.58,18.47c-1.8,0.98-3.64,2.08-4.69,3.84
			c-0.89,1.49-1.1,3.28-1.28,5.02c-3.14,30.51-3.29,61.33-0.43,91.87c0.78,8.37,1.82,16.83,4.83,24.68
			c4.34,11.31,12.51,20.66,20.51,29.75c3.94,4.47,8.06,9.08,13.52,11.46c6.31,2.74,13.48,2.14,20.35,2.42
			c10.01,0.41,19.83,2.81,29.79,3.85c9.96,1.05,20.5,0.62,29.29-4.19c5.89-3.23,10.6-8.21,15.19-13.11
			c13.19-14.04,26.4-28.12,38.09-43.43c4.17-5.47,8.16-11.11,12.94-16.05c5.42-5.6,11.8-10.25,16.83-16.21
			c6.23-7.37,10.11-16.39,13.9-25.26c3.64-8.52,8.12-20.32,11.8-35.05"/>
		<g>
			<path d="M1577.4,795.22c3.94-8.68,7.14-21.68-2.99-27.49c-3.89-2.23-8.32-2.52-12.66-3.11c-4.1-0.56-8.19-1.19-12.26-1.96
				c-4.58-0.87-9.17-1.91-13.54-3.56c-0.33-0.13-0.66-0.25-0.99-0.39c-0.14-0.06-0.28-0.11-0.43-0.17
				c-0.12-0.05-0.76-0.32-0.29-0.12c-0.58-0.25-1.16-0.5-1.75-0.76c-1.22-0.54-2.44-1.07-3.69-1.53c-3.54-1.3-7.27-1.92-11-2.4
				c-7.97-1.03-16.04-1.36-24.07-1.66c-13.33-0.5-26.68-0.77-40.02-0.77c-13.44,0-26.9,0.41-40.26,1.93
				c-13.19,1.51-26.3,4.08-38.84,8.51c-6.18,2.18-12.21,4.79-17.99,7.87c-2.68,1.43-5.54,2.96-6.81,5.88
				c-1.35,3.1-1.27,6.98-1.57,10.3c-2.76,30.22-2.8,60.94,0.57,91.11c0.8,7.14,1.98,14.32,4.65,21.03
				c2.48,6.22,6.04,11.89,10.1,17.19c4,5.24,8.35,10.24,12.79,15.11c4.45,4.88,9.49,9.18,16.09,10.68
				c6.7,1.52,13.68,0.79,20.48,1.38c7.41,0.64,14.71,2.15,22.08,3.14c13.3,1.78,27.41,1.47,38.54-6.98
				c5.36-4.08,9.84-9.2,14.43-14.1c5.08-5.42,10.14-10.85,15.09-16.38c4.85-5.41,9.6-10.9,14.16-16.55
				c4.53-5.6,8.69-11.48,13.22-17.07c4.41-5.43,9.54-9.99,14.69-14.68c5.01-4.56,9.41-9.51,12.89-15.36
				c3.45-5.8,6.1-12.04,8.72-18.25c2.13-5.03,4.1-10.13,5.88-15.29c2.19-6.34,4.09-12.78,5.72-19.29c0.47-1.87-2.42-2.67-2.89-0.8
				c-2.95,11.75-6.79,23.27-11.53,34.42c-2.56,6.01-5.14,12.06-8.49,17.69c-3.43,5.77-7.79,10.56-12.74,15.05
				c-5,4.53-9.95,8.96-14.22,14.21c-4.4,5.39-8.41,11.09-12.77,16.51c-9,11.2-18.73,21.79-28.55,32.28
				c-4.53,4.84-8.94,9.96-14.08,14.19c-5.06,4.16-10.95,6.68-17.39,7.72c-13.82,2.23-27.61-1.94-41.29-3.33
				c-6.72-0.68-13.64,0.07-20.28-1.23c-6.51-1.27-11.26-5.32-15.61-10.09c-8.69-9.54-17.93-19.75-22.51-32.02
				c-2.47-6.6-3.56-13.61-4.29-20.58c-0.77-7.32-1.31-14.66-1.7-22.01c-0.79-14.82-0.88-29.68-0.26-44.51
				c0.31-7.41,0.79-14.82,1.45-22.21c0.16-1.81,0.33-3.61,0.51-5.42c0.16-1.62,0.24-3.4,0.98-4.89c1.32-2.65,4.91-4,7.4-5.26
				c11.45-5.84,23.79-9.75,36.36-12.3c25.61-5.19,51.97-4.86,77.98-4.36c11.19,0.22,22.39,0.47,33.56,1.25
				c5.36,0.38,10.43,0.76,15.58,1.92c1.44,0.32,2.86,0.72,4.25,1.22c0.59,0.21,1.17,0.44,1.75,0.68c0.37,0.15-0.29-0.13,0.08,0.03
				c0.14,0.06,0.29,0.12,0.43,0.19c0.27,0.12,0.53,0.23,0.8,0.35c2.92,1.28,5.85,2.44,8.92,3.31c6.08,1.72,12.35,2.74,18.6,3.65
				c4.16,0.6,8.37,0.73,12.31,2.15c2.36,0.85,4.57,2.31,5.91,4.46c1.34,2.15,1.74,4.68,1.67,7.18c-0.13,4.42-1.62,8.78-3.43,12.77
				C1574.01,795.45,1576.6,796.98,1577.4,795.22L1577.4,795.22z"/>
		</g>
	</g>
	<g>
		<path class="st4" d="M1412.98,299.92c11.99-6.42,36.45-17.3,68.33-16.11c16.83,0.63,30.72,4.43,40.67,8.11c-2,15-4,30-6,45
			c0,0-23.03,18.75-36.31,22.96c-17.24,5.47-32.91,4.91-46.59,4.21c-8.43-0.43-15.37-1.39-20.1-2.18"/>
	</g>
	<path class="st5" d="M1610.48,182.42c6.29-9.18,23.41-32.13,20-60.38c-4.5-37.34-42.27-67.01-76.3-76.89
		c-41.91-12.17-88.54,2.68-91-7c-0.31-1.2,0.04-2.91,1-4c5.07-5.78,27.56,5.08,27,7c-0.31,1.07-7.95,0.35-36-6
		c-1.96-1.72-5.35-4.45-10-7c-52.38-28.71-140.65,34.5-139,38c1.68,3.56,103.89-38.88,105-36c0.22,0.56-3,4-3,4
		c-13.09,2.68-28.93,7.19-46,15c-29.27,13.39-49.97,30.91-63,44c-1.81,27.2-0.54,79.81,34.3,118.26
		C1402.91,288.04,1559.66,256.55,1610.48,182.42z"/>
	<path class="st2" d="M1308.48,173.42c-10.38,4.58-10.06,25.47-10,28c1.09,43.16,55.54,68.45,59,70c12.05,5.4,24.6,11.04,30,6
		c10.43-9.73-12.72-52.96-40-81C1338.08,186.76,1320.11,168.29,1308.48,173.42z"/>
	<path class="st2" d="M1611.9,173.86c10.38,4.58,10.06,25.47,10,28c-1.09,43.16-55.54,68.45-59,70c-12.05,5.4-24.6,11.04-30,6
		c-10.43-9.73,12.72-52.96,40-81C1582.3,187.2,1600.27,168.73,1611.9,173.86z"/>
	<path class="st2" d="M1334.48,158.42c3,48,28,110,28,110s9,45,99,83c15.38-5.65,63.48-25.54,97-78c21-54,31.35-104.69,30-121
		c-9.02-56.66-54.24-130.14-123-132C1393.25,18.47,1342.11,96.82,1334.48,158.42z"/>
	<path class="st6" d="M1440.48,89.42c-7,66-29,96-29,96s56-29,45-39c1.76,1.49-14,45-32,55c4.73,6.17,28.68-0.81,44-13
		c43.35-34.5,25.69-117.12,23-129"/>
	<path class="st6" d="M1471.48,75.42c14.01,28.85,62.09,68.06,100.58,100.55c6.89,5.82-1.42,24.24-12.58,42.45
		c3.27,3.09,12.2-1.57,14.1-2.56c14.74-7.68,24.59-25.25,24.9-47.44"/>
	<path class="st0" d="M1334.48,208.3"/>
	<path class="st5" d="M1599.48,162.42c13.28-12.14-9.4-78.73-56.3-113.26c-61.44-45.24-168.58-38.51-210.7,20.26
		c-23.13,32.28-27.56,81.51-11,92c28.84,18.27,125.02-83.91,136.5-72.5c4.98,4.95-11.12,26.16-4.5,32.5
		c7.01,6.71,25.92-16.2,49.5-12.5c23.3,3.66,24.19,29.06,59,46C1570.03,158.84,1591.64,169.59,1599.48,162.42z"/>
	<g>
		<g>
			<path d="M1440.86,88.55c0.78-3.65,1.16-7.39,1.13-11.12c-0.01-1.07-1.29-1.96-2.26-1.3c-3.41,2.35-6.52,5.1-9.24,8.23
				c-0.53,0.61-0.6,1.52,0,2.12c0.54,0.54,1.59,0.61,2.12,0c2.55-2.93,5.44-5.55,8.63-7.76c-0.75-0.43-1.5-0.86-2.26-1.3
				c0.04,3.47-0.3,6.93-1.02,10.33c-0.17,0.79,0.23,1.62,1.05,1.85C1439.76,89.81,1440.69,89.35,1440.86,88.55L1440.86,88.55z"/>
		</g>
	</g>
	<g>
		<path d="M1497.92,105.52c-0.74,0.01-0.84-7.33-3.11-21.84c-1.42-9.13-2.97-16.61-4.1-21.68c2.72,4.55,6.13,11.49,7.76,20.42
			C1500.67,94.42,1498.83,105.51,1497.92,105.52z"/>
		<g>
			<path d="M1497.92,104.02c0.38,0.04,1.05,0.54,1.12,0.59c0.02,0.01,0.09,0.37,0.07,0.15c-0.02-0.19-0.1-0.39-0.14-0.58
				c-0.16-0.76-0.17-1.05-0.26-1.76c-0.28-2.33-0.51-4.67-0.79-7.01c-0.92-7.81-2.12-15.58-3.59-23.3
				c-0.67-3.51-1.39-7.02-2.17-10.51c-0.91,0.39-1.83,0.77-2.74,1.16c4.15,6.98,6.96,14.7,8.04,22.76
				c0.58,4.34,0.71,8.76,0.39,13.12c-0.1,1.42-0.25,2.85-0.53,4.25c-0.1,0.47-0.21,0.94-0.35,1.4c-0.1,0.32-0.1,0.12-0.06,0.19
				c-0.02,0.05-0.05,0.1-0.08,0.14c0.16-0.27,0.39-0.44,0.7-0.54c-1.9,0.33-1.09,3.23,0.8,2.89c1.53-0.27,1.81-2.79,2.02-3.96
				c0.52-3.01,0.68-6.08,0.67-9.12c-0.03-7.98-1.44-15.95-4.42-23.36c-1.29-3.21-2.82-6.31-4.58-9.28
				c-0.89-1.49-3.11-0.49-2.74,1.16c1.69,7.58,3.12,15.21,4.29,22.89c0.93,6.14,1.48,12.32,2.32,18.47c0.19,1.35,0.34,3.1,2.04,3.27
				C1499.84,107.21,1499.83,104.2,1497.92,104.02z"/>
		</g>
	</g>
	<g>
		<g>
			<path d="M1604.08,163.36c0-3.52,0-7.03,0-10.55c0-0.81-0.69-1.5-1.5-1.5c-0.81,0-1.5,0.69-1.5,1.5c0,3.52,0,7.03,0,10.55
				c0,0.81,0.69,1.5,1.5,1.5C1603.39,164.86,1604.08,164.17,1604.08,163.36L1604.08,163.36z"/>
		</g>
	</g>
	<g>
		<g>
			<path d="M1383.28,42.57c9.05-0.66,18.17-0.34,27.14,1.02c1.89,0.29,2.7-2.6,0.8-2.89c-9.25-1.4-18.6-1.81-27.94-1.13
				C1381.37,39.71,1381.36,42.71,1383.28,42.57L1383.28,42.57z"/>
		</g>
	</g>
	<g>
		<g>
			<path d="M1482.05,49.71c-1.68-3.47-4.81-6.12-8.44-7.34c-0.74-0.25-1.67,0.29-1.85,1.05c-0.19,0.83,0.25,1.58,1.05,1.85
				c0.2,0.07,0.4,0.14,0.59,0.21c0.16,0.06,0.2,0.06,0.01,0c0.1,0.03,0.22,0.09,0.31,0.14c0.38,0.18,0.76,0.37,1.12,0.58
				c0.35,0.2,0.68,0.42,1.01,0.66c0.08,0.06,0.15,0.11,0.23,0.17c0.31,0.23-0.24-0.2,0.06,0.05c0.16,0.13,0.32,0.27,0.48,0.41
				c0.3,0.27,0.59,0.55,0.86,0.84c0.14,0.15,0.28,0.31,0.42,0.47c0.06,0.07,0.12,0.15,0.18,0.22c0.04,0.05,0.3,0.33,0.05,0.06
				c0.55,0.59,0.96,1.43,1.31,2.15c0.34,0.71,1.41,0.95,2.05,0.54C1482.23,51.29,1482.41,50.46,1482.05,49.71L1482.05,49.71z"/>
		</g>
	</g>
	<g>
		<g>
			<path d="M1564.23,49.41c8.24,14.54,15.54,29.59,21.83,45.07c0.72,1.77,3.62,0.99,2.89-0.8c-6.38-15.72-13.76-31.02-22.13-45.79
				C1565.86,46.22,1563.27,47.73,1564.23,49.41L1564.23,49.41z"/>
		</g>
	</g>
	<g>
		<g>
			<path d="M1317.65,110.08c0.55-4.03,2.17-7.72,3.86-11.38c1.77-3.84,3.6-7.66,5.48-11.45c3.72-7.51,7.64-14.92,11.75-22.23
				c0.95-1.68-1.64-3.2-2.59-1.51c-4.19,7.44-8.18,15-11.97,22.66c-1.87,3.79-3.7,7.61-5.47,11.46c-1.72,3.74-3.4,7.55-3.96,11.67
				c-0.11,0.81,0.2,1.6,1.05,1.85C1316.5,111.33,1317.54,110.88,1317.65,110.08L1317.65,110.08z"/>
		</g>
	</g>
	<path class="st7" d="M1310.48,187.42c-1.18,3.76-3.06,11.56-1,21c1.38,6.34,4.03,11.08,6,14"/>
	<path class="st7" d="M1611.58,186.24c1.18,3.76,3.06,11.56,1,21c-1.38,6.34-4.03,11.08-6,14"/>
	<path class="st8" d="M1510.48,281.42c-6.71-0.63-82.74,6.38-92,12c-12.7,7.71,18.49,41.69,47,41
		C1498.84,333.61,1525.74,282.84,1510.48,281.42z"/>
	<path class="st9" d="M1511.48,299.42c-25.13-3.02-44.51-1.31-58,1c0,0-2.73,0.47-35,7l0,0c0,0,19,28,50,27
		C1482.48,332.42,1499.48,320.42,1511.48,299.42z"/>
	<path class="st10" d="M1427.48,297.42c21.78-3.89,61.43-4.53,77-10c2.66-0.93,3.77-5.29,2-6c-4.41-1.76-84.92,9.09-85,11
		C1421.45,293.03,1421.1,298.56,1427.48,297.42z"/>
	<path class="st11" d="M1411.48,1404.42c0,0-9.49,47.39-6,99c3.31,49.02,22.2,90.39,25,120c1.24,25.38,1.14,49.01-4,66
		c-8.09,5.12-31.96,18.74-64.52,16.43c-25.88-1.84-44.29-12.81-52.48-18.43c-1.56-6.42-3.46-16.11-4-28c-0.9-19.88,2.55-34.07,8-57
		c2.99-12.58,7.85-33.18,15-64c1.77-44.7,0.48-87.89-5-129C1350.98,1415.4,1380.61,1412.47,1411.48,1404.42z"/>
	<path class="st12" d="M1416.48,1632.42c-26.14-29.43-87-20-97,1"/>
	<path class="st12" d="M1306.48,1670.42c40.99,18.4,81.99,18.89,123,1"/>
	<path class="st11" d="M1514.48,1404.42c1.48,21.25,2.61,43.26,3.28,66.01c0.56,18.83,0.78,37.17,0.72,54.99
		c-7.7,32.51-15.4,65.01-23.09,97.52c0,0-1.14,49.01,4,66c8.09,5.12,31.96,18.74,64.52,16.43c25.88-1.84,44.29-12.81,52.48-18.43
		c1.56-6.42,3.46-16.11,4-28c0.9-19.88-2.55-34.07-8-57c-2.99-12.58-7.85-33.18-15-64c-0.53-21.14-0.64-43.11-0.22-65.85
		c0.49-26.29,1.65-51.55,3.31-75.67c-6.46,4.51-20.66,13.14-40.83,15.28C1538.2,1413.97,1521.67,1407.67,1514.48,1404.42z"/>
	<path class="st12" d="M1509.38,1631.94c26.14-29.43,87-20,97,1"/>
	<path class="st12" d="M1619.38,1669.94c-40.99,18.4-81.99,18.89-123,1"/>
	<g>
		<path class="st13" d="M1402.52,1545.59c2.36,16.01,5.38,31.92,9.07,47.67"/>
		<g>
			<path class="st14" d="M1398.18,1546.79c2.36,16.01,5.39,31.91,9.07,47.67c0.54,2.29,3.29,3.87,5.54,3.14
				c2.4-0.78,3.72-3.08,3.14-5.54c-3.68-15.76-6.7-31.66-9.07-47.67c-0.35-2.34-3.42-3.83-5.54-3.14
				C1398.77,1542.08,1397.81,1544.28,1398.18,1546.79L1398.18,1546.79z"/>
		</g>
	</g>
	<g>
		<path class="st15" d="M1588.61,1550.23c5.41,16.13,10.82,32.27,16.23,48.4"/>
		<g>
			<path class="st14" d="M1584.27,1551.43c5.41,16.13,10.82,32.27,16.23,48.4c0.75,2.23,3.13,3.92,5.54,3.14
				c2.22-0.72,3.94-3.15,3.14-5.54c-5.41-16.13-10.82-32.27-16.23-48.4c-0.75-2.23-3.13-3.92-5.54-3.14
				C1585.2,1546.61,1583.47,1549.04,1584.27,1551.43L1584.27,1551.43z"/>
		</g>
	</g>
	<g>
		<path class="st15" d="M1377.1,1624.89c6.8,2.25,13.24,5.54,19.04,9.73"/>
		<g>
			<path class="st14" d="M1375.91,1629.23c0.86,0.29,1.72,0.59,2.57,0.91c0.43,0.16,0.85,0.32,1.27,0.49
				c0.21,0.08,1.63,0.65,0.5,0.19c1.58,0.64,3.12,1.39,4.63,2.17c3.13,1.61,6.14,3.46,9,5.52c1.92,1.38,5.09,0.4,6.16-1.61
				c1.23-2.33,0.43-4.68-1.61-6.16c-6.13-4.41-12.95-7.8-20.12-10.19c-2.23-0.74-5.02,0.86-5.54,3.14
				C1372.2,1626.18,1373.51,1628.43,1375.91,1629.23L1375.91,1629.23z"/>
		</g>
	</g>
	<g>
		<path class="st15" d="M1564.97,1627.86c9.57,0.06,19.09,3.5,26.49,9.56"/>
		<g>
			<path class="st14" d="M1564.97,1632.36c1.13,0.01,2.25,0.06,3.37,0.16c0.28,0.02,0.56,0.06,0.84,0.08c0.38,0.04,0.53,0.06,0.06,0
				c0.56,0.07,1.11,0.17,1.67,0.27c2.28,0.41,4.54,1.01,6.72,1.79c0.53,0.19,1.05,0.41,1.58,0.6c0.68,0.24-0.56-0.26,0.09,0.03
				c0.26,0.11,0.51,0.23,0.77,0.34c1.02,0.47,2.03,0.98,3.01,1.53c0.98,0.55,1.94,1.14,2.88,1.76c0.47,0.31,0.93,0.63,1.38,0.97
				c0.06,0.04,0.73,0.54,0.39,0.28c-0.37-0.29,0.56,0.45,0.54,0.43c1.83,1.48,4.6,1.92,6.36,0c1.51-1.64,1.95-4.78,0-6.36
				c-8.43-6.84-18.78-10.75-29.67-10.88c-2.35-0.03-4.61,2.09-4.5,4.5C1560.58,1630.33,1562.45,1632.33,1564.97,1632.36
				L1564.97,1632.36z"/>
		</g>
	</g>
	<line class="st16" x1="1467.48" y1="203.42" x2="1454.48" y2="211.42"/>
	<line class="st16" x1="1468.48" y1="208.42" x2="1447.48" y2="221.42"/>
	<line class="st16" x1="1473.48" y1="211.42" x2="1446.48" y2="228.42"/>
	<line class="st16" x1="1475.48" y1="217.42" x2="1447.48" y2="234.42"/>
	<line class="st16" x1="1478.48" y1="221.42" x2="1449.48" y2="238.42"/>
	<path class="st17" d="M1461.48,247.92c-0.17,4-0.33,8-0.5,12c-1.83-1.67-3.67-3.33-5.5-5"/>
	<g>
		<g>
			<path class="st4" d="M1367.41,237.21c-0.61,0.82-1.22,1.63-1.83,2.45c-0.11,0.17-0.17,0.36-0.18,0.56
				c-0.04,0.2-0.04,0.4,0.03,0.6c0.1,0.35,0.36,0.72,0.69,0.9c0.35,0.18,0.77,0.28,1.16,0.15c0.12-0.05,0.24-0.1,0.36-0.15
				c0.23-0.13,0.4-0.31,0.54-0.54c0.61-0.82,1.22-1.63,1.83-2.45c0.11-0.17,0.17-0.36,0.18-0.56c0.04-0.2,0.04-0.4-0.03-0.6
				c-0.1-0.35-0.36-0.73-0.69-0.9c-0.35-0.18-0.77-0.28-1.16-0.15c-0.12,0.05-0.24,0.1-0.36,0.15
				C1367.72,236.8,1367.54,236.98,1367.41,237.21L1367.41,237.21z"/>
		</g>
	</g>
	<g>
		<g>
			<path class="st4" d="M1371.36,239.94c-0.2,0.31-0.41,0.61-0.61,0.92c-0.11,0.17-0.17,0.36-0.18,0.56c-0.04,0.2-0.04,0.4,0.03,0.6
				c0.05,0.2,0.14,0.37,0.27,0.51c0.11,0.16,0.25,0.29,0.42,0.39c0.12,0.05,0.24,0.1,0.36,0.15c0.27,0.07,0.53,0.07,0.8,0
				c0.12-0.05,0.24-0.1,0.36-0.15c0.23-0.13,0.4-0.31,0.54-0.54c0.2-0.31,0.41-0.61,0.61-0.92c0.11-0.17,0.17-0.36,0.18-0.56
				c0.04-0.2,0.04-0.4-0.03-0.6c-0.05-0.2-0.14-0.37-0.27-0.51c-0.11-0.16-0.25-0.29-0.42-0.39c-0.12-0.05-0.24-0.1-0.36-0.15
				c-0.27-0.07-0.53-0.07-0.8,0c-0.12,0.05-0.24,0.1-0.36,0.15C1371.67,239.54,1371.49,239.72,1371.36,239.94L1371.36,239.94z"/>
		</g>
	</g>
	<g>
		<g>
			<path class="st4" d="M1540.85,239.79c0,0.51,0,1.02,0,1.53c-0.01,0.21,0.04,0.4,0.13,0.58c0.06,0.19,0.16,0.35,0.31,0.48
				c0.14,0.15,0.3,0.25,0.48,0.31c0.18,0.09,0.37,0.14,0.58,0.13c0.13-0.02,0.27-0.04,0.4-0.05c0.25-0.07,0.47-0.2,0.66-0.39
				c0.27-0.29,0.44-0.65,0.44-1.06c0-0.51,0-1.02,0-1.53c0.01-0.21-0.04-0.4-0.13-0.58c-0.06-0.19-0.16-0.35-0.31-0.48
				c-0.14-0.15-0.3-0.25-0.48-0.31c-0.18-0.09-0.37-0.14-0.58-0.13c-0.13,0.02-0.27,0.04-0.4,0.05c-0.25,0.07-0.47,0.2-0.66,0.39
				C1541.02,239.02,1540.85,239.38,1540.85,239.79L1540.85,239.79z"/>
		</g>
	</g>
	<g>
		<g>
			<path class="st4" d="M1545.4,238.6c0.01,0.01,0.02,0.03,0.04,0.04c-0.08-0.1-0.16-0.2-0.23-0.3c0.24,0.32,0.44,0.66,0.6,1.03
				c-0.05-0.12-0.1-0.24-0.15-0.36c0.17,0.4,0.28,0.82,0.34,1.26c-0.02-0.13-0.04-0.27-0.05-0.4c0.05,0.38,0.05,0.76,0.01,1.13
				c-0.04,0.36,0.2,0.82,0.44,1.06c0.26,0.26,0.69,0.46,1.06,0.44c0.39-0.02,0.79-0.14,1.06-0.44c0.08-0.1,0.16-0.2,0.23-0.3
				c0.14-0.23,0.2-0.49,0.2-0.76c0.08-0.75,0-1.53-0.21-2.25c-0.12-0.4-0.28-0.8-0.47-1.18c-0.2-0.4-0.47-0.74-0.74-1.09
				c-0.22-0.28-0.72-0.44-1.06-0.44c-0.37,0-0.81,0.16-1.06,0.44c-0.26,0.29-0.46,0.66-0.44,1.06c0.02,0.13,0.04,0.27,0.05,0.4
				C1545.08,238.19,1545.21,238.41,1545.4,238.6L1545.4,238.6z"/>
		</g>
	</g>
	<path class="st6" d="M1446.48,92.42c-12.82,8.94-94,84-101,114c-2,5,9.6,31.37,11,31c0.08-0.02,0.11-0.11,0.12-0.15
		c0.66-2.62-54.89-18.44-44.12-91.85"/>
	<path class="st18" d="M1247.48,821.42c-9.32-22.98-46.89-35.47-58-25c-6.56,6.18-0.38,17.04,7.5,51.5
		c14.68,64.16,7.8,94.41,28.5,104.5c1.9,0.93,10.53,5.13,16.5,1.5c13.15-8-7.14-41.56,0.5-91.5
		C1246.01,839.32,1252.33,833.39,1247.48,821.42z"/>
	<path class="st11" d="M1241.48,961.42c0,0,27,14,33,14c1.71-1.44,2.01-4.02,1.86-6.32c0,0,0.03-2.36-0.86-4.68c-1.55-4-13-9-13-9
		c-7.72-3.34-10.71-3.63-13-7c-1.45-2.13-2-6-2-6"/>
	<path class="st11" d="M1185.98,799.92c0.73,21.69-10.53,95.94-14,96c0,0,20.29,46.84,28,71l71,19c0.47-2,0.59-3.84,0.5-5.5
		c-0.9-16.92-24.34-26.9-27-28"/>
	<path class="st11" d="M1247.48,833.42c4,29-1,61-1,61c1.23,15.69,2.5,31.33,8,41c-1.73,6.5-7.11,7.99-15,6
		c-6.77-5.51-11.2-22.27-15-42c0,0-19.21-9.78-19.43-9.37c-0.02,0.04,0.12,0.16,0.43,0.37"/>
	<path class="st12" d="M1200.48,901.42c7.12,15,13.28,30,18,45"/>
	<path class="st18" d="M1674.49,833.77c9.32-22.98,46.89-35.47,58-25c6.56,6.18,0.38,17.04-7.5,51.5
		c-14.68,64.16-7.8,94.41-28.5,104.5c-1.9,0.93-10.53,5.13-16.5,1.5c-13.15-8,7.14-41.56-0.5-91.5
		C1675.96,851.67,1669.64,845.74,1674.49,833.77z"/>
	<path class="st11" d="M1680.49,973.77c0,0-27,14-33,14c-1.71-1.44-2.01-4.02-1.86-6.32c0,0-0.03-2.36,0.86-4.68c1.55-4,13-9,13-9
		c7.72-3.34,10.71-3.63,13-7c1.45-2.13,2-6,2-6"/>
	<path class="st11" d="M1735.99,812.27c-0.73,21.69,10.53,95.94,14,96c0,0-20.29,46.84-28,71l-71,19c-0.47-2-0.59-3.84-0.5-5.5
		c0.9-16.92,24.34-26.9,27-28"/>
	<path class="st11" d="M1674.49,845.77c-4,29,1,61,1,61c-1.23,15.69-2.5,31.33-8,41c1.73,6.5,7.11,7.99,15,6
		c6.77-5.51,11.2-22.27,15-42c0,0,19.21-9.78,19.43-9.37c0.02,0.04-0.12,0.16-0.43,0.37"/>
	<path class="st11" d="M1721.49,913.77c-7.12,15-13.28,30-18,45"/>
	<path class="st1" d="M1515.33,379.76c40.48,9.2,80.96,18.4,121.43,27.6c7.75,21.46,10.98,43.27,13.71,65.05
		c13.88,110.47,61.48,208.21,82,297c11.61,29.33,19.3,58.66,18,88c-25.1,45.84-57.16,44.47-91,31c-29-130.67-58-261.33-87-392"/>
	<path class="st1" d="M1414.33,380.76c-35.62,7.55-71.24,15.1-106.85,22.66c-7.82,24.9-15.49,50.24-23,76
		c-17.62,60.47-33.2,119.53-47,177c-13.65,31.92-27.04,66.91-39.39,104.86c-8.34,25.65-15.49,50.42-21.61,74.14
		c3.41,6.84,14.91,27.7,40,39c15.21,6.85,29.12,7.34,37,7c36.33-132,72.67-264,109-396"/>
	<path class="st19" d="M1399.48,437.42c-3.57-10.65-16.34-15.55-26-14c-16.11,2.59-27.13,23.73-21,35c6,11.04,28.53,12.72,40,2
		C1397.72,455.52,1402.47,446.35,1399.48,437.42z"/>
	<path class="st19" d="M1586.94,428.8c-3.39-11.02-17.16-16.07-26.97-15.89c-22.05,0.42-41.46,27.71-36,40
		c5.67,12.76,40.77,15.35,55.97-1.11C1580.81,450.86,1590.43,440.14,1586.94,428.8z"/>
	<path class="st1" d="M1580.48,779.42c4.6,14.24,9.07,29.14,13.31,44.68c5.8,21.27,10.65,41.76,14.69,61.32
		c-2.61,33.57-1.84,88.24-4,155.5c-8.23,255.9,26.72,395.77,13.84,448.12c-4.65,18.9-44.42,24.68-107,8
		c-3.96-152.12-15.8-311.25-37.84-476.37c-3.47-25.98-7.14-51.74-11-77.25c-17.67-0.67-35.33-1.33-53-2"/>
	<path class="st1" d="M1348.48,778.42c-9,35.33-18,70.67-27,106c2.21,33.83,1.01,88.39,3.22,155.42
		c8.91,269.79-25.38,413.19-7.38,457.19c12.93,12.56,42.18,20.52,99,2c2.39-41.87,4.77-83.74,7.16-125.62
		c6.93-103.95,15.81-210.12,26.88-318.39c3.84-37.52,7.88-74.72,12.12-111.61c21.34-0.84,32.01-1.51,32-2
		c-0.01-0.74-24.68-1.08-74-1"/>
	<g>
		<path class="st20" d="M1372.76,835.68c-0.95,11.6-1.9,23.2-2.86,34.79c-0.13,1.56-0.27,3.16-0.92,4.59
			c-1.24,2.72-3.46,4.14-4.01,4.51c-3.49,2.39-16.83,15.24-37.5,35.85"/>
		<g>
			<path class="st20" d="M1371.26,835.68c-0.73,8.95-1.47,17.89-2.2,26.84c-0.18,2.24-0.37,4.47-0.55,6.71
				c-0.16,1.96-0.19,4.02-1.18,5.78c-0.9,1.61-2.25,2.6-3.68,3.68c-2.43,1.84-4.66,3.96-6.89,6.04c-3.92,3.65-7.76,7.37-11.59,11.11
				c-6.29,6.13-12.52,12.32-18.74,18.52c-1.37,1.36,0.75,3.49,2.12,2.12c9.75-9.72,19.5-19.48,29.55-28.89
				c2.33-2.18,4.66-4.42,7.18-6.39c-0.32,0.25,0.13-0.1,0.25-0.18c0.2-0.14,0.4-0.27,0.6-0.41c1.08-0.77,2.05-1.64,2.87-2.69
				c2.55-3.28,2.42-7.46,2.75-11.41c0.84-10.27,1.69-20.54,2.53-30.82C1374.41,833.76,1371.41,833.77,1371.26,835.68L1371.26,835.68
				z"/>
		</g>
	</g>
	<g>
		<path class="st21" d="M1550.11,826.73c-0.05,8.17-0.09,16.34-0.14,24.51c-0.01,1.35,0.03,2.82,0.88,3.86
			c0.69,0.84,1.77,1.22,2.79,1.57c12.15,4.1,24.29,8.21,36.44,12.31"/>
		<g>
			<path class="st21" d="M1548.61,826.73c-0.03,4.82-0.06,9.64-0.08,14.46c-0.01,2.45-0.03,4.9-0.04,7.35
				c-0.01,1.94-0.28,4.15,0.39,6.02c0.68,1.88,2.24,2.79,4.03,3.43c2.31,0.83,4.65,1.57,6.97,2.36c4.65,1.57,9.31,3.14,13.96,4.72
				c5.28,1.79,10.57,3.57,15.85,5.36c1.83,0.62,2.62-2.28,0.8-2.89c-8.76-2.96-17.51-5.92-26.27-8.87
				c-2.13-0.72-4.26-1.44-6.39-2.16c-1.1-0.37-2.21-0.75-3.31-1.12c-0.77-0.26-1.76-0.48-2.36-1.08c-1.21-1.2-0.68-3.99-0.67-5.52
				c0.01-2.21,0.03-4.41,0.04-6.62c0.03-5.15,0.06-10.3,0.09-15.44C1551.63,824.8,1548.63,824.79,1548.61,826.73L1548.61,826.73z"/>
		</g>
	</g>
	<g>
		<path class="st3" d="M1331.64,437.42c0.65,151.26-1.29,263.38-3.15,301c-1.84,37.19-6.8,70.24-6.8,70.24
			c-2.67,28.67-5.33,57.33-8,86c35.52,7.22,75.73,13.41,120,17c49,3.97,93.71,3.99,133,2c6.7-1,23.98-4.52,39-19
			c9.86-9.51,14.69-19.82,17-26c-23.41-83.66-28.54-130.34-29-157c-0.04-2.6-0.2-14-0.33-26.24c-0.76-68.75-0.49-64.89-0.61-86.55
			c-0.1-17.52-4-41.89-3.8-77.96c0.05-9.47,0.35-20.8,1.26-33.77c1.65-23.54,4.66-43.22,7.35-57.72"/>
		<path d="M1331.76,437.42c0.27,92.9,0.21,185.83-2.31,278.7c-0.72,30.96-3.32,61.91-7.65,92.55c0,0-8.02,86-8.02,86
			c20.23,3.85,41.74,7.84,62.59,10.61c52.48,7.32,105.56,10.11,158.52,8.99c10.53-0.16,21.36-0.57,31.73-1.02
			c10.83-1.56,21.31-5.61,30.36-11.76c11.64-7.99,20.67-19.64,25.59-32.87c-4.92-17.39-9.61-35.69-13.77-53.55
			c-8.15-35.93-15.16-72.49-15.32-109.46c-0.23-17.92-0.73-65.61-0.81-83.05c-0.06-9.23,0.05-18.46-0.15-27.68
			c-0.33-9.22-1.22-18.41-1.89-27.61c-3.77-45.99-1.67-92.49,6.8-137.87c0,0,0.23,0.04,0.23,0.04
			c-8.47,45.36-10.57,91.83-6.8,137.81c0.67,9.2,1.56,18.39,1.89,27.62c0.2,15.77,0.16,39.3,0.34,55.37
			c0.54,32.82-0.56,78.51,5.3,110.46c5.66,36.48,14.52,72.38,24.39,107.93c-5.39,14.8-16.01,27.7-29.52,35.81
			c-8.1,4.91-17.17,8.16-26.53,9.63c-10.6,0.6-21.21,0.96-31.83,1.2c-53.01,0.93-106.06-2.58-158.57-9.82
			c-20.96-3-42.2-6.38-62.76-10.79c0,0,7.98-86,7.98-86c4.33-30.63,6.92-61.58,7.64-92.53
			C1331.97,623.4,1331.34,529.71,1331.76,437.42L1331.76,437.42z"/>
	</g>
	<path class="st22" d="M1339.48,953.42c-2.46,55.32,2.87,127.32,16,216"/>
	<path class="st22" d="M1358.48,1238.42c-6.28,42.67-9.62,85.33-10,128"/>
	<g>
		<path class="st20" d="M1583.48,960.42c-0.67,92.67-1.33,185.33-2,278"/>
		<path class="st20" d="M1583.53,960.42c-0.03,90.33-0.87,187.61-2,278c0,0-0.11,0-0.11,0
			C1581.71,1148.07,1581.95,1050.48,1583.53,960.42L1583.53,960.42z"/>
	</g>
	<path class="st22" d="M1587.48,1278.42c-3.38,36.31-6.95,69.93-11,97c-11.19,15.69-26.03,22.69-42,27"/>
	<g>
		<path d="M1578.92,699.65c-1.65,11.3-7.11,21.24-13.52,30.45c-2.22,3-4.56,5.93-7.48,8.55c0,0-0.88-0.47-0.88-0.47
			c2.37-13.31,10.8-30.01,21-39C1578.04,699.18,1578.92,699.65,1578.92,699.65L1578.92,699.65z"/>
	</g>
	<g>
		<path class="st20" d="M1384.48,483.42c16.06,82.14,33.1,158.71,53,219"/>
		<path class="st20" d="M1384.59,483.39c14.04,69,28.48,138.06,48.81,205.53c1.35,4.5,2.79,8.97,4.18,13.45l-0.22,0.07
			c-11.99-35.63-21.5-72.05-30.01-108.65C1399.18,557.29,1390.76,519.85,1384.59,483.39L1384.59,483.39z"/>
	</g>
	<g>
		<path class="st20" d="M1362.48,711.42c24.28,33.45,56.92,50.17,92,62"/>
		<path class="st20" d="M1362.58,711.35c21.57,29.21,51.72,47.18,85.32,59.54c0,0,6.63,2.41,6.63,2.41c0,0-0.08,0.23-0.08,0.23
			l-6.7-2.23c-24.43-8.38-48.1-20.51-66.89-38.47c-6.85-6.48-13.02-13.67-18.47-21.34C1362.38,711.49,1362.58,711.35,1362.58,711.35
			L1362.58,711.35z"/>
	</g>
	<line class="st22" x1="1524.48" y1="497.42" x2="1483.48" y2="601.42"/>
	<path class="st0" d="M1518.48,369.42"/>
	<path class="st0" d="M1518.48,360.42"/>
	<path class="st0" d="M1522.48,359.42"/>
	<path class="st23" d="M1559.48,352.42"/>
	<g>
		<path class="st20" d="M1567.2,680.12c-14.62,6.33-29.77,11.44-45.24,15.26c3.1,8.59,4.71,17.72,4.75,26.85"/>
		<g>
			<path class="st20" d="M1566.44,678.83c-14.51,6.26-29.54,11.3-44.88,15.11c-0.74,0.18-1.32,1.09-1.05,1.85
				c3.04,8.5,4.63,17.42,4.7,26.45c0.01,1.93,3.01,1.93,3,0c-0.07-9.28-1.68-18.51-4.81-27.25c-0.35,0.62-0.7,1.23-1.05,1.85
				c15.6-3.87,30.84-9.05,45.6-15.41C1569.72,680.66,1568.2,678.07,1566.44,678.83L1566.44,678.83z"/>
		</g>
	</g>
	<g>
		<path class="st20" d="M1494.95,622.9c9.99,0,19.97,0,29.96,0"/>
		<g>
			<path class="st20" d="M1494.95,624.4c9.99,0,19.97,0,29.96,0c1.93,0,1.93-3,0-3c-9.99,0-19.97,0-29.96,0
				C1493.02,621.4,1493.02,624.4,1494.95,624.4L1494.95,624.4z"/>
		</g>
	</g>
	<g>
		<path class="st20" d="M1330.17,457.21c-7.78,28.37-12.88,57.47-15.22,86.79"/>
		<g>
			<path class="st20" d="M1328.72,456.82c-6.08,22.23-10.53,44.88-13.32,67.76c-0.79,6.46-1.44,12.94-1.96,19.43
				c-0.15,1.92,2.85,1.91,3,0c1.83-22.78,5.32-45.42,10.45-67.69c1.44-6.27,3.02-12.5,4.72-18.7
				C1332.12,455.75,1329.23,454.95,1328.72,456.82L1328.72,456.82z"/>
		</g>
	</g>
	<g>
		<path class="st20" d="M1247.27,664.45c-0.09,2.37,0.64,4.68,1.37,6.93c2.78,8.64,5.56,17.28,8.35,25.92"/>
		<g>
			<path class="st20" d="M1245.77,664.45c-0.04,2.79,0.81,5.41,1.65,8.04c0.91,2.83,1.82,5.65,2.73,8.48
				c1.8,5.58,3.59,11.15,5.39,16.73c0.59,1.83,3.49,1.05,2.89-0.8c-1.75-5.42-3.49-10.84-5.24-16.26c-0.86-2.67-1.72-5.34-2.58-8.01
				c-0.86-2.66-1.89-5.35-1.85-8.18C1248.8,662.52,1245.8,662.52,1245.77,664.45L1245.77,664.45z"/>
		</g>
	</g>
	<g>
		<path class="st20" d="M1714.98,780.24c-14.49,12.7-29.32,25.83-38.15,42.95c-0.34,0.66-0.66,1.52-0.18,2.1
			c0.32,0.39,0.88,0.47,1.38,0.52c1.55,0.15,3.1,0.31,4.66,0.46"/>
		<g>
			<path class="st20" d="M1713.92,779.18c-13.71,12.02-27.77,24.41-36.87,40.46c-0.99,1.75-3.15,4.58-1.58,6.56
				c0.7,0.88,1.74,1.02,2.79,1.13c1.47,0.15,2.95,0.29,4.42,0.43c1.92,0.19,1.91-2.81,0-3c-1.09-0.11-2.17-0.21-3.26-0.32
				c-0.36-0.04-1.22,0.06-1.5-0.16c0,0,0.31-0.56,0.5-0.9c0.95-1.81,1.98-3.58,3.06-5.32c2.14-3.41,4.51-6.67,7.05-9.79
				c5.17-6.32,10.99-12.08,16.99-17.6c3.46-3.18,6.99-6.28,10.52-9.37C1717.49,780.02,1715.36,777.91,1713.92,779.18L1713.92,779.18
				z"/>
		</g>
	</g>
	<g>
		<path class="st21" d="M1625.56,431.84c-8.04,8.9-15.93,17.94-23.65,27.12"/>
		<g>
			<path class="st21" d="M1624.5,430.78c-8.04,8.9-15.93,17.94-23.65,27.12c-1.24,1.47,0.88,3.6,2.12,2.12
				c7.72-9.18,15.6-18.22,23.65-27.12C1627.91,431.47,1625.8,429.34,1624.5,430.78L1624.5,430.78z"/>
		</g>
	</g>
	<g>
		<path class="st20" d="M1255.25,717.95c-0.2,5.81,0.51,11.65,2.12,17.24c0.32,1.12,0.72,2.29,1.63,3.02
			c0.79,0.63,1.83,0.81,2.83,0.95c3.7,0.51,7.44,0.67,11.17,0.48"/>
		<g>
			<path class="st20" d="M1253.75,717.95c-0.1,3.32,0.08,6.64,0.54,9.93c0.42,3.03,0.94,6.27,2.11,9.11
				c0.49,1.19,1.23,2.26,2.4,2.87c1.3,0.68,2.83,0.79,4.26,0.96c3.3,0.39,6.62,0.48,9.93,0.32c1.92-0.09,1.93-3.09,0-3
				c-2.9,0.14-5.81,0.09-8.7-0.19c-1.21-0.12-2.58-0.15-3.73-0.58c-1.07-0.4-1.41-1.41-1.71-2.43c-1.63-5.51-2.29-11.27-2.11-17
				C1256.81,716.02,1253.81,716.02,1253.75,717.95L1253.75,717.95z"/>
		</g>
	</g>
	<path class="st3" d="M1324.18,252.15c2.93-18.49,11.17-51.8,38-78.78c54.31-54.63,162.63-61.1,209-4.49
		c25.91,31.63,24.39,73.1,22,93.27c10.99-14.15,45.25-61.99,42.72-129.74c-1.59-42.71-17.11-74.73-26.72-91.26
		c-27.87-11.62-69.04-24.71-120-27c-91.8-4.13-161.44,29.21-193,47c-5.42,21.45-11.98,59.19-4,105
		C1298.94,204.97,1313.48,234.27,1324.18,252.15z"/>
	<path class="st24" d="M1515.33,381.76c11.67,2.67,23.33,5.33,35,8c-11.67,19-23.33,38-35,57c-16.12,19.24-39.13,22.57-66,17
		c-16.03-0.62-30.02-9.73-43-23c-12.59-10.62-21.9-29.55-31-49c12.33-3,27-8,37-9c1.96,14.23,6.69,28.69,22,44
		c3.9,1.62,29.25,11.68,52-1c1.94-1.08,10.72-6.15,18.21-16.54C1512.43,398.26,1514.61,387.32,1515.33,381.76z"/>
	<path class="st19" d="M1350.33,401.76c-4.18-2.8-7.09-8.99-5-13c2.53-4.84,11.42-4.69,17-2c3.79,1.83,8.77,6.13,8,10
		C1369.28,402.06,1357.46,406.53,1350.33,401.76z"/>
	<g>
		<path d="M1577.47,418.1c-16.55,13.03-32.66,26.63-48.28,40.77"/>
	</g>
	<g>
		<path class="st21" d="M1368.24,427.35c4.25,6.89,9.5,13.15,15.53,18.53"/>
		<g>
			<path class="st21" d="M1366.95,428.1c4.33,6.99,9.64,13.35,15.77,18.84c1.43,1.28,3.56-0.83,2.12-2.12
				c-5.95-5.32-11.1-11.44-15.3-18.23C1368.52,424.95,1365.93,426.45,1366.95,428.1L1366.95,428.1z"/>
		</g>
	</g>
	<path class="st19" d="M1553.55,398.25h30v-8c-8.67-1-17.33-2-26-3C1556.22,390.92,1554.88,394.59,1553.55,398.25z"/>
	<path class="st3" d="M1305.82,61.53c4-0.59,12.27,3.88,12.77,9.13c0.12,1.2-0.1,2.49-0.77,3.87c-39.97,82.53,43.81,234.33,49,235
		c0.24,0.03,2.59,0.32,2.58,0.57c-0.03,0.65-15.83,0.74-19.58,0.43c-30.47-2.53-61.47-97.85-58-191
		C1292.12,111.54,1294.17,63.24,1305.82,61.53z"/>
	<path class="st3" d="M1605.18,46.15c-6.9,0.1-12.77,21.68-21,20c-2.46-0.5-4.62-2.73-5-5c-0.71-4.25,4.6-9.73,14-13l0,0l0,0l4,5
		c5.09,6.31,11.82,16.26,16.28,29.83c2.68,8.15,3.86,15.56,4.36,21.55c1.37,11.37,0.61,19.52-0.38,35.41
		c-1.35,21.66-5.42,49.36-16.62,88.59c0,0-17.85,82.29-40.93,85.6c-0.29,0.04-2.59,0.34-2.58,0.57c0.04,0.87,27.12,0.38,29.58-0.57
		c36.59-14.03,43.74-109.95,44.54-124.25C1635.76,112.2,1617.31,45.98,1605.18,46.15z"/>
	<path class="st3" d="M1606.82,58.53c-8.38-2.54-16.3,4.18-23,8c-6.4,3.65,26.08,26.11,27,74c0.07,3.59,6.79,2.51,10,1
		C1636.72,134.03,1631.6,66.04,1606.82,58.53z"/>
	<path class="st25" d="M1507.32,353.03c-22.32,24.48-73.81,24.93-94,2c-32.47-36.89,17.25-132.94,51-132
		C1496.57,223.93,1542.72,314.21,1507.32,353.03z"/>
	<path class="st3" d="M1506.32,468.03c34.08-16.12,66.76-54.68,58-80c-16.29-47.06-178.25-55.32-200-9
		c-11.48,24.46,14.99,66.54,48,86C1456.1,490.84,1500.84,470.63,1506.32,468.03z"/>
	<path class="st22" d="M1390.32,361.03c-22.04-0.49-39.38-16.25-57.5-29.5"/>
	<path class="st22" d="M1540.08,356.11c22.04-0.49,39.38-16.25,57.5-29.5"/>
	<path class="st22" d="M1299.32,93.03c16.11,1.01,42.92,0.5,73-11c18.54-7.09,32.86-16.26,43-24"/>
	<path class="st22" d="M1493.32,36.03c15.7-2.26,51.34-5.05,88,14c14.24,7.4,25.1,16.26,33,24"/>
	<path class="st26" d="M1287.82,125.53c25.09-15.91,68.59-38.75,127-47c91.46-12.91,162.91,17.96,191,32"/>
	<path class="st1" d="M1335.32,370.03c-17.78,12.48-31.91,29.65-42,52c20.32,15.79,84.94,61.85,180,63.7
		c94.06,1.83,159.9-40.75,181-55.7c-3.28-22.05-34.4-40.75-61-60"/>
	<path class="st22" d="M1602.32,452.03c-1.52-13.41-56.96-26-100-9c-24.51,9.68-54.75,32.82-51.95,39c0.25,0.56,0.72,0.86,0.95,1
		C1462.5,489.97,1604.81,473.94,1602.32,452.03z"/>
	<path class="st22" d="M1582.32,377.03c-14.63,16.94-40.75,22.95-70,26c0,0,16.52,8.28,48,10"/>
	<path class="st22" d="M1339.32,381.03c16.48,15.11,39.82,27.46,80,33"/>
	<g>
		<circle class="st19" cx="1463.82" cy="336.53" r="61"/>
		<path d="M1407.7,336.53c-2,32.21,23.05,61.29,56.12,60.43c23.57-0.13,45.7-16.05,52.94-38.5c14.47-45.15-28.57-85.72-72.63-69.46
			C1424.17,295.92,1408.56,314.93,1407.7,336.53L1407.7,336.53z M1397.94,336.53c-2.04-37.44,27.5-71.46,65.88-70.87
			c38.08,0.16,69.06,32.84,66.38,70.87c-1.42,25.48-18.76,48.75-42.59,57.45C1447.6,409.35,1399.61,380.31,1397.94,336.53
			L1397.94,336.53z"/>
	</g>
	<circle class="st8" cx="1464.32" cy="340.03" r="6"/>
	<line class="st0" x1="1430.27" y1="304.99" x2="1451.37" y2="326.08"/>
	<line class="st0" x1="1447.82" y1="340.03" x2="1412.82" y2="340.03"/>
	<line class="st0" x1="1465.32" y1="323.53" x2="1465.32" y2="295.53"/>
	<line class="st0" x1="1465.32" y1="386.53" x2="1465.32" y2="358.53"/>
	<line class="st0" x1="1430.44" y1="375.46" x2="1451.53" y2="354.36"/>
	<line class="st0" x1="1478.44" y1="351.38" x2="1499.53" y2="372.47"/>
	<line class="st0" x1="1478.44" y1="327.47" x2="1499.53" y2="306.38"/>
	<line class="st0" x1="1516.82" y1="340.03" x2="1481.82" y2="340.03"/>
	<path class="st27" d="M1530.32,324.03c-15.58-57.16-44.29-102.06-66-101c-23.35,1.15-59.15,44.42-66,99c-13.7-1.8-33.46-6.82-49-22
		c-37.65-36.79-28.94-112.22,6.36-153.38c50.59-58.97,162.7-55.68,211,5c35.48,44.57,39.13,123.38,0.64,156.38
		C1555.27,318.36,1541.24,322.37,1530.32,324.03z"/>
	<path class="st27" d="M1527.32,337.03c-6.37-68.67-40.25-116.7-63-114c-25.77,3.06-63.87,47.6-64,112
		c-16.98-1.39-41.38-6.46-60.44-24.37c-44.46-41.77-36.01-130.94,7.8-180.01c56.39-63.16,173.28-62.01,228,3
		c45.23,53.73,45.56,148.22-0.8,185.63C1559.81,331.45,1542.08,335.74,1527.32,337.03z"/>
	<g>
		<path class="st15" d="M1489.76,223.87c-2.37-4.12-2.13-8.19-1.93-11.53c0.09-1.51,0.66-11.17,6.75-16.91
			c11.57-10.91,45.46-9.98,57.88,5.38c5.58,6.9,7.7,17.8,0.96,26.14c-9.27,11.48-28.98,10.29-33.77,9.99
			C1517,236.78,1496.33,235.29,1489.76,223.87z"/>
		<path class="st28" d="M1557.21,228.62c0.37-2.46,2.7-19.66-10-31.15c-15.64-14.15-44.75-11.19-56,1.83c-2.9,3.36-4.3,7.02-5,10.08
			"/>
		<circle class="st8" cx="1516.46" cy="211.37" r="12.25"/>
		<circle class="st15" cx="1522.24" cy="207.73" r="4.76"/>
		<path class="st15" d="M1427.28,222.46c2.37-4.12,2.13-8.19,1.93-11.53c-0.09-1.51-0.66-11.17-6.75-16.91
			c-11.57-10.91-45.46-9.98-57.88,5.38c-5.58,6.9-7.7,17.8-0.96,26.14c9.27,11.48,28.98,10.29,33.77,9.99
			C1400.04,235.36,1420.72,233.88,1427.28,222.46z"/>
		<circle class="st8" cx="1400.58" cy="209.95" r="12.25"/>
		<circle class="st15" cx="1406.8" cy="206.32" r="4.76"/>
		<path class="st0" d="M1366.71,228.68c3.03,1.51,28.63,13.79,50,1c5.27-3.15,9.16-7.16,12-11"/>
		<path class="st27" d="M1416.21,172.62c-23.83-0.75-45.82,3.13-65,14"/>
		<path class="st27" d="M1498.25,172.6c23.83-0.75,45.82,3.13,65,14"/>
		<path class="st28" d="M1359.07,225.84c-0.37-2.46-2.7-19.66,10-31.15c15.64-14.15,44.75-11.19,56,1.83c2.9,3.36,4.3,7.02,5,10.08"
			/>
		<path class="st0" d="M1550.46,230.6c-3.03,1.51-28.63,13.79-50,1c-5.27-3.15-9.16-7.16-12-11"/>
	</g>
	<path class="st29" d="M1529.74,323.73c-15.58-57.16-44.29-102.06-66-101c-23.35,1.15-59.15,44.42-66,99
		c-14.38-1.93-33.63-7.22-49-22c-36.85-35.44-30.59-105.36-1.05-144.08c47.48-62.23,167.82-60.49,217,2
		c33.07,42.02,38.85,117.74,2.05,150.08C1559.33,314.24,1547.79,321.1,1529.74,323.73z"/>
	<path class="st30" d="M1472.68,222.65c34.23,19.1,34.33,46.19,42,53c1.03,0.92,15.91,9.37,29.77,4.5
		c21.66-7.61,32.13-44.76,24.23-70.5c-11.16-36.36-79.04-118.56-103.53,7.69C1464.58,220.29,1468.34,220.23,1472.68,222.65z"/>
	<path class="st30" d="M1446.68,226.65c-9.19,9.33-15.61,17.65-21,25c-17.28,23.58-14.45,24.16-20,28
		c-9.42,6.52-23.54,9.04-34.48,4.8c-22.82-8.85-31.84-45.69-24.23-70.5c11.16-36.36,79.04-118.56,103.53,7.69
		c0.13,0.69-0.08,1.31-0.08,1.31C1449.51,223.84,1448.21,225.1,1446.68,226.65z"/>
	<path class="st31" d="M1450.68,225.65c-4.45-36.41-19.6-66.98-40-71c-31.1-6.13-74.07,49.64-65,92c3.3,15.41,15.21,37.19,32,40
		c13.01,2.18,27.23-11.29,28-4c0.45,4.23-4.04,25.49-7,33c-5.4,13.7-47.18-8.5-64-35c-25.09-39.52-11.06-102.71,26-139
		c35.62-34.88,82.38-34.97,98-35c15.43-0.03,65.55-0.13,103,39c2.45,2.56,34.15,36.67,35,86c0.33,18.97-4.03,33.23-6,39
		c-3.56,10.45-10.45,29.8-29,43c-7.8,5.55-21.11,17-31,10c-10.12-7.16-12.01-44.62-15-45c-6.27-0.8,16.77,7.15,30-9
		c13-15.86,18.51-37.55,19-45c1.4-21.18-5.68-56.27-33-69c-2.94-1.37-16.81-7.82-32-3c-14.48,4.59-34.68,30.22-35,69"/>
</g>
<g>
	<path class="st0" d="M372.27,1202.29"/>
	<path class="st1" d="M863.41,447.33c14.8-39.75,25.52-73.72,32.93-98.92c32.15-109.4,30.82-151.86,29.37-171.18
		c-1.9-25.25-6.62-45.67-10.33-59c-16.59-17.37-62.03-60.28-133.32-73c-95.42-17.03-167.24,32.49-183.07,44
		c-5.28,8.11-12.82,21.7-16.9,40c-3.78,16.96-2.98,30.79-1.88,43c7.61,84.34,35.51,154.29,44.72,176.38l0,0
		c13.15,32.24,26.3,64.49,39.44,96.73"/>
	<path class="st2" d="M814.59,311.98c2.63,23.55-6,13-8,90c-2.94,9.27-8.97,25.81-22,43c-10.02,13.22-18.65,24.6-30,25
		c-18.93,0.66-33.56-29.65-40-43c-13.52-28-6-64-11-106C724.64,294.74,772.28,288.08,814.59,311.98z"/>
	<g>
		<path class="st3" d="M383.22,916.03c1.96-4.29,6.31-15.17,1.38-22.05c-3.4-4.74-9.72-5.52-11.98-5.8
			c-54.87-6.94-12.26-12.05-90.68-13.56c-40.48-0.78-83.06-0.96-118.58,18.47c-1.8,0.98-3.64,2.08-4.69,3.84
			c-0.89,1.49-1.1,3.28-1.28,5.02c-3.14,30.51-3.29,61.33-0.43,91.87c0.78,8.37,1.82,16.83,4.83,24.68
			c4.34,11.31,12.51,20.66,20.51,29.75c3.94,4.47,8.06,9.08,13.52,11.46c6.31,2.74,13.48,2.14,20.35,2.42
			c10.01,0.41,19.83,2.81,29.79,3.85c9.96,1.05,20.5,0.62,29.29-4.19c5.89-3.23,10.6-8.21,15.19-13.11
			c13.19-14.04,26.4-28.12,38.09-43.43c4.17-5.47,8.16-11.11,12.94-16.05c5.42-5.6,11.8-10.25,16.83-16.21
			c6.23-7.37,10.11-16.39,13.9-25.26c3.64-8.52,8.12-20.32,11.8-35.05"/>
		<g>
			<path d="M383.54,916.22c3.68-8.1,6.92-20.5-2.59-25.95c-3.79-2.17-8.17-2.42-12.39-3c-4.1-0.56-8.19-1.19-12.26-1.96
				c-4.58-0.87-9.17-1.91-13.54-3.56c-2.41-0.91-4.72-2.08-7.14-2.97c-3.44-1.27-7.08-1.89-10.7-2.36
				c-7.97-1.03-16.04-1.36-24.07-1.66c-13.33-0.5-26.68-0.77-40.02-0.77c-13.44,0-26.9,0.41-40.26,1.93
				c-13.09,1.5-26.1,4.08-38.54,8.47c-6.09,2.15-12.03,4.72-17.73,7.75c-2.45,1.3-5.16,2.68-6.35,5.34
				c-0.57,1.28-0.75,2.67-0.9,4.05c-0.21,1.94-0.39,3.88-0.57,5.82c-2.76,30.22-2.8,60.94,0.57,91.11
				c0.79,7.04,1.98,14.11,4.61,20.73c2.44,6.12,6,11.71,9.98,16.92c3.94,5.16,8.24,10.08,12.61,14.88
				c4.33,4.75,9.17,8.94,15.59,10.4c6.6,1.5,13.49,0.76,20.18,1.34c7.41,0.64,14.71,2.15,22.08,3.14
				c13.1,1.76,27.01,1.53,37.97-6.82c5.28-4.02,9.68-9.1,14.2-13.92c5.08-5.42,10.14-10.85,15.09-16.38
				c4.85-5.41,9.6-10.9,14.16-16.55c4.53-5.6,8.69-11.48,13.22-17.07c4.41-5.43,9.54-9.99,14.69-14.68
				c4.95-4.5,9.28-9.36,12.71-15.13c3.45-5.8,6.1-12.04,8.72-18.25c2.09-4.94,4.02-9.95,5.77-15.02c2.19-6.34,4.09-12.78,5.72-19.29
				c0.12-0.47-0.61-0.67-0.72-0.2c-2.97,11.85-6.86,23.45-11.65,34.69c-2.56,6.01-5.14,12.06-8.49,17.69
				c-3.47,5.85-7.9,10.72-12.92,15.27c-5,4.53-9.95,8.96-14.22,14.21c-4.4,5.39-8.41,11.09-12.77,16.51
				c-9,11.2-18.73,21.79-28.55,32.28c-4.53,4.84-8.94,9.96-14.08,14.19c-5.21,4.28-11.24,6.94-17.89,8.01
				c-13.96,2.25-27.78-1.89-41.59-3.29c-6.82-0.69-13.84,0.05-20.58-1.27c-6.69-1.31-11.64-5.47-16.11-10.38
				c-8.84-9.7-18.15-20.05-22.8-32.51c-2.5-6.7-3.59-13.81-4.33-20.88c-0.77-7.32-1.31-14.66-1.7-22.01
				c-0.79-14.82-0.88-29.68-0.26-44.51c0.31-7.41,0.79-14.82,1.45-22.21c0.16-1.81,0.33-3.61,0.51-5.42
				c0.18-1.83,0.28-3.79,1.13-5.46c1.47-2.86,5.09-4.28,7.8-5.67c11.54-5.88,23.96-9.85,36.63-12.41c25.71-5.21,52.17-4.9,78.27-4.4
				c11.19,0.22,22.39,0.47,33.56,1.25c5.3,0.37,10.68,0.79,15.88,1.96c5.64,1.27,10.68,4.21,16.23,5.78
				c6.08,1.72,12.35,2.74,18.6,3.65c4.08,0.59,8.41,0.74,12.31,2.15c2.64,0.95,5.08,2.57,6.58,4.98c1.44,2.31,1.9,5.06,1.82,7.75
				c-0.14,4.62-1.69,9.17-3.59,13.34C382.69,916.28,383.34,916.66,383.54,916.22L383.54,916.22z"/>
		</g>
	</g>
	<g>
		<path class="st4" d="M706.09,320.48c11.99-6.42,36.45-17.3,68.33-16.11c16.83,0.63,30.72,4.43,40.67,8.11c-2,15-4,30-6,45
			c0,0-23.03,18.75-36.31,22.96c-17.24,5.47-32.91,4.91-46.59,4.21c-8.43-0.43-15.37-1.39-20.1-2.18"/>
	</g>
	<path class="st5" d="M903.59,202.98c6.29-9.18,23.41-32.13,20-60.38c-4.5-37.34-42.27-67.01-76.3-76.89
		c-41.91-12.17-88.54,2.68-91-7c-0.31-1.2,0.04-2.91,1-4c5.07-5.78,27.56,5.08,27,7c-0.31,1.07-7.95,0.35-36-6
		c-1.96-1.72-5.35-4.45-10-7c-52.38-28.71-140.65,34.5-139,38c1.68,3.56,103.89-38.88,105-36c0.22,0.56-3,4-3,4
		c-13.09,2.68-28.93,7.19-46,15c-29.27,13.39-49.97,30.91-63,44c-1.81,27.2-0.54,79.81,34.3,118.26
		C696.02,308.61,852.77,277.11,903.59,202.98z"/>
	<path class="st2" d="M601.59,193.98c-10.38,4.58-10.06,25.47-10,28c1.09,43.16,55.54,68.45,59,70c12.05,5.4,24.6,11.04,30,6
		c10.43-9.73-12.72-52.96-40-81C631.19,207.33,613.22,188.86,601.59,193.98z"/>
	<path class="st2" d="M905.01,194.42c10.38,4.58,10.06,25.47,10,28c-1.09,43.16-55.54,68.45-59,70c-12.05,5.4-24.6,11.04-30,6
		c-10.43-9.73,12.72-52.96,40-81C875.41,207.76,893.38,189.29,905.01,194.42z"/>
	<path class="st3" d="M621.59,178.98c3,48,28,110,28,110s9,45,99,83c15.38-5.65,63.48-25.54,97-78c21-54,31.35-104.69,30-121
		c-9.02-56.66-54.24-130.14-123-132C680.37,39.03,629.22,117.38,621.59,178.98z"/>
	<path class="st0" d="M627.59,228.87"/>
	<path class="st5" d="M892.59,182.98c13.28-12.14-9.4-78.73-56.3-113.26c-61.44-45.24-168.58-38.51-210.7,20.26
		c-23.13,32.28-27.56,81.51-11,92c28.84,18.27,125.02-83.91,136.5-72.5c4.98,4.95-11.12,26.16-4.5,32.5
		c7.01,6.71,25.92-16.2,49.5-12.5c23.3,3.66,24.19,29.06,59,46C863.15,179.4,884.75,190.16,892.59,182.98z"/>
	<g>
		<g>
			<path d="M733.97,109.12c0.78-3.65,1.16-7.39,1.13-11.12c-0.01-1.07-1.29-1.96-2.26-1.3c-3.41,2.35-6.52,5.1-9.24,8.23
				c-0.53,0.61-0.6,1.52,0,2.12c0.54,0.54,1.59,0.61,2.12,0c2.55-2.93,5.44-5.55,8.63-7.76c-0.75-0.43-1.5-0.86-2.26-1.3
				c0.04,3.47-0.3,6.93-1.02,10.33c-0.17,0.79,0.23,1.62,1.05,1.85C732.87,110.37,733.8,109.91,733.97,109.12L733.97,109.12z"/>
		</g>
	</g>
	<g>
		<path d="M791.04,126.08c-0.74,0.01-0.84-7.33-3.11-21.84c-1.42-9.13-2.97-16.61-4.1-21.68c2.72,4.55,6.13,11.49,7.76,20.42
			C793.79,114.99,791.95,126.07,791.04,126.08z"/>
		<g>
			<path d="M791.04,124.58c0.38,0.04,1.05,0.54,1.12,0.59c0.02,0.01,0.09,0.37,0.07,0.15c-0.02-0.19-0.1-0.39-0.14-0.58
				c-0.16-0.76-0.17-1.05-0.26-1.76c-0.28-2.33-0.51-4.67-0.79-7.01c-0.92-7.81-2.12-15.58-3.59-23.3
				c-0.67-3.51-1.39-7.02-2.17-10.51c-0.91,0.39-1.83,0.77-2.74,1.16c4.15,6.98,6.96,14.7,8.04,22.76
				c0.58,4.34,0.71,8.76,0.39,13.12c-0.1,1.42-0.25,2.85-0.53,4.25c-0.1,0.47-0.21,0.94-0.35,1.4c-0.1,0.32-0.1,0.12-0.06,0.19
				c-0.02,0.05-0.05,0.1-0.08,0.14c0.16-0.27,0.39-0.44,0.7-0.54c-1.9,0.33-1.09,3.23,0.8,2.89c1.53-0.27,1.81-2.79,2.02-3.96
				c0.52-3.01,0.68-6.08,0.67-9.12c-0.03-7.98-1.44-15.95-4.42-23.36c-1.29-3.21-2.82-6.31-4.58-9.28
				c-0.89-1.49-3.11-0.49-2.74,1.16c1.69,7.58,3.12,15.21,4.29,22.89c0.93,6.14,1.48,12.32,2.32,18.47c0.19,1.35,0.34,3.1,2.04,3.27
				C792.96,127.77,792.94,124.77,791.04,124.58z"/>
		</g>
	</g>
	<g>
		<g>
			<path d="M897.19,183.92c0-3.52,0-7.03,0-10.55c0-0.81-0.69-1.5-1.5-1.5c-0.81,0-1.5,0.69-1.5,1.5c0,3.52,0,7.03,0,10.55
				c0,0.81,0.69,1.5,1.5,1.5C896.5,185.42,897.19,184.74,897.19,183.92L897.19,183.92z"/>
		</g>
	</g>
	<g>
		<g>
			<path d="M676.4,63.14c9.05-0.66,18.17-0.34,27.14,1.02c1.89,0.29,2.7-2.6,0.8-2.89c-9.25-1.4-18.6-1.81-27.94-1.13
				C674.48,60.28,674.47,63.28,676.4,63.14L676.4,63.14z"/>
		</g>
	</g>
	<g>
		<g>
			<path d="M775.16,70.27c-1.68-3.47-4.81-6.12-8.44-7.34c-0.74-0.25-1.67,0.29-1.85,1.05c-0.19,0.83,0.25,1.58,1.05,1.85
				c0.2,0.07,0.4,0.14,0.59,0.21c0.16,0.06,0.2,0.06,0.01,0c0.1,0.03,0.22,0.09,0.31,0.14c0.38,0.18,0.76,0.37,1.12,0.58
				c0.35,0.2,0.68,0.42,1.01,0.66c0.08,0.06,0.15,0.11,0.23,0.17c0.31,0.23-0.24-0.2,0.06,0.05c0.16,0.13,0.32,0.27,0.48,0.41
				c0.3,0.27,0.59,0.55,0.86,0.84c0.14,0.15,0.28,0.31,0.42,0.47c0.06,0.07,0.12,0.15,0.18,0.22c0.04,0.05,0.3,0.33,0.05,0.06
				c0.55,0.59,0.96,1.43,1.31,2.15c0.34,0.71,1.41,0.95,2.05,0.54C775.35,71.86,775.53,71.03,775.16,70.27L775.16,70.27z"/>
		</g>
	</g>
	<g>
		<g>
			<path d="M857.34,69.98c8.24,14.54,15.54,29.59,21.83,45.07c0.72,1.77,3.62,0.99,2.89-0.8c-6.38-15.72-13.76-31.02-22.13-45.79
				C858.98,66.78,856.39,68.29,857.34,69.98L857.34,69.98z"/>
		</g>
	</g>
	<g>
		<g>
			<path d="M610.76,130.65c0.55-4.03,2.17-7.72,3.86-11.38c1.77-3.84,3.6-7.66,5.48-11.45c3.72-7.51,7.64-14.92,11.75-22.23
				c0.95-1.68-1.64-3.2-2.59-1.51c-4.19,7.44-8.18,15-11.97,22.66c-1.87,3.79-3.7,7.61-5.47,11.46c-1.72,3.74-3.4,7.55-3.96,11.67
				c-0.11,0.81,0.2,1.6,1.05,1.85C609.62,131.9,610.65,131.45,610.76,130.65L610.76,130.65z"/>
		</g>
	</g>
	<path class="st7" d="M603.59,207.98c-1.18,3.76-3.06,11.56-1,21c1.38,6.34,4.03,11.08,6,14"/>
	<path class="st7" d="M904.7,206.81c1.18,3.76,3.06,11.56,1,21c-1.38,6.34-4.03,11.08-6,14"/>
	<path class="st8" d="M803.59,301.98c-6.71-0.63-82.74,6.38-92,12c-12.7,7.71,18.49,41.69,47,41
		C791.96,354.18,818.85,303.4,803.59,301.98z"/>
	<path class="st9" d="M804.59,319.98c-25.13-3.02-44.51-1.31-58,1c0,0-2.73,0.47-35,7l0,0c0,0,19,28,50,27
		C775.59,352.98,792.59,340.98,804.59,319.98z"/>
	<path class="st10" d="M720.59,317.98c21.78-3.89,61.43-4.53,77-10c2.66-0.93,3.77-5.29,2-6c-4.41-1.76-84.92,9.09-85,11
		C714.57,313.6,714.22,319.12,720.59,317.98z"/>
	<path class="st11" d="M722.59,1361.98c0,0-9.49,47.39-6,99c3.31,49.02,22.2,90.39,25,120c1.24,25.38,1.14,49.01-4,66
		c-8.09,5.12-31.96,18.74-64.52,16.43c-25.88-1.84-44.29-12.81-52.48-18.43c-1.56-6.42-3.46-16.11-4-28c-0.9-19.88,2.55-34.07,8-57
		c2.99-12.58,7.85-33.18,15-64c1.77-44.7,0.48-87.89-5-129C662.09,1372.96,691.73,1370.04,722.59,1361.98z"/>
	<path class="st12" d="M727.59,1589.98c-26.14-29.43-87-20-97,1"/>
	<path class="st12" d="M617.59,1627.98c40.99,18.4,81.99,18.89,123,1"/>
	<path class="st11" d="M825.59,1361.98c1.48,21.25,2.61,43.26,3.28,66.01c0.56,18.83,0.78,37.17,0.72,54.99
		c-7.7,32.51-15.4,65.01-23.09,97.52c0,0-1.14,49.01,4,66c8.09,5.12,31.96,18.74,64.52,16.43c25.88-1.84,44.29-12.81,52.48-18.43
		c1.56-6.42,3.46-16.11,4-28c0.9-19.88-2.55-34.07-8-57c-2.99-12.58-7.85-33.18-15-64c-0.53-21.14-0.64-43.11-0.22-65.85
		c0.49-26.29,1.65-51.55,3.31-75.67c-6.46,4.51-20.66,13.14-40.83,15.28C849.32,1371.53,832.78,1365.23,825.59,1361.98z"/>
	<path class="st12" d="M820.5,1589.5c26.14-29.43,87-20,97,1"/>
	<path class="st12" d="M930.5,1627.5c-40.99,18.4-81.99,18.89-123,1"/>
	<g>
		<path class="st13" d="M713.64,1503.15c2.36,16.01,5.38,31.92,9.07,47.67"/>
		<g>
			<path class="st14" d="M709.3,1504.35c2.36,16.01,5.39,31.91,9.07,47.67c0.54,2.29,3.29,3.87,5.54,3.14
				c2.4-0.78,3.72-3.08,3.14-5.54c-3.68-15.76-6.7-31.66-9.07-47.67c-0.35-2.34-3.42-3.83-5.54-3.14
				C709.89,1499.64,708.93,1501.85,709.3,1504.35L709.3,1504.35z"/>
		</g>
	</g>
	<g>
		<path class="st15" d="M899.72,1507.8c5.41,16.13,10.82,32.27,16.23,48.4"/>
		<g>
			<path class="st14" d="M895.38,1508.99c5.41,16.13,10.82,32.27,16.23,48.4c0.75,2.23,3.13,3.92,5.54,3.14
				c2.22-0.72,3.94-3.15,3.14-5.54c-5.41-16.13-10.82-32.27-16.23-48.4c-0.75-2.23-3.13-3.92-5.54-3.14
				C896.31,1504.17,894.58,1506.6,895.38,1508.99L895.38,1508.99z"/>
		</g>
	</g>
	<g>
		<path class="st15" d="M688.22,1582.46c6.8,2.25,13.24,5.54,19.04,9.73"/>
		<g>
			<path class="st14" d="M687.02,1586.8c0.86,0.29,1.72,0.59,2.57,0.91c0.43,0.16,0.85,0.32,1.27,0.49c0.21,0.08,1.63,0.65,0.5,0.19
				c1.58,0.64,3.12,1.39,4.63,2.17c3.13,1.61,6.14,3.46,9,5.52c1.92,1.38,5.09,0.4,6.16-1.61c1.23-2.33,0.43-4.68-1.61-6.16
				c-6.13-4.41-12.95-7.8-20.12-10.19c-2.24-0.74-5.02,0.86-5.54,3.14C683.31,1583.74,684.63,1586,687.02,1586.8L687.02,1586.8z"/>
		</g>
	</g>
	<g>
		<path class="st15" d="M876.09,1585.43c9.57,0.06,19.09,3.5,26.49,9.56"/>
		<g>
			<path class="st14" d="M876.09,1589.93c1.13,0.01,2.25,0.06,3.37,0.16c0.28,0.02,0.56,0.06,0.84,0.08c0.38,0.04,0.53,0.06,0.06,0
				c0.56,0.07,1.11,0.17,1.67,0.27c2.28,0.41,4.54,1.01,6.72,1.79c0.53,0.19,1.05,0.41,1.58,0.6c0.68,0.24-0.56-0.26,0.09,0.03
				c0.26,0.11,0.51,0.23,0.77,0.34c1.02,0.47,2.03,0.98,3.01,1.53c0.98,0.55,1.94,1.14,2.88,1.76c0.47,0.31,0.93,0.63,1.38,0.97
				c0.06,0.04,0.73,0.54,0.39,0.28c-0.37-0.29,0.56,0.45,0.54,0.43c1.83,1.48,4.6,1.92,6.36,0c1.51-1.64,1.95-4.78,0-6.36
				c-8.43-6.84-18.78-10.75-29.67-10.88c-2.35-0.03-4.61,2.09-4.5,4.5C871.7,1587.89,873.56,1589.9,876.09,1589.93L876.09,1589.93z"
				/>
		</g>
	</g>
	<line class="st16" x1="760.59" y1="223.98" x2="747.59" y2="231.98"/>
	<line class="st16" x1="761.59" y1="228.98" x2="740.59" y2="241.98"/>
	<line class="st16" x1="771.59" y1="241.98" x2="742.59" y2="258.98"/>
	<path class="st17" d="M754.59,268.48c-0.17,4-0.33,8-0.5,12c-1.83-1.67-3.67-3.33-5.5-5"/>
	<path class="st18" d="M232.59,565.98c-9.32-22.98-46.89-35.47-58-25c-6.56,6.18-0.38,17.04,7.5,51.5
		c14.68,64.16,7.8,94.41,28.5,104.5c1.9,0.93,10.53,5.13,16.5,1.5c13.15-8-7.14-41.56,0.5-91.5
		C231.12,583.89,237.45,577.95,232.59,565.98z"/>
	<path class="st11" d="M226.59,705.98c0,0,27,14,33,14c1.71-1.44,2.01-4.02,1.86-6.32c0,0,0.03-2.36-0.86-4.68c-1.55-4-13-9-13-9
		c-7.72-3.34-10.71-3.63-13-7c-1.45-2.13-2-6-2-6"/>
	<path class="st11" d="M171.09,544.48c0.73,21.69-10.53,95.94-14,96c0,0,20.29,46.84,28,71l71,19c0.47-2,0.59-3.84,0.5-5.5
		c-0.9-16.92-24.34-26.9-27-28"/>
	<path class="st11" d="M232.59,577.98c4,29-1,61-1,61c1.23,15.69,2.5,31.33,8,41c-1.73,6.5-7.11,7.99-15,6
		c-6.77-5.51-11.2-22.27-15-42c0,0-19.21-9.78-19.43-9.37c-0.02,0.04,0.12,0.16,0.43,0.37"/>
	<path class="st12" d="M185.59,645.98c7.12,15,13.28,30,18,45"/>
	<path class="st18" d="M349.6,569.33c9.32-22.98,46.89-35.47,58-25c6.56,6.18,0.38,17.04-7.5,51.5
		c-14.68,64.16-7.8,94.41-28.5,104.5c-1.9,0.93-10.53,5.13-16.5,1.5c-13.15-8,7.14-41.56-0.5-91.5
		C351.07,587.23,344.75,581.3,349.6,569.33z"/>
	<path class="st11" d="M355.6,709.33c0,0-27,14-33,14c-1.71-1.44-2.01-4.02-1.86-6.32c0,0-0.03-2.36,0.86-4.68c1.55-4,13-9,13-9
		c7.72-3.34,10.71-3.63,13-7c1.45-2.13,2-6,2-6"/>
	<path class="st11" d="M411.1,547.83c-0.73,21.69,10.53,95.94,14,96c0,0-20.29,46.84-28,71l-71,19c-0.47-2-0.59-3.84-0.5-5.5
		c0.9-16.92,24.34-26.9,27-28"/>
	<path class="st11" d="M349.6,581.33c-4,29,1,61,1,61c-1.23,15.69-2.5,31.33-8,41c1.73,6.5,7.11,7.99,15,6
		c6.77-5.51,11.2-22.27,15-42c0,0,19.21-9.78,19.43-9.37c0.02,0.04-0.12,0.16-0.43,0.37"/>
	<path class="st11" d="M396.6,649.33c-7.12,15-13.28,30-18,45"/>
	<path class="st1" d="M833.45,621.33c40.48,9.2,80.96,18.4,121.43,27.6c7.75,21.46,10.98,43.27,13.71,65.05
		c13.88,110.47,61.48,208.21,82,297c11.61,29.33,19.3,58.66,18,88c-25.1,45.84-57.16,44.47-91,31c-29-130.67-58-261.33-87-392"/>
	<path class="st1" d="M732.45,622.33c-35.62,7.55-71.24,15.1-106.85,22.66c-7.82,24.9-15.49,50.24-23,76
		c-17.62,60.47-33.2,119.53-47,177c-13.65,31.92-27.04,66.91-39.39,104.86c-8.34,25.65-15.49,50.42-21.61,74.14
		c3.41,6.84,14.91,27.7,40,39c15.21,6.85,29.12,7.34,37,7c36.33-132,72.67-264,109-396"/>
	<path class="st19" d="M880.06,449.37c-3.39-11.02-17.16-16.07-26.97-15.89c-22.05,0.42-41.46,27.71-36,40
		c5.67,12.76,40.77,15.35,55.97-1.11C873.93,471.43,883.55,460.7,880.06,449.37z"/>
	<path class="st1" d="M388.59,905.98c4.6,14.24,9.07,29.14,13.31,44.68c5.8,21.27,10.65,41.76,14.69,61.32
		c-2.61,33.57-1.84,88.24-4,155.5c-8.23,255.9,26.72,395.77,13.84,448.12c-4.65,18.9-44.42,24.68-107,8
		c-3.96-152.12-15.8-311.25-37.84-476.37c-3.47-25.98-7.14-51.74-11-77.25c-17.67-0.67-35.33-1.33-53-2"/>
	<path class="st1" d="M156.59,904.98c-9,35.33-18,70.67-27,106c2.21,33.83,1.01,88.39,3.22,155.42
		c8.91,269.79-25.38,413.19-7.38,457.19c12.93,12.56,42.18,20.52,99,2c2.39-41.87,4.77-83.74,7.16-125.62
		c6.93-103.95,15.81-210.12,26.88-318.39c3.84-37.52,7.88-74.72,12.12-111.61c21.34-0.84,32.01-1.51,32-2
		c-0.01-0.74-24.68-1.08-74-1"/>
	<g>
		<path class="st20" d="M180.87,962.25c-0.95,11.6-1.9,23.2-2.86,34.79c-0.13,1.56-0.27,3.16-0.92,4.59
			c-1.24,2.72-3.46,4.14-4.01,4.51c-3.49,2.39-16.83,15.24-37.5,35.85"/>
		<g>
			<path class="st20" d="M179.37,962.25c-0.73,8.95-1.47,17.89-2.2,26.84c-0.18,2.24-0.37,4.47-0.55,6.71
				c-0.16,1.96-0.19,4.02-1.18,5.78c-0.9,1.61-2.25,2.6-3.68,3.68c-2.43,1.84-4.66,3.96-6.89,6.04c-3.92,3.65-7.76,7.37-11.59,11.11
				c-6.29,6.13-12.52,12.32-18.74,18.52c-1.37,1.36,0.75,3.49,2.12,2.12c9.75-9.72,19.5-19.48,29.55-28.89
				c2.33-2.18,4.66-4.42,7.18-6.39c-0.32,0.25,0.13-0.1,0.25-0.18c0.2-0.14,0.4-0.27,0.6-0.41c1.08-0.77,2.05-1.64,2.87-2.69
				c2.55-3.28,2.42-7.46,2.75-11.41c0.84-10.27,1.69-20.54,2.53-30.82C182.53,960.32,179.53,960.33,179.37,962.25L179.37,962.25z"/>
		</g>
	</g>
	<g>
		<path class="st3" d="M649.75,678.98c0.65,151.26-1.29,263.38-3.15,301c-1.84,37.19-6.8,70.24-6.8,70.24
			c-2.67,28.67-5.33,57.33-8,86c35.52,7.22,75.73,13.41,120,17c49,3.97,93.71,3.99,133,2c6.7-1,23.98-4.52,39-19
			c9.86-9.51,14.69-19.82,17-26c-23.41-83.66-28.54-130.34-29-157c-0.04-2.6-0.2-14-0.33-26.24c-0.76-68.75-0.49-64.89-0.61-86.55
			c-0.1-17.52-4-41.89-3.8-77.96c0.05-9.47,0.35-20.8,1.26-33.77c1.65-23.54,4.66-43.22,7.35-57.72"/>
		<path d="M649.87,678.98c0.27,92.9,0.21,185.83-2.31,278.7c-0.72,30.96-3.32,61.91-7.65,92.55c0,0-8.02,86-8.02,86
			c20.23,3.85,41.74,7.84,62.59,10.61c52.48,7.32,105.56,10.11,158.52,8.99c10.53-0.16,21.36-0.57,31.73-1.02
			c10.83-1.56,21.31-5.61,30.36-11.76c11.64-7.99,20.67-19.64,25.59-32.87c-4.92-17.39-9.61-35.69-13.77-53.55
			c-8.15-35.93-15.16-72.49-15.32-109.46c-0.23-17.92-0.73-65.61-0.81-83.05c-0.06-9.23,0.05-18.46-0.15-27.68
			c-0.33-9.22-1.22-18.41-1.89-27.61c-3.77-45.99-1.67-92.49,6.8-137.87c0,0,0.23,0.04,0.23,0.04
			c-8.47,45.36-10.57,91.83-6.8,137.81c0.67,9.2,1.56,18.39,1.89,27.62c0.2,15.77,0.16,39.3,0.34,55.37
			c0.54,32.82-0.56,78.51,5.3,110.46c5.66,36.48,14.52,72.38,24.39,107.93c-5.39,14.8-16.01,27.7-29.52,35.81
			c-8.1,4.91-17.17,8.16-26.53,9.63c-10.6,0.6-21.21,0.96-31.83,1.2c-53.01,0.93-106.06-2.58-158.57-9.82
			c-20.96-3-42.2-6.38-62.76-10.79c0,0,7.98-86,7.98-86c4.33-30.63,6.92-61.58,7.64-92.53
			C650.08,864.96,649.45,771.28,649.87,678.98L649.87,678.98z"/>
	</g>
	<path class="st22" d="M147.59,1079.98c-2.46,55.32,2.87,127.32,16,216"/>
	<path class="st22" d="M166.59,1364.98c-6.28,42.67-9.62,85.33-10,128"/>
	<g>
		<path class="st20" d="M391.59,1086.98c-0.67,92.67-1.33,185.33-2,278"/>
		<path class="st20" d="M391.65,1086.98c-0.03,90.33-0.87,187.61-2,278c0,0-0.11,0-0.11,0
			C389.82,1274.64,390.06,1177.04,391.65,1086.98L391.65,1086.98z"/>
	</g>
	<path class="st22" d="M395.59,1404.98c-3.38,36.31-6.95,69.93-11,97c-11.19,15.69-26.03,22.69-42,27"/>
	<g>
		<path d="M897.03,941.22c-1.65,11.3-7.11,21.24-13.52,30.45c-2.22,3-4.56,5.93-7.48,8.55c0,0-0.88-0.47-0.88-0.47
			c2.37-13.32,10.8-30.01,21-39C896.15,940.75,897.03,941.22,897.03,941.22L897.03,941.22z"/>
	</g>
	<g>
		<path class="st20" d="M702.59,724.98c16.06,82.14,33.1,158.71,53,219"/>
		<path class="st20" d="M702.71,724.96c14.04,69,28.48,138.06,48.81,205.53c1.35,4.5,2.79,8.97,4.18,13.45c0,0-0.22,0.07-0.22,0.07
			c-11.99-35.63-21.5-72.05-30.01-108.65C717.3,798.86,708.88,761.42,702.71,724.96L702.71,724.96z"/>
	</g>
	<g>
		<path class="st20" d="M680.59,952.98c24.28,33.45,56.92,50.17,92,62"/>
		<path class="st20" d="M680.69,952.91c21.57,29.21,51.72,47.18,85.32,59.54c0,0,6.63,2.41,6.63,2.41l-0.08,0.23
			c0,0-6.7-2.23-6.7-2.23c-24.43-8.38-48.1-20.51-66.89-38.47c-6.85-6.48-13.02-13.67-18.47-21.34
			C680.49,953.05,680.69,952.91,680.69,952.91L680.69,952.91z"/>
	</g>
	<line class="st22" x1="842.59" y1="738.98" x2="801.59" y2="842.98"/>
	<path class="st0" d="M811.59,389.98"/>
	<path class="st0" d="M811.59,380.98"/>
	<path class="st0" d="M815.59,379.98"/>
	<path class="st23" d="M852.59,372.98"/>
	<g>
		<path class="st20" d="M885.31,921.69c-14.62,6.33-29.77,11.44-45.24,15.26c3.1,8.59,4.71,17.72,4.75,26.85"/>
		<g>
			<path class="st20" d="M884.56,920.4c-14.51,6.26-29.54,11.3-44.88,15.11c-0.74,0.18-1.32,1.09-1.05,1.85
				c3.04,8.5,4.63,17.42,4.7,26.45c0.01,1.93,3.01,1.93,3,0c-0.07-9.28-1.68-18.51-4.81-27.25c-0.35,0.62-0.7,1.23-1.05,1.85
				c15.6-3.87,30.84-9.05,45.6-15.41C887.84,922.22,886.31,919.64,884.56,920.4L884.56,920.4z"/>
		</g>
	</g>
	<g>
		<path class="st20" d="M813.07,864.47c9.99,0,19.97,0,29.96,0"/>
		<g>
			<path class="st20" d="M813.07,865.97c9.99,0,19.97,0,29.96,0c1.93,0,1.93-3,0-3c-9.99,0-19.97,0-29.96,0
				C811.14,862.97,811.13,865.97,813.07,865.97L813.07,865.97z"/>
		</g>
	</g>
	<g>
		<path class="st20" d="M648.28,698.78c-7.78,28.37-12.88,57.47-15.22,86.79"/>
		<g>
			<path class="st20" d="M646.84,698.38c-6.08,22.23-10.53,44.88-13.32,67.76c-0.79,6.46-1.44,12.94-1.96,19.43
				c-0.15,1.92,2.85,1.91,3,0c1.83-22.78,5.32-45.42,10.45-67.69c1.44-6.27,3.02-12.5,4.72-18.7
				C650.24,697.31,647.35,696.52,646.84,698.38L646.84,698.38z"/>
		</g>
	</g>
	<g>
		<path class="st20" d="M565.39,906.02c-0.09,2.37,0.64,4.68,1.37,6.93c2.78,8.64,5.56,17.28,8.35,25.92"/>
		<g>
			<path class="st20" d="M563.89,906.02c-0.04,2.79,0.81,5.41,1.65,8.04c0.91,2.83,1.82,5.65,2.73,8.48
				c1.8,5.58,3.59,11.15,5.39,16.73c0.59,1.83,3.49,1.05,2.89-0.8c-1.75-5.42-3.49-10.84-5.24-16.26c-0.86-2.67-1.72-5.34-2.58-8.01
				c-0.86-2.66-1.89-5.35-1.85-8.18C566.92,904.08,563.92,904.08,563.89,906.02L563.89,906.02z"/>
		</g>
	</g>
	<g>
		<path class="st20" d="M1033.09,1021.8c-14.49,12.7-29.32,25.83-38.15,42.95c-0.34,0.66-0.66,1.52-0.18,2.1
			c0.32,0.39,0.88,0.47,1.38,0.52c1.55,0.15,3.1,0.31,4.66,0.46"/>
		<g>
			<path class="st20" d="M1032.03,1020.74c-13.71,12.02-27.77,24.41-36.87,40.46c-0.99,1.75-3.15,4.58-1.58,6.56
				c0.7,0.88,1.74,1.02,2.79,1.13c1.47,0.15,2.95,0.29,4.42,0.43c1.92,0.19,1.91-2.81,0-3c-1.09-0.11-2.17-0.21-3.26-0.32
				c-0.36-0.04-1.22,0.06-1.5-0.16c0,0,0.31-0.56,0.5-0.9c0.95-1.81,1.98-3.58,3.06-5.32c2.14-3.41,4.5-6.67,7.05-9.79
				c5.17-6.32,10.99-12.08,16.99-17.6c3.46-3.18,6.99-6.28,10.52-9.37C1035.61,1021.59,1033.48,1019.47,1032.03,1020.74
				L1032.03,1020.74z"/>
		</g>
	</g>
	<g>
		<path class="st21" d="M918.67,452.4c-8.04,8.9-15.93,17.94-23.65,27.12"/>
		<g>
			<path class="st21" d="M917.61,451.34c-8.04,8.9-15.93,17.94-23.65,27.12c-1.24,1.47,0.88,3.6,2.12,2.12
				c7.72-9.18,15.6-18.22,23.65-27.12C921.03,452.04,918.91,449.91,917.61,451.34L917.61,451.34z"/>
		</g>
	</g>
	<g>
		<path class="st20" d="M573.37,959.52c-0.2,5.81,0.51,11.65,2.12,17.24c0.32,1.12,0.72,2.29,1.63,3.02
			c0.79,0.63,1.83,0.81,2.83,0.95c3.7,0.51,7.44,0.67,11.17,0.48"/>
		<g>
			<path class="st20" d="M571.87,959.52c-0.1,3.32,0.08,6.63,0.54,9.93c0.42,3.03,0.94,6.27,2.11,9.11c0.49,1.19,1.23,2.26,2.4,2.87
				c1.3,0.68,2.83,0.79,4.26,0.96c3.3,0.39,6.62,0.48,9.93,0.32c1.92-0.09,1.93-3.09,0-3c-2.9,0.14-5.81,0.09-8.7-0.19
				c-1.21-0.12-2.58-0.15-3.73-0.58c-1.07-0.4-1.41-1.41-1.71-2.43c-1.63-5.51-2.29-11.27-2.11-17
				C574.93,957.59,571.93,957.59,571.87,959.52L571.87,959.52z"/>
		</g>
	</g>
	<path class="st3" d="M617.3,272.72c2.93-18.49,11.17-51.8,38-78.78c54.31-54.63,162.63-61.1,209-4.49
		c25.91,31.63,24.39,73.1,22,93.27c10.99-14.15,45.25-61.99,42.72-129.74c-1.59-42.71-17.11-74.73-26.72-91.26
		c-27.87-11.62-69.04-24.71-120-27c-91.8-4.13-161.44,29.21-193,47c-5.42,21.45-11.98,59.19-4,105
		C592.06,225.53,606.6,254.84,617.3,272.72z"/>
	<path class="st24" d="M808.45,402.33c11.67,2.67,23.33,5.33,35,8c-11.67,19-23.33,38-35,57c-16.12,19.24-39.13,22.57-66,17
		c-16.03-0.62-30.02-9.73-43-23c-12.59-10.62-21.9-29.55-31-49c12.33-3,27-8,37-9c1.96,14.23,6.69,28.69,22,44
		c3.9,1.62,29.25,11.68,52-1c1.94-1.08,10.72-6.15,18.21-16.54C805.54,418.83,807.73,407.89,808.45,402.33z"/>
	<path class="st19" d="M643.45,422.33c-4.18-2.8-7.09-8.99-5-13c2.53-4.84,11.42-4.69,17-2c3.79,1.83,8.77,6.13,8,10
		C662.4,422.63,650.58,427.09,643.45,422.33z"/>
	<g>
		<path d="M870.59,438.67c-16.55,13.03-32.66,26.63-48.28,40.77"/>
	</g>
	<g>
		<path class="st21" d="M661.36,447.91c4.25,6.88,9.5,13.15,15.53,18.53"/>
		<g>
			<path class="st21" d="M660.06,448.67c4.33,6.99,9.64,13.35,15.77,18.84c1.43,1.28,3.56-0.83,2.12-2.12
				c-5.95-5.32-11.1-11.44-15.3-18.23C661.64,445.52,659.04,447.02,660.06,448.67L660.06,448.67z"/>
		</g>
	</g>
	<path class="st19" d="M846.67,418.82h30v-8c-8.67-1-17.33-2-26-3C849.33,411.49,848,415.15,846.67,418.82z"/>
	<path class="st3" d="M598.93,82.1c4-0.59,12.27,3.88,12.77,9.13c0.12,1.2-0.1,2.49-0.77,3.87c-39.97,82.53,43.81,234.33,49,235
		c0.24,0.03,2.59,0.32,2.58,0.57c-0.03,0.65-15.83,0.74-19.58,0.43c-30.47-2.53-61.47-97.85-58-191
		C585.23,132.11,587.29,83.8,598.93,82.1z"/>
	<path class="st3" d="M898.3,66.72c-6.9,0.1-12.77,21.68-21,20c-2.46-0.5-4.62-2.73-5-5c-0.71-4.25,4.6-9.73,14-13l0,0l0,0l4,5
		c5.09,6.31,11.82,16.26,16.28,29.83c2.68,8.15,3.86,15.56,4.36,21.55c1.37,11.37,0.61,19.52-0.38,35.41
		c-1.35,21.66-5.42,49.36-16.62,88.59c0,0-17.85,82.29-40.93,85.6c-0.29,0.04-2.59,0.34-2.58,0.57c0.04,0.87,27.12,0.38,29.58-0.57
		c36.59-14.03,43.74-109.95,44.54-124.25C928.88,132.77,910.43,66.55,898.3,66.72z"/>
	<path class="st3" d="M899.93,79.1c-8.38-2.54-16.3,4.18-23,8c-6.4,3.65,26.08,26.11,27,74c0.07,3.59,6.79,2.51,10,1
		C929.83,154.6,924.72,86.61,899.93,79.1z"/>
	<path class="st25" d="M800.43,373.6c-22.32,24.48-73.81,24.93-94,2c-32.47-36.89,17.25-132.94,51-132
		C789.69,244.5,835.83,334.78,800.43,373.6z"/>
	<path class="st3" d="M799.43,488.6c34.08-16.12,66.76-54.68,58-80c-16.29-47.06-178.25-55.32-200-9c-11.48,24.46,14.99,66.54,48,86
		C749.22,511.41,793.95,491.19,799.43,488.6z"/>
	<path class="st22" d="M683.43,381.6c-22.04-0.49-39.38-16.25-57.5-29.5"/>
	<path class="st22" d="M833.2,376.68c22.04-0.49,39.38-16.25,57.5-29.5"/>
	<path class="st22" d="M592.43,113.6c16.11,1.01,42.92,0.5,73-11c18.54-7.09,32.86-16.26,43-24"/>
	<path class="st22" d="M786.43,56.6c15.7-2.26,51.34-5.05,88,14c14.24,7.4,25.1,16.26,33,24"/>
	<path class="st26" d="M580.93,146.1c25.09-15.91,68.59-38.75,127-47c91.46-12.91,162.91,17.96,191,32"/>
	<path class="st1" d="M628.43,390.6c-17.78,12.48-31.91,29.65-42,52c20.32,15.79,84.94,61.85,180,63.7
		c94.06,1.83,159.9-40.75,181-55.7c-3.28-22.05-34.4-40.75-61-60"/>
	<path class="st22" d="M895.43,472.6c-1.52-13.41-56.96-26-100-9c-24.51,9.68-54.75,32.82-51.95,39c0.25,0.56,0.72,0.86,0.95,1
		C755.61,510.53,897.92,494.5,895.43,472.6z"/>
	<path class="st22" d="M875.43,397.6c-14.63,16.94-40.75,22.95-70,26c0,0,16.52,8.28,48,10"/>
	<path class="st22" d="M632.43,401.6c16.48,15.11,39.82,27.46,80,33"/>
	<g>
		<circle class="st19" cx="756.93" cy="357.1" r="61"/>
		<path d="M700.81,357.1c-2,32.21,23.05,61.29,56.12,60.43c23.57-0.13,45.7-16.05,52.94-38.5c14.47-45.15-28.57-85.72-72.63-69.46
			C717.29,316.49,701.68,335.49,700.81,357.1L700.81,357.1z M691.05,357.1c-2.04-37.44,27.5-71.46,65.88-70.87
			c38.08,0.16,69.06,32.84,66.38,70.87c-1.42,25.48-18.76,48.75-42.59,57.45C740.72,429.92,692.72,400.88,691.05,357.1L691.05,357.1
			z"/>
	</g>
	<circle class="st8" cx="757.43" cy="360.6" r="6"/>
	<line class="st0" x1="723.39" y1="325.55" x2="744.48" y2="346.65"/>
	<line class="st0" x1="740.93" y1="360.6" x2="705.93" y2="360.6"/>
	<line class="st0" x1="758.43" y1="344.1" x2="758.43" y2="316.1"/>
	<line class="st0" x1="758.43" y1="407.1" x2="758.43" y2="379.1"/>
	<line class="st0" x1="723.55" y1="396.02" x2="744.65" y2="374.93"/>
	<line class="st0" x1="771.55" y1="371.95" x2="792.65" y2="393.04"/>
	<line class="st0" x1="771.55" y1="348.04" x2="792.65" y2="326.95"/>
	<line class="st0" x1="809.93" y1="360.6" x2="774.93" y2="360.6"/>
	<path class="st27" d="M823.43,344.6c-15.58-57.16-44.29-102.06-66-101c-23.35,1.15-59.15,44.42-66,99c-13.7-1.8-33.46-6.82-49-22
		c-37.65-36.79-28.94-112.22,6.36-153.38c50.59-58.97,162.7-55.68,211,5c35.48,44.57,39.13,123.38,0.64,156.38
		C848.39,338.92,834.35,342.94,823.43,344.6z"/>
	<path class="st27" d="M820.43,357.6c-6.37-68.67-40.25-116.7-63-114c-25.77,3.06-63.87,47.6-64,112
		c-16.98-1.39-41.38-6.46-60.44-24.37c-44.46-41.77-36.01-130.94,7.8-180.01c56.39-63.16,173.28-62.01,228,3
		c45.23,53.73,45.56,148.22-0.8,185.63C852.93,352.01,835.2,356.3,820.43,357.6z"/>
	<path class="st29" d="M824.85,341.3c-15.58-57.16-44.29-102.06-66-101c-23.35,1.15-59.15,44.42-66,99c-14.38-1.93-33.63-7.22-49-22
		c-36.85-35.44-30.59-105.36-1.05-144.08c47.48-62.23,167.82-60.49,217,2c33.07,42.02,38.85,117.74,2.05,150.08
		C854.44,331.81,842.9,338.67,824.85,341.3z"/>
	<path class="st30" d="M765.8,243.22c34.23,19.1,34.33,46.19,42,53c1.03,0.92,15.91,9.37,29.77,4.5
		c21.66-7.61,32.13-44.76,24.23-70.5c-11.16-36.36-79.04-118.56-103.53,7.69C757.7,240.86,761.46,240.8,765.8,243.22z"/>
	<path class="st30" d="M739.8,247.22c-9.19,9.33-15.61,17.65-21,25c-17.28,23.58-14.45,24.16-20,28c-9.42,6.52-23.54,9.04-34.48,4.8
		c-22.82-8.85-31.84-45.69-24.23-70.5c11.16-36.36,79.04-118.56,103.53,7.69c0.13,0.69-0.08,1.31-0.08,1.31
		C742.62,244.4,741.33,245.67,739.8,247.22z"/>
	<path class="st31" d="M743.8,246.22c-4.45-36.41-19.6-66.98-40-71c-31.1-6.13-74.07,49.64-65,92c3.3,15.41,15.21,37.19,32,40
		c13.01,2.18,27.23-11.29,28-4c0.45,4.23-4.04,25.49-7,33c-5.4,13.7-47.18-8.5-64-35c-25.09-39.52-11.06-102.71,26-139
		c35.62-34.88,82.38-34.97,98-35c15.43-0.03,65.55-0.13,103,39c2.45,2.56,34.15,36.67,35,86c0.33,18.97-4.03,33.23-6,39
		c-3.56,10.45-10.45,29.8-29,43c-7.8,5.55-21.11,17-31,10c-10.12-7.16-12.01-44.62-15-45c-6.27-0.8,16.77,7.15,30-9
		c13-15.86,18.51-37.55,19-45c1.4-21.18-5.68-56.27-33-69c-2.94-1.37-16.81-7.82-32-3c-14.48,4.59-34.68,30.22-35,69"/>
	<g>
		<path class="st20" d="M356.87,958.24c0.95,11.6,1.9,23.2,2.86,34.79c0.13,1.56,0.27,3.16,0.92,4.59c1.24,2.72,3.46,4.14,4.01,4.51
			c3.49,2.39,16.83,15.24,37.5,35.85"/>
		<g>
			<path class="st20" d="M355.37,958.24c0.75,9.11,1.5,18.23,2.24,27.34c0.19,2.32,0.38,4.64,0.57,6.96
				c0.16,1.93,0.29,3.87,1.09,5.66c1.03,2.32,2.79,3.91,4.81,5.36c0.1,0.07,0.49,0.37,0.35,0.26c-0.1-0.08,0.4,0.32,0.53,0.43
				c0.48,0.4,0.96,0.8,1.43,1.21c1.33,1.16,2.63,2.35,3.93,3.55c3.98,3.69,7.87,7.46,11.76,11.25c6.38,6.22,12.7,12.49,19,18.77
				c1.37,1.36,3.49-0.76,2.12-2.12c-9.61-9.58-19.21-19.18-29.1-28.47c-2.39-2.25-4.78-4.53-7.34-6.58
				c-1.04-0.84-2.19-1.53-3.12-2.5c-2.78-2.87-2.48-7.1-2.79-10.81c-0.83-10.11-1.66-20.21-2.49-30.32
				C358.21,956.33,355.21,956.31,355.37,958.24L355.37,958.24z"/>
		</g>
	</g>
	<path class="st1" d="M370.95,448.78c14.8-39.75,25.52-73.72,32.93-98.92c32.15-109.4,30.82-151.86,29.37-171.18
		c-1.9-25.25-6.62-45.67-10.33-59c-16.59-17.37-62.03-60.28-133.32-73c-95.42-17.03-167.24,32.49-183.07,44
		c-5.28,8.11-12.82,21.7-16.9,40c-3.78,16.96-2.98,30.79-1.88,43c7.61,84.34,35.51,154.29,44.72,176.38l0,0
		c13.15,32.24,26.3,64.49,39.44,96.73"/>
	<path class="st2" d="M322.13,313.43c2.63,23.55-6,13-8,90c-2.94,9.27-8.97,25.81-22,43c-10.02,13.22-18.65,24.6-30,25
		c-18.93,0.66-33.56-29.65-40-43c-13.52-28-6-64-11-106C232.18,296.19,279.82,289.53,322.13,313.43z"/>
	<g>
		<path class="st4" d="M213.63,321.93c11.99-6.42,36.45-17.3,68.33-16.11c16.83,0.63,30.72,4.43,40.67,8.11c-2,15-4,30-6,45
			c0,0-23.03,18.75-36.31,22.96c-17.24,5.47-32.91,4.91-46.59,4.21c-8.43-0.43-15.37-1.39-20.1-2.18"/>
	</g>
	<path class="st5" d="M411.13,204.43c6.29-9.18,23.41-32.13,20-60.38c-4.5-37.34-42.27-67.01-76.3-76.89
		c-41.91-12.17-88.54,2.68-91-7c-0.31-1.2,0.04-2.91,1-4c5.07-5.78,27.56,5.08,27,7c-0.31,1.07-7.95,0.35-36-6
		c-1.96-1.72-5.35-4.45-10-7c-52.38-28.71-140.65,34.5-139,38c1.68,3.56,103.89-38.88,105-36c0.22,0.56-3,4-3,4
		c-13.09,2.68-28.93,7.19-46,15c-29.27,13.39-49.97,30.91-63,44c-1.81,27.2-0.54,79.81,34.3,118.26
		C203.56,310.05,360.31,278.56,411.13,204.43z"/>
	<path class="st2" d="M109.13,195.43c-10.38,4.58-10.06,25.47-10,28c1.09,43.16,55.54,68.45,59,70c12.05,5.4,24.6,11.04,30,6
		c10.43-9.73-12.72-52.96-40-81C138.74,208.77,120.76,190.3,109.13,195.43z"/>
	<path class="st2" d="M412.56,195.87c10.38,4.58,10.06,25.47,10,28c-1.09,43.16-55.54,68.45-59,70c-12.05,5.4-24.6,11.04-30,6
		c-10.43-9.73,12.72-52.96,40-81C382.95,209.21,400.93,190.74,412.56,195.87z"/>
	<path class="st2" d="M135.13,180.43c3,48,28,110,28,110s9,45,99,83c15.38-5.65,63.48-25.54,97-78c21-54,31.35-104.69,30-121
		c-9.02-56.66-54.24-130.14-123-132C193.91,40.48,142.76,118.83,135.13,180.43z"/>
	<path class="st6" d="M241.13,111.43c-7,66-29,96-29,96s56-29,45-39c1.76,1.49-14,45-32,55c4.73,6.17,28.68-0.81,44-13
		c43.35-34.5,25.69-117.12,23-129"/>
	<path class="st6" d="M272.13,97.43c14.01,28.85,62.09,68.06,100.58,100.55c6.89,5.82-1.42,24.24-12.58,42.45
		c3.27,3.09,12.2-1.57,14.1-2.56c14.74-7.68,24.59-25.25,24.9-47.44"/>
	<path class="st0" d="M135.13,230.31"/>
	<path class="st5" d="M400.13,184.43c13.28-12.14-9.4-78.73-56.3-113.26c-61.44-45.24-168.58-38.51-210.7,20.26
		c-23.13,32.28-27.56,81.51-11,92c28.84,18.27,125.02-83.91,136.5-72.5c4.98,4.95-11.12,26.16-4.5,32.5
		c7.01,6.71,25.92-16.2,49.5-12.5c23.3,3.66,24.19,29.06,59,46C370.69,180.85,392.29,191.6,400.13,184.43z"/>
	<g>
		<g>
			<path d="M241.51,110.57c0.78-3.65,1.16-7.39,1.13-11.12c-0.01-1.07-1.29-1.96-2.26-1.3c-3.41,2.35-6.52,5.1-9.24,8.23
				c-0.53,0.61-0.6,1.52,0,2.12c0.54,0.54,1.59,0.61,2.12,0c2.55-2.93,5.44-5.55,8.63-7.76c-0.75-0.43-1.5-0.86-2.26-1.3
				c0.04,3.47-0.3,6.93-1.02,10.33c-0.17,0.79,0.23,1.62,1.05,1.85C240.42,111.82,241.34,111.36,241.51,110.57L241.51,110.57z"/>
		</g>
	</g>
	<g>
		<path d="M298.58,127.53c-0.74,0.01-0.84-7.33-3.11-21.84c-1.42-9.13-2.97-16.61-4.1-21.68c2.72,4.55,6.13,11.49,7.76,20.42
			C301.33,116.43,299.49,127.52,298.58,127.53z"/>
		<g>
			<path d="M298.58,126.03c0.38,0.04,1.05,0.54,1.12,0.59c0.02,0.01,0.09,0.37,0.07,0.15c-0.02-0.19-0.1-0.39-0.14-0.58
				c-0.16-0.76-0.17-1.05-0.26-1.76c-0.28-2.33-0.51-4.67-0.79-7.01c-0.92-7.81-2.12-15.58-3.59-23.3
				c-0.67-3.51-1.39-7.02-2.17-10.51c-0.91,0.39-1.83,0.77-2.74,1.16c4.15,6.98,6.96,14.7,8.04,22.76
				c0.58,4.34,0.71,8.76,0.39,13.12c-0.1,1.42-0.25,2.85-0.53,4.25c-0.1,0.47-0.21,0.94-0.35,1.4c-0.1,0.32-0.1,0.12-0.06,0.19
				c-0.02,0.05-0.05,0.1-0.08,0.14c0.16-0.27,0.39-0.44,0.7-0.54c-1.9,0.33-1.09,3.23,0.8,2.89c1.53-0.27,1.81-2.79,2.02-3.96
				c0.52-3.01,0.68-6.08,0.67-9.12c-0.03-7.98-1.44-15.95-4.42-23.36c-1.29-3.21-2.82-6.31-4.58-9.28
				c-0.89-1.49-3.11-0.49-2.74,1.16c1.69,7.58,3.12,15.21,4.29,22.89c0.93,6.14,1.48,12.32,2.32,18.47c0.19,1.35,0.34,3.1,2.04,3.27
				C300.5,129.22,300.48,126.22,298.58,126.03z"/>
		</g>
	</g>
	<g>
		<g>
			<path d="M404.73,185.37c0-3.52,0-7.03,0-10.55c0-0.81-0.69-1.5-1.5-1.5c-0.81,0-1.5,0.69-1.5,1.5c0,3.52,0,7.03,0,10.55
				c0,0.81,0.69,1.5,1.5,1.5C404.05,186.87,404.73,186.18,404.73,185.37L404.73,185.37z"/>
		</g>
	</g>
	<g>
		<g>
			<path d="M183.94,64.59c9.05-0.66,18.17-0.34,27.14,1.02c1.89,0.29,2.7-2.6,0.8-2.89c-9.25-1.4-18.6-1.81-27.94-1.13
				C182.03,61.73,182.01,64.73,183.94,64.59L183.94,64.59z"/>
		</g>
	</g>
	<g>
		<g>
			<path d="M282.7,71.72c-1.68-3.47-4.81-6.12-8.44-7.34c-0.74-0.25-1.67,0.29-1.85,1.05c-0.19,0.83,0.25,1.58,1.05,1.85
				c0.2,0.07,0.4,0.14,0.59,0.21c0.16,0.06,0.2,0.06,0.01,0c0.1,0.03,0.22,0.09,0.31,0.14c0.38,0.18,0.76,0.37,1.12,0.58
				c0.35,0.2,0.68,0.42,1.01,0.66c0.08,0.06,0.15,0.11,0.23,0.17c0.31,0.23-0.24-0.2,0.06,0.05c0.16,0.13,0.32,0.27,0.48,0.41
				c0.3,0.27,0.59,0.55,0.86,0.84c0.14,0.15,0.28,0.31,0.42,0.47c0.06,0.07,0.12,0.15,0.18,0.22c0.04,0.05,0.3,0.33,0.05,0.06
				c0.55,0.59,0.96,1.43,1.31,2.15c0.34,0.71,1.41,0.95,2.05,0.54C282.89,73.31,283.07,72.48,282.7,71.72L282.7,71.72z"/>
		</g>
	</g>
	<g>
		<g>
			<path d="M364.88,71.43c8.24,14.54,15.54,29.59,21.83,45.07c0.72,1.77,3.62,0.99,2.89-0.8c-6.38-15.72-13.76-31.02-22.13-45.79
				C366.52,68.23,363.93,69.74,364.88,71.43L364.88,71.43z"/>
		</g>
	</g>
	<g>
		<g>
			<path d="M118.3,132.1c0.55-4.03,2.17-7.72,3.86-11.38c1.77-3.84,3.6-7.66,5.48-11.45c3.72-7.51,7.64-14.92,11.75-22.23
				c0.95-1.68-1.64-3.2-2.59-1.51c-4.19,7.44-8.18,15-11.97,22.66c-1.87,3.79-3.7,7.61-5.47,11.46c-1.72,3.74-3.4,7.55-3.96,11.67
				c-0.11,0.81,0.2,1.6,1.05,1.85C117.16,133.35,118.2,132.9,118.3,132.1L118.3,132.1z"/>
		</g>
	</g>
	<path class="st7" d="M111.13,209.43c-1.18,3.76-3.06,11.56-1,21c1.38,6.34,4.03,11.08,6,14"/>
	<path class="st7" d="M412.24,208.26c1.18,3.76,3.06,11.56,1,21c-1.38,6.34-4.03,11.08-6,14"/>
	<path class="st8" d="M311.13,303.43c-6.71-0.63-82.74,6.38-92,12c-12.7,7.71,18.49,41.69,47,41
		C299.5,355.63,326.4,304.85,311.13,303.43z"/>
	<path class="st9" d="M312.13,321.43c-25.13-3.02-44.51-1.31-58,1c0,0-2.73,0.47-35,7l0,0c0,0,19,28,50,27
		C283.13,354.43,300.13,342.43,312.13,321.43z"/>
	<path class="st10" d="M228.13,319.43c21.78-3.89,61.43-4.53,77-10c2.66-0.93,3.77-5.29,2-6c-4.41-1.76-84.92,9.09-85,11
		C222.11,315.05,221.76,320.57,228.13,319.43z"/>
	<line class="st16" x1="268.13" y1="225.43" x2="255.13" y2="233.43"/>
	<line class="st16" x1="269.13" y1="230.43" x2="248.13" y2="243.43"/>
	<line class="st16" x1="274.13" y1="233.43" x2="247.13" y2="250.43"/>
	<line class="st16" x1="276.13" y1="239.43" x2="248.13" y2="256.43"/>
	<line class="st16" x1="279.13" y1="243.43" x2="250.13" y2="260.43"/>
	<path class="st17" d="M262.13,269.93c-0.17,4-0.33,8-0.5,12c-1.83-1.67-3.67-3.33-5.5-5"/>
	<g>
		<g>
			<path class="st4" d="M168.06,259.22c-0.61,0.82-1.22,1.63-1.83,2.45c-0.11,0.17-0.17,0.36-0.18,0.56c-0.04,0.2-0.04,0.4,0.03,0.6
				c0.1,0.35,0.36,0.73,0.69,0.9c0.35,0.18,0.77,0.28,1.16,0.15c0.12-0.05,0.24-0.1,0.36-0.15c0.23-0.13,0.4-0.31,0.54-0.54
				c0.61-0.82,1.22-1.63,1.83-2.45c0.11-0.17,0.17-0.36,0.18-0.56c0.04-0.2,0.04-0.4-0.03-0.6c-0.1-0.35-0.36-0.73-0.69-0.9
				c-0.35-0.18-0.77-0.28-1.16-0.15c-0.12,0.05-0.24,0.1-0.36,0.15C168.38,258.82,168.2,259,168.06,259.22L168.06,259.22z"/>
		</g>
	</g>
	<g>
		<g>
			<path class="st4" d="M172.01,261.96c-0.2,0.31-0.41,0.61-0.61,0.92c-0.11,0.17-0.17,0.36-0.18,0.56c-0.04,0.2-0.04,0.4,0.03,0.6
				c0.05,0.2,0.14,0.37,0.27,0.51c0.11,0.16,0.25,0.29,0.42,0.39c0.12,0.05,0.24,0.1,0.36,0.15c0.27,0.07,0.53,0.07,0.8,0
				c0.12-0.05,0.24-0.1,0.36-0.15c0.23-0.13,0.4-0.31,0.54-0.54c0.2-0.31,0.41-0.61,0.61-0.92c0.11-0.17,0.17-0.36,0.18-0.56
				c0.04-0.2,0.04-0.4-0.03-0.6c-0.05-0.2-0.14-0.37-0.27-0.51c-0.11-0.16-0.25-0.29-0.42-0.39c-0.12-0.05-0.24-0.1-0.36-0.15
				c-0.27-0.07-0.53-0.07-0.8,0c-0.12,0.05-0.24,0.1-0.36,0.15C172.33,261.55,172.15,261.73,172.01,261.96L172.01,261.96z"/>
		</g>
	</g>
	<g>
		<g>
			<path class="st4" d="M341.5,261.8c0,0.51,0,1.02,0,1.53c-0.01,0.21,0.04,0.4,0.13,0.58c0.06,0.19,0.16,0.35,0.31,0.48
				c0.14,0.15,0.3,0.25,0.48,0.31c0.18,0.09,0.37,0.14,0.58,0.13c0.13-0.02,0.27-0.04,0.4-0.05c0.25-0.07,0.47-0.2,0.66-0.39
				c0.27-0.29,0.44-0.65,0.44-1.06c0-0.51,0-1.02,0-1.53c0.01-0.21-0.04-0.4-0.13-0.58c-0.06-0.19-0.16-0.35-0.31-0.48
				c-0.14-0.15-0.3-0.25-0.48-0.31c-0.18-0.09-0.37-0.14-0.58-0.13c-0.13,0.02-0.27,0.04-0.4,0.05c-0.25,0.07-0.47,0.2-0.66,0.39
				C341.67,261.04,341.5,261.4,341.5,261.8L341.5,261.8z"/>
		</g>
	</g>
	<g>
		<g>
			<path class="st4" d="M346.05,260.62c0.01,0.01,0.02,0.03,0.04,0.04c-0.08-0.1-0.16-0.2-0.23-0.3c0.24,0.32,0.44,0.66,0.6,1.03
				c-0.05-0.12-0.1-0.24-0.15-0.36c0.17,0.4,0.28,0.82,0.34,1.26c-0.02-0.13-0.04-0.27-0.05-0.4c0.05,0.38,0.05,0.76,0.01,1.13
				c-0.04,0.36,0.2,0.82,0.44,1.06c0.26,0.26,0.69,0.46,1.06,0.44c0.39-0.02,0.79-0.14,1.06-0.44c0.08-0.1,0.16-0.2,0.23-0.3
				c0.14-0.23,0.2-0.49,0.2-0.76c0.08-0.75,0-1.53-0.21-2.25c-0.12-0.4-0.28-0.8-0.47-1.18c-0.2-0.4-0.47-0.74-0.74-1.09
				c-0.22-0.28-0.72-0.44-1.06-0.44c-0.37,0-0.81,0.16-1.06,0.44c-0.26,0.29-0.46,0.66-0.44,1.06c0.02,0.13,0.04,0.27,0.05,0.4
				C345.74,260.21,345.87,260.43,346.05,260.62L346.05,260.62z"/>
		</g>
	</g>
	<path class="st6" d="M247.13,114.43c-12.82,8.94-94,84-101,114c-2,5,9.6,31.37,11,31c0.08-0.02,0.11-0.11,0.12-0.15
		c0.66-2.62-54.89-18.44-44.12-91.85"/>
	<path class="st19" d="M387.6,450.82c-3.39-11.02-17.16-16.07-26.97-15.89c-22.05,0.42-41.46,27.71-36,40
		c5.67,12.76,40.77,15.35,55.97-1.11C381.47,472.88,391.09,462.15,387.6,450.82z"/>
	<path class="st0" d="M319.13,391.43"/>
	<path class="st0" d="M319.13,382.43"/>
	<path class="st0" d="M323.13,381.43"/>
	<path class="st23" d="M360.13,374.43"/>
	<g>
		<path class="st21" d="M426.22,453.85c-8.04,8.9-15.93,17.94-23.65,27.12"/>
		<g>
			<path class="st21" d="M425.16,452.79c-8.04,8.9-15.93,17.94-23.65,27.12c-1.24,1.47,0.88,3.6,2.12,2.12
				c7.72-9.18,15.6-18.22,23.65-27.12C428.57,453.48,426.45,451.36,425.16,452.79L425.16,452.79z"/>
		</g>
	</g>
	<path class="st3" d="M124.84,274.17c2.93-18.49,11.17-51.8,38-78.78c54.31-54.63,162.63-61.1,209-4.49
		c25.91,31.63,24.39,73.1,22,93.27c10.99-14.15,45.25-61.99,42.72-129.74c-1.59-42.71-17.11-74.73-26.72-91.26
		c-27.87-11.62-69.04-24.71-120-27c-91.8-4.13-161.44,29.21-193,47c-5.42,21.45-11.98,59.19-4,105
		C99.6,226.98,114.14,256.29,124.84,274.17z"/>
	<path class="st24" d="M315.99,403.78c11.67,2.67,23.33,5.33,35,8c-11.67,19-23.33,38-35,57c-16.12,19.24-39.13,22.57-66,17
		c-16.03-0.62-30.02-9.73-43-23c-12.59-10.62-21.9-29.55-31-49c12.33-3,27-8,37-9c1.96,14.23,6.69,28.69,22,44
		c3.9,1.62,29.25,11.68,52-1c1.94-1.08,10.72-6.15,18.21-16.54C313.08,420.28,315.27,409.34,315.99,403.78z"/>
	<path class="st19" d="M150.99,423.78c-4.18-2.8-7.09-8.99-5-13c2.53-4.84,11.42-4.69,17-2c3.79,1.83,8.77,6.13,8,10
		C169.94,424.08,158.12,428.54,150.99,423.78z"/>
	<g>
		<path d="M378.13,440.12c-16.55,13.03-32.66,26.63-48.28,40.77"/>
	</g>
	<g>
		<path class="st21" d="M168.9,449.36c4.25,6.89,9.5,13.15,15.53,18.53"/>
		<g>
			<path class="st21" d="M167.6,450.12c4.33,6.99,9.64,13.35,15.77,18.84c1.43,1.28,3.56-0.83,2.12-2.12
				c-5.95-5.32-11.1-11.44-15.3-18.23C169.18,446.96,166.58,448.47,167.6,450.12L167.6,450.12z"/>
		</g>
	</g>
	<path class="st19" d="M354.21,420.27h30v-8c-8.67-1-17.33-2-26-3C356.87,412.93,355.54,416.6,354.21,420.27z"/>
	<path class="st3" d="M106.47,83.55c4-0.59,12.27,3.88,12.77,9.13c0.12,1.2-0.1,2.49-0.77,3.87c-39.97,82.53,43.81,234.33,49,235
		c0.24,0.03,2.59,0.32,2.58,0.57c-0.03,0.65-15.83,0.74-19.58,0.43c-30.47-2.53-61.47-97.85-58-191
		C92.77,133.56,94.83,85.25,106.47,83.55z"/>
	<path class="st3" d="M405.84,68.17c-6.9,0.1-12.77,21.68-21,20c-2.46-0.5-4.62-2.73-5-5c-0.71-4.25,4.6-9.73,14-13l0,0l0,0l4,5
		c5.09,6.31,11.82,16.26,16.28,29.83c2.68,8.15,3.86,15.56,4.36,21.55c1.37,11.37,0.61,19.52-0.38,35.41
		c-1.35,21.66-5.42,49.36-16.62,88.59c0,0-17.85,82.29-40.93,85.6c-0.29,0.04-2.59,0.34-2.58,0.57c0.04,0.87,27.12,0.38,29.58-0.57
		c36.59-14.03,43.74-109.95,44.54-124.25C436.42,134.22,417.97,68,405.84,68.17z"/>
	<path class="st3" d="M407.47,80.55c-8.38-2.54-16.3,4.18-23,8c-6.4,3.65,26.08,26.11,27,74c0.07,3.59,6.79,2.51,10,1
		C437.38,156.05,432.26,88.06,407.47,80.55z"/>
	<path class="st25" d="M307.97,375.05c-22.32,24.48-73.81,24.93-94,2c-32.47-36.89,17.25-132.94,51-132
		C297.23,245.95,343.37,336.22,307.97,375.05z"/>
	<path class="st3" d="M306.97,490.05c34.08-16.12,66.76-54.68,58-80c-16.29-47.06-178.25-55.32-200-9
		c-11.48,24.46,14.99,66.54,48,86C256.76,512.86,301.49,492.64,306.97,490.05z"/>
	<path class="st22" d="M190.97,383.05c-22.04-0.49-39.38-16.25-57.5-29.5"/>
	<path class="st22" d="M340.74,378.13c22.04-0.49,39.38-16.25,57.5-29.5"/>
	<path class="st22" d="M99.97,115.05c16.11,1.01,42.92,0.5,73-11c18.54-7.09,32.86-16.26,43-24"/>
	<path class="st22" d="M293.97,58.05c15.7-2.26,51.34-5.05,88,14c14.24,7.4,25.1,16.26,33,24"/>
	<path class="st26" d="M88.47,147.55c25.09-15.91,68.59-38.75,127-47c91.46-12.91,162.91,17.96,191,32"/>
	<path class="st1" d="M135.97,392.05c-17.78,12.48-31.91,29.65-42,52c20.32,15.79,84.94,61.85,180,63.7
		c94.06,1.83,159.9-40.75,181-55.7c-3.28-22.05-34.4-40.75-61-60"/>
	<path class="st22" d="M402.97,474.05c-1.52-13.41-56.96-26-100-9c-24.51,9.68-54.75,32.82-51.95,39c0.25,0.56,0.72,0.86,0.95,1
		C263.15,511.98,405.47,495.95,402.97,474.05z"/>
	<path class="st22" d="M382.97,399.05c-14.63,16.94-40.75,22.95-70,26c0,0,16.52,8.28,48,10"/>
	<path class="st22" d="M139.97,403.05c16.48,15.11,39.82,27.46,80,33"/>
	<g>
		<circle class="st19" cx="264.47" cy="358.55" r="61"/>
		<path d="M208.36,358.55c-2,32.21,23.05,61.29,56.12,60.43c23.57-0.13,45.7-16.05,52.94-38.5c14.47-45.15-28.57-85.72-72.63-69.46
			C224.83,317.94,209.22,336.94,208.36,358.55L208.36,358.55z M198.59,358.55c-2.04-37.44,27.5-71.46,65.88-70.87
			c38.08,0.16,69.06,32.84,66.38,70.87c-1.42,25.48-18.76,48.75-42.59,57.45C248.26,431.37,200.26,402.33,198.59,358.55
			L198.59,358.55z"/>
	</g>
	<circle class="st8" cx="264.97" cy="362.05" r="6"/>
	<line class="st0" x1="230.93" y1="327" x2="252.02" y2="348.09"/>
	<line class="st0" x1="248.47" y1="362.05" x2="213.47" y2="362.05"/>
	<line class="st0" x1="265.97" y1="345.55" x2="265.97" y2="317.55"/>
	<line class="st0" x1="265.97" y1="408.55" x2="265.97" y2="380.55"/>
	<line class="st0" x1="231.09" y1="397.47" x2="252.19" y2="376.38"/>
	<line class="st0" x1="279.09" y1="373.39" x2="300.19" y2="394.49"/>
	<line class="st0" x1="279.09" y1="349.49" x2="300.19" y2="328.39"/>
	<line class="st0" x1="317.47" y1="362.05" x2="282.47" y2="362.05"/>
	<path class="st27" d="M330.97,346.05c-15.58-57.16-44.29-102.06-66-101c-23.35,1.15-59.15,44.42-66,99c-13.7-1.8-33.46-6.82-49-22
		c-37.65-36.79-28.94-112.22,6.36-153.38c50.59-58.97,162.7-55.68,211,5c35.48,44.57,39.13,123.38,0.64,156.38
		C355.93,340.37,341.89,344.39,330.97,346.05z"/>
	<path class="st27" d="M327.97,359.05c-6.37-68.67-40.25-116.7-63-114c-25.77,3.06-63.87,47.6-64,112
		c-16.98-1.39-41.38-6.46-60.44-24.37c-44.46-41.77-36.01-130.94,7.8-180.01c56.39-63.16,173.28-62.01,228,3
		c45.23,53.73,45.56,148.22-0.8,185.63C360.47,353.46,342.74,357.75,327.97,359.05z"/>
	<g>
		<path class="st15" d="M290.42,245.88c-2.37-4.12-2.13-8.19-1.93-11.53c0.09-1.51,0.66-11.17,6.75-16.91
			c11.57-10.91,45.46-9.98,57.88,5.38c5.58,6.9,7.7,17.8,0.96,26.14c-9.27,11.48-28.98,10.29-33.77,9.99
			C317.66,258.79,296.98,257.31,290.42,245.88z"/>
		<path class="st28" d="M357.87,250.63c0.37-2.46,2.7-19.66-10-31.15c-15.64-14.15-44.75-11.19-56,1.83c-2.9,3.36-4.3,7.02-5,10.08"
			/>
		<circle class="st8" cx="317.12" cy="233.38" r="12.25"/>
		<circle class="st15" cx="322.9" cy="229.75" r="4.76"/>
		<path class="st15" d="M227.94,244.47c2.37-4.12,2.13-8.19,1.93-11.53c-0.09-1.51-0.66-11.17-6.75-16.91
			c-11.57-10.91-45.46-9.98-57.88,5.38c-5.58,6.9-7.7,17.8-0.96,26.14c9.27,11.48,28.98,10.29,33.77,9.99
			C200.7,257.38,221.37,255.89,227.94,244.47z"/>
		<circle class="st8" cx="201.24" cy="231.97" r="12.25"/>
		<circle class="st15" cx="207.46" cy="228.33" r="4.76"/>
		<path class="st0" d="M167.36,250.7c3.03,1.51,28.63,13.79,50,1c5.27-3.15,9.16-7.16,12-11"/>
		<path class="st27" d="M216.87,194.63c-23.83-0.75-45.82,3.13-65,14"/>
		<path class="st27" d="M298.91,194.62c23.83-0.75,45.82,3.13,65,14"/>
		<path class="st28" d="M159.73,247.85c-0.37-2.46-2.7-19.66,10-31.15c15.64-14.15,44.75-11.19,56,1.83c2.9,3.36,4.3,7.02,5,10.08"
			/>
		<path class="st0" d="M351.11,252.62c-3.03,1.51-28.63,13.79-50,1c-5.27-3.15-9.16-7.16-12-11"/>
	</g>
	<path class="st29" d="M330.39,345.75c-15.58-57.16-44.29-102.06-66-101c-23.35,1.15-59.15,44.42-66,99
		c-14.38-1.93-33.63-7.22-49-22c-36.85-35.44-30.59-105.36-1.05-144.08c47.48-62.23,167.82-60.49,217,2
		c33.07,42.02,38.85,117.74,2.05,150.08C359.98,336.26,348.45,343.12,330.39,345.75z"/>
	<path class="st30" d="M273.34,244.67c34.23,19.1,34.33,46.19,42,53c1.03,0.92,15.91,9.37,29.77,4.5
		c21.66-7.61,32.13-44.76,24.23-70.5c-11.16-36.36-79.04-118.56-103.53,7.69C265.24,242.3,269,242.25,273.34,244.67z"/>
	<path class="st3" d="M752,698.5h-40c3-21.33,6-42.67,9-64c10.33,11.33,20.67,22.67,31,34C752,678.5,752,688.5,752,698.5z"/>
	<path class="st30" d="M247.34,248.67c-9.19,9.33-15.61,17.65-21,25c-17.28,23.58-14.45,24.16-20,28
		c-9.42,6.52-23.54,9.04-34.48,4.8c-22.82-8.85-31.84-45.69-24.23-70.5c11.16-36.36,79.04-118.56,103.53,7.69
		c0.13,0.69-0.08,1.31-0.08,1.31C250.16,245.85,248.87,247.12,247.34,248.67z"/>
	<path class="st31" d="M251.34,247.67c-4.45-36.41-19.6-66.98-40-71c-31.1-6.13-74.07,49.64-65,92c3.3,15.41,15.21,37.19,32,40
		c13.01,2.18,27.23-11.29,28-4c0.45,4.23-4.04,25.49-7,33c-5.4,13.7-47.18-8.5-64-35c-25.09-39.52-11.06-102.71,26-139
		c35.62-34.88,82.38-34.97,98-35c15.43-0.03,65.55-0.13,103,39c2.45,2.56,34.15,36.67,35,86c0.33,18.97-4.03,33.23-6,39
		c-3.56,10.45-10.45,29.8-29,43c-7.8,5.55-21.11,17-31,10c-10.12-7.16-12.01-44.62-15-45c-6.27-0.8,16.77,7.15,30-9
		c13-15.86,18.51-37.55,19-45c1.4-21.18-5.68-56.27-33-69c-2.94-1.37-16.81-7.82-32-3c-14.48,4.59-34.68,30.22-35,69"/>
	<ellipse class="st3" cx="720" cy="675" rx="24.5" ry="30"/>
	<path class="st3" d="M873.5,674.99c0,18.29-10.52,39.09-26.13,39.98c-14.21,0.81-25.69-15.29-28.26-30.65
		c-3.87-23.08,11.4-50.1,28.26-49.31C861.39,635.66,873.49,655.39,873.5,674.99z"/>
	<path class="st32" d="M732.39,622.86c0.86,30.41,27.32,53.34,55.34,50.73c25.67-2.39,46.52-25.66,45.7-53.41
		c2.99,0.71,5.98,1.41,8.97,2.12c0.08,32.84-24.22,59.9-53.83,63.3c-33.5,3.84-66.47-23.45-68.21-60.9
		C724.37,624.09,728.38,623.48,732.39,622.86z"/>
</g>
</svg>
