<?xml version="1.0" encoding="utf-8"?>
<!-- Generator: Adobe Illustrator 28.3.0, SVG Export Plug-In . SVG Version: 6.00 Build 0)  -->
<svg version="1.1" id="Layer_1" xmlns="http://www.w3.org/2000/svg" xmlns:xlink="http://www.w3.org/1999/xlink" x="0px" y="0px"
	 viewBox="0 0 746 740" style="enable-background:new 0 0 746 740;" xml:space="preserve">
<style type="text/css">
	.st0{fill:#080D1D;stroke:#FFFFFF;stroke-miterlimit:10;}
	.st1{fill:none;stroke:#FFFFFF;stroke-miterlimit:10;}
	.st2{fill:#10495B;}
	.st3{fill:#322B13;}
	.st4{fill:#FFFFFF;}
</style>
<g>
	<path class="st0" d="M298.36,156.98c0,0-13.76,68.74-8.7,143.61c4.8,71.12,32.2,131.12,36.27,174.08
		c1.79,36.82,1.65,71.09-5.8,95.74c-11.74,7.43-46.36,27.19-93.6,23.83c-37.54-2.67-64.25-18.59-76.13-26.73
		c-2.26-9.31-5.02-23.38-5.8-40.62c-1.31-28.84,3.7-49.42,11.61-82.69c4.33-18.25,11.39-48.13,21.76-92.84
		c2.56-64.85,0.69-127.5-7.25-187.13C210.6,172.91,253.59,168.66,298.36,156.98z"/>
	<path class="st1" d="M305.61,487.73c-37.92-42.69-126.21-29.01-140.71,1.45"/>
	<path class="st1" d="M146.04,542.85c59.47,26.69,118.94,27.4,178.43,1.45"/>
	<path class="st0" d="M447.78,156.98c2.15,30.82,3.78,62.76,4.76,95.75c0.81,27.31,1.13,53.91,1.04,79.78
		c-11.17,47.15-22.33,94.31-33.5,141.47c0,0-1.65,71.09,5.8,95.74c11.74,7.43,46.36,27.19,93.6,23.83
		c37.54-2.67,64.25-18.59,76.13-26.73c2.26-9.31,5.02-23.38,5.8-40.62c1.31-28.84-3.7-49.42-11.61-82.69
		c-4.33-18.25-11.39-48.13-21.76-92.84c-0.77-30.66-0.93-62.53-0.31-95.52c0.71-38.14,2.39-74.77,4.8-109.77
		c-9.37,6.55-29.97,19.07-59.23,22.17C482.19,170.84,458.21,161.69,447.78,156.98z"/>
	<path class="st1" d="M440.39,487.03c37.92-42.69,126.21-29.01,140.71,1.45"/>
	<path class="st1" d="M599.96,542.15c-59.47,26.69-118.94,27.4-178.43,1.45"/>
	<g>
		<path class="st2" d="M285.37,361.77c3.42,23.22,7.81,46.3,13.15,69.16"/>
		<g>
			<path class="st3" d="M281.03,362.97c2.67,18.11,5.92,36.12,9.76,54.02c1.08,5.06,2.22,10.1,3.39,15.14
				c0.54,2.29,3.29,3.87,5.54,3.14c2.4-0.78,3.72-3.08,3.14-5.54c-4.16-17.82-7.75-35.78-10.75-53.83
				c-0.85-5.1-1.65-10.21-2.4-15.32c-0.34-2.34-3.42-3.83-5.54-3.14C281.62,358.26,280.66,360.46,281.03,362.97L281.03,362.97z"/>
		</g>
	</g>
	<g>
		<path class="st4" d="M555.31,368.5c7.85,23.4,15.69,46.81,23.54,70.21"/>
		<g>
			<path class="st3" d="M550.97,369.7c6.11,18.22,12.22,36.44,18.33,54.66c1.74,5.18,3.48,10.37,5.21,15.55
				c0.75,2.23,3.13,3.92,5.54,3.14c2.22-0.72,3.94-3.15,3.14-5.54c-6.11-18.22-12.22-36.44-18.33-54.66
				c-1.74-5.18-3.48-10.37-5.21-15.55c-0.75-2.23-3.13-3.92-5.54-3.14C551.9,364.88,550.17,367.31,550.97,369.7L550.97,369.7z"/>
		</g>
	</g>
	<g>
		<path class="st4" d="M248.5,476.81c9.86,3.26,19.21,8.04,27.62,14.12"/>
		<g>
			<path class="st3" d="M247.3,481.15c2.39,0.8,4.76,1.67,7.09,2.64c-0.57-0.24,0.14,0.06,0.36,0.16c0.27,0.12,0.54,0.24,0.81,0.36
				c0.54,0.24,1.08,0.49,1.62,0.74c1.21,0.56,2.41,1.15,3.6,1.76c4.55,2.34,8.92,5.03,13.07,8.02c1.92,1.38,5.1,0.4,6.16-1.61
				c1.23-2.33,0.43-4.68-1.61-6.16c-8.75-6.3-18.47-11.17-28.7-14.57c-2.24-0.74-5.02,0.86-5.54,3.14
				C243.59,478.09,244.91,480.35,247.3,481.15L247.3,481.15z"/>
		</g>
	</g>
	<g>
		<path class="st4" d="M521.03,481.12c13.88,0.09,27.69,5.07,38.42,13.87"/>
		<g>
			<path class="st3" d="M521.03,485.62c1.68,0.02,3.36,0.09,5.04,0.25c0.42,0.04,0.84,0.08,1.26,0.13c0.08,0.01,1.45,0.19,0.47,0.05
				c0.83,0.12,1.66,0.25,2.49,0.4c3.31,0.6,6.57,1.48,9.74,2.61c0.79,0.28,1.57,0.59,2.36,0.9c0.9,0.35-0.48-0.23,0.48,0.2
				c0.38,0.17,0.77,0.34,1.15,0.52c1.53,0.7,3.03,1.47,4.5,2.29c1.41,0.79,2.78,1.64,4.12,2.53c0.7,0.47,1.39,0.95,2.06,1.45
				c0.12,0.09,1.04,0.79,0.72,0.53c-0.23-0.18-0.16-0.13,0.21,0.17c0.22,0.17,0.44,0.35,0.65,0.53c1.82,1.48,4.6,1.92,6.36,0
				c1.51-1.64,1.95-4.78,0-6.36c-11.77-9.57-26.4-15.04-41.61-15.19c-2.35-0.02-4.61,2.09-4.5,4.5
				C516.64,483.58,518.5,485.59,521.03,485.62L521.03,485.62z"/>
		</g>
	</g>
</g>
</svg>
