<?xml version="1.0" encoding="utf-8"?>
<!-- Generator: Adobe Illustrator 28.3.0, SVG Export Plug-In . SVG Version: 6.00 Build 0)  -->
<svg version="1.1" id="Layer_1" xmlns="http://www.w3.org/2000/svg" xmlns:xlink="http://www.w3.org/1999/xlink" x="0px" y="0px"
	 viewBox="0 0 818 1774" style="enable-background:new 0 0 818 1774;" xml:space="preserve">
<style type="text/css">
	.st0{display:none;fill:#426646;}
	.st1{fill:none;stroke:#000000;stroke-miterlimit:10;}
	.st2{fill:#426646;stroke:#000000;stroke-miterlimit:10;}
	.st3{fill:#FFE3CB;stroke:#000000;stroke-miterlimit:10;}
	.st4{fill:#426646;}
	.st5{fill:#FFB995;}
	.st6{fill:#332C26;}
	.st7{fill:#332C26;stroke:#000000;stroke-miterlimit:10;}
	.st8{fill:none;stroke:#FFB995;stroke-miterlimit:10;}
	.st9{stroke:#000000;stroke-miterlimit:10;}
	.st10{fill:#FF3858;}
	.st11{fill:#FFFFFF;stroke:#000000;stroke-miterlimit:10;}
	.st12{fill:#080D1D;stroke:#FFFFFF;stroke-miterlimit:10;}
	.st13{fill:none;stroke:#FFFFFF;stroke-miterlimit:10;}
	.st14{fill:#10495B;}
	.st15{fill:#322B13;}
	.st16{fill:#FFFFFF;}
	.st17{fill:#FFB995;stroke:#FFB995;stroke-miterlimit:10;}
	.st18{fill:#FFB995;stroke:#000000;stroke-width:0.5;stroke-miterlimit:10;}
	.st19{fill:#080D1D;}
	.st20{fill:#8DA1A9;}
	.st21{fill:#20382B;}
	.st22{fill:#597590;}
	.st23{fill:#20382B;stroke:#20382B;stroke-miterlimit:10;}
	.st24{fill:#304D37;stroke:#000000;stroke-miterlimit:10;}
	.st25{stroke:#000000;stroke-width:5;stroke-miterlimit:10;}
	.st26{fill:#5B7077;stroke:#000000;stroke-miterlimit:10;}
	.st27{fill:none;stroke:#20382B;stroke-width:3;stroke-miterlimit:10;}
	.st28{fill:none;stroke:#000000;stroke-width:3;stroke-miterlimit:10;}
	.st29{fill:none;stroke:#000000;stroke-width:4;stroke-miterlimit:10;}
	.st30{opacity:0.5;fill:#231F20;stroke:#000000;stroke-width:3;stroke-miterlimit:10;}
	.st31{fill:none;stroke:#000000;stroke-width:7;stroke-miterlimit:10;}
	.st32{fill:#231F20;stroke:#000000;stroke-width:3;stroke-miterlimit:10;}
</style>
<path class="st0" d="M232.81,779.44c3.73,59.65,34.8,136.7,34.8,136.7s11.18,55.92,123.03,103.15
	c19.11-7.03,78.89-31.74,120.55-96.94c26.1-67.11,38.96-130.11,37.28-150.38c-11.21-70.41-67.41-161.74-152.86-164.05
	C305.85,605.51,242.29,702.88,232.81,779.44z"/>
<g>
	<path class="st1" d="M358.68,1195.51"/>
	<path class="st2" d="M504.83,465.54c14.8-39.75,25.52-73.72,32.93-98.92c32.15-109.4,30.82-151.86,29.37-171.18
		c-1.9-25.25-6.62-45.67-10.33-59c-16.59-17.37-62.03-60.28-133.32-73c-95.42-17.03-167.24,32.49-183.07,44
		c-5.28,8.11-12.82,21.7-16.9,40c-3.78,16.96-2.98,30.79-1.88,43c7.61,84.34,35.51,154.29,44.72,176.38l0,0
		c13.15,32.24,26.3,64.49,39.44,96.73"/>
	<path class="st3" d="M456.01,330.2c2.63,23.55-6,13-8,90c-2.94,9.27-8.97,25.81-22,43c-10.02,13.22-18.65,24.6-30,25
		c-18.93,0.66-33.56-29.65-40-43c-13.52-28-6-64-11-106C366.05,312.96,413.69,306.3,456.01,330.2z"/>
	<g>
		<path class="st4" d="M510.63,833.25c1.96-4.29,6.31-15.17,1.38-22.05c-3.4-4.74-9.72-5.52-11.98-5.8
			c-54.87-6.94-12.26-12.05-90.68-13.56c-40.48-0.78-83.06-0.96-118.58,18.47c-1.8,0.98-3.64,2.08-4.69,3.84
			c-0.89,1.49-1.1,3.28-1.28,5.02c-3.14,30.51-3.29,61.33-0.43,91.87c0.78,8.37,1.82,16.83,4.83,24.68
			c4.34,11.31,12.51,20.66,20.51,29.75c3.94,4.47,8.06,9.08,13.52,11.46c6.31,2.74,13.48,2.14,20.35,2.42
			c10.01,0.41,19.83,2.81,29.79,3.85c9.96,1.05,20.5,0.62,29.29-4.19c5.89-3.23,10.6-8.21,15.19-13.11
			c13.19-14.04,26.4-28.12,38.09-43.43c4.17-5.47,8.16-11.11,12.94-16.05c5.42-5.6,11.8-10.25,16.83-16.21
			c6.23-7.37,10.11-16.39,13.9-25.26c3.64-8.52,8.12-20.32,11.8-35.05"/>
		<g>
			<path d="M511.93,834.01c3.94-8.68,7.14-21.68-2.99-27.49c-3.89-2.23-8.32-2.52-12.66-3.11c-4.1-0.56-8.19-1.19-12.26-1.96
				c-4.58-0.87-9.17-1.91-13.54-3.56c-0.33-0.13-0.66-0.25-0.99-0.39c-0.14-0.06-0.28-0.11-0.43-0.17
				c-0.12-0.05-0.76-0.32-0.29-0.12c-0.58-0.25-1.16-0.5-1.75-0.76c-1.22-0.54-2.44-1.07-3.69-1.53c-3.54-1.3-7.27-1.92-11-2.4
				c-7.97-1.03-16.04-1.36-24.07-1.66c-13.33-0.5-26.68-0.77-40.02-0.77c-13.44,0-26.9,0.41-40.26,1.93
				c-13.19,1.51-26.3,4.08-38.84,8.51c-6.18,2.18-12.21,4.79-17.99,7.87c-2.68,1.43-5.54,2.96-6.81,5.88
				c-1.35,3.1-1.27,6.98-1.57,10.3c-2.76,30.22-2.8,60.94,0.57,91.11c0.8,7.14,1.98,14.32,4.65,21.03
				c2.48,6.22,6.04,11.89,10.1,17.19c4,5.24,8.35,10.24,12.79,15.11c4.45,4.88,9.49,9.18,16.09,10.68
				c6.7,1.52,13.68,0.79,20.48,1.38c7.41,0.64,14.71,2.15,22.08,3.14c13.3,1.78,27.41,1.47,38.53-6.98
				c5.36-4.08,9.84-9.2,14.43-14.1c5.08-5.42,10.14-10.85,15.09-16.38c4.85-5.41,9.6-10.9,14.16-16.55
				c4.53-5.6,8.69-11.48,13.22-17.07c4.41-5.43,9.54-9.99,14.69-14.68c5.01-4.56,9.41-9.51,12.89-15.36
				c3.45-5.8,6.1-12.04,8.72-18.25c2.13-5.03,4.1-10.13,5.88-15.29c2.19-6.34,4.09-12.78,5.72-19.29c0.47-1.87-2.42-2.67-2.89-0.8
				c-2.95,11.75-6.79,23.27-11.53,34.42c-2.56,6.01-5.14,12.06-8.49,17.69c-3.43,5.77-7.79,10.56-12.74,15.05
				c-5,4.53-9.95,8.96-14.22,14.21c-4.4,5.39-8.41,11.09-12.77,16.51c-9,11.2-18.73,21.79-28.55,32.28
				c-4.53,4.84-8.94,9.96-14.08,14.19c-5.06,4.16-10.95,6.68-17.39,7.72c-13.82,2.23-27.61-1.94-41.29-3.33
				c-6.72-0.68-13.64,0.07-20.28-1.23c-6.51-1.27-11.26-5.32-15.61-10.09c-8.69-9.54-17.93-19.75-22.51-32.02
				c-2.47-6.6-3.56-13.6-4.29-20.58c-0.77-7.32-1.31-14.66-1.7-22.01c-0.79-14.82-0.88-29.68-0.26-44.51
				c0.31-7.41,0.79-14.82,1.45-22.21c0.16-1.81,0.33-3.61,0.51-5.42c0.16-1.62,0.24-3.4,0.98-4.89c1.32-2.65,4.91-4,7.4-5.26
				c11.45-5.84,23.79-9.75,36.36-12.3c25.61-5.19,51.97-4.86,77.98-4.36c11.19,0.22,22.39,0.47,33.56,1.25
				c5.36,0.38,10.43,0.76,15.58,1.92c1.44,0.32,2.86,0.72,4.25,1.22c0.59,0.21,1.17,0.44,1.75,0.68c0.37,0.15-0.29-0.13,0.08,0.03
				c0.14,0.06,0.29,0.12,0.43,0.19c0.27,0.12,0.53,0.23,0.8,0.35c2.92,1.28,5.85,2.44,8.92,3.31c6.08,1.72,12.35,2.74,18.6,3.65
				c4.16,0.6,8.37,0.73,12.31,2.15c2.36,0.85,4.57,2.31,5.91,4.46c1.34,2.15,1.74,4.68,1.67,7.18c-0.13,4.42-1.62,8.78-3.43,12.77
				C508.55,834.24,511.13,835.76,511.93,834.01L511.93,834.01z"/>
		</g>
	</g>
	<g>
		<path class="st5" d="M347.51,338.7c11.99-6.42,36.45-17.3,68.33-16.11c16.83,0.63,30.72,4.43,40.67,8.11c-2,15-4,30-6,45
			c0,0-23.03,18.75-36.31,22.96c-17.24,5.47-32.91,4.91-46.59,4.21c-8.43-0.43-15.37-1.39-20.1-2.18"/>
	</g>
	<path class="st6" d="M545.01,221.2c6.29-9.18,23.41-32.13,20-60.38c-4.5-37.34-42.27-67.01-76.3-76.89
		c-41.91-12.17-88.54,2.68-91-7c-0.31-1.2,0.04-2.91,1-4c5.07-5.78,27.56,5.08,27,7c-0.31,1.07-7.95,0.35-36-6
		c-1.96-1.72-5.35-4.45-10-7c-52.38-28.71-140.65,34.5-139,38c1.68,3.56,103.89-38.88,105-36c0.22,0.56-3,4-3,4
		c-13.09,2.68-28.93,7.19-46,15c-29.27,13.39-49.97,30.91-63,44c-1.81,27.2-0.54,79.81,34.3,118.26
		C337.44,326.82,494.19,295.33,545.01,221.2z"/>
	<path class="st3" d="M243.01,212.2c-10.38,4.58-10.06,25.47-10,28c1.09,43.16,55.54,68.45,59,70c12.05,5.4,24.6,11.04,30,6
		c10.43-9.73-12.72-52.96-40-81C272.61,225.54,254.64,207.07,243.01,212.2z"/>
	<path class="st3" d="M546.43,212.64c10.38,4.58,10.06,25.47,10,28c-1.09,43.16-55.54,68.45-59,70c-12.05,5.4-24.6,11.04-30,6
		c-10.43-9.73,12.72-52.96,40-81C516.83,225.98,534.8,207.51,546.43,212.64z"/>
	<path class="st3" d="M269.01,197.2c3,48,28,110,28,110s9,45,99,83c15.38-5.65,63.48-25.54,97-78c21-54,31.35-104.69,30-121
		c-9.02-56.66-54.24-130.14-123-132C327.78,57.25,276.64,135.6,269.01,197.2z"/>
	<path class="st7" d="M375.01,128.2c-7,66-29,96-29,96s56-29,45-39c1.76,1.49-14,45-32,55c4.73,6.17,28.68-0.81,44-13
		c43.35-34.5,25.69-117.12,23-129"/>
	<path class="st7" d="M406.01,114.2c14.01,28.85,62.09,68.06,100.58,100.55c6.89,5.82-1.42,24.24-12.58,42.45
		c3.27,3.09,12.2-1.57,14.1-2.56c14.74-7.68,24.59-25.25,24.9-47.44"/>
	<path class="st1" d="M269.01,247.08"/>
	<path class="st6" d="M534.01,201.2c13.28-12.14-9.4-78.73-56.3-113.26c-61.44-45.24-168.58-38.51-210.7,20.26
		c-23.13,32.28-27.56,81.51-11,92c28.84,18.27,125.02-83.91,136.5-72.5c4.98,4.95-11.12,26.16-4.5,32.5
		c7.01,6.71,25.92-16.2,49.5-12.5c23.3,3.66,24.19,29.06,59,46C504.56,197.62,526.17,208.37,534.01,201.2z"/>
	<g>
		<g>
			<path d="M375.39,127.34c0.78-3.65,1.16-7.39,1.13-11.12c-0.01-1.07-1.29-1.96-2.26-1.3c-3.41,2.35-6.52,5.1-9.24,8.23
				c-0.53,0.61-0.6,1.52,0,2.12c0.54,0.54,1.59,0.61,2.12,0c2.55-2.93,5.44-5.55,8.63-7.76c-0.75-0.43-1.5-0.86-2.26-1.3
				c0.04,3.47-0.3,6.93-1.02,10.33c-0.17,0.79,0.23,1.62,1.05,1.85C374.29,128.59,375.22,128.13,375.39,127.34L375.39,127.34z"/>
		</g>
	</g>
	<g>
		<path d="M432.45,144.3c-0.74,0.01-0.84-7.33-3.11-21.84c-1.42-9.13-2.97-16.61-4.1-21.68c2.72,4.55,6.13,11.49,7.76,20.42
			C435.2,133.2,433.36,144.29,432.45,144.3z"/>
		<g>
			<path d="M432.45,142.8c0.38,0.04,1.05,0.54,1.12,0.59c0.02,0.01,0.09,0.37,0.07,0.15c-0.02-0.19-0.1-0.39-0.14-0.58
				c-0.16-0.76-0.17-1.05-0.26-1.76c-0.28-2.33-0.51-4.67-0.79-7.01c-0.92-7.81-2.12-15.58-3.59-23.3
				c-0.67-3.51-1.39-7.02-2.17-10.51c-0.91,0.39-1.83,0.77-2.74,1.16c4.15,6.98,6.96,14.7,8.04,22.76
				c0.58,4.34,0.71,8.76,0.39,13.12c-0.1,1.42-0.25,2.85-0.53,4.25c-0.1,0.47-0.21,0.94-0.35,1.4c-0.1,0.32-0.1,0.12-0.06,0.19
				c-0.02,0.05-0.05,0.1-0.08,0.14c0.16-0.27,0.39-0.44,0.7-0.54c-1.9,0.33-1.09,3.23,0.8,2.89c1.53-0.27,1.81-2.79,2.02-3.96
				c0.52-3.01,0.68-6.08,0.67-9.12c-0.03-7.98-1.44-15.95-4.42-23.36c-1.29-3.21-2.82-6.31-4.58-9.28
				c-0.89-1.49-3.11-0.49-2.74,1.16c1.69,7.58,3.12,15.21,4.29,22.89c0.93,6.14,1.48,12.32,2.32,18.47c0.19,1.35,0.34,3.1,2.04,3.27
				C434.37,145.99,434.36,142.99,432.45,142.8z"/>
		</g>
	</g>
	<g>
		<g>
			<path d="M538.61,202.14c0-3.52,0-7.03,0-10.55c0-0.81-0.69-1.5-1.5-1.5c-0.81,0-1.5,0.69-1.5,1.5c0,3.52,0,7.03,0,10.55
				c0,0.81,0.69,1.5,1.5,1.5C537.92,203.64,538.61,202.95,538.61,202.14L538.61,202.14z"/>
		</g>
	</g>
	<g>
		<g>
			<path d="M317.82,81.36c9.05-0.66,18.17-0.34,27.14,1.02c1.89,0.29,2.7-2.6,0.8-2.89c-9.25-1.4-18.6-1.81-27.94-1.13
				C315.9,78.5,315.89,81.5,317.82,81.36L317.82,81.36z"/>
		</g>
	</g>
	<g>
		<g>
			<path d="M416.58,88.49c-1.68-3.47-4.81-6.12-8.44-7.34c-0.74-0.25-1.67,0.29-1.85,1.05c-0.19,0.83,0.25,1.58,1.05,1.85
				c0.2,0.07,0.4,0.14,0.59,0.21c0.16,0.06,0.2,0.06,0.01,0c0.1,0.03,0.22,0.09,0.31,0.14c0.38,0.18,0.76,0.37,1.12,0.58
				c0.35,0.2,0.68,0.42,1.01,0.66c0.08,0.06,0.15,0.11,0.23,0.17c0.31,0.23-0.24-0.2,0.06,0.05c0.16,0.13,0.32,0.27,0.48,0.41
				c0.3,0.27,0.59,0.55,0.86,0.84c0.14,0.15,0.28,0.31,0.42,0.47c0.06,0.07,0.12,0.15,0.18,0.22c0.04,0.05,0.3,0.33,0.05,0.06
				c0.55,0.59,0.96,1.43,1.31,2.15c0.34,0.71,1.41,0.95,2.05,0.54C416.77,90.07,416.94,89.25,416.58,88.49L416.58,88.49z"/>
		</g>
	</g>
	<g>
		<g>
			<path d="M498.76,88.19c8.24,14.54,15.54,29.59,21.83,45.07c0.72,1.77,3.62,0.99,2.89-0.8c-6.38-15.72-13.76-31.02-22.13-45.79
				C500.4,85,497.8,86.51,498.76,88.19L498.76,88.19z"/>
		</g>
	</g>
	<g>
		<g>
			<path d="M252.18,148.87c0.55-4.03,2.17-7.72,3.86-11.38c1.77-3.84,3.6-7.66,5.48-11.45c3.72-7.51,7.64-14.92,11.75-22.23
				c0.95-1.68-1.64-3.2-2.59-1.51c-4.19,7.44-8.18,15-11.97,22.66c-1.87,3.79-3.7,7.61-5.47,11.46c-1.72,3.74-3.4,7.55-3.96,11.67
				c-0.11,0.81,0.2,1.6,1.05,1.85C251.03,150.11,252.07,149.67,252.18,148.87L252.18,148.87z"/>
		</g>
	</g>
	<path class="st8" d="M245.01,226.2c-1.18,3.76-3.06,11.56-1,21c1.38,6.34,4.03,11.08,6,14"/>
	<path class="st8" d="M546.11,225.03c1.18,3.76,3.06,11.56,1,21c-1.38,6.34-4.03,11.08-6,14"/>
	<path class="st9" d="M445.01,320.2c-6.71-0.63-82.74,6.38-92,12c-12.7,7.71,18.49,41.69,47,41
		C433.37,372.39,460.27,321.62,445.01,320.2z"/>
	<path class="st10" d="M446.01,338.2c-25.13-3.02-44.51-1.31-58,1c0,0-2.73,0.47-35,7l0,0c0,0,19,28,50,27
		C417.01,371.2,434.01,359.2,446.01,338.2z"/>
	<path class="st11" d="M362.01,336.2c21.78-3.89,61.43-4.53,77-10c2.66-0.93,3.77-5.29,2-6c-4.41-1.76-84.92,9.09-85,11
		C355.98,331.82,355.63,337.34,362.01,336.2z"/>
	<path class="st12" d="M346.01,1443.2c0,0-9.49,47.39-6,99c3.31,49.02,22.2,90.39,25,120c1.24,25.38,1.14,49.01-4,66
		c-8.09,5.12-31.96,18.74-64.52,16.43c-25.88-1.84-44.29-12.81-52.48-18.43c-1.56-6.42-3.46-16.11-4-28c-0.9-19.88,2.55-34.07,8-57
		c2.99-12.58,7.85-33.18,15-64c1.77-44.7,0.48-87.89-5-129C285.51,1454.18,315.15,1451.25,346.01,1443.2z"/>
	<path class="st13" d="M351.01,1671.2c-26.14-29.43-87-20-97,1"/>
	<path class="st13" d="M241.01,1709.2c40.99,18.4,81.99,18.89,123,1"/>
	<path class="st12" d="M449.01,1443.2c1.48,21.25,2.61,43.26,3.28,66.01c0.56,18.83,0.78,37.17,0.72,54.99
		c-7.7,32.51-15.4,65.01-23.09,97.52c0,0-1.14,49.01,4,66c8.09,5.12,31.96,18.74,64.52,16.43c25.88-1.84,44.29-12.81,52.48-18.43
		c1.56-6.42,3.46-16.11,4-28c0.9-19.88-2.55-34.07-8-57c-2.99-12.58-7.85-33.18-15-64c-0.53-21.14-0.64-43.11-0.22-65.85
		c0.49-26.29,1.65-51.55,3.31-75.67c-6.46,4.51-20.66,13.14-40.83,15.28C472.74,1452.75,456.2,1446.45,449.01,1443.2z"/>
	<path class="st13" d="M443.92,1670.72c26.14-29.43,87-20,97,1"/>
	<path class="st13" d="M553.92,1708.72c-40.99,18.4-81.99,18.89-123,1"/>
	<g>
		<path class="st14" d="M337.05,1584.37c2.36,16.01,5.38,31.92,9.07,47.67"/>
		<g>
			<path class="st15" d="M332.71,1585.57c2.36,16.01,5.39,31.91,9.07,47.67c0.54,2.29,3.29,3.87,5.54,3.14
				c2.4-0.78,3.72-3.08,3.14-5.54c-3.68-15.76-6.7-31.66-9.07-47.67c-0.35-2.34-3.42-3.83-5.54-3.14
				C333.31,1580.86,332.34,1583.06,332.71,1585.57L332.71,1585.57z"/>
		</g>
	</g>
	<g>
		<path class="st16" d="M523.14,1589.01c5.41,16.13,10.82,32.27,16.23,48.4"/>
		<g>
			<path class="st15" d="M518.8,1590.21c5.41,16.13,10.82,32.27,16.23,48.4c0.75,2.23,3.13,3.92,5.54,3.14
				c2.22-0.72,3.94-3.15,3.14-5.54c-5.41-16.13-10.82-32.27-16.23-48.4c-0.75-2.23-3.13-3.92-5.54-3.14
				C519.73,1585.39,518,1587.82,518.8,1590.21L518.8,1590.21z"/>
		</g>
	</g>
	<g>
		<path class="st16" d="M311.64,1663.67c6.8,2.25,13.24,5.54,19.04,9.73"/>
		<g>
			<path class="st15" d="M310.44,1668.01c0.86,0.29,1.72,0.59,2.57,0.91c0.43,0.16,0.85,0.32,1.27,0.49
				c0.21,0.08,1.63,0.65,0.5,0.19c1.58,0.64,3.12,1.39,4.63,2.17c3.13,1.61,6.14,3.46,9,5.52c1.92,1.38,5.09,0.4,6.16-1.61
				c1.23-2.33,0.43-4.68-1.61-6.16c-6.13-4.41-12.95-7.8-20.12-10.19c-2.24-0.74-5.02,0.86-5.54,3.14
				C306.73,1664.96,308.05,1667.22,310.44,1668.01L310.44,1668.01z"/>
		</g>
	</g>
	<g>
		<path class="st16" d="M499.5,1666.65c9.57,0.06,19.09,3.5,26.49,9.56"/>
		<g>
			<path class="st15" d="M499.5,1671.15c1.13,0.01,2.25,0.06,3.37,0.16c0.28,0.02,0.56,0.06,0.84,0.08c0.38,0.04,0.53,0.06,0.06,0
				c0.56,0.07,1.11,0.17,1.67,0.27c2.28,0.41,4.54,1.01,6.72,1.79c0.53,0.19,1.05,0.41,1.58,0.6c0.68,0.24-0.56-0.26,0.09,0.03
				c0.26,0.11,0.52,0.23,0.77,0.34c1.02,0.47,2.03,0.98,3.01,1.53c0.98,0.55,1.94,1.14,2.88,1.76c0.47,0.31,0.93,0.63,1.38,0.97
				c0.06,0.04,0.73,0.54,0.39,0.28c-0.37-0.29,0.56,0.45,0.54,0.43c1.83,1.48,4.6,1.92,6.36,0c1.51-1.64,1.95-4.78,0-6.36
				c-8.43-6.84-18.78-10.75-29.67-10.88c-2.35-0.03-4.61,2.09-4.5,4.5C495.12,1669.11,496.98,1671.12,499.5,1671.15L499.5,1671.15z"
				/>
		</g>
	</g>
	<line class="st17" x1="402.01" y1="242.2" x2="389.01" y2="250.2"/>
	<line class="st17" x1="403.01" y1="247.2" x2="382.01" y2="260.2"/>
	<line class="st17" x1="408.01" y1="250.2" x2="381.01" y2="267.2"/>
	<line class="st17" x1="410.01" y1="256.2" x2="382.01" y2="273.2"/>
	<line class="st17" x1="413.01" y1="260.2" x2="384.01" y2="277.2"/>
	<path class="st18" d="M396.01,286.7c-0.17,4-0.33,8-0.5,12c-1.83-1.67-3.67-3.33-5.5-5"/>
	<g>
		<g>
			<path class="st5" d="M301.94,275.99c-0.61,0.82-1.22,1.63-1.83,2.45c-0.11,0.17-0.17,0.36-0.18,0.56c-0.04,0.2-0.04,0.4,0.03,0.6
				c0.1,0.35,0.36,0.73,0.69,0.9c0.35,0.18,0.77,0.28,1.16,0.15c0.12-0.05,0.24-0.1,0.36-0.15c0.23-0.13,0.4-0.31,0.54-0.54
				c0.61-0.82,1.22-1.63,1.83-2.45c0.11-0.17,0.17-0.36,0.18-0.56c0.04-0.2,0.04-0.4-0.03-0.6c-0.1-0.35-0.36-0.73-0.69-0.9
				c-0.35-0.18-0.77-0.28-1.16-0.15c-0.12,0.05-0.24,0.1-0.36,0.15C302.25,275.59,302.07,275.76,301.94,275.99L301.94,275.99z"/>
		</g>
	</g>
	<g>
		<g>
			<path class="st5" d="M305.89,278.72c-0.2,0.31-0.41,0.61-0.61,0.92c-0.11,0.17-0.17,0.36-0.18,0.56c-0.04,0.2-0.04,0.4,0.03,0.6
				c0.05,0.2,0.14,0.37,0.27,0.51c0.11,0.16,0.25,0.29,0.42,0.39c0.12,0.05,0.24,0.1,0.36,0.15c0.27,0.07,0.53,0.07,0.8,0
				c0.12-0.05,0.24-0.1,0.36-0.15c0.23-0.13,0.4-0.31,0.54-0.54c0.2-0.31,0.41-0.61,0.61-0.92c0.11-0.17,0.17-0.36,0.18-0.56
				c0.04-0.2,0.04-0.4-0.03-0.6c-0.05-0.2-0.14-0.37-0.27-0.51c-0.11-0.16-0.25-0.29-0.42-0.39c-0.12-0.05-0.24-0.1-0.36-0.15
				c-0.27-0.07-0.53-0.07-0.8,0c-0.12,0.05-0.24,0.1-0.36,0.15C306.2,278.32,306.02,278.5,305.89,278.72L305.89,278.72z"/>
		</g>
	</g>
	<g>
		<g>
			<path class="st5" d="M475.38,278.57c0,0.51,0,1.02,0,1.53c-0.01,0.21,0.04,0.4,0.13,0.58c0.06,0.19,0.16,0.35,0.31,0.48
				c0.14,0.15,0.3,0.25,0.48,0.31c0.18,0.09,0.37,0.14,0.58,0.13c0.13-0.02,0.27-0.04,0.4-0.05c0.25-0.07,0.47-0.2,0.66-0.39
				c0.27-0.29,0.44-0.65,0.44-1.06c0-0.51,0-1.02,0-1.53c0.01-0.21-0.04-0.4-0.13-0.58c-0.06-0.19-0.16-0.35-0.31-0.48
				c-0.14-0.15-0.3-0.25-0.48-0.31c-0.18-0.09-0.37-0.14-0.58-0.13c-0.13,0.02-0.27,0.04-0.4,0.05c-0.25,0.07-0.47,0.2-0.66,0.39
				C475.55,277.81,475.38,278.17,475.38,278.57L475.38,278.57z"/>
		</g>
	</g>
	<g>
		<g>
			<path class="st5" d="M479.93,277.38c0.01,0.01,0.02,0.03,0.04,0.04c-0.08-0.1-0.16-0.2-0.23-0.3c0.24,0.32,0.44,0.66,0.6,1.03
				c-0.05-0.12-0.1-0.24-0.15-0.36c0.17,0.4,0.28,0.82,0.34,1.26c-0.02-0.13-0.04-0.27-0.05-0.4c0.05,0.38,0.05,0.76,0.01,1.13
				c-0.04,0.36,0.2,0.82,0.44,1.06c0.26,0.26,0.69,0.46,1.06,0.44c0.39-0.02,0.79-0.14,1.06-0.44c0.08-0.1,0.16-0.2,0.23-0.3
				c0.14-0.23,0.2-0.49,0.2-0.76c0.08-0.75,0-1.53-0.21-2.25c-0.12-0.4-0.28-0.8-0.47-1.18c-0.2-0.4-0.47-0.74-0.74-1.09
				c-0.22-0.28-0.72-0.44-1.06-0.44c-0.37,0-0.81,0.16-1.06,0.44c-0.26,0.29-0.46,0.66-0.44,1.06c0.02,0.13,0.04,0.27,0.05,0.4
				C479.62,276.98,479.74,277.2,479.93,277.38L479.93,277.38z"/>
		</g>
	</g>
	<path class="st7" d="M381.01,131.2c-12.82,8.94-94,84-101,114c-2,5,9.6,31.37,11,31c0.08-0.02,0.11-0.11,0.12-0.15
		c0.66-2.62-54.89-18.44-44.12-91.85"/>
	<path class="st19" d="M182.01,860.2c-9.32-22.98-46.89-35.47-58-25c-6.56,6.18-0.38,17.04,7.5,51.5
		c14.68,64.16,7.8,94.41,28.5,104.5c1.9,0.93,10.53,5.13,16.5,1.5c13.15-8-7.14-41.56,0.5-91.5
		C180.54,878.1,186.86,872.17,182.01,860.2z"/>
	<path class="st12" d="M176.01,1000.2c0,0,27,14,33,14c1.71-1.44,2.01-4.02,1.86-6.32c0,0,0.03-2.36-0.86-4.68c-1.55-4-13-9-13-9
		c-7.72-3.34-10.71-3.63-13-7c-1.45-2.13-2-6-2-6"/>
	<path class="st12" d="M120.51,838.7c0.73,21.69-10.53,95.94-14,96c0,0,20.29,46.84,28,71l71,19c0.47-2,0.59-3.84,0.5-5.5
		c-0.9-16.92-24.34-26.9-27-28"/>
	<path class="st12" d="M182.01,872.2c4,29-1,61-1,61c1.23,15.69,2.5,31.33,8,41c-1.73,6.5-7.11,7.99-15,6
		c-6.77-5.51-11.2-22.27-15-42c0,0-19.21-9.78-19.43-9.37c-0.02,0.04,0.12,0.16,0.43,0.37"/>
	<path class="st13" d="M135.01,940.2c7.12,15,13.28,30,18,45"/>
	<path class="st19" d="M609.02,872.55c9.32-22.98,46.89-35.47,58-25c6.56,6.18,0.38,17.04-7.5,51.5
		c-14.68,64.16-7.8,94.41-28.5,104.5c-1.9,0.93-10.53,5.13-16.5,1.5c-13.15-8,7.14-41.56-0.5-91.5
		C610.49,890.45,604.17,884.52,609.02,872.55z"/>
	<path class="st12" d="M615.02,1012.55c0,0-27,14-33,14c-1.71-1.44-2.01-4.02-1.86-6.32c0,0-0.03-2.36,0.86-4.68c1.55-4,13-9,13-9
		c7.72-3.34,10.71-3.63,13-7c1.45-2.13,2-6,2-6"/>
	<path class="st12" d="M670.52,851.05c-0.73,21.69,10.53,95.94,14,96c0,0-20.29,46.84-28,71l-71,19c-0.47-2-0.59-3.84-0.5-5.5
		c0.9-16.92,24.34-26.9,27-28"/>
	<path class="st12" d="M609.02,884.55c-4,29,1,61,1,61c-1.23,15.69-2.5,31.33-8,41c1.73,6.5,7.11,7.99,15,6
		c6.77-5.51,11.2-22.27,15-42c0,0,19.21-9.78,19.43-9.37c0.02,0.04-0.12,0.16-0.43,0.37"/>
	<path class="st12" d="M656.02,952.55c-7.12,15-13.28,30-18,45"/>
	<path class="st2" d="M449.86,418.54c40.48,9.2,80.96,18.4,121.43,27.6c7.75,21.46,10.98,43.27,13.71,65.05
		c13.88,110.47,61.48,208.21,82,297c11.61,29.33,19.3,58.66,18,88c-25.1,45.84-57.16,44.47-91,31c-29-130.67-58-261.33-87-392"/>
	<path class="st2" d="M348.86,419.54c-35.62,7.55-71.24,15.1-106.85,22.66c-7.82,24.9-15.49,50.24-23,76
		c-17.62,60.47-33.2,119.53-47,177c-13.65,31.92-27.04,66.91-39.39,104.86c-8.34,25.65-15.49,50.42-21.61,74.14
		c3.41,6.84,14.91,27.7,40,39c15.21,6.85,29.12,7.34,37,7c36.33-132,72.67-264,109-396"/>
	<path class="st20" d="M334.01,476.2c-3.57-10.65-16.34-15.55-26-14c-16.11,2.59-27.13,23.73-21,35c6,11.04,28.53,12.72,40,2
		C332.25,494.31,337,485.13,334.01,476.2z"/>
	<path class="st20" d="M521.48,467.59c-3.39-11.02-17.16-16.07-26.97-15.89c-22.05,0.42-41.46,27.71-36,40
		c5.67,12.76,40.77,15.35,55.97-1.11C515.34,489.65,524.96,478.92,521.48,467.59z"/>
	<path class="st2" d="M515.01,818.2c4.6,14.24,9.07,29.14,13.31,44.68c5.8,21.27,10.65,41.76,14.69,61.32
		c-2.61,33.57-1.84,88.24-4,155.5c-8.23,255.9,26.72,395.77,13.84,448.12c-4.65,18.9-44.42,24.68-107,8
		c-3.96-152.12-15.8-311.25-37.84-476.37c-3.47-25.98-7.14-51.74-11-77.25c-17.67-0.67-35.33-1.33-53-2"/>
	<path class="st2" d="M283.01,817.2c-9,35.33-18,70.67-27,106c2.21,33.83,1.01,88.39,3.22,155.42
		c8.91,269.79-25.38,413.19-7.38,457.19c12.93,12.56,42.18,20.52,99,2c2.39-41.87,4.77-83.74,7.16-125.62
		c6.93-103.95,15.81-210.12,26.88-318.39c3.84-37.52,7.88-74.72,12.12-111.61c21.34-0.84,32.01-1.51,32-2
		c-0.01-0.74-24.68-1.08-74-1"/>
	<g>
		<path class="st21" d="M307.29,874.46c-0.95,11.6-1.9,23.2-2.86,34.79c-0.13,1.56-0.27,3.16-0.92,4.59
			c-1.24,2.72-3.46,4.14-4.01,4.51c-3.49,2.39-16.83,15.24-37.5,35.85"/>
		<g>
			<path class="st21" d="M305.79,874.46c-0.73,8.95-1.47,17.89-2.2,26.84c-0.18,2.24-0.37,4.47-0.55,6.71
				c-0.16,1.96-0.19,4.02-1.18,5.78c-0.9,1.61-2.25,2.6-3.68,3.68c-2.43,1.84-4.66,3.96-6.89,6.04c-3.92,3.65-7.76,7.37-11.59,11.11
				c-6.29,6.13-12.52,12.32-18.74,18.52c-1.37,1.36,0.75,3.49,2.12,2.12c9.75-9.72,19.5-19.48,29.55-28.89
				c2.33-2.18,4.66-4.42,7.18-6.39c-0.32,0.25,0.13-0.1,0.25-0.18c0.2-0.14,0.4-0.27,0.6-0.41c1.08-0.77,2.05-1.64,2.87-2.69
				c2.55-3.28,2.42-7.46,2.75-11.41c0.84-10.27,1.69-20.54,2.53-30.82C308.95,872.54,305.94,872.55,305.79,874.46L305.79,874.46z"/>
		</g>
	</g>
	<g>
		<path class="st22" d="M484.65,865.51c-0.05,8.17-0.09,16.34-0.14,24.51c-0.01,1.35,0.03,2.82,0.88,3.86
			c0.69,0.84,1.77,1.22,2.79,1.57c12.15,4.1,24.29,8.21,36.44,12.31"/>
		<g>
			<path class="st22" d="M483.15,865.51c-0.03,4.82-0.05,9.64-0.08,14.46c-0.01,2.45-0.03,4.9-0.04,7.35
				c-0.01,1.94-0.28,4.15,0.39,6.02c0.68,1.88,2.24,2.79,4.03,3.43c2.31,0.83,4.65,1.57,6.97,2.36c4.65,1.57,9.31,3.14,13.96,4.72
				c5.28,1.79,10.57,3.57,15.85,5.36c1.83,0.62,2.62-2.28,0.8-2.89c-8.76-2.96-17.51-5.92-26.26-8.87
				c-2.13-0.72-4.26-1.44-6.39-2.16c-1.1-0.37-2.21-0.75-3.31-1.12c-0.77-0.26-1.76-0.48-2.36-1.08c-1.21-1.2-0.68-3.99-0.67-5.52
				c0.01-2.21,0.03-4.41,0.04-6.62c0.03-5.15,0.06-10.3,0.09-15.44C486.16,863.58,483.16,863.58,483.15,865.51L483.15,865.51z"/>
		</g>
	</g>
	<g>
		<path class="st4" d="M266.17,476.2c0.65,151.26-1.29,263.38-3.15,301c-1.84,37.19-6.8,70.24-6.8,70.24
			c-2.67,28.67-5.33,57.33-8,86c35.52,7.22,75.73,13.41,120,17c49,3.97,93.71,3.99,133,2c6.7-1,23.98-4.52,39-19
			c9.86-9.51,14.69-19.82,17-26c-23.41-83.66-28.54-130.34-29-157c-0.04-2.6-0.2-14-0.33-26.24c-0.76-68.75-0.49-64.89-0.61-86.55
			c-0.1-17.52-4-41.89-3.8-77.96c0.05-9.47,0.35-20.8,1.26-33.77c1.65-23.54,4.66-43.22,7.35-57.72"/>
		<path d="M266.29,476.2c0.27,92.9,0.21,185.83-2.31,278.7c-0.72,30.96-3.32,61.91-7.65,92.55c0,0-8.02,86-8.02,86
			c20.23,3.85,41.74,7.84,62.59,10.61c52.48,7.32,105.56,10.11,158.52,8.99c10.53-0.16,21.36-0.57,31.73-1.02
			c10.83-1.56,21.31-5.61,30.36-11.76c11.64-7.99,20.67-19.64,25.59-32.87c-4.92-17.39-9.61-35.69-13.77-53.55
			c-8.15-35.93-15.16-72.49-15.32-109.46c-0.23-17.92-0.73-65.61-0.81-83.05c-0.06-9.23,0.05-18.46-0.15-27.68
			c-0.33-9.22-1.22-18.41-1.89-27.61c-3.77-45.99-1.67-92.49,6.8-137.87c0,0,0.23,0.04,0.23,0.04
			c-8.47,45.36-10.57,91.83-6.8,137.81c0.67,9.2,1.56,18.39,1.89,27.62c0.2,15.77,0.16,39.3,0.34,55.37
			c0.54,32.82-0.56,78.51,5.3,110.46c5.66,36.48,14.52,72.38,24.39,107.93c-5.39,14.8-16.01,27.7-29.52,35.81
			c-8.1,4.91-17.17,8.16-26.53,9.63c-10.6,0.6-21.21,0.96-31.83,1.2c-53.01,0.93-106.06-2.58-158.57-9.82
			c-20.96-3-42.2-6.38-62.76-10.79c0,0,7.98-86,7.98-86c4.33-30.63,6.92-61.58,7.64-92.53C266.5,662.18,265.87,568.49,266.29,476.2
			L266.29,476.2z"/>
	</g>
	<path class="st23" d="M274.01,992.2c-2.46,55.32,2.87,127.32,16,216"/>
	<path class="st23" d="M293.01,1277.2c-6.28,42.67-9.62,85.33-10,128"/>
	<g>
		<path class="st21" d="M518.01,999.2c-0.67,92.67-1.33,185.33-2,278"/>
		<path class="st21" d="M518.06,999.2c-0.03,90.33-0.87,187.61-2,278c0,0-0.11,0-0.11,0C516.24,1186.85,516.48,1089.26,518.06,999.2
			L518.06,999.2z"/>
	</g>
	<path class="st23" d="M522.01,1317.2c-3.38,36.31-6.95,69.93-11,97c-11.19,15.69-26.03,22.69-42,27"/>
	<g>
		<path d="M513.45,738.44c-1.65,11.3-7.11,21.24-13.52,30.45c-2.22,3-4.56,5.93-7.48,8.55l-0.88-0.47c2.37-13.31,10.8-30.01,21-39
			C512.57,737.96,513.45,738.44,513.45,738.44L513.45,738.44z"/>
	</g>
	<g>
		<path class="st21" d="M319.01,522.2c16.06,82.14,33.1,158.71,53,219"/>
		<path class="st21" d="M319.13,522.18c14.04,69,28.48,138.06,48.81,205.53c1.35,4.5,2.79,8.97,4.18,13.45l-0.22,0.07
			c-11.99-35.63-21.5-72.05-30.01-108.65C333.71,596.08,325.29,558.64,319.13,522.18L319.13,522.18z"/>
	</g>
	<g>
		<path class="st21" d="M297.01,750.2c24.28,33.45,56.92,50.17,92,62"/>
		<path class="st21" d="M297.11,750.13c21.57,29.21,51.72,47.18,85.32,59.54c0,0,6.63,2.41,6.63,2.41l-0.08,0.23l-6.7-2.23
			c-24.43-8.38-48.1-20.51-66.89-38.47c-6.85-6.48-13.02-13.67-18.47-21.34L297.11,750.13L297.11,750.13z"/>
	</g>
	<line class="st23" x1="459.01" y1="536.2" x2="418.01" y2="640.2"/>
	<path class="st1" d="M453.01,408.2"/>
	<path class="st1" d="M453.01,399.2"/>
	<path class="st1" d="M457.01,398.2"/>
	<path class="st24" d="M494.01,391.2"/>
	<g>
		<path class="st21" d="M501.73,718.91c-14.62,6.33-29.77,11.44-45.24,15.26c3.1,8.59,4.71,17.72,4.75,26.85"/>
		<g>
			<path class="st21" d="M500.97,717.61c-14.51,6.26-29.54,11.3-44.88,15.11c-0.74,0.18-1.32,1.09-1.05,1.85
				c3.04,8.5,4.63,17.42,4.7,26.45c0.01,1.93,3.01,1.93,3,0c-0.07-9.28-1.68-18.51-4.81-27.25c-0.35,0.62-0.7,1.23-1.05,1.85
				c15.6-3.87,30.84-9.05,45.6-15.41C504.26,719.44,502.73,716.85,500.97,717.61L500.97,717.61z"/>
		</g>
	</g>
	<g>
		<path class="st21" d="M429.48,661.69c9.99,0,19.97,0,29.96,0"/>
		<g>
			<path class="st21" d="M429.48,663.19c9.99,0,19.97,0,29.96,0c1.93,0,1.93-3,0-3c-9.99,0-19.97,0-29.96,0
				C427.55,660.19,427.55,663.19,429.48,663.19L429.48,663.19z"/>
		</g>
	</g>
	<g>
		<path class="st21" d="M264.7,496c-7.78,28.37-12.88,57.47-15.22,86.79"/>
		<g>
			<path class="st21" d="M263.25,495.6c-6.08,22.23-10.53,44.88-13.32,67.76c-0.79,6.46-1.44,12.94-1.96,19.43
				c-0.15,1.92,2.85,1.91,3,0c1.83-22.78,5.32-45.42,10.45-67.69c1.44-6.27,3.02-12.5,4.72-18.7
				C266.66,494.53,263.76,493.74,263.25,495.6L263.25,495.6z"/>
		</g>
	</g>
	<g>
		<path class="st21" d="M181.81,703.23c-0.09,2.37,0.64,4.68,1.37,6.93c2.78,8.64,5.56,17.28,8.35,25.92"/>
		<g>
			<path class="st21" d="M180.31,703.23c-0.04,2.79,0.81,5.41,1.65,8.04c0.91,2.83,1.82,5.65,2.73,8.48
				c1.8,5.58,3.59,11.15,5.39,16.73c0.59,1.83,3.49,1.05,2.89-0.8c-1.75-5.42-3.49-10.84-5.24-16.26c-0.86-2.67-1.72-5.34-2.58-8.01
				c-0.86-2.66-1.89-5.35-1.85-8.18C183.33,701.3,180.33,701.3,180.31,703.23L180.31,703.23z"/>
		</g>
	</g>
	<g>
		<path class="st21" d="M649.51,819.02c-14.49,12.7-29.32,25.83-38.15,42.95c-0.34,0.66-0.66,1.52-0.18,2.1
			c0.32,0.39,0.88,0.47,1.38,0.52c1.55,0.15,3.1,0.31,4.66,0.46"/>
		<g>
			<path class="st21" d="M648.45,817.96c-13.71,12.02-27.77,24.41-36.87,40.46c-0.99,1.75-3.15,4.58-1.58,6.56
				c0.7,0.88,1.74,1.02,2.79,1.13c1.47,0.15,2.95,0.29,4.42,0.43c1.92,0.19,1.91-2.81,0-3c-1.09-0.11-2.17-0.21-3.26-0.32
				c-0.36-0.04-1.22,0.06-1.5-0.16c0,0,0.31-0.56,0.5-0.9c0.95-1.81,1.98-3.58,3.06-5.32c2.14-3.41,4.5-6.67,7.05-9.79
				c5.17-6.32,10.99-12.08,16.99-17.6c3.46-3.18,6.99-6.28,10.52-9.37C652.02,818.8,649.9,816.69,648.45,817.96L648.45,817.96z"/>
		</g>
	</g>
	<g>
		<path class="st22" d="M560.09,470.62c-8.04,8.9-15.93,17.94-23.65,27.12"/>
		<g>
			<path class="st22" d="M559.03,469.56c-8.04,8.9-15.93,17.94-23.65,27.12c-1.24,1.47,0.88,3.6,2.12,2.12
				c7.72-9.18,15.6-18.22,23.65-27.12C562.44,470.25,560.33,468.12,559.03,469.56L559.03,469.56z"/>
		</g>
	</g>
	<g>
		<path class="st21" d="M189.78,756.74c-0.2,5.81,0.51,11.65,2.12,17.24c0.32,1.12,0.72,2.29,1.63,3.02
			c0.79,0.63,1.83,0.81,2.83,0.95c3.7,0.51,7.44,0.67,11.17,0.48"/>
		<g>
			<path class="st21" d="M188.28,756.74c-0.1,3.32,0.08,6.64,0.54,9.93c0.42,3.03,0.94,6.27,2.11,9.11c0.49,1.19,1.23,2.26,2.4,2.87
				c1.3,0.68,2.83,0.79,4.26,0.96c3.3,0.39,6.62,0.48,9.93,0.32c1.92-0.09,1.93-3.09,0-3c-2.9,0.14-5.81,0.09-8.7-0.19
				c-1.21-0.12-2.58-0.15-3.73-0.58c-1.07-0.4-1.41-1.41-1.71-2.43c-1.63-5.51-2.29-11.27-2.11-17
				C191.34,754.81,188.34,754.81,188.28,756.74L188.28,756.74z"/>
		</g>
	</g>
	<path class="st4" d="M258.71,290.94c2.93-18.49,11.17-51.8,38-78.78c54.31-54.63,162.63-61.1,209-4.49
		c25.91,31.63,24.39,73.1,22,93.27c10.99-14.15,45.25-61.99,42.72-129.74c-1.59-42.71-17.11-74.73-26.72-91.26
		c-27.87-11.62-69.04-24.71-120-27c-91.8-4.13-161.44,29.21-193,47c-5.42,21.45-11.98,59.19-4,105
		C233.48,243.75,248.02,273.05,258.71,290.94z"/>
	<path class="st25" d="M449.86,420.54c11.67,2.67,23.33,5.33,35,8c-11.67,19-23.33,38-35,57c-16.12,19.24-39.13,22.57-66,17
		c-16.03-0.62-30.02-9.73-43-23c-12.59-10.62-21.9-29.55-31-49c12.33-3,27-8,37-9c1.96,14.23,6.69,28.69,22,44
		c3.9,1.62,29.25,11.68,52-1c1.94-1.08,10.72-6.15,18.21-16.54C446.96,437.05,449.14,426.11,449.86,420.54z"/>
	<path class="st20" d="M284.86,440.54c-4.18-2.8-7.09-8.99-5-13c2.53-4.84,11.42-4.69,17-2c3.79,1.83,8.77,6.13,8,10
		C303.81,440.84,292,445.31,284.86,440.54z"/>
	<g>
		<path d="M512,456.89c-16.55,13.03-32.66,26.63-48.28,40.77"/>
	</g>
	<g>
		<path class="st22" d="M302.77,466.13c4.25,6.88,9.5,13.15,15.53,18.53"/>
		<g>
			<path class="st22" d="M301.48,466.89c4.33,6.99,9.64,13.35,15.77,18.84c1.43,1.28,3.56-0.83,2.12-2.12
				c-5.95-5.32-11.1-11.44-15.3-18.23C303.05,463.73,300.46,465.24,301.48,466.89L301.48,466.89z"/>
		</g>
	</g>
	<path class="st20" d="M488.08,437.04h30v-8c-8.67-1-17.33-2-26-3C490.75,429.7,489.42,433.37,488.08,437.04z"/>
	<path class="st4" d="M240.35,100.32c4-0.59,12.27,3.88,12.77,9.13c0.12,1.2-0.1,2.49-0.77,3.87c-39.97,82.53,43.81,234.33,49,235
		c0.24,0.03,2.59,0.32,2.58,0.57c-0.03,0.65-15.83,0.74-19.58,0.43c-30.47-2.53-61.47-97.85-58-191
		C226.65,150.33,228.7,102.02,240.35,100.32z"/>
	<path class="st4" d="M539.71,84.94c-6.9,0.1-12.77,21.68-21,20c-2.46-0.5-4.62-2.73-5-5c-0.71-4.25,4.6-9.73,14-13l0,0l0,0l4,5
		c5.09,6.31,11.82,16.26,16.28,29.83c2.68,8.15,3.86,15.56,4.36,21.55c1.37,11.37,0.61,19.52-0.38,35.41
		c-1.35,21.66-5.42,49.36-16.62,88.59c0,0-17.85,82.29-40.93,85.6c-0.29,0.04-2.59,0.34-2.58,0.57c0.04,0.87,27.12,0.38,29.58-0.57
		c36.59-14.03,43.74-109.95,44.54-124.25C570.29,150.98,551.84,84.76,539.71,84.94z"/>
	<path class="st4" d="M541.35,97.32c-8.38-2.54-16.3,4.18-23,8c-6.4,3.65,26.08,26.11,27,74c0.07,3.59,6.79,2.51,10,1
		C571.25,172.82,566.13,104.82,541.35,97.32z"/>
	<path class="st26" d="M441.85,391.82c-22.32,24.48-73.81,24.93-94,2c-32.47-36.89,17.25-132.94,51-132
		C431.1,262.71,477.25,352.99,441.85,391.82z"/>
	<path class="st4" d="M440.85,506.82c34.08-16.12,66.76-54.68,58-80c-16.29-47.06-178.25-55.32-200-9
		c-11.48,24.46,14.99,66.54,48,86C390.63,529.62,435.37,509.41,440.85,506.82z"/>
	<path class="st23" d="M324.85,399.82c-22.04-0.49-39.38-16.25-57.5-29.5"/>
	<path class="st23" d="M474.61,394.9c22.04-0.49,39.38-16.25,57.5-29.5"/>
	<path class="st23" d="M233.85,131.82c16.11,1.01,42.92,0.5,73-11c18.54-7.09,32.86-16.26,43-24"/>
	<path class="st23" d="M427.85,74.82c15.7-2.26,51.34-5.05,88,14c14.24,7.4,25.1,16.26,33,24"/>
	<path class="st27" d="M222.35,164.32c25.09-15.91,68.59-38.75,127-47c91.46-12.91,162.91,17.96,191,32"/>
	<path class="st2" d="M269.85,408.82c-17.78,12.48-31.91,29.65-42,52c20.32,15.79,84.94,61.85,180,63.7
		c94.06,1.83,159.9-40.75,181-55.7c-3.28-22.05-34.4-40.75-61-60"/>
	<path class="st23" d="M536.85,490.82c-1.52-13.41-56.96-26-100-9c-24.51,9.68-54.75,32.82-51.95,39c0.25,0.56,0.72,0.86,0.95,1
		C397.03,528.75,539.34,512.72,536.85,490.82z"/>
	<path class="st23" d="M516.85,415.82c-14.63,16.94-40.75,22.95-70,26c0,0,16.52,8.28,48,10"/>
	<path class="st23" d="M273.85,419.82c16.48,15.11,39.82,27.46,80,33"/>
	<g>
		<circle class="st20" cx="398.35" cy="375.32" r="61"/>
		<path d="M342.23,375.32c-2,32.21,23.05,61.29,56.12,60.43c23.57-0.13,45.7-16.05,52.94-38.5c14.47-45.15-28.57-85.72-72.63-69.46
			C358.7,334.7,343.09,353.71,342.23,375.32L342.23,375.32z M332.47,375.32c-2.04-37.44,27.5-71.46,65.88-70.87
			c38.08,0.16,69.06,32.84,66.38,70.87c-1.42,25.48-18.76,48.75-42.59,57.45C382.14,448.14,334.14,419.09,332.47,375.32
			L332.47,375.32z"/>
	</g>
	<circle class="st9" cx="398.85" cy="378.82" r="6"/>
	<line class="st1" x1="364.8" y1="343.77" x2="385.9" y2="364.86"/>
	<line class="st1" x1="382.35" y1="378.82" x2="347.35" y2="378.82"/>
	<line class="st1" x1="399.85" y1="362.32" x2="399.85" y2="334.32"/>
	<line class="st1" x1="399.85" y1="425.32" x2="399.85" y2="397.32"/>
	<line class="st1" x1="364.97" y1="414.24" x2="386.06" y2="393.14"/>
	<line class="st1" x1="412.97" y1="390.16" x2="434.06" y2="411.26"/>
	<line class="st1" x1="412.97" y1="366.26" x2="434.06" y2="345.16"/>
	<line class="st1" x1="451.35" y1="378.82" x2="416.35" y2="378.82"/>
	<path class="st28" d="M464.85,362.82c-15.58-57.16-44.29-102.06-66-101c-23.35,1.15-59.15,44.42-66,99c-13.7-1.8-33.46-6.82-49-22
		c-37.65-36.79-28.94-112.22,6.36-153.38c50.59-58.97,162.7-55.68,211,5c35.48,44.57,39.13,123.38,0.64,156.38
		C489.81,357.14,475.77,361.16,464.85,362.82z"/>
	<path class="st28" d="M461.85,375.82c-6.37-68.67-40.25-116.7-63-114c-25.77,3.06-63.87,47.6-64,112
		c-16.98-1.39-41.38-6.46-60.44-24.37c-44.46-41.77-36.01-130.94,7.8-180.01c56.39-63.16,173.28-62.01,228,3
		c45.23,53.73,45.56,148.22-0.8,185.63C494.34,370.23,476.62,374.52,461.85,375.82z"/>
	<g>
		<path class="st16" d="M424.29,262.65c-2.37-4.12-2.13-8.19-1.93-11.53c0.09-1.51,0.66-11.17,6.75-16.91
			c11.57-10.91,45.46-9.98,57.88,5.38c5.58,6.9,7.7,17.8,0.96,26.14c-9.27,11.48-28.98,10.29-33.77,9.99
			C451.54,275.56,430.86,274.08,424.29,262.65z"/>
		<path class="st29" d="M491.74,267.4c0.37-2.46,2.7-19.66-10-31.15c-15.64-14.15-44.75-11.19-56,1.83c-2.9,3.36-4.3,7.02-5,10.08"
			/>
		<circle class="st9" cx="450.99" cy="250.15" r="12.25"/>
		<circle class="st16" cx="456.77" cy="246.51" r="4.76"/>
		<path class="st16" d="M361.81,261.24c2.37-4.12,2.13-8.19,1.93-11.53c-0.09-1.51-0.66-11.17-6.75-16.91
			c-11.57-10.91-45.46-9.98-57.88,5.38c-5.58,6.9-7.7,17.8-0.96,26.14c9.27,11.48,28.98,10.29,33.77,9.99
			C334.57,274.15,355.25,272.66,361.81,261.24z"/>
		<circle class="st9" cx="335.11" cy="248.74" r="12.25"/>
		<circle class="st16" cx="341.33" cy="245.1" r="4.76"/>
		<path class="st1" d="M301.24,267.47c3.03,1.51,28.63,13.79,50,1c5.27-3.15,9.16-7.16,12-11"/>
		<path class="st28" d="M350.74,211.4c-23.83-0.75-45.82,3.13-65,14"/>
		<path class="st28" d="M432.78,211.39c23.83-0.75,45.82,3.13,65,14"/>
		<path class="st29" d="M293.6,264.62c-0.37-2.46-2.7-19.66,10-31.15c15.64-14.15,44.75-11.19,56,1.83c2.9,3.36,4.3,7.02,5,10.08"/>
		<path class="st1" d="M484.99,269.39c-3.03,1.51-28.63,13.79-50,1c-5.27-3.15-9.16-7.16-12-11"/>
	</g>
	<path class="st30" d="M464.27,362.51c-15.58-57.16-44.29-102.06-66-101c-23.35,1.15-59.15,44.42-66,99
		c-14.38-1.93-33.63-7.22-49-22c-36.85-35.44-30.59-105.36-1.05-144.08c47.48-62.23,167.82-60.49,217,2
		c33.07,42.02,38.85,117.74,2.05,150.08C493.86,353.02,482.32,359.89,464.27,362.51z"/>
	<path class="st31" d="M407.21,261.44c34.23,19.1,34.33,46.19,42,53c1.03,0.92,15.91,9.37,29.77,4.5
		c21.66-7.61,32.13-44.76,24.23-70.5c-11.16-36.36-79.04-118.56-103.53,7.69C399.11,259.07,402.87,259.02,407.21,261.44z"/>
	<path class="st31" d="M381.21,265.44c-9.19,9.33-15.61,17.65-21,25c-17.28,23.58-14.45,24.16-20,28
		c-9.42,6.52-23.54,9.04-34.48,4.8c-22.82-8.85-31.84-45.69-24.23-70.5c11.16-36.36,79.04-118.56,103.53,7.69
		c0.13,0.69-0.08,1.31-0.08,1.31C384.04,262.62,382.74,263.89,381.21,265.44z"/>
	<path class="st32" d="M385.21,264.44c-4.45-36.41-19.6-66.98-40-71c-31.1-6.13-74.07,49.64-65,92c3.3,15.41,15.21,37.19,32,40
		c13.01,2.18,27.23-11.29,28-4c0.45,4.23-4.04,25.49-7,33c-5.4,13.7-47.18-8.5-64-35c-25.09-39.52-11.06-102.71,26-139
		c35.62-34.88,82.38-34.97,98-35c15.43-0.03,65.55-0.13,103,39c2.45,2.56,34.15,36.67,35,86c0.33,18.97-4.03,33.23-6,39
		c-3.56,10.45-10.45,29.8-29,43c-7.8,5.55-21.11,17-31,10c-10.12-7.16-12.01-44.62-15-45c-6.27-0.8,16.77,7.15,30-9
		c13-15.86,18.51-37.55,19-45c1.4-21.18-5.68-56.27-33-69c-2.94-1.37-16.81-7.82-32-3c-14.48,4.59-34.68,30.22-35,69"/>
</g>
</svg>
