<?xml version="1.0" encoding="utf-8"?>
<!-- Generator: Adobe Illustrator 28.3.0, SVG Export Plug-In . SVG Version: 6.00 Build 0)  -->
<svg version="1.1" id="Layer_1" xmlns="http://www.w3.org/2000/svg" xmlns:xlink="http://www.w3.org/1999/xlink" x="0px" y="0px"
	 viewBox="0 0 746 740" style="enable-background:new 0 0 746 740;" xml:space="preserve">
<style type="text/css">
	.st0{fill:#080D1D;}
	.st1{fill:#080D1D;stroke:#FFFFFF;stroke-miterlimit:10;}
	.st2{fill:none;stroke:#FFFFFF;stroke-miterlimit:10;}
</style>
<g>
	<path class="st0" d="M254.18,228.74c-18.93-46.67-95.22-72.05-117.8-50.77c-13.32,12.55-0.78,34.6,15.23,104.59
		c29.81,130.31,15.84,191.75,57.88,212.24c3.87,1.88,21.39,10.42,33.51,3.05c26.72-16.25-14.49-84.41,1.02-185.83
		C251.19,265.1,264.04,253.06,254.18,228.74z"/>
	<path class="st1" d="M241.99,513.08c0,0,54.84,28.43,67.02,28.43c3.48-2.92,4.09-8.16,3.78-12.84c0,0,0.07-4.79-1.75-9.5
		c-3.14-8.12-26.4-18.28-26.4-18.28c-15.67-6.78-21.75-7.38-26.4-14.22c-2.94-4.33-4.06-12.19-4.06-12.19"/>
	<path class="st1" d="M129.27,185.08c1.48,44.06-21.39,194.84-28.43,194.97c0,0,41.2,95.12,56.87,144.2l144.2,38.59
		c0.95-4.06,1.2-7.79,1.02-11.17c-1.84-34.37-49.43-54.64-54.84-56.87"/>
	<path class="st1" d="M254.18,253.12c8.12,58.9-2.03,123.89-2.03,123.89c2.5,31.86,5.08,63.62,16.25,83.27
		c-3.51,13.21-14.43,16.22-30.46,12.19c-13.76-11.18-22.74-45.23-30.46-85.3c0,0-39.02-19.86-39.46-19.03
		c-0.04,0.08,0.25,0.33,0.87,0.75"/>
	<path class="st2" d="M158.72,391.22c14.46,30.46,26.98,60.93,36.56,91.39"/>
	<path class="st0" d="M491.82,235.54c18.93-46.67,95.22-72.05,117.8-50.77c13.32,12.55,0.78,34.6-15.23,104.59
		c-29.81,130.31-15.84,191.75-57.88,212.24c-3.87,1.88-21.39,10.42-33.51,3.05c-26.72-16.25,14.49-84.41-1.02-185.83
		C494.81,271.9,481.96,259.86,491.82,235.54z"/>
	<path class="st1" d="M504.01,519.88c0,0-54.84,28.43-67.02,28.43c-3.48-2.92-4.09-8.16-3.78-12.84c0,0-0.07-4.79,1.75-9.5
		c3.14-8.12,26.4-18.28,26.4-18.28c15.67-6.78,21.75-7.38,26.4-14.22c2.94-4.33,4.06-12.19,4.06-12.19"/>
	<path class="st1" d="M616.73,191.88c-1.48,44.06,21.39,194.84,28.43,194.97c0,0-41.2,95.12-56.87,144.2l-144.2,38.59
		c-0.95-4.06-1.2-7.79-1.02-11.17c1.84-34.37,49.43-54.64,54.84-56.87"/>
	<path class="st1" d="M491.82,259.92c-8.12,58.9,2.03,123.89,2.03,123.89c-2.5,31.86-5.08,63.62-16.25,83.27
		c3.51,13.21,14.43,16.22,30.46,12.19c13.76-11.18,22.74-45.23,30.46-85.3c0,0,39.02-19.86,39.46-19.03
		c0.04,0.08-0.25,0.33-0.87,0.75"/>
	<path class="st1" d="M587.28,398.02c-14.46,30.46-26.98,60.93-36.56,91.39"/>
</g>
</svg>
