<?xml version="1.0" encoding="utf-8"?>
<!-- Generator: Adobe Illustrator 28.3.0, SVG Export Plug-In . SVG Version: 6.00 Build 0)  -->
<svg version="1.1" id="Layer_1" xmlns="http://www.w3.org/2000/svg" xmlns:xlink="http://www.w3.org/1999/xlink" x="0px" y="0px"
	 viewBox="0 0 818 820" style="enable-background:new 0 0 818 820;" xml:space="preserve">
<style type="text/css">
	.st0{fill:#426646;stroke:#000000;stroke-miterlimit:10;}
	.st1{fill:#426646;}
	.st2{fill:#20382B;}
	.st3{fill:#20382B;stroke:#20382B;stroke-miterlimit:10;}
	.st4{fill:#426646;stroke:#000000;stroke-width:2;stroke-miterlimit:10;}
</style>
<g>
	<path class="st0" d="M460.78,142.97c40.48,9.2,80.96,18.4,121.43,27.6c7.75,21.46,10.98,43.27,13.71,65.05
		c13.88,110.47,61.48,208.21,82,297c11.61,29.33,19.3,58.66,18,88c-25.1,45.84-57.16,44.47-91,31c-29-130.67-58-261.33-87-392"/>
	<path class="st0" d="M359.78,143.97c-35.62,7.55-71.24,15.1-106.85,22.66c-7.82,24.9-15.49,50.24-23,76
		c-17.62,60.47-33.2,119.53-47,177c-13.65,31.92-27.04,66.91-39.39,104.86c-8.34,25.65-15.49,50.42-21.61,74.14
		c3.41,6.84,14.91,27.7,40,39c15.21,6.85,29.12,7.34,37,7c36.33-132,72.67-264,109-396"/>
	<g>
		<path class="st1" d="M277.09,200.63c0.65,151.26-1.29,263.38-3.15,301c-1.84,37.19-6.8,70.24-6.8,70.24
			c-2.67,28.67-5.33,57.33-8,86c35.52,7.22,75.73,13.41,120,17c49,3.97,93.71,3.99,133,2c6.7-1,23.98-4.52,39-19
			c9.86-9.51,14.69-19.82,17-26c-23.41-83.66-28.54-130.34-29-157c-0.04-2.6-0.2-14-0.33-26.24c-0.76-68.75-0.49-64.89-0.61-86.55
			c-0.1-17.52-4-41.89-3.8-77.96c0.05-9.47,0.35-20.8,1.26-33.77c1.65-23.54,4.66-43.22,7.35-57.72"/>
		<path d="M277.21,200.63c0.27,92.9,0.21,185.83-2.31,278.7c-0.72,30.96-3.32,61.91-7.65,92.55c0,0-8.02,86-8.02,86
			c20.23,3.85,41.74,7.84,62.59,10.61c52.48,7.32,105.56,10.11,158.52,8.99c10.53-0.16,21.36-0.57,31.73-1.02
			c10.83-1.56,21.31-5.61,30.36-11.76c11.64-7.99,20.67-19.64,25.59-32.87c-4.92-17.39-9.61-35.69-13.77-53.55
			c-8.15-35.93-15.16-72.49-15.32-109.46c-0.23-17.92-0.73-65.61-0.81-83.05c-0.06-9.23,0.05-18.46-0.15-27.68
			c-0.33-9.22-1.22-18.41-1.89-27.61c-3.77-45.99-1.67-92.49,6.8-137.87c0,0,0.23,0.04,0.23,0.04
			c-8.47,45.36-10.57,91.83-6.8,137.81c0.67,9.2,1.56,18.39,1.89,27.62c0.2,15.77,0.16,39.3,0.34,55.37
			c0.54,32.82-0.56,78.51,5.3,110.46c5.66,36.48,14.52,72.38,24.39,107.93c-5.39,14.8-16.01,27.7-29.52,35.81
			c-8.1,4.91-17.17,8.16-26.53,9.63c-10.6,0.6-21.21,0.96-31.83,1.2c-53.01,0.93-106.06-2.58-158.57-9.82
			c-20.96-3-42.2-6.38-62.76-10.79c0,0,7.98-86,7.98-86c4.33-30.63,6.92-61.58,7.64-92.53
			C277.42,386.61,276.79,292.92,277.21,200.63L277.21,200.63z"/>
	</g>
	<g>
		<path d="M524.37,462.87c-1.65,11.3-7.11,21.24-13.52,30.45c-2.22,3-4.56,5.93-7.48,8.55c0,0-0.88-0.47-0.88-0.47
			c2.37-13.31,10.8-30.01,21-39C523.49,462.39,524.37,462.87,524.37,462.87L524.37,462.87z"/>
	</g>
	<g>
		<path class="st2" d="M329.93,246.63c16.06,82.14,33.1,158.71,53,219"/>
		<path class="st2" d="M330.04,246.61c14.04,69,28.48,138.06,48.81,205.53c1.35,4.5,2.79,8.97,4.18,13.45c0,0-0.22,0.07-0.22,0.07
			c-11.99-35.63-21.5-72.05-30.01-108.65C344.63,320.51,336.21,283.07,330.04,246.61L330.04,246.61z"/>
	</g>
	<g>
		<path class="st2" d="M307.93,474.63c24.28,33.45,56.92,50.17,92,62"/>
		<path class="st2" d="M308.03,474.56c21.57,29.21,51.72,47.18,85.32,59.54c0,0,6.63,2.41,6.63,2.41l-0.08,0.23
			c0,0-6.7-2.23-6.7-2.23c-24.43-8.38-48.1-20.51-66.89-38.47c-6.85-6.48-13.02-13.67-18.47-21.34
			C307.83,474.7,308.03,474.56,308.03,474.56L308.03,474.56z"/>
	</g>
	<line class="st3" x1="469.93" y1="260.63" x2="428.93" y2="364.63"/>
	<g>
		<path class="st2" d="M512.65,443.34c-14.62,6.33-29.77,11.44-45.24,15.26c3.1,8.59,4.71,17.72,4.75,26.85"/>
		<g>
			<path class="st2" d="M511.89,442.04c-14.51,6.26-29.54,11.3-44.88,15.11c-0.74,0.18-1.32,1.09-1.05,1.85
				c3.04,8.5,4.63,17.42,4.7,26.45c0.01,1.93,3.01,1.93,3,0c-0.07-9.28-1.68-18.51-4.81-27.25c-0.35,0.62-0.7,1.23-1.05,1.85
				c15.6-3.87,30.84-9.05,45.6-15.41C515.17,443.87,513.65,441.29,511.89,442.04L511.89,442.04z"/>
		</g>
	</g>
	<g>
		<path class="st2" d="M440.4,386.12c9.99,0,19.97,0,29.96,0"/>
		<g>
			<path class="st2" d="M440.4,387.62c9.99,0,19.97,0,29.96,0c1.93,0,1.93-3,0-3c-9.99,0-19.97,0-29.96,0
				C438.47,384.62,438.47,387.62,440.4,387.62L440.4,387.62z"/>
		</g>
	</g>
	<g>
		<path class="st2" d="M275.62,220.43c-7.78,28.37-12.88,57.47-15.22,86.79"/>
		<g>
			<path class="st2" d="M274.17,220.03c-6.08,22.23-10.53,44.88-13.32,67.76c-0.79,6.46-1.44,12.94-1.96,19.43
				c-0.15,1.92,2.85,1.91,3,0c1.83-22.78,5.32-45.42,10.45-67.69c1.44-6.27,3.02-12.5,4.72-18.7
				C277.58,218.96,274.68,218.17,274.17,220.03L274.17,220.03z"/>
		</g>
	</g>
	<g>
		<path class="st2" d="M192.72,427.66c-0.09,2.37,0.64,4.68,1.37,6.93c2.78,8.64,5.56,17.28,8.35,25.92"/>
		<g>
			<path class="st2" d="M191.22,427.66c-0.04,2.79,0.81,5.41,1.65,8.04c0.91,2.83,1.82,5.65,2.73,8.48
				c1.8,5.58,3.59,11.15,5.39,16.73c0.59,1.83,3.49,1.05,2.89-0.8c-1.75-5.42-3.49-10.84-5.24-16.26c-0.86-2.67-1.72-5.34-2.58-8.01
				c-0.86-2.66-1.89-5.35-1.85-8.18C194.25,425.73,191.25,425.73,191.22,427.66L191.22,427.66z"/>
		</g>
	</g>
	<g>
		<path class="st2" d="M660.43,543.45c-14.49,12.7-29.32,25.83-38.15,42.95c-0.34,0.66-0.66,1.52-0.18,2.1
			c0.32,0.39,0.88,0.47,1.38,0.52c1.55,0.15,3.1,0.31,4.66,0.46"/>
		<g>
			<path class="st2" d="M659.37,542.39c-13.71,12.02-27.77,24.41-36.87,40.46c-0.99,1.75-3.15,4.58-1.58,6.56
				c0.7,0.88,1.74,1.02,2.79,1.13c1.47,0.15,2.95,0.29,4.42,0.43c1.92,0.19,1.91-2.81,0-3c-1.09-0.11-2.17-0.21-3.26-0.32
				c-0.36-0.04-1.22,0.06-1.5-0.16c0,0,0.31-0.56,0.5-0.9c0.95-1.81,1.98-3.58,3.06-5.32c2.14-3.41,4.5-6.67,7.05-9.79
				c5.17-6.32,10.99-12.08,16.99-17.6c3.46-3.18,6.99-6.28,10.52-9.37C662.94,543.23,660.82,541.12,659.37,542.39L659.37,542.39z"/>
		</g>
	</g>
	<g>
		<path class="st2" d="M200.7,481.17c-0.2,5.81,0.51,11.65,2.12,17.24c0.32,1.12,0.72,2.29,1.63,3.02c0.79,0.63,1.83,0.81,2.83,0.95
			c3.7,0.51,7.44,0.67,11.17,0.48"/>
		<g>
			<path class="st2" d="M199.2,481.17c-0.1,3.32,0.08,6.63,0.54,9.93c0.42,3.03,0.94,6.27,2.11,9.11c0.49,1.19,1.23,2.26,2.4,2.87
				c1.3,0.68,2.83,0.79,4.26,0.96c3.3,0.39,6.62,0.48,9.93,0.32c1.92-0.09,1.93-3.09,0-3c-2.9,0.14-5.81,0.09-8.7-0.19
				c-1.21-0.12-2.58-0.15-3.73-0.58c-1.07-0.4-1.41-1.41-1.71-2.43c-1.63-5.51-2.29-11.27-2.11-17
				C202.26,479.24,199.26,479.24,199.2,481.17L199.2,481.17z"/>
		</g>
	</g>
	<ellipse class="st1" cx="347.34" cy="196.65" rx="24.5" ry="30"/>
	<path class="st1" d="M498.84,188.65c0,13.72-9.87,29.33-24.5,30c-13.33,0.61-24.09-11.47-26.5-23c-3.63-17.32,10.69-37.59,26.5-37
		C487.48,159.14,498.83,173.94,498.84,188.65z"/>
	<path class="st4" d="M359.72,144.51c0.86,30.41,27.32,53.34,55.34,50.73c25.67-2.39,46.52-25.66,45.7-53.41
		c2.99,0.71,5.98,1.41,8.97,2.12c0.08,32.84-24.22,59.9-53.83,63.3c-33.5,3.84-66.47-23.45-68.21-60.9
		C351.71,145.74,355.71,145.12,359.72,144.51z"/>
</g>
</svg>
