<?xml version="1.0" encoding="utf-8"?>
<!-- Generator: Adobe Illustrator 28.3.0, SVG Export Plug-In . SVG Version: 6.00 Build 0)  -->
<svg version="1.1" id="Layer_1" xmlns="http://www.w3.org/2000/svg" xmlns:xlink="http://www.w3.org/1999/xlink" x="0px" y="0px"
	 viewBox="0 0 2287.06 3540.71" style="enable-background:new 0 0 2287.06 3540.71;" xml:space="preserve">
<style type="text/css">
	.st0{fill:none;stroke:#010101;stroke-miterlimit:10;}
	.st1{fill:#436747;}
	.st2{fill:#010101;}
	.st3{fill:#436747;stroke:#010101;stroke-miterlimit:10;}
	.st4{fill:#21392C;}
	.st5{fill:#21392C;stroke:#21392C;stroke-miterlimit:10;}
	.st6{fill:#303F69;}
	.st7{fill:#303F69;stroke:#010101;stroke-miterlimit:10;}
	.st8{fill:#27345B;}
	.st9{fill:#27345B;stroke:#27345B;stroke-miterlimit:10;}
	.st10{fill:#25292E;}
	.st11{fill:#1F2822;stroke:#010101;stroke-miterlimit:10;}
	.st12{fill:#0F131F;}
	.st13{fill:#0F131F;stroke:#FFFFFF;stroke-miterlimit:10;}
	.st14{fill:none;stroke:#FFFFFF;stroke-miterlimit:10;}
	.st15{fill:#FEE3CB;}
	.st16{fill:#FEE3CB;stroke:#010101;stroke-miterlimit:10;}
	.st17{fill:#FAB895;stroke:#FAB895;stroke-miterlimit:10;}
	.st18{fill:#323549;stroke:#25292E;stroke-width:2;stroke-miterlimit:10;}
	.st19{fill:#323549;}
	.st20{fill:#323549;stroke:#25292E;stroke-width:5;stroke-miterlimit:10;}
	.st21{fill:none;stroke:#21392C;stroke-miterlimit:10;}
	.st22{fill:#436747;stroke:#010101;stroke-width:2;stroke-miterlimit:10;}
	.st23{fill:#FAB895;}
	.st24{fill:#332C26;}
	.st25{fill:#332C26;stroke:#010101;stroke-miterlimit:10;}
	.st26{fill:none;stroke:#FAB895;stroke-miterlimit:10;}
	.st27{fill:#010101;stroke:#010101;stroke-miterlimit:10;}
	.st28{fill:#EF3F5B;}
	.st29{fill:#FFFFFF;stroke:#010101;stroke-miterlimit:10;}
	.st30{fill:#FAB895;stroke:#010101;stroke-width:0.5;stroke-miterlimit:10;}
	.st31{fill:#8EA2A9;}
	.st32{fill:#314E38;stroke:#010101;stroke-miterlimit:10;}
	.st33{fill:#5A7591;}
	.st34{fill:#010101;stroke:#010101;stroke-width:5;stroke-miterlimit:10;}
	.st35{fill:#5D7178;stroke:#010101;stroke-miterlimit:10;}
	.st36{fill:none;stroke:#21392C;stroke-width:3;stroke-miterlimit:10;}
	.st37{fill:none;stroke:#010101;stroke-width:3;stroke-miterlimit:10;}
	.st38{fill:#FFFFFF;}
	.st39{fill:none;stroke:#010101;stroke-width:4;stroke-miterlimit:10;}
	.st40{opacity:0.5;fill:#231F20;stroke:#010101;stroke-width:3;stroke-miterlimit:10;enable-background:new    ;}
	.st41{fill:none;stroke:#010101;stroke-width:7;stroke-miterlimit:10;}
	.st42{fill:#231F20;stroke:#010101;stroke-width:3;stroke-miterlimit:10;}
	.st43{fill:#144A5B;}
	.st44{fill:#332C16;}
</style>
<g>
	<path class="st0" d="M1779.92,2248.97"/>
	<g>
		<path class="st1" d="M1793.1,1904.44c2.36-5.16,7.59-18.26,1.66-26.54c-4.09-5.7-11.7-6.64-14.42-6.98
			c-66.04-8.35-14.76-14.5-109.14-16.32c-48.72-0.94-99.97-1.16-142.72,22.23c-2.17,1.18-4.38,2.5-5.64,4.62
			c-1.07,1.79-1.32,3.95-1.54,6.04c-3.78,36.72-3.96,73.81-0.52,110.57c0.94,10.07,2.19,20.26,5.81,29.7
			c5.22,13.61,15.06,24.87,24.68,35.81c4.74,5.38,9.7,10.93,16.27,13.79c7.59,3.3,16.22,2.58,24.49,2.91
			c12.05,0.49,23.87,3.38,35.85,4.63c11.99,1.26,24.67,0.75,35.25-5.04c7.09-3.89,12.76-9.88,18.28-15.78
			c15.87-16.9,31.77-33.84,45.84-52.27c5.02-6.58,9.82-13.37,15.57-19.32c6.52-6.74,14.2-12.34,20.26-19.51
			c7.5-8.87,12.17-19.73,16.73-30.4c4.38-10.25,9.77-24.46,14.2-42.18"/>
		<g>
			<path class="st2" d="M1793.48,1904.67c4.43-9.75,8.33-24.67-3.12-31.23c-4.56-2.61-9.83-2.91-14.91-3.61
				c-4.93-0.67-9.86-1.43-14.76-2.36c-5.51-1.05-11.04-2.3-16.3-4.28c-2.9-1.1-5.68-2.5-8.59-3.57c-4.14-1.53-8.52-2.27-12.88-2.84
				c-9.59-1.24-19.3-1.64-28.97-2c-16.04-0.6-32.11-0.93-48.17-0.93c-16.18,0-32.38,0.49-48.45,2.32
				c-15.75,1.81-31.41,4.91-46.38,10.19c-7.33,2.59-14.48,5.68-21.34,9.33c-2.95,1.56-6.21,3.23-7.64,6.43
				c-0.69,1.54-0.9,3.21-1.08,4.87c-0.25,2.33-0.47,4.67-0.69,7c-3.32,36.37-3.37,73.34,0.69,109.66
				c0.95,8.47,2.38,16.98,5.55,24.95c2.94,7.37,7.22,14.09,12.01,20.36c4.74,6.21,9.92,12.13,15.18,17.91
				c5.21,5.72,11.04,10.76,18.76,12.52c7.94,1.81,16.24,0.91,24.29,1.61c8.92,0.77,17.7,2.59,26.57,3.78
				c15.77,2.12,32.51,1.84,45.7-8.21c6.35-4.84,11.65-10.95,17.09-16.75c6.11-6.52,12.2-13.06,18.16-19.71
				c5.84-6.51,11.55-13.12,17.04-19.92c5.45-6.74,10.46-13.82,15.91-20.54c5.31-6.54,11.48-12.02,17.68-17.67
				c5.96-5.42,11.17-11.27,15.3-18.21c4.15-6.98,7.34-14.49,10.49-21.96c2.52-5.95,4.84-11.98,6.94-18.08
				c2.64-7.63,4.92-15.38,6.88-23.22c0.14-0.57-0.73-0.81-0.87-0.24c-3.57,14.26-8.26,28.22-14.02,41.75
				c-3.08,7.23-6.19,14.51-10.22,21.29c-4.18,7.04-9.51,12.9-15.55,18.38c-6.02,5.45-11.98,10.78-17.11,17.1
				c-5.3,6.49-10.12,13.35-15.37,19.87c-10.83,13.48-22.54,26.23-34.36,38.85c-5.45,5.83-10.76,11.99-16.95,17.08
				c-6.27,5.15-13.53,8.35-21.53,9.64c-16.8,2.71-33.43-2.27-50.06-3.96c-8.21-0.83-16.66,0.06-24.77-1.53
				c-8.05-1.58-14.01-6.58-19.39-12.49c-10.64-11.67-21.84-24.13-27.44-39.13c-3.01-8.06-4.32-16.62-5.21-25.13
				c-0.93-8.81-1.58-17.64-2.05-26.49c-0.95-17.84-1.06-35.72-0.31-53.57c0.37-8.92,0.95-17.84,1.75-26.73
				c0.19-2.18,0.4-4.34,0.61-6.52c0.22-2.2,0.34-4.56,1.36-6.57c1.77-3.44,6.13-5.15,9.39-6.82c13.89-7.08,28.84-11.85,44.09-14.94
				c30.94-6.27,62.79-5.9,94.2-5.3c13.47,0.26,26.95,0.57,40.39,1.5c6.38,0.45,12.85,0.95,19.11,2.36
				c6.79,1.53,12.85,5.07,19.53,6.96c7.32,2.07,14.86,3.3,22.39,4.39c4.91,0.71,10.12,0.89,14.82,2.59
				c3.18,1.14,6.11,3.09,7.92,5.99c1.73,2.78,2.29,6.09,2.19,9.33c-0.17,5.56-2.03,11.04-4.32,16.06
				C1792.46,1904.74,1793.24,1905.2,1793.48,1904.67L1793.48,1904.67z"/>
		</g>
	</g>
	<path class="st3" d="M1799.56,1892.34c5.54,17.14,10.92,35.07,16.02,53.77c6.98,25.6,12.82,50.26,17.68,73.8
		c-3.14,40.4-2.21,106.2-4.81,187.15c-9.91,307.99,32.16,476.33,16.66,539.33c-5.6,22.75-53.46,29.7-128.78,9.63
		c-4.77-183.08-19.02-374.6-45.54-573.33c-4.18-31.27-8.59-62.27-13.24-92.97c-21.27-0.81-42.52-1.6-63.79-2.41"/>
	<path class="st3" d="M1520.34,1891.14c-10.83,42.52-21.66,85.05-32.5,127.58c2.66,40.72,1.22,106.38,3.88,187.06
		c10.72,324.71-30.55,497.29-8.88,550.25c15.56,15.12,50.77,24.7,119.15,2.41c2.88-50.39,5.74-100.79,8.62-151.19
		c8.34-125.11,19.03-252.89,32.35-383.2c4.62-45.16,9.48-89.93,14.59-134.33c25.68-1.01,38.53-1.82,38.51-2.41
		c-0.01-0.89-29.7-1.3-89.06-1.2"/>
	<g>
		<path class="st4" d="M1549.56,1960.07c-1.14,13.96-2.29,27.92-3.44,41.87c-0.16,1.88-0.32,3.8-1.11,5.52
			c-1.49,3.27-4.16,4.98-4.83,5.43c-4.2,2.88-20.26,18.34-45.13,43.15"/>
		<g>
			<path class="st4" d="M1547.75,1960.07c-0.88,10.77-1.77,21.53-2.65,32.3c-0.22,2.7-0.45,5.38-0.66,8.08
				c-0.19,2.36-0.23,4.84-1.42,6.96c-1.08,1.94-2.71,3.13-4.43,4.43c-2.92,2.21-5.61,4.77-8.29,7.27
				c-4.72,4.39-9.34,8.87-13.95,13.37c-7.57,7.38-15.07,14.83-22.55,22.29c-1.65,1.64,0.9,4.2,2.55,2.55
				c11.73-11.7,23.47-23.45,35.56-34.77c2.8-2.62,5.61-5.32,8.64-7.69c-0.39,0.3,0.16-0.12,0.3-0.22c0.24-0.17,0.48-0.32,0.72-0.49
				c1.3-0.93,2.47-1.97,3.45-3.24c3.07-3.95,2.91-8.98,3.31-13.73c1.01-12.36,2.03-24.72,3.05-37.09
				C1551.56,1957.74,1547.95,1957.76,1547.75,1960.07L1547.75,1960.07z"/>
		</g>
	</g>
	<path class="st5" d="M1509.5,2101.76c-2.96,66.58,3.45,153.24,19.26,259.97"/>
	<path class="st5" d="M1532.37,2444.77c-7.56,51.36-11.58,102.7-12.04,154.05"/>
	<g>
		<path class="st4" d="M1803.17,2110.19c-0.81,111.53-1.6,223.05-2.41,334.59"/>
		<path class="st4" d="M1803.24,2110.19c-0.04,108.72-1.05,225.8-2.41,334.59h-0.13
			C1801.04,2336.04,1801.33,2218.58,1803.24,2110.19L1803.24,2110.19z"/>
	</g>
	<path class="st5" d="M1807.98,2492.91c-4.07,43.7-8.36,84.16-13.24,116.74c-13.47,18.88-31.33,27.31-50.55,32.5"/>
	<g>
		<path class="st4" d="M1761.38,1955.24c1.14,13.96,2.29,27.92,3.44,41.87c0.16,1.88,0.32,3.8,1.11,5.52
			c1.49,3.27,4.16,4.98,4.83,5.43c4.2,2.88,20.26,18.34,45.13,43.15"/>
		<g>
			<path class="st4" d="M1759.58,1955.24c0.9,10.96,1.81,21.94,2.7,32.91c0.23,2.79,0.46,5.58,0.69,8.38
				c0.19,2.32,0.35,4.66,1.31,6.81c1.24,2.79,3.36,4.71,5.79,6.45c0.12,0.08,0.59,0.45,0.42,0.31c-0.12-0.1,0.48,0.39,0.64,0.52
				c0.58,0.48,1.16,0.96,1.72,1.46c1.6,1.4,3.17,2.83,4.73,4.27c4.79,4.44,9.47,8.98,14.15,13.54c7.68,7.49,15.29,15.03,22.87,22.59
				c1.65,1.64,4.2-0.91,2.55-2.55c-11.57-11.53-23.12-23.08-35.02-34.26c-2.88-2.71-5.75-5.45-8.83-7.92
				c-1.25-1.01-2.64-1.84-3.76-3.01c-3.35-3.45-2.98-8.55-3.36-13.01c-1-12.17-2-24.32-3-36.49
				C1763,1952.94,1759.39,1952.92,1759.58,1955.24L1759.58,1955.24z"/>
		</g>
	</g>
</g>
<g>
	<path class="st0" d="M622.84,2297.44"/>
	<g>
		<path class="st6" d="M805.72,1861.45c2.36-5.16,7.59-18.26,1.66-26.54c-4.09-5.7-11.7-6.64-14.42-6.98
			c-66.04-8.35-14.76-14.5-109.14-16.32c-48.72-0.94-99.97-1.16-142.72,22.23c-2.17,1.18-4.38,2.5-5.64,4.62
			c-1.07,1.79-1.32,3.95-1.54,6.04c-3.78,36.72-3.96,73.81-0.52,110.57c0.94,10.07,2.19,20.26,5.81,29.7
			c5.22,13.61,15.06,24.87,24.68,35.81c4.74,5.38,9.7,10.93,16.27,13.79c7.59,3.3,16.22,2.58,24.49,2.91
			c12.05,0.49,23.87,3.38,35.85,4.63c11.99,1.26,24.67,0.75,35.25-5.04c7.09-3.89,12.76-9.88,18.28-15.78
			c15.87-16.9,31.77-33.84,45.84-52.27c5.02-6.58,9.82-13.37,15.57-19.32c6.52-6.74,14.2-12.34,20.26-19.51
			c7.5-8.87,12.17-19.73,16.73-30.4c4.38-10.25,9.77-24.46,14.2-42.18"/>
	</g>
	<path class="st7" d="M810.99,1843.34c5.54,17.14,10.92,35.07,16.02,53.77c6.98,25.6,12.82,50.26,17.68,73.8l-9.63,374.3
		c-2.08,36.79-3.69,93.48,1.2,162.48c10.07,141.87,3.26,245.68,3.26,245.68s-43.8,21.92-110.73-2.41
		c-5.9-63.44-11.79-126.88-17.7-190.32l0,0c-4.13-74.97-8.26-149.94-12.38-224.91c-9.92-98.34-19.82-196.68-29.74-295.03l0,0
		c-21.27-0.81-42.52-1.6-63.79-2.41"/>
	<path class="st7" d="M531.77,1842.13c-10.83,42.52-21.66,85.05-32.5,127.58c-0.57,124.57,6.9,249.48,12.04,374.3
		c-6.37,197.54-14.79,402.14-14.79,402.14s48.77,25.14,120.35,1.2c5.7-184.32,17.75-375.3,37.51-572.32
		c4.54-45.21,9.4-89.98,14.59-134.33c25.68-1.01,38.53-1.82,38.51-2.41c-0.01-0.89-29.7-1.3-89.06-1.2"/>
	<g>
		<path class="st8" d="M689.97,1899.45c-2.98,42.28-5.98,84.55-8.97,126.83"/>
		<g>
			<path class="st8" d="M688.17,1899.45c-2.32,32.91-4.66,65.81-6.98,98.72c-0.66,9.38-1.32,18.75-1.99,28.11
				c-0.17,2.32,3.44,2.31,3.61,0c2.32-32.91,4.66-65.81,6.98-98.72c0.66-9.38,1.32-18.75,1.99-28.11
				C691.95,1897.12,688.34,1897.14,688.17,1899.45L688.17,1899.45z"/>
		</g>
	</g>
	<g>
		<path class="st8" d="M652.68,1902.89c-4.2,42.74-8.4,85.46-12.6,128.2"/>
		<g>
			<path class="st8" d="M650.87,1902.89c-3.29,33.4-6.56,66.78-9.85,100.18c-0.91,9.34-1.84,18.68-2.76,28.03
				c-0.23,2.31,3.38,2.3,3.61,0c3.29-33.4,6.56-66.78,9.85-100.18c0.91-9.34,1.84-18.68,2.76-28.03
				C654.71,1900.58,651.1,1900.59,650.87,1902.89L650.87,1902.89z"/>
		</g>
	</g>
	<g>
		<path class="st8" d="M560.99,1911.05c-1.14,13.96-2.29,27.92-3.44,41.87c-0.16,1.88-0.32,3.8-1.11,5.52
			c-1.49,3.27-4.16,4.98-4.83,5.43c-4.2,2.88-20.26,18.34-45.13,43.15"/>
		<g>
			<path class="st8" d="M559.18,1911.05c-0.88,10.77-1.77,21.53-2.65,32.3c-0.22,2.7-0.45,5.38-0.66,8.08
				c-0.19,2.36-0.23,4.84-1.42,6.96c-1.08,1.94-2.71,3.13-4.43,4.43c-2.92,2.21-5.61,4.77-8.29,7.27
				c-4.72,4.39-9.34,8.87-13.95,13.37c-7.57,7.38-15.07,14.83-22.55,22.29c-1.65,1.64,0.9,4.2,2.55,2.55
				c11.73-11.7,23.47-23.45,35.56-34.77c2.8-2.62,5.61-5.32,8.64-7.69c-0.39,0.3,0.16-0.12,0.3-0.22c0.24-0.17,0.48-0.32,0.72-0.49
				c1.3-0.93,2.47-1.97,3.45-3.24c3.07-3.95,2.91-8.98,3.31-13.73c1.01-12.36,2.03-24.72,3.04-37.09
				C562.97,1908.74,559.36,1908.75,559.18,1911.05L559.18,1911.05z"/>
		</g>
	</g>
	<g>
		<path class="st8" d="M774.45,1900.28c-0.06,9.83-0.11,19.67-0.17,29.5c-0.01,1.62,0.04,3.39,1.06,4.65
			c0.83,1.01,2.13,1.47,3.36,1.89c14.62,4.93,29.23,9.88,43.86,14.82"/>
		<g>
			<path class="st8" d="M772.64,1900.28c-0.04,5.8-0.06,11.6-0.1,17.4c-0.01,2.95-0.04,5.9-0.05,8.85
				c-0.01,2.33-0.34,4.99,0.47,7.25c0.82,2.26,2.7,3.36,4.85,4.13c2.78,1,5.6,1.89,8.39,2.84c5.6,1.89,11.21,3.78,16.8,5.68
				c6.35,2.15,12.72,4.3,19.08,6.45c2.2,0.75,3.15-2.74,0.96-3.48c-10.54-3.56-21.07-7.12-31.62-10.68
				c-2.56-0.87-5.13-1.73-7.69-2.6c-1.32-0.45-2.66-0.9-3.98-1.35c-0.93-0.31-2.12-0.58-2.84-1.3c-1.46-1.44-0.82-4.8-0.81-6.64
				c0.01-2.66,0.04-5.31,0.05-7.97c0.04-6.2,0.07-12.4,0.11-18.58C776.27,1897.95,772.66,1897.94,772.64,1900.28L772.64,1900.28z"/>
		</g>
	</g>
	<path class="st9" d="M520.93,2052.75c-2.96,66.58,3.45,153.24,19.26,259.97"/>
	<path class="st9" d="M543.8,2395.77c-7.56,51.36-11.58,102.7-12.04,154.05"/>
	<g>
		<path class="st8" d="M814.6,2061.18c-0.81,111.53-1.6,223.05-2.41,334.59"/>
		<path class="st8" d="M814.66,2061.18c-0.04,108.72-1.05,225.8-2.41,334.59h-0.13C812.47,2287.03,812.76,2169.57,814.66,2061.18
			L814.66,2061.18z"/>
	</g>
	<path class="st9" d="M819.41,2443.91c-4.07,43.7-8.36,84.16-13.24,116.74c-13.47,18.88-31.33,27.31-50.55,32.5"/>
	<g>
		<g>
			<path class="st10" d="M596.06,1876.65c6.86,6.72,12.82,14.41,19.03,21.72c6.55,7.71,13.09,15.42,19.64,23.13
				c3.69,4.36,7.39,8.7,11.08,13.06c1.5,1.77,4.04-0.79,2.55-2.55c-13.03-15.35-26.07-30.69-39.1-46.04
				c-3.44-4.06-6.86-8.15-10.66-11.87C596.95,1872.47,594.4,1875.01,596.06,1876.65L596.06,1876.65z"/>
		</g>
	</g>
</g>
<g>
	<path class="st11" d="M674.51,2956.61c0,0-11.42,57.04-7.22,119.15c3.98,59,26.72,108.79,30.09,144.43
		c1.49,30.55,1.37,58.99-4.81,79.43c-9.74,6.16-38.47,22.55-77.65,19.77c-31.15-2.21-53.31-15.42-63.16-22.18
		c-1.88-7.73-4.16-19.39-4.81-33.7c-1.08-23.93,3.07-41,9.63-68.6c3.6-15.14,9.45-39.93,18.05-77.03
		c2.13-53.8,0.58-105.78-6.02-155.26C601.69,2969.81,637.37,2966.3,674.51,2956.61z"/>
	<path class="st0" d="M680.53,3231.02c-31.46-35.42-104.71-24.07-116.74,1.2"/>
	<path class="st0" d="M548.14,3276.75c49.33,22.15,98.68,22.73,148.04,1.2"/>
	<path class="st11" d="M802.09,2950.59c1.78,25.58,3.14,52.07,3.95,79.45c0.67,22.66,0.94,44.74,0.87,66.18
		c-9.27,39.13-18.53,78.24-27.79,117.37c0,0-1.37,58.99,4.81,79.43c9.74,6.16,38.47,22.55,77.65,19.77
		c31.15-2.21,53.31-15.42,63.16-22.18c1.88-7.73,4.16-19.39,4.81-33.7c1.08-23.93-3.07-41-9.63-68.6
		c-3.6-15.14-9.45-39.93-18.05-77.03c-0.64-25.44-0.77-51.89-0.26-79.25c0.59-31.64,1.99-62.04,3.98-91.07
		c-7.77,5.43-24.87,15.81-49.14,18.39C830.63,2962.09,810.74,2954.5,802.09,2950.59z"/>
	<path class="st0" d="M792.34,3230.44c31.46-35.42,104.71-24.07,116.74,1.2"/>
	<path class="st0" d="M924.73,3276.18c-49.33,22.15-98.68,22.73-148.04,1.2"/>
</g>
<g>
	<path class="st12" d="M1419.16,1585.72c-11.22-27.66-56.43-42.69-69.81-30.09c-7.9,7.44-0.46,20.51,9.03,61.98
		c17.67,77.22,9.39,113.63,34.3,125.77c2.29,1.12,12.67,6.17,19.86,1.81c15.83-9.63-8.59-50.02,0.6-110.12
		C1417.39,1607.27,1425.01,1600.13,1419.16,1585.72z"/>
	<path class="st13" d="M1411.94,1754.22c0,0,32.5,16.85,39.72,16.85c2.06-1.73,2.42-4.84,2.24-7.61c0,0,0.04-2.84-1.04-5.63
		c-1.87-4.81-15.65-10.83-15.65-10.83c-9.29-4.02-12.89-4.37-15.65-8.42c-1.75-2.56-2.41-7.22-2.41-7.22"/>
	<path class="st13" d="M1345.14,1559.84c0.88,26.1-12.67,115.47-16.85,115.54c0,0,24.42,56.37,33.7,85.45l85.45,22.87
		c0.57-2.41,0.71-4.62,0.6-6.62c-1.08-20.36-29.29-32.38-32.5-33.7"/>
	<path class="st13" d="M1419.16,1600.16c4.81,34.9-1.2,73.42-1.2,73.42c1.48,18.88,3.01,37.71,9.63,49.35
		c-2.08,7.82-8.56,9.62-18.05,7.22c-8.15-6.63-13.48-26.8-18.05-50.55c0,0-23.12-11.77-23.39-11.28c-0.02,0.05,0.14,0.19,0.52,0.45"
		/>
	<path class="st14" d="M1362.6,1682c8.57,18.05,15.98,36.11,21.66,54.16"/>
	<path class="st12" d="M1919.03,1590.08c11.22-27.66,56.43-42.69,69.81-30.09c7.9,7.44,0.46,20.51-9.03,61.98
		c-17.67,77.22-9.39,113.63-34.3,125.77c-2.29,1.12-12.67,6.17-19.86,1.81c-15.83-9.63,8.59-50.02-0.6-110.12
		C1920.8,1611.62,1913.19,1604.48,1919.03,1590.08z"/>
	<path class="st13" d="M1926.25,1758.57c0,0-32.5,16.85-39.72,16.85c-2.06-1.73-2.42-4.84-2.24-7.61c0,0-0.04-2.84,1.04-5.63
		c1.87-4.81,15.65-10.83,15.65-10.83c9.29-4.02,12.89-4.37,15.65-8.42c1.75-2.56,2.41-7.22,2.41-7.22"/>
	<path class="st13" d="M1993.05,1564.2c-0.88,26.1,12.67,115.47,16.85,115.54c0,0-24.42,56.37-33.7,85.45l-85.45,22.87
		c-0.57-2.41-0.71-4.62-0.6-6.62c1.08-20.36,29.29-32.38,32.5-33.7"/>
	<path class="st13" d="M1919.03,1604.52c-4.81,34.9,1.2,73.42,1.2,73.42c-1.48,18.88-3.01,37.71-9.63,49.35
		c2.08,7.82,8.56,9.62,18.05,7.22c8.15-6.63,13.48-26.8,18.05-50.55c0,0,23.12-11.77,23.39-11.28c0.02,0.05-0.14,0.19-0.52,0.45"/>
	<path class="st13" d="M1975.6,1686.36c-8.57,18.05-15.98,36.11-21.66,54.16"/>
</g>
<g>
	<g>
		<path class="st15" d="M401.9,1576.92c-5.91-22.15-25.97-43.36-39.46-40.16c-17.26,4.09-19.82,47.16-21.31,72.06
			c-1.19,19.89-5.79,106.24,34.3,125.77c2.29,1.12,12.67,6.17,19.86,1.81c16.01-9.74-9.94-50.43,0.6-110.12
			C399.98,1603.02,406.54,1594.32,401.9,1576.92z"/>
		<path class="st16" d="M399.49,1730.97c0,0,32.5,16.85,39.72,16.85c2.06-1.73,2.42-4.84,2.24-7.61c0,0,0.04-2.84-1.04-5.63
			c-1.87-4.81-15.65-10.83-15.65-10.83c-9.29-4.02-12.89-4.37-15.65-8.42c-1.75-2.56-2.41-7.22-2.41-7.22"/>
		<path class="st16" d="M359.42,1533.75c-11.17,17.02-24.02,40.57-33.25,70.38c-5.48,17.67-8.58,33.95-10.31,48.01
			c0,0,24.42,56.37,33.7,85.45l85.45,22.87c0.57-2.41,0.71-4.62,0.6-6.62c-1.08-20.36-29.29-32.38-32.5-33.7"/>
		<path class="st16" d="M406.71,1576.92c4.81,34.9-1.2,73.42-1.2,73.42c1.48,18.88,3.01,37.71,9.63,49.35
			c-2.08,7.82-8.56,9.62-18.05,7.22c-8.15-6.63-13.48-26.8-18.05-50.55c0,0-23.12-11.77-23.38-11.28c-0.02,0.05,0.14,0.19,0.52,0.45
			"/>
		<path class="st16" d="M350.14,1658.76c8.57,18.05,15.98,36.11,21.66,54.16"/>
	</g>
	<g>
		<path class="st15" d="M906.85,1587.75c5.91-22.15,25.97-43.36,39.46-40.16c17.26,4.09,19.82,47.16,21.31,72.06
			c1.19,19.89,5.79,106.24-34.3,125.77c-2.29,1.12-12.67,6.17-19.86,1.81c-16.01-9.74,9.94-50.43-0.6-110.12
			C908.77,1613.87,902.21,1605.15,906.85,1587.75z"/>
		<path class="st16" d="M909.26,1741.81c0,0-32.5,16.85-39.72,16.85c-2.06-1.73-2.42-4.84-2.24-7.61c0,0-0.04-2.84,1.04-5.63
			c1.87-4.81,15.65-10.83,15.65-10.83c9.29-4.02,12.89-4.37,15.65-8.42c1.75-2.56,2.41-7.22,2.41-7.22"/>
		<path class="st16" d="M949.32,1544.58c11.17,17.02,24.02,40.57,33.25,70.38c5.48,17.67,8.58,33.95,10.31,48.01
			c0,0-24.42,56.37-33.7,85.45l-85.45,22.87c-0.57-2.41-0.71-4.62-0.6-6.62c1.08-20.36,29.29-32.38,32.5-33.7"/>
		<path class="st16" d="M902.04,1587.75c-4.81,34.9,1.2,73.42,1.2,73.42c-1.48,18.88-3.01,37.71-9.63,49.35
			c2.08,7.82,8.56,9.62,18.05,7.22c8.15-6.63,13.48-26.8,18.05-50.55c0,0,23.12-11.77,23.38-11.28c0.02,0.05-0.14,0.19-0.52,0.45"/>
		<path class="st16" d="M958.6,1669.59c-8.57,18.05-15.98,36.11-21.66,54.16"/>
	</g>
</g>
<g>
	<path class="st16" d="M432.66,1048.74c-26.08,113.94-52.15,227.87-78.23,341.81c13.64,26.08,27.28,52.15,40.92,78.23
		c37.31-128.38,74.62-256.75,111.93-385.14C482.4,1072.01,457.52,1060.38,432.66,1048.74z"/>
	<path class="st16" d="M870.63,1051.73c26.08,113.94,52.15,227.87,78.23,341.81c-13.64,26.08-27.28,52.15-40.92,78.23
		c-37.31-128.38-74.62-256.75-111.93-385.14C820.88,1075.01,845.75,1063.37,870.63,1051.73z"/>
	<path class="st17" d="M396.55,1181.14c23.67,13.64,47.34,27.28,71.01,40.92c27.4-107.16-9.26-158.86-32.5-158.87
		C423.8,1063.19,410.97,1102.05,396.55,1181.14z"/>
	<path class="st17" d="M900.28,1164.1c-23.67,13.64-47.34,27.28-71.01,40.92c-27.4-107.16,9.26-158.86,32.5-158.87
		C873.03,1046.16,885.86,1085.03,900.28,1164.1z"/>
	<path class="st18" d="M592.73,892.28c5.63,33.18,30.25,48.58,60.18,58.97c7.09-1.79,24.07-7.12,38.51-22.87
		c18.62-20.29,20.23-43.98,20.46-50.55c23.19,11.01,39.06,31.4,38.51,51.75c-0.89,33.34-45.41,53.38-50.21,55.44
		c-1.13,0.48-2.06,0.87-2.74,1.13c-42.49,17.05-129.26-0.46-139.61-44.53c-1.6-6.82-3.39-22.89,13.24-46.94
		C578.29,893.88,585.51,893.09,592.73,892.28z"/>
	<path class="st18" d="M711.88,877.84c45.78,6.72,91.57,13.42,137.35,20.14c8.49,29.87,17.69,60.38,27.68,91.47
		c18.1,56.34,37.25,109.76,56.92,160.23c-41.64,26.31-79.94,33.48-115.54,25.27c-11.75-59.43-23.51-118.86-35.25-178.28"/>
	<path class="st18" d="M580.69,893.49c-43.21,7.17-86.41,14.33-129.63,21.51c-8.48,29.87-17.69,60.38-27.68,91.47
		c-18.1,56.34-37.25,109.76-56.92,160.23c41.64,26.31,79.94,33.48,115.54,25.27c11.75-59.43,23.51-118.86,35.25-178.28"/>
	<path class="st19" d="M682.14,945.08c-21.65,7.21-45.02,8-69.81,3.61c0.12-4.51,9.63,34.9,36.11,45.73
		C685.75,973.97,683.54,937.75,682.14,945.08z"/>
	<path class="st19" d="M595.48,935.45c-4.3-12.82-19.67-18.72-31.29-16.85c-19.39,3.12-32.65,28.56-25.27,42.12
		c7.22,13.29,34.34,15.31,48.14,2.41C593.37,957.24,599.08,946.2,595.48,935.45z"/>
	<path class="st19" d="M770.56,922.67c-4.08-13.26-20.65-19.34-32.46-19.12c-26.54,0.51-49.9,33.35-43.33,48.14
		c6.82,15.36,49.07,18.47,67.36-1.34C763.17,949.22,774.75,936.32,770.56,922.67z"/>
	<g>
		<path class="st19" d="M498,963.14c-7.34,161.73-14.68,323.47-22.01,485.19c36.55,16.31,94.59,36.96,168.5,42.12
			c81.97,5.73,148.01-10.07,187.75-22.87c-9.92-171.36-19.82-342.72-29.74-514.07"/>
		<path class="st10" d="M498.29,963.15c-1.89,121.43-5.66,242.84-13.2,364.05c-3.03,39.96-6.43,81.93-8.99,120.91
			c31.81,12.34,64.44,22.48,97.7,29.99c11.01,2.86,21.92,6.43,33.21,8.05c13.02,2.36,32.1,2.15,45.45,2.71
			c60.19,3.43,123.01-3.49,179.52-21.25c-6.44-106.18-16.31-214.86-21.44-321.13c-3.37-64.29-6.5-128.58-8.3-192.94l0.57-0.04
			c5.63,64.15,9.93,128.36,14,192.62c4.07,61.79,7.26,130.61,9.76,192.86c1.5,42.88,3.95,86.33,5.78,128.88
			c-50.68,16.4-103.87,25.66-157.22,25.89c-7.63-0.13-15.27-0.22-22.88-0.83c-11.43-0.66-22.71-2.89-34.01-4.59
			c-15.01-2.8-30.32-3.41-45.35-5.95c-33.65-6.99-66.51-18.44-97.13-33.89c2.12-60.73,1.18-121.58,4.07-182.3
			C484.96,1165.49,488.74,1062.49,498.29,963.15L498.29,963.15z"/>
	</g>
	<g>
		<path class="st19" d="M776.87,1015.05c-19.61,117.9-31.5,242.89-32.5,374.3c-0.1,12.1-0.1,24.13,0,36.11"/>
		<path class="st10" d="M778.05,1015.24c-7.85,68.11-15.18,136.43-20.09,204.81c-5.01,67.29-7.59,138.02-12.4,205.4l-2.41,0.02
			c-0.72-8.58-1.28-17.19-1.78-25.78c-4.21-77.41,0.66-155.08,9.35-232.02c5.92-51.28,13.97-102.37,24.94-152.81
			C775.68,1014.85,778.05,1015.24,778.05,1015.24L778.05,1015.24z"/>
	</g>
	<path class="st20" d="M545.79,1051.15c10.83,63.39,21.66,126.77,32.5,190.16"/>
	<g>
		<g>
			<path class="st10" d="M454.39,1013.61c6.68,25.2,11.55,50.87,14.45,76.79c0.82,7.34,1.49,14.7,2.01,22.06
				c0.17,2.3,3.78,2.32,3.61,0c-1.85-26.23-5.62-52.32-11.29-78c-1.61-7.31-3.38-14.57-5.31-21.81
				C457.28,1010.41,453.8,1011.36,454.39,1013.61L454.39,1013.61z"/>
		</g>
	</g>
	<g>
		<g>
			<path class="st10" d="M843.75,914.9c-11.47,0.07-22.07,7.7-25.95,18.45c-0.79,2.19,2.7,3.13,3.48,0.96
				c3.32-9.23,12.7-15.74,22.47-15.8C846.08,918.5,846.09,914.89,843.75,914.9L843.75,914.9z"/>
		</g>
	</g>
	<g>
		<g>
			<path class="st10" d="M464.14,933.34c7.49,1.01,13.96,5.91,16.95,12.84c0.39,0.89,1.7,1.1,2.47,0.65
				c0.93-0.54,1.04-1.58,0.65-2.47c-3.3-7.67-10.83-13.38-19.11-14.5c-0.96-0.13-1.94,0.23-2.23,1.26
				C462.65,931.95,463.17,933.2,464.14,933.34L464.14,933.34z"/>
		</g>
	</g>
</g>
<g>
	<path class="st3" d="M1726.63,889.07c48.72,11.07,97.44,22.15,146.15,33.22c9.33,25.83,13.21,52.08,16.5,78.29
		c16.71,132.96,73.99,250.59,98.69,357.45c13.97,35.3,23.23,70.6,21.66,105.91c-30.21,55.17-68.79,53.52-109.52,37.31
		c-34.9-157.27-69.81-314.52-104.71-471.79"/>
	<path class="st3" d="M1605.07,890.27c-42.87,9.09-85.74,18.17-128.6,27.27c-9.41,29.97-18.64,60.47-27.68,91.47
		c-21.21,72.78-39.96,143.86-56.57,213.03c-16.43,38.42-32.54,80.53-47.41,126.2c-10.04,30.87-18.64,60.68-26.01,89.23
		c4.1,8.23,17.94,33.34,48.14,46.94c18.31,8.24,35.05,8.83,44.53,8.42c43.72-158.87,87.46-317.74,131.19-476.61"/>
	<g>
		<path class="st1" d="M1505.54,958.46c0.78,182.05-1.55,316.99-3.79,362.27c-2.21,44.76-8.18,84.54-8.18,84.54
			c-3.21,34.51-6.41,69-9.63,103.51c42.75,8.69,91.14,16.14,144.43,20.46c58.97,4.78,112.78,4.8,160.07,2.41
			c8.06-1.2,28.86-5.44,46.94-22.87c11.87-11.45,17.68-23.85,20.46-31.29c-28.18-100.69-34.35-156.87-34.9-188.96
			c-0.05-3.13-0.24-16.85-0.4-31.58c-0.91-82.74-0.59-78.1-0.73-104.17c-0.12-21.09-4.81-50.42-4.57-93.83
			c0.06-11.4,0.42-25.03,1.52-40.64c1.99-28.33,5.61-52.02,8.85-69.47"/>
		<path class="st2" d="M1505.69,958.46c0.33,111.81,0.25,223.66-2.78,335.43c-0.87,37.26-4,74.51-9.21,111.39l-9.65,103.51
			c24.35,4.63,50.24,9.44,75.33,12.77c63.16,8.81,127.05,12.17,190.79,10.82c12.67-0.19,25.71-0.69,38.19-1.23
			c13.03-1.88,25.65-6.75,36.54-14.15c14.01-9.62,24.88-23.64,30.8-39.56c-5.92-20.93-11.57-42.95-16.57-64.45
			c-9.81-43.24-18.25-87.25-18.44-131.74c-0.28-21.57-0.88-78.96-0.97-99.95c-0.07-11.11,0.06-22.22-0.18-33.31
			c-0.4-11.1-1.47-22.16-2.27-33.23c-4.54-55.35-2.01-111.32,8.18-165.93l0.28,0.05c-10.19,54.59-12.72,110.52-8.18,165.86
			c0.81,11.07,1.88,22.13,2.27,33.24c0.24,18.98,0.19,47.3,0.41,66.64c0.65,39.5-0.67,94.49,6.38,132.94
			c6.81,43.91,17.48,87.11,29.35,129.9c-6.49,17.81-19.27,33.34-35.53,43.1c-9.75,5.91-20.66,9.82-31.93,11.59
			c-12.76,0.72-25.53,1.16-38.31,1.44c-63.8,1.12-127.65-3.11-190.85-11.82c-25.23-3.61-50.79-7.68-75.53-12.99l9.6-103.51
			c5.21-36.86,8.33-74.11,9.2-111.36C1505.94,1182.29,1505.18,1069.54,1505.69,958.46L1505.69,958.46z"/>
	</g>
	<g>
		<path class="st2" d="M1803.15,1274.07c-1.99,13.6-8.56,25.56-16.27,36.65c-2.67,3.61-5.49,7.14-9,10.29l-1.06-0.57
			c2.85-16.03,13-36.12,25.27-46.94L1803.15,1274.07L1803.15,1274.07z"/>
	</g>
	<g>
		<path class="st4" d="M1569.14,1013.82c19.33,98.86,39.84,191.02,63.79,263.58"/>
		<path class="st4" d="M1569.28,1013.79c16.9,83.04,34.28,166.16,58.75,247.37c1.62,5.42,3.36,10.8,5.03,16.19l-0.26,0.08
			c-14.43-42.88-25.88-86.72-36.12-130.77C1586.84,1102.74,1576.71,1057.68,1569.28,1013.79L1569.28,1013.79z"/>
	</g>
	<g>
		<path class="st4" d="M1542.66,1288.23c29.22,40.26,68.51,60.38,110.73,74.62"/>
		<path class="st4" d="M1542.78,1288.14c25.96,35.16,62.25,56.78,102.69,71.66l7.98,2.9l-0.1,0.28l-8.06-2.68
			c-29.4-10.09-57.89-24.68-80.51-46.3c-8.24-7.8-15.67-16.45-22.23-25.68C1542.54,1288.31,1542.78,1288.14,1542.78,1288.14
			L1542.78,1288.14z"/>
	</g>
	<line class="st21" x1="1737.63" y1="1030.67" x2="1688.29" y2="1155.84"/>
	<g>
		<path class="st4" d="M1789.05,1250.57c-17.6,7.62-35.83,13.77-54.45,18.37c3.73,10.34,5.67,21.33,5.72,32.32"/>
		<g>
			<path class="st4" d="M1788.15,1249.02c-17.46,7.53-35.55,13.6-54.02,18.19c-0.89,0.22-1.59,1.31-1.26,2.23
				c3.66,10.23,5.57,20.97,5.66,31.83c0.01,2.32,3.62,2.32,3.61,0c-0.08-11.17-2.02-22.28-5.79-32.8c-0.42,0.75-0.84,1.48-1.26,2.23
				c18.78-4.66,37.12-10.89,54.88-18.55C1792.09,1251.21,1790.25,1248.1,1788.15,1249.02L1788.15,1249.02z"/>
		</g>
	</g>
	<g>
		<path class="st4" d="M1702.1,1181.7c12.02,0,24.03,0,36.06,0"/>
		<g>
			<path class="st4" d="M1702.1,1183.51c12.02,0,24.03,0,36.06,0c2.32,0,2.32-3.61,0-3.61c-12.02,0-24.03,0-36.06,0
				C1699.78,1179.9,1699.77,1183.51,1702.1,1183.51L1702.1,1183.51z"/>
		</g>
	</g>
	<g>
		<path class="st4" d="M1503.77,982.29c-9.36,34.14-15.5,69.17-18.32,104.46"/>
		<g>
			<path class="st4" d="M1502.04,981.8c-7.32,26.75-12.67,54.02-16.03,81.55c-0.95,7.77-1.73,15.57-2.36,23.38
				c-0.18,2.31,3.43,2.3,3.61,0c2.2-27.42,6.4-54.67,12.58-81.47c1.73-7.55,3.63-15.04,5.68-22.51
				C1506.13,980.52,1502.65,979.57,1502.04,981.8L1502.04,981.8z"/>
		</g>
	</g>
	<g>
		<path class="st4" d="M1404.01,1231.71c-0.11,2.85,0.77,5.63,1.65,8.34c3.35,10.4,6.69,20.8,10.05,31.2"/>
		<g>
			<path class="st4" d="M1402.2,1231.71c-0.05,3.36,0.97,6.51,1.99,9.68c1.1,3.41,2.19,6.8,3.29,10.21
				c2.17,6.72,4.32,13.42,6.49,20.14c0.71,2.2,4.2,1.26,3.48-0.96c-2.11-6.52-4.2-13.05-6.31-19.57c-1.04-3.21-2.07-6.43-3.11-9.64
				c-1.04-3.2-2.27-6.44-2.23-9.85C1405.85,1229.37,1402.24,1229.37,1402.2,1231.71L1402.2,1231.71z"/>
		</g>
	</g>
	<g>
		<path class="st4" d="M1966.91,1371.06c-17.44,15.29-35.29,31.09-45.92,51.69c-0.41,0.79-0.79,1.83-0.22,2.53
			c0.39,0.47,1.06,0.57,1.66,0.63c1.87,0.18,3.73,0.37,5.61,0.55"/>
		<g>
			<path class="st4" d="M1965.63,1369.78c-16.5,14.47-33.42,29.38-44.37,48.7c-1.19,2.11-3.79,5.51-1.9,7.9
				c0.84,1.06,2.09,1.23,3.36,1.36c1.77,0.18,3.55,0.35,5.32,0.52c2.31,0.23,2.3-3.38,0-3.61c-1.31-0.13-2.61-0.25-3.92-0.39
				c-0.43-0.05-1.47,0.07-1.81-0.19c0,0,0.37-0.67,0.6-1.08c1.14-2.18,2.38-4.31,3.68-6.4c2.58-4.1,5.42-8.03,8.48-11.78
				c6.22-7.61,13.23-14.54,20.45-21.18c4.16-3.83,8.41-7.56,12.66-11.28C1969.94,1370.8,1967.38,1368.25,1965.63,1369.78
				L1965.63,1369.78z"/>
		</g>
	</g>
	<g>
		<path class="st4" d="M1413.61,1296.1c-0.24,6.99,0.61,14.02,2.55,20.75c0.39,1.35,0.87,2.76,1.96,3.63
			c0.95,0.76,2.2,0.97,3.41,1.14c4.45,0.61,8.95,0.81,13.44,0.58"/>
		<g>
			<path class="st4" d="M1411.81,1296.1c-0.12,4,0.1,7.98,0.65,11.95c0.51,3.65,1.13,7.55,2.54,10.96c0.59,1.43,1.48,2.72,2.89,3.45
				c1.56,0.82,3.41,0.95,5.13,1.16c3.97,0.47,7.97,0.58,11.95,0.39c2.31-0.11,2.32-3.72,0-3.61c-3.49,0.17-6.99,0.11-10.47-0.23
				c-1.46-0.14-3.11-0.18-4.49-0.7c-1.29-0.48-1.7-1.7-2.06-2.92c-1.96-6.63-2.76-13.56-2.54-20.46
				C1415.49,1293.78,1411.88,1293.78,1411.81,1296.1L1411.81,1296.1z"/>
		</g>
	</g>
	<path class="st1" d="M1628.6,981.95h-48.14c3.61-25.67,7.22-51.36,10.83-77.03c12.43,13.64,24.88,27.28,37.31,40.92
		C1628.6,957.88,1628.6,969.91,1628.6,981.95z"/>
	<ellipse class="st1" cx="1590.09" cy="953.67" rx="29.49" ry="36.11"/>
	<path class="st1" d="M1774.83,953.65c0,22.01-12.66,47.05-31.45,48.12c-17.1,0.97-30.92-18.4-34.01-36.89
		c-4.66-27.78,13.72-60.3,34.01-59.35C1760.26,906.32,1774.82,930.06,1774.83,953.65z"/>
	<path class="st22" d="M1605,890.91c1.04,36.6,32.88,64.2,66.6,61.06c30.9-2.88,55.99-30.88,55-64.28c3.6,0.85,7.2,1.7,10.8,2.55
		c0.1,39.52-29.15,72.09-64.79,76.18c-40.32,4.62-80-28.22-82.09-73.3C1595.35,892.39,1600.18,891.66,1605,890.91z"/>
</g>
<g>
	<path class="st3" d="M1776.63,705.41c17.81-47.84,30.71-88.73,39.63-119.06c38.69-131.67,37.09-182.77,35.35-206.02
		c-2.29-30.39-7.97-54.97-12.43-71.01c-19.97-20.91-74.66-72.55-160.46-87.86c-114.84-20.5-201.28,39.1-220.33,52.96
		c-6.35,9.76-15.43,26.12-20.34,48.14c-4.55,20.41-3.59,37.06-2.26,51.75c9.16,101.51,42.74,185.7,53.82,212.28l0,0
		c15.83,38.8,31.65,77.62,47.47,116.42"/>
	<path class="st16" d="M1717.87,542.51c3.17,28.34-7.22,15.65-9.63,108.32c-3.54,11.16-10.8,31.06-26.48,51.75
		c-12.06,15.91-22.45,29.61-36.11,30.09c-22.78,0.79-40.39-35.69-48.14-51.75c-16.27-33.7-7.22-77.03-13.24-127.58
		C1609.61,521.76,1666.95,513.74,1717.87,542.51z"/>
	<g>
		<path class="st23" d="M1587.29,552.74c14.43-7.73,43.87-20.82,82.24-19.39c20.26,0.76,36.97,5.33,48.95,9.76
			c-2.41,18.05-4.81,36.11-7.22,54.16c0,0-27.72,22.57-43.7,27.63c-20.75,6.58-39.61,5.91-56.07,5.07
			c-10.15-0.52-18.5-1.67-24.19-2.62"/>
	</g>
	<path class="st24" d="M1824.99,411.32c7.57-11.05,28.18-38.67,24.07-72.67c-5.42-44.94-50.87-80.65-91.83-92.54
		c-50.44-14.65-106.56,3.23-109.52-8.42c-0.37-1.44,0.05-3.5,1.2-4.81c6.1-6.96,33.17,6.11,32.5,8.42
		c-0.37,1.29-9.57,0.42-43.33-7.22c-2.36-2.07-6.44-5.36-12.04-8.42c-63.04-34.55-169.28,41.52-167.29,45.73
		c2.02,4.28,125.04-46.79,126.37-43.33c0.26,0.67-3.61,4.81-3.61,4.81c-15.75,3.23-34.82,8.65-55.36,18.05
		c-35.23,16.12-60.14,37.2-75.82,52.96c-2.18,32.74-0.65,96.06,41.28,142.33C1575.17,538.44,1763.82,500.54,1824.99,411.32z"/>
	<path class="st16" d="M1461.52,400.49c-12.49,5.51-12.11,30.65-12.04,33.7c1.31,51.95,66.85,82.38,71.01,84.25
		c14.5,6.5,29.61,13.29,36.11,7.22c12.55-11.71-15.31-63.74-48.14-97.49C1497.15,416.55,1475.51,394.32,1461.52,400.49z"/>
	<path class="st16" d="M1826.71,401.02c12.49,5.51,12.11,30.65,12.04,33.7c-1.31,51.95-66.85,82.38-71.01,84.25
		c-14.5,6.5-29.61,13.29-36.11,7.22c-12.55-11.71,15.31-63.74,48.14-97.49C1791.07,417.08,1812.71,394.85,1826.71,401.02z"/>
	<path class="st16" d="M1492.81,382.44c3.61,57.77,33.7,132.39,33.7,132.39s10.83,54.16,119.15,99.89
		c18.51-6.8,76.4-30.74,116.74-93.88c25.27-64.99,37.73-126,36.11-145.63c-10.86-68.19-65.28-156.63-148.04-158.87
		C1563.55,214,1501.99,308.3,1492.81,382.44z"/>
	<path class="st25" d="M1620.38,299.39c-8.42,79.43-34.9,115.54-34.9,115.54s67.4-34.9,54.16-46.94
		c2.12,1.79-16.85,54.16-38.51,66.2c5.69,7.43,34.52-0.97,52.96-15.65c52.17-41.52,30.92-140.96,27.68-155.26"/>
	<path class="st25" d="M1657.69,282.54c16.86,34.72,74.73,81.91,121.05,121.02c8.29,7-1.71,29.17-15.14,51.09
		c3.94,3.72,14.68-1.89,16.97-3.08c17.74-9.24,29.6-30.39,29.97-57.1"/>
	<path class="st0" d="M1492.81,442.47"/>
	<path class="st24" d="M1811.75,387.25c15.98-14.61-11.31-94.76-67.76-136.31c-73.95-54.45-202.89-46.35-253.59,24.38
		c-27.84,38.85-33.17,98.1-13.24,110.73c34.71,21.99,150.47-100.99,164.28-87.26c5.99,5.96-13.38,31.48-5.42,39.12
		c8.44,8.08,31.2-19.5,59.58-15.04c28.04,4.4,29.11,34.98,71.01,55.36C1776.32,382.94,1802.31,395.88,1811.75,387.25z"/>
	<g>
		<g>
			<path class="st2" d="M1620.84,298.36c0.94-4.39,1.4-8.89,1.36-13.38c-0.01-1.29-1.55-2.36-2.72-1.56
				c-4.1,2.83-7.85,6.14-11.12,9.91c-0.64,0.73-0.72,1.83,0,2.55c0.65,0.65,1.91,0.73,2.55,0c3.07-3.53,6.55-6.68,10.39-9.34
				c-0.9-0.52-1.81-1.04-2.72-1.56c0.05,4.18-0.36,8.34-1.23,12.43c-0.2,0.95,0.28,1.95,1.26,2.23
				C1619.53,299.86,1620.64,299.31,1620.84,298.36L1620.84,298.36z"/>
		</g>
	</g>
	<g>
		<path class="st2" d="M1689.53,318.77c-0.89,0.01-1.01-8.82-3.74-26.29c-1.71-10.99-3.57-19.99-4.93-26.09
			c3.27,5.48,7.38,13.83,9.34,24.58C1692.84,305.41,1690.62,318.76,1689.53,318.77z"/>
		<g>
			<path class="st2" d="M1689.53,316.96c0.46,0.05,1.26,0.65,1.35,0.71c0.02,0.01,0.11,0.45,0.08,0.18
				c-0.02-0.23-0.12-0.47-0.17-0.7c-0.19-0.91-0.2-1.26-0.31-2.12c-0.34-2.8-0.61-5.62-0.95-8.44c-1.11-9.4-2.55-18.75-4.32-28.04
				c-0.81-4.22-1.67-8.45-2.61-12.65c-1.1,0.47-2.2,0.93-3.3,1.4c4.99,8.4,8.38,17.69,9.68,27.39c0.7,5.22,0.85,10.54,0.47,15.79
				c-0.12,1.71-0.3,3.43-0.64,5.12c-0.12,0.57-0.25,1.13-0.42,1.68c-0.12,0.39-0.12,0.14-0.07,0.23c-0.02,0.06-0.06,0.12-0.1,0.17
				c0.19-0.32,0.47-0.53,0.84-0.65c-2.29,0.4-1.31,3.89,0.96,3.48c1.84-0.32,2.18-3.36,2.43-4.77c0.63-3.62,0.82-7.32,0.81-10.98
				c-0.04-9.6-1.73-19.2-5.32-28.11c-1.55-3.86-3.39-7.59-5.51-11.17c-1.07-1.79-3.74-0.59-3.3,1.4c2.03,9.12,3.76,18.31,5.16,27.55
				c1.12,7.39,1.78,14.83,2.79,22.23c0.23,1.62,0.41,3.73,2.46,3.94C1691.84,320.8,1691.81,317.19,1689.53,316.96z"/>
		</g>
	</g>
	<g>
		<g>
			<path class="st2" d="M1817.28,388.38c0-4.24,0-8.46,0-12.7c0-0.97-0.83-1.81-1.81-1.81s-1.81,0.83-1.81,1.81
				c0,4.24,0,8.46,0,12.7c0,0.97,0.83,1.81,1.81,1.81C1816.47,390.19,1817.28,389.36,1817.28,388.38L1817.28,388.38z"/>
		</g>
	</g>
	<g>
		<g>
			<path class="st2" d="M1551.55,243.02c10.89-0.79,21.87-0.41,32.66,1.23c2.27,0.35,3.25-3.13,0.96-3.48
				c-11.13-1.68-22.39-2.18-33.63-1.36C1549.25,239.58,1549.23,243.19,1551.55,243.02L1551.55,243.02z"/>
		</g>
	</g>
	<g>
		<g>
			<path class="st2" d="M1670.42,251.6c-2.02-4.18-5.79-7.37-10.16-8.83c-0.89-0.3-2.01,0.35-2.23,1.26c-0.23,1,0.3,1.9,1.26,2.23
				c0.24,0.08,0.48,0.17,0.71,0.25c0.19,0.07,0.24,0.07,0.01,0c0.12,0.04,0.26,0.11,0.37,0.17c0.46,0.22,0.91,0.45,1.35,0.7
				c0.42,0.24,0.82,0.51,1.22,0.79c0.1,0.07,0.18,0.13,0.28,0.2c0.37,0.28-0.29-0.24,0.07,0.06c0.19,0.16,0.39,0.32,0.58,0.49
				c0.36,0.32,0.71,0.66,1.04,1.01c0.17,0.18,0.34,0.37,0.51,0.57c0.07,0.08,0.14,0.18,0.22,0.26c0.05,0.06,0.36,0.4,0.06,0.07
				c0.66,0.71,1.16,1.72,1.58,2.59c0.41,0.85,1.7,1.14,2.47,0.65C1670.64,253.51,1670.86,252.51,1670.42,251.6L1670.42,251.6z"/>
		</g>
	</g>
	<g>
		<g>
			<path class="st2" d="M1769.32,251.25c9.92,17.5,18.7,35.61,26.27,54.24c0.87,2.13,4.36,1.19,3.48-0.96
				c-7.68-18.92-16.56-37.33-26.63-55.11C1771.3,247.4,1768.18,249.22,1769.32,251.25L1769.32,251.25z"/>
		</g>
	</g>
	<g>
		<g>
			<path class="st2" d="M1472.55,324.27c0.66-4.85,2.61-9.29,4.65-13.7c2.13-4.62,4.33-9.22,6.6-13.78
				c4.48-9.04,9.2-17.96,14.14-26.75c1.14-2.02-1.97-3.85-3.12-1.82c-5.04,8.95-9.84,18.05-14.41,27.27
				c-2.25,4.56-4.45,9.16-6.58,13.79c-2.07,4.5-4.09,9.09-4.77,14.05c-0.13,0.97,0.24,1.93,1.26,2.23
				C1471.18,325.77,1472.43,325.23,1472.55,324.27L1472.55,324.27z"/>
		</g>
	</g>
	<path class="st26" d="M1463.92,417.34c-1.42,4.53-3.68,13.91-1.2,25.27c1.66,7.63,4.85,13.34,7.22,16.85"/>
	<path class="st26" d="M1826.32,415.93c1.42,4.53,3.68,13.91,1.2,25.27c-1.66,7.63-4.85,13.34-7.22,16.85"/>
	<path class="st27" d="M1704.63,530.47c-8.08-0.76-99.58,7.68-110.73,14.44c-15.29,9.28,22.25,50.18,56.57,49.35
		C1690.64,593.3,1723.01,532.18,1704.63,530.47z"/>
	<path class="st28" d="M1705.84,552.14c-30.25-3.63-53.57-1.58-69.81,1.2c0,0-3.29,0.57-42.12,8.42l0,0c0,0,22.87,33.7,60.18,32.5
		C1670.93,591.86,1691.39,577.41,1705.84,552.14z"/>
	<path class="st29" d="M1604.74,549.73c26.21-4.68,73.93-5.45,92.67-12.04c3.2-1.12,4.54-6.37,2.41-7.22
		c-5.31-2.12-102.21,10.94-102.3,13.24C1597.49,544.46,1597.07,551.1,1604.74,549.73z"/>
	<line class="st26" x1="1652.88" y1="436.6" x2="1637.23" y2="446.23"/>
	<line class="st26" x1="1654.08" y1="442.62" x2="1628.81" y2="458.26"/>
	<line class="st26" x1="1660.1" y1="446.23" x2="1627.61" y2="466.69"/>
	<line class="st26" x1="1662.51" y1="453.45" x2="1628.81" y2="473.91"/>
	<line class="st26" x1="1666.12" y1="458.26" x2="1631.22" y2="478.72"/>
	<path class="st30" d="M1645.66,490.16c-0.2,4.81-0.4,9.63-0.6,14.44c-2.2-2.01-4.42-4.01-6.62-6.02"/>
	<g>
		<g>
			<path class="st23" d="M1532.44,477.27c-0.73,0.99-1.47,1.96-2.2,2.95c-0.13,0.2-0.2,0.43-0.22,0.67
				c-0.05,0.24-0.05,0.48,0.04,0.72c0.12,0.42,0.43,0.88,0.83,1.08c0.42,0.22,0.93,0.34,1.4,0.18c0.14-0.06,0.29-0.12,0.43-0.18
				c0.28-0.16,0.48-0.37,0.65-0.65c0.73-0.99,1.47-1.96,2.2-2.95c0.13-0.2,0.2-0.43,0.22-0.67c0.05-0.24,0.05-0.48-0.04-0.72
				c-0.12-0.42-0.43-0.88-0.83-1.08c-0.42-0.22-0.93-0.34-1.4-0.18c-0.14,0.06-0.29,0.12-0.43,0.18
				C1532.83,476.78,1532.61,477,1532.44,477.27L1532.44,477.27z"/>
		</g>
	</g>
	<g>
		<g>
			<path class="st23" d="M1537.19,480.56c-0.24,0.37-0.49,0.73-0.73,1.11c-0.13,0.2-0.2,0.43-0.22,0.67
				c-0.05,0.24-0.05,0.48,0.04,0.72c0.06,0.24,0.17,0.45,0.32,0.61c0.13,0.19,0.3,0.35,0.51,0.47c0.14,0.06,0.29,0.12,0.43,0.18
				c0.32,0.08,0.64,0.08,0.96,0c0.14-0.06,0.29-0.12,0.43-0.18c0.28-0.16,0.48-0.37,0.65-0.65c0.24-0.37,0.49-0.73,0.73-1.11
				c0.13-0.2,0.2-0.43,0.22-0.67c0.05-0.24,0.05-0.48-0.04-0.72c-0.06-0.24-0.17-0.45-0.32-0.61c-0.13-0.19-0.3-0.35-0.51-0.47
				c-0.14-0.06-0.29-0.12-0.43-0.18c-0.32-0.08-0.64-0.08-0.96,0c-0.14,0.06-0.29,0.12-0.43,0.18
				C1537.58,480.07,1537.36,480.29,1537.19,480.56L1537.19,480.56z"/>
		</g>
	</g>
	<g>
		<g>
			<path class="st23" d="M1741.18,480.37c0,0.61,0,1.23,0,1.84c-0.01,0.25,0.05,0.48,0.16,0.7c0.07,0.23,0.19,0.42,0.37,0.58
				c0.17,0.18,0.36,0.3,0.58,0.37c0.22,0.11,0.45,0.17,0.7,0.16c0.16-0.02,0.32-0.05,0.48-0.06c0.3-0.08,0.57-0.24,0.79-0.47
				c0.32-0.35,0.53-0.78,0.53-1.28c0-0.61,0-1.23,0-1.84c0.01-0.25-0.05-0.48-0.16-0.7c-0.07-0.23-0.19-0.42-0.37-0.58
				c-0.17-0.18-0.36-0.3-0.58-0.37c-0.22-0.11-0.45-0.17-0.7-0.16c-0.16,0.02-0.32,0.05-0.48,0.06c-0.3,0.08-0.57,0.24-0.79,0.47
				C1741.39,479.46,1741.18,479.89,1741.18,480.37L1741.18,480.37z"/>
		</g>
	</g>
	<g>
		<g>
			<path class="st23" d="M1746.66,478.95c0.01,0.01,0.02,0.04,0.05,0.05c-0.1-0.12-0.19-0.24-0.28-0.36
				c0.29,0.39,0.53,0.79,0.72,1.24c-0.06-0.14-0.12-0.29-0.18-0.43c0.2,0.48,0.34,0.99,0.41,1.52c-0.02-0.16-0.05-0.32-0.06-0.48
				c0.06,0.46,0.06,0.91,0.01,1.36c-0.05,0.43,0.24,0.99,0.53,1.28c0.31,0.31,0.83,0.55,1.28,0.53c0.47-0.02,0.95-0.17,1.28-0.53
				c0.1-0.12,0.19-0.24,0.28-0.36c0.17-0.28,0.24-0.59,0.24-0.91c0.1-0.9,0-1.84-0.25-2.71c-0.14-0.48-0.34-0.96-0.57-1.42
				c-0.24-0.48-0.57-0.89-0.89-1.31c-0.26-0.34-0.87-0.53-1.28-0.53c-0.45,0-0.97,0.19-1.28,0.53c-0.31,0.35-0.55,0.79-0.53,1.28
				c0.02,0.16,0.05,0.32,0.06,0.48C1746.29,478.46,1746.44,478.72,1746.66,478.95L1746.66,478.95z"/>
		</g>
	</g>
	<path class="st25" d="M1627.61,303c-15.43,10.76-113.13,101.1-121.56,137.2c-2.41,6.02,11.55,37.76,13.24,37.31
		c0.1-0.02,0.13-0.13,0.14-0.18c0.79-3.15-66.06-22.19-53.1-110.55"/>
	<path class="st31" d="M1796.67,707.87c-4.08-13.26-20.65-19.34-32.46-19.12c-26.54,0.51-49.9,33.35-43.33,48.14
		c6.82,15.36,49.07,18.47,67.36-1.34C1789.29,734.42,1800.87,721.5,1796.67,707.87z"/>
	<path class="st0" d="M1714.26,636.39"/>
	<path class="st0" d="M1714.26,625.55"/>
	<path class="st0" d="M1719.08,624.35"/>
	<path class="st32" d="M1763.61,615.93"/>
	<g>
		<path class="st33" d="M1843.15,711.51c-9.68,10.71-19.17,21.59-28.46,32.64"/>
		<g>
			<path class="st33" d="M1841.87,710.24c-9.68,10.71-19.17,21.59-28.46,32.64c-1.49,1.77,1.06,4.33,2.55,2.55
				c9.29-11.05,18.78-21.93,28.46-32.64C1845.98,711.07,1843.43,708.52,1841.87,710.24L1841.87,710.24z"/>
		</g>
	</g>
	<path class="st1" d="M1480.42,495.26c3.53-22.25,13.44-62.34,45.73-94.82c65.36-65.75,195.73-73.54,251.54-5.4
		c31.18,38.07,29.35,87.98,26.48,112.26c13.23-17.03,54.46-74.61,51.42-156.15c-1.91-51.4-20.59-89.94-32.16-109.84
		c-33.54-13.99-83.09-29.74-144.43-32.5c-110.49-4.97-194.3,35.16-232.28,56.57c-6.52,25.82-14.42,71.24-4.81,126.37
		C1450.05,438.46,1467.55,473.74,1480.42,495.26z"/>
	<path class="st34" d="M1710.48,651.25c14.05,3.21,28.08,6.41,42.12,9.63c-14.05,22.87-28.08,45.73-42.12,68.6
		c-19.4,23.16-47.09,27.16-79.43,20.46c-19.29-0.75-36.13-11.71-51.75-27.68c-15.15-12.78-26.36-35.56-37.31-58.97
		c14.84-3.61,32.5-9.63,44.53-10.83c2.36,17.13,8.05,34.53,26.48,52.96c4.69,1.95,35.2,14.06,62.58-1.2
		c2.33-1.3,12.9-7.4,21.92-19.91C1706.98,671.11,1709.62,657.94,1710.48,651.25z"/>
	<path class="st31" d="M1511.9,675.32c-5.03-3.37-8.53-10.82-6.02-15.65c3.04-5.83,13.74-5.64,20.46-2.41
		c4.56,2.2,10.56,7.38,9.63,12.04C1534.7,675.68,1520.48,681.05,1511.9,675.32z"/>
	<g>
		<path class="st2" d="M1785.27,694.99c-19.92,15.68-39.31,32.05-58.11,49.07"/>
	</g>
	<g>
		<path class="st33" d="M1533.45,706.11c5.12,8.29,11.43,15.83,18.69,22.3"/>
		<g>
			<path class="st33" d="M1531.89,707.02c5.21,8.41,11.6,16.07,18.98,22.67c1.72,1.54,4.28-1,2.55-2.55
				c-7.16-6.4-13.36-13.77-18.41-21.94C1533.79,703.22,1530.66,705.04,1531.89,707.02L1531.89,707.02z"/>
		</g>
	</g>
	<path class="st31" d="M1756.48,671.1h36.11v-9.63c-10.43-1.2-20.86-2.41-31.29-3.61C1759.68,662.26,1758.08,666.68,1756.48,671.1z"
		/>
	<path class="st1" d="M1458.31,265.84c4.81-0.71,14.77,4.67,15.37,10.99c0.14,1.44-0.12,3-0.93,4.66
		c-48.11,99.33,52.73,282.03,58.97,282.83c0.29,0.04,3.12,0.39,3.11,0.69c-0.04,0.78-19.05,0.89-23.57,0.52
		c-36.67-3.04-73.98-117.77-69.81-229.88C1441.83,326.03,1444.31,267.88,1458.31,265.84z"/>
	<path class="st1" d="M1818.62,247.33c-8.3,0.12-15.37,26.09-25.27,24.07c-2.96-0.6-5.56-3.29-6.02-6.02
		c-0.85-5.12,5.54-11.71,16.85-15.65l0,0l0,0l4.81,6.02c6.13,7.59,14.23,19.57,19.59,35.9c3.23,9.81,4.65,18.73,5.25,25.94
		c1.65,13.68,0.73,23.49-0.46,42.62c-1.62,26.07-6.52,59.41-20,106.62c0,0-21.48,99.04-49.26,103.02c-0.35,0.05-3.12,0.41-3.11,0.69
		c0.05,1.05,32.64,0.46,35.6-0.69c44.04-16.89,52.64-132.33,53.61-149.54C1855.43,326.82,1833.22,247.12,1818.62,247.33z"/>
	<path class="st1" d="M1820.58,262.23c-10.09-3.06-19.62,5.03-27.68,9.63c-7.7,4.39,31.39,31.42,32.5,89.06
		c0.08,4.32,8.17,3.02,12.04,1.2C1856.58,353.1,1850.42,271.27,1820.58,262.23z"/>
	<path class="st35" d="M1700.83,616.67c-26.86,29.46-88.83,30-113.13,2.41c-39.08-44.4,20.76-160,61.38-158.87
		C1687.9,461.29,1743.44,569.94,1700.83,616.67z"/>
	<path class="st1" d="M1699.63,755.08c41.02-19.4,80.35-65.81,69.81-96.28c-19.61-56.64-214.53-66.58-240.71-10.83
		c-13.82,29.44,18.04,80.08,57.77,103.51C1639.2,782.53,1693.03,758.2,1699.63,755.08z"/>
	<path class="st5" d="M1560.01,626.3c-26.53-0.59-47.4-19.56-69.2-35.5"/>
	<path class="st5" d="M1740.27,620.38c26.53-0.59,47.4-19.56,69.2-35.5"/>
	<path class="st5" d="M1450.49,303.75c19.39,1.22,51.66,0.6,87.86-13.24c22.31-8.53,39.55-19.57,51.75-28.89"/>
	<path class="st5" d="M1683.98,235.15c18.9-2.72,61.79-6.08,105.91,16.85c17.14,8.91,30.21,19.57,39.72,28.89"/>
	<path class="st36" d="M1436.65,342.86c30.2-19.15,82.55-46.64,152.85-56.57c110.08-15.54,196.07,21.62,229.88,38.51"/>
	<path class="st3" d="M1493.82,637.13c-21.4,15.02-38.41,35.69-50.55,62.58c24.46,19,102.23,74.44,216.64,76.67
		c113.21,2.2,192.45-49.04,217.84-67.04c-3.95-26.54-41.4-49.04-73.42-72.21"/>
	<path class="st5" d="M1815.17,735.82c-1.83-16.14-68.55-31.29-120.35-10.83c-29.5,11.65-65.89,39.5-62.52,46.94
		c0.3,0.67,0.87,1.04,1.14,1.2C1646.89,781.47,1818.18,762.18,1815.17,735.82z"/>
	<path class="st5" d="M1791.1,645.56c-17.61,20.39-49.04,27.62-84.25,31.29c0,0,19.88,9.97,57.77,12.04"/>
	<path class="st5" d="M1498.63,650.37c19.83,18.19,47.93,33.05,96.28,39.72"/>
	<g>
		<circle class="st31" cx="1648.48" cy="596.81" r="73.42"/>
		<path class="st2" d="M1580.94,596.81c-2.41,38.77,27.74,73.77,67.54,72.73c28.37-0.16,55-19.32,63.72-46.34
			c17.42-54.34-34.39-103.17-87.41-83.6C1600.77,547.94,1581.98,570.81,1580.94,596.81L1580.94,596.81z M1569.19,596.81
			c-2.46-45.06,33.1-86.01,79.29-85.3c45.83,0.19,83.12,39.52,79.89,85.3c-1.71,30.67-22.58,58.67-51.26,69.14
			C1628.97,684.46,1571.2,649.51,1569.19,596.81L1569.19,596.81z"/>
	</g>
	<circle class="st27" cx="1649.08" cy="601.03" r="7.22"/>
	<line class="st0" x1="1608.11" y1="558.84" x2="1633.49" y2="584.22"/>
	<line class="st0" x1="1629.22" y1="601.03" x2="1587.09" y2="601.03"/>
	<line class="st0" x1="1650.28" y1="581.17" x2="1650.28" y2="547.47"/>
	<line class="st0" x1="1650.28" y1="656.99" x2="1650.28" y2="623.29"/>
	<line class="st0" x1="1608.3" y1="643.66" x2="1633.7" y2="618.27"/>
	<line class="st0" x1="1666.07" y1="614.67" x2="1691.47" y2="640.07"/>
	<line class="st0" x1="1666.07" y1="585.91" x2="1691.47" y2="560.51"/>
	<line class="st0" x1="1712.26" y1="601.03" x2="1670.14" y2="601.03"/>
	<path class="st37" d="M1728.51,581.77c-18.75-68.79-53.31-122.83-79.43-121.56c-28.1,1.38-71.19,53.46-79.43,119.15
		c-16.49-2.17-40.27-8.21-58.97-26.48c-45.31-44.28-34.83-135.06,7.65-184.6c60.89-70.97,195.82-67.01,253.95,6.02
		c42.7,53.64,47.09,148.49,0.77,188.21C1758.55,574.93,1741.65,579.77,1728.51,581.77z"/>
	<path class="st37" d="M1724.9,597.42c-7.67-82.65-48.44-140.45-75.82-137.2c-31.02,3.68-76.87,57.29-77.03,134.8
		c-20.44-1.67-49.8-7.77-72.74-29.33c-53.51-50.27-43.34-157.59,9.39-216.65c67.87-76.02,208.55-74.63,274.41,3.61
		c54.44,64.67,54.83,178.39-0.96,223.41C1764.02,590.69,1742.68,595.85,1724.9,597.42z"/>
	<g>
		<path class="st38" d="M1679.71,461.21c-2.85-4.96-2.56-9.86-2.32-13.88c0.11-1.82,0.79-13.44,8.12-20.35
			c13.93-13.13,54.71-12.01,69.66,6.48c6.72,8.3,9.27,21.42,1.16,31.46c-11.16,13.82-34.88,12.38-40.64,12.02
			C1712.49,476.75,1687.6,474.97,1679.71,461.21z"/>
		<path class="st39" d="M1760.89,466.93c0.45-2.96,3.25-23.66-12.04-37.49c-18.82-17.03-53.86-13.47-67.4,2.2
			c-3.49,4.04-5.18,8.45-6.02,12.13"/>
		<circle class="st27" cx="1711.84" cy="446.17" r="14.74"/>
		<circle class="st38" cx="1718.8" cy="441.8" r="5.73"/>
		<path class="st38" d="M1604.51,459.51c2.85-4.96,2.56-9.86,2.32-13.88c-0.11-1.82-0.79-13.44-8.12-20.35
			c-13.93-13.13-54.71-12.01-69.66,6.48c-6.72,8.3-9.27,21.42-1.16,31.46c11.16,13.82,34.88,12.38,40.64,12.02
			C1571.72,475.05,1596.6,473.26,1604.51,459.51z"/>
		<circle class="st27" cx="1572.37" cy="444.47" r="14.74"/>
		<circle class="st38" cx="1579.86" cy="440.09" r="5.73"/>
		<path class="st0" d="M1531.6,467.01c3.65,1.82,34.46,16.6,60.18,1.2c6.34-3.79,11.02-8.62,14.44-13.24"/>
		<path class="st37" d="M1591.19,399.53c-28.68-0.9-55.15,3.77-78.23,16.85"/>
		<path class="st37" d="M1689.93,399.52c28.68-0.9,55.15,3.77,78.23,16.85"/>
		<path class="st39" d="M1522.42,463.58c-0.45-2.96-3.25-23.66,12.04-37.49c18.82-17.03,53.86-13.47,67.4,2.2
			c3.49,4.04,5.18,8.45,6.02,12.13"/>
		<path class="st0" d="M1752.75,469.32c-3.65,1.82-34.46,16.6-60.18,1.2c-6.34-3.79-11.02-8.62-14.44-13.24"/>
	</g>
	<path class="st40" d="M1727.81,581.41c-18.75-68.79-53.31-122.83-79.43-121.56c-28.1,1.38-71.19,53.46-79.43,119.15
		c-17.31-2.32-40.48-8.69-58.97-26.48c-44.35-42.65-36.82-126.81-1.26-173.41c57.14-74.9,201.98-72.8,261.17,2.41
		c39.8,50.57,46.76,141.71,2.47,180.63C1763.43,569.99,1749.55,578.24,1727.81,581.41z"/>
	<path class="st41" d="M1659.15,459.75c41.2,22.99,41.32,55.59,50.55,63.79c1.24,1.11,19.15,11.28,35.83,5.42
		c26.07-9.16,38.67-53.87,29.16-84.85c-13.43-43.76-95.13-142.69-124.6,9.26C1649.4,456.9,1653.93,456.84,1659.15,459.75z"/>
	<path class="st41" d="M1627.86,464.57c-11.06,11.23-18.79,21.24-25.27,30.09c-20.8,28.38-17.39,29.08-24.07,33.7
		c-11.34,7.85-28.33,10.88-41.5,5.78c-27.46-10.65-38.32-54.99-29.16-84.85c13.43-43.76,95.13-142.69,124.6,9.26
		c0.16,0.83-0.1,1.58-0.1,1.58C1631.25,461.17,1629.7,462.7,1627.86,464.57z"/>
	<path class="st42" d="M1632.67,463.36c-5.36-43.82-23.59-80.61-48.14-85.45c-37.43-7.38-89.15,59.74-78.23,110.73
		c3.97,18.55,18.31,44.76,38.51,48.14c15.66,2.62,32.77-13.59,33.7-4.81c0.54,5.09-4.86,30.68-8.42,39.72
		c-6.5,16.49-56.78-10.23-77.03-42.12c-30.2-47.56-13.31-123.62,31.29-167.29c42.87-41.98,99.15-42.09,117.95-42.12
		c18.57-0.04,78.89-0.16,123.97,46.94c2.95,3.08,41.1,44.13,42.12,103.51c0.4,22.83-4.85,39.99-7.22,46.94
		c-4.28,12.58-12.58,35.87-34.9,51.75c-9.39,6.68-25.41,20.46-37.31,12.04c-12.18-8.62-14.45-53.7-18.05-54.16
		c-7.55-0.96,20.18,8.61,36.11-10.83c15.65-19.09,22.28-45.19,22.87-54.16c1.69-25.49-6.84-67.72-39.72-83.04
		c-3.54-1.65-20.23-9.41-38.51-3.61c-17.43,5.52-41.74,36.37-42.12,83.04"/>
</g>
<path class="st0" d="M277.16,115.68L277.16,115.68L277.16,115.68z"/>
<g>
	<path class="st16" d="M746.43,628.08c3.17,28.34-7.22,15.65-9.63,108.32c-3.54,11.16-10.8,31.06-26.48,51.75
		c-12.06,15.91-22.45,29.61-36.11,30.09c-22.78,0.79-40.39-35.69-48.14-51.75c-16.27-33.7-7.22-77.03-13.24-127.58
		C638.15,607.33,695.49,599.3,746.43,628.08z"/>
	<g>
		<path class="st23" d="M615.84,638.31c14.43-7.73,43.87-20.82,82.24-19.39c20.26,0.76,36.97,5.33,48.95,9.76
			c-2.41,18.05-4.81,36.11-7.22,54.16c0,0-27.72,22.57-43.7,27.63c-20.75,6.58-39.61,5.91-56.07,5.07
			c-10.15-0.52-18.5-1.67-24.19-2.62"/>
	</g>
	<path class="st24" d="M853.54,496.89c6.67-9.72,23.16-36.55,24.07-72.67c1.36-53.89-32.45-109.08-79.06-132.64
		c-55.52-28.09-144.99-23.29-120.73-24.56c22.87-1.2,33.23-57.4,31.29-58.97c-1.85-1.5-28.51,32.75-49.35,50.55
		c-114.34-37.31-228.98,25.23-228.67,21.66c0.31-3.74,110.67-5.19,178.74,11.89c0.22,0.06,0.37,0.1,0.59,0.14
		c-14.03-6.4-33.06-11.79-54.16-8.42c-44.64,7.11-82.13,50.74-92.67,109.52c1.67,32.36,10.47,93.71,56.57,138.41
		C612.43,621.28,793.17,584.94,853.54,496.89z"/>
	<path class="st16" d="M490.07,486.06c-12.49,5.51-12.11,30.65-12.04,33.7c1.31,51.95,66.85,82.38,71.01,84.25
		c14.5,6.5,29.61,13.29,36.11,7.22c12.55-11.71-15.31-63.74-48.14-97.49C525.69,502.12,504.07,479.89,490.07,486.06z"/>
	<path class="st16" d="M855.25,486.59c12.49,5.51,12.11,30.65,12.04,33.7c-1.31,51.95-66.85,82.38-71.01,84.25
		c-14.5,6.5-29.61,13.29-36.11,7.22c-12.55-11.71,15.31-63.74,48.14-97.49C819.63,502.65,841.25,480.42,855.25,486.59z"/>
	<path class="st16" d="M521.36,468.01c3.61,57.77,33.7,132.39,33.7,132.39s10.83,54.16,119.15,99.89
		c18.51-6.8,76.4-30.74,116.74-93.88c25.27-64.99,37.73-126,36.11-145.63c-10.86-68.19-65.28-156.63-148.04-158.87
		C592.09,299.57,530.54,393.87,521.36,468.01z"/>
	<path class="st25" d="M648.94,384.96c-8.42,79.43-34.9,115.54-34.9,115.54s67.4-34.9,54.16-46.94c2.12,1.79-16.85,54.16-38.51,66.2
		c5.69,7.43,34.52-0.97,52.96-15.65c52.17-41.52,30.92-140.96,27.68-155.26"/>
	<path class="st25" d="M686.25,368.11c16.86,34.72,74.73,81.91,121.05,121.02c8.29,7-1.71,29.17-15.14,51.09
		c3.94,3.72,14.68-1.89,16.97-3.08c17.74-9.24,29.6-30.39,29.97-57.1"/>
	<path class="st0" d="M521.36,528.04"/>
	<path class="st24" d="M840.3,472.82c20.14-17.08-9.22-130.54-91.47-173.31c-78.24-40.69-186.38-7.98-229.88,61.38
		c-25.03,39.91-32.95,98.23-13.24,110.73c34.71,21.99,150.47-100.99,164.28-87.26c5.99,5.96-13.38,31.48-5.42,39.12
		c8.44,8.08,31.2-19.5,59.58-15.04c28.04,4.4,29.11,34.98,71.01,55.36C806.6,469.36,830.61,481.04,840.3,472.82z"/>
	<g>
		<g>
			<path class="st2" d="M649.4,383.92c0.94-4.39,1.4-8.89,1.36-13.38c-0.01-1.29-1.55-2.36-2.72-1.56
				c-4.1,2.83-7.85,6.14-11.12,9.91c-0.64,0.73-0.72,1.83,0,2.55c0.65,0.65,1.91,0.73,2.55,0c3.07-3.53,6.55-6.68,10.39-9.34
				c-0.9-0.52-1.81-1.04-2.72-1.56c0.05,4.18-0.36,8.34-1.23,12.43c-0.2,0.95,0.28,1.95,1.26,2.23
				C648.07,385.42,649.19,384.88,649.4,383.92L649.4,383.92z"/>
		</g>
	</g>
	<g>
		<path class="st2" d="M718.07,404.34c-0.89,0.01-1.01-8.82-3.74-26.29c-1.71-10.99-3.57-19.99-4.93-26.09
			c3.27,5.48,7.38,13.83,9.34,24.58C721.38,390.98,719.17,404.32,718.07,404.34z"/>
		<g>
			<path class="st2" d="M718.07,402.53c0.46,0.05,1.26,0.65,1.35,0.71c0.02,0.01,0.11,0.45,0.08,0.18c-0.02-0.23-0.12-0.47-0.17-0.7
				c-0.19-0.91-0.2-1.26-0.31-2.12c-0.34-2.8-0.61-5.62-0.95-8.44c-1.11-9.4-2.55-18.75-4.32-28.04c-0.81-4.22-1.67-8.45-2.61-12.65
				c-1.1,0.47-2.2,0.93-3.3,1.4c4.99,8.4,8.38,17.69,9.68,27.39c0.7,5.22,0.85,10.54,0.47,15.79c-0.12,1.71-0.3,3.43-0.64,5.12
				c-0.12,0.57-0.25,1.13-0.42,1.68c-0.12,0.39-0.12,0.14-0.07,0.23c-0.02,0.06-0.06,0.12-0.1,0.17c0.19-0.32,0.47-0.53,0.84-0.65
				c-2.29,0.4-1.31,3.89,0.96,3.48c1.84-0.32,2.18-3.36,2.43-4.77c0.63-3.62,0.82-7.32,0.81-10.98c-0.04-9.6-1.73-19.2-5.32-28.11
				c-1.55-3.86-3.39-7.59-5.51-11.17c-1.07-1.79-3.74-0.59-3.3,1.4c2.03,9.12,3.76,18.31,5.16,27.55
				c1.12,7.39,1.78,14.83,2.79,22.23c0.23,1.62,0.41,3.73,2.46,3.94C720.38,406.37,720.37,402.75,718.07,402.53z"/>
		</g>
	</g>
	<g>
		<g>
			<path class="st2" d="M845.84,473.95c0-4.24,0-8.46,0-12.7c0-0.97-0.83-1.81-1.81-1.81s-1.81,0.83-1.81,1.81c0,4.24,0,8.46,0,12.7
				c0,0.97,0.83,1.81,1.81,1.81S845.84,474.93,845.84,473.95L845.84,473.95z"/>
		</g>
	</g>
	<g>
		<g>
			<path class="st2" d="M568.07,287.66c10.89-0.79,21.87-0.41,32.66,1.23c2.27,0.35,3.25-3.13,0.96-3.48
				c-11.13-1.68-22.39-2.18-33.63-1.36C565.76,284.21,565.75,287.82,568.07,287.66L568.07,287.66z"/>
		</g>
	</g>
	<g>
		<g>
			<path class="st2" d="M698.97,337.17c-2.02-4.18-5.79-7.37-10.16-8.83c-0.89-0.3-2.01,0.35-2.23,1.26c-0.23,1,0.3,1.9,1.26,2.23
				c0.24,0.08,0.48,0.17,0.71,0.25c0.19,0.07,0.24,0.07,0.01,0c0.12,0.04,0.26,0.11,0.37,0.17c0.46,0.22,0.91,0.45,1.35,0.7
				c0.42,0.24,0.82,0.51,1.22,0.79c0.1,0.07,0.18,0.13,0.28,0.2c0.37,0.28-0.29-0.24,0.07,0.06c0.19,0.16,0.39,0.32,0.58,0.49
				c0.36,0.32,0.71,0.66,1.04,1.01c0.17,0.18,0.34,0.37,0.51,0.57c0.07,0.08,0.14,0.18,0.22,0.26c0.05,0.06,0.36,0.4,0.06,0.07
				c0.66,0.71,1.16,1.72,1.58,2.59c0.41,0.85,1.7,1.14,2.47,0.65C699.2,339.07,699.4,338.07,698.97,337.17L698.97,337.17z"/>
		</g>
	</g>
	<g>
		<g>
			<path class="st2" d="M797.88,336.81c9.92,17.5,18.7,35.61,26.27,54.24c0.87,2.13,4.36,1.19,3.48-0.96
				c-7.68-18.92-16.56-37.33-26.63-55.11C799.85,332.97,796.72,334.79,797.88,336.81L797.88,336.81z"/>
		</g>
	</g>
	<g>
		<g>
			<path class="st2" d="M501.11,409.83c0.66-4.85,2.61-9.29,4.65-13.7c2.13-4.62,4.33-9.22,6.6-13.78
				c4.48-9.04,9.2-17.96,14.14-26.75c1.14-2.02-1.97-3.85-3.12-1.82c-5.04,8.95-9.85,18.05-14.41,27.27
				c-2.25,4.56-4.45,9.16-6.58,13.79c-2.07,4.5-4.09,9.09-4.77,14.05c-0.13,0.97,0.24,1.93,1.26,2.23
				C499.72,411.33,500.97,410.79,501.11,409.83L501.11,409.83z"/>
		</g>
	</g>
	<path class="st26" d="M492.48,502.91c-1.42,4.53-3.68,13.91-1.2,25.27c1.66,7.63,4.85,13.34,7.22,16.85"/>
	<path class="st26" d="M854.87,501.49c1.42,4.53,3.68,13.91,1.2,25.27c-1.66,7.63-4.85,13.34-7.22,16.85"/>
	<line class="st26" x1="681.43" y1="522.17" x2="665.79" y2="531.8"/>
	<line class="st26" x1="682.64" y1="528.19" x2="657.36" y2="543.83"/>
	<line class="st26" x1="688.66" y1="531.8" x2="656.16" y2="552.26"/>
	<line class="st26" x1="691.06" y1="539.02" x2="657.36" y2="559.48"/>
	<line class="st26" x1="694.67" y1="543.83" x2="659.77" y2="564.29"/>
	<path class="st30" d="M674.21,575.73c-0.2,4.81-0.4,9.63-0.6,14.44c-2.2-2.01-4.42-4.01-6.62-6.02"/>
	<g>
		<g>
			<path class="st23" d="M560.99,562.84c-0.73,0.99-1.47,1.96-2.2,2.95c-0.13,0.2-0.2,0.43-0.22,0.67
				c-0.05,0.24-0.05,0.48,0.04,0.72c0.12,0.42,0.43,0.88,0.83,1.08c0.42,0.22,0.93,0.34,1.4,0.18c0.14-0.06,0.29-0.12,0.43-0.18
				c0.28-0.16,0.48-0.37,0.65-0.65c0.73-0.99,1.47-1.96,2.2-2.95c0.13-0.2,0.2-0.43,0.22-0.67c0.05-0.24,0.05-0.48-0.04-0.72
				c-0.12-0.42-0.43-0.88-0.83-1.08c-0.42-0.22-0.93-0.34-1.4-0.18c-0.14,0.06-0.29,0.12-0.43,0.18
				C561.37,562.34,561.15,562.56,560.99,562.84L560.99,562.84z"/>
		</g>
	</g>
	<g>
		<g>
			<path class="st23" d="M565.75,566.12c-0.24,0.37-0.49,0.73-0.73,1.11c-0.13,0.2-0.2,0.43-0.22,0.67
				c-0.05,0.24-0.05,0.48,0.04,0.72c0.06,0.24,0.17,0.45,0.32,0.61c0.13,0.19,0.3,0.35,0.51,0.47c0.14,0.06,0.29,0.12,0.43,0.18
				c0.32,0.08,0.64,0.08,0.96,0c0.14-0.06,0.29-0.12,0.43-0.18c0.28-0.16,0.48-0.37,0.65-0.65c0.24-0.37,0.49-0.73,0.73-1.11
				c0.13-0.2,0.2-0.43,0.22-0.67c0.05-0.24,0.05-0.48-0.04-0.72c-0.06-0.24-0.17-0.45-0.32-0.61c-0.13-0.19-0.3-0.35-0.51-0.47
				c-0.14-0.06-0.29-0.12-0.43-0.18c-0.32-0.08-0.64-0.08-0.96,0c-0.14,0.06-0.29,0.12-0.43,0.18
				C566.12,565.64,565.91,565.86,565.75,566.12L565.75,566.12z"/>
		</g>
	</g>
	<g>
		<g>
			<path class="st23" d="M769.74,565.94c0,0.61,0,1.23,0,1.84c-0.01,0.25,0.05,0.48,0.16,0.7c0.07,0.23,0.19,0.42,0.37,0.58
				c0.17,0.18,0.36,0.3,0.58,0.37c0.22,0.11,0.45,0.17,0.7,0.16c0.16-0.02,0.32-0.05,0.48-0.06c0.3-0.08,0.57-0.24,0.79-0.47
				c0.32-0.35,0.53-0.78,0.53-1.28c0-0.61,0-1.23,0-1.84c0.01-0.25-0.05-0.48-0.16-0.7c-0.07-0.23-0.19-0.42-0.37-0.58
				c-0.17-0.18-0.36-0.3-0.58-0.37c-0.22-0.11-0.45-0.17-0.7-0.16c-0.16,0.02-0.33,0.05-0.48,0.06c-0.3,0.08-0.57,0.24-0.79,0.47
				C769.94,565.01,769.74,565.45,769.74,565.94L769.74,565.94z"/>
		</g>
	</g>
	<g>
		<g>
			<path class="st23" d="M775.21,564.51c0.01,0.01,0.02,0.04,0.05,0.05c-0.1-0.12-0.19-0.24-0.28-0.36
				c0.29,0.39,0.53,0.79,0.72,1.24c-0.06-0.14-0.12-0.29-0.18-0.43c0.2,0.48,0.34,0.99,0.41,1.52c-0.02-0.16-0.05-0.32-0.06-0.48
				c0.06,0.46,0.06,0.91,0.01,1.36c-0.05,0.43,0.24,0.99,0.53,1.28c0.31,0.31,0.83,0.55,1.28,0.53c0.47-0.02,0.95-0.17,1.28-0.53
				c0.1-0.12,0.19-0.24,0.28-0.36c0.17-0.28,0.24-0.59,0.24-0.91c0.1-0.9,0-1.84-0.25-2.71c-0.14-0.48-0.34-0.96-0.57-1.42
				c-0.24-0.48-0.57-0.89-0.89-1.31c-0.26-0.34-0.87-0.53-1.28-0.53c-0.45,0-0.97,0.19-1.28,0.53c-0.31,0.35-0.55,0.79-0.53,1.28
				c0.02,0.16,0.05,0.32,0.06,0.48C774.83,564.01,774.99,564.28,775.21,564.51L775.21,564.51z"/>
		</g>
	</g>
	<path class="st25" d="M656.16,388.57c-15.43,10.76-113.13,101.1-121.56,137.2c-2.41,6.02,11.55,37.76,13.24,37.31
		c0.1-0.02,0.13-0.13,0.14-0.18c0.79-3.15-66.06-22.19-53.1-110.55"/>
	<path class="st0" d="M742.81,711.12"/>
	<g>
		<path class="st38" d="M709.49,545.76c-2.85-4.96-2.56-9.86-2.32-13.88c0.11-1.82,0.79-13.44,8.12-20.35
			c13.93-13.13,54.71-12.01,69.66,6.48c6.72,8.3,9.27,21.42,1.16,31.46c-11.16,13.82-34.88,12.38-40.64,12.02
			C742.29,561.29,717.4,559.5,709.49,545.76z"/>
		<path class="st39" d="M790.68,551.47c0.45-2.96,3.25-23.66-12.04-37.49c-18.82-17.03-53.86-13.47-67.4,2.2
			c-3.49,4.04-5.18,8.45-6.02,12.13"/>
		<circle class="st27" cx="741.64" cy="530.71" r="14.74"/>
		<circle class="st38" cx="748.58" cy="526.33" r="5.73"/>
		<path class="st38" d="M634.3,544.05c2.85-4.96,2.56-9.86,2.32-13.88c-0.11-1.82-0.79-13.44-8.12-20.35
			c-13.93-13.13-54.71-12.01-69.66,6.48c-6.72,8.3-9.27,21.42-1.16,31.46c11.16,13.82,34.88,12.38,40.64,12.02
			C601.51,559.59,626.4,557.8,634.3,544.05z"/>
		<circle class="st27" cx="602.16" cy="529" r="14.74"/>
		<circle class="st38" cx="609.65" cy="524.63" r="5.73"/>
		<path class="st0" d="M561.39,551.55c3.65,1.82,34.46,16.6,60.18,1.2c6.34-3.79,11.02-8.62,14.44-13.24"/>
		<path class="st37" d="M620.98,484.08c-28.68-0.9-55.15,3.77-78.23,16.85"/>
		<path class="st37" d="M719.72,484.05c28.68-0.9,55.15,3.77,78.23,16.85"/>
		<path class="st39" d="M552.2,548.13c-0.45-2.96-3.25-23.66,12.04-37.49c18.82-17.03,53.86-13.47,67.4,2.2
			c3.49,4.04,5.18,8.45,6.02,12.13"/>
		<path class="st0" d="M782.54,553.86c-3.65,1.82-34.46,16.6-60.18,1.2c-6.34-3.79-11.02-8.62-14.44-13.24"/>
	</g>
	<path class="st29" d="M726.4,631.05l-99.79,1.87c-9.57,1.84,14.38,35.49,57.77,30.32c30.09-3.59,48.68-28.22,44.06-31.68
		C727.83,631.11,726.4,631.05,726.4,631.05z"/>
</g>
<g>
	<path class="st13" d="M1629.27,2966.24c0,0-11.42,57.04-7.22,119.15c3.98,59,26.72,108.79,30.09,144.43
		c1.49,30.55,1.37,58.99-4.81,79.43c-9.74,6.16-38.47,22.55-77.65,19.77c-31.15-2.21-53.31-15.42-63.16-22.18
		c-1.88-7.73-4.16-19.39-4.81-33.7c-1.08-23.93,3.07-41,9.63-68.6c3.6-15.14,9.45-39.93,18.05-77.03
		c2.13-53.8,0.58-105.78-6.02-155.26C1556.46,2979.45,1592.13,2975.94,1629.27,2966.24z"/>
	<path class="st14" d="M1635.29,3240.65c-31.46-35.42-104.71-24.07-116.74,1.2"/>
	<path class="st14" d="M1502.9,3286.38c49.33,22.15,98.68,22.73,148.04,1.2"/>
	<path class="st13" d="M1753.24,2966.24c1.78,25.58,3.14,52.07,3.95,79.45c0.67,22.66,0.94,44.74,0.87,66.18
		c-9.27,39.13-18.53,78.24-27.79,117.37c0,0-1.37,58.99,4.81,79.43c9.74,6.16,38.47,22.55,77.65,19.77
		c31.15-2.21,53.31-15.42,63.16-22.18c1.88-7.73,4.16-19.39,4.81-33.7c1.08-23.93-3.07-41-9.63-68.6
		c-3.6-15.14-9.45-39.93-18.05-77.03c-0.64-25.44-0.77-51.88-0.26-79.25c0.59-31.64,1.99-62.04,3.98-91.07
		c-7.78,5.43-24.87,15.81-49.14,18.39C1781.8,2977.73,1761.89,2970.15,1753.24,2966.24z"/>
	<path class="st14" d="M1747.11,3240.07c31.46-35.42,104.71-24.07,116.74,1.2"/>
	<path class="st14" d="M1879.5,3285.8c-49.33,22.15-98.68,22.74-148.04,1.2"/>
	<g>
		<path class="st43" d="M1618.5,3136.14c2.84,19.27,6.48,38.42,10.92,57.37"/>
		<g>
			<path class="st44" d="M1613.28,3137.59c2.84,19.27,6.49,38.41,10.92,57.37c0.65,2.76,3.96,4.66,6.67,3.78
				c2.89-0.94,4.48-3.71,3.78-6.67c-4.43-18.97-8.06-38.1-10.92-57.37c-0.42-2.82-4.12-4.61-6.67-3.78
				C1613.99,3131.92,1612.83,3134.58,1613.28,3137.59L1613.28,3137.59z"/>
		</g>
	</g>
	<g>
		<path class="st38" d="M1842.46,3141.74c6.51,19.41,13.02,38.84,19.53,58.25"/>
		<g>
			<path class="st44" d="M1837.23,3143.17c6.51,19.41,13.02,38.84,19.53,58.25c0.9,2.68,3.77,4.72,6.67,3.78
				c2.67-0.87,4.74-3.79,3.78-6.67c-6.51-19.41-13.02-38.84-19.53-58.25c-0.9-2.68-3.77-4.72-6.67-3.78
				C1838.35,3137.37,1836.27,3140.29,1837.23,3143.17L1837.23,3143.17z"/>
		</g>
	</g>
	<g>
		<path class="st38" d="M1587.91,3231.6c8.18,2.71,15.94,6.67,22.92,11.71"/>
		<g>
			<path class="st44" d="M1586.46,3236.82c1.04,0.35,2.07,0.71,3.09,1.1c0.52,0.19,1.02,0.39,1.53,0.59c0.25,0.1,1.96,0.78,0.6,0.23
				c1.9,0.77,3.76,1.67,5.57,2.61c3.77,1.94,7.39,4.16,10.83,6.64c2.31,1.66,6.13,0.48,7.41-1.94c1.48-2.8,0.52-5.63-1.94-7.41
				c-7.38-5.31-15.59-9.39-24.22-12.26c-2.7-0.89-6.04,1.03-6.67,3.78C1582,3233.14,1583.59,3235.86,1586.46,3236.82
				L1586.46,3236.82z"/>
		</g>
	</g>
	<g>
		<path class="st38" d="M1814.02,3235.17c11.52,0.07,22.98,4.21,31.88,11.51"/>
		<g>
			<path class="st44" d="M1814.02,3240.59c1.36,0.01,2.71,0.07,4.06,0.19c0.34,0.02,0.67,0.07,1.01,0.1c0.46,0.05,0.64,0.07,0.07,0
				c0.67,0.08,1.34,0.2,2.01,0.32c2.74,0.49,5.46,1.22,8.09,2.15c0.64,0.23,1.26,0.49,1.9,0.72c0.82,0.29-0.67-0.31,0.11,0.04
				c0.31,0.13,0.61,0.28,0.93,0.41c1.23,0.57,2.44,1.18,3.62,1.84c1.18,0.66,2.33,1.37,3.47,2.12c0.57,0.37,1.12,0.76,1.66,1.17
				c0.07,0.05,0.88,0.65,0.47,0.34c-0.45-0.35,0.67,0.54,0.65,0.52c2.2,1.78,5.54,2.31,7.65,0c1.82-1.97,2.35-5.75,0-7.65
				c-10.15-8.23-22.6-12.94-35.71-13.09c-2.83-0.04-5.55,2.52-5.42,5.42C1808.73,3238.13,1810.97,3240.55,1814.02,3240.59
				L1814.02,3240.59z"/>
		</g>
	</g>
</g>
</svg>
