<?xml version="1.0" encoding="utf-8"?>
<!-- Generator: Adobe Illustrator 28.3.0, SVG Export Plug-In . SVG Version: 6.00 Build 0)  -->
<svg version="1.1" id="Layer_1" xmlns="http://www.w3.org/2000/svg" xmlns:xlink="http://www.w3.org/1999/xlink" x="0px" y="0px"
	 viewBox="0 0 853.12 1856.78" style="enable-background:new 0 0 853.12 1856.78;" xml:space="preserve">
<style type="text/css">
	.st0{fill:#1F2822;stroke:#010101;stroke-miterlimit:10;}
	.st1{fill:none;stroke:#010101;stroke-miterlimit:10;}
	.st2{fill:#303F69;}
	.st3{fill:#303F69;stroke:#010101;stroke-miterlimit:10;}
	.st4{fill:#27345B;}
	.st5{fill:#27345B;stroke:#27345B;stroke-miterlimit:10;}
	.st6{fill:#25292E;}
	.st7{fill:#FEE3CB;stroke:#010101;stroke-miterlimit:10;}
	.st8{fill:#FAB895;}
	.st9{fill:#332C26;}
	.st10{fill:#332C26;stroke:#010101;stroke-miterlimit:10;}
	.st11{fill:#010101;}
	.st12{fill:none;stroke:#FAB895;stroke-miterlimit:10;}
	.st13{fill:#FAB895;stroke:#010101;stroke-width:0.5;stroke-miterlimit:10;}
	.st14{fill:#FFFFFF;}
	.st15{fill:none;stroke:#010101;stroke-width:4;stroke-miterlimit:10;}
	.st16{fill:#010101;stroke:#010101;stroke-miterlimit:10;}
	.st17{fill:none;stroke:#010101;stroke-width:3;stroke-miterlimit:10;}
	.st18{fill:#FFFFFF;stroke:#010101;stroke-miterlimit:10;}
	.st19{fill:#FAB895;stroke:#FAB895;stroke-miterlimit:10;}
	.st20{fill:#323549;stroke:#25292E;stroke-width:2;stroke-miterlimit:10;}
	.st21{fill:#323549;}
	.st22{fill:#323549;stroke:#25292E;stroke-width:5;stroke-miterlimit:10;}
	.st23{fill:#FEE3CB;}
	.st24{fill:#0F131F;stroke:#FFFFFF;stroke-miterlimit:10;}
	.st25{fill:none;stroke:#FFFFFF;stroke-miterlimit:10;}
	.st26{fill:#144A5B;}
	.st27{fill:#332C16;}
	.st28{fill:#436747;}
	.st29{fill:#436747;stroke:#010101;stroke-miterlimit:10;}
	.st30{fill:#21392C;}
	.st31{fill:#21392C;stroke:#21392C;stroke-miterlimit:10;}
	.st32{fill:none;stroke:#21392C;stroke-miterlimit:10;}
	.st33{fill:#436747;stroke:#010101;stroke-width:2;stroke-miterlimit:10;}
	.st34{fill:#0F131F;}
	.st35{fill:#EF3F5B;}
	.st36{fill:#8EA2A9;}
	.st37{fill:#314E38;stroke:#010101;stroke-miterlimit:10;}
	.st38{fill:#5A7591;}
	.st39{fill:#010101;stroke:#010101;stroke-width:5;stroke-miterlimit:10;}
	.st40{fill:#5D7178;stroke:#010101;stroke-miterlimit:10;}
	.st41{fill:none;stroke:#21392C;stroke-width:3;stroke-miterlimit:10;}
	.st42{opacity:0.5;fill:#231F20;stroke:#010101;stroke-width:3;stroke-miterlimit:10;enable-background:new    ;}
	.st43{fill:none;stroke:#010101;stroke-width:7;stroke-miterlimit:10;}
	.st44{fill:#231F20;stroke:#010101;stroke-width:3;stroke-miterlimit:10;}
</style>
<g>
	<path class="st0" d="M1240.11,1884.24c0,0-9.49,47.39-6,99c3.31,49.02,22.2,90.39,25,120c1.24,25.38,1.14,49.01-4,66
		c-8.09,5.12-31.96,18.74-64.52,16.43c-25.88-1.84-44.29-12.81-52.48-18.43c-1.56-6.42-3.46-16.11-4-28c-0.9-19.88,2.55-34.07,8-57
		c2.99-12.58,7.85-33.18,15-64c1.77-44.7,0.48-87.89-5-129C1179.61,1895.21,1209.25,1892.29,1240.11,1884.24z"/>
	<path class="st1" d="M1245.11,2112.24c-26.14-29.43-87-20-97,1"/>
	<path class="st1" d="M1135.11,2150.24c40.99,18.4,81.99,18.89,123,1"/>
	<path class="st0" d="M1346.11,1879.24c1.48,21.25,2.61,43.26,3.28,66.01c0.56,18.83,0.78,37.17,0.72,54.99
		c-7.7,32.51-15.4,65.01-23.09,97.52c0,0-1.14,49.01,4,66c8.09,5.12,31.96,18.74,64.52,16.43c25.88-1.84,44.29-12.81,52.48-18.43
		c1.56-6.42,3.46-16.11,4-28c0.9-19.88-2.55-34.07-8-57c-2.99-12.58-7.85-33.18-15-64c-0.53-21.14-0.64-43.11-0.22-65.85
		c0.49-26.29,1.65-51.55,3.31-75.67c-6.46,4.51-20.66,13.14-40.83,15.28C1369.83,1888.79,1353.3,1882.49,1346.11,1879.24z"/>
	<path class="st1" d="M1338.01,2111.76c26.14-29.43,87-20,97,1"/>
	<path class="st1" d="M1448.01,2149.76c-40.99,18.4-81.99,18.89-123,1"/>
</g>
<g>
	<path class="st1" d="M1246.75,1373.96"/>
	<g>
		<path class="st2" d="M1398.7,1011.71c1.96-4.29,6.31-15.17,1.38-22.05c-3.4-4.74-9.72-5.52-11.98-5.8
			c-54.87-6.94-12.26-12.05-90.68-13.56c-40.48-0.78-83.06-0.96-118.58,18.47c-1.8,0.98-3.64,2.08-4.69,3.84
			c-0.89,1.49-1.1,3.28-1.28,5.02c-3.14,30.51-3.29,61.33-0.43,91.87c0.78,8.37,1.82,16.83,4.83,24.68
			c4.34,11.31,12.51,20.66,20.51,29.75c3.94,4.47,8.06,9.08,13.52,11.46c6.31,2.74,13.48,2.14,20.35,2.42
			c10.01,0.41,19.83,2.81,29.79,3.85c9.96,1.05,20.5,0.62,29.29-4.19c5.89-3.23,10.6-8.21,15.19-13.11
			c13.19-14.04,26.4-28.12,38.09-43.43c4.17-5.47,8.16-11.11,12.94-16.05c5.42-5.6,11.8-10.25,16.83-16.21
			c6.23-7.37,10.11-16.39,13.9-25.26c3.64-8.52,8.12-20.32,11.8-35.05"/>
	</g>
	<path class="st3" d="M1403.08,996.66c4.6,14.24,9.07,29.14,13.31,44.68c5.8,21.27,10.65,41.76,14.69,61.32l-8,311
		c-1.73,30.57-3.07,77.67,1,135c8.37,117.88,2.71,204.13,2.71,204.13s-36.39,18.21-92-2c-4.9-52.71-9.8-105.42-14.71-158.13l0,0
		c-3.43-62.29-6.86-124.58-10.29-186.87c-8.24-81.71-16.47-163.42-24.71-245.13l0,0c-17.67-0.67-35.33-1.33-53-2"/>
	<path class="st3" d="M1171.08,995.66c-9,35.33-18,70.67-27,106c-0.47,103.5,5.73,207.29,10,311
		c-5.29,164.13-12.29,334.13-12.29,334.13s40.52,20.89,100,1c4.74-153.15,14.75-311.83,31.17-475.53
		c3.77-37.56,7.81-74.76,12.12-111.61c21.34-0.84,32.01-1.51,32-2c-0.01-0.74-24.68-1.08-74-1"/>
	<g>
		<path class="st4" d="M1302.53,1043.28c-2.48,35.13-4.97,70.25-7.45,105.38"/>
		<g>
			<path class="st4" d="M1301.03,1043.28c-1.93,27.34-3.87,54.68-5.8,82.02c-0.55,7.79-1.1,15.58-1.65,23.36
				c-0.14,1.93,2.86,1.92,3,0c1.93-27.34,3.87-54.68,5.8-82.02c0.55-7.79,1.1-15.58,1.65-23.36
				C1304.17,1041.35,1301.17,1041.36,1301.03,1043.28L1301.03,1043.28z"/>
		</g>
	</g>
	<g>
		<path class="st4" d="M1271.54,1046.14c-3.49,35.51-6.98,71.01-10.47,106.52"/>
		<g>
			<path class="st4" d="M1270.04,1046.14c-2.73,27.75-5.45,55.49-8.18,83.24c-0.76,7.76-1.53,15.52-2.29,23.29
				c-0.19,1.92,2.81,1.91,3,0c2.73-27.75,5.45-55.49,8.18-83.24c0.76-7.76,1.53-15.52,2.29-23.29
				C1273.23,1044.22,1270.23,1044.23,1270.04,1046.14L1270.04,1046.14z"/>
		</g>
	</g>
	<g>
		<path class="st4" d="M1195.36,1052.92c-0.95,11.6-1.9,23.2-2.86,34.79c-0.13,1.56-0.27,3.16-0.92,4.59
			c-1.24,2.72-3.46,4.14-4.01,4.51c-3.49,2.39-16.83,15.24-37.5,35.85"/>
		<g>
			<path class="st4" d="M1193.86,1052.92c-0.73,8.95-1.47,17.89-2.2,26.84c-0.18,2.24-0.37,4.47-0.55,6.71
				c-0.16,1.96-0.19,4.02-1.18,5.78c-0.9,1.61-2.25,2.6-3.68,3.68c-2.43,1.84-4.66,3.96-6.89,6.04c-3.92,3.65-7.76,7.37-11.59,11.11
				c-6.29,6.13-12.52,12.32-18.74,18.52c-1.37,1.36,0.75,3.49,2.12,2.12c9.75-9.72,19.5-19.48,29.55-28.89
				c2.33-2.18,4.66-4.42,7.18-6.39c-0.32,0.25,0.13-0.1,0.25-0.18c0.2-0.14,0.4-0.27,0.6-0.41c1.08-0.77,2.05-1.64,2.87-2.69
				c2.55-3.28,2.42-7.46,2.75-11.41c0.84-10.27,1.69-20.54,2.53-30.82C1197.01,1051,1194.01,1051.01,1193.86,1052.92
				L1193.86,1052.92z"/>
		</g>
	</g>
	<g>
		<path class="st4" d="M1372.72,1043.97c-0.05,8.17-0.09,16.34-0.14,24.51c-0.01,1.35,0.03,2.82,0.88,3.86
			c0.69,0.84,1.77,1.22,2.79,1.57c12.15,4.1,24.29,8.21,36.44,12.31"/>
		<g>
			<path class="st4" d="M1371.22,1043.97c-0.03,4.82-0.05,9.64-0.08,14.46c-0.01,2.45-0.03,4.9-0.04,7.35
				c-0.01,1.94-0.28,4.15,0.39,6.02c0.68,1.88,2.24,2.79,4.03,3.43c2.31,0.83,4.65,1.57,6.97,2.36c4.65,1.57,9.31,3.14,13.96,4.72
				c5.28,1.79,10.57,3.57,15.85,5.36c1.83,0.62,2.62-2.28,0.8-2.89c-8.76-2.96-17.51-5.92-26.27-8.87
				c-2.13-0.72-4.26-1.44-6.39-2.16c-1.1-0.37-2.21-0.75-3.31-1.12c-0.77-0.26-1.76-0.48-2.36-1.08c-1.21-1.2-0.68-3.99-0.67-5.52
				c0.01-2.21,0.03-4.41,0.04-6.62c0.03-5.15,0.06-10.3,0.09-15.44C1374.23,1042.04,1371.23,1042.03,1371.22,1043.97
				L1371.22,1043.97z"/>
		</g>
	</g>
	<path class="st5" d="M1162.08,1170.66c-2.46,55.32,2.87,127.32,16,216"/>
	<path class="st5" d="M1181.08,1455.66c-6.28,42.67-9.62,85.33-10,128"/>
	<g>
		<path class="st4" d="M1406.08,1177.66c-0.67,92.67-1.33,185.33-2,278"/>
		<path class="st4" d="M1406.13,1177.66c-0.03,90.33-0.87,187.61-2,278h-0.11C1404.31,1365.31,1404.55,1267.72,1406.13,1177.66
			L1406.13,1177.66z"/>
	</g>
	<path class="st5" d="M1410.08,1495.66c-3.38,36.31-6.95,69.93-11,97c-11.19,15.69-26.03,22.69-42,27"/>
	<g>
		<g>
			<path class="st6" d="M1224.5,1024.34c5.7,5.58,10.65,11.97,15.81,18.05c5.44,6.41,10.88,12.81,16.32,19.22
				c3.07,3.62,6.14,7.23,9.21,10.85c1.25,1.47,3.36-0.66,2.12-2.12c-10.83-12.75-21.66-25.5-32.49-38.25
				c-2.86-3.37-5.7-6.77-8.86-9.86C1225.24,1020.87,1223.12,1022.98,1224.5,1024.34L1224.5,1024.34z"/>
		</g>
	</g>
</g>
<path class="st1" d="M100.77-0.55L100.77-0.55L100.77-0.55z"/>
<g>
	<path class="st7" d="M1310.52-41.76c2.63,23.55-6,13-8,90c-2.94,9.27-8.97,25.81-22,43c-10.02,13.22-18.65,24.6-30,25
		c-18.93,0.66-33.56-29.65-40-43c-13.52-28-6-64-11-106C1220.56-59,1268.2-65.67,1310.52-41.76z"/>
	<g>
		<path class="st8" d="M1202.02-33.26c11.99-6.42,36.45-17.3,68.33-16.11c16.83,0.63,30.72,4.43,40.67,8.11c-2,15-4,30-6,45
			c0,0-23.03,18.75-36.31,22.96c-17.24,5.47-32.91,4.91-46.59,4.21c-8.43-0.43-15.37-1.39-20.1-2.18"/>
	</g>
	<path class="st9" d="M1399.52-150.76c5.54-8.08,19.24-30.37,20-60.38c1.13-44.78-26.96-90.63-65.69-110.21
		c-46.13-23.34-120.47-19.35-100.31-20.41c19-1,27.61-47.69,26-49c-1.54-1.25-23.69,27.21-41,42c-95-31-190.25,20.96-190,18
		c0.26-3.11,91.95-4.31,148.51,9.88c0.18,0.05,0.31,0.08,0.49,0.12c-11.66-5.32-27.47-9.8-45-7c-37.09,5.91-68.24,42.16-77,91
		c1.39,26.89,8.7,77.86,47,115C1199.19-47.41,1349.36-77.6,1399.52-150.76z"/>
	<path class="st7" d="M1097.52-159.76c-10.38,4.58-10.06,25.47-10,28c1.09,43.16,55.54,68.45,59,70c12.05,5.4,24.6,11.04,30,6
		c10.43-9.73-12.72-52.96-40-81C1127.12-146.42,1109.15-164.89,1097.52-159.76z"/>
	<path class="st7" d="M1400.94-159.32c10.38,4.58,10.06,25.47,10,28c-1.09,43.16-55.54,68.45-59,70c-12.05,5.4-24.6,11.04-30,6
		c-10.43-9.73,12.72-52.96,40-81C1371.34-145.98,1389.31-164.45,1400.94-159.32z"/>
	<path class="st7" d="M1123.52-174.76c3,48,28,110,28,110s9,45,99,83c15.38-5.65,63.48-25.54,97-78c21-54,31.35-104.69,30-121
		c-9.02-56.66-54.24-130.14-123-132C1182.29-314.71,1131.15-236.36,1123.52-174.76z"/>
	<path class="st10" d="M1229.52-243.76c-7,66-29,96-29,96s56-29,45-39c1.76,1.49-14,45-32,55c4.73,6.17,28.68-0.81,44-13
		c43.35-34.5,25.69-117.12,23-129"/>
	<path class="st10" d="M1260.52-257.76c14.01,28.85,62.09,68.06,100.58,100.55c6.89,5.82-1.42,24.24-12.58,42.45
		c3.27,3.09,12.2-1.57,14.1-2.56c14.74-7.68,24.59-25.25,24.9-47.44"/>
	<path class="st1" d="M1123.52-124.88"/>
	<path class="st9" d="M1388.52-170.76c16.73-14.19-7.66-108.46-76-144c-65.01-33.81-154.86-6.63-191,51
		c-20.8,33.16-27.38,81.62-11,92c28.84,18.27,125.02-83.91,136.5-72.5c4.98,4.95-11.12,26.16-4.5,32.5
		c7.01,6.71,25.92-16.2,49.5-12.5c23.3,3.66,24.19,29.06,59,46C1360.52-173.64,1380.47-163.93,1388.52-170.76z"/>
	<g>
		<g>
			<path class="st11" d="M1229.9-244.63c0.78-3.65,1.16-7.39,1.13-11.12c-0.01-1.07-1.29-1.96-2.26-1.3
				c-3.41,2.35-6.52,5.1-9.24,8.23c-0.53,0.61-0.6,1.52,0,2.12c0.54,0.54,1.59,0.61,2.12,0c2.55-2.93,5.44-5.55,8.63-7.76
				c-0.75-0.43-1.5-0.86-2.26-1.3c0.04,3.47-0.3,6.93-1.02,10.33c-0.17,0.79,0.23,1.62,1.05,1.85
				C1228.8-243.38,1229.73-243.83,1229.9-244.63L1229.9-244.63z"/>
		</g>
	</g>
	<g>
		<path class="st11" d="M1286.96-227.66c-0.74,0.01-0.84-7.33-3.11-21.84c-1.42-9.13-2.97-16.61-4.1-21.68
			c2.72,4.55,6.13,11.49,7.76,20.42C1289.71-238.76,1287.87-227.68,1286.96-227.66z"/>
		<g>
			<path class="st11" d="M1286.96-229.16c0.38,0.04,1.05,0.54,1.12,0.59c0.02,0.01,0.09,0.37,0.07,0.15
				c-0.02-0.19-0.1-0.39-0.14-0.58c-0.16-0.76-0.17-1.05-0.26-1.76c-0.28-2.33-0.51-4.67-0.79-7.01c-0.92-7.81-2.12-15.58-3.59-23.3
				c-0.67-3.51-1.39-7.02-2.17-10.51c-0.91,0.39-1.83,0.77-2.74,1.16c4.15,6.98,6.96,14.7,8.04,22.76
				c0.58,4.34,0.71,8.76,0.39,13.12c-0.1,1.42-0.25,2.85-0.53,4.25c-0.1,0.47-0.21,0.94-0.35,1.4c-0.1,0.32-0.1,0.12-0.06,0.19
				c-0.02,0.05-0.05,0.1-0.08,0.14c0.16-0.27,0.39-0.44,0.7-0.54c-1.9,0.33-1.09,3.23,0.8,2.89c1.53-0.27,1.81-2.79,2.02-3.96
				c0.52-3.01,0.68-6.08,0.67-9.12c-0.03-7.98-1.44-15.95-4.42-23.36c-1.29-3.21-2.82-6.31-4.58-9.28
				c-0.89-1.49-3.11-0.49-2.74,1.16c1.69,7.58,3.12,15.21,4.29,22.89c0.93,6.14,1.48,12.32,2.32,18.47c0.19,1.35,0.34,3.1,2.04,3.27
				C1288.88-225.97,1288.87-228.98,1286.96-229.16z"/>
		</g>
	</g>
	<g>
		<g>
			<path class="st11" d="M1393.12-169.82c0-3.52,0-7.03,0-10.55c0-0.81-0.69-1.5-1.5-1.5c-0.81,0-1.5,0.69-1.5,1.5
				c0,3.52,0,7.03,0,10.55c0,0.81,0.69,1.5,1.5,1.5C1392.43-168.32,1393.12-169.01,1393.12-169.82L1393.12-169.82z"/>
		</g>
	</g>
	<g>
		<g>
			<path class="st11" d="M1162.33-324.61c9.05-0.66,18.17-0.34,27.14,1.02c1.89,0.29,2.7-2.6,0.8-2.89
				c-9.25-1.4-18.6-1.81-27.94-1.13C1160.41-327.47,1160.4-324.47,1162.33-324.61L1162.33-324.61z"/>
		</g>
	</g>
	<g>
		<g>
			<path class="st11" d="M1271.09-283.47c-1.68-3.47-4.81-6.12-8.44-7.34c-0.74-0.25-1.67,0.29-1.85,1.05
				c-0.19,0.83,0.25,1.58,1.05,1.85c0.2,0.07,0.4,0.14,0.59,0.21c0.16,0.06,0.2,0.06,0.01,0c0.1,0.03,0.22,0.09,0.31,0.14
				c0.38,0.18,0.76,0.37,1.12,0.58c0.35,0.2,0.68,0.42,1.01,0.66c0.08,0.06,0.15,0.11,0.23,0.17c0.31,0.23-0.24-0.2,0.06,0.05
				c0.16,0.13,0.32,0.27,0.48,0.41c0.3,0.27,0.59,0.55,0.86,0.84c0.14,0.15,0.28,0.31,0.42,0.47c0.06,0.07,0.12,0.15,0.18,0.22
				c0.04,0.05,0.3,0.33,0.05,0.06c0.55,0.59,0.96,1.43,1.31,2.15c0.34,0.71,1.41,0.95,2.05,0.54
				C1271.28-281.89,1271.45-282.72,1271.09-283.47L1271.09-283.47z"/>
		</g>
	</g>
	<g>
		<g>
			<path class="st11" d="M1353.27-283.77c8.24,14.54,15.54,29.59,21.83,45.07c0.72,1.77,3.62,0.99,2.89-0.8
				c-6.38-15.72-13.76-31.02-22.13-45.79C1354.91-286.96,1352.31-285.45,1353.27-283.77L1353.27-283.77z"/>
		</g>
	</g>
	<g>
		<g>
			<path class="st11" d="M1106.69-223.1c0.55-4.03,2.17-7.72,3.86-11.38c1.77-3.84,3.6-7.66,5.48-11.45
				c3.72-7.51,7.64-14.92,11.75-22.23c0.95-1.68-1.64-3.2-2.59-1.51c-4.19,7.44-8.18,15-11.97,22.66c-1.87,3.79-3.7,7.61-5.47,11.46
				c-1.72,3.74-3.4,7.55-3.96,11.67c-0.11,0.81,0.2,1.6,1.05,1.85C1105.54-221.85,1106.58-222.3,1106.69-223.1L1106.69-223.1z"/>
		</g>
	</g>
	<path class="st12" d="M1099.52-145.76c-1.18,3.76-3.06,11.56-1,21c1.38,6.34,4.03,11.08,6,14"/>
	<path class="st12" d="M1400.62-146.94c1.18,3.76,3.06,11.56,1,21c-1.38,6.34-4.03,11.08-6,14"/>
	<line class="st12" x1="1256.52" y1="-129.76" x2="1243.52" y2="-121.76"/>
	<line class="st12" x1="1257.52" y1="-124.76" x2="1236.52" y2="-111.76"/>
	<line class="st12" x1="1262.52" y1="-121.76" x2="1235.52" y2="-104.76"/>
	<line class="st12" x1="1264.52" y1="-115.76" x2="1236.52" y2="-98.76"/>
	<line class="st12" x1="1267.52" y1="-111.76" x2="1238.52" y2="-94.76"/>
	<path class="st13" d="M1250.52-85.26c-0.17,4-0.33,8-0.5,12c-1.83-1.67-3.67-3.33-5.5-5"/>
	<g>
		<g>
			<path class="st8" d="M1156.45-95.97c-0.61,0.82-1.22,1.63-1.83,2.45c-0.11,0.17-0.17,0.36-0.18,0.56c-0.04,0.2-0.04,0.4,0.03,0.6
				c0.1,0.35,0.36,0.73,0.69,0.9c0.35,0.18,0.77,0.28,1.16,0.15c0.12-0.05,0.24-0.1,0.36-0.15c0.23-0.13,0.4-0.31,0.54-0.54
				c0.61-0.82,1.22-1.63,1.83-2.45c0.11-0.17,0.17-0.36,0.18-0.56c0.04-0.2,0.04-0.4-0.03-0.6c-0.1-0.35-0.36-0.73-0.69-0.9
				c-0.35-0.18-0.77-0.28-1.16-0.15c-0.12,0.05-0.24,0.1-0.36,0.15C1156.76-96.38,1156.58-96.2,1156.45-95.97L1156.45-95.97z"/>
		</g>
	</g>
	<g>
		<g>
			<path class="st8" d="M1160.4-93.24c-0.2,0.31-0.41,0.61-0.61,0.92c-0.11,0.17-0.17,0.36-0.18,0.56c-0.04,0.2-0.04,0.4,0.03,0.6
				c0.05,0.2,0.14,0.37,0.27,0.51c0.11,0.16,0.25,0.29,0.42,0.39c0.12,0.05,0.24,0.1,0.36,0.15c0.27,0.07,0.53,0.07,0.8,0
				c0.12-0.05,0.24-0.1,0.36-0.15c0.23-0.13,0.4-0.31,0.54-0.54c0.2-0.31,0.41-0.61,0.61-0.92c0.11-0.17,0.17-0.36,0.18-0.56
				c0.04-0.2,0.04-0.4-0.03-0.6c-0.05-0.2-0.14-0.37-0.27-0.51c-0.11-0.16-0.25-0.29-0.42-0.39c-0.12-0.05-0.24-0.1-0.36-0.15
				c-0.27-0.07-0.53-0.07-0.8,0c-0.12,0.05-0.24,0.1-0.36,0.15C1160.71-93.64,1160.53-93.46,1160.4-93.24L1160.4-93.24z"/>
		</g>
	</g>
	<g>
		<g>
			<path class="st8" d="M1329.89-93.39c0,0.51,0,1.02,0,1.53c-0.01,0.21,0.04,0.4,0.13,0.58c0.06,0.19,0.16,0.35,0.31,0.48
				c0.14,0.15,0.3,0.25,0.48,0.31c0.18,0.09,0.37,0.14,0.58,0.13c0.13-0.02,0.27-0.04,0.4-0.05c0.25-0.07,0.47-0.2,0.66-0.39
				c0.27-0.29,0.44-0.65,0.44-1.06c0-0.51,0-1.02,0-1.53c0.01-0.21-0.04-0.4-0.13-0.58c-0.06-0.19-0.16-0.35-0.31-0.48
				c-0.14-0.15-0.3-0.25-0.48-0.31c-0.18-0.09-0.37-0.14-0.58-0.13c-0.13,0.02-0.27,0.04-0.4,0.05c-0.25,0.07-0.47,0.2-0.66,0.39
				C1330.06-94.16,1329.89-93.8,1329.89-93.39L1329.89-93.39z"/>
		</g>
	</g>
	<g>
		<g>
			<path class="st8" d="M1334.44-94.58c0.01,0.01,0.02,0.03,0.04,0.04c-0.08-0.1-0.16-0.2-0.23-0.3c0.24,0.32,0.44,0.66,0.6,1.03
				c-0.05-0.12-0.1-0.24-0.15-0.36c0.17,0.4,0.28,0.82,0.34,1.26c-0.02-0.13-0.04-0.27-0.05-0.4c0.05,0.38,0.05,0.76,0.01,1.13
				c-0.04,0.36,0.2,0.82,0.44,1.06c0.26,0.26,0.69,0.46,1.06,0.44c0.39-0.02,0.79-0.14,1.06-0.44c0.08-0.1,0.16-0.2,0.23-0.3
				c0.14-0.23,0.2-0.49,0.2-0.76c0.08-0.75,0-1.53-0.21-2.25c-0.12-0.4-0.28-0.8-0.47-1.18c-0.2-0.4-0.47-0.74-0.74-1.09
				c-0.22-0.28-0.72-0.44-1.06-0.44c-0.37,0-0.81,0.16-1.06,0.44c-0.26,0.29-0.46,0.66-0.44,1.06c0.02,0.13,0.04,0.27,0.05,0.4
				C1334.12-94.99,1334.25-94.77,1334.44-94.58L1334.44-94.58z"/>
		</g>
	</g>
	<path class="st10" d="M1235.52-240.76c-12.82,8.94-94,84-101,114c-2,5,9.6,31.37,11,31c0.08-0.02,0.11-0.11,0.12-0.15
		c0.66-2.62-54.89-18.44-44.12-91.85"/>
	<path class="st1" d="M1307.52,27.24"/>
	<g>
		<path class="st14" d="M1279.83-110.16c-2.37-4.12-2.13-8.19-1.93-11.53c0.09-1.51,0.66-11.17,6.75-16.91
			c11.57-10.91,45.46-9.98,57.88,5.38c5.58,6.9,7.7,17.8,0.96,26.14c-9.27,11.48-28.98,10.29-33.77,9.99
			C1307.08-97.25,1286.4-98.74,1279.83-110.16z"/>
		<path class="st15" d="M1347.29-105.41c0.37-2.46,2.7-19.66-10-31.15c-15.64-14.15-44.75-11.19-56,1.83c-2.9,3.36-4.3,7.02-5,10.08
			"/>
		<circle class="st16" cx="1306.54" cy="-122.66" r="12.25"/>
		<circle class="st14" cx="1312.31" cy="-126.3" r="4.76"/>
		<path class="st14" d="M1217.36-111.58c2.37-4.12,2.13-8.19,1.93-11.53c-0.09-1.51-0.66-11.17-6.75-16.91
			c-11.57-10.91-45.46-9.98-57.88,5.38c-5.58,6.9-7.7,17.8-0.96,26.14c9.27,11.48,28.98,10.29,33.77,9.99
			C1190.11-98.67,1210.79-100.15,1217.36-111.58z"/>
		<circle class="st16" cx="1190.65" cy="-124.08" r="12.25"/>
		<circle class="st14" cx="1196.88" cy="-127.71" r="4.76"/>
		<path class="st1" d="M1156.78-105.35c3.03,1.51,28.63,13.79,50,1c5.27-3.15,9.16-7.16,12-11"/>
		<path class="st17" d="M1206.29-161.41c-23.83-0.75-45.82,3.13-65,14"/>
		<path class="st17" d="M1288.33-161.43c23.83-0.75,45.82,3.13,65,14"/>
		<path class="st15" d="M1149.14-108.19c-0.37-2.46-2.7-19.66,10-31.15c15.64-14.15,44.75-11.19,56,1.83c2.9,3.36,4.3,7.02,5,10.08"
			/>
		<path class="st1" d="M1340.53-103.43c-3.03,1.51-28.63,13.79-50,1c-5.27-3.15-9.16-7.16-12-11"/>
	</g>
	<path class="st18" d="M1293.88-39.29l-82.91,1.55c-7.95,1.53,11.95,29.49,48,25.19c25-2.98,40.45-23.45,36.61-26.32
		C1295.07-39.24,1293.88-39.29,1293.88-39.29z"/>
</g>
<g>
	<path class="st7" d="M1068.07,283.97c-21.67,94.67-43.33,189.33-65,284c11.33,21.67,22.67,43.33,34,65c31-106.67,62-213.33,93-320
		C1109.4,303.3,1088.73,293.64,1068.07,283.97z"/>
	<path class="st7" d="M1431.97,286.45c21.67,94.67,43.33,189.33,65,284c-11.33,21.67-22.67,43.33-34,65c-31-106.67-62-213.33-93-320
		C1390.64,305.79,1411.3,296.12,1431.97,286.45z"/>
	<path class="st19" d="M1038.07,393.97c19.67,11.33,39.33,22.67,59,34c22.77-89.04-7.69-131.99-27-132
		C1060.71,295.97,1050.05,328.26,1038.07,393.97z"/>
	<path class="st19" d="M1456.61,379.82c-19.67,11.33-39.33,22.67-59,34c-22.77-89.04,7.69-131.99,27-132
		C1433.97,281.82,1444.63,314.12,1456.61,379.82z"/>
	<path class="st20" d="M1201.07,153.97c4.68,27.57,25.13,40.36,50,49c5.89-1.49,20-5.92,32-19c15.47-16.86,16.81-36.54,17-42
		c19.27,9.15,32.45,26.09,32,43c-0.74,27.7-37.73,44.35-41.72,46.06c-0.94,0.4-1.71,0.72-2.28,0.94c-35.3,14.17-107.4-0.38-116-37
		c-1.33-5.67-2.82-19.02,11-39C1189.07,155.3,1195.07,154.64,1201.07,153.97z"/>
	<path class="st20" d="M1300.07,141.97c38.04,5.58,76.08,11.15,114.12,16.73c7.05,24.82,14.7,50.17,23,76
		c15.04,46.81,30.95,91.2,47.29,133.13c-34.6,21.86-66.42,27.82-96,21c-9.76-49.38-19.53-98.76-29.29-148.13"/>
	<path class="st20" d="M1191.07,154.97c-35.9,5.96-71.8,11.91-107.71,17.87c-7.05,24.82-14.7,50.17-23,76
		c-15.04,46.81-30.95,91.2-47.29,133.13c34.6,21.86,66.42,27.82,96,21c9.76-49.38,19.53-98.76,29.29-148.13"/>
	<path class="st21" d="M1275.36,197.84c-17.99,5.99-37.41,6.65-58,3c0.1-3.75,8,29,30,38
		C1278.36,221.84,1276.52,191.75,1275.36,197.84z"/>
	<path class="st21" d="M1203.36,189.84c-3.57-10.65-16.34-15.55-26-14c-16.11,2.59-27.13,23.73-21,35c6,11.04,28.53,12.72,40,2
		C1201.6,207.94,1206.35,198.77,1203.36,189.84z"/>
	<path class="st21" d="M1348.83,179.22c-3.39-11.02-17.16-16.07-26.97-15.89c-22.05,0.42-41.46,27.71-36,40
		c5.67,12.76,40.77,15.35,55.97-1.11C1342.69,201.28,1352.31,190.56,1348.83,179.22z"/>
	<g>
		<path class="st21" d="M1122.36,212.84c-6.1,134.38-12.2,268.76-18.29,403.13c30.37,13.55,78.59,30.71,140,35
			c68.11,4.76,122.98-8.37,156-19c-8.24-142.38-16.47-284.76-24.71-427.13"/>
		<path class="st6" d="M1122.6,212.85c-1.57,100.89-4.7,201.77-10.97,302.48c-2.52,33.2-5.34,68.07-7.47,100.46
			c26.43,10.25,53.54,18.68,81.18,24.92c9.15,2.38,18.21,5.34,27.59,6.69c10.82,1.96,26.67,1.79,37.76,2.25
			c50.01,2.85,102.21-2.9,149.16-17.66c-5.35-88.22-13.55-178.52-17.81-266.82c-2.8-53.42-5.4-106.83-6.9-160.31l0.47-0.03
			c4.68,53.3,8.25,106.65,11.63,160.04c3.38,51.34,6.03,108.52,8.11,160.24c1.25,35.63,3.28,71.73,4.8,107.08
			c-42.11,13.63-86.3,21.32-130.63,21.51c-6.34-0.11-12.69-0.18-19.01-0.69c-9.5-0.55-18.87-2.4-28.26-3.81
			c-12.47-2.33-25.19-2.83-37.68-4.94c-27.96-5.81-55.26-15.32-80.7-28.16c1.76-50.46,0.98-101.02,3.38-151.47
			C1111.53,380.97,1114.67,295.39,1122.6,212.85L1122.6,212.85z"/>
	</g>
	<g>
		<path class="st21" d="M1354.07,255.97c-16.29,97.96-26.17,201.81-27,311c-0.08,10.05-0.08,20.05,0,30"/>
		<path class="st6" d="M1355.05,256.13c-6.52,56.59-12.61,113.36-16.69,170.17c-4.16,55.91-6.31,114.68-10.3,170.66l-2,0.02
			c-0.6-7.13-1.06-14.28-1.48-21.42c-3.5-64.32,0.55-128.85,7.77-192.78c4.92-42.61,11.61-85.06,20.72-126.97
			C1353.08,255.81,1355.05,256.13,1355.05,256.13L1355.05,256.13z"/>
	</g>
	<path class="st22" d="M1162.07,285.97c9,52.67,18,105.33,27,158"/>
	<g>
		<g>
			<path class="st6" d="M1086.13,254.78c5.55,20.94,9.6,42.27,12.01,63.8c0.68,6.1,1.24,12.21,1.67,18.33c0.14,1.91,3.14,1.93,3,0
				c-1.54-21.79-4.67-43.47-9.38-64.81c-1.34-6.07-2.81-12.11-4.41-18.12C1088.53,252.12,1085.64,252.91,1086.13,254.78
				L1086.13,254.78z"/>
		</g>
	</g>
	<g>
		<g>
			<path class="st6" d="M1409.64,172.76c-9.53,0.06-18.34,6.4-21.56,15.33c-0.66,1.82,2.24,2.6,2.89,0.8
				c2.76-7.67,10.55-13.08,18.67-13.13C1411.57,175.75,1411.58,172.75,1409.64,172.76L1409.64,172.76z"/>
		</g>
	</g>
	<g>
		<g>
			<path class="st6" d="M1094.23,188.08c6.22,0.84,11.6,4.91,14.08,10.67c0.32,0.74,1.41,0.91,2.05,0.54
				c0.77-0.45,0.86-1.31,0.54-2.05c-2.74-6.37-9-11.12-15.88-12.05c-0.8-0.11-1.61,0.19-1.85,1.05
				C1092.99,186.93,1093.42,187.97,1094.23,188.08L1094.23,188.08z"/>
		</g>
	</g>
</g>
<g>
	<g>
		<path class="st23" d="M1045.49,766.99c-4.91-18.4-21.58-36.03-32.79-33.37c-14.34,3.4-16.47,39.18-17.71,59.87
			c-0.99,16.53-4.81,88.27,28.5,104.5c1.9,0.93,10.53,5.13,16.5,1.5c13.3-8.09-8.26-41.9,0.5-91.5
			C1043.9,788.68,1049.35,781.45,1045.49,766.99z"/>
		<path class="st7" d="M1043.49,894.99c0,0,27,14,33,14c1.71-1.44,2.01-4.02,1.86-6.32c0,0,0.03-2.36-0.86-4.68c-1.55-4-13-9-13-9
			c-7.72-3.34-10.71-3.63-13-7c-1.45-2.13-2-6-2-6"/>
		<path class="st7" d="M1010.2,731.12c-9.28,14.14-19.96,33.71-27.63,58.48c-4.55,14.68-7.13,28.21-8.57,39.89
			c0,0,20.29,46.84,28,71l71,19c0.47-2,0.59-3.84,0.5-5.5c-0.9-16.92-24.34-26.9-27-28"/>
		<path class="st7" d="M1049.49,766.99c4,29-1,61-1,61c1.23,15.69,2.5,31.33,8,41c-1.73,6.5-7.11,7.99-15,6
			c-6.77-5.51-11.2-22.27-15-42c0,0-19.21-9.78-19.43-9.37c-0.02,0.04,0.12,0.16,0.43,0.37"/>
		<path class="st7" d="M1002.49,834.99c7.12,15,13.28,30,18,45"/>
	</g>
	<g>
		<path class="st23" d="M1465.05,775.99c4.91-18.4,21.58-36.03,32.79-33.37c14.34,3.4,16.47,39.18,17.71,59.87
			c0.99,16.53,4.81,88.27-28.5,104.5c-1.9,0.93-10.53,5.13-16.5,1.5c-13.3-8.09,8.26-41.9-0.5-91.5
			C1466.64,797.69,1461.19,790.45,1465.05,775.99z"/>
		<path class="st7" d="M1467.05,903.99c0,0-27,14-33,14c-1.71-1.44-2.01-4.02-1.86-6.32c0,0-0.03-2.36,0.86-4.68c1.55-4,13-9,13-9
			c7.72-3.34,10.71-3.63,13-7c1.45-2.13,2-6,2-6"/>
		<path class="st7" d="M1500.34,740.12c9.28,14.14,19.96,33.71,27.63,58.48c4.55,14.68,7.13,28.21,8.57,39.89c0,0-20.29,46.84-28,71
			l-71,19c-0.47-2-0.59-3.84-0.5-5.5c0.9-16.92,24.34-26.9,27-28"/>
		<path class="st7" d="M1461.05,775.99c-4,29,1,61,1,61c-1.23,15.69-2.5,31.33-8,41c1.73,6.5,7.11,7.99,15,6
			c6.77-5.51,11.2-22.27,15-42c0,0,19.21-9.78,19.43-9.37c0.02,0.04-0.12,0.16-0.43,0.37"/>
		<path class="st7" d="M1508.05,843.99c-7.12,15-13.28,30-18,45"/>
	</g>
</g>
<g>
	<path class="st24" d="M2057.8,1887.42c0,0-9.49,47.39-6,99c3.31,49.02,22.2,90.39,25,120c1.24,25.38,1.14,49.01-4,66
		c-8.09,5.12-31.96,18.74-64.52,16.43c-25.88-1.84-44.29-12.81-52.48-18.43c-1.56-6.42-3.46-16.11-4-28c-0.9-19.88,2.55-34.07,8-57
		c2.99-12.58,7.85-33.18,15-64c1.77-44.7,0.48-87.89-5-129C1997.3,1898.4,2026.94,1895.48,2057.8,1887.42z"/>
	<path class="st25" d="M2062.8,2115.42c-26.14-29.43-87-20-97,1"/>
	<path class="st25" d="M1952.8,2153.42c40.99,18.4,81.99,18.89,123,1"/>
	<path class="st24" d="M2160.8,1887.42c1.48,21.25,2.61,43.26,3.28,66.01c0.56,18.83,0.78,37.17,0.72,54.99
		c-7.7,32.51-15.4,65.01-23.09,97.52c0,0-1.14,49.01,4,66c8.09,5.12,31.96,18.74,64.52,16.43c25.88-1.84,44.29-12.81,52.48-18.43
		c1.56-6.42,3.46-16.11,4-28c0.9-19.88-2.55-34.07-8-57c-2.99-12.58-7.85-33.18-15-64c-0.53-21.14-0.64-43.11-0.22-65.85
		c0.49-26.29,1.65-51.55,3.31-75.67c-6.46,4.51-20.66,13.14-40.83,15.28C2184.53,1896.97,2167.99,1890.67,2160.8,1887.42z"/>
	<path class="st25" d="M2155.71,2114.94c26.14-29.43,87-20,97,1"/>
	<path class="st25" d="M2265.71,2152.94c-40.99,18.4-81.99,18.89-123,1"/>
	<g>
		<path class="st26" d="M2048.85,2028.59c2.36,16.01,5.38,31.92,9.07,47.67"/>
		<g>
			<path class="st27" d="M2044.51,2029.79c2.36,16.01,5.39,31.91,9.07,47.67c0.54,2.29,3.29,3.87,5.54,3.14
				c2.4-0.78,3.72-3.08,3.14-5.54c-3.68-15.76-6.7-31.66-9.07-47.67c-0.35-2.34-3.42-3.83-5.54-3.14
				C2045.1,2025.08,2044.14,2027.29,2044.51,2029.79L2044.51,2029.79z"/>
		</g>
	</g>
	<g>
		<path class="st14" d="M2234.93,2033.24c5.41,16.13,10.82,32.27,16.23,48.4"/>
		<g>
			<path class="st27" d="M2230.59,2034.43c5.41,16.13,10.82,32.27,16.23,48.4c0.75,2.23,3.13,3.92,5.54,3.14
				c2.22-0.72,3.94-3.15,3.14-5.54c-5.41-16.13-10.82-32.27-16.23-48.4c-0.75-2.23-3.13-3.92-5.54-3.14
				C2231.52,2029.61,2229.79,2032.04,2230.59,2034.43L2230.59,2034.43z"/>
		</g>
	</g>
	<g>
		<path class="st14" d="M2023.43,2107.9c6.8,2.25,13.24,5.54,19.04,9.73"/>
		<g>
			<path class="st27" d="M2022.23,2112.24c0.86,0.29,1.72,0.59,2.57,0.91c0.43,0.16,0.85,0.32,1.27,0.49
				c0.21,0.08,1.63,0.65,0.5,0.19c1.58,0.64,3.12,1.39,4.63,2.17c3.13,1.61,6.14,3.46,9,5.52c1.92,1.38,5.09,0.4,6.16-1.61
				c1.23-2.33,0.43-4.68-1.61-6.16c-6.13-4.41-12.95-7.8-20.12-10.19c-2.24-0.74-5.02,0.86-5.54,3.14
				C2018.52,2109.18,2019.84,2111.44,2022.23,2112.24L2022.23,2112.24z"/>
		</g>
	</g>
	<g>
		<path class="st14" d="M2211.3,2110.87c9.57,0.06,19.09,3.5,26.49,9.56"/>
		<g>
			<path class="st27" d="M2211.3,2115.37c1.13,0.01,2.25,0.06,3.37,0.16c0.28,0.02,0.56,0.06,0.84,0.08c0.38,0.04,0.53,0.06,0.06,0
				c0.56,0.07,1.11,0.17,1.67,0.27c2.28,0.41,4.54,1.01,6.72,1.79c0.53,0.19,1.05,0.41,1.58,0.6c0.68,0.24-0.56-0.26,0.09,0.03
				c0.26,0.11,0.51,0.23,0.77,0.34c1.02,0.47,2.03,0.98,3.01,1.53s1.94,1.14,2.88,1.76c0.47,0.31,0.93,0.63,1.38,0.97
				c0.06,0.04,0.73,0.54,0.39,0.28c-0.37-0.29,0.56,0.45,0.54,0.43c1.83,1.48,4.6,1.92,6.36,0c1.51-1.64,1.95-4.78,0-6.36
				c-8.43-6.84-18.78-10.75-29.67-10.88c-2.35-0.03-4.61,2.09-4.5,4.5C2206.91,2113.33,2208.77,2115.34,2211.3,2115.37
				L2211.3,2115.37z"/>
		</g>
	</g>
</g>
<g>
	<path class="st1" d="M2189.03,1341.5"/>
	<g>
		<path class="st28" d="M2199.98,1055.24c1.96-4.29,6.31-15.17,1.38-22.05c-3.4-4.74-9.72-5.52-11.98-5.8
			c-54.87-6.94-12.26-12.05-90.68-13.56c-40.48-0.78-83.06-0.96-118.58,18.47c-1.8,0.98-3.64,2.08-4.69,3.84
			c-0.89,1.49-1.1,3.28-1.28,5.02c-3.14,30.51-3.29,61.33-0.43,91.87c0.78,8.37,1.82,16.83,4.83,24.68
			c4.34,11.31,12.51,20.66,20.51,29.75c3.94,4.47,8.06,9.08,13.52,11.46c6.31,2.74,13.48,2.14,20.35,2.42
			c10.01,0.41,19.83,2.81,29.79,3.85c9.96,1.05,20.5,0.62,29.29-4.19c5.89-3.23,10.6-8.21,15.19-13.11
			c13.19-14.04,26.4-28.12,38.09-43.43c4.17-5.47,8.16-11.11,12.94-16.05c5.42-5.6,11.8-10.25,16.83-16.21
			c6.23-7.37,10.11-16.39,13.9-25.26c3.64-8.52,8.12-20.32,11.8-35.05"/>
		<g>
			<path class="st11" d="M2200.3,1055.43c3.68-8.1,6.92-20.5-2.59-25.95c-3.79-2.17-8.17-2.42-12.39-3
				c-4.1-0.56-8.19-1.19-12.26-1.96c-4.58-0.87-9.17-1.91-13.54-3.56c-2.41-0.91-4.72-2.08-7.14-2.97
				c-3.44-1.27-7.08-1.89-10.7-2.36c-7.97-1.03-16.04-1.36-24.07-1.66c-13.33-0.5-26.68-0.77-40.02-0.77
				c-13.44,0-26.9,0.41-40.26,1.93c-13.09,1.5-26.1,4.08-38.54,8.47c-6.09,2.15-12.03,4.72-17.73,7.75
				c-2.45,1.3-5.16,2.68-6.35,5.34c-0.57,1.28-0.75,2.67-0.9,4.05c-0.21,1.94-0.39,3.88-0.57,5.82c-2.76,30.22-2.8,60.94,0.57,91.11
				c0.79,7.04,1.98,14.11,4.61,20.73c2.44,6.12,6,11.71,9.98,16.92c3.94,5.16,8.24,10.08,12.61,14.88
				c4.33,4.75,9.17,8.94,15.59,10.4c6.6,1.5,13.49,0.76,20.18,1.34c7.41,0.64,14.71,2.15,22.08,3.14
				c13.1,1.76,27.01,1.53,37.97-6.82c5.28-4.02,9.68-9.1,14.2-13.92c5.08-5.42,10.14-10.85,15.09-16.38
				c4.85-5.41,9.6-10.9,14.16-16.55c4.53-5.6,8.69-11.48,13.22-17.07c4.41-5.43,9.54-9.99,14.69-14.68
				c4.95-4.5,9.28-9.36,12.71-15.13c3.45-5.8,6.1-12.04,8.72-18.25c2.09-4.94,4.02-9.95,5.77-15.02c2.19-6.34,4.09-12.78,5.72-19.29
				c0.12-0.47-0.61-0.67-0.72-0.2c-2.97,11.85-6.86,23.45-11.65,34.69c-2.56,6.01-5.14,12.06-8.49,17.69
				c-3.47,5.85-7.9,10.72-12.92,15.27c-5,4.53-9.95,8.96-14.22,14.21c-4.4,5.39-8.41,11.09-12.77,16.51
				c-9,11.2-18.73,21.79-28.55,32.28c-4.53,4.84-8.94,9.96-14.08,14.19c-5.21,4.28-11.24,6.94-17.89,8.01
				c-13.96,2.25-27.78-1.89-41.59-3.29c-6.82-0.69-13.84,0.05-20.58-1.27c-6.69-1.31-11.64-5.47-16.11-10.38
				c-8.84-9.7-18.15-20.05-22.8-32.51c-2.5-6.7-3.59-13.81-4.33-20.88c-0.77-7.32-1.31-14.66-1.7-22.01
				c-0.79-14.82-0.88-29.68-0.26-44.51c0.31-7.41,0.79-14.82,1.45-22.21c0.16-1.81,0.33-3.61,0.51-5.42
				c0.18-1.83,0.28-3.79,1.13-5.46c1.47-2.86,5.09-4.28,7.8-5.67c11.54-5.88,23.96-9.85,36.63-12.41c25.71-5.21,52.17-4.9,78.27-4.4
				c11.19,0.22,22.39,0.47,33.56,1.25c5.3,0.37,10.68,0.79,15.88,1.96c5.64,1.27,10.68,4.21,16.23,5.78
				c6.08,1.72,12.35,2.74,18.6,3.65c4.08,0.59,8.41,0.74,12.31,2.15c2.64,0.95,5.08,2.57,6.58,4.98c1.44,2.31,1.9,5.06,1.82,7.75
				c-0.14,4.62-1.69,9.17-3.59,13.34C2199.45,1055.49,2200.09,1055.87,2200.3,1055.43L2200.3,1055.43z"/>
		</g>
	</g>
	<path class="st29" d="M2205.34,1045.19c4.6,14.24,9.07,29.14,13.31,44.68c5.8,21.27,10.65,41.76,14.69,61.32
		c-2.61,33.57-1.84,88.24-4,155.5c-8.23,255.9,26.72,395.77,13.84,448.12c-4.65,18.9-44.42,24.68-107,8
		c-3.96-152.12-15.8-311.25-37.84-476.37c-3.47-25.98-7.14-51.74-11-77.25c-17.67-0.67-35.33-1.33-53-2"/>
	<path class="st29" d="M1973.35,1044.19c-9,35.33-18,70.67-27,106c2.21,33.83,1.01,88.39,3.22,155.42
		c8.91,269.79-25.38,413.19-7.38,457.19c12.93,12.56,42.18,20.52,99,2c2.39-41.87,4.77-83.74,7.16-125.62
		c6.93-103.95,15.81-210.12,26.88-318.39c3.84-37.52,7.88-74.72,12.12-111.61c21.34-0.84,32.01-1.51,32-2
		c-0.01-0.74-24.68-1.08-74-1"/>
	<g>
		<path class="st30" d="M1997.63,1101.46c-0.95,11.6-1.9,23.2-2.86,34.79c-0.13,1.56-0.27,3.16-0.92,4.59
			c-1.24,2.72-3.46,4.14-4.01,4.51c-3.49,2.39-16.83,15.24-37.5,35.85"/>
		<g>
			<path class="st30" d="M1996.13,1101.46c-0.73,8.95-1.47,17.89-2.2,26.84c-0.18,2.24-0.37,4.47-0.55,6.71
				c-0.16,1.96-0.19,4.02-1.18,5.78c-0.9,1.61-2.25,2.6-3.68,3.68c-2.43,1.84-4.66,3.96-6.89,6.04c-3.92,3.65-7.76,7.37-11.59,11.11
				c-6.29,6.13-12.52,12.32-18.74,18.52c-1.37,1.36,0.75,3.49,2.12,2.12c9.75-9.72,19.5-19.48,29.55-28.89
				c2.33-2.18,4.66-4.42,7.18-6.39c-0.32,0.25,0.13-0.1,0.25-0.18c0.2-0.14,0.4-0.27,0.6-0.41c1.08-0.77,2.05-1.64,2.87-2.69
				c2.55-3.28,2.42-7.46,2.75-11.41c0.84-10.27,1.69-20.54,2.53-30.82C1999.29,1099.53,1996.29,1099.54,1996.13,1101.46
				L1996.13,1101.46z"/>
		</g>
	</g>
	<path class="st31" d="M1964.35,1219.19c-2.46,55.32,2.87,127.32,16,216"/>
	<path class="st31" d="M1983.35,1504.19c-6.28,42.67-9.62,85.33-10,128"/>
	<g>
		<path class="st30" d="M2208.34,1226.19c-0.67,92.67-1.33,185.33-2,278"/>
		<path class="st30" d="M2208.41,1226.19c-0.03,90.33-0.87,187.61-2,278h-0.11C2206.58,1413.85,2206.82,1316.25,2208.41,1226.19
			L2208.41,1226.19z"/>
	</g>
	<path class="st31" d="M2212.34,1544.19c-3.38,36.31-6.95,69.93-11,97c-11.19,15.69-26.03,22.69-42,27"/>
	<g>
		<path class="st30" d="M2173.62,1097.45c0.95,11.6,1.9,23.2,2.86,34.79c0.13,1.56,0.27,3.16,0.92,4.59
			c1.24,2.72,3.46,4.14,4.01,4.51c3.49,2.39,16.83,15.24,37.5,35.85"/>
		<g>
			<path class="st30" d="M2172.12,1097.45c0.75,9.11,1.5,18.23,2.24,27.34c0.19,2.32,0.38,4.64,0.57,6.96
				c0.16,1.93,0.29,3.87,1.09,5.66c1.03,2.32,2.79,3.91,4.81,5.36c0.1,0.07,0.49,0.37,0.35,0.26c-0.1-0.08,0.4,0.32,0.53,0.43
				c0.48,0.4,0.96,0.8,1.43,1.21c1.33,1.16,2.63,2.35,3.93,3.55c3.98,3.69,7.87,7.46,11.76,11.25c6.38,6.22,12.7,12.49,19,18.77
				c1.37,1.36,3.49-0.76,2.12-2.12c-9.61-9.58-19.21-19.18-29.1-28.47c-2.39-2.25-4.78-4.53-7.34-6.58
				c-1.04-0.84-2.19-1.53-3.12-2.5c-2.78-2.87-2.48-7.1-2.79-10.81c-0.83-10.11-1.66-20.21-2.49-30.32
				C2174.97,1095.54,2171.97,1095.52,2172.12,1097.45L2172.12,1097.45z"/>
		</g>
	</g>
</g>
<g>
	<path class="st29" d="M2113.93,165.44c40.48,9.2,80.96,18.4,121.43,27.6c7.75,21.46,10.98,43.27,13.71,65.05
		c13.88,110.47,61.48,208.21,82,297c11.61,29.33,19.3,58.66,18,88c-25.1,45.84-57.16,44.47-91,31c-29-130.67-58-261.33-87-392"/>
	<path class="st29" d="M2012.93,166.44c-35.62,7.55-71.24,15.1-106.85,22.66c-7.82,24.9-15.49,50.24-23,76
		c-17.62,60.47-33.2,119.53-47,177c-13.65,31.92-27.04,66.91-39.39,104.86c-8.34,25.65-15.49,50.42-21.61,74.14
		c3.41,6.84,14.91,27.7,40,39c15.21,6.85,29.12,7.34,37,7c36.33-132,72.67-264,109-396"/>
	<g>
		<path class="st28" d="M1930.23,223.09c0.65,151.26-1.29,263.38-3.15,301c-1.84,37.19-6.8,70.24-6.8,70.24
			c-2.67,28.67-5.33,57.33-8,86c35.52,7.22,75.73,13.41,120,17c49,3.97,93.71,3.99,133,2c6.7-1,23.98-4.52,39-19
			c9.86-9.51,14.69-19.82,17-26c-23.41-83.66-28.54-130.34-29-157c-0.04-2.6-0.2-14-0.33-26.24c-0.76-68.75-0.49-64.89-0.61-86.55
			c-0.1-17.52-4-41.89-3.8-77.96c0.05-9.47,0.35-20.8,1.26-33.77c1.65-23.54,4.66-43.22,7.35-57.72"/>
		<path class="st11" d="M1930.35,223.09c0.27,92.9,0.21,185.83-2.31,278.7c-0.72,30.96-3.32,61.91-7.65,92.55l-8.02,86
			c20.23,3.85,41.74,7.84,62.59,10.61c52.48,7.32,105.56,10.11,158.52,8.99c10.53-0.16,21.36-0.57,31.73-1.02
			c10.83-1.56,21.31-5.61,30.36-11.76c11.64-7.99,20.67-19.64,25.59-32.87c-4.92-17.39-9.61-35.69-13.77-53.55
			c-8.15-35.93-15.16-72.49-15.32-109.46c-0.23-17.92-0.73-65.61-0.81-83.05c-0.06-9.23,0.05-18.46-0.15-27.68
			c-0.33-9.22-1.22-18.41-1.89-27.61c-3.77-45.99-1.67-92.49,6.8-137.87l0.23,0.04c-8.47,45.36-10.57,91.83-6.8,137.81
			c0.67,9.2,1.56,18.39,1.89,27.62c0.2,15.77,0.16,39.3,0.34,55.37c0.54,32.82-0.56,78.51,5.3,110.46
			c5.66,36.48,14.52,72.38,24.39,107.93c-5.39,14.8-16.01,27.7-29.52,35.81c-8.1,4.91-17.17,8.16-26.53,9.63
			c-10.6,0.6-21.21,0.96-31.83,1.2c-53.01,0.93-106.06-2.58-158.57-9.82c-20.96-3-42.2-6.38-62.76-10.79l7.98-86
			c4.33-30.63,6.92-61.58,7.64-92.53C1930.56,409.07,1929.93,315.39,1930.35,223.09L1930.35,223.09z"/>
	</g>
	<g>
		<path class="st11" d="M2177.51,485.33c-1.65,11.3-7.11,21.24-13.52,30.45c-2.22,3-4.56,5.93-7.48,8.55l-0.88-0.47
			c2.37-13.32,10.8-30.01,21-39L2177.51,485.33L2177.51,485.33z"/>
	</g>
	<g>
		<path class="st30" d="M1983.07,269.09c16.06,82.14,33.1,158.71,53,219"/>
		<path class="st30" d="M1983.19,269.07c14.04,69,28.48,138.06,48.81,205.53c1.35,4.5,2.79,8.97,4.18,13.45l-0.22,0.07
			c-11.99-35.63-21.5-72.05-30.01-108.65C1997.78,342.97,1989.36,305.53,1983.19,269.07L1983.19,269.07z"/>
	</g>
	<g>
		<path class="st30" d="M1961.07,497.09c24.28,33.45,56.92,50.17,92,62"/>
		<path class="st30" d="M1961.17,497.02c21.57,29.21,51.72,47.18,85.32,59.54l6.63,2.41l-0.08,0.23l-6.7-2.23
			c-24.43-8.38-48.1-20.51-66.89-38.47c-6.85-6.48-13.02-13.67-18.47-21.34C1960.97,497.16,1961.17,497.02,1961.17,497.02
			L1961.17,497.02z"/>
	</g>
	<line class="st32" x1="2123.07" y1="283.09" x2="2082.07" y2="387.09"/>
	<g>
		<path class="st30" d="M2165.79,465.8c-14.62,6.33-29.77,11.44-45.24,15.26c3.1,8.59,4.71,17.72,4.75,26.85"/>
		<g>
			<path class="st30" d="M2165.04,464.51c-14.51,6.26-29.54,11.3-44.88,15.11c-0.74,0.18-1.32,1.09-1.05,1.85
				c3.04,8.5,4.63,17.42,4.7,26.45c0.01,1.93,3.01,1.93,3,0c-0.07-9.28-1.68-18.51-4.81-27.25c-0.35,0.62-0.7,1.23-1.05,1.85
				c15.6-3.87,30.84-9.05,45.6-15.41C2168.32,466.33,2166.79,463.75,2165.04,464.51L2165.04,464.51z"/>
		</g>
	</g>
	<g>
		<path class="st30" d="M2093.55,408.58c9.99,0,19.97,0,29.96,0"/>
		<g>
			<path class="st30" d="M2093.55,410.08c9.99,0,19.97,0,29.96,0c1.93,0,1.93-3,0-3c-9.99,0-19.97,0-29.96,0
				C2091.62,407.08,2091.61,410.08,2093.55,410.08L2093.55,410.08z"/>
		</g>
	</g>
	<g>
		<path class="st30" d="M1928.76,242.89c-7.78,28.37-12.88,57.47-15.22,86.79"/>
		<g>
			<path class="st30" d="M1927.32,242.49c-6.08,22.23-10.53,44.88-13.32,67.76c-0.79,6.46-1.44,12.94-1.96,19.43
				c-0.15,1.92,2.85,1.91,3,0c1.83-22.78,5.32-45.42,10.45-67.69c1.44-6.27,3.02-12.5,4.72-18.7
				C1930.72,241.42,1927.83,240.63,1927.32,242.49L1927.32,242.49z"/>
		</g>
	</g>
	<g>
		<path class="st30" d="M1845.87,450.13c-0.09,2.37,0.64,4.68,1.37,6.93c2.78,8.64,5.56,17.28,8.35,25.92"/>
		<g>
			<path class="st30" d="M1844.37,450.13c-0.04,2.79,0.81,5.41,1.65,8.04c0.91,2.83,1.82,5.65,2.73,8.48
				c1.8,5.58,3.59,11.15,5.39,16.73c0.59,1.83,3.49,1.05,2.89-0.8c-1.75-5.42-3.49-10.84-5.24-16.26c-0.86-2.67-1.72-5.34-2.58-8.01
				c-0.86-2.66-1.89-5.35-1.85-8.18C1847.4,448.19,1844.4,448.19,1844.37,450.13L1844.37,450.13z"/>
		</g>
	</g>
	<g>
		<path class="st30" d="M2313.57,565.91c-14.49,12.7-29.32,25.83-38.15,42.95c-0.34,0.66-0.66,1.52-0.18,2.1
			c0.32,0.39,0.88,0.47,1.38,0.52c1.55,0.15,3.1,0.31,4.66,0.46"/>
		<g>
			<path class="st30" d="M2312.51,564.85c-13.71,12.02-27.77,24.41-36.87,40.46c-0.99,1.75-3.15,4.58-1.58,6.56
				c0.7,0.88,1.74,1.02,2.79,1.13c1.47,0.15,2.95,0.29,4.42,0.43c1.92,0.19,1.91-2.81,0-3c-1.09-0.11-2.17-0.21-3.26-0.32
				c-0.36-0.04-1.22,0.06-1.5-0.16c0,0,0.31-0.56,0.5-0.9c0.95-1.81,1.98-3.58,3.06-5.32c2.14-3.41,4.5-6.67,7.05-9.79
				c5.17-6.32,10.99-12.08,16.99-17.6c3.46-3.18,6.99-6.28,10.52-9.37C2316.09,565.7,2313.96,563.58,2312.51,564.85L2312.51,564.85z
				"/>
		</g>
	</g>
	<g>
		<path class="st30" d="M1853.85,503.63c-0.2,5.81,0.51,11.65,2.12,17.24c0.32,1.12,0.72,2.29,1.63,3.02
			c0.79,0.63,1.83,0.81,2.83,0.95c3.7,0.51,7.44,0.67,11.17,0.48"/>
		<g>
			<path class="st30" d="M1852.35,503.63c-0.1,3.32,0.08,6.63,0.54,9.93c0.42,3.03,0.94,6.27,2.11,9.11
				c0.49,1.19,1.23,2.26,2.4,2.87c1.3,0.68,2.83,0.79,4.26,0.96c3.3,0.39,6.62,0.48,9.93,0.32c1.92-0.09,1.93-3.09,0-3
				c-2.9,0.14-5.81,0.09-8.7-0.19c-1.21-0.12-2.58-0.15-3.73-0.58c-1.07-0.4-1.41-1.41-1.71-2.43c-1.63-5.51-2.29-11.27-2.11-17
				C1855.41,501.7,1852.41,501.7,1852.35,503.63L1852.35,503.63z"/>
		</g>
	</g>
	<path class="st28" d="M2032.48,242.61h-40c3-21.33,6-42.67,9-64c10.33,11.33,20.67,22.67,31,34
		C2032.48,222.61,2032.48,232.61,2032.48,242.61z"/>
	<ellipse class="st28" cx="2000.48" cy="219.11" rx="24.5" ry="30"/>
	<path class="st28" d="M2153.98,219.1c0,18.29-10.52,39.09-26.13,39.98c-14.21,0.81-25.69-15.29-28.26-30.65
		c-3.87-23.08,11.4-50.1,28.26-49.31C2141.87,179.77,2153.97,199.5,2153.98,219.1z"/>
	<path class="st33" d="M2012.87,166.97c0.86,30.41,27.32,53.34,55.34,50.73c25.67-2.39,46.52-25.66,45.7-53.41
		c2.99,0.71,5.98,1.41,8.97,2.12c0.08,32.84-24.22,59.9-53.83,63.3c-33.5,3.84-66.47-23.45-68.21-60.9
		C2004.85,168.2,2008.86,167.59,2012.87,166.97z"/>
</g>
<g>
	<path class="st34" d="M1841.19,808.24c-9.32-22.98-46.89-35.47-58-25c-6.56,6.18-0.38,17.04,7.5,51.5
		c14.68,64.16,7.8,94.41,28.5,104.5c1.9,0.93,10.53,5.13,16.5,1.5c13.15-8-7.14-41.56,0.5-91.5
		C1839.72,826.15,1846.05,820.21,1841.19,808.24z"/>
	<path class="st24" d="M1835.19,948.24c0,0,27,14,33,14c1.71-1.44,2.01-4.02,1.86-6.32c0,0,0.03-2.36-0.86-4.68c-1.55-4-13-9-13-9
		c-7.72-3.34-10.71-3.63-13-7c-1.45-2.13-2-6-2-6"/>
	<path class="st24" d="M1779.69,786.74c0.73,21.69-10.53,95.94-14,96c0,0,20.29,46.84,28,71l71,19c0.47-2,0.59-3.84,0.5-5.5
		c-0.9-16.92-24.34-26.9-27-28"/>
	<path class="st24" d="M1841.19,820.24c4,29-1,61-1,61c1.23,15.69,2.5,31.33,8,41c-1.73,6.5-7.11,7.99-15,6
		c-6.77-5.51-11.2-22.27-15-42c0,0-19.21-9.78-19.43-9.37c-0.02,0.04,0.12,0.16,0.43,0.37"/>
	<path class="st25" d="M1794.19,888.24c7.12,15,13.28,30,18,45"/>
	<path class="st34" d="M2256.52,811.87c9.32-22.98,46.89-35.47,58-25c6.56,6.18,0.38,17.04-7.5,51.5
		c-14.68,64.16-7.8,94.41-28.5,104.5c-1.9,0.93-10.53,5.13-16.5,1.5c-13.15-8,7.14-41.56-0.5-91.5
		C2257.99,829.77,2251.67,823.84,2256.52,811.87z"/>
	<path class="st24" d="M2262.52,951.87c0,0-27,14-33,14c-1.71-1.44-2.01-4.02-1.86-6.32c0,0-0.03-2.36,0.86-4.68c1.55-4,13-9,13-9
		c7.72-3.34,10.71-3.63,13-7c1.45-2.13,2-6,2-6"/>
	<path class="st24" d="M2318.02,790.37c-0.73,21.69,10.53,95.94,14,96c0,0-20.29,46.84-28,71l-71,19c-0.47-2-0.59-3.84-0.5-5.5
		c0.9-16.92,24.34-26.9,27-28"/>
	<path class="st24" d="M2256.52,823.87c-4,29,1,61,1,61c-1.23,15.69-2.5,31.33-8,41c1.73,6.5,7.11,7.99,15,6
		c6.77-5.51,11.2-22.27,15-42c0,0,19.21-9.78,19.43-9.37c0.02,0.04-0.12,0.16-0.43,0.37"/>
	<path class="st24" d="M2303.52,891.87c-7.12,15-13.28,30-18,45"/>
</g>
<g>
	<path class="st29" d="M2182.11,59.57c14.8-39.75,25.52-73.72,32.93-98.92c32.15-109.4,30.82-151.86,29.37-171.18
		c-1.9-25.25-6.62-45.67-10.33-59c-16.59-17.37-62.03-60.28-133.32-73c-95.42-17.03-167.24,32.49-183.07,44
		c-5.28,8.11-12.82,21.7-16.9,40c-3.78,16.96-2.98,30.79-1.88,43c7.61,84.34,35.51,154.29,44.72,176.38l0,0
		c13.15,32.24,26.3,64.49,39.44,96.73"/>
	<path class="st7" d="M2133.29-75.78c2.63,23.55-6,13-8,90c-2.94,9.27-8.97,25.81-22,43c-10.02,13.22-18.65,24.6-30,25
		c-18.93,0.66-33.56-29.65-40-43c-13.52-28-6-64-11-106C2043.34-93.02,2090.98-99.68,2133.29-75.78z"/>
	<g>
		<path class="st8" d="M2024.79-67.28c11.99-6.42,36.45-17.3,68.33-16.11c16.83,0.63,30.72,4.43,40.67,8.11c-2,15-4,30-6,45
			c0,0-23.03,18.75-36.31,22.96c-17.24,5.47-32.91,4.91-46.59,4.21c-8.43-0.43-15.37-1.39-20.1-2.18"/>
	</g>
	<path class="st9" d="M2222.29-184.78c6.29-9.18,23.41-32.13,20-60.38c-4.5-37.34-42.27-67.01-76.3-76.89
		c-41.91-12.17-88.54,2.68-91-7c-0.31-1.2,0.04-2.91,1-4c5.07-5.78,27.56,5.08,27,7c-0.31,1.07-7.95,0.35-36-6
		c-1.96-1.72-5.35-4.45-10-7c-52.38-28.71-140.65,34.5-139,38c1.68,3.56,103.89-38.88,105-36c0.22,0.56-3,4-3,4
		c-13.09,2.68-28.93,7.19-46,15c-29.27,13.39-49.97,30.91-63,44c-1.81,27.2-0.54,79.81,34.3,118.26
		C2014.72-79.16,2171.47-110.65,2222.29-184.78z"/>
	<path class="st7" d="M1920.29-193.78c-10.38,4.58-10.06,25.47-10,28c1.09,43.16,55.54,68.45,59,70c12.05,5.4,24.6,11.04,30,6
		c10.43-9.73-12.72-52.96-40-81C1949.9-180.44,1931.92-198.91,1920.29-193.78z"/>
	<path class="st7" d="M2223.72-193.34c10.38,4.58,10.06,25.47,10,28c-1.09,43.16-55.54,68.45-59,70c-12.05,5.4-24.6,11.04-30,6
		c-10.43-9.73,12.72-52.96,40-81C2194.11-180,2212.09-198.47,2223.72-193.34z"/>
	<path class="st7" d="M1946.29-208.78c3,48,28,110,28,110s9,45,99,83c15.38-5.65,63.48-25.54,97-78c21-54,31.35-104.69,30-121
		c-9.02-56.66-54.24-130.14-123-132C2005.07-348.73,1953.92-270.38,1946.29-208.78z"/>
	<path class="st10" d="M2052.29-277.78c-7,66-29,96-29,96s56-29,45-39c1.76,1.49-14,45-32,55c4.73,6.17,28.68-0.81,44-13
		c43.35-34.5,25.69-117.12,23-129"/>
	<path class="st10" d="M2083.29-291.78c14.01,28.85,62.09,68.06,100.58,100.55c6.89,5.82-1.42,24.24-12.58,42.45
		c3.27,3.09,12.2-1.57,14.1-2.56c14.74-7.68,24.59-25.25,24.9-47.44"/>
	<path class="st1" d="M1946.29-158.9"/>
	<path class="st9" d="M2211.29-204.78c13.28-12.14-9.4-78.73-56.3-113.26c-61.44-45.24-168.58-38.51-210.7,20.26
		c-23.13,32.28-27.56,81.51-11,92c28.84,18.27,125.02-83.91,136.5-72.5c4.98,4.95-11.12,26.16-4.5,32.5
		c7.01,6.71,25.92-16.2,49.5-12.5c23.3,3.66,24.19,29.06,59,46C2181.85-208.36,2203.45-197.61,2211.29-204.78z"/>
	<g>
		<g>
			<path class="st11" d="M2052.67-278.64c0.78-3.65,1.16-7.39,1.13-11.12c-0.01-1.07-1.29-1.96-2.26-1.3
				c-3.41,2.35-6.52,5.1-9.24,8.23c-0.53,0.61-0.6,1.52,0,2.12c0.54,0.54,1.59,0.61,2.12,0c2.55-2.93,5.44-5.55,8.63-7.76
				c-0.75-0.43-1.5-0.86-2.26-1.3c0.04,3.47-0.3,6.93-1.02,10.33c-0.17,0.79,0.23,1.62,1.05,1.85
				C2051.58-277.39,2052.5-277.85,2052.67-278.64L2052.67-278.64z"/>
		</g>
	</g>
	<g>
		<path class="st11" d="M2109.74-261.68c-0.74,0.01-0.84-7.33-3.11-21.84c-1.42-9.13-2.97-16.61-4.1-21.68
			c2.72,4.55,6.13,11.49,7.76,20.42C2112.49-272.78,2110.65-261.69,2109.74-261.68z"/>
		<g>
			<path class="st11" d="M2109.74-263.18c0.38,0.04,1.05,0.54,1.12,0.59c0.02,0.01,0.09,0.37,0.07,0.15
				c-0.02-0.19-0.1-0.39-0.14-0.58c-0.16-0.76-0.17-1.05-0.26-1.76c-0.28-2.33-0.51-4.67-0.79-7.01c-0.92-7.81-2.12-15.58-3.59-23.3
				c-0.67-3.51-1.39-7.02-2.17-10.51c-0.91,0.39-1.83,0.77-2.74,1.16c4.15,6.98,6.96,14.7,8.04,22.76
				c0.58,4.34,0.71,8.76,0.39,13.12c-0.1,1.42-0.25,2.85-0.53,4.25c-0.1,0.47-0.21,0.94-0.35,1.4c-0.1,0.32-0.1,0.12-0.06,0.19
				c-0.02,0.05-0.05,0.1-0.08,0.14c0.16-0.27,0.39-0.44,0.7-0.54c-1.9,0.33-1.09,3.23,0.8,2.89c1.53-0.27,1.81-2.79,2.02-3.96
				c0.52-3.01,0.68-6.08,0.67-9.12c-0.03-7.98-1.44-15.95-4.42-23.36c-1.29-3.21-2.82-6.31-4.58-9.28
				c-0.89-1.49-3.11-0.49-2.74,1.16c1.69,7.58,3.12,15.21,4.29,22.89c0.93,6.14,1.48,12.32,2.32,18.47c0.19,1.35,0.34,3.1,2.04,3.27
				C2111.66-259.99,2111.64-262.99,2109.74-263.18z"/>
		</g>
	</g>
	<g>
		<g>
			<path class="st11" d="M2215.89-203.84c0-3.52,0-7.03,0-10.55c0-0.81-0.69-1.5-1.5-1.5s-1.5,0.69-1.5,1.5c0,3.52,0,7.03,0,10.55
				c0,0.81,0.69,1.5,1.5,1.5C2215.21-202.34,2215.89-203.03,2215.89-203.84L2215.89-203.84z"/>
		</g>
	</g>
	<g>
		<g>
			<path class="st11" d="M1995.1-324.62c9.05-0.66,18.17-0.34,27.14,1.02c1.89,0.29,2.7-2.6,0.8-2.89
				c-9.25-1.4-18.6-1.81-27.94-1.13C1993.19-327.48,1993.17-324.48,1995.1-324.62L1995.1-324.62z"/>
		</g>
	</g>
	<g>
		<g>
			<path class="st11" d="M2093.86-317.49c-1.68-3.47-4.81-6.12-8.44-7.34c-0.74-0.25-1.67,0.29-1.85,1.05
				c-0.19,0.83,0.25,1.58,1.05,1.85c0.2,0.07,0.4,0.14,0.59,0.21c0.16,0.06,0.2,0.06,0.01,0c0.1,0.03,0.22,0.09,0.31,0.14
				c0.38,0.18,0.76,0.37,1.12,0.58c0.35,0.2,0.68,0.42,1.01,0.66c0.08,0.06,0.15,0.11,0.23,0.17c0.31,0.23-0.24-0.2,0.06,0.05
				c0.16,0.13,0.32,0.27,0.48,0.41c0.3,0.27,0.59,0.55,0.86,0.84c0.14,0.15,0.28,0.31,0.42,0.47c0.06,0.07,0.12,0.15,0.18,0.22
				c0.04,0.05,0.3,0.33,0.05,0.06c0.55,0.59,0.96,1.43,1.31,2.15c0.34,0.71,1.41,0.95,2.05,0.54
				C2094.05-315.9,2094.23-316.73,2093.86-317.49L2093.86-317.49z"/>
		</g>
	</g>
	<g>
		<g>
			<path class="st11" d="M2176.04-317.78c8.24,14.54,15.54,29.59,21.83,45.07c0.72,1.77,3.62,0.99,2.89-0.8
				c-6.38-15.72-13.76-31.02-22.13-45.79C2177.68-320.98,2175.09-319.47,2176.04-317.78L2176.04-317.78z"/>
		</g>
	</g>
	<g>
		<g>
			<path class="st11" d="M1929.46-257.11c0.55-4.03,2.17-7.72,3.86-11.38c1.77-3.84,3.6-7.66,5.48-11.45
				c3.72-7.51,7.64-14.92,11.75-22.23c0.95-1.68-1.64-3.2-2.59-1.51c-4.19,7.44-8.18,15-11.97,22.66c-1.87,3.79-3.7,7.61-5.47,11.46
				c-1.72,3.74-3.4,7.55-3.96,11.67c-0.11,0.81,0.2,1.6,1.05,1.85C1928.32-255.86,1929.36-256.31,1929.46-257.11L1929.46-257.11z"/>
		</g>
	</g>
	<path class="st12" d="M1922.29-179.78c-1.18,3.76-3.06,11.56-1,21c1.38,6.34,4.03,11.08,6,14"/>
	<path class="st12" d="M2223.4-180.95c1.18,3.76,3.06,11.56,1,21c-1.38,6.34-4.03,11.08-6,14"/>
	<path class="st16" d="M2122.29-85.78c-6.71-0.63-82.74,6.38-92,12c-12.7,7.71,18.49,41.69,47,41
		C2110.66-33.58,2137.56-84.36,2122.29-85.78z"/>
	<path class="st35" d="M2123.29-67.78c-25.13-3.02-44.51-1.31-58,1c0,0-2.73,0.47-35,7l0,0c0,0,19,28,50,27
		C2094.29-34.78,2111.29-46.78,2123.29-67.78z"/>
	<path class="st18" d="M2039.29-69.78c21.78-3.89,61.43-4.53,77-10c2.66-0.93,3.77-5.29,2-6c-4.41-1.76-84.92,9.09-85,11
		C2033.27-74.16,2032.92-68.64,2039.29-69.78z"/>
	<line class="st12" x1="2079.29" y1="-163.78" x2="2066.29" y2="-155.78"/>
	<line class="st12" x1="2080.29" y1="-158.78" x2="2059.29" y2="-145.78"/>
	<line class="st12" x1="2085.29" y1="-155.78" x2="2058.29" y2="-138.78"/>
	<line class="st12" x1="2087.29" y1="-149.78" x2="2059.29" y2="-132.78"/>
	<line class="st12" x1="2090.29" y1="-145.78" x2="2061.29" y2="-128.78"/>
	<path class="st13" d="M2073.29-119.28c-0.17,4-0.33,8-0.5,12c-1.83-1.67-3.67-3.33-5.5-5"/>
	<g>
		<g>
			<path class="st8" d="M1979.22-129.99c-0.61,0.82-1.22,1.63-1.83,2.45c-0.11,0.17-0.17,0.36-0.18,0.56
				c-0.04,0.2-0.04,0.4,0.03,0.6c0.1,0.35,0.36,0.73,0.69,0.9c0.35,0.18,0.77,0.28,1.16,0.15c0.12-0.05,0.24-0.1,0.36-0.15
				c0.23-0.13,0.4-0.31,0.54-0.54c0.61-0.82,1.22-1.63,1.83-2.45c0.11-0.17,0.17-0.36,0.18-0.56c0.04-0.2,0.04-0.4-0.03-0.6
				c-0.1-0.35-0.36-0.73-0.69-0.9c-0.35-0.18-0.77-0.28-1.16-0.15c-0.12,0.05-0.24,0.1-0.36,0.15
				C1979.54-130.39,1979.36-130.21,1979.22-129.99L1979.22-129.99z"/>
		</g>
	</g>
	<g>
		<g>
			<path class="st8" d="M1983.17-127.25c-0.2,0.31-0.41,0.61-0.61,0.92c-0.11,0.17-0.17,0.36-0.18,0.56c-0.04,0.2-0.04,0.4,0.03,0.6
				c0.05,0.2,0.14,0.37,0.27,0.51c0.11,0.16,0.25,0.29,0.42,0.39c0.12,0.05,0.24,0.1,0.36,0.15c0.27,0.07,0.53,0.07,0.8,0
				c0.12-0.05,0.24-0.1,0.36-0.15c0.23-0.13,0.4-0.31,0.54-0.54c0.2-0.31,0.41-0.61,0.61-0.92c0.11-0.17,0.17-0.36,0.18-0.56
				c0.04-0.2,0.04-0.4-0.03-0.6c-0.05-0.2-0.14-0.37-0.27-0.51c-0.11-0.16-0.25-0.29-0.42-0.39c-0.12-0.05-0.24-0.1-0.36-0.15
				c-0.27-0.07-0.53-0.07-0.8,0c-0.12,0.05-0.24,0.1-0.36,0.15C1983.49-127.66,1983.31-127.48,1983.17-127.25L1983.17-127.25z"/>
		</g>
	</g>
	<g>
		<g>
			<path class="st8" d="M2152.66-127.41c0,0.51,0,1.02,0,1.53c-0.01,0.21,0.04,0.4,0.13,0.58c0.06,0.19,0.16,0.35,0.31,0.48
				c0.14,0.15,0.3,0.25,0.48,0.31c0.18,0.09,0.37,0.14,0.58,0.13c0.13-0.02,0.27-0.04,0.4-0.05c0.25-0.07,0.47-0.2,0.66-0.39
				c0.27-0.29,0.44-0.65,0.44-1.06c0-0.51,0-1.02,0-1.53c0.01-0.21-0.04-0.4-0.13-0.58c-0.06-0.19-0.16-0.35-0.31-0.48
				c-0.14-0.15-0.3-0.25-0.48-0.31c-0.18-0.09-0.37-0.14-0.58-0.13c-0.13,0.02-0.27,0.04-0.4,0.05c-0.25,0.07-0.47,0.2-0.66,0.39
				C2152.83-128.17,2152.66-127.81,2152.66-127.41L2152.66-127.41z"/>
		</g>
	</g>
	<g>
		<g>
			<path class="st8" d="M2157.21-128.59c0.01,0.01,0.02,0.03,0.04,0.04c-0.08-0.1-0.16-0.2-0.23-0.3c0.24,0.32,0.44,0.66,0.6,1.03
				c-0.05-0.12-0.1-0.24-0.15-0.36c0.17,0.4,0.28,0.82,0.34,1.26c-0.02-0.13-0.04-0.27-0.05-0.4c0.05,0.38,0.05,0.76,0.01,1.13
				c-0.04,0.36,0.2,0.82,0.44,1.06c0.26,0.26,0.69,0.46,1.06,0.44c0.39-0.02,0.79-0.14,1.06-0.44c0.08-0.1,0.16-0.2,0.23-0.3
				c0.14-0.23,0.2-0.49,0.2-0.76c0.08-0.75,0-1.53-0.21-2.25c-0.12-0.4-0.28-0.8-0.47-1.18c-0.2-0.4-0.47-0.74-0.74-1.09
				c-0.22-0.28-0.72-0.44-1.06-0.44c-0.37,0-0.81,0.16-1.06,0.44c-0.26,0.29-0.46,0.66-0.44,1.06c0.02,0.13,0.04,0.27,0.05,0.4
				C2156.9-129,2157.03-128.78,2157.21-128.59L2157.21-128.59z"/>
		</g>
	</g>
	<path class="st10" d="M2058.29-274.78c-12.82,8.94-94,84-101,114c-2,5,9.6,31.37,11,31c0.08-0.02,0.11-0.11,0.12-0.15
		c0.66-2.62-54.89-18.44-44.12-91.85"/>
	<path class="st36" d="M2198.76,61.61c-3.39-11.02-17.16-16.07-26.97-15.89c-22.05,0.42-41.46,27.71-36,40
		c5.67,12.76,40.77,15.35,55.97-1.11C2192.63,83.67,2202.25,72.94,2198.76,61.61z"/>
	<path class="st1" d="M2130.29,2.22"/>
	<path class="st1" d="M2130.29-6.78"/>
	<path class="st1" d="M2134.29-7.78"/>
	<path class="st37" d="M2171.29-14.78"/>
	<g>
		<path class="st38" d="M2237.38,64.64c-8.04,8.9-15.93,17.94-23.65,27.12"/>
		<g>
			<path class="st38" d="M2236.32,63.58c-8.04,8.9-15.93,17.94-23.65,27.12c-1.24,1.47,0.88,3.6,2.12,2.12
				c7.72-9.18,15.6-18.22,23.65-27.12C2239.73,64.27,2237.61,62.15,2236.32,63.58L2236.32,63.58z"/>
		</g>
	</g>
	<path class="st28" d="M1936-115.04c2.93-18.49,11.17-51.8,38-78.78c54.31-54.63,162.63-61.1,209-4.49
		c25.91,31.63,24.39,73.1,22,93.27c10.99-14.15,45.25-61.99,42.72-129.74c-1.59-42.71-17.11-74.73-26.72-91.26
		c-27.87-11.62-69.04-24.71-120-27c-91.8-4.13-161.44,29.21-193,47c-5.42,21.45-11.98,59.19-4,105
		C1910.76-162.23,1925.3-132.92,1936-115.04z"/>
	<path class="st39" d="M2127.15,14.57c11.67,2.67,23.33,5.33,35,8c-11.67,19-23.33,38-35,57c-16.12,19.24-39.13,22.57-66,17
		c-16.03-0.62-30.02-9.73-43-23c-12.59-10.62-21.9-29.55-31-49c12.33-3,27-8,37-9c1.96,14.23,6.69,28.69,22,44
		c3.9,1.62,29.25,11.68,52-1c1.94-1.08,10.72-6.15,18.21-16.54C2124.24,31.07,2126.43,20.13,2127.15,14.57z"/>
	<path class="st36" d="M1962.15,34.57c-4.18-2.8-7.09-8.99-5-13c2.53-4.84,11.42-4.69,17-2c3.79,1.83,8.77,6.13,8,10
		C1981.1,34.87,1969.28,39.33,1962.15,34.57z"/>
	<g>
		<path class="st11" d="M2189.29,50.91c-16.55,13.03-32.66,26.63-48.28,40.77"/>
	</g>
	<g>
		<path class="st38" d="M1980.06,60.15c4.25,6.89,9.5,13.15,15.53,18.53"/>
		<g>
			<path class="st38" d="M1978.76,60.91c4.33,6.99,9.64,13.35,15.77,18.84c1.43,1.28,3.56-0.83,2.12-2.12
				c-5.95-5.32-11.1-11.44-15.3-18.23C1980.34,57.75,1977.74,59.26,1978.76,60.91L1978.76,60.91z"/>
		</g>
	</g>
	<path class="st36" d="M2165.37,31.06h30v-8c-8.67-1-17.33-2-26-3C2168.03,23.72,2166.7,27.39,2165.37,31.06z"/>
	<path class="st28" d="M1917.63-305.66c4-0.59,12.27,3.88,12.77,9.13c0.12,1.2-0.1,2.49-0.77,3.87c-39.97,82.53,43.81,234.33,49,235
		c0.24,0.03,2.59,0.32,2.58,0.57c-0.03,0.65-15.83,0.74-19.58,0.43c-30.47-2.53-61.47-97.85-58-191
		C1903.93-255.65,1905.99-303.96,1917.63-305.66z"/>
	<path class="st28" d="M2217-321.04c-6.9,0.1-12.77,21.68-21,20c-2.46-0.5-4.62-2.73-5-5c-0.71-4.25,4.6-9.73,14-13l0,0l0,0l4,5
		c5.09,6.31,11.82,16.26,16.28,29.83c2.68,8.15,3.86,15.56,4.36,21.55c1.37,11.37,0.61,19.52-0.38,35.41
		c-1.35,21.66-5.42,49.36-16.62,88.59c0,0-17.85,82.29-40.93,85.6c-0.29,0.04-2.59,0.34-2.58,0.57c0.04,0.87,27.12,0.38,29.58-0.57
		c36.59-14.03,43.74-109.95,44.54-124.25C2247.58-254.99,2229.13-321.21,2217-321.04z"/>
	<path class="st28" d="M2218.63-308.66c-8.38-2.54-16.3,4.18-23,8c-6.4,3.65,26.08,26.11,27,74c0.07,3.59,6.79,2.51,10,1
		C2248.54-233.16,2243.42-301.15,2218.63-308.66z"/>
	<path class="st40" d="M2119.13-14.16c-22.32,24.48-73.81,24.93-94,2c-32.47-36.89,17.25-132.94,51-132
		C2108.39-143.26,2154.53-52.99,2119.13-14.16z"/>
	<path class="st28" d="M2118.13,100.84c34.08-16.12,66.76-54.68,58-80c-16.29-47.06-178.25-55.32-200-9
		c-11.48,24.46,14.99,66.54,48,86C2067.92,123.65,2112.65,103.43,2118.13,100.84z"/>
	<path class="st31" d="M2002.13-6.16c-22.04-0.49-39.38-16.25-57.5-29.5"/>
	<path class="st31" d="M2151.9-11.08c22.04-0.49,39.38-16.25,57.5-29.5"/>
	<path class="st31" d="M1911.13-274.16c16.11,1.01,42.92,0.5,73-11c18.54-7.09,32.86-16.26,43-24"/>
	<path class="st31" d="M2105.13-331.16c15.7-2.26,51.34-5.05,88,14c14.24,7.4,25.1,16.26,33,24"/>
	<path class="st41" d="M1899.63-241.66c25.09-15.91,68.59-38.75,127-47c91.46-12.91,162.91,17.96,191,32"/>
	<path class="st29" d="M1947.13,2.84c-17.78,12.48-31.91,29.65-42,52c20.32,15.79,84.94,61.85,180,63.7
		c94.06,1.83,159.9-40.75,181-55.7c-3.28-22.05-34.4-40.75-61-60"/>
	<path class="st31" d="M2214.13,84.84c-1.52-13.41-56.96-26-100-9c-24.51,9.68-54.75,32.82-51.95,39c0.25,0.56,0.72,0.86,0.95,1
		C2074.31,122.77,2216.63,106.74,2214.13,84.84z"/>
	<path class="st31" d="M2194.13,9.84c-14.63,16.94-40.75,22.95-70,26c0,0,16.52,8.28,48,10"/>
	<path class="st31" d="M1951.13,13.84c16.48,15.11,39.82,27.46,80,33"/>
	<g>
		<circle class="st36" cx="2075.63" cy="-30.66" r="61"/>
		<path class="st11" d="M2019.52-30.66c-2,32.21,23.05,61.29,56.12,60.43c23.57-0.13,45.7-16.05,52.94-38.5
			c14.47-45.15-28.57-85.72-72.63-69.46C2035.99-71.27,2020.38-52.27,2019.52-30.66L2019.52-30.66z M2009.75-30.66
			c-2.04-37.44,27.5-71.46,65.88-70.87c38.08,0.16,69.06,32.84,66.38,70.87c-1.42,25.48-18.76,48.75-42.59,57.45
			C2059.42,42.16,2011.42,13.12,2009.75-30.66L2009.75-30.66z"/>
	</g>
	<circle class="st16" cx="2076.13" cy="-27.16" r="6"/>
	<line class="st1" x1="2042.09" y1="-62.21" x2="2063.18" y2="-41.12"/>
	<line class="st1" x1="2059.63" y1="-27.16" x2="2024.63" y2="-27.16"/>
	<line class="st1" x1="2077.13" y1="-43.66" x2="2077.13" y2="-71.66"/>
	<line class="st1" x1="2077.13" y1="19.34" x2="2077.13" y2="-8.66"/>
	<line class="st1" x1="2042.25" y1="8.26" x2="2063.35" y2="-12.83"/>
	<line class="st1" x1="2090.25" y1="-15.82" x2="2111.35" y2="5.28"/>
	<line class="st1" x1="2090.25" y1="-39.72" x2="2111.35" y2="-60.82"/>
	<line class="st1" x1="2128.63" y1="-27.16" x2="2093.63" y2="-27.16"/>
	<path class="st17" d="M2142.13-43.16c-15.58-57.16-44.29-102.06-66-101c-23.35,1.15-59.15,44.42-66,99c-13.7-1.8-33.46-6.82-49-22
		c-37.65-36.79-28.94-112.22,6.36-153.38c50.59-58.97,162.7-55.68,211,5c35.48,44.57,39.13,123.38,0.64,156.38
		C2167.09-48.84,2153.05-44.82,2142.13-43.16z"/>
	<path class="st17" d="M2139.13-30.16c-6.37-68.67-40.25-116.7-63-114c-25.77,3.06-63.87,47.6-64,112
		c-16.98-1.39-41.38-6.46-60.44-24.37c-44.46-41.77-36.01-130.94,7.8-180.01c56.39-63.16,173.28-62.01,228,3
		c45.23,53.73,45.56,148.22-0.8,185.63C2171.63-35.75,2153.9-31.46,2139.13-30.16z"/>
	<g>
		<path class="st14" d="M2101.58-143.33c-2.37-4.12-2.13-8.19-1.93-11.53c0.09-1.51,0.66-11.17,6.75-16.91
			c11.57-10.91,45.46-9.98,57.88,5.38c5.58,6.9,7.7,17.8,0.96,26.14c-9.27,11.48-28.98,10.29-33.77,9.99
			C2128.82-130.42,2108.14-131.9,2101.58-143.33z"/>
		<path class="st15" d="M2169.03-138.58c0.37-2.46,2.7-19.66-10-31.15c-15.64-14.15-44.75-11.19-56,1.83c-2.9,3.36-4.3,7.02-5,10.08
			"/>
		<circle class="st16" cx="2128.28" cy="-155.83" r="12.25"/>
		<circle class="st14" cx="2134.06" cy="-159.46" r="4.76"/>
		<path class="st14" d="M2039.1-144.74c2.37-4.12,2.13-8.19,1.93-11.53c-0.09-1.51-0.66-11.17-6.75-16.91
			c-11.57-10.91-45.46-9.98-57.88,5.38c-5.58,6.9-7.7,17.8-0.96,26.14c9.27,11.48,28.98,10.29,33.77,9.99
			C2011.86-131.83,2032.53-133.32,2039.1-144.74z"/>
		<circle class="st16" cx="2012.4" cy="-157.24" r="12.25"/>
		<circle class="st14" cx="2018.62" cy="-160.88" r="4.76"/>
		<path class="st1" d="M1978.52-138.51c3.03,1.51,28.63,13.79,50,1c5.27-3.15,9.16-7.16,12-11"/>
		<path class="st17" d="M2028.03-194.58c-23.83-0.75-45.82,3.13-65,14"/>
		<path class="st17" d="M2110.07-194.59c23.83-0.75,45.82,3.13,65,14"/>
		<path class="st15" d="M1970.89-141.36c-0.37-2.46-2.7-19.66,10-31.15c15.64-14.15,44.75-11.19,56,1.83c2.9,3.36,4.3,7.02,5,10.08"
			/>
		<path class="st1" d="M2162.27-136.59c-3.03,1.51-28.63,13.79-50,1c-5.27-3.15-9.16-7.16-12-11"/>
	</g>
	<path class="st42" d="M2141.55-43.46c-15.58-57.16-44.29-102.06-66-101c-23.35,1.15-59.15,44.42-66,99
		c-14.38-1.93-33.63-7.22-49-22c-36.85-35.44-30.59-105.36-1.05-144.08c47.48-62.23,167.82-60.49,217,2
		c33.07,42.02,38.85,117.74,2.05,150.08C2171.14-52.95,2159.61-46.09,2141.55-43.46z"/>
	<path class="st43" d="M2084.5-144.54c34.23,19.1,34.33,46.19,42,53c1.03,0.92,15.91,9.37,29.77,4.5
		c21.66-7.61,32.13-44.76,24.23-70.5c-11.16-36.36-79.04-118.56-103.53,7.69C2076.4-146.91,2080.16-146.96,2084.5-144.54z"/>
	<path class="st43" d="M2058.5-140.54c-9.19,9.33-15.61,17.65-21,25c-17.28,23.58-14.45,24.16-20,28
		c-9.42,6.52-23.54,9.04-34.48,4.8c-22.82-8.85-31.84-45.69-24.23-70.5c11.16-36.36,79.04-118.56,103.53,7.69
		c0.13,0.69-0.08,1.31-0.08,1.31C2061.32-143.36,2060.03-142.09,2058.5-140.54z"/>
	<path class="st44" d="M2062.5-141.54c-4.45-36.41-19.6-66.98-40-71c-31.1-6.13-74.07,49.64-65,92c3.3,15.41,15.21,37.19,32,40
		c13.01,2.18,27.23-11.29,28-4c0.45,4.23-4.04,25.49-7,33c-5.4,13.7-47.18-8.5-64-35c-25.09-39.52-11.06-102.71,26-139
		c35.62-34.88,82.38-34.97,98-35c15.43-0.03,65.55-0.13,103,39c2.45,2.56,34.15,36.67,35,86c0.33,18.97-4.03,33.23-6,39
		c-3.56,10.45-10.45,29.8-29,43c-7.8,5.55-21.11,17-31,10c-10.12-7.16-12.01-44.62-15-45c-6.27-0.8,16.77,7.15,30-9
		c13-15.86,18.51-37.55,19-45c1.4-21.18-5.68-56.27-33-69c-2.94-1.37-16.81-7.82-32-3c-14.48,4.59-34.68,30.22-35,69"/>
</g>
</svg>
