<?xml version="1.0" encoding="utf-8"?>
<!-- Generator: Adobe Illustrator 28.3.0, SVG Export Plug-In . SVG Version: 6.00 Build 0)  -->
<svg version="1.1" id="Layer_1" xmlns="http://www.w3.org/2000/svg" xmlns:xlink="http://www.w3.org/1999/xlink" x="0px" y="0px"
	 viewBox="0 0 853.12 682.29" style="enable-background:new 0 0 853.12 682.29;" xml:space="preserve">
<style type="text/css">
	.st0{fill:#FEE3CB;}
	.st1{fill:#FEE3CB;stroke:#010101;stroke-miterlimit:10;}
</style>
<g>
	<g>
		<path class="st0" d="M216.78,295.02c-4.91-18.4-21.58-36.03-32.79-33.37c-14.34,3.4-16.47,39.18-17.71,59.87
			c-0.99,16.53-4.81,88.27,28.5,104.5c1.9,0.93,10.53,5.13,16.5,1.5c13.3-8.09-8.26-41.9,0.5-91.5
			C215.19,316.71,220.64,309.48,216.78,295.02z"/>
		<path class="st1" d="M214.78,423.02c0,0,27,14,33,14c1.71-1.44,2.01-4.02,1.86-6.32c0,0,0.03-2.36-0.86-4.68c-1.55-4-13-9-13-9
			c-7.72-3.34-10.71-3.63-13-7c-1.45-2.13-2-6-2-6"/>
		<path class="st1" d="M181.49,259.15c-9.28,14.14-19.96,33.71-27.63,58.48c-4.55,14.68-7.13,28.21-8.57,39.89
			c0,0,20.29,46.84,28,71l71,19c0.47-2,0.59-3.84,0.5-5.5c-0.9-16.92-24.34-26.9-27-28"/>
		<path class="st1" d="M220.78,295.02c4,29-1,61-1,61c1.23,15.69,2.5,31.33,8,41c-1.73,6.5-7.11,7.99-15,6
			c-6.77-5.51-11.2-22.27-15-42c0,0-19.21-9.78-19.43-9.37c-0.02,0.04,0.12,0.16,0.43,0.37"/>
		<path class="st1" d="M173.78,363.02c7.12,15,13.28,30,18,45"/>
	</g>
	<g>
		<path class="st0" d="M636.34,304.02c4.91-18.4,21.58-36.03,32.79-33.37c14.34,3.4,16.47,39.18,17.71,59.87
			c0.99,16.53,4.81,88.27-28.5,104.5c-1.9,0.93-10.53,5.13-16.5,1.5c-13.3-8.09,8.26-41.9-0.5-91.5
			C637.93,325.72,632.48,318.48,636.34,304.02z"/>
		<path class="st1" d="M638.34,432.02c0,0-27,14-33,14c-1.71-1.44-2.01-4.02-1.86-6.32c0,0-0.03-2.36,0.86-4.68c1.55-4,13-9,13-9
			c7.72-3.34,10.71-3.63,13-7c1.45-2.13,2-6,2-6"/>
		<path class="st1" d="M671.63,268.15c9.28,14.14,19.96,33.71,27.63,58.48c4.55,14.68,7.13,28.21,8.57,39.89c0,0-20.29,46.84-28,71
			l-71,19c-0.47-2-0.59-3.84-0.5-5.5c0.9-16.92,24.34-26.9,27-28"/>
		<path class="st1" d="M632.34,304.02c-4,29,1,61,1,61c-1.23,15.69-2.5,31.33-8,41c1.73,6.5,7.11,7.99,15,6
			c6.77-5.51,11.2-22.27,15-42c0,0,19.21-9.78,19.43-9.37c0.02,0.04-0.12,0.16-0.43,0.37"/>
		<path class="st1" d="M679.34,372.02c-7.12,15-13.28,30-18,45"/>
	</g>
</g>
</svg>
