<?xml version="1.0" encoding="utf-8"?>
<!-- Generator: Adobe Illustrator 28.3.0, SVG Export Plug-In . SVG Version: 6.00 Build 0)  -->
<svg version="1.1" id="Layer_1" xmlns="http://www.w3.org/2000/svg" xmlns:xlink="http://www.w3.org/1999/xlink" x="0px" y="0px"
	 viewBox="0 0 853.12 682.29" style="enable-background:new 0 0 853.12 682.29;" xml:space="preserve">
<style type="text/css">
	.st0{fill:none;stroke:#010101;stroke-miterlimit:10;}
	.st1{fill:#FEE3CB;stroke:#010101;stroke-miterlimit:10;}
	.st2{fill:#FAB895;}
	.st3{fill:#332C26;}
	.st4{fill:#332C26;stroke:#010101;stroke-miterlimit:10;}
	.st5{fill:#010101;}
	.st6{fill:none;stroke:#FAB895;stroke-miterlimit:10;}
	.st7{fill:#FAB895;stroke:#010101;stroke-width:0.5;stroke-miterlimit:10;}
	.st8{fill:#FFFFFF;}
	.st9{fill:none;stroke:#010101;stroke-width:4;stroke-miterlimit:10;}
	.st10{fill:#010101;stroke:#010101;stroke-miterlimit:10;}
	.st11{fill:none;stroke:#010101;stroke-width:3;stroke-miterlimit:10;}
	.st12{fill:#FFFFFF;stroke:#010101;stroke-miterlimit:10;}
</style>
<path class="st0" d="M100.77-0.55L100.77-0.55L100.77-0.55z"/>
<g>
	<path class="st1" d="M490.68,425.19c2.63,23.55-6,13-8,90c-2.94,9.27-8.97,25.81-22,43c-10.02,13.22-18.65,24.6-30,25
		c-18.93,0.66-33.56-29.65-40-43c-13.52-28-6-64-11-106C400.72,407.95,448.36,401.28,490.68,425.19z"/>
	<g>
		<path class="st2" d="M382.18,433.69c11.99-6.42,36.45-17.3,68.33-16.11c16.83,0.63,30.72,4.43,40.67,8.11c-2,15-4,30-6,45
			c0,0-23.03,18.75-36.31,22.96c-17.24,5.47-32.91,4.91-46.59,4.21c-8.43-0.43-15.37-1.39-20.1-2.18"/>
	</g>
	<path class="st3" d="M579.68,316.19c5.54-8.08,19.24-30.37,20-60.38c1.13-44.78-26.96-90.63-65.69-110.21
		c-46.13-23.34-120.47-19.35-100.31-20.41c19-1,27.61-47.69,26-49c-1.54-1.25-23.69,27.21-41,42c-95-31-190.25,20.96-190,18
		c0.26-3.11,91.95-4.31,148.51,9.88c0.18,0.05,0.31,0.08,0.49,0.12c-11.66-5.32-27.47-9.8-45-7c-37.09,5.91-68.24,42.16-77,91
		c1.39,26.89,8.7,77.86,47,115C379.35,419.54,529.52,389.35,579.68,316.19z"/>
	<path class="st1" d="M277.68,307.19c-10.38,4.58-10.06,25.47-10,28c1.09,43.16,55.54,68.45,59,70c12.05,5.4,24.6,11.04,30,6
		c10.43-9.73-12.72-52.96-40-81C307.28,320.53,289.31,302.06,277.68,307.19z"/>
	<path class="st1" d="M581.1,307.63c10.38,4.58,10.06,25.47,10,28c-1.09,43.16-55.54,68.45-59,70c-12.05,5.4-24.6,11.04-30,6
		c-10.43-9.73,12.72-52.96,40-81C551.5,320.97,569.47,302.5,581.1,307.63z"/>
	<path class="st1" d="M303.68,292.19c3,48,28,110,28,110s9,45,99,83c15.38-5.65,63.48-25.54,97-78c21-54,31.35-104.69,30-121
		c-9.02-56.66-54.24-130.14-123-132C362.45,152.24,311.31,230.59,303.68,292.19z"/>
	<path class="st4" d="M409.68,223.19c-7,66-29,96-29,96s56-29,45-39c1.76,1.49-14,45-32,55c4.73,6.17,28.68-0.81,44-13
		c43.35-34.5,25.69-117.12,23-129"/>
	<path class="st4" d="M440.68,209.19c14.01,28.85,62.09,68.06,100.58,100.55c6.89,5.82-1.42,24.24-12.58,42.45
		c3.27,3.09,12.2-1.57,14.1-2.56c14.74-7.68,24.59-25.25,24.9-47.44"/>
	<path class="st0" d="M303.68,342.07"/>
	<path class="st3" d="M568.68,296.19c16.73-14.19-7.66-108.46-76-144c-65.01-33.81-154.86-6.63-191,51
		c-20.8,33.16-27.38,81.62-11,92c28.84,18.27,125.02-83.91,136.5-72.5c4.98,4.95-11.12,26.16-4.5,32.5
		c7.01,6.71,25.92-16.2,49.5-12.5c23.3,3.66,24.19,29.06,59,46C540.68,293.31,560.63,303.02,568.68,296.19z"/>
	<g>
		<g>
			<path class="st5" d="M410.06,222.32c0.78-3.65,1.16-7.39,1.13-11.12c-0.01-1.07-1.29-1.96-2.26-1.3
				c-3.41,2.35-6.52,5.1-9.24,8.23c-0.53,0.61-0.6,1.52,0,2.12c0.54,0.54,1.59,0.61,2.12,0c2.55-2.93,5.44-5.55,8.63-7.76
				c-0.75-0.43-1.5-0.86-2.26-1.3c0.04,3.47-0.3,6.93-1.02,10.33c-0.17,0.79,0.23,1.62,1.05,1.85
				C408.96,223.57,409.89,223.12,410.06,222.32L410.06,222.32z"/>
		</g>
	</g>
	<g>
		<path class="st5" d="M467.12,239.29c-0.74,0.01-0.84-7.33-3.11-21.84c-1.42-9.13-2.97-16.61-4.1-21.68
			c2.72,4.55,6.13,11.49,7.76,20.42C469.87,228.19,468.03,239.27,467.12,239.29z"/>
		<g>
			<path class="st5" d="M467.12,237.79c0.38,0.04,1.05,0.54,1.12,0.59c0.02,0.01,0.09,0.37,0.07,0.15c-0.02-0.19-0.1-0.39-0.14-0.58
				c-0.16-0.76-0.17-1.05-0.26-1.76c-0.28-2.33-0.51-4.67-0.79-7.01c-0.92-7.81-2.12-15.58-3.59-23.3
				c-0.67-3.51-1.39-7.02-2.17-10.51c-0.91,0.39-1.83,0.77-2.74,1.16c4.15,6.98,6.96,14.7,8.04,22.76
				c0.58,4.34,0.71,8.76,0.39,13.12c-0.1,1.42-0.25,2.85-0.53,4.25c-0.1,0.47-0.21,0.94-0.35,1.4c-0.1,0.32-0.1,0.12-0.06,0.19
				c-0.02,0.05-0.05,0.1-0.08,0.14c0.16-0.27,0.39-0.44,0.7-0.54c-1.9,0.33-1.09,3.23,0.8,2.89c1.53-0.27,1.81-2.79,2.02-3.96
				c0.52-3.01,0.68-6.08,0.67-9.12c-0.03-7.98-1.44-15.95-4.42-23.36c-1.29-3.21-2.82-6.31-4.58-9.28
				c-0.89-1.49-3.11-0.49-2.74,1.16c1.69,7.58,3.12,15.21,4.29,22.89c0.93,6.14,1.48,12.32,2.32,18.47c0.19,1.35,0.34,3.1,2.04,3.27
				C469.04,240.98,469.03,237.97,467.12,237.79z"/>
		</g>
	</g>
	<g>
		<g>
			<path class="st5" d="M573.28,297.13c0-3.52,0-7.03,0-10.55c0-0.81-0.69-1.5-1.5-1.5s-1.5,0.69-1.5,1.5c0,3.52,0,7.03,0,10.55
				c0,0.81,0.69,1.5,1.5,1.5S573.28,297.94,573.28,297.13L573.28,297.13z"/>
		</g>
	</g>
	<g>
		<g>
			<path class="st5" d="M342.49,142.34c9.05-0.66,18.17-0.34,27.14,1.02c1.89,0.29,2.7-2.6,0.8-2.89c-9.25-1.4-18.6-1.81-27.94-1.13
				C340.57,139.48,340.56,142.48,342.49,142.34L342.49,142.34z"/>
		</g>
	</g>
	<g>
		<g>
			<path class="st5" d="M451.25,183.48c-1.68-3.47-4.81-6.12-8.44-7.34c-0.74-0.25-1.67,0.29-1.85,1.05
				c-0.19,0.83,0.25,1.58,1.05,1.85c0.2,0.07,0.4,0.14,0.59,0.21c0.16,0.06,0.2,0.06,0.01,0c0.1,0.03,0.22,0.09,0.31,0.14
				c0.38,0.18,0.76,0.37,1.12,0.58c0.35,0.2,0.68,0.42,1.01,0.66c0.08,0.06,0.15,0.11,0.23,0.17c0.31,0.23-0.24-0.2,0.06,0.05
				c0.16,0.13,0.32,0.27,0.48,0.41c0.3,0.27,0.59,0.55,0.86,0.84c0.14,0.15,0.28,0.31,0.42,0.47c0.06,0.07,0.12,0.15,0.18,0.22
				c0.04,0.05,0.3,0.33,0.05,0.06c0.55,0.59,0.96,1.43,1.31,2.15c0.34,0.71,1.41,0.95,2.05,0.54
				C451.44,185.06,451.61,184.23,451.25,183.48L451.25,183.48z"/>
		</g>
	</g>
	<g>
		<g>
			<path class="st5" d="M533.43,183.18c8.24,14.54,15.54,29.59,21.83,45.07c0.72,1.77,3.62,0.99,2.89-0.8
				c-6.38-15.72-13.76-31.02-22.13-45.79C535.07,179.99,532.47,181.5,533.43,183.18L533.43,183.18z"/>
		</g>
	</g>
	<g>
		<g>
			<path class="st5" d="M286.85,243.85c0.55-4.03,2.17-7.72,3.86-11.38c1.77-3.84,3.6-7.66,5.48-11.45
				c3.72-7.51,7.64-14.92,11.75-22.23c0.95-1.68-1.64-3.2-2.59-1.51c-4.19,7.44-8.18,15-11.97,22.66c-1.87,3.79-3.7,7.61-5.47,11.46
				c-1.72,3.74-3.4,7.55-3.96,11.67c-0.11,0.81,0.2,1.6,1.05,1.85C285.7,245.1,286.74,244.65,286.85,243.85L286.85,243.85z"/>
		</g>
	</g>
	<path class="st6" d="M279.68,321.19c-1.18,3.76-3.06,11.56-1,21c1.38,6.34,4.03,11.08,6,14"/>
	<path class="st6" d="M580.78,320.01c1.18,3.76,3.06,11.56,1,21c-1.38,6.34-4.03,11.08-6,14"/>
	<line class="st6" x1="436.68" y1="337.19" x2="423.68" y2="345.19"/>
	<line class="st6" x1="437.68" y1="342.19" x2="416.68" y2="355.19"/>
	<line class="st6" x1="442.68" y1="345.19" x2="415.68" y2="362.19"/>
	<line class="st6" x1="444.68" y1="351.19" x2="416.68" y2="368.19"/>
	<line class="st6" x1="447.68" y1="355.19" x2="418.68" y2="372.19"/>
	<path class="st7" d="M430.68,381.69c-0.17,4-0.33,8-0.5,12c-1.83-1.67-3.67-3.33-5.5-5"/>
	<g>
		<g>
			<path class="st2" d="M336.61,370.98c-0.61,0.82-1.22,1.63-1.83,2.45c-0.11,0.17-0.17,0.36-0.18,0.56c-0.04,0.2-0.04,0.4,0.03,0.6
				c0.1,0.35,0.36,0.73,0.69,0.9c0.35,0.18,0.77,0.28,1.16,0.15c0.12-0.05,0.24-0.1,0.36-0.15c0.23-0.13,0.4-0.31,0.54-0.54
				c0.61-0.82,1.22-1.63,1.83-2.45c0.11-0.17,0.17-0.36,0.18-0.56c0.04-0.2,0.04-0.4-0.03-0.6c-0.1-0.35-0.36-0.73-0.69-0.9
				c-0.35-0.18-0.77-0.28-1.16-0.15c-0.12,0.05-0.24,0.1-0.36,0.15C336.92,370.57,336.74,370.75,336.61,370.98L336.61,370.98z"/>
		</g>
	</g>
	<g>
		<g>
			<path class="st2" d="M340.56,373.71c-0.2,0.31-0.41,0.61-0.61,0.92c-0.11,0.17-0.17,0.36-0.18,0.56c-0.04,0.2-0.04,0.4,0.03,0.6
				c0.05,0.2,0.14,0.37,0.27,0.51c0.11,0.16,0.25,0.29,0.42,0.39c0.12,0.05,0.24,0.1,0.36,0.15c0.27,0.07,0.53,0.07,0.8,0
				c0.12-0.05,0.24-0.1,0.36-0.15c0.23-0.13,0.4-0.31,0.54-0.54c0.2-0.31,0.41-0.61,0.61-0.92c0.11-0.17,0.17-0.36,0.18-0.56
				c0.04-0.2,0.04-0.4-0.03-0.6c-0.05-0.2-0.14-0.37-0.27-0.51c-0.11-0.16-0.25-0.29-0.42-0.39c-0.12-0.05-0.24-0.1-0.36-0.15
				c-0.27-0.07-0.53-0.07-0.8,0c-0.12,0.05-0.24,0.1-0.36,0.15C340.87,373.31,340.69,373.49,340.56,373.71L340.56,373.71z"/>
		</g>
	</g>
	<g>
		<g>
			<path class="st2" d="M510.05,373.56c0,0.51,0,1.02,0,1.53c-0.01,0.21,0.04,0.4,0.13,0.58c0.06,0.19,0.16,0.35,0.31,0.48
				c0.14,0.15,0.3,0.25,0.48,0.31c0.18,0.09,0.37,0.14,0.58,0.13c0.13-0.02,0.27-0.04,0.4-0.05c0.25-0.07,0.47-0.2,0.66-0.39
				c0.27-0.29,0.44-0.65,0.44-1.06c0-0.51,0-1.02,0-1.53c0.01-0.21-0.04-0.4-0.13-0.58c-0.06-0.19-0.16-0.35-0.31-0.48
				c-0.14-0.15-0.3-0.25-0.48-0.31c-0.18-0.09-0.37-0.14-0.58-0.13c-0.13,0.02-0.27,0.04-0.4,0.05c-0.25,0.07-0.47,0.2-0.66,0.39
				C510.22,372.79,510.05,373.15,510.05,373.56L510.05,373.56z"/>
		</g>
	</g>
	<g>
		<g>
			<path class="st2" d="M514.6,372.37c0.01,0.01,0.02,0.03,0.04,0.04c-0.08-0.1-0.16-0.2-0.23-0.3c0.24,0.32,0.44,0.66,0.6,1.03
				c-0.05-0.12-0.1-0.24-0.15-0.36c0.17,0.4,0.28,0.82,0.34,1.26c-0.02-0.13-0.04-0.27-0.05-0.4c0.05,0.38,0.05,0.76,0.01,1.13
				c-0.04,0.36,0.2,0.82,0.44,1.06c0.26,0.26,0.69,0.46,1.06,0.44c0.39-0.02,0.79-0.14,1.06-0.44c0.08-0.1,0.16-0.2,0.23-0.3
				c0.14-0.23,0.2-0.49,0.2-0.76c0.08-0.75,0-1.53-0.21-2.25c-0.12-0.4-0.28-0.8-0.47-1.18c-0.2-0.4-0.47-0.74-0.74-1.09
				c-0.22-0.28-0.72-0.44-1.06-0.44c-0.37,0-0.81,0.16-1.06,0.44c-0.26,0.29-0.46,0.66-0.44,1.06c0.02,0.13,0.04,0.27,0.05,0.4
				C514.28,371.96,514.41,372.18,514.6,372.37L514.6,372.37z"/>
		</g>
	</g>
	<path class="st4" d="M415.68,226.19c-12.82,8.94-94,84-101,114c-2,5,9.6,31.37,11,31c0.08-0.02,0.11-0.11,0.12-0.15
		c0.66-2.62-54.89-18.44-44.12-91.85"/>
	<path class="st0" d="M487.68,494.19"/>
	<g>
		<path class="st8" d="M459.99,356.79c-2.37-4.12-2.13-8.19-1.93-11.53c0.09-1.51,0.66-11.17,6.75-16.91
			c11.57-10.91,45.46-9.98,57.88,5.38c5.58,6.9,7.7,17.8,0.96,26.14c-9.27,11.48-28.98,10.29-33.77,9.99
			C487.24,369.7,466.56,368.21,459.99,356.79z"/>
		<path class="st9" d="M527.45,361.54c0.37-2.46,2.7-19.66-10-31.15c-15.64-14.15-44.75-11.19-56,1.83c-2.9,3.36-4.3,7.02-5,10.08"
			/>
		<circle class="st10" cx="486.7" cy="344.29" r="12.25"/>
		<circle class="st8" cx="492.47" cy="340.65" r="4.76"/>
		<path class="st8" d="M397.52,355.37c2.37-4.12,2.13-8.19,1.93-11.53c-0.09-1.51-0.66-11.17-6.75-16.91
			c-11.57-10.91-45.46-9.98-57.88,5.38c-5.58,6.9-7.7,17.8-0.96,26.14c9.27,11.48,28.98,10.29,33.77,9.99
			C370.27,368.28,390.95,366.8,397.52,355.37z"/>
		<circle class="st10" cx="370.81" cy="342.87" r="12.25"/>
		<circle class="st8" cx="377.04" cy="339.24" r="4.76"/>
		<path class="st0" d="M336.94,361.6c3.03,1.51,28.63,13.79,50,1c5.27-3.15,9.16-7.16,12-11"/>
		<path class="st11" d="M386.45,305.54c-23.83-0.75-45.82,3.13-65,14"/>
		<path class="st11" d="M468.49,305.52c23.83-0.75,45.82,3.13,65,14"/>
		<path class="st9" d="M329.3,358.76c-0.37-2.46-2.7-19.66,10-31.15c15.64-14.15,44.75-11.19,56,1.83c2.9,3.36,4.3,7.02,5,10.08"/>
		<path class="st0" d="M520.69,363.52c-3.03,1.51-28.63,13.79-50,1c-5.27-3.15-9.16-7.16-12-11"/>
	</g>
	<path class="st12" d="M474.04,427.66l-82.91,1.55c-7.95,1.53,11.95,29.49,48,25.19c25-2.98,40.45-23.45,36.61-26.32
		C475.23,427.71,474.04,427.66,474.04,427.66z"/>
</g>
</svg>
