<?xml version="1.0" encoding="utf-8"?>
<!-- Generator: Adobe Illustrator 28.3.0, SVG Export Plug-In . SVG Version: 6.00 Build 0)  -->
<svg version="1.1" id="Layer_1" xmlns="http://www.w3.org/2000/svg" xmlns:xlink="http://www.w3.org/1999/xlink" x="0px" y="0px"
	 viewBox="0 0 853.12 973.65" style="enable-background:new 0 0 853.12 973.65;" xml:space="preserve">
<style type="text/css">
	.st0{fill:none;stroke:#010101;stroke-miterlimit:10;}
	.st1{fill:#303F69;}
	.st2{fill:#303F69;stroke:#010101;stroke-miterlimit:10;}
	.st3{fill:#27345B;}
	.st4{fill:#27345B;stroke:#27345B;stroke-miterlimit:10;}
	.st5{fill:#25292E;}
</style>
<g>
	<path class="st0" d="M386.87,495.6"/>
	<g>
		<path class="st1" d="M538.82,133.35c1.96-4.29,6.31-15.17,1.38-22.05c-3.4-4.74-9.72-5.52-11.98-5.8
			c-54.87-6.94-12.26-12.05-90.68-13.56c-40.48-0.78-83.06-0.96-118.58,18.47c-1.8,0.98-3.64,2.08-4.69,3.84
			c-0.89,1.49-1.1,3.28-1.28,5.02c-3.14,30.51-3.29,61.33-0.43,91.87c0.78,8.37,1.82,16.83,4.83,24.68
			c4.34,11.31,12.51,20.66,20.51,29.75c3.94,4.47,8.06,9.08,13.52,11.46c6.31,2.74,13.48,2.14,20.35,2.42
			c10.01,0.41,19.83,2.81,29.79,3.85c9.96,1.05,20.5,0.62,29.29-4.19c5.89-3.23,10.6-8.21,15.19-13.11
			c13.19-14.04,26.4-28.12,38.09-43.43c4.17-5.47,8.16-11.11,12.94-16.05c5.42-5.6,11.8-10.25,16.83-16.21
			c6.23-7.37,10.11-16.39,13.9-25.26c3.64-8.52,8.12-20.32,11.8-35.05"/>
	</g>
	<path class="st2" d="M543.2,118.3c4.6,14.24,9.07,29.14,13.31,44.68c5.8,21.27,10.65,41.76,14.69,61.32l-8,311
		c-1.73,30.57-3.07,77.67,1,135c8.37,117.88,2.71,204.13,2.71,204.13s-36.39,18.21-92-2c-4.9-52.71-9.8-105.42-14.71-158.13l0,0
		c-3.43-62.29-6.86-124.58-10.29-186.87c-8.24-81.71-16.47-163.42-24.71-245.13l0,0c-17.67-0.67-35.33-1.33-53-2"/>
	<path class="st2" d="M311.2,117.3c-9,35.33-18,70.67-27,106c-0.47,103.5,5.73,207.29,10,311
		c-5.29,164.13-12.29,334.13-12.29,334.13s40.52,20.89,100,1c4.74-153.15,14.75-311.83,31.17-475.53
		c3.77-37.56,7.81-74.76,12.12-111.61c21.34-0.84,32.01-1.51,32-2c-0.01-0.74-24.68-1.08-74-1"/>
	<g>
		<path class="st3" d="M442.65,164.92c-2.48,35.13-4.97,70.25-7.45,105.38"/>
		<g>
			<path class="st3" d="M441.15,164.92c-1.93,27.34-3.87,54.68-5.8,82.02c-0.55,7.79-1.1,15.58-1.65,23.36c-0.14,1.93,2.86,1.92,3,0
				c1.93-27.34,3.87-54.68,5.8-82.02c0.55-7.79,1.1-15.58,1.65-23.36C444.29,162.99,441.29,163,441.15,164.92L441.15,164.92z"/>
		</g>
	</g>
	<g>
		<path class="st3" d="M411.66,167.78c-3.49,35.51-6.98,71.01-10.47,106.52"/>
		<g>
			<path class="st3" d="M410.16,167.78c-2.73,27.75-5.45,55.49-8.18,83.24c-0.76,7.76-1.53,15.52-2.29,23.29
				c-0.19,1.92,2.81,1.91,3,0c2.73-27.75,5.45-55.49,8.18-83.24c0.76-7.76,1.53-15.52,2.29-23.29
				C413.35,165.86,410.35,165.87,410.16,167.78L410.16,167.78z"/>
		</g>
	</g>
	<g>
		<path class="st3" d="M335.48,174.56c-0.95,11.6-1.9,23.2-2.86,34.79c-0.13,1.56-0.27,3.16-0.92,4.59
			c-1.24,2.72-3.46,4.14-4.01,4.51c-3.49,2.39-16.83,15.24-37.5,35.85"/>
		<g>
			<path class="st3" d="M333.98,174.56c-0.73,8.95-1.47,17.89-2.2,26.84c-0.18,2.24-0.37,4.47-0.55,6.71
				c-0.16,1.96-0.19,4.02-1.18,5.78c-0.9,1.61-2.25,2.6-3.68,3.68c-2.43,1.84-4.66,3.96-6.89,6.04c-3.92,3.65-7.76,7.37-11.59,11.11
				c-6.29,6.13-12.52,12.32-18.74,18.52c-1.37,1.36,0.75,3.49,2.12,2.12c9.75-9.72,19.5-19.48,29.55-28.89
				c2.33-2.18,4.66-4.42,7.18-6.39c-0.32,0.25,0.13-0.1,0.25-0.18c0.2-0.14,0.4-0.27,0.6-0.41c1.08-0.77,2.05-1.64,2.87-2.69
				c2.55-3.28,2.42-7.46,2.75-11.41c0.84-10.27,1.69-20.54,2.53-30.82C337.13,172.64,334.13,172.65,333.98,174.56L333.98,174.56z"/>
		</g>
	</g>
	<g>
		<path class="st3" d="M512.84,165.61c-0.05,8.17-0.09,16.34-0.14,24.51c-0.01,1.35,0.03,2.82,0.88,3.86
			c0.69,0.84,1.77,1.22,2.79,1.57c12.15,4.1,24.29,8.21,36.44,12.31"/>
		<g>
			<path class="st3" d="M511.34,165.61c-0.03,4.82-0.05,9.64-0.08,14.46c-0.01,2.45-0.03,4.9-0.04,7.35
				c-0.01,1.94-0.28,4.15,0.39,6.02c0.68,1.88,2.24,2.79,4.03,3.43c2.31,0.83,4.65,1.57,6.97,2.36c4.65,1.57,9.31,3.14,13.96,4.72
				c5.28,1.79,10.57,3.57,15.85,5.36c1.83,0.62,2.62-2.28,0.8-2.89c-8.76-2.96-17.51-5.92-26.27-8.87
				c-2.13-0.72-4.26-1.44-6.39-2.16c-1.1-0.37-2.21-0.75-3.31-1.12c-0.77-0.26-1.76-0.48-2.36-1.08c-1.21-1.2-0.68-3.99-0.67-5.52
				c0.01-2.21,0.03-4.41,0.04-6.62c0.03-5.15,0.06-10.3,0.09-15.44C514.35,163.68,511.35,163.67,511.34,165.61L511.34,165.61z"/>
		</g>
	</g>
	<path class="st4" d="M302.2,292.3c-2.46,55.32,2.87,127.32,16,216"/>
	<path class="st4" d="M321.2,577.3c-6.28,42.67-9.62,85.33-10,128"/>
	<g>
		<path class="st3" d="M546.2,299.3c-0.67,92.67-1.33,185.33-2,278"/>
		<path class="st3" d="M546.25,299.3c-0.03,90.33-0.87,187.61-2,278h-0.11C544.43,486.95,544.67,389.36,546.25,299.3L546.25,299.3z"
			/>
	</g>
	<path class="st4" d="M550.2,617.3c-3.38,36.31-6.95,69.93-11,97c-11.19,15.69-26.03,22.69-42,27"/>
	<g>
		<g>
			<path class="st5" d="M364.62,145.98c5.7,5.58,10.65,11.97,15.81,18.05c5.44,6.41,10.88,12.81,16.32,19.22
				c3.07,3.62,6.14,7.23,9.21,10.85c1.25,1.47,3.36-0.66,2.12-2.12c-10.83-12.75-21.66-25.5-32.49-38.25
				c-2.86-3.37-5.7-6.77-8.86-9.86C365.36,142.51,363.24,144.62,364.62,145.98L364.62,145.98z"/>
		</g>
	</g>
</g>
</svg>
