<?xml version="1.0" encoding="utf-8"?>
<!-- Generator: Adobe Illustrator 28.3.0, SVG Export Plug-In . SVG Version: 6.00 Build 0)  -->
<svg version="1.1" id="Layer_1" xmlns="http://www.w3.org/2000/svg" xmlns:xlink="http://www.w3.org/1999/xlink" x="0px" y="0px"
	 viewBox="0 0 853.12 973.65" style="enable-background:new 0 0 853.12 973.65;" xml:space="preserve">
<style type="text/css">
	.st0{fill:none;stroke:#010101;stroke-miterlimit:10;}
	.st1{fill:#436747;}
	.st2{fill:#010101;}
	.st3{fill:#436747;stroke:#010101;stroke-miterlimit:10;}
	.st4{fill:#21392C;}
	.st5{fill:#21392C;stroke:#21392C;stroke-miterlimit:10;}
</style>
<g>
	<path class="st0" d="M524.05,447.64"/>
	<g>
		<path class="st1" d="M535,161.38c1.96-4.29,6.31-15.17,1.38-22.05c-3.4-4.74-9.72-5.52-11.98-5.8
			c-54.87-6.94-12.26-12.05-90.68-13.56c-40.48-0.78-83.06-0.96-118.58,18.47c-1.8,0.98-3.64,2.08-4.69,3.84
			c-0.89,1.49-1.1,3.28-1.28,5.02c-3.14,30.51-3.29,61.33-0.43,91.87c0.78,8.37,1.82,16.83,4.83,24.68
			c4.34,11.31,12.51,20.66,20.51,29.75c3.94,4.47,8.06,9.08,13.52,11.46c6.31,2.74,13.48,2.14,20.35,2.42
			c10.01,0.41,19.83,2.81,29.79,3.85c9.96,1.05,20.5,0.62,29.29-4.19c5.89-3.23,10.6-8.21,15.19-13.11
			c13.19-14.04,26.4-28.12,38.09-43.43c4.17-5.47,8.16-11.11,12.94-16.05c5.42-5.6,11.8-10.25,16.83-16.21
			c6.23-7.37,10.11-16.39,13.9-25.26c3.64-8.52,8.12-20.32,11.8-35.05"/>
		<g>
			<path class="st2" d="M535.32,161.57c3.68-8.1,6.92-20.5-2.59-25.95c-3.79-2.17-8.17-2.42-12.39-3c-4.1-0.56-8.19-1.19-12.26-1.96
				c-4.58-0.87-9.17-1.91-13.54-3.56c-2.41-0.91-4.72-2.08-7.14-2.97c-3.44-1.27-7.08-1.89-10.7-2.36
				c-7.97-1.03-16.04-1.36-24.07-1.66c-13.33-0.5-26.68-0.77-40.02-0.77c-13.44,0-26.9,0.41-40.26,1.93
				c-13.09,1.5-26.1,4.08-38.54,8.47c-6.09,2.15-12.03,4.72-17.73,7.75c-2.45,1.3-5.16,2.68-6.35,5.34
				c-0.57,1.28-0.75,2.67-0.9,4.05c-0.21,1.94-0.39,3.88-0.57,5.82c-2.76,30.22-2.8,60.94,0.57,91.11
				c0.79,7.04,1.98,14.11,4.61,20.73c2.44,6.12,6,11.71,9.98,16.92c3.94,5.16,8.24,10.08,12.61,14.88
				c4.33,4.75,9.17,8.94,15.59,10.4c6.6,1.5,13.49,0.76,20.18,1.34c7.41,0.64,14.71,2.15,22.08,3.14
				c13.1,1.76,27.01,1.53,37.97-6.82c5.28-4.02,9.68-9.1,14.2-13.92c5.08-5.42,10.14-10.85,15.09-16.38
				c4.85-5.41,9.6-10.9,14.16-16.55c4.53-5.6,8.69-11.48,13.22-17.07c4.41-5.43,9.54-9.99,14.69-14.68
				c4.95-4.5,9.28-9.36,12.71-15.13c3.45-5.8,6.1-12.04,8.72-18.25c2.09-4.94,4.02-9.95,5.77-15.02c2.19-6.34,4.09-12.78,5.72-19.29
				c0.12-0.47-0.61-0.67-0.72-0.2c-2.97,11.85-6.86,23.45-11.65,34.69c-2.56,6.01-5.14,12.06-8.49,17.69
				c-3.47,5.85-7.9,10.72-12.92,15.27c-5,4.53-9.95,8.96-14.22,14.21c-4.4,5.39-8.41,11.09-12.77,16.51
				c-9,11.2-18.73,21.79-28.55,32.28c-4.53,4.84-8.94,9.96-14.08,14.19c-5.21,4.28-11.24,6.94-17.89,8.01
				c-13.96,2.25-27.78-1.89-41.59-3.29c-6.82-0.69-13.84,0.05-20.58-1.27c-6.69-1.31-11.64-5.47-16.11-10.38
				c-8.84-9.7-18.15-20.05-22.8-32.51c-2.5-6.7-3.59-13.81-4.33-20.88c-0.77-7.32-1.31-14.66-1.7-22.01
				c-0.79-14.82-0.88-29.68-0.26-44.51c0.31-7.41,0.79-14.82,1.45-22.21c0.16-1.81,0.33-3.61,0.51-5.42
				c0.18-1.83,0.28-3.79,1.13-5.46c1.47-2.86,5.09-4.28,7.8-5.67c11.54-5.88,23.96-9.85,36.63-12.41c25.71-5.21,52.17-4.9,78.27-4.4
				c11.19,0.22,22.39,0.47,33.56,1.25c5.3,0.37,10.68,0.79,15.88,1.96c5.64,1.27,10.68,4.21,16.23,5.78
				c6.08,1.72,12.35,2.74,18.6,3.65c4.08,0.59,8.41,0.74,12.31,2.15c2.64,0.95,5.08,2.57,6.58,4.98c1.44,2.31,1.9,5.06,1.82,7.75
				c-0.14,4.62-1.69,9.17-3.59,13.34C534.47,161.63,535.12,162.01,535.32,161.57L535.32,161.57z"/>
		</g>
	</g>
	<path class="st3" d="M540.37,151.33c4.6,14.24,9.07,29.14,13.31,44.68c5.8,21.27,10.65,41.76,14.69,61.32
		c-2.61,33.57-1.84,88.24-4,155.5c-8.23,255.9,26.72,395.77,13.84,448.12c-4.65,18.9-44.42,24.68-107,8
		c-3.96-152.12-15.8-311.25-37.84-476.37c-3.47-25.98-7.14-51.74-11-77.25c-17.67-0.67-35.33-1.33-53-2"/>
	<path class="st3" d="M308.37,150.33c-9,35.33-18,70.67-27,106c2.21,33.83,1.01,88.39,3.22,155.42
		c8.91,269.79-25.38,413.19-7.38,457.19c12.93,12.56,42.18,20.52,99,2c2.39-41.87,4.77-83.74,7.16-125.62
		c6.93-103.95,15.81-210.12,26.88-318.39c3.84-37.52,7.88-74.72,12.12-111.61c21.34-0.84,32.01-1.51,32-2
		c-0.01-0.74-24.68-1.08-74-1"/>
	<g>
		<path class="st4" d="M332.65,207.6c-0.95,11.6-1.9,23.2-2.86,34.79c-0.13,1.56-0.27,3.16-0.92,4.59
			c-1.24,2.72-3.46,4.14-4.01,4.51c-3.49,2.39-16.83,15.24-37.5,35.85"/>
		<g>
			<path class="st4" d="M331.15,207.6c-0.73,8.95-1.47,17.89-2.2,26.84c-0.18,2.24-0.37,4.47-0.55,6.71
				c-0.16,1.96-0.19,4.02-1.18,5.78c-0.9,1.61-2.25,2.6-3.68,3.68c-2.43,1.84-4.66,3.96-6.89,6.04c-3.92,3.65-7.76,7.37-11.59,11.11
				c-6.29,6.13-12.52,12.32-18.74,18.52c-1.37,1.36,0.75,3.49,2.12,2.12c9.75-9.72,19.5-19.48,29.55-28.89
				c2.33-2.18,4.66-4.42,7.18-6.39c-0.32,0.25,0.13-0.1,0.25-0.18c0.2-0.14,0.4-0.27,0.6-0.41c1.08-0.77,2.05-1.64,2.87-2.69
				c2.55-3.28,2.42-7.46,2.75-11.41c0.84-10.27,1.69-20.54,2.53-30.82C334.31,205.67,331.31,205.68,331.15,207.6L331.15,207.6z"/>
		</g>
	</g>
	<path class="st5" d="M299.37,325.33c-2.46,55.32,2.87,127.32,16,216"/>
	<path class="st5" d="M318.37,610.33c-6.28,42.67-9.62,85.33-10,128"/>
	<g>
		<path class="st4" d="M543.37,332.33c-0.67,92.67-1.33,185.33-2,278"/>
		<path class="st4" d="M543.43,332.33c-0.03,90.33-0.87,187.61-2,278h-0.11C541.6,519.99,541.84,422.39,543.43,332.33L543.43,332.33
			z"/>
	</g>
	<path class="st5" d="M547.37,650.33c-3.38,36.31-6.95,69.93-11,97c-11.19,15.69-26.03,22.69-42,27"/>
	<g>
		<path class="st4" d="M508.65,203.59c0.95,11.6,1.9,23.2,2.86,34.79c0.13,1.56,0.27,3.16,0.92,4.59c1.24,2.72,3.46,4.14,4.01,4.51
			c3.49,2.39,16.83,15.24,37.5,35.85"/>
		<g>
			<path class="st4" d="M507.15,203.59c0.75,9.11,1.5,18.23,2.24,27.34c0.19,2.32,0.38,4.64,0.57,6.96
				c0.16,1.93,0.29,3.87,1.09,5.66c1.03,2.32,2.79,3.91,4.81,5.36c0.1,0.07,0.49,0.37,0.35,0.26c-0.1-0.08,0.4,0.32,0.53,0.43
				c0.48,0.4,0.96,0.8,1.43,1.21c1.33,1.16,2.63,2.35,3.93,3.55c3.98,3.69,7.87,7.46,11.76,11.25c6.38,6.22,12.7,12.49,19,18.77
				c1.37,1.36,3.49-0.76,2.12-2.12c-9.61-9.58-19.21-19.18-29.1-28.47c-2.39-2.25-4.78-4.53-7.34-6.58
				c-1.04-0.84-2.19-1.53-3.12-2.5c-2.78-2.87-2.48-7.1-2.79-10.81c-0.83-10.11-1.66-20.21-2.49-30.32
				C509.99,201.68,506.99,201.66,507.15,203.59L507.15,203.59z"/>
		</g>
	</g>
</g>
</svg>
