<?xml version="1.0" encoding="utf-8"?>
<!-- Generator: Adobe Illustrator 28.3.0, SVG Export Plug-In . SVG Version: 6.00 Build 0)  -->
<svg version="1.1" id="Layer_1" xmlns="http://www.w3.org/2000/svg" xmlns:xlink="http://www.w3.org/1999/xlink" x="0px" y="0px"
	 viewBox="0 0 853.12 682.29" style="enable-background:new 0 0 853.12 682.29;" xml:space="preserve">
<style type="text/css">
	.st0{fill:#436747;stroke:#010101;stroke-miterlimit:10;}
	.st1{fill:#FEE3CB;stroke:#010101;stroke-miterlimit:10;}
	.st2{fill:#FAB895;}
	.st3{fill:#332C26;}
	.st4{fill:#332C26;stroke:#010101;stroke-miterlimit:10;}
	.st5{fill:none;stroke:#010101;stroke-miterlimit:10;}
	.st6{fill:#010101;}
	.st7{fill:none;stroke:#FAB895;stroke-miterlimit:10;}
	.st8{fill:#010101;stroke:#010101;stroke-miterlimit:10;}
	.st9{fill:#EF3F5B;}
	.st10{fill:#FFFFFF;stroke:#010101;stroke-miterlimit:10;}
	.st11{fill:#FAB895;stroke:#010101;stroke-width:0.5;stroke-miterlimit:10;}
	.st12{fill:#8EA2A9;}
	.st13{fill:#314E38;stroke:#010101;stroke-miterlimit:10;}
	.st14{fill:#5A7591;}
	.st15{fill:#436747;}
	.st16{fill:#010101;stroke:#010101;stroke-width:5;stroke-miterlimit:10;}
	.st17{fill:#5D7178;stroke:#010101;stroke-miterlimit:10;}
	.st18{fill:#21392C;stroke:#21392C;stroke-miterlimit:10;}
	.st19{fill:none;stroke:#21392C;stroke-width:3;stroke-miterlimit:10;}
	.st20{fill:none;stroke:#010101;stroke-width:3;stroke-miterlimit:10;}
	.st21{fill:#FFFFFF;}
	.st22{fill:none;stroke:#010101;stroke-width:4;stroke-miterlimit:10;}
	.st23{opacity:0.5;fill:#231F20;stroke:#010101;stroke-width:3;stroke-miterlimit:10;enable-background:new    ;}
	.st24{fill:none;stroke:#010101;stroke-width:7;stroke-miterlimit:10;}
	.st25{fill:#231F20;stroke:#010101;stroke-width:3;stroke-miterlimit:10;}
</style>
<g>
	<path class="st0" d="M544.49,517.97c14.8-39.75,25.52-73.72,32.93-98.92c32.15-109.4,30.82-151.86,29.37-171.18
		c-1.9-25.25-6.62-45.67-10.33-59c-16.59-17.37-62.03-60.28-133.32-73c-95.42-17.03-167.24,32.49-183.07,44
		c-5.28,8.11-12.82,21.7-16.9,40c-3.78,16.96-2.98,30.79-1.88,43c7.61,84.34,35.51,154.29,44.72,176.38l0,0
		c13.15,32.24,26.3,64.49,39.44,96.73"/>
	<path class="st1" d="M495.67,382.62c2.63,23.55-6,13-8,90c-2.94,9.27-8.97,25.81-22,43c-10.02,13.22-18.65,24.6-30,25
		c-18.93,0.66-33.56-29.65-40-43c-13.52-28-6-64-11-106C405.72,365.38,453.36,358.72,495.67,382.62z"/>
	<g>
		<path class="st2" d="M387.17,391.12c11.99-6.42,36.45-17.3,68.33-16.11c16.83,0.63,30.72,4.43,40.67,8.11c-2,15-4,30-6,45
			c0,0-23.03,18.75-36.31,22.96c-17.24,5.47-32.91,4.91-46.59,4.21c-8.43-0.43-15.37-1.39-20.1-2.18"/>
	</g>
	<path class="st3" d="M584.67,273.62c6.29-9.18,23.41-32.13,20-60.38c-4.5-37.34-42.27-67.01-76.3-76.89
		c-41.91-12.17-88.54,2.68-91-7c-0.31-1.2,0.04-2.91,1-4c5.07-5.78,27.56,5.08,27,7c-0.31,1.07-7.95,0.35-36-6
		c-1.96-1.72-5.35-4.45-10-7c-52.38-28.71-140.65,34.5-139,38c1.68,3.56,103.89-38.88,105-36c0.22,0.56-3,4-3,4
		c-13.09,2.68-28.93,7.19-46,15c-29.27,13.39-49.97,30.91-63,44c-1.81,27.2-0.54,79.81,34.3,118.26
		C377.1,379.24,533.85,347.75,584.67,273.62z"/>
	<path class="st1" d="M282.67,264.62c-10.38,4.58-10.06,25.47-10,28c1.09,43.16,55.54,68.45,59,70c12.05,5.4,24.6,11.04,30,6
		c10.43-9.73-12.72-52.96-40-81C312.28,277.96,294.3,259.49,282.67,264.62z"/>
	<path class="st1" d="M586.1,265.06c10.38,4.58,10.06,25.47,10,28c-1.09,43.16-55.54,68.45-59,70c-12.05,5.4-24.6,11.04-30,6
		c-10.43-9.73,12.72-52.96,40-81C556.49,278.4,574.47,259.93,586.1,265.06z"/>
	<path class="st1" d="M308.67,249.62c3,48,28,110,28,110s9,45,99,83c15.38-5.65,63.48-25.54,97-78c21-54,31.35-104.69,30-121
		c-9.02-56.66-54.24-130.14-123-132C367.45,109.67,316.3,188.02,308.67,249.62z"/>
	<path class="st4" d="M414.67,180.62c-7,66-29,96-29,96s56-29,45-39c1.76,1.49-14,45-32,55c4.73,6.17,28.68-0.81,44-13
		c43.35-34.5,25.69-117.12,23-129"/>
	<path class="st4" d="M445.67,166.62c14.01,28.85,62.09,68.06,100.58,100.55c6.89,5.82-1.42,24.24-12.58,42.45
		c3.27,3.09,12.2-1.57,14.1-2.56c14.74-7.68,24.59-25.25,24.9-47.44"/>
	<path class="st5" d="M308.67,299.5"/>
	<path class="st3" d="M573.67,253.62c13.28-12.14-9.4-78.73-56.3-113.26c-61.44-45.24-168.58-38.51-210.7,20.26
		c-23.13,32.28-27.56,81.51-11,92c28.84,18.27,125.02-83.91,136.5-72.5c4.98,4.95-11.12,26.16-4.5,32.5
		c7.01,6.71,25.92-16.2,49.5-12.5c23.3,3.66,24.19,29.06,59,46C544.23,250.04,565.83,260.79,573.67,253.62z"/>
	<g>
		<g>
			<path class="st6" d="M415.05,179.76c0.78-3.65,1.16-7.39,1.13-11.12c-0.01-1.07-1.29-1.96-2.26-1.3
				c-3.41,2.35-6.52,5.1-9.24,8.23c-0.53,0.61-0.6,1.52,0,2.12c0.54,0.54,1.59,0.61,2.12,0c2.55-2.93,5.44-5.55,8.63-7.76
				c-0.75-0.43-1.5-0.86-2.26-1.3c0.04,3.47-0.3,6.93-1.02,10.33c-0.17,0.79,0.23,1.62,1.05,1.85
				C413.96,181.01,414.88,180.55,415.05,179.76L415.05,179.76z"/>
		</g>
	</g>
	<g>
		<path class="st6" d="M472.12,196.72c-0.74,0.01-0.84-7.33-3.11-21.84c-1.42-9.13-2.97-16.61-4.1-21.68
			c2.72,4.55,6.13,11.49,7.76,20.42C474.87,185.62,473.03,196.71,472.12,196.72z"/>
		<g>
			<path class="st6" d="M472.12,195.22c0.38,0.04,1.05,0.54,1.12,0.59c0.02,0.01,0.09,0.37,0.07,0.15c-0.02-0.19-0.1-0.39-0.14-0.58
				c-0.16-0.76-0.17-1.05-0.26-1.76c-0.28-2.33-0.51-4.67-0.79-7.01c-0.92-7.81-2.12-15.58-3.59-23.3
				c-0.67-3.51-1.39-7.02-2.17-10.51c-0.91,0.39-1.83,0.77-2.74,1.16c4.15,6.98,6.96,14.7,8.04,22.76
				c0.58,4.34,0.71,8.76,0.39,13.12c-0.1,1.42-0.25,2.85-0.53,4.25c-0.1,0.47-0.21,0.94-0.35,1.4c-0.1,0.32-0.1,0.12-0.06,0.19
				c-0.02,0.05-0.05,0.1-0.08,0.14c0.16-0.27,0.39-0.44,0.7-0.54c-1.9,0.33-1.09,3.23,0.8,2.89c1.53-0.27,1.81-2.79,2.02-3.96
				c0.52-3.01,0.68-6.08,0.67-9.12c-0.03-7.98-1.44-15.95-4.42-23.36c-1.29-3.21-2.82-6.31-4.58-9.28
				c-0.89-1.49-3.11-0.49-2.74,1.16c1.69,7.58,3.12,15.21,4.29,22.89c0.93,6.14,1.48,12.32,2.32,18.47c0.19,1.35,0.34,3.1,2.04,3.27
				C474.04,198.41,474.02,195.41,472.12,195.22z"/>
		</g>
	</g>
	<g>
		<g>
			<path class="st6" d="M578.27,254.56c0-3.52,0-7.03,0-10.55c0-0.81-0.69-1.5-1.5-1.5s-1.5,0.69-1.5,1.5c0,3.52,0,7.03,0,10.55
				c0,0.81,0.69,1.5,1.5,1.5C577.59,256.06,578.27,255.37,578.27,254.56L578.27,254.56z"/>
		</g>
	</g>
	<g>
		<g>
			<path class="st6" d="M357.48,133.78c9.05-0.66,18.17-0.34,27.14,1.02c1.89,0.29,2.7-2.6,0.8-2.89c-9.25-1.4-18.6-1.81-27.94-1.13
				C355.57,130.92,355.55,133.92,357.48,133.78L357.48,133.78z"/>
		</g>
	</g>
	<g>
		<g>
			<path class="st6" d="M456.24,140.91c-1.68-3.47-4.81-6.12-8.44-7.34c-0.74-0.25-1.67,0.29-1.85,1.05
				c-0.19,0.83,0.25,1.58,1.05,1.85c0.2,0.07,0.4,0.14,0.59,0.21c0.16,0.06,0.2,0.06,0.01,0c0.1,0.03,0.22,0.09,0.31,0.14
				c0.38,0.18,0.76,0.37,1.12,0.58c0.35,0.2,0.68,0.42,1.01,0.66c0.08,0.06,0.15,0.11,0.23,0.17c0.31,0.23-0.24-0.2,0.06,0.05
				c0.16,0.13,0.32,0.27,0.48,0.41c0.3,0.27,0.59,0.55,0.86,0.84c0.14,0.15,0.28,0.31,0.42,0.47c0.06,0.07,0.12,0.15,0.18,0.22
				c0.04,0.05,0.3,0.33,0.05,0.06c0.55,0.59,0.96,1.43,1.31,2.15c0.34,0.71,1.41,0.95,2.05,0.54
				C456.43,142.5,456.61,141.67,456.24,140.91L456.24,140.91z"/>
		</g>
	</g>
	<g>
		<g>
			<path class="st6" d="M538.42,140.62c8.24,14.54,15.54,29.59,21.83,45.07c0.72,1.77,3.62,0.99,2.89-0.8
				c-6.38-15.72-13.76-31.02-22.13-45.79C540.06,137.42,537.47,138.93,538.42,140.62L538.42,140.62z"/>
		</g>
	</g>
	<g>
		<g>
			<path class="st6" d="M291.84,201.29c0.55-4.03,2.17-7.72,3.86-11.38c1.77-3.84,3.6-7.66,5.48-11.45
				c3.72-7.51,7.64-14.92,11.75-22.23c0.95-1.68-1.64-3.2-2.59-1.51c-4.19,7.44-8.18,15-11.97,22.66c-1.87,3.79-3.7,7.61-5.47,11.46
				c-1.72,3.74-3.4,7.55-3.96,11.67c-0.11,0.81,0.2,1.6,1.05,1.85C290.7,202.54,291.74,202.09,291.84,201.29L291.84,201.29z"/>
		</g>
	</g>
	<path class="st7" d="M284.67,278.62c-1.18,3.76-3.06,11.56-1,21c1.38,6.34,4.03,11.08,6,14"/>
	<path class="st7" d="M585.78,277.45c1.18,3.76,3.06,11.56,1,21c-1.38,6.34-4.03,11.08-6,14"/>
	<path class="st8" d="M484.67,372.62c-6.71-0.63-82.74,6.38-92,12c-12.7,7.71,18.49,41.69,47,41
		C473.04,424.82,499.94,374.04,484.67,372.62z"/>
	<path class="st9" d="M485.67,390.62c-25.13-3.02-44.51-1.31-58,1c0,0-2.73,0.47-35,7l0,0c0,0,19,28,50,27
		C456.67,423.62,473.67,411.62,485.67,390.62z"/>
	<path class="st10" d="M401.67,388.62c21.78-3.89,61.43-4.53,77-10c2.66-0.93,3.77-5.29,2-6c-4.41-1.76-84.92,9.09-85,11
		C395.65,384.24,395.3,389.76,401.67,388.62z"/>
	<line class="st7" x1="441.67" y1="294.62" x2="428.67" y2="302.62"/>
	<line class="st7" x1="442.67" y1="299.62" x2="421.67" y2="312.62"/>
	<line class="st7" x1="447.67" y1="302.62" x2="420.67" y2="319.62"/>
	<line class="st7" x1="449.67" y1="308.62" x2="421.67" y2="325.62"/>
	<line class="st7" x1="452.67" y1="312.62" x2="423.67" y2="329.62"/>
	<path class="st11" d="M435.67,339.12c-0.17,4-0.33,8-0.5,12c-1.83-1.67-3.67-3.33-5.5-5"/>
	<g>
		<g>
			<path class="st2" d="M341.6,328.41c-0.61,0.82-1.22,1.63-1.83,2.45c-0.11,0.17-0.17,0.36-0.18,0.56c-0.04,0.2-0.04,0.4,0.03,0.6
				c0.1,0.35,0.36,0.73,0.69,0.9c0.35,0.18,0.77,0.28,1.16,0.15c0.12-0.05,0.24-0.1,0.36-0.15c0.23-0.13,0.4-0.31,0.54-0.54
				c0.61-0.82,1.22-1.63,1.83-2.45c0.11-0.17,0.17-0.36,0.18-0.56c0.04-0.2,0.04-0.4-0.03-0.6c-0.1-0.35-0.36-0.73-0.69-0.9
				c-0.35-0.18-0.77-0.28-1.16-0.15c-0.12,0.05-0.24,0.1-0.36,0.15C341.92,328.01,341.74,328.19,341.6,328.41L341.6,328.41z"/>
		</g>
	</g>
	<g>
		<g>
			<path class="st2" d="M345.55,331.15c-0.2,0.31-0.41,0.61-0.61,0.92c-0.11,0.17-0.17,0.36-0.18,0.56c-0.04,0.2-0.04,0.4,0.03,0.6
				c0.05,0.2,0.14,0.37,0.27,0.51c0.11,0.16,0.25,0.29,0.42,0.39c0.12,0.05,0.24,0.1,0.36,0.15c0.27,0.07,0.53,0.07,0.8,0
				c0.12-0.05,0.24-0.1,0.36-0.15c0.23-0.13,0.4-0.31,0.54-0.54c0.2-0.31,0.41-0.61,0.61-0.92c0.11-0.17,0.17-0.36,0.18-0.56
				c0.04-0.2,0.04-0.4-0.03-0.6c-0.05-0.2-0.14-0.37-0.27-0.51c-0.11-0.16-0.25-0.29-0.42-0.39c-0.12-0.05-0.24-0.1-0.36-0.15
				c-0.27-0.07-0.53-0.07-0.8,0c-0.12,0.05-0.24,0.1-0.36,0.15C345.87,330.74,345.69,330.92,345.55,331.15L345.55,331.15z"/>
		</g>
	</g>
	<g>
		<g>
			<path class="st2" d="M515.04,330.99c0,0.51,0,1.02,0,1.53c-0.01,0.21,0.04,0.4,0.13,0.58c0.06,0.19,0.16,0.35,0.31,0.48
				c0.14,0.15,0.3,0.25,0.48,0.31c0.18,0.09,0.37,0.14,0.58,0.13c0.13-0.02,0.27-0.04,0.4-0.05c0.25-0.07,0.47-0.2,0.66-0.39
				c0.27-0.29,0.44-0.65,0.44-1.06c0-0.51,0-1.02,0-1.53c0.01-0.21-0.04-0.4-0.13-0.58c-0.06-0.19-0.16-0.35-0.31-0.48
				c-0.14-0.15-0.3-0.25-0.48-0.31c-0.18-0.09-0.37-0.14-0.58-0.13c-0.13,0.02-0.27,0.04-0.4,0.05c-0.25,0.07-0.47,0.2-0.66,0.39
				C515.21,330.23,515.04,330.59,515.04,330.99L515.04,330.99z"/>
		</g>
	</g>
	<g>
		<g>
			<path class="st2" d="M519.59,329.81c0.01,0.01,0.02,0.03,0.04,0.04c-0.08-0.1-0.16-0.2-0.23-0.3c0.24,0.32,0.44,0.66,0.6,1.03
				c-0.05-0.12-0.1-0.24-0.15-0.36c0.17,0.4,0.28,0.82,0.34,1.26c-0.02-0.13-0.04-0.27-0.05-0.4c0.05,0.38,0.05,0.76,0.01,1.13
				c-0.04,0.36,0.2,0.82,0.44,1.06c0.26,0.26,0.69,0.46,1.06,0.44c0.39-0.02,0.79-0.14,1.06-0.44c0.08-0.1,0.16-0.2,0.23-0.3
				c0.14-0.23,0.2-0.49,0.2-0.76c0.08-0.75,0-1.53-0.21-2.25c-0.12-0.4-0.28-0.8-0.47-1.18c-0.2-0.4-0.47-0.74-0.74-1.09
				c-0.22-0.28-0.72-0.44-1.06-0.44c-0.37,0-0.81,0.16-1.06,0.44c-0.26,0.29-0.46,0.66-0.44,1.06c0.02,0.13,0.04,0.27,0.05,0.4
				C519.28,329.4,519.41,329.62,519.59,329.81L519.59,329.81z"/>
		</g>
	</g>
	<path class="st4" d="M420.67,183.62c-12.82,8.94-94,84-101,114c-2,5,9.6,31.37,11,31c0.08-0.02,0.11-0.11,0.12-0.15
		c0.66-2.62-54.89-18.44-44.12-91.85"/>
	<path class="st12" d="M561.14,520.01c-3.39-11.02-17.16-16.07-26.97-15.89c-22.05,0.42-41.46,27.71-36,40
		c5.67,12.76,40.77,15.35,55.97-1.11C555.01,542.07,564.63,531.34,561.14,520.01z"/>
	<path class="st5" d="M492.67,460.62"/>
	<path class="st5" d="M492.67,451.62"/>
	<path class="st5" d="M496.67,450.62"/>
	<path class="st13" d="M533.67,443.62"/>
	<g>
		<path class="st14" d="M599.76,523.04c-8.04,8.9-15.93,17.94-23.65,27.12"/>
		<g>
			<path class="st14" d="M598.7,521.98c-8.04,8.9-15.93,17.94-23.65,27.12c-1.24,1.47,0.88,3.6,2.12,2.12
				c7.72-9.18,15.6-18.22,23.65-27.12C602.11,522.67,599.99,520.55,598.7,521.98L598.7,521.98z"/>
		</g>
	</g>
	<path class="st15" d="M298.38,343.36c2.93-18.49,11.17-51.8,38-78.78c54.31-54.63,162.63-61.1,209-4.49
		c25.91,31.63,24.39,73.1,22,93.27c10.99-14.15,45.25-61.99,42.72-129.74c-1.59-42.71-17.11-74.73-26.72-91.26
		c-27.87-11.62-69.04-24.71-120-27c-91.8-4.13-161.44,29.21-193,47c-5.42,21.45-11.98,59.19-4,105
		C273.14,296.17,287.68,325.48,298.38,343.36z"/>
	<path class="st16" d="M489.53,472.97c11.67,2.67,23.33,5.33,35,8c-11.67,19-23.33,38-35,57c-16.12,19.24-39.13,22.57-66,17
		c-16.03-0.62-30.02-9.73-43-23c-12.59-10.62-21.9-29.55-31-49c12.33-3,27-8,37-9c1.96,14.23,6.69,28.69,22,44
		c3.9,1.62,29.25,11.68,52-1c1.94-1.08,10.72-6.15,18.21-16.54C486.62,489.47,488.81,478.53,489.53,472.97z"/>
	<path class="st12" d="M324.53,492.97c-4.18-2.8-7.09-8.99-5-13c2.53-4.84,11.42-4.69,17-2c3.79,1.83,8.77,6.13,8,10
		C343.48,493.27,331.66,497.73,324.53,492.97z"/>
	<g>
		<path class="st6" d="M551.67,509.31c-16.55,13.03-32.66,26.63-48.28,40.77"/>
	</g>
	<g>
		<path class="st14" d="M342.44,518.55c4.25,6.89,9.5,13.15,15.53,18.53"/>
		<g>
			<path class="st14" d="M341.14,519.31c4.33,6.99,9.64,13.35,15.77,18.84c1.43,1.28,3.56-0.83,2.12-2.12
				c-5.95-5.32-11.1-11.44-15.3-18.23C342.72,516.15,340.12,517.66,341.14,519.31L341.14,519.31z"/>
		</g>
	</g>
	<path class="st12" d="M527.75,489.46h30v-8c-8.67-1-17.33-2-26-3C530.41,482.12,529.08,485.79,527.75,489.46z"/>
	<path class="st15" d="M280.01,152.74c4-0.59,12.27,3.88,12.77,9.13c0.12,1.2-0.1,2.49-0.77,3.87c-39.97,82.53,43.81,234.33,49,235
		c0.24,0.03,2.59,0.32,2.58,0.57c-0.03,0.65-15.83,0.74-19.58,0.43c-30.47-2.53-61.47-97.85-58-191
		C266.31,202.75,268.37,154.44,280.01,152.74z"/>
	<path class="st15" d="M579.38,137.36c-6.9,0.1-12.77,21.68-21,20c-2.46-0.5-4.62-2.73-5-5c-0.71-4.25,4.6-9.73,14-13l0,0l0,0l4,5
		c5.09,6.31,11.82,16.26,16.28,29.83c2.68,8.15,3.86,15.56,4.36,21.55c1.37,11.37,0.61,19.52-0.38,35.41
		c-1.35,21.66-5.42,49.36-16.62,88.59c0,0-17.85,82.29-40.93,85.6c-0.29,0.04-2.59,0.34-2.58,0.57c0.04,0.87,27.12,0.38,29.58-0.57
		c36.59-14.03,43.74-109.95,44.54-124.25C609.96,203.41,591.51,137.19,579.38,137.36z"/>
	<path class="st15" d="M581.01,149.74c-8.38-2.54-16.3,4.18-23,8c-6.4,3.65,26.08,26.11,27,74c0.07,3.59,6.79,2.51,10,1
		C610.92,225.24,605.8,157.25,581.01,149.74z"/>
	<path class="st17" d="M481.51,444.24c-22.32,24.48-73.81,24.93-94,2c-32.47-36.89,17.25-132.94,51-132
		C470.77,315.14,516.91,405.41,481.51,444.24z"/>
	<path class="st15" d="M480.51,559.24c34.08-16.12,66.76-54.68,58-80c-16.29-47.06-178.25-55.32-200-9
		c-11.48,24.46,14.99,66.54,48,86C430.3,582.05,475.03,561.83,480.51,559.24z"/>
	<path class="st18" d="M364.51,452.24c-22.04-0.49-39.38-16.25-57.5-29.5"/>
	<path class="st18" d="M514.28,447.32c22.04-0.49,39.38-16.25,57.5-29.5"/>
	<path class="st18" d="M273.51,184.24c16.11,1.01,42.92,0.5,73-11c18.54-7.09,32.86-16.26,43-24"/>
	<path class="st18" d="M467.51,127.24c15.7-2.26,51.34-5.05,88,14c14.24,7.4,25.1,16.26,33,24"/>
	<path class="st19" d="M262.01,216.74c25.09-15.91,68.59-38.75,127-47c91.46-12.91,162.91,17.96,191,32"/>
	<path class="st0" d="M309.51,461.24c-17.78,12.48-31.91,29.65-42,52c20.32,15.79,84.94,61.85,180,63.7
		c94.06,1.83,159.9-40.75,181-55.7c-3.28-22.05-34.4-40.75-61-60"/>
	<path class="st18" d="M576.51,543.24c-1.52-13.41-56.96-26-100-9c-24.51,9.68-54.75,32.82-51.95,39c0.25,0.56,0.72,0.86,0.95,1
		C436.69,581.17,579.01,565.14,576.51,543.24z"/>
	<path class="st18" d="M556.51,468.24c-14.63,16.94-40.75,22.95-70,26c0,0,16.52,8.28,48,10"/>
	<path class="st18" d="M313.51,472.24c16.48,15.11,39.82,27.46,80,33"/>
	<g>
		<circle class="st12" cx="438.01" cy="427.74" r="61"/>
		<path class="st6" d="M381.9,427.74c-2,32.21,23.05,61.29,56.12,60.43c23.57-0.13,45.7-16.05,52.94-38.5
			c14.47-45.15-28.57-85.72-72.63-69.46C398.37,387.13,382.76,406.13,381.9,427.74L381.9,427.74z M372.13,427.74
			c-2.04-37.44,27.5-71.46,65.88-70.87c38.08,0.16,69.06,32.84,66.38,70.87c-1.42,25.48-18.76,48.75-42.59,57.45
			C421.8,500.56,373.8,471.52,372.13,427.74L372.13,427.74z"/>
	</g>
	<circle class="st8" cx="438.51" cy="431.24" r="6"/>
	<line class="st5" x1="404.47" y1="396.19" x2="425.56" y2="417.28"/>
	<line class="st5" x1="422.01" y1="431.24" x2="387.01" y2="431.24"/>
	<line class="st5" x1="439.51" y1="414.74" x2="439.51" y2="386.74"/>
	<line class="st5" x1="439.51" y1="477.74" x2="439.51" y2="449.74"/>
	<line class="st5" x1="404.63" y1="466.66" x2="425.73" y2="445.57"/>
	<line class="st5" x1="452.63" y1="442.58" x2="473.73" y2="463.68"/>
	<line class="st5" x1="452.63" y1="418.68" x2="473.73" y2="397.58"/>
	<line class="st5" x1="491.01" y1="431.24" x2="456.01" y2="431.24"/>
	<path class="st20" d="M504.51,415.24c-15.58-57.16-44.29-102.06-66-101c-23.35,1.15-59.15,44.42-66,99c-13.7-1.8-33.46-6.82-49-22
		c-37.65-36.79-28.94-112.22,6.36-153.38c50.59-58.97,162.7-55.68,211,5c35.48,44.57,39.13,123.38,0.64,156.38
		C529.47,409.56,515.43,413.58,504.51,415.24z"/>
	<path class="st20" d="M501.51,428.24c-6.37-68.67-40.25-116.7-63-114c-25.77,3.06-63.87,47.6-64,112
		c-16.98-1.39-41.38-6.46-60.44-24.37c-44.46-41.77-36.01-130.94,7.8-180.01c56.39-63.16,173.28-62.01,228,3
		c45.23,53.73,45.56,148.22-0.8,185.63C534.01,422.65,516.28,426.94,501.51,428.24z"/>
	<g>
		<path class="st21" d="M463.96,315.07c-2.37-4.12-2.13-8.19-1.93-11.53c0.09-1.51,0.66-11.17,6.75-16.91
			c11.57-10.91,45.46-9.98,57.88,5.38c5.58,6.9,7.7,17.8,0.96,26.14c-9.27,11.48-28.98,10.29-33.77,9.99
			C491.2,327.98,470.52,326.5,463.96,315.07z"/>
		<path class="st22" d="M531.41,319.82c0.37-2.46,2.7-19.66-10-31.15c-15.64-14.15-44.75-11.19-56,1.83c-2.9,3.36-4.3,7.02-5,10.08"
			/>
		<circle class="st8" cx="490.66" cy="302.57" r="12.25"/>
		<circle class="st21" cx="496.44" cy="298.94" r="4.76"/>
		<path class="st21" d="M401.48,313.66c2.37-4.12,2.13-8.19,1.93-11.53c-0.09-1.51-0.66-11.17-6.75-16.91
			c-11.57-10.91-45.46-9.98-57.88,5.38c-5.58,6.9-7.7,17.8-0.96,26.14c9.27,11.48,28.98,10.29,33.77,9.99
			C374.24,326.57,394.91,325.08,401.48,313.66z"/>
		<circle class="st8" cx="374.78" cy="301.16" r="12.25"/>
		<circle class="st21" cx="381" cy="297.52" r="4.76"/>
		<path class="st5" d="M340.9,319.89c3.03,1.51,28.63,13.79,50,1c5.27-3.15,9.16-7.16,12-11"/>
		<path class="st20" d="M390.41,263.82c-23.83-0.75-45.82,3.13-65,14"/>
		<path class="st20" d="M472.45,263.81c23.83-0.75,45.82,3.13,65,14"/>
		<path class="st22" d="M333.27,317.04c-0.37-2.46-2.7-19.66,10-31.15c15.64-14.15,44.75-11.19,56,1.83c2.9,3.36,4.3,7.02,5,10.08"
			/>
		<path class="st5" d="M524.65,321.81c-3.03,1.51-28.63,13.79-50,1c-5.27-3.15-9.16-7.16-12-11"/>
	</g>
	<path class="st23" d="M503.93,414.94c-15.58-57.16-44.29-102.06-66-101c-23.35,1.15-59.15,44.42-66,99
		c-14.38-1.93-33.63-7.22-49-22c-36.85-35.44-30.59-105.36-1.05-144.08c47.48-62.23,167.82-60.49,217,2
		c33.07,42.02,38.85,117.74,2.05,150.08C533.52,405.45,521.99,412.31,503.93,414.94z"/>
	<path class="st24" d="M446.88,313.86c34.23,19.1,34.33,46.19,42,53c1.03,0.92,15.91,9.37,29.77,4.5
		c21.66-7.61,32.13-44.76,24.23-70.5c-11.16-36.36-79.04-118.56-103.53,7.69C438.78,311.49,442.54,311.44,446.88,313.86z"/>
	<path class="st24" d="M420.88,317.86c-9.19,9.33-15.61,17.65-21,25c-17.28,23.58-14.45,24.16-20,28
		c-9.42,6.52-23.54,9.04-34.48,4.8c-22.82-8.85-31.84-45.69-24.23-70.5c11.16-36.36,79.04-118.56,103.53,7.69
		c0.13,0.69-0.08,1.31-0.08,1.31C423.7,315.04,422.41,316.31,420.88,317.86z"/>
	<path class="st25" d="M424.88,316.86c-4.45-36.41-19.6-66.98-40-71c-31.1-6.13-74.07,49.64-65,92c3.3,15.41,15.21,37.19,32,40
		c13.01,2.18,27.23-11.29,28-4c0.45,4.23-4.04,25.49-7,33c-5.4,13.7-47.18-8.5-64-35c-25.09-39.52-11.06-102.71,26-139
		c35.62-34.88,82.38-34.97,98-35c15.43-0.03,65.55-0.13,103,39c2.45,2.56,34.15,36.67,35,86c0.33,18.97-4.03,33.23-6,39
		c-3.56,10.45-10.45,29.8-29,43c-7.8,5.55-21.11,17-31,10c-10.12-7.16-12.01-44.62-15-45c-6.27-0.8,16.77,7.15,30-9
		c13-15.86,18.51-37.55,19-45c1.4-21.18-5.68-56.27-33-69c-2.94-1.37-16.81-7.82-32-3c-14.48,4.59-34.68,30.22-35,69"/>
</g>
</svg>
