<?xml version="1.0" encoding="utf-8"?>
<!-- Generator: Adobe Illustrator 28.3.0, SVG Export Plug-In . SVG Version: 6.00 Build 0)  -->
<svg version="1.1" id="Layer_1" xmlns="http://www.w3.org/2000/svg" xmlns:xlink="http://www.w3.org/1999/xlink" x="0px" y="0px"
	 viewBox="0 0 853.12 682.29" style="enable-background:new 0 0 853.12 682.29;" xml:space="preserve">
<style type="text/css">
	.st0{fill:#FEE3CB;stroke:#010101;stroke-miterlimit:10;}
	.st1{fill:#FAB895;stroke:#FAB895;stroke-miterlimit:10;}
	.st2{fill:#323549;stroke:#25292E;stroke-width:2;stroke-miterlimit:10;}
	.st3{fill:#323549;}
	.st4{fill:#25292E;}
	.st5{fill:#323549;stroke:#25292E;stroke-width:5;stroke-miterlimit:10;}
</style>
<g>
	<path class="st0" d="M237.63,242.82c-21.67,94.67-43.33,189.33-65,284c11.33,21.67,22.67,43.33,34,65c31-106.67,62-213.33,93-320
		C278.96,262.15,258.29,252.49,237.63,242.82z"/>
	<path class="st0" d="M601.53,245.3c21.67,94.67,43.33,189.33,65,284c-11.33,21.67-22.67,43.33-34,65c-31-106.67-62-213.33-93-320
		C560.2,264.64,580.86,254.97,601.53,245.3z"/>
	<path class="st1" d="M207.63,352.82c19.67,11.33,39.33,22.67,59,34c22.77-89.04-7.69-131.99-27-132
		C230.27,254.82,219.61,287.11,207.63,352.82z"/>
	<path class="st1" d="M626.17,338.67c-19.67,11.33-39.33,22.67-59,34c-22.77-89.04,7.69-131.99,27-132
		C603.53,240.67,614.19,272.97,626.17,338.67z"/>
	<path class="st2" d="M370.63,112.82c4.68,27.57,25.13,40.36,50,49c5.89-1.49,20-5.92,32-19c15.47-16.86,16.81-36.54,17-42
		c19.27,9.15,32.45,26.09,32,43c-0.74,27.7-37.73,44.35-41.72,46.06c-0.94,0.4-1.71,0.72-2.28,0.94c-35.3,14.17-107.4-0.38-116-37
		c-1.33-5.67-2.82-19.02,11-39C358.63,114.15,364.63,113.49,370.63,112.82z"/>
	<path class="st2" d="M469.63,100.82c38.04,5.58,76.08,11.15,114.12,16.73c7.05,24.82,14.7,50.17,23,76
		c15.04,46.81,30.95,91.2,47.29,133.13c-34.6,21.86-66.42,27.82-96,21c-9.76-49.38-19.53-98.76-29.29-148.13"/>
	<path class="st2" d="M360.63,113.82c-35.9,5.96-71.8,11.91-107.71,17.87c-7.05,24.82-14.7,50.17-23,76
		c-15.04,46.81-30.95,91.2-47.29,133.13c34.6,21.86,66.42,27.82,96,21c9.76-49.38,19.53-98.76,29.29-148.13"/>
	<path class="st3" d="M444.92,156.69c-17.99,5.99-37.41,6.65-58,3c0.1-3.75,8,29,30,38C447.92,180.69,446.08,150.6,444.92,156.69z"
		/>
	<path class="st3" d="M372.92,148.69c-3.57-10.65-16.34-15.55-26-14c-16.11,2.59-27.13,23.73-21,35c6,11.04,28.53,12.72,40,2
		C371.16,166.79,375.91,157.62,372.92,148.69z"/>
	<path class="st3" d="M518.39,138.07c-3.39-11.02-17.16-16.07-26.97-15.89c-22.05,0.42-41.46,27.71-36,40
		c5.67,12.76,40.77,15.35,55.97-1.11C512.25,160.13,521.87,149.41,518.39,138.07z"/>
	<g>
		<path class="st3" d="M291.92,171.69c-6.1,134.38-12.2,268.76-18.29,403.13c30.37,13.55,78.59,30.71,140,35
			c68.11,4.76,122.98-8.37,156-19c-8.24-142.38-16.47-284.76-24.71-427.13"/>
		<path class="st4" d="M292.16,171.7c-1.57,100.89-4.7,201.77-10.97,302.48c-2.52,33.2-5.34,68.07-7.47,100.46
			c26.43,10.25,53.54,18.68,81.18,24.92c9.15,2.38,18.21,5.34,27.59,6.69c10.82,1.96,26.67,1.79,37.76,2.25
			c50.01,2.85,102.21-2.9,149.16-17.66c-5.35-88.22-13.55-178.52-17.81-266.82c-2.8-53.42-5.4-106.83-6.9-160.31l0.47-0.03
			c4.68,53.3,8.25,106.65,11.63,160.04c3.38,51.34,6.03,108.52,8.11,160.24c1.25,35.63,3.28,71.73,4.8,107.08
			c-42.11,13.63-86.3,21.32-130.63,21.51c-6.34-0.11-12.69-0.18-19.01-0.69c-9.5-0.55-18.87-2.4-28.26-3.81
			c-12.47-2.33-25.19-2.83-37.68-4.94c-27.96-5.81-55.26-15.32-80.7-28.16c1.76-50.46,0.98-101.02,3.38-151.47
			C281.09,339.82,284.23,254.24,292.16,171.7L292.16,171.7z"/>
	</g>
	<g>
		<path class="st3" d="M523.63,214.82c-16.29,97.96-26.17,201.81-27,311c-0.08,10.05-0.08,20.05,0,30"/>
		<path class="st4" d="M524.61,214.98c-6.52,56.59-12.61,113.36-16.69,170.17c-4.16,55.91-6.31,114.68-10.3,170.66l-2,0.02
			c-0.6-7.13-1.06-14.28-1.48-21.42c-3.5-64.32,0.55-128.85,7.77-192.78c4.92-42.61,11.61-85.06,20.72-126.97
			C522.64,214.66,524.61,214.98,524.61,214.98L524.61,214.98z"/>
	</g>
	<path class="st5" d="M331.63,244.82c9,52.67,18,105.33,27,158"/>
	<g>
		<g>
			<path class="st4" d="M255.69,213.63c5.55,20.94,9.6,42.27,12.01,63.8c0.68,6.1,1.24,12.21,1.67,18.33c0.14,1.91,3.14,1.93,3,0
				c-1.54-21.79-4.67-43.47-9.38-64.81c-1.34-6.07-2.81-12.11-4.41-18.12C258.09,210.97,255.2,211.76,255.69,213.63L255.69,213.63z"
				/>
		</g>
	</g>
	<g>
		<g>
			<path class="st4" d="M579.2,131.61c-9.53,0.06-18.34,6.4-21.56,15.33c-0.66,1.82,2.24,2.6,2.89,0.8
				c2.76-7.67,10.55-13.08,18.67-13.13C581.13,134.6,581.14,131.6,579.2,131.61L579.2,131.61z"/>
		</g>
	</g>
	<g>
		<g>
			<path class="st4" d="M263.79,146.93c6.22,0.84,11.6,4.91,14.08,10.67c0.32,0.74,1.41,0.91,2.05,0.54
				c0.77-0.45,0.86-1.31,0.54-2.05c-2.74-6.37-9-11.12-15.88-12.05c-0.8-0.11-1.61,0.19-1.85,1.05
				C262.55,145.78,262.98,146.82,263.79,146.93L263.79,146.93z"/>
		</g>
	</g>
</g>
</svg>
