<?xml version="1.0" encoding="utf-8"?>
<!-- Generator: Adobe Illustrator 28.3.0, SVG Export Plug-In . SVG Version: 6.00 Build 0)  -->
<svg version="1.1" id="Layer_1" xmlns="http://www.w3.org/2000/svg" xmlns:xlink="http://www.w3.org/1999/xlink" x="0px" y="0px"
	 viewBox="0 0 853.12 682.29" style="enable-background:new 0 0 853.12 682.29;" xml:space="preserve">
<style type="text/css">
	.st0{fill:#1F2822;stroke:#010101;stroke-miterlimit:10;}
	.st1{fill:none;stroke:#010101;stroke-miterlimit:10;}
</style>
<g>
	<path class="st0" d="M373.6,203.42c0,0-9.49,47.39-6,99c3.31,49.02,22.2,90.39,25,120c1.24,25.38,1.14,49.01-4,66
		c-8.09,5.12-31.96,18.74-64.52,16.43c-25.88-1.84-44.29-12.81-52.48-18.43c-1.56-6.42-3.46-16.11-4-28c-0.9-19.88,2.55-34.07,8-57
		c2.99-12.58,7.85-33.18,15-64c1.77-44.7,0.48-87.89-5-129C313.1,214.39,342.74,211.47,373.6,203.42z"/>
	<path class="st1" d="M378.6,431.42c-26.14-29.43-87-20-97,1"/>
	<path class="st1" d="M268.6,469.42c40.99,18.4,81.99,18.89,123,1"/>
	<path class="st0" d="M479.6,198.42c1.48,21.25,2.61,43.26,3.28,66.01c0.56,18.83,0.78,37.17,0.72,54.99
		c-7.7,32.51-15.4,65.01-23.09,97.52c0,0-1.14,49.01,4,66c8.09,5.12,31.96,18.74,64.52,16.43c25.88-1.84,44.29-12.81,52.48-18.43
		c1.56-6.42,3.46-16.11,4-28c0.9-19.88-2.55-34.07-8-57c-2.99-12.58-7.85-33.18-15-64c-0.53-21.14-0.64-43.11-0.22-65.85
		c0.49-26.29,1.65-51.55,3.31-75.67c-6.46,4.51-20.66,13.14-40.83,15.28C503.32,207.97,486.79,201.67,479.6,198.42z"/>
	<path class="st1" d="M471.5,430.94c26.14-29.43,87-20,97,1"/>
	<path class="st1" d="M581.5,468.94c-40.99,18.4-81.99,18.89-123,1"/>
</g>
</svg>
