<?xml version="1.0" encoding="utf-8"?>
<!-- Generator: Adobe Illustrator 28.3.0, SVG Export Plug-In . SVG Version: 6.00 Build 0)  -->
<svg version="1.1" id="Layer_1" xmlns="http://www.w3.org/2000/svg" xmlns:xlink="http://www.w3.org/1999/xlink" x="0px" y="0px"
	 viewBox="0 0 800 1400" style="enable-background:new 0 0 800 1400;" xml:space="preserve">
<style type="text/css">
	.st0{opacity:0.3;}
	.st1{fill:url(#SVGID_1_);}
	.st2{fill:url(#SVGID_00000119110449410936657370000000848398284574008253_);}
	.st3{opacity:0.5;fill:#FFFFFF;}
	.st4{fill:url(#SVGID_00000022560364500565892140000008583560869241048977_);}
	.st5{fill:url(#SVGID_00000074407919650388937400000010262753671158387608_);}
	.st6{fill:url(#SVGID_00000005950835238441873040000006017521638676383399_);}
	.st7{fill:url(#SVGID_00000026860646407989075470000001975861409058203545_);}
	.st8{fill:url(#SVGID_00000033329810143190140850000017189702140744809367_);}
	.st9{fill:url(#SVGID_00000082339203706495787820000007171338386121756317_);}
	.st10{opacity:0.4;fill:#FFFFFF;}
	.st11{fill:url(#SVGID_00000038393242292920628850000006641086601771007902_);}
	.st12{fill:url(#SVGID_00000139269368292297564680000011957986059369902495_);}
	.st13{fill:url(#SVGID_00000144314770128305113170000016569703595850647210_);}
	.st14{opacity:0.5;fill:url(#SVGID_00000015323889096464077150000014298378166697600663_);enable-background:new    ;}
	.st15{opacity:0.58;fill:#968EFD;}
	.st16{fill:#FCFCFC;}
	.st17{fill:none;stroke:#F2F2F2;stroke-width:5;stroke-miterlimit:10;}
	.st18{fill:none;stroke:#F2F2F2;stroke-width:5;stroke-miterlimit:10;stroke-dasharray:11.8507,11.8507;}
	.st19{display:none;opacity:0.5;fill:url(#SVGID_00000050642314152058893200000010486006661974796950_);}
	.st20{opacity:0.5;}
	.st21{opacity:0.65;fill:#FFFFFF;}
</style>
<g class="st0">
	<g>
		<g>
			<g>
				
					<linearGradient id="SVGID_1_" gradientUnits="userSpaceOnUse" x1="-656.2026" y1="566.481" x2="-1224.7887" y2="1512.0643" gradientTransform="matrix(-1 0 0 1 -710.3754 -17.4032)">
					<stop  offset="0" style="stop-color:#FDF53F"/>
					<stop  offset="1" style="stop-color:#D93C65"/>
				</linearGradient>
				<path class="st1" d="M252.45,931.77l0-49.89l156.58,0l0,49.89c0,46.84,7.58,93.36,22.43,137.78l83.76,250.39l-368.97,0
					l83.76-250.39C244.88,1025.13,252.45,978.6,252.45,931.77z"/>
				
					<linearGradient id="SVGID_00000081629111063714075170000012494587700123995550_" gradientUnits="userSpaceOnUse" x1="-1094.1699" y1="858.7356" x2="-1003.6675" y2="942.0931" gradientTransform="matrix(-1 0 0 1 -710.3754 -17.4032)">
					<stop  offset="0" style="stop-color:#2B3582"/>
					<stop  offset="1" style="stop-color:#150E42"/>
				</linearGradient>
				<path style="fill:url(#SVGID_00000081629111063714075170000012494587700123995550_);" d="M249.65,902.67l162.19,0
					c6.89,0,12.48-5.59,12.48-12.48l0,0c0-6.89-5.59-12.48-12.48-12.48l-162.19,0c-6.89,0-12.48,5.59-12.48,12.48l0,0
					C237.17,897.09,242.76,902.67,249.65,902.67z"/>
				<path class="st3" d="M410.23,963.67l-158.97,0c0.51-6.92,0.86-13.85,1.03-20.79l156.9,0
					C409.37,949.82,409.72,956.75,410.23,963.67z"/>
				<path class="st3" d="M413.97,996.94l-166.46,0c0.49-3.23,0.95-6.46,1.36-9.7l163.73,0
					C413.03,990.47,413.48,993.71,413.97,996.94z"/>
			</g>
			<g>
				
					<linearGradient id="SVGID_00000002356217833036830060000013062418544274707898_" gradientUnits="userSpaceOnUse" x1="-1063.9727" y1="756.6334" x2="-1632.5594" y2="1702.2178" gradientTransform="matrix(-1 0 0 1 -710.3754 -17.4032)">
					<stop  offset="0" style="stop-color:#A737D5"/>
					<stop  offset="1" style="stop-color:#EF497A"/>
				</linearGradient>
				<path style="fill:url(#SVGID_00000002356217833036830060000013062418544274707898_);" d="M513.34,851.26l0-60.24l189.06,0
					l0,60.24c0,56.55,9.15,112.73,27.09,166.35l101.13,302.32l-445.5,0l101.13-302.32C504.19,963.98,513.34,907.81,513.34,851.26z"
					/>
				
					<linearGradient id="SVGID_00000144322617401635638960000008962847464677406906_" gradientUnits="userSpaceOnUse" x1="-1385.8512" y1="756.1985" x2="-1270.5198" y2="862.4249" gradientTransform="matrix(-1 0 0 1 -710.3754 -17.4032)">
					<stop  offset="0" style="stop-color:#2B3582"/>
					<stop  offset="1" style="stop-color:#150E42"/>
				</linearGradient>
				<path style="fill:url(#SVGID_00000144322617401635638960000008962847464677406906_);" d="M498.26,816.13l219.21,0
					c1.86,0,3.37-1.51,3.37-3.37v-23.38c0-1.86-1.51-3.37-3.37-3.37l-219.21,0c-1.86,0-3.37,1.51-3.37,3.37l0,23.38
					C494.89,814.62,496.4,816.13,498.26,816.13z"/>
				<path class="st3" d="M703.84,889.77l-191.94,0c0.62-8.35,1.03-16.72,1.25-25.11l189.44,0
					C702.8,873.05,703.22,881.42,703.84,889.77z"/>
				<path class="st3" d="M708.36,929.94l-200.99,0c0.59-3.9,1.14-7.8,1.65-11.72l197.69,0
					C707.22,922.14,707.77,926.05,708.36,929.94z"/>
			</g>
			<g>
				<g>
					
						<linearGradient id="SVGID_00000004526349611485259890000017751788891895622028_" gradientUnits="userSpaceOnUse" x1="-1067.9568" y1="1414.2814" x2="-1092.0642" y2="1252.0197" gradientTransform="matrix(-1 0 0 1 -710.3754 -17.4032)">
						<stop  offset="0" style="stop-color:#9F5699"/>
						<stop  offset="1" style="stop-color:#202278"/>
					</linearGradient>
					<path style="fill:url(#SVGID_00000004526349611485259890000017751788891895622028_);" d="M301.94,1213.23h152.74
						c2.2,0,3.94,1.61,3.89,3.72l-2.67,99.14c-0.05,2.03-1.85,3.64-4.01,3.64l-149.68-0.64c-2.13-0.01-3.87-1.66-3.87-3.68
						l-0.33-98.47C298.01,1214.84,299.76,1213.23,301.94,1213.23z"/>
					<g>
						<g>
							<path class="st3" d="M440.05,1231.21h4.76c0.22,0,0.43,0.16,0.59,0.31c0.15,0.15,0.24,0.39,0.23,0.6l-0.58,13.96
								c-0.02,0.41-0.38,1.03-0.82,1.03h-4.64c-0.22,0-0.43-0.36-0.59-0.51c-0.15-0.15-0.24-0.49-0.23-0.7l0.46-13.81
								C439.25,1231.69,439.61,1231.21,440.05,1231.21z"/>
							<path class="st3" d="M419.45,1231.21h4.76c0.22,0,0.43,0.16,0.58,0.3c0.15,0.15,0.24,0.38,0.23,0.59l-0.2,13.96
								c-0.01,0.42-0.37,1.05-0.82,1.05h-4.64c-0.22,0-0.43-0.36-0.58-0.5c-0.15-0.15-0.24-0.48-0.24-0.69l0.08-13.81
								C418.64,1231.7,419.01,1231.21,419.45,1231.21z"/>
							<path class="st3" d="M401.34,1231.21h4.76c0.45,0,0.81,0.42,0.82,0.84l0.13,13.7c0,0.21-0.08,0.7-0.24,0.84
								c-0.15,0.15-0.36,0.52-0.58,0.52h-4.64c-0.45,0-0.81-0.61-0.82-1.03l-0.25-13.8c0-0.21,0.08-0.55,0.23-0.7
								C400.91,1231.44,401.12,1231.21,401.34,1231.21z"/>
							<path class="st3" d="M382.64,1231.53c0.15-0.15,0.37-0.31,0.59-0.31h4.76c0.44,0,0.8,0.41,0.82,0.82l0.46,13.7
								c0.01,0.21-0.08,0.71-0.23,0.86c-0.15,0.15-0.37,0.53-0.59,0.53h-4.64c-0.44,0-0.8-0.6-0.82-1.02l-0.58-13.84
								C382.41,1232.06,382.49,1231.68,382.64,1231.53z"/>
						</g>
						<g>
							<path class="st3" d="M365.79,1231.21h4.76c0.22,0,0.43,0.16,0.59,0.31c0.15,0.15,0.24,0.39,0.23,0.6l-0.58,13.96
								c-0.02,0.41-0.38,1.03-0.82,1.03h-4.64c-0.22,0-0.43-0.36-0.59-0.51c-0.15-0.15-0.24-0.49-0.23-0.7l0.46-13.81
								C364.99,1231.69,365.35,1231.21,365.79,1231.21z"/>
							<path class="st3" d="M345.19,1231.21l4.76,0c0.22,0,0.43,0.16,0.58,0.3c0.15,0.15,0.24,0.38,0.24,0.59l-0.2,13.96
								c-0.01,0.42-0.37,1.05-0.82,1.05h-4.64c-0.22,0-0.43-0.36-0.58-0.5c-0.15-0.15-0.24-0.48-0.24-0.69l0.08-13.81
								C344.37,1231.7,344.74,1231.21,345.19,1231.21z"/>
							<path class="st3" d="M327.08,1231.21h4.76c0.45,0,0.81,0.42,0.82,0.84l0.13,13.7c0,0.21-0.08,0.7-0.24,0.84
								c-0.15,0.15-0.36,0.52-0.58,0.52h-4.64c-0.45,0-0.81-0.61-0.82-1.03l-0.25-13.8c0-0.21,0.08-0.55,0.23-0.7
								C326.65,1231.44,326.86,1231.21,327.08,1231.21z"/>
							<path class="st3" d="M308.38,1231.53c0.15-0.15,0.37-0.31,0.59-0.31h4.76c0.44,0,0.8,0.41,0.82,0.82l0.46,13.7
								c0.01,0.21-0.08,0.71-0.23,0.86s-0.37,0.53-0.59,0.53h-4.64c-0.44,0-0.8-0.6-0.82-1.02l-0.58-13.84
								C308.14,1232.06,308.22,1231.68,308.38,1231.53z"/>
						</g>
					</g>
					<g>
						<g>
							<path class="st3" d="M440.05,1260.95h4.76c0.22,0,0.43,0.15,0.59,0.3c0.15,0.15,0.24,0.39,0.23,0.6l-0.58,13.62
								c-0.02,0.41-0.38,0.7-0.82,0.7h-4.64c-0.22,0-0.43-0.02-0.59-0.17c-0.15-0.15-0.24-0.32-0.23-0.53l0.46-13.71
								C439.25,1261.33,439.61,1260.95,440.05,1260.95z"/>
							<path class="st3" d="M419.45,1260.95h4.76c0.22,0,0.43,0.15,0.58,0.29c0.15,0.15,0.24,0.38,0.23,0.58l-0.2,13.62
								c-0.01,0.42-0.37,0.72-0.82,0.72h-4.64c-0.22,0-0.43-0.02-0.58-0.17c-0.15-0.15-0.24-0.31-0.24-0.52l0.08-13.71
								C418.64,1261.34,419.01,1260.95,419.45,1260.95z"/>
							<path class="st3" d="M401.34,1260.95h4.76c0.45,0,0.81,0.41,0.82,0.83l0.13,13.69c0,0.21-0.08,0.36-0.24,0.51
								c-0.15,0.15-0.36,0.18-0.58,0.18h-4.64c-0.45,0-0.81-0.28-0.82-0.7l-0.25-13.63c0-0.21,0.08-0.46,0.23-0.6
								C400.91,1261.08,401.12,1260.95,401.34,1260.95z"/>
							<path class="st3" d="M382.64,1261.25c0.15-0.15,0.37-0.3,0.59-0.3l4.76,0c0.44,0,0.8,0.4,0.82,0.81l0.46,13.69
								c0.01,0.21-0.08,0.37-0.23,0.52c-0.15,0.15-0.37,0.19-0.59,0.19h-4.64c-0.44,0-0.8-0.27-0.82-0.68l-0.58-13.66
								C382.41,1261.61,382.49,1261.4,382.64,1261.25z"/>
						</g>
						<g>
							<path class="st3" d="M365.79,1260.95h4.76c0.22,0,0.43,0.15,0.59,0.3c0.15,0.15,0.24,0.39,0.23,0.6l-0.58,13.62
								c-0.02,0.41-0.38,0.7-0.82,0.7h-4.64c-0.22,0-0.43-0.02-0.59-0.17c-0.15-0.15-0.24-0.32-0.23-0.53l0.46-13.71
								C364.99,1261.33,365.35,1260.95,365.79,1260.95z"/>
							<path class="st3" d="M345.19,1260.95h4.76c0.22,0,0.43,0.15,0.58,0.29c0.15,0.15,0.24,0.38,0.24,0.58l-0.2,13.62
								c-0.01,0.42-0.37,0.72-0.82,0.72h-4.64c-0.22,0-0.43-0.02-0.58-0.17c-0.15-0.15-0.24-0.31-0.24-0.52l0.08-13.71
								C344.37,1261.34,344.74,1260.95,345.19,1260.95z"/>
							<path class="st3" d="M327.08,1260.95h4.76c0.45,0,0.81,0.41,0.82,0.83l0.13,13.69c0,0.21-0.08,0.36-0.24,0.51
								c-0.15,0.15-0.36,0.18-0.58,0.18h-4.64c-0.45,0-0.81-0.28-0.82-0.7l-0.25-13.63c0-0.21,0.08-0.46,0.23-0.6
								C326.65,1261.08,326.86,1260.95,327.08,1260.95z"/>
							<path class="st3" d="M308.38,1261.25c0.15-0.15,0.37-0.3,0.59-0.3h4.76c0.44,0,0.8,0.4,0.82,0.81l0.46,13.69
								c0.01,0.21-0.08,0.37-0.23,0.52c-0.15,0.15-0.37,0.19-0.59,0.19h-4.64c-0.44,0-0.8-0.27-0.82-0.68l-0.58-13.66
								C308.14,1261.61,308.22,1261.4,308.38,1261.25z"/>
						</g>
					</g>
				</g>
				<g>
					
						<linearGradient id="SVGID_00000069399247653250080800000017033326240952567739_" gradientUnits="userSpaceOnUse" x1="-768.9529" y1="975.9926" x2="-741.9209" y2="1341.6345" gradientTransform="matrix(-1 0 0 1 -710.3754 -17.4032)">
						<stop  offset="0" style="stop-color:#A737D5"/>
						<stop  offset="1" style="stop-color:#EF497A"/>
					</linearGradient>
					<polygon style="fill:url(#SVGID_00000069399247653250080800000017033326240952567739_);" points="20.5,1303.29 68.25,1303.29 
						63.02,1027.16 63.08,1019.34 62.96,1010.23 62.8,1002.42 61.36,954.29 61.36,953.03 23.83,953.03 23.83,1027.16 					"/>
					
						<linearGradient id="SVGID_00000013903190319583658470000017877936476171114129_" gradientUnits="userSpaceOnUse" x1="-778.6229" y1="967.2802" x2="-728.8267" y2="967.2802" gradientTransform="matrix(-1 0 0 1 -710.3754 -17.4032)">
						<stop  offset="0" style="stop-color:#2B3582"/>
						<stop  offset="1" style="stop-color:#150E42"/>
					</linearGradient>
					<path style="fill:url(#SVGID_00000013903190319583658470000017877936476171114129_);" d="M18.45,947.75
						c0-1.44,0.99-2.6,2.22-2.6h45.35c1.23,0,2.22,1.17,2.22,2.6v4.26c0,1.44-0.99,2.6-2.22,2.6l-45.35,0
						c-1.23,0-2.22-1.17-2.22-2.6L18.45,947.75z"/>
					
						<linearGradient id="SVGID_00000065788253302416198750000012531813673566017971_" gradientUnits="userSpaceOnUse" x1="-787.359" y1="1327.2335" x2="-720.0898" y2="1327.2335" gradientTransform="matrix(-1 0 0 1 -710.3754 -17.4032)">
						<stop  offset="0" style="stop-color:#2B3582"/>
						<stop  offset="1" style="stop-color:#150E42"/>
					</linearGradient>
					<path style="fill:url(#SVGID_00000065788253302416198750000012531813673566017971_);" d="M9.71,1306.95
						c0-1.94,1.34-3.52,3-3.52l61.27,0c1.66,0,3,1.58,3,3.52v5.75c0,1.94-1.34,3.52-3,3.52l-61.27,0c-1.66,0-3-1.58-3-3.52
						L9.71,1306.95z"/>
					<polygon class="st10" points="23.83,1003.52 23.83,1009.83 63.11,1009.83 62.88,1003.52 					"/>
					<polygon class="st10" points="23.83,1017.72 23.83,1027.19 63.63,1027.19 63.39,1017.72 					"/>
				</g>
				<g>
					<g>
						
							<linearGradient id="SVGID_00000088134779957209076190000001735140354252050092_" gradientUnits="userSpaceOnUse" x1="-772.777" y1="927.7906" x2="-862.0234" y2="1165.7817" gradientTransform="matrix(-1 0 0 1 -710.3754 -17.4032)">
							<stop  offset="0" style="stop-color:#A737D5"/>
							<stop  offset="1" style="stop-color:#EF497A"/>
						</linearGradient>
						<polygon style="fill:url(#SVGID_00000088134779957209076190000001735140354252050092_);" points="98.95,1164.45 
							142.27,1164.45 142.27,1129.78 139.26,1027.16 139.08,1019.34 138.84,1010.23 138.62,1002.42 137.15,954.29 137.12,953.03 
							100.55,953.03 100.55,1027.16 						"/>
						
							<linearGradient id="SVGID_00000067955460284656168060000015401052446916000654_" gradientUnits="userSpaceOnUse" x1="-853.9897" y1="967.2802" x2="-804.1937" y2="967.2802" gradientTransform="matrix(-1 0 0 1 -710.3754 -17.4032)">
							<stop  offset="0" style="stop-color:#2B3582"/>
							<stop  offset="1" style="stop-color:#150E42"/>
						</linearGradient>
						<path style="fill:url(#SVGID_00000067955460284656168060000015401052446916000654_);" d="M93.82,947.75
							c0-1.44,0.99-2.6,2.22-2.6l45.35,0c1.23,0,2.22,1.17,2.22,2.6v4.26c0,1.44-0.99,2.6-2.22,2.6l-45.35,0
							c-1.23,0-2.22-1.17-2.22-2.6V947.75z"/>
					</g>
					<polygon class="st10" points="100.55,1003.52 100.55,1009.83 138.87,1009.83 138.64,1003.52 					"/>
					<polygon class="st10" points="100.55,1017.72 100.55,1027.19 139.39,1027.19 139.15,1017.72 					"/>
				</g>
				<g>
					
						<linearGradient id="SVGID_00000023271591421865876380000012658991807576309901_" gradientUnits="userSpaceOnUse" x1="-1027.094" y1="1135.8032" x2="-826.1514" y2="1320.882" gradientTransform="matrix(-1 0 0 1 -710.3754 -17.4032)">
						<stop  offset="0" style="stop-color:#9F5699"/>
						<stop  offset="1" style="stop-color:#202278"/>
					</linearGradient>
					<path style="fill:url(#SVGID_00000023271591421865876380000012658991807576309901_);" d="M68.41,1137.02l262.34,0
						c3.78,0,6.77,2.77,6.68,6.39l-4.58,170.27c-0.09,3.49-3.18,6.26-6.88,6.24l-257.07-1.11c-3.66-0.02-6.64-2.85-6.65-6.32
						l-0.57-169.13C61.65,1139.78,64.67,1137.02,68.41,1137.02z"/>
					<g>
						<g>
							<path class="st3" d="M305.62,1167.9h8.17c0.38,0,0.75,0.28,1.01,0.54c0.26,0.26,0.4,0.68,0.39,1.04l-0.99,23.97
								c-0.03,0.71-0.65,1.78-1.4,1.78h-7.97c-0.38,0-0.74-0.62-1.01-0.88c-0.26-0.26-0.41-0.84-0.39-1.2l0.79-23.71
								C304.25,1168.72,304.87,1167.9,305.62,1167.9z"/>
							<path class="st3" d="M270.24,1167.9h8.18c0.38,0,0.73,0.27,1,0.52c0.26,0.25,0.41,0.66,0.4,1.01l-0.35,23.97
								c-0.01,0.72-0.63,1.81-1.4,1.81h-7.98c-0.37,0-0.73-0.61-0.99-0.86c-0.26-0.25-0.41-0.83-0.41-1.18l0.15-23.71
								C268.85,1168.74,269.47,1167.9,270.24,1167.9z"/>
							<path class="st3" d="M239.14,1167.9h8.18c0.77,0,1.39,0.71,1.4,1.44l0.22,23.53c0,0.35-0.14,1.2-0.41,1.45
								c-0.26,0.25-0.62,0.9-1,0.9h-7.98c-0.76,0-1.39-1.05-1.4-1.78l-0.42-23.7c-0.01-0.36,0.14-0.94,0.4-1.2
								C238.4,1168.29,238.76,1167.9,239.14,1167.9z"/>
							<path class="st3" d="M207.02,1168.44c0.26-0.26,0.63-0.54,1.01-0.54h8.18c0.76,0,1.38,0.7,1.4,1.41l0.79,23.53
								c0.01,0.36-0.13,1.21-0.39,1.47c-0.26,0.26-0.63,0.91-1.01,0.91h-7.97c-0.75,0-1.37-1.03-1.4-1.74l-0.99-23.77
								C206.61,1169.35,206.75,1168.7,207.02,1168.44z"/>
						</g>
						<g>
							<path class="st3" d="M178.07,1167.9h8.17c0.38,0,0.75,0.28,1.01,0.54c0.26,0.26,0.41,0.68,0.39,1.04l-0.99,23.97
								c-0.03,0.71-0.65,1.78-1.4,1.78h-7.97c-0.38,0-0.74-0.62-1.01-0.88c-0.26-0.26-0.41-0.84-0.39-1.2l0.79-23.71
								C176.69,1168.72,177.31,1167.9,178.07,1167.9z"/>
							<path class="st3" d="M142.69,1167.9h8.18c0.38,0,0.73,0.27,1,0.52c0.26,0.25,0.41,0.66,0.4,1.01l-0.35,23.97
								c-0.01,0.72-0.63,1.81-1.4,1.81h-7.98c-0.37,0-0.73-0.61-0.99-0.86c-0.26-0.25-0.41-0.83-0.41-1.18l0.15-23.71
								C141.29,1168.74,141.92,1167.9,142.69,1167.9z"/>
							<path class="st3" d="M111.58,1167.9h8.18c0.77,0,1.39,0.71,1.4,1.44l0.22,23.53c0,0.35-0.14,1.2-0.41,1.45
								c-0.26,0.25-0.62,0.9-1,0.9h-7.98c-0.76,0-1.39-1.05-1.4-1.78l-0.42-23.7c-0.01-0.36,0.14-0.94,0.4-1.2
								C110.85,1168.29,111.21,1167.9,111.58,1167.9z"/>
							<path class="st3" d="M79.46,1168.44c0.26-0.26,0.63-0.54,1.01-0.54h8.17c0.76,0,1.38,0.7,1.4,1.41l0.79,23.53
								c0.01,0.36-0.13,1.21-0.39,1.47c-0.26,0.26-0.63,0.91-1.01,0.91h-7.97c-0.75,0-1.37-1.03-1.4-1.74l-0.99-23.77
								C79.06,1169.35,79.2,1168.7,79.46,1168.44z"/>
						</g>
					</g>
					<g>
						<g>
							<path class="st3" d="M305.62,1218.97h8.17c0.38,0,0.75,0.26,1.01,0.52c0.26,0.26,0.4,0.67,0.39,1.03l-0.99,23.39
								c-0.03,0.71-0.65,1.2-1.4,1.2h-7.97c-0.38,0-0.74-0.04-1.01-0.3c-0.26-0.26-0.41-0.55-0.39-0.91l0.79-23.55
								C304.25,1219.62,304.87,1218.97,305.62,1218.97z"/>
							<path class="st3" d="M270.24,1218.97h8.18c0.38,0,0.73,0.25,1,0.51c0.26,0.25,0.41,0.65,0.4,1l-0.35,23.39
								c-0.01,0.72-0.63,1.23-1.4,1.23h-7.98c-0.37,0-0.73-0.04-0.99-0.29c-0.26-0.25-0.41-0.54-0.41-0.89l0.15-23.55
								C268.85,1219.65,269.47,1218.97,270.24,1218.97z"/>
							<path class="st3" d="M239.14,1218.97h8.18c0.77,0,1.39,0.7,1.4,1.42l0.22,23.52c0,0.35-0.14,0.62-0.41,0.87
								c-0.26,0.25-0.62,0.32-1,0.32h-7.98c-0.76,0-1.39-0.48-1.4-1.2l-0.42-23.41c-0.01-0.36,0.14-0.78,0.4-1.04
								C238.4,1219.2,238.76,1218.97,239.14,1218.97z"/>
							<path class="st3" d="M207.02,1219.49c0.26-0.26,0.63-0.52,1.01-0.52h8.18c0.76,0,1.38,0.68,1.4,1.39l0.79,23.52
								c0.01,0.36-0.13,0.63-0.39,0.89c-0.26,0.26-0.63,0.33-1.01,0.33h-7.97c-0.75,0-1.37-0.46-1.4-1.17l-0.99-23.47
								C206.61,1220.1,206.75,1219.75,207.02,1219.49z"/>
						</g>
						<g>
							<path class="st3" d="M178.07,1218.97h8.17c0.38,0,0.75,0.26,1.01,0.52c0.26,0.26,0.41,0.67,0.39,1.03l-0.99,23.39
								c-0.03,0.71-0.65,1.2-1.4,1.2h-7.97c-0.38,0-0.74-0.04-1.01-0.3c-0.26-0.26-0.41-0.55-0.39-0.91l0.79-23.55
								C176.69,1219.62,177.31,1218.97,178.07,1218.97z"/>
							<path class="st3" d="M142.69,1218.97h8.18c0.38,0,0.73,0.25,1,0.51c0.26,0.25,0.41,0.65,0.4,1l-0.35,23.39
								c-0.01,0.72-0.63,1.23-1.4,1.23h-7.98c-0.37,0-0.73-0.04-0.99-0.29c-0.26-0.25-0.41-0.54-0.41-0.89l0.15-23.55
								C141.29,1219.65,141.92,1218.97,142.69,1218.97z"/>
							<path class="st3" d="M111.58,1218.97h8.18c0.77,0,1.39,0.7,1.4,1.42l0.22,23.52c0,0.35-0.14,0.62-0.41,0.87
								c-0.26,0.25-0.62,0.32-1,0.32h-7.98c-0.76,0-1.39-0.48-1.4-1.2l-0.42-23.41c-0.01-0.36,0.14-0.78,0.4-1.04
								C110.85,1219.2,111.21,1218.97,111.58,1218.97z"/>
							<path class="st3" d="M79.46,1219.49c0.26-0.26,0.63-0.52,1.01-0.52h8.17c0.76,0,1.38,0.68,1.4,1.39l0.79,23.52
								c0.01,0.36-0.13,0.63-0.39,0.89c-0.26,0.26-0.63,0.33-1.01,0.33h-7.97c-0.75,0-1.37-0.46-1.4-1.17l-0.99-23.47
								C79.06,1220.1,79.2,1219.75,79.46,1219.49z"/>
						</g>
					</g>
				</g>
			</g>
		</g>
	</g>
</g>
<linearGradient id="SVGID_00000103234836051753645770000011880304682214934663_" gradientUnits="userSpaceOnUse" x1="676.2983" y1="1466.533" x2="269.8587" y2="343.9831" gradientTransform="matrix(1 0 0 -1 0 1402)">
	<stop  offset="0" style="stop-color:#63C3FF"/>
	<stop  offset="0.171" style="stop-color:#64BDFA"/>
	<stop  offset="0.4038" style="stop-color:#68ABEC"/>
	<stop  offset="0.6719" style="stop-color:#6D8FD6"/>
	<stop  offset="0.9646" style="stop-color:#7567B6"/>
	<stop  offset="1" style="stop-color:#7662B2"/>
</linearGradient>
<rect x="-12" y="-25" style="opacity:0.5;fill:url(#SVGID_00000103234836051753645770000011880304682214934663_);enable-background:new    ;" width="825.14" height="1444"/>
<g>
	<rect x="2" y="1316" class="st15" width="800" height="84"/>
	<g class="st0">
		<line class="st16" x1="-3.5" y1="1357.33" x2="802.5" y2="1357.67"/>
		<g>
			<line class="st17" x1="-3.5" y1="1357.33" x2="2.5" y2="1357.33"/>
			<line class="st18" x1="14.35" y1="1357.34" x2="790.57" y2="1357.66"/>
			<line class="st17" x1="796.5" y1="1357.67" x2="802.5" y2="1357.67"/>
		</g>
	</g>
</g>
<linearGradient id="SVGID_00000049203839378665641360000007406493107443345321_" gradientUnits="userSpaceOnUse" x1="500.8487" y1="273.6946" x2="277.3892" y2="890.8701" gradientTransform="matrix(1.0947 -0.1793 -0.1793 3.0491 121.9902 -1279.4989)">
	<stop  offset="0" style="stop-color:#63C3FF"/>
	<stop  offset="0.1795" style="stop-color:#69BFFD"/>
	<stop  offset="0.4236" style="stop-color:#7BB5F8"/>
	<stop  offset="0.7049" style="stop-color:#97A5F0"/>
	<stop  offset="1" style="stop-color:#BD8FE5"/>
</linearGradient>
<path style="display:none;opacity:0.5;fill:url(#SVGID_00000049203839378665641360000007406493107443345321_);" d="M1004.52,230.25
	c21.41-154.74,24.74-271.12-10.7-378.9c-32.65-99.3-95.21-187.04-151.93-160.38c-46.08,21.67-91.49,78.47-132.35,153.36
	c-24.65,45.17-51.95,77.34-79.84,95.63c-30.81,20.22-69.33,38.22-98.5,27.75c-57.34-20.58-108.8-78.05-162.02-123.95
	C260.3-250.13,130.56-291.48,13.07-132.62C-43.55-56.06-98.37,91.06-95.5,238.65c2.21,113.97,38.28,197.93,34.4,314.69
	c-4.38,131.88-55.56,239.07-97.07,338.74c-39.29,94.34-74.6,202.87-96.91,323.97c-22.3,121.1-30.66,255.85-16.27,366.44
	c18.74,143.98,74.24,230.24,135.71,246.34c61.46,16.11,128.05-29.99,190.53-99.08c62.48-69.09,122.13-160.85,182.96-243.24
	c20.58-27.87,44.46-55.51,63.01-36.54c20.9,21.37,24.44,89.54,31.88,144c16.67,122,62.22,197.48,113.13,222.89
	c50.91,25.41,106.95,6.48,161.8-22.96c61.09-32.78,124.46-81.59,176.82-186.41c52.36-104.82,90.58-278.35,77.72-420.88
	c-8.17-90.53-35.48-162.07-32.47-260.1c3.12-101.22,37-191.54,66.52-273.97C941.62,525.9,983.1,384.99,1004.52,230.25z"/>
<g class="st20">
	<path class="st21" d="M209.32,791c-9.13-11.16-22.77-15.75-36.12-12.41c-14.56,3.64-22.78,17.55-36.33,23.12
		c-23.64,9.71-56.32-9.47-74.27,15.55c-21.96,30.6-38.92,7.65-38.92,28.42c0,20.77,151.69,5.47,226.54,6.56
		c10.81,0.16,57.76-0.63,37.55-23.08c-6.28-6.97-15.23-8.14-23.58-9.77c-10.88-2.13-36.76-3.29-44.65-11.76
		c-4.24-4.56-5.88-11.11-9.71-15.98C209.66,791.42,209.49,791.21,209.32,791z"/>
	<path class="st21" d="M728.76,146.84c-5.3-7.53-13.21-10.63-20.97-8.38c-8.45,2.46-13.22,11.85-21.09,15.6
		c-13.72,6.55-32.69-6.39-43.11,10.5c-12.74,20.66-22.59,5.16-22.59,19.18c0,14.02,88.05,3.69,131.49,4.43
		c6.28,0.11,33.53-0.43,21.8-15.58c-3.64-4.7-8.84-5.49-13.69-6.59c-6.32-1.44-21.34-2.22-25.91-7.94
		c-2.46-3.08-3.41-7.5-5.63-10.79C728.96,147.13,728.86,146.98,728.76,146.84z"/>
	<path class="st21" d="M630.6,165.07c-9.13-11.16-22.77-15.75-36.12-12.41c-14.56,3.64-22.78,17.55-36.33,23.12
		c-23.64,9.71-56.32-9.47-74.27,15.55c-21.96,30.6-38.92,7.65-38.92,28.42c0,20.77,151.69,5.47,226.54,6.56
		c10.81,0.16,57.76-0.63,37.55-23.08c-6.28-6.97-15.23-8.14-23.58-9.77c-10.88-2.13-36.76-3.29-44.65-11.76
		c-4.24-4.56-5.88-11.11-9.71-15.98C630.94,165.5,630.77,165.28,630.6,165.07z"/>
	<path class="st21" d="M243.59,72.55c-9.13-11.16-22.77-15.75-36.12-12.41c-14.56,3.64-22.78,17.55-36.33,23.12
		c-23.64,9.71-56.32-9.47-74.27,15.55c-21.96,30.6-38.92,7.65-38.92,28.42c0,20.77,151.69,5.47,226.54,6.56
		c10.81,0.16,57.76-0.63,37.55-23.08c-6.28-6.97-15.23-8.14-23.58-9.77c-10.88-2.13-36.76-3.29-44.65-11.76
		c-4.24-4.56-5.88-11.11-9.71-15.98C243.94,72.98,243.77,72.76,243.59,72.55z"/>
</g>
</svg>
