<?xml version="1.0" encoding="utf-8"?>
<!-- Generator: Adobe Illustrator 28.3.0, SVG Export Plug-In . SVG Version: 6.00 Build 0)  -->
<svg version="1.1" xmlns="http://www.w3.org/2000/svg" xmlns:xlink="http://www.w3.org/1999/xlink" x="0px" y="0px"
	 viewBox="0 0 875 1859" enable-background="new 0 0 875 1859" xml:space="preserve">
<g id="Layer_1" display="none">
	<path display="inline" fill="#FFE3CB" stroke="#000000" stroke-miterlimit="10" d="M294.5,634.7c-21.7,94.7-43.3,189.3-65,284
		c11.3,21.7,22.7,43.3,34,65c31-106.7,62-213.3,93-320C335.9,654,315.2,644.3,294.5,634.7z"/>
	<path display="inline" fill="#FFE3CB" stroke="#000000" stroke-miterlimit="10" d="M658.4,637.2c21.7,94.7,43.3,189.3,65,284
		c-11.3,21.7-22.7,43.3-34,65c-31-106.7-62-213.3-93-320C617.1,656.5,637.8,646.8,658.4,637.2z"/>
	<path display="inline" fill="#FFB995" stroke="#FFB995" stroke-miterlimit="10" d="M264.5,744.7c19.7,11.3,39.3,22.7,59,34
		c22.8-89-7.7-132-27-132C287.2,646.7,276.5,679,264.5,744.7z"/>
	<path display="inline" fill="#FFB995" stroke="#FFB995" stroke-miterlimit="10" d="M683.1,730.5c-19.7,11.3-39.3,22.7-59,34
		c-22.8-89,7.7-132,27-132C660.4,632.5,671.1,664.8,683.1,730.5z"/>
	<path display="inline" fill="none" stroke="#000000" stroke-miterlimit="10" d="M436.5,1276.8"/>
	<path display="inline" fill="#FFE3CB" stroke="#000000" stroke-miterlimit="10" d="M533.8,411.5c2.6,23.5-6,13-8,90
		c-2.9,9.3-9,25.8-22,43c-10,13.2-18.6,24.6-30,25c-18.9,0.7-33.6-29.7-40-43c-13.5-28-6-64-11-106
		C443.9,394.3,491.5,387.6,533.8,411.5z"/>
	<g display="inline">
		<path fill="#2F3E68" d="M588.5,914.6c2-4.3,6.3-15.2,1.4-22c-3.4-4.7-9.7-5.5-12-5.8c-54.9-6.9-12.3-12-90.7-13.6
			c-40.5-0.8-83.1-1-118.6,18.5c-1.8,1-3.6,2.1-4.7,3.8c-0.9,1.5-1.1,3.3-1.3,5c-3.1,30.5-3.3,61.3-0.4,91.9
			c0.8,8.4,1.8,16.8,4.8,24.7c4.3,11.3,12.5,20.7,20.5,29.8c3.9,4.5,8.1,9.1,13.5,11.5c6.3,2.7,13.5,2.1,20.4,2.4
			c10,0.4,19.8,2.8,29.8,3.8c10,1.1,20.5,0.6,29.3-4.2c5.9-3.2,10.6-8.2,15.2-13.1c13.2-14,26.4-28.1,38.1-43.4
			c4.2-5.5,8.2-11.1,12.9-16c5.4-5.6,11.8-10.2,16.8-16.2c6.2-7.4,10.1-16.4,13.9-25.3c3.6-8.5,8.1-20.3,11.8-35"/>
	</g>
	<g display="inline">
		<path fill="#FFB995" d="M425.3,420c12-6.4,36.5-17.3,68.3-16.1c16.8,0.6,30.7,4.4,40.7,8.1c-2,15-4,30-6,45c0,0-23,18.8-36.3,23
			c-17.2,5.5-32.9,4.9-46.6,4.2c-8.4-0.4-15.4-1.4-20.1-2.2"/>
	</g>
	<path display="inline" fill="#332C26" d="M622.8,302.5c5.5-8.1,19.2-30.4,20-60.4c1.1-44.8-27-90.6-65.7-110.2
		c-46.1-23.3-120.5-19.3-100.3-20.4c19-1,27.6-47.7,26-49c-1.5-1.2-23.7,27.2-41,42c-95-31-190.2,21-190,18
		c0.3-3.1,92-4.3,148.5,9.9c0.2,0.1,0.3,0.1,0.5,0.1c-11.7-5.3-27.5-9.8-45-7c-37.1,5.9-68.2,42.2-77,91c1.4,26.9,8.7,77.9,47,115
		C422.5,405.9,572.7,375.7,622.8,302.5z"/>
	<path display="inline" fill="#FFE3CB" stroke="#000000" stroke-miterlimit="10" d="M320.8,293.5c-10.4,4.6-10.1,25.5-10,28
		c1.1,43.2,55.5,68.4,59,70c12,5.4,24.6,11,30,6c10.4-9.7-12.7-53-40-81C350.4,306.9,332.5,288.4,320.8,293.5z"/>
	<path display="inline" fill="#FFE3CB" stroke="#000000" stroke-miterlimit="10" d="M624.2,294c10.4,4.6,10.1,25.5,10,28
		c-1.1,43.2-55.5,68.4-59,70c-12,5.4-24.6,11-30,6c-10.4-9.7,12.7-53,40-81C594.7,307.3,612.6,288.9,624.2,294z"/>
	<path display="inline" fill="#FFE3CB" stroke="#000000" stroke-miterlimit="10" d="M346.8,278.5c3,48,28,110,28,110s9,45,99,83
		c15.4-5.6,63.5-25.5,97-78c21-54,31.3-104.7,30-121c-9-56.7-54.2-130.1-123-132C405.6,138.6,354.5,216.9,346.8,278.5z"/>
	<path display="inline" fill="#332C26" stroke="#000000" stroke-miterlimit="10" d="M452.8,209.5c-7,66-29,96-29,96s56-29,45-39
		c1.8,1.5-14,45-32,55c4.7,6.2,28.7-0.8,44-13c43.4-34.5,25.7-117.1,23-129"/>
	<path display="inline" fill="#332C26" stroke="#000000" stroke-miterlimit="10" d="M483.8,195.5c14,28.9,62.1,68.1,100.6,100.6
		c6.9,5.8-1.4,24.2-12.6,42.5c3.3,3.1,12.2-1.6,14.1-2.6c14.7-7.7,24.6-25.2,24.9-47.4"/>
	<path display="inline" fill="none" stroke="#000000" stroke-miterlimit="10" d="M346.8,328.4"/>
	<path display="inline" fill="#332C26" d="M611.8,282.5c16.7-14.2-7.7-108.5-76-144c-65-33.8-154.9-6.6-191,51
		c-20.8,33.2-27.4,81.6-11,92c28.8,18.3,125-83.9,136.5-72.5c5,4.9-11.1,26.2-4.5,32.5c7,6.7,25.9-16.2,49.5-12.5
		c23.3,3.7,24.2,29.1,59,46C583.8,279.7,603.8,289.4,611.8,282.5z"/>
	<g display="inline">
		<g>
			<path d="M453.2,208.7c0.8-3.6,1.2-7.4,1.1-11.1c0-1.1-1.3-2-2.3-1.3c-3.4,2.4-6.5,5.1-9.2,8.2c-0.5,0.6-0.6,1.5,0,2.1
				c0.5,0.5,1.6,0.6,2.1,0c2.5-2.9,5.4-5.6,8.6-7.8c-0.8-0.4-1.5-0.9-2.3-1.3c0,3.5-0.3,6.9-1,10.3c-0.2,0.8,0.2,1.6,1,1.9
				C452.1,209.9,453,209.5,453.2,208.7L453.2,208.7z"/>
		</g>
	</g>
	<g display="inline">
		<path d="M510.3,225.6c-0.7,0-0.8-7.3-3.1-21.8c-1.4-9.1-3-16.6-4.1-21.7c2.7,4.6,6.1,11.5,7.8,20.4
			C513,214.5,511.2,225.6,510.3,225.6z"/>
		<g>
			<path d="M510.3,224.1c0.4,0,1,0.5,1.1,0.6c0,0,0.1,0.4,0.1,0.1c0-0.2-0.1-0.4-0.1-0.6c-0.2-0.8-0.2-1.1-0.3-1.8
				c-0.3-2.3-0.5-4.7-0.8-7c-0.9-7.8-2.1-15.6-3.6-23.3c-0.7-3.5-1.4-7-2.2-10.5c-0.9,0.4-1.8,0.8-2.7,1.2c4.1,7,7,14.7,8,22.8
				c0.6,4.3,0.7,8.8,0.4,13.1c-0.1,1.4-0.2,2.9-0.5,4.2c-0.1,0.5-0.2,0.9-0.4,1.4c-0.1,0.3-0.1,0.1-0.1,0.2c0,0.1,0,0.1-0.1,0.1
				c0.2-0.3,0.4-0.4,0.7-0.5c-1.9,0.3-1.1,3.2,0.8,2.9c1.5-0.3,1.8-2.8,2-4c0.5-3,0.7-6.1,0.7-9.1c0-8-1.4-15.9-4.4-23.4
				c-1.3-3.2-2.8-6.3-4.6-9.3c-0.9-1.5-3.1-0.5-2.7,1.2c1.7,7.6,3.1,15.2,4.3,22.9c0.9,6.1,1.5,12.3,2.3,18.5c0.2,1.4,0.3,3.1,2,3.3
				C512.2,227.3,512.2,224.3,510.3,224.1z"/>
		</g>
	</g>
	<g display="inline">
		<g>
			<path d="M616.4,283.5c0-3.5,0-7,0-10.5c0-0.8-0.7-1.5-1.5-1.5s-1.5,0.7-1.5,1.5c0,3.5,0,7,0,10.5c0,0.8,0.7,1.5,1.5,1.5
				S616.4,284.3,616.4,283.5L616.4,283.5z"/>
		</g>
	</g>
	<g display="inline">
		<g>
			<path d="M385.6,128.7c9-0.7,18.2-0.3,27.1,1c1.9,0.3,2.7-2.6,0.8-2.9c-9.2-1.4-18.6-1.8-27.9-1.1
				C383.7,125.8,383.7,128.8,385.6,128.7L385.6,128.7z"/>
		</g>
	</g>
	<g display="inline">
		<g>
			<path d="M494.4,169.8c-1.7-3.5-4.8-6.1-8.4-7.3c-0.7-0.2-1.7,0.3-1.9,1.1c-0.2,0.8,0.2,1.6,1,1.9c0.2,0.1,0.4,0.1,0.6,0.2
				c0.2,0.1,0.2,0.1,0,0c0.1,0,0.2,0.1,0.3,0.1c0.4,0.2,0.8,0.4,1.1,0.6c0.4,0.2,0.7,0.4,1,0.7c0.1,0.1,0.1,0.1,0.2,0.2
				c0.3,0.2-0.2-0.2,0.1,0.1c0.2,0.1,0.3,0.3,0.5,0.4c0.3,0.3,0.6,0.6,0.9,0.8c0.1,0.1,0.3,0.3,0.4,0.5c0.1,0.1,0.1,0.1,0.2,0.2
				c0,0.1,0.3,0.3,0,0.1c0.5,0.6,1,1.4,1.3,2.1c0.3,0.7,1.4,0.9,2,0.5C494.6,171.4,494.8,170.6,494.4,169.8L494.4,169.8z"/>
		</g>
	</g>
	<g display="inline">
		<g>
			<path d="M576.6,169.5c8.2,14.5,15.5,29.6,21.8,45.1c0.7,1.8,3.6,1,2.9-0.8c-6.4-15.7-13.8-31-22.1-45.8
				C578.2,166.3,575.6,167.9,576.6,169.5L576.6,169.5z"/>
		</g>
	</g>
	<g display="inline">
		<g>
			<path d="M330,230.2c0.5-4,2.2-7.7,3.9-11.4c1.8-3.8,3.6-7.7,5.5-11.4c3.7-7.5,7.6-14.9,11.8-22.2c1-1.7-1.6-3.2-2.6-1.5
				c-4.2,7.4-8.2,15-12,22.7c-1.9,3.8-3.7,7.6-5.5,11.5c-1.7,3.7-3.4,7.6-4,11.7c-0.1,0.8,0.2,1.6,1,1.9
				C328.9,231.4,329.9,231,330,230.2L330,230.2z"/>
		</g>
	</g>
	<path display="inline" fill="none" stroke="#FFB995" stroke-miterlimit="10" d="M322.8,307.5c-1.2,3.8-3.1,11.6-1,21
		c1.4,6.3,4,11.1,6,14"/>
	<path display="inline" fill="none" stroke="#FFB995" stroke-miterlimit="10" d="M623.9,306.4c1.2,3.8,3.1,11.6,1,21
		c-1.4,6.3-4,11.1-6,14"/>
	<path display="inline" fill="#323549" stroke="#25282D" stroke-width="2" stroke-miterlimit="10" d="M427.5,504.7
		c4.7,27.6,25.1,40.4,50,49c5.9-1.5,20-5.9,32-19c15.5-16.9,16.8-36.5,17-42c19.3,9.1,32.5,26.1,32,43
		c-0.7,27.7-37.7,44.3-41.7,46.1c-0.9,0.4-1.7,0.7-2.3,0.9c-35.3,14.2-107.4-0.4-116-37c-1.3-5.7-2.8-19,11-39
		C415.5,506,421.5,505.3,427.5,504.7z"/>
	<path display="inline" fill="#1E2722" stroke="#000000" stroke-miterlimit="10" d="M423.8,1524.5c0,0-9.5,47.4-6,99
		c3.3,49,22.2,90.4,25,120c1.2,25.4,1.1,49-4,66c-8.1,5.1-32,18.7-64.5,16.4c-25.9-1.8-44.3-12.8-52.5-18.4c-1.6-6.4-3.5-16.1-4-28
		c-0.9-19.9,2.5-34.1,8-57c3-12.6,7.9-33.2,15-64c1.8-44.7,0.5-87.9-5-129C363.3,1535.5,393,1532.6,423.8,1524.5z"/>
	<path display="inline" fill="none" stroke="#000000" stroke-miterlimit="10" d="M428.8,1752.5c-26.1-29.4-87-20-97,1"/>
	<path display="inline" fill="none" stroke="#000000" stroke-miterlimit="10" d="M318.8,1790.5c41,18.4,82,18.9,123,1"/>
	<path display="inline" fill="#1E2722" stroke="#000000" stroke-miterlimit="10" d="M529.8,1519.5c1.5,21.2,2.6,43.3,3.3,66
		c0.6,18.8,0.8,37.2,0.7,55c-7.7,32.5-15.4,65-23.1,97.5c0,0-1.1,49,4,66c8.1,5.1,32,18.7,64.5,16.4c25.9-1.8,44.3-12.8,52.5-18.4
		c1.6-6.4,3.5-16.1,4-28c0.9-19.9-2.5-34.1-8-57c-3-12.6-7.8-33.2-15-64c-0.5-21.1-0.6-43.1-0.2-65.8c0.5-26.3,1.7-51.6,3.3-75.7
		c-6.5,4.5-20.7,13.1-40.8,15.3C553.5,1529.1,537,1522.8,529.8,1519.5z"/>
	<path display="inline" fill="none" stroke="#000000" stroke-miterlimit="10" d="M521.7,1752.1c26.1-29.4,87-20,97,1"/>
	<path display="inline" fill="none" stroke="#000000" stroke-miterlimit="10" d="M631.7,1790.1c-41,18.4-82,18.9-123,1"/>
	<line display="inline" fill="none" stroke="#FFB995" stroke-miterlimit="10" x1="479.8" y1="323.5" x2="466.8" y2="331.5"/>
	<line display="inline" fill="none" stroke="#FFB995" stroke-miterlimit="10" x1="480.8" y1="328.5" x2="459.8" y2="341.5"/>
	<line display="inline" fill="none" stroke="#FFB995" stroke-miterlimit="10" x1="485.8" y1="331.5" x2="458.8" y2="348.5"/>
	<line display="inline" fill="none" stroke="#FFB995" stroke-miterlimit="10" x1="487.8" y1="337.5" x2="459.8" y2="354.5"/>
	<line display="inline" fill="none" stroke="#FFB995" stroke-miterlimit="10" x1="490.8" y1="341.5" x2="461.8" y2="358.5"/>
	<path display="inline" fill="#FFB995" stroke="#000000" stroke-width="0.5" stroke-miterlimit="10" d="M473.8,368
		c-0.2,4-0.3,8-0.5,12c-1.8-1.7-3.7-3.3-5.5-5"/>
	<g display="inline">
		<g>
			<path fill="#FFB995" d="M379.8,357.3c-0.6,0.8-1.2,1.6-1.8,2.5c-0.1,0.2-0.2,0.4-0.2,0.6c0,0.2,0,0.4,0,0.6
				c0.1,0.4,0.4,0.7,0.7,0.9c0.4,0.2,0.8,0.3,1.2,0.1c0.1,0,0.2-0.1,0.4-0.1c0.2-0.1,0.4-0.3,0.5-0.5c0.6-0.8,1.2-1.6,1.8-2.5
				c0.1-0.2,0.2-0.4,0.2-0.6c0-0.2,0-0.4,0-0.6c-0.1-0.4-0.4-0.7-0.7-0.9c-0.4-0.2-0.8-0.3-1.2-0.1c-0.1,0-0.2,0.1-0.4,0.1
				C380.1,356.9,379.9,357.1,379.8,357.3L379.8,357.3z"/>
		</g>
	</g>
	<g display="inline">
		<g>
			<path fill="#FFB995" d="M383.7,360.1c-0.2,0.3-0.4,0.6-0.6,0.9c-0.1,0.2-0.2,0.4-0.2,0.6c0,0.2,0,0.4,0,0.6
				c0,0.2,0.1,0.4,0.3,0.5c0.1,0.2,0.2,0.3,0.4,0.4c0.1,0,0.2,0.1,0.4,0.1c0.3,0.1,0.5,0.1,0.8,0c0.1,0,0.2-0.1,0.4-0.1
				c0.2-0.1,0.4-0.3,0.5-0.5c0.2-0.3,0.4-0.6,0.6-0.9c0.1-0.2,0.2-0.4,0.2-0.6c0-0.2,0-0.4,0-0.6c0-0.2-0.1-0.4-0.3-0.5
				c-0.1-0.2-0.2-0.3-0.4-0.4c-0.1,0-0.2-0.1-0.4-0.1c-0.3-0.1-0.5-0.1-0.8,0c-0.1,0-0.2,0.1-0.4,0.1
				C384,359.7,383.8,359.8,383.7,360.1L383.7,360.1z"/>
		</g>
	</g>
	<g display="inline">
		<g>
			<path fill="#FFB995" d="M553.2,359.9c0,0.5,0,1,0,1.5c0,0.2,0,0.4,0.1,0.6c0.1,0.2,0.2,0.4,0.3,0.5c0.1,0.1,0.3,0.2,0.5,0.3
				c0.2,0.1,0.4,0.1,0.6,0.1c0.1,0,0.3,0,0.4,0c0.2-0.1,0.5-0.2,0.7-0.4c0.3-0.3,0.4-0.6,0.4-1.1c0-0.5,0-1,0-1.5
				c0-0.2,0-0.4-0.1-0.6c-0.1-0.2-0.2-0.4-0.3-0.5c-0.1-0.1-0.3-0.2-0.5-0.3c-0.2-0.1-0.4-0.1-0.6-0.1c-0.1,0-0.3,0-0.4,0
				c-0.2,0.1-0.5,0.2-0.7,0.4C553.4,359.1,553.2,359.5,553.2,359.9L553.2,359.9z"/>
		</g>
	</g>
	<g display="inline">
		<g>
			<path fill="#FFB995" d="M557.8,358.7C557.8,358.7,557.8,358.8,557.8,358.7c0-0.1-0.1-0.2-0.2-0.3c0.2,0.3,0.4,0.7,0.6,1
				c0-0.1-0.1-0.2-0.2-0.4c0.2,0.4,0.3,0.8,0.3,1.3c0-0.1,0-0.3,0-0.4c0,0.4,0,0.8,0,1.1c0,0.4,0.2,0.8,0.4,1.1
				c0.3,0.3,0.7,0.5,1.1,0.4c0.4,0,0.8-0.1,1.1-0.4c0.1-0.1,0.2-0.2,0.2-0.3c0.1-0.2,0.2-0.5,0.2-0.8c0.1-0.8,0-1.5-0.2-2.2
				c-0.1-0.4-0.3-0.8-0.5-1.2c-0.2-0.4-0.5-0.7-0.7-1.1c-0.2-0.3-0.7-0.4-1.1-0.4c-0.4,0-0.8,0.2-1.1,0.4c-0.3,0.3-0.5,0.7-0.4,1.1
				c0,0.1,0,0.3,0,0.4C557.4,358.3,557.6,358.5,557.8,358.7L557.8,358.7z"/>
		</g>
	</g>
	<path display="inline" fill="#332C26" stroke="#000000" stroke-miterlimit="10" d="M458.8,212.5c-12.8,8.9-94,84-101,114
		c-2,5,9.6,31.4,11,31c0.1,0,0.1-0.1,0.1-0.1c0.7-2.6-54.9-18.4-44.1-91.9"/>
	<path display="inline" fill="#FFE3CB" d="M264.8,954.5c-4.9-18.4-21.6-36-32.8-33.4c-14.3,3.4-16.5,39.2-17.7,59.9
		c-1,16.5-4.8,88.3,28.5,104.5c1.9,0.9,10.5,5.1,16.5,1.5c13.3-8.1-8.3-41.9,0.5-91.5C263.2,976.2,268.7,969,264.8,954.5z"/>
	<path display="inline" fill="#FFE3CB" stroke="#000000" stroke-miterlimit="10" d="M262.8,1082.5c0,0,27,14,33,14
		c1.7-1.4,2-4,1.9-6.3c0,0,0-2.4-0.9-4.7c-1.5-4-13-9-13-9c-7.7-3.3-10.7-3.6-13-7c-1.5-2.1-2-6-2-6"/>
	<path display="inline" fill="#FFE3CB" stroke="#000000" stroke-miterlimit="10" d="M229.5,918.7c-9.3,14.1-20,33.7-27.6,58.5
		c-4.6,14.7-7.1,28.2-8.6,39.9c0,0,20.3,46.8,28,71l71,19c0.5-2,0.6-3.8,0.5-5.5c-0.9-16.9-24.3-26.9-27-28"/>
	<path display="inline" fill="#FFE3CB" stroke="#000000" stroke-miterlimit="10" d="M268.8,954.5c4,29-1,61-1,61
		c1.2,15.7,2.5,31.3,8,41c-1.7,6.5-7.1,8-15,6c-6.8-5.5-11.2-22.3-15-42c0,0-19.2-9.8-19.4-9.4c0,0,0.1,0.2,0.4,0.4"/>
	<path display="inline" fill="#FFE3CB" stroke="#000000" stroke-miterlimit="10" d="M221.8,1022.5c7.1,15,13.3,30,18,45"/>
	<path display="inline" fill="#323549" stroke="#25282D" stroke-width="2" stroke-miterlimit="10" d="M526.5,492.7
		c38,5.6,76.1,11.1,114.1,16.7c7,24.8,14.7,50.2,23,76c15,46.8,31,91.2,47.3,133.1c-34.6,21.9-66.4,27.8-96,21
		c-9.8-49.4-19.5-98.8-29.3-148.1"/>
	<path display="inline" fill="#323549" stroke="#25282D" stroke-width="2" stroke-miterlimit="10" d="M417.5,505.7
		c-35.9,6-71.8,11.9-107.7,17.9c-7,24.8-14.7,50.2-23,76c-15,46.8-30.9,91.2-47.3,133.1c34.6,21.9,66.4,27.8,96,21
		c9.8-49.4,19.5-98.8,29.3-148.1"/>
	<path display="inline" fill="#323549" d="M501.8,548.5c-18,6-37.4,6.7-58,3c0.1-3.8,8,29,30,38C504.8,572.5,503,542.5,501.8,548.5z
		"/>
	<path display="inline" fill="#323549" d="M429.8,540.5c-3.6-10.7-16.3-15.5-26-14c-16.1,2.6-27.1,23.7-21,35c6,11,28.5,12.7,40,2
		C428.1,558.6,432.8,549.5,429.8,540.5z"/>
	<path display="inline" fill="#323549" d="M575.3,529.9c-3.4-11-17.2-16.1-27-15.9c-22,0.4-41.5,27.7-36,40
		c5.7,12.8,40.8,15.3,56-1.1C569.2,552,578.8,541.3,575.3,529.9z"/>
	<path display="inline" fill="#2F3E68" stroke="#000000" stroke-miterlimit="10" d="M592.8,899.5c4.6,14.2,9.1,29.1,13.3,44.7
		c5.8,21.3,10.7,41.8,14.7,61.3l-8,311c-1.7,30.6-3.1,77.7,1,135c8.4,117.9,2.7,204.1,2.7,204.1s-36.4,18.2-92-2
		c-4.9-52.7-9.8-105.4-14.7-158.1l0,0c-3.4-62.3-6.9-124.6-10.3-186.9c-8.2-81.7-16.5-163.4-24.7-245.1l0,0c-17.7-0.7-35.3-1.3-53-2
		"/>
	<path display="inline" fill="#2F3E68" stroke="#000000" stroke-miterlimit="10" d="M360.8,898.5c-9,35.3-18,70.7-27,106
		c-0.5,103.5,5.7,207.3,10,311c-5.3,164.1-12.3,334.1-12.3,334.1s40.5,20.9,100,1c4.7-153.2,14.8-311.8,31.2-475.5
		c3.8-37.6,7.8-74.8,12.1-111.6c21.3-0.8,32-1.5,32-2c0-0.7-24.7-1.1-74-1"/>
	<g display="inline">
		<path fill="#27335A" d="M492.3,946.2c-2.5,35.1-5,70.2-7.5,105.4"/>
		<g>
			<path fill="#27335A" d="M490.8,946.2c-1.9,27.3-3.9,54.7-5.8,82c-0.5,7.8-1.1,15.6-1.6,23.4c-0.1,1.9,2.9,1.9,3,0
				c1.9-27.3,3.9-54.7,5.8-82c0.5-7.8,1.1-15.6,1.6-23.4C493.9,944.2,490.9,944.2,490.8,946.2L490.8,946.2z"/>
		</g>
	</g>
	<g display="inline">
		<path fill="#27335A" d="M461.3,949c-3.5,35.5-7,71-10.5,106.5"/>
		<g>
			<path fill="#27335A" d="M459.8,949c-2.7,27.8-5.5,55.5-8.2,83.2c-0.8,7.8-1.5,15.5-2.3,23.3c-0.2,1.9,2.8,1.9,3,0
				c2.7-27.8,5.5-55.5,8.2-83.2c0.8-7.8,1.5-15.5,2.3-23.3C463,947.1,460,947.1,459.8,949L459.8,949z"/>
		</g>
	</g>
	<g display="inline">
		<path fill="#27335A" d="M385.1,955.8c-1,11.6-1.9,23.2-2.9,34.8c-0.1,1.6-0.3,3.2-0.9,4.6c-1.2,2.7-3.5,4.1-4,4.5
			c-3.5,2.4-16.8,15.2-37.5,35.9"/>
		<g>
			<path fill="#27335A" d="M383.6,955.8c-0.7,9-1.5,17.9-2.2,26.8c-0.2,2.2-0.4,4.5-0.5,6.7c-0.2,2-0.2,4-1.2,5.8
				c-0.9,1.6-2.2,2.6-3.7,3.7c-2.4,1.8-4.7,4-6.9,6c-3.9,3.7-7.8,7.4-11.6,11.1c-6.3,6.1-12.5,12.3-18.7,18.5
				c-1.4,1.4,0.8,3.5,2.1,2.1c9.8-9.7,19.5-19.5,29.5-28.9c2.3-2.2,4.7-4.4,7.2-6.4c-0.3,0.2,0.1-0.1,0.2-0.2
				c0.2-0.1,0.4-0.3,0.6-0.4c1.1-0.8,2-1.6,2.9-2.7c2.5-3.3,2.4-7.5,2.8-11.4c0.8-10.3,1.7-20.5,2.5-30.8
				C386.8,953.9,383.8,953.9,383.6,955.8L383.6,955.8z"/>
		</g>
	</g>
	<g display="inline">
		<path fill="#27335A" d="M562.5,946.8c0,8.2-0.1,16.3-0.1,24.5c0,1.3,0,2.8,0.9,3.9c0.7,0.8,1.8,1.2,2.8,1.6
			c12.2,4.1,24.3,8.2,36.4,12.3"/>
		<g>
			<path fill="#27335A" d="M561,946.8c0,4.8,0,9.6-0.1,14.5c0,2.5,0,4.9,0,7.3c0,1.9-0.3,4.2,0.4,6c0.7,1.9,2.2,2.8,4,3.4
				c2.3,0.8,4.7,1.6,7,2.4c4.7,1.6,9.3,3.1,14,4.7c5.3,1.8,10.6,3.6,15.8,5.4c1.8,0.6,2.6-2.3,0.8-2.9c-8.8-3-17.5-5.9-26.3-8.9
				c-2.1-0.7-4.3-1.4-6.4-2.2c-1.1-0.4-2.2-0.8-3.3-1.1c-0.8-0.3-1.8-0.5-2.4-1.1c-1.2-1.2-0.7-4-0.7-5.5c0-2.2,0-4.4,0-6.6
				c0-5.2,0.1-10.3,0.1-15.4C564,944.9,561,944.9,561,946.8L561,946.8z"/>
		</g>
	</g>
	<path display="inline" fill="#27335A" stroke="#27335A" stroke-miterlimit="10" d="M351.8,1073.5c-2.5,55.3,2.9,127.3,16,216"/>
	<path display="inline" fill="#27335A" stroke="#27335A" stroke-miterlimit="10" d="M370.8,1358.5c-6.3,42.7-9.6,85.3-10,128"/>
	<g display="inline">
		<path fill="#323549" d="M348.8,563.5c-6.1,134.4-12.2,268.8-18.3,403.1c30.4,13.5,78.6,30.7,140,35c68.1,4.8,123-8.4,156-19
			c-8.2-142.4-16.5-284.8-24.7-427.1"/>
		<path fill="#25282D" d="M349.1,563.5c-1.6,100.9-4.7,201.8-11,302.5c-2.5,33.2-5.3,68.1-7.5,100.5c26.4,10.2,53.5,18.7,81.2,24.9
			c9.1,2.4,18.2,5.3,27.6,6.7c10.8,2,26.7,1.8,37.8,2.2c50,2.8,102.2-2.9,149.2-17.7c-5.3-88.2-13.5-178.5-17.8-266.8
			c-2.8-53.4-5.4-106.8-6.9-160.3l0.5,0c4.7,53.3,8.2,106.7,11.6,160c3.4,51.3,6,108.5,8.1,160.2c1.2,35.6,3.3,71.7,4.8,107.1
			c-42.1,13.6-86.3,21.3-130.6,21.5c-6.3-0.1-12.7-0.2-19-0.7c-9.5-0.5-18.9-2.4-28.3-3.8c-12.5-2.3-25.2-2.8-37.7-4.9
			c-28-5.8-55.3-15.3-80.7-28.2c1.8-50.5,1-101,3.4-151.5C338,731.7,341.1,646.1,349.1,563.5L349.1,563.5z"/>
	</g>
	<g display="inline">
		<path fill="#27335A" d="M595.8,1080.5c-0.7,92.7-1.3,185.3-2,278"/>
		<path fill="#27335A" d="M595.9,1080.5c0,90.3-0.9,187.6-2,278h-0.1C594.1,1268.2,594.3,1170.6,595.9,1080.5L595.9,1080.5z"/>
	</g>
	<path display="inline" fill="#27335A" stroke="#27335A" stroke-miterlimit="10" d="M599.8,1398.5c-3.4,36.3-7,69.9-11,97
		c-11.2,15.7-26,22.7-42,27"/>
	<path display="inline" fill="none" stroke="#000000" stroke-miterlimit="10" d="M530.8,480.5"/>
	<path display="inline" fill="#FFE3CB" d="M688.2,957c4.9-18.4,21.6-36,32.8-33.4c14.3,3.4,16.5,39.2,17.7,59.9
		c1,16.5,4.8,88.3-28.5,104.5c-1.9,0.9-10.5,5.1-16.5,1.5c-13.3-8.1,8.3-41.9-0.5-91.5C689.7,978.7,684.3,971.5,688.2,957z"/>
	<path display="inline" fill="#FFE3CB" stroke="#000000" stroke-miterlimit="10" d="M690.2,1085c0,0-27,14-33,14
		c-1.7-1.4-2-4-1.9-6.3c0,0,0-2.4,0.9-4.7c1.5-4,13-9,13-9c7.7-3.3,10.7-3.6,13-7c1.5-2.1,2-6,2-6"/>
	<path display="inline" fill="#FFE3CB" stroke="#000000" stroke-miterlimit="10" d="M723.4,921.2c9.3,14.1,20,33.7,27.6,58.5
		c4.5,14.7,7.1,28.2,8.6,39.9c0,0-20.3,46.8-28,71l-71,19c-0.5-2-0.6-3.8-0.5-5.5c0.9-16.9,24.3-26.9,27-28"/>
	<path display="inline" fill="#FFE3CB" stroke="#000000" stroke-miterlimit="10" d="M684.2,957c-4,29,1,61,1,61
		c-1.2,15.7-2.5,31.3-8,41c1.7,6.5,7.1,8,15,6c6.8-5.5,11.2-22.3,15-42c0,0,19.2-9.8,19.4-9.4c0,0-0.1,0.2-0.4,0.4"/>
	<path display="inline" fill="#FFE3CB" stroke="#000000" stroke-miterlimit="10" d="M731.2,1025c-7.1,15-13.3,30-18,45"/>
	<g display="inline">
		<path fill="#323549" d="M580.5,606.7c-16.3,98-26.2,201.8-27,311c-0.1,10-0.1,20,0,30"/>
		<path fill="#25282D" d="M581.5,606.8c-6.5,56.6-12.6,113.4-16.7,170.2c-4.2,55.9-6.3,114.7-10.3,170.7l-2,0
			c-0.6-7.1-1.1-14.3-1.5-21.4c-3.5-64.3,0.5-128.9,7.8-192.8c4.9-42.6,11.6-85.1,20.7-127C579.5,606.5,581.5,606.8,581.5,606.8
			L581.5,606.8z"/>
	</g>
	<path display="inline" fill="#323549" stroke="#25282D" stroke-width="5" stroke-miterlimit="10" d="M388.5,636.7
		c9,52.7,18,105.3,27,158"/>
	<g display="inline">
		<g>
			<path fill="#25282D" d="M312.6,605.5c5.5,20.9,9.6,42.3,12,63.8c0.7,6.1,1.2,12.2,1.7,18.3c0.1,1.9,3.1,1.9,3,0
				c-1.5-21.8-4.7-43.5-9.4-64.8c-1.3-6.1-2.8-12.1-4.4-18.1C315,602.8,312.1,603.6,312.6,605.5L312.6,605.5z"/>
		</g>
	</g>
	<g display="inline">
		<g>
			<path fill="#25282D" d="M636.1,523.5c-9.5,0.1-18.3,6.4-21.6,15.3c-0.7,1.8,2.2,2.6,2.9,0.8c2.8-7.7,10.5-13.1,18.7-13.1
				C638,526.5,638,523.5,636.1,523.5L636.1,523.5z"/>
		</g>
	</g>
	<g display="inline">
		<g>
			<path fill="#25282D" d="M320.7,538.8c6.2,0.8,11.6,4.9,14.1,10.7c0.3,0.7,1.4,0.9,2,0.5c0.8-0.5,0.9-1.3,0.5-2
				c-2.7-6.4-9-11.1-15.9-12c-0.8-0.1-1.6,0.2-1.9,1C319.5,537.6,319.9,538.7,320.7,538.8L320.7,538.8z"/>
		</g>
	</g>
	<g display="inline">
		<g>
			<path fill="#25282D" d="M414.2,927.2c5.7,5.6,10.6,12,15.8,18c5.4,6.4,10.9,12.8,16.3,19.2c3.1,3.6,6.1,7.2,9.2,10.8
				c1.2,1.5,3.4-0.7,2.1-2.1c-10.8-12.8-21.7-25.5-32.5-38.2c-2.9-3.4-5.7-6.8-8.9-9.9C415,923.8,412.9,925.9,414.2,927.2
				L414.2,927.2z"/>
		</g>
	</g>
	<path display="inline" fill="none" stroke="#000000" stroke-miterlimit="10" d="M108.1,22L108.1,22L108.1,22z"/>
	<g display="inline">
		<path fill="#FFFFFF" d="M503.1,343.1c-2.4-4.1-2.1-8.2-1.9-11.5c0.1-1.5,0.7-11.2,6.8-16.9c11.6-10.9,45.5-10,57.9,5.4
			c5.6,6.9,7.7,17.8,1,26.1c-9.3,11.5-29,10.3-33.8,10C530.4,356,509.7,354.6,503.1,343.1z"/>
		<path fill="none" stroke="#000000" stroke-width="4" stroke-miterlimit="10" d="M570.6,347.9c0.4-2.5,2.7-19.7-10-31.1
			c-15.6-14.1-44.8-11.2-56,1.8c-2.9,3.4-4.3,7-5,10.1"/>
		<circle stroke="#000000" stroke-miterlimit="10" cx="529.8" cy="330.6" r="12.2"/>
		<circle fill="#FFFFFF" cx="535.6" cy="327" r="4.8"/>
		<path fill="#FFFFFF" d="M440.7,341.7c2.4-4.1,2.1-8.2,1.9-11.5c-0.1-1.5-0.7-11.2-6.8-16.9c-11.6-10.9-45.5-10-57.9,5.4
			c-5.6,6.9-7.7,17.8-1,26.1c9.3,11.5,29,10.3,33.8,10C413.4,354.6,434.1,353.1,440.7,341.7z"/>
		<circle stroke="#000000" stroke-miterlimit="10" cx="414" cy="329.2" r="12.2"/>
		<circle fill="#FFFFFF" cx="420.2" cy="325.6" r="4.8"/>
		<path fill="none" stroke="#000000" stroke-miterlimit="10" d="M380.1,348c3,1.5,28.6,13.8,50,1c5.3-3.1,9.2-7.2,12-11"/>
		<path fill="none" stroke="#000000" stroke-width="3" stroke-miterlimit="10" d="M429.6,291.9c-23.8-0.8-45.8,3.1-65,14"/>
		<path fill="none" stroke="#000000" stroke-width="3" stroke-miterlimit="10" d="M511.6,291.9c23.8-0.8,45.8,3.1,65,14"/>
		<path fill="none" stroke="#000000" stroke-width="4" stroke-miterlimit="10" d="M372.5,345.1c-0.4-2.5-2.7-19.7,10-31.1
			c15.6-14.1,44.8-11.2,56,1.8c2.9,3.4,4.3,7,5,10.1"/>
		<path fill="none" stroke="#000000" stroke-miterlimit="10" d="M563.8,349.9c-3,1.5-28.6,13.8-50,1c-5.3-3.1-9.2-7.2-12-11"/>
	</g>
	<path display="inline" fill="#FFFFFF" stroke="#000000" stroke-miterlimit="10" d="M517.2,414l-82.9,1.5c-8,1.5,12,29.5,48,25.2
		c25-3,40.4-23.5,36.6-26.3C518.4,414.1,517.2,414,517.2,414z"/>
</g>
<g id="Layer_2" display="none">
	<g display="inline">
		<path fill="#0F131F" stroke="#FFFFFF" stroke-miterlimit="10" d="M424.7,1523.3c0,0-9.5,47.4-6,99c3.3,49,22.2,90.4,25,120
			c1.2,25.4,1.1,49-4,66c-8.1,5.1-32,18.7-64.5,16.4c-25.9-1.8-44.3-12.8-52.5-18.4c-1.6-6.4-3.5-16.1-4-28c-0.9-19.9,2.5-34.1,8-57
			c3-12.6,7.9-33.2,15-64c1.8-44.7,0.5-87.9-5-129C364.2,1534.3,393.8,1531.4,424.7,1523.3z"/>
		<path fill="none" stroke="#FFFFFF" stroke-miterlimit="10" d="M429.7,1751.3c-26.1-29.4-87-20-97,1"/>
		<path fill="none" stroke="#FFFFFF" stroke-miterlimit="10" d="M319.7,1789.3c41,18.4,82,18.9,123,1"/>
		<path fill="#0F131F" stroke="#FFFFFF" stroke-miterlimit="10" d="M527.7,1523.3c1.5,21.2,2.6,43.3,3.3,66
			c0.6,18.8,0.8,37.2,0.7,55c-7.7,32.5-15.4,65-23.1,97.5c0,0-1.1,49,4,66c8.1,5.1,32,18.7,64.5,16.4c25.9-1.8,44.3-12.8,52.5-18.4
			c1.6-6.4,3.5-16.1,4-28c0.9-19.9-2.5-34.1-8-57c-3-12.6-7.8-33.2-15-64c-0.5-21.1-0.6-43.1-0.2-65.8c0.5-26.3,1.7-51.6,3.3-75.7
			c-6.5,4.5-20.7,13.1-40.8,15.3C551.4,1532.9,534.9,1526.6,527.7,1523.3z"/>
		<path fill="none" stroke="#FFFFFF" stroke-miterlimit="10" d="M522.6,1750.8c26.1-29.4,87-20,97,1"/>
		<path fill="none" stroke="#FFFFFF" stroke-miterlimit="10" d="M632.6,1788.8c-41,18.4-82,18.9-123,1"/>
		<g>
			<path fill="#144A5B" d="M415.7,1664.5c2.4,16,5.4,31.9,9.1,47.7"/>
			<g>
				<path fill="#332C16" d="M411.4,1665.7c2.4,16,5.4,31.9,9.1,47.7c0.5,2.3,3.3,3.9,5.5,3.1c2.4-0.8,3.7-3.1,3.1-5.5
					c-3.7-15.8-6.7-31.7-9.1-47.7c-0.4-2.3-3.4-3.8-5.5-3.1C412,1661,411,1663.2,411.4,1665.7L411.4,1665.7z"/>
			</g>
		</g>
		<g>
			<path fill="#FFFFFF" d="M601.8,1669.1c5.4,16.1,10.8,32.3,16.2,48.4"/>
			<g>
				<path fill="#332C16" d="M597.5,1670.3c5.4,16.1,10.8,32.3,16.2,48.4c0.8,2.2,3.1,3.9,5.5,3.1c2.2-0.7,3.9-3.2,3.1-5.5
					c-5.4-16.1-10.8-32.3-16.2-48.4c-0.8-2.2-3.1-3.9-5.5-3.1C598.4,1665.5,596.7,1667.9,597.5,1670.3L597.5,1670.3z"/>
			</g>
		</g>
		<g>
			<path fill="#FFFFFF" d="M390.3,1743.8c6.8,2.2,13.2,5.5,19,9.7"/>
			<g>
				<path fill="#332C16" d="M389.1,1748.1c0.9,0.3,1.7,0.6,2.6,0.9c0.4,0.2,0.9,0.3,1.3,0.5c0.2,0.1,1.6,0.6,0.5,0.2
					c1.6,0.6,3.1,1.4,4.6,2.2c3.1,1.6,6.1,3.5,9,5.5c1.9,1.4,5.1,0.4,6.2-1.6c1.2-2.3,0.4-4.7-1.6-6.2c-6.1-4.4-13-7.8-20.1-10.2
					c-2.2-0.7-5,0.9-5.5,3.1C385.4,1745.1,386.7,1747.3,389.1,1748.1L389.1,1748.1z"/>
			</g>
		</g>
		<g>
			<path fill="#FFFFFF" d="M578.2,1746.8c9.6,0.1,19.1,3.5,26.5,9.6"/>
			<g>
				<path fill="#332C16" d="M578.2,1751.3c1.1,0,2.2,0.1,3.4,0.2c0.3,0,0.6,0.1,0.8,0.1c0.4,0,0.5,0.1,0.1,0
					c0.6,0.1,1.1,0.2,1.7,0.3c2.3,0.4,4.5,1,6.7,1.8c0.5,0.2,1,0.4,1.6,0.6c0.7,0.2-0.6-0.3,0.1,0c0.3,0.1,0.5,0.2,0.8,0.3
					c1,0.5,2,1,3,1.5c1,0.6,1.9,1.1,2.9,1.8c0.5,0.3,0.9,0.6,1.4,1c0.1,0,0.7,0.5,0.4,0.3c-0.4-0.3,0.6,0.5,0.5,0.4
					c1.8,1.5,4.6,1.9,6.4,0c1.5-1.6,2-4.8,0-6.4c-8.4-6.8-18.8-10.8-29.7-10.9c-2.3,0-4.6,2.1-4.5,4.5
					C573.8,1749.2,575.6,1751.2,578.2,1751.3L578.2,1751.3z"/>
			</g>
		</g>
	</g>
</g>
<g id="Layer_3" display="none">
	<path display="inline" fill="#080D1D" d="M270.1,938.3c-9.5-23.6-48-36.4-59.4-25.6c-6.7,6.4-0.4,17.5,7.7,52.8
		c15,65.7,8,96.8,29.2,107.1c2,1,10.8,5.2,16.9,1.5c13.5-8.2-7.3-42.6,0.5-93.8C268.6,956.6,275,950.6,270.1,938.3z"/>
	<path display="inline" fill="#080D1D" stroke="#FFFFFF" stroke-miterlimit="10" d="M263.9,1081.8c0,0,27.7,14.3,33.8,14.3
		c1.8-1.5,2.1-4.1,1.9-6.5c0,0,0.1-2.4-0.9-4.8c-1.6-4.1-13.3-9.2-13.3-9.2c-7.9-3.4-11-3.7-13.3-7.2c-1.5-2.2-2.1-6.2-2.1-6.2"/>
	<path display="inline" fill="#080D1D" stroke="#FFFFFF" stroke-miterlimit="10" d="M207.1,916.3c0.8,22.3-10.8,98.3-14.3,98.4
		c0,0,20.8,48,28.7,72.8l72.8,19.5c0.5-2.1,0.6-3.9,0.5-5.7c-0.9-17.4-24.9-27.6-27.7-28.7"/>
	<path display="inline" fill="#080D1D" stroke="#FFFFFF" stroke-miterlimit="10" d="M270.1,950.6c4.1,29.7-1,62.5-1,62.5
		c1.3,16.1,2.6,32.1,8.2,42c-1.8,6.7-7.3,8.2-15.4,6.2c-7-5.7-11.5-22.8-15.4-43c0,0-19.7-10-19.9-9.6c0,0.1,0.1,0.2,0.5,0.4"/>
	<path display="inline" fill="none" stroke="#FFFFFF" stroke-miterlimit="10" d="M221.9,1020.2c7.3,15.4,13.6,30.7,18.5,46.1"/>
	<path display="inline" fill="#080D1D" d="M683.6,943.3c9.5-23.6,48-36.4,59.4-25.6c6.7,6.4,0.4,17.5-7.7,52.8
		c-15,65.7-8,96.8-29.2,107.1c-2,1-10.8,5.2-16.9,1.5c-13.5-8.2,7.3-42.6-0.5-93.8C685.1,961.7,678.6,955.6,683.6,943.3z"/>
	<path display="inline" fill="#080D1D" stroke="#FFFFFF" stroke-miterlimit="10" d="M689.8,1086.8c0,0-27.7,14.3-33.8,14.3
		c-1.8-1.5-2.1-4.1-1.9-6.5c0,0-0.1-2.4,0.9-4.8c1.6-4.1,13.3-9.2,13.3-9.2c7.9-3.4,11-3.7,13.3-7.2c1.5-2.2,2.1-6.2,2.1-6.2"/>
	<path display="inline" fill="#080D1D" stroke="#FFFFFF" stroke-miterlimit="10" d="M746.7,921.3c-0.8,22.3,10.8,98.3,14.3,98.4
		c0,0-20.8,48-28.7,72.8l-72.7,19.4c-0.5-2.1-0.6-3.9-0.5-5.7c0.9-17.4,24.9-27.6,27.7-28.7"/>
	<path display="inline" fill="#080D1D" stroke="#FFFFFF" stroke-miterlimit="10" d="M683.6,955.6c-4.1,29.7,1,62.5,1,62.5
		c-1.3,16.1-2.6,32.1-8.2,42c1.8,6.7,7.3,8.2,15.4,6.2c7-5.7,11.5-22.8,15.4-43c0,0,19.7-10,19.9-9.6c0,0.1-0.1,0.2-0.5,0.4"/>
	<path display="inline" fill="#080D1D" stroke="#FFFFFF" stroke-miterlimit="10" d="M731.8,1025.3c-7.3,15.4-13.6,30.7-18.5,46.1"/>
</g>
<g id="Layer_4" display="none">
	<path display="inline" fill="none" stroke="#000000" stroke-miterlimit="10" d="M576,1201.2"/>
	<g display="inline">
		<path fill="#426646" d="M587,915c2-4.3,6.3-15.2,1.4-22.1c-3.4-4.7-9.7-5.5-12-5.8c-54.9-6.9-12.3-12-90.7-13.6
			c-40.5-0.8-83.1-1-118.6,18.5c-1.8,1-3.6,2.1-4.7,3.8c-0.9,1.5-1.1,3.3-1.3,5c-3.1,30.5-3.3,61.3-0.4,91.9
			c0.8,8.4,1.8,16.8,4.8,24.7c4.3,11.3,12.5,20.7,20.5,29.8c3.9,4.5,8.1,9.1,13.5,11.5c6.3,2.7,13.5,2.1,20.4,2.4
			c10,0.4,19.8,2.8,29.8,3.8c10,1.1,20.5,0.6,29.3-4.2c5.9-3.2,10.6-8.2,15.2-13.1c13.2-14,26.4-28.1,38.1-43.4
			c4.2-5.5,8.2-11.1,12.9-16c5.4-5.6,11.8-10.2,16.8-16.2c6.2-7.4,10.1-16.4,13.9-25.3c3.6-8.5,8.1-20.3,11.8-35"/>
		<g>
			<path d="M587.3,915.2c3.7-8.1,6.9-20.5-2.6-26c-3.8-2.2-8.2-2.4-12.4-3c-4.1-0.6-8.2-1.2-12.3-2c-4.6-0.9-9.2-1.9-13.5-3.6
				c-2.4-0.9-4.7-2.1-7.1-3c-3.4-1.3-7.1-1.9-10.7-2.4c-8-1-16-1.4-24.1-1.7c-13.3-0.5-26.7-0.8-40-0.8c-13.4,0-26.9,0.4-40.3,1.9
				c-13.1,1.5-26.1,4.1-38.5,8.5c-6.1,2.2-12,4.7-17.7,7.8c-2.4,1.3-5.2,2.7-6.4,5.3c-0.6,1.3-0.8,2.7-0.9,4
				c-0.2,1.9-0.4,3.9-0.6,5.8c-2.8,30.2-2.8,60.9,0.6,91.1c0.8,7,2,14.1,4.6,20.7c2.4,6.1,6,11.7,10,16.9
				c3.9,5.2,8.2,10.1,12.6,14.9c4.3,4.8,9.2,8.9,15.6,10.4c6.6,1.5,13.5,0.8,20.2,1.3c7.4,0.6,14.7,2.2,22.1,3.1
				c13.1,1.8,27,1.5,38-6.8c5.3-4,9.7-9.1,14.2-13.9c5.1-5.4,10.1-10.8,15.1-16.4c4.8-5.4,9.6-10.9,14.2-16.5
				c4.5-5.6,8.7-11.5,13.2-17.1c4.4-5.4,9.5-10,14.7-14.7c5-4.5,9.3-9.4,12.7-15.1c3.5-5.8,6.1-12,8.7-18.2c2.1-4.9,4-10,5.8-15
				c2.2-6.3,4.1-12.8,5.7-19.3c0.1-0.5-0.6-0.7-0.7-0.2c-3,11.9-6.9,23.5-11.6,34.7c-2.6,6-5.1,12.1-8.5,17.7
				c-3.5,5.9-7.9,10.7-12.9,15.3c-5,4.5-10,9-14.2,14.2c-4.4,5.4-8.4,11.1-12.8,16.5c-9,11.2-18.7,21.8-28.5,32.3
				c-4.5,4.8-8.9,10-14.1,14.2c-5.2,4.3-11.2,6.9-17.9,8c-14,2.2-27.8-1.9-41.6-3.3c-6.8-0.7-13.8,0.1-20.6-1.3
				c-6.7-1.3-11.6-5.5-16.1-10.4c-8.8-9.7-18.1-20-22.8-32.5c-2.5-6.7-3.6-13.8-4.3-20.9c-0.8-7.3-1.3-14.7-1.7-22
				c-0.8-14.8-0.9-29.7-0.3-44.5c0.3-7.4,0.8-14.8,1.4-22.2c0.2-1.8,0.3-3.6,0.5-5.4c0.2-1.8,0.3-3.8,1.1-5.5
				c1.5-2.9,5.1-4.3,7.8-5.7c11.5-5.9,24-9.8,36.6-12.4c25.7-5.2,52.2-4.9,78.3-4.4c11.2,0.2,22.4,0.5,33.6,1.2
				c5.3,0.4,10.7,0.8,15.9,2c5.6,1.3,10.7,4.2,16.2,5.8c6.1,1.7,12.4,2.7,18.6,3.7c4.1,0.6,8.4,0.7,12.3,2.2c2.6,0.9,5.1,2.6,6.6,5
				c1.4,2.3,1.9,5.1,1.8,7.8c-0.1,4.6-1.7,9.2-3.6,13.3C586.5,915.2,587.1,915.6,587.3,915.2L587.3,915.2z"/>
		</g>
	</g>
	<path display="inline" fill="#426646" stroke="#000000" stroke-miterlimit="10" d="M592.4,904.9c4.6,14.2,9.1,29.1,13.3,44.7
		c5.8,21.3,10.7,41.8,14.7,61.3c-2.6,33.6-1.8,88.2-4,155.5c-8.2,255.9,26.7,395.8,13.8,448.1c-4.7,18.9-44.4,24.7-107,8
		c-4-152.1-15.8-311.2-37.8-476.4c-3.5-26-7.1-51.7-11-77.2c-17.7-0.7-35.3-1.3-53-2"/>
	<path display="inline" fill="#426646" stroke="#000000" stroke-miterlimit="10" d="M360.4,903.9c-9,35.3-18,70.7-27,106
		c2.2,33.8,1,88.4,3.2,155.4c8.9,269.8-25.4,413.2-7.4,457.2c12.9,12.6,42.2,20.5,99,2c2.4-41.9,4.8-83.7,7.2-125.6
		c6.9-103.9,15.8-210.1,26.9-318.4c3.8-37.5,7.9-74.7,12.1-111.6c21.3-0.8,32-1.5,32-2c0-0.7-24.7-1.1-74-1"/>
	<g display="inline">
		<path fill="#20382B" d="M384.6,961.2c-0.9,11.6-1.9,23.2-2.9,34.8c-0.1,1.6-0.3,3.2-0.9,4.6c-1.2,2.7-3.5,4.1-4,4.5
			c-3.5,2.4-16.8,15.2-37.5,35.8"/>
		<g>
			<path fill="#20382B" d="M383.1,961.2c-0.7,9-1.5,17.9-2.2,26.8c-0.2,2.2-0.4,4.5-0.6,6.7c-0.2,2-0.2,4-1.2,5.8
				c-0.9,1.6-2.2,2.6-3.7,3.7c-2.4,1.8-4.7,4-6.9,6c-3.9,3.7-7.8,7.4-11.6,11.1c-6.3,6.1-12.5,12.3-18.7,18.5
				c-1.4,1.4,0.8,3.5,2.1,2.1c9.8-9.7,19.5-19.5,29.5-28.9c2.3-2.2,4.7-4.4,7.2-6.4c-0.3,0.2,0.1-0.1,0.2-0.2
				c0.2-0.1,0.4-0.3,0.6-0.4c1.1-0.8,2.1-1.6,2.9-2.7c2.6-3.3,2.4-7.5,2.8-11.4c0.8-10.3,1.7-20.5,2.5-30.8
				C386.3,959.3,383.3,959.3,383.1,961.2L383.1,961.2z"/>
		</g>
	</g>
	<path display="inline" fill="#20382B" stroke="#20382B" stroke-miterlimit="10" d="M351.4,1078.9c-2.5,55.3,2.9,127.3,16,216"/>
	<path display="inline" fill="#20382B" stroke="#20382B" stroke-miterlimit="10" d="M370.4,1363.9c-6.3,42.7-9.6,85.3-10,128"/>
	<g display="inline">
		<path fill="#20382B" d="M595.4,1085.9c-0.7,92.7-1.3,185.3-2,278"/>
		<path fill="#20382B" d="M595.4,1085.9c0,90.3-0.9,187.6-2,278h-0.1C593.6,1273.6,593.8,1176,595.4,1085.9L595.4,1085.9z"/>
	</g>
	<path display="inline" fill="#20382B" stroke="#20382B" stroke-miterlimit="10" d="M599.4,1403.9c-3.4,36.3-7,69.9-11,97
		c-11.2,15.7-26,22.7-42,27"/>
	<g display="inline">
		<path fill="#20382B" d="M560.6,957.2c1,11.6,1.9,23.2,2.9,34.8c0.1,1.6,0.3,3.2,0.9,4.6c1.2,2.7,3.5,4.1,4,4.5
			c3.5,2.4,16.8,15.2,37.5,35.8"/>
		<g>
			<path fill="#20382B" d="M559.1,957.2c0.8,9.1,1.5,18.2,2.2,27.3c0.2,2.3,0.4,4.6,0.6,7c0.2,1.9,0.3,3.9,1.1,5.7
				c1,2.3,2.8,3.9,4.8,5.4c0.1,0.1,0.5,0.4,0.3,0.3c-0.1-0.1,0.4,0.3,0.5,0.4c0.5,0.4,1,0.8,1.4,1.2c1.3,1.2,2.6,2.3,3.9,3.5
				c4,3.7,7.9,7.5,11.8,11.2c6.4,6.2,12.7,12.5,19,18.8c1.4,1.4,3.5-0.8,2.1-2.1c-9.6-9.6-19.2-19.2-29.1-28.5
				c-2.4-2.2-4.8-4.5-7.3-6.6c-1-0.8-2.2-1.5-3.1-2.5c-2.8-2.9-2.5-7.1-2.8-10.8c-0.8-10.1-1.7-20.2-2.5-30.3
				C562,955.3,559,955.2,559.1,957.2L559.1,957.2z"/>
		</g>
	</g>
</g>
<g id="Layer_6">
	<g>
		<path fill="#426646" stroke="#000000" stroke-miterlimit="10" d="M529.9,487.4c40.5,9.2,81,18.4,121.4,27.6
			c7.8,21.5,11,43.3,13.7,65c13.9,110.5,61.5,208.2,82,297c11.6,29.3,19.3,58.7,18,88c-25.1,45.8-57.2,44.5-91,31
			c-29-130.7-58-261.3-87-392"/>
		<path fill="#426646" stroke="#000000" stroke-miterlimit="10" d="M428.9,488.4c-35.6,7.6-71.2,15.1-106.9,22.7
			c-7.8,24.9-15.5,50.2-23,76c-17.6,60.5-33.2,119.5-47,177c-13.6,31.9-27,66.9-39.4,104.9c-8.3,25.7-15.5,50.4-21.6,74.1
			c3.4,6.8,14.9,27.7,40,39c15.2,6.8,29.1,7.3,37,7c36.3-132,72.7-264,109-396"/>
		<g>
			<path fill="#426646" d="M346.2,545.1c0.6,151.3-1.3,263.4-3.1,301c-1.8,37.2-6.8,70.2-6.8,70.2c-2.7,28.7-5.3,57.3-8,86
				c35.5,7.2,75.7,13.4,120,17c49,4,93.7,4,133,2c6.7-1,24-4.5,39-19c9.9-9.5,14.7-19.8,17-26c-23.4-83.7-28.5-130.3-29-157
				c0-2.6-0.2-14-0.3-26.2c-0.8-68.8-0.5-64.9-0.6-86.5c-0.1-17.5-4-41.9-3.8-78c0-9.5,0.3-20.8,1.3-33.8
				c1.7-23.5,4.7-43.2,7.3-57.7"/>
			<path d="M346.3,545.1c0.3,92.9,0.2,185.8-2.3,278.7c-0.7,31-3.3,61.9-7.6,92.5l-8,86c20.2,3.8,41.7,7.8,62.6,10.6
				c52.5,7.3,105.6,10.1,158.5,9c10.5-0.2,21.4-0.6,31.7-1c10.8-1.6,21.3-5.6,30.4-11.8c11.6-8,20.7-19.6,25.6-32.9
				c-4.9-17.4-9.6-35.7-13.8-53.5c-8.2-35.9-15.2-72.5-15.3-109.5c-0.2-17.9-0.7-65.6-0.8-83.1c-0.1-9.2,0-18.5-0.2-27.7
				c-0.3-9.2-1.2-18.4-1.9-27.6c-3.8-46-1.7-92.5,6.8-137.9l0.2,0c-8.5,45.4-10.6,91.8-6.8,137.8c0.7,9.2,1.6,18.4,1.9,27.6
				c0.2,15.8,0.2,39.3,0.3,55.4c0.5,32.8-0.6,78.5,5.3,110.5c5.7,36.5,14.5,72.4,24.4,107.9c-5.4,14.8-16,27.7-29.5,35.8
				c-8.1,4.9-17.2,8.2-26.5,9.6c-10.6,0.6-21.2,1-31.8,1.2c-53,0.9-106.1-2.6-158.6-9.8c-21-3-42.2-6.4-62.8-10.8l8-86
				c4.3-30.6,6.9-61.6,7.6-92.5C346.5,731,345.9,637.4,346.3,545.1L346.3,545.1z"/>
		</g>
		<g>
			<path d="M593.5,807.3c-1.7,11.3-7.1,21.2-13.5,30.5c-2.2,3-4.6,5.9-7.5,8.5l-0.9-0.5c2.4-13.3,10.8-30,21-39
				C592.6,806.8,593.5,807.3,593.5,807.3L593.5,807.3z"/>
		</g>
		<g>
			<path fill="#20382B" d="M399.1,591.1c16.1,82.1,33.1,158.7,53,219"/>
			<path fill="#20382B" d="M399.2,591c14,69,28.5,138.1,48.8,205.5c1.4,4.5,2.8,9,4.2,13.5l-0.2,0.1c-12-35.6-21.5-72-30-108.6
				C413.8,664.9,405.3,627.5,399.2,591L399.2,591z"/>
		</g>
		<g>
			<path fill="#20382B" d="M377.1,819.1c24.3,33.5,56.9,50.2,92,62"/>
			<path fill="#20382B" d="M377.2,819c21.6,29.2,51.7,47.2,85.3,59.5l6.6,2.4l-0.1,0.2l-6.7-2.2c-24.4-8.4-48.1-20.5-66.9-38.5
				c-6.9-6.5-13-13.7-18.5-21.3C377,819.1,377.2,819,377.2,819L377.2,819z"/>
		</g>
		<line fill="none" stroke="#20382B" stroke-miterlimit="10" x1="539.1" y1="605.1" x2="498.1" y2="709.1"/>
		<g>
			<path fill="#20382B" d="M581.8,787.8c-14.6,6.3-29.8,11.4-45.2,15.3c3.1,8.6,4.7,17.7,4.8,26.8"/>
			<g>
				<path fill="#20382B" d="M581,786.5c-14.5,6.3-29.5,11.3-44.9,15.1c-0.7,0.2-1.3,1.1-1,1.8c3,8.5,4.6,17.4,4.7,26.5
					c0,1.9,3,1.9,3,0c-0.1-9.3-1.7-18.5-4.8-27.2c-0.3,0.6-0.7,1.2-1,1.9c15.6-3.9,30.8-9,45.6-15.4
					C584.3,788.3,582.8,785.7,581,786.5L581,786.5z"/>
			</g>
		</g>
		<g>
			<path fill="#20382B" d="M509.5,730.6c10,0,20,0,30,0"/>
			<g>
				<path fill="#20382B" d="M509.5,732.1c10,0,20,0,30,0c1.9,0,1.9-3,0-3c-10,0-20,0-30,0C507.6,729.1,507.6,732.1,509.5,732.1
					L509.5,732.1z"/>
			</g>
		</g>
		<g>
			<path fill="#20382B" d="M344.7,564.9c-7.8,28.4-12.9,57.5-15.2,86.8"/>
			<g>
				<path fill="#20382B" d="M343.3,564.5c-6.1,22.2-10.5,44.9-13.3,67.8c-0.8,6.5-1.4,12.9-2,19.4c-0.1,1.9,2.9,1.9,3,0
					c1.8-22.8,5.3-45.4,10.5-67.7c1.4-6.3,3-12.5,4.7-18.7C346.7,563.4,343.8,562.6,343.3,564.5L343.3,564.5z"/>
			</g>
		</g>
		<g>
			<path fill="#20382B" d="M261.8,772.1c-0.1,2.4,0.6,4.7,1.4,6.9c2.8,8.6,5.6,17.3,8.4,25.9"/>
			<g>
				<path fill="#20382B" d="M260.3,772.1c0,2.8,0.8,5.4,1.6,8c0.9,2.8,1.8,5.7,2.7,8.5c1.8,5.6,3.6,11.1,5.4,16.7
					c0.6,1.8,3.5,1,2.9-0.8c-1.8-5.4-3.5-10.8-5.2-16.3c-0.9-2.7-1.7-5.3-2.6-8c-0.9-2.7-1.9-5.3-1.9-8.2
					C263.4,770.2,260.4,770.2,260.3,772.1L260.3,772.1z"/>
			</g>
		</g>
		<g>
			<path fill="#20382B" d="M729.6,887.9c-14.5,12.7-29.3,25.8-38.2,43c-0.3,0.7-0.7,1.5-0.2,2.1c0.3,0.4,0.9,0.5,1.4,0.5
				c1.5,0.2,3.1,0.3,4.7,0.5"/>
			<g>
				<path fill="#20382B" d="M728.5,886.8c-13.7,12-27.8,24.4-36.9,40.5c-1,1.8-3.2,4.6-1.6,6.6c0.7,0.9,1.7,1,2.8,1.1
					c1.5,0.2,3,0.3,4.4,0.4c1.9,0.2,1.9-2.8,0-3c-1.1-0.1-2.2-0.2-3.3-0.3c-0.4,0-1.2,0.1-1.5-0.2c0,0,0.3-0.6,0.5-0.9
					c1-1.8,2-3.6,3.1-5.3c2.1-3.4,4.5-6.7,7-9.8c5.2-6.3,11-12.1,17-17.6c3.5-3.2,7-6.3,10.5-9.4
					C732.1,887.7,729.9,885.6,728.5,886.8L728.5,886.8z"/>
			</g>
		</g>
		<g>
			<path fill="#20382B" d="M269.8,825.6c-0.2,5.8,0.5,11.6,2.1,17.2c0.3,1.1,0.7,2.3,1.6,3c0.8,0.6,1.8,0.8,2.8,1
				c3.7,0.5,7.4,0.7,11.2,0.5"/>
			<g>
				<path fill="#20382B" d="M268.3,825.6c-0.1,3.3,0.1,6.6,0.5,9.9c0.4,3,0.9,6.3,2.1,9.1c0.5,1.2,1.2,2.3,2.4,2.9
					c1.3,0.7,2.8,0.8,4.3,1c3.3,0.4,6.6,0.5,9.9,0.3c1.9-0.1,1.9-3.1,0-3c-2.9,0.1-5.8,0.1-8.7-0.2c-1.2-0.1-2.6-0.1-3.7-0.6
					c-1.1-0.4-1.4-1.4-1.7-2.4c-1.6-5.5-2.3-11.3-2.1-17C271.4,823.7,268.4,823.7,268.3,825.6L268.3,825.6z"/>
			</g>
		</g>
		<ellipse fill="#426646" cx="416.5" cy="541.1" rx="24.5" ry="30"/>
		<path fill="#426646" d="M568,533.1c0,13.7-9.9,29.3-24.5,30c-13.3,0.6-24.1-11.5-26.5-23c-3.6-17.3,10.7-37.6,26.5-37
			C556.6,503.6,568,518.4,568,533.1z"/>
		<path fill="#426646" stroke="#000000" stroke-width="2" stroke-miterlimit="10" d="M428.8,488.9c0.9,30.4,27.3,53.3,55.3,50.7
			c25.7-2.4,46.5-25.7,45.7-53.4c3,0.7,6,1.4,9,2.1c0.1,32.8-24.2,59.9-53.8,63.3c-33.5,3.8-66.5-23.5-68.2-60.9
			C420.8,490.2,424.8,489.6,428.8,488.9z"/>
	</g>
</g>
<g id="Layer_5" display="none">
	<g display="inline">
		<path fill="#426646" stroke="#000000" stroke-miterlimit="10" d="M658.5,263.9c-2-26.9-7-48.6-11-62.7
			c-17.6-18.5-66-64.1-141.8-77.6C404.2,105.4,327.8,158,311,170.3c-5.6,8.6-13.6,23.1-18,42.5c-4,18-3.2,32.8-2,45.7
			c8.1,89.7,37.8,164.1,47.6,187.6l0,0c14,34.3,28,68.6,42,102.9l211.7,2.1c15.7-42.3,27.1-78.4,35-105.2
			C661.4,329.6,660,284.4,658.5,263.9z M538.4,428.4c-29.9,0-55.2-24.1-62.7-56.9C464.5,399.6,441,419,413.9,419
			c-38.1,0-68.9-38.1-68.9-85.2s30.8-85.2,68.9-85.2c32.7,0,60,28.1,67.1,65.8c10.9-24.4,5.2-92.4,52.3-88.1
			c35.8,3.3,70.2,81.7,70.2,124.5S574.3,428.4,538.4,428.4z"/>
		<path fill="#FFE3CB" stroke="#000000" stroke-miterlimit="10" d="M540.3,407.2c2.8,25.1-6.4,13.8-8.5,95.7
			c-3.1,9.9-9.5,27.5-23.4,45.7c-10.7,14.1-19.8,26.2-31.9,26.6c-20.1,0.7-35.7-31.5-42.5-45.7c-14.4-29.8-6.4-68.1-11.7-112.7
			C444.6,388.9,495.3,381.8,540.3,407.2z"/>
		<g>
			<path fill="#FFB995" d="M424.9,416.2c12.8-6.8,38.8-18.4,72.7-17.1c17.9,0.7,32.7,4.7,43.3,8.6c-2.1,16-4.3,31.9-6.4,47.9
				c0,0-24.5,19.9-38.6,24.4c-18.3,5.8-35,5.2-49.6,4.5c-9-0.5-16.3-1.5-21.4-2.3"/>
		</g>
		<path fill="none" stroke="#000000" stroke-miterlimit="10" d="M341.4,318.8"/>
		<path fill="#332C26" d="M623.2,270c14.1-12.9-10-83.7-59.9-120.5c-65.3-48.1-179.3-41-224.1,21.5c-24.6,34.3-29.3,86.7-11.7,97.8
			c30.7,19.4,133-89.2,145.2-77.1c5.3,5.3-11.8,27.8-4.8,34.6c7.5,7.1,27.6-17.2,52.7-13.3c24.8,3.9,25.7,30.9,62.7,48.9
			C591.9,266.2,614.9,277.6,623.2,270z"/>
		<g>
			<g>
				<path d="M454.2,191.4c0.8-3.9,1.2-7.8,1.2-11.8c0-0.9-1.1-1.7-1.9-1.1c-3.6,2.5-6.9,5.4-9.8,8.7c-0.5,0.5-0.5,1.3,0,1.8
					c0.5,0.5,1.4,0.5,1.8,0c2.7-3.1,5.8-5.9,9.2-8.3c-0.6-0.4-1.3-0.7-1.9-1.1c0,3.7-0.3,7.4-1.1,11.1c-0.1,0.7,0.2,1.4,0.9,1.6
					C453.3,192.4,454.1,192,454.2,191.4L454.2,191.4z"/>
			</g>
		</g>
		<g>
			<path d="M515.2,209.5c-0.8,0-0.9-7.8-3.3-23.2c-1.5-9.7-3.2-17.7-4.4-23.1c2.9,4.8,6.5,12.2,8.3,21.7
				C518.2,197.7,516.2,209.5,515.2,209.5z"/>
			<g>
				<path d="M515.2,208.2c0.6,0,0.7,0.2,0.9,0.5c-0.2-0.2,0.1,0.3,0,0.1c0-0.2-0.1-0.4-0.2-0.6c-0.2-0.8-0.2-1.1-0.3-1.8
					c-0.3-2.5-0.5-5-0.8-7.5c-1-8.4-2.3-16.7-3.8-25c-0.7-3.7-1.5-7.4-2.3-11.1c-0.8,0.3-1.6,0.7-2.3,1c7.1,12,10.3,26,8.9,39.9
					c-0.1,1.2-0.3,2.4-0.6,3.6c-0.1,0.4-0.2,0.8-0.3,1.1c0,0.1-0.1,0.2,0,0c0,0-0.1,0.1-0.1,0.1c0,0-0.1,0.1-0.1,0.1
					c0.2-0.1,0.5-0.4,0.6-0.4c-1.6,0.2-0.9,2.7,0.7,2.5c1.5-0.2,1.8-3.1,2-4.2c0.5-3.2,0.7-6.5,0.7-9.7c-0.1-8.5-1.6-16.9-4.8-24.7
					c-1.3-3.3-2.9-6.5-4.7-9.6c-0.8-1.3-2.7-0.4-2.3,1c1.8,7.9,3.3,15.9,4.5,23.9c1,6.5,1.6,13.1,2.5,19.7c0.2,1.3,0.2,3.5,1.9,3.6
					C516.9,210.9,516.9,208.3,515.2,208.2z"/>
			</g>
		</g>
		<g>
			<g>
				<path d="M627.8,271c0-3.7,0-7.5,0-11.2c0-1.7-2.6-1.7-2.6,0c0,3.7,0,7.5,0,11.2C625.3,272.7,627.8,272.7,627.8,271L627.8,271z"
					/>
			</g>
		</g>
		<g>
			<g>
				<path d="M393.3,142.2c9.7-0.7,19.4-0.4,29,1.1c1.6,0.2,2.3-2.2,0.7-2.5c-9.8-1.5-19.7-1.9-29.6-1.2
					C391.7,139.8,391.6,142.3,393.3,142.2L393.3,142.2z"/>
			</g>
		</g>
		<g>
			<g>
				<path d="M498.1,150.3c-1.8-3.6-5-6.4-8.8-7.7c-0.6-0.2-1.4,0.2-1.6,0.9c-0.2,0.7,0.2,1.4,0.9,1.6c0.2,0.1,0.4,0.1,0.6,0.2
					c0.1,0,0.3,0.1,0.1,0c0.1,0.1,0.2,0.1,0.3,0.1c0.4,0.2,0.8,0.4,1.2,0.6c0.4,0.2,0.7,0.5,1.1,0.7c0.1,0.1,0.2,0.1,0.2,0.2
					c0.3,0.2-0.2-0.2,0.1,0.1c0.2,0.1,0.3,0.3,0.5,0.4c0.3,0.3,0.6,0.6,0.9,0.9c0.2,0.2,0.3,0.3,0.4,0.5c0.1,0.1,0.1,0.2,0.2,0.2
					c0,0,0.2,0.3,0.1,0.1c0.5,0.7,1,1.5,1.4,2.3c0.3,0.6,1.2,0.8,1.8,0.5C498.2,151.6,498.4,150.9,498.1,150.3L498.1,150.3z"/>
			</g>
		</g>
		<g>
			<g>
				<path d="M586,149.7c6.8,12,13,24.4,18.6,37.1c1.6,3.6,3.1,7.3,4.6,10.9c0.6,1.5,3.1,0.8,2.5-0.7c-5.3-13-11.2-25.7-17.7-38.1
					c-1.9-3.5-3.8-7-5.8-10.5C587.4,146.9,585.2,148.2,586,149.7L586,149.7z"/>
			</g>
		</g>
		<g>
			<g>
				<path d="M323.2,213.9c0.4-3.3,1.7-6.4,3-9.4c1.4-3.1,2.8-6.2,4.3-9.2c3-6.2,6.1-12.4,9.4-18.5c1.9-3.5,3.8-7,5.7-10.5
					c0.8-1.4-1.4-2.7-2.2-1.3c-7,12.4-13.6,25.2-19.4,38.2c-1.5,3.5-2.8,7-3.3,10.7c-0.1,0.7,0.7,1.3,1.3,1.3
					C322.7,215.2,323.1,214.6,323.2,213.9L323.2,213.9z"/>
			</g>
		</g>
		<path fill="none" stroke="#FFB995" stroke-miterlimit="10" d="M315.9,296.6c-1.3,4-3.3,12.3-1.1,22.3c1.5,6.7,4.3,11.8,6.4,14.9"
			/>
		<path fill="none" stroke="#FFB995" stroke-miterlimit="10" d="M636.1,295.3c1.3,4,3.3,12.3,1.1,22.3c-1.5,6.7-4.3,11.8-6.4,14.9"
			/>
		<path stroke="#000000" stroke-miterlimit="10" d="M528.6,396.6c-7.1-0.7-88,6.8-97.8,12.8c-13.5,8.2,19.7,44.3,50,43.6
			C516.2,452.1,544.8,398.1,528.6,396.6z"/>
		<path fill="#FF3858" d="M529.6,415.7c-26.7-3.2-47.3-1.4-61.7,1.1c0,0-2.9,0.5-37.2,7.4l0,0c0,0,20.2,29.8,53.2,28.7
			C498.8,450.8,516.9,438.1,529.6,415.7z"/>
		<path fill="#FFFFFF" stroke="#000000" stroke-miterlimit="10" d="M440.3,413.6c23.2-4.1,65.3-4.8,81.9-10.6c2.8-1,4-5.6,2.1-6.4
			c-4.7-1.9-90.3,9.7-90.4,11.7C433.9,408.9,433.5,414.8,440.3,413.6z"/>
		<line fill="none" stroke="#FFB995" stroke-miterlimit="10" x1="482.8" y1="313.6" x2="469" y2="322.1"/>
		<line fill="none" stroke="#FFB995" stroke-miterlimit="10" x1="483.9" y1="318.9" x2="461.6" y2="332.8"/>
		<line fill="none" stroke="#FFB995" stroke-miterlimit="10" x1="494.5" y1="332.8" x2="463.7" y2="350.8"/>
		<path fill="#FFB995" stroke="#000000" stroke-width="0.5" stroke-miterlimit="10" d="M476.5,360.9c-0.2,4.3-0.4,8.5-0.5,12.8
			c-2-1.8-3.9-3.5-5.9-5.3"/>
		<path fill="#8DA1A9" d="M609.9,553.3c-3.6-11.7-18.3-17.1-28.7-16.9c-23.4,0.4-44.1,29.5-38.3,42.5c6,13.6,43.4,16.3,59.5-1.2
			C603.4,576.8,613.6,565.4,609.9,553.3z"/>
		<path fill="none" stroke="#000000" stroke-miterlimit="10" d="M537.1,490.2"/>
		<path fill="none" stroke="#000000" stroke-miterlimit="10" d="M537.1,480.6"/>
		<path fill="none" stroke="#000000" stroke-miterlimit="10" d="M541.3,479.5"/>
		<path fill="#304D37" stroke="#000000" stroke-miterlimit="10" d="M580.7,472.1"/>
		<g>
			<path fill="#597590" d="M651,556.6c-8.6,9.5-16.9,19.1-25.2,28.8"/>
			<g>
				<path fill="#597590" d="M650.1,555.7c-8.5,9.5-16.9,19.1-25.2,28.8c-1.1,1.3,0.8,3.1,1.8,1.8c8.2-9.8,16.6-19.4,25.2-28.8
					C653,556.2,651.2,554.4,650.1,555.7L650.1,555.7z"/>
			</g>
		</g>
		<path fill="#426646" d="M330.4,365.4c3.1-19.7,11.9-55.1,40.4-83.8c57.8-58.1,173-65,222.3-4.8c27.6,33.6,25.9,77.8,23.4,99.2
			c11.7-15.1,48.1-65.9,45.4-138c-1.7-45.4-18.2-79.5-28.4-97.1c-29.6-12.4-73.4-26.3-127.6-28.7c-97.6-4.4-171.7,31.1-205.3,50
			c-5.8,22.8-12.7,63-4.3,111.7C303.6,315.3,319.1,346.4,330.4,365.4z"/>
		<path stroke="#000000" stroke-width="5" stroke-miterlimit="10" d="M533.7,503.3c12.4,2.8,24.8,5.7,37.2,8.5
			c-12.4,20.2-24.8,40.4-37.2,60.6c-17.1,20.5-41.6,24-70.2,18.1c-17.1-0.7-31.9-10.3-45.7-24.5c-13.4-11.3-23.3-31.4-33-52.1
			c13.1-3.2,28.7-8.5,39.4-9.6c2.1,15.1,7.1,30.5,23.4,46.8c4.2,1.7,31.1,12.4,55.3-1.1c2.1-1.1,11.4-6.5,19.4-17.6
			C530.7,520.8,533,509.2,533.7,503.3z"/>
		<path fill="#8DA1A9" d="M358.2,524.6c-4.5-3-7.5-9.6-5.3-13.8c2.7-5.2,12.2-5,18.1-2.1c4,1.9,9.3,6.5,8.5,10.6
			C378.4,524.9,365.8,529.6,358.2,524.6z"/>
		<g>
			<path d="M599.8,542c-17.6,13.9-34.7,28.3-51.3,43.4"/>
		</g>
		<g>
			<path fill="#597590" d="M377.3,551.8c4.5,7.3,10.1,14,16.5,19.7"/>
			<g>
				<path fill="#597590" d="M376.2,552.4c4.6,7.4,10.2,14.2,16.7,20c1.2,1.1,3-0.7,1.8-1.8c-6.3-5.7-11.8-12.2-16.3-19.5
					C377.5,549.7,375.3,551,376.2,552.4L376.2,552.4z"/>
			</g>
		</g>
		<path fill="#8DA1A9" d="M574.4,520.8h31.9v-8.5c-9.2-1.1-18.4-2.1-27.7-3.2C577.2,513,575.8,516.9,574.4,520.8z"/>
		<path fill="#426646" d="M310.9,162.7c4.3-0.6,13.1,4.1,13.6,9.7c0.1,1.3-0.1,2.7-0.8,4.1c-42.5,87.8,46.6,249.2,52.1,249.9
			c0.3,0,2.8,0.3,2.7,0.6c0,0.7-16.8,0.8-20.8,0.5c-32.4-2.7-65.4-104.1-61.7-203.1C296.3,215.9,298.5,164.5,310.9,162.7z"/>
		<path fill="#426646" d="M629.3,146.3c-7.3,0.1-13.6,23.1-22.3,21.3c-2.6-0.5-4.9-2.9-5.3-5.3c-0.8-4.5,4.9-10.4,14.9-13.8l0,0l0,0
			l4.3,5.3c5.4,6.7,12.6,17.3,17.3,31.7c2.8,8.7,4.1,16.5,4.6,22.9c1.5,12.1,0.7,20.8-0.4,37.7c-1.4,23-5.8,52.5-17.7,94.2
			c0,0-19,87.5-43.5,91c-0.3,0-2.7,0.4-2.7,0.6c0,0.9,28.8,0.4,31.5-0.6c38.9-14.9,46.5-116.9,47.4-132.2
			C661.8,216.6,642.2,146.2,629.3,146.3z"/>
		<path fill="#426646" d="M631,159.5c-8.9-2.7-17.3,4.4-24.5,8.5c-6.8,3.9,27.7,27.8,28.7,78.7c0.1,3.8,7.2,2.7,10.6,1.1
			C662.8,239.8,657.4,167.5,631,159.5z"/>
		<path fill="#5B7077" stroke="#000000" stroke-miterlimit="10" d="M525.2,472.7c-23.7,26-78.5,26.5-100,2.1
			c-34.5-39.2,18.3-141.4,54.2-140.4C513.8,335.4,562.9,431.4,525.2,472.7z"/>
		<path fill="#426646" d="M524.2,595.1c36.2-17.2,71-58.2,61.7-85.1c-17.3-50.1-189.6-58.8-212.7-9.6c-12.2,26,15.9,70.8,51.1,91.5
			C470.7,619.3,518.3,597.8,524.2,595.1z"/>
		<path fill="#20382B" stroke="#20382B" stroke-miterlimit="10" d="M400.8,481.2c-23.4-0.5-41.9-17.3-61.2-31.4"/>
		<path fill="#20382B" stroke="#20382B" stroke-miterlimit="10" d="M560.1,476c23.4-0.5,41.9-17.3,61.2-31.4"/>
		<path fill="#20382B" stroke="#20382B" stroke-miterlimit="10" d="M304,196.2c17.1,1.1,45.7,0.5,77.6-11.7
			c19.7-7.5,34.9-17.3,45.7-25.5"/>
		<path fill="#20382B" stroke="#20382B" stroke-miterlimit="10" d="M510.3,135.6c16.7-2.4,54.6-5.4,93.6,14.9
			c15.1,7.9,26.7,17.3,35.1,25.5"/>
		<path fill="none" stroke="#20382B" stroke-width="3" stroke-miterlimit="10" d="M291.8,230.8c26.7-16.9,73-41.2,135.1-50
			c97.3-13.7,173.3,19.1,203.1,34"/>
		<path fill="#426646" stroke="#000000" stroke-miterlimit="10" d="M342.3,490.8c-18.9,13.3-33.9,31.5-44.7,55.3
			c21.6,16.8,90.3,65.8,191.4,67.7c100,1.9,170.1-43.3,192.5-59.2c-3.5-23.4-36.6-43.3-64.9-63.8"/>
		<path fill="#20382B" stroke="#20382B" stroke-miterlimit="10" d="M626.3,578c-1.6-14.3-60.6-27.7-106.4-9.6
			c-26.1,10.3-58.2,34.9-55.3,41.5c0.3,0.6,0.8,0.9,1,1.1C477.5,618.4,628.9,601.3,626.3,578z"/>
		<path fill="#20382B" stroke="#20382B" stroke-miterlimit="10" d="M605,498.3c-15.6,18-43.3,24.4-74.4,27.7c0,0,17.6,8.8,51.1,10.6
			"/>
		<path fill="#20382B" stroke="#20382B" stroke-miterlimit="10" d="M346.5,502.5c17.5,16.1,42.3,29.2,85.1,35.1"/>
		<path fill="#231F20" stroke="#000000" stroke-width="3" stroke-miterlimit="10" d="M465,337.3c-4.7-38.7-20.8-71.2-42.5-75.5
			c-33.1-6.5-78.8,52.8-69.1,97.8c3.5,16.4,16.2,39.6,34,42.5c13.8,2.3,29-12,29.8-4.3c0.5,4.5-4.3,27.1-7.4,35.1
			c-5.7,14.6-50.2-9-68.1-37.2c-26.7-42-11.8-109.2,27.7-147.8c37.9-37.1,87.6-37.2,104.2-37.2c16.4,0,69.7-0.1,109.6,41.5
			c2.6,2.7,36.3,39,37.2,91.5c0.4,20.2-4.3,35.3-6.4,41.5c-3.8,11.1-11.1,31.7-30.8,45.7c-8.3,5.9-22.4,18.1-33,10.6
			c-10.8-7.6-12.8-47.5-16-47.9c-6.7-0.8,17.8,7.6,31.9-9.6c13.8-16.9,19.7-39.9,20.2-47.9c1.5-22.5-6-59.8-35.1-73.4
			c-3.1-1.5-17.9-8.3-34-3.2c-15.4,4.9-36.9,32.1-37.2,73.4"/>
		<g>
			<circle fill="#8DA1A9" cx="479" cy="455.2" r="64.9"/>
			<path d="M418.3,455.2c-1.8,40.1,33.4,71.8,73.2,63c29-6.2,49.7-33.4,47.7-63c-1.4-27.2-22.4-50.9-49.2-55.5
				C455.1,393.4,419.6,418.9,418.3,455.2L418.3,455.2z M409.9,455.2c-1.8-39,29.3-73.8,69.1-73.3c28.9,0,55.9,18.9,65.5,46.2
				c12.9,35-5.5,75-40.3,88C461.6,532.7,411.4,501.7,409.9,455.2L409.9,455.2z"/>
		</g>
		<circle stroke="#000000" stroke-miterlimit="10" cx="479.5" cy="458.9" r="6.4"/>
		<line fill="none" stroke="#000000" stroke-miterlimit="10" x1="443.3" y1="421.6" x2="465.7" y2="444.1"/>
		<line fill="none" stroke="#000000" stroke-miterlimit="10" x1="461.9" y1="458.9" x2="424.7" y2="458.9"/>
		<line fill="none" stroke="#000000" stroke-miterlimit="10" x1="480.5" y1="441.4" x2="480.5" y2="411.6"/>
		<line fill="none" stroke="#000000" stroke-miterlimit="10" x1="480.5" y1="508.4" x2="480.5" y2="478.6"/>
		<line fill="none" stroke="#000000" stroke-miterlimit="10" x1="443.4" y1="496.6" x2="465.9" y2="474.2"/>
		<line fill="none" stroke="#000000" stroke-miterlimit="10" x1="494.5" y1="471" x2="516.9" y2="493.4"/>
		<line fill="none" stroke="#000000" stroke-miterlimit="10" x1="494.5" y1="445.6" x2="516.9" y2="423.1"/>
		<line fill="none" stroke="#000000" stroke-miterlimit="10" x1="535.3" y1="458.9" x2="498.1" y2="458.9"/>
		<path fill="none" stroke="#000000" stroke-width="3" stroke-miterlimit="10" d="M549.7,441.9c-16.6-60.8-47.1-108.6-70.2-107.4
			c-24.8,1.2-62.9,47.2-70.2,105.3c-14.6-1.9-35.6-7.2-52.1-23.4c-40-39.1-30.8-119.4,6.8-163.1c53.8-62.7,173-59.2,224.4,5.3
			C626.1,306,630,389.8,589,424.9C576.2,435.9,561.3,440.1,549.7,441.9z"/>
		<path fill="none" stroke="#000000" stroke-width="3" stroke-miterlimit="10" d="M546.5,455.7c-6.8-73-42.8-124.1-67-121.3
			c-27.4,3.3-67.9,50.6-68.1,119.1c-18.1-1.5-44-6.9-64.3-25.9c-47.3-44.4-38.3-139.3,8.3-191.5c60-67.2,184.3-66,242.5,3.2
			c48.1,57.2,48.5,157.6-0.8,197.4C581,449.8,562.2,454.4,546.5,455.7z"/>
		<path fill="none" stroke="#000000" stroke-width="7" stroke-miterlimit="10" d="M488.4,334.1c36.4,20.3,36.5,49.1,44.7,56.4
			c1.1,1,16.9,10,31.7,4.8c23-8.1,34.2-47.6,25.8-75c-11.9-38.7-84.1-126.1-110.1,8.2C479.8,331.6,483.8,331.5,488.4,334.1z"/>
		<path fill="none" stroke="#000000" stroke-width="7" stroke-miterlimit="10" d="M460.7,338.3c-9.8,9.9-16.6,18.8-22.3,26.6
			C420,390,423,390.6,417.1,394.7c-10,6.9-25,9.6-36.7,5.1c-24.3-9.4-33.9-48.6-25.8-75c11.9-38.7,84.1-126.1,110.1,8.2
			c0.1,0.7-0.1,1.4-0.1,1.4C463.7,335.3,462.4,336.7,460.7,338.3z"/>
	</g>
</g>
</svg>
