<?xml version="1.0" encoding="utf-8"?>
<!-- Generator: Adobe Illustrator 28.3.0, SVG Export Plug-In . SVG Version: 6.00 Build 0)  -->
<svg version="1.1" id="Layer_1" xmlns="http://www.w3.org/2000/svg" xmlns:xlink="http://www.w3.org/1999/xlink" x="0px" y="0px"
	 viewBox="0 0 916 850" style="enable-background:new 0 0 916 850;" xml:space="preserve">
<style type="text/css">
	.st0{opacity:0.6;fill:#CCCCCC;enable-background:new    ;}
	.st1{display:none;fill:#426646;}
	.st2{fill:#E1B350;}
	.st3{fill:#C4C9D6;stroke:#000000;stroke-miterlimit:10;}
	.st4{fill:#3E505C;stroke:#000000;stroke-miterlimit:10;}
	.st5{fill:#B53A3E;stroke:#000000;stroke-miterlimit:10;}
	.st6{fill:#FFE3CB;stroke:#000000;stroke-miterlimit:10;}
	.st7{fill:#FFB995;}
	.st8{fill:#332C26;}
	.st9{fill:#332C26;stroke:#000000;stroke-miterlimit:10;}
	.st10{fill:none;stroke:#000000;stroke-miterlimit:10;}
	.st11{fill:none;stroke:#FFB995;stroke-miterlimit:10;}
	.st12{fill:#FFB995;stroke:#000000;stroke-width:0.5;stroke-miterlimit:10;}
	.st13{fill:#B53A3E;}
	.st14{fill:#841D33;}
	.st15{fill:none;stroke:#841D33;stroke-miterlimit:10;}
	.st16{fill:none;stroke:#000000;stroke-width:5;stroke-miterlimit:10;}
	.st17{stroke:#000000;stroke-width:5;stroke-miterlimit:10;}
	.st18{stroke:#000000;stroke-miterlimit:10;}
	.st19{fill:#FFFFFF;}
	.st20{fill:none;stroke:#000000;stroke-width:4;stroke-miterlimit:10;}
	.st21{fill:none;stroke:#000000;stroke-width:3;stroke-miterlimit:10;}
	.st22{fill:#FFFFFF;stroke:#000000;stroke-miterlimit:10;}
	.st23{enable-background:new    ;}
	.st24{opacity:0.38;stroke:#000000;stroke-width:5;stroke-miterlimit:10;enable-background:new    ;}
</style>
<path class="st0" d="M834,432c0,107.5-44.9,204.5-116.9,273.3c-0.3,0.3-0.6,0.6-0.9,0.9c0,0,0,0,0,0c-1.4,1.3-2.8,2.7-4.3,4
	c-0.3,0.3-0.7,0.6-1,0.9c0,0-0.1,0.1-0.1,0.1c-3.5,3.2-7.2,6.4-10.8,9.5c-1.6,1.3-3.2,2.7-4.8,4c0,0-0.1,0.1-0.1,0.1v0
	c-2.4,2-4.8,3.9-7.3,5.8c-0.5,0.4-1.1,0.8-1.6,1.3c-0.2,0.1-0.3,0.2-0.5,0.4c-0.2,0.2-0.5,0.4-0.7,0.6c-0.9,0.7-1.9,1.4-2.8,2.2
	c-0.9,0.7-1.8,1.3-2.7,2c-0.7,0.5-1.3,1-2,1.4c-0.1,0.1-0.2,0.2-0.3,0.3c-0.2,0.2-0.5,0.3-0.7,0.5c-0.3,0.2-0.5,0.4-0.8,0.6
	c-0.2,0.2-0.5,0.3-0.7,0.5c-0.4,0.3-0.8,0.5-1.2,0.8c-0.1,0.1-0.2,0.2-0.3,0.2c-0.2,0.1-0.3,0.2-0.5,0.3c-0.4,0.3-0.8,0.6-1.3,0.9
	c-1.3,0.9-2.6,1.8-3.9,2.7c-0.2,0.1-0.3,0.2-0.5,0.3c-1.4,0.9-2.7,1.8-4.1,2.7c-0.1,0.1-0.2,0.1-0.3,0.2c-0.1,0.1-0.2,0.1-0.3,0.2
	c-0.1,0-0.1,0.1-0.2,0.1c-0.1,0.1-0.2,0.2-0.4,0.2c-0.3,0.2-0.6,0.4-0.8,0.6c-0.1,0-0.2,0.1-0.2,0.2c-0.4,0.2-0.7,0.5-1.1,0.7
	c-0.2,0.1-0.3,0.2-0.5,0.3c0,0,0,0,0,0c-0.2,0.1-0.4,0.3-0.7,0.4c0,0,0,0-0.1,0c-0.7,0.4-1.4,0.9-2.1,1.3c-0.6,0.4-1.3,0.8-1.9,1.2
	c-1,0.6-2,1.2-3,1.8c-0.2,0.1-0.4,0.2-0.6,0.4h0c-0.8,0.5-1.5,0.9-2.2,1.3c-0.1,0.1-0.2,0.1-0.2,0.2c-1.4,0.8-2.8,1.7-4.2,2.5
	c-0.2,0.1-0.4,0.2-0.7,0.4c-4.4,2.6-8.9,5-13.5,7.4c-0.8,0.4-1.6,0.8-2.5,1.3c-0.8,0.4-1.7,0.8-2.5,1.2c-0.2,0.1-0.5,0.3-0.8,0.4
	c-0.1,0-0.2,0.1-0.2,0.1c-0.4,0.2-0.8,0.4-1.1,0.6h0c-0.2,0.1-0.5,0.2-0.7,0.3c-0.3,0.2-0.6,0.3-1,0.5c-1.7,0.8-3.4,1.6-5.1,2.4
	l-2,1c-0.1,0-0.1,0-0.2,0.1c-0.2,0.1-0.3,0.2-0.5,0.2c-0.9,0.4-1.8,0.8-2.7,1.2c-0.5,0.2-1.1,0.5-1.6,0.7c0,0,0,0-0.1,0
	c-0.3,0.1-0.6,0.3-0.9,0.4c-1.3,0.5-2.5,1.1-3.8,1.6c-0.8,0.3-1.6,0.7-2.4,1c-0.3,0.1-0.6,0.2-0.8,0.3c0,0-0.1,0-0.2,0.1
	c-0.3,0.1-0.5,0.2-0.8,0.3c-0.3,0.1-0.6,0.2-0.9,0.4c0,0-0.1,0-0.1,0c-0.1,0.1-0.3,0.1-0.4,0.2c-1.5,0.6-3,1.2-4.5,1.8
	c-1.8,0.7-3.5,1.4-5.3,2c-1.7,0.6-3.4,1.3-5.1,1.9c-3.6,1.3-7.2,2.5-10.8,3.7c-0.3,0.1-0.5,0.2-0.8,0.3c-2,0.6-4,1.3-6,1.9
	c-1.6,0.5-3.2,1-4.7,1.4l-3.2,0.9c-2.4,0.7-4.8,1.3-7.2,1.9c-2,0.5-4.1,1-6.1,1.5c-12.6,3-25.4,5.4-38.4,7.2c-1.4,0.2-2.7,0.3-4,0.5
	h0c-2.6,0.3-5.2,0.6-7.8,0.9h0c-1,0.1-2,0.2-3,0.3h0c-0.1,0-0.2,0-0.3,0c-0.6,0.1-1.1,0.1-1.7,0.2c-1.4,0.1-2.8,0.2-4.2,0.3
	c-0.6,0-1.1,0.1-1.7,0.1c-1.9,0.2-3.8,0.3-5.7,0.4c-0.1,0-0.3,0-0.4,0c-0.6,0-1.3,0.1-1.9,0.1c-0.2,0-0.5,0-0.7,0
	c-2.1,0.1-4.2,0.2-6.3,0.3c-0.5,0-1.1,0-1.6,0.1c-0.6,0-1.3,0-1.9,0c-0.4,0-0.9,0-1.3,0c-0.4,0-0.7,0-1.1,0c-2.4,0-4.7,0.1-7.1,0.1
	c-0.5,0-1,0-1.5,0c-1.1,0-2.3,0-3.4,0c-2.9,0-5.8-0.1-8.7-0.2c-0.1,0-0.1,0-0.2,0c-1.1,0-2.2-0.1-3.3-0.1c-5.4-0.2-10.7-0.6-16-1.1
	c-0.5,0-0.9-0.1-1.4-0.1c-0.7-0.1-1.4-0.1-2.1-0.2c-0.1,0-0.3,0-0.4,0h0c-0.4,0-0.7-0.1-1-0.1c-0.6-0.1-1.3-0.1-1.9-0.2h0
	c-0.5,0-0.9-0.1-1.4-0.2c-1-0.1-1.9-0.2-2.9-0.3c-1.2-0.1-2.4-0.3-3.6-0.4c-0.2,0-0.3,0-0.5-0.1c-1-0.1-2-0.3-3.1-0.4
	c-0.1,0-0.2,0-0.3,0c-2.1-0.3-4.2-0.6-6.2-0.9c0,0,0,0,0,0c-1-0.2-2-0.3-2.9-0.5c0,0-0.1,0-0.1,0c-0.1,0-0.3,0-0.4-0.1
	c-1-0.2-2-0.3-3-0.5c0,0-0.1,0-0.1,0c-0.5-0.1-1.1-0.2-1.6-0.3c-3.9-0.7-7.7-1.4-11.5-2.2c-2.2-0.5-4.4-0.9-6.6-1.4
	c-5.1-1.2-10.1-2.4-15.1-3.8c-2.1-0.6-4.2-1.2-6.3-1.8c-0.2,0-0.4-0.1-0.6-0.2c-0.8-0.2-1.6-0.5-2.4-0.7c0,0-0.1,0-0.1,0
	c-0.5-0.2-1.1-0.3-1.6-0.5c-1.7-0.5-3.4-1.1-5.1-1.6c-1-0.3-2-0.7-3.1-1c-1-0.3-2-0.7-3.1-1c-0.2-0.1-0.4-0.1-0.6-0.2h0
	c0,0-0.1,0-0.2,0c-1.4-0.5-2.8-1-4.2-1.5h0c-0.2-0.1-0.4-0.2-0.6-0.2c-0.1,0-0.3-0.1-0.4-0.2c-0.5-0.2-1-0.4-1.5-0.6
	c-0.1,0-0.1,0-0.2-0.1c-0.1,0-0.2-0.1-0.3-0.1c-0.5-0.2-1.1-0.4-1.6-0.6c-1.1-0.4-2.2-0.8-3.3-1.2c0,0,0,0,0,0
	c-0.6-0.2-1.2-0.5-1.8-0.7c-1-0.4-2-0.8-3-1.2c-0.4-0.2-0.8-0.3-1.2-0.5c-2.1-0.8-4.2-1.7-6.2-2.6h0c-0.1,0-0.1,0-0.2-0.1
	c-1.1-0.5-2.3-1-3.4-1.5c-1.7-0.7-3.4-1.5-5.1-2.3c-1.3-0.6-2.7-1.2-4-1.8c-2.6-1.2-5.3-2.5-7.9-3.8c-3.8-1.9-7.6-3.8-11.4-5.9
	c-0.4-0.2-0.8-0.5-1.2-0.7c-0.7-0.3-1.3-0.7-2-1.1c-1.8-1-3.5-1.9-5.2-2.9c0,0,0,0,0,0c-0.2-0.1-0.4-0.2-0.6-0.4
	c-0.1,0-0.1-0.1-0.2-0.1c-0.1-0.1-0.2-0.1-0.3-0.2c0,0,0,0-0.1,0c-0.5-0.3-0.9-0.5-1.4-0.8c-1.1-0.7-2.3-1.3-3.4-2
	c-2.1-1.2-4.1-2.5-6.2-3.8c-0.1,0-0.1-0.1-0.2-0.1c-0.2-0.1-0.4-0.3-0.6-0.4c-3-1.9-6.1-3.8-9-5.8c-0.4-0.2-0.7-0.5-1.1-0.7
	c-0.6-0.4-1.2-0.8-1.8-1.2c-2.6-1.8-5.2-3.6-7.8-5.5c-1.2-0.9-2.4-1.8-3.6-2.6c-2-1.5-3.9-2.9-5.9-4.4c-0.7-0.5-1.3-1-2-1.5
	c-12.9-10-25.1-20.8-36.6-32.4C119.9,630,78,535.9,78,432C78,223.2,247.2,54,456,54S834,223.2,834,432z"/>
<path class="st1" d="M443.8,882.4c3.7,59.7,34.8,136.7,34.8,136.7s11.2,55.9,123,103.2c19.1-7,78.9-31.7,120.5-96.9
	c26.1-67.1,39-130.1,37.3-150.4c-11.2-70.4-67.4-161.7-152.9-164C516.8,708.5,453.3,805.9,443.8,882.4z"/>
<g>
	<path class="st2" d="M465.7,800.3c0,3.2-0.1,6.5-0.2,9.6c-0.4,0-0.9,0-1.3,0c-0.4,0-0.7,0-1.1,0c-2.4,0-4.7,0.1-7.1,0.1
		c-0.5,0-1,0-1.5,0c-1.1,0-2.3,0-3.4,0c-2.9,0-5.8-0.1-8.7-0.2c-0.1,0-0.1,0-0.2,0c-1.1,0-2.2-0.1-3.3-0.1c-5.4-0.2-10.7-0.6-16-1.1
		c-0.5,0-0.9-0.1-1.4-0.1c-0.7-0.1-1.4-0.1-2.1-0.2c-0.1,0-0.3,0-0.4,0h0c-0.4,0-0.7-0.1-1-0.1c-0.6-0.1-1.3-0.1-1.9-0.2h0
		c-0.5,0-0.9-0.1-1.4-0.2c-1-0.1-1.9-0.2-2.9-0.3c-1.2-0.1-2.4-0.3-3.6-0.4c-0.2,0-0.3,0-0.5-0.1c-1-0.1-2-0.3-3.1-0.4
		c-0.1,0-0.2,0-0.3,0c-2.1-0.3-4.2-0.6-6.2-0.9c0,0,0,0,0,0c-1-0.2-2-0.3-2.9-0.5c0,0-0.1,0-0.1,0c-0.1,0-0.3,0-0.4-0.1
		c-1-0.2-2-0.3-3-0.5c0,0-0.1,0-0.1,0c-0.5-0.1-1.1-0.2-1.6-0.3c-3.9-0.7-7.7-1.4-11.5-2.2c-2.2-0.5-4.4-0.9-6.6-1.4
		c-5.1-1.2-10.1-2.4-15.1-3.8c-2.1-0.6-4.2-1.2-6.3-1.8c-0.2,0-0.4-0.1-0.6-0.2c-0.8-0.2-1.6-0.5-2.4-0.7c0,0-0.1,0-0.1,0
		c-0.5-0.2-1.1-0.3-1.6-0.5c-1.7-0.5-3.4-1.1-5.1-1.6c-1-0.3-2-0.7-3.1-1c-1-0.3-2-0.7-3.1-1c-0.2-0.1-0.4-0.1-0.6-0.2h0
		c0,0-0.1,0-0.2,0c-1.4-0.5-2.8-1-4.2-1.5h0c-0.2-0.1-0.4-0.2-0.6-0.2c-0.1,0-0.3-0.1-0.4-0.2c-0.5-0.2-1-0.4-1.5-0.6
		c-0.1,0-0.1,0-0.2-0.1c-0.1,0-0.2-0.1-0.3-0.1c-0.5-0.2-1.1-0.4-1.6-0.6c-1.1-0.4-2.2-0.8-3.3-1.2c0,0,0,0,0,0
		c-0.6-0.2-1.2-0.5-1.8-0.7c-1-0.4-2-0.8-3-1.2c-0.4-0.2-0.8-0.3-1.2-0.5c-2.1-0.8-4.2-1.7-6.2-2.6h0c-0.1,0-0.1,0-0.2-0.1
		c-1.1-0.5-2.3-1-3.4-1.5c-1.7-0.7-3.4-1.5-5.1-2.3c-1.3-0.6-2.7-1.2-4-1.8c-2.6-1.2-5.3-2.5-7.9-3.8c-3.8-1.9-7.6-3.8-11.4-5.9
		c-0.4-0.2-0.8-0.5-1.2-0.7c-0.7-0.3-1.3-0.7-2-1.1c-1.8-1-3.5-1.9-5.2-2.9c0,0,0,0,0,0c-0.2-0.1-0.4-0.2-0.6-0.4
		c-0.1,0-0.1-0.1-0.2-0.1c-0.1-0.1-0.2-0.1-0.3-0.2c0,0,0,0-0.1,0c-0.5-0.3-0.9-0.5-1.4-0.8c-1.1-0.7-2.3-1.3-3.4-2
		c-2.1-1.2-4.1-2.5-6.2-3.8c-0.1,0-0.1-0.1-0.2-0.1c-0.2-0.1-0.4-0.3-0.6-0.4c-3-1.9-6.1-3.8-9-5.8c-0.4-0.2-0.7-0.5-1.1-0.7
		c-0.6-0.4-1.2-0.8-1.8-1.2c-2.6-1.8-5.2-3.6-7.8-5.5c-1.2-0.9-2.4-1.8-3.6-2.6c-2-1.5-3.9-2.9-5.9-4.4c-0.7-0.5-1.3-1-2-1.5
		c0.3-11.2,0.7-22,1.4-32.4c4-65.9,16.3-115.7,54.8-140c12.2-7.7,36.4-18.6,66.1-18c0,0,2.2,0,6.1,0.4c6,0.6,16.1,2.1,27.7,5.7
		c0.3,0.1,0.6,0.2,0.9,0.3c10.1,3.2,21.5,8,32.3,15.2c0.6,0.4,1.2,0.8,1.8,1.2c1.6,1.1,3.2,2.3,4.8,3.5c2.6,2,5.1,4.2,7.5,6.4
		c8.5,8.1,15.2,17.6,20.4,28.8c1.4,2.9,2.6,5.9,3.8,9c3.1,8.3,5.6,17.5,7.5,27.5c0,0,0,0,0,0.1l0.1,0.8c3.2,17,5,36.6,5.8,59.1
		c0.5,12.7,0.7,26.3,0.7,41C466.2,757.9,466,778.2,465.7,800.3z"/>
</g>
<path class="st3" d="M371.7,800.6c-5.1-1.2-10.1-2.4-15.1-3.8c-2.1-0.6-4.2-1.2-6.3-1.8c-0.2,0-0.4-0.1-0.6-0.2
	c-0.8-0.2-1.6-0.5-2.4-0.7c0,0-0.1,0-0.1,0c-0.5-0.2-1.1-0.3-1.6-0.5c-1.7-0.5-3.4-1.1-5.1-1.6c-1-0.3-2-0.7-3.1-1
	c-1-0.3-2-0.7-3.1-1c-0.2-0.1-0.4-0.1-0.6-0.2h0c0,0-0.1,0-0.2,0c-1.4-0.5-2.8-1-4.2-1.5h0c-0.2-0.1-0.4-0.2-0.6-0.2
	c-0.1,0-0.3-0.1-0.4-0.2c-0.5-0.2-1-0.4-1.5-0.6c-0.1,0-0.1,0-0.2-0.1c-0.1,0-0.2-0.1-0.3-0.1c-0.5-0.2-1.1-0.4-1.6-0.6
	c-1.1-0.4-2.2-0.8-3.3-1.2c0,0,0,0,0,0c-0.6-0.2-1.2-0.5-1.8-0.7c-1-0.4-2-0.8-3-1.2c-0.4-0.2-0.8-0.3-1.2-0.5
	c-2.1-0.8-4.2-1.7-6.2-2.6h0c-0.1,0-0.1,0-0.2-0.1c-1.1-0.5-2.3-1-3.4-1.5c-1.7-0.7-3.4-1.5-5.1-2.3c-1.3-0.6-2.7-1.2-4-1.8
	c14.2-1.9,29.7-3,46.2-2.8c2.6,0,5.3,0.1,7.9,0.2c1,0,2,0.1,2.9,0.1c1.4,0,2.8,0.1,4.2,0.2c5.2,0.3,10.3,0.7,15.3,1.2
	c22.7,2.2,42.8,6.5,59.6,11.3c1.2,0.4,2.5,0.7,3.7,1.1c10.5,3.1,19.7,6.4,27.4,9.4c0.2,4.9,0.4,9.8,0.5,14.6c-0.4,0-0.7,0-1.1,0
	c-2.4,0-4.7,0.1-7.1,0.1c-0.5,0-1,0-1.5,0c-1.1,0-2.3,0-3.4,0c-2.9,0-5.8-0.1-8.7-0.2c-0.1,0-0.1,0-0.2,0c-1.1,0-2.2-0.1-3.3-0.1
	c-5.4-0.2-10.7-0.6-16-1.1c-0.5,0-0.9-0.1-1.4-0.1c-0.7-0.1-1.4-0.1-2.1-0.2c-0.1,0-0.3,0-0.4,0h0c-0.4,0-0.7-0.1-1-0.1
	c-0.6-0.1-1.3-0.1-1.9-0.2h0c-0.5,0-0.9-0.1-1.4-0.2c-1-0.1-1.9-0.2-2.9-0.3c-1.2-0.1-2.4-0.3-3.6-0.4c-0.2,0-0.3,0-0.5-0.1
	c-1-0.1-2-0.3-3.1-0.4c-0.1,0-0.2,0-0.3,0c-2.1-0.3-4.2-0.6-6.2-0.9c0,0,0,0,0,0c-1-0.2-2-0.3-2.9-0.5c0,0-0.1,0-0.1,0
	c-0.1,0-0.3,0-0.4-0.1c-1-0.2-2-0.3-3-0.5c0,0-0.1,0-0.1,0c-0.5-0.1-1.1-0.2-1.6-0.3c-3.9-0.7-7.7-1.4-11.5-2.2
	C376.1,801.5,373.9,801,371.7,800.6z"/>
<path class="st4" d="M479.7,698.3v41H235.8c-1.2-0.9-2.4-1.8-3.6-2.6c-2-1.5-3.9-2.9-5.9-4.4c-0.7-0.5-1.3-1-2-1.5
	c-12.9-10-25.1-20.8-36.6-32.4H479.7z"/>
<path class="st5" d="M592.7,603.3c12.6-30.8,24.4-63.7,35.1-98.9c41.8-138.1,50.9-264.9,47.9-367.1c-44.1-14.2-109.2-29.7-189-30
	c-82.3-0.3-149.2,15.6-194,30c-6.5,68.6-7.7,167.6,20.2,281.7c18.1,73.8,43.7,135,67.8,182.3"/>
<path class="st6" d="M542.8,468c2.6,23.5-6,13-8,90c-2.9,9.3-9,25.8-22,43c-10,13.2-18.6,24.6-30,25c-18.9,0.7-33.6-29.7-40-43
	c-13.5-28-6-64-11-106C452.9,450.7,500.5,444,542.8,468z"/>
<g>
	<path class="st7" d="M434.3,476.5c12-6.4,36.5-17.3,68.3-16.1c16.8,0.6,30.7,4.4,40.7,8.1c-2,15-4,30-6,45c0,0-23,18.8-36.3,23
		c-17.2,5.5-32.9,4.9-46.6,4.2c-8.4-0.4-15.4-1.4-20.1-2.2V476.5z"/>
</g>
<path class="st8" d="M631.8,359c5.5-8.1,19.2-30.4,20-60.4c1.1-44.8-27-90.6-65.7-110.2c-40.8-20.6-103.7-19.9-103.7-20.2
	c0-0.2,1.6-0.1,3.4-0.2c15.3-1.2,28.8-19.6,26.4-23.2c-1.5-2.1-9.8-0.6-41.4,16.2c-125-3.6-166.5,11.6-169.6,15.8
	c-1.1,1.5,127.8,11.9,128.1,12c0,0,0.2,0,0.4,0.1c0,0,0.1,0,0.1,0c-11.7-5.3-27.5-9.8-45-7c-37.1,5.9-68.2,42.2-77,91
	c1.4,26.9,8.7,77.9,47,115C431.5,462.3,581.6,432.1,631.8,359z"/>
<path class="st6" d="M329.8,350c-10.4,4.6-10.1,25.5-10,28c1.1,43.2,55.5,68.5,59,70c12,5.4,24.6,11,30,6c10.4-9.7-12.7-53-40-81
	C359.4,363.3,341.4,344.8,329.8,350z"/>
<path class="st6" d="M633.2,350.4c10.4,4.6,10.1,25.5,10,28c-1.1,43.2-55.5,68.5-59,70c-12,5.4-24.6,11-30,6
	c-10.4-9.7,12.7-53,40-81C603.6,363.7,621.6,345.3,633.2,350.4z"/>
<path class="st6" d="M355.8,335c3,48,28,110,28,110s9,45,99,83c15.4-5.7,63.5-25.5,97-78c21-54,31.3-104.7,30-121
	c-9-56.7-54.2-130.1-123-132C414.6,195,363.4,273.4,355.8,335z"/>
<path class="st9" d="M461.8,266c-7,66-29,96-29,96s56-29,45-39c1.8,1.5-14,45-32,55c4.7,6.2,28.7-0.8,44-13
	c43.3-34.5,25.7-117.1,23-129"/>
<path class="st9" d="M492.8,251.9c14,28.8,62.1,68.1,100.6,100.6c6.9,5.8-1.4,24.2-12.6,42.5c3.3,3.1,12.2-1.6,14.1-2.6
	c14.7-7.7,24.6-25.2,24.9-47.4"/>
<path class="st10" d="M355.8,384.8"/>
<path class="st8" d="M620.8,339c16.7-14.2-7.7-108.5-76-144c-65-33.8-154.9-6.6-191,51c-20.8,33.2-27.4,81.6-11,92
	c28.8,18.3,125-83.9,136.5-72.5c5,5-11.1,26.2-4.5,32.5c7,6.7,25.9-16.2,49.5-12.5c23.3,3.7,24.2,29.1,59,46
	C592.8,336.1,612.8,345.8,620.8,339z"/>
<g>
	<g>
		<path d="M462.2,265.1c0.8-3.6,1.2-7.4,1.1-11.1c0-1.1-1.3-2-2.3-1.3c-3.4,2.4-6.5,5.1-9.2,8.2c-0.5,0.6-0.6,1.5,0,2.1
			c0.5,0.5,1.6,0.6,2.1,0c2.5-2.9,5.4-5.5,8.6-7.8c-0.8-0.4-1.5-0.9-2.3-1.3c0,3.5-0.3,6.9-1,10.3c-0.2,0.8,0.2,1.6,1,1.9
			C461.1,266.3,462,265.9,462.2,265.1L462.2,265.1z"/>
	</g>
</g>
<g>
	<path d="M519.2,282c-0.7,0-0.8-7.3-3.1-21.8c-1.4-9.1-3-16.6-4.1-21.7c2.7,4.6,6.1,11.5,7.8,20.4C522,271,520.2,282,519.2,282z"/>
	<g>
		<path d="M519.2,280.5c0.4,0,1,0.5,1.1,0.6c0,0,0.1,0.4,0.1,0.1c0-0.2-0.1-0.4-0.1-0.6c-0.2-0.8-0.2-1-0.3-1.8
			c-0.3-2.3-0.5-4.7-0.8-7c-0.9-7.8-2.1-15.6-3.6-23.3c-0.7-3.5-1.4-7-2.2-10.5c-0.9,0.4-1.8,0.8-2.7,1.2c4.2,7,7,14.7,8,22.8
			c0.6,4.3,0.7,8.8,0.4,13.1c-0.1,1.4-0.2,2.9-0.5,4.2c-0.1,0.5-0.2,0.9-0.3,1.4c-0.1,0.3-0.1,0.1-0.1,0.2c0,0,0,0.1-0.1,0.1
			c0.2-0.3,0.4-0.4,0.7-0.5c-1.9,0.3-1.1,3.2,0.8,2.9c1.5-0.3,1.8-2.8,2-4c0.5-3,0.7-6.1,0.7-9.1c0-8-1.4-15.9-4.4-23.4
			c-1.3-3.2-2.8-6.3-4.6-9.3c-0.9-1.5-3.1-0.5-2.7,1.2c1.7,7.6,3.1,15.2,4.3,22.9c0.9,6.1,1.5,12.3,2.3,18.5c0.2,1.4,0.3,3.1,2,3.3
			C521.2,283.7,521.2,280.7,519.2,280.5z"/>
	</g>
</g>
<g>
	<g>
		<path d="M625.4,339.9c0-3.5,0-7,0-10.5c0-0.8-0.7-1.5-1.5-1.5s-1.5,0.7-1.5,1.5c0,3.5,0,7,0,10.5c0,0.8,0.7,1.5,1.5,1.5
			C624.7,341.4,625.4,340.7,625.4,339.9L625.4,339.9z"/>
	</g>
</g>
<g>
	<g>
		<path d="M394.6,185.1c9-0.7,18.2-0.3,27.1,1c1.9,0.3,2.7-2.6,0.8-2.9c-9.2-1.4-18.6-1.8-27.9-1.1
			C392.7,182.2,392.7,185.2,394.6,185.1L394.6,185.1z"/>
	</g>
</g>
<g>
	<g>
		<path d="M503.4,226.2c-1.7-3.5-4.8-6.1-8.4-7.3c-0.7-0.2-1.7,0.3-1.9,1.1c-0.2,0.8,0.2,1.6,1,1.9c0.2,0.1,0.4,0.1,0.6,0.2
			c0.2,0.1,0.2,0.1,0,0c0.1,0,0.2,0.1,0.3,0.1c0.4,0.2,0.8,0.4,1.1,0.6c0.4,0.2,0.7,0.4,1,0.7c0.1,0.1,0.1,0.1,0.2,0.2
			c0.3,0.2-0.2-0.2,0.1,0.1c0.2,0.1,0.3,0.3,0.5,0.4c0.3,0.3,0.6,0.6,0.9,0.8c0.1,0.1,0.3,0.3,0.4,0.5c0.1,0.1,0.1,0.1,0.2,0.2
			c0,0.1,0.3,0.3,0,0.1c0.5,0.6,1,1.4,1.3,2.1c0.3,0.7,1.4,0.9,2,0.5C503.6,227.8,503.7,227,503.4,226.2L503.4,226.2z"/>
	</g>
</g>
<g>
	<g>
		<path d="M585.5,225.9c8.2,14.5,15.5,29.6,21.8,45.1c0.7,1.8,3.6,1,2.9-0.8c-6.4-15.7-13.8-31-22.1-45.8
			C587.2,222.8,584.6,224.3,585.5,225.9L585.5,225.9z"/>
	</g>
</g>
<g>
	<g>
		<path d="M339,286.6c0.5-4,2.2-7.7,3.9-11.4c1.8-3.8,3.6-7.7,5.5-11.5c3.7-7.5,7.6-14.9,11.8-22.2c1-1.7-1.6-3.2-2.6-1.5
			c-4.2,7.4-8.2,15-12,22.7c-1.9,3.8-3.7,7.6-5.5,11.5c-1.7,3.7-3.4,7.5-4,11.7c-0.1,0.8,0.2,1.6,1,1.9
			C337.8,287.9,338.9,287.4,339,286.6L339,286.6z"/>
	</g>
</g>
<path class="st11" d="M331.8,364c-1.2,3.8-3.1,11.6-1,21c1.4,6.3,4,11.1,6,14"/>
<path class="st11" d="M632.9,362.8c1.2,3.8,3.1,11.6,1,21c-1.4,6.3-4,11.1-6,14"/>
<line class="st11" x1="488.8" y1="380" x2="475.8" y2="388"/>
<line class="st11" x1="489.8" y1="385" x2="468.8" y2="398"/>
<line class="st11" x1="494.8" y1="388" x2="467.8" y2="405"/>
<line class="st11" x1="496.8" y1="394" x2="468.8" y2="411"/>
<line class="st11" x1="499.8" y1="398" x2="470.8" y2="415"/>
<path class="st12" d="M482.8,424.5c-0.2,4-0.3,8-0.5,12c-1.8-1.7-3.7-3.3-5.5-5"/>
<g>
	<g>
		<path class="st7" d="M388.7,413.7c-0.6,0.8-1.2,1.6-1.8,2.5c-0.1,0.2-0.2,0.4-0.2,0.6c0,0.2,0,0.4,0,0.6c0.1,0.4,0.4,0.7,0.7,0.9
			c0.4,0.2,0.8,0.3,1.2,0.1c0.1,0,0.2-0.1,0.4-0.1c0.2-0.1,0.4-0.3,0.5-0.5c0.6-0.8,1.2-1.6,1.8-2.5c0.1-0.2,0.2-0.4,0.2-0.6
			c0-0.2,0-0.4,0-0.6c-0.1-0.4-0.4-0.7-0.7-0.9c-0.4-0.2-0.8-0.3-1.2-0.1c-0.1,0-0.2,0.1-0.4,0.1C389,413.3,388.9,413.5,388.7,413.7
			L388.7,413.7z"/>
	</g>
</g>
<g>
	<g>
		<path class="st7" d="M392.7,416.5c-0.2,0.3-0.4,0.6-0.6,0.9c-0.1,0.2-0.2,0.4-0.2,0.6c0,0.2,0,0.4,0,0.6c0,0.2,0.1,0.4,0.3,0.5
			c0.1,0.2,0.2,0.3,0.4,0.4c0.1,0,0.2,0.1,0.4,0.1c0.3,0.1,0.5,0.1,0.8,0c0.1,0,0.2-0.1,0.4-0.1c0.2-0.1,0.4-0.3,0.5-0.5
			c0.2-0.3,0.4-0.6,0.6-0.9c0.1-0.2,0.2-0.4,0.2-0.6c0-0.2,0-0.4,0-0.6c0-0.2-0.1-0.4-0.3-0.5c-0.1-0.2-0.2-0.3-0.4-0.4
			c-0.1,0-0.2-0.1-0.4-0.1c-0.3-0.1-0.5-0.1-0.8,0c-0.1,0-0.2,0.1-0.4,0.1C393,416.1,392.8,416.2,392.7,416.5L392.7,416.5z"/>
	</g>
</g>
<g>
	<g>
		<path class="st7" d="M562.2,416.3c0,0.5,0,1,0,1.5c0,0.2,0,0.4,0.1,0.6c0.1,0.2,0.2,0.4,0.3,0.5c0.1,0.1,0.3,0.2,0.5,0.3
			c0.2,0.1,0.4,0.1,0.6,0.1c0.1,0,0.3,0,0.4,0c0.2-0.1,0.5-0.2,0.7-0.4c0.3-0.3,0.4-0.6,0.4-1.1c0-0.5,0-1,0-1.5
			c0-0.2,0-0.4-0.1-0.6c-0.1-0.2-0.2-0.4-0.3-0.5c-0.1-0.1-0.3-0.2-0.5-0.3c-0.2-0.1-0.4-0.1-0.6-0.1c-0.1,0-0.3,0-0.4,0
			c-0.2,0.1-0.5,0.2-0.7,0.4C562.3,415.5,562.2,415.9,562.2,416.3L562.2,416.3z"/>
	</g>
</g>
<g>
	<g>
		<path class="st7" d="M566.7,415.1C566.7,415.1,566.7,415.2,566.7,415.1c0-0.1-0.1-0.2-0.2-0.3c0.2,0.3,0.4,0.7,0.6,1
			c0-0.1-0.1-0.2-0.2-0.4c0.2,0.4,0.3,0.8,0.3,1.3c0-0.1,0-0.3,0-0.4c0,0.4,0,0.8,0,1.1c0,0.4,0.2,0.8,0.4,1.1
			c0.3,0.3,0.7,0.5,1.1,0.4c0.4,0,0.8-0.1,1.1-0.4c0.1-0.1,0.2-0.2,0.2-0.3c0.1-0.2,0.2-0.5,0.2-0.8c0.1-0.8,0-1.5-0.2-2.2
			c-0.1-0.4-0.3-0.8-0.5-1.2c-0.2-0.4-0.5-0.7-0.7-1.1c-0.2-0.3-0.7-0.4-1.1-0.4c-0.4,0-0.8,0.2-1.1,0.4c-0.3,0.3-0.5,0.7-0.4,1.1
			c0,0.1,0,0.3,0,0.4C566.4,414.7,566.5,414.9,566.7,415.1L566.7,415.1z"/>
	</g>
</g>
<path class="st9" d="M467.8,269c-12.8,8.9-94,84-101,114c-2,5,9.6,31.4,11,31c0.1,0,0.1-0.1,0.1-0.1c0.7-2.6-54.9-18.4-44.1-91.9"/>
<path class="st5" d="M671.8,649c3.5,28,9.2,55.2,16.1,81.6c-0.5,0.4-1.1,0.8-1.6,1.3c-0.2,0.1-0.3,0.2-0.5,0.4
	c-0.2,0.2-0.5,0.4-0.7,0.6c-0.9,0.7-1.9,1.4-2.8,2.2c-0.9,0.7-1.8,1.3-2.7,2c-0.7,0.5-1.3,1-2,1.4c-0.1,0.1-0.2,0.2-0.3,0.3
	c-0.2,0.2-0.5,0.3-0.7,0.5c-0.3,0.2-0.5,0.4-0.8,0.6c-0.2,0.2-0.5,0.3-0.7,0.5c-0.4,0.3-0.8,0.5-1.2,0.8c-0.1,0.1-0.2,0.2-0.3,0.2
	c-0.2,0.1-0.3,0.2-0.5,0.3c-0.4,0.3-0.8,0.6-1.3,0.9c-1.3,0.9-2.6,1.8-3.9,2.7c-0.2,0.1-0.3,0.2-0.5,0.3c-1.4,0.9-2.7,1.8-4.1,2.7
	c-0.1,0.1-0.2,0.1-0.3,0.2c-0.1,0.1-0.2,0.1-0.3,0.2c-0.1,0-0.1,0.1-0.2,0.1c-0.1,0.1-0.2,0.2-0.4,0.2c-0.3,0.2-0.6,0.4-0.8,0.6
	c-0.1,0-0.2,0.1-0.2,0.2c-0.4,0.2-0.7,0.5-1.1,0.7c-0.2,0.1-0.3,0.2-0.5,0.3c0,0,0,0,0,0c-0.2,0.1-0.4,0.3-0.7,0.4c0,0,0,0-0.1,0
	c-0.7,0.4-1.4,0.9-2.1,1.3c-0.6,0.4-1.3,0.8-1.9,1.2c-1,0.6-2,1.2-3,1.8c-0.2,0.1-0.4,0.2-0.6,0.4h0c-0.8,0.5-1.5,0.9-2.2,1.3
	c-0.1,0.1-0.2,0.1-0.2,0.2c-1.4,0.8-2.8,1.7-4.2,2.5c-0.2,0.1-0.4,0.2-0.7,0.4c-4.4,2.6-8.9,5-13.5,7.4c-0.8,0.4-1.6,0.8-2.5,1.3
	c-0.8,0.4-1.7,0.8-2.5,1.2c-0.2,0.1-0.5,0.3-0.8,0.4c-0.1,0-0.2,0.1-0.2,0.1c-0.4,0.2-0.8,0.4-1.1,0.6h0c-0.2,0.1-0.5,0.2-0.7,0.3
	c-0.3,0.2-0.6,0.3-1,0.5c-1.7,0.8-3.4,1.6-5.1,2.4c-0.9-3.9-1.7-7.7-2.6-11.6c-4.9-22-9.8-44.1-14.7-66.1
	c-1.8-7.9-3.5-15.8-5.3-23.7l-16.4-33.5l-9.5-19.3l-6.1-12.4l-2.3-4.7l-1.6-3.2l-0.5-1l-0.1-0.3l-2.4-4.9l-17.2-35l-1.1-2.2
	c12.9,2.9,25.9,5.9,38.8,8.8c0.1,0,0.2,0,0.2,0.1c1.5,0.3,2.9,0.7,4.4,1c0.8,0.2,1.6,0.3,2.4,0.5c0,0,0.1,0,0.1,0
	c0.2,0,0.3,0.1,0.5,0.1c0.2,0,0.4,0.1,0.6,0.1c0.4,0.1,0.7,0.2,1.1,0.3c0.9,0.2,1.9,0.4,2.8,0.6c0.4,0.1,0.9,0.2,1.3,0.3
	c0.3,0.1,0.6,0.1,0.9,0.2c1.1,0.3,2.2,0.5,3.3,0.8c0.3,0.1,0.5,0.1,0.8,0.2c0.1,0,0.1,0,0.2,0c0.9,0.2,1.9,0.4,2.8,0.6
	c0.7,0.2,1.5,0.3,2.2,0.5c0.2,0,0.4,0.1,0.7,0.2c0.1,0,0.1,0,0.2,0c0.3,0.1,0.5,0.1,0.8,0.2c0.3,0.1,0.6,0.2,1,0.2
	c1,0.2,2.1,0.5,3.2,0.7c1.4,0.3,2.9,0.7,4.3,1c3.7,0.8,7.4,1.7,11.1,2.5c12.6,2.9,25.2,5.7,37.8,8.6
	C665.8,605.3,669.1,627.2,671.8,649z"/>
<path class="st5" d="M435.7,557.3L435.7,557.3L435.7,557.3l-1.8,3.6l-6.1,12.3l-13.6,27.5l-0.2,0.4l-0.2,0.5l0,0l-1.1,2.2l-4.2,8.4
	l-4.5,9.1l-11.3,22.8l-8.8,17.8c-0.2,0.6-0.4,1.3-0.5,1.9c-3.2,11.5-6.3,23-9.5,34.4c-3.8,13.7-7.5,27.3-11.3,41
	c-1.4,5.2-2.9,10.5-4.3,15.7c-1.6,5.7-3.2,11.5-4.7,17.2c-1.1,4.1-2.2,8.1-3.4,12.2c-0.9,3.2-1.8,6.5-2.7,9.8c0,0-0.1,0-0.1,0
	c-0.5-0.2-1.1-0.3-1.6-0.5c-1.7-0.5-3.4-1.1-5.1-1.6c-1-0.3-2-0.7-3.1-1c-1-0.3-2-0.7-3.1-1c-0.2-0.1-0.4-0.1-0.6-0.2h0
	c0,0-0.1,0-0.2,0c-1.4-0.5-2.8-1-4.2-1.5h0c-0.2-0.1-0.4-0.2-0.6-0.2c-0.1,0-0.3-0.1-0.4-0.2c-0.5-0.2-1-0.4-1.5-0.6
	c-0.1,0-0.1,0-0.2-0.1c-0.1,0-0.2-0.1-0.3-0.1c-0.5-0.2-1.1-0.4-1.6-0.6c-1.1-0.4-2.2-0.8-3.3-1.2c0,0,0,0,0,0
	c-0.6-0.2-1.2-0.5-1.8-0.7c-1-0.4-2-0.8-3-1.2c-0.4-0.2-0.8-0.3-1.2-0.5c-2.1-0.8-4.2-1.7-6.2-2.6h0c-0.1,0-0.1,0-0.2-0.1
	c-1.1-0.5-2.3-1-3.4-1.5c-1.7-0.7-3.4-1.5-5.1-2.3c-1.3-0.6-2.7-1.2-4-1.8c-2.6-1.2-5.3-2.5-7.9-3.8c-3.8-1.9-7.6-3.8-11.4-5.9
	c-0.4-0.2-0.8-0.5-1.2-0.7c2.2-8.3,4.4-16.7,6.6-25.1c3.6-13.6,7.4-27.3,11.2-41c3.9-14,7.9-28.2,12.1-42.3
	c7.5-25.8,15.2-51.1,23-76c12.2-2.6,24.5-5.2,36.7-7.8c0.3-0.1,0.6-0.1,0.9-0.2c0.1,0,0.2,0,0.3,0c7.5-1.6,14.9-3.2,22.4-4.7
	c0.9-0.2,1.8-0.4,2.7-0.6c0.3-0.1,0.5-0.1,0.8-0.2c1-0.2,2-0.4,3-0.7c6-1.3,12-2.6,18.1-3.8C421,560.4,428.3,558.8,435.7,557.3
	C435.6,557.3,435.6,557.3,435.7,557.3z"/>
<g>
	<path class="st13" d="M613.7,762.8c0.3,4.5,0.5,8.7,0.5,12.6c-0.1,0-0.1,0-0.2,0.1c-0.2,0.1-0.3,0.2-0.5,0.2
		c-0.9,0.4-1.8,0.8-2.7,1.2c-0.5,0.2-1.1,0.5-1.6,0.7c0,0,0,0-0.1,0c-0.3,0.1-0.6,0.3-0.9,0.4c-1.3,0.5-2.5,1.1-3.8,1.6
		c-0.8,0.3-1.6,0.7-2.4,1c-0.3,0.1-0.6,0.2-0.8,0.3c0,0-0.1,0-0.2,0.1c-0.3,0.1-0.5,0.2-0.8,0.3c-0.3,0.1-0.6,0.2-0.9,0.4
		c0,0-0.1,0-0.1,0c-0.1,0.1-0.3,0.1-0.4,0.2c-1.5,0.6-3,1.2-4.5,1.8c-1.8,0.7-3.5,1.4-5.3,2c-1.7,0.6-3.4,1.3-5.1,1.9
		c-3.6,1.3-7.2,2.5-10.8,3.7c-0.3,0.1-0.5,0.2-0.8,0.3c-2,0.6-4,1.3-6,1.9c-1.6,0.5-3.2,1-4.7,1.4l-3.2,0.9
		c-2.4,0.7-4.8,1.3-7.2,1.9c-2,0.5-4.1,1-6.1,1.5c-12.6,3-25.4,5.4-38.4,7.2c-1.4,0.2-2.7,0.3-4,0.5h0c-2.6,0.3-5.2,0.6-7.8,0.9h0
		c-1,0.1-2,0.2-3,0.3h0c-0.1,0-0.2,0-0.3,0c-0.6,0.1-1.1,0.1-1.7,0.2c-1.4,0.1-2.8,0.2-4.2,0.3c-0.6,0-1.1,0.1-1.7,0.1
		c-1.9,0.2-3.8,0.3-5.7,0.4c-0.1,0-0.3,0-0.4,0c-0.6,0-1.3,0.1-1.9,0.1c-0.2,0-0.5,0-0.7,0c-2.1,0.1-4.2,0.2-6.3,0.3
		c-0.5,0-1.1,0-1.6,0.1c-0.6,0-1.3,0-1.9,0c-0.4,0-0.9,0-1.3,0c-0.4,0-0.7,0-1.1,0c-2.4,0-4.7,0.1-7.1,0.1c-0.5,0-1,0-1.5,0
		c-1.1,0-2.3,0-3.4,0c-2.9,0-5.8-0.1-8.7-0.2c-0.1,0-0.1,0-0.2,0c-1.1,0-2.2-0.1-3.3-0.1c-5.4-0.2-10.7-0.6-16-1.1
		c-0.5,0-0.9-0.1-1.4-0.1c-0.7-0.1-1.4-0.1-2.1-0.2c-0.1,0-0.3,0-0.4,0h0c-0.4,0-0.7-0.1-1-0.1c-0.6-0.1-1.3-0.1-1.9-0.2h0
		c-0.5,0-0.9-0.1-1.4-0.2c-1-0.1-1.9-0.2-2.9-0.3c-1.2-0.1-2.4-0.3-3.6-0.4c-0.2,0-0.3,0-0.5-0.1c-1-0.1-2-0.3-3.1-0.4
		c-0.1,0-0.2,0-0.3,0c-2.1-0.3-4.2-0.6-6.2-0.9c0,0,0,0,0,0c-1-0.2-2-0.3-2.9-0.5c0,0-0.1,0-0.1,0c-0.1,0-0.3,0-0.4-0.1
		c-1-0.2-2-0.3-3-0.5c0,0-0.1,0-0.1,0c-0.5-0.1-1.1-0.2-1.6-0.3c-3.9-0.7-7.7-1.4-11.5-2.2c-2.2-0.5-4.4-0.9-6.6-1.4
		c-5.1-1.2-10.1-2.4-15.1-3.8c0.4-8.1,0.7-16.2,1-24.4c0.2-5.8,0.4-11.6,0.5-17.4c0.1-5.3,0.2-10.5,0.3-15.7c0.2-14.1,0.3-28,0.1-41
		c-0.2-13.7-0.6-26.6-1.4-38.2c-1.3-20.8-3.7-37.2-7.3-46.2l11.3-0.3l15.2-0.5l13.9-0.4l5.3-0.2l12.7-0.4l11.5-0.3l0.7,0l1.2,0h0.2
		l29.9-0.9l6.9-0.2l47.5-1.4l39.6-1.2l4.8-0.2l1,0l0.5,0l9.6-0.3l21.6-0.6l10.4-0.3l14.7-0.4l10.6-0.3c-7.2,38.4-8.6,69.8-8.7,91.5
		C610.3,725.6,612.7,746.6,613.7,762.8z"/>
	<g>
		<path d="M613.9,762.8c0,0.1,0.5,12.6,0.5,12.6c-2.4,1.1-6.8,3.1-9.2,4.1c-34.8,15-72.5,24.8-110.3,28.6c-28,2.9-56.9,2.5-84.9-0.8
			c-10.8-1.3-20.9-3.1-31.8-5.2c-4-0.8-9-2-13-3l-8.6-2.2l-0.1,0v-0.1c0.8-13.5,1.2-32.5,1.7-45.9c0.5-37.8,1.5-77-3.4-114.6
			c-1.1-7.7-2.4-15.5-5.3-22.7l0.5,0l33.6-1.1c62.7-1.4,171.6-4.7,235.5-6.6c-4.3,25.5-7.7,52.1-8.4,78.3
			C609.8,710.4,611.7,736.6,613.9,762.8L613.9,762.8z M613.6,762.8c-2.1-26.2-4.1-52.4-3.1-78.7c0.9-26,3.5-53.2,8.6-78.1
			c-79.3,2.5-191,5.7-269.1,8.3l0.3-0.5c2.7,7.2,3.9,14.8,4.9,22.5c3.6,29.9,3.5,61.5,3.4,91.7c-0.1,21.7-0.8,47.5-2,68.7
			c4.1,1.1,11.1,2.8,15.1,3.8c6.4,1.4,13.3,2.8,19.7,3.9c32.3,5.6,66.9,7,100.1,3.8c40.3-3.7,80.6-14.2,117.6-30.7l5-2.3l-0.1,0.1
			C614.2,775.4,613.6,762.8,613.6,762.8L613.6,762.8z"/>
	</g>
</g>
<path class="st13" d="M420.8,614c-3.6-10.7-16.3-15.5-26-14c-16.1,2.6-27.1,23.7-21,35c6,11,28.5,12.7,40,2
	C419,632,423.8,622.9,420.8,614z"/>
<path class="st13" d="M608.3,605.3c-3.4-11-17.2-16.1-27-15.9c-22,0.4-41.5,27.7-36,40c5.7,12.8,40.8,15.3,56-1.1
	C602.1,627.4,611.8,616.7,608.3,605.3z"/>
<g>
	<path class="st14" d="M442,809.7c-1.1,0-2.2-0.1-3.3-0.1c-2.1-8.1-4.1-16.4-6.2-24.8c-3.6-14.7-7-29.9-10.5-45.5
		c-2.9-13.4-5.8-27.1-8.7-41c-2.6-12.6-5.1-25.4-7.7-38.3l9.3,38.3l9.9,41l11.3,46.6L442,809.7z"/>
	<g>
		<path class="st14" d="M442.1,809.8c-1.1,0-2.3,0-3.5-0.1l0-0.1c-4.6-17.8-9.4-37.8-13.5-55.9c-6.3-27-14.3-66.4-19.8-93.7l0.9-0.2
			C417.8,707.6,431,762.1,442.1,809.8L442.1,809.8z M442,809.7c-11.7-46.8-25.3-102.7-36.6-149.6l0.9-0.2
			c5.4,27.4,13.2,66.7,19.5,93.8c4.1,18.1,8.6,38,13.1,56l-0.1-0.1C439.8,809.5,440.9,809.6,442,809.7L442,809.7z"/>
	</g>
</g>
<line class="st15" x1="545.8" y1="674" x2="504.8" y2="778"/>
<path class="st10" d="M187.3,62.5L187.3,62.5L187.3,62.5z"/>
<path class="st10" d="M539.8,546"/>
<path class="st10" d="M539.8,537"/>
<path class="st10" d="M543.8,536"/>
<path class="st15" d="M516.3,799.4c10,0,20,0,30,0"/>
<g>
	<path class="st14" d="M348.5,636.7c-7.8,28.4-12.9,57.5-15.2,86.8"/>
	<g>
		<path class="st14" d="M347,636.3c-6.1,22.2-10.5,44.9-13.3,67.8c-0.8,6.5-1.4,12.9-2,19.4c-0.1,1.9,2.9,1.9,3,0
			c1.8-22.8,5.3-45.4,10.5-67.7c1.4-6.3,3-12.5,4.7-18.7C350.5,635.3,347.6,634.5,347,636.3L347,636.3z"/>
	</g>
</g>
<g>
	<path class="st14" d="M646.9,608.4c-8,8.9-15.9,17.9-23.7,27.1"/>
	<g>
		<path class="st14" d="M645.8,607.3c-8,8.9-15.9,17.9-23.7,27.1c-1.2,1.5,0.9,3.6,2.1,2.1c7.7-9.2,15.6-18.2,23.7-27.1
			C649.2,608,647.1,605.9,645.8,607.3L645.8,607.3z"/>
	</g>
</g>
<path class="st16" d="M657.7,175.3c-50.1,11.1-113.5,20.6-187,21c-64.9,0.4-121.7-6.4-168-15c-3.7,48.9-3.3,115.3,13.3,191.2
	c24.6,112.8,73.6,195.4,108,244c3.6,3.9,27,27.9,64,27c32.8-0.8,53.6-20.6,58-25c36.4-60.2,82.5-154.3,102.7-276.9
	C659,278.6,660.2,222.1,657.7,175.3z"/>
<path class="st13" d="M299.2,180.3c65.2,10.9,143.8,17.4,232,10.5c28.9-2.2,56.3-5.7,82-10c-3.7-12-7.3-24-11-36
	c-30.2-1.9-61.2-3.2-93-4c-74-1.8-144.1-0.1-210,4C299.2,156.6,299.2,168.5,299.2,180.3z"/>
<path class="st10" d="M652.7,149.3c-119.6,25.5-235.2,21.1-348-5"/>
<path class="st10" d="M647.7,170.3"/>
<path class="st17" d="M536.7,558.3c11.7,2.7,23.3,5.3,35,8c-11.7,19-23.3,38-35,57c-16.1,19.2-39.1,22.6-66,17c-16-0.6-30-9.7-43-23
	c-12.6-10.6-21.9-29.5-31-49c12.3-3,27-8,37-9c2,14.2,6.7,28.7,22,44c3.9,1.6,29.2,11.7,52-1c1.9-1.1,10.7-6.2,18.2-16.5
	C533.8,574.8,535.9,563.8,536.7,558.3z"/>
<g>
	<g>
		<path class="st13" d="M593.8,581.1c5.1-6.2,8.7-13.3,11.5-20.8c-1-0.1-2-0.3-3-0.4c0.5,4.9-0.8,9.9-4.1,13.7
			c0.8,0.5,1.7,1,2.5,1.5c0.3-2.2,0.7-4.4,1-6.6c-1,0-1.9,0-2.9,0c0.9,5.5,1.1,11.1,0.7,16.7c1,0,2,0,3,0c-0.3-3.6-0.7-7.3-1-10.9
			c-0.2-2.4-0.1-7.1-3.9-6.3c-1.4,0.3-2.4,1.3-3.4,2.2c-1.3,1.2-2.6,2.4-3.9,3.7c-2.7,2.5-5.4,5.1-8,7.7c0.8,0.5,1.7,1,2.5,1.5
			c1.1-3.1,2.3-6.2,3.4-9.3c0.6-1.6,1.1-3.1,1.7-4.7c0.3-0.8,0.6-1.6,0.9-2.3c0.2-0.4,0.6-0.9,0-0.9c-0.5,0-0.2,0.1,0,0.5
			c0.6,1.2,0.7,3.1,0.8,4.4c0.2,1.5,0.2,3,0.3,4.5c0,3.3-0.3,6.5-0.9,9.7c1,0.1,2,0.3,3,0.4c0.2-5,0.4-10.1,0.6-15.1
			c0.1-1.7-2.7-2.1-3-0.4c-0.5,3.5-1.5,6.8-2.8,10.1c-0.6,1.4,1.1,3.2,2.4,1.8c1.7-1.8,2.7-4,3.2-6.4c0.3-1.2,0.5-2.4,0.6-3.7
			c0.2-1.2,0.5-2.5,0-3.6c-0.7-1.9-3-2.2-4.8-1.6c-2.3,0.8-3.8,3.1-4.7,5.3c-0.4,1.1,0.8,2.1,1.8,1.8c3.7-1,7.2-2.6,10.5-4.6
			c0.7-0.5,0.9-1.3,0.5-2c-1.1-2.5-4.6-1.5-6.6-1.1c-3.2,0.5-6.3,1-9.5,1.5c0.4,0.9,0.8,1.8,1.2,2.7c1.9-1.4,3.7-2.8,5.6-4.2
			c1.3-0.9,0.6-3.3-1.2-2.7c-2.6,0.9-5.1,2-7.5,3.5c-1.4,0.9-0.5,3.3,1.2,2.7c1.5-0.5,3-1.1,4.4-1.8c1.6-0.8,0.4-3.1-1.2-2.7
			c-1.1,0.2-2.1,0.5-3.2,0.7c0.4,0.9,0.8,1.8,1.2,2.7c0.6-0.3,1.2-0.7,1.8-1c1.3-0.8,0.7-2.7-0.8-2.8c-1.9-0.1-3.8,0.2-5.6,0.8
			c-1.8,0.6-1,3.5,0.8,2.9c1.6-0.5,3.1-0.8,4.8-0.7c-0.2-0.9-0.5-1.9-0.8-2.8c-0.6,0.3-1.2,0.7-1.8,1c-1.5,0.9-0.5,3.1,1.2,2.7
			c1.1-0.2,2.1-0.5,3.2-0.7c-0.4-0.9-0.8-1.8-1.2-2.7c-1.2,0.6-2.4,1.1-3.7,1.5c0.4,0.9,0.8,1.8,1.2,2.7c2.1-1.3,4.4-2.4,6.7-3.2
			c-0.4-0.9-0.8-1.8-1.2-2.7c-1.9,1.4-3.7,2.8-5.6,4.2c-1.4,1-0.6,3,1.2,2.7c2.4-0.4,4.8-0.8,7.1-1.1c0.8-0.1,5.3-1.2,5.6-0.6
			c0.2-0.7,0.4-1.4,0.5-2c-3,1.9-6.3,3.4-9.8,4.3c0.6,0.6,1.2,1.2,1.8,1.8c0.5-1.2,1.4-2.7,2.7-3.2c0.3-0.1,0.9-0.3,1.2-0.1
			c-0.2-0.2-0.1,0.4-0.1,0.7c0,0.4-0.1,0.8-0.1,1.2c-0.4,3-1,6.2-3.1,8.5c0.8,0.6,1.6,1.2,2.4,1.8c1.5-3.5,2.5-7,3.1-10.8
			c-1-0.1-2-0.3-3-0.4c-0.2,5-0.4,10.1-0.6,15.1c-0.1,1.7,2.6,2.1,3,0.4c0.8-4,1.2-8.1,1-12.1c-0.1-2-0.3-4-0.7-6
			c-0.3-1.5-0.6-3.2-2-4.2c-1.3-0.9-2.9-0.3-3.6,1c-0.9,1.8-1.5,3.9-2.2,5.8c-1.5,4-3,8.1-4.5,12.2c-0.5,1.5,1.5,2.4,2.5,1.5
			c2.1-2,4.2-4,6.3-6c2.1-2,4.1-4.1,6.3-6c0.3-0.3,0.7-0.5,1.1-0.7c0.4-0.1,0-0.1,0.1,0c0.1,0.3,0.1,0.6,0.1,0.8
			c0.1,1.5,0.3,2.9,0.4,4.4c0.3,3,0.6,6,0.8,9c0.2,1.9,2.9,2,3,0c0.4-5.9,0.1-11.7-0.8-17.5c-0.2-1.4-2.7-1.4-2.9,0
			c-0.3,2.2-0.7,4.4-1,6.6c-0.2,1.3,1.4,2.7,2.5,1.5c3.7-4.4,5.6-10.1,4.9-15.8c-0.2-1.7-2.3-2-3-0.4c-2.6,7-6,13.7-10.7,19.5
			C590.5,580.5,592.6,582.6,593.8,581.1L593.8,581.1z"/>
	</g>
</g>
<path class="st13" d="M371.7,578.3c-4.2-2.8-7.1-9-5-13c2.5-4.8,11.4-4.7,17-2c3.8,1.8,8.8,6.1,8,10
	C390.6,578.6,378.8,583.1,371.7,578.3z"/>
<g>
	<g>
		<path d="M598.3,594.1c-12.9,10.2-25.5,20.6-37.8,31.5c-3.5,3.1-7,6.2-10.5,9.3c-0.7,0.7,0.3,1.7,1.1,1.1
			c12.2-11,24.6-21.7,37.3-32c3.6-2.9,7.3-5.8,10.9-8.7C600.1,594.6,599,593.5,598.3,594.1L598.3,594.1z"/>
	</g>
</g>
<g>
	<g>
		<path d="M388.9,604.2c4.3,6.9,9.6,13.2,15.6,18.7c0.7,0.6,1.8-0.4,1.1-1.1c-6-5.4-11.2-11.5-15.4-18.4
			C389.7,602.7,388.4,603.4,388.9,604.2L388.9,604.2z"/>
	</g>
</g>
<path class="st18" d="M398.2,565.8c-0.1,0.7-0.3,1.5-0.4,2.2c-0.1,0.7-0.2,1.3-0.3,2c-0.2,1.2-0.4,2.4-0.6,3.6
	c-0.1,0.4-0.1,0.8-0.2,1.2c-1.5,8.6-2.9,17.2-4.2,25.7c0,0.3-0.1,0.6-0.1,0.9c-0.3,1.8-0.6,3.5-0.8,5.3c-0.3,2-0.6,4-0.9,6
	c-1.6,10.2-3,20.4-4.5,30.5c-1,6.9-1.9,13.8-2.7,20.6c-1.5,11.5-2.8,23-4,34.4c-1.5,13.8-2.8,27.4-3.9,41
	c-0.9,11.5-1.7,22.9-2.4,34.2c-0.5,9-1,18.1-1.3,27c-5.1-1.2-10.1-2.4-15.1-3.8c-2.1-0.6-4.2-1.2-6.3-1.8c-0.2,0-0.4-0.1-0.6-0.2
	c0.1-3.5,0.2-7,0.3-10.5c0.1-4.1,0.3-8.2,0.5-12.3c0.4-10.9,0.9-21.8,1.5-32.8c0.7-13.6,1.5-27.3,2.5-41c0.9-12.7,1.8-25.4,2.8-38.2
	c1.2-15.5,2.6-31,4.1-46.5c1.3-13.8,2.7-27.6,4.1-41.4c0.1-0.6,0.1-1.2,0.2-1.8c0.1-1.5,0.3-3.1,0.5-4.6L398.2,565.8L398.2,565.8z"
	/>
<path class="st18" d="M627.7,768.8c-0.8,0.4-1.7,0.8-2.5,1.2c-0.2,0.1-0.5,0.3-0.8,0.4c-0.1,0-0.2,0.1-0.2,0.1
	c-0.4,0.2-0.8,0.4-1.1,0.6h0c-0.2,0.1-0.5,0.2-0.7,0.3c-0.3,0.2-0.6,0.3-1,0.5c-1.7,0.8-3.4,1.6-5.1,2.4l-2,1c-0.1,0-0.1,0-0.2,0.1
	c-0.2,0.1-0.3,0.2-0.5,0.2c-0.9,0.4-1.8,0.8-2.7,1.2c-0.5,0.2-1.1,0.5-1.6,0.7c0,0,0,0-0.1,0c-0.3,0.1-0.6,0.3-0.9,0.4
	c-1.3,0.5-2.5,1.1-3.8,1.6c-0.8,0.3-1.6,0.7-2.4,1c-0.3,0.1-0.6,0.2-0.8,0.3c0,0-0.1,0-0.2,0.1c-0.1-28.2-0.8-56.3-2-84.4
	c-0.9-21.2-2.1-42.4-3.5-63.6c-0.6-8.8-1.2-17.6-1.8-26.4l-0.4-5.2c-0.1-0.8-0.1-1.6-0.2-2.4c-0.2-2.6-0.4-5.2-0.6-7.8
	c-0.3-4.2-0.7-8.5-1-12.7c0-0.5-0.1-1-0.1-1.5c0-0.6-0.1-1.3-0.2-1.9c-0.1-0.8-0.1-1.6-0.2-2.3h29c0,0.8,0.1,1.7,0.2,2.5
	c1.2,19.8,2.3,39.8,3.2,59.8c0,0,0,0,0,0C625.7,679,627.2,723.4,627.7,768.8z"/>
<g>
	<path class="st19" d="M512.8,397.7c-2.4-4.1-2.1-8.2-1.9-11.5c0.1-1.5,0.7-11.2,6.8-16.9c11.6-10.9,45.5-10,57.9,5.4
		c5.6,6.9,7.7,17.8,1,26.1c-9.3,11.5-29,10.3-33.8,10C540.1,410.6,519.4,409.1,512.8,397.7z"/>
	<path class="st20" d="M580.3,402.5c0.4-2.5,2.7-19.7-10-31.1c-15.6-14.1-44.8-11.2-56,1.8c-2.9,3.4-4.3,7-5,10.1"/>
	<circle class="st18" cx="539.5" cy="385.2" r="12.2"/>
	<circle class="st19" cx="545.3" cy="381.6" r="4.8"/>
	<path class="st19" d="M450.4,396.3c2.4-4.1,2.1-8.2,1.9-11.5c-0.1-1.5-0.7-11.2-6.8-16.9c-11.6-10.9-45.5-10-57.9,5.4
		c-5.6,6.9-7.7,17.8-1,26.1c9.3,11.5,29,10.3,33.8,10C423.1,409.2,443.8,407.7,450.4,396.3z"/>
	<circle class="st18" cx="423.6" cy="383.8" r="12.2"/>
	<circle class="st19" cx="429.9" cy="380.2" r="4.8"/>
	<path class="st10" d="M389.8,402.5c3,1.5,28.6,13.8,50,1c5.3-3.1,9.2-7.2,12-11"/>
	<path class="st21" d="M439.3,346.5c-23.8-0.8-45.8,3.1-65,14"/>
	<path class="st21" d="M521.3,346.5c23.8-0.8,45.8,3.1,65,14"/>
	<path class="st20" d="M382.1,399.7c-0.4-2.5-2.7-19.7,10-31.1c15.6-14.1,44.8-11.2,56,1.8c2.9,3.4,4.3,7,5,10.1"/>
	<path class="st10" d="M573.5,404.5c-3,1.5-28.6,13.8-50,1c-5.3-3.1-9.2-7.2-12-11"/>
</g>
<path class="st22" d="M525.7,471.8l-82.9,1.5c-8,1.5,12,29.5,48,25.2c25-3,40.4-23.5,36.6-26.3C526.9,471.8,525.7,471.8,525.7,471.8
	z"/>
<g class="st23">
	<path class="st19" d="M503,696.8l0.8-3.4c0.8,0.3,1.7,0.4,2.6,0.4c1.1,0,1.8-0.2,2.2-0.7s0.6-1.3,0.6-2.6v-14.3
		c-1.3,0-3,0.1-4.9,0.4l-0.4-3.7c3.6-0.5,7.2-0.7,10.9-0.7c3.7,0,6.6,0.3,8.6,0.9s3.5,1.8,4.6,3.4s1.6,4.1,1.6,7.3v13.4h-4.5v-12.2
		c0-2.4-0.2-4.2-0.6-5.3s-1.2-2-2.4-2.7s-3.3-1.1-6.1-1.1l-2.2,0v15.1c0,1.6-0.1,2.8-0.4,3.6s-0.9,1.5-1.8,2s-2.3,0.8-4.1,0.8
		C506,697.5,504.5,697.3,503,696.8z"/>
	<path class="st19" d="M538.7,682.9l-3.8-10.4h4.4l1.8,5.5c0.7-1.6,1.9-3,3.4-4.1s3.2-1.7,5-1.7c1.9,0,3.6,0.5,4.9,1.5
		s2.4,2.4,3,4.3s0.9,4.7,0.9,8.5v10.9h-12.8v-3.8h8.3v-7.3c0-2.8-0.1-4.8-0.3-6s-0.6-2.3-1.4-3.1s-1.7-1.2-2.8-1.2
		c-1.8,0-3.2,0.9-4.5,2.7s-2.3,4.9-3.1,9.4l-1.8,9.2h-4.5l2-9.7C537.7,686.7,538.1,685.1,538.7,682.9z"/>
	<path class="st19" d="M562.7,672.7c2.4-0.3,4.6-0.5,6.6-0.5c5,0,8.5,1,10.5,2.9s3,4.9,3,8.8v13.4h-4.5v-12.2c0-2.3-0.2-4-0.7-5.1
		s-1.4-2.1-2.8-2.8s-3.3-1.1-5.8-1.1c-1.7,0-3.7,0.2-6,0.5L562.7,672.7z"/>
</g>
<g class="st23">
	<path class="st19" d="M462,737l13.2-34.4h4.9l14.1,34.4H489l-4-10.4h-14.4l-3.8,10.4H462z M471.9,722.9h11.6l-3.6-9.5
		c-1.1-2.9-1.9-5.3-2.4-7.1c-0.4,2.2-1.1,4.4-1.9,6.6L471.9,722.9z"/>
</g>
<g class="st23">
	<path class="st19" d="M513,712.1v34.4h-4.6v-34.4H513z"/>
	<path class="st19" d="M524.8,712.1V737h-4.6v-24.9H524.8z"/>
	<path class="st19" d="M543.6,720.9v7.6l2.3,8.4h-4.4l-1.7-6.1c-1.9,0-3.5,1.2-4.8,3.5l-1.4,2.6H529l2-3.8c1.2-2.3,2.5-3.8,4.1-4.5
		s2.9-1.1,4-1.1v-6.5c0-1.3-0.1-2.4-0.3-3.1s-0.6-1.3-1.3-1.7s-1.6-0.6-2.7-0.6c-1,0-1.8,0.1-2.6,0.2l-0.3-3.6
		c1-0.3,2.3-0.5,3.8-0.5c2.1,0,3.8,0.4,4.9,1.2s1.9,1.8,2.3,2.9S543.6,718.8,543.6,720.9z"/>
	<path class="st19" d="M555.8,712.1V725h-4.6v-12.9H555.8z"/>
	<path class="st19" d="M565.1,722.5l-3.8-10.4h4.4l1.8,5.5c0.7-1.6,1.9-3,3.4-4.1s3.2-1.7,5-1.7c1.9,0,3.6,0.5,4.9,1.5
		s2.4,2.4,3,4.3s0.9,4.7,0.9,8.5V737h-12.8v-3.8h8.3V726c0-2.8-0.1-4.8-0.3-6s-0.6-2.3-1.4-3.1s-1.7-1.2-2.8-1.2
		c-1.8,0-3.2,0.9-4.5,2.7s-2.3,4.9-3.1,9.4l-1.8,9.2H562l2-9.7C564.2,726.4,564.6,724.8,565.1,722.5z"/>
</g>
<path class="st24" d="M302.8,181.7c-3.7,49.2-3.4,116.6,14,194c25.4,112.9,75.3,195.1,110,243c4,3.9,26.3,24.8,61,24
	c33-0.8,53.8-20.7,58-25c36.1-57.9,83.4-150.7,103.7-272.9c10.7-64.6,11.4-122.2,8.3-169.1C539.4,198.5,421.1,205,302.8,181.7z"/>
</svg>
