<?xml version="1.0" encoding="utf-8"?>
<!-- Generator: Adobe Illustrator 28.3.0, SVG Export Plug-In . SVG Version: 6.00 Build 0)  -->
<svg version="1.1" id="Layer_1" xmlns="http://www.w3.org/2000/svg" xmlns:xlink="http://www.w3.org/1999/xlink" x="0px" y="0px"
	 viewBox="0 0 916 850" style="enable-background:new 0 0 916 850;" xml:space="preserve">
<style type="text/css">
	.st0{opacity:0.6;fill:#CCCCCC;}
	.st1{display:none;fill:#426646;}
	.st2{fill:#5B1A1A;stroke:#5B1A1A;stroke-miterlimit:10;}
	.st3{fill:none;stroke:#000000;stroke-miterlimit:10;}
	.st4{fill:#141123;stroke:#141123;stroke-miterlimit:10;}
	.st5{fill:#DA7A22;stroke:#000000;stroke-miterlimit:10;}
	.st6{fill:#FFE3CB;stroke:#000000;stroke-miterlimit:10;}
	.st7{fill:#FFB995;}
	.st8{fill:#332C26;stroke:#000000;stroke-miterlimit:10;}
	.st9{opacity:0.44;fill:#D8B8A3;}
	.st10{fill:#332C26;}
	.st11{fill:#964420;}
	.st12{fill:none;stroke:#FFB995;stroke-miterlimit:10;}
	.st13{fill:#FFB995;stroke:#000000;stroke-width:0.5;stroke-miterlimit:10;}
	.st14{fill:#2D2A38;stroke:#000000;stroke-miterlimit:10;}
	.st15{fill:#A59E9B;stroke:#E5CC4E;stroke-width:8;stroke-miterlimit:10;}
	.st16{fill:#2D2A38;}
	.st17{fill:#FFFFFF;stroke:#000000;stroke-miterlimit:10;}
	.st18{fill:#141123;}
	.st19{fill:none;stroke:#141123;stroke-miterlimit:10;}
	.st20{fill:#32303F;stroke:#000000;stroke-miterlimit:10;}
	.st21{fill:#9393A5;stroke:#9393A5;stroke-miterlimit:10;}
	.st22{stroke:#000000;stroke-miterlimit:10;}
	.st23{fill:#7A767A;stroke:#7A767A;stroke-miterlimit:10;}
	.st24{fill:#FFFFFF;}
	.st25{fill:#2E3192;}
	.st26{fill:none;stroke:#2E3192;stroke-miterlimit:10;}
	.st27{fill:#B73030;stroke:#000000;stroke-miterlimit:10;}
	.st28{fill:#5B1A1A;}
	.st29{fill:none;stroke:#000000;stroke-width:10;stroke-miterlimit:10;}
	.st30{opacity:0.31;fill:#FFF3F3;stroke:#FFFFFF;stroke-miterlimit:10;}
	.st31{fill:none;stroke:#FFFFFF;stroke-miterlimit:10;}
	.st32{opacity:0.51;fill:#FFFFFF;stroke:#FFFFFF;stroke-width:5;stroke-miterlimit:10;}
	.st33{fill:#FFFFFF;stroke:#000000;stroke-width:2;stroke-miterlimit:10;}
	.st34{fill:#4F4345;}
	.st35{fill:#DDCD3C;}
	.st36{fill:#DDCD3C;stroke:#000000;stroke-width:3;stroke-miterlimit:10;}
	.st37{fill:none;stroke:#000000;stroke-width:4;stroke-miterlimit:10;}
	.st38{fill:none;stroke:#000000;stroke-width:3;stroke-miterlimit:10;}
</style>
<path class="st0" d="M834,432c0,107.49-44.87,204.49-116.88,273.28c-0.3,0.3-0.6,0.59-0.9,0.86c-0.02,0.03-0.03,0.04-0.05,0.05
	c-1.41,1.34-2.83,2.67-4.26,3.98c-0.34,0.32-0.68,0.63-1.02,0.93c-0.04,0.04-0.08,0.08-0.12,0.11c-3.54,3.24-7.15,6.41-10.81,9.5
	c-1.57,1.33-3.16,2.65-4.75,3.95c-0.03,0.03-0.06,0.06-0.09,0.07v0.01c-2.92,2.39-5.88,4.74-8.87,7.04
	c-0.16,0.13-0.33,0.25-0.49,0.37c-0.24,0.2-0.49,0.39-0.74,0.57c-1.85,1.42-3.72,2.81-5.59,4.19c-0.77,0.56-1.53,1.12-2.3,1.67
	c-0.23,0.17-0.47,0.34-0.7,0.51c-0.27,0.19-0.54,0.39-0.8,0.57c-0.23,0.18-0.45,0.34-0.68,0.5c-0.39,0.28-0.78,0.55-1.17,0.82
	c-0.11,0.08-0.23,0.17-0.34,0.25c-0.15,0.1-0.3,0.21-0.46,0.31c-0.42,0.31-0.85,0.61-1.29,0.91c-1.28,0.89-2.57,1.78-3.86,2.65
	c-1.53,1.04-3.07,2.07-4.62,3.07c-0.1,0.06-0.2,0.13-0.3,0.19c-0.09,0.06-0.17,0.11-0.26,0.17c-0.55,0.37-1.1,0.73-1.65,1.08
	c-0.53,0.35-1.06,0.7-1.59,1.04c-0.02,0.01-0.03,0.02-0.05,0.03c-0.22,0.14-0.43,0.28-0.65,0.42c-2.34,1.49-4.69,2.95-7.06,4.38
	c-0.2,0.12-0.41,0.25-0.61,0.37h-0.01c-0.75,0.45-1.5,0.9-2.25,1.34c-0.08,0.06-0.16,0.1-0.25,0.15c-1.4,0.84-2.8,1.66-4.22,2.47
	c-0.22,0.12-0.43,0.25-0.65,0.37c-4.44,2.56-8.94,5.02-13.51,7.38c-1.63,0.86-3.28,1.69-4.93,2.51c-0.25,0.14-0.51,0.26-0.76,0.39
	c-0.08,0.04-0.17,0.09-0.25,0.12c-0.38,0.2-0.76,0.39-1.14,0.57h-0.01c-0.23,0.12-0.45,0.23-0.68,0.35
	c-0.32,0.16-0.63,0.31-0.95,0.47c-2.43,1.19-4.87,2.34-7.33,3.48c-1.06,0.48-2.13,0.97-3.2,1.45c-0.55,0.25-1.09,0.49-1.63,0.73
	c-0.03,0.01-0.05,0.02-0.08,0.04c-0.31,0.13-0.62,0.27-0.92,0.41c-2.32,1.02-4.66,2.02-6.99,2.98c-2.3,0.97-4.6,1.9-6.91,2.82
	c-3.45,1.36-6.93,2.67-10.44,3.93c-3.59,1.29-7.21,2.53-10.85,3.71c-0.27,0.09-0.54,0.17-0.81,0.26c-1.98,0.64-3.98,1.27-5.98,1.88
	c-1.58,0.48-3.16,0.95-4.74,1.41c-17.76,5.15-36.06,9.03-54.79,11.55c-1.35,0.18-2.69,0.35-4.04,0.51h-0.01
	c-2.59,0.33-5.19,0.62-7.8,0.89h-0.01c-1,0.1-1.97,0.2-2.97,0.29h-0.01c-0.09,0.01-0.18,0.02-0.27,0.02
	c-0.56,0.06-1.11,0.12-1.67,0.17c-1.39,0.12-2.79,0.23-4.19,0.34c-0.57,0.05-1.13,0.09-1.7,0.13c-1.91,0.15-3.82,0.27-5.73,0.38
	c-0.14,0.01-0.27,0.02-0.41,0.02c-0.64,0.04-1.28,0.08-1.91,0.11c-2.87,0.15-5.75,0.27-8.64,0.35c-1.44,0.05-2.88,0.08-4.32,0.1
	c-2.35,0.05-4.71,0.07-7.08,0.07c-0.52,0-1.03,0-1.55-0.01c-1.15,0-2.3-0.01-3.44-0.03c-2.92-0.03-5.83-0.11-8.73-0.21
	c-7.01-0.25-13.97-0.69-20.88-1.31c-0.84-0.08-1.67-0.16-2.51-0.25h-0.01c-0.35-0.03-0.7-0.06-1.05-0.1
	c-0.64-0.06-1.28-0.13-1.92-0.2h-0.01c-0.46-0.05-0.92-0.1-1.38-0.15c-0.96-0.1-1.91-0.21-2.86-0.33c-1.19-0.14-2.38-0.28-3.57-0.43
	c-0.16-0.02-0.32-0.04-0.48-0.06c-1.03-0.13-2.05-0.27-3.07-0.41c-0.09-0.01-0.19-0.02-0.28-0.04c-2.09-0.28-4.17-0.58-6.25-0.9
	c-0.01,0.01-0.02,0-0.03-0.01c-0.98-0.15-1.95-0.3-2.92-0.47c-0.18-0.02-0.36-0.05-0.54-0.08c-1.02-0.16-2.04-0.33-3.05-0.51
	c-0.04,0-0.08-0.01-0.12-0.02c-0.54-0.09-1.07-0.18-1.61-0.28c-3.85-0.67-7.68-1.41-11.48-2.21c-9.44-1.97-18.75-4.29-27.92-6.96
	c-1.56-0.45-3.11-0.91-4.66-1.39c-1.72-0.52-3.43-1.06-5.13-1.61c-2.06-0.65-4.1-1.33-6.14-2.02c-0.21-0.07-0.42-0.14-0.63-0.21
	h-0.02c-1.45-0.49-2.89-1-4.32-1.51c-0.36-0.13-0.72-0.26-1.08-0.39c-0.52-0.19-1.04-0.37-1.55-0.57c-0.06-0.02-0.12-0.04-0.18-0.07
	c-1.73-0.61-3.44-1.25-5.16-1.9c-0.02-0.01-0.03-0.01-0.05-0.02c-1.62-0.62-3.24-1.25-4.85-1.9c-0.4-0.15-0.8-0.31-1.2-0.47
	c-2.09-0.84-4.17-1.69-6.23-2.56h-0.02c-0.06-0.03-0.13-0.05-0.19-0.08c-1.14-0.48-2.27-0.97-3.41-1.46
	c-1.71-0.74-3.42-1.5-5.12-2.27c-3.99-1.81-7.95-3.68-11.87-5.63c-3.82-1.89-7.61-3.85-11.36-5.87c-2.84-1.53-5.66-3.09-8.44-4.69
	c-0.01-0.01-0.03-0.01-0.04-0.02c-0.23-0.12-0.43-0.24-0.64-0.36c-0.19-0.1-0.36-0.21-0.54-0.32c-0.49-0.28-0.98-0.57-1.47-0.86
	c-3.22-1.87-6.41-3.79-9.57-5.75c-0.07-0.05-0.15-0.09-0.22-0.14c-3.25-2.03-6.47-4.1-9.65-6.23c-0.98-0.65-1.96-1.3-2.93-1.97
	c-3.88-2.63-7.7-5.33-11.47-8.11c-1.96-1.45-3.91-2.91-5.85-4.4C136.16,663.18,78,554.37,78,432C78,223.24,247.24,54,456,54
	S834,223.24,834,432z"/>
<path class="st1" d="M443.81,882.44c3.73,59.65,34.8,136.7,34.8,136.7s11.18,55.92,123.03,103.15
	c19.11-7.03,78.89-31.74,120.55-96.94c26.1-67.11,38.96-130.11,37.28-150.38c-11.21-70.41-67.41-161.74-152.86-164.05
	C516.85,708.51,453.29,805.88,443.81,882.44z"/>
<g>
	<path class="st2" d="M608.19,332.72c11.18-4.77,19.91-10.17,19.5-15.5c-2.72-34.93-396.25-47.08-401-13
		c-0.89,6.39,11.81,15.03,42.5,26.5"/>
	<path class="st3" d="M817.75,98.11L817.75,98.11L817.75,98.11z"/>
	<path class="st4" d="M517,567.83c5.63-10.72,4.65-24.65-2.17-35c-25.15-38.17-129.98-28.17-143.48,4
		c-6.56,15.64,9.72,33.54,11.96,36C415.93,608.7,499.57,601.02,517,567.83z"/>
	<path class="st5" d="M305.22,599.83c0.02,23.74,4.66,54.68,25,80c57.6,71.69,210.27,59.93,245-7c5.83-11.24,13.22-33.46,2-71
		c-27.67-7-55.33-14-83-21c-28.46-1.23-61.5-0.83-98,3C362.03,587.41,305.22,599.83,305.22,599.83z"/>
	<path class="st6" d="M502.58,491.3c2.63,23.55-6,13-8,90c-2.94,9.27-8.97,25.81-22,43c-10.02,13.22-18.65,24.6-30,25
		c-18.93,0.66-33.56-29.65-40-43c-13.52-28-6-64-11-106C412.62,474.06,460.26,467.4,502.58,491.3z"/>
	<g>
		<path class="st7" d="M394.08,499.8c11.99-6.42,36.45-17.3,68.33-16.11c16.83,0.63,30.72,4.43,40.67,8.11c-2,15-4,30-6,45
			c0,0-23.03,18.75-36.31,22.96c-17.24,5.47-32.91,4.91-46.59,4.21c-8.43-0.43-15.37-1.39-20.1-2.18V499.8z"/>
	</g>
	<path class="st8" d="M591.58,382.3c5.54-8.08,19.24-30.37,20-60.38c1.13-44.78-26.96-90.63-65.69-110.21
		c-46.13-23.34-120.47-19.35-100.31-20.41c19-1,27.61-47.69,26-49c-1.54-1.25-23.69,27.21-41,42
		c-73.17,12.33-94.04,14.23-94.42,12.38c-0.32-1.56,13.26-9.33,24-5c9.81,3.96,13.53,16.5,28.93,20.49c0.22,0.06,0.39,0.1,0.49,0.12
		c-11.66-5.32-27.47-9.8-45-7c-37.09,5.91-68.24,42.16-77,91c1.39,26.89,8.7,77.86,47,115C391.25,485.66,541.42,455.47,591.58,382.3
		z"/>
	<path class="st6" d="M289.58,373.3c-10.38,4.58-10.06,25.47-10,28c1.09,43.16,55.54,68.45,59,70c12.05,5.4,24.6,11.04,30,6
		c10.43-9.73-12.72-52.96-40-81C319.18,386.64,301.21,368.17,289.58,373.3z"/>
	<path class="st6" d="M593,373.74c10.38,4.58,10.06,25.47,10,28c-1.09,43.16-55.54,68.45-59,70c-12.05,5.4-24.6,11.04-30,6
		c-10.43-9.73,12.72-52.96,40-81C563.4,387.08,581.37,368.61,593,373.74z"/>
	<path class="st6" d="M315.58,358.3c3,48,28,110,28,110s9,45,99,83c15.38-5.65,63.48-25.54,97-78c21-54,31.35-104.69,30-121
		c-9.02-56.66-54.24-130.14-123-132C374.35,218.35,323.21,296.7,315.58,358.3z"/>
	<path class="st9" d="M538.61,470.48c-0.16-0.01-20.35,26.64-31,22c-6.78-2.95-2.09-15.3-11-22c-6.19-4.65-18.04-3-41.5,0.5
		c-7.61,1.14-6.5,1.24-12,2c-29.43,4.06-39.16-1.29-47,5c-9.09,7.29-0.58,22.25-7,26c-10,5.85-36.32-24.26-37-24
		c-0.51,0.19-1.11,0.38-1.19,0.89c-2.69,17.72,89,74.44,91.69,69.61c0,0,41-17,61-37.25C520.29,498.06,531.42,482.46,538.61,470.48z
		"/>
	<path class="st8" d="M421.58,289.3c-7,66-29,96-29,96s56-29,45-39c1.76,1.49-14,45-32,55c4.73,6.17,28.68-0.81,44-13
		c43.35-34.5,25.69-117.12,23-129"/>
	<path class="st8" d="M452.58,275.3c14.01,28.85,62.09,68.06,100.58,100.55c6.89,5.82-1.42,24.24-12.58,42.45
		c3.27,3.09,12.2-1.57,14.1-2.56c14.74-7.68,24.59-25.25,24.9-47.44"/>
	<path class="st3" d="M315.58,408.18"/>
	<path class="st10" d="M580.58,362.3c16.73-14.19-7.66-108.46-76-144c-65.01-33.81-154.86-6.63-191,51
		c-20.8,33.16-27.38,81.62-11,92c28.84,18.27,125.02-83.91,136.5-72.5c4.98,4.95-11.12,26.16-4.5,32.5
		c7.01,6.71,25.92-16.2,49.5-12.5c23.3,3.66,24.19,29.06,59,46C552.58,359.42,572.53,369.13,580.58,362.3z"/>
	<g>
		<g>
			<path class="st11" d="M421.96,288.43c0.78-3.65,1.16-7.39,1.13-11.12c-0.01-1.07-1.29-1.96-2.26-1.3
				c-3.41,2.35-6.52,5.1-9.24,8.23c-0.53,0.61-0.6,1.52,0,2.12c0.54,0.54,1.59,0.61,2.12,0c2.55-2.93,5.44-5.55,8.63-7.76
				c-0.75-0.43-1.5-0.86-2.26-1.3c0.04,3.47-0.3,6.93-1.02,10.33c-0.17,0.79,0.23,1.62,1.05,1.85
				C420.86,289.69,421.79,289.23,421.96,288.43L421.96,288.43z"/>
		</g>
	</g>
	<g>
		<g>
			<path d="M479.02,303.9c0.38,0.04,1.05,0.54,1.12,0.59c0.02,0.01,0.09,0.37,0.07,0.15c-0.02-0.19-0.1-0.39-0.14-0.58
				c-0.16-0.76-0.17-1.05-0.26-1.76c-0.28-2.33-0.51-4.67-0.79-7.01c-0.92-7.81-2.12-15.58-3.59-23.3
				c-0.67-3.51-1.39-7.02-2.17-10.51c-0.91,0.39-1.83,0.77-2.74,1.16c4.15,6.98,6.96,14.7,8.04,22.76
				c0.58,4.34,0.71,8.76,0.39,13.12c-0.1,1.42-0.25,2.85-0.53,4.25c-0.1,0.47-0.21,0.94-0.35,1.4c-0.1,0.32-0.1,0.12-0.06,0.19
				c-0.02,0.05-0.05,0.1-0.08,0.14c0.16-0.27,0.39-0.44,0.7-0.54c-1.9,0.33-1.09,3.23,0.8,2.89c1.53-0.27,1.81-2.79,2.02-3.96
				c0.52-3.01,0.68-6.08,0.67-9.12c-0.03-7.98-1.44-15.95-4.42-23.36c-1.29-3.21-2.82-6.31-4.58-9.28
				c-0.89-1.49-3.11-0.49-2.74,1.16c1.69,7.58,3.12,15.21,4.29,22.89c0.93,6.14,1.48,12.32,2.32,18.47c0.19,1.35,0.34,3.1,2.04,3.27
				C480.94,307.09,480.93,304.09,479.02,303.9z"/>
		</g>
	</g>
	<g>
		<g>
			<path d="M585.18,363.24c0-3.52,0-7.03,0-10.55c0-0.81-0.69-1.5-1.5-1.5c-0.81,0-1.5,0.69-1.5,1.5c0,3.52,0,7.03,0,10.55
				c0,0.81,0.69,1.5,1.5,1.5C584.49,364.74,585.18,364.05,585.18,363.24L585.18,363.24z"/>
		</g>
	</g>
	<g>
		<g>
			<path class="st11" d="M354.38,208.46c9.05-0.66,18.17-0.34,27.14,1.02c1.89,0.29,2.7-2.6,0.8-2.89
				c-9.25-1.4-18.6-1.81-27.94-1.13C352.47,205.6,352.46,208.6,354.38,208.46L354.38,208.46z"/>
		</g>
	</g>
	<g>
		<g>
			<path class="st11" d="M463.15,249.59c-1.68-3.47-4.81-6.12-8.44-7.34c-0.74-0.25-1.67,0.29-1.85,1.05
				c-0.19,0.83,0.25,1.58,1.05,1.85c0.2,0.07,0.4,0.14,0.59,0.21c0.16,0.06,0.2,0.06,0.01,0c0.1,0.03,0.22,0.09,0.31,0.14
				c0.38,0.18,0.76,0.37,1.12,0.58c0.35,0.2,0.68,0.42,1.01,0.66c0.08,0.06,0.15,0.11,0.23,0.17c0.31,0.23-0.24-0.2,0.06,0.05
				c0.16,0.13,0.32,0.27,0.48,0.41c0.3,0.27,0.59,0.55,0.86,0.84c0.14,0.15,0.28,0.31,0.42,0.47c0.06,0.07,0.12,0.15,0.18,0.22
				c0.04,0.05,0.3,0.33,0.05,0.06c0.55,0.59,0.96,1.43,1.31,2.15c0.34,0.71,1.41,0.95,2.05,0.54
				C463.33,251.17,463.51,250.35,463.15,249.59L463.15,249.59z"/>
		</g>
	</g>
	<g>
		<g>
			<path class="st11" d="M545.33,249.29c8.24,14.54,15.54,29.59,21.83,45.07c0.72,1.77,3.62,0.99,2.89-0.8
				c-6.38-15.72-13.76-31.02-22.13-45.79C546.97,246.1,544.37,247.61,545.33,249.29L545.33,249.29z"/>
		</g>
	</g>
	<g>
		<g>
			<path d="M298.75,309.97c0.55-4.03,2.17-7.72,3.86-11.38c1.77-3.84,3.6-7.66,5.48-11.45c3.72-7.51,7.64-14.92,11.75-22.23
				c0.95-1.68-1.64-3.2-2.59-1.51c-4.19,7.44-8.18,15-11.97,22.66c-1.87,3.79-3.7,7.61-5.47,11.46c-1.72,3.74-3.4,7.55-3.96,11.67
				c-0.11,0.81,0.2,1.6,1.05,1.85C297.6,311.21,298.64,310.77,298.75,309.97L298.75,309.97z"/>
		</g>
	</g>
	<path class="st12" d="M291.58,387.3c-1.18,3.76-3.06,11.56-1,21c1.38,6.34,4.03,11.08,6,14"/>
	<path class="st12" d="M592.68,386.13c1.18,3.76,3.06,11.56,1,21c-1.38,6.34-4.03,11.08-6,14"/>
	<line class="st12" x1="448.58" y1="403.3" x2="435.58" y2="411.3"/>
	<line class="st12" x1="449.58" y1="408.3" x2="428.58" y2="421.3"/>
	<line class="st12" x1="454.58" y1="411.3" x2="427.58" y2="428.3"/>
	<line class="st12" x1="456.58" y1="417.3" x2="428.58" y2="434.3"/>
	<line class="st12" x1="459.58" y1="421.3" x2="430.58" y2="438.3"/>
	<path class="st13" d="M442.58,447.8c-0.17,4-0.33,8-0.5,12c-1.83-1.67-3.67-3.33-5.5-5"/>
	<g>
		<g>
			<path class="st7" d="M348.51,437.09c-0.61,0.82-1.22,1.63-1.83,2.45c-0.11,0.17-0.17,0.36-0.18,0.56c-0.04,0.2-0.04,0.4,0.03,0.6
				c0.1,0.35,0.36,0.73,0.69,0.9c0.35,0.18,0.77,0.28,1.16,0.15c0.12-0.05,0.24-0.1,0.36-0.15c0.23-0.13,0.4-0.31,0.54-0.54
				c0.61-0.82,1.22-1.63,1.83-2.45c0.11-0.17,0.17-0.36,0.18-0.56c0.04-0.2,0.04-0.4-0.03-0.6c-0.1-0.35-0.36-0.72-0.69-0.9
				c-0.35-0.18-0.77-0.28-1.16-0.15c-0.12,0.05-0.24,0.1-0.36,0.15C348.82,436.69,348.64,436.86,348.51,437.09L348.51,437.09z"/>
		</g>
	</g>
	<g>
		<g>
			<path class="st7" d="M352.46,439.82c-0.2,0.31-0.41,0.61-0.61,0.92c-0.11,0.17-0.17,0.36-0.18,0.56c-0.04,0.2-0.04,0.4,0.03,0.6
				c0.05,0.2,0.14,0.37,0.27,0.51c0.11,0.16,0.25,0.29,0.42,0.39c0.12,0.05,0.24,0.1,0.36,0.15c0.27,0.07,0.53,0.07,0.8,0
				c0.12-0.05,0.24-0.1,0.36-0.15c0.23-0.13,0.4-0.31,0.54-0.54c0.2-0.31,0.41-0.61,0.61-0.92c0.11-0.17,0.17-0.36,0.18-0.56
				c0.04-0.2,0.04-0.4-0.03-0.6c-0.05-0.2-0.14-0.37-0.27-0.51c-0.11-0.16-0.25-0.29-0.42-0.39c-0.12-0.05-0.24-0.1-0.36-0.15
				c-0.27-0.07-0.53-0.07-0.8,0c-0.12,0.05-0.24,0.1-0.36,0.15C352.77,439.42,352.59,439.6,352.46,439.82L352.46,439.82z"/>
		</g>
	</g>
	<g>
		<g>
			<path class="st7" d="M521.95,439.67c0,0.51,0,1.02,0,1.53c-0.01,0.21,0.04,0.4,0.13,0.58c0.06,0.19,0.16,0.35,0.31,0.48
				c0.14,0.15,0.3,0.25,0.48,0.31c0.18,0.09,0.37,0.14,0.58,0.13c0.13-0.02,0.27-0.04,0.4-0.05c0.25-0.07,0.47-0.2,0.66-0.39
				c0.27-0.29,0.44-0.65,0.44-1.06c0-0.51,0-1.02,0-1.53c0.01-0.21-0.04-0.4-0.13-0.58c-0.06-0.19-0.16-0.35-0.31-0.48
				c-0.14-0.15-0.3-0.25-0.48-0.31c-0.18-0.09-0.37-0.14-0.58-0.13c-0.13,0.02-0.27,0.04-0.4,0.05c-0.25,0.07-0.47,0.2-0.66,0.39
				C522.12,438.91,521.95,439.27,521.95,439.67L521.95,439.67z"/>
		</g>
	</g>
	<g>
		<g>
			<path class="st7" d="M526.5,438.48c0.01,0.01,0.02,0.03,0.04,0.04c-0.08-0.1-0.16-0.2-0.23-0.3c0.24,0.32,0.44,0.66,0.6,1.03
				c-0.05-0.12-0.1-0.24-0.15-0.36c0.17,0.4,0.28,0.82,0.34,1.26c-0.02-0.13-0.04-0.27-0.05-0.4c0.05,0.38,0.05,0.76,0.01,1.13
				c-0.04,0.36,0.2,0.82,0.44,1.06c0.26,0.26,0.69,0.46,1.06,0.44c0.39-0.02,0.79-0.14,1.06-0.44c0.08-0.1,0.16-0.2,0.23-0.3
				c0.14-0.23,0.2-0.49,0.2-0.76c0.08-0.75,0-1.53-0.21-2.25c-0.12-0.4-0.28-0.8-0.47-1.18c-0.2-0.4-0.47-0.74-0.74-1.09
				c-0.22-0.28-0.72-0.44-1.06-0.44c-0.37,0-0.81,0.16-1.06,0.44c-0.26,0.29-0.46,0.66-0.44,1.06c0.02,0.13,0.04,0.27,0.05,0.4
				C526.18,438.08,526.31,438.3,526.5,438.48L526.5,438.48z"/>
		</g>
	</g>
	<path class="st8" d="M427.58,292.3c-12.82,8.94-94,84-101,114c-2,5,9.6,31.37,11,31c0.08-0.02,0.11-0.11,0.12-0.15
		c0.66-2.62-54.89-18.44-44.12-91.85"/>
	<path class="st14" d="M648.53,757.34c-1.4,0.84-2.8,1.66-4.22,2.47c-0.22,0.12-0.43,0.25-0.65,0.37
		c-4.44,2.56-8.94,5.02-13.51,7.38c-1.63,0.86-3.28,1.69-4.93,2.51c-0.25,0.14-0.51,0.26-0.76,0.39c-0.08,0.04-0.17,0.09-0.25,0.12
		c-0.38,0.2-0.76,0.39-1.14,0.57h-0.01c-0.23,0.12-0.45,0.23-0.68,0.35c-0.32,0.16-0.63,0.31-0.95,0.47
		c-2.43,1.19-4.87,2.34-7.33,3.48c-1.06,0.48-2.13,0.97-3.2,1.45c-0.55,0.25-1.09,0.49-1.63,0.73c-0.03,0.01-0.05,0.02-0.08,0.04
		c-0.31,0.13-0.62,0.27-0.92,0.41c-2.32,1.02-4.66,2.02-6.99,2.98c-2.3,0.97-4.6,1.9-6.91,2.82c-3.45,1.36-6.93,2.67-10.44,3.93
		c-3.59,1.29-7.21,2.53-10.85,3.71c-0.27,0.09-0.54,0.17-0.81,0.26c-0.05-0.21-0.09-0.42-0.14-0.63c-1.22-5.57-2.42-11.13-3.6-16.7
		c-0.69-3.25-1.37-6.49-2.04-9.73c-2.23-10.74-4.37-21.47-6.42-32.2v-0.01c-0.11-0.6-0.22-1.18-0.34-1.78
		c-1.7-9.01-3.34-18.01-4.89-27.02c-0.33-1.92-0.66-3.84-0.98-5.76c-0.1-0.55-0.19-1.1-0.28-1.65l-1.77-6.16l-0.1-0.36l-6.55-22.82
		l-9.36-32.63l-11-38.32l-1.94-6.76c2.02,0.38,4.05,0.77,6.07,1.15c4.13,0.78,8.27,1.57,12.4,2.35h0.01
		c12.55,2.38,25.08,4.75,37.62,7.13c12.97,2.46,25.94,4.91,38.9,7.37c7.76,21.45,10.98,43.27,13.72,65.05
		c1.12,8.92,2.46,17.75,3.99,26.5c3.25,18.65,7.36,36.93,12.01,54.86v0.01C647.89,754.89,648.21,756.12,648.53,757.34z"/>
	<path class="st14" d="M383.58,585.3l-0.04,0.1l-3.32,8.29l-4.74,11.87l-13.6,34l-12.05,30.11l-6.25,15.63
		c-0.1,0.36-0.2,0.72-0.3,1.08c-0.51,1.87-1.03,3.74-1.54,5.61c-1.38,5-2.75,10-4.13,15c-1.79,6.51-3.59,13.02-5.38,19.53
		c-2.31,8.39-4.62,16.79-6.93,25.18c-1.4,5.08-2.8,10.16-4.19,15.24c-0.97,3.52-1.94,7.04-2.91,10.56
		c-0.55,1.98-1.09,3.96-1.63,5.94c-0.4-0.15-0.8-0.31-1.2-0.47c-2.09-0.84-4.17-1.69-6.23-2.56h-0.02
		c-0.06-0.03-0.13-0.05-0.19-0.08c-1.14-0.48-2.27-0.97-3.41-1.46c-1.71-0.74-3.42-1.5-5.12-2.27c-3.99-1.81-7.95-3.68-11.87-5.63
		c-3.82-1.89-7.61-3.85-11.36-5.87c-2.84-1.53-5.66-3.09-8.44-4.69c-0.01-0.01-0.03-0.01-0.04-0.02c-0.23-0.12-0.43-0.24-0.64-0.36
		c-0.19-0.1-0.36-0.21-0.54-0.32c-0.49-0.28-0.98-0.57-1.47-0.86c-3.22-1.87-6.41-3.79-9.57-5.75c-0.07-0.05-0.15-0.09-0.22-0.14
		c-3.25-2.03-6.47-4.1-9.65-6.23c1.77-6.5,3.56-13.03,5.38-19.57c4.39-15.85,8.92-31.8,13.6-47.86c7.5-25.76,15.18-51.1,23-76
		c5.55-1.05,11.09-2.1,16.64-3.15c0.87-0.17,1.74-0.33,2.62-0.5c19.8-3.75,39.6-7.5,59.41-11.26c1.04-0.19,2.09-0.39,3.13-0.59
		c3.7-0.71,7.39-1.4,11.09-2.1c0.01-0.01,0.02-0.01,0.03-0.01c0.02,0,0.04-0.01,0.06-0.01C382.23,585.56,382.91,585.43,383.58,585.3
		z"/>
	<path class="st15" d="M648.78,757.19c-0.08,0.06-0.16,0.1-0.25,0.15c-1.4,0.84-2.8,1.66-4.22,2.47c-0.22,0.12-0.43,0.25-0.65,0.37
		c-4.44,2.56-8.94,5.02-13.51,7.38c-1.63,0.86-3.28,1.69-4.93,2.51c-0.25,0.14-0.51,0.26-0.76,0.39c-0.08,0.04-0.17,0.09-0.25,0.12
		c-0.38,0.2-0.76,0.39-1.14,0.57h-0.01c-0.23,0.12-0.45,0.23-0.68,0.35c-0.32,0.16-0.63,0.31-0.95,0.47
		c-2.43,1.19-4.87,2.34-7.33,3.48c-1.62,0.51-3.24,1.05-4.86,1.61c-12.49,4.2-24.86,8.9-37.11,14.09c-1.95,0.81-3.9,1.65-5.84,2.51
		c-1.51,0.64-3.01,1.31-4.51,1.98c-0.08-0.19-0.16-0.38-0.23-0.57c-2.62-6.33-5.02-12.43-6.68-17.71c-0.83-2.61-1.46-5.01-1.86-7.15
		c4.54-1.88,9.04-3.71,13.48-5.49c9.97-4.01,19.66-7.75,28.93-11.12c5.35-1.94,10.56-3.75,15.61-5.41
		c11.14-3.67,21.47-6.61,30.74-8.58c2.15,4.89,4.21,9.69,5.81,14.05v0.01C648.02,754.88,648.43,756.06,648.78,757.19z"/>
	<path class="st15" d="M339.53,757.49c-0.71,3.82-2.19,8.51-4.1,13.65c-1.38,3.73-2.99,7.71-4.67,11.78
		c-4.17-1.86-8.36-3.67-12.56-5.42c-9.79-4.09-19.65-7.88-29.59-11.34c-7.48-2.62-15-5.05-22.57-7.31
		c-3.22-1.87-6.41-3.79-9.57-5.75c-0.07-0.05-0.15-0.09-0.22-0.14c-3.25-2.03-6.47-4.1-9.65-6.23c-0.98-0.65-1.96-1.3-2.93-1.97
		c1.66-5.28,4.32-11.51,7.1-17.87c0.4,0.09,0.8,0.17,1.21,0.27c11.04,2.42,23.56,6.17,37.1,10.86c6.84,2.38,13.95,5,21.26,7.81
		c4.9,1.87,9.89,3.83,14.96,5.87C329.98,753.57,334.73,755.51,339.53,757.49z"/>
	<path class="st16" d="M366.22,585.83l-58,12c-5.81,26.2,4.54,52.34,25,65c24.86,15.38,62.49,9.55,72-11
		C413.81,633.27,400.31,600.83,366.22,585.83z"/>
	<path class="st16" d="M520.66,586.91l58,12c8.39,26.94-3.43,54.66-25,65c-27.88,13.36-66.33-5.05-69.44-30.08
		C482.07,616.56,496.76,596.44,520.66,586.91z"/>
	<g>
		<path class="st16" d="M611.03,748.19c-0.43,9.62-1.04,19.25-1.79,28.87c-0.02,0.2-0.03,0.4-0.05,0.61
			c-0.31,0.13-0.62,0.27-0.92,0.41c-2.32,1.02-4.66,2.02-6.99,2.98c-2.3,0.97-4.6,1.9-6.91,2.82c-3.45,1.36-6.93,2.67-10.44,3.93
			c-3.59,1.29-7.21,2.53-10.85,3.71c-0.27,0.09-0.54,0.17-0.81,0.26c-1.98,0.64-3.98,1.27-5.98,1.88c-1.51,0.64-3.01,1.31-4.51,1.98
			c-0.08-0.19-0.16-0.38-0.23-0.57c-17.76,5.15-36.06,9.03-54.79,11.55c-1.35,0.18-2.69,0.35-4.04,0.51h-0.01
			c-2.59,0.33-5.19,0.62-7.8,0.89h-0.01c-1,0.1-1.97,0.2-2.97,0.29h-0.01c-0.09,0.01-0.18,0.02-0.27,0.02
			c-0.56,0.06-1.11,0.12-1.67,0.17c-1.39,0.12-2.79,0.23-4.19,0.34c-0.57,0.05-1.13,0.09-1.7,0.13c-1.91,0.15-3.82,0.27-5.73,0.38
			c-0.14,0.01-0.27,0.02-0.41,0.02c-0.64,0.04-1.28,0.08-1.91,0.11c-2.87,0.15-5.75,0.27-8.64,0.35c-1.44,0.05-2.88,0.08-4.32,0.1
			c-2.35,0.05-4.71,0.07-7.08,0.07c-0.52,0-1.03,0-1.55-0.01c-1.15,0-2.3-0.01-3.44-0.03c-2.92-0.03-5.83-0.11-8.73-0.21
			c-7.01-0.25-13.97-0.69-20.88-1.31c-0.84-0.08-1.67-0.16-2.51-0.25h-0.01c-0.35-0.03-0.7-0.06-1.05-0.1
			c-0.64-0.06-1.28-0.13-1.92-0.2h-0.01c-0.46-0.05-0.92-0.1-1.38-0.15c-0.96-0.1-1.91-0.21-2.86-0.33
			c-1.19-0.14-2.38-0.28-3.57-0.43c-0.16-0.02-0.32-0.04-0.48-0.06c-1.03-0.13-2.05-0.27-3.07-0.41c-0.09-0.01-0.19-0.02-0.28-0.04
			c-2.09-0.28-4.17-0.58-6.25-0.9c-0.01,0.01-0.02,0-0.03-0.01c-0.98-0.15-1.95-0.3-2.92-0.47c-0.18-0.02-0.36-0.05-0.54-0.08
			c-1.02-0.16-2.04-0.33-3.05-0.51c-0.04,0-0.08-0.01-0.12-0.02c-0.54-0.09-1.07-0.18-1.61-0.28c-3.85-0.67-7.68-1.41-11.48-2.21
			c-9.44-1.97-18.75-4.29-27.92-6.96c-1.56-0.45-3.11-0.91-4.66-1.39c-1.72-0.52-3.43-1.06-5.13-1.61c-2.06-0.65-4.1-1.33-6.14-2.02
			c-0.21-0.07-0.42-0.14-0.63-0.21h-0.02c-1.45-0.49-2.89-1-4.32-1.51c-0.36-0.13-0.72-0.26-1.08-0.39
			c-0.52-0.19-1.04-0.37-1.55-0.57c-0.06-0.02-0.12-0.04-0.18-0.07c-1.73-0.61-3.44-1.25-5.16-1.9c-0.02-0.01-0.03-0.01-0.05-0.02
			c-1.62-0.62-3.24-1.25-4.85-1.9c-0.4-0.15-0.8-0.31-1.2-0.47c-2.09-0.84-4.17-1.69-6.23-2.56h-0.02
			c-0.06-0.03-0.13-0.05-0.19-0.08c-1.14-0.48-2.27-0.97-3.41-1.46c-1.71-0.74-3.42-1.5-5.12-2.27c-3.99-1.81-7.95-3.68-11.87-5.63
			c0.03-1.61,0.06-3.22,0.08-4.81c0.15-9.62,0.31-19.04,0.47-28.14c0.76-42.46,1.61-78.18,2.29-96.34l19.24-0.58l2.77-0.08
			l48.5-1.46l37.47-1.13h0.01l8.35-0.25l8.35-0.25l5.64-0.17l19.65-0.59l0.67-0.02l20.88-0.63l5.02-0.15l16.63-0.5l4.02-0.12h0.01
			l47.22-1.42l43.19-1.3l3.93-0.11l20.49-0.62c0.17,0.83,0.34,1.66,0.5,2.49c0,0.02,0.01,0.04,0.01,0.07
			C611.38,672.65,612.67,710.42,611.03,748.19z"/>
		<g>
			<path d="M611.15,748.2c-0.07,0.1-1.72,29.58-1.91,29.58c-6.85,3.01-14.17,6.03-21.22,8.62c-7.14,2.7-14.4,5.1-21.69,7.37
				c0.06-0.02-4.51,1.98-4.5,1.97c0,0-0.11,0.05-0.11,0.05s-0.04-0.11-0.04-0.11s-0.23-0.57-0.23-0.57s0.14,0.07,0.14,0.07
				c-9.63,2.79-19.37,5.19-29.18,7.21c-61.22,12.52-124.91,9.78-184.49-7.96c-11.03-3.27-22.02-7.13-32.69-11.4
				c-8.51-3.35-18.38-7.94-26.73-11.98c0.24-36.13,1.99-92.8,2.44-129.38c0,0,0.01-0.4,0.01-0.4s0.41-0.02,0.41-0.02
				c26-0.99,52.01-1.43,78.02-2.08c49.57-1.44,182.79-5.43,234.03-6.98c0,0,0.1,0,0.1,0c0,0,0.02,0.1,0.02,0.1s0.5,2.49,0.5,2.49
				C611.39,671.95,612.83,710.32,611.15,748.2L611.15,748.2z M610.91,748.18c1.68-37.86,0.25-76.21-7.12-113.37
				c0,0-0.5-2.49-0.5-2.49s0.12,0.09,0.12,0.09c-83.39,2.86-210.53,5.9-292.53,9.17c0,0-19.5,0.52-19.5,0.52s0.42-0.41,0.42-0.41
				s-1.84,64.63-1.84,64.63c-0.82,18.63-0.88,45.72-1.35,64.65c0,0-0.04-0.07-0.04-0.07s10.24,4.84,10.24,4.84
				c10.06,4.69,20.92,8.94,31.42,12.7c64.42,22.76,134.94,27.5,202.12,13.72c9.85-2.02,19.61-4.43,29.27-7.23c0,0,0.04,0.1,0.04,0.1
				s0.23,0.56,0.23,0.56l-0.16-0.06c0-0.01,4.52-1.98,4.52-1.99c7.28-2.27,14.54-4.67,21.68-7.37c7.03-2.6,14.36-5.6,21.21-8.62
				C609.04,778.09,610.9,748.08,610.91,748.18L610.91,748.18z"/>
		</g>
	</g>
	<path class="st17" d="M469.58,625.3c-17.99,5.99-37.41,6.65-58,3c0.1-3.75,8,29,30,38C472.58,649.3,470.74,619.22,469.58,625.3z"/>
	<g>
		<path class="st18" d="M395.06,805.09c-0.18-0.02-0.36-0.05-0.54-0.08c-1.02-0.16-2.04-0.33-3.05-0.51
			c-0.02-0.11-0.05-0.22-0.08-0.33c-0.02-0.12-0.05-0.23-0.08-0.34c-4.09-17.17-8.08-34.94-11.99-53.17c0-0.01,0-0.01,0-0.02
			c-1.28-5.96-2.55-11.98-3.81-18.04c-0.94-4.5-1.87-9.02-2.8-13.57v-0.01c-0.36-1.78-0.73-3.56-1.09-5.35
			c-0.15-0.72-0.29-1.44-0.44-2.17c-0.25-1.24-0.5-2.48-0.75-3.73c-1.31-6.52-2.61-13.08-3.91-19.68c-0.31-1.59-0.63-3.19-0.94-4.79
			l1.17,4.83l4.76,19.67l1.06,4.36v0.01l0.13,0.54l0.97,4.01l1.45,6.02v0.02l3.66,15.1c0,0.01,0,0.01,0.01,0.02l16.02,66.22
			L395.06,805.09z"/>
		<g>
			<path class="st18" d="M395.15,805.17c-1.04-0.03-2.65-0.39-3.7-0.53c0,0-0.09-0.01-0.09-0.01s-0.02-0.1-0.02-0.1
				c-3.15-13.5-9.28-40.28-12.35-53.79c-4.48-20.79-9.67-46.16-13.86-67.34c0,0,0.91-0.2,0.91-0.2
				C375.56,722.66,385.89,765.14,395.15,805.17L395.15,805.17z M394.97,805.01c-10.22-40.3-20.18-81.76-29.84-121.6
				c0,0,0.91-0.2,0.91-0.2c4.12,21.2,9.21,46.56,13.62,67.38c3.03,13.49,8.98,40.44,11.95,53.89c0,0-0.11-0.11-0.11-0.11
				s1.79,0.31,1.79,0.31C393.7,804.75,394.56,804.86,394.97,805.01L394.97,805.01z"/>
		</g>
	</g>
	<line class="st19" x1="533.58" y1="679.3" x2="492.58" y2="783.3"/>
	<path class="st3" d="M147.08,85.8L147.08,85.8L147.08,85.8z"/>
	<path class="st3" d="M499.58,569.3"/>
	<path class="st3" d="M499.58,560.3"/>
	<path class="st3" d="M503.58,559.3"/>
	<g>
		<path d="M450.51,809.98c-3.03-28.82-4.25-64.04-6.64-92.99c-1.33-17.1-2.64-38.78-3.78-55.82c0,0,0.99-0.11,0.99-0.11
			c3.27,24.25,5.82,49.91,7.93,74.25c1.83,24.83,3.34,49.71,2.5,74.63C451.51,809.94,450.51,809.98,450.51,809.98L450.51,809.98z"/>
	</g>
	<path class="st19" d="M513.05,781.79c9.99,0,19.97,0,29.96,0"/>
	<g>
		<path class="st18" d="M606.66,631.72c-8.04,8.9-15.93,17.94-23.65,27.12"/>
		<g>
			<path class="st18" d="M605.6,630.66c-8.04,8.9-15.93,17.94-23.65,27.12c-1.24,1.47,0.88,3.6,2.12,2.12
				c7.72-9.18,15.6-18.22,23.65-27.12C609.01,631.35,606.9,629.22,605.6,630.66L605.6,630.66z"/>
		</g>
	</g>
	<path class="st3" d="M139.57,99.07L139.57,99.07L139.57,99.07z"/>
	<path class="st20" d="M377.54,707.94c0.8,19.32,1.61,38.64,2.41,57.96c-17.87,16.27-43.25,5.5-67.61-1.61
		c-2.85-19.4-3.19-38.7-2.41-57.96C332.46,706.86,355,707.4,377.54,707.94z"/>
	<path class="st20" d="M381.97,696.3c-3.66-13.34-69.85-14.13-75.8,2.68c-2.96,8.36,8.93,21.16,20.51,25.86
		C353.17,735.6,384.8,706.63,381.97,696.3z"/>
	<path class="st20" d="M521.58,704.5c-0.89,21.4-1.78,42.81-2.68,64.21c19.8,18.03,47.92,6.1,74.91-1.78
		c3.15-21.5,3.54-42.88,2.68-64.21C571.52,703.31,546.55,703.91,521.58,704.5z"/>
	<path class="st20" d="M520.68,700.04c3.66-13.34,69.85-14.13,75.8,2.68c2.96,8.36-8.93,21.16-20.51,25.86
		C549.48,739.34,517.85,710.37,520.68,700.04z"/>
	<path class="st21" d="M569.22,689.68c-6.33-0.41-18.99,0.35-19,0c0,0,3.29,31.73,11,45c4.67,0,9.33,0,14,0
		C568.5,720.63,567.99,705.33,569.22,689.68z"/>
	<path class="st22" d="M525.22,716.68c7.75,16.66,10.3,33.54-2,51"/>
	<path class="st4" d="M374.79,714.22c-7.75,16.66-10.3,33.54,2,51"/>
	<g>
		<g>
			<path d="M424.46,517.38c14.07-3.6,28.39-6.17,42.83-7.65c0.95-0.1,0.96-1.6,0-1.5c-14.58,1.5-29.03,4.07-43.23,7.71
				C423.13,516.17,423.52,517.62,424.46,517.38L424.46,517.38z"/>
		</g>
	</g>
	<path class="st14" d="M443.16,669.68c13.41-8.12,29.11-19.09,45.22-33.75c18.29-16.64,31.91-33.29,41.78-47.25
		c0.73-9.26,0.4-23.51-6.33-38.55c-1.7-3.8-3.6-7.18-5.53-10.16c-8.03,13.66-21.27,32.36-42.14,49.71
		c-12.48,10.38-24.68,17.76-35,23C441.82,631.68,442.49,650.68,443.16,669.68z"/>
	<path class="st14" d="M442.97,671.68c-11.59-6.1-28.57-16.79-44.86-34.59c-17.65-19.29-27.03-38.78-31.95-51.41
		c-2.52-22.76-0.63-39.75,1.62-44.51c1.4-2.97,3.12-5.67,3.12-5.67c1.58-2.49,3.22-4.58,4.74-6.32
		c5.45,14.83,12.08,26.47,17.62,34.83c2.41,3.64,9.82,14.52,21.9,26.67c9.04,9.09,17.78,15.96,25,21
		C441.09,631.68,442.03,651.68,442.97,671.68z"/>
	<path class="st15" d="M442.28,809.75c-7.01-0.25-13.97-0.69-20.88-1.31c-0.84-0.08-1.67-0.16-2.51-0.25h-0.01
		c-0.35-0.03-0.7-0.06-1.05-0.1c-0.64-0.06-1.28-0.13-1.92-0.2h-0.01c-0.46-0.05-0.92-0.1-1.38-0.15c-0.96-0.1-1.91-0.21-2.86-0.33
		c-1.19-0.14-2.38-0.28-3.57-0.43c-0.16-0.02-0.32-0.04-0.48-0.06c-1.03-0.13-2.05-0.27-3.07-0.41c-0.09-0.01-0.19-0.02-0.28-0.04
		c-2.09-0.28-4.17-0.58-6.25-0.9c-0.01,0.01-0.02,0-0.03-0.01c-0.98-0.15-1.95-0.3-2.92-0.47c-0.18-0.02-0.36-0.05-0.54-0.08
		c-1.02-0.16-2.04-0.33-3.05-0.51c-0.04,0-0.08-0.01-0.12-0.02c-0.54-0.09-1.07-0.18-1.61-0.28c0.51-0.01,1.03-0.02,1.55-0.03h0.1
		c0.96-0.02,1.93-0.04,2.9-0.06c0.17,0,0.34,0,0.52-0.01c15.57-0.34,31.17-0.93,46.82-1.77
		C441.88,804.85,442.11,807.34,442.28,809.75z"/>
	<path class="st23" d="M394.52,805.01c-1.02-0.16-2.04-0.33-3.05-0.51c-0.04,0-0.08-0.01-0.12-0.02c-0.02-0.11-0.04-0.21-0.06-0.31
		c-0.03-0.11-0.05-0.23-0.07-0.34h3c0.02,0.09,0.05,0.19,0.07,0.28C394.37,804.41,394.45,804.71,394.52,805.01z"/>
	<g>
		<g>
			<path class="st24" d="M636.15,698.08c-7.83,3.17-15.67,6.33-23.5,9.5c-0.1,0.04-0.06,2.48-0.05,2.2
				c-0.02,1.77-0.02,3.54-0.02,5.3c0,1.77,0,3.54,0.02,5.3c0,0.24,0.13,2.17,0.05,2.2c7.83-3.17,15.67-6.33,23.5-9.5
				c0.1-0.04,0.06-2.48,0.05-2.2c0.02-1.77,0.02-3.54,0.02-5.3c0-1.77,0-3.54-0.02-5.3C636.2,700.04,636.07,698.11,636.15,698.08
				L636.15,698.08z"/>
		</g>
	</g>
	<g>
		<g>
			<path class="st25" d="M636.15,697.33c-8,3-16,6-24,9c-0.29,0.11,0.26,2.4,0,2.5c8-3,16-6,24-9
				C636.44,699.72,635.89,697.43,636.15,697.33L636.15,697.33z"/>
		</g>
	</g>
	<g>
		<g>
			<path class="st25" d="M636.65,711.33c-8.17,3-16.33,6-24.5,9c-0.29,0.1,0.25,2.41,0,2.5c8.17-3,16.33-6,24.5-9
				C636.93,713.72,636.39,711.42,636.65,711.33L636.65,711.33z"/>
		</g>
	</g>
	<polygon class="st26" points="630.53,710.34 622.69,713.07 625.04,705.95 	"/>
	<polygon class="st26" points="621.6,708.77 629.58,706.46 626.85,713.45 	"/>
	<path class="st27" d="M262.16,290.68c-4.4-18.24,61.52-164.51,184-167c133.26-2.71,183.25,165.27,167,182
		C507.32,282.7,389.27,279.39,262.16,290.68z"/>
	<g>
		<g>
			<path class="st28" d="M450.78,120.91c-23.13,13.71-42.34,32.85-60.26,52.68c-19.08,21.11-37.16,43.13-54.19,65.92
				c-9.61,12.86-18.88,25.97-27.81,39.31c-0.29,0.43-0.03,1.98-0.03,2.5c0,0.59,0,1.18,0.01,1.77c0,0.15,0.09,0.63,0.02,0.73
				c15.87-23.7,32.82-46.67,50.81-68.81c9.04-11.13,18.34-22.05,27.89-32.74c8.91-9.98,18.04-19.79,27.81-28.95
				c10.98-10.29,22.79-19.73,35.75-27.41c0.21-0.13,0.02-2.22,0.02-2.5C450.8,123.13,450.57,121.03,450.78,120.91L450.78,120.91z"/>
		</g>
	</g>
	<g>
		<g>
			<path class="st28" d="M475.99,132.32c23.31,5.71,39.7,26,52.43,45.05c14.28,21.37,25.02,44.85,34.37,68.72
				c5.28,13.48,10.12,27.11,14.95,40.75c-0.22-0.63,0.03-1.83,0.03-2.5c0-0.72,0.22-1.81-0.03-2.5c-8.57-24.2-17.2-48.46-28.19-71.7
				c-5.49-11.6-11.57-22.94-18.5-33.75c-6.57-10.26-13.81-20.27-22.36-28.97c-9.08-9.23-19.97-16.99-32.7-20.11
				C476.34,127.4,475.57,132.21,475.99,132.32L475.99,132.32z"/>
		</g>
	</g>
	<g>
		<g>
			<path class="st24" d="M423.21,275.12c-19.52-1.18-39.09-1.46-58.63-0.81c-19.54,0.65-39.06,2.22-58.45,4.7
				c-10.99,1.41-21.94,3.11-32.84,5.09c-0.33,0.06,0.26,4.95,0,5c19.24-3.5,38.64-6.11,58.12-7.8c19.48-1.69,39.04-2.46,58.59-2.31
				c11.08,0.08,22.16,0.47,33.22,1.14C423.15,280.11,423.35,275.13,423.21,275.12L423.21,275.12z"/>
		</g>
	</g>
	<path class="st29" d="M611.16,332.68c11.18-4.77,19.91-10.17,19.5-15.5c-2.72-34.93-396.25-47.08-401-13
		c-0.89,6.39,11.81,15.03,42.5,26.5"/>
	<g>
		<g>
			<path class="st28" d="M453.3,126.34c0.86-1.6,0.67-3.87,2-5.21c0.79-0.79,1.9-0.81,2.95-0.82c1.45-0.02,2.91-0.04,4.36-0.06
				c1.39-0.02,2.77-0.04,4.16-0.06c1.17-0.02,2.39-0.07,3.53,0.28c1.86,0.56,3.61,2.84,3.77,4.79c0-1.64,0-3.27-0.01-4.91
				c-0.05,1.64-2.14,1.24-3.25,1.22c-1.72-0.04-3.44-0.12-5.16-0.25c-3.43-0.26-6.85-0.7-10.24-1.3c0,1.67,0,3.33,0,5
				c0.47-2.08,3.36-1.79,4.96-1.74c2.94,0.09,5.87,0.18,8.81,0.28c0-1.67,0-3.33,0-5c-3.27-0.04-6.54-0.09-9.81-0.13
				c-0.78-0.01-1.57-0.02-2.35-0.03c-0.73-0.01-1.53-0.11-2.24,0.06c-1.47,0.36-1.15,2.02-1.15,3.19c0,1.28-0.4,3.32,0.49,4.43
				c0.88,1.1,2.52,0.98,3.78,0.92c3.03-0.14,6.18-0.24,9.12-1.07c1.28-0.36,2.51-0.97,3.11-2.23c0.32-0.68,0.53-1.28,1.29-1.54
				c0.66-0.22,1.41-0.1,2.08,0.01c-0.24-0.04,0.32-4.95,0-5c-0.67-0.12-1.42-0.24-2.08-0.01c-0.77,0.26-0.97,0.86-1.29,1.54
				c-0.61,1.3-1.92,1.91-3.24,2.27c-1.63,0.44-3.34,0.64-5.02,0.79c-1.69,0.15-3.43,0.31-5.13,0.28c-0.73-0.02-1.53-0.1-2.15-0.53
				c-0.25-0.17-0.44-0.38-0.6-0.64c-0.07-0.11-0.13-0.22-0.17-0.34c-0.48-1.52-0.5-0.25-0.08,3.81c0.41-0.63,0.73-0.88,1.51-0.96
				c0.85-0.08,1.73,0,2.58,0.02c3.79,0.05,7.59,0.1,11.38,0.15c0,0,0.08-5,0-5c-2.94-0.09-5.87-0.18-8.81-0.28
				c-1.6-0.05-4.49-0.34-4.96,1.74c-0.1,0.46-0.12,4.98,0,5c3.85,0.69,7.73,1.16,11.63,1.4c1.88,0.11,3.91,0.35,5.79,0.16
				c1.78-0.18,1.26-2.58,1.26-3.82c0-1.76,0.1-3.15-0.85-4.67c-0.87-1.39-1.87-2.45-3.54-2.77c-1.65-0.31-3.43-0.12-5.1-0.1
				c-1.98,0.03-3.96,0.06-5.94,0.09c-1.67,0.02-3.23,0.11-3.99,1.82c-0.6,1.36-0.64,2.89-1.35,4.21c-0.06,0.12-0.02,0.67-0.02,0.73
				c-0.01,0.59-0.01,1.18-0.01,1.77c0,0.59,0,1.18,0.01,1.77C453.28,125.78,453.37,126.21,453.3,126.34L453.3,126.34z"/>
		</g>
	</g>
	<path class="st30" d="M260.16,281.68c15.7-13.03,87.27-69.53,192-63.35c94.82,5.6,155.62,58.96,172,74.35
		c-5.33-18.67-10.67-37.33-16-56c-4.57-7.3-58.61-90.29-160.55-94.43c-73.2-2.97-142.77,35.85-180.45,100.43
		C264.82,255.68,262.49,268.68,260.16,281.68z"/>
	<path class="st31" d="M260.07,281.72c15.7-13.03,87.27-69.53,192-63.35c94.82,5.6,155.62,58.96,172,74.35
		c-5.33-18.67-10.67-37.33-16-56c-4.57-7.3-58.61-90.29-160.55-94.43c-73.2-2.97-142.77,35.85-180.45,100.43
		C264.74,255.72,262.4,268.72,260.07,281.72z"/>
	<path class="st32" d="M338.16,233.68c10-3.33,20-6.67,30-10c12.33-25,24.67-50,37-75c-13.13,0.21-27.24,4.68-42,12
		C354.82,185.02,346.49,209.35,338.16,233.68z"/>
	<path class="st32" d="M451.16,216.68c8.68,0.11,18.55,0.78,29.31,2.45c14.67,2.28,27.34,5.87,37.69,9.55c7-19.33,14-38.67,21-58
		c-19.12-9.5-40.01-17.27-64-22C467.16,171.35,459.16,194.02,451.16,216.68z"/>
	<path class="st33" d="M620.25,302.97c6.71,1.61,20.6-9.78,18.56-24.64c-2.04-14.86-18.49-22.09-24.52-18.73
		C605.06,264.75,609.97,300.5,620.25,302.97z"/>
	<path class="st33" d="M252.65,290.13c-6.83,0.1-18.55-12.98-14.12-25.95c4.42-12.97,21.69-16.16,27.03-11.91
		C273.75,258.78,263.11,289.99,252.65,290.13z"/>
	<g>
		<g>
			<path class="st34" d="M265.74,254.91c4.93-4.62,10.41-8.6,16.32-11.88c0.04-0.02,0.02-0.81,0.02-0.73
				c0.01-0.59,0.01-1.18,0.01-1.77c0-0.59,0-1.18-0.01-1.77c0-0.09-0.05-0.71-0.02-0.73c-5.91,3.27-11.39,7.26-16.32,11.88
				c-0.05,0.05-0.02,0.77-0.02,0.73c-0.01,0.59-0.01,1.18-0.01,1.77c0,0.59,0,1.18,0.01,1.77
				C265.72,254.29,265.8,254.86,265.74,254.91L265.74,254.91z"/>
		</g>
	</g>
	<g>
		<g>
			<path class="st34" d="M267.19,262.9c2.96-1,5.4-3.27,8.05-4.87c2.77-1.67,5.67-3.09,8.68-4.28c0.16-0.06,0.03-2.26,0.03-2.5
				c0-0.23-0.16-2.45-0.03-2.5c-3.01,1.18-5.91,2.61-8.68,4.28c-2.65,1.6-5.09,3.86-8.05,4.87c-0.14,0.05-0.02,2.28-0.02,2.5
				C267.16,260.61,267.31,262.86,267.19,262.9L267.19,262.9z"/>
		</g>
	</g>
	<g>
		<g>
			<path class="st34" d="M280.7,244.99c0.19,1.33,0.38,2.65,0.56,3.98c-0.03-0.21,0.02-0.54,0.02-0.73
				c0.01-0.59,0.01-1.18,0.01-1.77c0-0.59,0-1.18-0.01-1.77c0-0.24,0.02-0.49-0.02-0.73c-0.19-1.33-0.38-2.65-0.56-3.98
				c0.03,0.21-0.02,0.54-0.02,0.73c-0.01,0.59-0.01,1.18-0.01,1.77c0,0.59,0,1.18,0.01,1.77
				C280.68,244.49,280.66,244.75,280.7,244.99L280.7,244.99z"/>
		</g>
	</g>
	<g>
		<g>
			<path class="st34" d="M613.05,256.78c-1.87-5.85-4.38-11.47-7.48-16.77c0.05,0.08-0.02,0.73-0.02,0.73
				c-0.01,0.59-0.01,1.18-0.01,1.77c0,0.59,0,1.18,0.01,1.77c0,0.18-0.07,0.59,0.02,0.73c3.1,5.3,5.61,10.92,7.48,16.77
				c-0.05-0.15,0.02-0.63,0.02-0.73c0.01-0.59,0.01-1.18,0.01-1.77c0-0.59,0-1.18-0.01-1.77
				C613.07,257.29,613.12,256.98,613.05,256.78L613.05,256.78z"/>
		</g>
	</g>
	<g>
		<g>
			<path class="st34" d="M598.26,260.9c2.46,1.38,4.92,2.74,7.37,4.14c1.86,1.06,3.8,2.32,4.6,4.41c-0.05-0.13,0.02-0.66,0.02-0.73
				c0.01-0.59,0.01-1.18,0.01-1.77c0-0.59,0-1.18-0.01-1.77c0-0.21,0.06-0.54-0.02-0.73c-0.79-2.09-2.73-3.35-4.6-4.41
				c-2.45-1.4-4.91-2.76-7.37-4.14c0.01,0.01-0.02,0.84-0.02,0.73c-0.01,0.59-0.01,1.18-0.01,1.77c0,0.59,0,1.18,0.01,1.77
				C598.24,260.27,598.19,260.86,598.26,260.9L598.26,260.9z"/>
		</g>
	</g>
	<g>
		<g>
			<path class="st34" d="M599.16,260.59c3.07-4.51,5.47-9.44,7.15-14.63c0.06-0.18,0.02-0.58,0.02-0.73
				c0.01-0.59,0.01-1.18,0.01-1.77c0-0.59,0-1.18-0.01-1.77c0-0.2-0.08-0.55-0.02-0.73c-1.67,5.19-4.08,10.12-7.15,14.63
				c-0.06,0.09-0.02,0.71-0.02,0.73c-0.01,0.59-0.01,1.18-0.01,1.77c0,0.59,0,1.18,0.01,1.77
				C599.15,260,599.23,260.48,599.16,260.59L599.16,260.59z"/>
		</g>
	</g>
	<g>
		<g>
			<path class="st35" d="M559.15,271.1c17.46,5.91,34.01,14.36,49.04,25.03c-0.06-0.04,0.06-2.48,0.05-2.2
				c0.02-1.77,0.02-3.54,0.02-5.3c0-1.77,0-3.54-0.02-5.3c0-0.33,0.16-2.04-0.05-2.2c-15.03-10.67-31.58-19.12-49.04-25.03
				c0.01,0-0.06,2.54-0.05,2.2c-0.02,1.77-0.02,3.54-0.02,5.3c0,1.77,0,3.54,0.02,5.3C559.1,269.16,559.01,271.05,559.15,271.1
				L559.15,271.1z"/>
		</g>
	</g>
	<g>
		<g>
			<path class="st35" d="M273.2,285.94c15.42-8.32,32.09-14.25,49.31-17.51c4.9-0.93,9.83-1.63,14.79-2.12
				c0.2-0.02,0.08-6.92,0.08-7.5c0-0.55-0.12-7.5-0.08-7.5c-17.43,1.74-34.57,6.16-50.66,13.11c-4.57,1.97-9.06,4.16-13.44,6.52
				c-0.12,0.06-0.06,2.45-0.05,2.2c-0.02,1.77-0.02,3.54-0.02,5.3c0,1.77,0,3.54,0.02,5.3C273.15,284,273.3,285.88,273.2,285.94
				L273.2,285.94z"/>
		</g>
	</g>
	<path class="st36" d="M332.74,469.58c11.02,13.17-62.81-25.32-76.5-79.68c-10.85-43.08,5.44-108.69,16.66-97.09
		C279.47,299.62,329.5,465.72,332.74,469.58z"/>
	<path class="st36" d="M547.16,464.68c-11.02,11.9,62.81-22.88,76.5-72c10.85-38.93-5.44-98.22-16.66-87.73
		C600.43,311.09,550.39,461.19,547.16,464.68z"/>
	<g>
		<g>
			<path d="M597.99,303.52c-6.73,29.15-14.18,58.16-22.67,86.85c-6.39,21.59-14.32,42.47-25.09,62.28
				c-10.41,19.16-23.09,37.09-38.03,52.98c-5.37,5.71-11.01,11.15-16.94,16.27c-2.27,1.96-4.58,3.87-6.93,5.73
				c-0.48,0.38-0.97,0.76-1.45,1.14c-0.69,0.54,0.26-0.19-0.29,0.22c-0.26,0.2-0.52,0.4-0.79,0.6c-0.88,0.67-1.77,1.34-2.66,1.99
				c-8.66,6.37-18.4,12.88-28.13,16.64c-2.85,1.1-5.74,1.95-8.75,2.48c-0.84,0.15,0.34-0.02-0.17,0.02
				c-0.27,0.02-0.54,0.06-0.82,0.08c-0.52,0.04-1.05,0.07-1.57,0.07c-0.44,0-0.87-0.01-1.31-0.05c-0.17-0.01-0.35-0.05-0.52-0.05
				c-0.22-0.01,0.79,0.14,0.07,0c-6.06-1.23-11.92-2.99-17.58-5.51c-6.03-2.69-11.79-5.93-17.42-9.35
				c-11.06-6.71-22.07-13.65-31.82-22.19c-15.33-13.44-27.75-29.83-37.51-47.67c-3.61-6.6-6.86-13.4-9.83-20.32
				c-0.14-0.32-0.27-0.64-0.41-0.96c-0.33-0.79,0.02,0.06-0.24-0.56c-0.29-0.7-0.59-1.4-0.88-2.11c-0.5-1.2-0.98-2.41-1.47-3.61
				c-0.83-2.05-1.64-4.1-2.52-6.13c-2.9-6.76-5.81-13.03-8.48-19.79c-3.63-9.2-6.91-18.54-9.82-28
				c-7.24-23.52-12.28-47.73-15.03-72.18c-0.78-6.9-1.37-13.81-1.8-20.74c-0.24-3.84-6.24-3.86-6,0
				c1.67,26.72,5.83,53.3,12.67,79.19c5.08,19.26,11.66,38.11,19.63,56.37c1.23,2.82,2.53,5.6,3.76,8.41
				c-0.42-0.97,0.12,0.29,0.26,0.64c0.19,0.46,0.38,0.92,0.56,1.38c0.44,1.1,0.88,2.19,1.33,3.29c2.52,6.23,5.17,12.41,8.1,18.46
				c8.45,17.43,19.19,33.83,32.48,47.97c8.18,8.7,17.34,16.49,27.27,23.11c11.49,7.66,23.31,15.39,36.06,20.79
				c5.56,2.36,11.39,4.37,17.38,5.32c2.36,0.38,4.65,0.26,7.01-0.1c7.61-1.15,14.88-4.79,21.5-8.56
				c13.77-7.84,26.51-17.86,37.99-28.76c14.6-13.86,27.38-29.64,38.24-46.58c12.58-19.61,22.64-40.92,30.13-62.97
				c4.33-12.73,7.96-25.7,11.54-38.66c4.04-14.63,7.88-29.31,11.5-44.05c1.79-7.27,3.52-14.55,5.2-21.84
				C604.64,301.35,598.86,299.75,597.99,303.52L597.99,303.52z"/>
		</g>
	</g>
	<g>
		<path class="st24" d="M470.03,420.97c-2.45-4.08-2.29-8.15-2.15-11.49c0.06-1.51,0.45-11.18,6.43-17.04
			c11.35-11.13,45.26-10.85,57.98,4.26c5.71,6.79,8.04,17.65,1.47,26.12c-9.05,11.66-28.78,10.84-33.57,10.64
			C497.52,433.35,476.81,432.27,470.03,420.97z"/>
		<path class="st37" d="M537.56,424.42c0.33-2.46,2.32-19.71-10.6-30.95c-15.91-13.84-44.96-10.32-55.95,2.91
			c-2.83,3.41-4.16,7.1-4.8,10.17"/>
		<circle class="st22" cx="496.49" cy="407.96" r="12.25"/>
		<circle class="st24" cx="502.19" cy="404.21" r="4.76"/>
		<path class="st24" d="M407.54,420.76c2.29-4.17,1.97-8.23,1.71-11.57c-0.12-1.5-0.88-11.15-7.08-16.78
			c-11.78-10.69-45.65-9.1-57.77,6.5c-5.45,7.01-7.35,17.94-0.46,26.15c9.49,11.3,29.17,9.73,33.95,9.34
			C380.55,434.19,401.19,432.31,407.54,420.76z"/>
		<circle class="st22" cx="380.6" cy="408.78" r="12.25"/>
		<circle class="st24" cx="386.75" cy="405.02" r="4.76"/>
		<path class="st3" d="M347.09,428.16c3.06,1.45,28.89,13.24,50.01,0.04c5.21-3.26,9.02-7.34,11.79-11.23"/>
		<path class="st38" d="M395.51,371.15c-23.84-0.29-45.75,4.02-64.72,15.25"/>
		<path class="st38" d="M477.53,369.55c23.82-1.21,45.87,2.25,65.26,12.74"/>
		<path class="st37" d="M339.4,425.46c-0.42-2.45-3.08-19.61,9.4-31.34c15.37-14.44,44.53-12.05,56.02,0.75
			c2.96,3.3,4.43,6.93,5.19,9.98"/>
		<path class="st3" d="M530.84,426.53c-3,1.57-28.36,14.34-49.97,1.96c-5.33-3.05-9.29-6.98-12.21-10.77"/>
	</g>
</g>
</svg>
