<?xml version="1.0" encoding="utf-8"?>
<!-- Generator: Adobe Illustrator 28.3.0, SVG Export Plug-In . SVG Version: 6.00 Build 0)  -->
<svg version="1.1" id="Layer_1" xmlns="http://www.w3.org/2000/svg" xmlns:xlink="http://www.w3.org/1999/xlink" x="0px" y="0px"
	 viewBox="0 0 875 1859" style="enable-background:new 0 0 875 1859;" xml:space="preserve">
<style type="text/css">
	.st0{fill:none;stroke:#000000;stroke-miterlimit:10;}
	.st1{fill:#8DA1A9;stroke:#000000;stroke-miterlimit:10;}
	.st2{fill:#FFE3CB;stroke:#000000;stroke-miterlimit:10;}
	.st3{fill:#8DA1A9;}
	.st4{fill:#FFB995;}
	.st5{fill:#332C26;}
	.st6{fill:#332C26;stroke:#000000;stroke-miterlimit:10;}
	.st7{fill:none;stroke:#FFB995;stroke-miterlimit:10;}
	.st8{stroke:#000000;stroke-miterlimit:10;}
	.st9{fill:#FF3858;}
	.st10{fill:#FFFFFF;stroke:#000000;stroke-miterlimit:10;}
	.st11{fill:#080D1D;stroke:#FFFFFF;stroke-miterlimit:10;}
	.st12{fill:none;stroke:#FFFFFF;stroke-miterlimit:10;}
	.st13{fill:#10495B;}
	.st14{fill:#322B13;}
	.st15{fill:#FFFFFF;}
	.st16{fill:#FFB995;stroke:#FFB995;stroke-miterlimit:10;}
	.st17{fill:#FFB995;stroke:#000000;stroke-width:0.5;stroke-miterlimit:10;}
	.st18{fill:#080D1D;}
	.st19{fill:#597590;}
	.st20{fill:#597590;stroke:#597590;stroke-miterlimit:10;}
	.st21{fill:#304D37;stroke:#000000;stroke-miterlimit:10;}
	.st22{stroke:#000000;stroke-width:5;stroke-miterlimit:10;}
	.st23{fill:#5B7077;stroke:#000000;stroke-miterlimit:10;}
	.st24{fill:none;stroke:#597590;stroke-width:3;stroke-miterlimit:10;}
	.st25{stroke:#000000;stroke-width:7;stroke-miterlimit:10;}
	.st26{fill:none;stroke:#000000;stroke-width:3;stroke-miterlimit:10;}
	.st27{font-family:'Liebling-Bold';}
	.st28{font-size:48px;}
	.st29{fill:none;stroke:#000000;stroke-width:4;stroke-miterlimit:10;}
	.st30{opacity:0.5;fill:#231F20;stroke:#000000;stroke-width:3;stroke-miterlimit:10;}
</style>
<path class="st0" d="M396.77,1242.64"/>
<path class="st1" d="M543.95,512.68c9.29-24.22,21.74-58.04,35.07-98.92c72.44-222.11,47.13-272.67,32.92-292.8
	c-9.58-13.57-20.81-22.82-30-29c-34.52-12.97-93.06-30.02-167-28c-69.85,1.91-124.7,20.07-158,34c-3.58,4-19.63,11.83-18.89,27.32
	c1.13,23.63-10.9,79.87,51.89,288.68c6.89,22.9,22.97,55.92,42.01,96.73"/>
<path class="st2" d="M494.09,377.33c2.63,23.55-6,13-8,90c-2.94,9.27-8.97,25.81-22,43c-10.02,13.22-18.65,24.6-30,25
	c-18.93,0.66-33.56-29.65-40-43c-13.52-28-6-64-11-106C404.14,360.09,451.78,353.43,494.09,377.33z"/>
<g>
	<path class="st3" d="M548.72,880.38c1.96-4.29,6.31-15.17,1.38-22.05c-3.4-4.74-9.72-5.52-11.98-5.8
		c-54.87-6.94-12.26-12.05-90.68-13.56c-40.48-0.78-83.06-0.96-118.58,18.47c-1.8,0.98-3.64,2.08-4.69,3.84
		c-0.89,1.49-1.1,3.28-1.28,5.02c-3.14,30.51-3.29,61.33-0.43,91.87c0.78,8.37,1.82,16.83,4.83,24.68
		c4.34,11.31,12.51,20.66,20.51,29.75c3.94,4.47,8.06,9.08,13.52,11.46c6.31,2.74,13.48,2.14,20.35,2.42
		c10.01,0.41,19.83,2.81,29.79,3.85c9.96,1.05,20.5,0.62,29.29-4.19c5.89-3.23,10.6-8.21,15.19-13.11
		c13.19-14.04,26.4-28.12,38.09-43.43c4.17-5.47,8.16-11.11,12.94-16.05c5.42-5.6,11.8-10.25,16.83-16.21
		c6.23-7.37,10.11-16.39,13.9-25.26c3.64-8.52,8.12-20.32,11.8-35.05"/>
</g>
<g>
	<path class="st4" d="M385.59,385.83c11.99-6.42,36.45-17.3,68.33-16.11c16.83,0.63,30.72,4.43,40.67,8.11c-2,15-4,30-6,45
		c0,0-23.03,18.75-36.31,22.96c-17.24,5.47-32.91,4.91-46.59,4.21c-8.43-0.43-15.37-1.39-20.1-2.18"/>
</g>
<path class="st5" d="M583.09,268.33c5.54-8.08,19.24-30.37,20-60.37c1.13-44.78-26.96-90.63-65.69-110.21
	C496.59,77.1,433.71,77.84,433.7,77.55c0-0.19,1.46-0.17,3.39-0.22c13.01-0.27,26.35-2.71,26.34-3.88c-0.01-1-9.82-2.1-41.34-3.12
	c-134.98,32.93-165.38,39.19-165.66,38.12c-0.55-2.13,123.85-10.31,124.17-10.24c0,0,0.16,0.04,0.35,0.09
	c0.04,0.01,0.09,0.02,0.14,0.04c-11.66-5.32-27.47-9.8-45-7c-37.09,5.91-68.24,42.16-77,91c1.39,26.89,8.7,77.86,47,115
	C382.76,371.69,532.93,341.5,583.09,268.33z"/>
<path class="st2" d="M281.09,259.33c-10.38,4.58-10.06,25.47-10,28c1.09,43.16,55.54,68.45,59,70c12.05,5.4,24.6,11.04,30,6
	c10.43-9.73-12.72-52.96-40-81C310.69,272.67,292.72,254.2,281.09,259.33z"/>
<path class="st2" d="M584.51,259.77c10.38,4.58,10.06,25.47,10,28c-1.09,43.16-55.54,68.45-59,70c-12.05,5.4-24.6,11.04-30,6
	c-10.43-9.73,12.72-52.96,40-81C554.91,273.11,572.88,254.64,584.51,259.77z"/>
<path class="st2" d="M307.09,244.33c3,48,28,110,28,110s9,45,99,83c15.38-5.65,63.48-25.54,97-78c21-54,31.35-104.69,30-121
	c-9.02-56.66-54.24-130.14-123-132C365.87,104.38,314.72,182.73,307.09,244.33z"/>
<path class="st6" d="M413.09,175.33c-7,66-29,96-29,96s56-29,45-39c1.76,1.49-14,45-32,55c4.73,6.17,28.68-0.81,44-13
	c43.35-34.5,25.69-117.12,23-129"/>
<path class="st6" d="M444.09,161.33c14.01,28.85,62.09,68.06,100.58,100.55c6.89,5.82-1.42,24.24-12.58,42.45
	c3.27,3.09,12.2-1.57,14.1-2.56c14.74-7.68,24.59-25.25,24.9-47.44"/>
<path class="st0" d="M307.09,294.21"/>
<path class="st5" d="M572.09,248.33c16.73-14.19-7.66-108.46-76-144c-65.01-33.81-154.86-6.63-191,51c-20.8,33.16-27.38,81.62-11,92
	c28.84,18.27,125.02-83.91,136.5-72.5c4.98,4.95-11.12,26.16-4.5,32.5c7.01,6.71,25.92-16.2,49.5-12.5c23.3,3.66,24.19,29.06,59,46
	C544.09,245.45,564.04,255.16,572.09,248.33z"/>
<g>
	<g>
		<path d="M413.47,174.47c0.78-3.65,1.16-7.39,1.13-11.12c-0.01-1.07-1.29-1.96-2.26-1.3c-3.41,2.35-6.52,5.1-9.24,8.23
			c-0.53,0.61-0.6,1.52,0,2.12c0.54,0.54,1.59,0.61,2.12,0c2.55-2.93,5.44-5.55,8.63-7.76c-0.75-0.43-1.5-0.86-2.26-1.3
			c0.04,3.47-0.3,6.93-1.02,10.33c-0.17,0.79,0.23,1.62,1.05,1.85C412.37,175.72,413.3,175.26,413.47,174.47L413.47,174.47z"/>
	</g>
</g>
<g>
	<path d="M470.54,191.43c-0.74,0.01-0.84-7.33-3.11-21.84c-1.42-9.13-2.97-16.61-4.1-21.68c2.72,4.55,6.13,11.49,7.76,20.42
		C473.29,180.33,471.45,191.42,470.54,191.43z"/>
	<g>
		<path d="M470.54,189.93c0.38,0.04,1.05,0.54,1.12,0.59c0.02,0.01,0.09,0.37,0.07,0.15c-0.02-0.19-0.1-0.39-0.14-0.58
			c-0.16-0.76-0.17-1.05-0.26-1.76c-0.28-2.33-0.51-4.67-0.79-7.01c-0.92-7.81-2.12-15.58-3.59-23.3
			c-0.67-3.51-1.39-7.02-2.17-10.51c-0.91,0.39-1.83,0.77-2.74,1.16c4.15,6.98,6.96,14.7,8.04,22.76c0.58,4.34,0.71,8.76,0.39,13.12
			c-0.1,1.42-0.25,2.85-0.53,4.25c-0.1,0.47-0.21,0.94-0.35,1.4c-0.1,0.32-0.1,0.12-0.06,0.19c-0.02,0.05-0.05,0.1-0.08,0.14
			c0.16-0.27,0.39-0.44,0.7-0.54c-1.9,0.33-1.09,3.23,0.8,2.89c1.53-0.27,1.81-2.79,2.02-3.96c0.52-3.01,0.68-6.08,0.67-9.12
			c-0.03-7.98-1.44-15.95-4.42-23.36c-1.29-3.21-2.82-6.31-4.58-9.28c-0.89-1.49-3.11-0.49-2.74,1.16
			c1.69,7.58,3.12,15.21,4.29,22.89c0.93,6.14,1.48,12.32,2.32,18.47c0.19,1.35,0.34,3.1,2.04,3.27
			C472.46,193.12,472.44,190.12,470.54,189.93z"/>
	</g>
</g>
<g>
	<g>
		<path d="M576.69,249.27c0-3.52,0-7.03,0-10.55c0-0.81-0.69-1.5-1.5-1.5c-0.81,0-1.5,0.69-1.5,1.5c0,3.52,0,7.03,0,10.55
			c0,0.81,0.69,1.5,1.5,1.5C576,250.77,576.69,250.09,576.69,249.27L576.69,249.27z"/>
	</g>
</g>
<g>
	<g>
		<path d="M345.9,94.49c9.05-0.66,18.17-0.34,27.14,1.02c1.89,0.29,2.7-2.6,0.8-2.89c-9.25-1.4-18.6-1.81-27.94-1.13
			C343.98,91.63,343.97,94.63,345.9,94.49L345.9,94.49z"/>
	</g>
</g>
<g>
	<g>
		<path d="M454.66,135.62c-1.68-3.47-4.81-6.12-8.44-7.34c-0.74-0.25-1.67,0.29-1.85,1.05c-0.19,0.83,0.25,1.58,1.05,1.85
			c0.2,0.07,0.4,0.14,0.59,0.21c0.16,0.06,0.2,0.06,0.01,0c0.1,0.03,0.22,0.09,0.31,0.14c0.38,0.18,0.76,0.37,1.12,0.58
			c0.35,0.2,0.68,0.42,1.01,0.66c0.08,0.06,0.15,0.11,0.23,0.17c0.31,0.23-0.24-0.2,0.06,0.05c0.16,0.13,0.32,0.27,0.48,0.41
			c0.3,0.27,0.59,0.55,0.86,0.84c0.14,0.15,0.28,0.31,0.42,0.47c0.06,0.07,0.12,0.15,0.18,0.22c0.04,0.05,0.3,0.33,0.05,0.06
			c0.55,0.59,0.96,1.43,1.31,2.15c0.34,0.71,1.41,0.95,2.05,0.54C454.85,137.21,455.03,136.38,454.66,135.62L454.66,135.62z"/>
	</g>
</g>
<g>
	<g>
		<path d="M536.84,135.33c8.24,14.54,15.54,29.59,21.83,45.07c0.72,1.77,3.62,0.99,2.89-0.8c-6.38-15.72-13.76-31.02-22.13-45.79
			C538.48,132.13,535.89,133.64,536.84,135.33L536.84,135.33z"/>
	</g>
</g>
<g>
	<g>
		<path d="M290.26,196c0.55-4.03,2.17-7.72,3.86-11.38c1.77-3.84,3.6-7.66,5.48-11.45c3.72-7.51,7.64-14.92,11.75-22.23
			c0.95-1.68-1.64-3.2-2.59-1.51c-4.19,7.44-8.18,15-11.97,22.66c-1.87,3.79-3.7,7.61-5.47,11.46c-1.72,3.74-3.4,7.55-3.96,11.67
			c-0.11,0.81,0.2,1.6,1.05,1.85C289.12,197.25,290.15,196.8,290.26,196L290.26,196z"/>
	</g>
</g>
<path class="st7" d="M283.09,273.33c-1.18,3.76-3.06,11.56-1,21c1.38,6.34,4.03,11.08,6,14"/>
<path class="st7" d="M584.2,272.16c1.18,3.76,3.06,11.56,1,21c-1.38,6.34-4.03,11.08-6,14"/>
<path class="st8" d="M483.09,367.33c-6.71-0.63-82.74,6.38-92,12c-12.7,7.71,18.49,41.69,47,41
	C471.46,419.53,498.35,368.75,483.09,367.33z"/>
<path class="st9" d="M484.09,385.33c-25.13-3.02-44.51-1.31-58,1c0,0-2.73,0.47-35,7l0,0c0,0,19,28,50,27
	C455.09,418.33,472.09,406.33,484.09,385.33z"/>
<path class="st10" d="M400.09,383.33c21.78-3.89,61.43-4.53,77-10c2.66-0.93,3.77-5.29,2-6c-4.41-1.76-84.92,9.09-85,11
	C394.07,378.95,393.72,384.47,400.09,383.33z"/>
<path class="st11" d="M384.09,1490.33c0,0-9.49,47.39-6,99c3.31,49.02,22.2,90.39,25,120c1.24,25.38,1.14,49.01-4,66
	c-8.09,5.12-31.96,18.74-64.52,16.43c-25.88-1.84-44.29-12.81-52.48-18.43c-1.56-6.42-3.46-16.11-4-28c-0.9-19.88,2.55-34.07,8-57
	c2.99-12.58,7.85-33.18,15-64c1.77-44.7,0.48-87.89-5-129C323.59,1501.31,353.23,1498.39,384.09,1490.33z"/>
<path class="st12" d="M389.09,1718.33c-26.14-29.43-87-20-97,1"/>
<path class="st12" d="M279.09,1756.33c40.99,18.4,81.99,18.89,123,1"/>
<path class="st11" d="M487.09,1490.33c1.48,21.25,2.61,43.26,3.28,66.01c0.56,18.83,0.78,37.17,0.72,54.99
	c-7.7,32.51-15.4,65.01-23.09,97.52c0,0-1.14,49.01,4,66c8.09,5.12,31.96,18.74,64.52,16.43c25.88-1.84,44.29-12.81,52.48-18.43
	c1.56-6.42,3.46-16.11,4-28c0.9-19.88-2.55-34.07-8-57c-2.99-12.58-7.85-33.18-15-64c-0.53-21.14-0.64-43.11-0.22-65.85
	c0.49-26.29,1.65-51.55,3.31-75.67c-6.46,4.51-20.66,13.14-40.83,15.28C510.82,1499.88,494.28,1493.58,487.09,1490.33z"/>
<path class="st12" d="M482,1717.85c26.14-29.43,87-20,97,1"/>
<path class="st12" d="M592,1755.85c-40.99,18.4-81.99,18.89-123,1"/>
<g>
	<path class="st13" d="M375.14,1631.5c2.36,16.01,5.38,31.92,9.07,47.67"/>
	<g>
		<path class="st14" d="M370.8,1632.7c2.36,16.01,5.39,31.91,9.07,47.67c0.54,2.29,3.29,3.87,5.54,3.14
			c2.4-0.78,3.72-3.08,3.14-5.54c-3.68-15.76-6.7-31.66-9.07-47.67c-0.35-2.34-3.42-3.83-5.54-3.14
			C371.39,1627.99,370.43,1630.2,370.8,1632.7L370.8,1632.7z"/>
	</g>
</g>
<g>
	<path class="st15" d="M561.22,1636.15c5.41,16.13,10.82,32.27,16.23,48.4"/>
	<g>
		<path class="st14" d="M556.88,1637.34c5.41,16.13,10.82,32.27,16.23,48.4c0.75,2.23,3.13,3.92,5.54,3.14
			c2.22-0.72,3.94-3.15,3.14-5.54c-5.41-16.13-10.82-32.27-16.23-48.4c-0.75-2.23-3.13-3.92-5.54-3.14
			C557.81,1632.52,556.08,1634.95,556.88,1637.34L556.88,1637.34z"/>
	</g>
</g>
<g>
	<path class="st15" d="M349.72,1710.81c6.8,2.25,13.24,5.54,19.04,9.73"/>
	<g>
		<path class="st14" d="M348.52,1715.15c0.86,0.29,1.72,0.59,2.57,0.91c0.43,0.16,0.85,0.32,1.27,0.49c0.21,0.08,1.63,0.65,0.5,0.19
			c1.58,0.64,3.12,1.39,4.63,2.17c3.13,1.61,6.14,3.46,9,5.52c1.92,1.38,5.09,0.4,6.16-1.61c1.23-2.33,0.43-4.68-1.61-6.16
			c-6.13-4.41-12.95-7.8-20.12-10.19c-2.24-0.74-5.02,0.86-5.54,3.14C344.81,1712.09,346.13,1714.35,348.52,1715.15L348.52,1715.15z
			"/>
	</g>
</g>
<g>
	<path class="st15" d="M537.59,1713.78c9.57,0.06,19.09,3.5,26.49,9.56"/>
	<g>
		<path class="st14" d="M537.59,1718.28c1.13,0.01,2.25,0.06,3.37,0.16c0.28,0.02,0.56,0.06,0.84,0.08c0.38,0.04,0.53,0.06,0.06,0
			c0.56,0.07,1.11,0.17,1.67,0.27c2.28,0.41,4.54,1.01,6.72,1.79c0.53,0.19,1.05,0.41,1.58,0.6c0.68,0.24-0.56-0.26,0.09,0.03
			c0.26,0.11,0.51,0.23,0.77,0.34c1.02,0.47,2.03,0.98,3.01,1.53c0.98,0.55,1.94,1.14,2.88,1.76c0.47,0.31,0.93,0.63,1.38,0.97
			c0.06,0.04,0.73,0.54,0.39,0.28c-0.37-0.29,0.56,0.45,0.54,0.43c1.83,1.48,4.6,1.92,6.36,0c1.51-1.64,1.95-4.78,0-6.36
			c-8.43-6.84-18.78-10.75-29.67-10.88c-2.35-0.03-4.61,2.09-4.5,4.5C533.2,1716.24,535.06,1718.25,537.59,1718.28L537.59,1718.28z"
			/>
	</g>
</g>
<line class="st16" x1="440.09" y1="289.33" x2="427.09" y2="297.33"/>
<line class="st16" x1="441.09" y1="294.33" x2="420.09" y2="307.33"/>
<line class="st16" x1="446.09" y1="297.33" x2="419.09" y2="314.33"/>
<line class="st16" x1="448.09" y1="303.33" x2="420.09" y2="320.33"/>
<line class="st16" x1="451.09" y1="307.33" x2="422.09" y2="324.33"/>
<path class="st17" d="M434.09,333.83c-0.17,4-0.33,8-0.5,12c-1.83-1.67-3.67-3.33-5.5-5"/>
<g>
	<g>
		<path class="st4" d="M340.02,323.12c-0.61,0.82-1.22,1.63-1.83,2.45c-0.11,0.17-0.17,0.36-0.18,0.56c-0.04,0.2-0.04,0.4,0.03,0.6
			c0.1,0.35,0.36,0.73,0.69,0.9c0.35,0.18,0.77,0.28,1.16,0.15c0.12-0.05,0.24-0.1,0.36-0.15c0.23-0.13,0.4-0.31,0.54-0.54
			c0.61-0.82,1.22-1.63,1.83-2.45c0.11-0.17,0.17-0.36,0.18-0.56c0.04-0.2,0.04-0.4-0.03-0.6c-0.1-0.35-0.36-0.73-0.69-0.9
			c-0.35-0.18-0.77-0.28-1.16-0.15c-0.12,0.05-0.24,0.1-0.36,0.15C340.34,322.72,340.16,322.9,340.02,323.12L340.02,323.12z"/>
	</g>
</g>
<g>
	<g>
		<path class="st4" d="M343.97,325.86c-0.2,0.31-0.41,0.61-0.61,0.92c-0.11,0.17-0.17,0.36-0.18,0.56c-0.04,0.2-0.04,0.4,0.03,0.6
			c0.05,0.2,0.14,0.37,0.27,0.51c0.11,0.16,0.25,0.29,0.42,0.39c0.12,0.05,0.24,0.1,0.36,0.15c0.27,0.07,0.53,0.07,0.8,0
			c0.12-0.05,0.24-0.1,0.36-0.15c0.23-0.13,0.4-0.31,0.54-0.54c0.2-0.31,0.41-0.61,0.61-0.92c0.11-0.17,0.17-0.36,0.18-0.56
			c0.04-0.2,0.04-0.4-0.03-0.6c-0.05-0.2-0.14-0.37-0.27-0.51c-0.11-0.16-0.25-0.29-0.42-0.39c-0.12-0.05-0.24-0.1-0.36-0.15
			c-0.27-0.07-0.53-0.07-0.8,0c-0.12,0.05-0.24,0.1-0.36,0.15C344.28,325.45,344.11,325.63,343.97,325.86L343.97,325.86z"/>
	</g>
</g>
<g>
	<g>
		<path class="st4" d="M513.46,325.71c0,0.51,0,1.02,0,1.53c-0.01,0.21,0.04,0.4,0.13,0.58c0.06,0.19,0.16,0.35,0.31,0.48
			c0.14,0.15,0.3,0.25,0.48,0.31c0.18,0.09,0.37,0.14,0.58,0.13c0.13-0.02,0.27-0.04,0.4-0.05c0.25-0.07,0.47-0.2,0.66-0.39
			c0.27-0.29,0.44-0.65,0.44-1.06c0-0.51,0-1.02,0-1.53c0.01-0.21-0.04-0.4-0.13-0.58c-0.06-0.19-0.16-0.35-0.31-0.48
			c-0.14-0.15-0.3-0.25-0.48-0.31c-0.18-0.09-0.37-0.14-0.58-0.13c-0.13,0.02-0.27,0.04-0.4,0.05c-0.25,0.07-0.47,0.2-0.66,0.39
			C513.63,324.94,513.46,325.3,513.46,325.71L513.46,325.71z"/>
	</g>
</g>
<g>
	<g>
		<path class="st4" d="M518.01,324.52c0.01,0.01,0.02,0.03,0.04,0.04c-0.08-0.1-0.16-0.2-0.23-0.3c0.24,0.32,0.44,0.66,0.6,1.03
			c-0.05-0.12-0.1-0.24-0.15-0.36c0.17,0.4,0.28,0.82,0.34,1.26c-0.02-0.13-0.04-0.27-0.05-0.4c0.05,0.38,0.05,0.76,0.01,1.13
			c-0.04,0.36,0.2,0.82,0.44,1.06c0.26,0.26,0.69,0.46,1.06,0.44c0.39-0.02,0.79-0.14,1.06-0.44c0.08-0.1,0.16-0.2,0.23-0.3
			c0.14-0.23,0.2-0.49,0.2-0.76c0.08-0.75,0-1.53-0.21-2.25c-0.12-0.4-0.28-0.8-0.47-1.18c-0.2-0.4-0.47-0.74-0.74-1.09
			c-0.22-0.28-0.72-0.44-1.06-0.44c-0.37,0-0.81,0.16-1.06,0.44c-0.26,0.29-0.46,0.66-0.44,1.06c0.02,0.13,0.04,0.27,0.05,0.4
			C517.7,324.11,517.83,324.33,518.01,324.52L518.01,324.52z"/>
	</g>
</g>
<path class="st6" d="M419.09,178.33c-12.82,8.94-94,84-101,114c-2,5,9.6,31.37,11,31c0.08-0.02,0.11-0.11,0.12-0.15
	c0.66-2.62-54.89-18.44-44.12-91.85"/>
<path class="st18" d="M220.09,907.33c-9.32-22.98-46.89-35.47-58-25c-6.56,6.18-0.38,17.04,7.5,51.5
	c14.68,64.16,7.8,94.41,28.5,104.5c1.9,0.93,10.53,5.13,16.5,1.5c13.15-8-7.14-41.56,0.5-91.5
	C218.62,925.23,224.95,919.3,220.09,907.33z"/>
<path class="st11" d="M214.09,1047.33c0,0,27,14,33,14c1.71-1.44,2.01-4.02,1.86-6.32c0,0,0.03-2.36-0.86-4.68c-1.55-4-13-9-13-9
	c-7.72-3.34-10.71-3.63-13-7c-1.45-2.13-2-6-2-6"/>
<path class="st11" d="M158.59,885.83c0.73,21.69-10.53,95.94-14,96c0,0,20.29,46.84,28,71l71,19c0.47-2,0.59-3.84,0.5-5.5
	c-0.9-16.92-24.34-26.9-27-28"/>
<path class="st11" d="M220.09,919.33c4,29-1,61-1,61c1.23,15.69,2.5,31.33,8,41c-1.73,6.5-7.11,7.99-15,6
	c-6.77-5.51-11.2-22.27-15-42c0,0-19.21-9.78-19.43-9.37c-0.02,0.04,0.12,0.16,0.43,0.37"/>
<path class="st12" d="M173.09,987.33c7.12,15,13.28,30,18,45"/>
<path class="st18" d="M647.1,919.68c9.32-22.98,46.89-35.47,58-25c6.56,6.18,0.38,17.04-7.5,51.5c-14.68,64.16-7.8,94.41-28.5,104.5
	c-1.9,0.93-10.53,5.13-16.5,1.5c-13.15-8,7.14-41.56-0.5-91.5C648.57,937.58,642.25,931.65,647.1,919.68z"/>
<path class="st11" d="M653.1,1059.68c0,0-27,14-33,14c-1.71-1.44-2.01-4.02-1.86-6.32c0,0-0.03-2.36,0.86-4.68c1.55-4,13-9,13-9
	c7.72-3.34,10.71-3.63,13-7c1.45-2.13,2-6,2-6"/>
<path class="st11" d="M708.6,898.18c-0.73,21.69,10.53,95.94,14,96c0,0-20.29,46.84-28,71l-71,19c-0.47-2-0.59-3.84-0.5-5.5
	c0.9-16.92,24.34-26.9,27-28"/>
<path class="st11" d="M647.1,931.68c-4,29,1,61,1,61c-1.23,15.69-2.5,31.33-8,41c1.73,6.5,7.11,7.99,15,6
	c6.77-5.51,11.2-22.27,15-42c0,0,19.21-9.78,19.43-9.37c0.02,0.04-0.12,0.16-0.43,0.37"/>
<path class="st11" d="M694.1,999.68c-7.12,15-13.28,30-18,45"/>
<path class="st1" d="M487.95,465.68c40.48,9.2,80.96,18.4,121.43,27.6c7.75,21.46,10.98,43.27,13.71,65.05
	c13.88,110.47,61.48,208.21,82,297c11.61,29.33,19.3,58.66,18,88c-25.1,45.84-57.16,44.47-91,31c-29-130.67-58-261.33-87-392"/>
<path class="st1" d="M386.95,466.68c-35.62,7.55-71.24,15.1-106.85,22.66c-7.82,24.9-15.49,50.24-23,76
	c-17.62,60.47-33.2,119.53-47,177c-13.65,31.92-27.04,66.91-39.39,104.86c-8.34,25.65-15.49,50.42-21.61,74.14
	c3.41,6.84,14.91,27.7,40,39c15.21,6.85,29.12,7.34,37,7c36.33-132,72.67-264,109-396"/>
<g>
	<path class="st3" d="M304.25,523.33c16.27,41.26,6.31,236-3.15,301c-0.77,3.51,2.1,23,2.1,23s10.62,14.81,13.66,17
		c33.41,4.86,71.9,8.47,114.56,9c48.7,0.61,92.23-2.93,129.28-8c4.37-4.47,6.95-8.99,8.41-12c3.3,0.2-8.07-33.01-11.56-60
		c-1.45-11.19,7.87-18.13,8.41-22c1.55-11.2-0.33-36.69-0.61-86.55c-0.1-17.52-4-41.89-3.8-77.96c0.12-21.67,1.52-53.06,8.61-91.49"
		/>
	<path d="M304.36,523.29c4.28,11.9,5.31,24.64,6.53,37.13c4.96,75.4,0.69,151.18-5.43,226.39c-1.17,12.54-2.46,25.07-4.24,37.54
		c-0.39,3.81,0.28,7.69,0.62,11.5c0.37,3.76,1.02,7.88,1.47,11.42c2.12,2.95,4.29,5.88,6.5,8.77c2.18,2.8,4.53,5.95,7.07,8.22
		c40.34,5.85,81.11,8.97,121.88,8.86c40.59-0.06,81.96-2.87,121.84-7.9c3.51-3.45,6.25-7.77,8.53-12c0.35,0.02,0.43-0.55,0.46-0.94
		c-0.4-6.65-2.61-13.09-4.03-19.58c-1.71-6.93-3.39-13.86-4.87-20.84c-1.11-5.24-2.1-10.5-2.88-15.79
		c-1.14-5.3-0.33-10.9,2.52-15.53c1.6-3.15,4.41-5.71,5.49-9.09c0.87-7.06,0.6-14.24,0.55-21.35c-0.54-20.71-0.97-43.58-1.13-64.19
		c-0.02-7.13-0.56-14.25-1.1-21.36c-4.7-49.73-3.36-100.08,5.92-149.22c0,0,0.23,0.04,0.23,0.04
		c-9.28,49.12-10.61,99.45-5.91,149.16c1.81,21.33,0.99,42.78,1.77,64.17c0.16,7.64,0.63,24.73,0.53,32.1
		c-0.04,3.57-0.13,7.14-0.61,10.69c-0.17,0.92-0.65,1.7-1.11,2.47c-1.44,2.25-3.1,4.36-4.41,6.7c-2.85,4.62-3.61,10.11-2.49,15.38
		c0.77,5.29,1.77,10.55,2.87,15.78c2.19,10.47,4.94,20.82,7.37,31.24c0.6,3.26,1.82,6.6,1.41,9.94c-0.06,0.22-0.28,0.51-0.59,0.48
		l0.11-0.07c-2.13,4.43-4.97,8.53-8.4,12.06c-40.36,5.97-81.26,8.62-122.07,8.21c-40.78-0.39-81.53-3.4-121.9-9.24
		c-2.81-2.36-4.91-5.42-7.21-8.26c-2.23-2.9-4.45-5.82-6.56-8.81c-0.92-6.69-1.89-13.38-2.21-20.13c-0.04-0.95-0.04-1.97,0.11-2.91
		c1.79-12.46,3.08-24.99,4.24-37.53c6.12-75.2,10.39-150.97,5.43-226.35c-1.22-12.47-2.25-25.21-6.52-37.07
		C304.14,523.38,304.36,523.29,304.36,523.29L304.36,523.29z"/>
</g>
<path class="st3" d="M372.09,523.33c-3.57-10.65-16.34-15.55-26-14c-16.11,2.59-27.13,23.73-21,35c6,11.04,28.53,12.72,40,2
	C370.33,541.44,375.08,532.26,372.09,523.33z"/>
<path class="st3" d="M559.56,514.72c-3.39-11.02-17.16-16.07-26.97-15.89c-22.05,0.42-41.46,27.71-36,40
	c5.67,12.76,40.77,15.35,55.97-1.11C553.43,536.78,563.05,526.05,559.56,514.72z"/>
<path class="st1" d="M553.09,865.33c4.6,14.24,9.07,29.14,13.31,44.68c5.8,21.27,10.65,41.76,14.69,61.32
	c-2.61,33.57-1.84,88.24-4,155.5c-8.23,255.9,26.72,395.77,13.84,448.12c-4.65,18.9-44.42,24.68-107,8
	c-3.96-152.12-15.8-311.25-37.84-476.37c-3.47-25.98-7.14-51.74-11-77.25c-17.67-0.67-35.33-1.33-53-2"/>
<path class="st1" d="M321.09,864.33c-9,35.33-18,70.67-27,106c2.21,33.83,1.01,88.39,3.22,155.42
	c8.91,269.79-25.38,413.19-7.38,457.19c12.93,12.56,42.18,20.52,99,2c2.39-41.87,4.77-83.74,7.16-125.62
	c6.93-103.95,15.81-210.12,26.88-318.39c3.84-37.52,7.88-74.72,12.12-111.61c21.34-0.84,32.01-1.51,32-2c-0.01-0.74-24.68-1.08-74-1
	"/>
<g>
	<path class="st19" d="M345.37,921.6c-0.95,11.6-1.9,23.2-2.86,34.79c-0.13,1.56-0.27,3.16-0.92,4.59
		c-1.24,2.72-3.46,4.14-4.01,4.51c-3.49,2.39-16.83,15.24-37.5,35.85"/>
	<g>
		<path class="st19" d="M343.87,921.6c-0.73,8.95-1.47,17.89-2.2,26.84c-0.18,2.24-0.37,4.47-0.55,6.71
			c-0.16,1.96-0.19,4.02-1.18,5.78c-0.9,1.61-2.25,2.6-3.68,3.68c-2.43,1.84-4.66,3.96-6.89,6.04c-3.92,3.65-7.76,7.37-11.59,11.11
			c-6.29,6.13-12.52,12.32-18.74,18.52c-1.37,1.36,0.75,3.49,2.12,2.12c9.75-9.72,19.5-19.48,29.55-28.89
			c2.33-2.18,4.66-4.42,7.18-6.39c-0.32,0.25,0.13-0.1,0.25-0.18c0.2-0.14,0.4-0.27,0.6-0.41c1.08-0.77,2.05-1.64,2.87-2.69
			c2.55-3.28,2.42-7.46,2.75-11.41c0.84-10.27,1.69-20.54,2.53-30.82C347.03,919.67,344.03,919.68,343.87,921.6L343.87,921.6z"/>
	</g>
</g>
<g>
	<path class="st19" d="M522.73,912.64c-0.05,8.17-0.09,16.34-0.14,24.51c-0.01,1.35,0.03,2.82,0.88,3.86
		c0.69,0.84,1.77,1.22,2.79,1.57c12.15,4.1,24.29,8.21,36.44,12.31"/>
	<g>
		<path class="st19" d="M521.23,912.64c-0.03,4.82-0.05,9.64-0.08,14.46c-0.01,2.45-0.03,4.9-0.04,7.35
			c-0.01,1.94-0.28,4.15,0.39,6.02c0.68,1.88,2.24,2.79,4.03,3.43c2.31,0.83,4.65,1.57,6.97,2.36c4.65,1.57,9.31,3.14,13.96,4.72
			c5.28,1.79,10.57,3.57,15.85,5.36c1.83,0.62,2.62-2.28,0.8-2.89c-8.76-2.96-17.51-5.92-26.26-8.87c-2.13-0.72-4.26-1.44-6.39-2.16
			c-1.1-0.37-2.21-0.75-3.31-1.12c-0.77-0.26-1.76-0.48-2.36-1.08c-1.21-1.2-0.68-3.99-0.67-5.52c0.01-2.21,0.03-4.41,0.04-6.62
			c0.03-5.15,0.06-10.3,0.09-15.44C524.24,910.71,521.24,910.71,521.23,912.64L521.23,912.64z"/>
	</g>
</g>
<path class="st20" d="M312.09,1039.33c-2.46,55.32,2.87,127.32,16,216"/>
<path class="st20" d="M331.09,1324.33c-6.28,42.67-9.62,85.33-10,128"/>
<g>
	<path class="st19" d="M556.09,1046.33c-0.67,92.67-1.33,185.33-2,278"/>
	<path class="st19" d="M556.15,1046.33c-0.03,90.33-0.87,187.61-2,278c0,0-0.11,0-0.11,0
		C554.32,1233.99,554.56,1136.39,556.15,1046.33L556.15,1046.33z"/>
</g>
<path class="st20" d="M560.09,1364.33c-3.38,36.31-6.95,69.93-11,97c-11.19,15.69-26.03,22.69-42,27"/>
<g>
	<path d="M551.53,785.57c-1.65,11.3-7.11,21.24-13.52,30.45c-2.22,3-4.56,5.93-7.48,8.55l-0.88-0.47c2.36-13.31,10.8-30.01,21-39
		C550.65,785.1,551.53,785.57,551.53,785.57L551.53,785.57z"/>
</g>
<g>
	<path class="st19" d="M357.09,569.33c16.06,82.14,33.1,158.71,53,219"/>
	<path class="st19" d="M357.21,569.31c14.04,69,28.48,138.06,48.81,205.53c1.35,4.5,2.79,8.97,4.18,13.45l-0.22,0.07
		c-11.99-35.63-21.5-72.05-30.01-108.65C371.8,643.21,363.38,605.77,357.21,569.31L357.21,569.31z"/>
</g>
<g>
	<path class="st19" d="M335.09,797.33c24.28,33.45,56.92,50.17,92,62"/>
	<path class="st19" d="M335.19,797.26c21.57,29.21,51.72,47.18,85.32,59.54c0,0,6.63,2.41,6.63,2.41l-0.08,0.23l-6.7-2.23
		c-24.43-8.38-48.1-20.51-66.89-38.47c-6.85-6.48-13.02-13.67-18.47-21.34L335.19,797.26L335.19,797.26z"/>
</g>
<line class="st20" x1="497.09" y1="583.33" x2="456.09" y2="687.33"/>
<path class="st0" d="M491.09,455.33"/>
<path class="st0" d="M491.09,446.33"/>
<path class="st0" d="M495.09,445.33"/>
<path class="st21" d="M532.09,438.33"/>
<g>
	<path class="st19" d="M539.81,766.04c-14.62,6.33-29.77,11.44-45.24,15.26c3.1,8.59,4.71,17.72,4.75,26.85"/>
	<g>
		<path class="st19" d="M539.06,764.75c-14.51,6.26-29.54,11.3-44.88,15.11c-0.74,0.18-1.32,1.09-1.05,1.85
			c3.04,8.5,4.63,17.42,4.7,26.45c0.01,1.93,3.01,1.93,3,0c-0.07-9.28-1.68-18.51-4.81-27.25c-0.35,0.62-0.7,1.23-1.05,1.85
			c15.6-3.87,30.84-9.05,45.6-15.41C542.34,766.57,540.81,763.99,539.06,764.75L539.06,764.75z"/>
	</g>
</g>
<g>
	<path class="st19" d="M467.57,708.82c9.99,0,19.97,0,29.96,0"/>
	<g>
		<path class="st19" d="M467.57,710.32c9.99,0,19.97,0,29.96,0c1.93,0,1.93-3,0-3c-9.99,0-19.97,0-29.96,0
			C465.64,707.32,465.63,710.32,467.57,710.32L467.57,710.32z"/>
	</g>
</g>
<g>
	<path class="st19" d="M302.78,543.13c-7.78,28.37-12.88,57.47-15.22,86.79"/>
	<g>
		<path class="st19" d="M301.34,542.73c-6.08,22.23-10.53,44.88-13.32,67.76c-0.79,6.46-1.44,12.94-1.96,19.43
			c-0.15,1.92,2.85,1.91,3,0c1.83-22.78,5.32-45.42,10.45-67.69c1.44-6.27,3.02-12.5,4.72-18.7
			C304.74,541.66,301.85,540.87,301.34,542.73L301.34,542.73z"/>
	</g>
</g>
<g>
	<path class="st19" d="M219.89,750.36c-0.09,2.37,0.64,4.68,1.37,6.93c2.78,8.64,5.56,17.28,8.35,25.92"/>
	<g>
		<path class="st19" d="M218.39,750.36c-0.04,2.79,0.81,5.41,1.65,8.04c0.91,2.83,1.82,5.65,2.73,8.48
			c1.8,5.58,3.59,11.15,5.39,16.73c0.59,1.83,3.49,1.05,2.89-0.8c-1.75-5.42-3.49-10.84-5.24-16.26c-0.86-2.67-1.72-5.34-2.58-8.01
			c-0.86-2.66-1.89-5.35-1.85-8.18C221.42,748.43,218.42,748.43,218.39,750.36L218.39,750.36z"/>
	</g>
</g>
<g>
	<path class="st19" d="M687.59,866.15c-14.49,12.7-29.32,25.83-38.15,42.95c-0.34,0.66-0.66,1.52-0.18,2.1
		c0.32,0.39,0.88,0.47,1.38,0.52c1.55,0.15,3.1,0.31,4.66,0.46"/>
	<g>
		<path class="st19" d="M686.53,865.09c-13.71,12.02-27.77,24.41-36.87,40.46c-0.99,1.75-3.15,4.58-1.58,6.56
			c0.7,0.88,1.74,1.02,2.79,1.13c1.47,0.15,2.95,0.29,4.42,0.43c1.92,0.19,1.91-2.81,0-3c-1.09-0.11-2.17-0.21-3.26-0.32
			c-0.36-0.04-1.22,0.06-1.5-0.16c0,0,0.31-0.56,0.5-0.9c0.95-1.81,1.98-3.58,3.06-5.32c2.14-3.41,4.5-6.67,7.05-9.79
			c5.17-6.32,10.99-12.08,16.99-17.6c3.46-3.18,6.99-6.28,10.52-9.37C690.11,865.94,687.98,863.82,686.53,865.09L686.53,865.09z"/>
	</g>
</g>
<g>
	<path class="st19" d="M598.17,517.75c-8.04,8.9-15.93,17.94-23.65,27.12"/>
	<g>
		<path class="st19" d="M597.11,516.69c-8.04,8.9-15.93,17.94-23.65,27.12c-1.24,1.47,0.88,3.6,2.12,2.12
			c7.72-9.18,15.6-18.22,23.65-27.12C600.53,517.38,598.41,515.26,597.11,516.69L597.11,516.69z"/>
	</g>
</g>
<g>
	<path class="st19" d="M227.87,803.87c-0.2,5.81,0.51,11.65,2.12,17.24c0.32,1.12,0.72,2.29,1.63,3.02
		c0.79,0.63,1.83,0.81,2.83,0.95c3.7,0.51,7.44,0.67,11.17,0.48"/>
	<g>
		<path class="st19" d="M226.37,803.87c-0.1,3.32,0.08,6.63,0.54,9.93c0.42,3.03,0.94,6.27,2.11,9.11c0.49,1.19,1.23,2.26,2.4,2.87
			c1.3,0.68,2.83,0.79,4.26,0.96c3.3,0.39,6.62,0.48,9.93,0.32c1.92-0.09,1.93-3.09,0-3c-2.9,0.14-5.81,0.09-8.7-0.19
			c-1.21-0.12-2.58-0.15-3.73-0.58c-1.07-0.4-1.41-1.41-1.71-2.43c-1.63-5.51-2.29-11.27-2.11-17
			C229.43,801.94,226.43,801.94,226.37,803.87L226.37,803.87z"/>
	</g>
</g>
<path class="st3" d="M291.43,320.45c-0.71-11.77-2.6-64.17,35-105c43.5-47.24,120.39-57.85,177-23c44.97,27.69,70.52,79.98,67,135
	c10.49-21.09,31.72-71.06,25.09-135.99c-4.84-47.38-22.46-82.63-34.09-102.01c-26.1-10.62-61.01-21.31-103-25
	c-94.49-8.29-168.36,23.89-203,42c-1.69,28.76-1.28,65.49,5.61,107.36C268.19,257.19,280.17,293.2,291.43,320.45z"/>
<path class="st22" d="M487.95,467.68c11.67,2.67,23.33,5.33,35,8c-11.67,19-23.33,38-35,57c-16.12,19.24-39.13,22.57-66,17
	c-16.03-0.62-30.02-9.73-43-23c-12.59-10.62-21.9-29.55-31-49c12.33-3,27-8,37-9c1.96,14.23,6.69,28.69,22,44
	c3.9,1.62,29.25,11.68,52-1c1.94-1.08,10.72-6.15,18.21-16.54C485.04,484.18,487.23,473.24,487.95,467.68z"/>
<rect x="342.95" y="849.68" class="st3" width="200" height="35"/>
<path class="st3" d="M322.95,487.68c-4.18-2.8-7.09-8.99-5-13c2.53-4.84,11.42-4.69,17-2c3.79,1.83,8.77,6.13,8,10
	C341.9,487.98,330.08,492.44,322.95,487.68z"/>
<g>
	<path d="M550.09,504.02c-16.55,13.03-32.66,26.63-48.28,40.77"/>
</g>
<g>
	<path class="st19" d="M340.86,513.26c4.25,6.88,9.5,13.15,15.53,18.53"/>
	<g>
		<path class="st19" d="M339.56,514.02c4.33,6.99,9.64,13.35,15.77,18.84c1.43,1.28,3.56-0.83,2.12-2.12
			c-5.95-5.32-11.1-11.44-15.3-18.23C341.14,510.87,338.54,512.37,339.56,514.02L339.56,514.02z"/>
	</g>
</g>
<path class="st3" d="M526.17,484.17h30v-8c-8.67-1-17.33-2-26-3C528.83,476.83,527.5,480.5,526.17,484.17z"/>
<path class="st3" d="M268.43,147.45c4-0.59,12.27,3.88,12.77,9.13c0.12,1.2-0.1,2.49-0.77,3.87c-39.97,82.53,43.81,234.33,49,235
	c0.24,0.03,2.59,0.32,2.58,0.57c-0.03,0.65-15.83,0.74-19.58,0.43c-30.47-2.53-61.47-97.85-58-191
	C254.73,197.46,256.79,149.15,268.43,147.45z"/>
<path class="st3" d="M586.43,117.45c-11.2-2.95-28.06,11.87-28,12c0.02,0.05,2.75-0.72,5-3c0,0,1.3-1.32,4.26-7.55l0,0
	c0,0,0,0.01,0,0.01c0.32,0.85-6.99,6.42-9.26,5.54c-3.51-1.37,30.61,2.81,32,66c0.58,26.49,1.32,59.8-17,124
	c0,0-17.85,82.29-40.93,85.6c-0.29,0.04-2.59,0.34-2.58,0.57c0.04,0.87,27.12,0.38,29.58-0.57c30.44-11.67,39.97-80.34,44.54-124.25
	C609.29,225.41,612.2,124.23,586.43,117.45z"/>
<path class="st3" d="M586.43,122.45c-8.38-2.54-16.3,4.18-23,8c-6.4,3.65,26.08,26.11,27,74c0.07,3.59,6.79,2.51,10,1
	C616.33,197.95,611.22,129.96,586.43,122.45z"/>
<path class="st23" d="M479.93,438.95c-22.32,24.48-73.81,24.93-94,2c-32.47-36.89,17.25-132.94,51-132
	C469.19,309.85,515.33,400.12,479.93,438.95z"/>
<path class="st3" d="M478.93,553.95c34.08-16.12,66.76-54.68,58-80c-16.29-47.06-178.25-55.32-200-9c-11.48,24.46,14.99,66.54,48,86
	C428.72,576.76,473.45,556.54,478.93,553.95z"/>
<path class="st20" d="M351.93,441.95c-22.04-0.49-39.38-16.25-57.5-29.5"/>
<path class="st20" d="M512.7,442.03c22.04-0.49,39.38-16.25,57.5-29.5"/>
<path class="st20" d="M249.93,113.95c16.11,1.01,42.92,0.5,73-11c18.54-7.09,32.86-16.26,43-24"/>
<path class="st20" d="M479.93,85.95c15.7-2.26,51.34-5.05,88,14c14.24,7.4,25.1,16.26,33,24"/>
<path class="st24" d="M272.43,161.45c25.09-15.91,68.59-38.75,127-47c91.46-12.91,162.91,17.96,191,32"/>
<path class="st25" d="M609.93,960.95c-11.74-5.89-28.53,4.91-29,7c-4.84,21.72-1.98,80.5-1,92c0.99,11.63,22.2-0.59,23-1
	C633.04,1043.49,632.4,972.22,609.93,960.95z"/>
<path class="st1" d="M307.93,455.95c-17.78,12.48-31.91,29.65-42,52c20.32,15.79,84.94,61.85,180,63.7
	c94.06,1.83,159.9-40.75,181-55.7c-3.28-22.05-34.4-40.75-61-60"/>
<path class="st20" d="M574.93,537.95c-1.52-13.41-56.96-26-100-9c-24.51,9.68-54.75,32.82-51.95,39c0.25,0.56,0.72,0.86,0.95,1
	C435.11,575.88,577.42,559.85,574.93,537.95z"/>
<path class="st20" d="M554.93,462.95c-14.63,16.94-40.75,22.95-70,26c0,0,16.52,8.28,48,10"/>
<path class="st20" d="M311.93,466.95c16.48,15.11,39.82,27.46,80,33"/>
<g>
	<g>
		<path d="M481.81,456.76c7.45,15.22,20.18,26.79,32.1,38.46c2.87,2.81,5.7,5.65,8.42,8.6c1.31,1.42,2.59,2.86,3.83,4.34
			c0.62,0.74,1.23,1.48,1.83,2.23c1.21,1.5,0.08,0.11-0.13-0.17c0.43,0.58,0.86,1.15,1.27,1.73c2.49,3.47,4.72,7.11,6.69,10.89
			c0.95,1.82,1.82,3.68,2.68,5.55c0.18,0.39,0.78,1.86-0.01-0.08c0.17,0.41,0.33,0.82,0.5,1.23c0.49,1.23,0.96,2.47,1.4,3.71
			c1.44,4.03,2.63,8.15,3.6,12.32c0.47,2.02,0.89,4.05,1.26,6.09c0.19,1.02,0.36,2.05,0.52,3.07c0.09,0.59,0.17,1.18,0.26,1.76
			c-0.15-0.93-0.16-1.29-0.02-0.14c1.05,8.98,1.27,18.01,0.73,27.03c-0.14,2.37-0.33,4.73-0.56,7.09c-0.12,1.18-0.24,2.36-0.38,3.53
			c-0.08,0.67-0.16,1.34-0.24,2.02c-0.1,0.79-0.19,1.35-0.03,0.23c-0.74,5.03-1.59,10.04-2.61,15.03c-2,9.83-4.51,19.55-7.22,29.2
			c-5.38,19.17-11.68,38.13-14.85,57.83c-3.34,20.75-4.08,41.71-3.77,62.69c0.28,19.48,0.33,39.28,2.81,58.62
			c1.27,9.94,3.08,19.79,6.59,29.2c3.48,9.33,8.23,17.91,13.77,26.17c5.07,7.57,10.52,14.9,15.28,22.68
			c2.43,3.98,4.7,8.06,6.81,12.22c0.98,1.94,1.93,3.9,2.85,5.88c0.46,0.99,0.9,1.98,1.34,2.98c0.19,0.43,0.37,0.85,0.56,1.28
			c1.19,2.73-0.41-1.11,0.21,0.5c3.32,8.58,6.31,17.2,8.48,26.15c1.06,4.38,1.96,8.8,2.7,13.25c0.18,1.07,0.34,2.15,0.5,3.23
			c0.31,2.06,0.06,0.39,0.01-0.02c0.08,0.62,0.16,1.23,0.23,1.85c0.28,2.32,0.51,4.64,0.7,6.96c0.36,4.5,0.55,9,0.58,13.51
			c0.04,5.49,4.8,10.76,10.5,10.5c5.66-0.25,10.54-4.61,10.5-10.5c-0.27-38.29-12.19-75.83-33.74-107.44
			c-5.23-7.66-10.76-15.14-15.39-23.19c-1.1-1.9-2.14-3.83-3.11-5.8c-0.56-1.13-1.09-2.27-1.61-3.43c-0.05-0.1-0.64-1.56-0.22-0.51
			c0.48,1.19-0.45-1.18-0.53-1.41c-1.69-4.45-3.02-9.03-4.07-13.67c-0.49-2.17-0.93-4.36-1.31-6.55c-0.19-1.1-0.37-2.2-0.53-3.31
			c-0.07-0.47-0.14-0.95-0.21-1.42c0.31,2.11-0.01-0.12-0.06-0.54c-0.58-4.78-0.97-9.59-1.25-14.4c-0.58-9.75-0.81-19.53-1.09-29.29
			c-0.57-20.37-0.74-40.81,1.45-61.1c0.15-1.37,0.31-2.74,0.48-4.11c0.01-0.07,0.22-1.76,0.08-0.65c-0.16,1.22,0.13-0.9,0.17-1.16
			c0.37-2.56,0.78-5.11,1.24-7.66c0.91-5.03,2.01-10.03,3.24-14.99c2.41-9.74,5.3-19.34,8.11-28.97
			c11.06-37.86,20.42-77.94,10.8-117.17c-4.42-18.01-13.02-34.38-25.37-48.19c-5.45-6.09-11.42-11.66-17.26-17.37
			c-2.95-2.89-5.87-5.81-8.67-8.85c-1.29-1.41-2.56-2.84-3.79-4.3c-0.61-0.73-1.2-1.48-1.8-2.21c1.58,1.9-0.44-0.6-0.81-1.12
			c-2.39-3.32-4.5-6.81-6.29-10.48c-2.42-4.95-9.84-6.68-14.37-3.77C480.51,445.66,479.22,451.47,481.81,456.76L481.81,456.76z"/>
	</g>
</g>
<g>
	<circle class="st3" cx="436.43" cy="422.45" r="61"/>
	<path d="M380.31,422.45c-2,32.21,23.05,61.29,56.12,60.43c23.57-0.13,45.7-16.05,52.94-38.5c14.47-45.15-28.57-85.72-72.63-69.46
		C396.79,381.84,381.18,400.84,380.31,422.45L380.31,422.45z M370.55,422.45c-2.04-37.44,27.5-71.46,65.88-70.87
		c38.08,0.16,69.06,32.84,66.38,70.87c-1.42,25.48-18.76,48.75-42.59,57.45C420.22,495.27,372.22,466.23,370.55,422.45
		L370.55,422.45z"/>
</g>
<circle class="st8" cx="436.93" cy="425.95" r="6"/>
<line class="st0" x1="402.89" y1="390.9" x2="423.98" y2="412"/>
<line class="st0" x1="420.43" y1="425.95" x2="385.43" y2="425.95"/>
<line class="st0" x1="437.93" y1="409.45" x2="437.93" y2="381.45"/>
<line class="st0" x1="437.93" y1="472.45" x2="437.93" y2="444.45"/>
<line class="st0" x1="403.05" y1="461.37" x2="424.15" y2="440.28"/>
<line class="st0" x1="451.05" y1="437.3" x2="472.15" y2="458.39"/>
<line class="st0" x1="451.05" y1="413.39" x2="472.15" y2="392.3"/>
<line class="st0" x1="489.43" y1="425.95" x2="454.43" y2="425.95"/>
<path class="st26" d="M502.93,409.95c-15.58-57.16-44.29-102.06-66-101c-23.35,1.15-59.15,44.42-66,99c-14.29-2.11-33.36-7.49-49-22
	c-41.67-38.66-37.99-122.61,4-170c50.68-57.2,152.54-55.91,205-1c48.59,50.86,50.74,143.46,9,179
	C528.36,403.8,514.79,408.1,502.93,409.95z"/>
<path class="st26" d="M499.93,422.95c-6.37-68.67-40.25-116.7-63-114c-25.77,3.06-63.87,47.6-64,112
	c-18.82-1.82-41.86-7.69-60.44-24.37c-49.33-44.3-46.83-146.61,8.44-202.63c60.6-61.43,172.51-54.86,228,9
	c52.04,59.9,48.39,163.2-1.44,202.25C532.4,417.03,514.93,421.49,499.93,422.95z"/>
<text transform="matrix(1 0 0 1 424.6311 607.2288)" class="st15 st27 st28"> תמר</text>
<text transform="matrix(1 0 0 1 387.2366 646.8787)" class="st15 st27 st28"> C ןוגימ</text>
<g>
	<path class="st15" d="M462.37,309.78c-2.37-4.12-2.13-8.19-1.93-11.53c0.09-1.51,0.66-11.17,6.75-16.91
		c11.57-10.91,45.46-9.98,57.88,5.38c5.58,6.9,7.7,17.8,0.96,26.14c-9.27,11.48-28.98,10.29-33.77,9.99
		C489.62,322.69,468.94,321.21,462.37,309.78z"/>
	<path class="st29" d="M529.83,314.53c0.37-2.46,2.7-19.66-10-31.15c-15.64-14.15-44.75-11.19-56,1.83c-2.9,3.36-4.3,7.02-5,10.08"
		/>
	<circle class="st8" cx="489.08" cy="297.28" r="12.25"/>
	<circle class="st15" cx="494.86" cy="293.65" r="4.76"/>
	<path class="st15" d="M399.9,308.37c2.37-4.12,2.13-8.19,1.93-11.53c-0.09-1.51-0.66-11.17-6.75-16.91
		c-11.57-10.91-45.46-9.98-57.88,5.38c-5.58,6.9-7.7,17.8-0.96,26.14c9.27,11.48,28.98,10.29,33.77,9.99
		C372.65,321.28,393.33,319.8,399.9,308.37z"/>
	<circle class="st8" cx="373.2" cy="295.87" r="12.25"/>
	<circle class="st15" cx="379.42" cy="292.23" r="4.76"/>
	<path class="st0" d="M339.32,314.6c3.03,1.51,28.63,13.79,50,1c5.27-3.15,9.16-7.16,12-11"/>
	<path class="st26" d="M388.83,258.53c-23.83-0.75-45.82,3.13-65,14"/>
	<path class="st26" d="M470.87,258.52c23.83-0.75,45.82,3.13,65,14"/>
	<path class="st29" d="M331.69,311.75c-0.37-2.46-2.7-19.66,10-31.15c15.64-14.15,44.75-11.19,56,1.83c2.9,3.36,4.3,7.02,5,10.08"/>
	<path class="st0" d="M523.07,316.52c-3.03,1.51-28.63,13.79-50,1c-5.27-3.15-9.16-7.16-12-11"/>
</g>
<path class="st30" d="M502.35,409.65c-15.58-57.16-44.29-102.06-66-101c-23.35,1.15-59.15,44.42-66,99c-13.84-2.06-33.07-7.35-49-22
	C279.78,347.42,283,266.01,321.6,219.3c49.31-59.68,155.11-61.24,209-5c48.5,50.62,50.73,143.67,8.75,179.35
	C527.9,403.38,514.44,407.75,502.35,409.65z"/>
</svg>
