<?xml version="1.0" encoding="utf-8"?>
<!-- Generator: Adobe Illustrator 28.3.0, SVG Export Plug-In . SVG Version: 6.00 Build 0)  -->
<svg version="1.1" id="Layer_1" xmlns="http://www.w3.org/2000/svg" xmlns:xlink="http://www.w3.org/1999/xlink" x="0px" y="0px"
	 viewBox="0 0 875 1859" style="enable-background:new 0 0 875 1859;" xml:space="preserve">
<style type="text/css">
	.st0{fill:#E1B350;}
	.st1{stroke:#000000;stroke-miterlimit:10;}
	.st2{fill:#F0FCFB;stroke:#000000;stroke-miterlimit:10;}
	.st3{fill:none;stroke:#000000;stroke-miterlimit:10;}
	.st4{fill:#C4C9D6;stroke:#000000;stroke-miterlimit:10;}
	.st5{fill:#3E505C;stroke:#000000;stroke-miterlimit:10;}
	.st6{fill:#8C9099;stroke:#000000;stroke-miterlimit:10;}
	.st7{fill:none;stroke:#000000;stroke-width:9;stroke-miterlimit:10;}
	.st8{fill:#B53A3E;stroke:#000000;stroke-miterlimit:10;}
	.st9{fill:#FFE3CB;stroke:#000000;stroke-miterlimit:10;}
	.st10{fill:#B53A3E;}
	.st11{fill:#FFB995;}
	.st12{fill:#332C26;}
	.st13{fill:#332C26;stroke:#000000;stroke-miterlimit:10;}
	.st14{fill:none;stroke:#FFB995;stroke-miterlimit:10;}
	.st15{fill:#080D1D;stroke:#FFFFFF;stroke-miterlimit:10;}
	.st16{fill:none;stroke:#FFFFFF;stroke-miterlimit:10;}
	.st17{fill:#FFFFFF;}
	.st18{fill:#503039;}
	.st19{fill:#FFB995;stroke:#FFB995;stroke-miterlimit:10;}
	.st20{fill:#FFB995;stroke:#000000;stroke-width:0.5;stroke-miterlimit:10;}
	.st21{fill:#080D1D;}
	.st22{fill:#841D33;}
	.st23{fill:#841D33;stroke:#841D33;stroke-miterlimit:10;}
	.st24{fill:none;stroke:#000000;stroke-width:5;stroke-miterlimit:10;}
	.st25{stroke:#000000;stroke-width:5;stroke-miterlimit:10;}
	.st26{fill:none;stroke:#000000;stroke-width:4;stroke-miterlimit:10;}
	.st27{fill:none;stroke:#000000;stroke-width:3;stroke-miterlimit:10;}
	.st28{fill:#FFFFFF;stroke:#000000;stroke-miterlimit:10;}
	.st29{font-family:'Liebling-Bold';}
	.st30{font-size:48px;}
	.st31{opacity:0.38;stroke:#000000;stroke-width:5;stroke-miterlimit:10;}
</style>
<g>
	<path class="st0" d="M199.14,749.84c-0.45,153.83,31.55,186.86,42.95,197.15c6.13,5.54,34.94,31.55,77.05,31.85
		c43.77,0.31,73.84-27.35,79.89-32.91c15.3-14.08,40.09-44.46,42.11-194.09c1.74-129,1.7-197.3-45.35-233.59
		c-33.2-25.61-73.65-26.41-73.65-26.41c-29.76-0.59-53.88,10.33-66.13,18.04C199.74,545.28,199.48,635.1,199.14,749.84z"/>
</g>
<path class="st1" d="M202.45,857.57c2.46,13.94,7.2,32.3,16.78,52.3c7.32,15.28,15.58,27.57,22.91,36.97
	c10.69,8.09,35.83,24.8,71.71,27.76c10.78,0.89,39.34,3.25,66.29-11.76c53.07-29.56,54.86-101.42,54.9-105.82
	C363.23,845.48,284.99,847.11,202.45,857.57z M363.14,963.84h-82c-7.6-8.11-20.56-24.09-28-48c-8.55-27.47-5.29-50.88-3-62
	c18.87-1.6,38.73-2.76,59.52-3.29c29.25-0.74,56.82-0.16,82.48,1.29C396.02,888,398.58,924.27,363.14,963.84z"/>
<path class="st2" d="M362.14,963.84h-82c-7.6-8.11-20.56-24.09-28-48c-8.55-27.47-5.29-50.88-3-62c18.87-1.6,38.73-2.76,59.52-3.29
	c29.25-0.74,56.82-0.16,82.48,1.29C395.02,888,397.58,924.27,362.14,963.84z"/>
<path class="st3" d="M362.14,963.84h-82c-7.6-8.11-20.56-24.09-28-48c-8.55-27.47-5.29-50.88-3-62c18.87-1.6,38.73-2.76,59.52-3.29
	c29.25-0.74,56.82-0.16,82.48,1.29C395.02,888,397.58,924.27,362.14,963.84z"/>
<path class="st4" d="M434.04,857.02c-71.81-11.54-150.05-9.91-232.59,0.55c-5.58-36.99-1.39-75.37-4.31-112.73
	c25.7-9.58,67.87-21.76,121-21.35c53.32,0.41,95.43,13.33,121,23.35C441.05,788.75,439.13,825.86,434.04,857.02z"/>
<rect x="120.14" y="649.84" class="st5" width="335" height="41"/>
<path class="st4" d="M308.14,1038.84h33c3.03-34.01,10.03-59.01,21-75c-27.33,0-54.67,0-82,0
	C289.47,988.84,314.14,1009.84,308.14,1038.84z"/>
<path class="st6" d="M301.14,1027.84h51c-3.7-9.54-2.67-21.8,0-35c-18.33,0-36.67,0-55,0
	C302.59,1004.51,306.52,1016.19,301.14,1027.84z"/>
<ellipse class="st5" cx="325.14" cy="1038.84" rx="45" ry="13"/>
<path class="st3" d="M362.14,963.84h-82c-7.6-8.11-20.56-24.09-28-48c-8.55-27.47-5.29-50.88-3-62c18.87-1.6,38.73-2.76,59.52-3.29
	c29.25-0.74,56.82-0.16,82.48,1.29C395.02,888,397.58,924.27,362.14,963.84z"/>
<polyline class="st7" points="301.14,929.84 299.14,871.84 340.14,923.84 343.14,863.84 "/>
<path class="st3" d="M420.96,1284.8"/>
<path class="st8" d="M568.14,554.84c12.56-30.76,24.43-63.74,35.07-98.92C644.99,317.81,654.15,191,651.14,88.84
	c-44.08-14.16-109.19-29.68-189-30c-82.27-0.33-149.25,15.63-194,30c-6.55,68.58-7.71,167.65,20.21,281.71
	c18.07,73.83,43.7,135.03,67.79,182.29"/>
<path class="st9" d="M518.29,419.49c2.63,23.55-6,13-8,90c-2.94,9.27-8.97,25.81-22,43c-10.02,13.22-18.65,24.6-30,25
	c-18.93,0.66-33.56-29.65-40-43c-13.52-28-6-64-11-106C428.33,402.25,475.97,395.59,518.29,419.49z"/>
<g>
	<path class="st10" d="M572.91,922.54c1.96-4.29,6.31-15.17,1.38-22.05c-3.4-4.74-9.72-5.52-11.98-5.8
		c-54.87-6.94-12.26-12.05-90.68-13.56c-40.48-0.78-83.06-0.96-118.58,18.47c-1.8,0.98-3.64,2.08-4.69,3.84
		c-0.89,1.49-1.1,3.28-1.28,5.02c-3.14,30.51-3.29,61.33-0.43,91.87c0.78,8.37,1.82,16.83,4.83,24.68
		c4.34,11.31,12.51,20.66,20.51,29.75c3.94,4.47,8.06,9.08,13.52,11.46c6.31,2.74,13.48,2.14,20.35,2.42
		c10.01,0.41,19.83,2.81,29.79,3.85c9.96,1.05,20.5,0.62,29.29-4.19c5.89-3.23,10.6-8.21,15.19-13.11
		c13.19-14.04,26.4-28.12,38.09-43.43c4.17-5.47,8.16-11.11,12.94-16.05c5.42-5.6,11.8-10.25,16.83-16.21
		c6.23-7.37,10.11-16.39,13.9-25.26c3.64-8.52,8.12-20.32,11.8-35.05"/>
	<g>
		<path d="M574.21,923.3c3.94-8.68,7.14-21.68-2.99-27.49c-3.89-2.23-8.32-2.52-12.66-3.11c-4.1-0.56-8.19-1.19-12.26-1.96
			c-4.58-0.87-9.17-1.91-13.54-3.56c-0.33-0.13-0.66-0.25-0.99-0.39c-0.14-0.06-0.28-0.11-0.43-0.17c-0.12-0.05-0.76-0.32-0.29-0.12
			c-0.58-0.25-1.16-0.5-1.75-0.76c-1.22-0.54-2.44-1.07-3.69-1.53c-3.54-1.3-7.27-1.92-11-2.4c-7.97-1.03-16.04-1.36-24.07-1.66
			c-13.33-0.5-26.68-0.77-40.02-0.77c-13.44,0-26.9,0.41-40.26,1.93c-13.19,1.51-26.3,4.08-38.84,8.51
			c-6.18,2.18-12.21,4.79-17.99,7.87c-2.68,1.43-5.54,2.96-6.81,5.88c-1.35,3.1-1.27,6.98-1.57,10.3
			c-2.76,30.22-2.8,60.94,0.57,91.11c0.8,7.14,1.98,14.32,4.65,21.03c2.48,6.22,6.04,11.89,10.1,17.19
			c4,5.24,8.35,10.24,12.79,15.11c4.45,4.88,9.49,9.18,16.09,10.68c6.7,1.52,13.68,0.79,20.48,1.38c7.41,0.64,14.71,2.15,22.08,3.14
			c13.3,1.78,27.41,1.47,38.53-6.98c5.36-4.08,9.84-9.2,14.43-14.1c5.08-5.42,10.14-10.85,15.09-16.38
			c4.85-5.41,9.6-10.9,14.16-16.55c4.53-5.6,8.69-11.48,13.22-17.07c4.41-5.43,9.54-9.99,14.69-14.68
			c5.01-4.56,9.41-9.51,12.89-15.36c3.45-5.8,6.1-12.04,8.72-18.25c2.13-5.03,4.1-10.13,5.88-15.29c2.19-6.34,4.09-12.78,5.72-19.29
			c0.47-1.87-2.42-2.67-2.89-0.8c-2.95,11.75-6.79,23.27-11.53,34.42c-2.56,6.01-5.14,12.06-8.49,17.69
			c-3.43,5.77-7.79,10.56-12.74,15.05c-5,4.53-9.95,8.96-14.22,14.21c-4.4,5.39-8.41,11.09-12.77,16.51
			c-9,11.2-18.73,21.79-28.55,32.28c-4.53,4.84-8.94,9.96-14.08,14.19c-5.06,4.16-10.95,6.68-17.39,7.72
			c-13.82,2.23-27.61-1.94-41.29-3.33c-6.72-0.68-13.64,0.07-20.28-1.23c-6.51-1.27-11.26-5.32-15.61-10.09
			c-8.69-9.54-17.93-19.75-22.51-32.02c-2.47-6.6-3.56-13.6-4.29-20.58c-0.77-7.32-1.31-14.66-1.7-22.01
			c-0.79-14.82-0.88-29.68-0.26-44.51c0.31-7.41,0.79-14.82,1.45-22.21c0.16-1.81,0.33-3.61,0.51-5.42c0.16-1.62,0.24-3.4,0.98-4.89
			c1.32-2.65,4.91-4,7.4-5.26c11.45-5.84,23.79-9.75,36.36-12.3c25.61-5.19,51.97-4.86,77.98-4.36c11.19,0.22,22.39,0.47,33.56,1.25
			c5.36,0.38,10.43,0.76,15.58,1.92c1.44,0.32,2.86,0.72,4.25,1.22c0.59,0.21,1.17,0.44,1.75,0.68c0.37,0.15-0.29-0.13,0.08,0.03
			c0.14,0.06,0.29,0.12,0.43,0.19c0.27,0.12,0.53,0.23,0.8,0.35c2.92,1.28,5.85,2.44,8.92,3.31c6.08,1.72,12.35,2.74,18.6,3.65
			c4.16,0.6,8.37,0.73,12.31,2.15c2.36,0.85,4.57,2.31,5.91,4.46c1.34,2.15,1.74,4.68,1.67,7.18c-0.13,4.42-1.62,8.78-3.43,12.77
			C570.82,923.53,573.41,925.06,574.21,923.3L574.21,923.3z"/>
	</g>
</g>
<g>
	<path class="st11" d="M409.79,427.99c11.99-6.42,36.45-17.3,68.33-16.11c16.83,0.63,30.72,4.43,40.67,8.11c-2,15-4,30-6,45
		c0,0-23.03,18.75-36.31,22.96c-17.24,5.47-32.91,4.91-46.59,4.21c-8.43-0.43-15.37-1.39-20.1-2.18"/>
</g>
<path class="st12" d="M607.29,310.49c5.54-8.08,19.24-30.37,20-60.38c1.13-44.78-26.96-90.63-65.69-110.21
	C520.79,119.26,457.9,120,457.9,119.71c0-0.19,1.61-0.08,3.39-0.22c15.26-1.18,28.81-19.65,26.35-23.16
	c-1.46-2.09-9.83-0.61-41.35,16.16c-124.97-3.61-166.47,11.64-169.65,15.84c-1.1,1.46,127.82,11.95,128.15,12.03
	c0,0,0.16,0.04,0.35,0.09c0.04,0.01,0.09,0.02,0.14,0.04c-11.66-5.32-27.47-9.8-45-7c-37.09,5.91-68.24,42.16-77,91
	c1.39,26.89,8.7,77.86,47,115C406.96,413.85,557.13,383.66,607.29,310.49z"/>
<path class="st9" d="M305.29,301.49c-10.38,4.58-10.06,25.47-10,28c1.09,43.16,55.54,68.45,59,70c12.05,5.4,24.6,11.04,30,6
	c10.43-9.73-12.72-52.96-40-81C334.89,314.84,316.92,296.37,305.29,301.49z"/>
<path class="st9" d="M608.71,301.93c10.38,4.58,10.06,25.47,10,28c-1.09,43.16-55.54,68.45-59,70c-12.05,5.4-24.6,11.04-30,6
	c-10.43-9.73,12.72-52.96,40-81C579.11,315.27,597.08,296.8,608.71,301.93z"/>
<path class="st9" d="M331.29,286.49c3,48,28,110,28,110s9,45,99,83c15.38-5.65,63.48-25.54,97-78c21-54,31.35-104.69,30-121
	c-9.02-56.66-54.24-130.14-123-132C390.06,146.54,338.92,224.89,331.29,286.49z"/>
<path class="st13" d="M437.29,217.49c-7,66-29,96-29,96s56-29,45-39c1.76,1.49-14,45-32,55c4.73,6.17,28.68-0.81,44-13
	c43.35-34.5,25.69-117.12,23-129"/>
<path class="st13" d="M468.29,203.49c14.01,28.85,62.09,68.06,100.58,100.55c6.89,5.82-1.42,24.24-12.58,42.45
	c3.27,3.09,12.2-1.57,14.1-2.56c14.74-7.68,24.59-25.25,24.9-47.44"/>
<path class="st3" d="M331.29,336.38"/>
<path class="st12" d="M596.29,290.49c16.73-14.19-7.66-108.46-76-144c-65.01-33.81-154.86-6.63-191,51
	c-20.8,33.16-27.38,81.62-11,92c28.84,18.27,125.02-83.91,136.5-72.5c4.98,4.95-11.12,26.16-4.5,32.5
	c7.01,6.71,25.92-16.2,49.5-12.5c23.3,3.66,24.19,29.06,59,46C568.29,287.62,588.24,297.32,596.29,290.49z"/>
<g>
	<g>
		<path d="M437.67,216.63c0.78-3.65,1.16-7.39,1.13-11.12c-0.01-1.07-1.29-1.96-2.26-1.3c-3.41,2.35-6.52,5.1-9.24,8.23
			c-0.53,0.61-0.6,1.52,0,2.12c0.54,0.54,1.59,0.61,2.12,0c2.55-2.93,5.44-5.55,8.63-7.76c-0.75-0.43-1.5-0.86-2.26-1.3
			c0.04,3.47-0.3,6.93-1.02,10.33c-0.17,0.79,0.23,1.62,1.05,1.85C436.57,217.88,437.5,217.42,437.67,216.63L437.67,216.63z"/>
	</g>
</g>
<g>
	<path d="M494.73,233.59c-0.74,0.01-0.84-7.33-3.11-21.84c-1.42-9.13-2.97-16.61-4.1-21.68c2.72,4.55,6.13,11.49,7.76,20.42
		C497.48,222.5,495.64,233.58,494.73,233.59z"/>
	<g>
		<path d="M494.73,232.09c0.38,0.04,1.05,0.54,1.12,0.59c0.02,0.01,0.09,0.37,0.07,0.15c-0.02-0.19-0.1-0.39-0.14-0.58
			c-0.16-0.76-0.17-1.05-0.26-1.76c-0.28-2.33-0.51-4.67-0.79-7.01c-0.92-7.81-2.12-15.58-3.59-23.3
			c-0.67-3.51-1.39-7.02-2.17-10.51c-0.91,0.39-1.83,0.77-2.74,1.16c4.15,6.98,6.96,14.7,8.04,22.76c0.58,4.34,0.71,8.76,0.39,13.12
			c-0.1,1.42-0.25,2.85-0.53,4.25c-0.1,0.47-0.21,0.94-0.35,1.4c-0.1,0.32-0.1,0.12-0.06,0.19c-0.02,0.05-0.05,0.1-0.08,0.14
			c0.16-0.27,0.39-0.44,0.7-0.54c-1.9,0.33-1.09,3.23,0.8,2.89c1.53-0.27,1.81-2.79,2.02-3.96c0.52-3.01,0.68-6.08,0.67-9.12
			c-0.02-7.98-1.44-15.95-4.42-23.36c-1.29-3.21-2.82-6.31-4.58-9.28c-0.89-1.49-3.11-0.49-2.74,1.16
			c1.69,7.58,3.12,15.21,4.29,22.89c0.93,6.14,1.48,12.32,2.32,18.47c0.19,1.35,0.34,3.1,2.04,3.27
			C496.65,235.28,496.64,232.28,494.73,232.09z"/>
	</g>
</g>
<g>
	<g>
		<path d="M600.89,291.43c0-3.52,0-7.03,0-10.55c0-0.81-0.69-1.5-1.5-1.5c-0.81,0-1.5,0.69-1.5,1.5c0,3.52,0,7.03,0,10.55
			c0,0.81,0.69,1.5,1.5,1.5C600.2,292.93,600.89,292.25,600.89,291.43L600.89,291.43z"/>
	</g>
</g>
<g>
	<g>
		<path d="M370.1,136.65c9.05-0.66,18.17-0.34,27.14,1.02c1.89,0.29,2.7-2.6,0.8-2.89c-9.25-1.4-18.6-1.81-27.94-1.13
			C368.18,133.79,368.17,136.79,370.1,136.65L370.1,136.65z"/>
	</g>
</g>
<g>
	<g>
		<path d="M478.86,177.78c-1.68-3.47-4.81-6.12-8.44-7.34c-0.74-0.25-1.67,0.29-1.85,1.05c-0.19,0.83,0.25,1.58,1.05,1.85
			c0.2,0.07,0.4,0.14,0.59,0.21c0.16,0.06,0.2,0.06,0.01,0c0.1,0.03,0.22,0.09,0.31,0.14c0.38,0.18,0.76,0.37,1.12,0.58
			c0.35,0.2,0.68,0.42,1.01,0.66c0.08,0.06,0.15,0.11,0.23,0.17c0.31,0.23-0.24-0.2,0.06,0.05c0.16,0.13,0.32,0.27,0.48,0.41
			c0.3,0.27,0.59,0.55,0.86,0.84c0.14,0.15,0.28,0.31,0.42,0.47c0.06,0.07,0.12,0.15,0.18,0.22c0.04,0.05,0.3,0.33,0.05,0.06
			c0.55,0.59,0.96,1.43,1.31,2.15c0.34,0.71,1.41,0.95,2.05,0.54C479.04,179.37,479.22,178.54,478.86,177.78L478.86,177.78z"/>
	</g>
</g>
<g>
	<g>
		<path d="M561.04,177.49c8.24,14.54,15.54,29.59,21.83,45.07c0.72,1.77,3.62,0.99,2.89-0.8c-6.38-15.72-13.76-31.02-22.13-45.79
			C562.68,174.29,560.08,175.8,561.04,177.49L561.04,177.49z"/>
	</g>
</g>
<g>
	<g>
		<path d="M314.46,238.16c0.55-4.03,2.17-7.72,3.86-11.38c1.77-3.84,3.6-7.66,5.48-11.45c3.72-7.51,7.64-14.92,11.75-22.23
			c0.95-1.68-1.64-3.2-2.59-1.51c-4.19,7.44-8.18,15-11.97,22.66c-1.87,3.79-3.7,7.61-5.47,11.46c-1.72,3.74-3.4,7.55-3.96,11.67
			c-0.11,0.81,0.2,1.6,1.05,1.85C313.31,239.41,314.35,238.96,314.46,238.16L314.46,238.16z"/>
	</g>
</g>
<path class="st14" d="M307.29,315.49c-1.18,3.76-3.06,11.56-1,21c1.38,6.34,4.03,11.08,6,14"/>
<path class="st14" d="M608.39,314.32c1.18,3.76,3.06,11.56,1,21c-1.38,6.34-4.03,11.08-6,14"/>
<path class="st15" d="M408.29,1532.49c0,0-9.49,47.39-6,99c3.31,49.02,22.2,90.39,25,120c1.24,25.38,1.14,49.01-4,66
	c-8.09,5.12-31.96,18.74-64.52,16.43c-25.88-1.84-44.29-12.81-52.48-18.43c-1.56-6.42-3.46-16.11-4-28c-0.9-19.88,2.55-34.07,8-57
	c2.99-12.58,7.85-33.18,15-64c1.77-44.7,0.48-87.89-5-129C347.79,1543.47,377.43,1540.55,408.29,1532.49z"/>
<path class="st16" d="M413.29,1760.49c-26.14-29.43-87-20-97,1"/>
<path class="st16" d="M303.29,1798.49c40.99,18.4,81.99,18.89,123,1"/>
<path class="st15" d="M511.29,1532.49c1.48,21.25,2.61,43.26,3.28,66.01c0.56,18.83,0.78,37.17,0.72,54.99
	c-7.7,32.51-15.4,65.01-23.09,97.52c0,0-1.14,49.01,4,66c8.09,5.12,31.96,18.74,64.52,16.43c25.88-1.84,44.29-12.81,52.48-18.43
	c1.56-6.42,3.46-16.11,4-28c0.9-19.88-2.55-34.07-8-57c-2.99-12.58-7.85-33.18-15-64c-0.53-21.14-0.64-43.11-0.22-65.85
	c0.49-26.29,1.65-51.55,3.31-75.67c-6.46,4.51-20.66,13.14-40.83,15.28C535.01,1542.04,518.48,1535.74,511.29,1532.49z"/>
<path class="st16" d="M506.19,1760.01c26.14-29.43,87-20,97,1"/>
<path class="st16" d="M616.19,1798.01c-40.99,18.4-81.99,18.89-123,1"/>
<g>
	<path class="st17" d="M399.33,1673.67c2.36,16.01,5.38,31.92,9.07,47.67"/>
	<g>
		<path class="st18" d="M394.99,1674.86c2.36,16.01,5.39,31.91,9.07,47.67c0.54,2.29,3.29,3.87,5.54,3.14
			c2.4-0.78,3.72-3.08,3.14-5.54c-3.68-15.76-6.7-31.66-9.07-47.67c-0.35-2.34-3.42-3.83-5.54-3.14
			C395.58,1670.15,394.62,1672.36,394.99,1674.86L394.99,1674.86z"/>
	</g>
</g>
<g>
	<path class="st17" d="M585.42,1678.31c5.41,16.13,10.82,32.27,16.23,48.4"/>
	<g>
		<path class="st18" d="M581.08,1679.5c5.41,16.13,10.82,32.27,16.23,48.4c0.75,2.23,3.13,3.92,5.54,3.14
			c2.22-0.72,3.94-3.15,3.14-5.54c-5.41-16.13-10.82-32.27-16.23-48.4c-0.75-2.23-3.13-3.92-5.54-3.14
			C582.01,1674.68,580.28,1677.11,581.08,1679.5L581.08,1679.5z"/>
	</g>
</g>
<g>
	<path class="st17" d="M373.91,1752.97c6.8,2.25,13.24,5.54,19.04,9.73"/>
	<g>
		<path class="st18" d="M372.72,1757.31c0.86,0.29,1.72,0.59,2.57,0.91c0.43,0.16,0.85,0.32,1.27,0.49c0.21,0.08,1.63,0.65,0.5,0.19
			c1.58,0.64,3.12,1.39,4.63,2.17c3.13,1.61,6.14,3.46,9,5.52c1.92,1.38,5.09,0.4,6.16-1.61c1.23-2.33,0.43-4.68-1.61-6.16
			c-6.13-4.41-12.95-7.8-20.12-10.19c-2.24-0.74-5.02,0.86-5.54,3.14C369.01,1754.25,370.33,1756.51,372.72,1757.31L372.72,1757.31z
			"/>
	</g>
</g>
<g>
	<path class="st17" d="M561.78,1755.94c9.57,0.06,19.09,3.5,26.49,9.56"/>
	<g>
		<path class="st18" d="M561.78,1760.44c1.13,0.01,2.25,0.06,3.37,0.16c0.28,0.02,0.56,0.06,0.84,0.08c0.38,0.04,0.53,0.06,0.06,0
			c0.56,0.07,1.11,0.17,1.67,0.27c2.28,0.41,4.54,1.01,6.72,1.79c0.53,0.19,1.05,0.41,1.58,0.6c0.68,0.24-0.56-0.26,0.09,0.03
			c0.26,0.11,0.51,0.23,0.77,0.34c1.02,0.47,2.03,0.98,3.01,1.53c0.98,0.55,1.94,1.14,2.88,1.76c0.47,0.31,0.93,0.63,1.38,0.97
			c0.06,0.04,0.73,0.54,0.39,0.28c-0.37-0.29,0.56,0.45,0.54,0.43c1.83,1.48,4.6,1.92,6.36,0c1.51-1.64,1.95-4.78,0-6.36
			c-8.43-6.84-18.78-10.75-29.67-10.88c-2.35-0.03-4.61,2.09-4.5,4.5C557.39,1758.4,559.26,1760.41,561.78,1760.44L561.78,1760.44z"
			/>
	</g>
</g>
<line class="st19" x1="464.29" y1="331.49" x2="451.29" y2="339.49"/>
<line class="st19" x1="465.29" y1="336.49" x2="444.29" y2="349.49"/>
<line class="st19" x1="470.29" y1="339.49" x2="443.29" y2="356.49"/>
<line class="st19" x1="472.29" y1="345.49" x2="444.29" y2="362.49"/>
<line class="st19" x1="475.29" y1="349.49" x2="446.29" y2="366.49"/>
<path class="st20" d="M458.29,375.99c-0.17,4-0.33,8-0.5,12c-1.83-1.67-3.67-3.33-5.5-5"/>
<g>
	<g>
		<path class="st11" d="M364.22,365.28c-0.61,0.82-1.22,1.63-1.83,2.45c-0.11,0.17-0.17,0.36-0.18,0.56c-0.04,0.2-0.04,0.4,0.03,0.6
			c0.1,0.35,0.36,0.73,0.69,0.9c0.35,0.18,0.77,0.28,1.16,0.15c0.12-0.05,0.24-0.1,0.36-0.15c0.23-0.13,0.4-0.31,0.54-0.54
			c0.61-0.82,1.22-1.63,1.83-2.45c0.11-0.17,0.17-0.36,0.18-0.56c0.04-0.2,0.04-0.4-0.03-0.6c-0.1-0.35-0.36-0.72-0.69-0.9
			c-0.35-0.18-0.77-0.28-1.16-0.15c-0.12,0.05-0.24,0.1-0.36,0.15C364.53,364.88,364.35,365.06,364.22,365.28L364.22,365.28z"/>
	</g>
</g>
<g>
	<g>
		<path class="st11" d="M368.17,368.02c-0.2,0.31-0.41,0.61-0.61,0.92c-0.11,0.17-0.17,0.36-0.18,0.56c-0.04,0.2-0.04,0.4,0.03,0.6
			c0.05,0.2,0.14,0.37,0.27,0.51c0.11,0.16,0.25,0.29,0.42,0.39c0.12,0.05,0.24,0.1,0.36,0.15c0.27,0.07,0.53,0.07,0.8,0
			c0.12-0.05,0.24-0.1,0.36-0.15c0.23-0.13,0.4-0.31,0.54-0.54c0.2-0.31,0.41-0.61,0.61-0.92c0.11-0.17,0.17-0.36,0.18-0.56
			c0.04-0.2,0.04-0.4-0.03-0.6c-0.05-0.2-0.14-0.37-0.27-0.51c-0.11-0.16-0.25-0.29-0.42-0.39c-0.12-0.05-0.24-0.1-0.36-0.15
			c-0.27-0.07-0.53-0.07-0.8,0c-0.12,0.05-0.24,0.1-0.36,0.15C368.48,367.61,368.3,367.79,368.17,368.02L368.17,368.02z"/>
	</g>
</g>
<g>
	<g>
		<path class="st11" d="M537.66,367.87c0,0.51,0,1.02,0,1.53c-0.01,0.21,0.04,0.4,0.13,0.58c0.06,0.19,0.16,0.35,0.31,0.48
			c0.14,0.15,0.3,0.25,0.48,0.31c0.18,0.09,0.37,0.14,0.58,0.13c0.13-0.02,0.27-0.04,0.4-0.05c0.25-0.07,0.47-0.2,0.66-0.39
			c0.27-0.29,0.44-0.65,0.44-1.06c0-0.51,0-1.02,0-1.53c0.01-0.21-0.04-0.4-0.13-0.58c-0.06-0.19-0.16-0.35-0.31-0.48
			c-0.14-0.15-0.3-0.25-0.48-0.31c-0.18-0.09-0.37-0.14-0.58-0.13c-0.13,0.02-0.27,0.04-0.4,0.05c-0.25,0.07-0.47,0.2-0.66,0.39
			C537.83,367.1,537.66,367.46,537.66,367.87L537.66,367.87z"/>
	</g>
</g>
<g>
	<g>
		<path class="st11" d="M542.21,366.68c0.01,0.01,0.02,0.03,0.04,0.04c-0.08-0.1-0.16-0.2-0.23-0.3c0.24,0.32,0.44,0.66,0.6,1.03
			c-0.05-0.12-0.1-0.24-0.15-0.36c0.17,0.4,0.28,0.82,0.34,1.26c-0.02-0.13-0.04-0.27-0.05-0.4c0.05,0.38,0.05,0.76,0.01,1.13
			c-0.04,0.36,0.2,0.82,0.44,1.06c0.26,0.26,0.69,0.46,1.06,0.44c0.39-0.02,0.79-0.14,1.06-0.44c0.08-0.1,0.16-0.2,0.23-0.3
			c0.14-0.23,0.2-0.49,0.2-0.76c0.08-0.75,0-1.53-0.21-2.25c-0.12-0.4-0.28-0.8-0.47-1.18c-0.2-0.4-0.47-0.74-0.74-1.09
			c-0.22-0.28-0.72-0.44-1.06-0.44c-0.37,0-0.81,0.16-1.06,0.44c-0.26,0.29-0.46,0.66-0.44,1.06c0.02,0.13,0.04,0.27,0.05,0.4
			C541.89,366.27,542.02,366.49,542.21,366.68L542.21,366.68z"/>
	</g>
</g>
<path class="st13" d="M443.29,220.49c-12.82,8.94-94,84-101,114c-2,5,9.6,31.37,11,31c0.08-0.02,0.11-0.11,0.12-0.15
	c0.66-2.62-54.89-18.44-44.12-91.85"/>
<path class="st21" d="M244.29,949.49c-9.32-22.98-46.89-35.47-58-25c-6.56,6.18-0.38,17.04,7.5,51.5
	c14.68,64.16,7.8,94.41,28.5,104.5c1.9,0.93,10.53,5.13,16.5,1.5c13.15-8-7.14-41.56,0.5-91.5
	C242.82,967.4,249.14,961.46,244.29,949.49z"/>
<path class="st15" d="M238.29,1089.49c0,0,27,14,33,14c1.71-1.44,2.01-4.02,1.86-6.32c0,0,0.03-2.36-0.86-4.68c-1.55-4-13-9-13-9
	c-7.72-3.34-10.71-3.63-13-7c-1.45-2.13-2-6-2-6"/>
<path class="st15" d="M182.79,927.99c0.73,21.69-10.53,95.94-14,96c0,0,20.29,46.84,28,71l71,19c0.47-2,0.59-3.84,0.5-5.5
	c-0.9-16.92-24.34-26.9-27-28"/>
<path class="st15" d="M244.29,961.49c4,29-1,61-1,61c1.23,15.69,2.5,31.33,8,41c-1.73,6.5-7.11,7.99-15,6
	c-6.77-5.51-11.2-22.27-15-42c0,0-19.21-9.78-19.43-9.37c-0.02,0.04,0.12,0.16,0.43,0.37"/>
<path class="st16" d="M197.29,1029.49c7.12,15,13.28,30,18,45"/>
<path class="st21" d="M671.3,961.84c9.32-22.98,46.89-35.47,58-25c6.56,6.18,0.38,17.04-7.5,51.5c-14.68,64.16-7.8,94.41-28.5,104.5
	c-1.9,0.93-10.53,5.13-16.5,1.5c-13.15-8,7.14-41.56-0.5-91.5C672.77,979.74,666.45,973.81,671.3,961.84z"/>
<path class="st15" d="M677.3,1101.84c0,0-27,14-33,14c-1.71-1.44-2.01-4.02-1.86-6.32c0,0-0.03-2.36,0.86-4.68c1.55-4,13-9,13-9
	c7.72-3.34,10.71-3.63,13-7c1.45-2.13,2-6,2-6"/>
<path class="st15" d="M732.8,940.34c-0.73,21.69,10.53,95.94,14,96c0,0-20.29,46.84-28,71l-71,19c-0.47-2-0.59-3.84-0.5-5.5
	c0.9-16.92,24.34-26.9,27-28"/>
<path class="st15" d="M671.3,973.84c-4,29,1,61,1,61c-1.23,15.69-2.5,31.33-8,41c1.73,6.5,7.11,7.99,15,6
	c6.77-5.51,11.2-22.27,15-42c0,0,19.21-9.78,19.43-9.37c0.02,0.04-0.12,0.16-0.43,0.37"/>
<path class="st15" d="M718.3,1041.84c-7.12,15-13.28,30-18,45"/>
<path class="st8" d="M512.14,507.84c40.48,9.2,80.96,18.4,121.43,27.6c7.75,21.46,10.98,43.27,13.71,65.05
	c13.88,110.47,61.48,208.21,82,297c11.61,29.33,19.3,58.66,18,88c-25.1,45.84-57.16,44.47-91,31c-29-130.67-58-261.33-87-392"/>
<path class="st8" d="M411.14,508.84c-35.62,7.55-71.24,15.1-106.85,22.66c-7.82,24.9-15.49,50.24-23,76
	c-17.62,60.47-33.2,119.53-47,177c-13.65,31.92-27.04,66.91-39.39,104.86c-8.34,25.65-15.49,50.42-21.61,74.14
	c3.41,6.84,14.91,27.7,40,39c15.21,6.85,29.12,7.34,37,7c36.33-132,72.67-264,109-396"/>
<g>
	<path class="st10" d="M325.49,565.49c16.47,41.26,6.38,236-3.19,301c-0.78,3.51,2.13,23,2.13,23s10.75,14.81,13.83,17
		c33.82,4.86,72.77,8.47,115.96,9c49.29,0.61,93.35-2.93,130.85-8c4.43-4.47,7.03-8.99,8.51-12c3.34,0.2-8.17-33.01-11.7-60
		c-1.46-11.19,7.97-18.13,8.51-22c1.57-11.2-0.33-36.69-0.62-86.55c-0.1-17.52-4.05-41.89-3.84-77.96
		c0.12-21.67,1.54-53.06,8.72-91.49"/>
	<path d="M325.6,565.45c4.33,11.88,5.38,24.63,6.61,37.12c5.02,75.4,0.7,151.19-5.5,226.41c-1.18,12.54-2.49,25.07-4.3,37.54
		c-0.39,3.81,0.28,7.7,0.62,11.5c0.38,3.75,1.03,7.89,1.48,11.42c2.16,2.95,4.35,5.88,6.6,8.76c2.18,2.79,4.66,5.98,7.15,8.19
		c40.84,5.84,82.09,9.02,123.36,8.9c41.09-0.06,82.94-2.86,123.32-7.9c3.55-3.45,6.32-7.76,8.63-12c0.35,0.02,0.44-0.54,0.47-0.94
		c-0.4-6.66-2.64-13.09-4.08-19.58c-1.73-6.92-3.43-13.86-4.92-20.84c-1.12-5.23-2.13-10.5-2.91-15.79
		c-1.15-5.3-0.34-10.9,2.54-15.53c1.62-3.14,4.43-5.7,5.56-9.05c0.5-3.51,0.58-7.1,0.63-10.65c0.15-7.31-0.41-24.59-0.53-32.1
		c-0.79-21.39,0.04-42.83-1.79-64.17c-4.76-49.74-3.41-100.11,5.99-149.25c0,0,0.23,0.04,0.23,0.04
		c-9.39,49.12-10.74,99.47-5.98,149.19c1.83,21.34,1,42.8,1.79,64.18c0.16,7.64,0.64,24.74,0.53,32.11
		c-0.05,3.57-0.13,7.14-0.63,10.7c-0.19,0.91-0.67,1.69-1.14,2.45c-1.46,2.24-3.13,4.35-4.44,6.68c-2.88,4.61-3.63,10.1-2.51,15.38
		c0.78,5.29,1.79,10.55,2.91,15.78c2.22,10.47,5,20.81,7.46,31.23c0.61,3.26,1.84,6.6,1.42,9.94c-0.06,0.22-0.29,0.5-0.59,0.47
		l0.11-0.07c-2.16,4.44-5.03,8.54-8.5,12.06c-40.86,5.97-82.25,8.62-123.56,8.21c-41.27-0.41-82.53-3.36-123.39-9.21
		c-2.85-2.36-4.97-5.44-7.3-8.28c-2.25-2.91-4.5-5.83-6.63-8.82c-0.93-6.68-1.91-13.38-2.24-20.13c-0.04-0.95-0.04-1.98,0.11-2.91
		c1.81-12.46,3.11-24.99,4.29-37.52c6.19-75.2,10.52-150.98,5.5-226.36c-1.23-12.47-2.28-25.21-6.59-37.05
		C325.38,565.54,325.6,565.45,325.6,565.45L325.6,565.45z"/>
</g>
<path class="st10" d="M396.29,565.49c-3.57-10.65-16.34-15.55-26-14c-16.11,2.59-27.13,23.73-21,35c6,11.04,28.53,12.72,40,2
	C394.53,583.6,399.28,574.42,396.29,565.49z"/>
<path class="st10" d="M583.76,556.88c-3.39-11.02-17.16-16.07-26.97-15.89c-22.05,0.42-41.46,27.71-36,40
	c5.67,12.76,40.77,15.35,55.97-1.11C577.62,578.94,587.24,568.21,583.76,556.88z"/>
<path class="st8" d="M577.29,907.49c4.6,14.24,9.07,29.14,13.31,44.68c5.8,21.27,10.65,41.76,14.69,61.32c0,0-8,311-8,311
	c3,7.33,6,14.67,9,22c-3.13,12.85-4.95,17.99-6,19c-0.04,0.04-0.19,0.17-0.3,0.4c-0.7,1.48,1.53,4.08,4.3,6.6c-1.33,4-2.67,8-4,12
	c-8.02,17.28-5.97,45.13-2,75c6.35,19.76,10.82,45.32,2,61c-13.49,23.96-64.36,23.78-88,13c-3.01-2.3-18-30-18-30s11.96-34.03,14-36
	c0,0-2-56-9-72c-1.86-1.94-8.12-7.83-7-14c0.64-3.51,3.99-8.99,4-9c-9.23-7.08-9.16-16.03-9-25c3-11,6-22,9-33
	c-20-118-37-243-37-243c-17.67-0.67-35.33-1.33-53-2"/>
<path class="st8" d="M345.29,906.49c-9,35.33-18,70.67-27,106c-0.47,103.5,5.73,207.29,10,311c-2,8.67-4,17.33-6,26
	c3.67,7.67,7.33,15.33,11,23l-7.99,43.65l-3.01,37.35l-16,23l7,26l-7,17c0,0,6.23,12.56,9,15c19.44,17.09,88.67-1.09,92.51-2.13
	c4.16-10.29,8.32-20.58,12.49-30.87c-2.83-11.71-5.66-23.42-8.49-35.13c-0.72-13.01,0.6-23.24,1.88-30
	c4.62-24.51,3.78-43.09,10.16-64.95c3.19-10.94,6.64-19.6,8.97-25.05c-3-11-9-33-9-33c8.82-40.4,16.84-83.9,23.37-130.26
	c5.49-38.99,9.42-76.28,12.12-111.61c21.34-0.84,32.01-1.51,32-2c-0.01-0.74-24.68-1.08-74-1"/>
<g>
	<path class="st22" d="M369.57,963.76c-0.95,11.6-1.9,23.2-2.86,34.79c-0.13,1.56-0.27,3.16-0.92,4.59
		c-1.24,2.72-3.46,4.14-4.01,4.51c-3.49,2.39-16.83,15.24-37.5,35.85"/>
	<g>
		<path class="st22" d="M368.07,963.76c-0.73,8.95-1.47,17.89-2.2,26.84c-0.18,2.24-0.37,4.47-0.55,6.71
			c-0.16,1.96-0.19,4.02-1.18,5.78c-0.9,1.61-2.25,2.6-3.68,3.68c-2.43,1.84-4.66,3.96-6.89,6.04c-3.92,3.65-7.76,7.37-11.59,11.11
			c-6.29,6.13-12.52,12.32-18.74,18.52c-1.37,1.36,0.75,3.49,2.12,2.12c9.75-9.72,19.5-19.48,29.55-28.89
			c2.33-2.18,4.66-4.42,7.18-6.39c-0.32,0.25,0.13-0.1,0.25-0.18c0.2-0.14,0.4-0.27,0.6-0.41c1.08-0.77,2.05-1.64,2.87-2.69
			c2.55-3.28,2.42-7.46,2.75-11.41c0.84-10.27,1.69-20.54,2.53-30.82C371.22,961.83,368.22,961.84,368.07,963.76L368.07,963.76z"/>
	</g>
</g>
<g>
	<path class="st22" d="M546.92,954.8c-0.05,8.17-0.09,16.34-0.14,24.51c-0.01,1.35,0.03,2.82,0.88,3.86
		c0.69,0.84,1.77,1.22,2.79,1.57c12.15,4.1,24.29,8.21,36.44,12.31"/>
	<g>
		<path class="st22" d="M545.42,954.8c-0.03,4.82-0.05,9.64-0.08,14.46c-0.01,2.45-0.03,4.9-0.04,7.35
			c-0.01,1.94-0.28,4.15,0.39,6.02c0.68,1.88,2.24,2.79,4.03,3.43c2.31,0.83,4.65,1.57,6.97,2.36c4.65,1.57,9.31,3.14,13.96,4.72
			c5.28,1.79,10.57,3.57,15.85,5.36c1.83,0.62,2.62-2.28,0.8-2.89c-8.76-2.96-17.51-5.92-26.26-8.87c-2.13-0.72-4.26-1.44-6.39-2.16
			c-1.1-0.37-2.21-0.75-3.31-1.12c-0.77-0.26-1.76-0.48-2.36-1.08c-1.21-1.2-0.68-3.99-0.67-5.52c0.01-2.21,0.03-4.41,0.04-6.62
			c0.03-5.15,0.06-10.3,0.09-15.44C548.44,952.87,545.44,952.87,545.42,954.8L545.42,954.8z"/>
	</g>
</g>
<path class="st23" d="M336.29,1081.49c-2.46,55.32,2.87,127.32,16,216"/>
<path class="st23" d="M355.29,1366.49c-6.28,42.67-9.62,85.33-10,128"/>
<g>
	<path class="st22" d="M580.29,1088.49c-0.67,92.67-1.33,185.33-2,278"/>
	<path class="st22" d="M580.34,1088.49c-0.03,90.33-0.87,187.61-2,278c0,0-0.11,0-0.11,0
		C578.52,1276.15,578.76,1178.55,580.34,1088.49L580.34,1088.49z"/>
</g>
<path class="st23" d="M584.29,1406.49c-3.38,36.31-6.95,69.93-11,97c-11.19,15.69-26.03,22.69-42,27"/>
<g>
	<path d="M575.73,827.73c-1.65,11.3-7.11,21.24-13.52,30.45c-2.22,3-4.56,5.93-7.48,8.55l-0.88-0.47c2.37-13.31,10.8-30.01,21-39
		C574.85,827.26,575.73,827.73,575.73,827.73L575.73,827.73z"/>
</g>
<g>
	<path class="st22" d="M381.29,611.49c16.06,82.14,33.1,158.71,53,219"/>
	<path class="st22" d="M381.4,611.47c14.04,69,28.48,138.06,48.81,205.53c1.35,4.5,2.79,8.97,4.18,13.45l-0.22,0.07
		c-11.99-35.63-21.5-72.05-30.01-108.65C395.99,685.37,387.57,647.93,381.4,611.47L381.4,611.47z"/>
</g>
<g>
	<path class="st22" d="M359.29,839.49c24.28,33.45,56.92,50.17,92,62"/>
	<path class="st22" d="M359.39,839.42c21.57,29.21,51.72,47.18,85.32,59.54c0,0,6.63,2.41,6.63,2.41l-0.08,0.23l-6.7-2.23
		c-24.43-8.38-48.1-20.51-66.89-38.47c-6.85-6.48-13.02-13.67-18.47-21.34L359.39,839.42L359.39,839.42z"/>
</g>
<line class="st23" x1="521.29" y1="625.49" x2="480.29" y2="729.49"/>
<path class="st3" d="M162.79,13.99L162.79,13.99L162.79,13.99z"/>
<path class="st3" d="M515.29,497.49"/>
<path class="st3" d="M515.29,488.49"/>
<path class="st3" d="M519.29,487.49"/>
<g>
	<path class="st22" d="M564.01,808.2c-14.62,6.33-29.77,11.44-45.24,15.26c3.1,8.59,4.71,17.72,4.75,26.85"/>
	<g>
		<path class="st22" d="M563.25,806.91c-14.51,6.26-29.54,11.3-44.88,15.11c-0.74,0.18-1.32,1.09-1.05,1.85
			c3.04,8.5,4.63,17.42,4.7,26.45c0.01,1.93,3.01,1.93,3,0c-0.07-9.28-1.68-18.51-4.81-27.25c-0.35,0.62-0.7,1.23-1.05,1.85
			c15.6-3.87,30.84-9.05,45.6-15.41C566.53,808.73,565.01,806.15,563.25,806.91L563.25,806.91z"/>
	</g>
</g>
<g>
	<path class="st22" d="M491.76,750.98c9.99,0,19.97,0,29.96,0"/>
	<g>
		<path class="st22" d="M491.76,752.48c9.99,0,19.97,0,29.96,0c1.93,0,1.93-3,0-3c-9.99,0-19.97,0-29.96,0
			C489.83,749.48,489.83,752.48,491.76,752.48L491.76,752.48z"/>
	</g>
</g>
<g>
	<path class="st22" d="M323.98,588.29c-7.78,28.37-12.88,57.47-15.22,86.79"/>
	<g>
		<path class="st22" d="M322.53,587.89c-6.08,22.23-10.53,44.88-13.32,67.76c-0.79,6.46-1.44,12.94-1.96,19.43
			c-0.15,1.92,2.85,1.91,3,0c1.83-22.78,5.32-45.42,10.45-67.69c1.44-6.27,3.02-12.5,4.72-18.7
			C325.94,586.82,323.04,586.03,322.53,587.89L322.53,587.89z"/>
	</g>
</g>
<g>
	<path class="st22" d="M244.08,792.53c-0.09,2.37,0.64,4.68,1.37,6.93c2.78,8.64,5.56,17.28,8.35,25.92"/>
	<g>
		<path class="st22" d="M242.58,792.53c-0.04,2.79,0.81,5.41,1.65,8.04c0.91,2.83,1.82,5.65,2.73,8.48
			c1.8,5.58,3.59,11.15,5.39,16.73c0.59,1.83,3.49,1.05,2.89-0.8c-1.75-5.42-3.49-10.84-5.24-16.26c-0.86-2.67-1.72-5.34-2.58-8.01
			c-0.86-2.66-1.89-5.35-1.85-8.18C245.61,790.59,242.61,790.59,242.58,792.53L242.58,792.53z"/>
	</g>
</g>
<g>
	<path class="st22" d="M711.79,908.31c-14.49,12.7-29.32,25.83-38.15,42.95c-0.34,0.66-0.66,1.52-0.18,2.1
		c0.32,0.39,0.88,0.47,1.38,0.52c1.55,0.15,3.1,0.31,4.66,0.46"/>
	<g>
		<path class="st22" d="M710.73,907.25c-13.71,12.02-27.77,24.41-36.87,40.46c-0.99,1.75-3.15,4.58-1.58,6.56
			c0.7,0.88,1.74,1.02,2.79,1.13c1.47,0.15,2.95,0.29,4.42,0.43c1.92,0.19,1.91-2.81,0-3c-1.09-0.11-2.17-0.21-3.26-0.32
			c-0.36-0.04-1.22,0.06-1.5-0.16c0,0,0.31-0.56,0.5-0.9c0.95-1.81,1.98-3.58,3.06-5.32c2.14-3.41,4.5-6.67,7.05-9.79
			c5.17-6.32,10.99-12.08,16.99-17.6c3.46-3.18,6.99-6.28,10.52-9.37C714.3,908.1,712.17,905.98,710.73,907.25L710.73,907.25z"/>
	</g>
</g>
<g>
	<path class="st22" d="M622.37,559.91c-8.04,8.9-15.93,17.94-23.65,27.12"/>
	<g>
		<path class="st22" d="M621.31,558.85c-8.04,8.9-15.93,17.94-23.65,27.12c-1.24,1.47,0.88,3.6,2.12,2.12
			c7.72-9.18,15.6-18.22,23.65-27.12C624.72,559.55,622.61,557.42,621.31,558.85L621.31,558.85z"/>
	</g>
</g>
<g>
	<path class="st22" d="M252.06,846.03c-0.2,5.81,0.51,11.65,2.12,17.24c0.32,1.12,0.72,2.29,1.63,3.02
		c0.79,0.63,1.83,0.81,2.83,0.95c3.7,0.51,7.44,0.67,11.17,0.48"/>
	<g>
		<path class="st22" d="M250.56,846.03c-0.1,3.32,0.08,6.63,0.54,9.93c0.42,3.03,0.94,6.27,2.11,9.11c0.49,1.19,1.23,2.26,2.4,2.87
			c1.3,0.68,2.83,0.79,4.26,0.96c3.3,0.39,6.62,0.48,9.93,0.32c1.92-0.09,1.93-3.09,0-3c-2.9,0.14-5.81,0.09-8.7-0.19
			c-1.21-0.12-2.58-0.15-3.73-0.58c-1.07-0.4-1.41-1.41-1.71-2.43c-1.63-5.51-2.29-11.27-2.11-17
			C253.62,844.1,250.62,844.1,250.56,846.03L250.56,846.03z"/>
	</g>
</g>
<path class="st24" d="M633.14,126.84c-50.07,11.07-113.47,20.57-187,21c-64.93,0.38-121.74-6.4-168-15
	c-3.68,48.93-3.28,115.27,13.26,191.21c24.57,112.77,73.56,195.39,108,244c3.64,3.87,26.99,27.88,64,27
	c32.81-0.78,53.59-20.59,58-25c36.41-60.25,82.55-154.34,102.7-276.93C634.46,230.12,635.65,173.62,633.14,126.84z"/>
<path class="st10" d="M274.64,131.84c65.24,10.95,143.8,17.35,232,10.5c28.9-2.24,56.27-5.71,82-10c-3.67-12-7.33-24-11-36
	c-30.18-1.87-61.19-3.24-93-4c-73.97-1.77-144.13-0.09-210,4C274.64,108.17,274.64,120,274.64,131.84z"/>
<path class="st3" d="M628.14,100.84c-119.56,25.52-235.2,21.13-348-5"/>
<path class="st3" d="M623.14,121.84"/>
<path class="st25" d="M512.14,509.84c11.67,2.67,23.33,5.33,35,8c-11.67,19-23.33,38-35,57c-16.12,19.24-39.13,22.57-66,17
	c-16.03-0.62-30.02-9.73-43-23c-12.59-10.62-21.9-29.55-31-49c12.33-3,27-8,37-9c1.96,14.23,6.69,28.69,22,44
	c3.9,1.62,29.25,11.68,52-1c1.94-1.08,10.72-6.15,18.21-16.54C509.24,526.34,511.42,515.4,512.14,509.84z"/>
<rect x="367.14" y="891.84" class="st10" width="200" height="35"/>
<g>
	<g>
		<path class="st10" d="M569.34,532.64c5.1-6.19,8.7-13.33,11.48-20.82c-0.98-0.13-1.96-0.27-2.95-0.4
			c0.55,4.93-0.84,9.91-4.06,13.72c0.84,0.49,1.67,0.97,2.51,1.46c0.34-2.2,0.69-4.39,1.03-6.59c-0.96,0-1.93,0-2.89,0
			c0.91,5.53,1.13,11.14,0.73,16.72c1,0,2,0,3,0c-0.34-3.64-0.68-7.27-1.02-10.91c-0.23-2.44-0.07-7.07-3.86-6.28
			c-1.38,0.29-2.42,1.27-3.42,2.19c-1.3,1.21-2.59,2.43-3.88,3.65c-2.69,2.55-5.37,5.12-8.03,7.71c0.84,0.49,1.67,0.97,2.51,1.46
			c1.14-3.12,2.28-6.23,3.43-9.35c0.57-1.56,1.14-3.12,1.71-4.67c0.29-0.78,0.57-1.56,0.86-2.34c0.15-0.4,0.63-0.91,0.02-0.94
			c-0.52-0.03-0.18,0.11-0.01,0.45c0.62,1.22,0.65,3.07,0.79,4.42c0.16,1.49,0.25,2.98,0.26,4.47c0.04,3.26-0.27,6.49-0.91,9.68
			c0.98,0.13,1.96,0.27,2.95,0.4c0.19-5.03,0.38-10.07,0.58-15.1c0.06-1.65-2.69-2.09-2.95-0.4c-0.53,3.45-1.45,6.85-2.81,10.06
			c-0.61,1.44,1.09,3.19,2.36,1.82c1.66-1.8,2.67-3.99,3.25-6.36c0.3-1.2,0.48-2.43,0.64-3.66c0.15-1.17,0.46-2.46,0.03-3.59
			c-0.74-1.93-3.03-2.22-4.77-1.59c-2.31,0.84-3.8,3.09-4.65,5.28c-0.42,1.1,0.83,2.12,1.85,1.85c3.7-1.01,7.23-2.57,10.47-4.62
			c0.74-0.47,0.89-1.29,0.54-2.05c-1.13-2.49-4.59-1.45-6.62-1.12c-3.18,0.51-6.35,1.01-9.53,1.52c0.39,0.91,0.77,1.83,1.16,2.74
			c1.87-1.39,3.74-2.77,5.61-4.16c1.26-0.93,0.59-3.31-1.16-2.74c-2.62,0.86-5.12,2.02-7.46,3.49c-1.39,0.88-0.52,3.27,1.16,2.74
			c1.53-0.48,3-1.09,4.42-1.83c1.57-0.81,0.44-3.08-1.16-2.74c-1.06,0.23-2.13,0.46-3.19,0.68c0.39,0.91,0.77,1.83,1.16,2.74
			c0.59-0.34,1.17-0.68,1.76-1.03c1.32-0.77,0.7-2.74-0.76-2.8c-1.9-0.07-3.77,0.2-5.57,0.83c-1.81,0.63-1.03,3.53,0.8,2.89
			c1.57-0.55,3.11-0.78,4.77-0.72c-0.25-0.93-0.5-1.86-0.76-2.8c-0.59,0.34-1.17,0.68-1.76,1.03c-1.51,0.88-0.48,3.09,1.16,2.74
			c1.06-0.23,2.13-0.46,3.19-0.68c-0.39-0.91-0.77-1.83-1.16-2.74c-1.2,0.62-2.42,1.12-3.71,1.53c0.39,0.91,0.77,1.83,1.16,2.74
			c2.12-1.34,4.36-2.41,6.74-3.19c-0.39-0.91-0.77-1.83-1.16-2.74c-1.87,1.39-3.74,2.77-5.61,4.16c-1.39,1.03-0.56,3.01,1.16,2.74
			c2.38-0.38,4.76-0.76,7.14-1.14c0.8-0.13,5.34-1.23,5.61-0.63c0.18-0.68,0.36-1.37,0.54-2.05c-3.04,1.93-6.29,3.37-9.76,4.32
			c0.62,0.62,1.23,1.23,1.85,1.85c0.47-1.22,1.41-2.74,2.69-3.24c0.29-0.11,0.87-0.3,1.16-0.08c-0.23-0.18-0.11,0.41-0.13,0.69
			c-0.03,0.38-0.09,0.77-0.14,1.15c-0.38,2.99-0.98,6.19-3.09,8.48c0.79,0.61,1.57,1.21,2.36,1.82c1.47-3.47,2.54-7.05,3.11-10.78
			c-0.98-0.13-1.96-0.27-2.95-0.4c-0.19,5.03-0.38,10.07-0.58,15.1c-0.06,1.66,2.61,2.07,2.95,0.4c0.8-3.99,1.16-8.06,0.96-12.13
			c-0.1-2.02-0.32-4.03-0.65-6.03c-0.26-1.55-0.61-3.24-2.03-4.17c-1.33-0.86-2.89-0.34-3.61,1.02c-0.94,1.79-1.47,3.93-2.16,5.83
			c-1.48,4.05-2.97,8.1-4.45,12.15c-0.54,1.47,1.5,2.44,2.51,1.46c2.08-2.03,4.17-4.04,6.28-6.04c2.09-1.99,4.13-4.11,6.34-5.98
			c0.33-0.28,0.67-0.54,1.08-0.69c0.38-0.14,0.02-0.13,0.06,0.03c0.07,0.27,0.06,0.58,0.09,0.85c0.14,1.45,0.27,2.91,0.41,4.36
			c0.28,2.99,0.56,5.98,0.84,8.97c0.18,1.91,2.86,1.95,3,0c0.42-5.86,0.12-11.72-0.84-17.52c-0.23-1.43-2.67-1.44-2.89,0
			c-0.34,2.2-0.69,4.39-1.03,6.59c-0.2,1.31,1.43,2.74,2.51,1.46c3.71-4.39,5.58-10.1,4.94-15.84c-0.19-1.68-2.34-2.04-2.95-0.4
			c-2.58,6.97-5.95,13.73-10.7,19.49C565.99,531.99,568.11,534.13,569.34,532.64L569.34,532.64z"/>
	</g>
</g>
<path class="st10" d="M347.14,529.84c-4.18-2.8-7.09-8.99-5-13c2.53-4.84,11.42-4.69,17-2c3.79,1.83,8.77,6.13,8,10
	C366.09,530.14,354.28,534.6,347.14,529.84z"/>
<g>
	<g>
		<path d="M573.75,545.65c-12.88,10.15-25.5,20.64-37.83,31.46c-3.51,3.08-6.99,6.18-10.45,9.31c-0.72,0.65,0.35,1.71,1.06,1.06
			c12.17-11,24.62-21.69,37.35-32.03c3.62-2.94,7.26-5.85,10.93-8.74C575.57,546.11,574.5,545.06,573.75,545.65L573.75,545.65z"/>
	</g>
</g>
<g>
	<g>
		<path d="M364.4,555.8c4.3,6.94,9.57,13.24,15.65,18.68c0.72,0.64,1.78-0.42,1.06-1.06c-5.99-5.36-11.18-11.54-15.42-18.38
			C365.19,554.22,363.89,554.98,364.4,555.8L364.4,555.8z"/>
	</g>
</g>
<path class="st1" d="M356.64,937.34c-9.33-2-18.67-4-28-6c-9.6-133.73-2.09-272.7,13-414h32
	C347.56,667.05,336.7,809.51,356.64,937.34z"/>
<path class="st1" d="M566.64,927.34c10.67-2.67,21.33-5.33,32-8c8.4-140.74,4.58-269.68-3-395h-29
	C577.68,658.67,582.07,793,566.64,927.34z"/>
<g>
	<path class="st17" d="M488.32,349.27c-2.37-4.12-2.13-8.19-1.93-11.53c0.09-1.51,0.66-11.17,6.75-16.91
		c11.57-10.91,45.46-9.98,57.88,5.38c5.58,6.9,7.7,17.8,0.96,26.14c-9.27,11.48-28.98,10.29-33.77,9.99
		C515.56,362.18,494.88,360.7,488.32,349.27z"/>
	<path class="st26" d="M555.77,354.02c0.37-2.46,2.7-19.66-10-31.15c-15.64-14.15-44.75-11.19-56,1.83c-2.9,3.36-4.3,7.02-5,10.08"
		/>
	<circle class="st1" cx="515.02" cy="336.77" r="12.25"/>
	<circle class="st17" cx="520.8" cy="333.13" r="4.76"/>
	<path class="st17" d="M425.84,347.86c2.37-4.12,2.13-8.19,1.93-11.53c-0.09-1.51-0.66-11.17-6.75-16.91
		c-11.57-10.91-45.46-9.98-57.88,5.38c-5.58,6.9-7.7,17.8-0.96,26.14c9.27,11.48,28.98,10.29,33.77,9.99
		C398.6,360.77,419.27,359.28,425.84,347.86z"/>
	<circle class="st1" cx="399.14" cy="335.36" r="12.25"/>
	<circle class="st17" cx="405.36" cy="331.72" r="4.76"/>
	<path class="st3" d="M365.26,354.09c3.03,1.51,28.63,13.79,50,1c5.27-3.15,9.16-7.16,12-11"/>
	<path class="st27" d="M414.77,298.02c-23.83-0.75-45.82,3.13-65,14"/>
	<path class="st27" d="M496.81,298.01c23.83-0.75,45.82,3.13,65,14"/>
	<path class="st26" d="M357.63,351.24c-0.37-2.46-2.7-19.66,10-31.15c15.64-14.15,44.75-11.19,56,1.83c2.9,3.36,4.3,7.02,5,10.08"/>
	<path class="st3" d="M549.01,356.01c-3.03,1.51-28.63,13.79-50,1c-5.27-3.15-9.16-7.16-12-11"/>
</g>
<path class="st28" d="M501.17,423.31l-82.91,1.55c-7.95,1.53,11.95,29.49,48,25.19c25-2.98,40.45-23.45,36.61-26.32
	C502.35,423.35,501.17,423.31,501.17,423.31z"/>
<text transform="matrix(1 0 0 1 464.2588 648.9045)" class="st17 st29 st30"> תמר</text>
<text transform="matrix(1 0 0 1 426.8643 688.5544)" class="st17 st29 st30"> A ןוגימ</text>
<path class="st31" d="M278.25,133.21c-3.73,49.17-3.37,116.65,14,194c25.36,112.93,75.34,195.14,110,243c4,3.89,26.32,24.82,61,24
	c33.03-0.78,53.76-20.74,58-25c36.14-57.92,83.42-150.73,103.7-272.93c10.73-64.61,11.37-122.21,8.3-169.07
	C514.92,150.07,396.58,156.58,278.25,133.21z"/>
</svg>
