<?xml version="1.0" encoding="utf-8"?>
<!-- Generator: Adobe Illustrator 28.3.0, SVG Export Plug-In . SVG Version: 6.00 Build 0)  -->
<svg version="1.1" id="Layer_1" xmlns="http://www.w3.org/2000/svg" xmlns:xlink="http://www.w3.org/1999/xlink" x="0px" y="0px"
	 viewBox="0 0 875 1859" style="enable-background:new 0 0 875 1859;" xml:space="preserve">
<style type="text/css">
	.st0{fill:#E1B350;}
	.st1{stroke:#000000;stroke-miterlimit:10;}
	.st2{fill:#F0FCFB;stroke:#000000;stroke-miterlimit:10;}
	.st3{fill:none;stroke:#000000;stroke-miterlimit:10;}
	.st4{fill:#C4C9D6;stroke:#000000;stroke-miterlimit:10;}
	.st5{fill:#3E505C;stroke:#000000;stroke-miterlimit:10;}
	.st6{fill:#8C9099;stroke:#000000;stroke-miterlimit:10;}
	.st7{fill:none;stroke:#000000;stroke-width:9;stroke-miterlimit:10;}
	.st8{fill:#FBB03B;stroke:#000000;stroke-miterlimit:10;}
	.st9{fill:#FFE3CB;stroke:#000000;stroke-miterlimit:10;}
	.st10{fill:#FBB03B;}
	.st11{fill:#FFB995;}
	.st12{fill:#332C26;}
	.st13{fill:#332C26;stroke:#000000;stroke-miterlimit:10;}
	.st14{fill:none;stroke:#FFB995;stroke-miterlimit:10;}
	.st15{fill:#080D1D;stroke:#FFFFFF;stroke-miterlimit:10;}
	.st16{fill:none;stroke:#FFFFFF;stroke-miterlimit:10;}
	.st17{fill:#FFFFFF;}
	.st18{fill:#322B13;}
	.st19{fill:#FFB995;stroke:#FFB995;stroke-miterlimit:10;}
	.st20{fill:#FFB995;stroke:#000000;stroke-width:0.5;stroke-miterlimit:10;}
	.st21{fill:#080D1D;}
	.st22{fill:#EE781F;}
	.st23{fill:#EE781F;stroke:#EE781F;stroke-miterlimit:10;}
	.st24{fill:none;stroke:#000000;stroke-width:5;stroke-miterlimit:10;}
	.st25{stroke:#000000;stroke-width:5;stroke-miterlimit:10;}
	.st26{fill:#FFFFFF;stroke:#000000;stroke-miterlimit:10;}
	.st27{fill:none;stroke:#000000;stroke-width:3;stroke-miterlimit:10;}
	.st28{fill:#242B2D;stroke:#000000;stroke-miterlimit:10;}
	.st29{fill:#272C2D;}
	.st30{fill:none;stroke:#000000;stroke-width:4;stroke-miterlimit:10;}
	.st31{opacity:0.22;}
	.st32{stroke:#000000;stroke-width:13;stroke-miterlimit:10;}
	.st33{fill:#FBB03B;stroke:#000000;stroke-width:2;stroke-miterlimit:10;}
	.st34{font-family:'Liebling-Bold';}
	.st35{font-size:48px;}
</style>
<g>
	<path class="st0" d="M192.14,713.04c-0.45,153.83,31.55,186.86,42.95,197.15c6.13,5.54,34.94,31.55,77.05,31.85
		c43.77,0.31,73.84-27.35,79.89-32.91c15.3-14.08,40.09-44.46,42.11-194.09c1.74-129,1.7-197.3-45.35-233.59
		c-33.2-25.61-73.65-26.41-73.65-26.41c-29.76-0.59-53.88,10.33-66.13,18.04C192.74,508.48,192.48,598.3,192.14,713.04z"/>
</g>
<path class="st1" d="M195.45,820.77c2.46,13.94,7.2,32.3,16.78,52.3c7.32,15.28,15.58,27.57,22.91,36.97
	c10.69,8.09,35.83,24.8,71.71,27.76c10.78,0.89,39.34,3.25,66.29-11.76c53.07-29.56,54.86-101.42,54.9-105.82
	C356.23,808.68,277.99,810.31,195.45,820.77z M356.14,927.04h-82c-7.6-8.11-20.56-24.09-28-48c-8.55-27.47-5.29-50.88-3-62
	c18.87-1.6,38.73-2.76,59.52-3.29c29.25-0.74,56.82-0.16,82.48,1.29C389.02,851.2,391.58,887.47,356.14,927.04z"/>
<path class="st2" d="M355.14,927.04h-82c-7.6-8.11-20.56-24.09-28-48c-8.55-27.47-5.29-50.88-3-62c18.87-1.6,38.73-2.76,59.52-3.29
	c29.25-0.74,56.82-0.16,82.48,1.29C388.02,851.2,390.58,887.47,355.14,927.04z"/>
<path class="st3" d="M355.14,927.04h-82c-7.6-8.11-20.56-24.09-28-48c-8.55-27.47-5.29-50.88-3-62c18.87-1.6,38.73-2.76,59.52-3.29
	c29.25-0.74,56.82-0.16,82.48,1.29C388.02,851.2,390.58,887.47,355.14,927.04z"/>
<path class="st4" d="M427.04,820.22c-71.81-11.54-150.05-9.91-232.59,0.55c-5.58-36.99-1.39-75.37-4.31-112.73
	c25.7-9.58,67.87-21.76,121-21.35c53.32,0.41,95.43,13.33,121,23.35C434.05,751.95,432.13,789.06,427.04,820.22z"/>
<rect x="113.14" y="613.04" class="st5" width="335" height="41"/>
<path class="st4" d="M301.14,1002.04h33c3.03-34.01,10.03-59.01,21-75c-27.33,0-54.67,0-82,0
	C282.47,952.04,307.14,973.04,301.14,1002.04z"/>
<path class="st6" d="M294.14,991.04h51c-3.7-9.54-2.67-21.8,0-35c-18.33,0-36.67,0-55,0C295.59,967.72,299.51,979.39,294.14,991.04z
	"/>
<ellipse class="st5" cx="318.14" cy="1002.04" rx="45" ry="13"/>
<path class="st3" d="M355.14,927.04h-82c-7.6-8.11-20.56-24.09-28-48c-8.55-27.47-5.29-50.88-3-62c18.87-1.6,38.73-2.76,59.52-3.29
	c29.25-0.74,56.82-0.16,82.48,1.29C388.02,851.2,390.58,887.47,355.14,927.04z"/>
<polyline class="st7" points="294.14,893.04 292.14,835.04 333.14,887.04 336.14,827.04 "/>
<path class="st3" d="M427.96,1235.9"/>
<path class="st8" d="M551.86,498.93c9.79-19.39,19.22-40.05,28-62c42.45-106.07,55.48-206.2,57-287c-34.81-11.93-83.34-24.2-142-26
	c-92.97-2.85-166.22,21.99-208,40c1.74,42.5,7.8,95.68,24,155c21.27,77.9,52.58,139.08,79,182"/>
<path class="st9" d="M525.29,370.59c2.63,23.55-6,13-8,90c-2.94,9.27-8.97,25.81-22,43c-10.02,13.22-18.65,24.6-30,25
	c-18.93,0.66-33.56-29.65-40-43c-13.52-28-6-64-11-106C435.34,353.35,482.98,346.69,525.29,370.59z"/>
<g>
	<path class="st10" d="M579.91,873.64c1.96-4.29,6.31-15.17,1.38-22.05c-3.4-4.74-9.72-5.52-11.98-5.8
		c-54.87-6.94-12.26-12.05-90.68-13.56c-40.48-0.78-83.06-0.96-118.58,18.47c-1.8,0.98-3.64,2.08-4.69,3.84
		c-0.89,1.49-1.1,3.28-1.28,5.02c-3.14,30.51-3.29,61.33-0.43,91.87c0.78,8.37,1.82,16.83,4.83,24.68
		c4.34,11.31,12.51,20.66,20.51,29.75c3.94,4.47,8.06,9.08,13.52,11.46c6.31,2.74,13.48,2.14,20.35,2.42
		c10.01,0.41,19.83,2.81,29.79,3.85c9.96,1.05,20.5,0.62,29.29-4.19c5.89-3.23,10.6-8.21,15.19-13.11
		c13.19-14.04,26.4-28.12,38.09-43.43c4.17-5.47,8.16-11.11,12.94-16.05c5.42-5.6,11.8-10.25,16.83-16.21
		c6.23-7.37,10.11-16.39,13.9-25.26c3.64-8.52,8.12-20.32,11.8-35.05"/>
</g>
<g>
	<path class="st11" d="M416.79,379.09c11.99-6.42,36.45-17.3,68.33-16.11c16.83,0.63,30.72,4.43,40.67,8.11c-2,15-4,30-6,45
		c0,0-23.03,18.75-36.31,22.96c-17.24,5.47-32.91,4.91-46.59,4.21c-8.43-0.43-15.37-1.39-20.1-2.18"/>
</g>
<path class="st12" d="M614.29,261.59c5.54-8.08,19.24-30.37,20-60.37c1.2-47.26-29.78-89.59-65.69-110.21
	c-46.25-26.56-102.59-18.3-103.24-14.58c-0.11,0.61,1.19,1.47,2,2c5.11,3.38,13.06,0.87,13,0c-0.04-0.59-3.83-1.14-20-1
	c-87.53,15.46-109.21,20.61-109,22c0.12,0.79,7.39,0.62,13,0c11.73-1.31,47.07-8.05,47.43-7.96c0.18,0.04,0.35,0.09,0.35,0.09
	c0.04,0.01,0.09,0.02,0.14,0.04c-11.66-5.32-27.47-9.8-45-7c-37.09,5.91-68.24,42.16-77,91c1.39,26.89,8.7,77.86,47,115
	C413.96,364.95,564.13,334.76,614.29,261.59z"/>
<path class="st9" d="M321.28,252.59c-9.24,4.58-8.96,25.47-8.9,28c0.97,43.16,49.42,68.45,52.5,70c10.72,5.4,21.89,11.04,26.69,6
	c9.28-9.73-11.32-52.96-35.59-81C347.62,265.93,331.62,247.46,321.28,252.59z"/>
<path class="st9" d="M597.58,253.03c8.07,4.58,7.83,25.47,7.78,28c-0.85,43.16-43.19,68.45-45.88,70c-9.37,5.4-19.13,11.04-23.33,6
	c-8.11-9.73,9.89-52.96,31.1-81C574.56,266.37,588.53,247.9,597.58,253.03z"/>
<path class="st9" d="M338.29,237.59c3,48,28,110,28,110s9,45,99,83c15.38-5.65,63.48-25.54,97-78c21-54,31.35-104.69,30-121
	c-9.02-56.66-54.24-130.14-123-132C397.07,97.64,345.92,175.99,338.29,237.59z"/>
<path class="st13" d="M444.29,168.59c-7,66-29,96-29,96s56-29,45-39c1.76,1.49-14,45-32,55c4.73,6.17,28.68-0.81,44-13
	c43.35-34.5,25.69-117.12,23-129"/>
<path class="st13" d="M475.29,154.59c14.01,28.85,62.09,68.06,100.58,100.55c6.89,5.82-1.42,24.24-12.58,42.45
	c3.27,3.09,12.2-1.57,14.1-2.56c14.74-7.68,24.59-25.25,24.9-47.44"/>
<path class="st3" d="M338.29,287.47"/>
<path class="st12" d="M603.29,241.59c16.73-14.19-7.66-108.46-76-144c-65.01-33.81-154.86-6.63-191,51
	c-20.8,33.16-27.38,81.62-11,92c28.84,18.27,125.02-83.91,136.5-72.5c4.98,4.95-11.12,26.16-4.5,32.5
	c7.01,6.71,25.92-16.2,49.5-12.5c23.3,3.66,24.19,29.06,59,46C575.29,238.71,595.24,248.42,603.29,241.59z"/>
<g>
	<g>
		<path d="M444.67,167.73c0.78-3.65,1.16-7.39,1.13-11.12c-0.01-1.07-1.29-1.96-2.26-1.3c-3.41,2.35-6.52,5.1-9.24,8.23
			c-0.53,0.61-0.6,1.52,0,2.12c0.54,0.54,1.59,0.61,2.12,0c2.55-2.93,5.44-5.55,8.63-7.76c-0.75-0.43-1.5-0.86-2.26-1.3
			c0.04,3.47-0.3,6.93-1.02,10.33c-0.17,0.79,0.23,1.62,1.05,1.85C443.57,168.98,444.5,168.52,444.67,167.73L444.67,167.73z"/>
	</g>
</g>
<g>
	<path d="M501.73,184.69c-0.74,0.01-0.84-7.33-3.11-21.84c-1.42-9.13-2.97-16.61-4.1-21.68c2.72,4.55,6.13,11.49,7.76,20.42
		C504.48,173.59,502.64,184.68,501.73,184.69z"/>
	<g>
		<path d="M501.73,183.19c0.38,0.04,1.05,0.54,1.12,0.59c0.02,0.01,0.09,0.37,0.07,0.15c-0.02-0.19-0.1-0.39-0.14-0.58
			c-0.16-0.76-0.17-1.05-0.26-1.76c-0.28-2.33-0.51-4.67-0.79-7.01c-0.92-7.81-2.12-15.58-3.59-23.3
			c-0.67-3.51-1.39-7.02-2.17-10.51c-0.91,0.39-1.83,0.77-2.74,1.16c4.15,6.98,6.96,14.7,8.04,22.76c0.58,4.34,0.71,8.76,0.39,13.12
			c-0.1,1.42-0.25,2.85-0.53,4.25c-0.1,0.47-0.21,0.94-0.35,1.4c-0.1,0.32-0.1,0.12-0.06,0.19c-0.02,0.05-0.05,0.1-0.08,0.14
			c0.16-0.27,0.39-0.44,0.7-0.54c-1.9,0.33-1.09,3.23,0.8,2.89c1.53-0.27,1.81-2.79,2.02-3.96c0.52-3.01,0.68-6.08,0.67-9.12
			c-0.03-7.98-1.44-15.95-4.42-23.36c-1.29-3.21-2.82-6.31-4.58-9.28c-0.89-1.49-3.11-0.49-2.74,1.16
			c1.69,7.58,3.12,15.21,4.29,22.89c0.93,6.14,1.48,12.32,2.32,18.47c0.19,1.35,0.34,3.1,2.04,3.27
			C503.65,186.38,503.64,183.38,501.73,183.19z"/>
	</g>
</g>
<g>
	<g>
		<path d="M607.89,242.53c0-3.52,0-7.03,0-10.55c0-0.81-0.69-1.5-1.5-1.5c-0.81,0-1.5,0.69-1.5,1.5c0,3.52,0,7.03,0,10.55
			c0,0.81,0.69,1.5,1.5,1.5C607.2,244.03,607.89,243.34,607.89,242.53L607.89,242.53z"/>
	</g>
</g>
<g>
	<g>
		<path d="M377.1,87.75c9.05-0.66,18.17-0.34,27.14,1.02c1.89,0.29,2.7-2.6,0.8-2.89c-9.25-1.4-18.6-1.81-27.94-1.13
			C375.18,84.89,375.17,87.89,377.1,87.75L377.1,87.75z"/>
	</g>
</g>
<g>
	<g>
		<path d="M485.86,128.88c-1.68-3.47-4.81-6.12-8.44-7.34c-0.74-0.25-1.67,0.29-1.85,1.05c-0.19,0.83,0.25,1.58,1.05,1.85
			c0.2,0.07,0.4,0.14,0.59,0.21c0.16,0.06,0.2,0.06,0.01,0c0.1,0.03,0.22,0.09,0.31,0.14c0.38,0.18,0.76,0.37,1.12,0.58
			c0.35,0.2,0.68,0.42,1.01,0.66c0.08,0.06,0.15,0.11,0.23,0.17c0.31,0.23-0.24-0.2,0.06,0.05c0.16,0.13,0.32,0.27,0.48,0.41
			c0.3,0.27,0.59,0.55,0.86,0.84c0.14,0.15,0.28,0.31,0.42,0.47c0.06,0.07,0.12,0.15,0.18,0.22c0.04,0.05,0.3,0.33,0.05,0.06
			c0.55,0.59,0.96,1.43,1.31,2.15c0.34,0.71,1.41,0.95,2.05,0.54C486.05,130.47,486.23,129.64,485.86,128.88L485.86,128.88z"/>
	</g>
</g>
<g>
	<g>
		<path d="M568.04,128.59c8.24,14.54,15.54,29.59,21.83,45.07c0.72,1.77,3.62,0.99,2.89-0.8c-6.38-15.72-13.76-31.02-22.13-45.79
			C569.68,125.39,567.09,126.9,568.04,128.59L568.04,128.59z"/>
	</g>
</g>
<g>
	<g>
		<path d="M321.46,189.26c0.55-4.03,2.17-7.72,3.86-11.38c1.77-3.84,3.6-7.66,5.48-11.45c3.72-7.51,7.64-14.92,11.75-22.23
			c0.95-1.68-1.64-3.2-2.59-1.51c-4.19,7.44-8.18,15-11.97,22.66c-1.87,3.79-3.7,7.61-5.47,11.46c-1.72,3.74-3.4,7.55-3.96,11.67
			c-0.11,0.81,0.2,1.6,1.05,1.85C320.31,190.51,321.35,190.06,321.46,189.26L321.46,189.26z"/>
	</g>
</g>
<path class="st14" d="M314.29,266.59c-1.18,3.76-3.06,11.56-1,21c1.38,6.34,4.03,11.08,6,14"/>
<path class="st15" d="M415.29,1483.59c0,0-9.49,47.39-6,99c3.31,49.02,22.2,90.39,25,120c1.24,25.38,1.14,49.01-4,66
	c-8.09,5.12-31.96,18.74-64.52,16.43c-25.88-1.84-44.29-12.81-52.48-18.43c-1.56-6.42-3.46-16.11-4-28c-0.9-19.88,2.55-34.07,8-57
	c2.99-12.58,7.85-33.18,15-64c1.77-44.7,0.48-87.89-5-129C354.79,1494.57,384.43,1491.64,415.29,1483.59z"/>
<path class="st16" d="M420.29,1711.59c-26.14-29.43-87-20-97,1"/>
<path class="st16" d="M310.29,1749.59c40.99,18.4,81.99,18.89,123,1"/>
<path class="st15" d="M518.29,1483.59c1.48,21.25,2.61,43.26,3.28,66.01c0.56,18.83,0.78,37.17,0.72,54.99
	c-7.7,32.51-15.4,65.01-23.09,97.52c0,0-1.14,49.01,4,66c8.09,5.12,31.96,18.74,64.52,16.43c25.88-1.84,44.29-12.81,52.48-18.43
	c1.56-6.42,3.46-16.11,4-28c0.9-19.88-2.55-34.07-8-57c-2.99-12.58-7.85-33.18-15-64c-0.53-21.14-0.64-43.11-0.22-65.85
	c0.49-26.29,1.65-51.55,3.31-75.67c-6.46,4.51-20.66,13.14-40.83,15.28C542.02,1493.14,525.48,1486.84,518.29,1483.59z"/>
<path class="st16" d="M513.2,1711.11c26.14-29.43,87-20,97,1"/>
<path class="st16" d="M623.2,1749.11c-40.99,18.4-81.99,18.89-123,1"/>
<g>
	<path class="st17" d="M406.34,1624.76c2.36,16.01,5.38,31.92,9.07,47.67"/>
	<g>
		<path class="st18" d="M402,1625.96c2.36,16.01,5.39,31.91,9.07,47.67c0.54,2.29,3.29,3.87,5.54,3.14c2.4-0.78,3.72-3.08,3.14-5.54
			c-3.68-15.76-6.7-31.66-9.07-47.67c-0.35-2.34-3.42-3.83-5.54-3.14C402.59,1621.25,401.63,1623.46,402,1625.96L402,1625.96z"/>
	</g>
</g>
<g>
	<path class="st17" d="M592.42,1629.4c5.41,16.13,10.82,32.27,16.23,48.4"/>
	<g>
		<path class="st18" d="M588.08,1630.6c5.41,16.13,10.82,32.27,16.23,48.4c0.75,2.23,3.13,3.92,5.54,3.14
			c2.22-0.72,3.94-3.15,3.14-5.54c-5.41-16.13-10.82-32.27-16.23-48.4c-0.75-2.23-3.13-3.92-5.54-3.14
			C589.01,1625.78,587.28,1628.21,588.08,1630.6L588.08,1630.6z"/>
	</g>
</g>
<g>
	<path class="st17" d="M380.92,1704.07c6.8,2.25,13.24,5.54,19.04,9.73"/>
	<g>
		<path class="st18" d="M379.72,1708.4c0.86,0.29,1.72,0.59,2.57,0.91c0.43,0.16,0.85,0.32,1.27,0.49c0.21,0.08,1.63,0.65,0.5,0.19
			c1.58,0.64,3.12,1.39,4.63,2.17c3.13,1.61,6.14,3.46,9,5.52c1.92,1.38,5.09,0.4,6.16-1.61c1.23-2.33,0.43-4.68-1.61-6.16
			c-6.13-4.41-12.95-7.8-20.12-10.19c-2.24-0.74-5.02,0.86-5.54,3.14C376.01,1705.35,377.33,1707.61,379.72,1708.4L379.72,1708.4z"
			/>
	</g>
</g>
<g>
	<path class="st17" d="M568.79,1707.04c9.57,0.06,19.09,3.5,26.49,9.56"/>
	<g>
		<path class="st18" d="M568.79,1711.54c1.13,0.01,2.25,0.06,3.37,0.16c0.28,0.02,0.56,0.06,0.84,0.08c0.38,0.04,0.53,0.06,0.06,0
			c0.56,0.07,1.11,0.17,1.67,0.27c2.28,0.41,4.54,1.01,6.72,1.79c0.53,0.19,1.05,0.41,1.58,0.6c0.68,0.24-0.56-0.26,0.09,0.03
			c0.26,0.11,0.51,0.23,0.77,0.34c1.02,0.47,2.03,0.98,3.01,1.53c0.98,0.55,1.94,1.14,2.88,1.76c0.47,0.31,0.93,0.63,1.38,0.97
			c0.06,0.04,0.73,0.54,0.39,0.28c-0.37-0.29,0.56,0.45,0.54,0.43c1.83,1.48,4.6,1.92,6.36,0c1.51-1.64,1.95-4.78,0-6.36
			c-8.43-6.84-18.78-10.75-29.67-10.88c-2.35-0.03-4.61,2.09-4.5,4.5C564.4,1709.5,566.26,1711.51,568.79,1711.54L568.79,1711.54z"
			/>
	</g>
</g>
<line class="st19" x1="471.29" y1="282.59" x2="458.29" y2="290.59"/>
<line class="st19" x1="472.29" y1="287.59" x2="451.29" y2="300.59"/>
<line class="st19" x1="477.29" y1="290.59" x2="450.29" y2="307.59"/>
<line class="st19" x1="479.29" y1="296.59" x2="451.29" y2="313.59"/>
<line class="st19" x1="482.29" y1="300.59" x2="453.29" y2="317.59"/>
<path class="st20" d="M465.29,327.09c-0.17,4-0.33,8-0.5,12c-1.83-1.67-3.67-3.33-5.5-5"/>
<g>
	<g>
		<path class="st11" d="M371.22,316.38c-0.61,0.82-1.22,1.63-1.83,2.45c-0.11,0.17-0.17,0.36-0.18,0.56c-0.04,0.2-0.04,0.4,0.03,0.6
			c0.1,0.35,0.36,0.73,0.69,0.9c0.35,0.18,0.77,0.28,1.16,0.15c0.12-0.05,0.24-0.1,0.36-0.15c0.23-0.13,0.4-0.31,0.54-0.54
			c0.61-0.82,1.22-1.63,1.83-2.45c0.11-0.17,0.17-0.36,0.18-0.56c0.04-0.2,0.04-0.4-0.03-0.6c-0.1-0.35-0.36-0.73-0.69-0.9
			c-0.35-0.18-0.77-0.28-1.16-0.15c-0.12,0.05-0.24,0.1-0.36,0.15C371.53,315.98,371.35,316.16,371.22,316.38L371.22,316.38z"/>
	</g>
</g>
<g>
	<g>
		<path class="st11" d="M375.17,319.12c-0.2,0.31-0.41,0.61-0.61,0.92c-0.11,0.17-0.17,0.36-0.18,0.56c-0.04,0.2-0.04,0.4,0.03,0.6
			c0.05,0.2,0.14,0.37,0.27,0.51c0.11,0.16,0.25,0.29,0.42,0.39c0.12,0.05,0.24,0.1,0.36,0.15c0.27,0.07,0.53,0.07,0.8,0
			c0.12-0.05,0.24-0.1,0.36-0.15c0.23-0.13,0.4-0.31,0.54-0.54c0.2-0.31,0.41-0.61,0.61-0.92c0.11-0.17,0.17-0.36,0.18-0.56
			c0.04-0.2,0.04-0.4-0.03-0.6c-0.05-0.2-0.14-0.37-0.27-0.51c-0.11-0.16-0.25-0.29-0.42-0.39c-0.12-0.05-0.24-0.1-0.36-0.15
			c-0.27-0.07-0.53-0.07-0.8,0c-0.12,0.05-0.24,0.1-0.36,0.15C375.48,318.71,375.3,318.89,375.17,319.12L375.17,319.12z"/>
	</g>
</g>
<g>
	<g>
		<path class="st11" d="M544.66,318.96c0,0.51,0,1.02,0,1.53c-0.01,0.21,0.04,0.4,0.13,0.58c0.06,0.19,0.16,0.35,0.31,0.48
			c0.14,0.15,0.3,0.25,0.48,0.31c0.18,0.09,0.37,0.14,0.58,0.13c0.13-0.02,0.27-0.04,0.4-0.05c0.25-0.07,0.47-0.2,0.66-0.39
			c0.27-0.29,0.44-0.65,0.44-1.06c0-0.51,0-1.02,0-1.53c0.01-0.21-0.04-0.4-0.13-0.58c-0.06-0.19-0.16-0.35-0.31-0.48
			c-0.14-0.15-0.3-0.25-0.48-0.31c-0.18-0.09-0.37-0.14-0.58-0.13c-0.13,0.02-0.27,0.04-0.4,0.05c-0.25,0.07-0.47,0.2-0.66,0.39
			C544.83,318.2,544.66,318.56,544.66,318.96L544.66,318.96z"/>
	</g>
</g>
<g>
	<g>
		<path class="st11" d="M549.21,317.78c0.01,0.01,0.02,0.03,0.04,0.04c-0.08-0.1-0.16-0.2-0.23-0.3c0.24,0.32,0.44,0.66,0.6,1.03
			c-0.05-0.12-0.1-0.24-0.15-0.36c0.17,0.4,0.28,0.82,0.34,1.26c-0.02-0.13-0.04-0.27-0.05-0.4c0.05,0.38,0.05,0.76,0.01,1.13
			c-0.04,0.36,0.2,0.82,0.44,1.06c0.26,0.26,0.69,0.46,1.06,0.44c0.39-0.02,0.79-0.14,1.06-0.44c0.08-0.1,0.16-0.2,0.23-0.3
			c0.14-0.23,0.2-0.49,0.2-0.76c0.08-0.75,0-1.53-0.21-2.25c-0.12-0.4-0.28-0.8-0.47-1.18c-0.2-0.4-0.47-0.74-0.74-1.09
			c-0.22-0.28-0.72-0.44-1.06-0.44c-0.37,0-0.81,0.16-1.06,0.44c-0.26,0.29-0.46,0.66-0.44,1.06c0.02,0.13,0.04,0.27,0.05,0.4
			C548.9,317.37,549.03,317.59,549.21,317.78L549.21,317.78z"/>
	</g>
</g>
<path class="st13" d="M450.29,171.59c-12.82,8.94-94,84-101,114c-2,5,9.6,31.37,11,31c0.08-0.02,0.11-0.11,0.12-0.15
	c0.66-2.62-54.89-18.44-44.12-91.85"/>
<path class="st21" d="M251.29,900.59c-9.32-22.98-46.89-35.47-58-25c-6.56,6.18-0.38,17.04,7.5,51.5
	c14.68,64.16,7.8,94.41,28.5,104.5c1.9,0.93,10.53,5.13,16.5,1.5c13.15-8-7.14-41.56,0.5-91.5
	C249.82,918.49,256.15,912.56,251.29,900.59z"/>
<path class="st15" d="M245.29,1040.59c0,0,27,14,33,14c1.71-1.44,2.01-4.02,1.86-6.32c0,0,0.03-2.36-0.86-4.68c-1.55-4-13-9-13-9
	c-7.72-3.34-10.71-3.63-13-7c-1.45-2.13-2-6-2-6"/>
<path class="st15" d="M189.79,879.09c0.73,21.69-10.53,95.94-14,96c0,0,20.29,46.84,28,71l71,19c0.47-2,0.59-3.84,0.5-5.5
	c-0.9-16.92-24.34-26.9-27-28"/>
<path class="st15" d="M251.29,912.59c4,29-1,61-1,61c1.23,15.69,2.5,31.33,8,41c-1.73,6.5-7.11,7.99-15,6
	c-6.77-5.51-11.2-22.27-15-42c0,0-19.21-9.78-19.43-9.37c-0.02,0.04,0.12,0.16,0.43,0.37"/>
<path class="st16" d="M204.29,980.59c7.12,15,13.28,30,18,45"/>
<path class="st21" d="M678.3,912.94c9.32-22.98,46.89-35.47,58-25c6.56,6.18,0.38,17.04-7.5,51.5c-14.68,64.16-7.8,94.41-28.5,104.5
	c-1.9,0.93-10.53,5.13-16.5,1.5c-13.15-8,7.14-41.56-0.5-91.5C679.77,930.84,673.45,924.91,678.3,912.94z"/>
<path class="st15" d="M684.3,1052.94c0,0-27,14-33,14c-1.71-1.44-2.01-4.02-1.86-6.32c0,0-0.03-2.36,0.86-4.68c1.55-4,13-9,13-9
	c7.72-3.34,10.71-3.63,13-7c1.45-2.13,2-6,2-6"/>
<path class="st15" d="M739.8,891.44c-0.73,21.69,10.53,95.94,14,96c0,0-20.29,46.84-28,71l-71,19c-0.47-2-0.59-3.84-0.5-5.5
	c0.9-16.92,24.34-26.9,27-28"/>
<path class="st15" d="M678.3,924.94c-4,29,1,61,1,61c-1.23,15.69-2.5,31.33-8,41c1.73,6.5,7.11,7.99,15,6
	c6.77-5.51,11.2-22.27,15-42c0,0,19.21-9.78,19.43-9.37c0.02,0.04-0.12,0.16-0.43,0.37"/>
<path class="st15" d="M725.3,992.94c-7.12,15-13.28,30-18,45"/>
<path class="st8" d="M519.14,458.94c40.48,9.2,80.96,18.4,121.43,27.6c7.75,21.46,10.98,43.27,13.71,65.05
	c13.88,110.47,61.48,208.21,82,297c11.61,29.33,19.3,58.66,18,88c-25.1,45.84-57.16,44.47-91,31c-29-130.67-58-261.33-87-392"/>
<path class="st8" d="M418.14,459.94c-35.62,7.55-71.24,15.1-106.85,22.66c-7.82,24.9-15.49,50.24-23,76
	c-17.62,60.47-33.2,119.53-47,177c-13.65,31.92-27.04,66.91-39.39,104.86c-8.34,25.65-15.49,50.42-21.61,74.14
	c3.41,6.84,14.91,27.7,40,39c15.21,6.85,29.12,7.34,37,7c36.33-132,72.67-264,109-396"/>
<g>
	<path class="st10" d="M335.45,516.59c16.27,41.26,6.31,236-3.15,301c-0.77,3.51,2.1,23,2.1,23s10.62,14.81,13.66,17
		c33.41,4.86,71.9,8.47,114.56,9c48.7,0.61,92.23-2.93,129.28-8c4.37-4.47,6.95-8.99,8.41-12c3.3,0.2-8.07-33.01-11.56-60
		c-1.45-11.19,7.87-18.13,8.41-22c1.55-11.2-0.33-36.69-0.61-86.55c-0.1-17.52-4-41.89-3.8-77.96c0.12-21.67,1.52-53.06,8.61-91.49"
		/>
	<path d="M335.56,516.55c4.28,11.9,5.31,24.64,6.53,37.13c4.96,75.4,0.69,151.18-5.43,226.39c-1.17,12.54-2.46,25.07-4.24,37.54
		c-0.39,3.81,0.28,7.69,0.62,11.5c0.37,3.76,1.02,7.88,1.47,11.42c2.12,2.95,4.29,5.88,6.5,8.77c2.18,2.8,4.53,5.95,7.07,8.22
		c40.34,5.85,81.11,8.97,121.88,8.86c40.59-0.06,81.96-2.87,121.84-7.9c3.51-3.45,6.25-7.77,8.53-12c0.35,0.02,0.44-0.55,0.46-0.94
		c-0.4-6.65-2.61-13.09-4.03-19.58c-1.71-6.93-3.39-13.86-4.87-20.84c-1.11-5.24-2.1-10.5-2.88-15.79
		c-1.14-5.3-0.33-10.9,2.52-15.53c1.6-3.15,4.41-5.71,5.49-9.09c0.87-7.06,0.6-14.24,0.55-21.35c-0.54-20.71-0.97-43.58-1.13-64.19
		c-0.02-7.13-0.56-14.25-1.1-21.36c-4.7-49.73-3.36-100.08,5.92-149.22c0,0,0.23,0.04,0.23,0.04
		c-9.28,49.12-10.61,99.45-5.91,149.16c1.81,21.33,0.99,42.78,1.77,64.17c0.16,7.64,0.63,24.73,0.53,32.1
		c-0.04,3.57-0.13,7.14-0.61,10.69c-0.17,0.92-0.65,1.7-1.11,2.47c-1.44,2.25-3.1,4.36-4.41,6.7c-2.85,4.62-3.61,10.11-2.49,15.38
		c0.77,5.29,1.77,10.55,2.87,15.78c2.19,10.47,4.94,20.82,7.37,31.24c0.6,3.26,1.82,6.6,1.41,9.94c-0.06,0.22-0.28,0.51-0.59,0.48
		l0.11-0.07c-2.13,4.43-4.97,8.53-8.4,12.06c-40.36,5.97-81.26,8.62-122.07,8.21c-40.78-0.39-81.53-3.4-121.9-9.24
		c-2.81-2.36-4.91-5.42-7.21-8.26c-2.23-2.9-4.45-5.82-6.56-8.81c-0.92-6.69-1.89-13.38-2.21-20.13c-0.04-0.95-0.04-1.97,0.11-2.91
		c1.79-12.46,3.08-24.99,4.24-37.53c6.12-75.2,10.39-150.97,5.43-226.35c-1.22-12.47-2.25-25.21-6.52-37.07
		C335.34,516.64,335.56,516.55,335.56,516.55L335.56,516.55z"/>
</g>
<path class="st10" d="M403.29,516.59c-3.57-10.65-16.34-15.55-26-14c-16.11,2.59-27.13,23.73-21,35c6,11.04,28.53,12.72,40,2
	C401.53,534.7,406.28,525.52,403.29,516.59z"/>
<path class="st10" d="M590.76,507.98c-3.39-11.02-17.16-16.07-26.97-15.89c-22.05,0.42-41.46,27.71-36,40
	c5.67,12.76,40.77,15.35,55.97-1.11C584.63,530.04,594.25,519.31,590.76,507.98z"/>
<path class="st8" d="M584.29,858.59c4.6,14.24,9.07,29.14,13.31,44.68c5.8,21.27,10.65,41.76,14.69,61.32c0,0-8,311-8,311
	c3,7.33,6,14.67,9,22c-3.13,12.85-4.95,17.99-6,19c-0.04,0.04-0.19,0.17-0.3,0.4c-0.7,1.48,1.53,4.08,4.3,6.6c-1.33,4-2.67,8-4,12
	c-8.02,17.28-5.97,45.13-2,75c6.35,19.76,10.82,45.32,2,61c-13.49,23.96-64.36,23.78-88,13c-3.01-2.3-18-30-18-30s11.96-34.03,14-36
	c0,0-2-56-9-72c-1.86-1.94-8.12-7.83-7-14c0.64-3.51,3.99-8.99,4-9c-9.23-7.08-9.16-16.03-9-25c3-11,6-22,9-33
	c-20-118-37-243-37-243c-17.67-0.67-35.33-1.33-53-2"/>
<path class="st8" d="M352.29,857.59c-9,35.33-18,70.67-27,106c-0.47,103.5,5.73,207.29,10,311c-2,8.67-4,17.33-6,26
	c3.67,7.67,7.33,15.33,11,23l-7.99,43.65l-3.01,37.35l-16,23l7,26l-7,17c0,0,6.23,12.56,9,15c19.44,17.09,88.67-1.09,92.51-2.13
	c4.16-10.29,8.32-20.58,12.49-30.87c-2.83-11.71-5.66-23.42-8.49-35.13c-0.72-13.01,0.6-23.24,1.88-30
	c4.62-24.51,3.78-43.09,10.16-64.95c3.19-10.94,6.64-19.6,8.97-25.05c-3-11-9-33-9-33c8.82-40.4,16.84-83.9,23.37-130.26
	c5.49-38.99,9.42-76.28,12.12-111.61c21.34-0.84,32.01-1.51,32-2c-0.01-0.74-24.68-1.08-74-1"/>
<g>
	<path class="st22" d="M376.57,914.85c-0.95,11.6-1.9,23.2-2.86,34.79c-0.13,1.56-0.27,3.16-0.92,4.59
		c-1.24,2.72-3.46,4.14-4.01,4.51c-3.49,2.39-16.83,15.24-37.5,35.85"/>
	<g>
		<path class="st22" d="M375.07,914.85c-0.73,8.95-1.47,17.89-2.2,26.84c-0.18,2.24-0.37,4.47-0.55,6.71
			c-0.16,1.96-0.19,4.02-1.18,5.78c-0.9,1.61-2.25,2.6-3.68,3.68c-2.43,1.84-4.66,3.96-6.89,6.04c-3.92,3.65-7.76,7.37-11.59,11.11
			c-6.29,6.13-12.52,12.32-18.74,18.52c-1.37,1.36,0.75,3.49,2.12,2.12c9.75-9.72,19.5-19.48,29.55-28.89
			c2.33-2.18,4.66-4.42,7.18-6.39c-0.32,0.25,0.13-0.1,0.25-0.18c0.2-0.14,0.4-0.27,0.6-0.41c1.08-0.77,2.05-1.64,2.87-2.69
			c2.55-3.28,2.42-7.46,2.75-11.41c0.84-10.27,1.69-20.54,2.53-30.82C378.23,912.93,375.23,912.94,375.07,914.85L375.07,914.85z"/>
	</g>
</g>
<g>
	<path class="st22" d="M553.93,905.9c-0.05,8.17-0.09,16.34-0.14,24.51c-0.01,1.35,0.03,2.82,0.88,3.86
		c0.69,0.84,1.77,1.22,2.79,1.57c12.15,4.1,24.29,8.21,36.44,12.31"/>
	<g>
		<path class="st22" d="M552.43,905.9c-0.03,4.82-0.05,9.64-0.08,14.46c-0.01,2.45-0.03,4.9-0.04,7.35
			c-0.01,1.94-0.28,4.15,0.39,6.02c0.68,1.88,2.24,2.79,4.03,3.43c2.31,0.83,4.65,1.57,6.97,2.36c4.65,1.57,9.31,3.14,13.96,4.72
			c5.28,1.79,10.57,3.57,15.85,5.36c1.83,0.62,2.62-2.28,0.8-2.89c-8.76-2.96-17.51-5.92-26.26-8.87c-2.13-0.72-4.26-1.44-6.39-2.16
			c-1.1-0.37-2.21-0.75-3.31-1.12c-0.77-0.26-1.76-0.48-2.36-1.08c-1.21-1.2-0.68-3.99-0.67-5.52c0.01-2.21,0.03-4.41,0.04-6.62
			c0.03-5.15,0.06-10.3,0.09-15.44C555.44,903.97,552.44,903.97,552.43,905.9L552.43,905.9z"/>
	</g>
</g>
<path class="st23" d="M343.29,1032.59c-2.46,55.32,2.87,127.32,16,216"/>
<path class="st23" d="M362.29,1317.59c-6.28,42.67-9.62,85.33-10,128"/>
<g>
	<path class="st22" d="M587.29,1039.59c-0.67,92.67-1.33,185.33-2,278"/>
	<path class="st22" d="M587.35,1039.59c-0.03,90.33-0.87,187.61-2,278c0,0-0.11,0-0.11,0
		C585.52,1227.25,585.76,1129.65,587.35,1039.59L587.35,1039.59z"/>
</g>
<path class="st23" d="M591.29,1357.59c-3.38,36.31-6.95,69.93-11,97c-11.19,15.69-26.03,22.69-42,27"/>
<g>
	<path d="M582.73,778.83c-1.65,11.3-7.11,21.24-13.52,30.45c-2.22,3-4.56,5.93-7.48,8.55l-0.88-0.47c2.36-13.31,10.8-30.01,21-39
		C581.85,778.35,582.73,778.83,582.73,778.83L582.73,778.83z"/>
</g>
<g>
	<path class="st22" d="M388.29,562.59c16.06,82.14,33.1,158.71,53,219"/>
	<path class="st22" d="M388.41,562.57c14.04,69,28.48,138.06,48.81,205.53c1.35,4.5,2.79,8.97,4.18,13.45l-0.22,0.07
		c-11.99-35.63-21.5-72.05-30.01-108.65C403,636.47,394.57,599.03,388.41,562.57L388.41,562.57z"/>
</g>
<g>
	<path class="st22" d="M366.29,790.59c24.28,33.45,56.92,50.17,92,62"/>
	<path class="st22" d="M366.39,790.52c21.57,29.21,51.72,47.18,85.32,59.54c0,0,6.63,2.41,6.63,2.41l-0.08,0.23l-6.7-2.23
		c-24.43-8.38-48.1-20.51-66.89-38.47c-6.85-6.48-13.02-13.67-18.47-21.34L366.39,790.52L366.39,790.52z"/>
</g>
<line class="st23" x1="528.29" y1="576.59" x2="487.29" y2="680.59"/>
<path class="st3" d="M522.29,448.59"/>
<path class="st3" d="M522.29,439.59"/>
<path class="st3" d="M526.29,438.59"/>
<g>
	<path class="st22" d="M571.01,759.3c-14.62,6.33-29.77,11.44-45.24,15.26c3.1,8.59,4.71,17.72,4.75,26.85"/>
	<g>
		<path class="st22" d="M570.25,758c-14.51,6.26-29.54,11.3-44.88,15.11c-0.74,0.18-1.32,1.09-1.05,1.85
			c3.04,8.5,4.63,17.42,4.7,26.45c0.01,1.93,3.01,1.93,3,0c-0.07-9.28-1.68-18.51-4.81-27.25c-0.35,0.62-0.7,1.23-1.05,1.85
			c15.6-3.87,30.84-9.05,45.6-15.41C573.54,759.83,572.01,757.25,570.25,758L570.25,758z"/>
	</g>
</g>
<g>
	<path class="st22" d="M498.77,702.08c9.99,0,19.97,0,29.96,0"/>
	<g>
		<path class="st22" d="M498.77,703.58c9.99,0,19.97,0,29.96,0c1.93,0,1.93-3,0-3c-9.99,0-19.97,0-29.96,0
			C496.84,700.58,496.83,703.58,498.77,703.58L498.77,703.58z"/>
	</g>
</g>
<g>
	<path class="st22" d="M333.98,536.39c-7.78,28.37-12.88,57.47-15.22,86.79"/>
	<g>
		<path class="st22" d="M332.53,535.99c-6.08,22.23-10.53,44.88-13.32,67.76c-0.79,6.46-1.44,12.94-1.96,19.43
			c-0.15,1.92,2.85,1.91,3,0c1.83-22.78,5.32-45.42,10.45-67.69c1.44-6.27,3.02-12.5,4.72-18.7
			C335.94,534.92,333.04,534.13,332.53,535.99L332.53,535.99z"/>
	</g>
</g>
<g>
	<path class="st22" d="M251.09,743.62c-0.09,2.37,0.64,4.68,1.37,6.93c2.78,8.64,5.56,17.28,8.35,25.92"/>
	<g>
		<path class="st22" d="M249.59,743.62c-0.04,2.79,0.81,5.41,1.65,8.04c0.91,2.83,1.82,5.65,2.73,8.48
			c1.8,5.58,3.59,11.15,5.39,16.73c0.59,1.83,3.49,1.05,2.89-0.8c-1.75-5.42-3.49-10.84-5.24-16.26c-0.86-2.67-1.72-5.34-2.58-8.01
			c-0.86-2.66-1.89-5.35-1.85-8.18C252.62,741.69,249.62,741.69,249.59,743.62L249.59,743.62z"/>
	</g>
</g>
<g>
	<path class="st22" d="M718.79,859.41c-14.49,12.7-29.32,25.83-38.15,42.95c-0.34,0.66-0.66,1.52-0.18,2.1
		c0.32,0.39,0.88,0.47,1.38,0.52c1.55,0.15,3.1,0.3,4.66,0.46"/>
	<g>
		<path class="st22" d="M717.73,858.35c-13.71,12.02-27.77,24.41-36.87,40.46c-0.99,1.75-3.15,4.58-1.58,6.56
			c0.7,0.88,1.74,1.02,2.79,1.13c1.47,0.15,2.95,0.29,4.42,0.43c1.92,0.19,1.91-2.81,0-3c-1.09-0.11-2.17-0.21-3.26-0.32
			c-0.36-0.04-1.22,0.06-1.5-0.16c0,0,0.31-0.56,0.5-0.9c0.95-1.81,1.98-3.58,3.06-5.32c2.14-3.41,4.5-6.67,7.05-9.79
			c5.17-6.32,10.99-12.08,16.99-17.6c3.46-3.18,6.99-6.28,10.52-9.37C721.31,859.2,719.18,857.08,717.73,858.35L717.73,858.35z"/>
	</g>
</g>
<g>
	<path class="st22" d="M629.37,511.01c-8.04,8.9-15.93,17.94-23.65,27.12"/>
	<g>
		<path class="st22" d="M628.31,509.95c-8.04,8.9-15.93,17.94-23.65,27.12c-1.24,1.47,0.88,3.6,2.12,2.12
			c7.72-9.18,15.6-18.22,23.65-27.12C631.73,510.64,629.61,508.52,628.31,509.95L628.31,509.95z"/>
	</g>
</g>
<g>
	<path class="st22" d="M259.06,797.13c-0.2,5.81,0.51,11.65,2.12,17.24c0.32,1.12,0.72,2.29,1.63,3.02
		c0.79,0.63,1.83,0.81,2.83,0.95c3.7,0.51,7.44,0.67,11.17,0.48"/>
	<g>
		<path class="st22" d="M257.56,797.13c-0.1,3.32,0.08,6.64,0.54,9.93c0.42,3.03,0.94,6.27,2.11,9.11c0.49,1.19,1.23,2.26,2.4,2.87
			c1.3,0.68,2.83,0.79,4.26,0.96c3.3,0.39,6.62,0.48,9.93,0.32c1.92-0.09,1.93-3.09,0-3c-2.9,0.14-5.81,0.09-8.7-0.19
			c-1.21-0.12-2.58-0.15-3.73-0.58c-1.07-0.4-1.41-1.41-1.71-2.43c-1.63-5.51-2.29-11.27-2.11-17
			C260.63,795.2,257.63,795.2,257.56,797.13L257.56,797.13z"/>
	</g>
</g>
<path class="st24" d="M623.86,153.01c-50.91-5.92-110.14-9.71-176-8.28c-55,1.19-104.98,5.81-149,11.94
	c-2.45,24.25-2.57,54.21,4,87.71c17.36,88.47,70.92,148.04,99.54,175.5c3.64,2.8,26.99,20.18,64,19.54
	c32.81-0.57,53.59-14.9,58-18.09c21.04-21.43,43.99-50.04,62.46-86.5c23.35-46.09,29.69-85.3,33-106.89
	C624.46,197.94,624.74,172.2,623.86,153.01z"/>
<path class="st10" d="M282.36,154.43c14.91,145.93,50.62,192.23,47,180c-5.98-20.19-27.45-104.7,12-148
	c36.82-40.42,118.07-56.56,179-37c17.11,5.49,45.63,14.65,65,41c35.71,48.58,14.9,119.59,18,118c10.07-5.17,40.43-30.09,28-160l0,0
	c-2.37-12.26-7.99-29.94-22-45c-9.29-9.98-20.05-16.43-26-20c0,0-10.97-6.58-23-11.14c-24.71-9.39-55.88-7.7-85-6.85
	c-71.23,2.08-85.13-2.14-110.66,9.06c-16.96,7.44-31.66,18.43-32.34,18.94c-13.75,10.38-23.5,21.23-30,29.59
	C295.7,133.49,289.03,143.96,282.36,154.43z"/>
<path class="st3" d="M630.14,72.94"/>
<path class="st25" d="M519.14,460.94c11.67,2.67,23.33,5.33,35,8c-11.67,19-23.33,38-35,57c-16.12,19.24-39.13,22.57-66,17
	c-16.03-0.62-30.02-9.73-43-23c-12.59-10.62-21.9-29.55-31-49c12.33-3,27-8,37-9c1.96,14.23,6.69,28.69,22,44
	c3.9,1.62,29.25,11.68,52-1c1.94-1.08,10.72-6.15,18.21-16.54C516.24,477.44,518.42,466.5,519.14,460.94z"/>
<rect x="374.14" y="842.94" class="st10" width="200" height="35"/>
<path class="st10" d="M354.14,480.94c-4.18-2.8-7.09-8.99-5-13c2.53-4.84,11.42-4.69,17-2c3.79,1.83,8.77,6.13,8,10
	C373.1,481.24,361.28,485.7,354.14,480.94z"/>
<g>
	<path d="M581.28,497.28c-16.55,13.03-32.66,26.63-48.28,40.77"/>
</g>
<g>
	<path class="st10" d="M372.05,506.52c4.25,6.88,9.5,13.15,15.53,18.53"/>
</g>
<path class="st10" d="M557.36,477.43h30v-8c-8.67-1-17.33-2-26-3C560.03,470.09,558.7,473.76,557.36,477.43z"/>
<path class="st26" d="M508.17,375.26l-82.91,1.55c-7.95,1.53,11.95,29.49,48,25.19c25-2.98,40.45-23.45,36.61-26.32
	C509.35,375.31,508.17,375.26,508.17,375.26z"/>
<path class="st10" d="M354.36,628.43h219v-140c0.1-2.2,0.54-18.23-12-29c-2.51-2.15-10.37-8.91-20-8c-15.67,1.48-16.27,21.4-39,35
	c-5.37,3.21-17.59,9.43-33,9c-14.5-0.41-25.09-6.52-36-13c-25-14.84-27.15-26.93-39-28c-8.89-0.8-22.02,4.7-40,34
	C354.36,535.09,354.36,581.76,354.36,628.43z"/>
<path class="st27" d="M345.36,350.43c3.7,9.28,39.33,97.07,82,129c6.88,5.15,19.7,14.74,38,16c0,0,17.37,1.2,37-9
	c29.33-15.23,60.27-67.33,79-140"/>
<path class="st28" d="M506.86,434.93c-22.32,24.48-73.81,24.93-94,2c-32.47-36.89,17.25-132.94,51-132
	C496.12,305.83,542.26,396.1,506.86,434.93z"/>
<g>
	<g>
		<path d="M508.74,452.74c7.45,15.22,20.18,26.79,32.1,38.46c2.87,2.81,5.7,5.65,8.42,8.6c1.31,1.42,2.59,2.86,3.83,4.34
			c0.62,0.74,1.23,1.48,1.83,2.23c1.21,1.5,0.08,0.11-0.13-0.17c0.43,0.58,0.86,1.15,1.27,1.73c2.49,3.47,4.72,7.11,6.69,10.89
			c0.95,1.82,1.82,3.68,2.68,5.55c0.18,0.39,0.78,1.86-0.02-0.08c0.17,0.41,0.33,0.82,0.5,1.23c0.49,1.23,0.96,2.47,1.4,3.71
			c1.44,4.03,2.63,8.15,3.6,12.32c0.47,2.02,0.89,4.05,1.26,6.09c0.19,1.02,0.36,2.05,0.52,3.07c0.09,0.59,0.17,1.18,0.26,1.76
			c-0.15-0.93-0.16-1.29-0.02-0.14c1.05,8.98,1.27,18.01,0.73,27.03c-0.14,2.37-0.33,4.73-0.56,7.09c-0.12,1.18-0.24,2.36-0.38,3.53
			c-0.08,0.67-0.16,1.34-0.24,2.02c-0.1,0.79-0.19,1.35-0.03,0.23c-0.74,5.03-1.59,10.04-2.61,15.03c-2,9.83-4.51,19.55-7.22,29.2
			c-5.38,19.17-11.68,38.13-14.85,57.83c-3.34,20.75-4.08,41.71-3.77,62.69c0.28,19.48,0.33,39.28,2.81,58.62
			c1.27,9.94,3.08,19.79,6.59,29.2c3.48,9.33,8.23,17.91,13.77,26.17c5.07,7.57,10.52,14.9,15.28,22.68
			c2.43,3.98,4.7,8.06,6.81,12.22c0.98,1.94,1.93,3.9,2.85,5.88c0.46,0.99,0.9,1.98,1.34,2.98c0.19,0.43,0.37,0.85,0.56,1.28
			c1.19,2.73-0.41-1.11,0.21,0.5c3.32,8.58,6.31,17.2,8.48,26.15c1.06,4.38,1.96,8.8,2.7,13.25c0.18,1.07,0.34,2.15,0.5,3.23
			c0.31,2.06,0.06,0.39,0.01-0.02c0.08,0.62,0.16,1.23,0.23,1.85c0.28,2.32,0.51,4.64,0.7,6.96c0.36,4.5,0.55,9,0.58,13.51
			c0.04,5.49,4.8,10.76,10.5,10.5c5.66-0.25,10.54-4.61,10.5-10.5c-0.27-38.29-12.19-75.83-33.74-107.44
			c-5.23-7.66-10.76-15.14-15.39-23.19c-1.1-1.9-2.14-3.83-3.11-5.8c-0.56-1.13-1.09-2.27-1.61-3.43c-0.05-0.1-0.64-1.56-0.22-0.51
			c0.48,1.19-0.45-1.18-0.53-1.41c-1.69-4.45-3.02-9.03-4.07-13.67c-0.49-2.17-0.93-4.36-1.31-6.55c-0.19-1.1-0.37-2.2-0.53-3.31
			c-0.07-0.47-0.14-0.95-0.21-1.42c0.31,2.11-0.01-0.12-0.06-0.54c-0.58-4.78-0.97-9.59-1.25-14.4c-0.58-9.75-0.81-19.53-1.09-29.29
			c-0.57-20.37-0.74-40.81,1.45-61.1c0.15-1.37,0.31-2.74,0.48-4.11c0.01-0.07,0.22-1.76,0.08-0.65c-0.16,1.22,0.13-0.9,0.17-1.16
			c0.37-2.56,0.78-5.11,1.24-7.66c0.91-5.03,2.01-10.03,3.24-14.99c2.41-9.74,5.3-19.34,8.11-28.97
			c11.06-37.86,20.42-77.94,10.8-117.17c-4.42-18.01-13.02-34.38-25.37-48.19c-5.45-6.09-11.42-11.66-17.26-17.37
			c-2.95-2.89-5.87-5.81-8.67-8.85c-1.29-1.41-2.56-2.84-3.79-4.3c-0.61-0.73-1.2-1.48-1.8-2.21c1.58,1.9-0.44-0.6-0.81-1.12
			c-2.39-3.32-4.5-6.81-6.29-10.48c-2.42-4.95-9.84-6.68-14.37-3.77C507.44,441.64,506.15,447.45,508.74,452.74L508.74,452.74z"/>
	</g>
</g>
<g>
	<circle class="st29" cx="463.36" cy="418.43" r="61"/>
	<path d="M407.25,418.43c-2,32.21,23.05,61.29,56.12,60.43c23.57-0.13,45.7-16.05,52.94-38.5c14.47-45.15-28.57-85.72-72.63-69.46
		C423.72,377.82,408.11,396.82,407.25,418.43L407.25,418.43z M397.48,418.43c-2.04-37.44,27.5-71.46,65.88-70.87
		c38.08,0.16,69.06,32.84,66.38,70.87c-1.42,25.48-18.76,48.75-42.59,57.45C447.15,491.25,399.15,462.21,397.48,418.43
		L397.48,418.43z"/>
</g>
<circle class="st1" cx="463.86" cy="421.93" r="6"/>
<line class="st3" x1="429.82" y1="386.88" x2="450.91" y2="407.97"/>
<line class="st3" x1="447.36" y1="421.93" x2="412.36" y2="421.93"/>
<line class="st3" x1="464.86" y1="405.43" x2="464.86" y2="377.43"/>
<line class="st3" x1="464.86" y1="468.43" x2="464.86" y2="440.43"/>
<line class="st3" x1="429.98" y1="457.35" x2="451.08" y2="436.26"/>
<line class="st3" x1="477.98" y1="433.27" x2="499.08" y2="454.37"/>
<line class="st3" x1="477.98" y1="409.37" x2="499.08" y2="388.27"/>
<line class="st3" x1="516.36" y1="421.93" x2="481.36" y2="421.93"/>
<path class="st24" d="M589.86,196.93c-51.07-79.27-218.29-71.21-262,8c-44.86,81.3,54.71,211.65,70,207c3.89-1.18,0.94-10.68,6-31
	c7.89-31.69,31.98-76.55,58-76c29.57,0.62,51.54,59.71,55,69c9.57,25.75,6.94,37.84,12,39C546.82,417.03,642.74,279,589.86,196.93z"
	/>
<g>
	<path class="st17" d="M491.56,302.69c-2.37-4.12-2.13-8.19-1.93-11.53c0.09-1.51,0.66-11.17,6.75-16.91
		c11.57-10.91,45.46-9.98,57.88,5.38c5.58,6.9,7.7,17.8,0.96,26.14c-9.27,11.48-28.98,10.29-33.77,9.99
		C518.8,315.59,498.13,314.11,491.56,302.69z"/>
	<path class="st30" d="M559.01,307.44c0.37-2.46,2.7-19.66-10-31.15c-15.64-14.15-44.75-11.19-56,1.83c-2.9,3.36-4.3,7.02-5,10.08"
		/>
	<circle class="st1" cx="518.26" cy="290.19" r="12.25"/>
	<circle class="st17" cx="524.04" cy="286.55" r="4.76"/>
	<path class="st17" d="M429.08,301.27c2.37-4.12,2.13-8.19,1.93-11.53c-0.09-1.51-0.66-11.17-6.75-16.91
		c-11.57-10.91-45.46-9.98-57.88,5.38c-5.58,6.9-7.7,17.8-0.96,26.14c9.27,11.48,28.98,10.29,33.77,9.99
		C401.84,314.18,422.52,312.7,429.08,301.27z"/>
	<circle class="st1" cx="402.38" cy="288.77" r="12.25"/>
	<circle class="st17" cx="408.6" cy="285.14" r="4.76"/>
	<path class="st3" d="M368.51,307.5c3.03,1.51,28.63,13.79,50,1c5.27-3.15,9.16-7.16,12-11"/>
	<path class="st27" d="M418.01,251.44c-23.83-0.75-45.82,3.13-65,14"/>
	<path class="st27" d="M500.05,251.42c23.83-0.75,45.82,3.13,65,14"/>
	<path class="st30" d="M360.87,304.66c-0.37-2.46-2.7-19.66,10-31.15c15.64-14.15,44.75-11.19,56,1.83c2.9,3.36,4.3,7.02,5,10.08"/>
	<path class="st3" d="M552.26,309.42c-3.03,1.51-28.63,13.79-50,1c-5.27-3.15-9.16-7.16-12-11"/>
</g>
<path class="st31" d="M590.6,195.83c-49.97-77.72-214.39-75.78-261.94,7.88c-48.76,85.78,50.89,212.54,68.7,207.72
	c8.49-2.3-0.33-34.83,24-73c7.69-12.06,21.79-34.19,40-34c29.86,0.31,51.87,60.45,55,69c9.61,26.24,7.01,37.84,12,39
	C546.49,416.64,643.56,278.2,590.6,195.83z"/>
<path class="st32" d="M284.86,149.93c115.67-0.33,231.33-0.67,347-1"/>
<path class="st33" d="M314.05,192.43c51.59-0.96,103.19-1.96,154.79-3c48.09-0.97,96.19-1.97,144.29-3
	c5.41-12.49,10.82-24.98,16.23-37.46c-48.58-7.03-104.28-11.83-165.82-11.45c-61.51,0.37-117.13,5.84-165.62,13.45
	C303.3,164.78,308.68,178.61,314.05,192.43z"/>
<path class="st1" d="M360.88,892.93c-9.33-2-18.67-4-28-6c-9.6-133.73-2.09-272.7,13-414h32
	C351.79,622.64,340.94,765.1,360.88,892.93z"/>
<path class="st1" d="M570.88,882.93c10.67-2.67,21.33-5.33,32-8c8.4-140.74,4.58-269.68-3-395h-29
	C581.92,614.26,586.31,748.59,570.88,882.93z"/>
<text transform="matrix(1 0 0 1 459.9827 580.2841)" class="st17 st34 st35"> תמר</text>
<text transform="matrix(1 0 0 1 422.5881 619.934)" class="st17 st34 st35"> B ןוגימ</text>
</svg>
